<?xml version="1.0" encoding="UTF-8"?>
<svg id="Layer_1" data-name="Layer 1" xmlns="http://www.w3.org/2000/svg" viewBox="0 0 288.53 279.88">
  <defs>
    <style>
      .cls-1 {
        fill: #fff;
      }
    </style>
  </defs>
  <path class="cls-1" d="m280.16,143.69c0,37.51-13.32,69.59-39.96,96.22-26.64,26.64-58.72,39.96-96.23,39.96s-69.54-13.32-96.08-39.96c-26.54-26.64-39.82-58.72-39.82-96.22s13.32-69.34,39.96-96.08C74.68,20.87,106.66,7.5,143.98,7.5s69.58,13.32,96.23,39.96c26.64,26.64,39.96,58.72,39.96,96.23Zm-19.04.58c0-32.5-11.37-60.2-34.09-83.1-22.73-22.89-50.36-34.34-82.91-34.34s-60.19,11.45-82.91,34.34c-22.73,22.89-34.09,50.59-34.09,83.1s11.46,59.54,34.38,82.23c22.92,22.69,50.46,34.05,82.62,34.05s59.7-11.35,82.62-34.05c22.92-22.7,34.38-50.11,34.38-82.23Zm-30.87-19.33v39.24h-67.52v66.65h-39.24v-66.65H56.84v-39.24h66.65V57.42h39.24v67.52h67.52Z"/>
</svg>