<?xml version="1.0" encoding="UTF-8"?>
<svg id="uuid-94b3f9c4-f96f-4aa7-b121-7a471dc659de" data-name="Layer 1" xmlns="http://www.w3.org/2000/svg" xmlns:xlink="http://www.w3.org/1999/xlink" viewBox="0 0 1920 768">
  <defs>
    <style>
      .uuid-95791002-9b82-4fb0-a27b-d7b63b8353f1 {
        clip-path: url(#uuid-dc3cc6c0-b30b-4b79-9953-ae5eed598068);
      }

      .uuid-42eb3cd7-c7c7-4de8-8206-0db7559f991b {
        fill: none;
      }

      .uuid-42eb3cd7-c7c7-4de8-8206-0db7559f991b, .uuid-6ad6d39f-e5a7-42bc-807e-9fcb83068d70 {
        stroke-width: 0px;
      }

      .uuid-6ad6d39f-e5a7-42bc-807e-9fcb83068d70 {
        fill: #fff;
      }
    </style>
    <clipPath id="uuid-dc3cc6c0-b30b-4b79-9953-ae5eed598068">
      <rect class="uuid-42eb3cd7-c7c7-4de8-8206-0db7559f991b" x="321.37" y="269.76" width="1277.26" height="228.47"/>
    </clipPath>
  </defs>
  <g id="uuid-e103b547-d772-4a02-809a-9db10ee00694" data-name="Group 807">
    <path id="uuid-08c84bd8-d0ae-419c-9c2f-9755a47ffaea" data-name="Path 3625" class="uuid-6ad6d39f-e5a7-42bc-807e-9fcb83068d70" d="M321.37,271.87v34.36h17.18v189.9h37.68v-189.9h17.18v-34.36h-72.04Z"/>
    <path id="uuid-fbd87af9-7e99-4924-bdeb-48591889359b" data-name="Path 3626" class="uuid-6ad6d39f-e5a7-42bc-807e-9fcb83068d70" d="M445.25,271.87v87.11h-8.13v-87.11h-38.28v224.26h38.28v-97.66h8.13v97.66h37.98v-224.26h-37.98Z"/>
    <path id="uuid-1a69af20-67be-4851-b016-3dd518d44740" data-name="Path 3627" class="uuid-6ad6d39f-e5a7-42bc-807e-9fcb83068d70" d="M489.25,271.87v224.26h65.41v-34.96h-28.03v-64.81h22.91v-35.57h-22.91v-54.56h27.12v-34.36h-64.5Z"/>
    <g id="uuid-b560b2e9-2a18-4a41-a93e-9a84b41084bf" data-name="Group 806">
      <g class="uuid-95791002-9b82-4fb0-a27b-d7b63b8353f1">
        <g id="uuid-4800facc-f30e-49a3-ae03-61f999f4df5d" data-name="Group 805">
          <path id="uuid-47a60165-6d1d-43c9-a74a-61933f1863d9" data-name="Path 3628" class="uuid-6ad6d39f-e5a7-42bc-807e-9fcb83068d70" d="M1011,498.23c-25.02,0-37.38-11.45-37.38-34.66v-58.77h37.38v56.07c0,3.92,1.21,6.03,3.92,6.03s4.22-2.11,4.22-6.33v-43.71c0-7.23-.9-10.25-6.63-15.37l-19.59-16.88c-12.96-10.85-18.39-23.21-18.39-40.09v-39.79c0-20.8,10.85-34.96,38.28-34.96h8.74c27.43,0,36.17,13.86,36.17,31.95v49.43h-36.77v-47.63c0-3.32-1.21-4.82-3.92-4.82s-3.92,1.51-3.92,4.82v38.28c0,6.03,1.21,8.14,6.03,12.66l19.29,16.88c15.07,12.66,20.8,22.6,20.8,42.5v44.61c0,24.12-11.76,39.79-39.49,39.79h-8.74Z"/>
          <path id="uuid-515d4e34-ed94-419a-b4c6-23bf0494f06f" data-name="Path 3629" class="uuid-6ad6d39f-e5a7-42bc-807e-9fcb83068d70" d="M1063.63,271.87h43.7l6.63,108.81,6.64-108.81h42.5v224.26h-31.95v-125.39l-11.15,125.39h-13.56l-11.45-125.39v125.39h-31.35v-224.26Z"/>
          <path id="uuid-eeeb22e7-4750-40f2-bfbf-be53cdd28c7e" data-name="Path 3630" class="uuid-6ad6d39f-e5a7-42bc-807e-9fcb83068d70" d="M1256.33,454.83c0,28.03-15.38,43.4-40.39,43.4h-6.33c-26.52,0-40.69-15.67-40.69-43.4v-140.76c0-27.73,12.06-44.31,40.69-44.31h6.03c28.63,0,40.69,17.48,40.69,44.31v140.76ZM1217.14,309.85c0-4.52-1.51-6.63-4.52-6.63-2.71,0-4.22,2.11-4.22,6.63v148.3c0,3.92,1.5,6.03,4.22,6.03,3.01,0,4.52-2.11,4.52-6.03v-148.3Z"/>
          <path id="uuid-38c4d684-60f2-48f2-ad61-40d6d1b707f7" data-name="Path 3631" class="uuid-6ad6d39f-e5a7-42bc-807e-9fcb83068d70" d="M1262.14,496.13v-224.26h37.98l-.3,80.78,12.66-80.78h37.98l-18.39,101.58,19.29,122.68h-39.79l-11.75-88.31.3,88.32h-37.98Z"/>
          <path id="uuid-dc85a5ab-69c8-47e2-8cd2-74c40ba27785" data-name="Path 3632" class="uuid-6ad6d39f-e5a7-42bc-807e-9fcb83068d70" d="M1418.57,271.87v34.36h-27.13v54.55h22.91v35.57h-22.91v64.81h28.03v34.96h-65.41v-224.26h64.51Z"/>
          <path id="uuid-be63c400-e010-4074-a2b5-84e88cf85e96" data-name="Path 3633" class="uuid-6ad6d39f-e5a7-42bc-807e-9fcb83068d70" d="M1462.64,496.13h-38.28v-224.26h59.38c13.26,0,23.81,8.44,23.81,26.83v52.75c0,15.37-7.23,21.4-13.56,24.11,6.33,2.71,14.16,9.04,14.16,20.8v88.92c0,4.52.6,7.83,1.81,9.94v.91h-37.68c-1.51-2.11-2.41-5.13-2.41-9.34v-84.1c0-3.32-.61-5.13-4.22-5.13h-3.02v98.57ZM1462.64,365.61h3.02c2.71,0,4.22-1.81,4.22-5.12v-55.16c0-3.62-.61-5.12-3.92-5.12h-3.32v65.41Z"/>
          <path id="uuid-3f64a337-6f5f-40ce-9966-4d79cd0d2960" data-name="Path 3634" class="uuid-6ad6d39f-e5a7-42bc-807e-9fcb83068d70" d="M1550.4,498.23c-25.02,0-37.38-11.45-37.38-34.66v-58.77h37.38v56.07c0,3.92,1.21,6.03,3.92,6.03s4.22-2.11,4.22-6.33v-43.71c0-7.23-.9-10.25-6.63-15.37l-19.59-16.88c-12.96-10.85-18.39-23.21-18.39-40.09v-39.79c0-20.8,10.85-34.96,38.28-34.96h8.74c27.43,0,36.17,13.86,36.17,31.95v49.43h-36.77v-47.63c0-3.32-1.21-4.82-3.92-4.82s-3.92,1.51-3.92,4.82v38.28c0,6.03,1.2,8.14,6.03,12.66l19.29,16.88c15.07,12.66,20.8,22.6,20.8,42.5v44.61c0,24.12-11.76,39.79-39.49,39.79h-8.74Z"/>
          <path id="uuid-faa6c830-08ea-45ba-88e9-390d62de0acb" data-name="Path 3635" class="uuid-6ad6d39f-e5a7-42bc-807e-9fcb83068d70" d="M627.48,459.05v-65.41h37.38v66.31c0,20.2-11.15,38.29-37.98,38.29h-6.03c-28.93,0-40.39-15.38-40.39-41.9v-145.88c0-23.51,11.45-40.69,40.09-40.69h6.33c26.53,0,37.98,14.47,37.98,36.47v59.38h-37.38v-58.17c0-3.62-.6-5.73-3.92-5.73-2.71,0-3.92,1.81-3.92,5.73v151.61c0,4.22,1.21,6.33,3.92,6.33,3.32,0,3.92-2.71,3.92-6.33"/>
          <path id="uuid-cda2c8c9-8485-478c-8b78-09141a71db47" data-name="Path 3636" class="uuid-6ad6d39f-e5a7-42bc-807e-9fcb83068d70" d="M668.47,271.87h38.28v87.11h8.14v-87.11h37.98v224.26h-37.98v-97.66h-8.14v97.66h-38.28v-224.26Z"/>
          <path id="uuid-b8bd951a-5f50-488b-8751-6af54fb95fb5" data-name="Path 3637" class="uuid-6ad6d39f-e5a7-42bc-807e-9fcb83068d70" d="M801.97,455.74h-12.96l-2.11,40.39h-32.85l18.69-224.25h48.23l20.19,224.25h-37.07l-2.11-40.39ZM795.64,337.58l-4.52,85.3h9.04l-4.52-85.3Z"/>
          <rect id="uuid-bfdcf080-4c78-4809-983a-de8334cb92b6" data-name="Rectangle 1216" class="uuid-6ad6d39f-e5a7-42bc-807e-9fcb83068d70" x="842.14" y="271.87" width="38.28" height="224.26"/>
          <path id="uuid-a9a81085-bc5d-410e-8902-9e26107b889d" data-name="Path 3638" class="uuid-6ad6d39f-e5a7-42bc-807e-9fcb83068d70" d="M922.61,271.87l14.77,121.47-.3-121.47h31.65v224.26h-35.27l-17.78-134.43.3,134.43h-31.95v-224.26h38.58Z"/>
        </g>
      </g>
    </g>
  </g>
</svg>