<?xml version="1.0" encoding="UTF-8"?>
<svg id="uuid-3842cd3b-b91a-4c5f-95fc-ff8648bb1c30" data-name="uuid-20c08990-9546-4c41-9eaa-611dcfe9732e" xmlns="http://www.w3.org/2000/svg" viewBox="0 0 1920 417.33">
  <defs>
    <style>
      .uuid-4d4b9e55-0f75-4be9-8d7a-1b8a6695e525 {
        isolation: isolate;
      }

      .uuid-65b201a2-fd42-424d-b172-327e20acf4a7 {
        fill: #fff;
        stroke-width: 0px;
      }
    </style>
  </defs>
  <g id="uuid-f94d67ae-d873-4dfe-9333-88660da2f006" data-name="THE PARTY NEVER ENDS " class="uuid-4d4b9e55-0f75-4be9-8d7a-1b8a6695e525">
    <g class="uuid-4d4b9e55-0f75-4be9-8d7a-1b8a6695e525">
      <path class="uuid-65b201a2-fd42-424d-b172-327e20acf4a7" d="M39.35,169.85h73.34v9.76h-31.08v81.69h-11.17v-81.69h-31.08v-9.76Z"/>
      <path class="uuid-65b201a2-fd42-424d-b172-327e20acf4a7" d="M184.11,209.16v-39.3h10.79v91.45h-10.79v-42.13h-50.99v42.13h-10.79v-91.45h10.79v39.3h50.99Z"/>
      <path class="uuid-65b201a2-fd42-424d-b172-327e20acf4a7" d="M275.17,169.85v9.76h-52.79v29.16h47.65v9.76h-47.65v33.01h52.28v9.76h-63.07v-91.45h63.58Z"/>
      <path class="uuid-65b201a2-fd42-424d-b172-327e20acf4a7" d="M311.13,169.85h38.02c9.68,0,17.15,2.53,22.41,7.58,5.27,5.05,7.9,11.9,7.9,20.55s-2.63,15.5-7.9,20.55c-5.27,5.05-12.74,7.58-22.41,7.58h-27.23v35.19h-10.79v-91.45ZM321.92,216.35h27.23c6.34,0,11.11-1.56,14.32-4.69,3.21-3.12,4.82-7.68,4.82-13.68s-1.61-10.55-4.82-13.68c-3.21-3.12-7.99-4.69-14.32-4.69h-27.23v36.73Z"/>
      <path class="uuid-65b201a2-fd42-424d-b172-327e20acf4a7" d="M455.89,261.3h-11.43l-10.66-26.59h-41.62l-10.53,26.59h-11.3l36.48-91.45h12.07l36.99,91.45ZM396.42,223.93l-.39,1.03h33.91l-.51-1.16c-2.14-5.22-7.71-19.31-16.7-42.26-6.08,16.27-11.52,30.4-16.31,42.39Z"/>
      <path class="uuid-65b201a2-fd42-424d-b172-327e20acf4a7" d="M530.77,234.84l.9,14.77c.43,5.14,1.54,9.04,3.34,11.69h-11.17c-1.88-2.74-2.87-6.81-2.95-12.2l-.39-9.76c-.26-6.17-1.63-10.55-4.11-13.17-2.48-2.61-6.55-3.92-12.2-3.92h-29.8v39.05h-10.79v-91.45h38.66c9.42,0,16.93,2.18,22.54,6.55,5.61,4.37,8.41,10.49,8.41,18.37,0,5.57-1.35,10.26-4.05,14.06-2.7,3.81-6.36,6.49-10.98,8.03,7.71,2.4,11.9,8.39,12.59,17.98ZM474.38,212.5h29.16c5.74,0,10.25-1.48,13.55-4.43,3.29-2.95,4.94-7.17,4.94-12.65s-1.73-9.16-5.2-11.82c-3.47-2.65-8.33-3.98-14.58-3.98h-27.87v32.88Z"/>
      <path class="uuid-65b201a2-fd42-424d-b172-327e20acf4a7" d="M534.37,169.85h73.34v9.76h-31.08v81.69h-11.17v-81.69h-31.08v-9.76Z"/>
      <path class="uuid-65b201a2-fd42-424d-b172-327e20acf4a7" d="M664.74,191.17l13.36-21.32h12.2l-34.94,54.72v36.73h-10.79v-36.73l-34.94-54.72h12.33l13.49,21.45c5.82,9.08,10.7,16.95,14.64,23.63,5.48-9.25,10.36-17.17,14.64-23.76Z"/>
      <path class="uuid-65b201a2-fd42-424d-b172-327e20acf4a7" d="M107.17,308.66v-30.83h10.66v91.45h-13.1l-30.31-47.14c-8.73-13.87-15.07-24.19-19.01-30.95.26,11.99.39,27.74.39,47.27v30.83h-10.66v-91.45h13.1l30.31,47.14c8.73,13.87,15.07,24.19,19.01,30.95-.26-11.99-.39-27.74-.39-47.27Z"/>
      <path class="uuid-65b201a2-fd42-424d-b172-327e20acf4a7" d="M198.11,277.83v9.76h-52.79v29.16h47.65v9.76h-47.65v33.01h52.28v9.76h-63.07v-91.45h63.58Z"/>
      <path class="uuid-65b201a2-fd42-424d-b172-327e20acf4a7" d="M249.61,335.76l20.81-57.93h11.3l-33.91,91.45h-12.07l-34.42-91.45h11.43l21.19,57.93c3.85,10.88,6.46,18.45,7.84,22.73,1.28-4.28,3.9-11.86,7.83-22.73Z"/>
      <path class="uuid-65b201a2-fd42-424d-b172-327e20acf4a7" d="M354.29,277.83v9.76h-52.79v29.16h47.65v9.76h-47.65v33.01h52.28v9.76h-63.07v-91.45h63.58Z"/>
      <path class="uuid-65b201a2-fd42-424d-b172-327e20acf4a7" d="M433.03,342.83l.9,14.77c.43,5.14,1.54,9.04,3.34,11.69h-11.17c-1.88-2.74-2.87-6.81-2.95-12.2l-.39-9.76c-.26-6.17-1.63-10.55-4.11-13.17-2.48-2.61-6.55-3.92-12.2-3.92h-29.8v39.05h-10.79v-91.45h38.66c9.42,0,16.93,2.18,22.54,6.55,5.61,4.37,8.41,10.49,8.41,18.37,0,5.57-1.35,10.25-4.05,14.06-2.7,3.81-6.36,6.49-10.98,8.03,7.71,2.4,11.9,8.39,12.59,17.98ZM376.64,320.48h29.16c5.74,0,10.25-1.48,13.55-4.43,3.29-2.95,4.94-7.17,4.94-12.65s-1.73-9.16-5.2-11.82c-3.47-2.65-8.33-3.98-14.58-3.98h-27.87v32.88Z"/>
      <path class="uuid-65b201a2-fd42-424d-b172-327e20acf4a7" d="M536.81,277.83v9.76h-52.79v29.16h47.65v9.76h-47.65v33.01h52.28v9.76h-63.07v-91.45h63.58Z"/>
      <path class="uuid-65b201a2-fd42-424d-b172-327e20acf4a7" d="M610.4,308.66v-30.83h10.66v91.45h-13.1l-30.31-47.14c-8.73-13.87-15.07-24.19-19.01-30.95.26,11.99.39,27.74.39,47.27v30.83h-10.66v-91.45h13.1l30.31,47.14c8.73,13.87,15.07,24.19,19.01,30.95-.26-11.99-.39-27.74-.39-47.27Z"/>
      <path class="uuid-65b201a2-fd42-424d-b172-327e20acf4a7" d="M637.76,277.83h30.83c13.87,0,24.83,4.03,32.88,12.07,7.96,8.05,11.95,19.27,11.95,33.65s-3.98,25.39-11.95,33.52c-8.14,8.14-19.1,12.2-32.88,12.2h-30.83v-91.45ZM648.55,359.52h20.04c10.79,0,19.07-3.17,24.85-9.5,5.78-6.34,8.67-15.16,8.67-26.46s-2.89-20.12-8.67-26.46c-5.78-6.34-14.06-9.5-24.85-9.5h-20.04v71.93Z"/>
      <path class="uuid-65b201a2-fd42-424d-b172-327e20acf4a7" d="M758.5,371.34c-11.9,0-21.19-2.7-27.87-8.09-6.68-5.39-10.06-13.44-10.15-24.15h11.17c.26,14.99,9.2,22.48,26.84,22.48,7.45,0,13.17-1.45,17.15-4.37,3.98-2.91,5.97-7.15,5.97-12.72,0-4.37-1.65-7.77-4.94-10.21-3.3-2.44-9.06-4.56-17.28-6.36l-8.09-1.8c-9.25-2.14-16.18-5.24-20.81-9.31-4.62-4.07-6.94-9.78-6.94-17.15s2.83-13.08,8.48-17.4c5.65-4.32,13.23-6.49,22.73-6.49,6.42,0,12.01.77,16.76,2.31,4.75,1.54,8.46,3.71,11.11,6.49,2.65,2.78,4.6,5.8,5.84,9.06,1.24,3.25,1.9,6.85,1.99,10.79h-11.05c-.51-6.51-2.63-11.28-6.36-14.32-3.72-3.04-9.83-4.56-18.3-4.56-6.42,0-11.37,1.24-14.83,3.72-3.47,2.48-5.2,5.95-5.2,10.4s1.5,7.92,4.5,10.4c2.91,2.48,8.56,4.67,16.95,6.55l8.09,1.8c10.1,2.23,17.38,5.42,21.83,9.57,4.45,4.15,6.68,9.66,6.68,16.5,0,8.31-3.04,14.86-9.12,19.65-6.08,4.8-14.47,7.19-25.17,7.19Z"/>
    </g>
  </g>
</svg>