<?xml version="1.0" encoding="UTF-8"?>
<svg id="uuid-8f8d38cb-94e1-4151-9282-90f720c49e3a" data-name="Layer 1" xmlns="http://www.w3.org/2000/svg" xmlns:xlink="http://www.w3.org/1999/xlink" viewBox="0 0 1920 808">
  <defs>
    <style>
      .uuid-805a180e-3896-4a5a-9478-f981ac9cf3bb {
        fill: url(#uuid-3b43027b-4da9-49d5-8faf-75c494969c16);
        filter: url(#uuid-c5b560be-cc74-4bd2-94e7-c94172b9d634);
        stroke: url(#uuid-e2260590-2dc7-4ea7-85fb-83acee169667);
        stroke-miterlimit: 10;
      }

      .uuid-e00f3b69-7f12-48d6-9a2e-07373e0a6d29 {
        fill: #fff;
        stroke-width: 0px;
      }
    </style>
    <linearGradient id="uuid-3b43027b-4da9-49d5-8faf-75c494969c16" data-name="New Gradient Swatch 4" x1="821" y1="301.43" x2="1118.27" y2="301.43" gradientUnits="userSpaceOnUse">
      <stop offset="0" stop-color="#00abec"/>
      <stop offset=".51" stop-color="#e90089"/>
      <stop offset="1" stop-color="#f8ea1d"/>
    </linearGradient>
    <linearGradient id="uuid-e2260590-2dc7-4ea7-85fb-83acee169667" data-name="New Gradient Swatch 4" x1="820.5" x2="1118.77" xlink:href="#uuid-3b43027b-4da9-49d5-8faf-75c494969c16"/>
    <filter id="uuid-c5b560be-cc74-4bd2-94e7-c94172b9d634" data-name="outer-glow-1" filterUnits="userSpaceOnUse">
      <feOffset dx="0" dy="0"/>
      <feGaussianBlur result="uuid-690da040-158b-4047-a6ee-441ff67319a0" stdDeviation="10"/>
      <feFlood flood-color="#ec008c" flood-opacity="1"/>
      <feComposite in2="uuid-690da040-158b-4047-a6ee-441ff67319a0" operator="in"/>
      <feComposite in="SourceGraphic"/>
    </filter>
  </defs>
  <path class="uuid-805a180e-3896-4a5a-9478-f981ac9cf3bb" d="m1115.21,415.73l-114.94-257.22c-5.64-12.62-18.18-20.75-32-20.75h-.11c-13.86.04-26.4,8.26-31.97,20.95l-112.21,255.44c-7.78,17.72.27,38.4,17.99,46.18,17.72,7.78,38.4-.27,46.18-17.99l24.12-54.92h110.74c.92,0,1.84-.04,2.74-.11l25.47,56.99c5.82,13.03,18.61,20.75,32.02,20.75,4.78,0,9.63-.98,14.28-3.06,17.67-7.9,25.6-28.62,17.7-46.29Zm-172.15-98.38l25.49-58.02,25.93,58.02h-51.42Z"/>
  <g>
    <path class="uuid-e00f3b69-7f12-48d6-9a2e-07373e0a6d29" d="m371.01,613.18l18.27-43.91h7.25l18.21,43.91h-10.77l-11.03-29.17-11.15,29.17h-10.77Zm13.1-7.43l3.09-8.82h11.4l3.21,8.82h-17.7Z"/>
    <path class="uuid-e00f3b69-7f12-48d6-9a2e-07373e0a6d29" d="m486.68,614.31c-4.24,0-7.98-.97-11.21-2.9-3.23-1.93-5.75-4.63-7.56-8.1-1.81-3.46-2.71-7.51-2.71-12.13s.9-8.65,2.71-12.1c1.81-3.44,4.33-6.13,7.56-8.06,3.23-1.93,6.97-2.9,11.21-2.9,4.83,0,8.99,1.21,12.47,3.62,3.49,2.42,5.98,5.74,7.5,9.99l-9.32,3.34c-.84-2.35-2.17-4.19-4-5.51s-4.04-1.98-6.65-1.98c-2.35,0-4.4.55-6.14,1.64-1.74,1.09-3.09,2.65-4.03,4.66-.95,2.02-1.42,4.45-1.42,7.31s.47,5.3,1.42,7.34c.94,2.04,2.29,3.6,4.03,4.69,1.74,1.09,3.79,1.64,6.14,1.64,2.6,0,4.82-.66,6.65-1.98,1.83-1.32,3.16-3.16,4-5.51l9.32,3.34c-1.51,4.2-4.01,7.52-7.5,9.95-3.49,2.44-7.65,3.65-12.47,3.65Z"/>
    <path class="uuid-e00f3b69-7f12-48d6-9a2e-07373e0a6d29" d="m557.87,613.18l18.27-43.91h7.25l18.21,43.91h-10.77l-11.03-29.17-11.15,29.17h-10.77Zm13.1-7.43l3.09-8.82h11.4l3.21,8.82h-17.7Z"/>
    <path class="uuid-e00f3b69-7f12-48d6-9a2e-07373e0a6d29" d="m655.83,613.18v-43.91h13.23c7.35,0,13.04,1.93,17.07,5.8,4.03,3.87,6.05,9.37,6.05,16.51s-1.98,12.32-5.95,16.03c-3.97,3.72-9.71,5.58-17.23,5.58h-13.17Zm9.89-9.07h2.27c2.98,0,5.53-.33,7.65-1.01,2.12-.67,3.75-1.94,4.88-3.81,1.13-1.87,1.7-4.57,1.7-8.1s-.54-6.04-1.61-7.91c-1.07-1.87-2.6-3.16-4.6-3.87-2-.71-4.38-1.07-7.15-1.07h-3.15v25.77Z"/>
    <path class="uuid-e00f3b69-7f12-48d6-9a2e-07373e0a6d29" d="m748.31,613.18v-43.91h29.48v8.82h-19.59v8.06h18.65v8.82h-18.65v9.39h19.59v8.82h-29.48Z"/>
    <path class="uuid-e00f3b69-7f12-48d6-9a2e-07373e0a6d29" d="m834.81,613.18v-43.91h14.43l10.08,29.99h-1.76l10.08-29.99h14.43v43.91h-9.89v-32.32l.94.19-9.89,28.16h-9.58l-9.89-28.16.94-.19v32.32h-9.89Z"/>
    <path class="uuid-e00f3b69-7f12-48d6-9a2e-07373e0a6d29" d="m951.49,613.18v-17.33l-15.44-26.59h11.34l8.82,16.76,9.14-16.76h11.21l-15.18,26.59v17.33h-9.89Z"/>
    <path class="uuid-e00f3b69-7f12-48d6-9a2e-07373e0a6d29" d="m1117.18,614.31c-4.24,0-7.98-.97-11.21-2.9-3.23-1.93-5.75-4.63-7.56-8.1-1.81-3.46-2.71-7.49-2.71-12.06s.9-8.66,2.71-12.13c1.81-3.46,4.33-6.16,7.56-8.1,3.23-1.93,6.97-2.9,11.21-2.9s8.04.96,11.28,2.87c3.23,1.91,5.75,4.6,7.56,8.06s2.71,7.53,2.71,12.19-.91,8.66-2.74,12.13c-1.83,3.47-4.36,6.15-7.59,8.06-3.23,1.91-6.97,2.87-11.21,2.87Zm0-9.45c2.39,0,4.45-.56,6.17-1.67,1.72-1.11,3.05-2.69,4-4.73.95-2.04,1.42-4.44,1.42-7.21s-.47-5.24-1.42-7.28-2.28-3.61-4-4.73c-1.72-1.11-3.78-1.67-6.17-1.67s-4.4.55-6.14,1.64c-1.74,1.09-3.09,2.66-4.03,4.69-.95,2.04-1.42,4.48-1.42,7.34s.47,5.24,1.42,7.28c.94,2.04,2.29,3.6,4.03,4.69,1.74,1.09,3.79,1.64,6.14,1.64Z"/>
    <path class="uuid-e00f3b69-7f12-48d6-9a2e-07373e0a6d29" d="m1194.86,613.18v-43.91h29.74v8.82h-19.85v8.06h17.26v8.82h-17.26v18.21h-9.89Z"/>
    <path class="uuid-e00f3b69-7f12-48d6-9a2e-07373e0a6d29" d="m1346.88,613.18v-43.91h15.44c5.08,0,8.89,1.06,11.43,3.18,2.54,2.12,3.81,5.37,3.81,9.73s-1.29,7.69-3.88,9.95c-2.58,2.27-6.37,3.4-11.37,3.4h-5.61v17.64h-9.83Zm9.83-26.46h4.6c2.02,0,3.58-.29,4.69-.88,1.11-.59,1.67-1.76,1.67-3.53s-.52-2.8-1.54-3.37c-1.03-.57-2.64-.85-4.82-.85h-4.6v8.63Z"/>
    <path class="uuid-e00f3b69-7f12-48d6-9a2e-07373e0a6d29" d="m1452.78,614.31c-4.24,0-7.98-.97-11.21-2.9-3.24-1.93-5.76-4.63-7.56-8.1-1.81-3.46-2.71-7.49-2.71-12.06s.9-8.66,2.71-12.13c1.8-3.46,4.33-6.16,7.56-8.1,3.23-1.93,6.97-2.9,11.21-2.9s8.04.96,11.28,2.87c3.23,1.91,5.75,4.6,7.56,8.06,1.8,3.46,2.71,7.53,2.71,12.19s-.91,8.66-2.74,12.13c-1.83,3.47-4.36,6.15-7.59,8.06-3.23,1.91-6.97,2.87-11.21,2.87Zm0-9.45c2.39,0,4.45-.56,6.17-1.67,1.72-1.11,3.06-2.69,4-4.73.95-2.04,1.42-4.44,1.42-7.21s-.47-5.24-1.42-7.28c-.94-2.04-2.28-3.61-4-4.73-1.72-1.11-3.78-1.67-6.17-1.67s-4.4.55-6.14,1.64c-1.74,1.09-3.09,2.66-4.03,4.69-.95,2.04-1.42,4.48-1.42,7.34s.47,5.24,1.42,7.28c.95,2.04,2.29,3.6,4.03,4.69,1.74,1.09,3.79,1.64,6.14,1.64Z"/>
    <path class="uuid-e00f3b69-7f12-48d6-9a2e-07373e0a6d29" d="m1530.46,613.18v-43.91h15.43c5.08,0,8.89,1.06,11.43,3.18,2.54,2.12,3.81,5.37,3.81,9.73s-1.29,7.69-3.87,9.95c-2.58,2.27-6.37,3.4-11.37,3.4h-5.61v17.64h-9.83Zm9.83-26.46h4.6c2.02,0,3.58-.29,4.69-.88,1.11-.59,1.67-1.76,1.67-3.53s-.51-2.8-1.54-3.37c-1.03-.57-2.64-.85-4.82-.85h-4.6v8.63Z"/>
  </g>
</svg>