<?xml version="1.0" encoding="UTF-8"?>
<svg id="uuid-3eb31392-fc30-4de2-9c2c-f02492a8d948" data-name="uuid-def1aa44-e79f-455a-9680-95fd066033bd" xmlns="http://www.w3.org/2000/svg" xmlns:xlink="http://www.w3.org/1999/xlink" viewBox="0 0 414 456">
  <defs>
    <style>
      .uuid-8eb2e8ca-066b-41b9-bc81-8b1f152fbcf6 {
        fill: url(#uuid-080e7492-5e95-4fff-93b2-5a00f90bf5fe);
        stroke: url(#uuid-b6a19f13-69e8-45ca-9e7c-56fb9cd02cf2);
        stroke-miterlimit: 10;
        stroke-width: 1.37px;
      }
    </style>
    <linearGradient id="uuid-080e7492-5e95-4fff-93b2-5a00f90bf5fe" x1=".97" y1="471.39" x2="409.67" y2="471.39" gradientTransform="translate(0 701) scale(1 -1)" gradientUnits="userSpaceOnUse">
      <stop offset="0" stop-color="#00abec"/>
      <stop offset=".51" stop-color="#e90089"/>
      <stop offset="1" stop-color="#f8ea1d"/>
    </linearGradient>
    <linearGradient id="uuid-b6a19f13-69e8-45ca-9e7c-56fb9cd02cf2" x1=".28" y1="471.39" x2="410.35" y2="471.39" gradientTransform="translate(0 701) scale(1 -1)" gradientUnits="userSpaceOnUse">
      <stop offset="0" stop-color="#00abec"/>
      <stop offset=".51" stop-color="#e90089"/>
      <stop offset="1" stop-color="#f8ea1d"/>
    </linearGradient>
  </defs>
  <path class="uuid-8eb2e8ca-066b-41b9-bc81-8b1f152fbcf6" d="m405.45,386.77L247.42,33.14c-7.76-17.35-24.99-28.52-43.99-28.52h-.15c-19.06.06-36.29,11.35-43.96,28.8L5.05,384.61c-10.7,24.36.37,52.79,24.73,63.49,24.36,10.7,52.79-.37,63.49-24.73l33.17-75.5h152.25c1.27,0,2.53-.05,3.77-.15l35.02,78.36c8,17.91,25.59,28.53,44.02,28.53,6.57,0,13.25-1.35,19.63-4.2,24.29-10.86,35.19-39.35,24.33-63.65h-.01Zm-236.68-135.26l35.04-79.77,35.65,79.77h-70.69Z"/>
</svg>