<?xml version="1.0" encoding="UTF-8"?>
<svg id="uuid-46900eec-deac-4084-8724-79988ed66b5b" data-name="Layer 1" xmlns="http://www.w3.org/2000/svg" xmlns:xlink="http://www.w3.org/1999/xlink" viewBox="0 0 1679.01 700">
  <defs>
    <style>
      .uuid-701bb83b-5881-4330-9eb3-1a8cdd160b50 {
        fill: #00aeef;
      }

      .uuid-701bb83b-5881-4330-9eb3-1a8cdd160b50, .uuid-94e87567-53b9-4528-817e-80ac79418283, .uuid-84632f8a-28ea-48a3-baaa-e7743f094977, .uuid-23b6efe4-4a86-48e6-b7d2-114508859fee, .uuid-e8967ed8-03ea-4d5a-9622-081b6c433d0d, .uuid-3afef613-200e-40a1-9ae5-470f62fabd75, .uuid-17a8edd4-8238-48c1-894a-b8016ec387fc {
        stroke-width: 0px;
      }

      .uuid-57488197-8b80-438e-b886-4fcc79c77cb9 {
        isolation: isolate;
      }

      .uuid-94e87567-53b9-4528-817e-80ac79418283, .uuid-225ef6d2-ee26-482d-ad7f-6d02972fd521 {
        fill: none;
      }

      .uuid-84632f8a-28ea-48a3-baaa-e7743f094977 {
        fill: #fff200;
      }

      .uuid-23b6efe4-4a86-48e6-b7d2-114508859fee {
        fill: url(#uuid-ba2252fc-89e3-4e8c-90a1-b395f960fd21);
      }

      .uuid-7175c229-0074-4b03-8eb1-88454109b440 {
        clip-path: url(#uuid-f8f9a9dd-6b1b-4831-8809-1fd369501e95);
      }

      .uuid-e8967ed8-03ea-4d5a-9622-081b6c433d0d {
        fill: #fff;
      }

      .uuid-6dfce199-9295-4117-b71e-b174ab42817c {
        clip-path: url(#uuid-759a2e27-4046-4c77-a9be-517a36d98963);
      }

      .uuid-3afef613-200e-40a1-9ae5-470f62fabd75 {
        fill: #ec008c;
      }

      .uuid-17a8edd4-8238-48c1-894a-b8016ec387fc {
        fill: #231f20;
      }

      .uuid-225ef6d2-ee26-482d-ad7f-6d02972fd521 {
        stroke: #231f20;
        stroke-width: 2.11px;
      }
    </style>
    <clipPath id="uuid-f8f9a9dd-6b1b-4831-8809-1fd369501e95">
      <rect class="uuid-94e87567-53b9-4528-817e-80ac79418283" x="-126" y="-146.5" width="1542.86" height="973.13"/>
    </clipPath>
    <clipPath id="uuid-759a2e27-4046-4c77-a9be-517a36d98963">
      <path class="uuid-94e87567-53b9-4528-817e-80ac79418283" d="m28.6,487.16h1316.91c13.94,0,25.26,11.32,25.26,25.26v160.78c0,13.94-11.32,25.26-25.26,25.26H28.6c-13.94,0-25.26-11.32-25.26-25.26v-160.79c0-13.94,11.32-25.26,25.26-25.26Z"/>
    </clipPath>
    <linearGradient id="uuid-ba2252fc-89e3-4e8c-90a1-b395f960fd21" x1="137.56" y1="1061.15" x2="139.67" y2="1061.15" gradientTransform="translate(-89354.91 689910.2) scale(649.59 -649.59)" gradientUnits="userSpaceOnUse">
      <stop offset="0" stop-color="#00aeef"/>
      <stop offset=".48" stop-color="#ec008c"/>
      <stop offset="1" stop-color="#fff200"/>
    </linearGradient>
  </defs>
  <g class="uuid-7175c229-0074-4b03-8eb1-88454109b440">
    <rect class="uuid-701bb83b-5881-4330-9eb3-1a8cdd160b50" x="3.34" y="2.51" width="251.82" height="460.92" rx="25.26" ry="25.26"/>
    <rect class="uuid-3afef613-200e-40a1-9ae5-470f62fabd75" x="281.97" y="2.51" width="251.82" height="460.92" rx="25.26" ry="25.26"/>
    <rect class="uuid-84632f8a-28ea-48a3-baaa-e7743f094977" x="560.61" y="2.51" width="251.82" height="460.92" rx="25.26" ry="25.26"/>
    <rect class="uuid-17a8edd4-8238-48c1-894a-b8016ec387fc" x="839.24" y="2.51" width="251.82" height="460.92" rx="25.26" ry="25.26"/>
    <rect class="uuid-e8967ed8-03ea-4d5a-9622-081b6c433d0d" x="1117.86" y="2.05" width="251.86" height="461.84" rx="25.26" ry="25.26"/>
    <rect class="uuid-225ef6d2-ee26-482d-ad7f-6d02972fd521" x="1117.86" y="2.05" width="251.86" height="461.84" rx="25.26" ry="25.26"/>
  </g>
  <g>
    <path class="uuid-e8967ed8-03ea-4d5a-9622-081b6c433d0d" d="m39.85,39.89c0,2.51-1.82,4.03-4.82,4.03h-3.17v3.72h-1.25v-11.79h4.41c3,0,4.82,1.52,4.82,4.04Zm-1.25,0c0-1.89-1.25-2.96-3.6-2.96h-3.13v5.9h3.13c2.36,0,3.6-1.08,3.6-2.93Z"/>
    <path class="uuid-e8967ed8-03ea-4d5a-9622-081b6c433d0d" d="m50.44,38.78v8.86h-1.15v-1.62c-.62,1.08-1.77,1.7-3.18,1.7-2.26,0-3.74-1.26-3.74-3.81v-5.14h1.2v5.02c0,1.89.98,2.85,2.66,2.85,1.85,0,3.02-1.2,3.02-3.22v-4.65h1.2Z"/>
    <path class="uuid-e8967ed8-03ea-4d5a-9622-081b6c433d0d" d="m58.25,38.71v1.16c-.1,0-.2-.02-.29-.02-1.85,0-2.98,1.18-2.98,3.27v4.51h-1.2v-8.86h1.15v1.74c.56-1.18,1.68-1.8,3.32-1.8Z"/>
    <path class="uuid-e8967ed8-03ea-4d5a-9622-081b6c433d0d" d="m68.06,43.58h-7.41c.13,1.85,1.55,3.08,3.49,3.08,1.08,0,2.04-.39,2.71-1.16l.67.77c-.79.94-2.02,1.45-3.42,1.45-2.76,0-4.65-1.89-4.65-4.51s1.84-4.5,4.33-4.5,4.3,1.84,4.3,4.5c0,.1-.02.24-.02.37Zm-7.41-.89h6.28c-.15-1.74-1.42-2.95-3.15-2.95s-2.98,1.21-3.13,2.95Z"/>
    <path class="uuid-e8967ed8-03ea-4d5a-9622-081b6c433d0d" d="m74.13,41.74c0-3.45,2.63-6,6.18-6,1.72,0,3.27.57,4.31,1.72l-.79.79c-.96-.98-2.14-1.4-3.49-1.4-2.85,0-4.99,2.09-4.99,4.89s2.14,4.89,4.99,4.89c1.35,0,2.53-.42,3.49-1.42l.79.79c-1.04,1.15-2.59,1.74-4.33,1.74-3.54,0-6.17-2.54-6.17-6Z"/>
    <path class="uuid-e8967ed8-03ea-4d5a-9622-081b6c433d0d" d="m94.48,38.78l-4.43,9.92c-.74,1.74-1.68,2.29-2.95,2.29-.83,0-1.62-.27-2.16-.81l.56-.89c.44.44.98.67,1.62.67.79,0,1.33-.37,1.84-1.48l.39-.86-3.96-8.84h1.25l3.34,7.53,3.33-7.53h1.18Z"/>
    <path class="uuid-e8967ed8-03ea-4d5a-9622-081b6c433d0d" d="m102.58,42.14v5.49h-1.15v-1.38c-.54.91-1.58,1.47-3.05,1.47-2,0-3.23-1.04-3.23-2.58,0-1.36.88-2.51,3.42-2.51h2.81v-.54c0-1.52-.86-2.34-2.51-2.34-1.15,0-2.22.4-2.95,1.04l-.54-.89c.89-.76,2.21-1.2,3.61-1.2,2.29,0,3.59,1.15,3.59,3.44Zm-1.2,2.83v-1.45h-2.78c-1.72,0-2.27.67-2.27,1.58,0,1.03.83,1.67,2.24,1.67s2.34-.64,2.81-1.8Z"/>
    <path class="uuid-e8967ed8-03ea-4d5a-9622-081b6c433d0d" d="m113.98,42.5v5.14h-1.2v-5.02c0-1.87-.98-2.83-2.66-2.83-1.9,0-3.1,1.18-3.1,3.2v4.65h-1.2v-8.86h1.15v1.63c.64-1.08,1.84-1.7,3.37-1.7,2.16,0,3.64,1.25,3.64,3.79Z"/>
  </g>
  <g>
    <path class="uuid-e8967ed8-03ea-4d5a-9622-081b6c433d0d" d="m29.57,82.16c0-3.45,2.63-6,6.18-6,1.72,0,3.27.57,4.31,1.72l-.79.79c-.96-.98-2.14-1.4-3.49-1.4-2.85,0-4.99,2.09-4.99,4.89s2.14,4.89,4.99,4.89c1.35,0,2.53-.42,3.49-1.42l.79.79c-1.04,1.15-2.59,1.73-4.33,1.73-3.54,0-6.17-2.54-6.17-6Z"/>
    <path class="uuid-e8967ed8-03ea-4d5a-9622-081b6c433d0d" d="m49.36,76.26v11.79h-1.21v-10.71h-2.78v-1.08h3.99Z"/>
    <path class="uuid-e8967ed8-03ea-4d5a-9622-081b6c433d0d" d="m52.17,82.16c0-3.76,1.97-6,4.7-6s4.72,2.24,4.72,6-1.99,6-4.72,6-4.7-2.24-4.7-6Zm8.17,0c0-3.15-1.42-4.89-3.47-4.89s-3.47,1.74-3.47,4.89,1.42,4.89,3.47,4.89,3.47-1.74,3.47-4.89Z"/>
    <path class="uuid-e8967ed8-03ea-4d5a-9622-081b6c433d0d" d="m63.32,82.16c0-3.76,1.97-6,4.7-6s4.72,2.24,4.72,6-1.99,6-4.72,6-4.7-2.24-4.7-6Zm8.17,0c0-3.15-1.42-4.89-3.47-4.89s-3.47,1.74-3.47,4.89,1.42,4.89,3.47,4.89,3.47-1.74,3.47-4.89Z"/>
  </g>
  <g>
    <path class="uuid-e8967ed8-03ea-4d5a-9622-081b6c433d0d" d="m42.86,96.47v11.79h-1.2v-9.43l-4.63,7.93h-.59l-4.63-7.88v9.38h-1.2v-11.79h1.03l5.12,8.74,5.07-8.74h1.03Z"/>
    <path class="uuid-e8967ed8-03ea-4d5a-9622-081b6c433d0d" d="m50.07,102.37c0-3.76,1.97-6,4.7-6s4.72,2.24,4.72,6-1.99,6-4.72,6-4.7-2.24-4.7-6Zm8.17,0c0-3.15-1.42-4.89-3.47-4.89s-3.47,1.74-3.47,4.89,1.42,4.89,3.47,4.89,3.47-1.74,3.47-4.89Z"/>
  </g>
  <g>
    <path class="uuid-e8967ed8-03ea-4d5a-9622-081b6c433d0d" d="m34.66,124.39v4.08h-1.23v-4.08l-4.72-7.72h1.33l4.04,6.62,4.04-6.62h1.25l-4.72,7.72Z"/>
    <path class="uuid-e8967ed8-03ea-4d5a-9622-081b6c433d0d" d="m44.68,122.57c0-3.76,1.97-6,4.7-6s4.72,2.24,4.72,6-1.99,6-4.72,6-4.7-2.24-4.7-6Zm8.17,0c0-3.15-1.42-4.89-3.47-4.89s-3.47,1.73-3.47,4.89,1.42,4.89,3.47,4.89,3.47-1.73,3.47-4.89Z"/>
  </g>
  <g>
    <path class="uuid-e8967ed8-03ea-4d5a-9622-081b6c433d0d" d="m34.27,143.14l-2.41,2.44v3.1h-1.25v-11.79h1.25v7.13l6.92-7.13h1.43l-5.1,5.34,5.46,6.45h-1.48l-4.82-5.54Z"/>
    <path class="uuid-e8967ed8-03ea-4d5a-9622-081b6c433d0d" d="m45.96,142.78c0-3.76,1.97-6,4.7-6s4.72,2.24,4.72,6-1.99,6-4.72,6-4.7-2.24-4.7-6Zm8.17,0c0-3.15-1.42-4.89-3.47-4.89s-3.47,1.73-3.47,4.89,1.42,4.89,3.47,4.89,3.47-1.73,3.47-4.89Z"/>
  </g>
  <g>
    <path class="uuid-e8967ed8-03ea-4d5a-9622-081b6c433d0d" d="m38.67,189.1l-2.7-3.79c-.3.03-.61.05-.94.05h-3.17v3.74h-1.25v-11.79h4.41c3,0,4.82,1.52,4.82,4.04,0,1.85-.98,3.15-2.7,3.71l2.88,4.04h-1.36Zm-.07-7.75c0-1.89-1.25-2.96-3.6-2.96h-3.13v5.91h3.13c2.36,0,3.6-1.1,3.6-2.95Z"/>
    <path class="uuid-e8967ed8-03ea-4d5a-9622-081b6c433d0d" d="m46.16,183.2c0-3.76,1.97-6,4.7-6s4.72,2.24,4.72,6-1.99,6-4.72,6-4.7-2.24-4.7-6Zm8.17,0c0-3.15-1.42-4.89-3.47-4.89s-3.47,1.74-3.47,4.89,1.42,4.89,3.47,4.89,3.47-1.74,3.47-4.89Z"/>
  </g>
  <g>
    <path class="uuid-e8967ed8-03ea-4d5a-9622-081b6c433d0d" d="m38.92,203.41h1.2v4.5c-1.11.99-2.7,1.5-4.33,1.5-3.59,0-6.22-2.54-6.22-6s2.63-6,6.23-6c1.79,0,3.34.57,4.38,1.7l-.77.79c-.99-.98-2.17-1.38-3.55-1.38-2.91,0-5.05,2.07-5.05,4.89s2.14,4.89,5.04,4.89c1.13,0,2.17-.25,3.08-.91v-3.98Z"/>
    <path class="uuid-e8967ed8-03ea-4d5a-9622-081b6c433d0d" d="m50.27,197.51v11.79h-1.21v-10.71h-2.78v-1.08h3.99Z"/>
    <path class="uuid-e8967ed8-03ea-4d5a-9622-081b6c433d0d" d="m61.4,197.51v.86l-4.94,10.93h-1.31l4.85-10.71h-6.06v2.21h-1.2v-3.28h8.66Z"/>
    <path class="uuid-e8967ed8-03ea-4d5a-9622-081b6c433d0d" d="m71.95,206.2h-2.36v3.1h-1.21v-3.1h-6.65v-.88l6.25-7.82h1.35l-6.03,7.61h5.12v-2.73h1.18v2.73h2.36v1.08Z"/>
  </g>
  <g>
    <path class="uuid-e8967ed8-03ea-4d5a-9622-081b6c433d0d" d="m40.47,226.36c0,2-1.48,3.15-4.43,3.15h-5.42v-11.79h5.09c2.63,0,4.14,1.11,4.14,3.03,0,1.35-.72,2.24-1.8,2.68,1.52.34,2.43,1.33,2.43,2.93Zm-8.61-7.61v4.28h3.76c1.89,0,2.98-.72,2.98-2.14s-1.1-2.14-2.98-2.14h-3.76Zm7.36,7.51c0-1.53-1.13-2.21-3.2-2.21h-4.16v4.43h4.16c2.07,0,3.2-.67,3.2-2.22Z"/>
    <path class="uuid-e8967ed8-03ea-4d5a-9622-081b6c433d0d" d="m54.73,228.43v1.08h-8.27v-.86l4.9-4.8c1.33-1.31,1.58-2.11,1.58-2.91,0-1.36-.96-2.21-2.76-2.21-1.38,0-2.44.42-3.22,1.31l-.86-.74c.91-1.08,2.38-1.68,4.18-1.68,2.39,0,3.91,1.21,3.91,3.18,0,1.13-.35,2.14-1.94,3.69l-4.01,3.94h6.49Z"/>
    <path class="uuid-e8967ed8-03ea-4d5a-9622-081b6c433d0d" d="m64.05,226.13c0,1.97-1.43,3.49-4.28,3.49-1.7,0-3.33-.59-4.25-1.52l.59-.96c.76.79,2.12,1.36,3.66,1.36,1.95,0,3.03-.91,3.03-2.38s-.99-2.34-3.18-2.34h-.84v-.89l3.27-4.09h-6.03v-1.08h7.58v.86l-3.34,4.19c2.53.13,3.79,1.47,3.79,3.35Z"/>
    <path class="uuid-e8967ed8-03ea-4d5a-9622-081b6c433d0d" d="m74.25,223.52c0,4.01-2.19,6.1-5.39,6.1-1.06,0-2.06-.19-2.8-.64l.49-.98c.61.4,1.42.56,2.29.56,2.54,0,4.18-1.63,4.18-4.83,0-.27-.02-.61-.05-.96-.59,1.3-1.97,2.02-3.61,2.02-2.34,0-3.98-1.38-3.98-3.54s1.74-3.62,4.03-3.62c3.13,0,4.83,2.17,4.83,5.9Zm-1.67-2.34c0-1.3-1.08-2.53-3.12-2.53-1.7,0-2.88.99-2.88,2.56s1.15,2.54,2.96,2.54,3.03-1.11,3.03-2.58Z"/>
  </g>
  <g>
    <path class="uuid-e8967ed8-03ea-4d5a-9622-081b6c433d0d" d="m40.47,258.14v11.79h-1.23v-5.44h-7.38v5.44h-1.25v-11.79h1.25v5.26h7.38v-5.26h1.23Z"/>
    <path class="uuid-e8967ed8-03ea-4d5a-9622-081b6c433d0d" d="m50.94,258.14v11.79h-1.21v-10.71h-2.78v-1.08h3.99Z"/>
    <path class="uuid-e8967ed8-03ea-4d5a-9622-081b6c433d0d" d="m62.26,263.93c0,4.01-2.19,6.1-5.39,6.1-1.06,0-2.06-.19-2.8-.64l.49-.98c.61.4,1.42.56,2.29.56,2.54,0,4.18-1.63,4.18-4.83,0-.27-.02-.61-.05-.96-.59,1.3-1.97,2.02-3.61,2.02-2.34,0-3.98-1.38-3.98-3.54s1.74-3.62,4.03-3.62c3.13,0,4.83,2.17,4.83,5.9Zm-1.67-2.34c0-1.3-1.08-2.53-3.12-2.53-1.7,0-2.88.99-2.88,2.56s1.15,2.54,2.96,2.54,3.03-1.11,3.03-2.58Z"/>
    <path class="uuid-e8967ed8-03ea-4d5a-9622-081b6c433d0d" d="m72.87,266.41c0,2.21-1.73,3.62-4.03,3.62-3.13,0-4.83-2.17-4.83-5.9,0-4.01,2.19-6.1,5.39-6.1,1.06,0,2.06.19,2.8.64l-.49.98c-.61-.4-1.42-.56-2.29-.56-2.54,0-4.18,1.63-4.18,4.83,0,.27.02.61.05.96.59-1.3,1.97-2.02,3.6-2.02,2.34,0,3.98,1.38,3.98,3.54Zm-1.2.03c0-1.55-1.15-2.54-2.96-2.54s-3.03,1.11-3.03,2.58c0,1.3,1.08,2.53,3.12,2.53,1.7,0,2.88-.99,2.88-2.56Z"/>
    <path class="uuid-e8967ed8-03ea-4d5a-9622-081b6c433d0d" d="m76.25,269.09c0,.29-.07.51-.24.98l-.71,2.32h-.81l.57-2.44c-.35-.1-.61-.42-.61-.86,0-.52.39-.91.89-.91s.89.4.89.91Z"/>
  </g>
  <g>
    <path class="uuid-e8967ed8-03ea-4d5a-9622-081b6c433d0d" d="m29.49,288.71l.49-.96c.84.83,2.34,1.43,3.89,1.43,2.21,0,3.17-.93,3.17-2.09,0-3.23-7.26-1.25-7.26-5.61,0-1.73,1.35-3.23,4.35-3.23,1.33,0,2.71.39,3.66,1.04l-.42.99c-1.01-.66-2.19-.98-3.23-.98-2.16,0-3.12.96-3.12,2.14,0,3.23,7.26,1.28,7.26,5.58,0,1.73-1.38,3.22-4.4,3.22-1.77,0-3.5-.62-4.38-1.53Z"/>
    <path class="uuid-e8967ed8-03ea-4d5a-9622-081b6c433d0d" d="m47.61,278.35v11.79h-1.21v-10.71h-2.78v-1.08h3.99Z"/>
    <path class="uuid-e8967ed8-03ea-4d5a-9622-081b6c433d0d" d="m50.42,284.24c0-3.76,1.97-6,4.7-6s4.72,2.24,4.72,6-1.99,6-4.72,6-4.7-2.24-4.7-6Zm8.17,0c0-3.15-1.42-4.89-3.47-4.89s-3.47,1.74-3.47,4.89,1.42,4.89,3.47,4.89,3.47-1.74,3.47-4.89Z"/>
    <path class="uuid-e8967ed8-03ea-4d5a-9622-081b6c433d0d" d="m61.57,284.24c0-3.76,1.97-6,4.7-6s4.72,2.24,4.72,6-1.99,6-4.72,6-4.7-2.24-4.7-6Zm8.17,0c0-3.15-1.42-4.89-3.47-4.89s-3.47,1.74-3.47,4.89,1.42,4.89,3.47,4.89,3.47-1.74,3.47-4.89Z"/>
  </g>
  <g>
    <path class="uuid-e8967ed8-03ea-4d5a-9622-081b6c433d0d" d="m40.47,307.2c0,2-1.48,3.15-4.43,3.15h-5.42v-11.79h5.09c2.63,0,4.14,1.11,4.14,3.03,0,1.35-.72,2.24-1.8,2.68,1.52.34,2.43,1.33,2.43,2.93Zm-8.61-7.61v4.28h3.76c1.89,0,2.98-.72,2.98-2.14s-1.1-2.14-2.98-2.14h-3.76Zm7.36,7.51c0-1.53-1.13-2.21-3.2-2.21h-4.16v4.43h4.16c2.07,0,3.2-.67,3.2-2.22Z"/>
    <path class="uuid-e8967ed8-03ea-4d5a-9622-081b6c433d0d" d="m55.19,304.35c0,4.01-2.19,6.1-5.39,6.1-1.06,0-2.05-.19-2.8-.64l.49-.98c.61.4,1.42.56,2.29.56,2.54,0,4.18-1.63,4.18-4.83,0-.27-.02-.61-.05-.96-.59,1.3-1.97,2.02-3.6,2.02-2.34,0-3.98-1.38-3.98-3.54s1.73-3.62,4.03-3.62c3.13,0,4.83,2.17,4.83,5.9Zm-1.67-2.34c0-1.3-1.08-2.53-3.12-2.53-1.7,0-2.88.99-2.88,2.56s1.15,2.54,2.96,2.54,3.03-1.11,3.03-2.58Z"/>
    <path class="uuid-e8967ed8-03ea-4d5a-9622-081b6c433d0d" d="m66.96,307.25h-2.36v3.1h-1.21v-3.1h-6.65v-.88l6.25-7.82h1.35l-6.03,7.61h5.12v-2.73h1.18v2.73h2.36v1.08Z"/>
  </g>
  <g>
    <path class="uuid-e8967ed8-03ea-4d5a-9622-081b6c433d0d" d="m40.47,338.97v11.79h-1.23v-5.44h-7.38v5.44h-1.25v-11.79h1.25v5.26h7.38v-5.26h1.23Z"/>
    <path class="uuid-e8967ed8-03ea-4d5a-9622-081b6c433d0d" d="m52.65,349.69v1.08h-8.34v-11.79h8.09v1.08h-6.84v4.19h6.1v1.06h-6.1v4.38h7.09Z"/>
    <path class="uuid-e8967ed8-03ea-4d5a-9622-081b6c433d0d" d="m62.83,350.77l-3.81-5.19-3.79,5.19h-1.43l4.48-6.06-4.19-5.73h1.43l3.55,4.82,3.54-4.82h1.35l-4.18,5.69,4.5,6.1h-1.45Z"/>
    <path class="uuid-e8967ed8-03ea-4d5a-9622-081b6c433d0d" d="m69.85,344.87c0-3.76,1.97-6,4.7-6s4.72,2.24,4.72,6-1.99,6-4.72,6-4.7-2.24-4.7-6Zm8.17,0c0-3.15-1.42-4.89-3.47-4.89s-3.47,1.73-3.47,4.89,1.42,4.89,3.47,4.89,3.47-1.73,3.47-4.89Z"/>
    <path class="uuid-e8967ed8-03ea-4d5a-9622-081b6c433d0d" d="m81,344.87c0-3.76,1.97-6,4.7-6s4.72,2.24,4.72,6-1.99,6-4.72,6-4.7-2.24-4.7-6Zm8.17,0c0-3.15-1.42-4.89-3.47-4.89s-3.47,1.73-3.47,4.89,1.42,4.89,3.47,4.89,3.47-1.73,3.47-4.89Z"/>
    <path class="uuid-e8967ed8-03ea-4d5a-9622-081b6c433d0d" d="m100.49,347.62h-6.57l-1.42,3.15h-1.3l5.39-11.79h1.23l5.39,11.79h-1.31l-1.42-3.15Zm-.45-1.01l-2.83-6.33-2.83,6.33h5.66Z"/>
    <path class="uuid-e8967ed8-03ea-4d5a-9622-081b6c433d0d" d="m113.51,349.69v1.08h-8.34v-11.79h8.09v1.08h-6.84v4.19h6.1v1.06h-6.1v4.38h7.09Z"/>
    <path class="uuid-e8967ed8-03ea-4d5a-9622-081b6c433d0d" d="m124.77,349.69v1.08h-8.34v-11.79h8.09v1.08h-6.84v4.19h6.1v1.06h-6.1v4.38h7.09Z"/>
    <path class="uuid-e8967ed8-03ea-4d5a-9622-081b6c433d0d" d="m128.95,340.05v4.63h6.1v1.08h-6.1v5h-1.25v-11.79h8.09v1.08h-6.84Z"/>
  </g>
  <g>
    <path class="uuid-e8967ed8-03ea-4d5a-9622-081b6c433d0d" d="m39.85,363.22c0,2.51-1.82,4.03-4.82,4.03h-3.17v3.72h-1.25v-11.79h4.41c3,0,4.82,1.52,4.82,4.04Zm-1.25,0c0-1.89-1.25-2.96-3.6-2.96h-3.13v5.9h3.13c2.36,0,3.6-1.08,3.6-2.93Z"/>
    <path class="uuid-e8967ed8-03ea-4d5a-9622-081b6c433d0d" d="m54.8,359.18v11.79h-1.2v-9.43l-4.63,7.93h-.59l-4.63-7.88v9.38h-1.2v-11.79h1.03l5.12,8.74,5.07-8.74h1.03Z"/>
    <path class="uuid-e8967ed8-03ea-4d5a-9622-081b6c433d0d" d="m57.51,369.54l.49-.96c.84.83,2.34,1.43,3.89,1.43,2.21,0,3.17-.93,3.17-2.09,0-3.23-7.26-1.25-7.26-5.61,0-1.73,1.35-3.23,4.35-3.23,1.33,0,2.71.39,3.66,1.04l-.42.99c-1.01-.66-2.19-.98-3.23-.98-2.16,0-3.12.96-3.12,2.14,0,3.23,7.26,1.28,7.26,5.58,0,1.73-1.38,3.22-4.4,3.22-1.77,0-3.5-.62-4.38-1.53Z"/>
    <path class="uuid-e8967ed8-03ea-4d5a-9622-081b6c433d0d" d="m82.64,363.22c0,2.51-1.82,4.03-4.82,4.03h-3.17v3.72h-1.25v-11.79h4.41c3,0,4.82,1.52,4.82,4.04Zm-1.25,0c0-1.89-1.25-2.96-3.6-2.96h-3.13v5.9h3.13c2.36,0,3.6-1.08,3.6-2.93Z"/>
    <path class="uuid-e8967ed8-03ea-4d5a-9622-081b6c433d0d" d="m89.32,362.04v1.16c-.1,0-.2-.02-.29-.02-1.85,0-2.98,1.18-2.98,3.27v4.51h-1.2v-8.86h1.15v1.73c.56-1.18,1.68-1.8,3.32-1.8Z"/>
    <path class="uuid-e8967ed8-03ea-4d5a-9622-081b6c433d0d" d="m90.52,366.54c0-2.63,1.92-4.5,4.51-4.5s4.5,1.87,4.5,4.5-1.9,4.51-4.5,4.51-4.51-1.89-4.51-4.51Zm7.8,0c0-2.07-1.4-3.45-3.28-3.45s-3.3,1.38-3.3,3.45,1.42,3.45,3.3,3.45,3.28-1.38,3.28-3.45Z"/>
    <path class="uuid-e8967ed8-03ea-4d5a-9622-081b6c433d0d" d="m101.08,366.54c0-2.64,1.92-4.5,4.57-4.5,1.5,0,2.76.59,3.47,1.75l-.89.61c-.61-.89-1.55-1.31-2.58-1.31-1.94,0-3.35,1.38-3.35,3.45s1.42,3.45,3.35,3.45c1.03,0,1.97-.4,2.58-1.3l.89.61c-.71,1.15-1.97,1.75-3.47,1.75-2.65,0-4.57-1.87-4.57-4.51Z"/>
    <path class="uuid-e8967ed8-03ea-4d5a-9622-081b6c433d0d" d="m119.03,366.91h-7.41c.13,1.85,1.55,3.08,3.49,3.08,1.08,0,2.04-.39,2.71-1.16l.67.78c-.79.94-2.02,1.45-3.42,1.45-2.76,0-4.65-1.89-4.65-4.51s1.84-4.5,4.33-4.5,4.3,1.84,4.3,4.5c0,.1-.02.24-.02.37Zm-7.41-.89h6.28c-.15-1.73-1.42-2.95-3.15-2.95s-2.98,1.21-3.13,2.95Z"/>
    <path class="uuid-e8967ed8-03ea-4d5a-9622-081b6c433d0d" d="m120.26,369.96l.54-.94c.71.56,1.9.99,3.15.99,1.68,0,2.38-.57,2.38-1.45,0-2.31-5.74-.49-5.74-3.99,0-1.45,1.25-2.53,3.5-2.53,1.15,0,2.39.32,3.13.83l-.52.96c-.77-.54-1.7-.76-2.61-.76-1.6,0-2.31.62-2.31,1.47,0,2.39,5.74.59,5.74,3.99,0,1.53-1.35,2.53-3.66,2.53-1.47,0-2.88-.47-3.6-1.09Z"/>
    <path class="uuid-e8967ed8-03ea-4d5a-9622-081b6c433d0d" d="m128.49,369.96l.54-.94c.71.56,1.9.99,3.15.99,1.68,0,2.38-.57,2.38-1.45,0-2.31-5.74-.49-5.74-3.99,0-1.45,1.25-2.53,3.5-2.53,1.15,0,2.39.32,3.13.83l-.52.96c-.77-.54-1.7-.76-2.61-.76-1.6,0-2.31.62-2.31,1.47,0,2.39,5.74.59,5.74,3.99,0,1.53-1.35,2.53-3.66,2.53-1.47,0-2.88-.47-3.6-1.09Z"/>
    <path class="uuid-e8967ed8-03ea-4d5a-9622-081b6c433d0d" d="m141.58,365.08c0-3.45,2.63-6,6.18-6,1.72,0,3.27.57,4.31,1.72l-.79.79c-.96-.98-2.14-1.4-3.49-1.4-2.85,0-4.99,2.09-4.99,4.89s2.14,4.89,4.99,4.89c1.35,0,2.53-.42,3.49-1.42l.79.79c-1.04,1.15-2.59,1.73-4.33,1.73-3.54,0-6.17-2.54-6.17-6Z"/>
    <path class="uuid-e8967ed8-03ea-4d5a-9622-081b6c433d0d" d="m161.92,362.11l-4.43,9.92c-.74,1.73-1.68,2.29-2.95,2.29-.83,0-1.62-.27-2.16-.81l.56-.89c.44.44.98.67,1.62.67.79,0,1.33-.37,1.84-1.48l.39-.86-3.96-8.84h1.25l3.34,7.53,3.33-7.53h1.18Z"/>
    <path class="uuid-e8967ed8-03ea-4d5a-9622-081b6c433d0d" d="m170.02,365.48v5.49h-1.15v-1.38c-.54.91-1.58,1.47-3.05,1.47-2,0-3.23-1.04-3.23-2.58,0-1.36.88-2.51,3.42-2.51h2.81v-.54c0-1.52-.86-2.34-2.51-2.34-1.15,0-2.22.4-2.95,1.04l-.54-.89c.89-.76,2.21-1.2,3.61-1.2,2.29,0,3.59,1.15,3.59,3.44Zm-1.2,2.83v-1.45h-2.78c-1.72,0-2.27.67-2.27,1.58,0,1.03.83,1.67,2.24,1.67s2.34-.64,2.81-1.8Z"/>
    <path class="uuid-e8967ed8-03ea-4d5a-9622-081b6c433d0d" d="m181.42,365.83v5.14h-1.2v-5.02c0-1.87-.98-2.83-2.66-2.83-1.9,0-3.1,1.18-3.1,3.2v4.65h-1.2v-8.86h1.15v1.63c.64-1.08,1.84-1.7,3.37-1.7,2.16,0,3.64,1.25,3.64,3.79Z"/>
  </g>
  <g>
    <path class="uuid-e8967ed8-03ea-4d5a-9622-081b6c433d0d" d="m331.74,39.89c0,2.51-1.82,4.03-4.82,4.03h-3.17v3.72h-1.25v-11.79h4.41c3,0,4.82,1.52,4.82,4.04Zm-1.25,0c0-1.89-1.25-2.96-3.6-2.96h-3.13v5.9h3.13c2.36,0,3.6-1.08,3.6-2.93Z"/>
    <path class="uuid-e8967ed8-03ea-4d5a-9622-081b6c433d0d" d="m342.34,38.78v8.86h-1.15v-1.62c-.62,1.08-1.77,1.7-3.18,1.7-2.26,0-3.74-1.26-3.74-3.81v-5.14h1.2v5.02c0,1.89.98,2.85,2.66,2.85,1.85,0,3.02-1.2,3.02-3.22v-4.65h1.2Z"/>
    <path class="uuid-e8967ed8-03ea-4d5a-9622-081b6c433d0d" d="m350.15,38.71v1.16c-.1,0-.2-.02-.29-.02-1.85,0-2.98,1.18-2.98,3.27v4.51h-1.2v-8.86h1.15v1.74c.56-1.18,1.68-1.8,3.32-1.8Z"/>
    <path class="uuid-e8967ed8-03ea-4d5a-9622-081b6c433d0d" d="m359.95,43.58h-7.41c.13,1.85,1.55,3.08,3.49,3.08,1.08,0,2.04-.39,2.71-1.16l.67.77c-.79.94-2.02,1.45-3.42,1.45-2.76,0-4.65-1.89-4.65-4.51s1.84-4.5,4.33-4.5,4.3,1.84,4.3,4.5c0,.1-.02.24-.02.37Zm-7.41-.89h6.28c-.15-1.74-1.42-2.95-3.15-2.95s-2.98,1.21-3.13,2.95Z"/>
    <path class="uuid-e8967ed8-03ea-4d5a-9622-081b6c433d0d" d="m379.32,35.84v11.79h-1.2v-9.43l-4.63,7.93h-.59l-4.63-7.88v9.38h-1.2v-11.79h1.03l5.12,8.74,5.07-8.74h1.03Z"/>
    <path class="uuid-e8967ed8-03ea-4d5a-9622-081b6c433d0d" d="m389.59,42.14v5.49h-1.15v-1.38c-.54.91-1.58,1.47-3.05,1.47-2,0-3.23-1.04-3.23-2.58,0-1.36.88-2.51,3.42-2.51h2.81v-.54c0-1.52-.86-2.34-2.51-2.34-1.15,0-2.22.4-2.95,1.04l-.54-.89c.89-.76,2.21-1.2,3.61-1.2,2.29,0,3.59,1.15,3.59,3.44Zm-1.2,2.83v-1.45h-2.78c-1.72,0-2.27.67-2.27,1.58,0,1.03.83,1.67,2.24,1.67s2.34-.64,2.81-1.8Z"/>
    <path class="uuid-e8967ed8-03ea-4d5a-9622-081b6c433d0d" d="m401.06,38.78v7.78c0,3.05-1.5,4.43-4.43,4.43-1.62,0-3.2-.49-4.13-1.36l.61-.91c.84.76,2.12,1.21,3.49,1.21,2.24,0,3.27-1.03,3.27-3.22v-1.13c-.74,1.13-2,1.72-3.45,1.72-2.53,0-4.45-1.77-4.45-4.31s1.92-4.28,4.45-4.28c1.48,0,2.76.61,3.5,1.77v-1.7h1.15Zm-1.16,4.21c0-1.92-1.42-3.23-3.37-3.23s-3.35,1.31-3.35,3.23,1.4,3.25,3.35,3.25,3.37-1.33,3.37-3.25Z"/>
    <path class="uuid-e8967ed8-03ea-4d5a-9622-081b6c433d0d" d="m412.12,43.58h-7.41c.13,1.85,1.55,3.08,3.49,3.08,1.08,0,2.04-.39,2.71-1.16l.67.77c-.79.94-2.02,1.45-3.42,1.45-2.76,0-4.65-1.89-4.65-4.51s1.84-4.5,4.33-4.5,4.3,1.84,4.3,4.5c0,.1-.02.24-.02.37Zm-7.41-.89h6.28c-.15-1.74-1.42-2.95-3.15-2.95s-2.98,1.21-3.13,2.95Z"/>
    <path class="uuid-e8967ed8-03ea-4d5a-9622-081b6c433d0d" d="m422.73,42.5v5.14h-1.2v-5.02c0-1.87-.98-2.83-2.66-2.83-1.9,0-3.1,1.18-3.1,3.2v4.65h-1.2v-8.86h1.15v1.63c.64-1.08,1.84-1.7,3.37-1.7,2.16,0,3.64,1.25,3.64,3.79Z"/>
    <path class="uuid-e8967ed8-03ea-4d5a-9622-081b6c433d0d" d="m430.64,47.1c-.47.42-1.18.62-1.87.62-1.67,0-2.59-.94-2.59-2.58v-5.36h-1.58v-1.01h1.58v-1.94h1.2v1.94h2.7v1.01h-2.7v5.29c0,1.04.54,1.62,1.53,1.62.49,0,.98-.15,1.31-.45l.42.86Z"/>
    <path class="uuid-e8967ed8-03ea-4d5a-9622-081b6c433d0d" d="m439.5,42.14v5.49h-1.15v-1.38c-.54.91-1.58,1.47-3.05,1.47-2,0-3.23-1.04-3.23-2.58,0-1.36.88-2.51,3.42-2.51h2.81v-.54c0-1.52-.86-2.34-2.51-2.34-1.15,0-2.22.4-2.95,1.04l-.54-.89c.89-.76,2.21-1.2,3.61-1.2,2.29,0,3.59,1.15,3.59,3.44Zm-1.2,2.83v-1.45h-2.78c-1.72,0-2.27.67-2.27,1.58,0,1.03.83,1.67,2.24,1.67s2.34-.64,2.81-1.8Z"/>
  </g>
  <g>
    <path class="uuid-e8967ed8-03ea-4d5a-9622-081b6c433d0d" d="m321.47,82.16c0-3.45,2.63-6,6.18-6,1.72,0,3.27.57,4.31,1.72l-.79.79c-.96-.98-2.14-1.4-3.49-1.4-2.85,0-4.99,2.09-4.99,4.89s2.14,4.89,4.99,4.89c1.35,0,2.53-.42,3.49-1.42l.79.79c-1.04,1.15-2.59,1.73-4.33,1.73-3.54,0-6.17-2.54-6.17-6Z"/>
    <path class="uuid-e8967ed8-03ea-4d5a-9622-081b6c433d0d" d="m337.99,82.16c0-3.76,1.97-6,4.7-6s4.72,2.24,4.72,6-1.99,6-4.72,6-4.7-2.24-4.7-6Zm8.17,0c0-3.15-1.42-4.89-3.47-4.89s-3.47,1.74-3.47,4.89,1.42,4.89,3.47,4.89,3.47-1.74,3.47-4.89Z"/>
  </g>
  <g>
    <path class="uuid-e8967ed8-03ea-4d5a-9622-081b6c433d0d" d="m334.76,96.47v11.79h-1.2v-9.43l-4.63,7.93h-.59l-4.63-7.88v9.38h-1.2v-11.79h1.03l5.12,8.74,5.07-8.74h1.03Z"/>
    <path class="uuid-e8967ed8-03ea-4d5a-9622-081b6c433d0d" d="m345.23,96.47v11.79h-1.21v-10.71h-2.78v-1.08h3.99Z"/>
    <path class="uuid-e8967ed8-03ea-4d5a-9622-081b6c433d0d" d="m348.04,102.37c0-3.76,1.97-6,4.7-6s4.72,2.24,4.72,6-1.99,6-4.72,6-4.7-2.24-4.7-6Zm8.17,0c0-3.15-1.42-4.89-3.47-4.89s-3.47,1.74-3.47,4.89,1.42,4.89,3.47,4.89,3.47-1.74,3.47-4.89Z"/>
    <path class="uuid-e8967ed8-03ea-4d5a-9622-081b6c433d0d" d="m359.19,102.37c0-3.76,1.97-6,4.7-6s4.72,2.24,4.72,6-1.99,6-4.72,6-4.7-2.24-4.7-6Zm8.17,0c0-3.15-1.42-4.89-3.47-4.89s-3.47,1.74-3.47,4.89,1.42,4.89,3.47,4.89,3.47-1.74,3.47-4.89Z"/>
  </g>
  <g>
    <path class="uuid-e8967ed8-03ea-4d5a-9622-081b6c433d0d" d="m326.55,124.39v4.08h-1.23v-4.08l-4.72-7.72h1.33l4.04,6.62,4.04-6.62h1.25l-4.72,7.72Z"/>
    <path class="uuid-e8967ed8-03ea-4d5a-9622-081b6c433d0d" d="m336.57,122.57c0-3.76,1.97-6,4.7-6s4.72,2.24,4.72,6-1.99,6-4.72,6-4.7-2.24-4.7-6Zm8.17,0c0-3.15-1.42-4.89-3.47-4.89s-3.47,1.73-3.47,4.89,1.42,4.89,3.47,4.89,3.47-1.73,3.47-4.89Z"/>
  </g>
  <g>
    <path class="uuid-e8967ed8-03ea-4d5a-9622-081b6c433d0d" d="m326.17,143.14l-2.41,2.44v3.1h-1.25v-11.79h1.25v7.13l6.92-7.13h1.43l-5.1,5.34,5.46,6.45h-1.48l-4.82-5.54Z"/>
    <path class="uuid-e8967ed8-03ea-4d5a-9622-081b6c433d0d" d="m337.85,142.78c0-3.76,1.97-6,4.7-6s4.72,2.24,4.72,6-1.99,6-4.72,6-4.7-2.24-4.7-6Zm8.17,0c0-3.15-1.42-4.89-3.47-4.89s-3.47,1.73-3.47,4.89,1.42,4.89,3.47,4.89,3.47-1.73,3.47-4.89Z"/>
  </g>
  <g>
    <path class="uuid-e8967ed8-03ea-4d5a-9622-081b6c433d0d" d="m330.56,189.1l-2.7-3.79c-.3.03-.61.05-.94.05h-3.17v3.74h-1.25v-11.79h4.41c3,0,4.82,1.52,4.82,4.04,0,1.85-.98,3.15-2.7,3.71l2.88,4.04h-1.36Zm-.07-7.75c0-1.89-1.25-2.96-3.6-2.96h-3.13v5.91h3.13c2.36,0,3.6-1.1,3.6-2.95Z"/>
    <path class="uuid-e8967ed8-03ea-4d5a-9622-081b6c433d0d" d="m346.11,188.02v1.08h-8.27v-.86l4.9-4.8c1.33-1.31,1.58-2.11,1.58-2.91,0-1.36-.96-2.21-2.76-2.21-1.38,0-2.44.42-3.22,1.31l-.86-.74c.91-1.08,2.38-1.68,4.18-1.68,2.39,0,3.91,1.21,3.91,3.18,0,1.13-.35,2.14-1.94,3.69l-4.01,3.94h6.49Z"/>
    <path class="uuid-e8967ed8-03ea-4d5a-9622-081b6c433d0d" d="m355.42,185.71c0,1.97-1.43,3.49-4.28,3.49-1.7,0-3.34-.59-4.25-1.52l.59-.96c.76.79,2.12,1.36,3.66,1.36,1.95,0,3.03-.91,3.03-2.38s-.99-2.34-3.18-2.34h-.84v-.89l3.27-4.09h-6.03v-1.08h7.58v.86l-3.34,4.19c2.53.13,3.79,1.47,3.79,3.35Z"/>
    <path class="uuid-e8967ed8-03ea-4d5a-9622-081b6c433d0d" d="m365.98,185.58c0,2.21-1.74,3.62-4.03,3.62-3.13,0-4.83-2.17-4.83-5.9,0-4.01,2.19-6.1,5.39-6.1,1.06,0,2.06.19,2.8.64l-.49.98c-.61-.4-1.42-.56-2.29-.56-2.54,0-4.18,1.63-4.18,4.83,0,.27.02.61.05.96.59-1.3,1.97-2.02,3.6-2.02,2.34,0,3.98,1.38,3.98,3.54Zm-1.2.03c0-1.55-1.15-2.54-2.96-2.54s-3.03,1.11-3.03,2.58c0,1.3,1.08,2.53,3.12,2.53,1.7,0,2.88-.99,2.88-2.56Z"/>
  </g>
  <g>
    <path class="uuid-e8967ed8-03ea-4d5a-9622-081b6c433d0d" d="m330.82,203.41h1.2v4.5c-1.11.99-2.7,1.5-4.33,1.5-3.59,0-6.22-2.54-6.22-6s2.63-6,6.23-6c1.79,0,3.34.57,4.38,1.7l-.77.79c-.99-.98-2.17-1.38-3.55-1.38-2.91,0-5.05,2.07-5.05,4.89s2.14,4.89,5.04,4.89c1.13,0,2.17-.25,3.08-.91v-3.98Z"/>
    <path class="uuid-e8967ed8-03ea-4d5a-9622-081b6c433d0d" d="m338.9,203.41c0-3.76,1.97-6,4.7-6s4.72,2.24,4.72,6-1.99,6-4.72,6-4.7-2.24-4.7-6Zm8.17,0c0-3.15-1.42-4.89-3.47-4.89s-3.47,1.73-3.47,4.89,1.42,4.89,3.47,4.89,3.47-1.73,3.47-4.89Z"/>
  </g>
  <g>
    <path class="uuid-e8967ed8-03ea-4d5a-9622-081b6c433d0d" d="m332.37,226.36c0,2-1.48,3.15-4.43,3.15h-5.42v-11.79h5.09c2.63,0,4.14,1.11,4.14,3.03,0,1.35-.72,2.24-1.8,2.68,1.52.34,2.43,1.33,2.43,2.93Zm-8.61-7.61v4.28h3.76c1.89,0,2.98-.72,2.98-2.14s-1.09-2.14-2.98-2.14h-3.76Zm7.36,7.51c0-1.53-1.13-2.21-3.2-2.21h-4.16v4.43h4.16c2.07,0,3.2-.67,3.2-2.22Z"/>
    <path class="uuid-e8967ed8-03ea-4d5a-9622-081b6c433d0d" d="m341.85,217.72v11.79h-1.21v-10.71h-2.78v-1.08h3.99Z"/>
    <path class="uuid-e8967ed8-03ea-4d5a-9622-081b6c433d0d" d="m354.68,226.41h-2.36v3.1h-1.21v-3.1h-6.65v-.88l6.25-7.82h1.35l-6.03,7.61h5.12v-2.73h1.18v2.73h2.36v1.08Z"/>
    <path class="uuid-e8967ed8-03ea-4d5a-9622-081b6c433d0d" d="m355.79,223.62c0-3.76,1.97-6,4.7-6s4.72,2.24,4.72,6-1.99,6-4.72,6-4.7-2.24-4.7-6Zm8.17,0c0-3.15-1.42-4.89-3.47-4.89s-3.47,1.73-3.47,4.89,1.42,4.89,3.47,4.89,3.47-1.73,3.47-4.89Z"/>
  </g>
  <g>
    <path class="uuid-e8967ed8-03ea-4d5a-9622-081b6c433d0d" d="m332.37,258.14v11.79h-1.23v-5.44h-7.38v5.44h-1.25v-11.79h1.25v5.26h7.38v-5.26h1.23Z"/>
    <path class="uuid-e8967ed8-03ea-4d5a-9622-081b6c433d0d" d="m347.37,266.54c0,1.97-1.43,3.49-4.28,3.49-1.7,0-3.34-.59-4.25-1.52l.59-.96c.76.79,2.12,1.36,3.66,1.36,1.95,0,3.03-.91,3.03-2.38s-.99-2.34-3.18-2.34h-.84v-.89l3.27-4.09h-6.03v-1.08h7.58v.86l-3.34,4.19c2.53.13,3.79,1.47,3.79,3.35Z"/>
    <path class="uuid-e8967ed8-03ea-4d5a-9622-081b6c433d0d" d="m357.05,268.85v1.08h-8.27v-.86l4.9-4.8c1.33-1.31,1.58-2.11,1.58-2.91,0-1.36-.96-2.21-2.76-2.21-1.38,0-2.44.42-3.22,1.31l-.86-.74c.91-1.08,2.38-1.68,4.18-1.68,2.39,0,3.91,1.21,3.91,3.18,0,1.13-.35,2.14-1.94,3.69l-4.01,3.94h6.49Z"/>
    <path class="uuid-e8967ed8-03ea-4d5a-9622-081b6c433d0d" d="m368.2,266.83h-2.36v3.1h-1.21v-3.1h-6.65v-.88l6.25-7.82h1.35l-6.03,7.61h5.12v-2.73h1.18v2.73h2.36v1.08Z"/>
  </g>
  <g>
    <path class="uuid-e8967ed8-03ea-4d5a-9622-081b6c433d0d" d="m321.38,288.71l.49-.96c.84.83,2.34,1.43,3.89,1.43,2.21,0,3.17-.93,3.17-2.09,0-3.23-7.26-1.25-7.26-5.61,0-1.73,1.35-3.23,4.35-3.23,1.33,0,2.71.39,3.66,1.04l-.42.99c-1.01-.66-2.19-.98-3.23-.98-2.16,0-3.12.96-3.12,2.14,0,3.23,7.26,1.28,7.26,5.58,0,1.73-1.38,3.22-4.4,3.22-1.77,0-3.5-.62-4.38-1.53Z"/>
    <path class="uuid-e8967ed8-03ea-4d5a-9622-081b6c433d0d" d="m339.5,278.35v11.79h-1.21v-10.71h-2.78v-1.08h3.99Z"/>
    <path class="uuid-e8967ed8-03ea-4d5a-9622-081b6c433d0d" d="m342.32,284.24c0-3.76,1.97-6,4.7-6s4.72,2.24,4.72,6-1.99,6-4.72,6-4.7-2.24-4.7-6Zm8.17,0c0-3.15-1.42-4.89-3.47-4.89s-3.47,1.74-3.47,4.89,1.42,4.89,3.47,4.89,3.47-1.74,3.47-4.89Z"/>
    <path class="uuid-e8967ed8-03ea-4d5a-9622-081b6c433d0d" d="m353.46,284.24c0-3.76,1.97-6,4.7-6s4.72,2.24,4.72,6-1.99,6-4.72,6-4.7-2.24-4.7-6Zm8.17,0c0-3.15-1.42-4.89-3.47-4.89s-3.47,1.74-3.47,4.89,1.42,4.89,3.47,4.89,3.47-1.74,3.47-4.89Z"/>
  </g>
  <g>
    <path class="uuid-e8967ed8-03ea-4d5a-9622-081b6c433d0d" d="m332.37,307.2c0,2-1.48,3.15-4.43,3.15h-5.42v-11.79h5.09c2.63,0,4.14,1.11,4.14,3.03,0,1.35-.72,2.24-1.8,2.68,1.52.34,2.43,1.33,2.43,2.93Zm-8.61-7.61v4.28h3.76c1.89,0,2.98-.72,2.98-2.14s-1.09-2.14-2.98-2.14h-3.76Zm7.36,7.51c0-1.53-1.13-2.21-3.2-2.21h-4.16v4.43h4.16c2.07,0,3.2-.67,3.2-2.22Z"/>
    <path class="uuid-e8967ed8-03ea-4d5a-9622-081b6c433d0d" d="m347.08,304.35c0,4.01-2.19,6.1-5.39,6.1-1.06,0-2.06-.19-2.8-.64l.49-.98c.61.4,1.42.56,2.29.56,2.54,0,4.18-1.63,4.18-4.83,0-.27-.02-.61-.05-.96-.59,1.3-1.97,2.02-3.61,2.02-2.34,0-3.98-1.38-3.98-3.54s1.74-3.62,4.03-3.62c3.13,0,4.83,2.17,4.83,5.9Zm-1.67-2.34c0-1.3-1.08-2.53-3.12-2.53-1.7,0-2.88.99-2.88,2.56s1.15,2.54,2.96,2.54,3.03-1.11,3.03-2.58Z"/>
    <path class="uuid-e8967ed8-03ea-4d5a-9622-081b6c433d0d" d="m356.46,306.96c0,1.97-1.43,3.49-4.28,3.49-1.7,0-3.33-.59-4.25-1.52l.59-.96c.76.79,2.12,1.36,3.66,1.36,1.95,0,3.03-.91,3.03-2.38s-.99-2.34-3.18-2.34h-.84v-.89l3.27-4.09h-6.03v-1.08h7.58v.86l-3.34,4.19c2.53.13,3.79,1.47,3.79,3.35Z"/>
  </g>
  <g>
    <path class="uuid-e8967ed8-03ea-4d5a-9622-081b6c433d0d" d="m332.37,338.97v11.79h-1.23v-5.44h-7.38v5.44h-1.25v-11.79h1.25v5.26h7.38v-5.26h1.23Z"/>
    <path class="uuid-e8967ed8-03ea-4d5a-9622-081b6c433d0d" d="m344.54,349.69v1.08h-8.34v-11.79h8.09v1.08h-6.84v4.19h6.1v1.06h-6.1v4.38h7.09Z"/>
    <path class="uuid-e8967ed8-03ea-4d5a-9622-081b6c433d0d" d="m354.73,350.77l-3.81-5.19-3.79,5.19h-1.43l4.48-6.06-4.19-5.73h1.43l3.55,4.82,3.54-4.82h1.35l-4.18,5.69,4.5,6.1h-1.45Z"/>
    <path class="uuid-e8967ed8-03ea-4d5a-9622-081b6c433d0d" d="m371.13,349.69v1.08h-8.34v-11.79h8.09v1.08h-6.84v4.19h6.1v1.06h-6.1v4.38h7.09Z"/>
    <path class="uuid-e8967ed8-03ea-4d5a-9622-081b6c433d0d" d="m372.96,344.87c0-3.45,2.63-6,6.18-6,1.72,0,3.27.57,4.31,1.72l-.79.79c-.96-.98-2.14-1.4-3.49-1.4-2.85,0-4.99,2.09-4.99,4.89s2.14,4.89,4.99,4.89c1.35,0,2.53-.42,3.49-1.42l.79.79c-1.04,1.15-2.59,1.74-4.33,1.74-3.54,0-6.17-2.54-6.17-6Z"/>
    <path class="uuid-e8967ed8-03ea-4d5a-9622-081b6c433d0d" d="m384.7,344.87c0-3.76,1.97-6,4.7-6s4.72,2.24,4.72,6-1.99,6-4.72,6-4.7-2.24-4.7-6Zm8.17,0c0-3.15-1.42-4.89-3.47-4.89s-3.47,1.73-3.47,4.89,1.42,4.89,3.47,4.89,3.47-1.73,3.47-4.89Z"/>
    <path class="uuid-e8967ed8-03ea-4d5a-9622-081b6c433d0d" d="m395.85,344.87c0-3.76,1.97-6,4.7-6s4.72,2.24,4.72,6-1.99,6-4.72,6-4.7-2.24-4.7-6Zm8.17,0c0-3.15-1.42-4.89-3.47-4.89s-3.47,1.73-3.47,4.89,1.42,4.89,3.47,4.89,3.47-1.73,3.47-4.89Z"/>
    <path class="uuid-e8967ed8-03ea-4d5a-9622-081b6c433d0d" d="m416.06,347.48c0,2.09-1.77,3.39-4.58,3.39s-4.55-1.3-4.55-3.39c0-1.42.81-2.41,2.27-2.9-1.2-.47-1.85-1.36-1.85-2.59,0-1.92,1.63-3.12,4.13-3.12s4.16,1.2,4.16,3.12c0,1.23-.67,2.12-1.89,2.59,1.48.49,2.31,1.5,2.31,2.9Zm-1.25-.02c0-1.45-1.25-2.36-3.34-2.36s-3.32.91-3.32,2.36,1.23,2.38,3.32,2.38,3.34-.91,3.34-2.38Zm-3.34-3.32c1.84,0,2.93-.83,2.93-2.11s-1.16-2.14-2.93-2.14-2.91.81-2.91,2.12,1.08,2.12,2.91,2.12Z"/>
    <path class="uuid-e8967ed8-03ea-4d5a-9622-081b6c433d0d" d="m417.74,344.87c0-3.45,2.63-6,6.18-6,1.72,0,3.27.57,4.31,1.72l-.79.79c-.96-.98-2.14-1.4-3.49-1.4-2.85,0-4.99,2.09-4.99,4.89s2.14,4.89,4.99,4.89c1.35,0,2.53-.42,3.49-1.42l.79.79c-1.04,1.15-2.59,1.74-4.33,1.74-3.54,0-6.17-2.54-6.17-6Z"/>
  </g>
  <g>
    <path class="uuid-e8967ed8-03ea-4d5a-9622-081b6c433d0d" d="m331.74,363.22c0,2.51-1.82,4.03-4.82,4.03h-3.17v3.72h-1.25v-11.79h4.41c3,0,4.82,1.52,4.82,4.04Zm-1.25,0c0-1.89-1.25-2.96-3.6-2.96h-3.13v5.9h3.13c2.36,0,3.6-1.08,3.6-2.93Z"/>
    <path class="uuid-e8967ed8-03ea-4d5a-9622-081b6c433d0d" d="m346.7,359.18v11.79h-1.2v-9.43l-4.63,7.93h-.59l-4.63-7.88v9.38h-1.2v-11.79h1.03l5.12,8.74,5.07-8.74h1.03Z"/>
    <path class="uuid-e8967ed8-03ea-4d5a-9622-081b6c433d0d" d="m349.4,369.54l.49-.96c.84.83,2.34,1.43,3.89,1.43,2.21,0,3.17-.93,3.17-2.09,0-3.23-7.26-1.25-7.26-5.61,0-1.73,1.35-3.23,4.35-3.23,1.33,0,2.71.39,3.66,1.04l-.42.99c-1.01-.66-2.19-.98-3.23-.98-2.16,0-3.12.96-3.12,2.14,0,3.23,7.26,1.28,7.26,5.58,0,1.73-1.38,3.22-4.4,3.22-1.77,0-3.5-.62-4.38-1.53Z"/>
    <path class="uuid-e8967ed8-03ea-4d5a-9622-081b6c433d0d" d="m374.53,363.22c0,2.51-1.82,4.03-4.82,4.03h-3.17v3.72h-1.25v-11.79h4.41c3,0,4.82,1.52,4.82,4.04Zm-1.25,0c0-1.89-1.25-2.96-3.6-2.96h-3.13v5.9h3.13c2.36,0,3.6-1.08,3.6-2.93Z"/>
    <path class="uuid-e8967ed8-03ea-4d5a-9622-081b6c433d0d" d="m381.23,362.04v1.16c-.1,0-.2-.02-.29-.02-1.85,0-2.98,1.18-2.98,3.27v4.51h-1.2v-8.86h1.15v1.73c.56-1.18,1.68-1.8,3.32-1.8Z"/>
    <path class="uuid-e8967ed8-03ea-4d5a-9622-081b6c433d0d" d="m382.43,366.54c0-2.63,1.92-4.5,4.51-4.5s4.5,1.87,4.5,4.5-1.9,4.51-4.5,4.51-4.51-1.89-4.51-4.51Zm7.8,0c0-2.07-1.4-3.45-3.28-3.45s-3.3,1.38-3.3,3.45,1.42,3.45,3.3,3.45,3.28-1.38,3.28-3.45Z"/>
    <path class="uuid-e8967ed8-03ea-4d5a-9622-081b6c433d0d" d="m392.99,366.54c0-2.64,1.92-4.5,4.57-4.5,1.5,0,2.76.59,3.47,1.75l-.89.61c-.61-.89-1.55-1.31-2.58-1.31-1.94,0-3.35,1.38-3.35,3.45s1.42,3.45,3.35,3.45c1.03,0,1.97-.4,2.58-1.3l.89.61c-.71,1.15-1.97,1.75-3.47,1.75-2.65,0-4.57-1.87-4.57-4.51Z"/>
    <path class="uuid-e8967ed8-03ea-4d5a-9622-081b6c433d0d" d="m410.94,366.91h-7.41c.13,1.85,1.55,3.08,3.49,3.08,1.08,0,2.04-.39,2.71-1.16l.67.78c-.79.94-2.02,1.45-3.42,1.45-2.76,0-4.65-1.89-4.65-4.51s1.84-4.5,4.33-4.5,4.3,1.84,4.3,4.5c0,.1-.02.24-.02.37Zm-7.41-.89h6.28c-.15-1.73-1.42-2.95-3.15-2.95s-2.98,1.21-3.13,2.95Z"/>
    <path class="uuid-e8967ed8-03ea-4d5a-9622-081b6c433d0d" d="m412.17,369.96l.54-.94c.71.56,1.9.99,3.15.99,1.68,0,2.38-.57,2.38-1.45,0-2.31-5.74-.49-5.74-3.99,0-1.45,1.25-2.53,3.5-2.53,1.15,0,2.39.32,3.13.83l-.52.96c-.77-.54-1.7-.76-2.61-.76-1.6,0-2.31.62-2.31,1.47,0,2.39,5.74.59,5.74,3.99,0,1.53-1.35,2.53-3.66,2.53-1.47,0-2.88-.47-3.6-1.09Z"/>
    <path class="uuid-e8967ed8-03ea-4d5a-9622-081b6c433d0d" d="m420.4,369.96l.54-.94c.71.56,1.9.99,3.15.99,1.68,0,2.38-.57,2.38-1.45,0-2.31-5.74-.49-5.74-3.99,0-1.45,1.25-2.53,3.5-2.53,1.15,0,2.39.32,3.13.83l-.52.96c-.77-.54-1.7-.76-2.61-.76-1.6,0-2.31.62-2.31,1.47,0,2.39,5.74.59,5.74,3.99,0,1.53-1.35,2.53-3.66,2.53-1.47,0-2.88-.47-3.6-1.09Z"/>
    <path class="uuid-e8967ed8-03ea-4d5a-9622-081b6c433d0d" d="m446.78,359.18v11.79h-1.2v-9.43l-4.63,7.93h-.59l-4.63-7.88v9.38h-1.2v-11.79h1.03l5.12,8.74,5.07-8.74h1.03Z"/>
    <path class="uuid-e8967ed8-03ea-4d5a-9622-081b6c433d0d" d="m457.05,365.48v5.49h-1.15v-1.38c-.54.91-1.58,1.47-3.05,1.47-2,0-3.23-1.04-3.23-2.58,0-1.36.88-2.51,3.42-2.51h2.81v-.54c0-1.52-.86-2.34-2.51-2.34-1.15,0-2.22.4-2.95,1.04l-.54-.89c.89-.76,2.21-1.2,3.61-1.2,2.29,0,3.59,1.15,3.59,3.44Zm-1.2,2.83v-1.45h-2.78c-1.72,0-2.27.67-2.27,1.58,0,1.03.83,1.67,2.24,1.67s2.34-.64,2.81-1.8Z"/>
    <path class="uuid-e8967ed8-03ea-4d5a-9622-081b6c433d0d" d="m468.52,362.11v7.78c0,3.05-1.5,4.43-4.43,4.43-1.62,0-3.2-.49-4.13-1.36l.61-.91c.84.76,2.12,1.21,3.49,1.21,2.24,0,3.27-1.03,3.27-3.22v-1.13c-.74,1.13-2,1.72-3.45,1.72-2.53,0-4.45-1.77-4.45-4.31s1.92-4.28,4.45-4.28c1.48,0,2.76.61,3.5,1.77v-1.7h1.15Zm-1.16,4.21c0-1.92-1.42-3.23-3.37-3.23s-3.35,1.31-3.35,3.23,1.4,3.25,3.35,3.25,3.37-1.33,3.37-3.25Z"/>
    <path class="uuid-e8967ed8-03ea-4d5a-9622-081b6c433d0d" d="m479.58,366.91h-7.41c.13,1.85,1.55,3.08,3.49,3.08,1.08,0,2.04-.39,2.71-1.16l.67.78c-.79.94-2.02,1.45-3.42,1.45-2.76,0-4.65-1.89-4.65-4.51s1.84-4.5,4.33-4.5,4.3,1.84,4.3,4.5c0,.1-.02.24-.02.37Zm-7.41-.89h6.28c-.15-1.73-1.42-2.95-3.15-2.95s-2.98,1.21-3.13,2.95Z"/>
    <path class="uuid-e8967ed8-03ea-4d5a-9622-081b6c433d0d" d="m490.19,365.83v5.14h-1.2v-5.02c0-1.87-.98-2.83-2.66-2.83-1.9,0-3.1,1.18-3.1,3.2v4.65h-1.2v-8.86h1.15v1.63c.64-1.08,1.84-1.7,3.37-1.7,2.16,0,3.64,1.25,3.64,3.79Z"/>
    <path class="uuid-e8967ed8-03ea-4d5a-9622-081b6c433d0d" d="m498.11,370.43c-.47.42-1.18.62-1.87.62-1.67,0-2.59-.94-2.59-2.58v-5.36h-1.58v-1.01h1.58v-1.94h1.2v1.94h2.7v1.01h-2.7v5.29c0,1.04.54,1.62,1.53,1.62.49,0,.98-.15,1.31-.46l.42.86Z"/>
    <path class="uuid-e8967ed8-03ea-4d5a-9622-081b6c433d0d" d="m506.96,365.48v5.49h-1.15v-1.38c-.54.91-1.58,1.47-3.05,1.47-2,0-3.23-1.04-3.23-2.58,0-1.36.88-2.51,3.42-2.51h2.81v-.54c0-1.52-.86-2.34-2.51-2.34-1.15,0-2.22.4-2.95,1.04l-.54-.89c.89-.76,2.21-1.2,3.6-1.2,2.29,0,3.59,1.15,3.59,3.44Zm-1.2,2.83v-1.45h-2.78c-1.72,0-2.27.67-2.27,1.58,0,1.03.83,1.67,2.24,1.67s2.34-.64,2.81-1.8Z"/>
  </g>
  <g>
    <path class="uuid-17a8edd4-8238-48c1-894a-b8016ec387fc" d="m1163.16,39.89c0,2.51-1.82,4.03-4.82,4.03h-3.17v3.72h-1.25v-11.79h4.41c3,0,4.82,1.52,4.82,4.04Zm-1.25,0c0-1.89-1.25-2.96-3.6-2.96h-3.13v5.9h3.13c2.36,0,3.6-1.08,3.6-2.93Z"/>
    <path class="uuid-17a8edd4-8238-48c1-894a-b8016ec387fc" d="m1173.75,38.78v8.86h-1.15v-1.62c-.62,1.08-1.77,1.7-3.18,1.7-2.26,0-3.74-1.26-3.74-3.81v-5.14h1.2v5.02c0,1.89.98,2.85,2.66,2.85,1.85,0,3.01-1.2,3.01-3.22v-4.65h1.2Z"/>
    <path class="uuid-17a8edd4-8238-48c1-894a-b8016ec387fc" d="m1181.56,38.71v1.16c-.1,0-.2-.02-.29-.02-1.85,0-2.98,1.18-2.98,3.27v4.51h-1.2v-8.86h1.15v1.74c.56-1.18,1.68-1.8,3.32-1.8Z"/>
    <path class="uuid-17a8edd4-8238-48c1-894a-b8016ec387fc" d="m1191.37,43.58h-7.41c.13,1.85,1.55,3.08,3.49,3.08,1.08,0,2.04-.39,2.71-1.16l.67.77c-.79.94-2.02,1.45-3.42,1.45-2.76,0-4.65-1.89-4.65-4.51s1.84-4.5,4.33-4.5,4.29,1.84,4.29,4.5c0,.1-.02.24-.02.37Zm-7.41-.89h6.28c-.15-1.74-1.42-2.95-3.15-2.95s-2.98,1.21-3.13,2.95Z"/>
    <path class="uuid-17a8edd4-8238-48c1-894a-b8016ec387fc" d="m1214.68,35.84l-3.98,11.79h-1.31l-3.45-10.06-3.47,10.06h-1.3l-3.98-11.79h1.28l3.4,10.14,3.52-10.14h1.16l3.47,10.19,3.45-10.19h1.2Z"/>
    <path class="uuid-17a8edd4-8238-48c1-894a-b8016ec387fc" d="m1225.1,42.5v5.14h-1.2v-5.02c0-1.87-.98-2.83-2.66-2.83-1.9,0-3.1,1.18-3.1,3.2v4.65h-1.2v-12.5h1.2v5.19c.66-1.03,1.82-1.62,3.32-1.62,2.16,0,3.64,1.25,3.64,3.79Z"/>
    <path class="uuid-17a8edd4-8238-48c1-894a-b8016ec387fc" d="m1228.08,35.98c0-.45.39-.84.88-.84s.88.37.88.83c0,.49-.37.88-.88.88s-.88-.39-.88-.86Zm.27,2.8h1.2v8.86h-1.2v-8.86Z"/>
    <path class="uuid-17a8edd4-8238-48c1-894a-b8016ec387fc" d="m1237.54,47.1c-.47.42-1.18.62-1.87.62-1.67,0-2.59-.94-2.59-2.58v-5.36h-1.58v-1.01h1.58v-1.94h1.2v1.94h2.7v1.01h-2.7v5.29c0,1.04.54,1.62,1.53,1.62.49,0,.98-.15,1.31-.45l.42.86Z"/>
    <path class="uuid-17a8edd4-8238-48c1-894a-b8016ec387fc" d="m1247.11,43.58h-7.41c.13,1.85,1.55,3.08,3.49,3.08,1.08,0,2.04-.39,2.71-1.16l.67.77c-.79.94-2.02,1.45-3.42,1.45-2.76,0-4.65-1.89-4.65-4.51s1.84-4.5,4.33-4.5,4.3,1.84,4.3,4.5c0,.1-.02.24-.02.37Zm-7.41-.89h6.28c-.15-1.74-1.41-2.95-3.15-2.95s-2.98,1.21-3.13,2.95Z"/>
  </g>
  <g>
    <path class="uuid-17a8edd4-8238-48c1-894a-b8016ec387fc" d="m1152.88,82.16c0-3.45,2.63-6,6.18-6,1.72,0,3.27.57,4.31,1.72l-.79.79c-.96-.98-2.14-1.4-3.49-1.4-2.85,0-4.99,2.09-4.99,4.89s2.14,4.89,4.99,4.89c1.35,0,2.53-.42,3.49-1.42l.79.79c-1.04,1.15-2.59,1.73-4.33,1.73-3.54,0-6.17-2.54-6.17-6Z"/>
    <path class="uuid-17a8edd4-8238-48c1-894a-b8016ec387fc" d="m1169.4,82.16c0-3.76,1.97-6,4.7-6s4.72,2.24,4.72,6-1.99,6-4.72,6-4.7-2.24-4.7-6Zm8.17,0c0-3.15-1.42-4.89-3.47-4.89s-3.47,1.74-3.47,4.89,1.42,4.89,3.47,4.89,3.47-1.74,3.47-4.89Z"/>
  </g>
  <g>
    <path class="uuid-17a8edd4-8238-48c1-894a-b8016ec387fc" d="m1166.18,96.47v11.79h-1.2v-9.43l-4.63,7.93h-.59l-4.63-7.88v9.38h-1.2v-11.79h1.03l5.12,8.74,5.07-8.74h1.03Z"/>
    <path class="uuid-17a8edd4-8238-48c1-894a-b8016ec387fc" d="m1173.38,102.37c0-3.76,1.97-6,4.7-6s4.72,2.24,4.72,6-1.99,6-4.72,6-4.7-2.24-4.7-6Zm8.17,0c0-3.15-1.42-4.89-3.47-4.89s-3.47,1.74-3.47,4.89,1.42,4.89,3.47,4.89,3.47-1.74,3.47-4.89Z"/>
  </g>
  <g>
    <path class="uuid-17a8edd4-8238-48c1-894a-b8016ec387fc" d="m1157.97,124.39v4.08h-1.23v-4.08l-4.72-7.72h1.33l4.04,6.62,4.04-6.62h1.25l-4.72,7.72Z"/>
    <path class="uuid-17a8edd4-8238-48c1-894a-b8016ec387fc" d="m1167.99,122.57c0-3.76,1.97-6,4.7-6s4.72,2.24,4.72,6-1.99,6-4.72,6-4.7-2.24-4.7-6Zm8.17,0c0-3.15-1.42-4.89-3.47-4.89s-3.47,1.73-3.47,4.89,1.42,4.89,3.47,4.89,3.47-1.73,3.47-4.89Z"/>
  </g>
  <g>
    <path class="uuid-17a8edd4-8238-48c1-894a-b8016ec387fc" d="m1157.58,143.14l-2.41,2.44v3.1h-1.25v-11.79h1.25v7.13l6.92-7.13h1.43l-5.1,5.34,5.46,6.45h-1.48l-4.82-5.54Z"/>
    <path class="uuid-17a8edd4-8238-48c1-894a-b8016ec387fc" d="m1169.27,142.78c0-3.76,1.97-6,4.7-6s4.72,2.24,4.72,6-1.99,6-4.72,6-4.7-2.24-4.7-6Zm8.17,0c0-3.15-1.42-4.89-3.47-4.89s-3.47,1.73-3.47,4.89,1.42,4.89,3.47,4.89,3.47-1.73,3.47-4.89Z"/>
  </g>
  <g>
    <path class="uuid-17a8edd4-8238-48c1-894a-b8016ec387fc" d="m1161.98,189.1l-2.7-3.79c-.3.03-.61.05-.94.05h-3.17v3.74h-1.25v-11.79h4.41c3,0,4.82,1.52,4.82,4.04,0,1.85-.98,3.15-2.7,3.71l2.88,4.04h-1.36Zm-.07-7.75c0-1.89-1.25-2.96-3.6-2.96h-3.13v5.91h3.13c2.36,0,3.6-1.1,3.6-2.95Z"/>
    <path class="uuid-17a8edd4-8238-48c1-894a-b8016ec387fc" d="m1177.52,188.02v1.08h-8.27v-.86l4.9-4.8c1.33-1.31,1.58-2.11,1.58-2.91,0-1.36-.96-2.21-2.76-2.21-1.38,0-2.44.42-3.22,1.31l-.86-.74c.91-1.08,2.38-1.68,4.18-1.68,2.39,0,3.91,1.21,3.91,3.18,0,1.13-.35,2.14-1.94,3.69l-4.01,3.94h6.49Z"/>
    <path class="uuid-17a8edd4-8238-48c1-894a-b8016ec387fc" d="m1187.04,185.63c0,2-1.4,3.57-4.28,3.57-1.7,0-3.32-.59-4.23-1.52l.59-.96c.76.79,2.11,1.36,3.62,1.36,2,0,3.07-.98,3.07-2.41,0-1.52-.94-2.46-3.94-2.46h-2.51l.61-5.91h6.45v1.08h-5.39l-.4,3.76h1.52c3.55,0,4.9,1.4,4.9,3.49Z"/>
    <path class="uuid-17a8edd4-8238-48c1-894a-b8016ec387fc" d="m1196.5,185.63c0,2-1.4,3.57-4.28,3.57-1.7,0-3.32-.59-4.23-1.52l.59-.96c.76.79,2.11,1.36,3.62,1.36,2,0,3.07-.98,3.07-2.41,0-1.52-.94-2.46-3.94-2.46h-2.51l.61-5.91h6.45v1.08h-5.39l-.4,3.76h1.52c3.55,0,4.9,1.4,4.9,3.49Z"/>
  </g>
  <g>
    <path class="uuid-17a8edd4-8238-48c1-894a-b8016ec387fc" d="m1162.23,203.41h1.2v4.5c-1.11.99-2.7,1.5-4.33,1.5-3.59,0-6.22-2.54-6.22-6s2.63-6,6.23-6c1.79,0,3.33.57,4.38,1.7l-.77.79c-.99-.98-2.17-1.38-3.55-1.38-2.91,0-5.05,2.07-5.05,4.89s2.14,4.89,5.04,4.89c1.13,0,2.17-.25,3.08-.91v-3.98Z"/>
    <path class="uuid-17a8edd4-8238-48c1-894a-b8016ec387fc" d="m1178.37,208.23v1.08h-8.27v-.86l4.9-4.8c1.33-1.31,1.58-2.11,1.58-2.91,0-1.36-.96-2.21-2.76-2.21-1.38,0-2.44.42-3.22,1.31l-.86-.74c.91-1.08,2.38-1.68,4.18-1.68,2.39,0,3.91,1.21,3.91,3.18,0,1.13-.35,2.14-1.94,3.69l-4.01,3.94h6.49Z"/>
    <path class="uuid-17a8edd4-8238-48c1-894a-b8016ec387fc" d="m1187.88,205.83c0,2-1.4,3.57-4.28,3.57-1.7,0-3.32-.59-4.23-1.52l.59-.96c.76.79,2.11,1.36,3.62,1.36,2,0,3.07-.98,3.07-2.41,0-1.52-.94-2.46-3.94-2.46h-2.51l.61-5.91h6.45v1.08h-5.39l-.4,3.76h1.52c3.55,0,4.9,1.4,4.9,3.49Z"/>
    <path class="uuid-17a8edd4-8238-48c1-894a-b8016ec387fc" d="m1197.35,205.83c0,2-1.4,3.57-4.28,3.57-1.7,0-3.32-.59-4.23-1.52l.59-.96c.76.79,2.11,1.36,3.62,1.36,2,0,3.07-.98,3.07-2.41,0-1.52-.94-2.46-3.94-2.46h-2.51l.61-5.91h6.45v1.08h-5.39l-.4,3.76h1.52c3.55,0,4.9,1.4,4.9,3.49Z"/>
  </g>
  <g>
    <path class="uuid-17a8edd4-8238-48c1-894a-b8016ec387fc" d="m1163.78,226.36c0,2-1.48,3.15-4.43,3.15h-5.42v-11.79h5.09c2.63,0,4.14,1.11,4.14,3.03,0,1.35-.72,2.24-1.8,2.68,1.52.34,2.43,1.33,2.43,2.93Zm-8.61-7.61v4.28h3.76c1.89,0,2.98-.72,2.98-2.14s-1.09-2.14-2.98-2.14h-3.76Zm7.36,7.51c0-1.53-1.13-2.21-3.2-2.21h-4.16v4.43h4.16c2.07,0,3.2-.67,3.2-2.22Z"/>
    <path class="uuid-17a8edd4-8238-48c1-894a-b8016ec387fc" d="m1178.05,228.43v1.08h-8.27v-.86l4.9-4.8c1.33-1.31,1.58-2.11,1.58-2.91,0-1.36-.96-2.21-2.76-2.21-1.38,0-2.44.42-3.22,1.31l-.86-.74c.91-1.08,2.38-1.68,4.18-1.68,2.39,0,3.91,1.21,3.91,3.18,0,1.13-.35,2.14-1.94,3.69l-4.01,3.94h6.49Z"/>
    <path class="uuid-17a8edd4-8238-48c1-894a-b8016ec387fc" d="m1187.56,226.04c0,2-1.4,3.57-4.28,3.57-1.7,0-3.32-.59-4.23-1.52l.59-.96c.76.79,2.11,1.36,3.62,1.36,2,0,3.07-.98,3.07-2.41,0-1.52-.94-2.46-3.94-2.46h-2.51l.61-5.91h6.45v1.08h-5.39l-.4,3.76h1.52c3.55,0,4.9,1.4,4.9,3.49Z"/>
    <path class="uuid-17a8edd4-8238-48c1-894a-b8016ec387fc" d="m1197.03,226.04c0,2-1.4,3.57-4.28,3.57-1.7,0-3.32-.59-4.23-1.52l.59-.96c.76.79,2.11,1.36,3.62,1.36,2,0,3.07-.98,3.07-2.41,0-1.52-.94-2.46-3.94-2.46h-2.51l.61-5.91h6.45v1.08h-5.39l-.4,3.76h1.52c3.55,0,4.9,1.4,4.9,3.49Z"/>
  </g>
  <g>
    <path class="uuid-17a8edd4-8238-48c1-894a-b8016ec387fc" d="m1163.78,258.14v11.79h-1.23v-5.44h-7.38v5.44h-1.25v-11.79h1.25v5.26h7.38v-5.26h1.23Z"/>
    <path class="uuid-17a8edd4-8238-48c1-894a-b8016ec387fc" d="m1170.99,264.03c0-3.76,1.97-6,4.7-6s4.72,2.24,4.72,6-1.99,6-4.72,6-4.7-2.24-4.7-6Zm8.17,0c0-3.15-1.42-4.89-3.47-4.89s-3.47,1.74-3.47,4.89,1.42,4.89,3.47,4.89,3.47-1.74,3.47-4.89Z"/>
  </g>
  <g>
    <path class="uuid-17a8edd4-8238-48c1-894a-b8016ec387fc" d="m1152.8,288.71l.49-.96c.84.83,2.34,1.43,3.89,1.43,2.21,0,3.17-.93,3.17-2.09,0-3.23-7.26-1.25-7.26-5.61,0-1.73,1.35-3.23,4.35-3.23,1.33,0,2.71.39,3.66,1.04l-.42.99c-1.01-.66-2.19-.98-3.23-.98-2.16,0-3.12.96-3.12,2.14,0,3.23,7.26,1.28,7.26,5.58,0,1.73-1.38,3.22-4.4,3.22-1.77,0-3.5-.62-4.38-1.53Z"/>
    <path class="uuid-17a8edd4-8238-48c1-894a-b8016ec387fc" d="m1167.65,284.24c0-3.76,1.97-6,4.7-6s4.72,2.24,4.72,6-1.99,6-4.72,6-4.7-2.24-4.7-6Zm8.17,0c0-3.15-1.42-4.89-3.47-4.89s-3.47,1.74-3.47,4.89,1.42,4.89,3.47,4.89,3.47-1.74,3.47-4.89Z"/>
  </g>
  <g>
    <path class="uuid-17a8edd4-8238-48c1-894a-b8016ec387fc" d="m1163.78,307.2c0,2-1.48,3.15-4.43,3.15h-5.42v-11.79h5.09c2.63,0,4.14,1.11,4.14,3.03,0,1.35-.72,2.24-1.8,2.68,1.52.34,2.43,1.33,2.43,2.93Zm-8.61-7.61v4.28h3.76c1.89,0,2.98-.72,2.98-2.14s-1.09-2.14-2.98-2.14h-3.76Zm7.36,7.51c0-1.53-1.13-2.21-3.2-2.21h-4.16v4.43h4.16c2.07,0,3.2-.67,3.2-2.22Z"/>
    <path class="uuid-17a8edd4-8238-48c1-894a-b8016ec387fc" d="m1173.26,298.55v11.79h-1.21v-10.71h-2.78v-1.08h3.99Z"/>
    <path class="uuid-17a8edd4-8238-48c1-894a-b8016ec387fc" d="m1176.07,304.45c0-3.76,1.97-6,4.7-6s4.72,2.24,4.72,6-1.99,6-4.72,6-4.7-2.24-4.7-6Zm8.17,0c0-3.15-1.42-4.89-3.47-4.89s-3.47,1.73-3.47,4.89,1.42,4.89,3.47,4.89,3.47-1.73,3.47-4.89Z"/>
    <path class="uuid-17a8edd4-8238-48c1-894a-b8016ec387fc" d="m1187.22,304.45c0-3.76,1.97-6,4.7-6s4.72,2.24,4.72,6-1.99,6-4.72,6-4.7-2.24-4.7-6Zm8.17,0c0-3.15-1.42-4.89-3.47-4.89s-3.47,1.73-3.47,4.89,1.42,4.89,3.47,4.89,3.47-1.73,3.47-4.89Z"/>
  </g>
  <g>
    <path class="uuid-17a8edd4-8238-48c1-894a-b8016ec387fc" d="m1163.78,338.97v11.79h-1.23v-5.44h-7.38v5.44h-1.25v-11.79h1.25v5.26h7.38v-5.26h1.23Z"/>
    <path class="uuid-17a8edd4-8238-48c1-894a-b8016ec387fc" d="m1175.96,349.69v1.08h-8.34v-11.79h8.09v1.08h-6.84v4.19h6.1v1.06h-6.1v4.38h7.09Z"/>
    <path class="uuid-17a8edd4-8238-48c1-894a-b8016ec387fc" d="m1186.15,350.77l-3.81-5.19-3.79,5.19h-1.43l4.48-6.06-4.2-5.73h1.43l3.55,4.82,3.54-4.82h1.35l-4.18,5.69,4.5,6.1h-1.45Z"/>
    <path class="uuid-17a8edd4-8238-48c1-894a-b8016ec387fc" d="m1195.46,340.05v4.63h6.1v1.08h-6.1v5h-1.25v-11.79h8.09v1.08h-6.84Z"/>
    <path class="uuid-17a8edd4-8238-48c1-894a-b8016ec387fc" d="m1206.12,340.05v4.63h6.1v1.08h-6.1v5h-1.25v-11.79h8.09v1.08h-6.84Z"/>
    <path class="uuid-17a8edd4-8238-48c1-894a-b8016ec387fc" d="m1216.78,340.05v4.63h6.1v1.08h-6.1v5h-1.25v-11.79h8.09v1.08h-6.84Z"/>
    <path class="uuid-17a8edd4-8238-48c1-894a-b8016ec387fc" d="m1227.44,340.05v4.63h6.1v1.08h-6.1v5h-1.25v-11.79h8.09v1.08h-6.84Z"/>
    <path class="uuid-17a8edd4-8238-48c1-894a-b8016ec387fc" d="m1238.1,340.05v4.63h6.1v1.08h-6.1v5h-1.25v-11.79h8.09v1.08h-6.84Z"/>
    <path class="uuid-17a8edd4-8238-48c1-894a-b8016ec387fc" d="m1248.76,340.05v4.63h6.1v1.08h-6.1v5h-1.25v-11.79h8.09v1.08h-6.84Z"/>
  </g>
  <g>
    <path class="uuid-17a8edd4-8238-48c1-894a-b8016ec387fc" d="m1163.16,363.22c0,2.51-1.82,4.03-4.82,4.03h-3.17v3.72h-1.25v-11.79h4.41c3,0,4.82,1.52,4.82,4.04Zm-1.25,0c0-1.89-1.25-2.96-3.6-2.96h-3.13v5.9h3.13c2.36,0,3.6-1.08,3.6-2.93Z"/>
    <path class="uuid-17a8edd4-8238-48c1-894a-b8016ec387fc" d="m1178.11,359.18v11.79h-1.2v-9.43l-4.63,7.93h-.59l-4.63-7.88v9.38h-1.2v-11.79h1.03l5.12,8.74,5.07-8.74h1.03Z"/>
    <path class="uuid-17a8edd4-8238-48c1-894a-b8016ec387fc" d="m1180.82,369.54l.49-.96c.84.83,2.34,1.43,3.89,1.43,2.21,0,3.17-.93,3.17-2.09,0-3.23-7.26-1.25-7.26-5.61,0-1.73,1.35-3.23,4.35-3.23,1.33,0,2.71.39,3.66,1.04l-.42.99c-1.01-.66-2.19-.98-3.23-.98-2.16,0-3.12.96-3.12,2.14,0,3.23,7.26,1.28,7.26,5.58,0,1.73-1.38,3.22-4.4,3.22-1.77,0-3.5-.62-4.38-1.53Z"/>
    <path class="uuid-17a8edd4-8238-48c1-894a-b8016ec387fc" d="m1204.62,365.83v5.14h-1.2v-5.02c0-1.87-.98-2.83-2.66-2.83-1.9,0-3.1,1.18-3.1,3.2v4.65h-1.2v-8.86h1.15v1.63c.64-1.08,1.84-1.7,3.37-1.7,2.16,0,3.64,1.25,3.64,3.79Z"/>
    <path class="uuid-17a8edd4-8238-48c1-894a-b8016ec387fc" d="m1211.34,356.79h1.09l-5.56,15.87h-1.09l5.56-15.87Z"/>
    <path class="uuid-17a8edd4-8238-48c1-894a-b8016ec387fc" d="m1219.07,365.48v5.49h-1.15v-1.38c-.54.91-1.58,1.47-3.05,1.47-2,0-3.23-1.04-3.23-2.58,0-1.36.88-2.51,3.42-2.51h2.81v-.54c0-1.52-.86-2.34-2.51-2.34-1.15,0-2.22.4-2.95,1.04l-.54-.89c.89-.76,2.21-1.2,3.61-1.2,2.29,0,3.59,1.15,3.59,3.44Zm-1.2,2.83v-1.45h-2.78c-1.72,0-2.27.67-2.27,1.58,0,1.03.83,1.67,2.24,1.67s2.34-.64,2.81-1.8Z"/>
  </g>
  <g>
    <path class="uuid-e8967ed8-03ea-4d5a-9622-081b6c433d0d" d="m876.74,39.89c0,2.51-1.82,4.03-4.82,4.03h-3.17v3.72h-1.25v-11.79h4.41c3,0,4.82,1.52,4.82,4.04Zm-1.25,0c0-1.89-1.25-2.96-3.6-2.96h-3.13v5.9h3.13c2.36,0,3.6-1.08,3.6-2.93Z"/>
    <path class="uuid-e8967ed8-03ea-4d5a-9622-081b6c433d0d" d="m887.33,38.78v8.86h-1.15v-1.62c-.62,1.08-1.77,1.7-3.18,1.7-2.26,0-3.74-1.26-3.74-3.81v-5.14h1.2v5.02c0,1.89.98,2.85,2.66,2.85,1.85,0,3.02-1.2,3.02-3.22v-4.65h1.2Z"/>
    <path class="uuid-e8967ed8-03ea-4d5a-9622-081b6c433d0d" d="m895.14,38.71v1.16c-.1,0-.2-.02-.29-.02-1.85,0-2.98,1.18-2.98,3.27v4.51h-1.2v-8.86h1.15v1.74c.56-1.18,1.68-1.8,3.32-1.8Z"/>
    <path class="uuid-e8967ed8-03ea-4d5a-9622-081b6c433d0d" d="m904.94,43.58h-7.41c.13,1.85,1.55,3.08,3.49,3.08,1.08,0,2.04-.39,2.71-1.16l.67.77c-.79.94-2.02,1.45-3.42,1.45-2.76,0-4.65-1.89-4.65-4.51s1.84-4.5,4.33-4.5,4.3,1.84,4.3,4.5c0,.1-.02.24-.02.37Zm-7.41-.89h6.28c-.15-1.74-1.42-2.95-3.15-2.95s-2.98,1.21-3.13,2.95Z"/>
    <path class="uuid-e8967ed8-03ea-4d5a-9622-081b6c433d0d" d="m921.92,44.49c0,2-1.48,3.15-4.43,3.15h-5.42v-11.79h5.09c2.63,0,4.14,1.11,4.14,3.03,0,1.35-.72,2.24-1.8,2.68,1.52.34,2.43,1.33,2.43,2.93Zm-8.61-7.61v4.28h3.76c1.89,0,2.98-.72,2.98-2.14s-1.1-2.14-2.98-2.14h-3.76Zm7.36,7.51c0-1.53-1.13-2.21-3.2-2.21h-4.16v4.43h4.16c2.07,0,3.2-.67,3.2-2.22Z"/>
    <path class="uuid-e8967ed8-03ea-4d5a-9622-081b6c433d0d" d="m924.51,35.14h1.2v12.5h-1.2v-12.5Z"/>
    <path class="uuid-e8967ed8-03ea-4d5a-9622-081b6c433d0d" d="m935.73,42.14v5.49h-1.15v-1.38c-.54.91-1.58,1.47-3.05,1.47-2,0-3.23-1.04-3.23-2.58,0-1.36.88-2.51,3.42-2.51h2.81v-.54c0-1.52-.86-2.34-2.51-2.34-1.15,0-2.22.4-2.95,1.04l-.54-.89c.89-.76,2.21-1.2,3.6-1.2,2.29,0,3.59,1.15,3.59,3.44Zm-1.2,2.83v-1.45h-2.78c-1.72,0-2.27.67-2.27,1.58,0,1.03.83,1.67,2.24,1.67s2.34-.64,2.81-1.8Z"/>
    <path class="uuid-e8967ed8-03ea-4d5a-9622-081b6c433d0d" d="m938.1,43.21c0-2.65,1.92-4.5,4.56-4.5,1.5,0,2.76.59,3.47,1.75l-.89.61c-.61-.89-1.55-1.31-2.58-1.31-1.94,0-3.35,1.38-3.35,3.45s1.42,3.45,3.35,3.45c1.03,0,1.97-.4,2.58-1.3l.89.61c-.71,1.15-1.97,1.75-3.47,1.75-2.64,0-4.56-1.87-4.56-4.51Z"/>
    <path class="uuid-e8967ed8-03ea-4d5a-9622-081b6c433d0d" d="m951.64,43.19l-2.09,1.92v2.53h-1.2v-12.5h1.2v8.47l5.29-4.83h1.48l-3.79,3.62,4.14,5.24h-1.47l-3.57-4.45Z"/>
  </g>
  <g>
    <path class="uuid-e8967ed8-03ea-4d5a-9622-081b6c433d0d" d="m866.46,82.16c0-3.45,2.63-6,6.18-6,1.72,0,3.27.57,4.31,1.72l-.79.79c-.96-.98-2.14-1.4-3.49-1.4-2.85,0-4.99,2.09-4.99,4.89s2.14,4.89,4.99,4.89c1.35,0,2.53-.42,3.49-1.42l.79.79c-1.04,1.15-2.59,1.73-4.33,1.73-3.54,0-6.17-2.54-6.17-6Z"/>
    <path class="uuid-e8967ed8-03ea-4d5a-9622-081b6c433d0d" d="m882.98,82.16c0-3.76,1.97-6,4.7-6s4.72,2.24,4.72,6-1.99,6-4.72,6-4.7-2.24-4.7-6Zm8.17,0c0-3.15-1.42-4.89-3.47-4.89s-3.47,1.74-3.47,4.89,1.42,4.89,3.47,4.89,3.47-1.74,3.47-4.89Z"/>
  </g>
  <g>
    <path class="uuid-e8967ed8-03ea-4d5a-9622-081b6c433d0d" d="m879.75,96.47v11.79h-1.2v-9.43l-4.63,7.93h-.59l-4.63-7.88v9.38h-1.2v-11.79h1.03l5.12,8.74,5.07-8.74h1.03Z"/>
    <path class="uuid-e8967ed8-03ea-4d5a-9622-081b6c433d0d" d="m886.95,102.37c0-3.76,1.97-6,4.7-6s4.72,2.24,4.72,6-1.99,6-4.72,6-4.7-2.24-4.7-6Zm8.17,0c0-3.15-1.42-4.89-3.47-4.89s-3.47,1.74-3.47,4.89,1.42,4.89,3.47,4.89,3.47-1.74,3.47-4.89Z"/>
  </g>
  <g>
    <path class="uuid-e8967ed8-03ea-4d5a-9622-081b6c433d0d" d="m871.55,124.39v4.08h-1.23v-4.08l-4.72-7.72h1.33l4.04,6.62,4.04-6.62h1.25l-4.72,7.72Z"/>
    <path class="uuid-e8967ed8-03ea-4d5a-9622-081b6c433d0d" d="m881.56,122.57c0-3.76,1.97-6,4.7-6s4.72,2.24,4.72,6-1.99,6-4.72,6-4.7-2.24-4.7-6Zm8.17,0c0-3.15-1.42-4.89-3.47-4.89s-3.47,1.73-3.47,4.89,1.42,4.89,3.47,4.89,3.47-1.73,3.47-4.89Z"/>
  </g>
  <g>
    <path class="uuid-e8967ed8-03ea-4d5a-9622-081b6c433d0d" d="m871.16,143.14l-2.41,2.44v3.1h-1.25v-11.79h1.25v7.13l6.92-7.13h1.43l-5.1,5.34,5.46,6.45h-1.48l-4.82-5.54Z"/>
    <path class="uuid-e8967ed8-03ea-4d5a-9622-081b6c433d0d" d="m886.11,136.89v11.79h-1.21v-10.71h-2.78v-1.08h3.99Z"/>
    <path class="uuid-e8967ed8-03ea-4d5a-9622-081b6c433d0d" d="m888.92,142.78c0-3.76,1.97-6,4.7-6s4.72,2.24,4.72,6-1.99,6-4.72,6-4.7-2.24-4.7-6Zm8.17,0c0-3.15-1.42-4.89-3.47-4.89s-3.47,1.73-3.47,4.89,1.42,4.89,3.47,4.89,3.47-1.73,3.47-4.89Z"/>
    <path class="uuid-e8967ed8-03ea-4d5a-9622-081b6c433d0d" d="m900.07,142.78c0-3.76,1.97-6,4.7-6s4.72,2.24,4.72,6-1.99,6-4.72,6-4.7-2.24-4.7-6Zm8.17,0c0-3.15-1.42-4.89-3.47-4.89s-3.47,1.73-3.47,4.89,1.42,4.89,3.47,4.89,3.47-1.73,3.47-4.89Z"/>
  </g>
  <g>
    <path class="uuid-e8967ed8-03ea-4d5a-9622-081b6c433d0d" d="m875.56,189.1l-2.7-3.79c-.3.03-.61.05-.94.05h-3.17v3.74h-1.25v-11.79h4.41c3,0,4.82,1.52,4.82,4.04,0,1.85-.98,3.15-2.7,3.71l2.88,4.04h-1.36Zm-.07-7.75c0-1.89-1.25-2.96-3.6-2.96h-3.13v5.91h3.13c2.36,0,3.6-1.1,3.6-2.95Z"/>
    <path class="uuid-e8967ed8-03ea-4d5a-9622-081b6c433d0d" d="m883.05,183.2c0-3.76,1.97-6,4.7-6s4.72,2.24,4.72,6-1.99,6-4.72,6-4.7-2.24-4.7-6Zm8.17,0c0-3.15-1.42-4.89-3.47-4.89s-3.47,1.74-3.47,4.89,1.42,4.89,3.47,4.89,3.47-1.74,3.47-4.89Z"/>
  </g>
  <g>
    <path class="uuid-e8967ed8-03ea-4d5a-9622-081b6c433d0d" d="m875.81,203.41h1.2v4.5c-1.11.99-2.7,1.5-4.33,1.5-3.59,0-6.22-2.54-6.22-6s2.63-6,6.23-6c1.79,0,3.34.57,4.38,1.7l-.77.79c-.99-.98-2.17-1.38-3.55-1.38-2.91,0-5.05,2.07-5.05,4.89s2.14,4.89,5.04,4.89c1.13,0,2.17-.25,3.08-.91v-3.98Z"/>
    <path class="uuid-e8967ed8-03ea-4d5a-9622-081b6c433d0d" d="m883.89,203.41c0-3.76,1.97-6,4.7-6s4.72,2.24,4.72,6-1.99,6-4.72,6-4.7-2.24-4.7-6Zm8.17,0c0-3.15-1.42-4.89-3.47-4.89s-3.47,1.73-3.47,4.89,1.42,4.89,3.47,4.89,3.47-1.73,3.47-4.89Z"/>
  </g>
  <g>
    <path class="uuid-e8967ed8-03ea-4d5a-9622-081b6c433d0d" d="m877.36,226.36c0,2-1.48,3.15-4.43,3.15h-5.42v-11.79h5.09c2.63,0,4.14,1.11,4.14,3.03,0,1.35-.72,2.24-1.8,2.68,1.52.34,2.43,1.33,2.43,2.93Zm-8.61-7.61v4.28h3.76c1.89,0,2.98-.72,2.98-2.14s-1.09-2.14-2.98-2.14h-3.76Zm7.36,7.51c0-1.53-1.13-2.21-3.2-2.21h-4.16v4.43h4.16c2.07,0,3.2-.67,3.2-2.22Z"/>
    <path class="uuid-e8967ed8-03ea-4d5a-9622-081b6c433d0d" d="m883.57,223.62c0-3.76,1.97-6,4.7-6s4.72,2.24,4.72,6-1.99,6-4.72,6-4.7-2.24-4.7-6Zm8.17,0c0-3.15-1.42-4.89-3.47-4.89s-3.47,1.73-3.47,4.89,1.42,4.89,3.47,4.89,3.47-1.73,3.47-4.89Z"/>
  </g>
  <g>
    <path class="uuid-e8967ed8-03ea-4d5a-9622-081b6c433d0d" d="m877.36,258.14v11.79h-1.23v-5.44h-7.38v5.44h-1.25v-11.79h1.25v5.26h7.38v-5.26h1.23Z"/>
    <path class="uuid-e8967ed8-03ea-4d5a-9622-081b6c433d0d" d="m884.56,264.03c0-3.76,1.97-6,4.7-6s4.72,2.24,4.72,6-1.99,6-4.72,6-4.7-2.24-4.7-6Zm8.17,0c0-3.15-1.42-4.89-3.47-4.89s-3.47,1.74-3.47,4.89,1.42,4.89,3.47,4.89,3.47-1.74,3.47-4.89Z"/>
  </g>
  <g>
    <path class="uuid-e8967ed8-03ea-4d5a-9622-081b6c433d0d" d="m866.38,288.71l.49-.96c.84.83,2.34,1.43,3.89,1.43,2.21,0,3.17-.93,3.17-2.09,0-3.23-7.26-1.25-7.26-5.61,0-1.73,1.35-3.23,4.35-3.23,1.33,0,2.71.39,3.66,1.04l-.42.99c-1.01-.66-2.19-.98-3.23-.98-2.16,0-3.12.96-3.12,2.14,0,3.23,7.26,1.28,7.26,5.58,0,1.73-1.38,3.22-4.4,3.22-1.77,0-3.5-.62-4.38-1.53Z"/>
    <path class="uuid-e8967ed8-03ea-4d5a-9622-081b6c433d0d" d="m881.23,284.24c0-3.76,1.97-6,4.7-6s4.72,2.24,4.72,6-1.99,6-4.72,6-4.7-2.24-4.7-6Zm8.17,0c0-3.15-1.42-4.89-3.47-4.89s-3.47,1.74-3.47,4.89,1.42,4.89,3.47,4.89,3.47-1.74,3.47-4.89Z"/>
  </g>
  <g>
    <path class="uuid-e8967ed8-03ea-4d5a-9622-081b6c433d0d" d="m877.36,307.2c0,2-1.48,3.15-4.43,3.15h-5.42v-11.79h5.09c2.63,0,4.14,1.11,4.14,3.03,0,1.35-.72,2.24-1.8,2.68,1.52.34,2.43,1.33,2.43,2.93Zm-8.61-7.61v4.28h3.76c1.89,0,2.98-.72,2.98-2.14s-1.09-2.14-2.98-2.14h-3.76Zm7.36,7.51c0-1.53-1.13-2.21-3.2-2.21h-4.16v4.43h4.16c2.07,0,3.2-.67,3.2-2.22Z"/>
    <path class="uuid-e8967ed8-03ea-4d5a-9622-081b6c433d0d" d="m883.57,304.45c0-3.76,1.97-6,4.7-6s4.72,2.24,4.72,6-1.99,6-4.72,6-4.7-2.24-4.7-6Zm8.17,0c0-3.15-1.42-4.89-3.47-4.89s-3.47,1.73-3.47,4.89,1.42,4.89,3.47,4.89,3.47-1.73,3.47-4.89Z"/>
  </g>
  <g>
    <path class="uuid-e8967ed8-03ea-4d5a-9622-081b6c433d0d" d="m877.36,338.97v11.79h-1.23v-5.44h-7.38v5.44h-1.25v-11.79h1.25v5.26h7.38v-5.26h1.23Z"/>
    <path class="uuid-e8967ed8-03ea-4d5a-9622-081b6c433d0d" d="m889.53,349.69v1.08h-8.34v-11.79h8.09v1.08h-6.84v4.19h6.1v1.06h-6.1v4.38h7.09Z"/>
    <path class="uuid-e8967ed8-03ea-4d5a-9622-081b6c433d0d" d="m899.72,350.77l-3.81-5.19-3.79,5.19h-1.43l4.48-6.06-4.19-5.73h1.43l3.55,4.82,3.54-4.82h1.35l-4.18,5.69,4.5,6.1h-1.45Z"/>
    <path class="uuid-e8967ed8-03ea-4d5a-9622-081b6c433d0d" d="m906.74,344.87c0-3.76,1.97-6,4.7-6s4.72,2.24,4.72,6-1.99,6-4.72,6-4.7-2.24-4.7-6Zm8.17,0c0-3.15-1.42-4.89-3.47-4.89s-3.47,1.73-3.47,4.89,1.42,4.89,3.47,4.89,3.47-1.73,3.47-4.89Z"/>
    <path class="uuid-e8967ed8-03ea-4d5a-9622-081b6c433d0d" d="m917.89,344.87c0-3.76,1.97-6,4.7-6s4.72,2.24,4.72,6-1.99,6-4.72,6-4.7-2.24-4.7-6Zm8.17,0c0-3.15-1.42-4.89-3.47-4.89s-3.47,1.73-3.47,4.89,1.42,4.89,3.47,4.89,3.47-1.73,3.47-4.89Z"/>
    <path class="uuid-e8967ed8-03ea-4d5a-9622-081b6c433d0d" d="m929.04,344.87c0-3.76,1.97-6,4.7-6s4.72,2.24,4.72,6-1.99,6-4.72,6-4.7-2.24-4.7-6Zm8.17,0c0-3.15-1.42-4.89-3.47-4.89s-3.47,1.73-3.47,4.89,1.42,4.89,3.47,4.89,3.47-1.73,3.47-4.89Z"/>
    <path class="uuid-e8967ed8-03ea-4d5a-9622-081b6c433d0d" d="m940.19,344.87c0-3.76,1.97-6,4.7-6s4.72,2.24,4.72,6-1.99,6-4.72,6-4.7-2.24-4.7-6Zm8.17,0c0-3.15-1.42-4.89-3.47-4.89s-3.47,1.73-3.47,4.89,1.42,4.89,3.47,4.89,3.47-1.73,3.47-4.89Z"/>
    <path class="uuid-e8967ed8-03ea-4d5a-9622-081b6c433d0d" d="m951.33,344.87c0-3.76,1.97-6,4.7-6s4.72,2.24,4.72,6-1.99,6-4.72,6-4.7-2.24-4.7-6Zm8.17,0c0-3.15-1.42-4.89-3.47-4.89s-3.47,1.73-3.47,4.89,1.42,4.89,3.47,4.89,3.47-1.73,3.47-4.89Z"/>
    <path class="uuid-e8967ed8-03ea-4d5a-9622-081b6c433d0d" d="m962.48,344.87c0-3.76,1.97-6,4.7-6s4.72,2.24,4.72,6-1.99,6-4.72,6-4.7-2.24-4.7-6Zm8.17,0c0-3.15-1.42-4.89-3.47-4.89s-3.47,1.73-3.47,4.89,1.42,4.89,3.47,4.89,3.47-1.73,3.47-4.89Z"/>
  </g>
  <g>
    <path class="uuid-e8967ed8-03ea-4d5a-9622-081b6c433d0d" d="m876.74,363.22c0,2.51-1.82,4.03-4.82,4.03h-3.17v3.72h-1.25v-11.79h4.41c3,0,4.82,1.52,4.82,4.04Zm-1.25,0c0-1.89-1.25-2.96-3.6-2.96h-3.13v5.9h3.13c2.36,0,3.6-1.08,3.6-2.93Z"/>
    <path class="uuid-e8967ed8-03ea-4d5a-9622-081b6c433d0d" d="m891.69,359.18v11.79h-1.2v-9.43l-4.63,7.93h-.59l-4.63-7.88v9.38h-1.2v-11.79h1.03l5.12,8.74,5.07-8.74h1.03Z"/>
    <path class="uuid-e8967ed8-03ea-4d5a-9622-081b6c433d0d" d="m894.4,369.54l.49-.96c.84.83,2.34,1.43,3.89,1.43,2.21,0,3.17-.93,3.17-2.09,0-3.23-7.26-1.25-7.26-5.61,0-1.73,1.35-3.23,4.35-3.23,1.33,0,2.71.39,3.66,1.04l-.42.99c-1.01-.66-2.19-.98-3.23-.98-2.16,0-3.12.96-3.12,2.14,0,3.23,7.26,1.28,7.26,5.58,0,1.73-1.38,3.22-4.4,3.22-1.77,0-3.5-.62-4.38-1.53Z"/>
    <path class="uuid-e8967ed8-03ea-4d5a-9622-081b6c433d0d" d="m919.53,363.22c0,2.51-1.82,4.03-4.82,4.03h-3.17v3.72h-1.25v-11.79h4.41c3,0,4.82,1.52,4.82,4.04Zm-1.25,0c0-1.89-1.25-2.96-3.6-2.96h-3.13v5.9h3.13c2.36,0,3.6-1.08,3.6-2.93Z"/>
    <path class="uuid-e8967ed8-03ea-4d5a-9622-081b6c433d0d" d="m926.21,362.04v1.16c-.1,0-.2-.02-.29-.02-1.85,0-2.98,1.18-2.98,3.27v4.51h-1.2v-8.86h1.15v1.73c.56-1.18,1.68-1.8,3.32-1.8Z"/>
    <path class="uuid-e8967ed8-03ea-4d5a-9622-081b6c433d0d" d="m927.4,366.54c0-2.63,1.92-4.5,4.51-4.5s4.5,1.87,4.5,4.5-1.9,4.51-4.5,4.51-4.51-1.89-4.51-4.51Zm7.8,0c0-2.07-1.4-3.45-3.29-3.45s-3.3,1.38-3.3,3.45,1.42,3.45,3.3,3.45,3.29-1.38,3.29-3.45Z"/>
    <path class="uuid-e8967ed8-03ea-4d5a-9622-081b6c433d0d" d="m937.96,366.54c0-2.64,1.92-4.5,4.56-4.5,1.5,0,2.76.59,3.47,1.75l-.89.61c-.61-.89-1.55-1.31-2.58-1.31-1.94,0-3.35,1.38-3.35,3.45s1.42,3.45,3.35,3.45c1.03,0,1.97-.4,2.58-1.3l.89.61c-.71,1.15-1.97,1.75-3.47,1.75-2.64,0-4.56-1.87-4.56-4.51Z"/>
    <path class="uuid-e8967ed8-03ea-4d5a-9622-081b6c433d0d" d="m955.92,366.91h-7.41c.13,1.85,1.55,3.08,3.49,3.08,1.08,0,2.04-.39,2.71-1.16l.67.78c-.79.94-2.02,1.45-3.42,1.45-2.76,0-4.65-1.89-4.65-4.51s1.84-4.5,4.33-4.5,4.3,1.84,4.3,4.5c0,.1-.02.24-.02.37Zm-7.41-.89h6.28c-.15-1.73-1.42-2.95-3.15-2.95s-2.98,1.21-3.13,2.95Z"/>
    <path class="uuid-e8967ed8-03ea-4d5a-9622-081b6c433d0d" d="m957.14,369.96l.54-.94c.71.56,1.9.99,3.15.99,1.68,0,2.38-.57,2.38-1.45,0-2.31-5.74-.49-5.74-3.99,0-1.45,1.25-2.53,3.5-2.53,1.15,0,2.39.32,3.13.83l-.52.96c-.77-.54-1.7-.76-2.61-.76-1.6,0-2.31.62-2.31,1.47,0,2.39,5.74.59,5.74,3.99,0,1.53-1.35,2.53-3.66,2.53-1.47,0-2.88-.47-3.6-1.09Z"/>
    <path class="uuid-e8967ed8-03ea-4d5a-9622-081b6c433d0d" d="m965.38,369.96l.54-.94c.71.56,1.9.99,3.15.99,1.68,0,2.38-.57,2.38-1.45,0-2.31-5.74-.49-5.74-3.99,0-1.45,1.25-2.53,3.5-2.53,1.15,0,2.39.32,3.13.83l-.52.96c-.77-.54-1.7-.76-2.61-.76-1.6,0-2.31.62-2.31,1.47,0,2.39,5.74.59,5.74,3.99,0,1.53-1.35,2.53-3.66,2.53-1.47,0-2.88-.47-3.6-1.09Z"/>
    <path class="uuid-e8967ed8-03ea-4d5a-9622-081b6c433d0d" d="m989.36,367.82c0,2-1.48,3.15-4.43,3.15h-5.42v-11.79h5.09c2.63,0,4.14,1.11,4.14,3.03,0,1.35-.72,2.24-1.8,2.68,1.52.34,2.43,1.33,2.43,2.93Zm-8.61-7.61v4.28h3.76c1.89,0,2.98-.72,2.98-2.14s-1.1-2.14-2.98-2.14h-3.76Zm7.36,7.51c0-1.53-1.13-2.21-3.2-2.21h-4.16v4.43h4.16c2.07,0,3.2-.67,3.2-2.22Z"/>
    <path class="uuid-e8967ed8-03ea-4d5a-9622-081b6c433d0d" d="m991.95,358.47h1.2v12.5h-1.2v-12.5Z"/>
    <path class="uuid-e8967ed8-03ea-4d5a-9622-081b6c433d0d" d="m1003.17,365.48v5.49h-1.15v-1.38c-.54.91-1.58,1.47-3.05,1.47-2,0-3.23-1.04-3.23-2.58,0-1.36.88-2.51,3.42-2.51h2.81v-.54c0-1.52-.86-2.34-2.51-2.34-1.15,0-2.22.4-2.95,1.04l-.54-.89c.89-.76,2.21-1.2,3.6-1.2,2.29,0,3.59,1.15,3.59,3.44Zm-1.2,2.83v-1.45h-2.78c-1.72,0-2.27.67-2.27,1.58,0,1.03.83,1.67,2.24,1.67s2.34-.64,2.81-1.8Z"/>
    <path class="uuid-e8967ed8-03ea-4d5a-9622-081b6c433d0d" d="m1005.54,366.54c0-2.64,1.92-4.5,4.56-4.5,1.5,0,2.76.59,3.47,1.75l-.89.61c-.61-.89-1.55-1.31-2.58-1.31-1.94,0-3.35,1.38-3.35,3.45s1.42,3.45,3.35,3.45c1.03,0,1.97-.4,2.58-1.3l.89.61c-.71,1.15-1.97,1.75-3.47,1.75-2.64,0-4.56-1.87-4.56-4.51Z"/>
    <path class="uuid-e8967ed8-03ea-4d5a-9622-081b6c433d0d" d="m1019.08,366.53l-2.09,1.92v2.53h-1.2v-12.5h1.2v8.47l5.29-4.83h1.48l-3.79,3.62,4.14,5.24h-1.47l-3.57-4.45Z"/>
    <path class="uuid-e8967ed8-03ea-4d5a-9622-081b6c433d0d" d="m1029.54,365.08c0-3.45,2.63-6,6.18-6,1.72,0,3.27.57,4.31,1.72l-.79.79c-.96-.98-2.14-1.4-3.49-1.4-2.85,0-4.99,2.09-4.99,4.89s2.14,4.89,4.99,4.89c1.35,0,2.53-.42,3.49-1.42l.79.79c-1.04,1.15-2.59,1.73-4.33,1.73-3.54,0-6.17-2.54-6.17-6Z"/>
  </g>
  <g>
    <path class="uuid-17a8edd4-8238-48c1-894a-b8016ec387fc" d="m592.3,39.89c0,2.51-1.82,4.03-4.82,4.03h-3.17v3.72h-1.25v-11.79h4.41c3,0,4.82,1.52,4.82,4.04Zm-1.25,0c0-1.89-1.25-2.96-3.6-2.96h-3.13v5.9h3.13c2.36,0,3.6-1.08,3.6-2.93Z"/>
    <path class="uuid-17a8edd4-8238-48c1-894a-b8016ec387fc" d="m602.89,38.78v8.86h-1.15v-1.62c-.62,1.08-1.77,1.7-3.18,1.7-2.26,0-3.74-1.26-3.74-3.81v-5.14h1.2v5.02c0,1.89.98,2.85,2.66,2.85,1.85,0,3.02-1.2,3.02-3.22v-4.65h1.2Z"/>
    <path class="uuid-17a8edd4-8238-48c1-894a-b8016ec387fc" d="m610.7,38.71v1.16c-.1,0-.2-.02-.29-.02-1.85,0-2.98,1.18-2.98,3.27v4.51h-1.2v-8.86h1.15v1.74c.56-1.18,1.68-1.8,3.32-1.8Z"/>
    <path class="uuid-17a8edd4-8238-48c1-894a-b8016ec387fc" d="m620.51,43.58h-7.41c.13,1.85,1.55,3.08,3.49,3.08,1.08,0,2.04-.39,2.71-1.16l.67.77c-.79.94-2.02,1.45-3.42,1.45-2.76,0-4.65-1.89-4.65-4.51s1.84-4.5,4.33-4.5,4.3,1.84,4.3,4.5c0,.1-.02.24-.02.37Zm-7.41-.89h6.28c-.15-1.74-1.42-2.95-3.15-2.95s-2.98,1.21-3.13,2.95Z"/>
    <path class="uuid-17a8edd4-8238-48c1-894a-b8016ec387fc" d="m631.67,43.56v4.08h-1.23v-4.08l-4.72-7.72h1.33l4.04,6.62,4.04-6.62h1.25l-4.72,7.72Z"/>
    <path class="uuid-17a8edd4-8238-48c1-894a-b8016ec387fc" d="m644.77,43.58h-7.41c.13,1.85,1.55,3.08,3.49,3.08,1.08,0,2.04-.39,2.71-1.16l.67.77c-.79.94-2.02,1.45-3.42,1.45-2.76,0-4.65-1.89-4.65-4.51s1.84-4.5,4.33-4.5,4.3,1.84,4.3,4.5c0,.1-.02.24-.02.37Zm-7.41-.89h6.28c-.15-1.74-1.42-2.95-3.15-2.95s-2.98,1.21-3.13,2.95Z"/>
    <path class="uuid-17a8edd4-8238-48c1-894a-b8016ec387fc" d="m647.23,35.14h1.2v12.5h-1.2v-12.5Z"/>
    <path class="uuid-17a8edd4-8238-48c1-894a-b8016ec387fc" d="m651.76,35.14h1.2v12.5h-1.2v-12.5Z"/>
    <path class="uuid-17a8edd4-8238-48c1-894a-b8016ec387fc" d="m655.4,43.21c0-2.63,1.92-4.5,4.51-4.5s4.5,1.87,4.5,4.5-1.9,4.51-4.5,4.51-4.51-1.89-4.51-4.51Zm7.8,0c0-2.07-1.4-3.45-3.28-3.45s-3.3,1.38-3.3,3.45,1.42,3.45,3.3,3.45,3.28-1.38,3.28-3.45Z"/>
    <path class="uuid-17a8edd4-8238-48c1-894a-b8016ec387fc" d="m679.6,38.78l-3.35,8.86h-1.13l-2.8-7.26-2.8,7.26h-1.13l-3.34-8.86h1.15l2.78,7.53,2.85-7.53h1.03l2.83,7.53,2.81-7.53h1.09Z"/>
  </g>
  <g>
    <path class="uuid-17a8edd4-8238-48c1-894a-b8016ec387fc" d="m582.02,82.16c0-3.45,2.63-6,6.18-6,1.72,0,3.27.57,4.31,1.72l-.79.79c-.96-.98-2.14-1.4-3.49-1.4-2.85,0-4.99,2.09-4.99,4.89s2.14,4.89,4.99,4.89c1.35,0,2.53-.42,3.49-1.42l.79.79c-1.04,1.15-2.59,1.73-4.33,1.73-3.54,0-6.17-2.54-6.17-6Z"/>
    <path class="uuid-17a8edd4-8238-48c1-894a-b8016ec387fc" d="m598.54,82.16c0-3.76,1.97-6,4.7-6s4.72,2.24,4.72,6-1.99,6-4.72,6-4.7-2.24-4.7-6Zm8.17,0c0-3.15-1.42-4.89-3.47-4.89s-3.47,1.74-3.47,4.89,1.42,4.89,3.47,4.89,3.47-1.74,3.47-4.89Z"/>
  </g>
  <g>
    <path class="uuid-17a8edd4-8238-48c1-894a-b8016ec387fc" d="m595.31,96.47v11.79h-1.2v-9.43l-4.63,7.93h-.59l-4.63-7.88v9.38h-1.2v-11.79h1.03l5.12,8.74,5.07-8.74h1.03Z"/>
    <path class="uuid-17a8edd4-8238-48c1-894a-b8016ec387fc" d="m602.52,102.37c0-3.76,1.97-6,4.7-6s4.72,2.24,4.72,6-1.99,6-4.72,6-4.7-2.24-4.7-6Zm8.17,0c0-3.15-1.42-4.89-3.47-4.89s-3.47,1.74-3.47,4.89,1.42,4.89,3.47,4.89,3.47-1.74,3.47-4.89Z"/>
  </g>
  <g>
    <path class="uuid-17a8edd4-8238-48c1-894a-b8016ec387fc" d="m587.11,124.4v4.08h-1.23v-4.08l-4.72-7.72h1.33l4.04,6.62,4.04-6.62h1.25l-4.72,7.72Z"/>
    <path class="uuid-17a8edd4-8238-48c1-894a-b8016ec387fc" d="m600.4,116.68v11.79h-1.21v-10.71h-2.78v-1.08h3.99Z"/>
    <path class="uuid-17a8edd4-8238-48c1-894a-b8016ec387fc" d="m603.21,122.58c0-3.76,1.97-6,4.7-6s4.72,2.24,4.72,6-1.99,6-4.72,6-4.7-2.24-4.7-6Zm8.17,0c0-3.15-1.42-4.89-3.47-4.89s-3.47,1.73-3.47,4.89,1.42,4.89,3.47,4.89,3.47-1.73,3.47-4.89Z"/>
    <path class="uuid-17a8edd4-8238-48c1-894a-b8016ec387fc" d="m614.36,122.58c0-3.76,1.97-6,4.7-6s4.72,2.24,4.72,6-1.99,6-4.72,6-4.7-2.24-4.7-6Zm8.17,0c0-3.15-1.42-4.89-3.47-4.89s-3.47,1.73-3.47,4.89,1.42,4.89,3.47,4.89,3.47-1.73,3.47-4.89Z"/>
  </g>
  <g>
    <path class="uuid-17a8edd4-8238-48c1-894a-b8016ec387fc" d="m586.72,143.14l-2.41,2.44v3.1h-1.25v-11.79h1.25v7.13l6.92-7.13h1.43l-5.1,5.34,5.46,6.45h-1.48l-4.82-5.54Z"/>
    <path class="uuid-17a8edd4-8238-48c1-894a-b8016ec387fc" d="m598.41,142.78c0-3.76,1.97-6,4.7-6s4.72,2.24,4.72,6-1.99,6-4.72,6-4.7-2.24-4.7-6Zm8.17,0c0-3.15-1.42-4.89-3.47-4.89s-3.47,1.73-3.47,4.89,1.42,4.89,3.47,4.89,3.47-1.73,3.47-4.89Z"/>
  </g>
  <g>
    <path class="uuid-17a8edd4-8238-48c1-894a-b8016ec387fc" d="m591.12,189.1l-2.7-3.79c-.3.03-.61.05-.94.05h-3.17v3.74h-1.25v-11.79h4.41c3,0,4.82,1.52,4.82,4.04,0,1.85-.98,3.15-2.7,3.71l2.88,4.04h-1.36Zm-.07-7.75c0-1.89-1.25-2.96-3.6-2.96h-3.13v5.91h3.13c2.36,0,3.6-1.1,3.6-2.95Z"/>
    <path class="uuid-17a8edd4-8238-48c1-894a-b8016ec387fc" d="m606.66,188.02v1.08h-8.27v-.86l4.9-4.8c1.33-1.31,1.58-2.11,1.58-2.91,0-1.36-.96-2.21-2.76-2.21-1.38,0-2.44.42-3.22,1.31l-.86-.74c.91-1.08,2.38-1.68,4.18-1.68,2.39,0,3.91,1.21,3.91,3.18,0,1.13-.35,2.14-1.94,3.69l-4.01,3.94h6.49Z"/>
    <path class="uuid-17a8edd4-8238-48c1-894a-b8016ec387fc" d="m616.18,185.63c0,2-1.4,3.57-4.28,3.57-1.7,0-3.32-.59-4.23-1.52l.59-.96c.76.79,2.11,1.36,3.62,1.36,2,0,3.07-.98,3.07-2.41,0-1.52-.94-2.46-3.94-2.46h-2.51l.61-5.91h6.45v1.08h-5.39l-.4,3.76h1.52c3.55,0,4.9,1.4,4.9,3.49Z"/>
    <path class="uuid-17a8edd4-8238-48c1-894a-b8016ec387fc" d="m625.63,185.63c0,2-1.4,3.57-4.28,3.57-1.7,0-3.32-.59-4.23-1.52l.59-.96c.76.79,2.11,1.36,3.62,1.36,2,0,3.07-.98,3.07-2.41,0-1.52-.94-2.46-3.94-2.46h-2.51l.61-5.91h6.45v1.08h-5.39l-.4,3.76h1.52c3.55,0,4.9,1.4,4.9,3.49Z"/>
  </g>
  <g>
    <path class="uuid-17a8edd4-8238-48c1-894a-b8016ec387fc" d="m591.37,203.41h1.2v4.5c-1.11.99-2.7,1.5-4.33,1.5-3.59,0-6.22-2.54-6.22-6s2.63-6,6.23-6c1.79,0,3.34.57,4.38,1.7l-.77.79c-.99-.98-2.17-1.38-3.55-1.38-2.91,0-5.05,2.07-5.05,4.89s2.14,4.89,5.04,4.89c1.13,0,2.17-.25,3.08-.91v-3.98Z"/>
    <path class="uuid-17a8edd4-8238-48c1-894a-b8016ec387fc" d="m607.51,208.23v1.08h-8.27v-.86l4.9-4.8c1.33-1.31,1.58-2.11,1.58-2.91,0-1.36-.96-2.21-2.76-2.21-1.38,0-2.44.42-3.22,1.31l-.86-.74c.91-1.08,2.38-1.68,4.18-1.68,2.39,0,3.91,1.21,3.91,3.18,0,1.13-.35,2.14-1.94,3.69l-4.01,3.94h6.49Z"/>
    <path class="uuid-17a8edd4-8238-48c1-894a-b8016ec387fc" d="m618.67,206.2h-2.36v3.1h-1.21v-3.1h-6.65v-.88l6.25-7.82h1.35l-6.03,7.61h5.12v-2.73h1.18v2.73h2.36v1.08Z"/>
    <path class="uuid-17a8edd4-8238-48c1-894a-b8016ec387fc" d="m627.76,208.23v1.08h-8.27v-.86l4.9-4.8c1.33-1.31,1.58-2.11,1.58-2.91,0-1.36-.96-2.21-2.76-2.21-1.38,0-2.44.42-3.22,1.31l-.86-.74c.91-1.08,2.38-1.68,4.18-1.68,2.39,0,3.91,1.21,3.91,3.18,0,1.13-.35,2.14-1.94,3.69l-4.01,3.94h6.49Z"/>
  </g>
  <g>
    <path class="uuid-17a8edd4-8238-48c1-894a-b8016ec387fc" d="m592.92,226.36c0,2-1.48,3.15-4.43,3.15h-5.42v-11.79h5.09c2.63,0,4.14,1.11,4.14,3.03,0,1.35-.72,2.24-1.8,2.68,1.52.34,2.43,1.33,2.43,2.93Zm-8.61-7.61v4.28h3.76c1.89,0,2.98-.72,2.98-2.14s-1.09-2.14-2.98-2.14h-3.76Zm7.36,7.51c0-1.53-1.13-2.21-3.2-2.21h-4.16v4.43h4.16c2.07,0,3.2-.67,3.2-2.22Z"/>
    <path class="uuid-17a8edd4-8238-48c1-894a-b8016ec387fc" d="m599.13,223.62c0-3.76,1.97-6,4.7-6s4.72,2.24,4.72,6-1.99,6-4.72,6-4.7-2.24-4.7-6Zm8.17,0c0-3.15-1.42-4.89-3.47-4.89s-3.47,1.73-3.47,4.89,1.42,4.89,3.47,4.89,3.47-1.73,3.47-4.89Z"/>
  </g>
  <g>
    <path class="uuid-17a8edd4-8238-48c1-894a-b8016ec387fc" d="m592.92,258.14v11.79h-1.23v-5.44h-7.38v5.44h-1.25v-11.79h1.25v5.26h7.38v-5.26h1.23Z"/>
    <path class="uuid-17a8edd4-8238-48c1-894a-b8016ec387fc" d="m608.13,266.46c0,2-1.4,3.57-4.28,3.57-1.7,0-3.32-.59-4.23-1.52l.59-.96c.76.79,2.11,1.36,3.62,1.36,2,0,3.07-.98,3.07-2.41,0-1.52-.94-2.46-3.94-2.46h-2.51l.61-5.91h6.45v1.08h-5.39l-.4,3.76h1.52c3.55,0,4.9,1.4,4.9,3.49Z"/>
    <path class="uuid-17a8edd4-8238-48c1-894a-b8016ec387fc" d="m617.76,258.14v.86l-4.94,10.93h-1.31l4.85-10.71h-6.06v2.21h-1.2v-3.29h8.66Z"/>
    <path class="uuid-17a8edd4-8238-48c1-894a-b8016ec387fc" d="m620.3,269.09c0,.29-.07.51-.24.98l-.71,2.32h-.81l.57-2.44c-.35-.1-.61-.42-.61-.86,0-.52.39-.91.89-.91s.89.4.89.91Z"/>
  </g>
  <g>
    <path class="uuid-17a8edd4-8238-48c1-894a-b8016ec387fc" d="m581.94,288.71l.49-.96c.84.83,2.34,1.43,3.89,1.43,2.21,0,3.17-.93,3.17-2.09,0-3.23-7.26-1.25-7.26-5.61,0-1.73,1.35-3.23,4.35-3.23,1.33,0,2.71.39,3.66,1.04l-.42.99c-1.01-.66-2.19-.98-3.23-.98-2.16,0-3.12.96-3.12,2.14,0,3.23,7.26,1.28,7.26,5.58,0,1.73-1.38,3.22-4.4,3.22-1.77,0-3.5-.62-4.38-1.53Z"/>
    <path class="uuid-17a8edd4-8238-48c1-894a-b8016ec387fc" d="m600.06,278.35v11.79h-1.21v-10.71h-2.78v-1.08h3.99Z"/>
    <path class="uuid-17a8edd4-8238-48c1-894a-b8016ec387fc" d="m602.87,284.24c0-3.76,1.97-6,4.7-6s4.72,2.24,4.72,6-1.99,6-4.72,6-4.7-2.24-4.7-6Zm8.17,0c0-3.15-1.42-4.89-3.47-4.89s-3.47,1.74-3.47,4.89,1.42,4.89,3.47,4.89,3.47-1.74,3.47-4.89Z"/>
    <path class="uuid-17a8edd4-8238-48c1-894a-b8016ec387fc" d="m614.02,284.24c0-3.76,1.97-6,4.7-6s4.72,2.24,4.72,6-1.99,6-4.72,6-4.7-2.24-4.7-6Zm8.17,0c0-3.15-1.42-4.89-3.47-4.89s-3.47,1.74-3.47,4.89,1.42,4.89,3.47,4.89,3.47-1.74,3.47-4.89Z"/>
  </g>
  <g>
    <path class="uuid-17a8edd4-8238-48c1-894a-b8016ec387fc" d="m592.92,307.2c0,2-1.48,3.15-4.43,3.15h-5.42v-11.79h5.09c2.63,0,4.14,1.11,4.14,3.03,0,1.35-.72,2.24-1.8,2.68,1.52.34,2.43,1.33,2.43,2.93Zm-8.61-7.61v4.28h3.76c1.89,0,2.98-.72,2.98-2.14s-1.09-2.14-2.98-2.14h-3.76Zm7.36,7.51c0-1.53-1.13-2.21-3.2-2.21h-4.16v4.43h4.16c2.07,0,3.2-.67,3.2-2.22Z"/>
    <path class="uuid-17a8edd4-8238-48c1-894a-b8016ec387fc" d="m602.4,298.55v11.79h-1.21v-10.71h-2.78v-1.08h3.99Z"/>
    <path class="uuid-17a8edd4-8238-48c1-894a-b8016ec387fc" d="m605.21,304.45c0-3.76,1.97-6,4.7-6s4.72,2.24,4.72,6-1.99,6-4.72,6-4.7-2.24-4.7-6Zm8.17,0c0-3.15-1.42-4.89-3.47-4.89s-3.47,1.73-3.47,4.89,1.42,4.89,3.47,4.89,3.47-1.73,3.47-4.89Z"/>
    <path class="uuid-17a8edd4-8238-48c1-894a-b8016ec387fc" d="m616.36,304.45c0-3.76,1.97-6,4.7-6s4.72,2.24,4.72,6-1.99,6-4.72,6-4.7-2.24-4.7-6Zm8.17,0c0-3.15-1.42-4.89-3.47-4.89s-3.47,1.73-3.47,4.89,1.42,4.89,3.47,4.89,3.47-1.73,3.47-4.89Z"/>
  </g>
  <g>
    <path class="uuid-17a8edd4-8238-48c1-894a-b8016ec387fc" d="m592.92,338.97v11.79h-1.23v-5.44h-7.38v5.44h-1.25v-11.79h1.25v5.26h7.38v-5.26h1.23Z"/>
    <path class="uuid-17a8edd4-8238-48c1-894a-b8016ec387fc" d="m605.1,349.69v1.08h-8.34v-11.79h8.09v1.08h-6.84v4.19h6.1v1.06h-6.1v4.38h7.09Z"/>
    <path class="uuid-17a8edd4-8238-48c1-894a-b8016ec387fc" d="m615.29,350.77l-3.81-5.19-3.79,5.19h-1.43l4.48-6.06-4.19-5.73h1.43l3.55,4.82,3.54-4.82h1.35l-4.18,5.69,4.5,6.1h-1.45Z"/>
    <path class="uuid-17a8edd4-8238-48c1-894a-b8016ec387fc" d="m624.6,340.05v4.63h6.1v1.08h-6.1v5h-1.25v-11.79h8.09v1.08h-6.84Z"/>
    <path class="uuid-17a8edd4-8238-48c1-894a-b8016ec387fc" d="m635.26,340.05v4.63h6.1v1.08h-6.1v5h-1.25v-11.79h8.09v1.08h-6.84Z"/>
    <path class="uuid-17a8edd4-8238-48c1-894a-b8016ec387fc" d="m645.92,340.05v4.63h6.1v1.08h-6.1v5h-1.25v-11.79h8.09v1.08h-6.84Z"/>
    <path class="uuid-17a8edd4-8238-48c1-894a-b8016ec387fc" d="m662.34,349.69v1.08h-8.27v-.86l4.9-4.8c1.33-1.31,1.58-2.11,1.58-2.91,0-1.36-.96-2.21-2.76-2.21-1.38,0-2.44.42-3.22,1.31l-.86-.74c.91-1.08,2.38-1.68,4.18-1.68,2.39,0,3.91,1.21,3.91,3.18,0,1.13-.35,2.14-1.94,3.69l-4.01,3.94h6.49Z"/>
    <path class="uuid-17a8edd4-8238-48c1-894a-b8016ec387fc" d="m663.78,344.87c0-3.76,1.97-6,4.7-6s4.72,2.24,4.72,6-1.99,6-4.72,6-4.7-2.24-4.7-6Zm8.17,0c0-3.15-1.42-4.89-3.47-4.89s-3.47,1.73-3.47,4.89,1.42,4.89,3.47,4.89,3.47-1.73,3.47-4.89Z"/>
    <path class="uuid-17a8edd4-8238-48c1-894a-b8016ec387fc" d="m674.93,344.87c0-3.76,1.97-6,4.7-6s4.72,2.24,4.72,6-1.99,6-4.72,6-4.7-2.24-4.7-6Zm8.17,0c0-3.15-1.42-4.89-3.47-4.89s-3.47,1.73-3.47,4.89,1.42,4.89,3.47,4.89,3.47-1.73,3.47-4.89Z"/>
  </g>
  <g>
    <path class="uuid-17a8edd4-8238-48c1-894a-b8016ec387fc" d="m592.3,363.22c0,2.51-1.82,4.03-4.82,4.03h-3.17v3.72h-1.25v-11.79h4.41c3,0,4.82,1.52,4.82,4.04Zm-1.25,0c0-1.89-1.25-2.96-3.6-2.96h-3.13v5.9h3.13c2.36,0,3.6-1.08,3.6-2.93Z"/>
    <path class="uuid-17a8edd4-8238-48c1-894a-b8016ec387fc" d="m607.25,359.18v11.79h-1.2v-9.43l-4.63,7.93h-.59l-4.63-7.88v9.38h-1.2v-11.79h1.03l5.12,8.74,5.07-8.74h1.03Z"/>
    <path class="uuid-17a8edd4-8238-48c1-894a-b8016ec387fc" d="m609.96,369.54l.49-.96c.84.83,2.34,1.43,3.89,1.43,2.21,0,3.17-.93,3.17-2.09,0-3.23-7.26-1.25-7.26-5.61,0-1.73,1.35-3.23,4.35-3.23,1.33,0,2.71.39,3.66,1.04l-.42.99c-1.01-.66-2.19-.98-3.23-.98-2.16,0-3.12.96-3.12,2.14,0,3.23,7.26,1.28,7.26,5.58,0,1.73-1.38,3.22-4.4,3.22-1.77,0-3.5-.62-4.38-1.53Z"/>
    <path class="uuid-17a8edd4-8238-48c1-894a-b8016ec387fc" d="m635.09,363.22c0,2.51-1.82,4.03-4.82,4.03h-3.17v3.72h-1.25v-11.79h4.41c3,0,4.82,1.52,4.82,4.04Zm-1.25,0c0-1.89-1.25-2.96-3.6-2.96h-3.13v5.9h3.13c2.36,0,3.6-1.08,3.6-2.93Z"/>
    <path class="uuid-17a8edd4-8238-48c1-894a-b8016ec387fc" d="m641.77,362.04v1.16c-.1,0-.2-.02-.29-.02-1.85,0-2.98,1.18-2.98,3.27v4.51h-1.2v-8.86h1.15v1.73c.56-1.18,1.68-1.8,3.32-1.8Z"/>
    <path class="uuid-17a8edd4-8238-48c1-894a-b8016ec387fc" d="m642.97,366.54c0-2.63,1.92-4.5,4.51-4.5s4.5,1.87,4.5,4.5-1.9,4.51-4.5,4.51-4.51-1.89-4.51-4.51Zm7.8,0c0-2.07-1.4-3.45-3.29-3.45s-3.3,1.38-3.3,3.45,1.42,3.45,3.3,3.45,3.29-1.38,3.29-3.45Z"/>
    <path class="uuid-17a8edd4-8238-48c1-894a-b8016ec387fc" d="m653.53,366.54c0-2.64,1.92-4.5,4.56-4.5,1.5,0,2.76.59,3.47,1.75l-.89.61c-.61-.89-1.55-1.31-2.58-1.31-1.94,0-3.35,1.38-3.35,3.45s1.42,3.45,3.35,3.45c1.03,0,1.97-.4,2.58-1.3l.89.61c-.71,1.15-1.97,1.75-3.47,1.75-2.64,0-4.56-1.87-4.56-4.51Z"/>
    <path class="uuid-17a8edd4-8238-48c1-894a-b8016ec387fc" d="m671.48,366.91h-7.41c.13,1.85,1.55,3.08,3.49,3.08,1.08,0,2.04-.39,2.71-1.16l.67.78c-.79.94-2.02,1.45-3.42,1.45-2.76,0-4.65-1.89-4.65-4.51s1.84-4.5,4.33-4.5,4.3,1.84,4.3,4.5c0,.1-.02.24-.02.37Zm-7.41-.89h6.28c-.15-1.73-1.42-2.95-3.15-2.95s-2.98,1.21-3.13,2.95Z"/>
    <path class="uuid-17a8edd4-8238-48c1-894a-b8016ec387fc" d="m672.71,369.96l.54-.94c.71.56,1.9.99,3.15.99,1.68,0,2.38-.57,2.38-1.45,0-2.31-5.74-.49-5.74-3.99,0-1.45,1.25-2.53,3.5-2.53,1.15,0,2.39.32,3.13.83l-.52.96c-.77-.54-1.7-.76-2.61-.76-1.6,0-2.31.62-2.31,1.47,0,2.39,5.74.59,5.74,3.99,0,1.53-1.35,2.53-3.66,2.53-1.47,0-2.88-.47-3.6-1.09Z"/>
    <path class="uuid-17a8edd4-8238-48c1-894a-b8016ec387fc" d="m680.94,369.96l.54-.94c.71.56,1.9.99,3.15.99,1.68,0,2.38-.57,2.38-1.45,0-2.31-5.74-.49-5.74-3.99,0-1.45,1.25-2.53,3.5-2.53,1.15,0,2.39.32,3.13.83l-.52.96c-.77-.54-1.7-.76-2.61-.76-1.6,0-2.31.62-2.31,1.47,0,2.39,5.74.59,5.74,3.99,0,1.53-1.35,2.53-3.66,2.53-1.47,0-2.88-.47-3.6-1.09Z"/>
    <path class="uuid-17a8edd4-8238-48c1-894a-b8016ec387fc" d="m699.12,366.9v4.08h-1.23v-4.08l-4.72-7.72h1.33l4.04,6.62,4.04-6.62h1.25l-4.72,7.72Z"/>
    <path class="uuid-17a8edd4-8238-48c1-894a-b8016ec387fc" d="m712.22,366.91h-7.41c.13,1.85,1.55,3.08,3.49,3.08,1.08,0,2.04-.39,2.71-1.16l.67.78c-.79.94-2.02,1.45-3.42,1.45-2.76,0-4.65-1.89-4.65-4.51s1.84-4.5,4.33-4.5,4.3,1.84,4.3,4.5c0,.1-.02.24-.02.37Zm-7.41-.89h6.28c-.15-1.73-1.42-2.95-3.15-2.95s-2.98,1.21-3.13,2.95Z"/>
    <path class="uuid-17a8edd4-8238-48c1-894a-b8016ec387fc" d="m714.67,358.47h1.2v12.5h-1.2v-12.5Z"/>
    <path class="uuid-17a8edd4-8238-48c1-894a-b8016ec387fc" d="m719.2,358.47h1.2v12.5h-1.2v-12.5Z"/>
    <path class="uuid-17a8edd4-8238-48c1-894a-b8016ec387fc" d="m722.84,366.54c0-2.63,1.92-4.5,4.51-4.5s4.5,1.87,4.5,4.5-1.9,4.51-4.5,4.51-4.51-1.89-4.51-4.51Zm7.8,0c0-2.07-1.4-3.45-3.28-3.45s-3.3,1.38-3.3,3.45,1.42,3.45,3.3,3.45,3.28-1.38,3.28-3.45Z"/>
    <path class="uuid-17a8edd4-8238-48c1-894a-b8016ec387fc" d="m747.06,362.11l-3.35,8.86h-1.13l-2.8-7.26-2.8,7.26h-1.13l-3.34-8.86h1.15l2.78,7.53,2.85-7.53h1.03l2.83,7.53,2.81-7.53h1.1Z"/>
  </g>
  <g class="uuid-6dfce199-9295-4117-b71e-b174ab42817c">
    <rect class="uuid-23b6efe4-4a86-48e6-b7d2-114508859fee" x="3.34" y="487.16" width="1367.43" height="211.31"/>
  </g>
  <g class="uuid-57488197-8b80-438e-b886-4fcc79c77cb9">
    <g class="uuid-57488197-8b80-438e-b886-4fcc79c77cb9">
      <path class="uuid-e8967ed8-03ea-4d5a-9622-081b6c433d0d" d="m1655.62,124.17c-9.31,11.48-21.63,19.6-36.98,24.35-15.35,4.75-34.6,7.13-57.77,7.13-34.85,0-62.13-6.68-81.83-20.05-19.7-13.37-29.55-32.43-29.55-57.17,0-19.01,5.05-34.75,15.15-47.22,10.1-12.47,24.06-20.3,41.88-23.46v24.35c-11.09,2.38-19.6,7.57-25.54,15.59-5.94,8.02-8.91,18.27-8.91,30.74,0,34.25,28.22,51.68,84.65,52.27-8.52-5.75-15.44-13.62-20.79-23.61-5.35-10-8.02-20.05-8.02-30.15,0-22.18,6.73-39.7,20.2-52.57,13.46-13.07,30.49-19.6,51.09-19.6s37.82,6.63,51.09,19.9c13.46,13.07,20.2,30.69,20.2,52.87,0,18.41-4.95,33.96-14.85,46.63Zm-91.48-80.19c-9.11,8.51-13.66,19.7-13.66,33.56s4.55,24.95,13.66,33.86c8.91,8.91,20.59,13.37,35.05,13.37s26.04-4.46,35.34-13.37c8.91-8.91,13.37-20.2,13.37-33.86s-4.56-25.05-13.66-33.56c-9.31-8.72-20.99-13.07-35.05-13.07s-25.74,4.35-35.05,13.07Z"/>
      <path class="uuid-e8967ed8-03ea-4d5a-9622-081b6c433d0d" d="m1480.38,316.34c-19.01-12.87-28.51-31.98-28.51-57.32s9.5-44.65,28.51-57.32c19.2-12.87,46.53-19.31,81.97-19.31s62.77,6.43,81.97,19.31c19.01,12.67,28.51,31.78,28.51,57.32s-9.5,44.45-28.51,57.32c-19.21,12.87-46.53,19.31-81.97,19.31s-62.77-6.44-81.97-19.31Zm169.89-57.32c0-33.66-29.31-50.49-87.92-50.49s-87.92,16.83-87.92,50.49,29.3,50.49,87.92,50.49,87.92-16.83,87.92-50.49Z"/>
      <path class="uuid-e8967ed8-03ea-4d5a-9622-081b6c433d0d" d="m1480.38,496.33c-19.01-12.87-28.51-31.98-28.51-57.32s9.5-44.65,28.51-57.32c19.2-12.87,46.53-19.31,81.97-19.31s62.77,6.43,81.97,19.31c19.01,12.67,28.51,31.78,28.51,57.32s-9.5,44.45-28.51,57.32c-19.21,12.87-46.53,19.31-81.97,19.31s-62.77-6.44-81.97-19.31Zm169.89-57.32c0-33.66-29.31-50.49-87.92-50.49s-87.92,16.83-87.92,50.49,29.3,50.49,87.92,50.49,87.92-16.83,87.92-50.49Z"/>
      <path class="uuid-e8967ed8-03ea-4d5a-9622-081b6c433d0d" d="m1480.38,676.31c-19.01-12.87-28.51-31.98-28.51-57.32s9.5-44.65,28.51-57.32c19.2-12.87,46.53-19.31,81.97-19.31s62.77,6.43,81.97,19.31c19.01,12.67,28.51,31.78,28.51,57.32s-9.5,44.45-28.51,57.32c-19.21,12.87-46.53,19.31-81.97,19.31s-62.77-6.44-81.97-19.31Zm169.89-57.32c0-33.66-29.31-50.49-87.92-50.49s-87.92,16.83-87.92,50.49,29.3,50.49,87.92,50.49,87.92-16.83,87.92-50.49Z"/>
    </g>
  </g>
</svg>