<?xml version="1.0" encoding="UTF-8"?>
<svg id="uuid-a4049ffd-9c27-4ccf-8a12-f8365ebc6981" data-name="Layer 1" xmlns="http://www.w3.org/2000/svg" xmlns:xlink="http://www.w3.org/1999/xlink" viewBox="0 0 1920 1550">
  <defs>
    <style>
      .uuid-fd9fb02e-91e6-44f1-b7c1-debac20894cb {
        stroke: #707070;
        stroke-width: .95px;
      }

      .uuid-fd9fb02e-91e6-44f1-b7c1-debac20894cb, .uuid-2eac50e6-d556-440a-8a53-ef0f49307084 {
        fill: none;
      }

      .uuid-b9e78e90-5e06-45d1-99cc-dd8d962530f5 {
        isolation: isolate;
      }

      .uuid-b122b772-53c0-4433-96bf-097d1141fd2b {
        clip-path: url(#uuid-d4d3dc54-cf70-465f-8377-b9212c09518e);
      }

      .uuid-91650e15-ce54-4324-ab81-01d062f67064 {
        fill: #009bc1;
      }

      .uuid-91650e15-ce54-4324-ab81-01d062f67064, .uuid-2eac50e6-d556-440a-8a53-ef0f49307084, .uuid-1ee5d890-cfd9-4d78-924c-f6a24007ecbe, .uuid-11f5ca9b-c2d7-4a49-a990-581b765811e3, .uuid-ababfeac-8b87-4553-b9d9-cacb98c28b32 {
        stroke-width: 0px;
      }

      .uuid-1ee5d890-cfd9-4d78-924c-f6a24007ecbe {
        fill: #fff;
      }

      .uuid-11f5ca9b-c2d7-4a49-a990-581b765811e3 {
        fill: #1685f4;
      }

      .uuid-ababfeac-8b87-4553-b9d9-cacb98c28b32 {
        fill: #f4f4f4;
      }
    </style>
    <clipPath id="uuid-d4d3dc54-cf70-465f-8377-b9212c09518e">
      <rect class="uuid-2eac50e6-d556-440a-8a53-ef0f49307084" x="198.53" y="762.17" width="1522.93" height="601.76"/>
    </clipPath>
  </defs>
  <g id="uuid-e58ab2f2-d7b9-4ae7-bcd0-0155c185e62b" data-name="Elevate your ritual. Embrace the elite touch of StrikeFit where your hands stay arid and your strength soars beyond bounds. Join the revolution. " class="uuid-b9e78e90-5e06-45d1-99cc-dd8d962530f5">
    <g class="uuid-b9e78e90-5e06-45d1-99cc-dd8d962530f5">
      <path class="uuid-11f5ca9b-c2d7-4a49-a990-581b765811e3" d="m238.26,177.22v5.39h-29.16v16.1h26.32v5.39h-26.32v18.23h28.87v5.39h-34.83v-50.51h35.12Z"/>
      <path class="uuid-11f5ca9b-c2d7-4a49-a990-581b765811e3" d="m247.83,227.73h-5.68v-50.51h5.68v50.51Z"/>
      <path class="uuid-11f5ca9b-c2d7-4a49-a990-581b765811e3" d="m286.14,209.42v1.99h-27.81c.28,3.97,1.39,6.96,3.33,8.97,1.94,2.01,4.59,3.02,7.95,3.02,5.06,0,8.3-2.27,9.72-6.81h5.89c-.99,3.69-2.84,6.61-5.53,8.76-2.7,2.15-6.1,3.23-10.22,3.23-5.06,0-9.15-1.73-12.27-5.18-3.17-3.45-4.75-8.11-4.75-13.98s1.56-10.4,4.68-13.9c3.07-3.5,7.14-5.25,12.2-5.25s9.36,1.82,12.34,5.46c2.98,3.64,4.47,8.21,4.47,13.69Zm-16.81-13.98c-2.98,0-5.42.93-7.31,2.8-1.89,1.87-3.08,4.55-3.55,8.05h21.57c-.28-3.22-1.37-5.83-3.26-7.84-1.89-2.01-4.38-3.02-7.45-3.02Z"/>
      <path class="uuid-11f5ca9b-c2d7-4a49-a990-581b765811e3" d="m307.64,207.37l6.03-16.25h6.1l-14.4,36.61h-5.96l-14.33-36.61h6.17l6.03,16.32c2.98,7.99,4.71,12.72,5.18,14.19.85-2.51,2.58-7.26,5.18-14.26Z"/>
      <path class="uuid-11f5ca9b-c2d7-4a49-a990-581b765811e3" d="m350.42,223.12h2.06v4.61c-.95.14-1.99.21-3.12.21-3.83,0-5.89-1.75-6.17-5.25-2.55,3.93-6.53,5.89-11.92,5.89-4.02,0-7.18-.93-9.47-2.8-2.29-1.87-3.44-4.5-3.44-7.91,0-6.62,4.52-10.4,13.55-11.35l5.25-.57c3.83-.43,5.75-2.1,5.75-5.04,0-2.03-.63-3.5-1.88-4.4-1.25-.9-3.37-1.35-6.35-1.35-3.17,0-5.45.53-6.85,1.6-1.4,1.06-2.19,2.94-2.38,5.64h-5.68c.47-8.09,5.44-12.13,14.9-12.13s13.76,3.55,13.76,10.64v20.43c0,1.18.66,1.77,1.99,1.77Zm-18.87.64c3.03,0,5.68-.92,7.95-2.77,2.27-1.8,3.41-4.37,3.41-7.73v-4.33c-1.04.81-2.65,1.32-4.82,1.56l-5.32.64c-3.07.38-5.26,1.09-6.56,2.13-1.3,1.04-1.95,2.53-1.95,4.47s.61,3.37,1.84,4.43c1.23,1.06,3.05,1.6,5.46,1.6Z"/>
      <path class="uuid-11f5ca9b-c2d7-4a49-a990-581b765811e3" d="m369.93,191.12v4.97h-7.52v23.77c0,2.08,1.39,3.12,4.19,3.12h3.33v4.75c-1.56.14-2.91.21-4.04.21-6.1,0-9.15-2.53-9.15-7.59v-24.26h-6.03v-4.97h6.03v-10.36h5.68v10.36h7.52Z"/>
      <path class="uuid-11f5ca9b-c2d7-4a49-a990-581b765811e3" d="m405.04,209.42v1.99h-27.81c.28,3.97,1.39,6.96,3.33,8.97,1.94,2.01,4.59,3.02,7.95,3.02,5.06,0,8.3-2.27,9.72-6.81h5.89c-.99,3.69-2.84,6.61-5.53,8.76-2.7,2.15-6.1,3.23-10.22,3.23-5.06,0-9.15-1.73-12.27-5.18-3.17-3.45-4.75-8.11-4.75-13.98s1.56-10.4,4.68-13.9c3.07-3.5,7.14-5.25,12.2-5.25s9.36,1.82,12.34,5.46c2.98,3.64,4.47,8.21,4.47,13.69Zm-16.81-13.98c-2.98,0-5.42.93-7.31,2.8-1.89,1.87-3.08,4.55-3.55,8.05h21.57c-.28-3.22-1.37-5.83-3.26-7.84-1.89-2.01-4.38-3.02-7.45-3.02Z"/>
      <path class="uuid-11f5ca9b-c2d7-4a49-a990-581b765811e3" d="m439.03,206.3l5.18-15.18h6.17l-15.47,42.35c-1.09,3.07-2.58,5.24-4.47,6.49-1.89,1.25-4.38,1.88-7.45,1.88-1.04,0-2.18-.07-3.41-.21v-4.75h3.33c3.26,0,5.49-1.51,6.67-4.54l1.28-3.41-13.76-37.81h6.24l5.18,15.25c1.84,5.39,3.59,10.67,5.25,15.82,1.37-4.4,3.12-9.69,5.25-15.89Z"/>
      <path class="uuid-11f5ca9b-c2d7-4a49-a990-581b765811e3" d="m479.46,223.33c-3.36,3.5-7.62,5.25-12.77,5.25s-9.41-1.75-12.77-5.25c-3.31-3.45-4.97-8.09-4.97-13.91s1.66-10.45,4.97-13.9c3.36-3.5,7.61-5.25,12.77-5.25s9.41,1.75,12.77,5.25c3.31,3.45,4.97,8.09,4.97,13.9s-1.66,10.45-4.97,13.91Zm-21.35-3.62c2.13,2.51,4.99,3.76,8.58,3.76s6.46-1.25,8.58-3.76c2.13-2.46,3.19-5.89,3.19-10.29s-1.06-7.9-3.19-10.36c-2.13-2.46-4.99-3.69-8.58-3.69s-6.46,1.23-8.58,3.69c-2.13,2.46-3.19,5.91-3.19,10.36s1.06,7.83,3.19,10.29Z"/>
      <path class="uuid-11f5ca9b-c2d7-4a49-a990-581b765811e3" d="m512.1,211.84v-20.72h5.68v36.61h-5.39v-5.46c-2.79,4.21-6.62,6.31-11.49,6.31-4.07,0-7.24-1.11-9.51-3.33-2.27-2.22-3.41-5.34-3.41-9.36v-24.76h5.68v24.19c0,5.44,2.79,8.16,8.37,8.16,2.65,0,4.99-.99,7.02-2.98,2.03-1.99,3.05-4.87,3.05-8.66Z"/>
      <path class="uuid-11f5ca9b-c2d7-4a49-a990-581b765811e3" d="m541.33,190.55c.95,0,1.58.02,1.92.07v5.46h-1.42c-3.78,0-6.73.93-8.83,2.8-2.11,1.87-3.16,4.53-3.16,7.98v20.86h-5.68v-36.61h5.39v6.46c2.46-4.68,6.38-7.02,11.78-7.02Z"/>
      <path class="uuid-11f5ca9b-c2d7-4a49-a990-581b765811e3" d="m575.66,190.55c.95,0,1.58.02,1.92.07v5.46h-1.42c-3.78,0-6.73.93-8.83,2.8-2.11,1.87-3.16,4.53-3.16,7.98v20.86h-5.68v-36.61h5.39v6.46c2.46-4.68,6.38-7.02,11.78-7.02Z"/>
      <path class="uuid-11f5ca9b-c2d7-4a49-a990-581b765811e3" d="m586.59,185.59h-6.03v-6.95h6.03v6.95Zm-.14,42.14h-5.68v-36.61h5.68v36.61Z"/>
      <path class="uuid-11f5ca9b-c2d7-4a49-a990-581b765811e3" d="m608.86,191.12v4.97h-7.52v23.77c0,2.08,1.39,3.12,4.19,3.12h3.33v4.75c-1.56.14-2.91.21-4.04.21-6.1,0-9.15-2.53-9.15-7.59v-24.26h-6.03v-4.97h6.03v-10.36h5.68v10.36h7.52Z"/>
      <path class="uuid-11f5ca9b-c2d7-4a49-a990-581b765811e3" d="m636.88,211.84v-20.72h5.68v36.61h-5.39v-5.46c-2.79,4.21-6.62,6.31-11.49,6.31-4.07,0-7.24-1.11-9.51-3.33-2.27-2.22-3.41-5.34-3.41-9.36v-24.76h5.68v24.19c0,5.44,2.79,8.16,8.37,8.16,2.65,0,4.99-.99,7.02-2.98,2.03-1.99,3.05-4.87,3.05-8.66Z"/>
      <path class="uuid-11f5ca9b-c2d7-4a49-a990-581b765811e3" d="m678.88,223.12h2.06v4.61c-.95.14-1.99.21-3.12.21-3.83,0-5.89-1.75-6.17-5.25-2.55,3.93-6.53,5.89-11.92,5.89-4.02,0-7.18-.93-9.47-2.8-2.29-1.87-3.44-4.5-3.44-7.91,0-6.62,4.52-10.4,13.55-11.35l5.25-.57c3.83-.43,5.75-2.1,5.75-5.04,0-2.03-.63-3.5-1.88-4.4-1.25-.9-3.37-1.35-6.35-1.35-3.17,0-5.45.53-6.85,1.6-1.4,1.06-2.19,2.94-2.38,5.64h-5.68c.47-8.09,5.44-12.13,14.9-12.13s13.76,3.55,13.76,10.64v20.43c0,1.18.66,1.77,1.99,1.77Zm-18.87.64c3.03,0,5.68-.92,7.95-2.77,2.27-1.8,3.41-4.37,3.41-7.73v-4.33c-1.04.81-2.65,1.32-4.82,1.56l-5.32.64c-3.07.38-5.26,1.09-6.56,2.13-1.3,1.04-1.95,2.53-1.95,4.47s.61,3.37,1.84,4.43c1.23,1.06,3.05,1.6,5.46,1.6Z"/>
      <path class="uuid-11f5ca9b-c2d7-4a49-a990-581b765811e3" d="m689.1,227.73h-5.68v-50.51h5.68v50.51Z"/>
      <path class="uuid-11f5ca9b-c2d7-4a49-a990-581b765811e3" d="m701.58,227.73h-7.17v-7.09h7.17v7.09Z"/>
      <path class="uuid-11f5ca9b-c2d7-4a49-a990-581b765811e3" d="m753.73,177.22v5.39h-29.16v16.1h26.32v5.39h-26.32v18.23h28.87v5.39h-34.83v-50.51h35.12Z"/>
      <path class="uuid-11f5ca9b-c2d7-4a49-a990-581b765811e3" d="m796.15,190.27c3.97,0,7.06,1.15,9.26,3.44,2.2,2.29,3.3,5.36,3.3,9.19v24.83h-5.68v-24.26c0-5.39-2.55-8.09-7.66-8.09-2.7,0-4.93,1.08-6.7,3.23-1.77,2.15-2.66,5.19-2.66,9.12v20.01h-5.68v-24.26c0-5.39-2.55-8.09-7.66-8.09-2.65,0-4.87,1.08-6.67,3.23-1.8,2.15-2.7,5.19-2.7,9.12v20.01h-5.68v-36.61h5.39v5.39c2.41-4.16,5.93-6.24,10.57-6.24,5.49,0,9.25,2.29,11.28,6.88,2.55-4.59,6.31-6.88,11.28-6.88Z"/>
      <path class="uuid-11f5ca9b-c2d7-4a49-a990-581b765811e3" d="m833.04,190.27c5.15,0,9.29,1.73,12.42,5.18,3.07,3.5,4.61,8.16,4.61,13.98s-1.54,10.41-4.61,13.91c-3.12,3.5-7.26,5.25-12.42,5.25-5.44,0-9.63-2.18-12.56-6.53v5.68h-5.39v-50.51h5.68v19.15c2.93-4.07,7.02-6.1,12.27-6.1Zm-.71,33.2c3.55,0,6.4-1.29,8.55-3.87,2.15-2.58,3.23-6.07,3.23-10.46s-1.05-7.67-3.16-10.11c-2.1-2.44-4.98-3.65-8.62-3.65s-6.46,1.23-8.58,3.69c-2.13,2.46-3.19,5.91-3.19,10.36s1.06,7.83,3.19,10.29c2.13,2.51,4.99,3.76,8.58,3.76Z"/>
      <path class="uuid-11f5ca9b-c2d7-4a49-a990-581b765811e3" d="m871.85,190.55c.95,0,1.58.02,1.92.07v5.46h-1.42c-3.78,0-6.73.93-8.83,2.8-2.11,1.87-3.16,4.53-3.16,7.98v20.86h-5.68v-36.61h5.39v6.46c2.46-4.68,6.38-7.02,11.78-7.02Z"/>
      <path class="uuid-11f5ca9b-c2d7-4a49-a990-581b765811e3" d="m904.41,223.12h2.06v4.61c-.95.14-1.99.21-3.12.21-3.83,0-5.89-1.75-6.17-5.25-2.55,3.93-6.53,5.89-11.92,5.89-4.02,0-7.18-.93-9.47-2.8-2.29-1.87-3.44-4.5-3.44-7.91,0-6.62,4.52-10.4,13.55-11.35l5.25-.57c3.83-.43,5.75-2.1,5.75-5.04,0-2.03-.63-3.5-1.88-4.4-1.25-.9-3.37-1.35-6.35-1.35-3.17,0-5.45.53-6.85,1.6-1.4,1.06-2.19,2.94-2.38,5.64h-5.68c.47-8.09,5.44-12.13,14.9-12.13s13.76,3.55,13.76,10.64v20.43c0,1.18.66,1.77,1.99,1.77Zm-18.87.64c3.03,0,5.68-.92,7.95-2.77,2.27-1.8,3.41-4.37,3.41-7.73v-4.33c-1.04.81-2.65,1.32-4.82,1.56l-5.32.64c-3.07.38-5.26,1.09-6.56,2.13-1.3,1.04-1.95,2.53-1.95,4.47s.61,3.37,1.84,4.43c1.23,1.06,3.05,1.6,5.46,1.6Z"/>
      <path class="uuid-11f5ca9b-c2d7-4a49-a990-581b765811e3" d="m924.13,228.58c-5.06,0-9.15-1.75-12.27-5.25-3.12-3.5-4.68-8.13-4.68-13.91s1.56-10.52,4.68-13.98c3.03-3.45,7.12-5.18,12.27-5.18,4.35,0,7.92,1.18,10.71,3.55,2.79,2.37,4.47,5.6,5.04,9.72h-5.89c-.43-2.6-1.55-4.61-3.37-6.03-1.82-1.42-3.98-2.13-6.49-2.13-3.36,0-6.03,1.22-8.02,3.65-1.99,2.44-2.98,5.9-2.98,10.39s1,7.9,3.02,10.36c2.01,2.46,4.67,3.69,7.98,3.69,2.51,0,4.68-.73,6.53-2.2,1.84-1.47,2.98-3.5,3.41-6.1h5.82c-.62,4.11-2.35,7.38-5.21,9.79-2.86,2.41-6.37,3.62-10.54,3.62Z"/>
      <path class="uuid-11f5ca9b-c2d7-4a49-a990-581b765811e3" d="m975.71,209.42v1.99h-27.81c.28,3.97,1.39,6.96,3.33,8.97,1.94,2.01,4.59,3.02,7.95,3.02,5.06,0,8.3-2.27,9.72-6.81h5.89c-.99,3.69-2.84,6.61-5.53,8.76-2.7,2.15-6.1,3.23-10.22,3.23-5.06,0-9.15-1.73-12.27-5.18-3.17-3.45-4.75-8.11-4.75-13.98s1.56-10.4,4.68-13.9c3.07-3.5,7.14-5.25,12.2-5.25s9.36,1.82,12.34,5.46c2.98,3.64,4.47,8.21,4.47,13.69Zm-16.81-13.98c-2.98,0-5.42.93-7.31,2.8-1.89,1.87-3.08,4.55-3.55,8.05h21.57c-.28-3.22-1.37-5.83-3.26-7.84-1.89-2.01-4.38-3.02-7.45-3.02Z"/>
      <path class="uuid-11f5ca9b-c2d7-4a49-a990-581b765811e3" d="m1007.7,191.12v4.97h-7.52v23.77c0,2.08,1.39,3.12,4.19,3.12h3.33v4.75c-1.56.14-2.91.21-4.04.21-6.1,0-9.15-2.53-9.15-7.59v-24.26h-6.03v-4.97h6.03v-10.36h5.67v10.36h7.52Z"/>
      <path class="uuid-11f5ca9b-c2d7-4a49-a990-581b765811e3" d="m1028.49,190.27c4.07,0,7.24,1.11,9.51,3.33,2.27,2.22,3.41,5.35,3.41,9.36v24.76h-5.67v-24.19c0-5.44-2.79-8.16-8.37-8.16-2.65,0-4.99.99-7.02,2.98-2.03,1.99-3.05,4.87-3.05,8.66v20.72h-5.67v-50.51h5.67v18.94c2.79-3.93,6.53-5.89,11.21-5.89Z"/>
      <path class="uuid-11f5ca9b-c2d7-4a49-a990-581b765811e3" d="m1079.71,209.42v1.99h-27.81c.28,3.97,1.39,6.96,3.33,8.97,1.94,2.01,4.59,3.02,7.95,3.02,5.06,0,8.3-2.27,9.72-6.81h5.89c-.99,3.69-2.84,6.61-5.53,8.76-2.7,2.15-6.1,3.23-10.22,3.23-5.06,0-9.15-1.73-12.27-5.18-3.17-3.45-4.75-8.11-4.75-13.98s1.56-10.4,4.68-13.9c3.07-3.5,7.14-5.25,12.2-5.25s9.37,1.82,12.34,5.46c2.98,3.64,4.47,8.21,4.47,13.69Zm-16.81-13.98c-2.98,0-5.42.93-7.31,2.8-1.89,1.87-3.08,4.55-3.55,8.05h21.57c-.28-3.22-1.37-5.83-3.26-7.84-1.89-2.01-4.38-3.02-7.45-3.02Z"/>
      <path class="uuid-11f5ca9b-c2d7-4a49-a990-581b765811e3" d="m1127.59,209.42v1.99h-27.81c.28,3.97,1.39,6.96,3.33,8.97,1.94,2.01,4.59,3.02,7.95,3.02,5.06,0,8.3-2.27,9.72-6.81h5.89c-.99,3.69-2.84,6.61-5.53,8.76-2.7,2.15-6.1,3.23-10.22,3.23-5.06,0-9.15-1.73-12.27-5.18-3.17-3.45-4.75-8.11-4.75-13.98s1.56-10.4,4.68-13.9c3.07-3.5,7.14-5.25,12.2-5.25s9.37,1.82,12.34,5.46c2.98,3.64,4.47,8.21,4.47,13.69Zm-16.81-13.98c-2.98,0-5.42.93-7.31,2.8-1.89,1.87-3.08,4.55-3.55,8.05h21.57c-.28-3.22-1.37-5.83-3.26-7.84-1.89-2.01-4.38-3.02-7.45-3.02Z"/>
      <path class="uuid-11f5ca9b-c2d7-4a49-a990-581b765811e3" d="m1137.88,227.73h-5.67v-50.51h5.67v50.51Z"/>
      <path class="uuid-11f5ca9b-c2d7-4a49-a990-581b765811e3" d="m1150.08,185.59h-6.03v-6.95h6.03v6.95Zm-.14,42.14h-5.67v-36.61h5.67v36.61Z"/>
      <path class="uuid-11f5ca9b-c2d7-4a49-a990-581b765811e3" d="m1172.36,191.12v4.97h-7.52v23.77c0,2.08,1.39,3.12,4.19,3.12h3.33v4.75c-1.56.14-2.91.21-4.04.21-6.1,0-9.15-2.53-9.15-7.59v-24.26h-6.03v-4.97h6.03v-10.36h5.67v10.36h7.52Z"/>
      <path class="uuid-11f5ca9b-c2d7-4a49-a990-581b765811e3" d="m1207.48,209.42v1.99h-27.81c.28,3.97,1.39,6.96,3.33,8.97,1.94,2.01,4.59,3.02,7.95,3.02,5.06,0,8.3-2.27,9.72-6.81h5.89c-.99,3.69-2.84,6.61-5.53,8.76-2.7,2.15-6.1,3.23-10.22,3.23-5.06,0-9.15-1.73-12.27-5.18-3.17-3.45-4.75-8.11-4.75-13.98s1.56-10.4,4.68-13.9c3.07-3.5,7.14-5.25,12.2-5.25s9.37,1.82,12.34,5.46c2.98,3.64,4.47,8.21,4.47,13.69Zm-16.81-13.98c-2.98,0-5.42.93-7.31,2.8-1.89,1.87-3.08,4.55-3.55,8.05h21.57c-.28-3.22-1.37-5.83-3.26-7.84-1.89-2.01-4.38-3.02-7.45-3.02Z"/>
      <path class="uuid-11f5ca9b-c2d7-4a49-a990-581b765811e3" d="m1239.47,191.12v4.97h-7.52v23.77c0,2.08,1.39,3.12,4.19,3.12h3.33v4.75c-1.56.14-2.91.21-4.04.21-6.1,0-9.15-2.53-9.15-7.59v-24.26h-6.03v-4.97h6.03v-10.36h5.67v10.36h7.52Z"/>
      <path class="uuid-11f5ca9b-c2d7-4a49-a990-581b765811e3" d="m1271.4,223.33c-3.36,3.5-7.62,5.25-12.77,5.25s-9.41-1.75-12.77-5.25c-3.31-3.45-4.97-8.09-4.97-13.91s1.65-10.45,4.97-13.9c3.36-3.5,7.61-5.25,12.77-5.25s9.41,1.75,12.77,5.25c3.31,3.45,4.97,8.09,4.97,13.9s-1.66,10.45-4.97,13.91Zm-21.35-3.62c2.13,2.51,4.99,3.76,8.58,3.76s6.46-1.25,8.58-3.76c2.13-2.46,3.19-5.89,3.19-10.29s-1.06-7.9-3.19-10.36c-2.13-2.46-4.99-3.69-8.58-3.69s-6.46,1.23-8.58,3.69c-2.13,2.46-3.19,5.91-3.19,10.36s1.06,7.83,3.19,10.29Z"/>
      <path class="uuid-11f5ca9b-c2d7-4a49-a990-581b765811e3" d="m1304.03,211.84v-20.72h5.67v36.61h-5.39v-5.46c-2.79,4.21-6.62,6.31-11.49,6.31-4.07,0-7.24-1.11-9.51-3.33-2.27-2.22-3.41-5.34-3.41-9.36v-24.76h5.67v24.19c0,5.44,2.79,8.16,8.37,8.16,2.65,0,4.99-.99,7.02-2.98,2.03-1.99,3.05-4.87,3.05-8.66Z"/>
      <path class="uuid-11f5ca9b-c2d7-4a49-a990-581b765811e3" d="m1331.27,228.58c-5.06,0-9.15-1.75-12.27-5.25-3.12-3.5-4.68-8.13-4.68-13.91s1.56-10.52,4.68-13.98c3.03-3.45,7.12-5.18,12.27-5.18,4.35,0,7.92,1.18,10.71,3.55,2.79,2.37,4.47,5.6,5.04,9.72h-5.89c-.43-2.6-1.55-4.61-3.37-6.03-1.82-1.42-3.98-2.13-6.49-2.13-3.36,0-6.03,1.22-8.02,3.65-1.99,2.44-2.98,5.9-2.98,10.39s1,7.9,3.01,10.36c2.01,2.46,4.67,3.69,7.98,3.69,2.51,0,4.68-.73,6.53-2.2,1.84-1.47,2.98-3.5,3.41-6.1h5.82c-.62,4.11-2.35,7.38-5.21,9.79-2.86,2.41-6.37,3.62-10.54,3.62Z"/>
      <path class="uuid-11f5ca9b-c2d7-4a49-a990-581b765811e3" d="m1367.81,190.27c4.07,0,7.24,1.11,9.51,3.33,2.27,2.22,3.41,5.35,3.41,9.36v24.76h-5.67v-24.19c0-5.44-2.79-8.16-8.37-8.16-2.65,0-4.99.99-7.02,2.98-2.03,1.99-3.05,4.87-3.05,8.66v20.72h-5.67v-50.51h5.67v18.94c2.79-3.93,6.53-5.89,11.21-5.89Z"/>
      <path class="uuid-11f5ca9b-c2d7-4a49-a990-581b765811e3" d="m1427.19,223.33c-3.36,3.5-7.62,5.25-12.77,5.25s-9.41-1.75-12.77-5.25c-3.31-3.45-4.97-8.09-4.97-13.91s1.65-10.45,4.97-13.9c3.36-3.5,7.61-5.25,12.77-5.25s9.41,1.75,12.77,5.25c3.31,3.45,4.97,8.09,4.97,13.9s-1.66,10.45-4.97,13.91Zm-21.35-3.62c2.13,2.51,4.99,3.76,8.58,3.76s6.46-1.25,8.58-3.76c2.13-2.46,3.19-5.89,3.19-10.29s-1.06-7.9-3.19-10.36c-2.13-2.46-4.99-3.69-8.58-3.69s-6.46,1.23-8.58,3.69c-2.13,2.46-3.19,5.91-3.19,10.36s1.06,7.83,3.19,10.29Z"/>
      <path class="uuid-11f5ca9b-c2d7-4a49-a990-581b765811e3" d="m1452.02,182.04h-3.26c-3.26,0-4.9,1.73-4.9,5.18v3.9h7.8v4.97h-7.8v31.64h-5.67v-31.64h-6.03v-4.97h6.03v-3.76c0-6.86,3.41-10.29,10.22-10.29.9,0,2.1.05,3.62.14v4.82Z"/>
      <path class="uuid-11f5ca9b-c2d7-4a49-a990-581b765811e3" d="m1486.14,228.86c-6.58,0-11.71-1.49-15.4-4.47-3.69-2.98-5.56-7.42-5.6-13.34h6.17c.14,8.28,5.08,12.42,14.83,12.42,4.11,0,7.27-.8,9.47-2.41,2.2-1.61,3.3-3.95,3.3-7.02,0-2.41-.91-4.29-2.73-5.64-1.82-1.35-5-2.52-9.54-3.51l-4.47-.99c-5.11-1.18-8.94-2.9-11.49-5.14-2.55-2.25-3.83-5.4-3.83-9.47s1.56-7.22,4.68-9.61c3.12-2.39,7.31-3.58,12.56-3.58,3.55,0,6.63.43,9.26,1.28,2.62.85,4.67,2.05,6.14,3.58,1.47,1.54,2.54,3.21,3.23,5,.68,1.8,1.05,3.78,1.1,5.96h-6.1c-.28-3.59-1.45-6.23-3.51-7.91-2.06-1.68-5.43-2.52-10.11-2.52-3.55,0-6.28.69-8.19,2.06-1.92,1.37-2.87,3.29-2.87,5.75s.83,4.38,2.48,5.75c1.61,1.37,4.73,2.58,9.36,3.62l4.47.99c5.58,1.23,9.6,2.99,12.06,5.29,2.46,2.29,3.69,5.33,3.69,9.12,0,4.59-1.68,8.21-5.04,10.85-3.36,2.65-7.99,3.97-13.9,3.97Z"/>
      <path class="uuid-11f5ca9b-c2d7-4a49-a990-581b765811e3" d="m1524.31,191.12v4.97h-7.52v23.77c0,2.08,1.39,3.12,4.19,3.12h3.33v4.75c-1.56.14-2.91.21-4.04.21-6.1,0-9.15-2.53-9.15-7.59v-24.26h-6.03v-4.97h6.03v-10.36h5.67v10.36h7.52Z"/>
      <path class="uuid-11f5ca9b-c2d7-4a49-a990-581b765811e3" d="m1545.38,190.55c.95,0,1.58.02,1.92.07v5.46h-1.42c-3.79,0-6.73.93-8.83,2.8-2.1,1.87-3.16,4.53-3.16,7.98v20.86h-5.67v-36.61h5.39v6.46c2.46-4.68,6.38-7.02,11.78-7.02Z"/>
      <path class="uuid-11f5ca9b-c2d7-4a49-a990-581b765811e3" d="m1556.3,185.59h-6.03v-6.95h6.03v6.95Zm-.14,42.14h-5.67v-36.61h5.67v36.61Z"/>
      <path class="uuid-11f5ca9b-c2d7-4a49-a990-581b765811e3" d="m1593.69,227.73h-6.6l-12.34-19.65-6.53,6.1v13.55h-5.67v-50.51h5.67v30.29l16.96-16.39h7.52l-13.9,13.2,14.9,23.41Z"/>
      <path class="uuid-11f5ca9b-c2d7-4a49-a990-581b765811e3" d="m1625.61,209.42v1.99h-27.81c.28,3.97,1.39,6.96,3.33,8.97,1.94,2.01,4.59,3.02,7.95,3.02,5.06,0,8.3-2.27,9.72-6.81h5.89c-.99,3.69-2.84,6.61-5.53,8.76-2.7,2.15-6.1,3.23-10.22,3.23-5.06,0-9.15-1.73-12.27-5.18-3.17-3.45-4.75-8.11-4.75-13.98s1.56-10.4,4.68-13.9c3.07-3.5,7.14-5.25,12.2-5.25s9.37,1.82,12.34,5.46c2.98,3.64,4.47,8.21,4.47,13.69Zm-16.81-13.98c-2.98,0-5.42.93-7.31,2.8-1.89,1.87-3.08,4.55-3.55,8.05h21.57c-.28-3.22-1.37-5.83-3.26-7.84-1.89-2.01-4.38-3.02-7.45-3.02Z"/>
      <path class="uuid-11f5ca9b-c2d7-4a49-a990-581b765811e3" d="m1663.64,177.22v5.39h-27.46v16.1h24.62v5.39h-24.62v23.62h-5.96v-50.51h33.41Z"/>
      <path class="uuid-11f5ca9b-c2d7-4a49-a990-581b765811e3" d="m1671.59,185.59h-6.03v-6.95h6.03v6.95Zm-.14,42.14h-5.67v-36.61h5.67v36.61Z"/>
      <path class="uuid-11f5ca9b-c2d7-4a49-a990-581b765811e3" d="m1693.86,191.12v4.97h-7.52v23.77c0,2.08,1.39,3.12,4.19,3.12h3.33v4.75c-1.56.14-2.91.21-4.04.21-6.1,0-9.15-2.53-9.15-7.59v-24.26h-6.03v-4.97h6.03v-10.36h5.67v10.36h7.52Z"/>
    </g>
    <g class="uuid-b9e78e90-5e06-45d1-99cc-dd8d962530f5">
      <path class="uuid-ababfeac-8b87-4553-b9d9-cacb98c28b32" d="m242.09,302.24l5.18-16.53h6.1l-12.2,36.61h-5.96l-5.39-16.96c-1.84-6.01-3.07-10.15-3.69-12.42-1.09,3.88-2.34,8.02-3.76,12.42l-5.32,16.96h-5.96l-12.2-36.61h6.1l5.18,16.53c1.28,4.02,2.6,8.47,3.97,13.34,1.51-5.39,2.81-9.84,3.9-13.34l5.11-16.53h5.96l5.11,16.53c2.6,8.66,3.93,13.05,3.97,13.2.38-1.47,1.68-5.86,3.9-13.2Z"/>
      <path class="uuid-ababfeac-8b87-4553-b9d9-cacb98c28b32" d="m272.03,284.86c4.07,0,7.24,1.11,9.51,3.33,2.27,2.22,3.41,5.35,3.41,9.36v24.76h-5.68v-24.19c0-5.44-2.79-8.16-8.37-8.16-2.65,0-4.99.99-7.02,2.98-2.03,1.99-3.05,4.87-3.05,8.66v20.72h-5.68v-50.51h5.68v18.94c2.79-3.93,6.53-5.89,11.21-5.89Z"/>
      <path class="uuid-ababfeac-8b87-4553-b9d9-cacb98c28b32" d="m323.25,304.02v1.99h-27.81c.28,3.97,1.39,6.96,3.33,8.97,1.94,2.01,4.59,3.02,7.95,3.02,5.06,0,8.3-2.27,9.72-6.81h5.89c-.99,3.69-2.84,6.61-5.53,8.76-2.7,2.15-6.1,3.23-10.22,3.23-5.06,0-9.15-1.73-12.27-5.18-3.17-3.45-4.75-8.11-4.75-13.98s1.56-10.4,4.68-13.9c3.07-3.5,7.14-5.25,12.2-5.25s9.36,1.82,12.34,5.46c2.98,3.64,4.47,8.21,4.47,13.69Zm-16.81-13.98c-2.98,0-5.42.93-7.31,2.8-1.89,1.87-3.08,4.55-3.55,8.05h21.57c-.28-3.22-1.37-5.83-3.26-7.84-1.89-2.01-4.38-3.02-7.45-3.02Z"/>
      <path class="uuid-ababfeac-8b87-4553-b9d9-cacb98c28b32" d="m345.03,285.15c.95,0,1.58.02,1.92.07v5.46h-1.42c-3.78,0-6.73.93-8.83,2.8-2.11,1.87-3.16,4.53-3.16,7.98v20.86h-5.68v-36.61h5.39v6.46c2.46-4.68,6.38-7.02,11.78-7.02Z"/>
      <path class="uuid-ababfeac-8b87-4553-b9d9-cacb98c28b32" d="m379.93,304.02v1.99h-27.81c.28,3.97,1.39,6.96,3.33,8.97,1.94,2.01,4.59,3.02,7.95,3.02,5.06,0,8.3-2.27,9.72-6.81h5.89c-.99,3.69-2.84,6.61-5.53,8.76-2.7,2.15-6.1,3.23-10.22,3.23-5.06,0-9.15-1.73-12.27-5.18-3.17-3.45-4.75-8.11-4.75-13.98s1.56-10.4,4.68-13.9c3.07-3.5,7.14-5.25,12.2-5.25s9.36,1.82,12.34,5.46c2.98,3.64,4.47,8.21,4.47,13.69Zm-16.81-13.98c-2.98,0-5.42.93-7.31,2.8-1.89,1.87-3.08,4.55-3.55,8.05h21.57c-.28-3.22-1.37-5.83-3.26-7.84-1.89-2.01-4.38-3.02-7.45-3.02Z"/>
      <path class="uuid-ababfeac-8b87-4553-b9d9-cacb98c28b32" d="m413.91,300.9l5.18-15.18h6.17l-15.47,42.35c-1.09,3.07-2.58,5.24-4.47,6.49-1.89,1.25-4.38,1.88-7.45,1.88-1.04,0-2.18-.07-3.41-.21v-4.75h3.33c3.26,0,5.49-1.51,6.67-4.54l1.28-3.41-13.76-37.81h6.24l5.18,15.25c1.84,5.39,3.59,10.67,5.25,15.82,1.37-4.4,3.12-9.69,5.25-15.89Z"/>
      <path class="uuid-ababfeac-8b87-4553-b9d9-cacb98c28b32" d="m454.35,317.92c-3.36,3.5-7.62,5.25-12.77,5.25s-9.41-1.75-12.77-5.25c-3.31-3.45-4.97-8.09-4.97-13.91s1.66-10.45,4.97-13.9c3.36-3.5,7.61-5.25,12.77-5.25s9.41,1.75,12.77,5.25c3.31,3.45,4.97,8.09,4.97,13.9s-1.66,10.45-4.97,13.91Zm-21.35-3.62c2.13,2.51,4.99,3.76,8.58,3.76s6.46-1.25,8.58-3.76c2.13-2.46,3.19-5.89,3.19-10.29s-1.06-7.9-3.19-10.36c-2.13-2.46-4.99-3.69-8.58-3.69s-6.46,1.23-8.58,3.69c-2.13,2.46-3.19,5.91-3.19,10.36s1.06,7.83,3.19,10.29Z"/>
      <path class="uuid-ababfeac-8b87-4553-b9d9-cacb98c28b32" d="m486.98,306.43v-20.72h5.68v36.61h-5.39v-5.46c-2.79,4.21-6.62,6.31-11.49,6.31-4.07,0-7.24-1.11-9.51-3.33-2.27-2.22-3.41-5.34-3.41-9.36v-24.76h5.68v24.19c0,5.44,2.79,8.16,8.37,8.16,2.65,0,4.99-.99,7.02-2.98,2.03-1.99,3.05-4.87,3.05-8.66Z"/>
      <path class="uuid-ababfeac-8b87-4553-b9d9-cacb98c28b32" d="m516.21,285.15c.95,0,1.58.02,1.92.07v5.46h-1.42c-3.78,0-6.73.93-8.83,2.8-2.11,1.87-3.16,4.53-3.16,7.98v20.86h-5.68v-36.61h5.39v6.46c2.46-4.68,6.38-7.02,11.78-7.02Z"/>
      <path class="uuid-ababfeac-8b87-4553-b9d9-cacb98c28b32" d="m550.26,284.86c4.07,0,7.24,1.11,9.51,3.33,2.27,2.22,3.41,5.35,3.41,9.36v24.76h-5.68v-24.19c0-5.44-2.79-8.16-8.37-8.16-2.65,0-4.99.99-7.02,2.98-2.03,1.99-3.05,4.87-3.05,8.66v20.72h-5.68v-50.51h5.68v18.94c2.79-3.93,6.53-5.89,11.21-5.89Z"/>
      <path class="uuid-ababfeac-8b87-4553-b9d9-cacb98c28b32" d="m599.5,317.71h2.06v4.61c-.95.14-1.99.21-3.12.21-3.83,0-5.89-1.75-6.17-5.25-2.55,3.93-6.53,5.89-11.92,5.89-4.02,0-7.18-.93-9.47-2.8-2.29-1.87-3.44-4.5-3.44-7.91,0-6.62,4.52-10.4,13.55-11.35l5.25-.57c3.83-.43,5.75-2.1,5.75-5.04,0-2.03-.63-3.5-1.88-4.4-1.25-.9-3.37-1.35-6.35-1.35-3.17,0-5.45.53-6.85,1.6-1.4,1.06-2.19,2.94-2.38,5.64h-5.68c.47-8.09,5.44-12.13,14.9-12.13s13.76,3.55,13.76,10.64v20.43c0,1.18.66,1.77,1.99,1.77Zm-18.87.64c3.03,0,5.68-.92,7.95-2.77,2.27-1.8,3.41-4.37,3.41-7.73v-4.33c-1.04.81-2.65,1.32-4.82,1.56l-5.32.64c-3.07.38-5.26,1.09-6.56,2.13-1.3,1.04-1.95,2.53-1.95,4.47s.61,3.37,1.84,4.43c1.23,1.06,3.05,1.6,5.46,1.6Z"/>
      <path class="uuid-ababfeac-8b87-4553-b9d9-cacb98c28b32" d="m621.28,284.86c4.07,0,7.24,1.11,9.51,3.33,2.27,2.22,3.41,5.35,3.41,9.36v24.76h-5.68v-24.19c0-5.44-2.79-8.16-8.37-8.16-2.65,0-4.99.99-7.02,2.98-2.03,1.99-3.05,4.87-3.05,8.66v20.72h-5.68v-36.61h5.39v5.46c2.79-4.21,6.62-6.31,11.49-6.31Z"/>
      <path class="uuid-ababfeac-8b87-4553-b9d9-cacb98c28b32" d="m668.1,290.96v-19.15h5.68v50.51h-5.39v-5.68c-2.93,4.35-7.12,6.53-12.56,6.53-5.16,0-9.27-1.75-12.34-5.25-3.12-3.5-4.68-8.13-4.68-13.91s1.56-10.52,4.68-13.98c3.03-3.45,7.14-5.18,12.34-5.18s9.34,2.03,12.27,6.1Zm-20.15,23.48c2.13,2.41,4.99,3.62,8.58,3.62s6.46-1.25,8.58-3.76c2.13-2.46,3.19-5.89,3.19-10.29s-1.06-7.78-3.19-10.29c-2.13-2.51-4.99-3.76-8.58-3.76s-6.4,1.29-8.55,3.87c-2.15,2.58-3.23,6.07-3.23,10.46s1.06,7.73,3.19,10.15Z"/>
      <path class="uuid-ababfeac-8b87-4553-b9d9-cacb98c28b32" d="m693.07,323.17c-9.79,0-14.97-4.16-15.54-12.49h5.75c.33,2.74,1.24,4.69,2.73,5.85,1.49,1.16,3.84,1.74,7.06,1.74,5.86,0,8.8-1.89,8.8-5.68,0-1.66-.6-2.91-1.81-3.76-1.21-.85-3.39-1.58-6.56-2.2l-3.41-.64c-7.62-1.42-11.42-5.01-11.42-10.78,0-3.17,1.19-5.69,3.58-7.56,2.39-1.87,5.64-2.8,9.75-2.8,9.7,0,14.66,4.04,14.9,12.13h-5.68c-.14-2.65-.95-4.52-2.41-5.6-1.47-1.09-3.74-1.63-6.81-1.63-2.46,0-4.35.47-5.68,1.42-1.32.95-1.99,2.27-1.99,3.97,0,1.61.57,2.81,1.7,3.62,1.14.8,3.03,1.49,5.68,2.06l3.26.64c4.49.9,7.72,2.18,9.68,3.83,1.96,1.66,2.94,3.97,2.94,6.95,0,3.45-1.29,6.14-3.87,8.05-2.58,1.92-6.14,2.87-10.68,2.87Z"/>
      <path class="uuid-ababfeac-8b87-4553-b9d9-cacb98c28b32" d="m735.42,323.17c-9.79,0-14.97-4.16-15.54-12.49h5.75c.33,2.74,1.24,4.69,2.73,5.85,1.49,1.16,3.84,1.74,7.06,1.74,5.86,0,8.8-1.89,8.8-5.68,0-1.66-.6-2.91-1.81-3.76-1.21-.85-3.39-1.58-6.56-2.2l-3.41-.64c-7.62-1.42-11.42-5.01-11.42-10.78,0-3.17,1.19-5.69,3.58-7.56,2.39-1.87,5.64-2.8,9.75-2.8,9.7,0,14.66,4.04,14.9,12.13h-5.68c-.14-2.65-.95-4.52-2.41-5.6-1.47-1.09-3.74-1.63-6.81-1.63-2.46,0-4.35.47-5.68,1.42-1.32.95-1.99,2.27-1.99,3.97,0,1.61.57,2.81,1.7,3.62,1.14.8,3.03,1.49,5.68,2.06l3.26.64c4.49.9,7.72,2.18,9.68,3.83,1.96,1.66,2.94,3.97,2.94,6.95,0,3.45-1.29,6.14-3.87,8.05-2.58,1.92-6.14,2.87-10.68,2.87Z"/>
      <path class="uuid-ababfeac-8b87-4553-b9d9-cacb98c28b32" d="m768.84,285.71v4.97h-7.52v23.77c0,2.08,1.39,3.12,4.19,3.12h3.33v4.75c-1.56.14-2.91.21-4.04.21-6.1,0-9.15-2.53-9.15-7.59v-24.26h-6.03v-4.97h6.03v-10.36h5.68v10.36h7.52Z"/>
      <path class="uuid-ababfeac-8b87-4553-b9d9-cacb98c28b32" d="m802.32,317.71h2.06v4.61c-.95.14-1.99.21-3.12.21-3.83,0-5.89-1.75-6.17-5.25-2.55,3.93-6.53,5.89-11.92,5.89-4.02,0-7.18-.93-9.47-2.8-2.29-1.87-3.44-4.5-3.44-7.91,0-6.62,4.52-10.4,13.55-11.35l5.25-.57c3.83-.43,5.75-2.1,5.75-5.04,0-2.03-.63-3.5-1.88-4.4-1.25-.9-3.37-1.35-6.35-1.35-3.17,0-5.45.53-6.85,1.6-1.4,1.06-2.19,2.94-2.38,5.64h-5.68c.47-8.09,5.44-12.13,14.9-12.13s13.76,3.55,13.76,10.64v20.43c0,1.18.66,1.77,1.99,1.77Zm-18.87.64c3.03,0,5.68-.92,7.95-2.77,2.27-1.8,3.41-4.37,3.41-7.73v-4.33c-1.04.81-2.65,1.32-4.82,1.56l-5.32.64c-3.07.38-5.26,1.09-6.56,2.13-1.3,1.04-1.95,2.53-1.95,4.47s.61,3.37,1.84,4.43c1.23,1.06,3.05,1.6,5.46,1.6Z"/>
      <path class="uuid-ababfeac-8b87-4553-b9d9-cacb98c28b32" d="m823.46,300.9l5.18-15.18h6.17l-15.47,42.35c-1.09,3.07-2.58,5.24-4.47,6.49-1.89,1.25-4.38,1.88-7.45,1.88-1.04,0-2.18-.07-3.41-.21v-4.75h3.33c3.26,0,5.49-1.51,6.67-4.54l1.28-3.41-13.76-37.81h6.24l5.18,15.25c1.84,5.39,3.59,10.67,5.25,15.82,1.37-4.4,3.12-9.69,5.25-15.89Z"/>
      <path class="uuid-ababfeac-8b87-4553-b9d9-cacb98c28b32" d="m878.59,317.71h2.06v4.61c-.95.14-1.99.21-3.12.21-3.83,0-5.89-1.75-6.17-5.25-2.55,3.93-6.53,5.89-11.92,5.89-4.02,0-7.18-.93-9.47-2.8-2.29-1.87-3.44-4.5-3.44-7.91,0-6.62,4.52-10.4,13.55-11.35l5.25-.57c3.83-.43,5.75-2.1,5.75-5.04,0-2.03-.63-3.5-1.88-4.4-1.25-.9-3.37-1.35-6.35-1.35-3.17,0-5.45.53-6.85,1.6-1.4,1.06-2.19,2.94-2.38,5.64h-5.68c.47-8.09,5.44-12.13,14.9-12.13s13.76,3.55,13.76,10.64v20.43c0,1.18.66,1.77,1.99,1.77Zm-18.87.64c3.03,0,5.68-.92,7.95-2.77,2.27-1.8,3.41-4.37,3.41-7.73v-4.33c-1.04.81-2.65,1.32-4.82,1.56l-5.32.64c-3.07.38-5.26,1.09-6.56,2.13-1.3,1.04-1.95,2.53-1.95,4.47s.61,3.37,1.84,4.43c1.23,1.06,3.05,1.6,5.46,1.6Z"/>
      <path class="uuid-ababfeac-8b87-4553-b9d9-cacb98c28b32" d="m900.65,285.15c.95,0,1.58.02,1.92.07v5.46h-1.42c-3.78,0-6.73.93-8.83,2.8-2.11,1.87-3.16,4.53-3.16,7.98v20.86h-5.68v-36.61h5.39v6.46c2.46-4.68,6.38-7.02,11.78-7.02Z"/>
      <path class="uuid-ababfeac-8b87-4553-b9d9-cacb98c28b32" d="m911.57,280.18h-6.03v-6.95h6.03v6.95Zm-.14,42.14h-5.68v-36.61h5.68v36.61Z"/>
      <path class="uuid-ababfeac-8b87-4553-b9d9-cacb98c28b32" d="m945.34,290.96v-19.15h5.68v50.51h-5.39v-5.68c-2.93,4.35-7.12,6.53-12.56,6.53-5.16,0-9.27-1.75-12.34-5.25-3.12-3.5-4.68-8.13-4.68-13.91s1.56-10.52,4.68-13.98c3.03-3.45,7.14-5.18,12.34-5.18s9.34,2.03,12.27,6.1Zm-20.15,23.48c2.13,2.41,4.99,3.62,8.58,3.62s6.46-1.25,8.58-3.76c2.13-2.46,3.19-5.89,3.19-10.29s-1.06-7.78-3.19-10.29c-2.13-2.51-4.99-3.76-8.58-3.76s-6.4,1.29-8.55,3.87c-2.15,2.58-3.23,6.07-3.23,10.46s1.06,7.73,3.19,10.15Z"/>
      <path class="uuid-ababfeac-8b87-4553-b9d9-cacb98c28b32" d="m956.34,322.32v-7.09h7.17v7.73c0,5.68-2.15,8.73-6.46,9.15l-.71.07v-3.83l.5-.07c1.75-.19,2.62-1.8,2.62-4.82v-1.14h-3.12Z"/>
      <path class="uuid-ababfeac-8b87-4553-b9d9-cacb98c28b32" d="m1010.11,317.71h2.06v4.61c-.95.14-1.99.21-3.12.21-3.83,0-5.89-1.75-6.17-5.25-2.55,3.93-6.53,5.89-11.92,5.89-4.02,0-7.18-.93-9.47-2.8-2.29-1.87-3.44-4.5-3.44-7.91,0-6.62,4.52-10.4,13.55-11.35l5.25-.57c3.83-.43,5.75-2.1,5.75-5.04,0-2.03-.63-3.5-1.88-4.4-1.25-.9-3.37-1.35-6.35-1.35-3.17,0-5.45.53-6.85,1.6-1.4,1.06-2.19,2.94-2.38,5.64h-5.68c.47-8.09,5.44-12.13,14.9-12.13s13.76,3.55,13.76,10.64v20.43c0,1.18.66,1.77,1.99,1.77Zm-18.87.64c3.03,0,5.67-.92,7.95-2.77,2.27-1.8,3.41-4.37,3.41-7.73v-4.33c-1.04.81-2.65,1.32-4.82,1.56l-5.32.64c-3.08.38-5.26,1.09-6.56,2.13-1.3,1.04-1.95,2.53-1.95,4.47s.61,3.37,1.84,4.43c1.23,1.06,3.05,1.6,5.46,1.6Z"/>
      <path class="uuid-ababfeac-8b87-4553-b9d9-cacb98c28b32" d="m1031.89,284.86c4.07,0,7.24,1.11,9.51,3.33,2.27,2.22,3.41,5.35,3.41,9.36v24.76h-5.67v-24.19c0-5.44-2.79-8.16-8.37-8.16-2.65,0-4.99.99-7.02,2.98-2.03,1.99-3.05,4.87-3.05,8.66v20.72h-5.67v-36.61h5.39v5.46c2.79-4.21,6.62-6.31,11.49-6.31Z"/>
      <path class="uuid-ababfeac-8b87-4553-b9d9-cacb98c28b32" d="m1078.71,290.96v-19.15h5.67v50.51h-5.39v-5.68c-2.93,4.35-7.12,6.53-12.56,6.53-5.16,0-9.27-1.75-12.34-5.25-3.12-3.5-4.68-8.13-4.68-13.91s1.56-10.52,4.68-13.98c3.03-3.45,7.14-5.18,12.34-5.18s9.34,2.03,12.27,6.1Zm-20.15,23.48c2.13,2.41,4.99,3.62,8.58,3.62s6.46-1.25,8.58-3.76c2.13-2.46,3.19-5.89,3.19-10.29s-1.06-7.78-3.19-10.29c-2.13-2.51-4.99-3.76-8.58-3.76s-6.4,1.29-8.55,3.87c-2.15,2.58-3.23,6.07-3.23,10.46s1.06,7.73,3.19,10.15Z"/>
      <path class="uuid-ababfeac-8b87-4553-b9d9-cacb98c28b32" d="m1120.14,300.9l5.18-15.18h6.17l-15.47,42.35c-1.09,3.07-2.58,5.24-4.47,6.49-1.89,1.25-4.38,1.88-7.45,1.88-1.04,0-2.18-.07-3.41-.21v-4.75h3.33c3.26,0,5.49-1.51,6.67-4.54l1.28-3.41-13.76-37.81h6.24l5.18,15.25c1.84,5.39,3.59,10.67,5.25,15.82,1.37-4.4,3.12-9.69,5.25-15.89Z"/>
      <path class="uuid-ababfeac-8b87-4553-b9d9-cacb98c28b32" d="m1160.58,317.92c-3.36,3.5-7.62,5.25-12.77,5.25s-9.41-1.75-12.77-5.25c-3.31-3.45-4.97-8.09-4.97-13.91s1.65-10.45,4.97-13.9c3.36-3.5,7.61-5.25,12.77-5.25s9.41,1.75,12.77,5.25c3.31,3.45,4.97,8.09,4.97,13.9s-1.66,10.45-4.97,13.91Zm-21.35-3.62c2.13,2.51,4.99,3.76,8.58,3.76s6.46-1.25,8.58-3.76c2.13-2.46,3.19-5.89,3.19-10.29s-1.06-7.9-3.19-10.36c-2.13-2.46-4.99-3.69-8.58-3.69s-6.46,1.23-8.58,3.69c-2.13,2.46-3.19,5.91-3.19,10.36s1.06,7.83,3.19,10.29Z"/>
      <path class="uuid-ababfeac-8b87-4553-b9d9-cacb98c28b32" d="m1193.22,306.43v-20.72h5.67v36.61h-5.39v-5.46c-2.79,4.21-6.62,6.31-11.49,6.31-4.07,0-7.24-1.11-9.51-3.33-2.27-2.22-3.41-5.34-3.41-9.36v-24.76h5.67v24.19c0,5.44,2.79,8.16,8.37,8.16,2.65,0,4.99-.99,7.02-2.98,2.03-1.99,3.05-4.87,3.05-8.66Z"/>
      <path class="uuid-ababfeac-8b87-4553-b9d9-cacb98c28b32" d="m1222.44,285.15c.95,0,1.58.02,1.92.07v5.46h-1.42c-3.79,0-6.73.93-8.83,2.8-2.1,1.87-3.16,4.53-3.16,7.98v20.86h-5.67v-36.61h5.39v6.46c2.46-4.68,6.38-7.02,11.78-7.02Z"/>
      <path class="uuid-ababfeac-8b87-4553-b9d9-cacb98c28b32" d="m1252.52,323.17c-9.79,0-14.97-4.16-15.54-12.49h5.75c.33,2.74,1.24,4.69,2.73,5.85,1.49,1.16,3.84,1.74,7.06,1.74,5.86,0,8.8-1.89,8.8-5.68,0-1.66-.6-2.91-1.81-3.76-1.21-.85-3.39-1.58-6.56-2.2l-3.41-.64c-7.62-1.42-11.42-5.01-11.42-10.78,0-3.17,1.19-5.69,3.58-7.56,2.39-1.87,5.64-2.8,9.75-2.8,9.69,0,14.66,4.04,14.9,12.13h-5.67c-.14-2.65-.95-4.52-2.41-5.6-1.47-1.09-3.74-1.63-6.81-1.63-2.46,0-4.35.47-5.68,1.42-1.32.95-1.99,2.27-1.99,3.97,0,1.61.57,2.81,1.7,3.62,1.14.8,3.03,1.49,5.68,2.06l3.26.64c4.49.9,7.72,2.18,9.68,3.83,1.96,1.66,2.94,3.97,2.94,6.95,0,3.45-1.29,6.14-3.87,8.05-2.58,1.92-6.14,2.87-10.68,2.87Z"/>
      <path class="uuid-ababfeac-8b87-4553-b9d9-cacb98c28b32" d="m1285.94,285.71v4.97h-7.52v23.77c0,2.08,1.39,3.12,4.19,3.12h3.33v4.75c-1.56.14-2.91.21-4.04.21-6.1,0-9.15-2.53-9.15-7.59v-24.26h-6.03v-4.97h6.03v-10.36h5.67v10.36h7.52Z"/>
      <path class="uuid-ababfeac-8b87-4553-b9d9-cacb98c28b32" d="m1307.01,285.15c.95,0,1.58.02,1.92.07v5.46h-1.42c-3.79,0-6.73.93-8.83,2.8-2.1,1.87-3.16,4.53-3.16,7.98v20.86h-5.67v-36.61h5.39v6.46c2.46-4.68,6.38-7.02,11.78-7.02Z"/>
      <path class="uuid-ababfeac-8b87-4553-b9d9-cacb98c28b32" d="m1341.91,304.02v1.99h-27.81c.28,3.97,1.39,6.96,3.33,8.97,1.94,2.01,4.59,3.02,7.95,3.02,5.06,0,8.3-2.27,9.72-6.81h5.89c-.99,3.69-2.84,6.61-5.53,8.76-2.7,2.15-6.1,3.23-10.22,3.23-5.06,0-9.15-1.73-12.27-5.18-3.17-3.45-4.75-8.11-4.75-13.98s1.56-10.4,4.68-13.9c3.07-3.5,7.14-5.25,12.2-5.25s9.37,1.82,12.34,5.46c2.98,3.64,4.47,8.21,4.47,13.69Zm-16.81-13.98c-2.98,0-5.42.93-7.31,2.8-1.89,1.87-3.08,4.55-3.55,8.05h21.57c-.28-3.22-1.37-5.83-3.26-7.84-1.89-2.01-4.38-3.02-7.45-3.02Z"/>
      <path class="uuid-ababfeac-8b87-4553-b9d9-cacb98c28b32" d="m1363.41,284.86c4.07,0,7.24,1.11,9.51,3.33,2.27,2.22,3.41,5.35,3.41,9.36v24.76h-5.67v-24.19c0-5.44-2.79-8.16-8.37-8.16-2.65,0-4.99.99-7.02,2.98-2.03,1.99-3.05,4.87-3.05,8.66v20.72h-5.67v-36.61h5.39v5.46c2.79-4.21,6.62-6.31,11.49-6.31Z"/>
      <path class="uuid-ababfeac-8b87-4553-b9d9-cacb98c28b32" d="m1410.51,291.03v-5.32h5.39v35.19c0,5.01-1.47,8.96-4.4,11.85-2.93,2.88-7.14,4.33-12.63,4.33-4.54,0-8.18-1.04-10.92-3.12-2.74-2.08-4.3-4.97-4.68-8.66h5.68c.71,4.63,4.02,6.95,9.93,6.95,7.57,0,11.35-3.78,11.35-11.35v-3.55c-2.89,3.88-6.98,5.82-12.27,5.82s-9.27-1.75-12.34-5.25c-3.12-3.5-4.68-8.13-4.68-13.91s1.56-10.52,4.68-13.98c3.03-3.45,7.14-5.18,12.34-5.18s9.62,2.06,12.56,6.17Zm-11.85,27.03c3.59,0,6.46-1.25,8.58-3.76,2.13-2.51,3.19-5.94,3.19-10.29s-1.06-7.78-3.19-10.29c-2.13-2.51-4.99-3.76-8.58-3.76s-6.4,1.28-8.55,3.83c-2.15,2.55-3.23,5.96-3.23,10.22s1.08,7.66,3.23,10.22c2.15,2.55,5,3.83,8.55,3.83Z"/>
      <path class="uuid-ababfeac-8b87-4553-b9d9-cacb98c28b32" d="m1438.32,285.71v4.97h-7.52v23.77c0,2.08,1.39,3.12,4.19,3.12h3.33v4.75c-1.56.14-2.91.21-4.04.21-6.1,0-9.15-2.53-9.15-7.59v-24.26h-6.03v-4.97h6.03v-10.36h5.67v10.36h7.52Z"/>
      <path class="uuid-ababfeac-8b87-4553-b9d9-cacb98c28b32" d="m1459.11,284.86c4.07,0,7.24,1.11,9.51,3.33,2.27,2.22,3.41,5.35,3.41,9.36v24.76h-5.67v-24.19c0-5.44-2.79-8.16-8.37-8.16-2.65,0-4.99.99-7.02,2.98-2.03,1.99-3.05,4.87-3.05,8.66v20.72h-5.67v-50.51h5.67v18.94c2.79-3.93,6.53-5.89,11.21-5.89Z"/>
      <path class="uuid-ababfeac-8b87-4553-b9d9-cacb98c28b32" d="m1502.67,323.17c-9.79,0-14.97-4.16-15.54-12.49h5.75c.33,2.74,1.24,4.69,2.73,5.85,1.49,1.16,3.84,1.74,7.06,1.74,5.86,0,8.8-1.89,8.8-5.68,0-1.66-.6-2.91-1.81-3.76-1.21-.85-3.39-1.58-6.56-2.2l-3.41-.64c-7.62-1.42-11.42-5.01-11.42-10.78,0-3.17,1.19-5.69,3.58-7.56,2.39-1.87,5.64-2.8,9.75-2.8,9.69,0,14.66,4.04,14.9,12.13h-5.67c-.14-2.65-.95-4.52-2.41-5.6-1.47-1.09-3.74-1.63-6.81-1.63-2.46,0-4.35.47-5.68,1.42-1.32.95-1.99,2.27-1.99,3.97,0,1.61.57,2.81,1.7,3.62,1.14.8,3.03,1.49,5.68,2.06l3.26.64c4.49.9,7.72,2.18,9.68,3.83,1.96,1.66,2.94,3.97,2.94,6.95,0,3.45-1.29,6.14-3.87,8.05-2.58,1.92-6.14,2.87-10.68,2.87Z"/>
      <path class="uuid-ababfeac-8b87-4553-b9d9-cacb98c28b32" d="m1549.49,317.92c-3.36,3.5-7.62,5.25-12.77,5.25s-9.41-1.75-12.77-5.25c-3.31-3.45-4.97-8.09-4.97-13.91s1.65-10.45,4.97-13.9c3.36-3.5,7.61-5.25,12.77-5.25s9.41,1.75,12.77,5.25c3.31,3.45,4.97,8.09,4.97,13.9s-1.66,10.45-4.97,13.91Zm-21.35-3.62c2.13,2.51,4.99,3.76,8.58,3.76s6.46-1.25,8.58-3.76c2.13-2.46,3.19-5.89,3.19-10.29s-1.06-7.9-3.19-10.36c-2.13-2.46-4.99-3.69-8.58-3.69s-6.46,1.23-8.58,3.69c-2.13,2.46-3.19,5.91-3.19,10.36s1.06,7.83,3.19,10.29Z"/>
      <path class="uuid-ababfeac-8b87-4553-b9d9-cacb98c28b32" d="m1588.29,317.71h2.06v4.61c-.95.14-1.99.21-3.12.21-3.83,0-5.89-1.75-6.17-5.25-2.55,3.93-6.53,5.89-11.92,5.89-4.02,0-7.18-.93-9.47-2.8-2.29-1.87-3.44-4.5-3.44-7.91,0-6.62,4.52-10.4,13.55-11.35l5.25-.57c3.83-.43,5.75-2.1,5.75-5.04,0-2.03-.63-3.5-1.88-4.4-1.25-.9-3.37-1.35-6.35-1.35-3.17,0-5.45.53-6.85,1.6-1.4,1.06-2.19,2.94-2.38,5.64h-5.68c.47-8.09,5.44-12.13,14.9-12.13s13.76,3.55,13.76,10.64v20.43c0,1.18.66,1.77,1.99,1.77Zm-18.87.64c3.03,0,5.67-.92,7.95-2.77,2.27-1.8,3.41-4.37,3.41-7.73v-4.33c-1.04.81-2.65,1.32-4.82,1.56l-5.32.64c-3.08.38-5.26,1.09-6.56,2.13-1.3,1.04-1.95,2.53-1.95,4.47s.61,3.37,1.84,4.43c1.23,1.06,3.05,1.6,5.46,1.6Z"/>
      <path class="uuid-ababfeac-8b87-4553-b9d9-cacb98c28b32" d="m1610.36,285.15c.95,0,1.58.02,1.92.07v5.46h-1.42c-3.79,0-6.73.93-8.83,2.8-2.1,1.87-3.16,4.53-3.16,7.98v20.86h-5.67v-36.61h5.39v6.46c2.46-4.68,6.38-7.02,11.78-7.02Z"/>
      <path class="uuid-ababfeac-8b87-4553-b9d9-cacb98c28b32" d="m1626.96,323.17c-9.79,0-14.97-4.16-15.54-12.49h5.75c.33,2.74,1.24,4.69,2.73,5.85,1.49,1.16,3.84,1.74,7.06,1.74,5.86,0,8.8-1.89,8.8-5.68,0-1.66-.6-2.91-1.81-3.76-1.21-.85-3.39-1.58-6.56-2.2l-3.41-.64c-7.62-1.42-11.42-5.01-11.42-10.78,0-3.17,1.19-5.69,3.58-7.56,2.39-1.87,5.64-2.8,9.75-2.8,9.69,0,14.66,4.04,14.9,12.13h-5.67c-.14-2.65-.95-4.52-2.41-5.6-1.47-1.09-3.74-1.63-6.81-1.63-2.46,0-4.35.47-5.68,1.42-1.32.95-1.99,2.27-1.99,3.97,0,1.61.57,2.81,1.7,3.62,1.14.8,3.03,1.49,5.68,2.06l3.26.64c4.49.9,7.72,2.18,9.68,3.83,1.96,1.66,2.94,3.97,2.94,6.95,0,3.45-1.29,6.14-3.87,8.05-2.58,1.92-6.14,2.87-10.68,2.87Z"/>
    </g>
    <g class="uuid-b9e78e90-5e06-45d1-99cc-dd8d962530f5">
      <path class="uuid-ababfeac-8b87-4553-b9d9-cacb98c28b32" d="m220.73,379.45c5.15,0,9.29,1.73,12.42,5.18,3.07,3.5,4.61,8.16,4.61,13.98s-1.54,10.41-4.61,13.91c-3.12,3.5-7.26,5.25-12.42,5.25-5.44,0-9.63-2.18-12.56-6.53v5.68h-5.39v-50.51h5.68v19.15c2.93-4.07,7.02-6.1,12.27-6.1Zm-.71,33.2c3.55,0,6.4-1.29,8.55-3.87,2.15-2.58,3.23-6.07,3.23-10.46s-1.05-7.67-3.16-10.11c-2.1-2.44-4.98-3.65-8.62-3.65s-6.46,1.23-8.58,3.69c-2.13,2.46-3.19,5.91-3.19,10.36s1.06,7.83,3.19,10.29c2.13,2.51,4.99,3.76,8.58,3.76Z"/>
      <path class="uuid-ababfeac-8b87-4553-b9d9-cacb98c28b32" d="m274.3,398.61v1.99h-27.81c.28,3.97,1.39,6.96,3.33,8.97,1.94,2.01,4.59,3.02,7.95,3.02,5.06,0,8.3-2.27,9.72-6.81h5.89c-.99,3.69-2.84,6.61-5.53,8.76-2.7,2.15-6.1,3.23-10.22,3.23-5.06,0-9.15-1.73-12.27-5.18-3.17-3.45-4.75-8.11-4.75-13.98s1.56-10.4,4.68-13.9c3.07-3.5,7.14-5.25,12.2-5.25s9.36,1.82,12.34,5.46c2.98,3.64,4.47,8.21,4.47,13.69Zm-16.81-13.98c-2.98,0-5.42.93-7.31,2.8-1.89,1.87-3.08,4.55-3.55,8.05h21.57c-.28-3.22-1.37-5.83-3.26-7.84-1.89-2.01-4.38-3.02-7.45-3.02Z"/>
      <path class="uuid-ababfeac-8b87-4553-b9d9-cacb98c28b32" d="m295.15,395.49l5.18-15.18h6.17l-15.47,42.35c-1.09,3.07-2.58,5.24-4.47,6.49-1.89,1.25-4.38,1.88-7.45,1.88-1.04,0-2.18-.07-3.41-.21v-4.75h3.33c3.26,0,5.49-1.51,6.67-4.54l1.28-3.41-13.76-37.81h6.24l5.18,15.25c1.84,5.39,3.59,10.67,5.25,15.82,1.37-4.4,3.12-9.69,5.25-15.89Z"/>
      <path class="uuid-ababfeac-8b87-4553-b9d9-cacb98c28b32" d="m335.59,412.51c-3.36,3.5-7.62,5.25-12.77,5.25s-9.41-1.75-12.77-5.25c-3.31-3.45-4.97-8.09-4.97-13.91s1.66-10.45,4.97-13.9c3.36-3.5,7.61-5.25,12.77-5.25s9.41,1.75,12.77,5.25c3.31,3.45,4.97,8.09,4.97,13.9s-1.66,10.45-4.97,13.91Zm-21.35-3.62c2.13,2.51,4.99,3.76,8.58,3.76s6.46-1.25,8.58-3.76c2.13-2.46,3.19-5.89,3.19-10.29s-1.06-7.9-3.19-10.36c-2.13-2.46-4.99-3.69-8.58-3.69s-6.46,1.23-8.58,3.69c-2.13,2.46-3.19,5.91-3.19,10.36s1.06,7.83,3.19,10.29Z"/>
      <path class="uuid-ababfeac-8b87-4553-b9d9-cacb98c28b32" d="m362.05,379.45c4.07,0,7.24,1.11,9.51,3.33,2.27,2.22,3.41,5.35,3.41,9.36v24.76h-5.68v-24.19c0-5.44-2.79-8.16-8.37-8.16-2.65,0-4.99.99-7.02,2.98-2.03,1.99-3.05,4.87-3.05,8.66v20.72h-5.68v-36.61h5.39v5.46c2.79-4.21,6.62-6.31,11.49-6.31Z"/>
      <path class="uuid-ababfeac-8b87-4553-b9d9-cacb98c28b32" d="m408.87,385.55v-19.15h5.68v50.51h-5.39v-5.68c-2.93,4.35-7.12,6.53-12.56,6.53-5.16,0-9.27-1.75-12.34-5.25-3.12-3.5-4.68-8.13-4.68-13.91s1.56-10.52,4.68-13.98c3.03-3.45,7.14-5.18,12.34-5.18s9.34,2.03,12.27,6.1Zm-20.15,23.48c2.13,2.41,4.99,3.62,8.58,3.62s6.46-1.25,8.58-3.76c2.13-2.46,3.19-5.89,3.19-10.29s-1.06-7.78-3.19-10.29c-2.13-2.51-4.99-3.76-8.58-3.76s-6.4,1.29-8.55,3.87c-2.15,2.58-3.23,6.07-3.23,10.46s1.06,7.73,3.19,10.15Z"/>
      <path class="uuid-ababfeac-8b87-4553-b9d9-cacb98c28b32" d="m450.23,379.45c5.15,0,9.29,1.73,12.42,5.18,3.07,3.5,4.61,8.16,4.61,13.98s-1.54,10.41-4.61,13.91c-3.12,3.5-7.26,5.25-12.42,5.25-5.44,0-9.63-2.18-12.56-6.53v5.68h-5.39v-50.51h5.68v19.15c2.93-4.07,7.02-6.1,12.27-6.1Zm-.71,33.2c3.55,0,6.4-1.29,8.55-3.87,2.15-2.58,3.23-6.07,3.23-10.46s-1.05-7.67-3.16-10.11c-2.1-2.44-4.98-3.65-8.62-3.65s-6.46,1.23-8.58,3.69c-2.13,2.46-3.19,5.91-3.19,10.36s1.06,7.83,3.19,10.29c2.13,2.51,4.99,3.76,8.58,3.76Z"/>
      <path class="uuid-ababfeac-8b87-4553-b9d9-cacb98c28b32" d="m500.6,412.51c-3.36,3.5-7.62,5.25-12.77,5.25s-9.41-1.75-12.77-5.25c-3.31-3.45-4.97-8.09-4.97-13.91s1.66-10.45,4.97-13.9c3.36-3.5,7.61-5.25,12.77-5.25s9.41,1.75,12.77,5.25c3.31,3.45,4.97,8.09,4.97,13.9s-1.66,10.45-4.97,13.91Zm-21.35-3.62c2.13,2.51,4.99,3.76,8.58,3.76s6.46-1.25,8.58-3.76c2.13-2.46,3.19-5.89,3.19-10.29s-1.06-7.9-3.19-10.36c-2.13-2.46-4.99-3.69-8.58-3.69s-6.46,1.23-8.58,3.69c-2.13,2.46-3.19,5.91-3.19,10.36s1.06,7.83,3.19,10.29Z"/>
      <path class="uuid-ababfeac-8b87-4553-b9d9-cacb98c28b32" d="m533.24,401.02v-20.72h5.68v36.61h-5.39v-5.46c-2.79,4.21-6.62,6.31-11.49,6.31-4.07,0-7.24-1.11-9.51-3.33-2.27-2.22-3.41-5.34-3.41-9.36v-24.76h5.68v24.19c0,5.44,2.79,8.16,8.37,8.16,2.65,0,4.99-.99,7.02-2.98,2.03-1.99,3.05-4.87,3.05-8.66Z"/>
      <path class="uuid-ababfeac-8b87-4553-b9d9-cacb98c28b32" d="m562.18,379.45c4.07,0,7.24,1.11,9.51,3.33,2.27,2.22,3.41,5.35,3.41,9.36v24.76h-5.68v-24.19c0-5.44-2.79-8.16-8.37-8.16-2.65,0-4.99.99-7.02,2.98-2.03,1.99-3.05,4.87-3.05,8.66v20.72h-5.68v-36.61h5.39v5.46c2.79-4.21,6.62-6.31,11.49-6.31Z"/>
      <path class="uuid-ababfeac-8b87-4553-b9d9-cacb98c28b32" d="m609,385.55v-19.15h5.68v50.51h-5.39v-5.68c-2.93,4.35-7.12,6.53-12.56,6.53-5.16,0-9.27-1.75-12.34-5.25-3.12-3.5-4.68-8.13-4.68-13.91s1.56-10.52,4.68-13.98c3.03-3.45,7.14-5.18,12.34-5.18s9.34,2.03,12.27,6.1Zm-20.15,23.48c2.13,2.41,4.99,3.62,8.58,3.62s6.46-1.25,8.58-3.76c2.13-2.46,3.19-5.89,3.19-10.29s-1.06-7.78-3.19-10.29c-2.13-2.51-4.99-3.76-8.58-3.76s-6.4,1.29-8.55,3.87c-2.15,2.58-3.23,6.07-3.23,10.46s1.06,7.73,3.19,10.15Z"/>
      <path class="uuid-ababfeac-8b87-4553-b9d9-cacb98c28b32" d="m633.98,417.76c-9.79,0-14.97-4.16-15.54-12.49h5.75c.33,2.74,1.24,4.69,2.73,5.85,1.49,1.16,3.84,1.74,7.06,1.74,5.86,0,8.8-1.89,8.8-5.68,0-1.66-.6-2.91-1.81-3.76-1.21-.85-3.39-1.58-6.56-2.2l-3.41-.64c-7.62-1.42-11.42-5.01-11.42-10.78,0-3.17,1.19-5.69,3.58-7.56,2.39-1.87,5.64-2.8,9.75-2.8,9.7,0,14.66,4.04,14.9,12.13h-5.68c-.14-2.65-.95-4.52-2.41-5.6-1.47-1.09-3.74-1.63-6.81-1.63-2.46,0-4.35.47-5.68,1.42-1.32.95-1.99,2.27-1.99,3.97,0,1.61.57,2.81,1.7,3.62,1.14.8,3.03,1.49,5.68,2.06l3.26.64c4.49.9,7.72,2.18,9.68,3.83,1.96,1.66,2.94,3.97,2.94,6.95,0,3.45-1.29,6.14-3.87,8.05-2.58,1.92-6.14,2.87-10.68,2.87Z"/>
      <path class="uuid-ababfeac-8b87-4553-b9d9-cacb98c28b32" d="m658.17,416.91h-7.17v-7.09h7.17v7.09Z"/>
      <path class="uuid-ababfeac-8b87-4553-b9d9-cacb98c28b32" d="m699.38,413.86c-2.79,2.79-6.57,4.19-11.35,4.19s-8.58-1.39-11.28-4.19c-2.7-2.79-4.04-6.55-4.04-11.28v-3.33h5.82v3.33c0,3.26.83,5.76,2.48,7.48,1.65,1.73,4,2.59,7.02,2.59s5.37-.86,7.02-2.59c1.65-1.73,2.48-4.22,2.48-7.48v-36.18h5.96v36.18c0,4.78-1.37,8.54-4.11,11.28Z"/>
      <path class="uuid-ababfeac-8b87-4553-b9d9-cacb98c28b32" d="m738.26,412.51c-3.36,3.5-7.62,5.25-12.77,5.25s-9.41-1.75-12.77-5.25c-3.31-3.45-4.97-8.09-4.97-13.91s1.66-10.45,4.97-13.9c3.36-3.5,7.61-5.25,12.77-5.25s9.41,1.75,12.77,5.25c3.31,3.45,4.97,8.09,4.97,13.9s-1.66,10.45-4.97,13.91Zm-21.35-3.62c2.13,2.51,4.99,3.76,8.58,3.76s6.46-1.25,8.58-3.76c2.13-2.46,3.19-5.89,3.19-10.29s-1.06-7.9-3.19-10.36c-2.13-2.46-4.99-3.69-8.58-3.69s-6.46,1.23-8.58,3.69c-2.13,2.46-3.19,5.91-3.19,10.36s1.06,7.83,3.19,10.29Z"/>
      <path class="uuid-ababfeac-8b87-4553-b9d9-cacb98c28b32" d="m753.66,374.77h-6.03v-6.95h6.03v6.95Zm-.14,42.14h-5.68v-36.61h5.68v36.61Z"/>
      <path class="uuid-ababfeac-8b87-4553-b9d9-cacb98c28b32" d="m776.78,379.45c4.07,0,7.24,1.11,9.51,3.33,2.27,2.22,3.41,5.35,3.41,9.36v24.76h-5.68v-24.19c0-5.44-2.79-8.16-8.37-8.16-2.65,0-4.99.99-7.02,2.98-2.03,1.99-3.05,4.87-3.05,8.66v20.72h-5.68v-36.61h5.39v5.46c2.79-4.21,6.62-6.31,11.49-6.31Z"/>
      <path class="uuid-ababfeac-8b87-4553-b9d9-cacb98c28b32" d="m823.46,380.3v4.97h-7.52v23.77c0,2.08,1.39,3.12,4.19,3.12h3.33v4.75c-1.56.14-2.91.21-4.04.21-6.1,0-9.15-2.53-9.15-7.59v-24.26h-6.03v-4.97h6.03v-10.36h5.68v10.36h7.52Z"/>
      <path class="uuid-ababfeac-8b87-4553-b9d9-cacb98c28b32" d="m844.25,379.45c4.07,0,7.24,1.11,9.51,3.33,2.27,2.22,3.41,5.35,3.41,9.36v24.76h-5.68v-24.19c0-5.44-2.79-8.16-8.37-8.16-2.65,0-4.99.99-7.02,2.98-2.03,1.99-3.05,4.87-3.05,8.66v20.72h-5.68v-50.51h5.68v18.94c2.79-3.93,6.53-5.89,11.21-5.89Z"/>
      <path class="uuid-ababfeac-8b87-4553-b9d9-cacb98c28b32" d="m895.47,398.61v1.99h-27.81c.28,3.97,1.39,6.96,3.33,8.97,1.94,2.01,4.59,3.02,7.95,3.02,5.06,0,8.3-2.27,9.72-6.81h5.89c-.99,3.69-2.84,6.61-5.53,8.76-2.7,2.15-6.1,3.23-10.22,3.23-5.06,0-9.15-1.73-12.27-5.18-3.17-3.45-4.75-8.11-4.75-13.98s1.56-10.4,4.68-13.9c3.07-3.5,7.14-5.25,12.2-5.25s9.36,1.82,12.34,5.46c2.98,3.64,4.47,8.21,4.47,13.69Zm-16.81-13.98c-2.98,0-5.42.93-7.31,2.8-1.89,1.87-3.08,4.55-3.55,8.05h21.57c-.28-3.22-1.37-5.83-3.26-7.84-1.89-2.01-4.38-3.02-7.45-3.02Z"/>
      <path class="uuid-ababfeac-8b87-4553-b9d9-cacb98c28b32" d="m928.6,379.74c.95,0,1.58.02,1.92.07v5.46h-1.42c-3.78,0-6.73.93-8.83,2.8-2.11,1.87-3.16,4.53-3.16,7.98v20.86h-5.68v-36.61h5.39v6.46c2.46-4.68,6.38-7.02,11.78-7.02Z"/>
      <path class="uuid-ababfeac-8b87-4553-b9d9-cacb98c28b32" d="m963.5,398.61v1.99h-27.81c.28,3.97,1.39,6.96,3.33,8.97,1.94,2.01,4.59,3.02,7.95,3.02,5.06,0,8.3-2.27,9.72-6.81h5.89c-.99,3.69-2.84,6.61-5.53,8.76-2.7,2.15-6.1,3.23-10.22,3.23-5.06,0-9.15-1.73-12.27-5.18-3.17-3.45-4.75-8.11-4.75-13.98s1.56-10.4,4.68-13.9c3.07-3.5,7.14-5.25,12.2-5.25s9.36,1.82,12.34,5.46c2.98,3.64,4.47,8.21,4.47,13.69Zm-16.81-13.98c-2.98,0-5.42.93-7.31,2.8-1.89,1.87-3.08,4.55-3.55,8.05h21.57c-.28-3.22-1.37-5.83-3.26-7.84-1.89-2.01-4.38-3.02-7.45-3.02Z"/>
      <path class="uuid-ababfeac-8b87-4553-b9d9-cacb98c28b32" d="m985,396.55l6.03-16.25h6.1l-14.4,36.61h-5.96l-14.33-36.61h6.17l6.03,16.32c2.98,7.99,4.71,12.72,5.18,14.19.85-2.51,2.58-7.26,5.18-14.26Z"/>
      <path class="uuid-ababfeac-8b87-4553-b9d9-cacb98c28b32" d="m1026.22,412.51c-3.36,3.5-7.62,5.25-12.77,5.25s-9.41-1.75-12.77-5.25c-3.31-3.45-4.97-8.09-4.97-13.91s1.65-10.45,4.97-13.9c3.36-3.5,7.61-5.25,12.77-5.25s9.41,1.75,12.77,5.25c3.31,3.45,4.97,8.09,4.97,13.9s-1.66,10.45-4.97,13.91Zm-21.35-3.62c2.13,2.51,4.99,3.76,8.58,3.76s6.46-1.25,8.58-3.76c2.13-2.46,3.19-5.89,3.19-10.29s-1.06-7.9-3.19-10.36c-2.13-2.46-4.99-3.69-8.58-3.69s-6.46,1.23-8.58,3.69c-2.13,2.46-3.19,5.91-3.19,10.36s1.06,7.83,3.19,10.29Z"/>
      <path class="uuid-ababfeac-8b87-4553-b9d9-cacb98c28b32" d="m1041.47,416.91h-5.67v-50.51h5.67v50.51Z"/>
      <path class="uuid-ababfeac-8b87-4553-b9d9-cacb98c28b32" d="m1071.98,401.02v-20.72h5.67v36.61h-5.39v-5.46c-2.79,4.21-6.62,6.31-11.49,6.31-4.07,0-7.24-1.11-9.51-3.33-2.27-2.22-3.41-5.34-3.41-9.36v-24.76h5.67v24.19c0,5.44,2.79,8.16,8.37,8.16,2.65,0,4.99-.99,7.02-2.98,2.03-1.99,3.05-4.87,3.05-8.66Z"/>
      <path class="uuid-ababfeac-8b87-4553-b9d9-cacb98c28b32" d="m1100.07,380.3v4.97h-7.52v23.77c0,2.08,1.39,3.12,4.19,3.12h3.33v4.75c-1.56.14-2.91.21-4.04.21-6.1,0-9.15-2.53-9.15-7.59v-24.26h-6.03v-4.97h6.03v-10.36h5.67v10.36h7.52Z"/>
      <path class="uuid-ababfeac-8b87-4553-b9d9-cacb98c28b32" d="m1109.79,374.77h-6.03v-6.95h6.03v6.95Zm-.14,42.14h-5.67v-36.61h5.67v36.61Z"/>
      <path class="uuid-ababfeac-8b87-4553-b9d9-cacb98c28b32" d="m1144.76,412.51c-3.36,3.5-7.62,5.25-12.77,5.25s-9.41-1.75-12.77-5.25c-3.31-3.45-4.97-8.09-4.97-13.91s1.65-10.45,4.97-13.9c3.36-3.5,7.61-5.25,12.77-5.25s9.41,1.75,12.77,5.25c3.31,3.45,4.97,8.09,4.97,13.9s-1.66,10.45-4.97,13.91Zm-21.35-3.62c2.13,2.51,4.99,3.76,8.58,3.76s6.46-1.25,8.58-3.76c2.13-2.46,3.19-5.89,3.19-10.29s-1.06-7.9-3.19-10.36c-2.13-2.46-4.99-3.69-8.58-3.69s-6.46,1.23-8.58,3.69c-2.13,2.46-3.19,5.91-3.19,10.36s1.06,7.83,3.19,10.29Z"/>
      <path class="uuid-ababfeac-8b87-4553-b9d9-cacb98c28b32" d="m1171.22,379.45c4.07,0,7.24,1.11,9.51,3.33,2.27,2.22,3.41,5.35,3.41,9.36v24.76h-5.67v-24.19c0-5.44-2.79-8.16-8.37-8.16-2.65,0-4.99.99-7.02,2.98-2.03,1.99-3.05,4.87-3.05,8.66v20.72h-5.67v-36.61h5.39v5.46c2.79-4.21,6.62-6.31,11.49-6.31Z"/>
      <path class="uuid-ababfeac-8b87-4553-b9d9-cacb98c28b32" d="m1196.62,416.91h-7.17v-7.09h7.17v7.09Z"/>
    </g>
  </g>
  <g id="uuid-0ae5dfb1-ca54-4642-a167-8fd6fc2e488e" data-name="Let your power fly." class="uuid-b9e78e90-5e06-45d1-99cc-dd8d962530f5">
    <g class="uuid-b9e78e90-5e06-45d1-99cc-dd8d962530f5">
      <path class="uuid-ababfeac-8b87-4553-b9d9-cacb98c28b32" d="m225.44,575.33v86.63h48.76v10.35h-60.21v-96.98h11.44Z"/>
      <path class="uuid-ababfeac-8b87-4553-b9d9-cacb98c28b32" d="m338.36,637.17v3.81h-53.4c.54,7.63,2.68,13.37,6.4,17.23,3.72,3.86,8.81,5.79,15.26,5.79,9.72,0,15.94-4.36,18.66-13.08h11.31c-1.91,7.08-5.45,12.69-10.62,16.82-5.18,4.13-11.71,6.2-19.61,6.2-9.72,0-17.57-3.31-23.56-9.94-6.08-6.63-9.13-15.57-9.13-26.83s3-19.98,8.99-26.7c5.9-6.72,13.71-10.08,23.43-10.08s17.98,3.5,23.7,10.49c5.72,6.99,8.58,15.76,8.58,26.29Zm-32.28-26.83c-5.72,0-10.4,1.79-14.03,5.38-3.63,3.59-5.9,8.74-6.81,15.46h41.41c-.54-6.17-2.63-11.19-6.27-15.05-3.63-3.86-8.4-5.79-14.3-5.79Z"/>
      <path class="uuid-ababfeac-8b87-4553-b9d9-cacb98c28b32" d="m374.05,602.02v9.54h-14.44v45.63c0,4,2.68,5.99,8.04,5.99h6.4v9.13c-3,.27-5.58.41-7.76.41-11.71,0-17.57-4.86-17.57-14.57v-46.58h-11.58v-9.54h11.58v-19.89h10.9v19.89h14.44Z"/>
      <path class="uuid-ababfeac-8b87-4553-b9d9-cacb98c28b32" d="m438.2,631.17l9.94-29.15h11.85l-29.69,81.32c-2.09,5.9-4.95,10.06-8.58,12.46-3.63,2.41-8.4,3.61-14.3,3.61-2,0-4.18-.14-6.54-.41v-9.13h6.4c6.27,0,10.53-2.91,12.8-8.72l2.45-6.54-26.42-72.6h11.99l9.94,29.29c3.54,10.35,6.9,20.48,10.08,30.38,2.63-8.44,5.99-18.61,10.08-30.51Z"/>
      <path class="uuid-ababfeac-8b87-4553-b9d9-cacb98c28b32" d="m515.98,663.86c-6.45,6.72-14.62,10.08-24.52,10.08s-18.07-3.36-24.52-10.08c-6.36-6.63-9.53-15.53-9.53-26.7s3.18-20.07,9.53-26.7c6.45-6.72,14.62-10.08,24.52-10.08s18.07,3.36,24.52,10.08c6.36,6.63,9.54,15.53,9.54,26.7s-3.18,20.07-9.54,26.7Zm-41-6.95c4.09,4.81,9.58,7.22,16.48,7.22s12.4-2.41,16.48-7.22c4.09-4.72,6.13-11.31,6.13-19.75s-2.04-15.16-6.13-19.89c-4.09-4.72-9.58-7.08-16.48-7.08s-12.4,2.36-16.48,7.08c-4.09,4.72-6.13,11.35-6.13,19.89s2.04,15.03,6.13,19.75Z"/>
      <path class="uuid-ababfeac-8b87-4553-b9d9-cacb98c28b32" d="m578.77,641.8v-39.77h10.9v70.29h-10.35v-10.49c-5.36,8.08-12.71,12.12-22.07,12.12-7.81,0-13.89-2.13-18.25-6.4-4.36-4.27-6.54-10.26-6.54-17.98v-47.54h10.9v46.45c0,10.44,5.36,15.66,16.07,15.66,5.08,0,9.58-1.91,13.48-5.72,3.9-3.81,5.86-9.35,5.86-16.62Z"/>
      <path class="uuid-ababfeac-8b87-4553-b9d9-cacb98c28b32" d="m635.03,600.93c1.82,0,3.04.05,3.68.14v10.49h-2.72c-7.27,0-12.92,1.79-16.96,5.38-4.04,3.59-6.06,8.7-6.06,15.32v40.05h-10.9v-70.29h10.35v12.39c4.72-8.99,12.26-13.48,22.61-13.48Z"/>
    </g>
    <g class="uuid-b9e78e90-5e06-45d1-99cc-dd8d962530f5">
      <path class="uuid-11f5ca9b-c2d7-4a49-a990-581b765811e3" d="m701.5,600.39c9.9,0,17.84,3.32,23.84,9.94,5.9,6.72,8.85,15.66,8.85,26.83s-2.95,19.98-8.85,26.7c-5.99,6.72-13.94,10.08-23.84,10.08s-17.94-3.9-23.56-11.71v36.78h-10.9v-96.98h10.35v10.9c5.63-8.35,13.67-12.53,24.11-12.53Zm-1.36,63.75c6.81,0,12.28-2.47,16.41-7.42,4.13-4.95,6.2-11.65,6.2-20.09s-2.02-14.73-6.06-19.41c-4.04-4.68-9.56-7.02-16.55-7.02s-12.4,2.36-16.48,7.08c-4.09,4.72-6.13,11.35-6.13,19.89s2.04,15.03,6.13,19.75c4.09,4.81,9.58,7.22,16.48,7.22Z"/>
      <path class="uuid-11f5ca9b-c2d7-4a49-a990-581b765811e3" d="m798.34,663.86c-6.45,6.72-14.62,10.08-24.52,10.08s-18.07-3.36-24.52-10.08c-6.36-6.63-9.53-15.53-9.53-26.7s3.18-20.07,9.53-26.7c6.45-6.72,14.62-10.08,24.52-10.08s18.07,3.36,24.52,10.08c6.36,6.63,9.54,15.53,9.54,26.7s-3.18,20.07-9.54,26.7Zm-41-6.95c4.09,4.81,9.58,7.22,16.48,7.22s12.4-2.41,16.48-7.22c4.09-4.72,6.13-11.31,6.13-19.75s-2.04-15.16-6.13-19.89c-4.09-4.72-9.58-7.08-16.48-7.08s-12.4,2.36-16.48,7.08c-4.09,4.72-6.13,11.35-6.13,19.89s2.04,15.03,6.13,19.75Z"/>
      <path class="uuid-11f5ca9b-c2d7-4a49-a990-581b765811e3" d="m888.24,633.76l9.94-31.74h11.71l-23.43,70.29h-11.44l-10.35-32.55c-3.54-11.53-5.9-19.48-7.08-23.84-2.09,7.45-4.5,15.39-7.22,23.84l-10.22,32.55h-11.44l-23.43-70.29h11.71l9.94,31.74c2.45,7.72,4.99,16.26,7.63,25.61,2.9-10.35,5.4-18.89,7.49-25.61l9.81-31.74h11.44l9.81,31.74c4.99,16.62,7.54,25.06,7.63,25.33.73-2.81,3.22-11.26,7.49-25.33Z"/>
      <path class="uuid-11f5ca9b-c2d7-4a49-a990-581b765811e3" d="m972.01,637.17v3.81h-53.4c.54,7.63,2.68,13.37,6.4,17.23,3.72,3.86,8.81,5.79,15.26,5.79,9.72,0,15.94-4.36,18.66-13.08h11.31c-1.91,7.08-5.45,12.69-10.62,16.82-5.18,4.13-11.71,6.2-19.61,6.2-9.72,0-17.57-3.31-23.56-9.94-6.08-6.63-9.13-15.57-9.13-26.83s3-19.98,8.99-26.7c5.9-6.72,13.71-10.08,23.43-10.08s17.98,3.5,23.7,10.49c5.72,6.99,8.58,15.76,8.58,26.29Zm-32.28-26.83c-5.72,0-10.4,1.79-14.03,5.38-3.63,3.59-5.9,8.74-6.81,15.46h41.41c-.54-6.17-2.63-11.19-6.27-15.05-3.63-3.86-8.4-5.79-14.3-5.79Z"/>
      <path class="uuid-11f5ca9b-c2d7-4a49-a990-581b765811e3" d="m1013.96,600.93c1.82,0,3.04.05,3.68.14v10.49h-2.72c-7.27,0-12.92,1.79-16.96,5.38-4.04,3.59-6.06,8.7-6.06,15.32v40.05h-10.9v-70.29h10.35v12.39c4.72-8.99,12.26-13.48,22.61-13.48Z"/>
    </g>
    <g class="uuid-b9e78e90-5e06-45d1-99cc-dd8d962530f5">
      <path class="uuid-ababfeac-8b87-4553-b9d9-cacb98c28b32" d="m1051.96,602.02v-7.22c0-13.17,6.54-19.75,19.61-19.75,1.72,0,4.04.09,6.95.27v9.26h-6.27c-6.27,0-9.4,3.32-9.4,9.94v7.49h14.98v9.54h-14.98v60.75h-10.9v-60.75h-11.58v-9.54h11.58Zm35.42,70.29v-96.98h10.9v96.98h-10.9Z"/>
      <path class="uuid-ababfeac-8b87-4553-b9d9-cacb98c28b32" d="m1143.91,631.17l9.94-29.15h11.85l-29.69,81.32c-2.09,5.9-4.95,10.06-8.58,12.46-3.63,2.41-8.4,3.61-14.3,3.61-2,0-4.18-.14-6.54-.41v-9.13h6.4c6.27,0,10.53-2.91,12.8-8.72l2.45-6.54-26.43-72.6h11.99l9.94,29.29c3.54,10.35,6.9,20.48,10.08,30.38,2.63-8.44,5.99-18.61,10.08-30.51Z"/>
      <path class="uuid-ababfeac-8b87-4553-b9d9-cacb98c28b32" d="m1170.06,672.31h-13.76v-13.62h13.76v13.62Z"/>
    </g>
  </g>
  <g id="uuid-fbc3cea0-5db9-4d6d-9fd0-b2b4ca458807" data-name="Ellipse 96">
    <ellipse class="uuid-11f5ca9b-c2d7-4a49-a990-581b765811e3" cx="1667.06" cy="640.62" rx="36.42" ry="34.53"/>
    <ellipse class="uuid-fd9fb02e-91e6-44f1-b7c1-debac20894cb" cx="1667.06" cy="640.62" rx="35.94" ry="34.05"/>
  </g>
  <g id="uuid-2693b94f-c24a-4411-8047-0fca96268990" data-name="Ellipse 97">
    <ellipse class="uuid-11f5ca9b-c2d7-4a49-a990-581b765811e3" cx="1570.58" cy="640.62" rx="36.42" ry="34.53"/>
    <ellipse class="uuid-fd9fb02e-91e6-44f1-b7c1-debac20894cb" cx="1570.58" cy="640.62" rx="35.94" ry="34.05"/>
  </g>
  <g id="uuid-e5425b15-f08f-4c6e-8802-cb7aac93a495" data-name="Ellipse 98">
    <ellipse class="uuid-11f5ca9b-c2d7-4a49-a990-581b765811e3" cx="1474.1" cy="640.62" rx="36.42" ry="34.53"/>
    <ellipse class="uuid-fd9fb02e-91e6-44f1-b7c1-debac20894cb" cx="1474.1" cy="640.62" rx="35.94" ry="34.05"/>
  </g>
  <g id="uuid-838434dd-2e5a-442d-a847-6f7ac58ba71a" data-name="Ellipse 99">
    <ellipse class="uuid-11f5ca9b-c2d7-4a49-a990-581b765811e3" cx="1377.61" cy="640.62" rx="36.42" ry="34.53"/>
    <ellipse class="uuid-fd9fb02e-91e6-44f1-b7c1-debac20894cb" cx="1377.61" cy="640.62" rx="35.94" ry="34.05"/>
  </g>
  <g id="uuid-62279740-5921-4377-84ac-e6e6fb5db6dc" data-name="Group 525">
    <g id="uuid-b9ceab3b-7df8-4f27-90dc-43e5eb5cf693" data-name="Group 524">
      <g class="uuid-b122b772-53c0-4433-96bf-097d1141fd2b">
        <g id="uuid-31c5bf78-2201-4ca3-947f-4a01224444c1" data-name="Group 523">
          <g id="uuid-75707e77-7de1-4001-9037-d8a9bd6aed68" data-name="STRIKE FIT" class="uuid-b9e78e90-5e06-45d1-99cc-dd8d962530f5">
            <g class="uuid-b9e78e90-5e06-45d1-99cc-dd8d962530f5">
              <path class="uuid-1ee5d890-cfd9-4d78-924c-f6a24007ecbe" d="m242.91,844.44h112.56v44.38h-88.44c-5.36,0-8.04,2.68-8.04,8.04v62.07c0,5.36,2.68,8.04,8.04,8.04h64.32c9,0,16.61,3.11,22.83,9.33,6.22,6.22,9.33,13.83,9.33,22.83v102.59c0,9-3.11,16.62-9.33,22.83-6.22,6.22-13.83,9.33-22.83,9.33h-120.6v-44.38h96.16c2.36,0,4.34-.75,5.95-2.25,1.61-1.5,2.41-3.43,2.41-5.79v-62.07c0-5.36-2.68-8.04-8.04-8.04h-64.32c-9,0-16.62-3.11-22.83-9.33-6.22-6.22-9.33-13.83-9.33-22.83v-102.59c0-9,3.11-16.61,9.33-22.83,6.22-6.22,13.83-9.33,22.83-9.33Z"/>
              <path class="uuid-1ee5d890-cfd9-4d78-924c-f6a24007ecbe" d="m387.96,844.44h144.73v44.38h-48.24v245.07h-48.24v-245.07h-48.24v-44.38Z"/>
              <path class="uuid-1ee5d890-cfd9-4d78-924c-f6a24007ecbe" d="m557.12,844.44h128.64c8.79,0,16.35,3.17,22.67,9.49,6.32,6.33,9.49,13.88,9.49,22.67v102.59c0,9-3.11,16.62-9.33,22.83-6.22,6.22-13.83,9.33-22.83,9.33h-17.69l57.89,122.53h-53.39l-58.21-122.53h-9.01v122.53h-48.24v-289.45Zm104.52,44.38h-56.28v78.15h56.28c5.36,0,8.04-2.68,8.04-8.04v-62.07c0-5.36-2.68-8.04-8.04-8.04Z"/>
              <path class="uuid-1ee5d890-cfd9-4d78-924c-f6a24007ecbe" d="m754.26,844.44h48.24v289.45h-48.24v-289.45Z"/>
            </g>
            <g class="uuid-b9e78e90-5e06-45d1-99cc-dd8d962530f5">
              <path class="uuid-1ee5d890-cfd9-4d78-924c-f6a24007ecbe" d="m839.17,844.44h48.24v122.53h9.01l58.21-122.53h53.39l-68.5,144.72,68.5,144.73h-53.39l-58.21-122.53h-9.01v122.53h-48.24v-289.45Z"/>
            </g>
            <g class="uuid-b9e78e90-5e06-45d1-99cc-dd8d962530f5">
              <path class="uuid-1ee5d890-cfd9-4d78-924c-f6a24007ecbe" d="m1020.81,844.44h136.68v44.38h-88.44v78.15h80.4v44.38h-80.4v78.15h96.48v44.38h-144.72v-289.45Z"/>
            </g>
            <g class="uuid-b9e78e90-5e06-45d1-99cc-dd8d962530f5">
              <path class="uuid-1ee5d890-cfd9-4d78-924c-f6a24007ecbe" d="m1286.45,844.44h144.72v44.38h-96.48v78.15h88.44v44.38h-88.44v122.53h-48.24v-289.45Z"/>
            </g>
            <g class="uuid-b9e78e90-5e06-45d1-99cc-dd8d962530f5">
              <path class="uuid-1ee5d890-cfd9-4d78-924c-f6a24007ecbe" d="m1475.17,844.44h48.24v289.45h-48.24v-289.45Z"/>
              <path class="uuid-1ee5d890-cfd9-4d78-924c-f6a24007ecbe" d="m1560.07,844.44h144.72v44.38h-48.24v245.07h-48.24v-245.07h-48.24v-44.38Z"/>
            </g>
          </g>
        </g>
      </g>
    </g>
    <g id="uuid-bdb73bf5-82af-422d-8690-b30329e7d34b" data-name="WEIGHT LIFTER CHALK POWDER" class="uuid-b9e78e90-5e06-45d1-99cc-dd8d962530f5">
      <g class="uuid-b9e78e90-5e06-45d1-99cc-dd8d962530f5">
        <path class="uuid-91650e15-ce54-4324-ab81-01d062f67064" d="m220.6,1230.08h16.55l10.71,66.93,11.24-66.93h20.37l11.35,66.93,10.71-66.93h16.55l-15.27,95.47h-22.06l-11.46-67.78-11.46,67.78h-21.96l-15.28-95.47Z"/>
        <path class="uuid-91650e15-ce54-4324-ab81-01d062f67064" d="m322.11,1230.08h45.08v14.64h-29.17v25.78h26.52v14.64h-26.52v25.78h31.82v14.64h-47.74v-95.47Z"/>
        <path class="uuid-91650e15-ce54-4324-ab81-01d062f67064" d="m381.83,1230.08h15.91v95.47h-15.91v-95.47Z"/>
        <path class="uuid-91650e15-ce54-4324-ab81-01d062f67064" d="m420.44,1230.08h39.78v14.64h-31.82c-1.77,0-2.65.88-2.65,2.65v60.89c0,1.77.88,2.65,2.65,2.65h15.91c1.77,0,2.65-.88,2.65-2.65v-23.12h-10.61v-14.64h26.52v55.05h-13.79l-1.49-4.77h-.11c-.42,1.34-1.33,2.48-2.71,3.39-1.38.92-2.85,1.38-4.4,1.38h-19.94c-2.97,0-5.48-1.02-7.53-3.08-2.05-2.05-3.08-4.56-3.08-7.53v-74.25c0-2.97,1.02-5.48,3.08-7.53,2.05-2.05,4.56-3.08,7.53-3.08Z"/>
        <path class="uuid-91650e15-ce54-4324-ab81-01d062f67064" d="m470.94,1230.08h15.91v40.42h23.87v-40.42h15.91v95.47h-15.91v-40.42h-23.87v40.42h-15.91v-95.47Z"/>
        <path class="uuid-91650e15-ce54-4324-ab81-01d062f67064" d="m534.69,1230.08h47.74v14.64h-15.91v80.83h-15.91v-80.83h-15.91v-14.64Z"/>
        <path class="uuid-91650e15-ce54-4324-ab81-01d062f67064" d="m622.31,1230.08h15.91v80.83h31.82v14.64h-47.74v-95.47Z"/>
        <path class="uuid-91650e15-ce54-4324-ab81-01d062f67064" d="m682.03,1230.08h15.91v95.47h-15.91v-95.47Z"/>
        <path class="uuid-91650e15-ce54-4324-ab81-01d062f67064" d="m710.03,1230.08h47.74v14.64h-31.82v25.78h29.17v14.64h-29.17v40.42h-15.91v-95.47Z"/>
        <path class="uuid-91650e15-ce54-4324-ab81-01d062f67064" d="m765.82,1230.08h47.74v14.64h-15.91v80.83h-15.91v-80.83h-15.91v-14.64Z"/>
        <path class="uuid-91650e15-ce54-4324-ab81-01d062f67064" d="m821.62,1230.08h45.08v14.64h-29.17v25.78h26.52v14.64h-26.52v25.78h31.82v14.64h-47.74v-95.47Z"/>
        <path class="uuid-91650e15-ce54-4324-ab81-01d062f67064" d="m877.41,1230.08h42.43c2.9,0,5.39,1.04,7.48,3.13,2.08,2.09,3.13,4.58,3.13,7.48v33.84c0,2.97-1.03,5.48-3.08,7.53-2.05,2.05-4.56,3.08-7.53,3.08h-5.83l19.09,40.42h-17.61l-19.2-40.42h-2.97v40.42h-15.91v-95.47Zm34.48,14.64h-18.56v25.78h18.56c1.77,0,2.65-.88,2.65-2.65v-20.47c0-1.77-.89-2.65-2.65-2.65Z"/>
        <path class="uuid-91650e15-ce54-4324-ab81-01d062f67064" d="m980.94,1230.08h34.48v14.64h-26.52c-1.77,0-2.65.88-2.65,2.65v60.89c0,1.77.88,2.65,2.65,2.65h29.17v14.64h-37.13c-2.97,0-5.48-1.02-7.53-3.08-2.05-2.05-3.08-4.56-3.08-7.53v-74.25c0-2.97,1.03-5.48,3.08-7.53,2.05-2.05,4.56-3.08,7.53-3.08Z"/>
        <path class="uuid-91650e15-ce54-4324-ab81-01d062f67064" d="m1026.13,1230.08h15.91v40.42h23.87v-40.42h15.91v95.47h-15.91v-40.42h-23.87v40.42h-15.91v-95.47Z"/>
        <path class="uuid-91650e15-ce54-4324-ab81-01d062f67064" d="m1108.98,1230.08h19.94l23.23,95.47h-16.34l-5.2-21.22h-23.23l-5.2,21.22h-16.34l23.12-95.47Zm9.97,25.99l-8.06,33.63h16.23l-8.06-33.63h-.11Z"/>
        <path class="uuid-91650e15-ce54-4324-ab81-01d062f67064" d="m1156.29,1230.08h15.91v80.83h31.82v14.64h-47.73v-95.47Z"/>
        <path class="uuid-91650e15-ce54-4324-ab81-01d062f67064" d="m1212.08,1230.08h15.91v40.42h2.97l19.2-40.42h17.61l-22.59,47.73,22.59,47.74h-17.61l-19.2-40.42h-2.97v40.42h-15.91v-95.47Z"/>
        <path class="uuid-91650e15-ce54-4324-ab81-01d062f67064" d="m1305,1230.08h42.43c2.97,0,5.48,1.03,7.53,3.08,2.05,2.05,3.08,4.56,3.08,7.53v39.78c0,2.97-1.03,5.48-3.08,7.53-2.05,2.05-4.56,3.08-7.53,3.08h-26.52v34.48h-15.91v-95.47Zm34.47,14.64h-18.56v31.72h18.56c1.77,0,2.65-.88,2.65-2.65v-26.41c0-1.77-.88-2.65-2.65-2.65Z"/>
        <path class="uuid-91650e15-ce54-4324-ab81-01d062f67064" d="m1376.71,1230.08h31.82c2.97,0,5.48,1.03,7.53,3.08,2.05,2.05,3.08,4.56,3.08,7.53v74.25c0,2.97-1.03,5.48-3.08,7.53s-4.56,3.08-7.53,3.08h-31.82c-2.97,0-5.48-1.02-7.53-3.08-2.05-2.05-3.08-4.56-3.08-7.53v-74.25c0-2.97,1.02-5.48,3.08-7.53,2.05-2.05,4.56-3.08,7.53-3.08Zm23.87,14.64h-15.91c-1.77,0-2.65.88-2.65,2.65v60.89c0,1.77.88,2.65,2.65,2.65h15.91c1.77,0,2.65-.88,2.65-2.65v-60.89c0-1.77-.88-2.65-2.65-2.65Z"/>
        <path class="uuid-91650e15-ce54-4324-ab81-01d062f67064" d="m1423.17,1230.08h16.55l10.71,66.93,11.24-66.93h20.37l11.35,66.93,10.71-66.93h16.55l-15.28,95.47h-22.06l-11.46-67.78-11.46,67.78h-21.96l-15.28-95.47Z"/>
        <path class="uuid-91650e15-ce54-4324-ab81-01d062f67064" d="m1524.69,1230.08h42.43c2.97,0,5.48,1.03,7.53,3.08,2.05,2.05,3.08,4.56,3.08,7.53v74.25c0,2.97-1.03,5.48-3.08,7.53s-4.56,3.08-7.53,3.08h-42.43v-95.47Zm34.47,14.64h-18.56v66.19h18.56c1.77,0,2.65-.88,2.65-2.65v-60.89c0-1.77-.88-2.65-2.65-2.65Z"/>
        <path class="uuid-91650e15-ce54-4324-ab81-01d062f67064" d="m1585.79,1230.08h45.08v14.64h-29.17v25.78h26.52v14.64h-26.52v25.78h31.82v14.64h-47.73v-95.47Z"/>
        <path class="uuid-91650e15-ce54-4324-ab81-01d062f67064" d="m1641.58,1230.08h42.43c2.9,0,5.39,1.04,7.48,3.13,2.08,2.09,3.13,4.58,3.13,7.48v33.84c0,2.97-1.03,5.48-3.08,7.53-2.05,2.05-4.56,3.08-7.53,3.08h-5.83l19.09,40.42h-17.61l-19.2-40.42h-2.97v40.42h-15.91v-95.47Zm34.47,14.64h-18.56v25.78h18.56c1.77,0,2.65-.88,2.65-2.65v-20.47c0-1.77-.88-2.65-2.65-2.65Z"/>
      </g>
    </g>
    <rect id="uuid-00265898-90d2-4dd4-ba35-0fcf67432ac3" data-name="Rectangle 1000" class="uuid-91650e15-ce54-4324-ab81-01d062f67064" x="212.45" y="1172.22" width="1482.52" height="38.34"/>
    <rect id="uuid-83a86301-0198-446a-b439-ef4aa5e308a0" data-name="Rectangle 1001" class="uuid-1ee5d890-cfd9-4d78-924c-f6a24007ecbe" x="206.05" y="1349.55" width="1482.53" height="14.38"/>
  </g>
</svg>