<?xml version="1.0" encoding="UTF-8"?>
<svg id="uuid-5ecfadd0-a569-4849-8e73-70f6c7db6aea" data-name="Layer 1" xmlns="http://www.w3.org/2000/svg" xmlns:xlink="http://www.w3.org/1999/xlink" viewBox="0 0 1920 950">
  <defs>
    <style>
      .uuid-486c52b1-9ef2-4b8f-a8b0-c71d1dd34ed0 {
        isolation: isolate;
      }

      .uuid-9e2a685a-ad85-4932-9065-32a8536dc565 {
        fill: #f4f4f4;
        stroke-width: 0px;
      }
    </style>
  </defs>
  <g id="uuid-60053dd3-8e00-4e9d-aa15-69c674ede8a1" data-name="Group 514">
    <g id="uuid-90b72180-459d-46f4-9c0d-ada40105440e" data-name="Experience the pinnacle of performance with StrikeFit Paris premier athletic hand dust designed to transform your weightlifting journey. Born from the essence of French finesse and engineered for supremacy StrikeFit is the silent confident to your relen" class="uuid-486c52b1-9ef2-4b8f-a8b0-c71d1dd34ed0">
      <g class="uuid-486c52b1-9ef2-4b8f-a8b0-c71d1dd34ed0">
        <path class="uuid-9e2a685a-ad85-4932-9065-32a8536dc565" d="m1078.6,156.27v4.56h-24.66v13.62h22.26v4.56h-22.26v15.42h24.42v4.56h-29.46v-42.72h29.7Z"/>
        <path class="uuid-9e2a685a-ad85-4932-9065-32a8536dc565" d="m1108.96,168.03l-11.22,15.12,11.82,15.84h-5.64l-1.68-2.34c-2.92-4.16-5.34-7.52-7.26-10.08-2.88,3.88-5.34,7.26-7.38,10.14l-1.62,2.28h-5.58l11.82-15.84-11.22-15.12h5.64l2.4,3.3c2.68,3.6,4.68,6.4,6,8.4,3.04-4.28,5.04-7.08,6-8.4l2.34-3.3h5.58Z"/>
        <path class="uuid-9e2a685a-ad85-4932-9065-32a8536dc565" d="m1128.04,167.31c4.36,0,7.86,1.46,10.5,4.38,2.6,2.96,3.9,6.9,3.9,11.82s-1.3,8.8-3.9,11.76c-2.64,2.96-6.14,4.44-10.5,4.44s-7.9-1.72-10.38-5.16v16.2h-4.8v-42.72h4.56v4.8c2.48-3.68,6.02-5.52,10.62-5.52Zm-.6,28.08c3,0,5.41-1.09,7.23-3.27,1.82-2.18,2.73-5.13,2.73-8.85s-.89-6.49-2.67-8.55c-1.78-2.06-4.21-3.09-7.29-3.09s-5.46,1.04-7.26,3.12c-1.8,2.08-2.7,5-2.7,8.76s.9,6.62,2.7,8.7c1.8,2.12,4.22,3.18,7.26,3.18Z"/>
        <path class="uuid-9e2a685a-ad85-4932-9065-32a8536dc565" d="m1175.14,183.51v1.68h-23.52c.24,3.36,1.18,5.89,2.82,7.59,1.64,1.7,3.88,2.55,6.72,2.55,4.28,0,7.02-1.92,8.22-5.76h4.98c-.84,3.12-2.4,5.59-4.68,7.41s-5.16,2.73-8.64,2.73c-4.28,0-7.74-1.46-10.38-4.38-2.68-2.92-4.02-6.86-4.02-11.82s1.32-8.8,3.96-11.76c2.6-2.96,6.04-4.44,10.32-4.44s7.92,1.54,10.44,4.62c2.52,3.08,3.78,6.94,3.78,11.58Zm-14.22-11.82c-2.52,0-4.58.79-6.18,2.37-1.6,1.58-2.6,3.85-3,6.81h18.24c-.24-2.72-1.16-4.93-2.76-6.63-1.6-1.7-3.7-2.55-6.3-2.55Z"/>
        <path class="uuid-9e2a685a-ad85-4932-9065-32a8536dc565" d="m1195.36,167.55c.8,0,1.34.02,1.62.06v4.62h-1.2c-3.2,0-5.69.79-7.47,2.37-1.78,1.58-2.67,3.83-2.67,6.75v17.64h-4.8v-30.96h4.56v5.46c2.08-3.96,5.4-5.94,9.96-5.94Z"/>
        <path class="uuid-9e2a685a-ad85-4932-9065-32a8536dc565" d="m1206.4,163.35h-5.1v-5.88h5.1v5.88Zm-.12,35.64h-4.8v-30.96h4.8v30.96Z"/>
        <path class="uuid-9e2a685a-ad85-4932-9065-32a8536dc565" d="m1240.48,183.51v1.68h-23.52c.24,3.36,1.18,5.89,2.82,7.59,1.64,1.7,3.88,2.55,6.72,2.55,4.28,0,7.02-1.92,8.22-5.76h4.98c-.84,3.12-2.4,5.59-4.68,7.41-2.28,1.82-5.16,2.73-8.64,2.73-4.28,0-7.74-1.46-10.38-4.38-2.68-2.92-4.02-6.86-4.02-11.82s1.32-8.8,3.96-11.76c2.6-2.96,6.04-4.44,10.32-4.44s7.92,1.54,10.44,4.62c2.52,3.08,3.78,6.94,3.78,11.58Zm-14.22-11.82c-2.52,0-4.58.79-6.18,2.37-1.6,1.58-2.6,3.85-3,6.81h18.24c-.24-2.72-1.16-4.93-2.76-6.63-1.6-1.7-3.7-2.55-6.3-2.55Z"/>
        <path class="uuid-9e2a685a-ad85-4932-9065-32a8536dc565" d="m1260.46,167.31c3.44,0,6.12.94,8.04,2.82,1.92,1.88,2.88,4.52,2.88,7.92v20.94h-4.8v-20.46c0-4.6-2.36-6.9-7.08-6.9-2.24,0-4.22.84-5.94,2.52s-2.58,4.12-2.58,7.32v17.52h-4.8v-30.96h4.56v4.62c2.36-3.56,5.6-5.34,9.72-5.34Z"/>
        <path class="uuid-9e2a685a-ad85-4932-9065-32a8536dc565" d="m1291.42,199.71c-4.28,0-7.74-1.48-10.38-4.44-2.64-2.96-3.96-6.88-3.96-11.76s1.32-8.9,3.96-11.82c2.56-2.92,6.02-4.38,10.38-4.38,3.68,0,6.7,1,9.06,3,2.36,2,3.78,4.74,4.26,8.22h-4.98c-.36-2.2-1.31-3.9-2.85-5.1-1.54-1.2-3.37-1.8-5.49-1.8-2.84,0-5.1,1.03-6.78,3.09-1.68,2.06-2.52,4.99-2.52,8.79s.85,6.68,2.55,8.76,3.95,3.12,6.75,3.12c2.12,0,3.96-.62,5.52-1.86,1.56-1.24,2.52-2.96,2.88-5.16h4.92c-.52,3.48-1.99,6.24-4.41,8.28-2.42,2.04-5.39,3.06-8.91,3.06Z"/>
        <path class="uuid-9e2a685a-ad85-4932-9065-32a8536dc565" d="m1336.84,183.51v1.68h-23.52c.24,3.36,1.18,5.89,2.82,7.59,1.64,1.7,3.88,2.55,6.72,2.55,4.28,0,7.02-1.92,8.22-5.76h4.98c-.84,3.12-2.4,5.59-4.68,7.41s-5.16,2.73-8.64,2.73c-4.28,0-7.74-1.46-10.38-4.38-2.68-2.92-4.02-6.86-4.02-11.82s1.32-8.8,3.96-11.76c2.6-2.96,6.04-4.44,10.32-4.44s7.92,1.54,10.44,4.62c2.52,3.08,3.78,6.94,3.78,11.58Zm-14.22-11.82c-2.52,0-4.58.79-6.18,2.37-1.6,1.58-2.6,3.85-3,6.81h18.24c-.24-2.72-1.16-4.93-2.76-6.63-1.6-1.7-3.7-2.55-6.3-2.55Z"/>
        <path class="uuid-9e2a685a-ad85-4932-9065-32a8536dc565" d="m1367.5,168.03v4.2h-6.36v20.1c0,1.76,1.18,2.64,3.54,2.64h2.82v4.02c-1.32.12-2.46.18-3.42.18-5.16,0-7.74-2.14-7.74-6.42v-20.52h-5.1v-4.2h5.1v-8.76h4.8v8.76h6.36Z"/>
        <path class="uuid-9e2a685a-ad85-4932-9065-32a8536dc565" d="m1386.88,167.31c3.44,0,6.12.94,8.04,2.82,1.92,1.88,2.88,4.52,2.88,7.92v20.94h-4.8v-20.46c0-4.6-2.36-6.9-7.08-6.9-2.24,0-4.22.84-5.94,2.52s-2.58,4.12-2.58,7.32v17.52h-4.8v-42.72h4.8v16.02c2.36-3.32,5.52-4.98,9.48-4.98Z"/>
        <path class="uuid-9e2a685a-ad85-4932-9065-32a8536dc565" d="m1432,183.51v1.68h-23.52c.24,3.36,1.18,5.89,2.82,7.59,1.64,1.7,3.88,2.55,6.72,2.55,4.28,0,7.02-1.92,8.22-5.76h4.98c-.84,3.12-2.4,5.59-4.68,7.41s-5.16,2.73-8.64,2.73c-4.28,0-7.74-1.46-10.38-4.38-2.68-2.92-4.02-6.86-4.02-11.82s1.32-8.8,3.96-11.76c2.6-2.96,6.04-4.44,10.32-4.44s7.92,1.54,10.44,4.62c2.52,3.08,3.78,6.94,3.78,11.58Zm-14.22-11.82c-2.52,0-4.58.79-6.18,2.37-1.6,1.58-2.6,3.85-3,6.81h18.24c-.24-2.72-1.16-4.93-2.76-6.63-1.6-1.7-3.7-2.55-6.3-2.55Z"/>
        <path class="uuid-9e2a685a-ad85-4932-9065-32a8536dc565" d="m1464.27,167.31c4.36,0,7.86,1.46,10.5,4.38,2.6,2.96,3.9,6.9,3.9,11.82s-1.3,8.8-3.9,11.76c-2.64,2.96-6.14,4.44-10.5,4.44s-7.9-1.72-10.38-5.16v16.2h-4.8v-42.72h4.56v4.8c2.48-3.68,6.02-5.52,10.62-5.52Zm-.6,28.08c3,0,5.41-1.09,7.23-3.27,1.82-2.18,2.73-5.13,2.73-8.85s-.89-6.49-2.67-8.55c-1.78-2.06-4.21-3.09-7.29-3.09s-5.46,1.04-7.26,3.12c-1.8,2.08-2.7,5-2.7,8.76s.9,6.62,2.7,8.7c1.8,2.12,4.22,3.18,7.26,3.18Z"/>
        <path class="uuid-9e2a685a-ad85-4932-9065-32a8536dc565" d="m1489.29,163.35h-5.1v-5.88h5.1v5.88Zm-.12,35.64h-4.8v-30.96h4.8v30.96Z"/>
        <path class="uuid-9e2a685a-ad85-4932-9065-32a8536dc565" d="m1510.65,167.31c3.44,0,6.12.94,8.04,2.82,1.92,1.88,2.88,4.52,2.88,7.92v20.94h-4.8v-20.46c0-4.6-2.36-6.9-7.08-6.9-2.24,0-4.22.84-5.94,2.52s-2.58,4.12-2.58,7.32v17.52h-4.8v-30.96h4.56v4.62c2.36-3.56,5.6-5.34,9.72-5.34Z"/>
        <path class="uuid-9e2a685a-ad85-4932-9065-32a8536dc565" d="m1543.05,167.31c3.44,0,6.12.94,8.04,2.82,1.92,1.88,2.88,4.52,2.88,7.92v20.94h-4.8v-20.46c0-4.6-2.36-6.9-7.08-6.9-2.24,0-4.22.84-5.94,2.52s-2.58,4.12-2.58,7.32v17.52h-4.8v-30.96h4.56v4.62c2.36-3.56,5.6-5.34,9.72-5.34Z"/>
        <path class="uuid-9e2a685a-ad85-4932-9065-32a8536dc565" d="m1586.49,195.09h1.74v3.9c-.8.12-1.68.18-2.64.18-3.24,0-4.98-1.48-5.22-4.44-2.16,3.32-5.52,4.98-10.08,4.98-3.4,0-6.07-.79-8.01-2.37-1.94-1.58-2.91-3.81-2.91-6.69,0-5.6,3.82-8.8,11.46-9.6l4.44-.48c3.24-.36,4.86-1.78,4.86-4.26,0-1.72-.53-2.96-1.59-3.72-1.06-.76-2.85-1.14-5.37-1.14-2.68,0-4.61.45-5.79,1.35-1.18.9-1.85,2.49-2.01,4.77h-4.8c.4-6.84,4.6-10.26,12.6-10.26s11.64,3,11.64,9v17.28c0,1,.56,1.5,1.68,1.5Zm-15.96.54c2.56,0,4.8-.78,6.72-2.34,1.92-1.52,2.88-3.7,2.88-6.54v-3.66c-.88.68-2.24,1.12-4.08,1.32l-4.5.54c-2.6.32-4.45.92-5.55,1.8-1.1.88-1.65,2.14-1.65,3.78s.52,2.85,1.56,3.75,2.58,1.35,4.62,1.35Z"/>
        <path class="uuid-9e2a685a-ad85-4932-9065-32a8536dc565" d="m1604.97,199.71c-4.28,0-7.74-1.48-10.38-4.44-2.64-2.96-3.96-6.88-3.96-11.76s1.32-8.9,3.96-11.82c2.56-2.92,6.02-4.38,10.38-4.38,3.68,0,6.7,1,9.06,3,2.36,2,3.78,4.74,4.26,8.22h-4.98c-.36-2.2-1.31-3.9-2.85-5.1-1.54-1.2-3.37-1.8-5.49-1.8-2.84,0-5.1,1.03-6.78,3.09-1.68,2.06-2.52,4.99-2.52,8.79s.85,6.68,2.55,8.76,3.95,3.12,6.75,3.12c2.12,0,3.96-.62,5.52-1.86,1.56-1.24,2.52-2.96,2.88-5.16h4.92c-.52,3.48-1.99,6.24-4.41,8.28-2.42,2.04-5.39,3.06-8.91,3.06Z"/>
        <path class="uuid-9e2a685a-ad85-4932-9065-32a8536dc565" d="m1628.19,198.99h-4.8v-42.72h4.8v42.72Z"/>
        <path class="uuid-9e2a685a-ad85-4932-9065-32a8536dc565" d="m1662.39,183.51v1.68h-23.52c.24,3.36,1.18,5.89,2.82,7.59,1.64,1.7,3.88,2.55,6.72,2.55,4.28,0,7.02-1.92,8.22-5.76h4.98c-.84,3.12-2.4,5.59-4.68,7.41-2.28,1.82-5.16,2.73-8.64,2.73-4.28,0-7.74-1.46-10.38-4.38-2.68-2.92-4.02-6.86-4.02-11.82s1.32-8.8,3.96-11.76c2.6-2.96,6.04-4.44,10.32-4.44s7.92,1.54,10.44,4.62c2.52,3.08,3.78,6.94,3.78,11.58Zm-14.22-11.82c-2.52,0-4.58.79-6.18,2.37-1.6,1.58-2.6,3.85-3,6.81h18.24c-.24-2.72-1.16-4.93-2.76-6.63-1.6-1.7-3.7-2.55-6.3-2.55Z"/>
        <path class="uuid-9e2a685a-ad85-4932-9065-32a8536dc565" d="m1703.79,195.27c-2.84,2.96-6.44,4.44-10.8,4.44s-7.96-1.48-10.8-4.44c-2.8-2.92-4.2-6.84-4.2-11.76s1.4-8.84,4.2-11.76c2.84-2.96,6.44-4.44,10.8-4.44s7.96,1.48,10.8,4.44c2.8,2.92,4.2,6.84,4.2,11.76s-1.4,8.84-4.2,11.76Zm-18.06-3.06c1.8,2.12,4.22,3.18,7.26,3.18s5.46-1.06,7.26-3.18c1.8-2.08,2.7-4.98,2.7-8.7s-.9-6.68-2.7-8.76c-1.8-2.08-4.22-3.12-7.26-3.12s-5.46,1.04-7.26,3.12c-1.8,2.08-2.7,5-2.7,8.76s.9,6.62,2.7,8.7Z"/>
        <path class="uuid-9e2a685a-ad85-4932-9065-32a8536dc565" d="m1726.59,160.35h-2.76c-2.76,0-4.14,1.46-4.14,4.38v3.3h6.6v4.2h-6.6v26.76h-4.8v-26.76h-5.1v-4.2h5.1v-3.18c0-5.8,2.88-8.7,8.64-8.7.76,0,1.78.04,3.06.12v4.08Z"/>
      </g>
      <g class="uuid-486c52b1-9ef2-4b8f-a8b0-c71d1dd34ed0">
        <path class="uuid-9e2a685a-ad85-4932-9065-32a8536dc565" d="m1063.78,237.31c4.36,0,7.86,1.46,10.5,4.38,2.6,2.96,3.9,6.9,3.9,11.82s-1.3,8.8-3.9,11.76c-2.64,2.96-6.14,4.44-10.5,4.44s-7.9-1.72-10.38-5.16v16.2h-4.8v-42.72h4.56v4.8c2.48-3.68,6.02-5.52,10.62-5.52Zm-.6,28.08c3,0,5.41-1.09,7.23-3.27,1.82-2.18,2.73-5.13,2.73-8.85s-.89-6.49-2.67-8.55c-1.78-2.06-4.21-3.09-7.29-3.09s-5.46,1.04-7.26,3.12c-1.8,2.08-2.7,5-2.7,8.76s.9,6.62,2.7,8.7c1.8,2.12,4.22,3.18,7.26,3.18Z"/>
        <path class="uuid-9e2a685a-ad85-4932-9065-32a8536dc565" d="m1110.88,253.51v1.68h-23.52c.24,3.36,1.18,5.89,2.82,7.59,1.64,1.7,3.88,2.55,6.72,2.55,4.28,0,7.02-1.92,8.22-5.76h4.98c-.84,3.12-2.4,5.59-4.68,7.41-2.28,1.82-5.16,2.73-8.64,2.73-4.28,0-7.74-1.46-10.38-4.38-2.68-2.92-4.02-6.86-4.02-11.82s1.32-8.8,3.96-11.76c2.6-2.96,6.04-4.44,10.32-4.44s7.92,1.54,10.44,4.62c2.52,3.08,3.78,6.94,3.78,11.58Zm-14.22-11.82c-2.52,0-4.58.79-6.18,2.37-1.6,1.58-2.6,3.85-3,6.81h18.24c-.24-2.72-1.16-4.93-2.76-6.63-1.6-1.7-3.7-2.55-6.3-2.55Z"/>
        <path class="uuid-9e2a685a-ad85-4932-9065-32a8536dc565" d="m1131.1,237.55c.8,0,1.34.02,1.62.06v4.62h-1.2c-3.2,0-5.69.79-7.47,2.37s-2.67,3.83-2.67,6.75v17.64h-4.8v-30.96h4.56v5.46c2.08-3.96,5.4-5.94,9.96-5.94Z"/>
        <path class="uuid-9e2a685a-ad85-4932-9065-32a8536dc565" d="m1151.92,230.35h-2.76c-2.76,0-4.14,1.46-4.14,4.38v3.3h6.6v4.2h-6.6v26.76h-4.8v-26.76h-5.1v-4.2h5.1v-3.18c0-5.8,2.88-8.7,8.64-8.7.76,0,1.78.04,3.06.12v4.08Z"/>
        <path class="uuid-9e2a685a-ad85-4932-9065-32a8536dc565" d="m1178.92,265.27c-2.84,2.96-6.44,4.44-10.8,4.44s-7.96-1.48-10.8-4.44c-2.8-2.92-4.2-6.84-4.2-11.76s1.4-8.84,4.2-11.76c2.84-2.96,6.44-4.44,10.8-4.44s7.96,1.48,10.8,4.44c2.8,2.92,4.2,6.84,4.2,11.76s-1.4,8.84-4.2,11.76Zm-18.06-3.06c1.8,2.12,4.22,3.18,7.26,3.18s5.46-1.06,7.26-3.18c1.8-2.08,2.7-4.98,2.7-8.7s-.9-6.68-2.7-8.76c-1.8-2.08-4.22-3.12-7.26-3.12s-5.46,1.04-7.26,3.12c-1.8,2.08-2.7,5-2.7,8.76s.9,6.62,2.7,8.7Z"/>
        <path class="uuid-9e2a685a-ad85-4932-9065-32a8536dc565" d="m1203.34,237.55c.8,0,1.34.02,1.62.06v4.62h-1.2c-3.2,0-5.69.79-7.47,2.37s-2.67,3.83-2.67,6.75v17.64h-4.8v-30.96h4.56v5.46c2.08-3.96,5.4-5.94,9.96-5.94Z"/>
        <path class="uuid-9e2a685a-ad85-4932-9065-32a8536dc565" d="m1242.04,237.31c3.36,0,5.97.97,7.83,2.91s2.79,4.53,2.79,7.77v21h-4.8v-20.52c0-4.56-2.16-6.84-6.48-6.84-2.28,0-4.17.91-5.67,2.73-1.5,1.82-2.25,4.39-2.25,7.71v16.92h-4.8v-20.52c0-4.56-2.16-6.84-6.48-6.84-2.24,0-4.12.91-5.64,2.73-1.52,1.82-2.28,4.39-2.28,7.71v16.92h-4.8v-30.96h4.56v4.56c2.04-3.52,5.02-5.28,8.94-5.28,4.64,0,7.82,1.94,9.54,5.82,2.16-3.88,5.34-5.82,9.54-5.82Z"/>
        <path class="uuid-9e2a685a-ad85-4932-9065-32a8536dc565" d="m1285.18,265.09h1.74v3.9c-.8.12-1.68.18-2.64.18-3.24,0-4.98-1.48-5.22-4.44-2.16,3.32-5.52,4.98-10.08,4.98-3.4,0-6.07-.79-8.01-2.37-1.94-1.58-2.91-3.81-2.91-6.69,0-5.6,3.82-8.8,11.46-9.6l4.44-.48c3.24-.36,4.86-1.78,4.86-4.26,0-1.72-.53-2.96-1.59-3.72-1.06-.76-2.85-1.14-5.37-1.14-2.68,0-4.61.45-5.79,1.35-1.18.9-1.85,2.49-2.01,4.77h-4.8c.4-6.84,4.6-10.26,12.6-10.26s11.64,3,11.64,9v17.28c0,1,.56,1.5,1.68,1.5Zm-15.96.54c2.56,0,4.8-.78,6.72-2.34,1.92-1.52,2.88-3.7,2.88-6.54v-3.66c-.88.68-2.24,1.12-4.08,1.32l-4.5.54c-2.6.32-4.45.92-5.55,1.8-1.1.88-1.65,2.14-1.65,3.78s.52,2.85,1.56,3.75c1.04.9,2.58,1.35,4.62,1.35Z"/>
        <path class="uuid-9e2a685a-ad85-4932-9065-32a8536dc565" d="m1305.4,237.31c3.44,0,6.12.94,8.04,2.82,1.92,1.88,2.88,4.52,2.88,7.92v20.94h-4.8v-20.46c0-4.6-2.36-6.9-7.08-6.9-2.24,0-4.22.84-5.94,2.52s-2.58,4.12-2.58,7.32v17.52h-4.8v-30.96h4.56v4.62c2.36-3.56,5.6-5.34,9.72-5.34Z"/>
        <path class="uuid-9e2a685a-ad85-4932-9065-32a8536dc565" d="m1336.36,269.71c-4.28,0-7.74-1.48-10.38-4.44-2.64-2.96-3.96-6.88-3.96-11.76s1.32-8.9,3.96-11.82c2.56-2.92,6.02-4.38,10.38-4.38,3.68,0,6.7,1,9.06,3s3.78,4.74,4.26,8.22h-4.98c-.36-2.2-1.31-3.9-2.85-5.1-1.54-1.2-3.37-1.8-5.49-1.8-2.84,0-5.1,1.03-6.78,3.09s-2.52,4.99-2.52,8.79.85,6.68,2.55,8.76c1.7,2.08,3.95,3.12,6.75,3.12,2.12,0,3.96-.62,5.52-1.86,1.56-1.24,2.52-2.96,2.88-5.16h4.92c-.52,3.48-1.99,6.24-4.41,8.28-2.42,2.04-5.39,3.06-8.91,3.06Z"/>
        <path class="uuid-9e2a685a-ad85-4932-9065-32a8536dc565" d="m1381.78,253.51v1.68h-23.52c.24,3.36,1.18,5.89,2.82,7.59,1.64,1.7,3.88,2.55,6.72,2.55,4.28,0,7.02-1.92,8.22-5.76h4.98c-.84,3.12-2.4,5.59-4.68,7.41-2.28,1.82-5.16,2.73-8.64,2.73-4.28,0-7.74-1.46-10.38-4.38-2.68-2.92-4.02-6.86-4.02-11.82s1.32-8.8,3.96-11.76c2.6-2.96,6.04-4.44,10.32-4.44s7.92,1.54,10.44,4.62c2.52,3.08,3.78,6.94,3.78,11.58Zm-14.22-11.82c-2.52,0-4.58.79-6.18,2.37-1.6,1.58-2.6,3.85-3,6.81h18.24c-.24-2.72-1.16-4.93-2.76-6.63-1.6-1.7-3.7-2.55-6.3-2.55Z"/>
        <path class="uuid-9e2a685a-ad85-4932-9065-32a8536dc565" d="m1432.12,252.01l4.38-13.98h5.16l-10.32,30.96h-5.04l-4.56-14.34c-1.56-5.08-2.6-8.58-3.12-10.5-.92,3.28-1.98,6.78-3.18,10.5l-4.5,14.34h-5.04l-10.32-30.96h5.16l4.38,13.98c1.08,3.4,2.2,7.16,3.36,11.28,1.28-4.56,2.38-8.32,3.3-11.28l4.32-13.98h5.04l4.32,13.98c2.2,7.32,3.32,11.04,3.36,11.16.32-1.24,1.42-4.96,3.3-11.16Z"/>
        <path class="uuid-9e2a685a-ad85-4932-9065-32a8536dc565" d="m1450.18,233.35h-5.1v-5.88h5.1v5.88Zm-.12,35.64h-4.8v-30.96h4.8v30.96Z"/>
        <path class="uuid-9e2a685a-ad85-4932-9065-32a8536dc565" d="m1470.82,238.03v4.2h-6.36v20.1c0,1.76,1.18,2.64,3.54,2.64h2.82v4.02c-1.32.12-2.46.18-3.42.18-5.16,0-7.74-2.14-7.74-6.42v-20.52h-5.1v-4.2h5.1v-8.76h4.8v8.76h6.36Z"/>
        <path class="uuid-9e2a685a-ad85-4932-9065-32a8536dc565" d="m1490.2,237.31c3.44,0,6.12.94,8.04,2.82,1.92,1.88,2.88,4.52,2.88,7.92v20.94h-4.8v-20.46c0-4.6-2.36-6.9-7.08-6.9-2.24,0-4.22.84-5.94,2.52-1.72,1.68-2.58,4.12-2.58,7.32v17.52h-4.8v-42.72h4.8v16.02c2.36-3.32,5.52-4.98,9.48-4.98Z"/>
        <path class="uuid-9e2a685a-ad85-4932-9065-32a8536dc565" d="m1535.68,269.95c-5.56,0-9.9-1.26-13.02-3.78-3.12-2.52-4.7-6.28-4.74-11.28h5.22c.12,7,4.3,10.5,12.54,10.5,3.48,0,6.15-.68,8.01-2.04,1.86-1.36,2.79-3.34,2.79-5.94,0-2.04-.77-3.63-2.31-4.77-1.54-1.14-4.23-2.13-8.07-2.97l-3.78-.84c-4.32-1-7.56-2.45-9.72-4.35-2.16-1.9-3.24-4.57-3.24-8.01s1.32-6.11,3.96-8.13c2.64-2.02,6.18-3.03,10.62-3.03,3,0,5.61.36,7.83,1.08,2.22.72,3.95,1.73,5.19,3.03,1.24,1.3,2.15,2.71,2.73,4.23.58,1.52.89,3.2.93,5.04h-5.16c-.24-3.04-1.23-5.27-2.97-6.69-1.74-1.42-4.59-2.13-8.55-2.13-3,0-5.31.58-6.93,1.74-1.62,1.16-2.43,2.78-2.43,4.86s.7,3.7,2.1,4.86c1.36,1.16,4,2.18,7.92,3.06l3.78.84c4.72,1.04,8.12,2.53,10.2,4.47,2.08,1.94,3.12,4.51,3.12,7.71,0,3.88-1.42,6.94-4.26,9.18-2.84,2.24-6.76,3.36-11.76,3.36Z"/>
        <path class="uuid-9e2a685a-ad85-4932-9065-32a8536dc565" d="m1569.76,238.03v4.2h-6.36v20.1c0,1.76,1.18,2.64,3.54,2.64h2.82v4.02c-1.32.12-2.46.18-3.42.18-5.16,0-7.74-2.14-7.74-6.42v-20.52h-5.1v-4.2h5.1v-8.76h4.8v8.76h6.36Z"/>
        <path class="uuid-9e2a685a-ad85-4932-9065-32a8536dc565" d="m1589.37,237.55c.8,0,1.34.02,1.62.06v4.62h-1.2c-3.2,0-5.69.79-7.47,2.37-1.78,1.58-2.67,3.83-2.67,6.75v17.64h-4.8v-30.96h4.56v5.46c2.08-3.96,5.4-5.94,9.96-5.94Z"/>
        <path class="uuid-9e2a685a-ad85-4932-9065-32a8536dc565" d="m1600.41,233.35h-5.1v-5.88h5.1v5.88Zm-.12,35.64h-4.8v-30.96h4.8v30.96Z"/>
        <path class="uuid-9e2a685a-ad85-4932-9065-32a8536dc565" d="m1633.83,268.99h-5.58l-10.44-16.62-5.52,5.16v11.46h-4.8v-42.72h4.8v25.62l14.34-13.86h6.36l-11.76,11.16,12.6,19.8Z"/>
        <path class="uuid-9e2a685a-ad85-4932-9065-32a8536dc565" d="m1662.63,253.51v1.68h-23.52c.24,3.36,1.18,5.89,2.82,7.59,1.64,1.7,3.88,2.55,6.72,2.55,4.28,0,7.02-1.92,8.22-5.76h4.98c-.84,3.12-2.4,5.59-4.68,7.41s-5.16,2.73-8.64,2.73c-4.28,0-7.74-1.46-10.38-4.38-2.68-2.92-4.02-6.86-4.02-11.82s1.32-8.8,3.96-11.76c2.6-2.96,6.04-4.44,10.32-4.44s7.92,1.54,10.44,4.62c2.52,3.08,3.78,6.94,3.78,11.58Zm-14.22-11.82c-2.52,0-4.58.79-6.18,2.37-1.6,1.58-2.6,3.85-3,6.81h18.24c-.24-2.72-1.16-4.93-2.76-6.63-1.6-1.7-3.7-2.55-6.3-2.55Z"/>
        <path class="uuid-9e2a685a-ad85-4932-9065-32a8536dc565" d="m1696.59,226.27v4.56h-23.22v13.62h20.82v4.56h-20.82v19.98h-5.04v-42.72h28.26Z"/>
        <path class="uuid-9e2a685a-ad85-4932-9065-32a8536dc565" d="m1705.12,233.35h-5.1v-5.88h5.1v5.88Zm-.12,35.64h-4.8v-30.96h4.8v30.96Z"/>
        <path class="uuid-9e2a685a-ad85-4932-9065-32a8536dc565" d="m1725.76,238.03v4.2h-6.36v20.1c0,1.76,1.18,2.64,3.54,2.64h2.82v4.02c-1.32.12-2.46.18-3.42.18-5.16,0-7.74-2.14-7.74-6.42v-20.52h-5.1v-4.2h5.1v-8.76h4.8v8.76h6.36Z"/>
        <path class="uuid-9e2a685a-ad85-4932-9065-32a8536dc565" d="m1729.96,268.99v-6h6.06v6.54c0,4.8-1.82,7.38-5.46,7.74l-.6.06v-3.24l.42-.06c1.48-.16,2.22-1.52,2.22-4.08v-.96h-2.64Z"/>
      </g>
      <g class="uuid-486c52b1-9ef2-4b8f-a8b0-c71d1dd34ed0">
        <path class="uuid-9e2a685a-ad85-4932-9065-32a8536dc565" d="m1048.9,296.27h17.76c4.52,0,8.01,1.18,10.47,3.54s3.69,5.56,3.69,9.6-1.23,7.24-3.69,9.6c-2.46,2.36-5.95,3.54-10.47,3.54h-12.72v16.44h-5.04v-42.72Zm5.04,21.72h12.72c2.96,0,5.19-.73,6.69-2.19,1.5-1.46,2.25-3.59,2.25-6.39s-.75-4.93-2.25-6.39-3.73-2.19-6.69-2.19h-12.72v17.16Z"/>
        <path class="uuid-9e2a685a-ad85-4932-9065-32a8536dc565" d="m1109.38,335.09h1.74v3.9c-.8.12-1.68.18-2.64.18-3.24,0-4.98-1.48-5.22-4.44-2.16,3.32-5.52,4.98-10.08,4.98-3.4,0-6.07-.79-8.01-2.37-1.94-1.58-2.91-3.81-2.91-6.69,0-5.6,3.82-8.8,11.46-9.6l4.44-.48c3.24-.36,4.86-1.78,4.86-4.26,0-1.72-.53-2.96-1.59-3.72-1.06-.76-2.85-1.14-5.37-1.14-2.68,0-4.61.45-5.79,1.35-1.18.9-1.85,2.49-2.01,4.77h-4.8c.4-6.84,4.6-10.26,12.6-10.26s11.64,3,11.64,9v17.28c0,1,.56,1.5,1.68,1.5Zm-15.96.54c2.56,0,4.8-.78,6.72-2.34,1.92-1.52,2.88-3.7,2.88-6.54v-3.66c-.88.68-2.24,1.12-4.08,1.32l-4.5.54c-2.6.32-4.45.92-5.55,1.8-1.1.88-1.65,2.14-1.65,3.78s.52,2.85,1.56,3.75c1.04.9,2.58,1.35,4.62,1.35Z"/>
        <path class="uuid-9e2a685a-ad85-4932-9065-32a8536dc565" d="m1129.84,307.55c.8,0,1.34.02,1.62.06v4.62h-1.2c-3.2,0-5.69.79-7.47,2.37s-2.67,3.83-2.67,6.75v17.64h-4.8v-30.96h4.56v5.46c2.08-3.96,5.4-5.94,9.96-5.94Z"/>
        <path class="uuid-9e2a685a-ad85-4932-9065-32a8536dc565" d="m1140.88,303.35h-5.1v-5.88h5.1v5.88Zm-.12,35.64h-4.8v-30.96h4.8v30.96Z"/>
        <path class="uuid-9e2a685a-ad85-4932-9065-32a8536dc565" d="m1158.88,339.71c-8.28,0-12.66-3.52-13.14-10.56h4.86c.28,2.32,1.05,3.97,2.31,4.95s3.25,1.47,5.97,1.47c4.96,0,7.44-1.6,7.44-4.8,0-1.4-.51-2.46-1.53-3.18-1.02-.72-2.87-1.34-5.55-1.86l-2.88-.54c-6.44-1.2-9.66-4.24-9.66-9.12,0-2.68,1.01-4.81,3.03-6.39,2.02-1.58,4.77-2.37,8.25-2.37,8.2,0,12.4,3.42,12.6,10.26h-4.8c-.12-2.24-.8-3.82-2.04-4.74-1.24-.92-3.16-1.38-5.76-1.38-2.08,0-3.68.4-4.8,1.2-1.12.8-1.68,1.92-1.68,3.36,0,1.36.48,2.38,1.44,3.06.96.68,2.56,1.26,4.8,1.74l2.76.54c3.8.76,6.53,1.84,8.19,3.24,1.66,1.4,2.49,3.36,2.49,5.88,0,2.92-1.09,5.19-3.27,6.81-2.18,1.62-5.19,2.43-9.03,2.43Z"/>
        <path class="uuid-9e2a685a-ad85-4932-9065-32a8536dc565" d="m1173.88,302.15v-5.88h5.94v6.42c0,4.72-1.78,7.26-5.34,7.62l-.6.06v-3.18l.42-.06c1.44-.2,2.16-1.54,2.16-4.02v-.96h-2.58Z"/>
        <path class="uuid-9e2a685a-ad85-4932-9065-32a8536dc565" d="m1212.7,307.31c4.36,0,7.86,1.46,10.5,4.38,2.6,2.96,3.9,6.9,3.9,11.82s-1.3,8.8-3.9,11.76c-2.64,2.96-6.14,4.44-10.5,4.44s-7.9-1.72-10.38-5.16v16.2h-4.8v-42.72h4.56v4.8c2.48-3.68,6.02-5.52,10.62-5.52Zm-.6,28.08c3,0,5.41-1.09,7.23-3.27,1.82-2.18,2.73-5.13,2.73-8.85s-.89-6.49-2.67-8.55c-1.78-2.06-4.21-3.09-7.29-3.09s-5.46,1.04-7.26,3.12c-1.8,2.08-2.7,5-2.7,8.76s.9,6.62,2.7,8.7c1.8,2.12,4.22,3.18,7.26,3.18Z"/>
        <path class="uuid-9e2a685a-ad85-4932-9065-32a8536dc565" d="m1247.32,307.55c.8,0,1.34.02,1.62.06v4.62h-1.2c-3.2,0-5.69.79-7.47,2.37-1.78,1.58-2.67,3.83-2.67,6.75v17.64h-4.8v-30.96h4.56v5.46c2.08-3.96,5.4-5.94,9.96-5.94Z"/>
        <path class="uuid-9e2a685a-ad85-4932-9065-32a8536dc565" d="m1278.64,323.51v1.68h-23.52c.24,3.36,1.18,5.89,2.82,7.59,1.64,1.7,3.88,2.55,6.72,2.55,4.28,0,7.02-1.92,8.22-5.76h4.98c-.84,3.12-2.4,5.59-4.68,7.41s-5.16,2.73-8.64,2.73c-4.28,0-7.74-1.46-10.38-4.38-2.68-2.92-4.02-6.86-4.02-11.82s1.32-8.8,3.96-11.76c2.6-2.96,6.04-4.44,10.32-4.44s7.92,1.54,10.44,4.62c2.52,3.08,3.78,6.94,3.78,11.58Zm-14.22-11.82c-2.52,0-4.58.79-6.18,2.37-1.6,1.58-2.6,3.85-3,6.81h18.24c-.24-2.72-1.16-4.93-2.76-6.63-1.6-1.7-3.7-2.55-6.3-2.55Z"/>
        <path class="uuid-9e2a685a-ad85-4932-9065-32a8536dc565" d="m1316.92,307.31c3.36,0,5.97.97,7.83,2.91s2.79,4.53,2.79,7.77v21h-4.8v-20.52c0-4.56-2.16-6.84-6.48-6.84-2.28,0-4.17.91-5.67,2.73-1.5,1.82-2.25,4.39-2.25,7.71v16.92h-4.8v-20.52c0-4.56-2.16-6.84-6.48-6.84-2.24,0-4.12.91-5.64,2.73-1.52,1.82-2.28,4.39-2.28,7.71v16.92h-4.8v-30.96h4.56v4.56c2.04-3.52,5.02-5.28,8.94-5.28,4.64,0,7.82,1.94,9.54,5.82,2.16-3.88,5.34-5.82,9.54-5.82Z"/>
        <path class="uuid-9e2a685a-ad85-4932-9065-32a8536dc565" d="m1339.66,303.35h-5.1v-5.88h5.1v5.88Zm-.12,35.64h-4.8v-30.96h4.8v30.96Z"/>
        <path class="uuid-9e2a685a-ad85-4932-9065-32a8536dc565" d="m1373.74,323.51v1.68h-23.52c.24,3.36,1.18,5.89,2.82,7.59,1.64,1.7,3.88,2.55,6.72,2.55,4.28,0,7.02-1.92,8.22-5.76h4.98c-.84,3.12-2.4,5.59-4.68,7.41s-5.16,2.73-8.64,2.73c-4.28,0-7.74-1.46-10.38-4.38-2.68-2.92-4.02-6.86-4.02-11.82s1.32-8.8,3.96-11.76c2.6-2.96,6.04-4.44,10.32-4.44s7.92,1.54,10.44,4.62c2.52,3.08,3.78,6.94,3.78,11.58Zm-14.22-11.82c-2.52,0-4.58.79-6.18,2.37-1.6,1.58-2.6,3.85-3,6.81h18.24c-.24-2.72-1.16-4.93-2.76-6.63-1.6-1.7-3.7-2.55-6.3-2.55Z"/>
        <path class="uuid-9e2a685a-ad85-4932-9065-32a8536dc565" d="m1393.96,307.55c.8,0,1.34.02,1.62.06v4.62h-1.2c-3.2,0-5.69.79-7.47,2.37s-2.67,3.83-2.67,6.75v17.64h-4.8v-30.96h4.56v5.46c2.08-3.96,5.4-5.94,9.96-5.94Z"/>
        <path class="uuid-9e2a685a-ad85-4932-9065-32a8536dc565" d="m1437.4,335.09h1.74v3.9c-.8.12-1.68.18-2.64.18-3.24,0-4.98-1.48-5.22-4.44-2.16,3.32-5.52,4.98-10.08,4.98-3.4,0-6.07-.79-8.01-2.37-1.94-1.58-2.91-3.81-2.91-6.69,0-5.6,3.82-8.8,11.46-9.6l4.44-.48c3.24-.36,4.86-1.78,4.86-4.26,0-1.72-.53-2.96-1.59-3.72-1.06-.76-2.85-1.14-5.37-1.14-2.68,0-4.61.45-5.79,1.35-1.18.9-1.85,2.49-2.01,4.77h-4.8c.4-6.84,4.6-10.26,12.6-10.26s11.64,3,11.64,9v17.28c0,1,.56,1.5,1.68,1.5Zm-15.96.54c2.56,0,4.8-.78,6.72-2.34,1.92-1.52,2.88-3.7,2.88-6.54v-3.66c-.88.68-2.24,1.12-4.08,1.32l-4.5.54c-2.6.32-4.45.92-5.55,1.8-1.1.88-1.65,2.14-1.65,3.78s.52,2.85,1.56,3.75,2.58,1.35,4.62,1.35Z"/>
        <path class="uuid-9e2a685a-ad85-4932-9065-32a8536dc565" d="m1455.7,308.03v4.2h-6.36v20.1c0,1.76,1.18,2.64,3.54,2.64h2.82v4.02c-1.32.12-2.46.18-3.42.18-5.16,0-7.74-2.14-7.74-6.42v-20.52h-5.1v-4.2h5.1v-8.76h4.8v8.76h6.36Z"/>
        <path class="uuid-9e2a685a-ad85-4932-9065-32a8536dc565" d="m1475.08,307.31c3.44,0,6.12.94,8.04,2.82,1.92,1.88,2.88,4.52,2.88,7.92v20.94h-4.8v-20.46c0-4.6-2.36-6.9-7.08-6.9-2.24,0-4.22.84-5.94,2.52s-2.58,4.12-2.58,7.32v17.52h-4.8v-42.72h4.8v16.02c2.36-3.32,5.52-4.98,9.48-4.98Z"/>
        <path class="uuid-9e2a685a-ad85-4932-9065-32a8536dc565" d="m1498,338.99h-4.8v-42.72h4.8v42.72Z"/>
        <path class="uuid-9e2a685a-ad85-4932-9065-32a8536dc565" d="m1532.2,323.51v1.68h-23.52c.24,3.36,1.18,5.89,2.82,7.59,1.64,1.7,3.88,2.55,6.72,2.55,4.28,0,7.02-1.92,8.22-5.76h4.98c-.84,3.12-2.4,5.59-4.68,7.41s-5.16,2.73-8.64,2.73c-4.28,0-7.74-1.46-10.38-4.38-2.68-2.92-4.02-6.86-4.02-11.82s1.32-8.8,3.96-11.76c2.6-2.96,6.04-4.44,10.32-4.44s7.92,1.54,10.44,4.62c2.52,3.08,3.78,6.94,3.78,11.58Zm-14.22-11.82c-2.52,0-4.58.79-6.18,2.37-1.6,1.58-2.6,3.85-3,6.81h18.24c-.24-2.72-1.16-4.93-2.76-6.63-1.6-1.7-3.7-2.55-6.3-2.55Z"/>
        <path class="uuid-9e2a685a-ad85-4932-9065-32a8536dc565" d="m1549.66,308.03v4.2h-6.36v20.1c0,1.76,1.18,2.64,3.54,2.64h2.82v4.02c-1.32.12-2.46.18-3.42.18-5.16,0-7.74-2.14-7.74-6.42v-20.52h-5.1v-4.2h5.1v-8.76h4.8v8.76h6.36Z"/>
        <path class="uuid-9e2a685a-ad85-4932-9065-32a8536dc565" d="m1559.68,303.35h-5.1v-5.88h5.1v5.88Zm-.12,35.64h-4.8v-30.96h4.8v30.96Z"/>
        <path class="uuid-9e2a685a-ad85-4932-9065-32a8536dc565" d="m1579.59,339.71c-4.28,0-7.74-1.48-10.38-4.44-2.64-2.96-3.96-6.88-3.96-11.76s1.32-8.9,3.96-11.82c2.56-2.92,6.02-4.38,10.38-4.38,3.68,0,6.7,1,9.06,3s3.78,4.74,4.26,8.22h-4.98c-.36-2.2-1.31-3.9-2.85-5.1-1.54-1.2-3.37-1.8-5.49-1.8-2.84,0-5.1,1.03-6.78,3.09s-2.52,4.99-2.52,8.79.85,6.68,2.55,8.76c1.7,2.08,3.95,3.12,6.75,3.12,2.12,0,3.96-.62,5.52-1.86,1.56-1.24,2.52-2.96,2.88-5.16h4.92c-.52,3.48-1.99,6.24-4.41,8.28-2.42,2.04-5.39,3.06-8.91,3.06Z"/>
        <path class="uuid-9e2a685a-ad85-4932-9065-32a8536dc565" d="m1623.69,307.31c3.44,0,6.12.94,8.04,2.82,1.92,1.88,2.88,4.52,2.88,7.92v20.94h-4.8v-20.46c0-4.6-2.36-6.9-7.08-6.9-2.24,0-4.22.84-5.94,2.52s-2.58,4.12-2.58,7.32v17.52h-4.8v-42.72h4.8v16.02c2.36-3.32,5.52-4.98,9.48-4.98Z"/>
        <path class="uuid-9e2a685a-ad85-4932-9065-32a8536dc565" d="m1667.13,335.09h1.74v3.9c-.8.12-1.68.18-2.64.18-3.24,0-4.98-1.48-5.22-4.44-2.16,3.32-5.52,4.98-10.08,4.98-3.4,0-6.07-.79-8.01-2.37-1.94-1.58-2.91-3.81-2.91-6.69,0-5.6,3.82-8.8,11.46-9.6l4.44-.48c3.24-.36,4.86-1.78,4.86-4.26,0-1.72-.53-2.96-1.59-3.72-1.06-.76-2.85-1.14-5.37-1.14-2.68,0-4.61.45-5.79,1.35-1.18.9-1.85,2.49-2.01,4.77h-4.8c.4-6.84,4.6-10.26,12.6-10.26s11.64,3,11.64,9v17.28c0,1,.56,1.5,1.68,1.5Zm-15.96.54c2.56,0,4.8-.78,6.72-2.34,1.92-1.52,2.88-3.7,2.88-6.54v-3.66c-.88.68-2.24,1.12-4.08,1.32l-4.5.54c-2.6.32-4.45.92-5.55,1.8-1.1.88-1.65,2.14-1.65,3.78s.52,2.85,1.56,3.75,2.58,1.35,4.62,1.35Z"/>
        <path class="uuid-9e2a685a-ad85-4932-9065-32a8536dc565" d="m1687.35,307.31c3.44,0,6.12.94,8.04,2.82,1.92,1.88,2.88,4.52,2.88,7.92v20.94h-4.8v-20.46c0-4.6-2.36-6.9-7.08-6.9-2.24,0-4.22.84-5.94,2.52-1.72,1.68-2.58,4.12-2.58,7.32v17.52h-4.8v-30.96h4.56v4.62c2.36-3.56,5.6-5.34,9.72-5.34Z"/>
        <path class="uuid-9e2a685a-ad85-4932-9065-32a8536dc565" d="m1728.75,312.47v-16.2h4.8v42.72h-4.56v-4.8c-2.48,3.68-6.02,5.52-10.62,5.52-4.36,0-7.84-1.48-10.44-4.44-2.64-2.96-3.96-6.88-3.96-11.76s1.32-8.9,3.96-11.82c2.56-2.92,6.04-4.38,10.44-4.38s7.9,1.72,10.38,5.16Zm-17.04,19.86c1.8,2.04,4.22,3.06,7.26,3.06s5.46-1.06,7.26-3.18c1.8-2.08,2.7-4.98,2.7-8.7s-.9-6.58-2.7-8.7-4.22-3.18-7.26-3.18-5.41,1.09-7.23,3.27c-1.82,2.18-2.73,5.13-2.73,8.85s.9,6.54,2.7,8.58Z"/>
        <path class="uuid-9e2a685a-ad85-4932-9065-32a8536dc565" d="m1775.43,312.47v-16.2h4.8v42.72h-4.56v-4.8c-2.48,3.68-6.02,5.52-10.62,5.52-4.36,0-7.84-1.48-10.44-4.44-2.64-2.96-3.96-6.88-3.96-11.76s1.32-8.9,3.96-11.82c2.56-2.92,6.04-4.38,10.44-4.38s7.9,1.72,10.38,5.16Zm-17.04,19.86c1.8,2.04,4.22,3.06,7.26,3.06s5.46-1.06,7.26-3.18c1.8-2.08,2.7-4.98,2.7-8.7s-.9-6.58-2.7-8.7c-1.8-2.12-4.22-3.18-7.26-3.18s-5.41,1.09-7.23,3.27c-1.82,2.18-2.73,5.13-2.73,8.85s.9,6.54,2.7,8.58Z"/>
        <path class="uuid-9e2a685a-ad85-4932-9065-32a8536dc565" d="m1807.83,325.55v-17.52h4.8v30.96h-4.56v-4.62c-2.36,3.56-5.6,5.34-9.72,5.34-3.44,0-6.12-.94-8.04-2.82s-2.88-4.52-2.88-7.92v-20.94h4.8v20.46c0,4.6,2.36,6.9,7.08,6.9,2.24,0,4.22-.84,5.94-2.52s2.58-4.12,2.58-7.32Z"/>
        <path class="uuid-9e2a685a-ad85-4932-9065-32a8536dc565" d="m1830.75,339.71c-8.28,0-12.66-3.52-13.14-10.56h4.86c.28,2.32,1.05,3.97,2.31,4.95,1.26.98,3.25,1.47,5.97,1.47,4.96,0,7.44-1.6,7.44-4.8,0-1.4-.51-2.46-1.53-3.18-1.02-.72-2.87-1.34-5.55-1.86l-2.88-.54c-6.44-1.2-9.66-4.24-9.66-9.12,0-2.68,1.01-4.81,3.03-6.39,2.02-1.58,4.77-2.37,8.25-2.37,8.2,0,12.4,3.42,12.6,10.26h-4.8c-.12-2.24-.8-3.82-2.04-4.74-1.24-.92-3.16-1.38-5.76-1.38-2.08,0-3.68.4-4.8,1.2-1.12.8-1.68,1.92-1.68,3.36,0,1.36.48,2.38,1.44,3.06.96.68,2.56,1.26,4.8,1.74l2.76.54c3.8.76,6.53,1.84,8.19,3.24,1.66,1.4,2.49,3.36,2.49,5.88,0,2.92-1.09,5.19-3.27,6.81-2.18,1.62-5.19,2.43-9.03,2.43Z"/>
        <path class="uuid-9e2a685a-ad85-4932-9065-32a8536dc565" d="m1860.81,308.03v4.2h-6.36v20.1c0,1.76,1.18,2.64,3.54,2.64h2.82v4.02c-1.32.12-2.46.18-3.42.18-5.16,0-7.74-2.14-7.74-6.42v-20.52h-5.1v-4.2h5.1v-8.76h4.8v8.76h6.36Z"/>
      </g>
      <g class="uuid-486c52b1-9ef2-4b8f-a8b0-c71d1dd34ed0">
        <path class="uuid-9e2a685a-ad85-4932-9065-32a8536dc565" d="m1071.88,382.47v-16.2h4.8v42.72h-4.56v-4.8c-2.48,3.68-6.02,5.52-10.62,5.52-4.36,0-7.84-1.48-10.44-4.44-2.64-2.96-3.96-6.88-3.96-11.76s1.32-8.9,3.96-11.82c2.56-2.92,6.04-4.38,10.44-4.38s7.9,1.72,10.38,5.16Zm-17.04,19.86c1.8,2.04,4.22,3.06,7.26,3.06s5.46-1.06,7.26-3.18c1.8-2.08,2.7-4.98,2.7-8.7s-.9-6.58-2.7-8.7c-1.8-2.12-4.22-3.18-7.26-3.18s-5.41,1.09-7.23,3.27c-1.82,2.18-2.73,5.13-2.73,8.85s.9,6.54,2.7,8.58Z"/>
        <path class="uuid-9e2a685a-ad85-4932-9065-32a8536dc565" d="m1110.88,393.51v1.68h-23.52c.24,3.36,1.18,5.89,2.82,7.59,1.64,1.7,3.88,2.55,6.72,2.55,4.28,0,7.02-1.92,8.22-5.76h4.98c-.84,3.12-2.4,5.59-4.68,7.41-2.28,1.82-5.16,2.73-8.64,2.73-4.28,0-7.74-1.46-10.38-4.38-2.68-2.92-4.02-6.86-4.02-11.82s1.32-8.8,3.96-11.76c2.6-2.96,6.04-4.44,10.32-4.44s7.92,1.54,10.44,4.62c2.52,3.08,3.78,6.94,3.78,11.58Zm-14.22-11.82c-2.52,0-4.58.79-6.18,2.37-1.6,1.58-2.6,3.85-3,6.81h18.24c-.24-2.72-1.16-4.93-2.76-6.63-1.6-1.7-3.7-2.55-6.3-2.55Z"/>
        <path class="uuid-9e2a685a-ad85-4932-9065-32a8536dc565" d="m1127.2,409.71c-8.28,0-12.66-3.52-13.14-10.56h4.86c.28,2.32,1.05,3.97,2.31,4.95,1.26.98,3.25,1.47,5.97,1.47,4.96,0,7.44-1.6,7.44-4.8,0-1.4-.51-2.46-1.53-3.18-1.02-.72-2.87-1.34-5.55-1.86l-2.88-.54c-6.44-1.2-9.66-4.24-9.66-9.12,0-2.68,1.01-4.81,3.03-6.39,2.02-1.58,4.77-2.37,8.25-2.37,8.2,0,12.4,3.42,12.6,10.26h-4.8c-.12-2.24-.8-3.82-2.04-4.74-1.24-.92-3.16-1.38-5.76-1.38-2.08,0-3.68.4-4.8,1.2-1.12.8-1.68,1.92-1.68,3.36,0,1.36.48,2.38,1.44,3.06.96.68,2.56,1.26,4.8,1.74l2.76.54c3.8.76,6.53,1.84,8.19,3.24,1.66,1.4,2.49,3.36,2.49,5.88,0,2.92-1.09,5.19-3.27,6.81-2.18,1.62-5.19,2.43-9.03,2.43Z"/>
        <path class="uuid-9e2a685a-ad85-4932-9065-32a8536dc565" d="m1149.22,373.35h-5.1v-5.88h5.1v5.88Zm-.12,35.64h-4.8v-30.96h4.8v30.96Z"/>
        <path class="uuid-9e2a685a-ad85-4932-9065-32a8536dc565" d="m1179.82,382.53v-4.5h4.56v29.76c0,4.24-1.24,7.58-3.72,10.02-2.48,2.44-6.04,3.66-10.68,3.66-3.84,0-6.92-.88-9.24-2.64-2.32-1.76-3.64-4.2-3.96-7.32h4.8c.6,3.92,3.4,5.88,8.4,5.88,6.4,0,9.6-3.2,9.6-9.6v-3c-2.44,3.28-5.9,4.92-10.38,4.92s-7.84-1.48-10.44-4.44c-2.64-2.96-3.96-6.88-3.96-11.76s1.32-8.9,3.96-11.82c2.56-2.92,6.04-4.38,10.44-4.38s8.14,1.74,10.62,5.22Zm-10.02,22.86c3.04,0,5.46-1.06,7.26-3.18,1.8-2.12,2.7-5.02,2.7-8.7s-.9-6.58-2.7-8.7-4.22-3.18-7.26-3.18-5.41,1.08-7.23,3.24c-1.82,2.16-2.73,5.04-2.73,8.64s.91,6.48,2.73,8.64c1.82,2.16,4.23,3.24,7.23,3.24Z"/>
        <path class="uuid-9e2a685a-ad85-4932-9065-32a8536dc565" d="m1205.86,377.31c3.44,0,6.12.94,8.04,2.82,1.92,1.88,2.88,4.52,2.88,7.92v20.94h-4.8v-20.46c0-4.6-2.36-6.9-7.08-6.9-2.24,0-4.22.84-5.94,2.52s-2.58,4.12-2.58,7.32v17.52h-4.8v-30.96h4.56v4.62c2.36-3.56,5.6-5.34,9.72-5.34Z"/>
        <path class="uuid-9e2a685a-ad85-4932-9065-32a8536dc565" d="m1250.98,393.51v1.68h-23.52c.24,3.36,1.18,5.89,2.82,7.59,1.64,1.7,3.88,2.55,6.72,2.55,4.28,0,7.02-1.92,8.22-5.76h4.98c-.84,3.12-2.4,5.59-4.68,7.41-2.28,1.82-5.16,2.73-8.64,2.73-4.28,0-7.74-1.46-10.38-4.38-2.68-2.92-4.02-6.86-4.02-11.82s1.32-8.8,3.96-11.76c2.6-2.96,6.04-4.44,10.32-4.44s7.92,1.54,10.44,4.62c2.52,3.08,3.78,6.94,3.78,11.58Zm-14.22-11.82c-2.52,0-4.58.79-6.18,2.37-1.6,1.58-2.6,3.85-3,6.81h18.24c-.24-2.72-1.16-4.93-2.76-6.63-1.6-1.7-3.7-2.55-6.3-2.55Z"/>
        <path class="uuid-9e2a685a-ad85-4932-9065-32a8536dc565" d="m1279.96,382.47v-16.2h4.8v42.72h-4.56v-4.8c-2.48,3.68-6.02,5.52-10.62,5.52-4.36,0-7.84-1.48-10.44-4.44-2.64-2.96-3.96-6.88-3.96-11.76s1.32-8.9,3.96-11.82c2.56-2.92,6.04-4.38,10.44-4.38s7.9,1.72,10.38,5.16Zm-17.04,19.86c1.8,2.04,4.22,3.06,7.26,3.06s5.46-1.06,7.26-3.18c1.8-2.08,2.7-4.98,2.7-8.7s-.9-6.58-2.7-8.7c-1.8-2.12-4.22-3.18-7.26-3.18s-5.41,1.09-7.23,3.27c-1.82,2.18-2.73,5.13-2.73,8.85s.9,6.54,2.7,8.58Z"/>
        <path class="uuid-9e2a685a-ad85-4932-9065-32a8536dc565" d="m1316.92,378.03v4.2h-6.36v20.1c0,1.76,1.18,2.64,3.54,2.64h2.82v4.02c-1.32.12-2.46.18-3.42.18-5.16,0-7.74-2.14-7.74-6.42v-20.52h-5.1v-4.2h5.1v-8.76h4.8v8.76h6.36Z"/>
        <path class="uuid-9e2a685a-ad85-4932-9065-32a8536dc565" d="m1345.72,405.27c-2.84,2.96-6.44,4.44-10.8,4.44s-7.96-1.48-10.8-4.44c-2.8-2.92-4.2-6.84-4.2-11.76s1.4-8.84,4.2-11.76c2.84-2.96,6.44-4.44,10.8-4.44s7.96,1.48,10.8,4.44c2.8,2.92,4.2,6.84,4.2,11.76s-1.4,8.84-4.2,11.76Zm-18.06-3.06c1.8,2.12,4.22,3.18,7.26,3.18s5.46-1.06,7.26-3.18c1.8-2.08,2.7-4.98,2.7-8.7s-.9-6.68-2.7-8.76c-1.8-2.08-4.22-3.12-7.26-3.12s-5.46,1.04-7.26,3.12c-1.8,2.08-2.7,5-2.7,8.76s.9,6.62,2.7,8.7Z"/>
        <path class="uuid-9e2a685a-ad85-4932-9065-32a8536dc565" d="m1380.58,378.03v4.2h-6.36v20.1c0,1.76,1.18,2.64,3.54,2.64h2.82v4.02c-1.32.12-2.46.18-3.42.18-5.16,0-7.74-2.14-7.74-6.42v-20.52h-5.1v-4.2h5.1v-8.76h4.8v8.76h6.36Z"/>
        <path class="uuid-9e2a685a-ad85-4932-9065-32a8536dc565" d="m1400.2,377.55c.8,0,1.34.02,1.62.06v4.62h-1.2c-3.2,0-5.69.79-7.47,2.37s-2.67,3.83-2.67,6.75v17.64h-4.8v-30.96h4.56v5.46c2.08-3.96,5.4-5.94,9.96-5.94Z"/>
        <path class="uuid-9e2a685a-ad85-4932-9065-32a8536dc565" d="m1429.54,405.09h1.74v3.9c-.8.12-1.68.18-2.64.18-3.24,0-4.98-1.48-5.22-4.44-2.16,3.32-5.52,4.98-10.08,4.98-3.4,0-6.07-.79-8.01-2.37-1.94-1.58-2.91-3.81-2.91-6.69,0-5.6,3.82-8.8,11.46-9.6l4.44-.48c3.24-.36,4.86-1.78,4.86-4.26,0-1.72-.53-2.96-1.59-3.72-1.06-.76-2.85-1.14-5.37-1.14-2.68,0-4.61.45-5.79,1.35-1.18.9-1.85,2.49-2.01,4.77h-4.8c.4-6.84,4.6-10.26,12.6-10.26s11.64,3,11.64,9v17.28c0,1,.56,1.5,1.68,1.5Zm-15.96.54c2.56,0,4.8-.78,6.72-2.34,1.92-1.52,2.88-3.7,2.88-6.54v-3.66c-.88.68-2.24,1.12-4.08,1.32l-4.5.54c-2.6.32-4.45.92-5.55,1.8-1.1.88-1.65,2.14-1.65,3.78s.52,2.85,1.56,3.75,2.58,1.35,4.62,1.35Z"/>
        <path class="uuid-9e2a685a-ad85-4932-9065-32a8536dc565" d="m1449.76,377.31c3.44,0,6.12.94,8.04,2.82,1.92,1.88,2.88,4.52,2.88,7.92v20.94h-4.8v-20.46c0-4.6-2.36-6.9-7.08-6.9-2.24,0-4.22.84-5.94,2.52-1.72,1.68-2.58,4.12-2.58,7.32v17.52h-4.8v-30.96h4.56v4.62c2.36-3.56,5.6-5.34,9.72-5.34Z"/>
        <path class="uuid-9e2a685a-ad85-4932-9065-32a8536dc565" d="m1478.8,409.71c-8.28,0-12.66-3.52-13.14-10.56h4.86c.28,2.32,1.05,3.97,2.31,4.95,1.26.98,3.25,1.47,5.97,1.47,4.96,0,7.44-1.6,7.44-4.8,0-1.4-.51-2.46-1.53-3.18-1.02-.72-2.87-1.34-5.55-1.86l-2.88-.54c-6.44-1.2-9.66-4.24-9.66-9.12,0-2.68,1.01-4.81,3.03-6.39,2.02-1.58,4.77-2.37,8.25-2.37,8.2,0,12.4,3.42,12.6,10.26h-4.8c-.12-2.24-.8-3.82-2.04-4.74-1.24-.92-3.16-1.38-5.76-1.38-2.08,0-3.68.4-4.8,1.2-1.12.8-1.68,1.92-1.68,3.36,0,1.36.48,2.38,1.44,3.06.96.68,2.56,1.26,4.8,1.74l2.76.54c3.8.76,6.53,1.84,8.19,3.24,1.66,1.4,2.49,3.36,2.49,5.88,0,2.92-1.09,5.19-3.27,6.81-2.18,1.62-5.19,2.43-9.03,2.43Z"/>
        <path class="uuid-9e2a685a-ad85-4932-9065-32a8536dc565" d="m1509.99,370.35h-2.76c-2.76,0-4.14,1.46-4.14,4.38v3.3h6.6v4.2h-6.6v26.76h-4.8v-26.76h-5.1v-4.2h5.1v-3.18c0-5.8,2.88-8.7,8.64-8.7.76,0,1.78.04,3.06.12v4.08Z"/>
        <path class="uuid-9e2a685a-ad85-4932-9065-32a8536dc565" d="m1536.99,405.27c-2.84,2.96-6.44,4.44-10.8,4.44s-7.96-1.48-10.8-4.44c-2.8-2.92-4.2-6.84-4.2-11.76s1.4-8.84,4.2-11.76c2.84-2.96,6.44-4.44,10.8-4.44s7.96,1.48,10.8,4.44c2.8,2.92,4.2,6.84,4.2,11.76s-1.4,8.84-4.2,11.76Zm-18.06-3.06c1.8,2.12,4.22,3.18,7.26,3.18s5.46-1.06,7.26-3.18c1.8-2.08,2.7-4.98,2.7-8.7s-.9-6.68-2.7-8.76c-1.8-2.08-4.22-3.12-7.26-3.12s-5.46,1.04-7.26,3.12c-1.8,2.08-2.7,5-2.7,8.76s.9,6.62,2.7,8.7Z"/>
        <path class="uuid-9e2a685a-ad85-4932-9065-32a8536dc565" d="m1561.41,377.55c.8,0,1.34.02,1.62.06v4.62h-1.2c-3.2,0-5.69.79-7.47,2.37s-2.67,3.83-2.67,6.75v17.64h-4.8v-30.96h4.56v5.46c2.08-3.96,5.4-5.94,9.96-5.94Z"/>
        <path class="uuid-9e2a685a-ad85-4932-9065-32a8536dc565" d="m1600.11,377.31c3.36,0,5.97.97,7.83,2.91s2.79,4.53,2.79,7.77v21h-4.8v-20.52c0-4.56-2.16-6.84-6.48-6.84-2.28,0-4.17.91-5.67,2.73-1.5,1.82-2.25,4.39-2.25,7.71v16.92h-4.8v-20.52c0-4.56-2.16-6.84-6.48-6.84-2.24,0-4.12.91-5.64,2.73-1.52,1.82-2.28,4.39-2.28,7.71v16.92h-4.8v-30.96h4.56v4.56c2.04-3.52,5.02-5.28,8.94-5.28,4.64,0,7.82,1.94,9.54,5.82,2.16-3.88,5.34-5.82,9.54-5.82Z"/>
        <path class="uuid-9e2a685a-ad85-4932-9065-32a8536dc565" d="m1644.57,390.87l4.38-12.84h5.22l-13.08,35.82c-.92,2.6-2.18,4.43-3.78,5.49-1.6,1.06-3.7,1.59-6.3,1.59-.88,0-1.84-.06-2.88-.18v-4.02h2.82c2.76,0,4.64-1.28,5.64-3.84l1.08-2.88-11.64-31.98h5.28l4.38,12.9c1.56,4.56,3.04,9.02,4.44,13.38,1.16-3.72,2.64-8.2,4.44-13.44Z"/>
        <path class="uuid-9e2a685a-ad85-4932-9065-32a8536dc565" d="m1680.57,405.27c-2.84,2.96-6.44,4.44-10.8,4.44s-7.96-1.48-10.8-4.44c-2.8-2.92-4.2-6.84-4.2-11.76s1.4-8.84,4.2-11.76c2.84-2.96,6.44-4.44,10.8-4.44s7.96,1.48,10.8,4.44c2.8,2.92,4.2,6.84,4.2,11.76s-1.4,8.84-4.2,11.76Zm-18.06-3.06c1.8,2.12,4.22,3.18,7.26,3.18s5.46-1.06,7.26-3.18c1.8-2.08,2.7-4.98,2.7-8.7s-.9-6.68-2.7-8.76c-1.8-2.08-4.22-3.12-7.26-3.12s-5.46,1.04-7.26,3.12c-1.8,2.08-2.7,5-2.7,8.76s.9,6.62,2.7,8.7Z"/>
        <path class="uuid-9e2a685a-ad85-4932-9065-32a8536dc565" d="m1709.97,395.55v-17.52h4.8v30.96h-4.56v-4.62c-2.36,3.56-5.6,5.34-9.72,5.34-3.44,0-6.12-.94-8.04-2.82s-2.88-4.52-2.88-7.92v-20.94h4.8v20.46c0,4.6,2.36,6.9,7.08,6.9,2.24,0,4.22-.84,5.94-2.52,1.72-1.68,2.58-4.12,2.58-7.32Z"/>
        <path class="uuid-9e2a685a-ad85-4932-9065-32a8536dc565" d="m1736.49,377.55c.8,0,1.34.02,1.62.06v4.62h-1.2c-3.2,0-5.69.79-7.47,2.37s-2.67,3.83-2.67,6.75v17.64h-4.8v-30.96h4.56v5.46c2.08-3.96,5.4-5.94,9.96-5.94Z"/>
      </g>
      <g class="uuid-486c52b1-9ef2-4b8f-a8b0-c71d1dd34ed0">
        <path class="uuid-9e2a685a-ad85-4932-9065-32a8536dc565" d="m1081.84,462.01l4.38-13.98h5.16l-10.32,30.96h-5.04l-4.56-14.34c-1.56-5.08-2.6-8.58-3.12-10.5-.92,3.28-1.98,6.78-3.18,10.5l-4.5,14.34h-5.04l-10.32-30.96h5.16l4.38,13.98c1.08,3.4,2.2,7.16,3.36,11.28,1.28-4.56,2.38-8.32,3.3-11.28l4.32-13.98h5.04l4.32,13.98c2.2,7.32,3.32,11.04,3.36,11.16.32-1.24,1.42-4.96,3.3-11.16Z"/>
        <path class="uuid-9e2a685a-ad85-4932-9065-32a8536dc565" d="m1120.48,463.51v1.68h-23.52c.24,3.36,1.18,5.89,2.82,7.59,1.64,1.7,3.88,2.55,6.72,2.55,4.28,0,7.02-1.92,8.22-5.76h4.98c-.84,3.12-2.4,5.59-4.68,7.41s-5.16,2.73-8.64,2.73c-4.28,0-7.74-1.46-10.38-4.38-2.68-2.92-4.02-6.86-4.02-11.82s1.32-8.8,3.96-11.76c2.6-2.96,6.04-4.44,10.32-4.44s7.92,1.54,10.44,4.62c2.52,3.08,3.78,6.94,3.78,11.58Zm-14.22-11.82c-2.52,0-4.58.79-6.18,2.37-1.6,1.58-2.6,3.85-3,6.81h18.24c-.24-2.72-1.16-4.93-2.76-6.63-1.6-1.7-3.7-2.55-6.3-2.55Z"/>
        <path class="uuid-9e2a685a-ad85-4932-9065-32a8536dc565" d="m1131.1,443.35h-5.1v-5.88h5.1v5.88Zm-.12,35.64h-4.8v-30.96h4.8v30.96Z"/>
        <path class="uuid-9e2a685a-ad85-4932-9065-32a8536dc565" d="m1161.7,452.53v-4.5h4.56v29.76c0,4.24-1.24,7.58-3.72,10.02-2.48,2.44-6.04,3.66-10.68,3.66-3.84,0-6.92-.88-9.24-2.64-2.32-1.76-3.64-4.2-3.96-7.32h4.8c.6,3.92,3.4,5.88,8.4,5.88,6.4,0,9.6-3.2,9.6-9.6v-3c-2.44,3.28-5.9,4.92-10.38,4.92s-7.84-1.48-10.44-4.44c-2.64-2.96-3.96-6.88-3.96-11.76s1.32-8.9,3.96-11.82c2.56-2.92,6.04-4.38,10.44-4.38s8.14,1.74,10.62,5.22Zm-10.02,22.86c3.04,0,5.46-1.06,7.26-3.18,1.8-2.12,2.7-5.02,2.7-8.7s-.9-6.58-2.7-8.7-4.22-3.18-7.26-3.18-5.41,1.08-7.23,3.24c-1.82,2.16-2.73,5.04-2.73,8.64s.91,6.48,2.73,8.64c1.82,2.16,4.23,3.24,7.23,3.24Z"/>
        <path class="uuid-9e2a685a-ad85-4932-9065-32a8536dc565" d="m1187.74,447.31c3.44,0,6.12.94,8.04,2.82,1.92,1.88,2.88,4.52,2.88,7.92v20.94h-4.8v-20.46c0-4.6-2.36-6.9-7.08-6.9-2.24,0-4.22.84-5.94,2.52s-2.58,4.12-2.58,7.32v17.52h-4.8v-42.72h4.8v16.02c2.36-3.32,5.52-4.98,9.48-4.98Z"/>
        <path class="uuid-9e2a685a-ad85-4932-9065-32a8536dc565" d="m1218.22,448.03v4.2h-6.36v20.1c0,1.76,1.18,2.64,3.54,2.64h2.82v4.02c-1.32.12-2.46.18-3.42.18-5.16,0-7.74-2.14-7.74-6.42v-20.52h-5.1v-4.2h5.1v-8.76h4.8v8.76h6.36Z"/>
        <path class="uuid-9e2a685a-ad85-4932-9065-32a8536dc565" d="m1228.12,478.99h-4.8v-42.72h4.8v42.72Z"/>
        <path class="uuid-9e2a685a-ad85-4932-9065-32a8536dc565" d="m1240.24,443.35h-5.1v-5.88h5.1v5.88Zm-.12,35.64h-4.8v-30.96h4.8v30.96Z"/>
        <path class="uuid-9e2a685a-ad85-4932-9065-32a8536dc565" d="m1261.42,440.35h-2.76c-2.76,0-4.14,1.46-4.14,4.38v3.3h6.6v4.2h-6.6v26.76h-4.8v-26.76h-5.1v-4.2h5.1v-3.18c0-5.8,2.88-8.7,8.64-8.7.76,0,1.78.04,3.06.12v4.08Z"/>
        <path class="uuid-9e2a685a-ad85-4932-9065-32a8536dc565" d="m1280.08,448.03v4.2h-6.36v20.1c0,1.76,1.18,2.64,3.54,2.64h2.82v4.02c-1.32.12-2.46.18-3.42.18-5.16,0-7.74-2.14-7.74-6.42v-20.52h-5.1v-4.2h5.1v-8.76h4.8v8.76h6.36Z"/>
        <path class="uuid-9e2a685a-ad85-4932-9065-32a8536dc565" d="m1290.1,443.35h-5.1v-5.88h5.1v5.88Zm-.12,35.64h-4.8v-30.96h4.8v30.96Z"/>
        <path class="uuid-9e2a685a-ad85-4932-9065-32a8536dc565" d="m1311.46,447.31c3.44,0,6.12.94,8.04,2.82,1.92,1.88,2.88,4.52,2.88,7.92v20.94h-4.8v-20.46c0-4.6-2.36-6.9-7.08-6.9-2.24,0-4.22.84-5.94,2.52-1.72,1.68-2.58,4.12-2.58,7.32v17.52h-4.8v-30.96h4.56v4.62c2.36-3.56,5.6-5.34,9.72-5.34Z"/>
        <path class="uuid-9e2a685a-ad85-4932-9065-32a8536dc565" d="m1353.1,452.53v-4.5h4.56v29.76c0,4.24-1.24,7.58-3.72,10.02-2.48,2.44-6.04,3.66-10.68,3.66-3.84,0-6.92-.88-9.24-2.64-2.32-1.76-3.64-4.2-3.96-7.32h4.8c.6,3.92,3.4,5.88,8.4,5.88,6.4,0,9.6-3.2,9.6-9.6v-3c-2.44,3.28-5.9,4.92-10.38,4.92s-7.84-1.48-10.44-4.44c-2.64-2.96-3.96-6.88-3.96-11.76s1.32-8.9,3.96-11.82c2.56-2.92,6.04-4.38,10.44-4.38s8.14,1.74,10.62,5.22Zm-10.02,22.86c3.04,0,5.46-1.06,7.26-3.18,1.8-2.12,2.7-5.02,2.7-8.7s-.9-6.58-2.7-8.7-4.22-3.18-7.26-3.18-5.41,1.08-7.23,3.24c-1.82,2.16-2.73,5.04-2.73,8.64s.91,6.48,2.73,8.64c1.82,2.16,4.23,3.24,7.23,3.24Z"/>
        <path class="uuid-9e2a685a-ad85-4932-9065-32a8536dc565" d="m1373.92,490.93c-1.28,0-2.14-.02-2.58-.06v-4.14h1.98c1.96,0,2.94-.88,2.94-2.64v-36.06h4.8v36.48c0,4.28-2.38,6.42-7.14,6.42Zm7.26-47.58h-5.1v-5.88h5.1v5.88Z"/>
        <path class="uuid-9e2a685a-ad85-4932-9065-32a8536dc565" d="m1412.56,475.27c-2.84,2.96-6.44,4.44-10.8,4.44s-7.96-1.48-10.8-4.44c-2.8-2.92-4.2-6.84-4.2-11.76s1.4-8.84,4.2-11.76c2.84-2.96,6.44-4.44,10.8-4.44s7.96,1.48,10.8,4.44c2.8,2.92,4.2,6.84,4.2,11.76s-1.4,8.84-4.2,11.76Zm-18.06-3.06c1.8,2.12,4.22,3.18,7.26,3.18s5.46-1.06,7.26-3.18c1.8-2.08,2.7-4.98,2.7-8.7s-.9-6.68-2.7-8.76c-1.8-2.08-4.22-3.12-7.26-3.12s-5.46,1.04-7.26,3.12c-1.8,2.08-2.7,5-2.7,8.76s.9,6.62,2.7,8.7Z"/>
        <path class="uuid-9e2a685a-ad85-4932-9065-32a8536dc565" d="m1441.96,465.55v-17.52h4.8v30.96h-4.56v-4.62c-2.36,3.56-5.6,5.34-9.72,5.34-3.44,0-6.12-.94-8.04-2.82s-2.88-4.52-2.88-7.92v-20.94h4.8v20.46c0,4.6,2.36,6.9,7.08,6.9,2.24,0,4.22-.84,5.94-2.52s2.58-4.12,2.58-7.32Z"/>
        <path class="uuid-9e2a685a-ad85-4932-9065-32a8536dc565" d="m1468.48,447.55c.8,0,1.34.02,1.62.06v4.62h-1.2c-3.2,0-5.69.79-7.47,2.37s-2.67,3.83-2.67,6.75v17.64h-4.8v-30.96h4.56v5.46c2.08-3.96,5.4-5.94,9.96-5.94Z"/>
        <path class="uuid-9e2a685a-ad85-4932-9065-32a8536dc565" d="m1488.88,447.31c3.44,0,6.12.94,8.04,2.82,1.92,1.88,2.88,4.52,2.88,7.92v20.94h-4.8v-20.46c0-4.6-2.36-6.9-7.08-6.9-2.24,0-4.22.84-5.94,2.52s-2.58,4.12-2.58,7.32v17.52h-4.8v-30.96h4.56v4.62c2.36-3.56,5.6-5.34,9.72-5.34Z"/>
        <path class="uuid-9e2a685a-ad85-4932-9065-32a8536dc565" d="m1533.99,463.51v1.68h-23.52c.24,3.36,1.18,5.89,2.82,7.59,1.64,1.7,3.88,2.55,6.72,2.55,4.28,0,7.02-1.92,8.22-5.76h4.98c-.84,3.12-2.4,5.59-4.68,7.41s-5.16,2.73-8.64,2.73c-4.28,0-7.74-1.46-10.38-4.38-2.68-2.92-4.02-6.86-4.02-11.82s1.32-8.8,3.96-11.76c2.6-2.96,6.04-4.44,10.32-4.44s7.92,1.54,10.44,4.62c2.52,3.08,3.78,6.94,3.78,11.58Zm-14.22-11.82c-2.52,0-4.58.79-6.18,2.37-1.6,1.58-2.6,3.85-3,6.81h18.24c-.24-2.72-1.16-4.93-2.76-6.63-1.6-1.7-3.7-2.55-6.3-2.55Z"/>
        <path class="uuid-9e2a685a-ad85-4932-9065-32a8536dc565" d="m1553.43,460.87l4.38-12.84h5.22l-13.08,35.82c-.92,2.6-2.18,4.43-3.78,5.49-1.6,1.06-3.7,1.59-6.3,1.59-.88,0-1.84-.06-2.88-.18v-4.02h2.82c2.76,0,4.64-1.28,5.64-3.84l1.08-2.88-11.64-31.98h5.28l4.38,12.9c1.56,4.56,3.04,9.02,4.44,13.38,1.16-3.72,2.64-8.2,4.44-13.44Z"/>
        <path class="uuid-9e2a685a-ad85-4932-9065-32a8536dc565" d="m1566.69,478.99h-6.06v-6h6.06v6Z"/>
        <path class="uuid-9e2a685a-ad85-4932-9065-32a8536dc565" d="m1609.83,456.79c4.92,1.88,7.38,5.28,7.38,10.2,0,3.72-1.21,6.65-3.63,8.79-2.42,2.14-5.83,3.21-10.23,3.21h-18.66v-42.72h17.76c4.12,0,7.32,1.03,9.6,3.09,2.28,2.06,3.42,4.75,3.42,8.07,0,4.28-1.88,7.4-5.64,9.36Zm-7.74-15.96h-12.36v14.1h12.36c2.76,0,4.86-.64,6.3-1.92,1.44-1.28,2.16-3.08,2.16-5.4,0-2.12-.73-3.78-2.19-4.98-1.46-1.2-3.55-1.8-6.27-1.8Zm-12.36,33.6h13.38c2.96,0,5.21-.64,6.75-1.92,1.54-1.28,2.31-3.12,2.31-5.52,0-5.04-3.04-7.56-9.12-7.56h-13.32v15Z"/>
        <path class="uuid-9e2a685a-ad85-4932-9065-32a8536dc565" d="m1647.21,475.27c-2.84,2.96-6.44,4.44-10.8,4.44s-7.96-1.48-10.8-4.44c-2.8-2.92-4.2-6.84-4.2-11.76s1.4-8.84,4.2-11.76c2.84-2.96,6.44-4.44,10.8-4.44s7.96,1.48,10.8,4.44c2.8,2.92,4.2,6.84,4.2,11.76s-1.4,8.84-4.2,11.76Zm-18.06-3.06c1.8,2.12,4.22,3.18,7.26,3.18s5.46-1.06,7.26-3.18c1.8-2.08,2.7-4.98,2.7-8.7s-.9-6.68-2.7-8.76c-1.8-2.08-4.22-3.12-7.26-3.12s-5.46,1.04-7.26,3.12c-1.8,2.08-2.7,5-2.7,8.76s.9,6.62,2.7,8.7Z"/>
        <path class="uuid-9e2a685a-ad85-4932-9065-32a8536dc565" d="m1671.63,447.55c.8,0,1.34.02,1.62.06v4.62h-1.2c-3.2,0-5.69.79-7.47,2.37s-2.67,3.83-2.67,6.75v17.64h-4.8v-30.96h4.56v5.46c2.08-3.96,5.4-5.94,9.96-5.94Z"/>
        <path class="uuid-9e2a685a-ad85-4932-9065-32a8536dc565" d="m1692.03,447.31c3.44,0,6.12.94,8.04,2.82,1.92,1.88,2.88,4.52,2.88,7.92v20.94h-4.8v-20.46c0-4.6-2.36-6.9-7.08-6.9-2.24,0-4.22.84-5.94,2.52s-2.58,4.12-2.58,7.32v17.52h-4.8v-30.96h4.56v4.62c2.36-3.56,5.6-5.34,9.72-5.34Z"/>
        <path class="uuid-9e2a685a-ad85-4932-9065-32a8536dc565" d="m1735.65,440.35h-2.76c-2.76,0-4.14,1.46-4.14,4.38v3.3h6.6v4.2h-6.6v26.76h-4.8v-26.76h-5.1v-4.2h5.1v-3.18c0-5.8,2.88-8.7,8.64-8.7.76,0,1.78.04,3.06.12v4.08Z"/>
        <path class="uuid-9e2a685a-ad85-4932-9065-32a8536dc565" d="m1754.67,447.55c.8,0,1.34.02,1.62.06v4.62h-1.2c-3.2,0-5.69.79-7.47,2.37s-2.67,3.83-2.67,6.75v17.64h-4.8v-30.96h4.56v5.46c2.08-3.96,5.4-5.94,9.96-5.94Z"/>
        <path class="uuid-9e2a685a-ad85-4932-9065-32a8536dc565" d="m1783.29,475.27c-2.84,2.96-6.44,4.44-10.8,4.44s-7.96-1.48-10.8-4.44c-2.8-2.92-4.2-6.84-4.2-11.76s1.4-8.84,4.2-11.76c2.84-2.96,6.44-4.44,10.8-4.44s7.96,1.48,10.8,4.44c2.8,2.92,4.2,6.84,4.2,11.76s-1.4,8.84-4.2,11.76Zm-18.06-3.06c1.8,2.12,4.22,3.18,7.26,3.18s5.46-1.06,7.26-3.18c1.8-2.08,2.7-4.98,2.7-8.7s-.9-6.68-2.7-8.76c-1.8-2.08-4.22-3.12-7.26-3.12s-5.46,1.04-7.26,3.12c-1.8,2.08-2.7,5-2.7,8.76s.9,6.62,2.7,8.7Z"/>
        <path class="uuid-9e2a685a-ad85-4932-9065-32a8536dc565" d="m1825.77,447.31c3.36,0,5.97.97,7.83,2.91,1.86,1.94,2.79,4.53,2.79,7.77v21h-4.8v-20.52c0-4.56-2.16-6.84-6.48-6.84-2.28,0-4.17.91-5.67,2.73-1.5,1.82-2.25,4.39-2.25,7.71v16.92h-4.8v-20.52c0-4.56-2.16-6.84-6.48-6.84-2.24,0-4.12.91-5.64,2.73-1.52,1.82-2.28,4.39-2.28,7.71v16.92h-4.8v-30.96h4.56v4.56c2.04-3.52,5.02-5.28,8.94-5.28,4.64,0,7.82,1.94,9.54,5.82,2.16-3.88,5.34-5.82,9.54-5.82Z"/>
      </g>
      <g class="uuid-486c52b1-9ef2-4b8f-a8b0-c71d1dd34ed0">
        <path class="uuid-9e2a685a-ad85-4932-9065-32a8536dc565" d="m1062.16,518.03v4.2h-6.36v20.1c0,1.76,1.18,2.64,3.54,2.64h2.82v4.02c-1.32.12-2.46.18-3.42.18-5.16,0-7.74-2.14-7.74-6.42v-20.52h-5.1v-4.2h5.1v-8.76h4.8v8.76h6.36Z"/>
        <path class="uuid-9e2a685a-ad85-4932-9065-32a8536dc565" d="m1081.54,517.31c3.44,0,6.12.94,8.04,2.82,1.92,1.88,2.88,4.52,2.88,7.92v20.94h-4.8v-20.46c0-4.6-2.36-6.9-7.08-6.9-2.24,0-4.22.84-5.94,2.52s-2.58,4.12-2.58,7.32v17.52h-4.8v-42.72h4.8v16.02c2.36-3.32,5.52-4.98,9.48-4.98Z"/>
        <path class="uuid-9e2a685a-ad85-4932-9065-32a8536dc565" d="m1126.66,533.51v1.68h-23.52c.24,3.36,1.18,5.89,2.82,7.59,1.64,1.7,3.88,2.55,6.72,2.55,4.28,0,7.02-1.92,8.22-5.76h4.98c-.84,3.12-2.4,5.59-4.68,7.41-2.28,1.82-5.16,2.73-8.64,2.73-4.28,0-7.74-1.46-10.38-4.38-2.68-2.92-4.02-6.86-4.02-11.82s1.32-8.8,3.96-11.76c2.6-2.96,6.04-4.44,10.32-4.44s7.92,1.54,10.44,4.62c2.52,3.08,3.78,6.94,3.78,11.58Zm-14.22-11.82c-2.52,0-4.58.79-6.18,2.37-1.6,1.58-2.6,3.85-3,6.81h18.24c-.24-2.72-1.16-4.93-2.76-6.63-1.6-1.7-3.7-2.55-6.3-2.55Z"/>
        <path class="uuid-9e2a685a-ad85-4932-9065-32a8536dc565" d="m1170.76,533.51v1.68h-23.52c.24,3.36,1.18,5.89,2.82,7.59,1.64,1.7,3.88,2.55,6.72,2.55,4.28,0,7.02-1.92,8.22-5.76h4.98c-.84,3.12-2.4,5.59-4.68,7.41s-5.16,2.73-8.64,2.73c-4.28,0-7.74-1.46-10.38-4.38-2.68-2.92-4.02-6.86-4.02-11.82s1.32-8.8,3.96-11.76c2.6-2.96,6.04-4.44,10.32-4.44s7.92,1.54,10.44,4.62c2.52,3.08,3.78,6.94,3.78,11.58Zm-14.22-11.82c-2.52,0-4.58.79-6.18,2.37-1.6,1.58-2.6,3.85-3,6.81h18.24c-.24-2.72-1.16-4.93-2.76-6.63-1.6-1.7-3.7-2.55-6.3-2.55Z"/>
        <path class="uuid-9e2a685a-ad85-4932-9065-32a8536dc565" d="m1187.08,549.71c-8.28,0-12.66-3.52-13.14-10.56h4.86c.28,2.32,1.05,3.97,2.31,4.95s3.25,1.47,5.97,1.47c4.96,0,7.44-1.6,7.44-4.8,0-1.4-.51-2.46-1.53-3.18-1.02-.72-2.87-1.34-5.55-1.86l-2.88-.54c-6.44-1.2-9.66-4.24-9.66-9.12,0-2.68,1.01-4.81,3.03-6.39,2.02-1.58,4.77-2.37,8.25-2.37,8.2,0,12.4,3.42,12.6,10.26h-4.8c-.12-2.24-.8-3.82-2.04-4.74-1.24-.92-3.16-1.38-5.76-1.38-2.08,0-3.68.4-4.8,1.2-1.12.8-1.68,1.92-1.68,3.36,0,1.36.48,2.38,1.44,3.06.96.68,2.56,1.26,4.8,1.74l2.76.54c3.8.76,6.53,1.84,8.19,3.24,1.66,1.4,2.49,3.36,2.49,5.88,0,2.92-1.09,5.19-3.27,6.81-2.18,1.62-5.19,2.43-9.03,2.43Z"/>
        <path class="uuid-9e2a685a-ad85-4932-9065-32a8536dc565" d="m1215.7,549.71c-8.28,0-12.66-3.52-13.14-10.56h4.86c.28,2.32,1.05,3.97,2.31,4.95s3.25,1.47,5.97,1.47c4.96,0,7.44-1.6,7.44-4.8,0-1.4-.51-2.46-1.53-3.18-1.02-.72-2.87-1.34-5.55-1.86l-2.88-.54c-6.44-1.2-9.66-4.24-9.66-9.12,0-2.68,1.01-4.81,3.03-6.39,2.02-1.58,4.77-2.37,8.25-2.37,8.2,0,12.4,3.42,12.6,10.26h-4.8c-.12-2.24-.8-3.82-2.04-4.74-1.24-.92-3.16-1.38-5.76-1.38-2.08,0-3.68.4-4.8,1.2-1.12.8-1.68,1.92-1.68,3.36,0,1.36.48,2.38,1.44,3.06.96.68,2.56,1.26,4.8,1.74l2.76.54c3.8.76,6.53,1.84,8.19,3.24,1.66,1.4,2.49,3.36,2.49,5.88,0,2.92-1.09,5.19-3.27,6.81-2.18,1.62-5.19,2.43-9.03,2.43Z"/>
        <path class="uuid-9e2a685a-ad85-4932-9065-32a8536dc565" d="m1259.8,533.51v1.68h-23.52c.24,3.36,1.18,5.89,2.82,7.59,1.64,1.7,3.88,2.55,6.72,2.55,4.28,0,7.02-1.92,8.22-5.76h4.98c-.84,3.12-2.4,5.59-4.68,7.41-2.28,1.82-5.16,2.73-8.64,2.73-4.28,0-7.74-1.46-10.38-4.38-2.68-2.92-4.02-6.86-4.02-11.82s1.32-8.8,3.96-11.76c2.6-2.96,6.04-4.44,10.32-4.44s7.92,1.54,10.44,4.62c2.52,3.08,3.78,6.94,3.78,11.58Zm-14.22-11.82c-2.52,0-4.58.79-6.18,2.37-1.6,1.58-2.6,3.85-3,6.81h18.24c-.24-2.72-1.16-4.93-2.76-6.63-1.6-1.7-3.7-2.55-6.3-2.55Z"/>
        <path class="uuid-9e2a685a-ad85-4932-9065-32a8536dc565" d="m1279.78,517.31c3.44,0,6.12.94,8.04,2.82,1.92,1.88,2.88,4.52,2.88,7.92v20.94h-4.8v-20.46c0-4.6-2.36-6.9-7.08-6.9-2.24,0-4.22.84-5.94,2.52s-2.58,4.12-2.58,7.32v17.52h-4.8v-30.96h4.56v4.62c2.36-3.56,5.6-5.34,9.72-5.34Z"/>
        <path class="uuid-9e2a685a-ad85-4932-9065-32a8536dc565" d="m1310.74,549.71c-4.28,0-7.74-1.48-10.38-4.44-2.64-2.96-3.96-6.88-3.96-11.76s1.32-8.9,3.96-11.82c2.56-2.92,6.02-4.38,10.38-4.38,3.68,0,6.7,1,9.06,3s3.78,4.74,4.26,8.22h-4.98c-.36-2.2-1.31-3.9-2.85-5.1-1.54-1.2-3.37-1.8-5.49-1.8-2.84,0-5.1,1.03-6.78,3.09s-2.52,4.99-2.52,8.79.85,6.68,2.55,8.76c1.7,2.08,3.95,3.12,6.75,3.12,2.12,0,3.96-.62,5.52-1.86,1.56-1.24,2.52-2.96,2.88-5.16h4.92c-.52,3.48-1.99,6.24-4.41,8.28-2.42,2.04-5.39,3.06-8.91,3.06Z"/>
        <path class="uuid-9e2a685a-ad85-4932-9065-32a8536dc565" d="m1356.16,533.51v1.68h-23.52c.24,3.36,1.18,5.89,2.82,7.59,1.64,1.7,3.88,2.55,6.72,2.55,4.28,0,7.02-1.92,8.22-5.76h4.98c-.84,3.12-2.4,5.59-4.68,7.41-2.28,1.82-5.16,2.73-8.64,2.73-4.28,0-7.74-1.46-10.38-4.38-2.68-2.92-4.02-6.86-4.02-11.82s1.32-8.8,3.96-11.76c2.6-2.96,6.04-4.44,10.32-4.44s7.92,1.54,10.44,4.62c2.52,3.08,3.78,6.94,3.78,11.58Zm-14.22-11.82c-2.52,0-4.58.79-6.18,2.37-1.6,1.58-2.6,3.85-3,6.81h18.24c-.24-2.72-1.16-4.93-2.76-6.63-1.6-1.7-3.7-2.55-6.3-2.55Z"/>
        <path class="uuid-9e2a685a-ad85-4932-9065-32a8536dc565" d="m1397.56,545.27c-2.84,2.96-6.44,4.44-10.8,4.44s-7.96-1.48-10.8-4.44c-2.8-2.92-4.2-6.84-4.2-11.76s1.4-8.84,4.2-11.76c2.84-2.96,6.44-4.44,10.8-4.44s7.96,1.48,10.8,4.44c2.8,2.92,4.2,6.84,4.2,11.76s-1.4,8.84-4.2,11.76Zm-18.06-3.06c1.8,2.12,4.22,3.18,7.26,3.18s5.46-1.06,7.26-3.18c1.8-2.08,2.7-4.98,2.7-8.7s-.9-6.68-2.7-8.76c-1.8-2.08-4.22-3.12-7.26-3.12s-5.46,1.04-7.26,3.12c-1.8,2.08-2.7,5-2.7,8.76s.9,6.62,2.7,8.7Z"/>
        <path class="uuid-9e2a685a-ad85-4932-9065-32a8536dc565" d="m1420.36,510.35h-2.76c-2.76,0-4.14,1.46-4.14,4.38v3.3h6.6v4.2h-6.6v26.76h-4.8v-26.76h-5.1v-4.2h5.1v-3.18c0-5.8,2.88-8.7,8.64-8.7.76,0,1.78.04,3.06.12v4.08Z"/>
        <path class="uuid-9e2a685a-ad85-4932-9065-32a8536dc565" d="m1465.42,506.27v4.56h-23.22v13.62h20.82v4.56h-20.82v19.98h-5.04v-42.72h28.26Z"/>
        <path class="uuid-9e2a685a-ad85-4932-9065-32a8536dc565" d="m1483.84,517.55c.8,0,1.34.02,1.62.06v4.62h-1.2c-3.2,0-5.69.79-7.47,2.37s-2.67,3.83-2.67,6.75v17.64h-4.8v-30.96h4.56v5.46c2.08-3.96,5.4-5.94,9.96-5.94Z"/>
        <path class="uuid-9e2a685a-ad85-4932-9065-32a8536dc565" d="m1515.15,533.51v1.68h-23.52c.24,3.36,1.18,5.89,2.82,7.59,1.64,1.7,3.88,2.55,6.72,2.55,4.28,0,7.02-1.92,8.22-5.76h4.98c-.84,3.12-2.4,5.59-4.68,7.41s-5.16,2.73-8.64,2.73c-4.28,0-7.74-1.46-10.38-4.38-2.68-2.92-4.02-6.86-4.02-11.82s1.32-8.8,3.96-11.76c2.6-2.96,6.04-4.44,10.32-4.44s7.92,1.54,10.44,4.62c2.52,3.08,3.78,6.94,3.78,11.58Zm-14.22-11.82c-2.52,0-4.58.79-6.18,2.37-1.6,1.58-2.6,3.85-3,6.81h18.24c-.24-2.72-1.16-4.93-2.76-6.63-1.6-1.7-3.7-2.55-6.3-2.55Z"/>
        <path class="uuid-9e2a685a-ad85-4932-9065-32a8536dc565" d="m1535.14,517.31c3.44,0,6.12.94,8.04,2.82,1.92,1.88,2.88,4.52,2.88,7.92v20.94h-4.8v-20.46c0-4.6-2.36-6.9-7.08-6.9-2.24,0-4.22.84-5.94,2.52s-2.58,4.12-2.58,7.32v17.52h-4.8v-30.96h4.56v4.62c2.36-3.56,5.6-5.34,9.72-5.34Z"/>
        <path class="uuid-9e2a685a-ad85-4932-9065-32a8536dc565" d="m1566.09,549.71c-4.28,0-7.74-1.48-10.38-4.44-2.64-2.96-3.96-6.88-3.96-11.76s1.32-8.9,3.96-11.82c2.56-2.92,6.02-4.38,10.38-4.38,3.68,0,6.7,1,9.06,3,2.36,2,3.78,4.74,4.26,8.22h-4.98c-.36-2.2-1.31-3.9-2.85-5.1-1.54-1.2-3.37-1.8-5.49-1.8-2.84,0-5.1,1.03-6.78,3.09-1.68,2.06-2.52,4.99-2.52,8.79s.85,6.68,2.55,8.76,3.95,3.12,6.75,3.12c2.12,0,3.96-.62,5.52-1.86,1.56-1.24,2.52-2.96,2.88-5.16h4.92c-.52,3.48-1.99,6.24-4.41,8.28-2.42,2.04-5.39,3.06-8.91,3.06Z"/>
        <path class="uuid-9e2a685a-ad85-4932-9065-32a8536dc565" d="m1598.79,517.31c3.44,0,6.12.94,8.04,2.82,1.92,1.88,2.88,4.52,2.88,7.92v20.94h-4.8v-20.46c0-4.6-2.36-6.9-7.08-6.9-2.24,0-4.22.84-5.94,2.52s-2.58,4.12-2.58,7.32v17.52h-4.8v-42.72h4.8v16.02c2.36-3.32,5.52-4.98,9.48-4.98Z"/>
        <path class="uuid-9e2a685a-ad85-4932-9065-32a8536dc565" d="m1630.71,518.03v-3.18c0-5.8,2.88-8.7,8.64-8.7.76,0,1.78.04,3.06.12v4.08h-2.76c-2.76,0-4.14,1.46-4.14,4.38v3.3h6.6v4.2h-6.6v26.76h-4.8v-26.76h-5.1v-4.2h5.1Zm16.02-4.68v-5.88h5.1v5.88h-5.1Zm4.98,35.64h-4.8v-30.96h4.8v30.96Z"/>
        <path class="uuid-9e2a685a-ad85-4932-9065-32a8536dc565" d="m1673.19,517.31c3.44,0,6.12.94,8.04,2.82,1.92,1.88,2.88,4.52,2.88,7.92v20.94h-4.8v-20.46c0-4.6-2.36-6.9-7.08-6.9-2.24,0-4.22.84-5.94,2.52s-2.58,4.12-2.58,7.32v17.52h-4.8v-30.96h4.56v4.62c2.36-3.56,5.6-5.34,9.72-5.34Z"/>
        <path class="uuid-9e2a685a-ad85-4932-9065-32a8536dc565" d="m1718.31,533.51v1.68h-23.52c.24,3.36,1.18,5.89,2.82,7.59,1.64,1.7,3.88,2.55,6.72,2.55,4.28,0,7.02-1.92,8.22-5.76h4.98c-.84,3.12-2.4,5.59-4.68,7.41s-5.16,2.73-8.64,2.73c-4.28,0-7.74-1.46-10.38-4.38-2.68-2.92-4.02-6.86-4.02-11.82s1.32-8.8,3.96-11.76c2.6-2.96,6.04-4.44,10.32-4.44s7.92,1.54,10.44,4.62c2.52,3.08,3.78,6.94,3.78,11.58Zm-14.22-11.82c-2.52,0-4.58.79-6.18,2.37-1.6,1.58-2.6,3.85-3,6.81h18.24c-.24-2.72-1.16-4.93-2.76-6.63-1.6-1.7-3.7-2.55-6.3-2.55Z"/>
        <path class="uuid-9e2a685a-ad85-4932-9065-32a8536dc565" d="m1734.63,549.71c-8.28,0-12.66-3.52-13.14-10.56h4.86c.28,2.32,1.05,3.97,2.31,4.95,1.26.98,3.25,1.47,5.97,1.47,4.96,0,7.44-1.6,7.44-4.8,0-1.4-.51-2.46-1.53-3.18-1.02-.72-2.87-1.34-5.55-1.86l-2.88-.54c-6.44-1.2-9.66-4.24-9.66-9.12,0-2.68,1.01-4.81,3.03-6.39,2.02-1.58,4.77-2.37,8.25-2.37,8.2,0,12.4,3.42,12.6,10.26h-4.8c-.12-2.24-.8-3.82-2.04-4.74-1.24-.92-3.16-1.38-5.76-1.38-2.08,0-3.68.4-4.8,1.2-1.12.8-1.68,1.92-1.68,3.36,0,1.36.48,2.38,1.44,3.06.96.68,2.56,1.26,4.8,1.74l2.76.54c3.8.76,6.53,1.84,8.19,3.24,1.66,1.4,2.49,3.36,2.49,5.88,0,2.92-1.09,5.19-3.27,6.81-2.18,1.62-5.19,2.43-9.03,2.43Z"/>
        <path class="uuid-9e2a685a-ad85-4932-9065-32a8536dc565" d="m1763.25,549.71c-8.28,0-12.66-3.52-13.14-10.56h4.86c.28,2.32,1.05,3.97,2.31,4.95,1.26.98,3.25,1.47,5.97,1.47,4.96,0,7.44-1.6,7.44-4.8,0-1.4-.51-2.46-1.53-3.18-1.02-.72-2.87-1.34-5.55-1.86l-2.88-.54c-6.44-1.2-9.66-4.24-9.66-9.12,0-2.68,1.01-4.81,3.03-6.39,2.02-1.58,4.77-2.37,8.25-2.37,8.2,0,12.4,3.42,12.6,10.26h-4.8c-.12-2.24-.8-3.82-2.04-4.74-1.24-.92-3.16-1.38-5.76-1.38-2.08,0-3.68.4-4.8,1.2-1.12.8-1.68,1.92-1.68,3.36,0,1.36.48,2.38,1.44,3.06.96.68,2.56,1.26,4.8,1.74l2.76.54c3.8.76,6.53,1.84,8.19,3.24,1.66,1.4,2.49,3.36,2.49,5.88,0,2.92-1.09,5.19-3.27,6.81-2.18,1.62-5.19,2.43-9.03,2.43Z"/>
        <path class="uuid-9e2a685a-ad85-4932-9065-32a8536dc565" d="m1807.35,533.51v1.68h-23.52c.24,3.36,1.18,5.89,2.82,7.59,1.64,1.7,3.88,2.55,6.72,2.55,4.28,0,7.02-1.92,8.22-5.76h4.98c-.84,3.12-2.4,5.59-4.68,7.41s-5.16,2.73-8.64,2.73c-4.28,0-7.74-1.46-10.38-4.38-2.68-2.92-4.02-6.86-4.02-11.82s1.32-8.8,3.96-11.76c2.6-2.96,6.04-4.44,10.32-4.44s7.92,1.54,10.44,4.62c2.52,3.08,3.78,6.94,3.78,11.58Zm-14.22-11.82c-2.52,0-4.58.79-6.18,2.37-1.6,1.58-2.6,3.85-3,6.81h18.24c-.24-2.72-1.16-4.93-2.76-6.63-1.6-1.7-3.7-2.55-6.3-2.55Z"/>
      </g>
      <g class="uuid-486c52b1-9ef2-4b8f-a8b0-c71d1dd34ed0">
        <path class="uuid-9e2a685a-ad85-4932-9065-32a8536dc565" d="m1073.92,615.09h1.74v3.9c-.8.12-1.68.18-2.64.18-3.24,0-4.98-1.48-5.22-4.44-2.16,3.32-5.52,4.98-10.08,4.98-3.4,0-6.07-.79-8.01-2.37-1.94-1.58-2.91-3.81-2.91-6.69,0-5.6,3.82-8.8,11.46-9.6l4.44-.48c3.24-.36,4.86-1.78,4.86-4.26,0-1.72-.53-2.96-1.59-3.72-1.06-.76-2.85-1.14-5.37-1.14-2.68,0-4.61.45-5.79,1.35-1.18.9-1.85,2.49-2.01,4.77h-4.8c.4-6.84,4.6-10.26,12.6-10.26s11.64,3,11.64,9v17.28c0,1,.56,1.5,1.68,1.5Zm-15.96.54c2.56,0,4.8-.78,6.72-2.34,1.92-1.52,2.88-3.7,2.88-6.54v-3.66c-.88.68-2.24,1.12-4.08,1.32l-4.5.54c-2.6.32-4.45.92-5.55,1.8-1.1.88-1.65,2.14-1.65,3.78s.52,2.85,1.56,3.75c1.04.9,2.58,1.35,4.62,1.35Z"/>
        <path class="uuid-9e2a685a-ad85-4932-9065-32a8536dc565" d="m1094.14,587.31c3.44,0,6.12.94,8.04,2.82,1.92,1.88,2.88,4.52,2.88,7.92v20.94h-4.8v-20.46c0-4.6-2.36-6.9-7.08-6.9-2.24,0-4.22.84-5.94,2.52s-2.58,4.12-2.58,7.32v17.52h-4.8v-30.96h4.56v4.62c2.36-3.56,5.6-5.34,9.72-5.34Z"/>
        <path class="uuid-9e2a685a-ad85-4932-9065-32a8536dc565" d="m1135.54,592.47v-16.2h4.8v42.72h-4.56v-4.8c-2.48,3.68-6.02,5.52-10.62,5.52-4.36,0-7.84-1.48-10.44-4.44-2.64-2.96-3.96-6.88-3.96-11.76s1.32-8.9,3.96-11.82c2.56-2.92,6.04-4.38,10.44-4.38s7.9,1.72,10.38,5.16Zm-17.04,19.86c1.8,2.04,4.22,3.06,7.26,3.06s5.46-1.06,7.26-3.18c1.8-2.08,2.7-4.98,2.7-8.7s-.9-6.58-2.7-8.7c-1.8-2.12-4.22-3.18-7.26-3.18s-5.41,1.09-7.23,3.27c-1.82,2.18-2.73,5.13-2.73,8.85s.9,6.54,2.7,8.58Z"/>
        <path class="uuid-9e2a685a-ad85-4932-9065-32a8536dc565" d="m1185.94,603.51v1.68h-23.52c.24,3.36,1.18,5.89,2.82,7.59,1.64,1.7,3.88,2.55,6.72,2.55,4.28,0,7.02-1.92,8.22-5.76h4.98c-.84,3.12-2.4,5.59-4.68,7.41-2.28,1.82-5.16,2.73-8.64,2.73-4.28,0-7.74-1.46-10.38-4.38-2.68-2.92-4.02-6.86-4.02-11.82s1.32-8.8,3.96-11.76c2.6-2.96,6.04-4.44,10.32-4.44s7.92,1.54,10.44,4.62c2.52,3.08,3.78,6.94,3.78,11.58Zm-14.22-11.82c-2.52,0-4.58.79-6.18,2.37-1.6,1.58-2.6,3.85-3,6.81h18.24c-.24-2.72-1.16-4.93-2.76-6.63-1.6-1.7-3.7-2.55-6.3-2.55Z"/>
        <path class="uuid-9e2a685a-ad85-4932-9065-32a8536dc565" d="m1205.92,587.31c3.44,0,6.12.94,8.04,2.82,1.92,1.88,2.88,4.52,2.88,7.92v20.94h-4.8v-20.46c0-4.6-2.36-6.9-7.08-6.9-2.24,0-4.22.84-5.94,2.52s-2.58,4.12-2.58,7.32v17.52h-4.8v-30.96h4.56v4.62c2.36-3.56,5.6-5.34,9.72-5.34Z"/>
        <path class="uuid-9e2a685a-ad85-4932-9065-32a8536dc565" d="m1247.56,592.53v-4.5h4.56v29.76c0,4.24-1.24,7.58-3.72,10.02-2.48,2.44-6.04,3.66-10.68,3.66-3.84,0-6.92-.88-9.24-2.64-2.32-1.76-3.64-4.2-3.96-7.32h4.8c.6,3.92,3.4,5.88,8.4,5.88,6.4,0,9.6-3.2,9.6-9.6v-3c-2.44,3.28-5.9,4.92-10.38,4.92s-7.84-1.48-10.44-4.44c-2.64-2.96-3.96-6.88-3.96-11.76s1.32-8.9,3.96-11.82c2.56-2.92,6.04-4.38,10.44-4.38s8.14,1.74,10.62,5.22Zm-10.02,22.86c3.04,0,5.46-1.06,7.26-3.18,1.8-2.12,2.7-5.02,2.7-8.7s-.9-6.58-2.7-8.7-4.22-3.18-7.26-3.18-5.41,1.08-7.23,3.24c-1.82,2.16-2.73,5.04-2.73,8.64s.91,6.48,2.73,8.64c1.82,2.16,4.23,3.24,7.23,3.24Z"/>
        <path class="uuid-9e2a685a-ad85-4932-9065-32a8536dc565" d="m1264.24,583.35h-5.1v-5.88h5.1v5.88Zm-.12,35.64h-4.8v-30.96h4.8v30.96Z"/>
        <path class="uuid-9e2a685a-ad85-4932-9065-32a8536dc565" d="m1285.6,587.31c3.44,0,6.12.94,8.04,2.82,1.92,1.88,2.88,4.52,2.88,7.92v20.94h-4.8v-20.46c0-4.6-2.36-6.9-7.08-6.9-2.24,0-4.22.84-5.94,2.52s-2.58,4.12-2.58,7.32v17.52h-4.8v-30.96h4.56v4.62c2.36-3.56,5.6-5.34,9.72-5.34Z"/>
        <path class="uuid-9e2a685a-ad85-4932-9065-32a8536dc565" d="m1330.72,603.51v1.68h-23.52c.24,3.36,1.18,5.89,2.82,7.59,1.64,1.7,3.88,2.55,6.72,2.55,4.28,0,7.02-1.92,8.22-5.76h4.98c-.84,3.12-2.4,5.59-4.68,7.41s-5.16,2.73-8.64,2.73c-4.28,0-7.74-1.46-10.38-4.38-2.68-2.92-4.02-6.86-4.02-11.82s1.32-8.8,3.96-11.76c2.6-2.96,6.04-4.44,10.32-4.44s7.92,1.54,10.44,4.62c2.52,3.08,3.78,6.94,3.78,11.58Zm-14.22-11.82c-2.52,0-4.58.79-6.18,2.37-1.6,1.58-2.6,3.85-3,6.81h18.24c-.24-2.72-1.16-4.93-2.76-6.63-1.6-1.7-3.7-2.55-6.3-2.55Z"/>
        <path class="uuid-9e2a685a-ad85-4932-9065-32a8536dc565" d="m1363.42,603.51v1.68h-23.52c.24,3.36,1.18,5.89,2.82,7.59,1.64,1.7,3.88,2.55,6.72,2.55,4.28,0,7.02-1.92,8.22-5.76h4.98c-.84,3.12-2.4,5.59-4.68,7.41-2.28,1.82-5.16,2.73-8.64,2.73-4.28,0-7.74-1.46-10.38-4.38-2.68-2.92-4.02-6.86-4.02-11.82s1.32-8.8,3.96-11.76c2.6-2.96,6.04-4.44,10.32-4.44s7.92,1.54,10.44,4.62c2.52,3.08,3.78,6.94,3.78,11.58Zm-14.22-11.82c-2.52,0-4.58.79-6.18,2.37-1.6,1.58-2.6,3.85-3,6.81h18.24c-.24-2.72-1.16-4.93-2.76-6.63-1.6-1.7-3.7-2.55-6.3-2.55Z"/>
        <path class="uuid-9e2a685a-ad85-4932-9065-32a8536dc565" d="m1383.64,587.55c.8,0,1.34.02,1.62.06v4.62h-1.2c-3.2,0-5.69.79-7.47,2.37-1.78,1.58-2.67,3.83-2.67,6.75v17.64h-4.8v-30.96h4.56v5.46c2.08-3.96,5.4-5.94,9.96-5.94Z"/>
        <path class="uuid-9e2a685a-ad85-4932-9065-32a8536dc565" d="m1414.96,603.51v1.68h-23.52c.24,3.36,1.18,5.89,2.82,7.59,1.64,1.7,3.88,2.55,6.72,2.55,4.28,0,7.02-1.92,8.22-5.76h4.98c-.84,3.12-2.4,5.59-4.68,7.41s-5.16,2.73-8.64,2.73c-4.28,0-7.74-1.46-10.38-4.38-2.68-2.92-4.02-6.86-4.02-11.82s1.32-8.8,3.96-11.76c2.6-2.96,6.04-4.44,10.32-4.44s7.92,1.54,10.44,4.62c2.52,3.08,3.78,6.94,3.78,11.58Zm-14.22-11.82c-2.52,0-4.58.79-6.18,2.37-1.6,1.58-2.6,3.85-3,6.81h18.24c-.24-2.72-1.16-4.93-2.76-6.63-1.6-1.7-3.7-2.55-6.3-2.55Z"/>
        <path class="uuid-9e2a685a-ad85-4932-9065-32a8536dc565" d="m1443.94,592.47v-16.2h4.8v42.72h-4.56v-4.8c-2.48,3.68-6.02,5.52-10.62,5.52-4.36,0-7.84-1.48-10.44-4.44-2.64-2.96-3.96-6.88-3.96-11.76s1.32-8.9,3.96-11.82c2.56-2.92,6.04-4.38,10.44-4.38s7.9,1.72,10.38,5.16Zm-17.04,19.86c1.8,2.04,4.22,3.06,7.26,3.06s5.46-1.06,7.26-3.18c1.8-2.08,2.7-4.98,2.7-8.7s-.9-6.58-2.7-8.7c-1.8-2.12-4.22-3.18-7.26-3.18s-5.41,1.09-7.23,3.27c-1.82,2.18-2.73,5.13-2.73,8.85s.9,6.54,2.7,8.58Z"/>
        <path class="uuid-9e2a685a-ad85-4932-9065-32a8536dc565" d="m1481.44,580.35h-2.76c-2.76,0-4.14,1.46-4.14,4.38v3.3h6.6v4.2h-6.6v26.76h-4.8v-26.76h-5.1v-4.2h5.1v-3.18c0-5.8,2.88-8.7,8.64-8.7.76,0,1.78.04,3.06.12v4.08Z"/>
        <path class="uuid-9e2a685a-ad85-4932-9065-32a8536dc565" d="m1508.44,615.27c-2.84,2.96-6.44,4.44-10.8,4.44s-7.96-1.48-10.8-4.44c-2.8-2.92-4.2-6.84-4.2-11.76s1.4-8.84,4.2-11.76c2.84-2.96,6.44-4.44,10.8-4.44s7.96,1.48,10.8,4.44c2.8,2.92,4.2,6.84,4.2,11.76s-1.4,8.84-4.2,11.76Zm-18.06-3.06c1.8,2.12,4.22,3.18,7.26,3.18s5.46-1.06,7.26-3.18c1.8-2.08,2.7-4.98,2.7-8.7s-.9-6.68-2.7-8.76c-1.8-2.08-4.22-3.12-7.26-3.12s-5.46,1.04-7.26,3.12c-1.8,2.08-2.7,5-2.7,8.76s.9,6.62,2.7,8.7Z"/>
        <path class="uuid-9e2a685a-ad85-4932-9065-32a8536dc565" d="m1532.86,587.55c.8,0,1.34.02,1.62.06v4.62h-1.2c-3.2,0-5.69.79-7.47,2.37s-2.67,3.83-2.67,6.75v17.64h-4.8v-30.96h4.56v5.46c2.08-3.96,5.4-5.94,9.96-5.94Z"/>
        <path class="uuid-9e2a685a-ad85-4932-9065-32a8536dc565" d="m1561.89,619.71c-8.28,0-12.66-3.52-13.14-10.56h4.86c.28,2.32,1.05,3.97,2.31,4.95,1.26.98,3.25,1.47,5.97,1.47,4.96,0,7.44-1.6,7.44-4.8,0-1.4-.51-2.46-1.53-3.18-1.02-.72-2.87-1.34-5.55-1.86l-2.88-.54c-6.44-1.2-9.66-4.24-9.66-9.12,0-2.68,1.01-4.81,3.03-6.39,2.02-1.58,4.77-2.37,8.25-2.37,8.2,0,12.4,3.42,12.6,10.26h-4.8c-.12-2.24-.8-3.82-2.04-4.74-1.24-.92-3.16-1.38-5.76-1.38-2.08,0-3.68.4-4.8,1.2-1.12.8-1.68,1.92-1.68,3.36,0,1.36.48,2.38,1.44,3.06.96.68,2.56,1.26,4.8,1.74l2.76.54c3.8.76,6.53,1.84,8.19,3.24,1.66,1.4,2.49,3.36,2.49,5.88,0,2.92-1.09,5.19-3.27,6.81-2.18,1.62-5.19,2.43-9.03,2.43Z"/>
        <path class="uuid-9e2a685a-ad85-4932-9065-32a8536dc565" d="m1599.39,605.55v-17.52h4.8v30.96h-4.56v-4.62c-2.36,3.56-5.6,5.34-9.72,5.34-3.44,0-6.12-.94-8.04-2.82s-2.88-4.52-2.88-7.92v-20.94h4.8v20.46c0,4.6,2.36,6.9,7.08,6.9,2.24,0,4.22-.84,5.94-2.52,1.72-1.68,2.58-4.12,2.58-7.32Z"/>
        <path class="uuid-9e2a685a-ad85-4932-9065-32a8536dc565" d="m1626.57,587.31c4.36,0,7.86,1.46,10.5,4.38,2.6,2.96,3.9,6.9,3.9,11.82s-1.3,8.8-3.9,11.76c-2.64,2.96-6.14,4.44-10.5,4.44s-7.9-1.72-10.38-5.16v16.2h-4.8v-42.72h4.56v4.8c2.48-3.68,6.02-5.52,10.62-5.52Zm-.6,28.08c3,0,5.41-1.09,7.23-3.27,1.82-2.18,2.73-5.13,2.73-8.85s-.89-6.49-2.67-8.55c-1.78-2.06-4.21-3.09-7.29-3.09s-5.46,1.04-7.26,3.12c-1.8,2.08-2.7,5-2.7,8.76s.9,6.62,2.7,8.7c1.8,2.12,4.22,3.18,7.26,3.18Z"/>
        <path class="uuid-9e2a685a-ad85-4932-9065-32a8536dc565" d="m1661.19,587.55c.8,0,1.34.02,1.62.06v4.62h-1.2c-3.2,0-5.69.79-7.47,2.37-1.78,1.58-2.67,3.83-2.67,6.75v17.64h-4.8v-30.96h4.56v5.46c2.08-3.96,5.4-5.94,9.96-5.94Z"/>
        <path class="uuid-9e2a685a-ad85-4932-9065-32a8536dc565" d="m1692.51,603.51v1.68h-23.52c.24,3.36,1.18,5.89,2.82,7.59,1.64,1.7,3.88,2.55,6.72,2.55,4.28,0,7.02-1.92,8.22-5.76h4.98c-.84,3.12-2.4,5.59-4.68,7.41-2.28,1.82-5.16,2.73-8.64,2.73-4.28,0-7.74-1.46-10.38-4.38-2.68-2.92-4.02-6.86-4.02-11.82s1.32-8.8,3.96-11.76c2.6-2.96,6.04-4.44,10.32-4.44s7.92,1.54,10.44,4.62c2.52,3.08,3.78,6.94,3.78,11.58Zm-14.22-11.82c-2.52,0-4.58.79-6.18,2.37-1.6,1.58-2.6,3.85-3,6.81h18.24c-.24-2.72-1.16-4.93-2.76-6.63-1.6-1.7-3.7-2.55-6.3-2.55Z"/>
        <path class="uuid-9e2a685a-ad85-4932-9065-32a8536dc565" d="m1730.79,587.31c3.36,0,5.97.97,7.83,2.91s2.79,4.53,2.79,7.77v21h-4.8v-20.52c0-4.56-2.16-6.84-6.48-6.84-2.28,0-4.17.91-5.67,2.73-1.5,1.82-2.25,4.39-2.25,7.71v16.92h-4.8v-20.52c0-4.56-2.16-6.84-6.48-6.84-2.24,0-4.12.91-5.64,2.73-1.52,1.82-2.28,4.39-2.28,7.71v16.92h-4.8v-30.96h4.56v4.56c2.04-3.52,5.02-5.28,8.94-5.28,4.64,0,7.82,1.94,9.54,5.82,2.16-3.88,5.34-5.82,9.54-5.82Z"/>
        <path class="uuid-9e2a685a-ad85-4932-9065-32a8536dc565" d="m1773.93,615.09h1.74v3.9c-.8.12-1.68.18-2.64.18-3.24,0-4.98-1.48-5.22-4.44-2.16,3.32-5.52,4.98-10.08,4.98-3.4,0-6.07-.79-8.01-2.37-1.94-1.58-2.91-3.81-2.91-6.69,0-5.6,3.82-8.8,11.46-9.6l4.44-.48c3.24-.36,4.86-1.78,4.86-4.26,0-1.72-.53-2.96-1.59-3.72-1.06-.76-2.85-1.14-5.37-1.14-2.68,0-4.61.45-5.79,1.35-1.18.9-1.85,2.49-2.01,4.77h-4.8c.4-6.84,4.6-10.26,12.6-10.26s11.64,3,11.64,9v17.28c0,1,.56,1.5,1.68,1.5Zm-15.96.54c2.56,0,4.8-.78,6.72-2.34,1.92-1.52,2.88-3.7,2.88-6.54v-3.66c-.88.68-2.24,1.12-4.08,1.32l-4.5.54c-2.6.32-4.45.92-5.55,1.8-1.1.88-1.65,2.14-1.65,3.78s.52,2.85,1.56,3.75,2.58,1.35,4.62,1.35Z"/>
        <path class="uuid-9e2a685a-ad85-4932-9065-32a8536dc565" d="m1792.41,619.71c-4.28,0-7.74-1.48-10.38-4.44-2.64-2.96-3.96-6.88-3.96-11.76s1.32-8.9,3.96-11.82c2.56-2.92,6.02-4.38,10.38-4.38,3.68,0,6.7,1,9.06,3,2.36,2,3.78,4.74,4.26,8.22h-4.98c-.36-2.2-1.31-3.9-2.85-5.1-1.54-1.2-3.37-1.8-5.49-1.8-2.84,0-5.1,1.03-6.78,3.09-1.68,2.06-2.52,4.99-2.52,8.79s.85,6.68,2.55,8.76,3.95,3.12,6.75,3.12c2.12,0,3.96-.62,5.52-1.86,1.56-1.24,2.52-2.96,2.88-5.16h4.92c-.52,3.48-1.99,6.24-4.41,8.28-2.42,2.04-5.39,3.06-8.91,3.06Z"/>
        <path class="uuid-9e2a685a-ad85-4932-9065-32a8536dc565" d="m1825.47,600.87l4.38-12.84h5.22l-13.08,35.82c-.92,2.6-2.18,4.43-3.78,5.49-1.6,1.06-3.7,1.59-6.3,1.59-.88,0-1.84-.06-2.88-.18v-4.02h2.82c2.76,0,4.64-1.28,5.64-3.84l1.08-2.88-11.64-31.98h5.28l4.38,12.9c1.56,4.56,3.04,9.02,4.44,13.38,1.16-3.72,2.64-8.2,4.44-13.44Z"/>
        <path class="uuid-9e2a685a-ad85-4932-9065-32a8536dc565" d="m1832.67,618.99v-6h6.06v6.54c0,4.8-1.82,7.38-5.46,7.74l-.6.06v-3.24l.42-.06c1.48-.16,2.22-1.52,2.22-4.08v-.96h-2.64Z"/>
      </g>
      <g class="uuid-486c52b1-9ef2-4b8f-a8b0-c71d1dd34ed0">
        <path class="uuid-9e2a685a-ad85-4932-9065-32a8536dc565" d="m1064.56,689.95c-5.56,0-9.9-1.26-13.02-3.78-3.12-2.52-4.7-6.28-4.74-11.28h5.22c.12,7,4.3,10.5,12.54,10.5,3.48,0,6.15-.68,8.01-2.04,1.86-1.36,2.79-3.34,2.79-5.94,0-2.04-.77-3.63-2.31-4.77-1.54-1.14-4.23-2.13-8.07-2.97l-3.78-.84c-4.32-1-7.56-2.45-9.72-4.35-2.16-1.9-3.24-4.57-3.24-8.01s1.32-6.11,3.96-8.13c2.64-2.02,6.18-3.03,10.62-3.03,3,0,5.61.36,7.83,1.08,2.22.72,3.95,1.73,5.19,3.03,1.24,1.3,2.15,2.71,2.73,4.23.58,1.52.89,3.2.93,5.04h-5.16c-.24-3.04-1.23-5.27-2.97-6.69-1.74-1.42-4.59-2.13-8.55-2.13-3,0-5.31.58-6.93,1.74s-2.43,2.78-2.43,4.86.7,3.7,2.1,4.86c1.36,1.16,4,2.18,7.92,3.06l3.78.84c4.72,1.04,8.12,2.53,10.2,4.47,2.08,1.94,3.12,4.51,3.12,7.71,0,3.88-1.42,6.94-4.26,9.18-2.84,2.24-6.76,3.36-11.76,3.36Z"/>
        <path class="uuid-9e2a685a-ad85-4932-9065-32a8536dc565" d="m1098.64,658.03v4.2h-6.36v20.1c0,1.76,1.18,2.64,3.54,2.64h2.82v4.02c-1.32.12-2.46.18-3.42.18-5.16,0-7.74-2.14-7.74-6.42v-20.52h-5.1v-4.2h5.1v-8.76h4.8v8.76h6.36Z"/>
        <path class="uuid-9e2a685a-ad85-4932-9065-32a8536dc565" d="m1118.26,657.55c.8,0,1.34.02,1.62.06v4.62h-1.2c-3.2,0-5.69.79-7.47,2.37s-2.67,3.83-2.67,6.75v17.64h-4.8v-30.96h4.56v5.46c2.08-3.96,5.4-5.94,9.96-5.94Z"/>
        <path class="uuid-9e2a685a-ad85-4932-9065-32a8536dc565" d="m1129.3,653.35h-5.1v-5.88h5.1v5.88Zm-.12,35.64h-4.8v-30.96h4.8v30.96Z"/>
        <path class="uuid-9e2a685a-ad85-4932-9065-32a8536dc565" d="m1162.72,688.99h-5.58l-10.44-16.62-5.52,5.16v11.46h-4.8v-42.72h4.8v25.62l14.34-13.86h6.36l-11.76,11.16,12.6,19.8Z"/>
        <path class="uuid-9e2a685a-ad85-4932-9065-32a8536dc565" d="m1191.52,673.51v1.68h-23.52c.24,3.36,1.18,5.89,2.82,7.59,1.64,1.7,3.88,2.55,6.72,2.55,4.28,0,7.02-1.92,8.22-5.76h4.98c-.84,3.12-2.4,5.59-4.68,7.41-2.28,1.82-5.16,2.73-8.64,2.73-4.28,0-7.74-1.46-10.38-4.38-2.68-2.92-4.02-6.86-4.02-11.82s1.32-8.8,3.96-11.76c2.6-2.96,6.04-4.44,10.32-4.44s7.92,1.54,10.44,4.62c2.52,3.08,3.78,6.94,3.78,11.58Zm-14.22-11.82c-2.52,0-4.58.79-6.18,2.37-1.6,1.58-2.6,3.85-3,6.81h18.24c-.24-2.72-1.16-4.93-2.76-6.63-1.6-1.7-3.7-2.55-6.3-2.55Z"/>
        <path class="uuid-9e2a685a-ad85-4932-9065-32a8536dc565" d="m1225.48,646.27v4.56h-23.22v13.62h20.82v4.56h-20.82v19.98h-5.04v-42.72h28.26Z"/>
        <path class="uuid-9e2a685a-ad85-4932-9065-32a8536dc565" d="m1234,653.35h-5.1v-5.88h5.1v5.88Zm-.12,35.64h-4.8v-30.96h4.8v30.96Z"/>
        <path class="uuid-9e2a685a-ad85-4932-9065-32a8536dc565" d="m1254.64,658.03v4.2h-6.36v20.1c0,1.76,1.18,2.64,3.54,2.64h2.82v4.02c-1.32.12-2.46.18-3.42.18-5.16,0-7.74-2.14-7.74-6.42v-20.52h-5.1v-4.2h5.1v-8.76h4.8v8.76h6.36Z"/>
        <path class="uuid-9e2a685a-ad85-4932-9065-32a8536dc565" d="m1276.06,653.35h-5.1v-5.88h5.1v5.88Zm-.12,35.64h-4.8v-30.96h4.8v30.96Z"/>
        <path class="uuid-9e2a685a-ad85-4932-9065-32a8536dc565" d="m1294.06,689.71c-8.28,0-12.66-3.52-13.14-10.56h4.86c.28,2.32,1.05,3.97,2.31,4.95s3.25,1.47,5.97,1.47c4.96,0,7.44-1.6,7.44-4.8,0-1.4-.51-2.46-1.53-3.18-1.02-.72-2.87-1.34-5.55-1.86l-2.88-.54c-6.44-1.2-9.66-4.24-9.66-9.12,0-2.68,1.01-4.81,3.03-6.39,2.02-1.58,4.77-2.37,8.25-2.37,8.2,0,12.4,3.42,12.6,10.26h-4.8c-.12-2.24-.8-3.82-2.04-4.74-1.24-.92-3.16-1.38-5.76-1.38-2.08,0-3.68.4-4.8,1.2-1.12.8-1.68,1.92-1.68,3.36,0,1.36.48,2.38,1.44,3.06.96.68,2.56,1.26,4.8,1.74l2.76.54c3.8.76,6.53,1.84,8.19,3.24,1.66,1.4,2.49,3.36,2.49,5.88,0,2.92-1.09,5.19-3.27,6.81-2.18,1.62-5.19,2.43-9.03,2.43Z"/>
        <path class="uuid-9e2a685a-ad85-4932-9065-32a8536dc565" d="m1336.12,658.03v4.2h-6.36v20.1c0,1.76,1.18,2.64,3.54,2.64h2.82v4.02c-1.32.12-2.46.18-3.42.18-5.16,0-7.74-2.14-7.74-6.42v-20.52h-5.1v-4.2h5.1v-8.76h4.8v8.76h6.36Z"/>
        <path class="uuid-9e2a685a-ad85-4932-9065-32a8536dc565" d="m1355.5,657.31c3.44,0,6.12.94,8.04,2.82,1.92,1.88,2.88,4.52,2.88,7.92v20.94h-4.8v-20.46c0-4.6-2.36-6.9-7.08-6.9-2.24,0-4.22.84-5.94,2.52s-2.58,4.12-2.58,7.32v17.52h-4.8v-42.72h4.8v16.02c2.36-3.32,5.52-4.98,9.48-4.98Z"/>
        <path class="uuid-9e2a685a-ad85-4932-9065-32a8536dc565" d="m1400.62,673.51v1.68h-23.52c.24,3.36,1.18,5.89,2.82,7.59,1.64,1.7,3.88,2.55,6.72,2.55,4.28,0,7.02-1.92,8.22-5.76h4.98c-.84,3.12-2.4,5.59-4.68,7.41s-5.16,2.73-8.64,2.73c-4.28,0-7.74-1.46-10.38-4.38-2.68-2.92-4.02-6.86-4.02-11.82s1.32-8.8,3.96-11.76c2.6-2.96,6.04-4.44,10.32-4.44s7.92,1.54,10.44,4.62c2.52,3.08,3.78,6.94,3.78,11.58Zm-14.22-11.82c-2.52,0-4.58.79-6.18,2.37-1.6,1.58-2.6,3.85-3,6.81h18.24c-.24-2.72-1.16-4.93-2.76-6.63-1.6-1.7-3.7-2.55-6.3-2.55Z"/>
        <path class="uuid-9e2a685a-ad85-4932-9065-32a8536dc565" d="m1428.64,689.71c-8.28,0-12.66-3.52-13.14-10.56h4.86c.28,2.32,1.05,3.97,2.31,4.95,1.26.98,3.25,1.47,5.97,1.47,4.96,0,7.44-1.6,7.44-4.8,0-1.4-.51-2.46-1.53-3.18-1.02-.72-2.87-1.34-5.55-1.86l-2.88-.54c-6.44-1.2-9.66-4.24-9.66-9.12,0-2.68,1.01-4.81,3.03-6.39,2.02-1.58,4.77-2.37,8.25-2.37,8.2,0,12.4,3.42,12.6,10.26h-4.8c-.12-2.24-.8-3.82-2.04-4.74-1.24-.92-3.16-1.38-5.76-1.38-2.08,0-3.68.4-4.8,1.2-1.12.8-1.68,1.92-1.68,3.36,0,1.36.48,2.38,1.44,3.06.96.68,2.56,1.26,4.8,1.74l2.76.54c3.8.76,6.53,1.84,8.19,3.24,1.66,1.4,2.49,3.36,2.49,5.88,0,2.92-1.09,5.19-3.27,6.81-2.18,1.62-5.19,2.43-9.03,2.43Z"/>
        <path class="uuid-9e2a685a-ad85-4932-9065-32a8536dc565" d="m1450.66,653.35h-5.1v-5.88h5.1v5.88Zm-.12,35.64h-4.8v-30.96h4.8v30.96Z"/>
        <path class="uuid-9e2a685a-ad85-4932-9065-32a8536dc565" d="m1462.54,688.99h-4.8v-42.72h4.8v42.72Z"/>
        <path class="uuid-9e2a685a-ad85-4932-9065-32a8536dc565" d="m1496.74,673.51v1.68h-23.52c.24,3.36,1.18,5.89,2.82,7.59,1.64,1.7,3.88,2.55,6.72,2.55,4.28,0,7.02-1.92,8.22-5.76h4.98c-.84,3.12-2.4,5.59-4.68,7.41-2.28,1.82-5.16,2.73-8.64,2.73-4.28,0-7.74-1.46-10.38-4.38-2.68-2.92-4.02-6.86-4.02-11.82s1.32-8.8,3.96-11.76c2.6-2.96,6.04-4.44,10.32-4.44s7.92,1.54,10.44,4.62c2.52,3.08,3.78,6.94,3.78,11.58Zm-14.22-11.82c-2.52,0-4.58.79-6.18,2.37-1.6,1.58-2.6,3.85-3,6.81h18.24c-.24-2.72-1.16-4.93-2.76-6.63-1.6-1.7-3.7-2.55-6.3-2.55Z"/>
        <path class="uuid-9e2a685a-ad85-4932-9065-32a8536dc565" d="m1516.72,657.31c3.44,0,6.12.94,8.04,2.82,1.92,1.88,2.88,4.52,2.88,7.92v20.94h-4.8v-20.46c0-4.6-2.36-6.9-7.08-6.9-2.24,0-4.22.84-5.94,2.52s-2.58,4.12-2.58,7.32v17.52h-4.8v-30.96h4.56v4.62c2.36-3.56,5.6-5.34,9.72-5.34Z"/>
        <path class="uuid-9e2a685a-ad85-4932-9065-32a8536dc565" d="m1547.2,658.03v4.2h-6.36v20.1c0,1.76,1.18,2.64,3.54,2.64h2.82v4.02c-1.32.12-2.46.18-3.42.18-5.16,0-7.74-2.14-7.74-6.42v-20.52h-5.1v-4.2h5.1v-8.76h4.8v8.76h6.36Z"/>
        <path class="uuid-9e2a685a-ad85-4932-9065-32a8536dc565" d="m1576.53,689.71c-4.28,0-7.74-1.48-10.38-4.44-2.64-2.96-3.96-6.88-3.96-11.76s1.32-8.9,3.96-11.82c2.56-2.92,6.02-4.38,10.38-4.38,3.68,0,6.7,1,9.06,3,2.36,2,3.78,4.74,4.26,8.22h-4.98c-.36-2.2-1.31-3.9-2.85-5.1-1.54-1.2-3.37-1.8-5.49-1.8-2.84,0-5.1,1.03-6.78,3.09-1.68,2.06-2.52,4.99-2.52,8.79s.85,6.68,2.55,8.76,3.95,3.12,6.75,3.12c2.12,0,3.96-.62,5.52-1.86,1.56-1.24,2.52-2.96,2.88-5.16h4.92c-.52,3.48-1.99,6.24-4.41,8.28-2.42,2.04-5.39,3.06-8.91,3.06Z"/>
        <path class="uuid-9e2a685a-ad85-4932-9065-32a8536dc565" d="m1619.25,685.27c-2.84,2.96-6.44,4.44-10.8,4.44s-7.96-1.48-10.8-4.44c-2.8-2.92-4.2-6.84-4.2-11.76s1.4-8.84,4.2-11.76c2.84-2.96,6.44-4.44,10.8-4.44s7.96,1.48,10.8,4.44c2.8,2.92,4.2,6.84,4.2,11.76s-1.4,8.84-4.2,11.76Zm-18.06-3.06c1.8,2.12,4.22,3.18,7.26,3.18s5.46-1.06,7.26-3.18c1.8-2.08,2.7-4.98,2.7-8.7s-.9-6.68-2.7-8.76c-1.8-2.08-4.22-3.12-7.26-3.12s-5.46,1.04-7.26,3.12c-1.8,2.08-2.7,5-2.7,8.76s.9,6.62,2.7,8.7Z"/>
        <path class="uuid-9e2a685a-ad85-4932-9065-32a8536dc565" d="m1643.43,657.31c3.44,0,6.12.94,8.04,2.82,1.92,1.88,2.88,4.52,2.88,7.92v20.94h-4.8v-20.46c0-4.6-2.36-6.9-7.08-6.9-2.24,0-4.22.84-5.94,2.52-1.72,1.68-2.58,4.12-2.58,7.32v17.52h-4.8v-30.96h4.56v4.62c2.36-3.56,5.6-5.34,9.72-5.34Z"/>
        <path class="uuid-9e2a685a-ad85-4932-9065-32a8536dc565" d="m1663.65,658.03v-3.18c0-5.8,2.88-8.7,8.64-8.7.76,0,1.78.04,3.06.12v4.08h-2.76c-2.76,0-4.14,1.46-4.14,4.38v3.3h6.6v4.2h-6.6v26.76h-4.8v-26.76h-5.1v-4.2h5.1Zm16.02-4.68v-5.88h5.1v5.88h-5.1Zm4.98,35.64h-4.8v-30.96h4.8v30.96Z"/>
        <path class="uuid-9e2a685a-ad85-4932-9065-32a8536dc565" d="m1715.13,662.47v-16.2h4.8v42.72h-4.56v-4.8c-2.48,3.68-6.02,5.52-10.62,5.52-4.36,0-7.84-1.48-10.44-4.44-2.64-2.96-3.96-6.88-3.96-11.76s1.32-8.9,3.96-11.82c2.56-2.92,6.04-4.38,10.44-4.38s7.9,1.72,10.38,5.16Zm-17.04,19.86c1.8,2.04,4.22,3.06,7.26,3.06s5.46-1.06,7.26-3.18c1.8-2.08,2.7-4.98,2.7-8.7s-.9-6.58-2.7-8.7c-1.8-2.12-4.22-3.18-7.26-3.18s-5.41,1.09-7.23,3.27c-1.82,2.18-2.73,5.13-2.73,8.85s.9,6.54,2.7,8.58Z"/>
        <path class="uuid-9e2a685a-ad85-4932-9065-32a8536dc565" d="m1754.13,673.51v1.68h-23.52c.24,3.36,1.18,5.89,2.82,7.59,1.64,1.7,3.88,2.55,6.72,2.55,4.28,0,7.02-1.92,8.22-5.76h4.98c-.84,3.12-2.4,5.59-4.68,7.41s-5.16,2.73-8.64,2.73c-4.28,0-7.74-1.46-10.38-4.38-2.68-2.92-4.02-6.86-4.02-11.82s1.32-8.8,3.96-11.76c2.6-2.96,6.04-4.44,10.32-4.44s7.92,1.54,10.44,4.62c2.52,3.08,3.78,6.94,3.78,11.58Zm-14.22-11.82c-2.52,0-4.58.79-6.18,2.37-1.6,1.58-2.6,3.85-3,6.81h18.24c-.24-2.72-1.16-4.93-2.76-6.63-1.6-1.7-3.7-2.55-6.3-2.55Z"/>
        <path class="uuid-9e2a685a-ad85-4932-9065-32a8536dc565" d="m1774.11,657.31c3.44,0,6.12.94,8.04,2.82,1.92,1.88,2.88,4.52,2.88,7.92v20.94h-4.8v-20.46c0-4.6-2.36-6.9-7.08-6.9-2.24,0-4.22.84-5.94,2.52-1.72,1.68-2.58,4.12-2.58,7.32v17.52h-4.8v-30.96h4.56v4.62c2.36-3.56,5.6-5.34,9.72-5.34Z"/>
        <path class="uuid-9e2a685a-ad85-4932-9065-32a8536dc565" d="m1804.59,658.03v4.2h-6.36v20.1c0,1.76,1.18,2.64,3.54,2.64h2.82v4.02c-1.32.12-2.46.18-3.42.18-5.16,0-7.74-2.14-7.74-6.42v-20.52h-5.1v-4.2h5.1v-8.76h4.8v8.76h6.36Z"/>
        <path class="uuid-9e2a685a-ad85-4932-9065-32a8536dc565" d="m1834.65,658.03v4.2h-6.36v20.1c0,1.76,1.18,2.64,3.54,2.64h2.82v4.02c-1.32.12-2.46.18-3.42.18-5.16,0-7.74-2.14-7.74-6.42v-20.52h-5.1v-4.2h5.1v-8.76h4.8v8.76h6.36Z"/>
        <path class="uuid-9e2a685a-ad85-4932-9065-32a8536dc565" d="m1863.45,685.27c-2.84,2.96-6.44,4.44-10.8,4.44s-7.96-1.48-10.8-4.44c-2.8-2.92-4.2-6.84-4.2-11.76s1.4-8.84,4.2-11.76c2.84-2.96,6.44-4.44,10.8-4.44s7.96,1.48,10.8,4.44c2.8,2.92,4.2,6.84,4.2,11.76s-1.4,8.84-4.2,11.76Zm-18.06-3.06c1.8,2.12,4.22,3.18,7.26,3.18s5.46-1.06,7.26-3.18c1.8-2.08,2.7-4.98,2.7-8.7s-.9-6.68-2.7-8.76c-1.8-2.08-4.22-3.12-7.26-3.12s-5.46,1.04-7.26,3.12c-1.8,2.08-2.7,5-2.7,8.76s.9,6.62,2.7,8.7Z"/>
      </g>
      <g class="uuid-486c52b1-9ef2-4b8f-a8b0-c71d1dd34ed0">
        <path class="uuid-9e2a685a-ad85-4932-9065-32a8536dc565" d="m1063.84,740.87l4.38-12.84h5.22l-13.08,35.82c-.92,2.6-2.18,4.43-3.78,5.49-1.6,1.06-3.7,1.59-6.3,1.59-.88,0-1.84-.06-2.88-.18v-4.02h2.82c2.76,0,4.64-1.28,5.64-3.84l1.08-2.88-11.64-31.98h5.28l4.38,12.9c1.56,4.56,3.04,9.02,4.44,13.38,1.16-3.72,2.64-8.2,4.44-13.44Z"/>
        <path class="uuid-9e2a685a-ad85-4932-9065-32a8536dc565" d="m1099.84,755.27c-2.84,2.96-6.44,4.44-10.8,4.44s-7.96-1.48-10.8-4.44c-2.8-2.92-4.2-6.84-4.2-11.76s1.4-8.84,4.2-11.76c2.84-2.96,6.44-4.44,10.8-4.44s7.96,1.48,10.8,4.44c2.8,2.92,4.2,6.84,4.2,11.76s-1.4,8.84-4.2,11.76Zm-18.06-3.06c1.8,2.12,4.22,3.18,7.26,3.18s5.46-1.06,7.26-3.18c1.8-2.08,2.7-4.98,2.7-8.7s-.9-6.68-2.7-8.76c-1.8-2.08-4.22-3.12-7.26-3.12s-5.46,1.04-7.26,3.12c-1.8,2.08-2.7,5-2.7,8.76s.9,6.62,2.7,8.7Z"/>
        <path class="uuid-9e2a685a-ad85-4932-9065-32a8536dc565" d="m1129.24,745.55v-17.52h4.8v30.96h-4.56v-4.62c-2.36,3.56-5.6,5.34-9.72,5.34-3.44,0-6.12-.94-8.04-2.82s-2.88-4.52-2.88-7.92v-20.94h4.8v20.46c0,4.6,2.36,6.9,7.08,6.9,2.24,0,4.22-.84,5.94-2.52s2.58-4.12,2.58-7.32Z"/>
        <path class="uuid-9e2a685a-ad85-4932-9065-32a8536dc565" d="m1155.76,727.55c.8,0,1.34.02,1.62.06v4.62h-1.2c-3.2,0-5.69.79-7.47,2.37s-2.67,3.83-2.67,6.75v17.64h-4.8v-30.96h4.56v5.46c2.08-3.96,5.4-5.94,9.96-5.94Z"/>
        <path class="uuid-9e2a685a-ad85-4932-9065-32a8536dc565" d="m1188.4,727.55c.8,0,1.34.02,1.62.06v4.62h-1.2c-3.2,0-5.69.79-7.47,2.37s-2.67,3.83-2.67,6.75v17.64h-4.8v-30.96h4.56v5.46c2.08-3.96,5.4-5.94,9.96-5.94Z"/>
        <path class="uuid-9e2a685a-ad85-4932-9065-32a8536dc565" d="m1219.72,743.51v1.68h-23.52c.24,3.36,1.18,5.89,2.82,7.59,1.64,1.7,3.88,2.55,6.72,2.55,4.28,0,7.02-1.92,8.22-5.76h4.98c-.84,3.12-2.4,5.59-4.68,7.41-2.28,1.82-5.16,2.73-8.64,2.73-4.28,0-7.74-1.46-10.38-4.38-2.68-2.92-4.02-6.86-4.02-11.82s1.32-8.8,3.96-11.76c2.6-2.96,6.04-4.44,10.32-4.44s7.92,1.54,10.44,4.62c2.52,3.08,3.78,6.94,3.78,11.58Zm-14.22-11.82c-2.52,0-4.58.79-6.18,2.37-1.6,1.58-2.6,3.85-3,6.81h18.24c-.24-2.72-1.16-4.93-2.76-6.63-1.6-1.7-3.7-2.55-6.3-2.55Z"/>
        <path class="uuid-9e2a685a-ad85-4932-9065-32a8536dc565" d="m1230.22,758.99h-4.8v-42.72h4.8v42.72Z"/>
        <path class="uuid-9e2a685a-ad85-4932-9065-32a8536dc565" d="m1264.42,743.51v1.68h-23.52c.24,3.36,1.18,5.89,2.82,7.59,1.64,1.7,3.88,2.55,6.72,2.55,4.28,0,7.02-1.92,8.22-5.76h4.98c-.84,3.12-2.4,5.59-4.68,7.41s-5.16,2.73-8.64,2.73c-4.28,0-7.74-1.46-10.38-4.38-2.68-2.92-4.02-6.86-4.02-11.82s1.32-8.8,3.96-11.76c2.6-2.96,6.04-4.44,10.32-4.44s7.92,1.54,10.44,4.62c2.52,3.08,3.78,6.94,3.78,11.58Zm-14.22-11.82c-2.52,0-4.58.79-6.18,2.37-1.6,1.58-2.6,3.85-3,6.81h18.24c-.24-2.72-1.16-4.93-2.76-6.63-1.6-1.7-3.7-2.55-6.3-2.55Z"/>
        <path class="uuid-9e2a685a-ad85-4932-9065-32a8536dc565" d="m1284.4,727.31c3.44,0,6.12.94,8.04,2.82,1.92,1.88,2.88,4.52,2.88,7.92v20.94h-4.8v-20.46c0-4.6-2.36-6.9-7.08-6.9-2.24,0-4.22.84-5.94,2.52s-2.58,4.12-2.58,7.32v17.52h-4.8v-30.96h4.56v4.62c2.36-3.56,5.6-5.34,9.72-5.34Z"/>
        <path class="uuid-9e2a685a-ad85-4932-9065-32a8536dc565" d="m1314.88,728.03v4.2h-6.36v20.1c0,1.76,1.18,2.64,3.54,2.64h2.82v4.02c-1.32.12-2.46.18-3.42.18-5.16,0-7.74-2.14-7.74-6.42v-20.52h-5.1v-4.2h5.1v-8.76h4.8v8.76h6.36Z"/>
        <path class="uuid-9e2a685a-ad85-4932-9065-32a8536dc565" d="m1324.78,758.99h-4.8v-42.72h4.8v42.72Z"/>
        <path class="uuid-9e2a685a-ad85-4932-9065-32a8536dc565" d="m1358.98,743.51v1.68h-23.52c.24,3.36,1.18,5.89,2.82,7.59,1.64,1.7,3.88,2.55,6.72,2.55,4.28,0,7.02-1.92,8.22-5.76h4.98c-.84,3.12-2.4,5.59-4.68,7.41s-5.16,2.73-8.64,2.73c-4.28,0-7.74-1.46-10.38-4.38-2.68-2.92-4.02-6.86-4.02-11.82s1.32-8.8,3.96-11.76c2.6-2.96,6.04-4.44,10.32-4.44s7.92,1.54,10.44,4.62c2.52,3.08,3.78,6.94,3.78,11.58Zm-14.22-11.82c-2.52,0-4.58.79-6.18,2.37-1.6,1.58-2.6,3.85-3,6.81h18.24c-.24-2.72-1.16-4.93-2.76-6.63-1.6-1.7-3.7-2.55-6.3-2.55Z"/>
        <path class="uuid-9e2a685a-ad85-4932-9065-32a8536dc565" d="m1375.3,759.71c-8.28,0-12.66-3.52-13.14-10.56h4.86c.28,2.32,1.05,3.97,2.31,4.95s3.25,1.47,5.97,1.47c4.96,0,7.44-1.6,7.44-4.8,0-1.4-.51-2.46-1.53-3.18-1.02-.72-2.87-1.34-5.55-1.86l-2.88-.54c-6.44-1.2-9.66-4.24-9.66-9.12,0-2.68,1.01-4.81,3.03-6.39,2.02-1.58,4.77-2.37,8.25-2.37,8.2,0,12.4,3.42,12.6,10.26h-4.8c-.12-2.24-.8-3.82-2.04-4.74-1.24-.92-3.16-1.38-5.76-1.38-2.08,0-3.68.4-4.8,1.2-1.12.8-1.68,1.92-1.68,3.36,0,1.36.48,2.38,1.44,3.06.96.68,2.56,1.26,4.8,1.74l2.76.54c3.8.76,6.53,1.84,8.19,3.24,1.66,1.4,2.49,3.36,2.49,5.88,0,2.92-1.09,5.19-3.27,6.81-2.18,1.62-5.19,2.43-9.03,2.43Z"/>
        <path class="uuid-9e2a685a-ad85-4932-9065-32a8536dc565" d="m1403.92,759.71c-8.28,0-12.66-3.52-13.14-10.56h4.86c.28,2.32,1.05,3.97,2.31,4.95s3.25,1.47,5.97,1.47c4.96,0,7.44-1.6,7.44-4.8,0-1.4-.51-2.46-1.53-3.18-1.02-.72-2.87-1.34-5.55-1.86l-2.88-.54c-6.44-1.2-9.66-4.24-9.66-9.12,0-2.68,1.01-4.81,3.03-6.39,2.02-1.58,4.77-2.37,8.25-2.37,8.2,0,12.4,3.42,12.6,10.26h-4.8c-.12-2.24-.8-3.82-2.04-4.74-1.24-.92-3.16-1.38-5.76-1.38-2.08,0-3.68.4-4.8,1.2-1.12.8-1.68,1.92-1.68,3.36,0,1.36.48,2.38,1.44,3.06.96.68,2.56,1.26,4.8,1.74l2.76.54c3.8.76,6.53,1.84,8.19,3.24,1.66,1.4,2.49,3.36,2.49,5.88,0,2.92-1.09,5.19-3.27,6.81-2.18,1.62-5.19,2.43-9.03,2.43Z"/>
        <path class="uuid-9e2a685a-ad85-4932-9065-32a8536dc565" d="m1447.59,727.31c4.36,0,7.86,1.46,10.5,4.38,2.6,2.96,3.9,6.9,3.9,11.82s-1.3,8.8-3.9,11.76c-2.64,2.96-6.14,4.44-10.5,4.44s-7.9-1.72-10.38-5.16v16.2h-4.8v-42.72h4.56v4.8c2.48-3.68,6.02-5.52,10.62-5.52Zm-.6,28.08c3,0,5.41-1.09,7.23-3.27,1.82-2.18,2.73-5.13,2.73-8.85s-.89-6.49-2.67-8.55c-1.78-2.06-4.21-3.09-7.29-3.09s-5.46,1.04-7.26,3.12c-1.8,2.08-2.7,5-2.7,8.76s.9,6.62,2.7,8.7c1.8,2.12,4.22,3.18,7.26,3.18Z"/>
        <path class="uuid-9e2a685a-ad85-4932-9065-32a8536dc565" d="m1487.19,745.55v-17.52h4.8v30.96h-4.56v-4.62c-2.36,3.56-5.6,5.34-9.72,5.34-3.44,0-6.12-.94-8.04-2.82s-2.88-4.52-2.88-7.92v-20.94h4.8v20.46c0,4.6,2.36,6.9,7.08,6.9,2.24,0,4.22-.84,5.94-2.52,1.72-1.68,2.58-4.12,2.58-7.32Z"/>
        <path class="uuid-9e2a685a-ad85-4932-9065-32a8536dc565" d="m1513.71,727.55c.8,0,1.34.02,1.62.06v4.62h-1.2c-3.2,0-5.69.79-7.47,2.37-1.78,1.58-2.67,3.83-2.67,6.75v17.64h-4.8v-30.96h4.56v5.46c2.08-3.96,5.4-5.94,9.96-5.94Z"/>
        <path class="uuid-9e2a685a-ad85-4932-9065-32a8536dc565" d="m1529.55,759.71c-8.28,0-12.66-3.52-13.14-10.56h4.86c.28,2.32,1.05,3.97,2.31,4.95,1.26.98,3.25,1.47,5.97,1.47,4.96,0,7.44-1.6,7.44-4.8,0-1.4-.51-2.46-1.53-3.18-1.02-.72-2.87-1.34-5.55-1.86l-2.88-.54c-6.44-1.2-9.66-4.24-9.66-9.12,0-2.68,1.01-4.81,3.03-6.39,2.02-1.58,4.77-2.37,8.25-2.37,8.2,0,12.4,3.42,12.6,10.26h-4.8c-.12-2.24-.8-3.82-2.04-4.74-1.24-.92-3.16-1.38-5.76-1.38-2.08,0-3.68.4-4.8,1.2-1.12.8-1.68,1.92-1.68,3.36,0,1.36.48,2.38,1.44,3.06.96.68,2.56,1.26,4.8,1.74l2.76.54c3.8.76,6.53,1.84,8.19,3.24,1.66,1.4,2.49,3.36,2.49,5.88,0,2.92-1.09,5.19-3.27,6.81-2.18,1.62-5.19,2.43-9.03,2.43Z"/>
        <path class="uuid-9e2a685a-ad85-4932-9065-32a8536dc565" d="m1567.05,745.55v-17.52h4.8v30.96h-4.56v-4.62c-2.36,3.56-5.6,5.34-9.72,5.34-3.44,0-6.12-.94-8.04-2.82s-2.88-4.52-2.88-7.92v-20.94h4.8v20.46c0,4.6,2.36,6.9,7.08,6.9,2.24,0,4.22-.84,5.94-2.52s2.58-4.12,2.58-7.32Z"/>
        <path class="uuid-9e2a685a-ad85-4932-9065-32a8536dc565" d="m1583.97,723.35h-5.1v-5.88h5.1v5.88Zm-.12,35.64h-4.8v-30.96h4.8v30.96Z"/>
        <path class="uuid-9e2a685a-ad85-4932-9065-32a8536dc565" d="m1604.61,728.03v4.2h-6.36v20.1c0,1.76,1.18,2.64,3.54,2.64h2.82v4.02c-1.32.12-2.46.18-3.42.18-5.16,0-7.74-2.14-7.74-6.42v-20.52h-5.1v-4.2h5.1v-8.76h4.8v8.76h6.36Z"/>
        <path class="uuid-9e2a685a-ad85-4932-9065-32a8536dc565" d="m1645.41,755.27c-2.84,2.96-6.44,4.44-10.8,4.44s-7.96-1.48-10.8-4.44c-2.8-2.92-4.2-6.84-4.2-11.76s1.4-8.84,4.2-11.76c2.84-2.96,6.44-4.44,10.8-4.44s7.96,1.48,10.8,4.44c2.8,2.92,4.2,6.84,4.2,11.76s-1.4,8.84-4.2,11.76Zm-18.06-3.06c1.8,2.12,4.22,3.18,7.26,3.18s5.46-1.06,7.26-3.18c1.8-2.08,2.7-4.98,2.7-8.7s-.9-6.68-2.7-8.76c-1.8-2.08-4.22-3.12-7.26-3.12s-5.46,1.04-7.26,3.12c-1.8,2.08-2.7,5-2.7,8.76s.9,6.62,2.7,8.7Z"/>
        <path class="uuid-9e2a685a-ad85-4932-9065-32a8536dc565" d="m1668.21,720.35h-2.76c-2.76,0-4.14,1.46-4.14,4.38v3.3h6.6v4.2h-6.6v26.76h-4.8v-26.76h-5.1v-4.2h5.1v-3.18c0-5.8,2.88-8.7,8.64-8.7.76,0,1.78.04,3.06.12v4.08Z"/>
        <path class="uuid-9e2a685a-ad85-4932-9065-32a8536dc565" d="m1699.89,727.31c4.36,0,7.86,1.46,10.5,4.38,2.6,2.96,3.9,6.9,3.9,11.82s-1.3,8.8-3.9,11.76c-2.64,2.96-6.14,4.44-10.5,4.44s-7.9-1.72-10.38-5.16v16.2h-4.8v-42.72h4.56v4.8c2.48-3.68,6.02-5.52,10.62-5.52Zm-.6,28.08c3,0,5.41-1.09,7.23-3.27,1.82-2.18,2.73-5.13,2.73-8.85s-.89-6.49-2.67-8.55c-1.78-2.06-4.21-3.09-7.29-3.09s-5.46,1.04-7.26,3.12c-1.8,2.08-2.7,5-2.7,8.76s.9,6.62,2.7,8.7c1.8,2.12,4.22,3.18,7.26,3.18Z"/>
        <path class="uuid-9e2a685a-ad85-4932-9065-32a8536dc565" d="m1744.29,755.27c-2.84,2.96-6.44,4.44-10.8,4.44s-7.96-1.48-10.8-4.44c-2.8-2.92-4.2-6.84-4.2-11.76s1.4-8.84,4.2-11.76c2.84-2.96,6.44-4.44,10.8-4.44s7.96,1.48,10.8,4.44c2.8,2.92,4.2,6.84,4.2,11.76s-1.4,8.84-4.2,11.76Zm-18.06-3.06c1.8,2.12,4.22,3.18,7.26,3.18s5.46-1.06,7.26-3.18c1.8-2.08,2.7-4.98,2.7-8.7s-.9-6.68-2.7-8.76c-1.8-2.08-4.22-3.12-7.26-3.12s-5.46,1.04-7.26,3.12c-1.8,2.08-2.7,5-2.7,8.76s.9,6.62,2.7,8.7Z"/>
        <path class="uuid-9e2a685a-ad85-4932-9065-32a8536dc565" d="m1785.63,742.01l4.38-13.98h5.16l-10.32,30.96h-5.04l-4.56-14.34c-1.56-5.08-2.6-8.58-3.12-10.5-.92,3.28-1.98,6.78-3.18,10.5l-4.5,14.34h-5.04l-10.32-30.96h5.16l4.38,13.98c1.08,3.4,2.2,7.16,3.36,11.28,1.28-4.56,2.38-8.32,3.3-11.28l4.32-13.98h5.04l4.32,13.98c2.2,7.32,3.32,11.04,3.36,11.16.32-1.24,1.42-4.96,3.3-11.16Z"/>
        <path class="uuid-9e2a685a-ad85-4932-9065-32a8536dc565" d="m1824.27,743.51v1.68h-23.52c.24,3.36,1.18,5.89,2.82,7.59,1.64,1.7,3.88,2.55,6.72,2.55,4.28,0,7.02-1.92,8.22-5.76h4.98c-.84,3.12-2.4,5.59-4.68,7.41s-5.16,2.73-8.64,2.73c-4.28,0-7.74-1.46-10.38-4.38-2.68-2.92-4.02-6.86-4.02-11.82s1.32-8.8,3.96-11.76c2.6-2.96,6.04-4.44,10.32-4.44s7.92,1.54,10.44,4.62c2.52,3.08,3.78,6.94,3.78,11.58Zm-14.22-11.82c-2.52,0-4.58.79-6.18,2.37-1.6,1.58-2.6,3.85-3,6.81h18.24c-.24-2.72-1.16-4.93-2.76-6.63-1.6-1.7-3.7-2.55-6.3-2.55Z"/>
        <path class="uuid-9e2a685a-ad85-4932-9065-32a8536dc565" d="m1844.49,727.55c.8,0,1.34.02,1.62.06v4.62h-1.2c-3.2,0-5.69.79-7.47,2.37-1.78,1.58-2.67,3.83-2.67,6.75v17.64h-4.8v-30.96h4.56v5.46c2.08-3.96,5.4-5.94,9.96-5.94Z"/>
        <path class="uuid-9e2a685a-ad85-4932-9065-32a8536dc565" d="m1850.37,758.99h-6.06v-6h6.06v6Z"/>
      </g>
    </g>
  </g>
  <image width="964" height="950" transform="translate(1.54 .04)" xlink:href="https://d2qb21tb4meex0.cloudfront.net/17-Jack+Masai/02.png"/>
</svg>