<?xml version="1.0" encoding="UTF-8"?>
<svg id="uuid-cb20c066-c79d-4a0e-8781-e1c9fa6cef2c" data-name="Layer 1" xmlns="http://www.w3.org/2000/svg" viewBox="0 0 1920 350">
  <defs>
    <style>
      .uuid-c510c616-7449-41d4-a157-2b2808f7bdde {
        isolation: isolate;
      }

      .uuid-b9668db6-8174-4bf1-8fc4-bc14b78ff235 {
        fill: #f4f4f4;
        stroke-width: 0px;
      }
    </style>
  </defs>
  <g id="uuid-e3456256-fac5-41ec-aaeb-bf702c069113" data-name="The Product" class="uuid-c510c616-7449-41d4-a157-2b2808f7bdde">
    <g class="uuid-c510c616-7449-41d4-a157-2b2808f7bdde">
      <path class="uuid-b9668db6-8174-4bf1-8fc4-bc14b78ff235" d="m67.03,74.57h48.21v14.79h-16.07v81.64h-16.07v-81.64h-16.07v-14.79Z"/>
      <path class="uuid-b9668db6-8174-4bf1-8fc4-bc14b78ff235" d="m118.88,74.57h16.07v29.46c.28-1.57,1.16-2.86,2.62-3.86,1.46-1,3.02-1.5,4.66-1.5h16.82c3,0,5.53,1.04,7.61,3.11,2.07,2.07,3.11,4.61,3.11,7.61v61.61h-16.07v-54.86c0-1.78-.89-2.68-2.68-2.68h-13.39c-1.79,0-2.68.89-2.68,2.68v54.86h-16.07v-96.43Z"/>
      <path class="uuid-b9668db6-8174-4bf1-8fc4-bc14b78ff235" d="m184.13,98.68h29.46c3,0,5.53,1.04,7.61,3.11,2.07,2.07,3.11,4.61,3.11,7.61v22.18c0,3-1.04,5.54-3.11,7.61s-4.61,3.11-7.61,3.11h-24.11v11.25c0,1.79.89,2.68,2.68,2.68h32.14v14.79h-40.18c-3,0-5.54-1.03-7.61-3.11-2.07-2.07-3.11-4.61-3.11-7.61v-50.89c0-3,1.03-5.53,3.11-7.61,2.07-2.07,4.61-3.11,7.61-3.11Zm21.43,14.79h-13.39c-1.79,0-2.68.89-2.68,2.68v11.25h16.07c1.78,0,2.68-.89,2.68-2.68v-8.57c0-1.78-.89-2.68-2.68-2.68Z"/>
    </g>
    <g class="uuid-c510c616-7449-41d4-a157-2b2808f7bdde">
      <path class="uuid-b9668db6-8174-4bf1-8fc4-bc14b78ff235" d="m67.03,194.57h42.86c3,0,5.53,1.04,7.61,3.11,2.07,2.07,3.11,4.61,3.11,7.61v40.18c0,3-1.04,5.54-3.11,7.61-2.07,2.07-4.61,3.11-7.61,3.11h-26.79v34.82h-16.07v-96.43Zm34.82,14.79h-18.75v32.04h18.75c1.78,0,2.68-.89,2.68-2.68v-26.68c0-1.79-.89-2.68-2.68-2.68Z"/>
      <path class="uuid-b9668db6-8174-4bf1-8fc4-bc14b78ff235" d="m124.24,218.68h13.93l1.5,4.82h.11c.43-1.36,1.34-2.5,2.73-3.43,1.39-.93,2.87-1.39,4.45-1.39h9.43v14.79h-13.39c-1.79,0-2.68.89-2.68,2.68v54.86h-16.07v-72.32Z"/>
      <path class="uuid-b9668db6-8174-4bf1-8fc4-bc14b78ff235" d="m170.74,218.68h29.46c3,0,5.53,1.04,7.61,3.11,2.07,2.07,3.11,4.61,3.11,7.61v50.89c0,3-1.04,5.54-3.11,7.61-2.07,2.07-4.61,3.11-7.61,3.11h-29.46c-3,0-5.54-1.03-7.61-3.11-2.07-2.07-3.11-4.61-3.11-7.61v-50.89c0-3,1.03-5.53,3.11-7.61,2.07-2.07,4.61-3.11,7.61-3.11Zm21.43,14.79h-13.39c-1.79,0-2.68.89-2.68,2.68v37.39c0,1.79.89,2.68,2.68,2.68h13.39c1.78,0,2.68-.89,2.68-2.68v-37.39c0-1.78-.89-2.68-2.68-2.68Z"/>
      <path class="uuid-b9668db6-8174-4bf1-8fc4-bc14b78ff235" d="m249.38,194.57h16.07v96.43h-13.93l-1.5-4.82h-.11c-.43,1.36-1.34,2.5-2.73,3.43-1.39.93-2.88,1.39-4.45,1.39h-17.46c-3,0-5.54-1.03-7.61-3.11-2.07-2.07-3.11-4.61-3.11-7.61v-50.89c0-3,1.03-5.53,3.11-7.61,2.07-2.07,4.61-3.11,7.61-3.11h16.82c1.64,0,3.2.5,4.66,1.5,1.46,1,2.34,2.29,2.62,3.86v-29.46Zm-2.68,38.89h-13.39c-1.79,0-2.68.89-2.68,2.68v37.39c0,1.79.89,2.68,2.68,2.68h13.39c1.78,0,2.68-.89,2.68-2.68v-37.39c0-1.78-.89-2.68-2.68-2.68Z"/>
      <path class="uuid-b9668db6-8174-4bf1-8fc4-bc14b78ff235" d="m269.1,218.68h16.07v54.86c0,1.79.89,2.68,2.68,2.68h13.39c1.78,0,2.68-.89,2.68-2.68v-54.86h16.07v61.61c0,3-1.04,5.54-3.11,7.61-2.07,2.07-4.61,3.11-7.61,3.11h-29.46c-3,0-5.54-1.03-7.61-3.11-2.07-2.07-3.11-4.61-3.11-7.61v-61.61Z"/>
      <path class="uuid-b9668db6-8174-4bf1-8fc4-bc14b78ff235" d="m334.35,218.68h32.14v14.79h-24.11c-1.79,0-2.68.89-2.68,2.68v37.39c0,1.79.89,2.68,2.68,2.68h26.79v14.79h-34.82c-3,0-5.54-1.03-7.61-3.11-2.07-2.07-3.11-4.61-3.11-7.61v-50.89c0-3,1.03-5.53,3.11-7.61,2.07-2.07,4.61-3.11,7.61-3.11Z"/>
      <path class="uuid-b9668db6-8174-4bf1-8fc4-bc14b78ff235" d="m378.28,208.61l16.07-6v16.07h16.07v14.79h-16.07v40.07c0,1.79.89,2.68,2.68,2.68h13.39v14.79h-21.43c-3,0-5.54-1.03-7.61-3.11-2.07-2.07-3.11-4.61-3.11-7.61v-46.82h-8.14v-14.79h8.14v-10.07Z"/>
    </g>
  </g>
  <path id="uuid-0579a028-c411-449a-ba3c-d593114c3c29" data-name="Rectangle 997" class="uuid-b9668db6-8174-4bf1-8fc4-bc14b78ff235" d="m1773.46,128h0c7.46,0,13.5,6.04,13.5,13.5v84c0,7.46-6.04,13.5-13.5,13.5h0c-7.46,0-13.5-6.04-13.5-13.5v-84c0-7.46,6.04-13.5,13.5-13.5Z"/>
  <path id="uuid-c057ab70-cd0f-45a7-9491-08b6474c78c3" data-name="Rectangle 998" class="uuid-b9668db6-8174-4bf1-8fc4-bc14b78ff235" d="m1845.46,126h0c7.46,0,13.5,6.04,13.5,13.5v84c0,7.46-6.04,13.5-13.5,13.5h0c-7.46,0-13.5-6.04-13.5-13.5v-84c0-7.46,6.04-13.5,13.5-13.5Z"/>
</svg>