<?xml version="1.0" encoding="UTF-8"?>
<svg id="uuid-bfe3e2b0-7f65-4912-86a3-7605315fc294" data-name="Layer 1" xmlns="http://www.w3.org/2000/svg" xmlns:xlink="http://www.w3.org/1999/xlink" viewBox="0 0 1920 1080">
  <defs>
    <style>
      .uuid-01ebc099-8bd1-4573-9de0-e54a47608707 {
        isolation: isolate;
      }

      .uuid-cfbf20a3-1aa6-4c4d-af69-b4c0a6ab4906 {
        fill: #fff;
      }

      .uuid-cfbf20a3-1aa6-4c4d-af69-b4c0a6ab4906, .uuid-b0271ce4-c093-450c-82ea-5f8c9e1cf335 {
        stroke-width: 0px;
      }

      .uuid-b0271ce4-c093-450c-82ea-5f8c9e1cf335 {
        fill: #f4f4f4;
      }
    </style>
  </defs>
  <image width="1920" height="1080" xlink:href="https://mylgcontent.s3.us-west-1.amazonaws.com/17-Jack+Masai/04.png"/>
  <g id="uuid-48bdf579-f03d-494a-b7b8-52a14ca921fa" data-name="Break the Dust in Mark the Days down " class="uuid-01ebc099-8bd1-4573-9de0-e54a47608707">
    <g class="uuid-01ebc099-8bd1-4573-9de0-e54a47608707">
      <path class="uuid-b0271ce4-c093-450c-82ea-5f8c9e1cf335" d="m1266.27,341.46h35.46c2.52,0,4.65.87,6.39,2.61,1.74,1.74,2.61,3.87,2.61,6.39v24.75c0,1.74-.62,3.24-1.84,4.5-1.23,1.26-2.83,2.01-4.81,2.25,1.98.24,3.67,1.01,5.08,2.29,1.41,1.29,2.11,2.78,2.11,4.46v24.75c0,2.52-.87,4.65-2.61,6.39s-3.87,2.61-6.39,2.61h-36v-81Zm28.71,12.42h-15.21v21.87h15.21c1.5,0,2.25-.75,2.25-2.25v-17.37c0-1.5-.75-2.25-2.25-2.25Zm.54,34.29h-15.75v21.87h15.75c1.5,0,2.25-.75,2.25-2.25v-17.37c0-1.5-.75-2.25-2.25-2.25Z"/>
      <path class="uuid-b0271ce4-c093-450c-82ea-5f8c9e1cf335" d="m1314.33,361.71h11.7l1.26,4.05h.09c.36-1.14,1.12-2.1,2.29-2.88,1.17-.78,2.42-1.17,3.74-1.17h7.92v12.42h-11.25c-1.5,0-2.25.75-2.25,2.25v46.08h-13.5v-60.75Z"/>
      <path class="uuid-b0271ce4-c093-450c-82ea-5f8c9e1cf335" d="m1353.39,361.71h24.75c2.52,0,4.65.87,6.39,2.61,1.74,1.74,2.61,3.87,2.61,6.39v18.63c0,2.52-.87,4.65-2.61,6.39s-3.87,2.61-6.39,2.61h-20.25v9.45c0,1.5.75,2.25,2.25,2.25h27v12.42h-33.75c-2.52,0-4.65-.87-6.39-2.61-1.74-1.74-2.61-3.87-2.61-6.39v-42.75c0-2.52.87-4.65,2.61-6.39,1.74-1.74,3.87-2.61,6.39-2.61Zm18,12.42h-11.25c-1.5,0-2.25.75-2.25,2.25v9.45h13.5c1.5,0,2.25-.75,2.25-2.25v-7.2c0-1.5-.75-2.25-2.25-2.25Z"/>
      <path class="uuid-b0271ce4-c093-450c-82ea-5f8c9e1cf335" d="m1392.45,361.71h31.5c2.52,0,4.65.87,6.39,2.61,1.74,1.74,2.61,3.87,2.61,6.39v51.75h-11.7l-1.26-4.05h-.09c-.36,1.14-1.12,2.1-2.29,2.88-1.17.78-2.42,1.17-3.74,1.17h-14.67c-2.52,0-4.65-.87-6.39-2.61-1.74-1.74-2.61-3.87-2.61-6.39v-18.63c0-2.52.87-4.65,2.61-6.39,1.74-1.74,3.87-2.61,6.39-2.61h20.25v-9.45c0-1.5-.75-2.25-2.25-2.25h-24.75v-12.42Zm27,36.63h-13.5c-1.5,0-2.25.75-2.25,2.25v7.2c0,1.5.75,2.25,2.25,2.25h11.25c1.5,0,2.25-.75,2.25-2.25v-9.45Z"/>
      <path class="uuid-b0271ce4-c093-450c-82ea-5f8c9e1cf335" d="m1436.01,341.46h13.5v44.37h3.87l11.52-24.12h14.94l-14.4,30.33v.09l14.4,30.33h-14.94l-11.52-24.12h-3.87v24.12h-13.5v-81Z"/>
      <path class="uuid-b0271ce4-c093-450c-82ea-5f8c9e1cf335" d="m1510.71,353.25l13.5-5.04v13.5h13.5v12.42h-13.5v33.66c0,1.5.75,2.25,2.25,2.25h11.25v12.42h-18c-2.52,0-4.65-.87-6.39-2.61-1.74-1.74-2.61-3.87-2.61-6.39v-39.33h-6.84v-12.42h6.84v-8.46Z"/>
      <path class="uuid-b0271ce4-c093-450c-82ea-5f8c9e1cf335" d="m1540.68,341.46h13.5v24.75c.24-1.32.97-2.4,2.21-3.24,1.23-.84,2.53-1.26,3.92-1.26h14.13c2.52,0,4.65.87,6.39,2.61,1.74,1.74,2.61,3.87,2.61,6.39v51.75h-13.5v-46.08c0-1.5-.75-2.25-2.25-2.25h-11.25c-1.5,0-2.25.75-2.25,2.25v46.08h-13.5v-81Z"/>
      <path class="uuid-b0271ce4-c093-450c-82ea-5f8c9e1cf335" d="m1595.49,361.71h24.75c2.52,0,4.65.87,6.39,2.61,1.74,1.74,2.61,3.87,2.61,6.39v18.63c0,2.52-.87,4.65-2.61,6.39s-3.87,2.61-6.39,2.61h-20.25v9.45c0,1.5.75,2.25,2.25,2.25h27v12.42h-33.75c-2.52,0-4.65-.87-6.39-2.61-1.74-1.74-2.61-3.87-2.61-6.39v-42.75c0-2.52.87-4.65,2.61-6.39,1.74-1.74,3.87-2.61,6.39-2.61Zm18,12.42h-11.25c-1.5,0-2.25.75-2.25,2.25v9.45h13.5c1.5,0,2.25-.75,2.25-2.25v-7.2c0-1.5-.75-2.25-2.25-2.25Z"/>
    </g>
    <g class="uuid-01ebc099-8bd1-4573-9de0-e54a47608707">
      <path class="uuid-b0271ce4-c093-450c-82ea-5f8c9e1cf335" d="m1266.27,455.46h36c2.52,0,4.65.87,6.39,2.61,1.74,1.74,2.61,3.87,2.61,6.39v63c0,2.52-.87,4.65-2.61,6.39s-3.87,2.61-6.39,2.61h-36v-81Zm29.25,12.42h-15.75v56.16h15.75c1.5,0,2.25-.75,2.25-2.25v-51.66c0-1.5-.75-2.25-2.25-2.25Z"/>
      <path class="uuid-b0271ce4-c093-450c-82ea-5f8c9e1cf335" d="m1314.33,475.71h13.5v46.08c0,1.5.75,2.25,2.25,2.25h11.25c1.5,0,2.25-.75,2.25-2.25v-46.08h13.5v51.75c0,2.52-.87,4.65-2.61,6.39s-3.87,2.61-6.39,2.61h-24.75c-2.52,0-4.65-.87-6.39-2.61-1.74-1.74-2.61-3.87-2.61-6.39v-51.75Z"/>
      <path class="uuid-b0271ce4-c093-450c-82ea-5f8c9e1cf335" d="m1369.14,475.71h29.25v12.42h-22.5c-1.5,0-2.25.75-2.25,2.25v7.2c0,1.5.75,2.25,2.25,2.25h15.75c2.52,0,4.65.87,6.39,2.61,1.74,1.74,2.61,3.87,2.61,6.39v18.63c0,2.52-.87,4.65-2.61,6.39s-3.87,2.61-6.39,2.61h-31.5v-12.42h24.66c.66,0,1.21-.21,1.67-.63.45-.42.67-.96.67-1.62v-7.2c0-1.5-.75-2.25-2.25-2.25h-15.75c-2.52,0-4.65-.87-6.39-2.61-1.74-1.74-2.61-3.87-2.61-6.39v-18.63c0-2.52.87-4.65,2.61-6.39,1.74-1.74,3.87-2.61,6.39-2.61Z"/>
      <path class="uuid-b0271ce4-c093-450c-82ea-5f8c9e1cf335" d="m1410.54,467.25l13.5-5.04v13.5h13.5v12.42h-13.5v33.66c0,1.5.75,2.25,2.25,2.25h11.25v12.42h-18c-2.52,0-4.65-.87-6.39-2.61-1.74-1.74-2.61-3.87-2.61-6.39v-39.33h-6.84v-12.42h6.84v-8.46Z"/>
      <path class="uuid-b0271ce4-c093-450c-82ea-5f8c9e1cf335" d="m1467.06,455.46h13.5v13.5h-13.5v-13.5Zm0,20.25h13.5v60.75h-13.5v-60.75Z"/>
      <path class="uuid-b0271ce4-c093-450c-82ea-5f8c9e1cf335" d="m1487.04,475.71h11.7l1.26,4.05h.09c.36-1.14,1.12-2.1,2.29-2.88,1.17-.78,2.41-1.17,3.73-1.17h14.67c2.52,0,4.65.87,6.39,2.61,1.74,1.74,2.61,3.87,2.61,6.39v51.75h-13.5v-46.08c0-1.5-.75-2.25-2.25-2.25h-11.25c-1.5,0-2.25.75-2.25,2.25v46.08h-13.5v-60.75Z"/>
    </g>
    <g class="uuid-01ebc099-8bd1-4573-9de0-e54a47608707">
      <path class="uuid-b0271ce4-c093-450c-82ea-5f8c9e1cf335" d="m1266.27,569.46h20.7l14.67,60.39h.09l14.67-60.39h20.7v81h-13.5v-57.87l-14.04,57.87h-15.75l-14.04-57.87v57.87h-13.5v-81Z"/>
      <path class="uuid-b0271ce4-c093-450c-82ea-5f8c9e1cf335" d="m1342.41,589.71h31.5c2.52,0,4.65.87,6.39,2.61,1.74,1.74,2.61,3.87,2.61,6.39v51.75h-11.7l-1.26-4.05h-.09c-.36,1.14-1.12,2.1-2.29,2.88-1.17.78-2.42,1.17-3.74,1.17h-14.67c-2.52,0-4.65-.87-6.39-2.61-1.74-1.74-2.61-3.87-2.61-6.39v-18.63c0-2.52.87-4.65,2.61-6.39,1.74-1.74,3.87-2.61,6.39-2.61h20.25v-9.45c0-1.5-.75-2.25-2.25-2.25h-24.75v-12.42Zm27,36.63h-13.5c-1.5,0-2.25.75-2.25,2.25v7.2c0,1.5.75,2.25,2.25,2.25h11.25c1.5,0,2.25-.75,2.25-2.25v-9.45Z"/>
      <path class="uuid-b0271ce4-c093-450c-82ea-5f8c9e1cf335" d="m1385.97,589.71h11.7l1.26,4.05h.09c.36-1.14,1.12-2.1,2.29-2.88,1.17-.78,2.41-1.17,3.73-1.17h7.92v12.42h-11.25c-1.5,0-2.25.75-2.25,2.25v46.08h-13.5v-60.75Z"/>
      <path class="uuid-b0271ce4-c093-450c-82ea-5f8c9e1cf335" d="m1416.03,569.46h13.5v44.37h3.87l11.52-24.12h14.94l-14.4,30.33v.09l14.4,30.33h-14.94l-11.52-24.12h-3.87v24.12h-13.5v-81Z"/>
      <path class="uuid-b0271ce4-c093-450c-82ea-5f8c9e1cf335" d="m1490.73,581.25l13.5-5.04v13.5h13.5v12.42h-13.5v33.66c0,1.5.75,2.25,2.25,2.25h11.25v12.42h-18c-2.52,0-4.65-.87-6.39-2.61-1.74-1.74-2.61-3.87-2.61-6.39v-39.33h-6.84v-12.42h6.84v-8.46Z"/>
      <path class="uuid-b0271ce4-c093-450c-82ea-5f8c9e1cf335" d="m1520.7,569.46h13.5v24.75c.24-1.32.97-2.4,2.21-3.24,1.23-.84,2.53-1.26,3.92-1.26h14.13c2.52,0,4.65.87,6.39,2.61,1.74,1.74,2.61,3.87,2.61,6.39v51.75h-13.5v-46.08c0-1.5-.75-2.25-2.25-2.25h-11.25c-1.5,0-2.25.75-2.25,2.25v46.08h-13.5v-81Z"/>
      <path class="uuid-b0271ce4-c093-450c-82ea-5f8c9e1cf335" d="m1575.51,589.71h24.75c2.52,0,4.65.87,6.39,2.61,1.74,1.74,2.61,3.87,2.61,6.39v18.63c0,2.52-.87,4.65-2.61,6.39s-3.87,2.61-6.39,2.61h-20.25v9.45c0,1.5.75,2.25,2.25,2.25h27v12.42h-33.75c-2.52,0-4.65-.87-6.39-2.61-1.74-1.74-2.61-3.87-2.61-6.39v-42.75c0-2.52.87-4.65,2.61-6.39,1.74-1.74,3.87-2.61,6.39-2.61Zm18,12.42h-11.25c-1.5,0-2.25.75-2.25,2.25v9.45h13.5c1.5,0,2.25-.75,2.25-2.25v-7.2c0-1.5-.75-2.25-2.25-2.25Z"/>
    </g>
    <g class="uuid-01ebc099-8bd1-4573-9de0-e54a47608707">
      <path class="uuid-b0271ce4-c093-450c-82ea-5f8c9e1cf335" d="m1266.27,683.46h36c2.52,0,4.65.87,6.39,2.61,1.74,1.74,2.61,3.87,2.61,6.39v63c0,2.52-.87,4.65-2.61,6.39s-3.87,2.61-6.39,2.61h-36v-81Zm29.25,12.42h-15.75v56.16h15.75c1.5,0,2.25-.75,2.25-2.25v-51.66c0-1.5-.75-2.25-2.25-2.25Z"/>
      <path class="uuid-b0271ce4-c093-450c-82ea-5f8c9e1cf335" d="m1316.58,703.71h31.5c2.52,0,4.65.87,6.39,2.61,1.74,1.74,2.61,3.87,2.61,6.39v51.75h-11.7l-1.26-4.05h-.09c-.36,1.14-1.12,2.1-2.29,2.88-1.17.78-2.42,1.17-3.74,1.17h-14.67c-2.52,0-4.65-.87-6.39-2.61-1.74-1.74-2.61-3.87-2.61-6.39v-18.63c0-2.52.87-4.65,2.61-6.39s3.87-2.61,6.39-2.61h20.25v-9.45c0-1.5-.75-2.25-2.25-2.25h-24.75v-12.42Zm27,36.63h-13.5c-1.5,0-2.25.75-2.25,2.25v7.2c0,1.5.75,2.25,2.25,2.25h11.25c1.5,0,2.25-.75,2.25-2.25v-9.45Z"/>
      <path class="uuid-b0271ce4-c093-450c-82ea-5f8c9e1cf335" d="m1360.14,703.71h13.5v46.08c0,1.5.75,2.25,2.25,2.25h11.25c1.5,0,2.25-.75,2.25-2.25v-46.08h13.5v72c0,2.52-.87,4.65-2.61,6.39-1.74,1.74-3.87,2.61-6.39,2.61h-33.75v-12.33h27c1.5,0,2.25-.75,2.25-2.25v-10.17c-.24,1.32-.98,2.4-2.21,3.24-1.23.84-2.54,1.26-3.92,1.26h-14.13c-2.52,0-4.65-.87-6.39-2.61-1.74-1.74-2.61-3.87-2.61-6.39v-51.75Z"/>
      <path class="uuid-b0271ce4-c093-450c-82ea-5f8c9e1cf335" d="m1414.95,703.71h29.25v12.42h-22.5c-1.5,0-2.25.75-2.25,2.25v7.2c0,1.5.75,2.25,2.25,2.25h15.75c2.52,0,4.65.87,6.39,2.61,1.74,1.74,2.61,3.87,2.61,6.39v18.63c0,2.52-.87,4.65-2.61,6.39s-3.87,2.61-6.39,2.61h-31.5v-12.42h24.66c.66,0,1.21-.21,1.67-.63.45-.42.67-.96.67-1.62v-7.2c0-1.5-.75-2.25-2.25-2.25h-15.75c-2.52,0-4.65-.87-6.39-2.61-1.74-1.74-2.61-3.87-2.61-6.39v-18.63c0-2.52.87-4.65,2.61-6.39,1.74-1.74,3.87-2.61,6.39-2.61Z"/>
      <path class="uuid-b0271ce4-c093-450c-82ea-5f8c9e1cf335" d="m1501.98,683.46h13.5v81h-11.7l-1.26-4.05h-.09c-.36,1.14-1.12,2.1-2.29,2.88-1.17.78-2.42,1.17-3.74,1.17h-14.67c-2.52,0-4.65-.87-6.39-2.61-1.74-1.74-2.61-3.87-2.61-6.39v-42.75c0-2.52.87-4.65,2.61-6.39s3.87-2.61,6.39-2.61h14.13c1.38,0,2.68.42,3.92,1.26,1.23.84,1.96,1.92,2.21,3.24v-24.75Zm-2.25,32.67h-11.25c-1.5,0-2.25.75-2.25,2.25v31.41c0,1.5.75,2.25,2.25,2.25h11.25c1.5,0,2.25-.75,2.25-2.25v-31.41c0-1.5-.75-2.25-2.25-2.25Z"/>
      <path class="uuid-b0271ce4-c093-450c-82ea-5f8c9e1cf335" d="m1527.54,703.71h24.75c2.52,0,4.65.87,6.39,2.61,1.74,1.74,2.61,3.87,2.61,6.39v42.75c0,2.52-.87,4.65-2.61,6.39s-3.87,2.61-6.39,2.61h-24.75c-2.52,0-4.65-.87-6.39-2.61-1.74-1.74-2.61-3.87-2.61-6.39v-42.75c0-2.52.87-4.65,2.61-6.39s3.87-2.61,6.39-2.61Zm18,12.42h-11.25c-1.5,0-2.25.75-2.25,2.25v31.41c0,1.5.75,2.25,2.25,2.25h11.25c1.5,0,2.25-.75,2.25-2.25v-31.41c0-1.5-.75-2.25-2.25-2.25Z"/>
      <path class="uuid-b0271ce4-c093-450c-82ea-5f8c9e1cf335" d="m1560.93,703.71h13.68l6.66,41.04,6.75-41.04h18.36l6.75,41.04,6.66-41.04h13.68l-10.08,60.75h-19.44l-6.75-41.04-6.75,41.04h-19.44l-10.08-60.75Z"/>
      <path class="uuid-b0271ce4-c093-450c-82ea-5f8c9e1cf335" d="m1633.2,703.71h11.7l1.26,4.05h.09c.36-1.14,1.12-2.1,2.29-2.88,1.17-.78,2.41-1.17,3.73-1.17h14.67c2.52,0,4.65.87,6.39,2.61,1.74,1.74,2.61,3.87,2.61,6.39v51.75h-13.5v-46.08c0-1.5-.75-2.25-2.25-2.25h-11.25c-1.5,0-2.25.75-2.25,2.25v46.08h-13.5v-60.75Z"/>
    </g>
  </g>
  <path id="uuid-b5776277-664e-4fe8-a5c0-35b6a525b3a5" data-name="Path 3278" class="uuid-cfbf20a3-1aa6-4c4d-af69-b4c0a6ab4906" d="m1157.4,341.74l-74.84,132.49,60.33-14.89-54.22,120.27,144.33-161.13-75.6,13.75,61.85-91.64-61.85,1.14Z"/>
</svg>