<?xml version="1.0" encoding="UTF-8"?>
<svg id="uuid-ba63af3c-7b8d-4d22-91a1-aa791dc461c2" data-name="Layer 1" xmlns="http://www.w3.org/2000/svg" viewBox="0 0 1920 1080">
  <defs>
    <style>
      .uuid-a9bbb4db-d735-4e9f-8fc2-0d92f825d433 {
        isolation: isolate;
      }

      .uuid-788b1994-dee3-4253-bd65-76ad933b2e8d {
        fill: #009bc1;
      }

      .uuid-788b1994-dee3-4253-bd65-76ad933b2e8d, .uuid-d04b239e-7910-4fb4-a898-e028f7f910fd {
        stroke-width: 0px;
      }

      .uuid-d04b239e-7910-4fb4-a898-e028f7f910fd {
        fill: #fff;
      }
    </style>
  </defs>
  <g id="uuid-f76e8526-6d09-4d4a-8fd2-190645b1152c" data-name="STRIKE FIT" class="uuid-a9bbb4db-d735-4e9f-8fc2-0d92f825d433">
    <g class="uuid-a9bbb4db-d735-4e9f-8fc2-0d92f825d433">
      <path class="uuid-d04b239e-7910-4fb4-a898-e028f7f910fd" d="m93.17,262.99h97v38.25h-76.21c-4.62,0-6.93,2.31-6.93,6.93v53.49c0,4.62,2.31,6.93,6.93,6.93h55.43c7.76,0,14.32,2.68,19.68,8.04,5.36,5.36,8.04,11.92,8.04,19.68v88.41c0,7.76-2.68,14.32-8.04,19.68-5.36,5.36-11.92,8.04-19.68,8.04h-103.93v-38.25h82.87c2.03,0,3.74-.64,5.13-1.94,1.39-1.29,2.08-2.95,2.08-4.99v-53.49c0-4.62-2.31-6.93-6.93-6.93h-55.43c-7.76,0-14.32-2.68-19.68-8.04-5.36-5.36-8.04-11.92-8.04-19.68v-88.41c0-7.76,2.68-14.32,8.04-19.68,5.36-5.36,11.92-8.04,19.68-8.04Z"/>
      <path class="uuid-d04b239e-7910-4fb4-a898-e028f7f910fd" d="m218.17,262.99h124.71v38.25h-41.57v211.18h-41.57v-211.18h-41.57v-38.25Z"/>
      <path class="uuid-d04b239e-7910-4fb4-a898-e028f7f910fd" d="m363.94,262.99h110.86c7.57,0,14.09,2.73,19.54,8.18,5.45,5.45,8.18,11.96,8.18,19.54v88.41c0,7.76-2.68,14.32-8.04,19.68s-11.92,8.04-19.68,8.04h-15.24l49.89,105.59h-46.01l-50.16-105.59h-7.76v105.59h-41.57v-249.43Zm90.07,38.25h-48.5v67.35h48.5c4.62,0,6.93-2.31,6.93-6.93v-53.49c0-4.62-2.31-6.93-6.93-6.93Z"/>
      <path class="uuid-d04b239e-7910-4fb4-a898-e028f7f910fd" d="m533.82,262.99h41.57v249.43h-41.57v-249.43Z"/>
    </g>
    <g class="uuid-a9bbb4db-d735-4e9f-8fc2-0d92f825d433">
      <path class="uuid-d04b239e-7910-4fb4-a898-e028f7f910fd" d="m606.99,262.99h41.57v105.59h7.76l50.16-105.59h46.01l-59.03,124.71,59.03,124.71h-46.01l-50.16-105.59h-7.76v105.59h-41.57v-249.43Z"/>
    </g>
    <g class="uuid-a9bbb4db-d735-4e9f-8fc2-0d92f825d433">
      <path class="uuid-d04b239e-7910-4fb4-a898-e028f7f910fd" d="m763.52,262.99h117.79v38.25h-76.21v67.35h69.29v38.25h-69.29v67.35h83.14v38.25h-124.71v-249.43Z"/>
    </g>
    <g class="uuid-a9bbb4db-d735-4e9f-8fc2-0d92f825d433">
      <path class="uuid-d04b239e-7910-4fb4-a898-e028f7f910fd" d="m992.43,262.99h124.71v38.25h-83.14v67.35h76.21v38.25h-76.21v105.59h-41.57v-249.43Z"/>
    </g>
    <g class="uuid-a9bbb4db-d735-4e9f-8fc2-0d92f825d433">
      <path class="uuid-d04b239e-7910-4fb4-a898-e028f7f910fd" d="m1155.05,262.99h41.57v249.43h-41.57v-249.43Z"/>
      <path class="uuid-d04b239e-7910-4fb4-a898-e028f7f910fd" d="m1228.21,262.99h124.71v38.25h-41.57v211.18h-41.57v-211.18h-41.57v-38.25Z"/>
    </g>
  </g>
  <g id="uuid-53ff23fa-446f-4915-b4d4-eff258228513" data-name="WEIGHT LIFTER CHALK POWDER" class="uuid-a9bbb4db-d735-4e9f-8fc2-0d92f825d433">
    <g class="uuid-a9bbb4db-d735-4e9f-8fc2-0d92f825d433">
      <path class="uuid-788b1994-dee3-4253-bd65-76ad933b2e8d" d="m74.03,596.19h14.15l9.16,57.24,9.62-57.24h17.42l9.71,57.24,9.16-57.24h14.15l-13.06,81.64h-18.87l-9.8-57.97-9.8,57.97h-18.78l-13.06-81.64Z"/>
      <path class="uuid-788b1994-dee3-4253-bd65-76ad933b2e8d" d="m160.84,596.19h38.55v12.52h-24.95v22.04h22.68v12.52h-22.68v22.04h27.21v12.52h-40.82v-81.64Z"/>
      <path class="uuid-788b1994-dee3-4253-bd65-76ad933b2e8d" d="m211.92,596.19h13.61v81.64h-13.61v-81.64Z"/>
      <path class="uuid-788b1994-dee3-4253-bd65-76ad933b2e8d" d="m244.93,596.19h34.02v12.52h-27.21c-1.51,0-2.27.76-2.27,2.27v52.07c0,1.51.75,2.27,2.27,2.27h13.61c1.51,0,2.27-.76,2.27-2.27v-19.78h-9.07v-12.52h22.68v47.08h-11.79l-1.27-4.08h-.09c-.36,1.15-1.13,2.12-2.31,2.9-1.18.79-2.44,1.18-3.76,1.18h-17.05c-2.54,0-4.69-.88-6.44-2.63-1.75-1.75-2.63-3.9-2.63-6.44v-63.5c0-2.54.88-4.69,2.63-6.44,1.75-1.75,3.9-2.63,6.44-2.63Z"/>
      <path class="uuid-788b1994-dee3-4253-bd65-76ad933b2e8d" d="m288.11,596.19h13.61v34.56h20.41v-34.56h13.61v81.64h-13.61v-34.56h-20.41v34.56h-13.61v-81.64Z"/>
      <path class="uuid-788b1994-dee3-4253-bd65-76ad933b2e8d" d="m342.63,596.19h40.82v12.52h-13.61v69.12h-13.61v-69.12h-13.61v-12.52Z"/>
      <path class="uuid-788b1994-dee3-4253-bd65-76ad933b2e8d" d="m417.56,596.19h13.61v69.12h27.21v12.52h-40.82v-81.64Z"/>
      <path class="uuid-788b1994-dee3-4253-bd65-76ad933b2e8d" d="m468.63,596.19h13.61v81.64h-13.61v-81.64Z"/>
      <path class="uuid-788b1994-dee3-4253-bd65-76ad933b2e8d" d="m492.58,596.19h40.82v12.52h-27.21v22.04h24.95v12.52h-24.95v34.56h-13.61v-81.64Z"/>
      <path class="uuid-788b1994-dee3-4253-bd65-76ad933b2e8d" d="m540.29,596.19h40.82v12.52h-13.61v69.12h-13.61v-69.12h-13.61v-12.52Z"/>
      <path class="uuid-788b1994-dee3-4253-bd65-76ad933b2e8d" d="m588.01,596.19h38.55v12.52h-24.95v22.04h22.68v12.52h-22.68v22.04h27.21v12.52h-40.82v-81.64Z"/>
      <path class="uuid-788b1994-dee3-4253-bd65-76ad933b2e8d" d="m635.72,596.19h36.29c2.48,0,4.61.89,6.4,2.68,1.78,1.78,2.68,3.92,2.68,6.4v28.94c0,2.54-.88,4.69-2.63,6.44-1.75,1.75-3.9,2.63-6.44,2.63h-4.99l16.33,34.56h-15.06l-16.42-34.56h-2.54v34.56h-13.61v-81.64Zm29.48,12.52h-15.88v22.04h15.88c1.51,0,2.27-.75,2.27-2.27v-17.51c0-1.51-.76-2.27-2.27-2.27Z"/>
      <path class="uuid-788b1994-dee3-4253-bd65-76ad933b2e8d" d="m724.26,596.19h29.48v12.52h-22.68c-1.51,0-2.27.76-2.27,2.27v52.07c0,1.51.75,2.27,2.27,2.27h24.95v12.52h-31.75c-2.54,0-4.69-.88-6.44-2.63-1.75-1.75-2.63-3.9-2.63-6.44v-63.5c0-2.54.88-4.69,2.63-6.44,1.75-1.75,3.9-2.63,6.44-2.63Z"/>
      <path class="uuid-788b1994-dee3-4253-bd65-76ad933b2e8d" d="m762.9,596.19h13.61v34.56h20.41v-34.56h13.61v81.64h-13.61v-34.56h-20.41v34.56h-13.61v-81.64Z"/>
      <path class="uuid-788b1994-dee3-4253-bd65-76ad933b2e8d" d="m833.75,596.19h17.05l19.87,81.64h-13.97l-4.45-18.14h-19.87l-4.44,18.14h-13.97l19.78-81.64Zm8.53,22.22l-6.89,28.76h13.88l-6.89-28.76h-.09Z"/>
      <path class="uuid-788b1994-dee3-4253-bd65-76ad933b2e8d" d="m874.2,596.19h13.61v69.12h27.21v12.52h-40.82v-81.64Z"/>
      <path class="uuid-788b1994-dee3-4253-bd65-76ad933b2e8d" d="m921.92,596.19h13.61v34.56h2.54l16.42-34.56h15.06l-19.32,40.82,19.32,40.82h-15.06l-16.42-34.56h-2.54v34.56h-13.61v-81.64Z"/>
      <path class="uuid-788b1994-dee3-4253-bd65-76ad933b2e8d" d="m1001.38,596.19h36.28c2.54,0,4.69.88,6.44,2.63s2.63,3.9,2.63,6.44v34.02c0,2.54-.88,4.69-2.63,6.44-1.75,1.75-3.9,2.63-6.44,2.63h-22.68v29.48h-13.61v-81.64Zm29.48,12.52h-15.88v27.12h15.88c1.51,0,2.27-.75,2.27-2.27v-22.59c0-1.51-.76-2.27-2.27-2.27Z"/>
      <path class="uuid-788b1994-dee3-4253-bd65-76ad933b2e8d" d="m1062.7,596.19h27.21c2.54,0,4.69.88,6.44,2.63,1.75,1.75,2.63,3.9,2.63,6.44v63.5c0,2.54-.88,4.69-2.63,6.44s-3.9,2.63-6.44,2.63h-27.21c-2.54,0-4.69-.88-6.44-2.63-1.75-1.75-2.63-3.9-2.63-6.44v-63.5c0-2.54.88-4.69,2.63-6.44,1.75-1.75,3.9-2.63,6.44-2.63Zm20.41,12.52h-13.61c-1.51,0-2.27.76-2.27,2.27v52.07c0,1.51.75,2.27,2.27,2.27h13.61c1.51,0,2.27-.76,2.27-2.27v-52.07c0-1.51-.76-2.27-2.27-2.27Z"/>
      <path class="uuid-788b1994-dee3-4253-bd65-76ad933b2e8d" d="m1102.43,596.19h14.15l9.16,57.24,9.62-57.24h17.42l9.71,57.24,9.16-57.24h14.15l-13.06,81.64h-18.87l-9.8-57.97-9.8,57.97h-18.78l-13.06-81.64Z"/>
      <path class="uuid-788b1994-dee3-4253-bd65-76ad933b2e8d" d="m1189.25,596.19h36.29c2.54,0,4.69.88,6.44,2.63,1.75,1.75,2.63,3.9,2.63,6.44v63.5c0,2.54-.88,4.69-2.63,6.44s-3.9,2.63-6.44,2.63h-36.29v-81.64Zm29.48,12.52h-15.88v56.61h15.88c1.51,0,2.27-.76,2.27-2.27v-52.07c0-1.51-.76-2.27-2.27-2.27Z"/>
      <path class="uuid-788b1994-dee3-4253-bd65-76ad933b2e8d" d="m1241.5,596.19h38.55v12.52h-24.95v22.04h22.68v12.52h-22.68v22.04h27.21v12.52h-40.82v-81.64Z"/>
      <path class="uuid-788b1994-dee3-4253-bd65-76ad933b2e8d" d="m1289.21,596.19h36.29c2.48,0,4.61.89,6.4,2.68,1.78,1.78,2.68,3.92,2.68,6.4v28.94c0,2.54-.88,4.69-2.63,6.44-1.75,1.75-3.9,2.63-6.44,2.63h-4.99l16.33,34.56h-15.06l-16.42-34.56h-2.54v34.56h-13.61v-81.64Zm29.48,12.52h-15.88v22.04h15.88c1.51,0,2.27-.75,2.27-2.27v-17.51c0-1.51-.76-2.27-2.27-2.27Z"/>
    </g>
  </g>
  <rect id="uuid-c1117f8f-c95e-4f72-8999-d691c27892e4" data-name="Rectangle 992" class="uuid-d04b239e-7910-4fb4-a898-e028f7f910fd" x="61.45" y="700.23" width="1283.25" height="12.44"/>
  <g>
    <path class="uuid-d04b239e-7910-4fb4-a898-e028f7f910fd" d="m1668.74,393.11h5.82c4.07,0,5.82,1.89,5.82,5.75v1.54c0,2.57-.82,4.21-2.57,4.92v.07c1.96.61,2.61,2.46,2.61,5.28v4.39c0,1.21.04,2.11.43,3.03h-4c-.21-.64-.36-1.04-.36-3.07v-4.57c0-2.32-.68-3.07-2.46-3.07h-1.36v10.71h-3.93v-24.98Zm5.35,10.71c1.46,0,2.36-.64,2.36-2.64v-1.93c0-1.78-.61-2.57-2-2.57h-1.78v7.14h1.43Z"/>
    <path class="uuid-d04b239e-7910-4fb4-a898-e028f7f910fd" d="m1682.84,412.17v-13.13c0-4,2.11-6.28,5.96-6.28s5.96,2.28,5.96,6.28v13.13c0,4-2.11,6.28-5.96,6.28s-5.96-2.28-5.96-6.28Zm8,.25v-13.63c0-1.78-.79-2.46-2.04-2.46s-2.03.68-2.03,2.46v13.63c0,1.78.79,2.46,2.03,2.46s2.04-.68,2.04-2.46Z"/>
    <path class="uuid-d04b239e-7910-4fb4-a898-e028f7f910fd" d="m1697.15,412.31v-13.42c0-3.85,2-6.14,5.78-6.14s5.78,2.28,5.78,6.14v2.64h-3.71v-2.89c0-1.64-.79-2.32-1.96-2.32s-1.96.68-1.96,2.32v13.96c0,1.64.79,2.28,1.96,2.28s1.96-.64,1.96-2.28v-3.82h3.71v3.53c0,3.85-2,6.14-5.78,6.14s-5.78-2.28-5.78-6.14Z"/>
    <path class="uuid-d04b239e-7910-4fb4-a898-e028f7f910fd" d="m1711.06,393.11h3.93v10.53l5-10.53h3.93l-4.67,9.17,4.75,15.81h-4.1l-3.32-11.14-1.57,3.18v7.96h-3.93v-24.98Z"/>
    <path class="uuid-d04b239e-7910-4fb4-a898-e028f7f910fd" d="m1731.3,412.31v-13.42c0-3.85,2-6.14,5.78-6.14s5.78,2.28,5.78,6.14v2.64h-3.71v-2.89c0-1.64-.79-2.32-1.96-2.32s-1.96.68-1.96,2.32v13.96c0,1.64.79,2.28,1.96,2.28s1.96-.64,1.96-2.28v-3.82h3.71v3.53c0,3.85-2,6.14-5.78,6.14s-5.78-2.28-5.78-6.14Z"/>
    <path class="uuid-d04b239e-7910-4fb4-a898-e028f7f910fd" d="m1745.21,393.11h3.93v21.41h6.46v3.57h-10.39v-24.98Z"/>
    <path class="uuid-d04b239e-7910-4fb4-a898-e028f7f910fd" d="m1757.49,393.11h3.93v24.98h-3.93v-24.98Z"/>
    <path class="uuid-d04b239e-7910-4fb4-a898-e028f7f910fd" d="m1764.34,393.11h5.6l2.5,17.88h.07l2.5-17.88h5.6v24.98h-3.71v-18.92h-.07l-2.86,18.92h-3.28l-2.86-18.92h-.07v18.92h-3.43v-24.98Z"/>
    <path class="uuid-d04b239e-7910-4fb4-a898-e028f7f910fd" d="m1783.54,393.11h5.92c4.07,0,5.82,1.89,5.82,5.75v1c0,2.57-.79,4.18-2.53,4.89v.07c2.11.71,2.93,2.57,2.93,5.21v2.14c0,3.85-2.03,5.92-5.96,5.92h-6.17v-24.98Zm5.46,10.17c1.46,0,2.36-.64,2.36-2.64v-1.39c0-1.78-.61-2.57-2-2.57h-1.89v6.6h1.53Zm.71,11.24c1.32,0,2.03-.61,2.03-2.46v-2.18c0-2.32-.75-3.03-2.53-3.03h-1.75v7.67h2.25Z"/>
    <path class="uuid-d04b239e-7910-4fb4-a898-e028f7f910fd" d="m1797.96,393.11h3.93v24.98h-3.93v-24.98Z"/>
    <path class="uuid-d04b239e-7910-4fb4-a898-e028f7f910fd" d="m1804.81,393.11h4.93l3.82,14.95h.07v-14.95h3.5v24.98h-4.03l-4.71-18.24h-.07v18.24h-3.5v-24.98Z"/>
    <path class="uuid-d04b239e-7910-4fb4-a898-e028f7f910fd" d="m1819.76,412.17v-13.13c0-4,2-6.28,5.85-6.28s5.85,2.28,5.85,6.28v2.14h-3.71v-2.39c0-1.78-.79-2.46-2.04-2.46s-2.03.68-2.03,2.46v13.67c0,1.78.79,2.43,2.03,2.43s2.04-.64,2.04-2.43v-4.89h-1.96v-3.57h5.67v8.17c0,4-2,6.28-5.85,6.28s-5.85-2.28-5.85-6.28Z"/>
  </g>
  <g>
    <path class="uuid-d04b239e-7910-4fb4-a898-e028f7f910fd" d="m1668.46,504.51v-13.13c0-4,2-6.28,5.85-6.28s5.85,2.28,5.85,6.28v2.14h-3.71v-2.39c0-1.78-.79-2.46-2.04-2.46s-2.03.68-2.03,2.46v13.67c0,1.78.79,2.43,2.03,2.43s2.04-.64,2.04-2.43v-4.89h-1.96v-3.57h5.67v8.17c0,4-2,6.28-5.85,6.28s-5.85-2.28-5.85-6.28Z"/>
    <path class="uuid-d04b239e-7910-4fb4-a898-e028f7f910fd" d="m1685.76,499.8l-4.75-14.35h4.18l2.68,9.17h.07l2.68-9.17h3.82l-4.75,14.35v10.64h-3.93v-10.64Z"/>
    <path class="uuid-d04b239e-7910-4fb4-a898-e028f7f910fd" d="m1696.22,485.46h5.6l2.5,17.88h.07l2.5-17.88h5.6v24.98h-3.71v-18.92h-.07l-2.86,18.92h-3.28l-2.86-18.92h-.07v18.92h-3.43v-24.98Z"/>
    <path class="uuid-d04b239e-7910-4fb4-a898-e028f7f910fd" d="m1715.42,485.46h4.93l3.82,14.95h.07v-14.95h3.5v24.98h-4.03l-4.71-18.24h-.07v18.24h-3.5v-24.98Z"/>
    <path class="uuid-d04b239e-7910-4fb4-a898-e028f7f910fd" d="m1733.69,485.46h5.32l4.07,24.98h-3.93l-.71-4.96v.07h-4.46l-.71,4.89h-3.64l4.07-24.98Zm4.28,16.7l-1.75-12.35h-.07l-1.71,12.35h3.53Z"/>
    <path class="uuid-d04b239e-7910-4fb4-a898-e028f7f910fd" d="m1744.18,504.51v-1.43h3.71v1.71c0,1.78.79,2.43,2.03,2.43s2.03-.64,2.03-2.5c0-2.07-.79-3.39-3.35-5.64-3.28-2.89-4.35-4.93-4.35-7.78,0-3.93,2.03-6.21,5.85-6.21s5.71,2.28,5.71,6.28v1.04h-3.71v-1.29c0-1.78-.71-2.46-1.96-2.46s-1.96.68-1.96,2.39c0,1.82.82,3.14,3.39,5.39,3.28,2.89,4.32,4.89,4.32,7.99,0,4.07-2.07,6.35-5.92,6.35s-5.78-2.28-5.78-6.28Z"/>
    <path class="uuid-d04b239e-7910-4fb4-a898-e028f7f910fd" d="m1761.2,489.03h-4.1v-3.57h12.13v3.57h-4.1v21.41h-3.93v-21.41Z"/>
    <path class="uuid-d04b239e-7910-4fb4-a898-e028f7f910fd" d="m1771.12,485.46h3.93v24.98h-3.93v-24.98Z"/>
    <path class="uuid-d04b239e-7910-4fb4-a898-e028f7f910fd" d="m1777.73,504.66v-13.42c0-3.85,2-6.14,5.78-6.14s5.78,2.28,5.78,6.14v2.64h-3.71v-2.89c0-1.64-.79-2.32-1.96-2.32s-1.96.68-1.96,2.32v13.96c0,1.64.79,2.28,1.96,2.28s1.96-.64,1.96-2.28v-3.82h3.71v3.53c0,3.85-2,6.14-5.78,6.14s-5.78-2.28-5.78-6.14Z"/>
    <path class="uuid-d04b239e-7910-4fb4-a898-e028f7f910fd" d="m1791.04,504.51v-1.43h3.71v1.71c0,1.78.79,2.43,2.03,2.43s2.03-.64,2.03-2.5c0-2.07-.79-3.39-3.35-5.64-3.28-2.89-4.35-4.93-4.35-7.78,0-3.93,2.03-6.21,5.85-6.21s5.71,2.28,5.71,6.28v1.04h-3.71v-1.29c0-1.78-.71-2.46-1.96-2.46s-1.96.68-1.96,2.39c0,1.82.82,3.14,3.39,5.39,3.28,2.89,4.32,4.89,4.32,7.99,0,4.07-2.07,6.35-5.92,6.35s-5.78-2.28-5.78-6.28Z"/>
  </g>
  <g>
    <path class="uuid-d04b239e-7910-4fb4-a898-e028f7f910fd" d="m1667.81,577.81h3.78l1.75,19.2h.07l1.86-19.2h4.28l1.86,19.2h.07l1.75-19.2h3.39l-2.53,24.98h-4.89l-1.79-16.85h-.07l-1.78,16.85h-5.21l-2.53-24.98Z"/>
    <path class="uuid-d04b239e-7910-4fb4-a898-e028f7f910fd" d="m1688.62,577.81h10.71v3.57h-6.78v6.6h5.39v3.57h-5.39v7.67h6.78v3.57h-10.71v-24.98Z"/>
    <path class="uuid-d04b239e-7910-4fb4-a898-e028f7f910fd" d="m1701.57,577.81h3.93v24.98h-3.93v-24.98Z"/>
    <path class="uuid-d04b239e-7910-4fb4-a898-e028f7f910fd" d="m1708.14,596.86v-13.13c0-4,2-6.28,5.85-6.28s5.85,2.28,5.85,6.28v2.14h-3.71v-2.39c0-1.78-.79-2.46-2.04-2.46s-2.03.68-2.03,2.46v13.67c0,1.78.79,2.43,2.03,2.43s2.04-.64,2.04-2.43v-4.89h-1.96v-3.57h5.67v8.17c0,4-2,6.28-5.85,6.28s-5.85-2.29-5.85-6.28Z"/>
    <path class="uuid-d04b239e-7910-4fb4-a898-e028f7f910fd" d="m1722.37,577.81h3.93v10.17h4.21v-10.17h3.93v24.98h-3.93v-11.24h-4.21v11.24h-3.93v-24.98Z"/>
    <path class="uuid-d04b239e-7910-4fb4-a898-e028f7f910fd" d="m1740.43,581.38h-4.1v-3.57h12.13v3.57h-4.1v21.41h-3.93v-21.41Z"/>
    <path class="uuid-d04b239e-7910-4fb4-a898-e028f7f910fd" d="m1750.35,577.81h3.93v21.42h6.46v3.57h-10.39v-24.98Z"/>
    <path class="uuid-d04b239e-7910-4fb4-a898-e028f7f910fd" d="m1762.63,577.81h3.93v24.98h-3.93v-24.98Z"/>
    <path class="uuid-d04b239e-7910-4fb4-a898-e028f7f910fd" d="m1769.48,577.81h10.39v3.57h-6.46v6.96h5.07v3.57h-5.07v10.89h-3.93v-24.98Z"/>
    <path class="uuid-d04b239e-7910-4fb4-a898-e028f7f910fd" d="m1785.18,581.38h-4.1v-3.57h12.13v3.57h-4.1v21.41h-3.93v-21.41Z"/>
    <path class="uuid-d04b239e-7910-4fb4-a898-e028f7f910fd" d="m1795.1,577.81h3.93v24.98h-3.93v-24.98Z"/>
    <path class="uuid-d04b239e-7910-4fb4-a898-e028f7f910fd" d="m1801.95,577.81h4.93l3.82,14.95h.07v-14.95h3.5v24.98h-4.03l-4.71-18.24h-.07v18.24h-3.5v-24.98Z"/>
    <path class="uuid-d04b239e-7910-4fb4-a898-e028f7f910fd" d="m1816.91,596.86v-13.13c0-4,2-6.28,5.85-6.28s5.85,2.28,5.85,6.28v2.14h-3.71v-2.39c0-1.78-.79-2.46-2.04-2.46s-2.03.68-2.03,2.46v13.67c0,1.78.79,2.43,2.03,2.43s2.04-.64,2.04-2.43v-4.89h-1.96v-3.57h5.67v8.17c0,4-2,6.28-5.85,6.28s-5.85-2.29-5.85-6.28Z"/>
  </g>
  <path class="uuid-d04b239e-7910-4fb4-a898-e028f7f910fd" d="m1607.44,381h-42.32c-.27,0-.54.06-.79.15-.09,0-.15.06-.21.09-.18.09-.33.18-.48.33-.06.06-.12.09-.18.15-.15.18-.3.36-.42.6,0,0,0,.03-.03.06h0c-.09.24-.15.51-.15.79v28.81c0,1.24-1.03,2.27-2.27,2.27s-2.27-1.03-2.27-2.27-1.03-2.27-2.27-2.27-2.27,1.03-2.27,2.27c0,3.75,3.05,6.8,6.8,6.8s6.8-3.05,6.8-6.8v-23.25l7.32,7.32-2.72,10.85c-.12.51-.06,1.09.18,1.57l5.53,11.06-8.55,17.11c-.36.7-.3,1.54.09,2.21.42.67,1.15,1.09,1.93,1.09h36.27c2.9,0,5.29-2.39,5.29-5.29v-48.36c0-2.9-2.39-5.29-5.29-5.29Zm.76,53.65c0,.42-.33.76-.76.76h-32.62l7.44-14.84c.33-.63.33-1.39,0-2.03l-5.68-11.34,2.81-11.28c.18-.79-.03-1.6-.6-2.15l-8.22-8.22h36.85c.42,0,.76.33.76.76v48.36l.03-.03Z"/>
  <path class="uuid-d04b239e-7910-4fb4-a898-e028f7f910fd" d="m1587.7,399.98c.45.45,1.03.67,1.6.67s1.15-.21,1.6-.67c.88-.88.88-2.33,0-3.2l-3.02-3.02c-.88-.88-2.33-.88-3.2,0s-.88,2.33,0,3.2l3.02,3.02Z"/>
  <path class="uuid-d04b239e-7910-4fb4-a898-e028f7f910fd" d="m1599.97,414.92c-.88-.88-2.33-.88-3.2,0l-3.02,3.02c-.88.88-.88,2.33,0,3.2.45.45,1.03.67,1.6.67s1.15-.21,1.6-.67l3.02-3.02c.88-.88.88-2.33,0-3.2Z"/>
  <path class="uuid-d04b239e-7910-4fb4-a898-e028f7f910fd" d="m1601.39,423.32c-1.24,0-2.27,1.03-2.27,2.27v3.02c0,1.24,1.03,2.27,2.27,2.27s2.27-1.03,2.27-2.27v-3.02c0-1.24-1.03-2.27-2.27-2.27Z"/>
  <path class="uuid-d04b239e-7910-4fb4-a898-e028f7f910fd" d="m1589.36,423.32h0c-1.24,0-2.27,1.03-2.27,2.27s1.03,2.27,2.27,2.27,2.27-1.03,2.27-2.27-1-2.27-2.27-2.27Z"/>
  <path class="uuid-d04b239e-7910-4fb4-a898-e028f7f910fd" d="m1601.45,402.16h0c-1.24,0-2.27,1.03-2.27,2.27s1.03,2.27,2.27,2.27,2.27-1.03,2.27-2.27-1-2.27-2.27-2.27Z"/>
  <path class="uuid-d04b239e-7910-4fb4-a898-e028f7f910fd" d="m1588.6,410.47c0-1.24-1-2.27-2.27-2.27h0c-1.24,0-2.24,1.03-2.24,2.27s1.03,2.27,2.27,2.27,2.27-1.03,2.27-2.27h-.03Z"/>
  <path class="uuid-d04b239e-7910-4fb4-a898-e028f7f910fd" d="m1595.41,394.6c1.27,0,2.27-1.03,2.27-2.27s-1-2.27-2.27-2.27h0c-1.24,0-2.27,1.03-2.27,2.27s1.03,2.27,2.27,2.27Z"/>
  <g>
    <path class="uuid-d04b239e-7910-4fb4-a898-e028f7f910fd" d="m1605.24,506.1v-24h3.41c1.26,0,2.27-1.02,2.27-2.27s-1.02-2.27-2.27-2.27h-45.48c-1.26,0-2.27,1.02-2.27,2.27s1.02,2.27,2.27,2.27h3.41v12.63c-4.69,2.16-7.96,6.89-7.96,12.39,0,7.52,6.12,13.64,13.64,13.64s13.64-6.12,13.64-13.64c0-5.49-3.27-10.23-7.96-12.39v-12.63h15.92v24c-4.69,2.16-7.96,6.89-7.96,12.39,0,7.52,6.12,13.64,13.64,13.64s13.64-6.12,13.64-13.64c0-5.49-3.27-10.23-7.96-12.39Zm-23.88,1.02c0,5.02-4.08,9.1-9.1,9.1s-9.1-4.08-9.1-9.1,4.08-9.1,9.1-9.1,9.1,4.08,9.1,9.1Zm-7.96-13.59c-.38-.03-.75-.06-1.14-.06s-.76.03-1.14.06v-11.43h2.27v11.43Zm25.01-11.43h2.27v22.8c-.38-.03-.75-.06-1.14-.06s-.76.03-1.14.06v-22.8Zm1.14,45.48c-5.02,0-9.1-4.08-9.1-9.1s4.08-9.1,9.1-9.1,9.1,4.08,9.1,9.1-4.08,9.1-9.1,9.1Z"/>
    <path class="uuid-d04b239e-7910-4fb4-a898-e028f7f910fd" d="m1599.55,510.52c-4.39,0-7.96,3.57-7.96,7.96s3.57,7.96,7.96,7.96,7.96-3.57,7.96-7.96-3.57-7.96-7.96-7.96Zm0,11.37c-1.88,0-3.41-1.53-3.41-3.41s1.53-3.41,3.41-3.41,3.41,1.53,3.41,3.41-1.53,3.41-3.41,3.41Z"/>
    <path class="uuid-d04b239e-7910-4fb4-a898-e028f7f910fd" d="m1564.3,507.11c0,4.39,3.57,7.96,7.96,7.96s7.96-3.57,7.96-7.96-3.57-7.96-7.96-7.96-7.96,3.57-7.96,7.96Zm11.37,0c0,1.88-1.53,3.41-3.41,3.41s-3.41-1.53-3.41-3.41,1.53-3.41,3.41-3.41,3.41,1.53,3.41,3.41Z"/>
  </g>
  <path class="uuid-d04b239e-7910-4fb4-a898-e028f7f910fd" d="m1611.45,583.87h-2.45v-2.48c0-1.71-1.39-3.1-3.1-3.1h-3.1c-1.71,0-3.1,1.39-3.1,3.1v6.19h-22.29v-6.19c0-1.71-1.39-3.1-3.1-3.1h-3.1c-1.71,0-3.1,1.39-3.1,3.1v2.48h-2.45c-1.72,0-3.12,1.4-3.12,3.12v12.33c0,1.72,1.4,3.12,3.12,3.12h2.45v2.48c0,1.71,1.39,3.1,3.1,3.1h3.1c1.71,0,3.1-1.39,3.1-3.1v-6.19h22.29v6.19c0,1.71,1.39,3.1,3.1,3.1h3.1c1.71,0,3.1-1.39,3.1-3.1v-2.48h2.45c1.72,0,3.12-1.4,3.12-3.12v-12.33c0-1.72-1.4-3.12-3.12-3.12Zm-45.18,14.86v-11.15h1.86v11.15h-1.86Zm7.43,5.57h-1.86v-22.29h1.86v22.29Zm3.72-9.29v-3.72h22.29v3.72h-22.29Zm27.87,9.29h-1.86v-22.29h1.86v22.29Zm5.57-5.57h-1.86v-11.15h1.86v11.15Z"/>
  <g>
    <path class="uuid-d04b239e-7910-4fb4-a898-e028f7f910fd" d="m1059.56,793.46h5.88l4.56,17.84h.08v-17.84h4.17v29.81h-4.81l-5.62-21.76h-.08v21.76h-4.17v-29.81Z"/>
    <path class="uuid-d04b239e-7910-4fb4-a898-e028f7f910fd" d="m1077.41,816.2v-15.67c0-4.77,2.51-7.5,7.11-7.5s7.11,2.73,7.11,7.5v15.67c0,4.77-2.51,7.5-7.11,7.5s-7.11-2.73-7.11-7.5Zm9.54.3v-16.27c0-2.13-.94-2.94-2.43-2.94s-2.43.81-2.43,2.94v16.27c0,2.13.94,2.94,2.43,2.94s2.43-.81,2.43-2.94Z"/>
    <path class="uuid-d04b239e-7910-4fb4-a898-e028f7f910fd" d="m1094.78,793.46h5.88l4.56,17.84h.09v-17.84h4.17v29.81h-4.81l-5.62-21.76h-.08v21.76h-4.17v-29.81Z"/>
    <path class="uuid-d04b239e-7910-4fb4-a898-e028f7f910fd" d="m1123.44,797.72h-4.9v-4.26h14.48v4.26h-4.9v25.55h-4.68v-25.55Z"/>
    <path class="uuid-d04b239e-7910-4fb4-a898-e028f7f910fd" d="m1134.77,816.2v-15.67c0-4.77,2.51-7.5,7.11-7.5s7.11,2.73,7.11,7.5v15.67c0,4.77-2.51,7.5-7.11,7.5s-7.11-2.73-7.11-7.5Zm9.54.3v-16.27c0-2.13-.94-2.94-2.43-2.94s-2.43.81-2.43,2.94v16.27c0,2.13.94,2.94,2.43,2.94s2.43-.81,2.43-2.94Z"/>
    <path class="uuid-d04b239e-7910-4fb4-a898-e028f7f910fd" d="m1155.6,808.03l-5.15-14.57h4.94l3.15,9.62h.08l3.24-9.62h4.43l-5.15,14.57,5.41,15.25h-4.94l-3.41-10.39h-.08l-3.49,10.39h-4.43l5.41-15.25Z"/>
    <path class="uuid-d04b239e-7910-4fb4-a898-e028f7f910fd" d="m1168.75,793.46h4.68v29.81h-4.68v-29.81Z"/>
    <path class="uuid-d04b239e-7910-4fb4-a898-e028f7f910fd" d="m1176.63,816.37v-16.01c0-4.6,2.38-7.33,6.9-7.33s6.9,2.73,6.9,7.33v3.15h-4.43v-3.45c0-1.96-.94-2.77-2.34-2.77s-2.34.81-2.34,2.77v16.65c0,1.96.94,2.73,2.34,2.73s2.34-.77,2.34-2.73v-4.56h4.43v4.22c0,4.6-2.38,7.33-6.9,7.33s-6.9-2.73-6.9-7.33Z"/>
    <path class="uuid-d04b239e-7910-4fb4-a898-e028f7f910fd" d="m907.06,844.57h5.88l4.56,17.84h.08v-17.84h4.17v29.81h-4.81l-5.62-21.76h-.09v21.76h-4.17v-29.81Z"/>
    <path class="uuid-d04b239e-7910-4fb4-a898-e028f7f910fd" d="m924.9,867.31v-15.67c0-4.77,2.51-7.5,7.11-7.5s7.11,2.73,7.11,7.5v15.67c0,4.77-2.51,7.5-7.11,7.5s-7.11-2.73-7.11-7.5Zm9.54.3v-16.27c0-2.13-.94-2.94-2.43-2.94s-2.43.81-2.43,2.94v16.27c0,2.13.94,2.94,2.43,2.94s2.43-.81,2.43-2.94Z"/>
    <path class="uuid-d04b239e-7910-4fb4-a898-e028f7f910fd" d="m948.28,867.31v-1.7h4.43v2.04c0,2.13.94,2.9,2.43,2.9s2.43-.77,2.43-2.98c0-2.47-.94-4.05-4-6.73-3.92-3.45-5.2-5.88-5.2-9.28,0-4.68,2.43-7.41,6.98-7.41s6.81,2.73,6.81,7.5v1.23h-4.43v-1.53c0-2.13-.85-2.94-2.34-2.94s-2.34.81-2.34,2.85c0,2.17.98,3.75,4.05,6.43,3.92,3.45,5.15,5.83,5.15,9.54,0,4.85-2.47,7.58-7.07,7.58s-6.9-2.73-6.9-7.5Z"/>
    <path class="uuid-d04b239e-7910-4fb4-a898-e028f7f910fd" d="m964.63,867.48v-16.01c0-4.6,2.38-7.33,6.9-7.33s6.9,2.73,6.9,7.33v3.15h-4.43v-3.45c0-1.96-.94-2.77-2.34-2.77s-2.34.81-2.34,2.77v16.65c0,1.96.94,2.73,2.34,2.73s2.34-.77,2.34-2.73v-4.56h4.43v4.22c0,4.6-2.38,7.33-6.9,7.33s-6.9-2.73-6.9-7.33Z"/>
    <path class="uuid-d04b239e-7910-4fb4-a898-e028f7f910fd" d="m981.24,844.57h12.78v4.26h-8.09v7.88h6.43v4.26h-6.43v9.16h8.09v4.26h-12.78v-29.81Z"/>
    <path class="uuid-d04b239e-7910-4fb4-a898-e028f7f910fd" d="m996.7,844.57h5.88l4.56,17.84h.09v-17.84h4.17v29.81h-4.81l-5.62-21.76h-.08v21.76h-4.17v-29.81Z"/>
    <path class="uuid-d04b239e-7910-4fb4-a898-e028f7f910fd" d="m1018.55,848.83h-4.9v-4.26h14.48v4.26h-4.9v25.55h-4.68v-25.55Z"/>
    <path class="uuid-d04b239e-7910-4fb4-a898-e028f7f910fd" d="m1029.58,867.31v-1.7h4.43v2.04c0,2.13.94,2.9,2.43,2.9s2.43-.77,2.43-2.98c0-2.47-.94-4.05-4-6.73-3.92-3.45-5.2-5.88-5.2-9.28,0-4.68,2.43-7.41,6.98-7.41s6.81,2.73,6.81,7.5v1.23h-4.43v-1.53c0-2.13-.85-2.94-2.34-2.94s-2.34.81-2.34,2.85c0,2.17.98,3.75,4.05,6.43,3.92,3.45,5.15,5.83,5.15,9.54,0,4.85-2.47,7.58-7.07,7.58s-6.9-2.73-6.9-7.5Z"/>
    <path class="uuid-d04b239e-7910-4fb4-a898-e028f7f910fd" d="m1052.7,867.31v-15.67c0-4.77,2.51-7.5,7.11-7.5s7.11,2.73,7.11,7.5v15.67c0,4.77-2.51,7.5-7.11,7.5s-7.11-2.73-7.11-7.5Zm9.54.3v-16.27c0-2.13-.94-2.94-2.43-2.94s-2.43.81-2.43,2.94v16.27c0,2.13.94,2.94,2.43,2.94s2.43-.81,2.43-2.94Z"/>
    <path class="uuid-d04b239e-7910-4fb4-a898-e028f7f910fd" d="m1070.08,844.57h4.68v29.81h-4.68v-29.81Z"/>
    <path class="uuid-d04b239e-7910-4fb4-a898-e028f7f910fd" d="m1078.26,844.57h4.68v25.55h7.71v4.26h-12.39v-29.81Z"/>
    <path class="uuid-d04b239e-7910-4fb4-a898-e028f7f910fd" d="m1092.1,867.31v-1.7h4.43v2.04c0,2.13.94,2.9,2.43,2.9s2.43-.77,2.43-2.98c0-2.47-.94-4.05-4-6.73-3.92-3.45-5.2-5.88-5.2-9.28,0-4.68,2.43-7.41,6.98-7.41s6.81,2.73,6.81,7.5v1.23h-4.43v-1.53c0-2.13-.85-2.94-2.34-2.94s-2.34.81-2.34,2.85c0,2.17.98,3.75,4.05,6.43,3.92,3.45,5.15,5.83,5.15,9.54,0,4.85-2.47,7.58-7.07,7.58s-6.9-2.73-6.9-7.5Z"/>
    <path class="uuid-d04b239e-7910-4fb4-a898-e028f7f910fd" d="m1115.22,867.31v-15.67c0-4.77,2.51-7.5,7.11-7.5s7.11,2.73,7.11,7.5v15.67c0,4.77-2.51,7.5-7.11,7.5s-7.11-2.73-7.11-7.5Zm9.54.3v-16.27c0-2.13-.94-2.94-2.43-2.94s-2.43.81-2.43,2.94v16.27c0,2.13.94,2.94,2.43,2.94s2.43-.81,2.43-2.94Z"/>
    <path class="uuid-d04b239e-7910-4fb4-a898-e028f7f910fd" d="m1132.6,844.57h6.94c4.86,0,6.94,2.26,6.94,6.86v1.83c0,3.07-.98,5.03-3.07,5.88v.08c2.34.72,3.11,2.94,3.11,6.3v5.24c0,1.45.04,2.51.51,3.62h-4.77c-.25-.77-.43-1.24-.43-3.66v-5.45c0-2.77-.81-3.66-2.94-3.66h-1.62v12.78h-4.68v-29.81Zm6.39,12.78c1.75,0,2.81-.77,2.81-3.15v-2.3c0-2.13-.72-3.07-2.39-3.07h-2.13v8.52h1.7Z"/>
    <path class="uuid-d04b239e-7910-4fb4-a898-e028f7f910fd" d="m1156.28,867.48v-16.01c0-4.6,2.38-7.33,6.9-7.33s6.9,2.73,6.9,7.33v3.15h-4.43v-3.45c0-1.96-.94-2.77-2.34-2.77s-2.34.81-2.34,2.77v16.65c0,1.96.94,2.73,2.34,2.73s2.34-.77,2.34-2.73v-4.56h4.43v4.22c0,4.6-2.38,7.33-6.9,7.33s-6.9-2.73-6.9-7.33Z"/>
    <path class="uuid-d04b239e-7910-4fb4-a898-e028f7f910fd" d="m1172.63,867.31v-15.67c0-4.77,2.51-7.5,7.11-7.5s7.11,2.73,7.11,7.5v15.67c0,4.77-2.51,7.5-7.11,7.5s-7.11-2.73-7.11-7.5Zm9.54.3v-16.27c0-2.13-.94-2.94-2.43-2.94s-2.43.81-2.43,2.94v16.27c0,2.13.94,2.94,2.43,2.94s2.43-.81,2.43-2.94Z"/>
    <path class="uuid-d04b239e-7910-4fb4-a898-e028f7f910fd" d="m1190,844.57h4.68v25.55h7.71v4.26h-12.39v-29.81Z"/>
    <path class="uuid-d04b239e-7910-4fb4-a898-e028f7f910fd" d="m1204.14,867.31v-15.67c0-4.77,2.51-7.5,7.11-7.5s7.11,2.73,7.11,7.5v15.67c0,4.77-2.51,7.5-7.11,7.5s-7.11-2.73-7.11-7.5Zm9.54.3v-16.27c0-2.13-.94-2.94-2.43-2.94s-2.43.81-2.43,2.94v16.27c0,2.13.94,2.94,2.43,2.94s2.43-.81,2.43-2.94Z"/>
    <path class="uuid-d04b239e-7910-4fb4-a898-e028f7f910fd" d="m1221.52,844.57h6.94c4.86,0,6.94,2.26,6.94,6.86v1.83c0,3.07-.98,5.03-3.07,5.88v.08c2.34.72,3.11,2.94,3.11,6.3v5.24c0,1.45.04,2.51.51,3.62h-4.77c-.25-.77-.43-1.24-.43-3.66v-5.45c0-2.77-.81-3.66-2.94-3.66h-1.62v12.78h-4.68v-29.81Zm6.39,12.78c1.75,0,2.81-.77,2.81-3.15v-2.3c0-2.13-.72-3.07-2.39-3.07h-2.13v8.52h1.7Z"/>
    <path class="uuid-d04b239e-7910-4fb4-a898-e028f7f910fd" d="m1237.87,867.31v-1.7h4.43v2.04c0,2.13.94,2.9,2.43,2.9s2.43-.77,2.43-2.98c0-2.47-.94-4.05-4-6.73-3.92-3.45-5.2-5.88-5.2-9.28,0-4.68,2.43-7.41,6.98-7.41s6.81,2.73,6.81,7.5v1.23h-4.43v-1.53c0-2.13-.85-2.94-2.34-2.94s-2.34.81-2.34,2.85c0,2.17.98,3.75,4.05,6.43,3.92,3.45,5.15,5.83,5.15,9.54,0,4.85-2.47,7.58-7.07,7.58s-6.9-2.73-6.9-7.5Z"/>
    <path class="uuid-d04b239e-7910-4fb4-a898-e028f7f910fd" d="m1264.96,844.57h6.35l4.85,29.81h-4.68l-.85-5.92v.09h-5.32l-.85,5.83h-4.34l4.86-29.81Zm5.11,19.93l-2.09-14.74h-.08l-2.04,14.74h4.22Z"/>
    <path class="uuid-d04b239e-7910-4fb4-a898-e028f7f910fd" d="m1278.42,844.57h7.15c4.68,0,6.98,2.6,6.98,7.37v15.08c0,4.77-2.3,7.37-6.98,7.37h-7.15v-29.81Zm7.07,25.55c1.49,0,2.38-.77,2.38-2.9v-15.5c0-2.13-.89-2.9-2.38-2.9h-2.38v21.29h2.38Z"/>
    <path class="uuid-d04b239e-7910-4fb4-a898-e028f7f910fd" d="m1295.71,844.57h7.15c4.68,0,6.98,2.6,6.98,7.37v15.08c0,4.77-2.3,7.37-6.98,7.37h-7.15v-29.81Zm7.07,25.55c1.49,0,2.38-.77,2.38-2.9v-15.5c0-2.13-.89-2.9-2.38-2.9h-2.38v21.29h2.38Z"/>
    <path class="uuid-d04b239e-7910-4fb4-a898-e028f7f910fd" d="m1313,844.57h12.78v4.26h-8.09v7.88h6.43v4.26h-6.43v9.16h8.09v4.26h-12.78v-29.81Z"/>
    <path class="uuid-d04b239e-7910-4fb4-a898-e028f7f910fd" d="m1328.46,844.57h7.15c4.68,0,6.98,2.6,6.98,7.37v15.08c0,4.77-2.3,7.37-6.98,7.37h-7.15v-29.81Zm7.07,25.55c1.49,0,2.38-.77,2.38-2.9v-15.5c0-2.13-.89-2.9-2.38-2.9h-2.38v21.29h2.38Z"/>
  </g>
  <g>
    <path class="uuid-d04b239e-7910-4fb4-a898-e028f7f910fd" d="m211.52,795.29h5.76l4.46,17.48h.08v-17.48h4.09v29.2h-4.71l-5.51-21.32h-.08v21.32h-4.09v-29.2Z"/>
    <path class="uuid-d04b239e-7910-4fb4-a898-e028f7f910fd" d="m228.99,817.57v-15.35c0-4.67,2.46-7.34,6.97-7.34s6.97,2.67,6.97,7.34v15.35c0,4.67-2.46,7.34-6.97,7.34s-6.97-2.67-6.97-7.34Zm9.34.29v-15.94c0-2.09-.92-2.88-2.38-2.88s-2.38.79-2.38,2.88v15.94c0,2.09.92,2.88,2.38,2.88s2.38-.79,2.38-2.88Z"/>
    <path class="uuid-d04b239e-7910-4fb4-a898-e028f7f910fd" d="m252.69,795.29h12.14v4.17h-7.55v8.13h5.92v4.17h-5.92v12.72h-4.59v-29.2Z"/>
    <path class="uuid-d04b239e-7910-4fb4-a898-e028f7f910fd" d="m267.04,795.29h4.59v29.2h-4.59v-29.2Z"/>
    <path class="uuid-d04b239e-7910-4fb4-a898-e028f7f910fd" d="m275.05,795.29h4.59v25.03h7.55v4.17h-12.14v-29.2Z"/>
    <path class="uuid-d04b239e-7910-4fb4-a898-e028f7f910fd" d="m289.4,795.29h4.59v25.03h7.55v4.17h-12.14v-29.2Z"/>
    <path class="uuid-d04b239e-7910-4fb4-a898-e028f7f910fd" d="m303.75,795.29h12.52v4.17h-7.93v7.72h6.3v4.17h-6.3v8.97h7.93v4.17h-12.52v-29.2Z"/>
    <path class="uuid-d04b239e-7910-4fb4-a898-e028f7f910fd" d="m318.9,795.29h6.8c4.76,0,6.8,2.21,6.8,6.72v1.79c0,3-.96,4.92-3,5.76v.08c2.29.71,3.05,2.88,3.05,6.17v5.13c0,1.42.04,2.46.5,3.55h-4.67c-.25-.75-.42-1.21-.42-3.59v-5.34c0-2.71-.79-3.59-2.88-3.59h-1.59v12.52h-4.59v-29.2Zm6.26,12.52c1.71,0,2.75-.75,2.75-3.09v-2.25c0-2.09-.71-3-2.34-3h-2.09v8.34h1.67Z"/>
    <path class="uuid-d04b239e-7910-4fb4-a898-e028f7f910fd" d="m334.92,817.57v-1.67h4.34v2c0,2.09.92,2.84,2.38,2.84s2.38-.75,2.38-2.92c0-2.42-.92-3.96-3.92-6.59-3.84-3.38-5.09-5.76-5.09-9.09,0-4.59,2.38-7.26,6.84-7.26s6.67,2.67,6.67,7.34v1.21h-4.34v-1.5c0-2.09-.83-2.88-2.29-2.88s-2.29.79-2.29,2.79c0,2.13.96,3.67,3.96,6.3,3.84,3.38,5.05,5.72,5.05,9.34,0,4.76-2.42,7.43-6.93,7.43s-6.76-2.67-6.76-7.34Z"/>
    <path class="uuid-d04b239e-7910-4fb4-a898-e028f7f910fd" d="m59.45,852.28h-4.8v-3.25c3.88,0,5.26-.83,6.3-3.67h3.09v29.2h-4.59v-22.28Z"/>
    <path class="uuid-d04b239e-7910-4fb4-a898-e028f7f910fd" d="m69.38,867.63v-15.35c0-4.67,2.46-7.34,6.97-7.34s6.97,2.67,6.97,7.34v15.35c0,4.67-2.46,7.34-6.97,7.34s-6.97-2.67-6.97-7.34Zm9.34.29v-15.94c0-2.09-.92-2.88-2.38-2.88s-2.38.79-2.38,2.88v15.94c0,2.09.92,2.88,2.38,2.88s2.38-.79,2.38-2.88Z"/>
    <path class="uuid-d04b239e-7910-4fb4-a898-e028f7f910fd" d="m86.07,867.63v-15.35c0-4.67,2.46-7.34,6.97-7.34s6.97,2.67,6.97,7.34v15.35c0,4.67-2.46,7.34-6.97,7.34s-6.97-2.67-6.97-7.34Zm9.34.29v-15.94c0-2.09-.92-2.88-2.38-2.88s-2.38.79-2.38,2.88v15.94c0,2.09.92,2.88,2.38,2.88s2.38-.79,2.38-2.88Z"/>
    <path class="uuid-d04b239e-7910-4fb4-a898-e028f7f910fd" d="m102.84,856.91v-7.3c0-3,1.54-4.67,4.42-4.67s4.42,1.67,4.42,4.67v7.3c0,3-1.54,4.67-4.42,4.67s-4.42-1.67-4.42-4.67Zm5.92.21v-7.72c0-1.29-.58-1.84-1.5-1.84s-1.5.54-1.5,1.84v7.72c0,1.29.54,1.83,1.5,1.83s1.5-.54,1.5-1.83Zm9.09-11.76h2.92l-11.31,29.2h-2.92l11.31-29.2Zm-2.21,24.95v-7.3c0-3,1.54-4.67,4.42-4.67s4.42,1.67,4.42,4.67v7.3c0,3-1.54,4.67-4.42,4.67s-4.42-1.67-4.42-4.67Zm5.92.21v-7.72c0-1.29-.58-1.83-1.5-1.83s-1.5.54-1.5,1.83v7.72c0,1.29.54,1.84,1.5,1.84s1.5-.54,1.5-1.84Z"/>
    <path class="uuid-d04b239e-7910-4fb4-a898-e028f7f910fd" d="m134.34,845.35h6.76c4.59,0,6.84,2.54,6.84,7.22v2.88c0,4.67-2.25,7.22-6.84,7.22h-2.17v11.89h-4.59v-29.2Zm6.76,13.14c1.46,0,2.25-.67,2.25-2.75v-3.46c0-2.09-.79-2.75-2.25-2.75h-2.17v8.97h2.17Z"/>
    <path class="uuid-d04b239e-7910-4fb4-a898-e028f7f910fd" d="m150.27,867.63v-22.28h4.59v22.61c0,2.09.88,2.84,2.34,2.84s2.34-.75,2.34-2.84v-22.61h4.42v22.28c0,4.67-2.34,7.34-6.84,7.34s-6.84-2.67-6.84-7.34Z"/>
    <path class="uuid-d04b239e-7910-4fb4-a898-e028f7f910fd" d="m167.21,845.35h6.8c4.76,0,6.8,2.21,6.8,6.72v1.79c0,3-.96,4.92-3,5.76v.08c2.29.71,3.05,2.88,3.05,6.17v5.13c0,1.42.04,2.46.5,3.55h-4.67c-.25-.75-.42-1.21-.42-3.59v-5.34c0-2.71-.79-3.59-2.88-3.59h-1.59v12.52h-4.59v-29.2Zm6.26,12.51c1.71,0,2.75-.75,2.75-3.09v-2.25c0-2.08-.71-3-2.34-3h-2.09v8.34h1.67Z"/>
    <path class="uuid-d04b239e-7910-4fb4-a898-e028f7f910fd" d="m184.02,845.35h12.52v4.17h-7.93v7.72h6.3v4.17h-6.3v8.97h7.93v4.17h-12.52v-29.2Z"/>
    <path class="uuid-d04b239e-7910-4fb4-a898-e028f7f910fd" d="m205.84,845.35h6.55l2.92,20.9h.08l2.92-20.9h6.55v29.2h-4.34v-22.11h-.08l-3.34,22.11h-3.84l-3.34-22.11h-.08v22.11h-4v-29.2Z"/>
    <path class="uuid-d04b239e-7910-4fb4-a898-e028f7f910fd" d="m231.83,845.35h6.22l4.76,29.2h-4.59l-.83-5.8v.08h-5.21l-.83,5.71h-4.26l4.76-29.2Zm5.01,19.52l-2.04-14.43h-.08l-2,14.43h4.13Z"/>
    <path class="uuid-d04b239e-7910-4fb4-a898-e028f7f910fd" d="m244.6,867.63v-15.35c0-4.67,2.34-7.34,6.84-7.34s6.84,2.67,6.84,7.34v2.5h-4.34v-2.79c0-2.09-.92-2.88-2.38-2.88s-2.38.79-2.38,2.88v15.98c0,2.09.92,2.84,2.38,2.84s2.38-.75,2.38-2.84v-5.71h-2.29v-4.17h6.63v9.55c0,4.67-2.34,7.34-6.84,7.34s-6.84-2.67-6.84-7.34Z"/>
    <path class="uuid-d04b239e-7910-4fb4-a898-e028f7f910fd" d="m261.24,845.35h5.76l4.46,17.48h.08v-17.48h4.09v29.2h-4.71l-5.51-21.32h-.08v21.32h-4.09v-29.2Z"/>
    <path class="uuid-d04b239e-7910-4fb4-a898-e028f7f910fd" d="m279.06,845.35h12.52v4.17h-7.93v7.72h6.3v4.17h-6.3v8.97h7.93v4.17h-12.52v-29.2Z"/>
    <path class="uuid-d04b239e-7910-4fb4-a898-e028f7f910fd" d="m293.49,867.63v-1.67h4.34v2c0,2.09.92,2.84,2.38,2.84s2.38-.75,2.38-2.92c0-2.42-.92-3.96-3.92-6.59-3.84-3.38-5.09-5.76-5.09-9.09,0-4.59,2.38-7.26,6.84-7.26s6.67,2.67,6.67,7.34v1.21h-4.34v-1.5c0-2.09-.83-2.88-2.29-2.88s-2.29.79-2.29,2.79c0,2.13.96,3.67,3.96,6.3,3.84,3.38,5.05,5.72,5.05,9.34,0,4.76-2.42,7.43-6.93,7.43s-6.76-2.67-6.76-7.34Z"/>
    <path class="uuid-d04b239e-7910-4fb4-a898-e028f7f910fd" d="m309.8,845.35h4.59v29.2h-4.59v-29.2Z"/>
    <path class="uuid-d04b239e-7910-4fb4-a898-e028f7f910fd" d="m317.64,867.63v-22.28h4.59v22.61c0,2.09.88,2.84,2.34,2.84s2.34-.75,2.34-2.84v-22.61h4.42v22.28c0,4.67-2.34,7.34-6.84,7.34s-6.84-2.67-6.84-7.34Z"/>
    <path class="uuid-d04b239e-7910-4fb4-a898-e028f7f910fd" d="m334.58,845.35h6.55l2.92,20.9h.08l2.92-20.9h6.55v29.2h-4.34v-22.11h-.08l-3.34,22.11h-3.84l-3.34-22.11h-.08v22.11h-4v-29.2Z"/>
    <path class="uuid-d04b239e-7910-4fb4-a898-e028f7f910fd" d="m363.41,867.79v-15.69c0-4.5,2.34-7.17,6.76-7.17s6.76,2.67,6.76,7.17v3.09h-4.34v-3.38c0-1.92-.92-2.71-2.29-2.71s-2.29.79-2.29,2.71v16.31c0,1.92.92,2.67,2.29,2.67s2.29-.75,2.29-2.67v-4.46h4.34v4.13c0,4.5-2.34,7.17-6.76,7.17s-6.76-2.67-6.76-7.17Z"/>
    <path class="uuid-d04b239e-7910-4fb4-a898-e028f7f910fd" d="m383.22,845.35h6.22l4.76,29.2h-4.59l-.83-5.8v.08h-5.21l-.83,5.71h-4.26l4.76-29.2Zm5.01,19.52l-2.04-14.43h-.08l-2,14.43h4.13Z"/>
    <path class="uuid-d04b239e-7910-4fb4-a898-e028f7f910fd" d="m396.41,845.35h6.8c4.76,0,6.8,2.21,6.8,6.72v1.79c0,3-.96,4.92-3,5.76v.08c2.29.71,3.05,2.88,3.05,6.17v5.13c0,1.42.04,2.46.5,3.55h-4.67c-.25-.75-.42-1.21-.42-3.59v-5.34c0-2.71-.79-3.59-2.88-3.59h-1.59v12.52h-4.59v-29.2Zm6.26,12.51c1.71,0,2.75-.75,2.75-3.09v-2.25c0-2.08-.71-3-2.34-3h-2.09v8.34h1.67Z"/>
    <path class="uuid-d04b239e-7910-4fb4-a898-e028f7f910fd" d="m413.22,845.35h6.93c4.76,0,6.8,2.21,6.8,6.72v1.17c0,3-.92,4.88-2.96,5.71v.08c2.46.83,3.42,3,3.42,6.09v2.5c0,4.5-2.38,6.92-6.97,6.92h-7.22v-29.2Zm6.38,11.89c1.71,0,2.75-.75,2.75-3.09v-1.63c0-2.08-.71-3-2.34-3h-2.21v7.72h1.79Zm.83,13.14c1.54,0,2.38-.71,2.38-2.88v-2.54c0-2.71-.88-3.55-2.96-3.55h-2.04v8.97h2.63Z"/>
    <path class="uuid-d04b239e-7910-4fb4-a898-e028f7f910fd" d="m429.74,867.63v-15.35c0-4.67,2.46-7.34,6.97-7.34s6.97,2.67,6.97,7.34v15.35c0,4.67-2.46,7.34-6.97,7.34s-6.97-2.67-6.97-7.34Zm9.34.29v-15.94c0-2.09-.92-2.88-2.38-2.88s-2.38.79-2.38,2.88v15.94c0,2.09.92,2.88,2.38,2.88s2.38-.79,2.38-2.88Z"/>
    <path class="uuid-d04b239e-7910-4fb4-a898-e028f7f910fd" d="m446.76,845.35h5.76l4.46,17.48h.08v-17.48h4.09v29.2h-4.71l-5.51-21.32h-.08v21.32h-4.09v-29.2Z"/>
    <path class="uuid-d04b239e-7910-4fb4-a898-e028f7f910fd" d="m468.12,845.35h6.22l4.76,29.2h-4.59l-.83-5.8v.08h-5.21l-.83,5.71h-4.26l4.76-29.2Zm5.01,19.52l-2.04-14.43h-.08l-2,14.43h4.13Z"/>
    <path class="uuid-d04b239e-7910-4fb4-a898-e028f7f910fd" d="m482.97,849.52h-4.8v-4.17h14.18v4.17h-4.8v25.03h-4.59v-25.03Z"/>
    <path class="uuid-d04b239e-7910-4fb4-a898-e028f7f910fd" d="m494.57,845.35h12.52v4.17h-7.93v7.72h6.3v4.17h-6.3v8.97h7.93v4.17h-12.52v-29.2Z"/>
  </g>
</svg>