<?xml version="1.0" encoding="UTF-8"?>
<svg id="uuid-3f90429e-4dba-4c0f-b8ab-64c63f57a4e1" data-name="Layer 1" xmlns="http://www.w3.org/2000/svg" viewBox="0 0 1920 342">
  <defs>
    <style>
      .uuid-7e30d9af-18a7-4f78-89fe-c977bf4bae43 {
        isolation: isolate;
      }

      .uuid-c505d4ae-4c64-4040-8bf0-0444b2c85d67 {
        fill: #fff;
      }

      .uuid-c505d4ae-4c64-4040-8bf0-0444b2c85d67, .uuid-4c0f8fc7-7f4a-48dc-ac9e-2bee40c352be {
        stroke-width: 0px;
      }

      .uuid-4c0f8fc7-7f4a-48dc-ac9e-2bee40c352be {
        fill: #f4f4f4;
      }
    </style>
  </defs>
  <g id="uuid-da72f72c-8951-42ae-a862-e013c71c9b69" data-name="The Movement " class="uuid-7e30d9af-18a7-4f78-89fe-c977bf4bae43">
    <g class="uuid-7e30d9af-18a7-4f78-89fe-c977bf4bae43">
      <path class="uuid-4c0f8fc7-7f4a-48dc-ac9e-2bee40c352be" d="m68.76,62.07h48.21v14.79h-16.07v81.64h-16.07v-81.64h-16.07v-14.79Z"/>
      <path class="uuid-4c0f8fc7-7f4a-48dc-ac9e-2bee40c352be" d="m120.62,62.07h16.07v29.46c.28-1.57,1.16-2.86,2.62-3.86,1.46-1,3.02-1.5,4.66-1.5h16.82c3,0,5.53,1.04,7.61,3.11,2.07,2.07,3.11,4.61,3.11,7.61v61.61h-16.07v-54.86c0-1.78-.89-2.68-2.68-2.68h-13.39c-1.79,0-2.68.89-2.68,2.68v54.86h-16.07V62.07Z"/>
      <path class="uuid-4c0f8fc7-7f4a-48dc-ac9e-2bee40c352be" d="m185.87,86.18h29.46c3,0,5.53,1.04,7.61,3.11,2.07,2.07,3.11,4.61,3.11,7.61v22.18c0,3-1.04,5.54-3.11,7.61s-4.61,3.11-7.61,3.11h-24.11v11.25c0,1.79.89,2.68,2.68,2.68h32.14v14.79h-40.18c-3,0-5.54-1.03-7.61-3.11-2.07-2.07-3.11-4.61-3.11-7.61v-50.89c0-3,1.03-5.53,3.11-7.61,2.07-2.07,4.61-3.11,7.61-3.11Zm21.43,14.79h-13.39c-1.79,0-2.68.89-2.68,2.68v11.25h16.07c1.78,0,2.68-.89,2.68-2.68v-8.57c0-1.78-.89-2.68-2.68-2.68Z"/>
    </g>
    <g class="uuid-7e30d9af-18a7-4f78-89fe-c977bf4bae43">
      <path class="uuid-4c0f8fc7-7f4a-48dc-ac9e-2bee40c352be" d="m68.76,182.07h24.64l17.46,71.89h.11l17.46-71.89h24.64v96.43h-16.07v-68.89l-16.71,68.89h-18.75l-16.71-68.89v68.89h-16.07v-96.43Z"/>
      <path class="uuid-4c0f8fc7-7f4a-48dc-ac9e-2bee40c352be" d="m167.44,206.18h29.46c3,0,5.53,1.04,7.61,3.11,2.07,2.07,3.11,4.61,3.11,7.61v50.89c0,3-1.04,5.54-3.11,7.61-2.07,2.07-4.61,3.11-7.61,3.11h-29.46c-3,0-5.54-1.03-7.61-3.11-2.07-2.07-3.11-4.61-3.11-7.61v-50.89c0-3,1.03-5.53,3.11-7.61,2.07-2.07,4.61-3.11,7.61-3.11Zm21.43,14.79h-13.39c-1.79,0-2.68.89-2.68,2.68v37.39c0,1.79.89,2.68,2.68,2.68h13.39c1.78,0,2.68-.89,2.68-2.68v-37.39c0-1.78-.89-2.68-2.68-2.68Z"/>
      <path class="uuid-4c0f8fc7-7f4a-48dc-ac9e-2bee40c352be" d="m207.19,206.18h16.5l11.57,52.61,11.68-52.61h16.5l-15.96,72.32h-24.32l-15.96-72.32Z"/>
      <path class="uuid-4c0f8fc7-7f4a-48dc-ac9e-2bee40c352be" d="m273.83,206.18h29.46c3,0,5.53,1.04,7.61,3.11,2.07,2.07,3.11,4.61,3.11,7.61v22.18c0,3-1.04,5.54-3.11,7.61s-4.61,3.11-7.61,3.11h-24.11v11.25c0,1.79.89,2.68,2.68,2.68h32.14v14.79h-40.18c-3,0-5.54-1.03-7.61-3.11-2.07-2.07-3.11-4.61-3.11-7.61v-50.89c0-3,1.03-5.53,3.11-7.61,2.07-2.07,4.61-3.11,7.61-3.11Zm21.43,14.79h-13.39c-1.79,0-2.68.89-2.68,2.68v11.25h16.07c1.78,0,2.68-.89,2.68-2.68v-8.57c0-1.78-.89-2.68-2.68-2.68Z"/>
      <path class="uuid-4c0f8fc7-7f4a-48dc-ac9e-2bee40c352be" d="m317.65,206.18h13.93l1.5,4.82h.11c.43-1.36,1.34-2.5,2.73-3.43,1.39-.93,2.87-1.39,4.45-1.39h9.43c2.29,0,4.12.61,5.52,1.82,1.39,1.22,2.23,2.86,2.52,4.93.28-2.07,1.12-3.71,2.52-4.93,1.39-1.21,3.23-1.82,5.52-1.82h21.43c3,0,5.53,1.04,7.61,3.11,2.07,2.07,3.11,4.61,3.11,7.61v61.61h-16.07v-54.86c0-1.78-.89-2.68-2.68-2.68h-10.71c-1.79,0-2.68.89-2.68,2.68v54.86h-16.07v-54.86c0-1.78-.89-2.68-2.68-2.68h-10.71c-1.79,0-2.68.89-2.68,2.68v54.86h-16.07v-72.32Z"/>
      <path class="uuid-4c0f8fc7-7f4a-48dc-ac9e-2bee40c352be" d="m412.36,206.18h29.46c3,0,5.53,1.04,7.61,3.11,2.07,2.07,3.11,4.61,3.11,7.61v22.18c0,3-1.04,5.54-3.11,7.61s-4.61,3.11-7.61,3.11h-24.11v11.25c0,1.79.89,2.68,2.68,2.68h32.14v14.79h-40.18c-3,0-5.54-1.03-7.61-3.11-2.07-2.07-3.11-4.61-3.11-7.61v-50.89c0-3,1.03-5.53,3.11-7.61,2.07-2.07,4.61-3.11,7.61-3.11Zm21.43,14.79h-13.39c-1.79,0-2.68.89-2.68,2.68v11.25h16.07c1.78,0,2.68-.89,2.68-2.68v-8.57c0-1.78-.89-2.68-2.68-2.68Z"/>
      <path class="uuid-4c0f8fc7-7f4a-48dc-ac9e-2bee40c352be" d="m456.19,206.18h13.93l1.5,4.82h.11c.43-1.36,1.34-2.5,2.73-3.43,1.39-.93,2.87-1.39,4.45-1.39h17.46c3,0,5.53,1.04,7.61,3.11,2.07,2.07,3.11,4.61,3.11,7.61v61.61h-16.07v-54.86c0-1.78-.89-2.68-2.68-2.68h-13.39c-1.79,0-2.68.89-2.68,2.68v54.86h-16.07v-72.32Z"/>
      <path class="uuid-4c0f8fc7-7f4a-48dc-ac9e-2bee40c352be" d="m518.86,196.11l16.07-6v16.07h16.07v14.79h-16.07v40.07c0,1.79.89,2.68,2.68,2.68h13.39v14.79h-21.43c-3,0-5.54-1.03-7.61-3.11-2.07-2.07-3.11-4.61-3.11-7.61v-46.82h-8.14v-14.79h8.14v-10.07Z"/>
    </g>
  </g>
  <path id="uuid-f5b3909b-ad01-45dc-9897-d0cb8865c7b3" data-name="Path 3292" class="uuid-c505d4ae-4c64-4040-8bf0-0444b2c85d67" d="m1819.5,114.43l-37.35,66.12,30.1-7.43-27.05,60.02,72.02-80.41-37.73,6.86,30.87-45.73-30.87.57Z"/>
</svg>