<?xml version="1.0" encoding="UTF-8"?>
<svg id="uuid-54d7b7ae-347d-47da-9f63-803b18934c32" data-name="Layer 1" xmlns="http://www.w3.org/2000/svg" xmlns:xlink="http://www.w3.org/1999/xlink" viewBox="0 0 620.21 1593">
  <defs>
    <style>
      .uuid-83c06d94-a226-40bd-9bdd-2fef0ea9969c {
        isolation: isolate;
      }

      .uuid-c204bcbd-fe2b-4205-b916-fc3030c98adb {
        fill: #f4f4f4;
        stroke-width: 0px;
      }
    </style>
  </defs>
  <image width="628" height="1613" transform="translate(1.17 3) scale(.98)" xlink:href="https://mylgcontent.s3.us-west-1.amazonaws.com/17-Jack+Masai/03.png"/>
  <g id="uuid-5e14752d-36df-4134-8454-928ea74b7274" data-name="STRIKE BE FIT GRASP." class="uuid-83c06d94-a226-40bd-9bdd-2fef0ea9969c">
    <g class="uuid-83c06d94-a226-40bd-9bdd-2fef0ea9969c">
      <path class="uuid-c204bcbd-fe2b-4205-b916-fc3030c98adb" d="m91.4,481.39h62.25v24.54h-48.91c-2.97,0-4.45,1.48-4.45,4.45v34.33c0,2.96,1.48,4.45,4.45,4.45h35.57c4.98,0,9.19,1.72,12.63,5.16,3.44,3.44,5.16,7.65,5.16,12.63v56.74c0,4.98-1.72,9.19-5.16,12.63s-7.65,5.16-12.63,5.16h-66.7v-24.54h53.18c1.3,0,2.4-.41,3.29-1.25.89-.83,1.33-1.9,1.33-3.2v-34.33c0-2.96-1.48-4.45-4.45-4.45h-35.57c-4.98,0-9.19-1.72-12.63-5.16-3.44-3.44-5.16-7.65-5.16-12.63v-56.74c0-4.98,1.72-9.19,5.16-12.63,3.44-3.44,7.65-5.16,12.63-5.16Z"/>
      <path class="uuid-c204bcbd-fe2b-4205-b916-fc3030c98adb" d="m164.15,481.39h80.04v24.54h-26.68v135.53h-26.68v-135.53h-26.68v-24.54Z"/>
      <path class="uuid-c204bcbd-fe2b-4205-b916-fc3030c98adb" d="m250.23,481.39h71.14c4.86,0,9.04,1.75,12.54,5.25,3.5,3.5,5.25,7.68,5.25,12.54v56.74c0,4.98-1.72,9.19-5.16,12.63s-7.65,5.16-12.63,5.16h-9.78l32.01,67.76h-29.52l-32.19-67.76h-4.98v67.76h-26.68v-160.07Zm57.8,24.54h-31.12v43.22h31.12c2.96,0,4.45-1.48,4.45-4.45v-34.33c0-2.96-1.48-4.45-4.45-4.45Z"/>
      <path class="uuid-c204bcbd-fe2b-4205-b916-fc3030c98adb" d="m351.78,481.39h26.68v160.07h-26.68v-160.07Z"/>
      <path class="uuid-c204bcbd-fe2b-4205-b916-fc3030c98adb" d="m391.27,481.39h26.68v67.76h4.98l32.19-67.76h29.52l-37.88,80.04,37.88,80.04h-29.52l-32.19-67.76h-4.98v67.76h-26.68v-160.07Z"/>
      <path class="uuid-c204bcbd-fe2b-4205-b916-fc3030c98adb" d="m484.11,481.39h75.59v24.54h-48.91v43.22h44.46v24.54h-44.46v43.22h53.36v24.54h-80.04v-160.07Z"/>
    </g>
    <g class="uuid-83c06d94-a226-40bd-9bdd-2fef0ea9969c">
      <path class="uuid-c204bcbd-fe2b-4205-b916-fc3030c98adb" d="m73.62,713.39h70.08c4.98,0,9.19,1.72,12.63,5.16,3.44,3.44,5.16,7.65,5.16,12.63v48.91c0,3.44-1.22,6.4-3.65,8.89-2.43,2.49-5.6,3.97-9.52,4.45,3.91.48,7.26,1.99,10.05,4.54,2.79,2.55,4.18,5.49,4.18,8.8v48.91c0,4.98-1.72,9.19-5.16,12.63s-7.65,5.16-12.63,5.16h-71.14v-160.07Zm56.74,24.54h-30.06v43.22h30.06c2.96,0,4.45-1.48,4.45-4.45v-34.33c0-2.96-1.48-4.45-4.45-4.45Zm1.07,67.76h-31.12v43.22h31.12c2.96,0,4.45-1.48,4.45-4.45v-34.33c0-2.96-1.48-4.45-4.45-4.45Z"/>
      <path class="uuid-c204bcbd-fe2b-4205-b916-fc3030c98adb" d="m168.59,713.39h75.59v24.54h-48.91v43.22h44.46v24.54h-44.46v43.22h53.36v24.54h-80.04v-160.07Z"/>
      <path class="uuid-c204bcbd-fe2b-4205-b916-fc3030c98adb" d="m300.56,713.39h80.04v24.54h-53.36v43.22h48.91v24.54h-48.91v67.76h-26.68v-160.07Z"/>
      <path class="uuid-c204bcbd-fe2b-4205-b916-fc3030c98adb" d="m397.66,713.39h26.68v160.07h-26.68v-160.07Z"/>
      <path class="uuid-c204bcbd-fe2b-4205-b916-fc3030c98adb" d="m437.15,713.39h80.04v24.54h-26.68v135.53h-26.68v-135.53h-26.68v-24.54Z"/>
    </g>
    <g class="uuid-83c06d94-a226-40bd-9bdd-2fef0ea9969c">
      <path class="uuid-c204bcbd-fe2b-4205-b916-fc3030c98adb" d="m91.4,945.39h66.7v24.54h-53.36c-2.97,0-4.45,1.48-4.45,4.45v102.09c0,2.96,1.48,4.45,4.45,4.45h26.68c2.96,0,4.45-1.48,4.45-4.45v-38.77h-17.79v-24.54h44.46v92.31h-23.12l-2.49-8h-.18c-.71,2.25-2.22,4.15-4.54,5.69-2.31,1.54-4.77,2.31-7.38,2.31h-33.44c-4.98,0-9.19-1.72-12.63-5.16-3.44-3.44-5.16-7.65-5.16-12.63v-124.5c0-4.98,1.72-9.19,5.16-12.63,3.44-3.44,7.65-5.16,12.63-5.16Z"/>
      <path class="uuid-c204bcbd-fe2b-4205-b916-fc3030c98adb" d="m168.59,945.39h71.14c4.86,0,9.04,1.75,12.54,5.25,3.5,3.5,5.25,7.68,5.25,12.54v56.74c0,4.98-1.72,9.19-5.16,12.63s-7.65,5.16-12.63,5.16h-9.78l32.01,67.76h-29.52l-32.19-67.76h-4.98v67.76h-26.68v-160.07Zm57.8,24.54h-31.12v43.22h31.12c2.96,0,4.45-1.48,4.45-4.45v-34.33c0-2.96-1.48-4.45-4.45-4.45Z"/>
      <path class="uuid-c204bcbd-fe2b-4205-b916-fc3030c98adb" d="m295.58,945.39h33.44l38.95,160.07h-27.39l-8.71-35.57h-38.95l-8.71,35.57h-27.39l38.77-160.07Zm16.72,43.58l-13.52,56.38h27.21l-13.52-56.38h-.18Z"/>
      <path class="uuid-c204bcbd-fe2b-4205-b916-fc3030c98adb" d="m385.22,945.39h62.25v24.54h-48.91c-2.97,0-4.45,1.48-4.45,4.45v34.33c0,2.96,1.48,4.45,4.45,4.45h35.57c4.98,0,9.19,1.72,12.63,5.16,3.44,3.44,5.16,7.65,5.16,12.63v56.74c0,4.98-1.72,9.19-5.16,12.63s-7.65,5.16-12.63,5.16h-66.7v-24.54h53.18c1.3,0,2.4-.41,3.29-1.25.89-.83,1.33-1.9,1.33-3.2v-34.33c0-2.96-1.48-4.45-4.45-4.45h-35.57c-4.98,0-9.19-1.72-12.63-5.16-3.44-3.44-5.16-7.65-5.16-12.63v-56.74c0-4.98,1.72-9.19,5.16-12.63,3.44-3.44,7.65-5.16,12.63-5.16Z"/>
      <path class="uuid-c204bcbd-fe2b-4205-b916-fc3030c98adb" d="m457.96,945.39h71.14c4.98,0,9.19,1.72,12.63,5.16,3.44,3.44,5.16,7.65,5.16,12.63v66.7c0,4.98-1.72,9.19-5.16,12.63s-7.65,5.16-12.63,5.16h-44.46v57.8h-26.68v-160.07Zm57.8,24.54h-31.12v53.18h31.12c2.96,0,4.45-1.48,4.45-4.45v-44.29c0-2.96-1.48-4.45-4.45-4.45Z"/>
      <path class="uuid-c204bcbd-fe2b-4205-b916-fc3030c98adb" d="m559.52,1078.78h26.68v26.68h-26.68v-26.68Z"/>
    </g>
  </g>
</svg>