<?xml version="1.0" encoding="UTF-8"?>
<svg id="uuid-363019fe-2dc7-4859-a64f-f9de43764e8c" data-name="Layer 1" xmlns="http://www.w3.org/2000/svg" viewBox="0 0 1920 320">
  <defs>
    <style>
      .uuid-adc92713-0332-410a-9ac2-15e160774a3a {
        isolation: isolate;
      }

      .uuid-4b6a0b6c-74ff-4056-bf37-fdd611d7d3f2 {
        fill: #f4f4f4;
        stroke-width: 0px;
      }
    </style>
  </defs>
  <g id="uuid-7c14a726-af76-4966-99af-8c2cef1674f6" data-name="The Magic " class="uuid-adc92713-0332-410a-9ac2-15e160774a3a">
    <g class="uuid-adc92713-0332-410a-9ac2-15e160774a3a">
      <path class="uuid-4b6a0b6c-74ff-4056-bf37-fdd611d7d3f2" d="m45,45.07h48.21v14.79h-16.07v81.64h-16.07V59.86h-16.07v-14.79Z"/>
      <path class="uuid-4b6a0b6c-74ff-4056-bf37-fdd611d7d3f2" d="m96.85,45.07h16.07v29.46c.28-1.57,1.16-2.86,2.62-3.86,1.46-1,3.02-1.5,4.66-1.5h16.82c3,0,5.53,1.04,7.61,3.11,2.07,2.07,3.11,4.61,3.11,7.61v61.61h-16.07v-54.86c0-1.78-.89-2.68-2.68-2.68h-13.39c-1.79,0-2.68.89-2.68,2.68v54.86h-16.07V45.07Z"/>
      <path class="uuid-4b6a0b6c-74ff-4056-bf37-fdd611d7d3f2" d="m162.1,69.18h29.46c3,0,5.53,1.04,7.61,3.11,2.07,2.07,3.11,4.61,3.11,7.61v22.18c0,3-1.04,5.54-3.11,7.61s-4.61,3.11-7.61,3.11h-24.11v11.25c0,1.79.89,2.68,2.68,2.68h32.14v14.79h-40.18c-3,0-5.54-1.03-7.61-3.11-2.07-2.07-3.11-4.61-3.11-7.61v-50.89c0-3,1.03-5.53,3.11-7.61,2.07-2.07,4.61-3.11,7.61-3.11Zm21.43,14.79h-13.39c-1.79,0-2.68.89-2.68,2.68v11.25h16.07c1.79,0,2.68-.89,2.68-2.68v-8.57c0-1.78-.89-2.68-2.68-2.68Z"/>
    </g>
    <g class="uuid-adc92713-0332-410a-9ac2-15e160774a3a">
      <path class="uuid-4b6a0b6c-74ff-4056-bf37-fdd611d7d3f2" d="m45,165.07h24.64l17.46,71.89h.11l17.46-71.89h24.64v96.43h-16.07v-68.89l-16.71,68.89h-18.75l-16.71-68.89v68.89h-16.07v-96.43Z"/>
      <path class="uuid-4b6a0b6c-74ff-4056-bf37-fdd611d7d3f2" d="m135.64,189.18h37.5c3,0,5.53,1.04,7.61,3.11,2.07,2.07,3.11,4.61,3.11,7.61v61.61h-13.93l-1.5-4.82h-.11c-.43,1.36-1.34,2.5-2.73,3.43-1.39.93-2.88,1.39-4.45,1.39h-17.46c-3,0-5.54-1.03-7.61-3.11-2.07-2.07-3.11-4.61-3.11-7.61v-22.18c0-3,1.03-5.54,3.11-7.61,2.07-2.07,4.61-3.11,7.61-3.11h24.11v-11.25c0-1.78-.89-2.68-2.68-2.68h-29.46v-14.79Zm32.14,43.61h-16.07c-1.79,0-2.68.89-2.68,2.68v8.57c0,1.79.89,2.68,2.68,2.68h13.39c1.79,0,2.68-.89,2.68-2.68v-11.25Z"/>
      <path class="uuid-4b6a0b6c-74ff-4056-bf37-fdd611d7d3f2" d="m198.21,189.18h17.46c1.57,0,3.05.46,4.45,1.39,1.39.93,2.3,2.07,2.73,3.43h.11l1.5-4.82h13.93v85.71c0,3-1.04,5.54-3.11,7.61-2.07,2.07-4.61,3.11-7.61,3.11h-40.18v-14.68h32.14c1.79,0,2.68-.89,2.68-2.68v-12.11c-.29,1.57-1.16,2.86-2.62,3.86-1.46,1-3.02,1.5-4.66,1.5h-16.82c-3,0-5.54-1.03-7.61-3.11-2.07-2.07-3.11-4.61-3.11-7.61v-50.89c0-3,1.03-5.53,3.11-7.61,2.07-2.07,4.61-3.11,7.61-3.11Zm21.43,14.79h-13.39c-1.79,0-2.68.89-2.68,2.68v37.39c0,1.79.89,2.68,2.68,2.68h13.39c1.79,0,2.68-.89,2.68-2.68v-37.39c0-1.78-.89-2.68-2.68-2.68Z"/>
      <path class="uuid-4b6a0b6c-74ff-4056-bf37-fdd611d7d3f2" d="m246,165.07h16.07v16.07h-16.07v-16.07Zm0,24.11h16.07v72.32h-16.07v-72.32Z"/>
      <path class="uuid-4b6a0b6c-74ff-4056-bf37-fdd611d7d3f2" d="m280.5,189.18h32.14v14.79h-24.11c-1.79,0-2.68.89-2.68,2.68v37.39c0,1.79.89,2.68,2.68,2.68h26.79v14.79h-34.82c-3,0-5.54-1.03-7.61-3.11-2.07-2.07-3.11-4.61-3.11-7.61v-50.89c0-3,1.03-5.53,3.11-7.61,2.07-2.07,4.61-3.11,7.61-3.11Z"/>
    </g>
  </g>
</svg>