<?xml version="1.0" encoding="UTF-8"?>
<svg id="uuid-b63e1b17-2adc-4ff1-b240-841aec0d0059" data-name="Layer 1" xmlns="http://www.w3.org/2000/svg" viewBox="0 0 1923 325.02">
  <defs>
    <style>
      .uuid-4c6f2711-98b4-4c22-ad9e-cb232739fa40 {
        fill: #fff;
        stroke-width: 0px;
      }
                      .st0{fill:#FFFFFF;}
	.st1{fill:#FFFFFF;}
	.st2{fill:#FFFFFF;}
    </style>
  </defs>
  <g>
    <polygon class="st2" points="558.57 208.78 540.69 208.78 595.89 116.24 613.77 116.24 558.57 208.78"/>
    <polygon class="st2" points="606.68 208.78 588.8 208.78 644 116.24 661.88 116.24 606.68 208.78"/>
    <polygon class="st2" points="654.78 208.78 636.91 208.78 692.11 116.24 709.99 116.24 654.78 208.78"/>
    <polygon class="st2" points="702.89 208.78 685.01 208.78 740.22 116.24 758.09 116.24 702.89 208.78"/>
    <polygon class="st2" points="751 208.78 733.12 208.78 788.32 116.24 806.2 116.24 751 208.78"/>
    <polygon class="st2" points="799.11 208.78 781.23 208.78 836.43 116.24 854.31 116.24 799.11 208.78"/>
  </g>
  <polygon class="uuid-4c6f2711-98b4-4c22-ad9e-cb232739fa40" points="43 6.5 43 13 14.68 13 14.68 41.32 8.18 41.32 8.18 6.5 43 6.5"/>
  <polygon class="uuid-4c6f2711-98b4-4c22-ad9e-cb232739fa40" points="1881.65 7.5 1881.65 14 1909.97 14 1909.97 42.32 1916.47 42.32 1916.47 7.5 1881.65 7.5"/>
  <polygon class="uuid-4c6f2711-98b4-4c22-ad9e-cb232739fa40" points="42.33 319.44 42.33 312.95 14.01 312.95 14.01 284.62 7.51 284.62 7.51 319.44 42.33 319.44"/>
  <polygon class="uuid-4c6f2711-98b4-4c22-ad9e-cb232739fa40" points="1881.65 318.44 1881.65 311.95 1909.97 311.95 1909.97 283.62 1916.47 283.62 1916.47 318.44 1881.65 318.44"/>
  <g>
    <rect class="uuid-4c6f2711-98b4-4c22-ad9e-cb232739fa40" x="1680.87" y="73.09" width="2.15" height="50.44"/>
    <rect class="uuid-4c6f2711-98b4-4c22-ad9e-cb232739fa40" x="1685.17" y="73.09" width="2.15" height="50.44"/>
    <rect class="uuid-4c6f2711-98b4-4c22-ad9e-cb232739fa40" x="1689.48" y="73.09" width="4.3" height="50.44"/>
    <rect class="uuid-4c6f2711-98b4-4c22-ad9e-cb232739fa40" x="1700.23" y="73.09" width="2.15" height="50.44"/>
    <rect class="uuid-4c6f2711-98b4-4c22-ad9e-cb232739fa40" x="1704.53" y="73.09" width="2.15" height="50.44"/>
    <rect class="uuid-4c6f2711-98b4-4c22-ad9e-cb232739fa40" x="1715.28" y="73.09" width="2.15" height="50.44"/>
    <rect class="uuid-4c6f2711-98b4-4c22-ad9e-cb232739fa40" x="1719.58" y="73.09" width="8.6" height="50.44"/>
    <rect class="uuid-4c6f2711-98b4-4c22-ad9e-cb232739fa40" x="1730.34" y="73.09" width="2.15" height="50.44"/>
    <rect class="uuid-4c6f2711-98b4-4c22-ad9e-cb232739fa40" x="1734.64" y="73.09" width="2.15" height="50.44"/>
    <rect class="uuid-4c6f2711-98b4-4c22-ad9e-cb232739fa40" x="1743.24" y="73.09" width="4.3" height="50.44"/>
    <rect class="uuid-4c6f2711-98b4-4c22-ad9e-cb232739fa40" x="1749.69" y="73.09" width="6.45" height="50.44"/>
    <rect class="uuid-4c6f2711-98b4-4c22-ad9e-cb232739fa40" x="1760.44" y="73.09" width="2.15" height="50.44"/>
    <rect class="uuid-4c6f2711-98b4-4c22-ad9e-cb232739fa40" x="1764.74" y="73.09" width="2.15" height="50.44"/>
    <rect class="uuid-4c6f2711-98b4-4c22-ad9e-cb232739fa40" x="1775.5" y="73.09" width="2.15" height="50.44"/>
    <rect class="uuid-4c6f2711-98b4-4c22-ad9e-cb232739fa40" x="1779.8" y="73.09" width="2.15" height="50.44"/>
    <rect class="uuid-4c6f2711-98b4-4c22-ad9e-cb232739fa40" x="1784.1" y="73.09" width="2.15" height="50.44"/>
    <rect class="uuid-4c6f2711-98b4-4c22-ad9e-cb232739fa40" x="1788.4" y="73.09" width="2.15" height="50.44"/>
    <rect class="uuid-4c6f2711-98b4-4c22-ad9e-cb232739fa40" x="1792.7" y="73.09" width="6.45" height="50.44"/>
    <rect class="uuid-4c6f2711-98b4-4c22-ad9e-cb232739fa40" x="1803.45" y="73.09" width="2.15" height="50.44"/>
    <rect class="uuid-4c6f2711-98b4-4c22-ad9e-cb232739fa40" x="1809.91" y="73.09" width="6.45" height="50.44"/>
    <rect class="uuid-4c6f2711-98b4-4c22-ad9e-cb232739fa40" x="1818.51" y="73.09" width="4.3" height="50.44"/>
    <rect class="uuid-4c6f2711-98b4-4c22-ad9e-cb232739fa40" x="1824.96" y="73.09" width="4.3" height="50.44"/>
    <rect class="uuid-4c6f2711-98b4-4c22-ad9e-cb232739fa40" x="1833.56" y="73.09" width="2.15" height="50.44"/>
    <rect class="uuid-4c6f2711-98b4-4c22-ad9e-cb232739fa40" x="1840.01" y="73.09" width="6.45" height="50.44"/>
    <rect class="uuid-4c6f2711-98b4-4c22-ad9e-cb232739fa40" x="1848.62" y="73.09" width="2.15" height="50.44"/>
    <rect class="uuid-4c6f2711-98b4-4c22-ad9e-cb232739fa40" x="1859.37" y="73.09" width="2.15" height="50.44"/>
    <rect class="uuid-4c6f2711-98b4-4c22-ad9e-cb232739fa40" x="1863.67" y="73.09" width="6.45" height="50.44"/>
    <rect class="uuid-4c6f2711-98b4-4c22-ad9e-cb232739fa40" x="1874.42" y="73.09" width="2.15" height="50.44"/>
    <rect class="uuid-4c6f2711-98b4-4c22-ad9e-cb232739fa40" x="1878.72" y="73.09" width="2.15" height="50.44"/>
    <rect class="uuid-4c6f2711-98b4-4c22-ad9e-cb232739fa40" x="1883.03" y="73.09" width="2.15" height="50.44"/>
  </g>
  <g>
    <path class="st1" d="m67.14,134.88c0,1.29.18,2.42.54,3.38.65,1.48,1.76,2.47,3.31,2.96,1.48.52,2.99.78,4.54.78,1.43.05,2.91-.26,4.43-.91,1.5-.68,2.28-1.93,2.33-3.76.05-1.29-.68-2.32-2.18-3.09-1.57-.73-4.55-1.66-8.93-2.81-2.06-.56-4.08-1.18-6.05-1.86-2.06-.68-3.92-1.55-5.59-2.6-1.69-1.05-3.06-2.45-4.11-4.18-1.1-1.62-1.65-3.7-1.65-6.26.09-5.95,2.18-10.29,6.26-13.01,3.9-2.65,8.51-3.97,13.82-3.97,5.56-.05,10.35,1.15,14.37,3.58,3.9,2.6,6.04,6.98,6.4,13.15h-14.52c.18-1.91-.42-3.27-1.81-4.09-1.36-.84-2.87-1.26-4.53-1.26-1.14,0-2.31.21-3.51.63-.55.23-1.01.57-1.4,1.02-.41.47-.61,1.07-.61,1.79.09.87.58,1.58,1.47,2.14.84.63,1.93,1.18,3.27,1.65,2.84.87,6.08,1.76,9.71,2.67,1.93.49,3.78,1.09,5.55,1.79,1.74.68,3.32,1.59,4.75,2.74,1.45,1.15,2.6,2.54,3.44,4.18.77,1.73,1.16,3.77,1.16,6.12-.14,6.59-2.6,11.19-7.4,13.82-4.72,2.65-10.07,3.95-16.04,3.9-1.48,0-3.43-.22-5.83-.67-2.43-.42-4.9-1.25-7.4-2.5-2.48-1.27-4.57-3.14-6.28-5.63-1.74-2.39-2.67-5.63-2.81-9.71h15.28Z"/>
    <path class="st1" d="m114.64,113.89h-13.94v-13.15h43.22v13.15h-13.96v38.25h-15.32v-38.25Z"/>
    <path class="st1" d="m150.1,100.75h29.85c4.59,0,8.49,1.22,11.69,3.66,3.18,2.46,4.81,6.14,4.9,11.04,0,2.72-.6,5.29-1.79,7.7-1.31,2.34-3.28,4.07-5.91,5.17,4.41,1.88,6.93,6.15,7.56,12.83.09.61.16,1.39.21,2.36.09.96.16,1.99.2,3.09.18,2.32.6,4.17,1.26,5.55h-15.35c-.68-2.61-1.09-5.25-1.23-7.93-.05-1.27-.18-2.52-.4-3.77-.19-1.15-.53-2.21-1.02-3.17-.46-.96-1.16-1.73-2.1-2.29-.94-.54-2.23-.81-3.85-.81h-8.71v17.96h-15.33v-51.4Zm15.33,22.46h8.58c1.67.05,3.26-.25,4.77-.88,1.58-.61,2.39-2.03,2.44-4.25,0-1.67-.55-2.93-1.64-3.8-1.24-.87-3.39-1.3-6.47-1.3h-7.67v10.23Z"/>
    <path class="st1" d="m204.43,100.75h15.32v51.4h-15.32v-51.4Z"/>
    <path class="st1" d="m228.82,100.75h15.32v17.72h.14l13.66-17.72h18.91l-18.06,20.04,20.98,31.36h-19.11l-12.3-20-4.22,4.82v15.19h-15.32v-51.4Z"/>
    <path class="st1" d="m284.41,100.75h41.19v13.15h-25.87v6.44h23.49v12.23h-23.49v6.44h26.65v13.14h-41.98v-51.4Z"/>
    <path class="st1" d="m54.98,172.75h38.47v13.15h-23.15v6.44h19.87v12.23h-19.87v19.58h-15.32v-51.4Z"/>
    <path class="st1" d="m100.33,172.75h15.32v51.4h-15.32v-51.4Z"/>
    <path class="st1" d="m135.94,185.89h-13.94v-13.15h43.22v13.15h-13.96v38.25h-15.32v-38.25Z"/>
  </g>
  <g>
    <path class="uuid-4c6f2711-98b4-4c22-ad9e-cb232739fa40" d="m1536.31,156.7c0,.83.12,1.54.35,2.16.42.95,1.12,1.58,2.11,1.89.94.33,1.91.49,2.9.49.91.03,1.86-.16,2.83-.58.96-.43,1.45-1.24,1.49-2.4.03-.82-.43-1.48-1.39-1.98-1-.46-2.9-1.06-5.7-1.8-1.32-.36-2.61-.76-3.86-1.19-1.32-.43-2.51-.99-3.57-1.66-1.08-.67-1.95-1.57-2.63-2.67-.7-1.03-1.06-2.37-1.06-4,.06-3.8,1.39-6.57,4-8.31,2.49-1.69,5.44-2.54,8.83-2.54,3.55-.03,6.61.73,9.18,2.29,2.49,1.66,3.86,4.46,4.09,8.4h-9.28c.12-1.22-.27-2.09-1.15-2.61-.87-.54-1.84-.8-2.9-.8-.73,0-1.47.13-2.24.4-.35.15-.65.37-.89.65-.26.3-.39.68-.39,1.15.06.55.37,1.01.94,1.37.54.4,1.23.76,2.09,1.06,1.81.55,3.88,1.12,6.21,1.71,1.24.31,2.42.7,3.54,1.15,1.11.43,2.12,1.02,3.03,1.75.93.73,1.66,1.62,2.2,2.67.49,1.11.74,2.41.74,3.91-.09,4.21-1.66,7.15-4.72,8.83-3.02,1.69-6.43,2.52-10.25,2.49-.95,0-2.19-.14-3.73-.43-1.55-.27-3.13-.8-4.72-1.6-1.58-.81-2.92-2.01-4.01-3.59-1.11-1.53-1.71-3.6-1.8-6.2h9.76Z"/>
    <path class="uuid-4c6f2711-98b4-4c22-ad9e-cb232739fa40" d="m1569.68,143.86h4.73v5.61h-4.73v8.35c-.03,1.1.15,1.89.54,2.39.38.53,1.11.79,2.18.79.68,0,1.35-.04,2.01-.13v6.87c-1.84.06-3.72.15-5.65.27-.96,0-1.88-.07-2.76-.22-.91-.18-1.76-.48-2.54-.92-.77-.49-1.38-1.21-1.82-2.15-.51-.96-.76-2.22-.76-3.81v-11.44h-3.94v-5.61h3.94v-7.25h8.8v7.25Z"/>
    <path class="uuid-4c6f2711-98b4-4c22-ad9e-cb232739fa40" d="m1577.8,143.86h8.46v3.82h.09c.71-1.44,1.59-2.54,2.63-3.3,1-.73,2.29-1.1,3.87-1.1.88,0,1.75.12,2.59.36v8.04c-.42-.18-.89-.33-1.39-.45-.51-.09-1.2-.13-2.09-.13-3.54-.06-5.33,2.34-5.35,7.21v9.43h-8.8v-23.88Z"/>
    <path class="uuid-4c6f2711-98b4-4c22-ad9e-cb232739fa40" d="m1607.19,141.27h-8.8v-6.38h8.8v6.38Zm-8.8,2.58h8.8v23.88h-8.8v-23.88Z"/>
    <path class="uuid-4c6f2711-98b4-4c22-ad9e-cb232739fa40" d="m1612.88,134.9h8.8v15.85l5.61-6.89h9.99l-8.25,9.03,9.53,14.85h-10.6l-4.72-8.62-1.57,1.75v6.88h-8.8v-32.84Z"/>
    <path class="uuid-4c6f2711-98b4-4c22-ad9e-cb232739fa40" d="m1647.67,157.85c.15,1.35.61,2.45,1.37,3.3.73.9,1.82,1.35,3.26,1.35.78,0,1.52-.16,2.23-.47.7-.27,1.24-.68,1.6-1.24h8.52c-.96,2.58-2.54,4.48-4.73,5.7-2.18,1.23-4.65,1.84-7.42,1.84-3.85-.03-6.99-1.12-9.4-3.28-2.52-2.14-3.79-5.2-3.82-9.19.03-3.59,1.18-6.59,3.44-8.98,2.25-2.35,5.26-3.56,9.02-3.62,9.03.12,13.5,4.98,13.42,14.58h-17.47Zm9.03-4.72c-.03-1.14-.41-2.1-1.14-2.87-.74-.77-1.74-1.15-3-1.15-2.8.03-4.42,1.37-4.85,4.02h8.99Z"/>
    <path class="uuid-4c6f2711-98b4-4c22-ad9e-cb232739fa40" d="m1527.91,172.9h17.77c2.13,0,3.89.26,5.29.79,1.33.51,2.38,1.18,3.13,2.02.76.82,1.29,1.71,1.6,2.67.24.94.36,1.86.36,2.74,0,1.63-.35,2.93-1.06,3.91-.73,1.02-1.73,1.86-2.99,2.54,1.54.49,2.86,1.37,3.95,2.63,1.14,1.29,1.72,3.14,1.75,5.57-.06,3.28-1.23,5.74-3.51,7.39-2.24,1.72-4.86,2.58-7.87,2.58h-18.43v-32.84Zm9.79,12.8h5.54c1.1,0,1.97-.2,2.61-.59.64-.41.95-1.12.95-2.14,0-.83-.32-1.43-.95-1.81-.64-.3-1.5-.45-2.61-.45h-5.54v4.99Zm0,12.22h6.12c1.14,0,2.11-.22,2.9-.65.76-.42,1.16-1.24,1.21-2.47,0-1.96-1.22-2.96-3.66-2.99h-6.56v6.11Z"/>
    <path class="uuid-4c6f2711-98b4-4c22-ad9e-cb232739fa40" d="m1569.35,195.85c.15,1.35.61,2.45,1.37,3.3.73.9,1.82,1.35,3.26,1.35.78,0,1.52-.16,2.23-.47.7-.27,1.24-.68,1.6-1.24h8.52c-.96,2.58-2.54,4.48-4.73,5.7-2.18,1.23-4.65,1.84-7.42,1.84-3.85-.03-6.99-1.12-9.4-3.28-2.52-2.14-3.79-5.2-3.82-9.19.03-3.59,1.18-6.59,3.44-8.98,2.25-2.35,5.26-3.56,9.02-3.62,9.03.12,13.5,4.98,13.42,14.58h-17.47Zm9.03-4.72c-.03-1.14-.41-2.1-1.14-2.87-.74-.77-1.74-1.15-3-1.15-2.8.03-4.42,1.37-4.85,4.02h8.99Z"/>
    <path class="uuid-4c6f2711-98b4-4c22-ad9e-cb232739fa40" d="m1608.3,187.47h-3.62v-5.61h3.62c-.06-1.23.03-2.44.26-3.64.25-1.15.77-2.18,1.56-3.08.96-.97,2.04-1.6,3.26-1.89,1.21-.24,2.69-.36,4.43-.36,1.35.03,2.67.09,3.97.18v6.26c-.36-.07-.72-.16-1.08-.25-.38-.06-.75-.09-1.12-.09-1.09,0-1.84.19-2.25.56-.43.42-.62,1.18-.56,2.29h4.78v5.61h-4.45v18.26h-8.8v-18.26Z"/>
    <path class="uuid-4c6f2711-98b4-4c22-ad9e-cb232739fa40" d="m1633.7,179.27h-8.8v-6.38h8.8v6.38Zm-8.8,2.58h8.8v23.88h-8.8v-23.88Z"/>
    <path class="uuid-4c6f2711-98b4-4c22-ad9e-cb232739fa40" d="m1649.8,181.86h4.73v5.61h-4.73v8.35c-.03,1.1.15,1.89.54,2.39.38.53,1.11.79,2.18.79.68,0,1.35-.04,2.01-.13v6.87c-1.84.06-3.72.15-5.65.27-.96,0-1.88-.08-2.76-.22-.91-.18-1.76-.49-2.54-.92-.77-.49-1.38-1.21-1.82-2.15-.51-.95-.76-2.22-.76-3.8v-11.44h-3.94v-5.61h3.94v-7.25h8.8v7.25Z"/>
    <path class="uuid-4c6f2711-98b4-4c22-ad9e-cb232739fa40" d="m1551.84,240.4c-.54.67-1.13,1.26-1.79,1.77-.68.52-1.43.97-2.24,1.34-.74.3-1.54.54-2.39.74-.87.18-1.75.27-2.63.27-4.73-.06-8.43-1.71-11.1-4.96-2.7-3.16-4.06-7.13-4.09-11.93.09-6.21,1.81-10.71,5.16-13.48,3.23-2.73,6.75-4.07,10.53-4.04,8.22.12,13.11,4.21,14.64,12.27h-9.4c-.2-1.23-.72-2.23-1.54-3-.87-.71-1.9-1.07-3.09-1.1-1.62.03-2.89.4-3.79,1.1-.91.77-1.57,1.7-1.96,2.82-.39,1.07-.62,2.12-.67,3.18-.06,1.05-.09,1.88-.09,2.48,0,.78.11,1.64.33,2.59.2.96.56,1.88,1.07,2.77.54.89,1.26,1.62,2.18,2.21.96.62,2.16.92,3.61.92,1.19,0,2.27-.31,3.24-.92.96-.62,1.57-1.52,1.83-2.7h-4.31v-7.02h13.01v18.04h-6.2l-.3-3.33Z"/>
    <path class="uuid-4c6f2711-98b4-4c22-ad9e-cb232739fa40" d="m1564.19,219.86h8.46v3.82h.09c.71-1.44,1.59-2.54,2.63-3.3,1-.73,2.29-1.1,3.87-1.1.88,0,1.75.12,2.59.36v8.04c-.42-.18-.89-.33-1.39-.45-.51-.09-1.2-.13-2.09-.13-3.54-.06-5.33,2.34-5.35,7.21v9.43h-8.8v-23.88Z"/>
    <path class="uuid-4c6f2711-98b4-4c22-ad9e-cb232739fa40" d="m1607.65,238.41c0,.89.06,1.81.18,2.75.12.92.42,1.78.9,2.57h-9.28c-.24-.76-.34-1.51-.31-2.25h-.09c-.99,1.06-2.12,1.8-3.41,2.2-1.35.43-2.77.65-4.26.65-2.29,0-4.18-.58-5.68-1.75-1.61-1.2-2.42-3.02-2.45-5.47,0-1.87.49-3.32,1.48-4.35.94-1.05,2.12-1.8,3.53-2.27,1.48-.49,2.97-.83,4.47-1.01s2.83-.34,4-.49c.34-.1.67-.2.97-.29.28-.09.55-.2.79-.31.49-.3.74-.81.74-1.53-.03-.82-.34-1.4-.92-1.73-.59-.31-1.28-.47-2.07-.47-1.37.03-2.27.29-2.73.78-.46.55-.7,1.1-.7,1.65h-8.49c.12-1.69.55-3.06,1.29-4.11.73-1.03,1.67-1.81,2.82-2.33,1.17-.55,2.47-.94,3.91-1.15,1.39-.15,2.77-.22,4.13-.22,2.79,0,4.97.25,6.55.76,1.57.52,2.67,1.24,3.31,2.13.67.88,1.08,1.88,1.24,2.99.06,1.12.09,2.27.09,3.44v9.82Zm-8.45-5.38c-1.19.53-2.45.91-3.77,1.15-2.15.27-3.22,1.13-3.22,2.59,0,.59.29,1.09.87,1.51.53.46,1.24.7,2.12.7,1.11,0,2.05-.32,2.8-.97.74-.62,1.14-1.54,1.2-2.77v-2.21Z"/>
    <path class="uuid-4c6f2711-98b4-4c22-ad9e-cb232739fa40" d="m1626.53,226.82c-.06-.81-.4-1.41-1.02-1.81-.63-.47-1.35-.71-2.17-.71-.72,0-1.38.11-1.97.32-.66.26-.99.77-.99,1.53,0,.3.12.54.37.72.23.23.47.4.71.52.44.15.96.27,1.56.36.61.14,1.27.26,1.97.38,1.5.24,3.04.61,4.63,1.11,1.52.44,2.81,1.17,3.86,2.21.54.5.96,1.11,1.26,1.85.26.74.39,1.62.39,2.64,0,1.64-.35,2.99-1.04,4.03-.69,1.11-1.62,1.98-2.77,2.62-2.45,1.19-5.17,1.78-8.15,1.75-2.91,0-5.55-.64-7.91-1.93-2.35-1.28-3.63-3.44-3.86-6.47h8.67c.06.82.43,1.52,1.1,2.09.49.46,1.31.69,2.44.69.64,0,1.31-.14,2.02-.43.67-.27,1.02-.74,1.05-1.42s-.26-1.18-.88-1.53c-.67-.33-2.05-.67-4.13-1.01-3.43-.58-5.92-1.49-7.46-2.72-1.53-1.18-2.29-2.78-2.29-4.78,0-1.5.36-2.75,1.09-3.75.7-1.02,1.61-1.79,2.73-2.31,1.12-.58,2.34-.98,3.64-1.19,1.24-.21,2.46-.31,3.66-.31,2.71-.04,5.24.43,7.59,1.42,1.12.53,2.03,1.29,2.73,2.3.7.99,1.08,2.27,1.15,3.83h-8.01Z"/>
    <path class="uuid-4c6f2711-98b4-4c22-ad9e-cb232739fa40" d="m1638.55,219.86h8.51v2.63h.09c.29-.43.62-.83.98-1.19.35-.4.76-.74,1.24-1.01.96-.64,2.47-.98,4.55-1.01,1.67.03,3.13.4,4.37,1.1,1.19.73,2.18,1.71,2.98,2.94,1.58,2.58,2.37,5.44,2.37,8.6,0,1.41-.14,2.83-.41,4.27-.29,1.44-.81,2.77-1.57,4-1.45,2.67-4.08,4.05-7.88,4.16-2.77-.03-4.88-1.1-6.33-3.22h-.09v10.34h-8.8v-31.6Zm8.5,11.98c0,.67.06,1.37.19,2.07.12.71.33,1.34.63,1.89.59,1.26,1.7,1.91,3.34,1.94.86,0,1.57-.2,2.15-.61.54-.33.96-.77,1.24-1.33.51-1.2.77-2.52.77-3.96,0-1.52-.26-2.89-.77-4.12-.28-.55-.69-1-1.24-1.33-.58-.34-1.29-.52-2.15-.52-1.63.03-2.75.65-3.34,1.85-.29.56-.5,1.19-.63,1.89-.12.74-.19,1.48-.19,2.23Z"/>
  </g>
  <g>
    <path class="uuid-4c6f2711-98b4-4c22-ad9e-cb232739fa40" d="m1550.49,103.91h5.66v4.48h-5.66v10.5h-4.96v-10.5h-21.06v-4.78l20.65-26.73h5.37v27.02Zm-4.96,0v-20.53l-15.87,20.53h15.87Z"/>
    <path class="uuid-4c6f2711-98b4-4c22-ad9e-cb232739fa40" d="m1565.07,114.41h22.18v4.48h-27.73l.12-2.3c.24-3.46,1.02-6.43,2.36-8.91,1.34-2.48,3.6-4.64,6.79-6.49l5.31-3.07c2.67-1.57,4.57-3.11,5.69-4.6,1.12-1.49,1.68-3.3,1.68-5.43,0-2.32-.74-4.18-2.21-5.58-1.48-1.4-3.51-2.09-6.11-2.09-5.86,0-8.79,3.01-8.79,9.03h-4.9c-.04-4.29,1.16-7.61,3.6-9.97,2.44-2.36,5.84-3.54,10.21-3.54,3.97,0,7.2,1.12,9.68,3.36,2.48,2.32,3.72,5.25,3.72,8.79,0,5.43-3.19,9.99-9.56,13.69l-4.48,2.6c-2.6,1.57-4.46,3.1-5.61,4.57-1.14,1.47-1.79,3.29-1.95,5.46Z"/>
    <path class="uuid-4c6f2711-98b4-4c22-ad9e-cb232739fa40" d="m1606.78,91.52c4.4,0,7.91,1.34,10.5,4.01,2.56,2.68,3.83,6.06,3.83,10.15s-1.3,7.47-3.89,10.15c-2.68,2.68-6.2,4.01-10.56,4.01-3.66,0-6.75-.98-9.26-2.95-2.28-1.85-3.89-4.3-4.84-7.35-.94-3.05-1.42-6.87-1.42-11.48,0-6.96,1.35-12.39,4.04-16.28,2.69-3.89,6.56-5.84,11.59-5.84,3.66,0,6.71,1,9.15,3.01,2.44,2.01,3.97,4.78,4.6,8.32h-4.84c-.47-2.2-1.49-3.89-3.04-5.07s-3.51-1.77-5.87-1.77c-7,0-10.56,5.6-10.68,16.81,1.14-1.69,2.7-3.07,4.69-4.13,1.99-1.06,3.98-1.59,5.99-1.59Zm-6.84,21.12c1.77,1.81,4.01,2.71,6.73,2.71s4.98-.9,6.67-2.71c1.73-1.85,2.6-4.17,2.6-6.96s-.87-5.11-2.6-6.96c-1.69-1.81-3.91-2.71-6.67-2.71s-4.96.89-6.73,2.66c-1.77,1.85-2.66,4.19-2.66,7.02s.88,5.19,2.66,6.96Z"/>
    <path class="uuid-4c6f2711-98b4-4c22-ad9e-cb232739fa40" d="m1649.85,79.37c2.28,1.85,3.89,4.3,4.84,7.35.94,3.05,1.42,6.87,1.42,11.48,0,6.92-1.33,12.34-3.98,16.25-2.66,3.92-6.44,5.87-11.36,5.87-3.78,0-6.9-1-9.38-3.01-2.48-2.01-4.03-4.78-4.66-8.32h4.84c.47,2.2,1.5,3.89,3.1,5.07,1.59,1.18,3.63,1.77,6.11,1.77,6.8,0,10.27-5.6,10.38-16.81-1.14,1.69-2.71,3.07-4.69,4.13-1.99,1.06-3.98,1.59-5.99,1.59-4.41,0-7.89-1.34-10.44-4.01-2.6-2.67-3.89-6.06-3.89-10.15s1.32-7.51,3.95-10.15c2.6-2.67,6.1-4.01,10.5-4.01,3.66,0,6.75.98,9.26,2.95Zm-15.93,18.17c1.69,1.81,3.91,2.71,6.67,2.71s4.96-.9,6.73-2.71c1.77-1.77,2.66-4.09,2.66-6.96s-.88-5.17-2.66-7.02c-1.77-1.77-4.01-2.66-6.73-2.66s-4.98.91-6.67,2.71c-1.73,1.85-2.6,4.17-2.6,6.96s.87,5.11,2.6,6.96Z"/>
  </g>
  <g>
    <path class="uuid-4c6f2711-98b4-4c22-ad9e-cb232739fa40" d="m1229.34,114.54c4.18,1.6,6.27,4.49,6.27,8.67,0,3.16-1.03,5.65-3.09,7.47-2.06,1.82-4.96,2.73-8.7,2.73h-15.86v-36.31h15.1c3.5,0,6.22.88,8.16,2.63,1.94,1.75,2.91,4.04,2.91,6.86,0,3.64-1.6,6.29-4.79,7.96Zm-6.58-13.57h-10.51v11.99h10.51c2.35,0,4.13-.54,5.35-1.63s1.84-2.62,1.84-4.59c0-1.8-.62-3.21-1.86-4.23-1.24-1.02-3.02-1.53-5.33-1.53Zm-10.51,28.56h11.37c2.52,0,4.43-.54,5.74-1.63,1.31-1.09,1.96-2.65,1.96-4.69,0-4.28-2.58-6.43-7.75-6.43h-11.32v12.75Z"/>
    <path class="uuid-4c6f2711-98b4-4c22-ad9e-cb232739fa40" d="m1252.29,106.68c.68,0,1.14.02,1.38.05v3.93h-1.02c-2.72,0-4.84.67-6.35,2.01s-2.27,3.26-2.27,5.74v14.99h-4.08v-26.32h3.88v4.64c1.77-3.37,4.59-5.05,8.47-5.05Z"/>
    <path class="uuid-4c6f2711-98b4-4c22-ad9e-cb232739fa40" d="m1277.23,130.09h1.48v3.32c-.68.1-1.43.15-2.24.15-2.75,0-4.23-1.26-4.44-3.77-1.84,2.82-4.69,4.23-8.57,4.23-2.89,0-5.16-.67-6.81-2.01-1.65-1.34-2.47-3.24-2.47-5.69,0-4.76,3.25-7.48,9.74-8.16l3.77-.41c2.75-.31,4.13-1.51,4.13-3.62,0-1.46-.45-2.52-1.35-3.16-.9-.65-2.42-.97-4.56-.97-2.28,0-3.92.38-4.92,1.15-1,.76-1.57,2.12-1.71,4.05h-4.08c.34-5.81,3.91-8.72,10.71-8.72s9.89,2.55,9.89,7.65v14.69c0,.85.48,1.27,1.43,1.27Zm-13.57.46c2.18,0,4.08-.66,5.71-1.99,1.63-1.29,2.45-3.14,2.45-5.56v-3.11c-.75.58-1.9.95-3.47,1.12l-3.83.46c-2.21.27-3.78.78-4.72,1.53-.94.75-1.4,1.82-1.4,3.21s.44,2.42,1.33,3.19c.88.77,2.19,1.15,3.93,1.15Z"/>
    <path class="uuid-4c6f2711-98b4-4c22-ad9e-cb232739fa40" d="m1294.42,106.48c2.92,0,5.2.8,6.83,2.4,1.63,1.6,2.45,3.84,2.45,6.73v17.8h-4.08v-17.39c0-3.91-2.01-5.86-6.02-5.86-1.9,0-3.59.71-5.05,2.14s-2.19,3.5-2.19,6.22v14.89h-4.08v-26.32h3.88v3.93c2.01-3.03,4.76-4.54,8.26-4.54Z"/>
    <path class="uuid-4c6f2711-98b4-4c22-ad9e-cb232739fa40" d="m1329.6,110.87v-13.77h4.08v36.31h-3.88v-4.08c-2.11,3.13-5.12,4.69-9.03,4.69-3.71,0-6.67-1.26-8.87-3.77-2.24-2.52-3.37-5.85-3.37-10s1.12-7.56,3.37-10.05c2.17-2.48,5.13-3.72,8.87-3.72s6.71,1.46,8.82,4.39Zm-14.48,16.88c1.53,1.73,3.59,2.6,6.17,2.6s4.64-.9,6.17-2.7c1.53-1.77,2.29-4.23,2.29-7.39s-.76-5.59-2.29-7.4c-1.53-1.8-3.59-2.7-6.17-2.7s-4.6.93-6.15,2.78c-1.55,1.85-2.32,4.36-2.32,7.52s.76,5.56,2.29,7.29Z"/>
    <path class="uuid-4c6f2711-98b4-4c22-ad9e-cb232739fa40" d="m1354.03,133.41h-4.28v-36.31h4.28v36.31Z"/>
    <path class="uuid-4c6f2711-98b4-4c22-ad9e-cb232739fa40" d="m1380.2,110.87v-13.77h4.08v36.31h-3.88v-4.08c-2.11,3.13-5.12,4.69-9.03,4.69-3.71,0-6.67-1.26-8.87-3.77-2.24-2.52-3.37-5.85-3.37-10s1.12-7.56,3.37-10.05c2.17-2.48,5.13-3.72,8.87-3.72s6.71,1.46,8.82,4.39Zm-14.48,16.88c1.53,1.73,3.59,2.6,6.17,2.6s4.64-.9,6.17-2.7c1.53-1.77,2.29-4.23,2.29-7.39s-.76-5.59-2.29-7.4c-1.53-1.8-3.59-2.7-6.17-2.7s-4.6.93-6.15,2.78c-1.55,1.85-2.32,4.36-2.32,7.52s.76,5.56,2.29,7.29Z"/>
    <path class="uuid-4c6f2711-98b4-4c22-ad9e-cb232739fa40" d="m1413.35,120.25v1.43h-19.99c.2,2.86,1,5.01,2.4,6.45,1.39,1.45,3.3,2.17,5.71,2.17,3.64,0,5.97-1.63,6.99-4.9h4.23c-.71,2.65-2.04,4.75-3.98,6.3-1.94,1.55-4.39,2.32-7.34,2.32-3.64,0-6.58-1.24-8.82-3.72-2.28-2.48-3.42-5.83-3.42-10.05s1.12-7.48,3.37-10c2.21-2.52,5.13-3.77,8.77-3.77s6.73,1.31,8.87,3.93c2.14,2.62,3.21,5.9,3.21,9.84Zm-12.09-10.05c-2.14,0-3.89.67-5.25,2.01-1.36,1.34-2.21,3.27-2.55,5.79h15.5c-.2-2.31-.99-4.19-2.35-5.64-1.36-1.44-3.15-2.17-5.36-2.17Z"/>
    <path class="uuid-4c6f2711-98b4-4c22-ad9e-cb232739fa40" d="m1430.33,106.48c2.92,0,5.2.8,6.83,2.4,1.63,1.6,2.45,3.84,2.45,6.73v17.8h-4.08v-17.39c0-3.91-2.01-5.86-6.02-5.86-1.9,0-3.59.71-5.05,2.14s-2.19,3.5-2.19,6.22v14.89h-4.08v-26.32h3.88v3.93c2.01-3.03,4.76-4.54,8.26-4.54Z"/>
    <path class="uuid-4c6f2711-98b4-4c22-ad9e-cb232739fa40" d="m1456.24,107.09v3.57h-5.41v17.08c0,1.5,1,2.24,3.01,2.24h2.4v3.42c-1.12.1-2.09.15-2.91.15-4.39,0-6.58-1.82-6.58-5.46v-17.44h-4.33v-3.57h4.33v-7.45h4.08v7.45h5.41Z"/>
    <path class="uuid-4c6f2711-98b4-4c22-ad9e-cb232739fa40" d="m1464.75,103.11h-4.33v-5h4.33v5Zm-.1,30.29h-4.08v-26.32h4.08v26.32Z"/>
    <path class="uuid-4c6f2711-98b4-4c22-ad9e-cb232739fa40" d="m1482.3,107.09v3.57h-5.41v17.08c0,1.5,1,2.24,3.01,2.24h2.4v3.42c-1.12.1-2.09.15-2.91.15-4.39,0-6.58-1.82-6.58-5.46v-17.44h-4.33v-3.57h4.33v-7.45h4.08v7.45h5.41Z"/>
    <path class="uuid-4c6f2711-98b4-4c22-ad9e-cb232739fa40" d="m1499.59,118.01l3.72-10.91h4.44l-11.12,30.45c-.78,2.21-1.85,3.76-3.21,4.67-1.36.9-3.15,1.35-5.35,1.35-.75,0-1.56-.05-2.45-.15v-3.42h2.4c2.35,0,3.94-1.09,4.79-3.26l.92-2.45-9.89-27.18h4.49l3.72,10.96c1.33,3.88,2.58,7.67,3.77,11.37.99-3.16,2.24-6.97,3.77-11.42Z"/>
    <path class="uuid-4c6f2711-98b4-4c22-ad9e-cb232739fa40" d="m1227.4,152.1h15.1c3.84,0,6.81,1,8.9,3.01,2.09,2.01,3.14,4.73,3.14,8.16s-1.05,6.15-3.14,8.16c-2.09,2.01-5.06,3.01-8.9,3.01h-10.81v13.97h-4.28v-36.31Zm4.28,18.46h10.81c2.52,0,4.41-.62,5.69-1.86,1.27-1.24,1.91-3.05,1.91-5.43s-.64-4.19-1.91-5.43c-1.28-1.24-3.17-1.86-5.69-1.86h-10.81v14.59Z"/>
    <path class="uuid-4c6f2711-98b4-4c22-ad9e-cb232739fa40" d="m1270.7,161.48c2.92,0,5.2.8,6.83,2.4,1.63,1.6,2.45,3.84,2.45,6.73v17.8h-4.08v-17.39c0-3.91-2.01-5.86-6.02-5.86-1.9,0-3.59.71-5.05,2.14s-2.19,3.5-2.19,6.22v14.89h-4.08v-36.31h4.08v13.62c2.01-2.82,4.69-4.23,8.06-4.23Z"/>
    <path class="uuid-4c6f2711-98b4-4c22-ad9e-cb232739fa40" d="m1306.76,185.25c-2.41,2.52-5.47,3.77-9.18,3.77s-6.77-1.26-9.18-3.77c-2.38-2.48-3.57-5.81-3.57-10s1.19-7.51,3.57-10c2.41-2.52,5.47-3.77,9.18-3.77s6.77,1.26,9.18,3.77c2.38,2.48,3.57,5.81,3.57,10s-1.19,7.51-3.57,10Zm-15.35-2.6c1.53,1.8,3.59,2.7,6.17,2.7s4.64-.9,6.17-2.7c1.53-1.77,2.29-4.23,2.29-7.39s-.76-5.68-2.29-7.45c-1.53-1.77-3.59-2.65-6.17-2.65s-4.64.88-6.17,2.65c-1.53,1.77-2.29,4.25-2.29,7.45s.76,5.63,2.29,7.39Z"/>
    <path class="uuid-4c6f2711-98b4-4c22-ad9e-cb232739fa40" d="m1325.17,162.09v3.57h-5.41v17.08c0,1.5,1,2.24,3.01,2.24h2.4v3.42c-1.12.1-2.09.15-2.91.15-4.39,0-6.58-1.82-6.58-5.46v-17.44h-4.33v-3.57h4.33v-7.45h4.08v7.45h5.41Z"/>
    <path class="uuid-4c6f2711-98b4-4c22-ad9e-cb232739fa40" d="m1349.65,185.25c-2.41,2.52-5.47,3.77-9.18,3.77s-6.77-1.26-9.18-3.77c-2.38-2.48-3.57-5.81-3.57-10s1.19-7.51,3.57-10c2.41-2.52,5.47-3.77,9.18-3.77s6.77,1.26,9.18,3.77c2.38,2.48,3.57,5.81,3.57,10s-1.19,7.51-3.57,10Zm-15.35-2.6c1.53,1.8,3.59,2.7,6.17,2.7s4.64-.9,6.17-2.7c1.53-1.77,2.29-4.23,2.29-7.39s-.76-5.68-2.29-7.45c-1.53-1.77-3.59-2.65-6.17-2.65s-4.64.88-6.17,2.65c-1.53,1.77-2.29,4.25-2.29,7.45s.76,5.63,2.29,7.39Z"/>
    <path class="uuid-4c6f2711-98b4-4c22-ad9e-cb232739fa40" d="m1378.05,165.92v-3.83h3.88v25.3c0,3.6-1.05,6.44-3.16,8.52-2.11,2.07-5.13,3.11-9.08,3.11-3.26,0-5.88-.75-7.85-2.24-1.97-1.5-3.09-3.57-3.37-6.22h4.08c.51,3.33,2.89,5,7.14,5,5.44,0,8.16-2.72,8.16-8.16v-2.55c-2.07,2.79-5.02,4.18-8.82,4.18s-6.67-1.26-8.87-3.77c-2.24-2.52-3.37-5.85-3.37-10s1.12-7.56,3.37-10.05c2.17-2.48,5.13-3.72,8.87-3.72s6.92,1.48,9.03,4.44Zm-8.52,19.43c2.58,0,4.64-.9,6.17-2.7,1.53-1.8,2.29-4.27,2.29-7.39s-.76-5.59-2.29-7.4c-1.53-1.8-3.59-2.7-6.17-2.7s-4.6.92-6.15,2.75c-1.55,1.84-2.32,4.28-2.32,7.34s.77,5.51,2.32,7.34c1.55,1.84,3.6,2.75,6.15,2.75Z"/>
    <path class="uuid-4c6f2711-98b4-4c22-ad9e-cb232739fa40" d="m1400.39,161.68c.68,0,1.14.02,1.38.05v3.93h-1.02c-2.72,0-4.84.67-6.35,2.01s-2.27,3.26-2.27,5.74v14.99h-4.08v-26.32h3.88v4.64c1.77-3.37,4.59-5.05,8.47-5.05Z"/>
    <path class="uuid-4c6f2711-98b4-4c22-ad9e-cb232739fa40" d="m1425.33,185.09h1.48v3.32c-.68.1-1.43.15-2.24.15-2.75,0-4.23-1.26-4.44-3.77-1.84,2.82-4.69,4.23-8.57,4.23-2.89,0-5.16-.67-6.81-2.01-1.65-1.34-2.47-3.24-2.47-5.69,0-4.76,3.25-7.48,9.74-8.16l3.77-.41c2.75-.31,4.13-1.51,4.13-3.62,0-1.46-.45-2.52-1.35-3.16-.9-.65-2.42-.97-4.56-.97-2.28,0-3.92.38-4.92,1.15-1,.76-1.57,2.12-1.71,4.05h-4.08c.34-5.81,3.91-8.72,10.71-8.72s9.89,2.55,9.89,7.65v14.69c0,.85.48,1.27,1.43,1.27Zm-13.57.46c2.18,0,4.08-.66,5.71-1.99,1.63-1.29,2.45-3.14,2.45-5.56v-3.11c-.75.58-1.9.95-3.47,1.12l-3.83.46c-2.21.27-3.78.78-4.72,1.53-.94.75-1.4,1.82-1.4,3.21s.44,2.42,1.33,3.19c.88.77,2.19,1.15,3.93,1.15Z"/>
    <path class="uuid-4c6f2711-98b4-4c22-ad9e-cb232739fa40" d="m1443.28,161.48c3.71,0,6.68,1.24,8.92,3.72,2.21,2.52,3.32,5.87,3.32,10.05s-1.11,7.48-3.32,10c-2.24,2.52-5.22,3.77-8.92,3.77s-6.71-1.46-8.82-4.39v13.77h-4.08v-36.31h3.88v4.08c2.11-3.13,5.12-4.69,9.03-4.69Zm-.51,23.87c2.55,0,4.6-.93,6.15-2.78,1.55-1.85,2.32-4.36,2.32-7.52s-.76-5.52-2.27-7.27c-1.51-1.75-3.58-2.63-6.2-2.63s-4.64.88-6.17,2.65c-1.53,1.77-2.29,4.25-2.29,7.45s.76,5.63,2.29,7.39c1.53,1.8,3.59,2.7,6.17,2.7Z"/>
    <path class="uuid-4c6f2711-98b4-4c22-ad9e-cb232739fa40" d="m1472.5,161.48c2.92,0,5.2.8,6.83,2.4,1.63,1.6,2.45,3.84,2.45,6.73v17.8h-4.08v-17.39c0-3.91-2.01-5.86-6.02-5.86-1.9,0-3.59.71-5.05,2.14s-2.19,3.5-2.19,6.22v14.89h-4.08v-36.31h4.08v13.62c2.01-2.82,4.69-4.23,8.06-4.23Z"/>
    <path class="uuid-4c6f2711-98b4-4c22-ad9e-cb232739fa40" d="m1499.59,173.01l3.72-10.91h4.44l-11.12,30.45c-.78,2.21-1.85,3.76-3.21,4.67-1.36.9-3.15,1.35-5.35,1.35-.75,0-1.56-.05-2.45-.15v-3.42h2.4c2.35,0,3.94-1.09,4.79-3.26l.92-2.45-9.89-27.18h4.49l3.72,10.96c1.33,3.88,2.58,7.67,3.77,11.37.99-3.16,2.24-6.97,3.77-11.42Z"/>
    <path class="uuid-4c6f2711-98b4-4c22-ad9e-cb232739fa40" d="m1229.39,224.08c4.05,2.11,6.07,5.15,6.07,9.13,0,3.3-1.16,5.95-3.47,7.96-2.28,2.04-5.29,3.06-9.03,3.06-4.05,0-7.18-1.05-9.41-3.16-2.23-2.11-3.32-4.98-3.29-8.62h4.23c.07,2.58.83,4.55,2.29,5.89,1.46,1.34,3.52,2.01,6.17,2.01,2.45,0,4.39-.65,5.84-1.94,1.44-1.29,2.17-3.03,2.17-5.2s-.74-3.97-2.22-5.28c-1.48-1.31-3.49-1.96-6.04-1.96h-2.7v-3.57h2.45c2.41,0,4.27-.54,5.58-1.63,1.31-1.09,1.96-2.6,1.96-4.54s-.66-3.39-1.96-4.46c-1.31-1.07-3.08-1.61-5.33-1.61s-4.09.59-5.43,1.76c-1.34,1.17-2.07,2.9-2.17,5.18h-4.28c.03-3.3,1.11-5.92,3.24-7.88,2.12-1.96,5.01-2.93,8.64-2.93s6.32.88,8.44,2.63c2.12,1.75,3.19,4.16,3.19,7.22,0,3.47-1.65,6.12-4.95,7.96Z"/>
    <path class="uuid-4c6f2711-98b4-4c22-ad9e-cb232739fa40" d="m1260.09,220.87v-13.77h4.08v36.31h-3.88v-4.08c-2.11,3.13-5.12,4.69-9.03,4.69-3.71,0-6.67-1.26-8.87-3.77-2.24-2.52-3.37-5.85-3.37-10s1.12-7.56,3.37-10.05c2.17-2.48,5.13-3.72,8.87-3.72s6.71,1.46,8.82,4.39Zm-14.48,16.88c1.53,1.73,3.59,2.6,6.17,2.6s4.64-.9,6.17-2.7c1.53-1.77,2.29-4.23,2.29-7.4s-.76-5.59-2.29-7.39c-1.53-1.8-3.59-2.7-6.17-2.7s-4.6.93-6.15,2.78c-1.55,1.85-2.32,4.36-2.32,7.52s.76,5.56,2.29,7.29Z"/>
    <path class="uuid-4c6f2711-98b4-4c22-ad9e-cb232739fa40" d="m1306.91,232.9l.36,5.87c.17,2.04.61,3.59,1.33,4.64h-4.44c-.75-1.09-1.14-2.7-1.17-4.84l-.15-3.88c-.1-2.45-.65-4.19-1.63-5.23-.99-1.04-2.6-1.56-4.85-1.56h-11.83v15.5h-4.28v-36.31h15.35c3.74,0,6.72.87,8.95,2.6s3.34,4.17,3.34,7.29c0,2.21-.54,4.07-1.61,5.58-1.07,1.51-2.52,2.58-4.36,3.19,3.06.95,4.73,3.33,5,7.14Zm-22.39-8.87h11.58c2.28,0,4.07-.59,5.38-1.76,1.31-1.17,1.96-2.85,1.96-5.02s-.69-3.64-2.07-4.69c-1.38-1.05-3.31-1.58-5.79-1.58h-11.07v13.06Z"/>
    <path class="uuid-4c6f2711-98b4-4c22-ad9e-cb232739fa40" d="m1335.62,230.25v1.43h-19.99c.2,2.86,1,5.01,2.4,6.45,1.39,1.45,3.3,2.17,5.71,2.17,3.64,0,5.97-1.63,6.99-4.9h4.23c-.71,2.65-2.04,4.75-3.98,6.3-1.94,1.55-4.39,2.32-7.34,2.32-3.64,0-6.58-1.24-8.82-3.72-2.28-2.48-3.42-5.83-3.42-10.05s1.12-7.48,3.37-10c2.21-2.52,5.13-3.77,8.77-3.77s6.73,1.31,8.87,3.93c2.14,2.62,3.21,5.9,3.21,9.84Zm-12.09-10.05c-2.14,0-3.89.67-5.25,2.01-1.36,1.34-2.21,3.27-2.55,5.79h15.5c-.2-2.31-.99-4.19-2.35-5.63-1.36-1.45-3.15-2.17-5.36-2.17Z"/>
    <path class="uuid-4c6f2711-98b4-4c22-ad9e-cb232739fa40" d="m1352.61,216.48c2.92,0,5.2.8,6.83,2.4,1.63,1.6,2.45,3.84,2.45,6.73v17.8h-4.08v-17.39c0-3.91-2.01-5.87-6.02-5.87-1.9,0-3.59.71-5.05,2.14-1.46,1.43-2.19,3.5-2.19,6.22v14.89h-4.08v-26.32h3.88v3.93c2.01-3.03,4.76-4.54,8.26-4.54Z"/>
    <path class="uuid-4c6f2711-98b4-4c22-ad9e-cb232739fa40" d="m1387.79,220.87v-13.77h4.08v36.31h-3.88v-4.08c-2.11,3.13-5.12,4.69-9.03,4.69-3.71,0-6.67-1.26-8.87-3.77-2.24-2.52-3.37-5.85-3.37-10s1.12-7.56,3.37-10.05c2.17-2.48,5.13-3.72,8.87-3.72s6.71,1.46,8.82,4.39Zm-14.48,16.88c1.53,1.73,3.59,2.6,6.17,2.6s4.64-.9,6.17-2.7c1.53-1.77,2.29-4.23,2.29-7.4s-.76-5.59-2.29-7.39c-1.53-1.8-3.59-2.7-6.17-2.7s-4.6.93-6.15,2.78c-1.55,1.85-2.32,4.36-2.32,7.52s.76,5.56,2.29,7.29Z"/>
    <path class="uuid-4c6f2711-98b4-4c22-ad9e-cb232739fa40" d="m1420.95,230.25v1.43h-19.99c.2,2.86,1,5.01,2.4,6.45,1.39,1.45,3.3,2.17,5.71,2.17,3.64,0,5.97-1.63,6.99-4.9h4.23c-.71,2.65-2.04,4.75-3.98,6.3-1.94,1.55-4.39,2.32-7.34,2.32-3.64,0-6.58-1.24-8.82-3.72-2.28-2.48-3.42-5.83-3.42-10.05s1.12-7.48,3.37-10c2.21-2.52,5.13-3.77,8.77-3.77s6.73,1.31,8.87,3.93c2.14,2.62,3.21,5.9,3.21,9.84Zm-12.09-10.05c-2.14,0-3.89.67-5.25,2.01-1.36,1.34-2.21,3.27-2.55,5.79h15.5c-.2-2.31-.99-4.19-2.35-5.63-1.36-1.45-3.15-2.17-5.36-2.17Z"/>
    <path class="uuid-4c6f2711-98b4-4c22-ad9e-cb232739fa40" d="m1438.13,216.68c.68,0,1.14.02,1.38.05v3.93h-1.02c-2.72,0-4.84.67-6.35,2.01-1.51,1.34-2.27,3.26-2.27,5.74v14.99h-4.08v-26.32h3.88v4.64c1.77-3.37,4.59-5.05,8.47-5.05Z"/>
    <path class="uuid-4c6f2711-98b4-4c22-ad9e-cb232739fa40" d="m1447.52,213.11h-4.33v-5h4.33v5Zm-.1,30.29h-4.08v-26.32h4.08v26.32Z"/>
    <path class="uuid-4c6f2711-98b4-4c22-ad9e-cb232739fa40" d="m1465.67,216.48c2.92,0,5.2.8,6.83,2.4,1.63,1.6,2.45,3.84,2.45,6.73v17.8h-4.08v-17.39c0-3.91-2.01-5.87-6.02-5.87-1.9,0-3.59.71-5.05,2.14-1.46,1.43-2.19,3.5-2.19,6.22v14.89h-4.08v-26.32h3.88v3.93c2.01-3.03,4.76-4.54,8.26-4.54Z"/>
    <path class="uuid-4c6f2711-98b4-4c22-ad9e-cb232739fa40" d="m1501.07,220.92v-3.83h3.88v25.3c0,3.6-1.05,6.44-3.16,8.52-2.11,2.07-5.13,3.11-9.08,3.11-3.26,0-5.88-.75-7.85-2.24-1.97-1.5-3.09-3.57-3.37-6.22h4.08c.51,3.33,2.89,5,7.14,5,5.44,0,8.16-2.72,8.16-8.16v-2.55c-2.07,2.79-5.02,4.18-8.82,4.18s-6.67-1.26-8.87-3.77c-2.24-2.52-3.37-5.85-3.37-10s1.12-7.56,3.37-10.05c2.17-2.48,5.13-3.72,8.87-3.72s6.92,1.48,9.03,4.44Zm-8.52,19.43c2.58,0,4.64-.9,6.17-2.7s2.29-4.27,2.29-7.4-.76-5.59-2.29-7.39c-1.53-1.8-3.59-2.7-6.17-2.7s-4.6.92-6.15,2.75c-1.55,1.84-2.32,4.28-2.32,7.34s.77,5.51,2.32,7.34c1.55,1.84,3.6,2.75,6.15,2.75Z"/>
  </g>
  <g>
    <path class="uuid-4c6f2711-98b4-4c22-ad9e-cb232739fa40" d="m1885.68,145.18v2.04h-21.36v-2.52h15.93v-4.86h1.98l.03.48c.1,1.52.4,2.65.9,3.39.5.74,1.34,1.23,2.52,1.47Z"/>
    <path class="uuid-4c6f2711-98b4-4c22-ad9e-cb232739fa40" d="m1883.4,149.77h2.28v13.71h-1.98c-5.52-4.92-11.98-7.48-19.38-7.68v-2.61c3.7.1,7.08.75,10.16,1.94,3.07,1.19,6.04,3,8.92,5.45v-10.8Z"/>
    <path class="uuid-4c6f2711-98b4-4c22-ad9e-cb232739fa40" d="m1871.7,171.25v-8.67h2.16v8.67h-2.16Z"/>
    <path class="uuid-4c6f2711-98b4-4c22-ad9e-cb232739fa40" d="m1866.72,187.48c-1.92-1.3-2.88-3.23-2.88-5.79s.96-4.51,2.88-5.79c1.94-1.3,4.7-1.95,8.28-1.95s6.34.65,8.28,1.95c1.92,1.28,2.88,3.21,2.88,5.79s-.96,4.49-2.88,5.79c-1.94,1.3-4.7,1.95-8.28,1.95s-6.34-.65-8.28-1.95Zm17.16-5.79c0-3.4-2.96-5.1-8.88-5.1s-8.88,1.7-8.88,5.1,2.96,5.1,8.88,5.1,8.88-1.7,8.88-5.1Z"/>
    <path class="uuid-4c6f2711-98b4-4c22-ad9e-cb232739fa40" d="m1866.6,194.41v11.28h-2.28v-14.1l1.17.06c1.76.12,3.27.52,4.53,1.2s2.36,1.83,3.3,3.45l1.56,2.7c.8,1.36,1.58,2.32,2.34,2.89.76.57,1.68.86,2.76.86,1.18,0,2.12-.38,2.83-1.12s1.06-1.79,1.06-3.11c0-2.98-1.53-4.47-4.59-4.47v-2.49c2.18-.02,3.87.59,5.07,1.83s1.8,2.97,1.8,5.19c0,2.02-.57,3.66-1.71,4.92-1.18,1.26-2.67,1.89-4.47,1.89-2.76,0-5.08-1.62-6.96-4.86l-1.32-2.28c-.8-1.32-1.58-2.27-2.33-2.85s-1.67-.91-2.77-.99Z"/>
    <path class="uuid-4c6f2711-98b4-4c22-ad9e-cb232739fa40" d="m1871.7,215.89v-8.67h2.16v8.67h-2.16Z"/>
    <path class="uuid-4c6f2711-98b4-4c22-ad9e-cb232739fa40" d="m1866.72,232.12c-1.92-1.3-2.88-3.23-2.88-5.79s.96-4.51,2.88-5.79c1.94-1.3,4.7-1.95,8.28-1.95s6.34.65,8.28,1.95c1.92,1.28,2.88,3.21,2.88,5.79s-.96,4.49-2.88,5.79c-1.94,1.3-4.7,1.95-8.28,1.95s-6.34-.65-8.28-1.95Zm17.16-5.79c0-3.4-2.96-5.1-8.88-5.1s-8.88,1.7-8.88,5.1,2.96,5.1,8.88,5.1,8.88-1.7,8.88-5.1Z"/>
    <path class="uuid-4c6f2711-98b4-4c22-ad9e-cb232739fa40" d="m1875.69,247.57c-1.24,2.38-3.03,3.57-5.37,3.57-1.94,0-3.5-.68-4.68-2.04-1.2-1.34-1.8-3.11-1.8-5.31,0-2.38.62-4.23,1.86-5.54,1.24-1.31,2.93-1.96,5.07-1.94v2.49c-1.52.04-2.68.49-3.46,1.35-.79.86-1.19,2.07-1.19,3.63,0,1.44.38,2.58,1.14,3.43.76.85,1.78,1.28,3.06,1.28s2.33-.44,3.11-1.31c.77-.87,1.15-2.05,1.15-3.55v-1.59h2.1v1.44c0,1.42.32,2.52.96,3.29.64.77,1.53,1.16,2.67,1.16s2-.39,2.62-1.16.94-1.81.94-3.13-.34-2.41-1.03-3.2c-.69-.79-1.71-1.21-3.04-1.27v-2.52c1.94.02,3.48.66,4.63,1.91,1.15,1.25,1.72,2.94,1.72,5.08s-.51,3.71-1.54,4.96-2.45,1.88-4.25,1.88c-2.04,0-3.6-.97-4.68-2.91Z"/>
  </g>
</svg>