<?xml version="1.0" encoding="UTF-8"?>
<svg id="uuid-8995d028-f3c2-45c6-b9d6-b00ca0dcd0de" data-name="Layer 1" xmlns="http://www.w3.org/2000/svg" xmlns:xlink="http://www.w3.org/1999/xlink" viewBox="0 0 1920 1772">
  <defs>
    <style>
      .uuid-36c9adce-6de2-453a-b800-4443b2e71f3e {
        isolation: isolate;
      }

      .uuid-7d4e16b0-d8a1-4a03-8ecb-034bd344a928 {
        fill: #f4f4f4;
        stroke-width: 0px;
      }
    </style>
  </defs>
  <image width="1920" height="1776" transform="translate(1)" xlink:href="https://mylgcontent.s3.us-west-1.amazonaws.com/29-The+Oscars/18.png"/>
  <g id="uuid-e861ce28-5007-4fc3-a1d7-ad05d10edd50" data-name="LIVE EVENT. PRODUCTION. MANAGMENT. ACTIVATION. INSTALLATION. OFE. OFE. OFE. HOLLYWOOD. EL CAPITAN. THE OSCARS. RED CARPET. EXPERIENCE. " class="uuid-36c9adce-6de2-453a-b800-4443b2e71f3e">
    <g class="uuid-36c9adce-6de2-453a-b800-4443b2e71f3e">
      <path class="uuid-7d4e16b0-d8a1-4a03-8ecb-034bd344a928" d="M106.84,74.8v101.76h57.28v12.16h-70.72v-113.92h13.44Z"/>
      <path class="uuid-7d4e16b0-d8a1-4a03-8ecb-034bd344a928" d="M186.52,188.72h-13.44v-113.92h13.44v113.92Z"/>
      <path class="uuid-7d4e16b0-d8a1-4a03-8ecb-034bd344a928" d="M253.24,146.96l25.92-72.16h14.08l-42.24,113.92h-15.04l-42.88-113.92h14.24l26.4,72.16c4.8,13.55,8.05,22.99,9.76,28.32,1.6-5.33,4.85-14.77,9.76-28.32Z"/>
      <path class="uuid-7d4e16b0-d8a1-4a03-8ecb-034bd344a928" d="M379,74.8v12.16h-65.76v36.32h59.36v12.16h-59.36v41.12h65.12v12.16h-78.56v-113.92h79.2Z"/>
      <path class="uuid-7d4e16b0-d8a1-4a03-8ecb-034bd344a928" d="M493.71,74.8v12.16h-65.76v36.32h59.36v12.16h-59.36v41.12h65.12v12.16h-78.56v-113.92h79.2Z"/>
      <path class="uuid-7d4e16b0-d8a1-4a03-8ecb-034bd344a928" d="M553.23,146.96l25.92-72.16h14.08l-42.24,113.92h-15.04l-42.88-113.92h14.24l26.4,72.16c4.8,13.55,8.05,22.99,9.76,28.32,1.6-5.33,4.85-14.77,9.76-28.32Z"/>
      <path class="uuid-7d4e16b0-d8a1-4a03-8ecb-034bd344a928" d="M678.99,74.8v12.16h-65.76v36.32h59.36v12.16h-59.36v41.12h65.12v12.16h-78.56v-113.92h79.2Z"/>
      <path class="uuid-7d4e16b0-d8a1-4a03-8ecb-034bd344a928" d="M766.03,113.2v-38.4h13.28v113.92h-16.32l-37.76-58.72c-10.88-17.28-18.77-30.13-23.68-38.56.32,14.94.48,34.56.48,58.88v38.4h-13.28v-113.92h16.32l37.76,58.72c10.88,17.28,18.77,30.13,23.68,38.56-.32-14.93-.48-34.56-.48-58.88Z"/>
      <path class="uuid-7d4e16b0-d8a1-4a03-8ecb-034bd344a928" d="M786.67,74.8h91.36v12.16h-38.72v101.76h-13.92v-101.76h-38.72v-12.16Z"/>
      <path class="uuid-7d4e16b0-d8a1-4a03-8ecb-034bd344a928" d="M883.95,188.72h-16.16v-16h16.16v16Z"/>
    </g>
    <g class="uuid-36c9adce-6de2-453a-b800-4443b2e71f3e">
      <path class="uuid-7d4e16b0-d8a1-4a03-8ecb-034bd344a928" d="M93.4,224.8h47.36c12.05,0,21.36,3.15,27.92,9.44,6.56,6.3,9.84,14.83,9.84,25.6s-3.28,19.31-9.84,25.6c-6.56,6.29-15.87,9.44-27.92,9.44h-33.92v43.84h-13.44v-113.92ZM106.84,282.72h33.92c7.89,0,13.84-1.95,17.84-5.84,4-3.89,6-9.57,6-17.04s-2-13.15-6-17.04c-4-3.89-9.95-5.84-17.84-5.84h-33.92v45.76Z"/>
      <path class="uuid-7d4e16b0-d8a1-4a03-8ecb-034bd344a928" d="M272.6,305.76l1.12,18.4c.53,6.4,1.92,11.25,4.16,14.56h-13.92c-2.35-3.41-3.57-8.48-3.68-15.2l-.48-12.16c-.32-7.68-2.03-13.14-5.12-16.4-3.1-3.25-8.16-4.88-15.2-4.88h-37.12v48.64h-13.44v-113.92h48.16c11.73,0,21.09,2.72,28.08,8.16,6.98,5.44,10.48,13.07,10.48,22.88,0,6.93-1.68,12.77-5.04,17.52-3.36,4.75-7.92,8.08-13.68,10,9.6,2.99,14.83,10.46,15.68,22.4ZM202.36,277.92h36.32c7.15,0,12.77-1.84,16.88-5.52,4.1-3.68,6.16-8.93,6.16-15.76s-2.16-11.41-6.48-14.72c-4.32-3.31-10.38-4.96-18.16-4.96h-34.72v40.96Z"/>
      <path class="uuid-7d4e16b0-d8a1-4a03-8ecb-034bd344a928" d="M377.08,324.8c-10.03,10.99-23.25,16.48-39.68,16.48s-29.6-5.49-39.52-16.48c-10.03-10.77-15.04-25.12-15.04-43.04s5.01-32.21,15.04-43.2c9.92-10.88,23.09-16.32,39.52-16.32s29.65,5.44,39.68,16.32c9.92,11.09,14.88,25.5,14.88,43.2s-4.96,32.16-14.88,43.04ZM307.96,316.16c7.36,8.53,17.17,12.8,29.44,12.8s22.08-4.27,29.44-12.8c7.36-8.43,11.04-19.89,11.04-34.4s-3.68-25.97-11.04-34.4c-7.36-8.53-17.18-12.8-29.44-12.8s-22.08,4.27-29.44,12.8c-7.36,8.43-11.04,19.9-11.04,34.4s3.68,25.97,11.04,34.4Z"/>
      <path class="uuid-7d4e16b0-d8a1-4a03-8ecb-034bd344a928" d="M403.32,224.8h38.4c17.28,0,30.93,5.01,40.96,15.04,9.92,10.03,14.88,24,14.88,41.92s-4.96,31.63-14.88,41.76c-10.13,10.13-23.79,15.2-40.96,15.2h-38.4v-113.92ZM416.76,326.56h24.96c13.44,0,23.76-3.95,30.96-11.84,7.2-7.89,10.8-18.88,10.8-32.96s-3.6-25.07-10.8-32.96c-7.2-7.89-17.52-11.84-30.96-11.84h-24.96v89.6Z"/>
      <path class="uuid-7d4e16b0-d8a1-4a03-8ecb-034bd344a928" d="M585.24,329.44c-7.79,7.79-18.83,11.68-33.12,11.68s-25.33-3.89-33.12-11.68c-7.79-7.79-11.68-18.77-11.68-32.96v-71.68h13.44v71.68c0,21.66,10.45,32.48,31.36,32.48s31.36-10.83,31.36-32.48v-71.68h13.44v71.68c0,14.19-3.9,25.17-11.68,32.96Z"/>
      <path class="uuid-7d4e16b0-d8a1-4a03-8ecb-034bd344a928" d="M659.32,341.28c-15.47,0-28.11-5.38-37.92-16.16-9.81-10.77-14.72-25.23-14.72-43.36s4.9-32.58,14.72-43.36c9.81-10.77,22.45-16.16,37.92-16.16,12.26,0,22.72,3.34,31.36,10,8.64,6.67,14.34,16.4,17.12,29.2h-13.6c-4.8-17.92-16.43-26.88-34.88-26.88-11.63,0-20.96,4.16-28,12.48-7.04,8.43-10.56,20-10.56,34.72s3.52,26.24,10.56,34.56c7.04,8.43,16.37,12.64,28,12.64,8.74,0,16.53-2.72,23.36-8.16,6.72-5.22,10.82-13.07,12.32-23.52h13.44c-1.49,14.19-6.88,25.02-16.16,32.48-9.39,7.68-20.38,11.52-32.96,11.52Z"/>
      <path class="uuid-7d4e16b0-d8a1-4a03-8ecb-034bd344a928" d="M700.6,224.8h91.36v12.16h-38.72v101.76h-13.92v-101.76h-38.72v-12.16Z"/>
      <path class="uuid-7d4e16b0-d8a1-4a03-8ecb-034bd344a928" d="M812.76,338.72h-13.44v-113.92h13.44v113.92Z"/>
      <path class="uuid-7d4e16b0-d8a1-4a03-8ecb-034bd344a928" d="M918.36,324.8c-10.03,10.99-23.25,16.48-39.68,16.48s-29.6-5.49-39.52-16.48c-10.03-10.77-15.04-25.12-15.04-43.04s5.01-32.21,15.04-43.2c9.92-10.88,23.09-16.32,39.52-16.32s29.65,5.44,39.68,16.32c9.92,11.09,14.88,25.5,14.88,43.2s-4.96,32.16-14.88,43.04ZM849.24,316.16c7.36,8.53,17.17,12.8,29.44,12.8s22.08-4.27,29.44-12.8c7.36-8.43,11.04-19.89,11.04-34.4s-3.68-25.97-11.04-34.4c-7.36-8.53-17.18-12.8-29.44-12.8s-22.08,4.27-29.44,12.8c-7.36,8.43-11.04,19.9-11.04,34.4s3.68,25.97,11.04,34.4Z"/>
      <path class="uuid-7d4e16b0-d8a1-4a03-8ecb-034bd344a928" d="M1021.88,263.2v-38.4h13.28v113.92h-16.32l-37.76-58.72c-10.88-17.28-18.78-30.13-23.68-38.56.32,14.94.48,34.56.48,58.88v38.4h-13.28v-113.92h16.32l37.76,58.72c10.88,17.28,18.77,30.13,23.68,38.56-.32-14.93-.48-34.56-.48-58.88Z"/>
      <path class="uuid-7d4e16b0-d8a1-4a03-8ecb-034bd344a928" d="M1062.68,338.72h-16.16v-16h16.16v16Z"/>
    </g>
    <g class="uuid-36c9adce-6de2-453a-b800-4443b2e71f3e">
      <path class="uuid-7d4e16b0-d8a1-4a03-8ecb-034bd344a928" d="M163.8,437.68l25.44-62.88h17.6v113.92h-13.12v-36.48c0-24,.16-43.36.48-58.08-2.56,7.04-5.92,15.68-10.08,25.92l-28.16,68.64h-11.52l-28.32-68.64c-4.16-10.24-7.52-18.88-10.08-25.92.32,14.72.48,34.08.48,58.08v36.48h-13.12v-113.92h17.6l26.4,64.8c3.95,9.71,8.27,20.64,12.96,32.8,6.51-17.28,10.99-28.85,13.44-34.72Z"/>
      <path class="uuid-7d4e16b0-d8a1-4a03-8ecb-034bd344a928" d="M318.36,488.72h-14.24l-13.28-33.12h-51.84l-13.12,33.12h-14.08l45.44-113.92h15.04l46.08,113.92ZM244.28,442.16l-.48,1.28h42.24l-.64-1.44c-2.67-6.5-9.6-24.05-20.8-52.64-7.58,20.27-14.35,37.87-20.32,52.8Z"/>
      <path class="uuid-7d4e16b0-d8a1-4a03-8ecb-034bd344a928" d="M400.6,413.2v-38.4h13.28v113.92h-16.32l-37.76-58.72c-10.88-17.28-18.77-30.13-23.68-38.56.32,14.94.48,34.56.48,58.88v38.4h-13.28v-113.92h16.32l37.76,58.72c10.88,17.28,18.77,30.13,23.68,38.56-.32-14.93-.48-34.56-.48-58.88Z"/>
      <path class="uuid-7d4e16b0-d8a1-4a03-8ecb-034bd344a928" d="M525.4,488.72h-14.24l-13.28-33.12h-51.84l-13.12,33.12h-14.08l45.44-113.92h15.04l46.08,113.92ZM451.32,442.16l-.48,1.28h42.24l-.64-1.44c-2.67-6.5-9.6-24.05-20.8-52.64-7.58,20.27-14.35,37.87-20.32,52.8Z"/>
      <path class="uuid-7d4e16b0-d8a1-4a03-8ecb-034bd344a928" d="M575.8,442.32v-12.16h48.48v58.56h-11.04l-2.88-15.36c-8.43,11.95-20.85,17.92-37.28,17.92s-29.33-5.49-39.04-16.48c-9.92-10.88-14.88-25.22-14.88-43.04s4.9-32.11,14.72-43.2c9.71-10.88,22.83-16.32,39.36-16.32,13.54,0,24.74,3.63,33.6,10.88,8.85,7.25,14.24,16.91,16.16,28.96h-13.92c-1.39-8.43-5.44-15.15-12.16-20.16-6.51-4.91-14.4-7.36-23.68-7.36-12.16,0-21.87,4.27-29.12,12.8-7.25,8.54-10.88,20-10.88,34.4s3.62,25.87,10.88,34.4c7.25,8.53,16.96,12.8,29.12,12.8,10.77,0,19.94-3.46,27.52-10.4,7.57-6.93,11.36-15.68,11.36-26.24h-36.32Z"/>
      <path class="uuid-7d4e16b0-d8a1-4a03-8ecb-034bd344a928" d="M709.24,437.68l25.44-62.88h17.6v113.92h-13.12v-36.48c0-24,.16-43.36.48-58.08-2.56,7.04-5.92,15.68-10.08,25.92l-28.16,68.64h-11.52l-28.32-68.64c-4.16-10.24-7.52-18.88-10.08-25.92.32,14.72.48,34.08.48,58.08v36.48h-13.12v-113.92h17.6l26.4,64.8c3.95,9.71,8.27,20.64,12.96,32.8,6.51-17.28,10.99-28.85,13.44-34.72Z"/>
      <path class="uuid-7d4e16b0-d8a1-4a03-8ecb-034bd344a928" d="M847.64,374.8v12.16h-65.76v36.32h59.36v12.16h-59.36v41.12h65.12v12.16h-78.56v-113.92h79.2Z"/>
      <path class="uuid-7d4e16b0-d8a1-4a03-8ecb-034bd344a928" d="M934.68,413.2v-38.4h13.28v113.92h-16.32l-37.76-58.72c-10.88-17.28-18.77-30.13-23.68-38.56.32,14.94.48,34.56.48,58.88v38.4h-13.28v-113.92h16.32l37.76,58.72c10.88,17.28,18.77,30.13,23.68,38.56-.32-14.93-.48-34.56-.48-58.88Z"/>
      <path class="uuid-7d4e16b0-d8a1-4a03-8ecb-034bd344a928" d="M955.32,374.8h91.36v12.16h-38.72v101.76h-13.92v-101.76h-38.72v-12.16Z"/>
      <path class="uuid-7d4e16b0-d8a1-4a03-8ecb-034bd344a928" d="M1052.6,488.72h-16.16v-16h16.16v16Z"/>
    </g>
    <g class="uuid-36c9adce-6de2-453a-b800-4443b2e71f3e">
      <path class="uuid-7d4e16b0-d8a1-4a03-8ecb-034bd344a928" d="M191.96,638.72h-14.24l-13.28-33.12h-51.84l-13.12,33.12h-14.08l45.44-113.92h15.04l46.08,113.92ZM117.88,592.16l-.48,1.28h42.24l-.64-1.44c-2.67-6.5-9.6-24.05-20.8-52.64-7.58,20.27-14.35,37.87-20.32,52.8Z"/>
      <path class="uuid-7d4e16b0-d8a1-4a03-8ecb-034bd344a928" d="M238.36,641.28c-15.47,0-28.11-5.38-37.92-16.16-9.81-10.77-14.72-25.23-14.72-43.36s4.9-32.58,14.72-43.36c9.81-10.77,22.45-16.16,37.92-16.16,12.26,0,22.72,3.34,31.36,10,8.64,6.67,14.34,16.4,17.12,29.2h-13.6c-4.8-17.92-16.43-26.88-34.88-26.88-11.63,0-20.96,4.16-28,12.48-7.04,8.43-10.56,20-10.56,34.72s3.52,26.24,10.56,34.56c7.04,8.43,16.37,12.64,28,12.64,8.74,0,16.53-2.72,23.36-8.16,6.72-5.22,10.82-13.07,12.32-23.52h13.44c-1.49,14.19-6.88,25.02-16.16,32.48-9.39,7.68-20.38,11.52-32.96,11.52Z"/>
      <path class="uuid-7d4e16b0-d8a1-4a03-8ecb-034bd344a928" d="M279.64,524.8h91.36v12.16h-38.72v101.76h-13.92v-101.76h-38.72v-12.16Z"/>
      <path class="uuid-7d4e16b0-d8a1-4a03-8ecb-034bd344a928" d="M391.8,638.72h-13.44v-113.92h13.44v113.92Z"/>
      <path class="uuid-7d4e16b0-d8a1-4a03-8ecb-034bd344a928" d="M458.52,596.96l25.92-72.16h14.08l-42.24,113.92h-15.04l-42.88-113.92h14.24l26.4,72.16c4.8,13.55,8.05,22.99,9.76,28.32,1.6-5.33,4.85-14.77,9.76-28.32Z"/>
      <path class="uuid-7d4e16b0-d8a1-4a03-8ecb-034bd344a928" d="M582.84,638.72h-14.24l-13.28-33.12h-51.84l-13.12,33.12h-14.08l45.44-113.92h15.04l46.08,113.92ZM508.76,592.16l-.48,1.28h42.24l-.64-1.44c-2.67-6.5-9.6-24.05-20.8-52.64-7.58,20.27-14.35,37.87-20.32,52.8Z"/>
      <path class="uuid-7d4e16b0-d8a1-4a03-8ecb-034bd344a928" d="M560.6,524.8h91.36v12.16h-38.72v101.76h-13.92v-101.76h-38.72v-12.16Z"/>
      <path class="uuid-7d4e16b0-d8a1-4a03-8ecb-034bd344a928" d="M672.76,638.72h-13.44v-113.92h13.44v113.92Z"/>
      <path class="uuid-7d4e16b0-d8a1-4a03-8ecb-034bd344a928" d="M778.36,624.8c-10.03,10.99-23.25,16.48-39.68,16.48s-29.6-5.49-39.52-16.48c-10.03-10.77-15.04-25.12-15.04-43.04s5.01-32.21,15.04-43.2c9.92-10.88,23.09-16.32,39.52-16.32s29.65,5.44,39.68,16.32c9.92,11.09,14.88,25.5,14.88,43.2s-4.96,32.16-14.88,43.04ZM709.24,616.16c7.36,8.53,17.17,12.8,29.44,12.8s22.08-4.27,29.44-12.8c7.36-8.43,11.04-19.89,11.04-34.4s-3.68-25.97-11.04-34.4c-7.36-8.53-17.18-12.8-29.44-12.8s-22.08,4.27-29.44,12.8c-7.36,8.43-11.04,19.9-11.04,34.4s3.68,25.97,11.04,34.4Z"/>
      <path class="uuid-7d4e16b0-d8a1-4a03-8ecb-034bd344a928" d="M881.88,563.2v-38.4h13.28v113.92h-16.32l-37.76-58.72c-10.88-17.28-18.77-30.13-23.68-38.56.32,14.94.48,34.56.48,58.88v38.4h-13.28v-113.92h16.32l37.76,58.72c10.88,17.28,18.77,30.13,23.68,38.56-.32-14.93-.48-34.56-.48-58.88Z"/>
      <path class="uuid-7d4e16b0-d8a1-4a03-8ecb-034bd344a928" d="M922.68,638.72h-16.16v-16h16.16v16Z"/>
    </g>
    <g class="uuid-36c9adce-6de2-453a-b800-4443b2e71f3e">
      <path class="uuid-7d4e16b0-d8a1-4a03-8ecb-034bd344a928" d="M106.84,788.72h-13.44v-113.92h13.44v113.92Z"/>
      <path class="uuid-7d4e16b0-d8a1-4a03-8ecb-034bd344a928" d="M200.28,713.2v-38.4h13.28v113.92h-16.32l-37.76-58.72c-10.88-17.28-18.77-30.13-23.68-38.56.32,14.94.48,34.56.48,58.88v38.4h-13.28v-113.92h16.32l37.76,58.72c10.88,17.28,18.77,30.13,23.68,38.56-.32-14.93-.48-34.56-.48-58.88Z"/>
      <path class="uuid-7d4e16b0-d8a1-4a03-8ecb-034bd344a928" d="M271.48,791.28c-14.83,0-26.4-3.36-34.72-10.08-8.32-6.72-12.54-16.75-12.64-30.08h13.92c.32,18.67,11.46,28,33.44,28,9.28,0,16.4-1.81,21.36-5.44,4.96-3.62,7.44-8.91,7.44-15.84,0-5.44-2.06-9.68-6.16-12.72-4.11-3.04-11.28-5.68-21.52-7.92l-10.08-2.24c-11.52-2.67-20.16-6.53-25.92-11.6-5.76-5.06-8.64-12.18-8.64-21.36s3.52-16.29,10.56-21.68c7.04-5.38,16.48-8.08,28.32-8.08,8,0,14.96.96,20.88,2.88s10.53,4.61,13.84,8.08c3.3,3.47,5.73,7.23,7.28,11.28,1.54,4.06,2.37,8.54,2.48,13.44h-13.76c-.64-8.11-3.28-14.05-7.92-17.84-4.64-3.79-12.24-5.68-22.8-5.68-8,0-14.16,1.55-18.48,4.64-4.32,3.09-6.48,7.42-6.48,12.96s1.86,9.87,5.6,12.96c3.62,3.09,10.67,5.81,21.12,8.16l10.08,2.24c12.58,2.78,21.65,6.75,27.2,11.92,5.54,5.18,8.32,12.03,8.32,20.56,0,10.35-3.79,18.51-11.36,24.48-7.58,5.98-18.03,8.96-31.36,8.96Z"/>
      <path class="uuid-7d4e16b0-d8a1-4a03-8ecb-034bd344a928" d="M308.76,674.8h91.36v12.16h-38.72v101.76h-13.92v-101.76h-38.72v-12.16Z"/>
      <path class="uuid-7d4e16b0-d8a1-4a03-8ecb-034bd344a928" d="M484.44,788.72h-14.24l-13.28-33.12h-51.84l-13.12,33.12h-14.08l45.44-113.92h15.04l46.08,113.92ZM410.36,742.16l-.48,1.28h42.24l-.64-1.44c-2.67-6.5-9.6-24.05-20.8-52.64-7.58,20.27-14.35,37.87-20.32,52.8Z"/>
      <path class="uuid-7d4e16b0-d8a1-4a03-8ecb-034bd344a928" d="M502.84,674.8v101.76h57.28v12.16h-70.72v-113.92h13.44Z"/>
      <path class="uuid-7d4e16b0-d8a1-4a03-8ecb-034bd344a928" d="M582.52,674.8v101.76h57.28v12.16h-70.72v-113.92h13.44Z"/>
      <path class="uuid-7d4e16b0-d8a1-4a03-8ecb-034bd344a928" d="M745.72,788.72h-14.24l-13.28-33.12h-51.84l-13.12,33.12h-14.08l45.44-113.92h15.04l46.08,113.92ZM671.64,742.16l-.48,1.28h42.24l-.64-1.44c-2.67-6.5-9.6-24.05-20.8-52.64-7.58,20.27-14.35,37.87-20.32,52.8Z"/>
      <path class="uuid-7d4e16b0-d8a1-4a03-8ecb-034bd344a928" d="M723.48,674.8h91.36v12.16h-38.72v101.76h-13.92v-101.76h-38.72v-12.16Z"/>
      <path class="uuid-7d4e16b0-d8a1-4a03-8ecb-034bd344a928" d="M835.64,788.72h-13.44v-113.92h13.44v113.92Z"/>
      <path class="uuid-7d4e16b0-d8a1-4a03-8ecb-034bd344a928" d="M941.24,774.8c-10.03,10.99-23.25,16.48-39.68,16.48s-29.6-5.49-39.52-16.48c-10.03-10.77-15.04-25.12-15.04-43.04s5.01-32.21,15.04-43.2c9.92-10.88,23.09-16.32,39.52-16.32s29.65,5.44,39.68,16.32c9.92,11.09,14.88,25.5,14.88,43.2s-4.96,32.16-14.88,43.04ZM872.12,766.16c7.36,8.53,17.17,12.8,29.44,12.8s22.08-4.27,29.44-12.8c7.36-8.43,11.04-19.89,11.04-34.4s-3.68-25.97-11.04-34.4c-7.36-8.53-17.18-12.8-29.44-12.8s-22.08,4.27-29.44,12.8c-7.36,8.43-11.04,19.9-11.04,34.4s3.68,25.97,11.04,34.4Z"/>
      <path class="uuid-7d4e16b0-d8a1-4a03-8ecb-034bd344a928" d="M1044.76,713.2v-38.4h13.28v113.92h-16.32l-37.76-58.72c-10.88-17.28-18.77-30.13-23.68-38.56.32,14.94.48,34.56.48,58.88v38.4h-13.28v-113.92h16.32l37.76,58.72c10.88,17.28,18.77,30.13,23.68,38.56-.32-14.93-.48-34.56-.48-58.88Z"/>
      <path class="uuid-7d4e16b0-d8a1-4a03-8ecb-034bd344a928" d="M1085.56,788.72h-16.16v-16h16.16v16Z"/>
    </g>
    <g class="uuid-36c9adce-6de2-453a-b800-4443b2e71f3e">
      <path class="uuid-7d4e16b0-d8a1-4a03-8ecb-034bd344a928" d="M182.84,924.8c-10.03,10.99-23.25,16.48-39.68,16.48s-29.6-5.49-39.52-16.48c-10.03-10.77-15.04-25.12-15.04-43.04s5.01-32.21,15.04-43.2c9.92-10.88,23.09-16.32,39.52-16.32s29.65,5.44,39.68,16.32c9.92,11.09,14.88,25.5,14.88,43.2s-4.96,32.16-14.88,43.04ZM113.72,916.16c7.36,8.53,17.17,12.8,29.44,12.8s22.08-4.27,29.44-12.8c7.36-8.43,11.04-19.89,11.04-34.4s-3.68-25.97-11.04-34.4c-7.36-8.53-17.18-12.8-29.44-12.8s-22.08,4.27-29.44,12.8c-7.36,8.43-11.04,19.9-11.04,34.4s3.68,25.97,11.04,34.4Z"/>
      <path class="uuid-7d4e16b0-d8a1-4a03-8ecb-034bd344a928" d="M284.44,824.8v12.16h-61.92v36.32h55.52v12.16h-55.52v53.28h-13.44v-113.92h75.36Z"/>
      <path class="uuid-7d4e16b0-d8a1-4a03-8ecb-034bd344a928" d="M372.6,824.8v12.16h-65.76v36.32h59.36v12.16h-59.36v41.12h65.12v12.16h-78.56v-113.92h79.2Z"/>
      <path class="uuid-7d4e16b0-d8a1-4a03-8ecb-034bd344a928" d="M395.32,938.72h-16.16v-16h16.16v16Z"/>
      <path class="uuid-7d4e16b0-d8a1-4a03-8ecb-034bd344a928" d="M523.48,924.8c-10.03,10.99-23.25,16.48-39.68,16.48s-29.6-5.49-39.52-16.48c-10.03-10.77-15.04-25.12-15.04-43.04s5.01-32.21,15.04-43.2c9.92-10.88,23.09-16.32,39.52-16.32s29.65,5.44,39.68,16.32c9.92,11.09,14.88,25.5,14.88,43.2s-4.96,32.16-14.88,43.04ZM454.36,916.16c7.36,8.53,17.17,12.8,29.44,12.8s22.08-4.27,29.44-12.8c7.36-8.43,11.04-19.89,11.04-34.4s-3.68-25.97-11.04-34.4c-7.36-8.53-17.18-12.8-29.44-12.8s-22.08,4.27-29.44,12.8c-7.36,8.43-11.04,19.9-11.04,34.4s3.68,25.97,11.04,34.4Z"/>
      <path class="uuid-7d4e16b0-d8a1-4a03-8ecb-034bd344a928" d="M625.08,824.8v12.16h-61.92v36.32h55.52v12.16h-55.52v53.28h-13.44v-113.92h75.36Z"/>
      <path class="uuid-7d4e16b0-d8a1-4a03-8ecb-034bd344a928" d="M713.24,824.8v12.16h-65.76v36.32h59.36v12.16h-59.36v41.12h65.12v12.16h-78.56v-113.92h79.2Z"/>
      <path class="uuid-7d4e16b0-d8a1-4a03-8ecb-034bd344a928" d="M735.95,938.72h-16.16v-16h16.16v16Z"/>
      <path class="uuid-7d4e16b0-d8a1-4a03-8ecb-034bd344a928" d="M864.11,924.8c-10.03,10.99-23.25,16.48-39.68,16.48s-29.6-5.49-39.52-16.48c-10.03-10.77-15.04-25.12-15.04-43.04s5.01-32.21,15.04-43.2c9.92-10.88,23.09-16.32,39.52-16.32s29.65,5.44,39.68,16.32c9.92,11.09,14.88,25.5,14.88,43.2s-4.96,32.16-14.88,43.04ZM794.99,916.16c7.36,8.53,17.17,12.8,29.44,12.8s22.08-4.27,29.44-12.8c7.36-8.43,11.04-19.89,11.04-34.4s-3.68-25.97-11.04-34.4c-7.36-8.53-17.18-12.8-29.44-12.8s-22.08,4.27-29.44,12.8c-7.36,8.43-11.04,19.9-11.04,34.4s3.68,25.97,11.04,34.4Z"/>
      <path class="uuid-7d4e16b0-d8a1-4a03-8ecb-034bd344a928" d="M965.71,824.8v12.16h-61.92v36.32h55.52v12.16h-55.52v53.28h-13.44v-113.92h75.36Z"/>
      <path class="uuid-7d4e16b0-d8a1-4a03-8ecb-034bd344a928" d="M1053.87,824.8v12.16h-65.76v36.32h59.36v12.16h-59.36v41.12h65.12v12.16h-78.56v-113.92h79.2Z"/>
      <path class="uuid-7d4e16b0-d8a1-4a03-8ecb-034bd344a928" d="M1076.59,938.72h-16.16v-16h16.16v16Z"/>
    </g>
    <g class="uuid-36c9adce-6de2-453a-b800-4443b2e71f3e">
      <path class="uuid-7d4e16b0-d8a1-4a03-8ecb-034bd344a928" d="M170.36,1023.76v-48.96h13.44v113.92h-13.44v-52.48h-63.52v52.48h-13.44v-113.92h13.44v48.96h63.52Z"/>
      <path class="uuid-7d4e16b0-d8a1-4a03-8ecb-034bd344a928" d="M289.4,1074.8c-10.03,10.99-23.25,16.48-39.68,16.48s-29.6-5.49-39.52-16.48c-10.03-10.77-15.04-25.12-15.04-43.04s5.01-32.21,15.04-43.2c9.92-10.88,23.09-16.32,39.52-16.32s29.65,5.44,39.68,16.32c9.92,11.09,14.88,25.5,14.88,43.2s-4.96,32.16-14.88,43.04ZM220.28,1066.16c7.36,8.53,17.17,12.8,29.44,12.8s22.08-4.27,29.44-12.8c7.36-8.43,11.04-19.89,11.04-34.4s-3.68-25.97-11.04-34.4c-7.36-8.53-17.18-12.8-29.44-12.8s-22.08,4.27-29.44,12.8c-7.36,8.43-11.04,19.9-11.04,34.4s3.68,25.97,11.04,34.4Z"/>
      <path class="uuid-7d4e16b0-d8a1-4a03-8ecb-034bd344a928" d="M329.08,974.8v101.76h57.28v12.16h-70.72v-113.92h13.44Z"/>
      <path class="uuid-7d4e16b0-d8a1-4a03-8ecb-034bd344a928" d="M408.76,974.8v101.76h57.28v12.16h-70.72v-113.92h13.44Z"/>
      <path class="uuid-7d4e16b0-d8a1-4a03-8ecb-034bd344a928" d="M510.04,1001.36l16.64-26.56h15.2l-43.52,68.16v45.76h-13.44v-45.76l-43.52-68.16h15.36l16.8,26.72c7.25,11.31,13.33,21.12,18.24,29.44,6.83-11.52,12.91-21.38,18.24-29.6Z"/>
      <path class="uuid-7d4e16b0-d8a1-4a03-8ecb-034bd344a928" d="M657.56,1030.96l15.52-56.16h13.92l-32.32,113.92h-15.04l-16.32-58.08c-4.59-16.42-8.05-29.28-10.4-38.56-2.35,9.28-5.81,22.13-10.4,38.56l-16.32,58.08h-15.04l-32.32-113.92h13.92l15.52,56.16c4.91,17.39,8.48,30.99,10.72,40.8,3.73-14.29,7.36-28,10.88-41.12l15.52-55.84h15.04l15.52,55.84c3.62,13.12,7.25,26.83,10.88,41.12,2.24-9.81,5.81-23.41,10.72-40.8Z"/>
      <path class="uuid-7d4e16b0-d8a1-4a03-8ecb-034bd344a928" d="M779.8,1074.8c-10.03,10.99-23.25,16.48-39.68,16.48s-29.6-5.49-39.52-16.48c-10.03-10.77-15.04-25.12-15.04-43.04s5.01-32.21,15.04-43.2c9.92-10.88,23.09-16.32,39.52-16.32s29.65,5.44,39.68,16.32c9.92,11.09,14.88,25.5,14.88,43.2s-4.96,32.16-14.88,43.04ZM710.68,1066.16c7.36,8.53,17.17,12.8,29.44,12.8s22.08-4.27,29.44-12.8c7.36-8.43,11.04-19.89,11.04-34.4s-3.68-25.97-11.04-34.4c-7.36-8.53-17.18-12.8-29.44-12.8s-22.08,4.27-29.44,12.8c-7.36,8.43-11.04,19.9-11.04,34.4s3.68,25.97,11.04,34.4Z"/>
      <path class="uuid-7d4e16b0-d8a1-4a03-8ecb-034bd344a928" d="M895.48,1074.8c-10.03,10.99-23.25,16.48-39.68,16.48s-29.6-5.49-39.52-16.48c-10.03-10.77-15.04-25.12-15.04-43.04s5.01-32.21,15.04-43.2c9.92-10.88,23.09-16.32,39.52-16.32s29.65,5.44,39.68,16.32c9.92,11.09,14.88,25.5,14.88,43.2s-4.96,32.16-14.88,43.04ZM826.36,1066.16c7.36,8.53,17.17,12.8,29.44,12.8s22.08-4.27,29.44-12.8c7.36-8.43,11.04-19.89,11.04-34.4s-3.68-25.97-11.04-34.4c-7.36-8.53-17.18-12.8-29.44-12.8s-22.08,4.27-29.44,12.8c-7.36,8.43-11.04,19.9-11.04,34.4s3.68,25.97,11.04,34.4Z"/>
      <path class="uuid-7d4e16b0-d8a1-4a03-8ecb-034bd344a928" d="M921.72,974.8h38.4c17.28,0,30.93,5.01,40.96,15.04,9.92,10.03,14.88,24,14.88,41.92s-4.96,31.63-14.88,41.76c-10.13,10.13-23.79,15.2-40.96,15.2h-38.4v-113.92ZM935.16,1076.56h24.96c13.44,0,23.76-3.95,30.96-11.84,7.2-7.89,10.8-18.88,10.8-32.96s-3.6-25.07-10.8-32.96c-7.2-7.89-17.52-11.84-30.96-11.84h-24.96v89.6Z"/>
      <path class="uuid-7d4e16b0-d8a1-4a03-8ecb-034bd344a928" d="M1032.28,1088.72h-16.16v-16h16.16v16Z"/>
    </g>
    <g class="uuid-36c9adce-6de2-453a-b800-4443b2e71f3e">
      <path class="uuid-7d4e16b0-d8a1-4a03-8ecb-034bd344a928" d="M172.6,1124.8v12.16h-65.76v36.32h59.36v12.16h-59.36v41.12h65.12v12.16h-78.56v-113.92h79.2Z"/>
      <path class="uuid-7d4e16b0-d8a1-4a03-8ecb-034bd344a928" d="M195.8,1124.8v101.76h57.28v12.16h-70.72v-113.92h13.44Z"/>
      <path class="uuid-7d4e16b0-d8a1-4a03-8ecb-034bd344a928" d="M335.64,1241.28c-15.47,0-28.11-5.38-37.92-16.16-9.81-10.77-14.72-25.23-14.72-43.36s4.9-32.58,14.72-43.36c9.81-10.77,22.45-16.16,37.92-16.16,12.26,0,22.72,3.34,31.36,10,8.64,6.67,14.34,16.4,17.12,29.2h-13.6c-4.8-17.92-16.43-26.88-34.88-26.88-11.63,0-20.96,4.16-28,12.48-7.04,8.43-10.56,20-10.56,34.72s3.52,26.24,10.56,34.56c7.04,8.43,16.37,12.64,28,12.64,8.74,0,16.53-2.72,23.36-8.16,6.72-5.22,10.82-13.07,12.32-23.52h13.44c-1.49,14.19-6.88,25.02-16.16,32.48-9.39,7.68-20.38,11.52-32.96,11.52Z"/>
      <path class="uuid-7d4e16b0-d8a1-4a03-8ecb-034bd344a928" d="M487.47,1238.72h-14.24l-13.28-33.12h-51.84l-13.12,33.12h-14.08l45.44-113.92h15.04l46.08,113.92ZM413.39,1192.16l-.48,1.28h42.24l-.64-1.44c-2.67-6.5-9.6-24.05-20.8-52.64-7.58,20.27-14.35,37.87-20.32,52.8Z"/>
      <path class="uuid-7d4e16b0-d8a1-4a03-8ecb-034bd344a928" d="M492.44,1124.8h47.36c12.05,0,21.36,3.15,27.92,9.44,6.56,6.3,9.84,14.83,9.84,25.6s-3.28,19.31-9.84,25.6c-6.56,6.29-15.87,9.44-27.92,9.44h-33.92v43.84h-13.44v-113.92ZM505.88,1182.72h33.92c7.89,0,13.84-1.95,17.84-5.84,4-3.89,6-9.57,6-17.04s-2-13.15-6-17.04c-4-3.89-9.95-5.84-17.84-5.84h-33.92v45.76Z"/>
      <path class="uuid-7d4e16b0-d8a1-4a03-8ecb-034bd344a928" d="M601.4,1238.72h-13.44v-113.92h13.44v113.92Z"/>
      <path class="uuid-7d4e16b0-d8a1-4a03-8ecb-034bd344a928" d="M608.76,1124.8h91.36v12.16h-38.72v101.76h-13.92v-101.76h-38.72v-12.16Z"/>
      <path class="uuid-7d4e16b0-d8a1-4a03-8ecb-034bd344a928" d="M784.44,1238.72h-14.24l-13.28-33.12h-51.84l-13.12,33.12h-14.08l45.44-113.92h15.04l46.08,113.92ZM710.36,1192.16l-.48,1.28h42.24l-.64-1.44c-2.67-6.5-9.6-24.05-20.8-52.64-7.58,20.27-14.35,37.87-20.32,52.8Z"/>
      <path class="uuid-7d4e16b0-d8a1-4a03-8ecb-034bd344a928" d="M866.68,1163.2v-38.4h13.28v113.92h-16.32l-37.76-58.72c-10.88-17.28-18.77-30.13-23.68-38.56.32,14.94.48,34.56.48,58.88v38.4h-13.28v-113.92h16.32l37.76,58.72c10.88,17.28,18.77,30.13,23.68,38.56-.32-14.93-.48-34.56-.48-58.88Z"/>
      <path class="uuid-7d4e16b0-d8a1-4a03-8ecb-034bd344a928" d="M907.48,1238.72h-16.16v-16h16.16v16Z"/>
    </g>
    <g class="uuid-36c9adce-6de2-453a-b800-4443b2e71f3e">
      <path class="uuid-7d4e16b0-d8a1-4a03-8ecb-034bd344a928" d="M86.2,1274.8h91.36v12.16h-38.72v101.76h-13.92v-101.76h-38.72v-12.16Z"/>
      <path class="uuid-7d4e16b0-d8a1-4a03-8ecb-034bd344a928" d="M261.88,1323.76v-48.96h13.44v113.92h-13.44v-52.48h-63.52v52.48h-13.44v-113.92h13.44v48.96h63.52Z"/>
      <path class="uuid-7d4e16b0-d8a1-4a03-8ecb-034bd344a928" d="M370.68,1274.8v12.16h-65.76v36.32h59.36v12.16h-59.36v41.12h65.12v12.16h-78.56v-113.92h79.2Z"/>
      <path class="uuid-7d4e16b0-d8a1-4a03-8ecb-034bd344a928" d="M495.63,1374.8c-10.03,10.99-23.25,16.48-39.68,16.48s-29.6-5.49-39.52-16.48c-10.03-10.77-15.04-25.12-15.04-43.04s5.01-32.21,15.04-43.2c9.92-10.88,23.09-16.32,39.52-16.32s29.65,5.44,39.68,16.32c9.92,11.09,14.88,25.5,14.88,43.2s-4.96,32.16-14.88,43.04ZM426.52,1366.16c7.36,8.53,17.17,12.8,29.44,12.8s22.08-4.27,29.44-12.8c7.36-8.43,11.04-19.89,11.04-34.4s-3.68-25.97-11.04-34.4c-7.36-8.53-17.18-12.8-29.44-12.8s-22.08,4.27-29.44,12.8c-7.36,8.43-11.04,19.9-11.04,34.4s3.68,25.97,11.04,34.4Z"/>
      <path class="uuid-7d4e16b0-d8a1-4a03-8ecb-034bd344a928" d="M562.04,1391.28c-14.83,0-26.4-3.36-34.72-10.08-8.32-6.72-12.54-16.75-12.64-30.08h13.92c.32,18.67,11.46,28,33.44,28,9.28,0,16.4-1.81,21.36-5.44,4.96-3.62,7.44-8.91,7.44-15.84,0-5.44-2.06-9.68-6.16-12.72-4.11-3.04-11.28-5.68-21.52-7.92l-10.08-2.24c-11.52-2.67-20.16-6.53-25.92-11.6-5.76-5.06-8.64-12.18-8.64-21.36s3.52-16.29,10.56-21.68c7.04-5.38,16.48-8.08,28.32-8.08,8,0,14.96.96,20.88,2.88s10.53,4.61,13.84,8.08c3.3,3.47,5.73,7.23,7.28,11.28,1.54,4.06,2.37,8.54,2.48,13.44h-13.76c-.64-8.11-3.28-14.05-7.92-17.84-4.64-3.79-12.24-5.68-22.8-5.68-8,0-14.16,1.55-18.48,4.64-4.32,3.09-6.48,7.42-6.48,12.96s1.86,9.87,5.6,12.96c3.62,3.09,10.67,5.81,21.12,8.16l10.08,2.24c12.58,2.78,21.65,6.75,27.2,11.92,5.54,5.18,8.32,12.03,8.32,20.56,0,10.35-3.79,18.51-11.36,24.48-7.58,5.98-18.03,8.96-31.36,8.96Z"/>
      <path class="uuid-7d4e16b0-d8a1-4a03-8ecb-034bd344a928" d="M662.36,1391.28c-15.47,0-28.11-5.38-37.92-16.16-9.81-10.77-14.72-25.23-14.72-43.36s4.9-32.58,14.72-43.36c9.81-10.77,22.45-16.16,37.92-16.16,12.26,0,22.72,3.34,31.36,10,8.64,6.67,14.34,16.4,17.12,29.2h-13.6c-4.8-17.92-16.43-26.88-34.88-26.88-11.63,0-20.96,4.16-28,12.48-7.04,8.43-10.56,20-10.56,34.72s3.52,26.24,10.56,34.56c7.04,8.43,16.37,12.64,28,12.64,8.74,0,16.53-2.72,23.36-8.16,6.72-5.22,10.82-13.07,12.32-23.52h13.44c-1.49,14.19-6.88,25.02-16.16,32.48-9.39,7.68-20.38,11.52-32.96,11.52Z"/>
      <path class="uuid-7d4e16b0-d8a1-4a03-8ecb-034bd344a928" d="M814.19,1388.72h-14.24l-13.28-33.12h-51.84l-13.12,33.12h-14.08l45.44-113.92h15.04l46.08,113.92ZM740.11,1342.16l-.48,1.28h42.24l-.64-1.44c-2.67-6.5-9.6-24.05-20.8-52.64-7.58,20.27-14.35,37.87-20.32,52.8Z"/>
      <path class="uuid-7d4e16b0-d8a1-4a03-8ecb-034bd344a928" d="M902.84,1355.76l1.12,18.4c.53,6.4,1.92,11.25,4.16,14.56h-13.92c-2.35-3.41-3.57-8.48-3.68-15.2l-.48-12.16c-.32-7.68-2.03-13.14-5.12-16.4-3.1-3.25-8.16-4.88-15.2-4.88h-37.12v48.64h-13.44v-113.92h48.16c11.73,0,21.09,2.72,28.08,8.16,6.98,5.44,10.48,13.07,10.48,22.88,0,6.93-1.68,12.77-5.04,17.52-3.36,4.75-7.92,8.08-13.68,10,9.6,2.99,14.83,10.46,15.68,22.4ZM832.6,1327.92h36.32c7.15,0,12.77-1.84,16.88-5.52,4.1-3.68,6.16-8.93,6.16-15.76s-2.16-11.41-6.48-14.72c-4.32-3.31-10.38-4.96-18.16-4.96h-34.72v40.96Z"/>
      <path class="uuid-7d4e16b0-d8a1-4a03-8ecb-034bd344a928" d="M959.64,1391.28c-14.83,0-26.4-3.36-34.72-10.08-8.32-6.72-12.54-16.75-12.64-30.08h13.92c.32,18.67,11.46,28,33.44,28,9.28,0,16.4-1.81,21.36-5.44,4.96-3.62,7.44-8.91,7.44-15.84,0-5.44-2.05-9.68-6.16-12.72-4.11-3.04-11.28-5.68-21.52-7.92l-10.08-2.24c-11.52-2.67-20.16-6.53-25.92-11.6-5.76-5.06-8.64-12.18-8.64-21.36s3.52-16.29,10.56-21.68c7.04-5.38,16.48-8.08,28.32-8.08,8,0,14.96.96,20.88,2.88s10.53,4.61,13.84,8.08c3.3,3.47,5.73,7.23,7.28,11.28,1.54,4.06,2.37,8.54,2.48,13.44h-13.76c-.64-8.11-3.28-14.05-7.92-17.84-4.64-3.79-12.24-5.68-22.8-5.68-8,0-14.16,1.55-18.48,4.64-4.32,3.09-6.48,7.42-6.48,12.96s1.86,9.87,5.6,12.96c3.62,3.09,10.67,5.81,21.12,8.16l10.08,2.24c12.58,2.78,21.65,6.75,27.2,11.92,5.54,5.18,8.32,12.03,8.32,20.56,0,10.35-3.79,18.51-11.36,24.48-7.58,5.98-18.03,8.96-31.36,8.96Z"/>
      <path class="uuid-7d4e16b0-d8a1-4a03-8ecb-034bd344a928" d="M1025.07,1388.72h-16.16v-16h16.16v16Z"/>
    </g>
    <g class="uuid-36c9adce-6de2-453a-b800-4443b2e71f3e">
      <path class="uuid-7d4e16b0-d8a1-4a03-8ecb-034bd344a928" d="M177.08,1505.76l1.12,18.4c.53,6.4,1.92,11.25,4.16,14.56h-13.92c-2.35-3.41-3.57-8.48-3.68-15.2l-.48-12.16c-.32-7.68-2.03-13.14-5.12-16.4-3.1-3.25-8.16-4.88-15.2-4.88h-37.12v48.64h-13.44v-113.92h48.16c11.73,0,21.09,2.72,28.08,8.16,6.98,5.44,10.48,13.07,10.48,22.88,0,6.93-1.68,12.77-5.04,17.52-3.36,4.75-7.92,8.08-13.68,10,9.6,2.99,14.83,10.46,15.68,22.4ZM106.84,1477.92h36.32c7.15,0,12.77-1.84,16.88-5.52,4.1-3.68,6.16-8.93,6.16-15.76s-2.16-11.41-6.48-14.72c-4.32-3.31-10.38-4.96-18.16-4.96h-34.72v40.96Z"/>
      <path class="uuid-7d4e16b0-d8a1-4a03-8ecb-034bd344a928" d="M271.32,1424.8v12.16h-65.76v36.32h59.36v12.16h-59.36v41.12h65.12v12.16h-78.56v-113.92h79.2Z"/>
      <path class="uuid-7d4e16b0-d8a1-4a03-8ecb-034bd344a928" d="M281.08,1424.8h38.4c17.28,0,30.93,5.01,40.96,15.04,9.92,10.03,14.88,24,14.88,41.92s-4.96,31.63-14.88,41.76c-10.13,10.13-23.79,15.2-40.96,15.2h-38.4v-113.92ZM294.52,1526.56h24.96c13.44,0,23.76-3.95,30.96-11.84,7.2-7.89,10.8-18.88,10.8-32.96s-3.6-25.07-10.8-32.96c-7.2-7.89-17.52-11.84-30.96-11.84h-24.96v89.6Z"/>
      <path class="uuid-7d4e16b0-d8a1-4a03-8ecb-034bd344a928" d="M460.28,1541.28c-15.47,0-28.11-5.38-37.92-16.16-9.81-10.77-14.72-25.23-14.72-43.36s4.9-32.58,14.72-43.36c9.81-10.77,22.45-16.16,37.92-16.16,12.26,0,22.72,3.34,31.36,10,8.64,6.67,14.34,16.4,17.12,29.2h-13.6c-4.8-17.92-16.43-26.88-34.88-26.88-11.63,0-20.96,4.16-28,12.48-7.04,8.43-10.56,20-10.56,34.72s3.52,26.24,10.56,34.56c7.04,8.43,16.37,12.64,28,12.64,8.74,0,16.53-2.72,23.36-8.16,6.72-5.22,10.82-13.07,12.32-23.52h13.44c-1.49,14.19-6.88,25.02-16.16,32.48-9.39,7.68-20.38,11.52-32.96,11.52Z"/>
      <path class="uuid-7d4e16b0-d8a1-4a03-8ecb-034bd344a928" d="M612.11,1538.72h-14.24l-13.28-33.12h-51.84l-13.12,33.12h-14.08l45.44-113.92h15.04l46.08,113.92ZM538.03,1492.16l-.48,1.28h42.24l-.64-1.44c-2.67-6.5-9.6-24.05-20.8-52.64-7.58,20.27-14.35,37.87-20.32,52.8Z"/>
      <path class="uuid-7d4e16b0-d8a1-4a03-8ecb-034bd344a928" d="M700.76,1505.76l1.12,18.4c.53,6.4,1.92,11.25,4.16,14.56h-13.92c-2.35-3.41-3.57-8.48-3.68-15.2l-.48-12.16c-.32-7.68-2.03-13.14-5.12-16.4-3.1-3.25-8.16-4.88-15.2-4.88h-37.12v48.64h-13.44v-113.92h48.16c11.73,0,21.09,2.72,28.08,8.16,6.98,5.44,10.48,13.07,10.48,22.88,0,6.93-1.68,12.77-5.04,17.52-3.36,4.75-7.92,8.08-13.68,10,9.6,2.99,14.83,10.46,15.68,22.4ZM630.52,1477.92h36.32c7.15,0,12.77-1.84,16.88-5.52,4.1-3.68,6.16-8.93,6.16-15.76s-2.16-11.41-6.48-14.72c-4.32-3.31-10.38-4.96-18.16-4.96h-34.72v40.96Z"/>
      <path class="uuid-7d4e16b0-d8a1-4a03-8ecb-034bd344a928" d="M715.8,1424.8h47.36c12.05,0,21.36,3.15,27.92,9.44,6.56,6.3,9.84,14.83,9.84,25.6s-3.28,19.31-9.84,25.6c-6.56,6.29-15.87,9.44-27.92,9.44h-33.92v43.84h-13.44v-113.92ZM729.24,1482.72h33.92c7.89,0,13.84-1.95,17.84-5.84,4-3.89,6-9.57,6-17.04s-2-13.15-6-17.04c-4-3.89-9.95-5.84-17.84-5.84h-33.92v45.76Z"/>
      <path class="uuid-7d4e16b0-d8a1-4a03-8ecb-034bd344a928" d="M890.52,1424.8v12.16h-65.76v36.32h59.36v12.16h-59.36v41.12h65.12v12.16h-78.56v-113.92h79.2Z"/>
      <path class="uuid-7d4e16b0-d8a1-4a03-8ecb-034bd344a928" d="M892.28,1424.8h91.36v12.16h-38.72v101.76h-13.92v-101.76h-38.72v-12.16Z"/>
      <path class="uuid-7d4e16b0-d8a1-4a03-8ecb-034bd344a928" d="M989.56,1538.72h-16.16v-16h16.16v16Z"/>
    </g>
    <g class="uuid-36c9adce-6de2-453a-b800-4443b2e71f3e">
      <path class="uuid-7d4e16b0-d8a1-4a03-8ecb-034bd344a928" d="M172.6,1574.8v12.16h-65.76v36.32h59.36v12.16h-59.36v41.12h65.12v12.16h-78.56v-113.92h79.2Z"/>
      <path class="uuid-7d4e16b0-d8a1-4a03-8ecb-034bd344a928" d="M267.96,1574.8l-38.56,55.04,40.8,58.88h-15.68l-16.96-24.64c-2.56-3.62-7.95-11.52-16.16-23.68-3.1,4.59-8.54,12.48-16.32,23.68l-17.28,24.64h-15.04l41.12-58.4-38.88-55.52h15.68l15.52,22.56c6.72,9.6,11.84,17.18,15.36,22.72,3.3-5.01,8.53-12.64,15.68-22.88l15.68-22.4h15.04Z"/>
      <path class="uuid-7d4e16b0-d8a1-4a03-8ecb-034bd344a928" d="M278.36,1574.8h47.36c12.05,0,21.36,3.15,27.92,9.44,6.56,6.3,9.84,14.83,9.84,25.6s-3.28,19.31-9.84,25.6c-6.56,6.29-15.87,9.44-27.92,9.44h-33.92v43.84h-13.44v-113.92ZM291.8,1632.72h33.92c7.89,0,13.84-1.95,17.84-5.84,4-3.89,6-9.57,6-17.04s-2-13.15-6-17.04c-4-3.89-9.95-5.84-17.84-5.84h-33.92v45.76Z"/>
      <path class="uuid-7d4e16b0-d8a1-4a03-8ecb-034bd344a928" d="M453.08,1574.8v12.16h-65.76v36.32h59.36v12.16h-59.36v41.12h65.12v12.16h-78.56v-113.92h79.2Z"/>
      <path class="uuid-7d4e16b0-d8a1-4a03-8ecb-034bd344a928" d="M546.52,1655.76l1.12,18.4c.53,6.4,1.92,11.25,4.16,14.56h-13.92c-2.35-3.41-3.57-8.48-3.68-15.2l-.48-12.16c-.32-7.68-2.03-13.14-5.12-16.4-3.1-3.25-8.16-4.88-15.2-4.88h-37.12v48.64h-13.44v-113.92h48.16c11.73,0,21.09,2.72,28.08,8.16,6.98,5.44,10.48,13.07,10.48,22.88,0,6.93-1.68,12.77-5.04,17.52-3.36,4.75-7.92,8.08-13.68,10,9.6,2.99,14.83,10.46,15.68,22.4ZM476.28,1627.92h36.32c7.15,0,12.77-1.84,16.88-5.52,4.1-3.68,6.16-8.93,6.16-15.76s-2.16-11.41-6.48-14.72c-4.32-3.31-10.38-4.96-18.16-4.96h-34.72v40.96Z"/>
      <path class="uuid-7d4e16b0-d8a1-4a03-8ecb-034bd344a928" d="M575,1688.72h-13.44v-113.92h13.44v113.92Z"/>
      <path class="uuid-7d4e16b0-d8a1-4a03-8ecb-034bd344a928" d="M670.36,1574.8v12.16h-65.76v36.32h59.36v12.16h-59.36v41.12h65.12v12.16h-78.56v-113.92h79.2Z"/>
      <path class="uuid-7d4e16b0-d8a1-4a03-8ecb-034bd344a928" d="M757.39,1613.2v-38.4h13.28v113.92h-16.32l-37.76-58.72c-10.88-17.28-18.77-30.13-23.68-38.56.32,14.94.48,34.56.48,58.88v38.4h-13.28v-113.92h16.32l37.76,58.72c10.88,17.28,18.77,30.13,23.68,38.56-.32-14.93-.48-34.56-.48-58.88Z"/>
      <path class="uuid-7d4e16b0-d8a1-4a03-8ecb-034bd344a928" d="M834.67,1691.28c-15.47,0-28.11-5.38-37.92-16.16-9.81-10.77-14.72-25.23-14.72-43.36s4.9-32.58,14.72-43.36c9.81-10.77,22.45-16.16,37.92-16.16,12.26,0,22.72,3.34,31.36,10,8.64,6.67,14.34,16.4,17.12,29.2h-13.6c-4.8-17.92-16.43-26.88-34.88-26.88-11.63,0-20.96,4.16-28,12.48-7.04,8.43-10.56,20-10.56,34.72s3.52,26.24,10.56,34.56c7.04,8.43,16.37,12.64,28,12.64,8.74,0,16.53-2.72,23.36-8.16,6.72-5.22,10.82-13.07,12.32-23.52h13.44c-1.49,14.19-6.88,25.02-16.16,32.48-9.39,7.68-20.38,11.52-32.96,11.52Z"/>
      <path class="uuid-7d4e16b0-d8a1-4a03-8ecb-034bd344a928" d="M973.55,1574.8v12.16h-65.76v36.32h59.36v12.16h-59.36v41.12h65.12v12.16h-78.56v-113.92h79.2Z"/>
      <path class="uuid-7d4e16b0-d8a1-4a03-8ecb-034bd344a928" d="M996.27,1688.72h-16.16v-16h16.16v16Z"/>
    </g>
  </g>
</svg>