<?xml version="1.0" encoding="UTF-8"?>
<svg id="uuid-73eff271-76a2-4857-a7a8-69e4d31a6a74" data-name="Layer 1" xmlns="http://www.w3.org/2000/svg" viewBox="0 0 1923 325.02">
  <defs>
    <style>
      .uuid-cdbbcc2c-210d-4680-8596-c56fbdb28254 {
        fill: #fff;
        stroke-width: 0px;
      }

          .st4{fill:#FFFFFF;}
	.st3{fill:#FFFFFF;}
    </style>
  </defs>
  <g>
    <polygon class="st4" points="558.57 204.42 540.69 204.42 595.89 111.89 613.77 111.89 558.57 204.42"/>
    <polygon class="st4" points="606.68 204.42 588.8 204.42 644 111.89 661.88 111.89 606.68 204.42"/>
    <polygon class="st4" points="654.78 204.42 636.91 204.42 692.11 111.89 709.99 111.89 654.78 204.42"/>
    <polygon class="st4" points="702.89 204.42 685.01 204.42 740.22 111.89 758.09 111.89 702.89 204.42"/>
    <polygon class="st4" points="751 204.42 733.12 204.42 788.32 111.89 806.2 111.89 751 204.42"/>
    <polygon class="st4" points="799.11 204.42 781.23 204.42 836.43 111.89 854.31 111.89 799.11 204.42"/>
  </g>
  <polygon class="uuid-cdbbcc2c-210d-4680-8596-c56fbdb28254" points="43 6.5 43 13 14.68 13 14.68 41.32 8.18 41.32 8.18 6.5 43 6.5"/>
  <polygon class="uuid-cdbbcc2c-210d-4680-8596-c56fbdb28254" points="1881.65 7.5 1881.65 14 1909.97 14 1909.97 42.32 1916.47 42.32 1916.47 7.5 1881.65 7.5"/>
  <polygon class="uuid-cdbbcc2c-210d-4680-8596-c56fbdb28254" points="42.33 319.44 42.33 312.95 14.01 312.95 14.01 284.62 7.51 284.62 7.51 319.44 42.33 319.44"/>
  <polygon class="uuid-cdbbcc2c-210d-4680-8596-c56fbdb28254" points="1881.65 318.44 1881.65 311.95 1909.97 311.95 1909.97 283.62 1916.47 283.62 1916.47 318.44 1881.65 318.44"/>
  <g>
    <rect class="uuid-cdbbcc2c-210d-4680-8596-c56fbdb28254" x="1680.87" y="73.09" width="2.15" height="50.44"/>
    <rect class="uuid-cdbbcc2c-210d-4680-8596-c56fbdb28254" x="1689.48" y="73.09" width="4.3" height="50.44"/>
    <rect class="uuid-cdbbcc2c-210d-4680-8596-c56fbdb28254" x="1700.23" y="73.09" width="2.15" height="50.44"/>
    <rect class="uuid-cdbbcc2c-210d-4680-8596-c56fbdb28254" x="1704.53" y="73.09" width="2.15" height="50.44"/>
    <rect class="uuid-cdbbcc2c-210d-4680-8596-c56fbdb28254" x="1715.28" y="73.09" width="2.15" height="50.44"/>
    <rect class="uuid-cdbbcc2c-210d-4680-8596-c56fbdb28254" x="1719.58" y="73.09" width="8.6" height="50.44"/>
    <rect class="uuid-cdbbcc2c-210d-4680-8596-c56fbdb28254" x="1730.34" y="73.09" width="2.15" height="50.44"/>
    <rect class="uuid-cdbbcc2c-210d-4680-8596-c56fbdb28254" x="1734.64" y="73.09" width="2.15" height="50.44"/>
    <rect class="uuid-cdbbcc2c-210d-4680-8596-c56fbdb28254" x="1743.24" y="73.09" width="4.3" height="50.44"/>
    <rect class="uuid-cdbbcc2c-210d-4680-8596-c56fbdb28254" x="1749.69" y="73.09" width="6.45" height="50.44"/>
    <rect class="uuid-cdbbcc2c-210d-4680-8596-c56fbdb28254" x="1760.44" y="73.09" width="2.15" height="50.44"/>
    <rect class="uuid-cdbbcc2c-210d-4680-8596-c56fbdb28254" x="1764.74" y="73.09" width="2.15" height="50.44"/>
    <rect class="uuid-cdbbcc2c-210d-4680-8596-c56fbdb28254" x="1775.5" y="73.09" width="2.15" height="50.44"/>
    <rect class="uuid-cdbbcc2c-210d-4680-8596-c56fbdb28254" x="1779.8" y="73.09" width="2.15" height="50.44"/>
    <rect class="uuid-cdbbcc2c-210d-4680-8596-c56fbdb28254" x="1784.1" y="73.09" width="2.15" height="50.44"/>
    <rect class="uuid-cdbbcc2c-210d-4680-8596-c56fbdb28254" x="1788.4" y="73.09" width="2.15" height="50.44"/>
    <rect class="uuid-cdbbcc2c-210d-4680-8596-c56fbdb28254" x="1792.7" y="73.09" width="6.45" height="50.44"/>
    <rect class="uuid-cdbbcc2c-210d-4680-8596-c56fbdb28254" x="1803.45" y="73.09" width="2.15" height="50.44"/>
    <rect class="uuid-cdbbcc2c-210d-4680-8596-c56fbdb28254" x="1809.91" y="73.09" width="6.45" height="50.44"/>
    <rect class="uuid-cdbbcc2c-210d-4680-8596-c56fbdb28254" x="1818.51" y="73.09" width="4.3" height="50.44"/>
    <rect class="uuid-cdbbcc2c-210d-4680-8596-c56fbdb28254" x="1824.96" y="73.09" width="4.3" height="50.44"/>
    <rect class="uuid-cdbbcc2c-210d-4680-8596-c56fbdb28254" x="1833.56" y="73.09" width="2.15" height="50.44"/>
    <rect class="uuid-cdbbcc2c-210d-4680-8596-c56fbdb28254" x="1840.01" y="73.09" width="6.45" height="50.44"/>
    <rect class="uuid-cdbbcc2c-210d-4680-8596-c56fbdb28254" x="1848.62" y="73.09" width="2.15" height="50.44"/>
    <rect class="uuid-cdbbcc2c-210d-4680-8596-c56fbdb28254" x="1859.37" y="73.09" width="2.15" height="50.44"/>
    <rect class="uuid-cdbbcc2c-210d-4680-8596-c56fbdb28254" x="1863.67" y="73.09" width="6.45" height="50.44"/>
    <rect class="uuid-cdbbcc2c-210d-4680-8596-c56fbdb28254" x="1874.42" y="73.09" width="2.15" height="50.44"/>
    <rect class="uuid-cdbbcc2c-210d-4680-8596-c56fbdb28254" x="1878.72" y="73.09" width="2.15" height="50.44"/>
    <rect class="uuid-cdbbcc2c-210d-4680-8596-c56fbdb28254" x="1883.03" y="73.09" width="2.15" height="50.44"/>
  </g>
  <g>
    <path class="st3" d="M47.94,85.88c.04-6.23,1.86-11.26,5.48-15.07,3.5-3.85,8.21-5.81,14.15-5.88,6,.07,10.76,2.03,14.28,5.88,3.53,3.81,5.32,8.83,5.35,15.07-.04,6.2-1.82,11.2-5.35,15.01-3.51,3.88-8.27,5.86-14.28,5.93-5.93-.07-10.65-2.05-14.15-5.93-3.62-3.81-5.45-8.81-5.48-15.01ZM59.86,85.88c0,2.18.27,3.98.82,5.4.51,1.44,1.17,2.58,1.96,3.4,1.66,1.5,3.3,2.23,4.93,2.19.76,0,1.61-.17,2.54-.49.9-.35,1.73-.91,2.49-1.7.81-.82,1.47-1.96,1.96-3.4.48-1.42.72-3.23.72-5.4s-.24-4.1-.72-5.57c-.5-1.46-1.15-2.57-1.96-3.32-1.7-1.46-3.38-2.17-5.04-2.11-.76,0-1.57.13-2.44.38-.87.33-1.7.91-2.49,1.73-.37.38-.72.84-1.03,1.37-.34.55-.65,1.2-.93,1.95-.55,1.46-.82,3.32-.82,5.57Z"/>
    <path class="st3" d="M103.12,92.44c0,1,.14,1.88.42,2.63.51,1.15,1.37,1.92,2.57,2.3,1.15.4,2.33.6,3.53.6,1.11.04,2.26-.2,3.45-.71,1.17-.53,1.77-1.5,1.81-2.93.04-1-.53-1.8-1.69-2.41-1.22-.56-3.54-1.29-6.94-2.19-1.6-.44-3.17-.92-4.7-1.45-1.6-.53-3.05-1.2-4.35-2.02-1.31-.82-2.38-1.91-3.2-3.25-.86-1.26-1.28-2.88-1.28-4.87.07-4.63,1.69-8,4.87-10.12,3.04-2.06,6.62-3.09,10.75-3.09,4.32-.04,8.05.89,11.17,2.78,3.04,2.02,4.7,5.43,4.98,10.23h-11.29c.14-1.49-.33-2.54-1.4-3.18-1.06-.65-2.24-.98-3.53-.98-.88,0-1.79.16-2.73.49-.42.18-.79.45-1.09.79-.32.36-.48.83-.48,1.39.07.67.45,1.23,1.14,1.67.65.49,1.5.92,2.55,1.29,2.21.67,4.73,1.37,7.56,2.08,1.5.38,2.94.85,4.31,1.39,1.35.53,2.58,1.24,3.69,2.13,1.13.89,2.02,1.98,2.68,3.25.6,1.35.9,2.94.9,4.76-.11,5.12-2.03,8.71-5.75,10.75-3.67,2.06-7.83,3.07-12.48,3.04-1.15,0-2.66-.17-4.54-.52-1.89-.33-3.81-.98-5.75-1.94-1.93-.98-3.56-2.44-4.89-4.38-1.35-1.86-2.08-4.38-2.19-7.55h11.89Z"/>
    <path class="st3" d="M155.4,80.79c-.04-.42-.14-.97-.32-1.65-.21-.64-.54-1.27-.98-1.89-.42-.71-1.04-1.3-1.85-1.75-.8-.4-1.82-.6-3.07-.6-2.72.07-4.63,1.23-5.74,3.48-1.13,2.19-1.68,4.7-1.64,7.51-.04,2.82.51,5.32,1.64,7.51,1.11,2.29,3.03,3.45,5.75,3.48,1.98,0,3.46-.65,4.45-1.95.94-1.24,1.54-2.82,1.83-4.72h11.73c-.04,4.21-1.55,7.97-4.56,11.29-3,3.44-7.38,5.22-13.14,5.33-6.25-.07-11.08-2.11-14.49-6.1-3.43-3.88-5.14-8.83-5.14-14.85.04-6.42,1.82-11.49,5.35-15.23,3.48-3.77,8.24-5.68,14.28-5.71,10.63.29,16.47,5.57,17.53,15.85h-11.63Z"/>
    <path class="st3" d="M184.23,65.9h11.66l14.12,39.98h-12.37l-1.62-5.71h-12.32l-1.75,5.71h-11.97l14.25-39.98ZM193.61,91.63l-3.47-12.36h-.11l-3.73,12.36h7.31Z"/>
    <path class="st3" d="M213.18,65.9h23.21c3.57,0,6.6.95,9.09,2.84,2.47,1.91,3.74,4.78,3.81,8.59,0,2.12-.46,4.11-1.39,5.99-1.02,1.82-2.55,3.16-4.59,4.02,3.43,1.46,5.39,4.79,5.88,9.98.07.47.12,1.08.16,1.83.07.75.12,1.55.16,2.41.14,1.8.47,3.25.98,4.32h-11.94c-.53-2.03-.85-4.08-.95-6.16-.04-.99-.14-1.96-.31-2.93-.15-.89-.41-1.72-.79-2.47-.36-.75-.9-1.34-1.64-1.78-.73-.42-1.73-.63-2.99-.63h-6.77v13.97h-11.92v-39.98ZM225.1,83.37h6.68c1.3.04,2.54-.19,3.71-.68,1.23-.47,1.86-1.58,1.9-3.31,0-1.29-.42-2.28-1.27-2.95-.96-.67-2.64-1.01-5.04-1.01h-5.97v7.96Z"/>
    <path class="st3" d="M49.09,137.9h29.92v10.22h-18v5.01h15.46v9.52h-15.46v15.23h-11.92v-39.98Z"/>
    <path class="st3" d="M92,137.9h11.66l14.12,39.98h-12.37l-1.62-5.71h-12.32l-1.75,5.71h-11.97l14.25-39.98ZM101.38,163.63l-3.47-12.36h-.11l-3.73,12.36h7.31Z"/>
    <path class="st3" d="M121.77,137.9h12.21l11.26,21.38h.13v-21.38h11.26v39.98h-11.63l-11.86-21.85h-.11v21.85h-11.26v-39.98Z"/>
    <path class="st3" d="M49.09,209.9h32.04v10.22h-20.12v5.01h18.27v9.52h-18.27v5.01h20.73v10.22h-32.65v-39.98Z"/>
    <path class="st3" d="M99.21,228.57l-13.15-18.67h14.44l6.04,10.86,5.93-10.86h13.67l-12.82,18.79,14.27,21.19h-14.85l-6.81-11.92-7.08,11.92h-14.11l14.46-21.3Z"/>
    <path class="st3" d="M130,209.9h20.37c2.7,0,4.99.43,6.87,1.29,1.86.86,3.34,1.98,4.44,3.36,2.18,2.95,3.25,5.96,3.22,9.02-.04,4.78-1.5,8.34-4.38,10.69-2.88,2.35-6.66,3.53-11.32,3.53h-7.27v12.09h-11.92v-39.98ZM141.92,228.27h4.92c1.73.04,3.28-.17,4.64-.63.66-.29,1.2-.74,1.61-1.34.36-.57.54-1.34.54-2.31-.04-1.79-.64-2.9-1.81-3.32-1.19-.4-2.59-.59-4.21-.55h-5.68v8.15Z"/>
    <path class="st3" d="M169.43,209.9h32.04v10.22h-20.12v5.01h18.27v9.52h-18.27v5.01h20.73v10.22h-32.65v-39.98Z"/>
    <path class="st3" d="M208.09,209.9h23.21c3.57,0,6.6.95,9.09,2.84,2.47,1.91,3.74,4.78,3.81,8.59,0,2.12-.46,4.11-1.39,5.99-1.02,1.82-2.55,3.16-4.59,4.02,3.43,1.46,5.39,4.79,5.88,9.98.07.47.12,1.08.16,1.83.07.75.12,1.55.16,2.41.14,1.8.47,3.25.98,4.32h-11.94c-.53-2.03-.85-4.08-.95-6.16-.04-.99-.14-1.96-.31-2.93-.15-.89-.41-1.72-.79-2.47-.36-.75-.9-1.34-1.64-1.78-.73-.42-1.73-.63-2.99-.63h-6.77v13.97h-11.92v-39.98ZM220.01,227.37h6.68c1.3.04,2.54-.19,3.71-.68,1.23-.47,1.86-1.58,1.9-3.31,0-1.29-.42-2.28-1.27-2.95-.96-.67-2.64-1.01-5.04-1.01h-5.97v7.96Z"/>
    <path class="st3" d="M250.34,209.9h11.92v39.98h-11.92v-39.98Z"/>
    <path class="st3" d="M268.99,209.9h32.04v10.22h-20.12v5.01h18.27v9.52h-18.27v5.01h20.73v10.22h-32.65v-39.98Z"/>
    <path class="st3" d="M308.48,209.9h12.21l11.26,21.38h.13v-21.38h11.26v39.98h-11.63l-11.86-21.85h-.11v21.85h-11.26v-39.98Z"/>
    <path class="st3" d="M375.29,224.79c-.04-.42-.14-.97-.32-1.65-.21-.64-.54-1.27-.98-1.89-.42-.71-1.04-1.3-1.85-1.75-.8-.4-1.82-.6-3.07-.6-2.72.07-4.63,1.23-5.74,3.48-1.13,2.19-1.68,4.7-1.64,7.51-.04,2.82.51,5.32,1.64,7.51,1.11,2.29,3.03,3.45,5.75,3.48,1.98,0,3.46-.65,4.45-1.95.94-1.24,1.54-2.82,1.83-4.72h11.73c-.04,4.21-1.55,7.97-4.56,11.29-3,3.44-7.38,5.22-13.14,5.33-6.25-.07-11.08-2.11-14.49-6.1-3.43-3.88-5.14-8.83-5.14-14.85.04-6.42,1.82-11.49,5.35-15.23,3.48-3.77,8.24-5.68,14.28-5.71,10.63.29,16.47,5.57,17.53,15.85h-11.63Z"/>
    <path class="st3" d="M393.4,209.9h32.04v10.22h-20.12v5.01h18.27v9.52h-18.27v5.01h20.73v10.22h-32.65v-39.98Z"/>
  </g>
  <g>
    <path class="uuid-cdbbcc2c-210d-4680-8596-c56fbdb28254" d="M1527.91,171.9h9.79v11.41h9.82v-11.41h9.79v32.84h-9.79v-13.03h-9.82v13.03h-9.79v-32.84Z"/>
    <path class="uuid-cdbbcc2c-210d-4680-8596-c56fbdb28254" d="M1587.54,192.8c0,3.4-1.04,6.31-3.11,8.73-2.06,2.48-5.32,3.75-9.77,3.81-4.4-.06-7.64-1.33-9.73-3.82-2.13-2.43-3.18-5.34-3.13-8.74-.04-3.44,1-6.36,3.13-8.76,2.09-2.44,5.33-3.69,9.73-3.75,4.46.06,7.71,1.31,9.77,3.75,2.07,2.4,3.11,5.32,3.11,8.77ZM1578.74,192.8c0-.65-.03-1.33-.09-2.05-.09-.71-.29-1.34-.58-1.89-.28-.6-.68-1.09-1.19-1.46-.58-.34-1.31-.52-2.2-.52s-1.54.17-2.06.52c-.58.38-1,.86-1.29,1.46-.51,1.23-.75,2.54-.72,3.94,0,.62.06,1.26.19,1.94.09.68.27,1.32.54,1.94.28.62.71,1.1,1.29,1.46.51.41,1.2.61,2.06.61s1.62-.2,2.2-.61c.51-.36.91-.85,1.19-1.46.48-1.26.71-2.55.68-3.87Z"/>
    <path class="uuid-cdbbcc2c-210d-4680-8596-c56fbdb28254" d="M1592.46,171.9h8.8v32.84h-8.8v-32.84Z"/>
    <path class="uuid-cdbbcc2c-210d-4680-8596-c56fbdb28254" d="M1606.95,171.9h8.8v32.84h-8.8v-32.84Z"/>
    <path class="uuid-cdbbcc2c-210d-4680-8596-c56fbdb28254" d="M1636.62,202.89c-.32,1.08-.7,2.22-1.15,3.41-.48,1.18-1.06,2.25-1.74,3.21-1.19,1.41-2.6,2.27-4.24,2.58-1.62.27-3.31.39-5.07.36h-4v-7.28h2.11c.49,0,1-.01,1.5-.04.49,0,.91-.06,1.26-.18.27-.12.49-.33.67-.63.13-.28.2-.67.2-1.17,0-.36-.17-1.06-.52-2.11-.36-1.03-.79-2.19-1.28-3.48-1.05-2.8-1.79-4.7-2.22-5.71l-3.97-11.01h9.44l3.7,13.69h.09l3.76-13.69h9.11l-7.65,22.03Z"/>
    <path class="uuid-cdbbcc2c-210d-4680-8596-c56fbdb28254" d="M1675.97,204.73h-9.34l-3.44-14.67h-.09l-3.55,14.67h-9.34l-7.43-23.88h9.46l3.55,14.8h.09l3.03-14.8h8.51l3.19,14.8h.18l3.3-14.8h9.48l-7.59,23.88Z"/>
    <path class="uuid-cdbbcc2c-210d-4680-8596-c56fbdb28254" d="M1711.1,192.8c0,3.4-1.04,6.31-3.11,8.73-2.06,2.48-5.32,3.75-9.77,3.81-4.4-.06-7.64-1.33-9.73-3.82-2.13-2.43-3.18-5.34-3.13-8.74-.04-3.44,1-6.36,3.13-8.76,2.09-2.44,5.33-3.69,9.73-3.75,4.46.06,7.71,1.31,9.77,3.75,2.07,2.4,3.11,5.32,3.11,8.77ZM1702.3,192.8c0-.65-.03-1.33-.09-2.05-.09-.71-.29-1.34-.58-1.89-.28-.6-.68-1.09-1.19-1.46-.58-.34-1.31-.52-2.2-.52s-1.54.17-2.06.52c-.58.38-1,.86-1.29,1.46-.51,1.23-.75,2.54-.72,3.94,0,.62.06,1.26.19,1.94.09.68.27,1.32.54,1.94.28.62.71,1.1,1.29,1.46.51.41,1.2.61,2.06.61s1.62-.2,2.2-.61c.51-.36.91-.85,1.19-1.46.48-1.26.71-2.55.68-3.87Z"/>
    <path class="uuid-cdbbcc2c-210d-4680-8596-c56fbdb28254" d="M1740.07,192.8c0,3.4-1.04,6.31-3.11,8.73-2.06,2.48-5.32,3.75-9.77,3.81-4.4-.06-7.64-1.33-9.73-3.82-2.13-2.43-3.18-5.34-3.13-8.74-.04-3.44,1-6.36,3.13-8.76,2.09-2.44,5.33-3.69,9.73-3.75,4.46.06,7.71,1.31,9.77,3.75,2.07,2.4,3.11,5.32,3.11,8.77ZM1731.27,192.8c0-.65-.03-1.33-.09-2.05-.09-.71-.29-1.34-.58-1.89-.28-.6-.68-1.09-1.19-1.46-.58-.34-1.31-.52-2.2-.52s-1.54.17-2.06.52c-.58.38-1,.86-1.29,1.46-.51,1.23-.75,2.54-.72,3.94,0,.62.06,1.26.19,1.94.09.68.27,1.32.54,1.94.28.62.71,1.1,1.29,1.46.51.41,1.2.61,2.06.61s1.62-.2,2.2-.61c.51-.36.91-.85,1.19-1.46.48-1.26.71-2.55.68-3.87Z"/>
    <path class="uuid-cdbbcc2c-210d-4680-8596-c56fbdb28254" d="M1769.41,204.73h-8.68v-2.63h-.09c-.24.37-.54.73-.91,1.06-.36.37-.78.73-1.27,1.06-.49.34-1.12.61-1.91.79-.75.19-1.7.31-2.82.34-3.3-.1-5.77-1.49-7.42-4.16-1.67-2.55-2.51-5.38-2.51-8.51,0-1.44.17-2.88.52-4.31.3-1.44.84-2.77,1.62-4,.76-1.23,1.8-2.22,3.12-2.99,1.32-.7,2.96-1.07,4.92-1.1,2.86.03,5.04,1.1,6.54,3.21h.09v-11.59h8.8v32.84ZM1760.91,192.78c0-1.51-.25-2.87-.75-4.07-.29-.55-.71-1-1.26-1.33-.58-.34-1.29-.52-2.15-.52-1.62.03-2.73.65-3.34,1.85-.3.56-.51,1.19-.63,1.89-.12.71-.19,1.43-.19,2.18,0,.71.06,1.41.19,2.12.12.71.33,1.34.63,1.89.61,1.26,1.72,1.91,3.34,1.94.85,0,1.57-.2,2.15-.61.54-.33.96-.77,1.26-1.33.5-1.17.75-2.51.75-4.01h0Z"/>
    <path class="uuid-cdbbcc2c-210d-4680-8596-c56fbdb28254" d="M1775.03,195.66h9.25v7.2c0,2.2-.4,4.17-1.19,5.92-.84,1.75-2.25,2.99-4.23,3.72-.8.28-1.5.44-2.13.47-.68.06-1.25.09-1.69.09v-4c1.13-.12,2.06-.59,2.8-1.42.71-.8,1.09-1.77,1.15-2.91h-3.95v-9.07Z"/>
    <path class="uuid-cdbbcc2c-210d-4680-8596-c56fbdb28254" d="M1548.57,226.13c-.03-.35-.12-.8-.26-1.35-.17-.53-.44-1.04-.81-1.55-.35-.58-.86-1.07-1.52-1.44-.65-.33-1.5-.5-2.53-.5-2.23.06-3.8,1.01-4.72,2.86-.93,1.8-1.38,3.86-1.35,6.17-.03,2.31.42,4.37,1.35,6.17.91,1.88,2.49,2.83,4.72,2.86,1.62,0,2.84-.53,3.66-1.6.77-1.02,1.27-2.31,1.5-3.87h9.64c-.03,3.46-1.28,6.55-3.74,9.27-2.47,2.83-6.06,4.29-10.79,4.38-5.13-.06-9.1-1.73-11.9-5.01-2.81-3.19-4.22-7.25-4.22-12.2.03-5.27,1.49-9.44,4.4-12.51,2.86-3.1,6.77-4.66,11.73-4.69,8.73.24,13.53,4.58,14.4,13.02h-9.55Z"/>
    <path class="uuid-cdbbcc2c-210d-4680-8596-c56fbdb28254" d="M1586.35,241.41c0,.89.06,1.81.18,2.75.12.92.42,1.78.9,2.57h-9.28c-.24-.76-.34-1.51-.31-2.25h-.09c-.99,1.06-2.12,1.8-3.41,2.2-1.35.43-2.77.65-4.26.65-2.29,0-4.18-.58-5.68-1.75-1.61-1.2-2.42-3.02-2.45-5.47,0-1.87.49-3.32,1.48-4.35.94-1.05,2.12-1.8,3.53-2.27,1.48-.49,2.97-.83,4.47-1.01s2.83-.34,4-.49c.34-.1.67-.2.97-.29.28-.09.55-.2.79-.31.49-.3.74-.81.74-1.53-.03-.82-.34-1.4-.92-1.73-.59-.31-1.28-.47-2.07-.47-1.37.03-2.27.29-2.73.78-.46.55-.7,1.1-.7,1.65h-8.49c.12-1.69.55-3.06,1.29-4.11.73-1.03,1.67-1.81,2.82-2.33,1.17-.55,2.47-.94,3.91-1.15,1.39-.15,2.77-.22,4.13-.22,2.79,0,4.97.25,6.55.76,1.57.52,2.67,1.24,3.31,2.13.67.88,1.08,1.88,1.24,2.99.06,1.12.09,2.27.09,3.44v9.82ZM1577.91,236.03c-1.19.53-2.45.91-3.77,1.15-2.15.27-3.22,1.13-3.22,2.59,0,.59.29,1.09.87,1.51.53.46,1.24.7,2.12.7,1.11,0,2.05-.32,2.8-.97.74-.62,1.14-1.54,1.2-2.77v-2.21Z"/>
    <path class="uuid-cdbbcc2c-210d-4680-8596-c56fbdb28254" d="M1591.59,213.9h8.8v32.84h-8.8v-32.84Z"/>
    <path class="uuid-cdbbcc2c-210d-4680-8596-c56fbdb28254" d="M1614.88,220.27h-8.8v-6.38h8.8v6.38ZM1606.08,222.86h8.8v23.88h-8.8v-23.88Z"/>
    <path class="uuid-cdbbcc2c-210d-4680-8596-c56fbdb28254" d="M1621.87,228.47h-3.62v-5.61h3.62c-.06-1.23.03-2.44.26-3.64.25-1.15.77-2.18,1.56-3.08.96-.97,2.04-1.6,3.26-1.89,1.21-.24,2.69-.36,4.43-.36,1.35.03,2.67.09,3.97.18v6.26c-.36-.07-.72-.16-1.08-.25-.38-.06-.75-.09-1.12-.09-1.09,0-1.84.19-2.25.56-.43.42-.62,1.18-.56,2.29h4.78v5.61h-4.45v18.26h-8.8v-18.26Z"/>
    <path class="uuid-cdbbcc2c-210d-4680-8596-c56fbdb28254" d="M1662.52,234.8c0,3.4-1.04,6.31-3.11,8.73-2.06,2.48-5.32,3.75-9.77,3.81-4.4-.06-7.64-1.33-9.73-3.82-2.13-2.43-3.18-5.34-3.13-8.74-.04-3.44,1-6.36,3.13-8.76,2.09-2.44,5.33-3.69,9.73-3.75,4.46.06,7.71,1.31,9.77,3.75,2.07,2.4,3.11,5.32,3.11,8.77ZM1653.71,234.8c0-.65-.03-1.33-.09-2.05-.09-.71-.29-1.34-.58-1.89-.28-.6-.68-1.09-1.19-1.46-.58-.34-1.31-.52-2.2-.52s-1.54.17-2.06.52c-.58.38-1,.86-1.29,1.46-.51,1.23-.75,2.54-.72,3.94,0,.62.06,1.26.19,1.94.09.68.27,1.32.54,1.94.28.62.71,1.1,1.29,1.46.51.41,1.2.61,2.06.61s1.62-.2,2.2-.61c.51-.36.91-.85,1.19-1.46.48-1.26.71-2.55.68-3.87Z"/>
    <path class="uuid-cdbbcc2c-210d-4680-8596-c56fbdb28254" d="M1667.26,222.86h8.46v3.82h.09c.71-1.44,1.59-2.54,2.63-3.3,1-.73,2.29-1.1,3.87-1.1.88,0,1.75.12,2.59.36v8.04c-.42-.18-.89-.33-1.39-.45-.51-.09-1.2-.13-2.09-.13-3.54-.06-5.33,2.34-5.35,7.21v9.43h-8.8v-23.88Z"/>
    <path class="uuid-cdbbcc2c-210d-4680-8596-c56fbdb28254" d="M1688.51,222.86h8.77v3.03h.09c1.61-2.41,4.2-3.62,7.76-3.62,2.16,0,4.01.66,5.57,1.98,1.54,1.32,2.32,3.35,2.35,6.11v16.37h-8.8v-12.53c.03-1.41-.13-2.55-.49-3.42-.38-.85-1.25-1.28-2.63-1.28-.86-.03-1.68.25-2.46.83-.38.3-.7.76-.96,1.37-.25.65-.38,1.45-.38,2.41v12.62h-8.8v-23.88Z"/>
    <path class="uuid-cdbbcc2c-210d-4680-8596-c56fbdb28254" d="M1727.29,220.27h-8.8v-6.38h8.8v6.38ZM1718.49,222.86h8.8v23.88h-8.8v-23.88Z"/>
    <path class="uuid-cdbbcc2c-210d-4680-8596-c56fbdb28254" d="M1755.84,241.41c0,.89.06,1.81.18,2.75.12.92.42,1.78.9,2.57h-9.28c-.24-.76-.34-1.51-.31-2.25h-.09c-.99,1.06-2.12,1.8-3.41,2.2-1.35.43-2.77.65-4.26.65-2.29,0-4.18-.58-5.68-1.75-1.61-1.2-2.42-3.02-2.45-5.47,0-1.87.49-3.32,1.48-4.35.94-1.05,2.12-1.8,3.53-2.27,1.48-.49,2.97-.83,4.47-1.01s2.83-.34,4-.49c.34-.1.67-.2.97-.29.28-.09.55-.2.79-.31.49-.3.74-.81.74-1.53-.03-.82-.34-1.4-.92-1.73-.59-.31-1.28-.47-2.07-.47-1.37.03-2.27.29-2.73.78-.46.55-.7,1.1-.7,1.65h-8.49c.12-1.69.55-3.06,1.29-4.11.73-1.03,1.67-1.81,2.82-2.33,1.17-.55,2.47-.94,3.91-1.15,1.39-.15,2.77-.22,4.13-.22,2.79,0,4.97.25,6.55.76,1.57.52,2.67,1.24,3.31,2.13.67.88,1.08,1.88,1.24,2.99.06,1.12.09,2.27.09,3.44v9.82ZM1747.4,236.03c-1.19.53-2.45.91-3.77,1.15-2.15.27-3.22,1.13-3.22,2.59,0,.59.29,1.09.87,1.51.53.46,1.24.7,2.12.7,1.11,0,2.05-.32,2.8-.97.74-.62,1.14-1.54,1.2-2.77v-2.21Z"/>
  </g>
  <g>
    <path class="uuid-cdbbcc2c-210d-4680-8596-c56fbdb28254" d="M1550.49,103.91h5.66v4.48h-5.66v10.5h-4.96v-10.5h-21.06v-4.78l20.65-26.73h5.37v27.02ZM1545.54,103.91v-20.53l-15.87,20.53h15.87Z"/>
    <path class="uuid-cdbbcc2c-210d-4680-8596-c56fbdb28254" d="M1565.07,114.41h22.18v4.48h-27.73l.12-2.3c.24-3.46,1.02-6.43,2.36-8.91,1.34-2.48,3.6-4.64,6.79-6.49l5.31-3.07c2.67-1.57,4.57-3.11,5.69-4.6,1.12-1.49,1.68-3.3,1.68-5.43,0-2.32-.74-4.18-2.21-5.58-1.48-1.4-3.51-2.09-6.11-2.09-5.86,0-8.79,3.01-8.79,9.03h-4.9c-.04-4.29,1.16-7.61,3.6-9.97,2.44-2.36,5.84-3.54,10.21-3.54,3.97,0,7.2,1.12,9.68,3.36,2.48,2.32,3.72,5.25,3.72,8.79,0,5.43-3.19,9.99-9.56,13.69l-4.48,2.6c-2.6,1.57-4.46,3.1-5.61,4.57-1.14,1.47-1.79,3.29-1.95,5.46Z"/>
    <path class="uuid-cdbbcc2c-210d-4680-8596-c56fbdb28254" d="M1613.8,96.36c2.44.94,4.35,2.33,5.72,4.16,1.38,1.83,2.06,3.98,2.06,6.46,0,3.93-1.4,7.06-4.19,9.38-2.79,2.32-6.47,3.48-11.03,3.48s-8.24-1.16-11.03-3.48c-2.79-2.32-4.19-5.45-4.19-9.38,0-2.48.69-4.63,2.06-6.46s3.28-3.22,5.72-4.16c-4.05-1.77-6.08-4.74-6.08-8.91,0-3.58,1.28-6.41,3.83-8.5,2.56-2.01,5.78-3.01,9.68-3.01s7.12,1,9.68,3.01c2.56,2.08,3.83,4.92,3.83,8.5,0,4.17-2.03,7.14-6.08,8.91ZM1599.05,113.12c1.85,1.5,4.29,2.24,7.32,2.24s5.47-.75,7.32-2.24c1.81-1.46,2.71-3.5,2.71-6.14s-.91-4.74-2.71-6.2c-1.81-1.46-4.25-2.18-7.32-2.18s-5.51.73-7.32,2.18c-1.81,1.46-2.71,3.52-2.71,6.2s.9,4.68,2.71,6.14ZM1612.56,82.26c-1.57-1.22-3.64-1.83-6.2-1.83s-4.62.61-6.2,1.83c-1.61,1.26-2.42,2.99-2.42,5.19s.81,3.93,2.42,5.19c1.57,1.22,3.64,1.83,6.2,1.83s4.62-.61,6.2-1.83c1.61-1.26,2.42-2.99,2.42-5.19s-.81-3.93-2.42-5.19Z"/>
    <path class="uuid-cdbbcc2c-210d-4680-8596-c56fbdb28254" d="M1635.39,76.89h4.01v42.01h-4.96v-31.33h-9.56v-3.89l.94-.06c2.99-.2,5.21-.79,6.67-1.77,1.45-.98,2.42-2.63,2.89-4.96Z"/>
  </g>
  <g>
    <path class="uuid-cdbbcc2c-210d-4680-8596-c56fbdb28254" d="M1177.13,89.1v32.44h18.26v3.88h-22.54v-36.31h4.28Z"/>
    <path class="uuid-cdbbcc2c-210d-4680-8596-c56fbdb28254" d="M1203.65,95.11h-4.33v-5h4.33v5ZM1203.54,125.41h-4.08v-26.32h4.08v26.32Z"/>
    <path class="uuid-cdbbcc2c-210d-4680-8596-c56fbdb28254" d="M1222.82,110.77l4.33-11.68h4.39l-10.35,26.32h-4.28l-10.3-26.32h4.44l4.33,11.73c2.14,5.75,3.38,9.15,3.72,10.2.61-1.8,1.85-5.22,3.72-10.25Z"/>
    <path class="uuid-cdbbcc2c-210d-4680-8596-c56fbdb28254" d="M1256.28,112.25v1.43h-19.99c.2,2.86,1,5.01,2.4,6.45,1.39,1.45,3.3,2.17,5.71,2.17,3.64,0,5.97-1.63,6.99-4.9h4.23c-.71,2.65-2.04,4.75-3.98,6.3-1.94,1.55-4.39,2.32-7.34,2.32-3.64,0-6.58-1.24-8.82-3.72-2.28-2.48-3.42-5.83-3.42-10.05s1.12-7.48,3.37-10c2.21-2.52,5.13-3.77,8.77-3.77s6.73,1.31,8.87,3.93c2.14,2.62,3.21,5.9,3.21,9.84ZM1244.19,102.2c-2.14,0-3.89.67-5.25,2.01-1.36,1.34-2.21,3.27-2.55,5.79h15.5c-.2-2.31-.99-4.19-2.35-5.64-1.36-1.44-3.15-2.17-5.36-2.17Z"/>
    <path class="uuid-cdbbcc2c-210d-4680-8596-c56fbdb28254" d="M1271.07,89.1h15.1c3.84,0,6.81,1,8.9,3.01,2.09,2.01,3.14,4.73,3.14,8.16s-1.05,6.15-3.14,8.16c-2.09,2.01-5.06,3.01-8.9,3.01h-10.81v13.97h-4.28v-36.31ZM1275.35,107.56h10.81c2.52,0,4.41-.62,5.69-1.86,1.27-1.24,1.91-3.05,1.91-5.43s-.64-4.19-1.91-5.43c-1.28-1.24-3.17-1.86-5.69-1.86h-10.81v14.59Z"/>
    <path class="uuid-cdbbcc2c-210d-4680-8596-c56fbdb28254" d="M1314.57,98.68c.68,0,1.14.02,1.38.05v3.93h-1.02c-2.72,0-4.84.67-6.35,2.01s-2.27,3.26-2.27,5.74v14.99h-4.08v-26.32h3.88v4.64c1.77-3.37,4.59-5.05,8.47-5.05Z"/>
    <path class="uuid-cdbbcc2c-210d-4680-8596-c56fbdb28254" d="M1338.9,122.25c-2.41,2.52-5.47,3.77-9.18,3.77s-6.77-1.26-9.18-3.77c-2.38-2.48-3.57-5.81-3.57-10s1.19-7.51,3.57-10c2.41-2.52,5.47-3.77,9.18-3.77s6.77,1.26,9.18,3.77c2.38,2.48,3.57,5.81,3.57,10s-1.19,7.51-3.57,10ZM1323.55,119.64c1.53,1.8,3.59,2.7,6.17,2.7s4.64-.9,6.17-2.7c1.53-1.77,2.29-4.23,2.29-7.39s-.76-5.68-2.29-7.45c-1.53-1.77-3.59-2.65-6.17-2.65s-4.64.88-6.17,2.65c-1.53,1.77-2.29,4.25-2.29,7.45s.76,5.63,2.29,7.39Z"/>
    <path class="uuid-cdbbcc2c-210d-4680-8596-c56fbdb28254" d="M1367.1,102.87v-13.77h4.08v36.31h-3.88v-4.08c-2.11,3.13-5.12,4.69-9.03,4.69-3.71,0-6.67-1.26-8.87-3.77-2.24-2.52-3.37-5.85-3.37-10s1.12-7.56,3.37-10.05c2.17-2.48,5.13-3.72,8.87-3.72s6.71,1.46,8.82,4.39ZM1352.62,119.75c1.53,1.73,3.59,2.6,6.17,2.6s4.64-.9,6.17-2.7c1.53-1.77,2.29-4.23,2.29-7.39s-.76-5.59-2.29-7.4c-1.53-1.8-3.59-2.7-6.17-2.7s-4.6.93-6.15,2.78c-1.55,1.85-2.32,4.36-2.32,7.52s.76,5.56,2.29,7.29Z"/>
    <path class="uuid-cdbbcc2c-210d-4680-8596-c56fbdb28254" d="M1394.64,113.98v-14.89h4.08v26.32h-3.88v-3.93c-2.01,3.03-4.76,4.54-8.26,4.54-2.92,0-5.2-.8-6.83-2.4-1.63-1.6-2.45-3.84-2.45-6.73v-17.8h4.08v17.39c0,3.91,2.01,5.86,6.02,5.86,1.9,0,3.59-.71,5.05-2.14s2.19-3.5,2.19-6.22Z"/>
    <path class="uuid-cdbbcc2c-210d-4680-8596-c56fbdb28254" d="M1415.75,126.02c-3.64,0-6.58-1.26-8.82-3.77-2.24-2.52-3.37-5.85-3.37-10s1.12-7.56,3.37-10.05c2.17-2.48,5.12-3.72,8.82-3.72,3.13,0,5.7.85,7.7,2.55s3.21,4.03,3.62,6.99h-4.23c-.31-1.87-1.11-3.31-2.42-4.33-1.31-1.02-2.87-1.53-4.67-1.53-2.41,0-4.33.88-5.76,2.63-1.43,1.75-2.14,4.24-2.14,7.47s.72,5.68,2.17,7.45,3.36,2.65,5.74,2.65c1.8,0,3.37-.53,4.69-1.58,1.33-1.05,2.14-2.52,2.45-4.39h4.18c-.44,2.96-1.69,5.3-3.75,7.04-2.06,1.73-4.58,2.6-7.57,2.6Z"/>
    <path class="uuid-cdbbcc2c-210d-4680-8596-c56fbdb28254" d="M1441.92,99.09v3.57h-5.41v17.08c0,1.5,1,2.24,3.01,2.24h2.4v3.42c-1.12.1-2.09.15-2.91.15-4.39,0-6.58-1.82-6.58-5.46v-17.44h-4.33v-3.57h4.33v-7.45h4.08v7.45h5.41Z"/>
    <path class="uuid-cdbbcc2c-210d-4680-8596-c56fbdb28254" d="M1450.43,95.11h-4.33v-5h4.33v5ZM1450.33,125.41h-4.08v-26.32h4.08v26.32Z"/>
    <path class="uuid-cdbbcc2c-210d-4680-8596-c56fbdb28254" d="M1477.11,122.25c-2.41,2.52-5.47,3.77-9.18,3.77s-6.77-1.26-9.18-3.77c-2.38-2.48-3.57-5.81-3.57-10s1.19-7.51,3.57-10c2.41-2.52,5.47-3.77,9.18-3.77s6.77,1.26,9.18,3.77c2.38,2.48,3.57,5.81,3.57,10s-1.19,7.51-3.57,10ZM1461.76,119.64c1.53,1.8,3.59,2.7,6.17,2.7s4.64-.9,6.17-2.7c1.53-1.77,2.29-4.23,2.29-7.39s-.76-5.68-2.29-7.45c-1.53-1.77-3.59-2.65-6.17-2.65s-4.64.88-6.17,2.65c-1.53,1.77-2.29,4.25-2.29,7.45s.76,5.63,2.29,7.39Z"/>
    <path class="uuid-cdbbcc2c-210d-4680-8596-c56fbdb28254" d="M1497.66,98.48c2.92,0,5.2.8,6.83,2.4,1.63,1.6,2.45,3.84,2.45,6.73v17.8h-4.08v-17.39c0-3.91-2.01-5.86-6.02-5.86-1.9,0-3.59.71-5.05,2.14s-2.19,3.5-2.19,6.22v14.89h-4.08v-26.32h3.88v3.93c2.01-3.03,4.76-4.54,8.26-4.54Z"/>
    <path class="uuid-cdbbcc2c-210d-4680-8596-c56fbdb28254" d="M1242.25,169.14l8.11-20.04h5.61v36.31h-4.18v-11.63c0-7.65.05-13.82.15-18.51-.82,2.24-1.89,5-3.21,8.26l-8.98,21.88h-3.67l-9.03-21.88c-1.33-3.26-2.4-6.02-3.21-8.26.1,4.69.15,10.86.15,18.51v11.63h-4.18v-36.31h5.61l8.42,20.66c1.26,3.09,2.63,6.58,4.13,10.46,2.07-5.51,3.5-9.2,4.28-11.07Z"/>
    <path class="uuid-cdbbcc2c-210d-4680-8596-c56fbdb28254" d="M1283.61,182.09h1.48v3.32c-.68.1-1.43.15-2.24.15-2.75,0-4.23-1.26-4.44-3.77-1.84,2.82-4.69,4.23-8.57,4.23-2.89,0-5.16-.67-6.81-2.01-1.65-1.34-2.47-3.24-2.47-5.69,0-4.76,3.25-7.48,9.74-8.16l3.77-.41c2.75-.31,4.13-1.51,4.13-3.62,0-1.46-.45-2.52-1.35-3.16-.9-.65-2.42-.97-4.56-.97-2.28,0-3.92.38-4.92,1.15-1,.76-1.57,2.12-1.71,4.05h-4.08c.34-5.81,3.91-8.72,10.71-8.72s9.89,2.55,9.89,7.65v14.69c0,.85.48,1.27,1.43,1.27ZM1270.04,182.55c2.18,0,4.08-.66,5.71-1.99,1.63-1.29,2.45-3.14,2.45-5.56v-3.11c-.75.58-1.9.95-3.47,1.12l-3.83.46c-2.21.27-3.78.78-4.72,1.53-.94.75-1.4,1.82-1.4,3.21s.44,2.42,1.33,3.19c.88.77,2.19,1.15,3.93,1.15Z"/>
    <path class="uuid-cdbbcc2c-210d-4680-8596-c56fbdb28254" d="M1300.8,158.48c2.92,0,5.2.8,6.83,2.4,1.63,1.6,2.45,3.84,2.45,6.73v17.8h-4.08v-17.39c0-3.91-2.01-5.86-6.02-5.86-1.9,0-3.59.71-5.05,2.14s-2.19,3.5-2.19,6.22v14.89h-4.08v-26.32h3.88v3.93c2.01-3.03,4.76-4.54,8.26-4.54Z"/>
    <path class="uuid-cdbbcc2c-210d-4680-8596-c56fbdb28254" d="M1337.72,182.09h1.48v3.32c-.68.1-1.43.15-2.24.15-2.75,0-4.23-1.26-4.44-3.77-1.84,2.82-4.69,4.23-8.57,4.23-2.89,0-5.16-.67-6.81-2.01-1.65-1.34-2.47-3.24-2.47-5.69,0-4.76,3.25-7.48,9.74-8.16l3.77-.41c2.75-.31,4.13-1.51,4.13-3.62,0-1.46-.45-2.52-1.35-3.16-.9-.65-2.42-.97-4.56-.97-2.28,0-3.92.38-4.92,1.15-1,.76-1.57,2.12-1.71,4.05h-4.08c.34-5.81,3.91-8.72,10.71-8.72s9.89,2.55,9.89,7.65v14.69c0,.85.48,1.27,1.43,1.27ZM1324.16,182.55c2.18,0,4.08-.66,5.71-1.99,1.63-1.29,2.45-3.14,2.45-5.56v-3.11c-.75.58-1.9.95-3.47,1.12l-3.83.46c-2.21.27-3.78.78-4.72,1.53-.94.75-1.4,1.82-1.4,3.21s.44,2.42,1.33,3.19c.88.77,2.19,1.15,3.93,1.15Z"/>
    <path class="uuid-cdbbcc2c-210d-4680-8596-c56fbdb28254" d="M1362.25,162.92v-3.83h3.88v25.3c0,3.6-1.05,6.44-3.16,8.52-2.11,2.07-5.13,3.11-9.08,3.11-3.26,0-5.88-.75-7.85-2.24-1.97-1.5-3.09-3.57-3.37-6.22h4.08c.51,3.33,2.89,5,7.14,5,5.44,0,8.16-2.72,8.16-8.16v-2.55c-2.07,2.79-5.02,4.18-8.82,4.18s-6.67-1.26-8.87-3.77c-2.24-2.52-3.37-5.85-3.37-10s1.12-7.56,3.37-10.05c2.17-2.48,5.13-3.72,8.87-3.72s6.92,1.48,9.03,4.44ZM1353.74,182.35c2.58,0,4.64-.9,6.17-2.7,1.53-1.8,2.29-4.27,2.29-7.39s-.76-5.59-2.29-7.4c-1.53-1.8-3.59-2.7-6.17-2.7s-4.6.92-6.15,2.75c-1.55,1.84-2.32,4.28-2.32,7.34s.77,5.51,2.32,7.34c1.55,1.84,3.6,2.75,6.15,2.75Z"/>
    <path class="uuid-cdbbcc2c-210d-4680-8596-c56fbdb28254" d="M1395.2,172.25v1.43h-19.99c.2,2.86,1,5.01,2.4,6.45,1.39,1.45,3.3,2.17,5.71,2.17,3.64,0,5.97-1.63,6.99-4.9h4.23c-.71,2.65-2.04,4.75-3.98,6.3-1.94,1.55-4.39,2.32-7.34,2.32-3.64,0-6.58-1.24-8.82-3.72-2.28-2.48-3.42-5.83-3.42-10.05s1.12-7.48,3.37-10c2.21-2.52,5.13-3.77,8.77-3.77s6.73,1.31,8.87,3.93c2.14,2.62,3.21,5.9,3.21,9.84ZM1383.11,162.2c-2.14,0-3.89.67-5.25,2.01-1.36,1.34-2.21,3.27-2.55,5.79h15.5c-.2-2.31-.99-4.19-2.35-5.64-1.36-1.44-3.15-2.17-5.36-2.17Z"/>
    <path class="uuid-cdbbcc2c-210d-4680-8596-c56fbdb28254" d="M1427.74,158.48c2.86,0,5.07.83,6.66,2.47,1.58,1.65,2.37,3.85,2.37,6.6v17.85h-4.08v-17.44c0-3.88-1.84-5.81-5.51-5.81-1.94,0-3.54.77-4.82,2.32-1.27,1.55-1.91,3.73-1.91,6.55v14.38h-4.08v-17.44c0-3.88-1.84-5.81-5.51-5.81-1.9,0-3.5.77-4.79,2.32-1.29,1.55-1.94,3.73-1.94,6.55v14.38h-4.08v-26.32h3.88v3.88c1.73-2.99,4.27-4.49,7.6-4.49,3.94,0,6.65,1.65,8.11,4.95,1.84-3.3,4.54-4.95,8.11-4.95Z"/>
    <path class="uuid-cdbbcc2c-210d-4680-8596-c56fbdb28254" d="M1465.83,172.25v1.43h-19.99c.2,2.86,1,5.01,2.4,6.45,1.39,1.45,3.3,2.17,5.71,2.17,3.64,0,5.97-1.63,6.99-4.9h4.23c-.71,2.65-2.04,4.75-3.98,6.3-1.94,1.55-4.39,2.32-7.34,2.32-3.64,0-6.58-1.24-8.82-3.72-2.28-2.48-3.42-5.83-3.42-10.05s1.12-7.48,3.37-10c2.21-2.52,5.13-3.77,8.77-3.77s6.73,1.31,8.87,3.93c2.14,2.62,3.21,5.9,3.21,9.84ZM1453.75,162.2c-2.14,0-3.89.67-5.25,2.01-1.36,1.34-2.21,3.27-2.55,5.79h15.5c-.2-2.31-.99-4.19-2.35-5.64-1.36-1.44-3.15-2.17-5.36-2.17Z"/>
    <path class="uuid-cdbbcc2c-210d-4680-8596-c56fbdb28254" d="M1482.82,158.48c2.92,0,5.2.8,6.83,2.4,1.63,1.6,2.45,3.84,2.45,6.73v17.8h-4.08v-17.39c0-3.91-2.01-5.86-6.02-5.86-1.9,0-3.59.71-5.05,2.14s-2.19,3.5-2.19,6.22v14.89h-4.08v-26.32h3.88v3.93c2.01-3.03,4.76-4.54,8.26-4.54Z"/>
    <path class="uuid-cdbbcc2c-210d-4680-8596-c56fbdb28254" d="M1508.73,159.09v3.57h-5.41v17.08c0,1.5,1,2.24,3.01,2.24h2.4v3.42c-1.12.1-2.09.15-2.91.15-4.39,0-6.58-1.82-6.58-5.46v-17.44h-4.33v-3.57h4.33v-7.45h4.08v7.45h5.41Z"/>
    <path class="uuid-cdbbcc2c-210d-4680-8596-c56fbdb28254" d="M1270.3,218.48c3.71,0,6.68,1.24,8.92,3.72,2.21,2.52,3.32,5.87,3.32,10.05s-1.11,7.48-3.32,10c-2.24,2.52-5.22,3.77-8.92,3.77-3.91,0-6.92-1.56-9.03-4.69v4.08h-3.88v-36.31h4.08v13.77c2.11-2.92,5.05-4.39,8.82-4.39ZM1269.79,242.35c2.55,0,4.6-.93,6.15-2.78,1.55-1.85,2.32-4.36,2.32-7.52s-.76-5.52-2.27-7.27c-1.51-1.75-3.58-2.63-6.2-2.63s-4.64.88-6.17,2.65c-1.53,1.77-2.29,4.25-2.29,7.45s.76,5.63,2.29,7.4c1.53,1.8,3.59,2.7,6.17,2.7Z"/>
    <path class="uuid-cdbbcc2c-210d-4680-8596-c56fbdb28254" d="M1298.81,230.01l3.72-10.91h4.44l-11.12,30.45c-.78,2.21-1.85,3.77-3.21,4.67-1.36.9-3.15,1.35-5.35,1.35-.75,0-1.56-.05-2.45-.15v-3.42h2.4c2.35,0,3.94-1.09,4.79-3.26l.92-2.45-9.89-27.18h4.49l3.72,10.97c1.33,3.88,2.58,7.67,3.77,11.37.99-3.16,2.24-6.97,3.77-11.42Z"/>
    <path class="uuid-cdbbcc2c-210d-4680-8596-c56fbdb28254" d="M1329.21,222.41l-4.84,6.68-2.55-2.04,4.9-6.78-7.75-2.5,1.07-3.06,7.55,2.45v-8.06h3.26v8.06l7.55-2.45,1.07,3.06-7.75,2.5,4.9,6.78-2.55,2.04-4.84-6.68Z"/>
    <path class="uuid-cdbbcc2c-210d-4680-8596-c56fbdb28254" d="M1367.25,229.14l8.11-20.04h5.61v36.31h-4.18v-11.63c0-7.65.05-13.82.15-18.51-.82,2.24-1.89,5-3.21,8.26l-8.98,21.88h-3.67l-9.03-21.88c-1.33-3.26-2.4-6.02-3.21-8.26.1,4.69.15,10.86.15,18.51v11.63h-4.18v-36.31h5.61l8.42,20.65c1.26,3.09,2.63,6.58,4.13,10.46,2.07-5.51,3.5-9.2,4.28-11.07Z"/>
    <path class="uuid-cdbbcc2c-210d-4680-8596-c56fbdb28254" d="M1405.4,217.56l5.3-8.47h4.84l-13.87,21.73v14.59h-4.28v-14.59l-13.87-21.73h4.9l5.35,8.52c2.31,3.6,4.25,6.73,5.81,9.38,2.18-3.67,4.11-6.82,5.81-9.43Z"/>
    <path class="uuid-cdbbcc2c-210d-4680-8596-c56fbdb28254" d="M1422.38,209.1v32.44h18.26v3.88h-22.54v-36.31h4.28Z"/>
    <path class="uuid-cdbbcc2c-210d-4680-8596-c56fbdb28254" d="M1457.42,230.62v-3.88h15.45v18.67h-3.52l-.92-4.9c-2.69,3.81-6.65,5.71-11.88,5.71s-9.35-1.75-12.44-5.25c-3.16-3.47-4.74-8.04-4.74-13.72s1.56-10.23,4.69-13.77c3.09-3.47,7.28-5.2,12.55-5.2,4.32,0,7.89,1.16,10.71,3.47,2.82,2.31,4.54,5.39,5.15,9.23h-4.44c-.44-2.69-1.73-4.83-3.88-6.43-2.07-1.56-4.59-2.35-7.55-2.35-3.88,0-6.97,1.36-9.28,4.08-2.31,2.72-3.47,6.38-3.47,10.96s1.16,8.25,3.47,10.96c2.31,2.72,5.41,4.08,9.28,4.08,3.43,0,6.36-1.1,8.77-3.31s3.62-5,3.62-8.36h-11.58Z"/>
    <path class="uuid-cdbbcc2c-210d-4680-8596-c56fbdb28254" d="M1483.12,245.41h-5.15v-5.1h5.15v5.1ZM1481.8,235.92h-2.65l-.71-16.83v-10h4.28v10l-.92,16.83Z"/>
    <path class="uuid-cdbbcc2c-210d-4680-8596-c56fbdb28254" d="M1497.71,222.41l-4.84,6.68-2.55-2.04,4.9-6.78-7.75-2.5,1.07-3.06,7.55,2.45v-8.06h3.26v8.06l7.55-2.45,1.07,3.06-7.75,2.5,4.9,6.78-2.55,2.04-4.84-6.68Z"/>
  </g>
  <g>
    <path class="uuid-cdbbcc2c-210d-4680-8596-c56fbdb28254" d="M1866.6,147.55v11.28h-2.28v-14.1l1.17.06c1.76.12,3.27.52,4.53,1.2s2.36,1.83,3.3,3.45l1.56,2.7c.8,1.36,1.58,2.32,2.34,2.89.76.57,1.68.86,2.76.86,1.18,0,2.12-.38,2.83-1.12s1.06-1.79,1.06-3.11c0-2.98-1.53-4.47-4.59-4.47v-2.49c2.18-.02,3.87.59,5.07,1.83s1.8,2.97,1.8,5.19c0,2.02-.57,3.66-1.71,4.92-1.18,1.26-2.67,1.89-4.47,1.89-2.76,0-5.08-1.62-6.96-4.86l-1.32-2.28c-.8-1.32-1.58-2.27-2.33-2.85s-1.67-.91-2.77-.99Z"/>
    <path class="uuid-cdbbcc2c-210d-4680-8596-c56fbdb28254" d="M1885.68,166.48v2.04h-21.36v-2.52h15.93v-4.86h1.98l.03.48c.1,1.52.4,2.65.9,3.39.5.74,1.34,1.23,2.52,1.47Z"/>
    <path class="uuid-cdbbcc2c-210d-4680-8596-c56fbdb28254" d="M1871.7,180.34v-8.67h2.16v8.67h-2.16Z"/>
    <path class="uuid-cdbbcc2c-210d-4680-8596-c56fbdb28254" d="M1866.72,196.57c-1.92-1.3-2.88-3.23-2.88-5.79s.96-4.51,2.88-5.79c1.94-1.3,4.7-1.95,8.28-1.95s6.34.65,8.28,1.95c1.92,1.28,2.88,3.21,2.88,5.79s-.96,4.49-2.88,5.79c-1.94,1.3-4.7,1.95-8.28,1.95s-6.34-.65-8.28-1.95ZM1883.88,190.78c0-3.4-2.96-5.1-8.88-5.1s-8.88,1.7-8.88,5.1,2.96,5.1,8.88,5.1,8.88-1.7,8.88-5.1Z"/>
    <path class="uuid-cdbbcc2c-210d-4680-8596-c56fbdb28254" d="M1885.68,205.84v2.04h-21.36v-2.52h15.93v-4.86h1.98l.03.48c.1,1.52.4,2.65.9,3.39.5.74,1.34,1.23,2.52,1.47Z"/>
    <path class="uuid-cdbbcc2c-210d-4680-8596-c56fbdb28254" d="M1871.7,219.7v-8.67h2.16v8.67h-2.16Z"/>
    <path class="uuid-cdbbcc2c-210d-4680-8596-c56fbdb28254" d="M1866.72,235.93c-1.92-1.3-2.88-3.23-2.88-5.79s.96-4.51,2.88-5.79c1.94-1.3,4.7-1.95,8.28-1.95s6.34.65,8.28,1.95c1.92,1.28,2.88,3.21,2.88,5.79s-.96,4.49-2.88,5.79c-1.94,1.3-4.7,1.95-8.28,1.95s-6.34-.65-8.28-1.95ZM1883.88,230.14c0-3.4-2.96-5.1-8.88-5.1s-8.88,1.7-8.88,5.1,2.96,5.1,8.88,5.1,8.88-1.7,8.88-5.1Z"/>
    <path class="uuid-cdbbcc2c-210d-4680-8596-c56fbdb28254" d="M1875.69,251.38c-1.24,2.38-3.03,3.57-5.37,3.57-1.94,0-3.5-.68-4.68-2.04-1.2-1.34-1.8-3.11-1.8-5.31,0-2.38.62-4.23,1.86-5.54,1.24-1.31,2.93-1.96,5.07-1.94v2.49c-1.52.04-2.68.49-3.46,1.35-.79.86-1.19,2.07-1.19,3.63,0,1.44.38,2.58,1.14,3.43.76.85,1.78,1.28,3.06,1.28s2.33-.44,3.11-1.31c.77-.87,1.15-2.05,1.15-3.55v-1.59h2.1v1.44c0,1.42.32,2.52.96,3.29.64.77,1.53,1.16,2.67,1.16s2-.39,2.62-1.16.94-1.81.94-3.13-.34-2.41-1.03-3.2c-.69-.79-1.71-1.21-3.04-1.27v-2.52c1.94.02,3.48.66,4.63,1.91,1.15,1.25,1.72,2.94,1.72,5.08s-.51,3.71-1.54,4.96-2.45,1.88-4.25,1.88c-2.04,0-3.6-.97-4.68-2.91Z"/>
  </g>
</svg>