<?xml version="1.0" encoding="UTF-8"?>
<svg id="uuid-e36d11a6-ae75-465d-8aee-851d925bc7e9" data-name="Layer 1" xmlns="http://www.w3.org/2000/svg" viewBox="0 0 1923 325.02">
  <defs>
    <style>
      .uuid-464d8907-cad0-40f2-ade3-11fc732701d7 {
        fill: #fff;
        stroke-width: 0px;
      }
          .st3{fill:#FFFFFF;}
	.st4{fill:#FFFFFF;}
    </style>
  </defs>
  <g>
    <polygon class="st4" points="558.57 204.42 540.69 204.42 595.89 111.89 613.77 111.89 558.57 204.42"/>
    <polygon class="st4" points="606.68 204.42 588.8 204.42 644 111.89 661.88 111.89 606.68 204.42"/>
    <polygon class="st4" points="654.78 204.42 636.91 204.42 692.11 111.89 709.99 111.89 654.78 204.42"/>
    <polygon class="st4" points="702.89 204.42 685.01 204.42 740.22 111.89 758.09 111.89 702.89 204.42"/>
    <polygon class="st4" points="751 204.42 733.12 204.42 788.32 111.89 806.2 111.89 751 204.42"/>
    <polygon class="st4" points="799.11 204.42 781.23 204.42 836.43 111.89 854.31 111.89 799.11 204.42"/>
  </g>
  <polygon class="uuid-464d8907-cad0-40f2-ade3-11fc732701d7" points="43 6.5 43 13 14.68 13 14.68 41.32 8.18 41.32 8.18 6.5 43 6.5"/>
  <polygon class="uuid-464d8907-cad0-40f2-ade3-11fc732701d7" points="1881.65 7.5 1881.65 14 1909.97 14 1909.97 42.32 1916.47 42.32 1916.47 7.5 1881.65 7.5"/>
  <polygon class="uuid-464d8907-cad0-40f2-ade3-11fc732701d7" points="42.33 319.44 42.33 312.95 14.01 312.95 14.01 284.62 7.51 284.62 7.51 319.44 42.33 319.44"/>
  <polygon class="uuid-464d8907-cad0-40f2-ade3-11fc732701d7" points="1881.65 318.44 1881.65 311.95 1909.97 311.95 1909.97 283.62 1916.47 283.62 1916.47 318.44 1881.65 318.44"/>
  <g>
    <rect class="uuid-464d8907-cad0-40f2-ade3-11fc732701d7" x="1680.87" y="73.09" width="2.15" height="50.44"/>
    <rect class="uuid-464d8907-cad0-40f2-ade3-11fc732701d7" x="1689.48" y="73.09" width="4.3" height="50.44"/>
    <rect class="uuid-464d8907-cad0-40f2-ade3-11fc732701d7" x="1700.23" y="73.09" width="2.15" height="50.44"/>
    <rect class="uuid-464d8907-cad0-40f2-ade3-11fc732701d7" x="1704.53" y="73.09" width="2.15" height="50.44"/>
    <rect class="uuid-464d8907-cad0-40f2-ade3-11fc732701d7" x="1715.28" y="73.09" width="2.15" height="50.44"/>
    <rect class="uuid-464d8907-cad0-40f2-ade3-11fc732701d7" x="1719.58" y="73.09" width="8.6" height="50.44"/>
    <rect class="uuid-464d8907-cad0-40f2-ade3-11fc732701d7" x="1730.34" y="73.09" width="2.15" height="50.44"/>
    <rect class="uuid-464d8907-cad0-40f2-ade3-11fc732701d7" x="1734.64" y="73.09" width="2.15" height="50.44"/>
    <rect class="uuid-464d8907-cad0-40f2-ade3-11fc732701d7" x="1743.24" y="73.09" width="4.3" height="50.44"/>
    <rect class="uuid-464d8907-cad0-40f2-ade3-11fc732701d7" x="1749.69" y="73.09" width="6.45" height="50.44"/>
    <rect class="uuid-464d8907-cad0-40f2-ade3-11fc732701d7" x="1760.44" y="73.09" width="2.15" height="50.44"/>
    <rect class="uuid-464d8907-cad0-40f2-ade3-11fc732701d7" x="1764.74" y="73.09" width="2.15" height="50.44"/>
    <rect class="uuid-464d8907-cad0-40f2-ade3-11fc732701d7" x="1775.5" y="73.09" width="2.15" height="50.44"/>
    <rect class="uuid-464d8907-cad0-40f2-ade3-11fc732701d7" x="1779.8" y="73.09" width="2.15" height="50.44"/>
    <rect class="uuid-464d8907-cad0-40f2-ade3-11fc732701d7" x="1784.1" y="73.09" width="2.15" height="50.44"/>
    <rect class="uuid-464d8907-cad0-40f2-ade3-11fc732701d7" x="1788.4" y="73.09" width="2.15" height="50.44"/>
    <rect class="uuid-464d8907-cad0-40f2-ade3-11fc732701d7" x="1792.7" y="73.09" width="6.45" height="50.44"/>
    <rect class="uuid-464d8907-cad0-40f2-ade3-11fc732701d7" x="1803.45" y="73.09" width="2.15" height="50.44"/>
    <rect class="uuid-464d8907-cad0-40f2-ade3-11fc732701d7" x="1809.91" y="73.09" width="6.45" height="50.44"/>
    <rect class="uuid-464d8907-cad0-40f2-ade3-11fc732701d7" x="1818.51" y="73.09" width="4.3" height="50.44"/>
    <rect class="uuid-464d8907-cad0-40f2-ade3-11fc732701d7" x="1824.96" y="73.09" width="4.3" height="50.44"/>
    <rect class="uuid-464d8907-cad0-40f2-ade3-11fc732701d7" x="1833.56" y="73.09" width="2.15" height="50.44"/>
    <rect class="uuid-464d8907-cad0-40f2-ade3-11fc732701d7" x="1840.01" y="73.09" width="6.45" height="50.44"/>
    <rect class="uuid-464d8907-cad0-40f2-ade3-11fc732701d7" x="1848.62" y="73.09" width="2.15" height="50.44"/>
    <rect class="uuid-464d8907-cad0-40f2-ade3-11fc732701d7" x="1859.37" y="73.09" width="2.15" height="50.44"/>
    <rect class="uuid-464d8907-cad0-40f2-ade3-11fc732701d7" x="1863.67" y="73.09" width="6.45" height="50.44"/>
    <rect class="uuid-464d8907-cad0-40f2-ade3-11fc732701d7" x="1874.42" y="73.09" width="2.15" height="50.44"/>
    <rect class="uuid-464d8907-cad0-40f2-ade3-11fc732701d7" x="1878.72" y="73.09" width="2.15" height="50.44"/>
    <rect class="uuid-464d8907-cad0-40f2-ade3-11fc732701d7" x="1883.03" y="73.09" width="2.15" height="50.44"/>
  </g>
  <g>
    <path class="st3" d="M42.98,99.9h26.19c3.48,0,6.42.55,8.83,1.65,2.39,1.1,4.29,2.54,5.7,4.32,2.81,3.8,4.18,7.66,4.14,11.6-.05,6.14-1.92,10.72-5.63,13.75-3.7,3.02-8.56,4.54-14.56,4.54h-9.35v15.54h-15.32v-51.4ZM58.3,123.52h6.33c2.23.05,4.22-.22,5.96-.81.85-.38,1.54-.95,2.07-1.73.46-.73.69-1.72.69-2.96-.05-2.3-.82-3.73-2.33-4.27-1.53-.52-3.33-.75-5.42-.71h-7.31v10.48Z"/>
    <path class="st3" d="M93.67,99.9h15.32v51.4h-15.32v-51.4Z"/>
    <path class="st3" d="M117.65,99.9h26.19c3.48,0,6.42.55,8.83,1.65,2.39,1.1,4.29,2.54,5.7,4.32,2.81,3.8,4.18,7.66,4.14,11.6-.05,6.14-1.92,10.72-5.63,13.75-3.7,3.02-8.56,4.54-14.56,4.54h-9.35v15.54h-15.32v-51.4ZM132.97,123.52h6.33c2.23.05,4.22-.22,5.96-.81.85-.38,1.54-.95,2.07-1.73.46-.73.69-1.72.69-2.96-.05-2.3-.82-3.73-2.33-4.27-1.53-.52-3.33-.75-5.42-.71h-7.31v10.48Z"/>
    <path class="st3" d="M168.34,99.9h41.19v13.15h-25.87v6.44h23.49v12.23h-23.49v6.44h26.65v13.14h-41.98v-51.4Z"/>
    <path class="st3" d="M219.04,99.9h25.18c8.22.14,14.06,2.78,17.51,7.91,3.34,5.09,4.99,10.99,4.94,17.72.12,16.85-8.37,25.44-25.45,25.77h-22.18v-51.4ZM234.36,138.15h6c2.43,0,4.37-.46,5.8-1.38,1.46-.92,2.56-2.02,3.31-3.31.73-1.34,1.24-2.74,1.53-4.2.23-1.48.34-2.8.34-3.95,0-.92-.07-2.06-.21-3.42-.23-1.34-.76-2.68-1.6-4.02-.8-1.36-2.01-2.53-3.65-3.49-1.64-.89-3.84-1.34-6.62-1.34h-4.91v25.11Z"/>
    <path class="st3" d="M274.05,99.9h29.85c4.59,0,8.49,1.22,11.69,3.66,3.18,2.46,4.81,6.14,4.9,11.04,0,2.72-.6,5.29-1.79,7.7-1.31,2.34-3.28,4.07-5.91,5.17,4.41,1.88,6.93,6.15,7.56,12.83.09.61.16,1.39.21,2.36.09.96.16,1.99.2,3.09.18,2.32.6,4.17,1.26,5.55h-15.35c-.68-2.61-1.09-5.25-1.23-7.93-.05-1.27-.18-2.52-.4-3.77-.19-1.15-.53-2.21-1.02-3.17-.46-.96-1.16-1.73-2.1-2.29-.94-.54-2.23-.81-3.85-.81h-8.71v17.96h-15.33v-51.4ZM289.38,122.36h8.58c1.67.05,3.26-.25,4.77-.88,1.58-.61,2.39-2.03,2.44-4.25,0-1.67-.55-2.93-1.64-3.8-1.24-.87-3.39-1.3-6.47-1.3h-7.67v10.23Z"/>
    <path class="st3" d="M328.37,99.9h41.19v13.15h-25.87v6.44h23.49v12.23h-23.49v6.44h26.65v13.14h-41.98v-51.4Z"/>
    <path class="st3" d="M392.86,99.9h14.99l18.15,51.4h-15.91l-2.08-7.34h-15.84l-2.25,7.34h-15.39l18.32-51.4ZM404.91,132.98l-4.46-15.89h-.14l-4.8,15.89h9.4Z"/>
    <path class="st3" d="M431,99.9h21.83l7.12,30.24h.14l7.12-30.24h21.8v51.4h-14.48v-32.98h-.17l-8.63,32.98h-11.45l-8.66-32.98h-.14v32.98h-14.48v-51.4Z"/>
    <path class="st3" d="M42.98,171.9h41.19v13.15h-25.87v6.44h23.49v12.23h-23.49v6.44h26.65v13.14h-41.98v-51.4Z"/>
    <path class="st3" d="M120.48,223.3h-17.15l-14.83-51.4h15.48l8.13,31.19h.17l7.99-31.19h15.75l-15.55,51.4Z"/>
    <path class="st3" d="M140.32,171.9h41.19v13.15h-25.87v6.44h23.49v12.23h-23.49v6.44h26.65v13.14h-41.98v-51.4Z"/>
    <path class="st3" d="M191.09,171.9h15.7l14.47,27.5h.17v-27.5h14.48v51.4h-14.95l-15.26-28.09h-.14v28.09h-14.48v-51.4Z"/>
    <path class="st3" d="M257.29,185.04h-13.94v-13.15h43.22v13.15h-13.96v38.25h-15.32v-38.25Z"/>
    <path class="st3" d="M305.91,206.03c0,1.29.18,2.42.54,3.38.65,1.48,1.76,2.47,3.31,2.96,1.48.52,2.99.78,4.54.78,1.43.05,2.91-.26,4.43-.91,1.5-.68,2.28-1.93,2.33-3.76.05-1.29-.68-2.32-2.18-3.09-1.57-.73-4.55-1.66-8.93-2.81-2.06-.56-4.08-1.18-6.05-1.86-2.06-.68-3.92-1.55-5.59-2.6-1.69-1.05-3.06-2.45-4.11-4.18-1.1-1.62-1.65-3.7-1.65-6.26.09-5.95,2.18-10.29,6.26-13.01,3.9-2.65,8.51-3.97,13.82-3.97,5.56-.05,10.35,1.15,14.37,3.58,3.9,2.6,6.04,6.98,6.4,13.15h-14.52c.18-1.91-.42-3.27-1.81-4.09-1.36-.84-2.87-1.26-4.53-1.26-1.14,0-2.31.21-3.51.63-.55.23-1.01.57-1.4,1.02-.41.47-.61,1.07-.61,1.79.09.87.58,1.58,1.47,2.14.84.63,1.93,1.18,3.27,1.65,2.84.87,6.08,1.76,9.71,2.67,1.93.49,3.78,1.09,5.55,1.79,1.74.68,3.32,1.59,4.75,2.74,1.45,1.15,2.6,2.54,3.44,4.18.77,1.73,1.16,3.77,1.16,6.12-.14,6.59-2.6,11.19-7.4,13.82-4.72,2.65-10.07,3.95-16.04,3.9-1.48,0-3.43-.22-5.83-.67-2.43-.42-4.9-1.25-7.4-2.5-2.48-1.27-4.57-3.14-6.28-5.63-1.74-2.39-2.67-5.63-2.81-9.71h15.28Z"/>
  </g>
  <g>
    <path class="uuid-464d8907-cad0-40f2-ade3-11fc732701d7" d="M1531.49,132.9h16.37c2.17,0,4.01.34,5.52,1.03,1.49.69,2.68,1.59,3.56,2.7,1.75,2.37,2.62,4.79,2.59,7.25-.03,3.84-1.2,6.7-3.52,8.59-2.32,1.89-5.35,2.83-9.1,2.83h-5.85v9.71h-9.58v-32.12ZM1541.06,147.66h3.96c1.39.03,2.64-.14,3.73-.51.53-.23.96-.59,1.29-1.08.29-.46.43-1.07.43-1.85-.03-1.44-.52-2.33-1.46-2.67-.95-.32-2.08-.47-3.39-.44h-4.57v6.55Z"/>
    <path class="uuid-464d8907-cad0-40f2-ade3-11fc732701d7" d="M1563.17,132.9h15.74c5.14.09,8.79,1.74,10.95,4.94,2.09,3.18,3.12,6.87,3.09,11.07.07,10.53-5.23,15.9-15.91,16.11h-13.86v-32.12ZM1572.75,156.8h3.75c1.52,0,2.73-.29,3.62-.86.91-.57,1.6-1.26,2.07-2.07.45-.84.77-1.71.96-2.62.14-.93.21-1.75.21-2.47,0-.57-.04-1.29-.13-2.14-.14-.84-.48-1.67-1-2.51-.5-.85-1.26-1.58-2.28-2.18-1.02-.56-2.4-.84-4.14-.84h-3.07v15.69Z"/>
    <path class="uuid-464d8907-cad0-40f2-ade3-11fc732701d7" d="M1613.2,132.9h25.74v8.22h-16.17v4.02h14.68v7.65h-14.68v4.02h16.66v8.22h-26.23v-32.12Z"/>
    <path class="uuid-464d8907-cad0-40f2-ade3-11fc732701d7" d="M1661.64,165.02h-10.72l-9.27-32.12h9.67l5.08,19.5h.11l5-19.5h9.84l-9.72,32.12Z"/>
    <path class="uuid-464d8907-cad0-40f2-ade3-11fc732701d7" d="M1674.04,132.9h25.74v8.22h-16.17v4.02h14.68v7.65h-14.68v4.02h16.66v8.22h-26.23v-32.12Z"/>
    <path class="uuid-464d8907-cad0-40f2-ade3-11fc732701d7" d="M1705.77,132.9h9.81l9.04,17.18h.11v-17.18h9.05v32.12h-9.34l-9.53-17.56h-.09v17.56h-9.05v-32.12Z"/>
    <path class="uuid-464d8907-cad0-40f2-ade3-11fc732701d7" d="M1747.15,141.11h-8.71v-8.22h27.01v8.22h-8.73v23.91h-9.58v-23.91Z"/>
    <path class="uuid-464d8907-cad0-40f2-ade3-11fc732701d7" d="M1777.53,154.23c0,.81.11,1.51.34,2.11.41.92,1.1,1.54,2.07,1.85.92.32,1.87.48,2.84.48.89.03,1.82-.16,2.77-.57.94-.42,1.42-1.21,1.45-2.35.03-.81-.42-1.45-1.36-1.93-.98-.45-2.84-1.04-5.58-1.76-1.29-.35-2.55-.74-3.78-1.17-1.29-.42-2.45-.97-3.49-1.63-1.05-.66-1.91-1.53-2.57-2.62-.69-1.01-1.03-2.31-1.03-3.91.06-3.72,1.36-6.43,3.92-8.13,2.44-1.66,5.32-2.48,8.64-2.48,3.48-.03,6.47.72,8.98,2.24,2.44,1.62,3.77,4.36,4,8.22h-9.07c.11-1.19-.26-2.04-1.13-2.55-.85-.52-1.8-.79-2.83-.79-.71,0-1.44.13-2.19.4-.34.15-.63.36-.87.64-.26.29-.38.67-.38,1.12.06.54.36.99.92,1.34.53.4,1.21.74,2.05,1.03,1.78.54,3.8,1.1,6.07,1.67,1.21.31,2.37.68,3.47,1.12,1.09.43,2.08,1,2.97,1.71.91.72,1.62,1.59,2.15,2.62.48,1.08.73,2.36.73,3.82-.09,4.12-1.63,7-4.62,8.64-2.95,1.66-6.29,2.47-10.02,2.44-.93,0-2.14-.14-3.65-.42-1.52-.26-3.06-.78-4.62-1.56-1.55-.79-2.86-1.96-3.93-3.52-1.08-1.5-1.67-3.52-1.76-6.07h9.55Z"/>
    <path class="uuid-464d8907-cad0-40f2-ade3-11fc732701d7" d="M1530.87,175.9h9.58v11.16h9.61v-11.16h9.58v32.12h-9.58v-12.74h-9.61v12.74h-9.58v-32.12Z"/>
    <path class="uuid-464d8907-cad0-40f2-ade3-11fc732701d7" d="M1589.2,196.34c0,3.32-1.01,6.17-3.04,8.54-2.01,2.43-5.2,3.67-9.56,3.73-4.3-.06-7.47-1.3-9.52-3.74-2.09-2.37-3.11-5.22-3.06-8.55-.04-3.37.98-6.23,3.06-8.57,2.04-2.39,5.21-3.61,9.52-3.67,4.36.06,7.55,1.28,9.56,3.67,2.03,2.35,3.04,5.2,3.04,8.58ZM1580.59,196.34c0-.63-.03-1.3-.09-2-.09-.69-.28-1.31-.57-1.85-.27-.59-.66-1.06-1.17-1.43-.56-.34-1.28-.51-2.15-.51s-1.51.17-2.01.51c-.56.37-.98.84-1.26,1.43-.5,1.2-.74,2.49-.71,3.85,0,.6.06,1.23.18,1.89.09.66.27,1.29.53,1.89.27.6.69,1.08,1.26,1.43.5.4,1.17.59,2.01.59s1.59-.2,2.15-.59c.5-.35.89-.83,1.17-1.43.47-1.23.69-2.5.66-3.79Z"/>
    <path class="uuid-464d8907-cad0-40f2-ade3-11fc732701d7" d="M1594.02,175.9h8.61v32.12h-8.61v-32.12Z"/>
    <path class="uuid-464d8907-cad0-40f2-ade3-11fc732701d7" d="M1608.19,175.9h8.61v32.12h-8.61v-32.12Z"/>
    <path class="uuid-464d8907-cad0-40f2-ade3-11fc732701d7" d="M1637.22,206.22c-.31,1.05-.69,2.17-1.13,3.34-.47,1.16-1.04,2.2-1.7,3.14-1.16,1.38-2.55,2.22-4.15,2.53-1.59.26-3.24.38-4.96.35h-3.91v-7.12h2.07c.48,0,.97-.01,1.47-.04.48,0,.89-.06,1.23-.18.26-.12.48-.32.66-.62.13-.28.2-.66.2-1.14,0-.35-.17-1.04-.51-2.07-.35-1.01-.77-2.15-1.25-3.41-1.03-2.74-1.75-4.6-2.18-5.58l-3.88-10.77h9.23l3.62,13.39h.08l3.68-13.39h8.91l-7.49,21.56Z"/>
    <path class="uuid-464d8907-cad0-40f2-ade3-11fc732701d7" d="M1675.71,208.02h-9.14l-3.36-14.35h-.09l-3.47,14.35h-9.14l-7.27-23.36h9.25l3.47,14.48h.09l2.97-14.48h8.33l3.12,14.48h.18l3.23-14.48h9.27l-7.43,23.36Z"/>
    <path class="uuid-464d8907-cad0-40f2-ade3-11fc732701d7" d="M1710.07,196.34c0,3.32-1.01,6.17-3.04,8.54-2.01,2.43-5.2,3.67-9.56,3.73-4.3-.06-7.47-1.3-9.52-3.74-2.09-2.37-3.11-5.22-3.06-8.55-.04-3.37.98-6.23,3.06-8.57,2.04-2.39,5.21-3.61,9.52-3.67,4.36.06,7.55,1.28,9.56,3.67,2.03,2.35,3.04,5.2,3.04,8.58ZM1701.46,196.34c0-.63-.03-1.3-.09-2-.09-.69-.28-1.31-.57-1.85-.27-.59-.66-1.06-1.17-1.43-.56-.34-1.28-.51-2.15-.51s-1.51.17-2.01.51c-.56.37-.98.84-1.26,1.43-.5,1.2-.74,2.49-.71,3.85,0,.6.06,1.23.18,1.89.09.66.27,1.29.53,1.89.27.6.69,1.08,1.26,1.43.5.4,1.17.59,2.01.59s1.59-.2,2.15-.59c.5-.35.89-.83,1.17-1.43.47-1.23.69-2.5.66-3.79Z"/>
    <path class="uuid-464d8907-cad0-40f2-ade3-11fc732701d7" d="M1738.42,196.34c0,3.32-1.01,6.17-3.04,8.54-2.01,2.43-5.2,3.67-9.56,3.73-4.3-.06-7.47-1.3-9.52-3.74-2.09-2.37-3.11-5.22-3.06-8.55-.04-3.37.98-6.23,3.06-8.57,2.04-2.39,5.21-3.61,9.52-3.67,4.36.06,7.55,1.28,9.56,3.67,2.03,2.35,3.04,5.2,3.04,8.58ZM1729.81,196.34c0-.63-.03-1.3-.09-2-.09-.69-.28-1.31-.57-1.85-.27-.59-.66-1.06-1.17-1.43-.56-.34-1.28-.51-2.15-.51s-1.51.17-2.01.51c-.56.37-.98.84-1.26,1.43-.5,1.2-.74,2.49-.71,3.85,0,.6.06,1.23.18,1.89.09.66.27,1.29.53,1.89.27.6.69,1.08,1.26,1.43.5.4,1.17.59,2.01.59s1.59-.2,2.15-.59c.5-.35.89-.83,1.17-1.43.47-1.23.69-2.5.66-3.79Z"/>
    <path class="uuid-464d8907-cad0-40f2-ade3-11fc732701d7" d="M1767.12,208.02h-8.49v-2.57h-.09c-.23.37-.53.71-.89,1.03-.35.37-.76.71-1.24,1.03-.48.34-1.1.59-1.87.77-.74.19-1.66.3-2.76.33-3.23-.1-5.65-1.46-7.26-4.07-1.64-2.49-2.46-5.27-2.46-8.33,0-1.41.17-2.81.51-4.22.29-1.41.82-2.71,1.58-3.91.75-1.2,1.76-2.17,3.05-2.92,1.29-.69,2.89-1.05,4.81-1.08,2.8.03,4.93,1.08,6.39,3.14h.09v-11.34h8.61v32.12ZM1758.8,196.33c0-1.48-.24-2.81-.73-3.98-.29-.54-.7-.97-1.23-1.3-.56-.34-1.26-.51-2.1-.51-1.58.03-2.67.63-3.26,1.81-.29.54-.5,1.16-.62,1.85-.12.69-.18,1.4-.18,2.14,0,.69.06,1.38.18,2.07.12.69.33,1.31.62,1.85.59,1.23,1.68,1.87,3.26,1.89.84,0,1.54-.2,2.1-.59.53-.32.94-.76,1.23-1.3.49-1.14.73-2.45.73-3.92h0Z"/>
    <path class="uuid-464d8907-cad0-40f2-ade3-11fc732701d7" d="M1772.61,199.14h9.05v7.04c0,2.15-.39,4.08-1.17,5.79-.82,1.71-2.2,2.93-4.14,3.64-.78.28-1.47.43-2.08.46-.67.06-1.22.09-1.66.09v-3.91c1.1-.12,2.02-.58,2.74-1.39.69-.78,1.07-1.73,1.13-2.85h-3.87v-8.88Z"/>
    <path class="uuid-464d8907-cad0-40f2-ade3-11fc732701d7" d="M1551.08,230.86c-.03-.34-.11-.78-.26-1.32-.17-.51-.43-1.02-.79-1.52-.34-.57-.84-1.04-1.49-1.41-.64-.32-1.46-.49-2.47-.49-2.18.06-3.72.99-4.62,2.8-.91,1.76-1.35,3.77-1.32,6.04-.03,2.26.41,4.27,1.32,6.04.89,1.84,2.43,2.77,4.62,2.8,1.59,0,2.78-.52,3.58-1.56.75-1,1.24-2.26,1.47-3.79h9.43c-.03,3.38-1.25,6.4-3.66,9.07-2.41,2.77-5.93,4.19-10.56,4.28-5.02-.06-8.9-1.69-11.64-4.9-2.75-3.12-4.13-7.1-4.13-11.93.03-5.16,1.46-9.24,4.3-12.24,2.8-3.03,6.62-4.56,11.47-4.59,8.54.23,13.24,4.48,14.09,12.73h-9.35Z"/>
    <path class="uuid-464d8907-cad0-40f2-ade3-11fc732701d7" d="M1588.04,245.81c0,.87.06,1.77.17,2.69.11.9.41,1.74.88,2.52h-9.08c-.23-.75-.34-1.48-.31-2.2h-.09c-.96,1.04-2.08,1.76-3.33,2.15-1.32.42-2.71.64-4.17.64-2.24,0-4.09-.57-5.56-1.71-1.57-1.17-2.37-2.96-2.4-5.36,0-1.83.48-3.25,1.45-4.26.92-1.02,2.07-1.76,3.45-2.22,1.45-.48,2.91-.81,4.37-.99s2.77-.34,3.91-.48c.34-.1.65-.2.95-.29.28-.09.53-.19.77-.31.48-.29.73-.79.73-1.49-.03-.8-.33-1.37-.9-1.69-.57-.31-1.25-.46-2.03-.46-1.34.03-2.23.28-2.67.76-.46.54-.68,1.07-.68,1.61h-8.3c.12-1.65.54-2.99,1.26-4.02.71-1.01,1.63-1.77,2.76-2.28,1.15-.54,2.42-.92,3.83-1.12,1.36-.15,2.71-.22,4.04-.22,2.72,0,4.86.25,6.41.75,1.54.51,2.62,1.21,3.24,2.09.65.87,1.06,1.84,1.22,2.92.06,1.1.09,2.22.09,3.36v9.6ZM1579.78,240.55c-1.17.51-2.39.89-3.68,1.12-2.1.26-3.15,1.11-3.15,2.53,0,.57.28,1.06.85,1.48.52.46,1.21.68,2.07.68,1.09,0,2-.32,2.74-.95.72-.6,1.11-1.5,1.17-2.71v-2.16Z"/>
    <path class="uuid-464d8907-cad0-40f2-ade3-11fc732701d7" d="M1593.16,218.9h8.61v32.12h-8.61v-32.12Z"/>
    <path class="uuid-464d8907-cad0-40f2-ade3-11fc732701d7" d="M1615.94,225.13h-8.61v-6.24h8.61v6.24ZM1607.33,227.66h8.61v23.36h-8.61v-23.36Z"/>
    <path class="uuid-464d8907-cad0-40f2-ade3-11fc732701d7" d="M1622.78,233.15h-3.55v-5.49h3.55c-.06-1.2.03-2.39.25-3.56.24-1.13.75-2.13,1.53-3.01.93-.95,2-1.57,3.18-1.84,1.19-.23,2.63-.35,4.33-.35,1.32.03,2.61.09,3.89.18v6.13c-.36-.07-.71-.15-1.06-.24-.37-.06-.73-.09-1.1-.09-1.07,0-1.8.18-2.2.55-.42.41-.61,1.16-.55,2.24h4.68v5.49h-4.35v17.87h-8.61v-17.87Z"/>
    <path class="uuid-464d8907-cad0-40f2-ade3-11fc732701d7" d="M1662.55,239.34c0,3.32-1.01,6.17-3.04,8.54-2.01,2.43-5.2,3.67-9.56,3.73-4.3-.06-7.47-1.3-9.52-3.74-2.09-2.37-3.11-5.22-3.06-8.55-.04-3.37.98-6.23,3.06-8.57,2.04-2.39,5.21-3.61,9.52-3.67,4.36.06,7.55,1.28,9.56,3.67,2.03,2.35,3.04,5.2,3.04,8.58ZM1653.94,239.34c0-.63-.03-1.3-.09-2-.09-.69-.28-1.31-.57-1.85-.27-.59-.66-1.06-1.17-1.43-.56-.34-1.28-.51-2.15-.51s-1.51.17-2.01.51c-.56.37-.98.84-1.26,1.43-.5,1.2-.74,2.49-.71,3.85,0,.6.06,1.23.18,1.89.09.66.27,1.29.53,1.89.27.6.69,1.08,1.26,1.43.5.4,1.17.59,2.01.59s1.59-.2,2.15-.59c.5-.35.89-.83,1.17-1.43.47-1.23.69-2.5.66-3.79Z"/>
    <path class="uuid-464d8907-cad0-40f2-ade3-11fc732701d7" d="M1667.19,227.66h8.28v3.74h.08c.7-1.41,1.55-2.48,2.57-3.23.98-.72,2.24-1.08,3.79-1.08.87,0,1.71.12,2.53.35v7.86c-.41-.18-.87-.32-1.36-.44-.5-.09-1.18-.13-2.04-.13-3.46-.06-5.21,2.29-5.24,7.05v9.23h-8.61v-23.36Z"/>
    <path class="uuid-464d8907-cad0-40f2-ade3-11fc732701d7" d="M1687.97,227.66h8.58v2.97h.09c1.58-2.36,4.11-3.54,7.59-3.54,2.11,0,3.93.64,5.44,1.93,1.5,1.29,2.27,3.28,2.3,5.98v16.02h-8.61v-12.26c.03-1.38-.13-2.49-.48-3.34-.37-.84-1.22-1.25-2.57-1.25-.84-.03-1.65.24-2.41.81-.37.29-.68.74-.94,1.34-.25.63-.37,1.42-.37,2.35v12.34h-8.61v-23.36Z"/>
    <path class="uuid-464d8907-cad0-40f2-ade3-11fc732701d7" d="M1725.92,225.13h-8.61v-6.24h8.61v6.24ZM1717.31,227.66h8.61v23.36h-8.61v-23.36Z"/>
    <path class="uuid-464d8907-cad0-40f2-ade3-11fc732701d7" d="M1753.85,245.81c0,.87.06,1.77.17,2.69.11.9.41,1.74.88,2.52h-9.08c-.23-.75-.34-1.48-.31-2.2h-.09c-.96,1.04-2.08,1.76-3.33,2.15-1.32.42-2.71.64-4.17.64-2.24,0-4.09-.57-5.56-1.71-1.57-1.17-2.37-2.96-2.4-5.36,0-1.83.48-3.25,1.45-4.26.92-1.02,2.07-1.76,3.45-2.22,1.45-.48,2.91-.81,4.37-.99s2.77-.34,3.91-.48c.34-.1.65-.2.95-.29.28-.09.53-.19.77-.31.48-.29.73-.79.73-1.49-.03-.8-.33-1.37-.9-1.69-.57-.31-1.25-.46-2.03-.46-1.34.03-2.23.28-2.67.76-.46.54-.68,1.07-.68,1.61h-8.3c.12-1.65.54-2.99,1.26-4.02.71-1.01,1.63-1.77,2.76-2.28,1.15-.54,2.42-.92,3.83-1.12,1.36-.15,2.71-.22,4.04-.22,2.72,0,4.86.25,6.41.75,1.54.51,2.62,1.21,3.24,2.09.65.87,1.06,1.84,1.22,2.92.06,1.1.09,2.22.09,3.36v9.6ZM1745.58,240.55c-1.17.51-2.39.89-3.68,1.12-2.1.26-3.15,1.11-3.15,2.53,0,.57.28,1.06.85,1.48.52.46,1.21.68,2.07.68,1.09,0,2-.32,2.74-.95.72-.6,1.11-1.5,1.17-2.71v-2.16Z"/>
  </g>
  <g>
    <path class="uuid-464d8907-cad0-40f2-ade3-11fc732701d7" d="M1550.49,103.91h5.66v4.48h-5.66v10.5h-4.96v-10.5h-21.06v-4.78l20.65-26.73h5.37v27.02ZM1545.54,103.91v-20.53l-15.87,20.53h15.87Z"/>
    <path class="uuid-464d8907-cad0-40f2-ade3-11fc732701d7" d="M1565.07,114.41h22.18v4.48h-27.73l.12-2.3c.24-3.46,1.02-6.43,2.36-8.91,1.34-2.48,3.6-4.64,6.79-6.49l5.31-3.07c2.67-1.57,4.57-3.11,5.69-4.6,1.12-1.49,1.68-3.3,1.68-5.43,0-2.32-.74-4.18-2.21-5.58-1.48-1.4-3.51-2.09-6.11-2.09-5.86,0-8.79,3.01-8.79,9.03h-4.9c-.04-4.29,1.16-7.61,3.6-9.97,2.44-2.36,5.84-3.54,10.21-3.54,3.97,0,7.2,1.12,9.68,3.36,2.48,2.32,3.72,5.25,3.72,8.79,0,5.43-3.19,9.99-9.56,13.69l-4.48,2.6c-2.6,1.57-4.46,3.1-5.61,4.57-1.14,1.47-1.79,3.29-1.95,5.46Z"/>
    <path class="uuid-464d8907-cad0-40f2-ade3-11fc732701d7" d="M1613.8,96.36c2.44.94,4.35,2.33,5.72,4.16,1.38,1.83,2.06,3.98,2.06,6.46,0,3.93-1.4,7.06-4.19,9.38-2.79,2.32-6.47,3.48-11.03,3.48s-8.24-1.16-11.03-3.48c-2.79-2.32-4.19-5.45-4.19-9.38,0-2.48.69-4.63,2.06-6.46s3.28-3.22,5.72-4.16c-4.05-1.77-6.08-4.74-6.08-8.91,0-3.58,1.28-6.41,3.83-8.5,2.56-2.01,5.78-3.01,9.68-3.01s7.12,1,9.68,3.01c2.56,2.08,3.83,4.92,3.83,8.5,0,4.17-2.03,7.14-6.08,8.91ZM1599.05,113.12c1.85,1.5,4.29,2.24,7.32,2.24s5.47-.75,7.32-2.24c1.81-1.46,2.71-3.5,2.71-6.14s-.91-4.74-2.71-6.2c-1.81-1.46-4.25-2.18-7.32-2.18s-5.51.73-7.32,2.18c-1.81,1.46-2.71,3.52-2.71,6.2s.9,4.68,2.71,6.14ZM1612.56,82.26c-1.57-1.22-3.64-1.83-6.2-1.83s-4.62.61-6.2,1.83c-1.61,1.26-2.42,2.99-2.42,5.19s.81,3.93,2.42,5.19c1.57,1.22,3.64,1.83,6.2,1.83s4.62-.61,6.2-1.83c1.61-1.26,2.42-2.99,2.42-5.19s-.81-3.93-2.42-5.19Z"/>
    <path class="uuid-464d8907-cad0-40f2-ade3-11fc732701d7" d="M1648.43,96.54c4.68,2.44,7.02,5.96,7.02,10.56,0,3.82-1.34,6.88-4.01,9.2-2.64,2.36-6.12,3.54-10.44,3.54-4.68,0-8.31-1.22-10.88-3.66-2.58-2.44-3.85-5.76-3.81-9.97h4.9c.08,2.99.96,5.26,2.66,6.81,1.69,1.55,4.07,2.33,7.14,2.33,2.83,0,5.08-.75,6.76-2.24,1.67-1.49,2.51-3.5,2.51-6.02s-.86-4.59-2.57-6.11c-1.71-1.51-4.04-2.27-6.99-2.27h-3.13v-4.13h2.83c2.79,0,4.95-.63,6.46-1.89,1.51-1.26,2.27-3.01,2.27-5.25s-.76-3.92-2.27-5.16c-1.51-1.24-3.57-1.86-6.17-1.86s-4.73.68-6.28,2.04c-1.55,1.36-2.39,3.35-2.51,5.99h-4.96c.04-3.81,1.29-6.85,3.75-9.12,2.46-2.26,5.79-3.39,10-3.39s7.31,1.01,9.76,3.04c2.46,2.03,3.69,4.81,3.69,8.35,0,4.01-1.91,7.08-5.72,9.2Z"/>
  </g>
  <g>
    <path class="uuid-464d8907-cad0-40f2-ade3-11fc732701d7" d="M1229.34,122.54c4.18,1.6,6.27,4.49,6.27,8.67,0,3.16-1.03,5.65-3.09,7.47-2.06,1.82-4.96,2.73-8.7,2.73h-15.86v-36.31h15.1c3.5,0,6.22.88,8.16,2.63,1.94,1.75,2.91,4.04,2.91,6.86,0,3.64-1.6,6.29-4.79,7.96ZM1222.76,108.97h-10.51v11.99h10.51c2.35,0,4.13-.54,5.35-1.63s1.84-2.62,1.84-4.59c0-1.8-.62-3.21-1.86-4.23-1.24-1.02-3.02-1.53-5.33-1.53ZM1212.25,137.53h11.37c2.52,0,4.43-.54,5.74-1.63,1.31-1.09,1.96-2.65,1.96-4.69,0-4.28-2.58-6.43-7.75-6.43h-11.32v12.75Z"/>
    <path class="uuid-464d8907-cad0-40f2-ade3-11fc732701d7" d="M1252.29,114.68c.68,0,1.14.02,1.38.05v3.93h-1.02c-2.72,0-4.84.67-6.35,2.01s-2.27,3.26-2.27,5.74v14.99h-4.08v-26.32h3.88v4.64c1.77-3.37,4.59-5.05,8.47-5.05Z"/>
    <path class="uuid-464d8907-cad0-40f2-ade3-11fc732701d7" d="M1277.23,138.09h1.48v3.32c-.68.1-1.43.15-2.24.15-2.75,0-4.23-1.26-4.44-3.77-1.84,2.82-4.69,4.23-8.57,4.23-2.89,0-5.16-.67-6.81-2.01-1.65-1.34-2.47-3.24-2.47-5.69,0-4.76,3.25-7.48,9.74-8.16l3.77-.41c2.75-.31,4.13-1.51,4.13-3.62,0-1.46-.45-2.52-1.35-3.16-.9-.65-2.42-.97-4.56-.97-2.28,0-3.92.38-4.92,1.15-1,.76-1.57,2.12-1.71,4.05h-4.08c.34-5.81,3.91-8.72,10.71-8.72s9.89,2.55,9.89,7.65v14.69c0,.85.48,1.27,1.43,1.27ZM1263.66,138.55c2.18,0,4.08-.66,5.71-1.99,1.63-1.29,2.45-3.14,2.45-5.56v-3.11c-.75.58-1.9.95-3.47,1.12l-3.83.46c-2.21.27-3.78.78-4.72,1.53-.94.75-1.4,1.82-1.4,3.21s.44,2.42,1.33,3.19c.88.77,2.19,1.15,3.93,1.15Z"/>
    <path class="uuid-464d8907-cad0-40f2-ade3-11fc732701d7" d="M1294.42,114.48c2.92,0,5.2.8,6.83,2.4,1.63,1.6,2.45,3.84,2.45,6.73v17.8h-4.08v-17.39c0-3.91-2.01-5.86-6.02-5.86-1.9,0-3.59.71-5.05,2.14s-2.19,3.5-2.19,6.22v14.89h-4.08v-26.32h3.88v3.93c2.01-3.03,4.76-4.54,8.26-4.54Z"/>
    <path class="uuid-464d8907-cad0-40f2-ade3-11fc732701d7" d="M1329.6,118.87v-13.77h4.08v36.31h-3.88v-4.08c-2.11,3.13-5.12,4.69-9.03,4.69-3.71,0-6.67-1.26-8.87-3.77-2.24-2.52-3.37-5.85-3.37-10s1.12-7.56,3.37-10.05c2.17-2.48,5.13-3.72,8.87-3.72s6.71,1.46,8.82,4.39ZM1315.12,135.75c1.53,1.73,3.59,2.6,6.17,2.6s4.64-.9,6.17-2.7c1.53-1.77,2.29-4.23,2.29-7.39s-.76-5.59-2.29-7.4c-1.53-1.8-3.59-2.7-6.17-2.7s-4.6.93-6.15,2.78c-1.55,1.85-2.32,4.36-2.32,7.52s.76,5.56,2.29,7.29Z"/>
    <path class="uuid-464d8907-cad0-40f2-ade3-11fc732701d7" d="M1354.03,141.41h-4.28v-36.31h4.28v36.31Z"/>
    <path class="uuid-464d8907-cad0-40f2-ade3-11fc732701d7" d="M1380.2,118.87v-13.77h4.08v36.31h-3.88v-4.08c-2.11,3.13-5.12,4.69-9.03,4.69-3.71,0-6.67-1.26-8.87-3.77-2.24-2.52-3.37-5.85-3.37-10s1.12-7.56,3.37-10.05c2.17-2.48,5.13-3.72,8.87-3.72s6.71,1.46,8.82,4.39ZM1365.71,135.75c1.53,1.73,3.59,2.6,6.17,2.6s4.64-.9,6.17-2.7c1.53-1.77,2.29-4.23,2.29-7.39s-.76-5.59-2.29-7.4c-1.53-1.8-3.59-2.7-6.17-2.7s-4.6.93-6.15,2.78c-1.55,1.85-2.32,4.36-2.32,7.52s.76,5.56,2.29,7.29Z"/>
    <path class="uuid-464d8907-cad0-40f2-ade3-11fc732701d7" d="M1413.35,128.25v1.43h-19.99c.2,2.86,1,5.01,2.4,6.45,1.39,1.45,3.3,2.17,5.71,2.17,3.64,0,5.97-1.63,6.99-4.9h4.23c-.71,2.65-2.04,4.75-3.98,6.3-1.94,1.55-4.39,2.32-7.34,2.32-3.64,0-6.58-1.24-8.82-3.72-2.28-2.48-3.42-5.83-3.42-10.05s1.12-7.48,3.37-10c2.21-2.52,5.13-3.77,8.77-3.77s6.73,1.31,8.87,3.93c2.14,2.62,3.21,5.9,3.21,9.84ZM1401.26,118.2c-2.14,0-3.89.67-5.25,2.01-1.36,1.34-2.21,3.27-2.55,5.79h15.5c-.2-2.31-.99-4.19-2.35-5.64-1.36-1.44-3.15-2.17-5.36-2.17Z"/>
    <path class="uuid-464d8907-cad0-40f2-ade3-11fc732701d7" d="M1430.33,114.48c2.92,0,5.2.8,6.83,2.4,1.63,1.6,2.45,3.84,2.45,6.73v17.8h-4.08v-17.39c0-3.91-2.01-5.86-6.02-5.86-1.9,0-3.59.71-5.05,2.14s-2.19,3.5-2.19,6.22v14.89h-4.08v-26.32h3.88v3.93c2.01-3.03,4.76-4.54,8.26-4.54Z"/>
    <path class="uuid-464d8907-cad0-40f2-ade3-11fc732701d7" d="M1456.24,115.09v3.57h-5.41v17.08c0,1.5,1,2.24,3.01,2.24h2.4v3.42c-1.12.1-2.09.15-2.91.15-4.39,0-6.58-1.82-6.58-5.46v-17.44h-4.33v-3.57h4.33v-7.45h4.08v7.45h5.41Z"/>
    <path class="uuid-464d8907-cad0-40f2-ade3-11fc732701d7" d="M1464.75,111.11h-4.33v-5h4.33v5ZM1464.65,141.41h-4.08v-26.32h4.08v26.32Z"/>
    <path class="uuid-464d8907-cad0-40f2-ade3-11fc732701d7" d="M1482.3,115.09v3.57h-5.41v17.08c0,1.5,1,2.24,3.01,2.24h2.4v3.42c-1.12.1-2.09.15-2.91.15-4.39,0-6.58-1.82-6.58-5.46v-17.44h-4.33v-3.57h4.33v-7.45h4.08v7.45h5.41Z"/>
    <path class="uuid-464d8907-cad0-40f2-ade3-11fc732701d7" d="M1499.59,126.01l3.72-10.91h4.44l-11.12,30.45c-.78,2.21-1.85,3.76-3.21,4.67-1.36.9-3.15,1.35-5.35,1.35-.75,0-1.56-.05-2.45-.15v-3.42h2.4c2.35,0,3.94-1.09,4.79-3.26l.92-2.45-9.89-27.18h4.49l3.72,10.96c1.33,3.88,2.58,7.67,3.77,11.37.99-3.16,2.24-6.97,3.77-11.42Z"/>
    <path class="uuid-464d8907-cad0-40f2-ade3-11fc732701d7" d="M1137.79,178l4.95-17.9h4.44l-10.3,36.31h-4.79l-5.2-18.51c-1.46-5.24-2.57-9.33-3.32-12.29-.75,2.96-1.85,7.06-3.31,12.29l-5.2,18.51h-4.79l-10.3-36.31h4.44l4.95,17.9c1.56,5.54,2.7,9.88,3.42,13,1.19-4.56,2.35-8.92,3.47-13.11l4.95-17.8h4.79l4.95,17.8c1.16,4.18,2.31,8.55,3.47,13.11.71-3.13,1.85-7.46,3.42-13Z"/>
    <path class="uuid-464d8907-cad0-40f2-ade3-11fc732701d7" d="M1170.64,183.25v1.43h-19.99c.2,2.86,1,5.01,2.4,6.45,1.39,1.45,3.3,2.17,5.71,2.17,3.64,0,5.97-1.63,6.99-4.9h4.23c-.71,2.65-2.04,4.75-3.98,6.3-1.94,1.55-4.39,2.32-7.34,2.32-3.64,0-6.58-1.24-8.82-3.72-2.28-2.48-3.42-5.83-3.42-10.05s1.12-7.48,3.37-10c2.21-2.52,5.13-3.77,8.77-3.77s6.73,1.31,8.87,3.93c2.14,2.62,3.21,5.9,3.21,9.84ZM1158.55,173.2c-2.14,0-3.89.67-5.25,2.01-1.36,1.34-2.21,3.27-2.55,5.79h15.5c-.2-2.31-.99-4.19-2.35-5.64-1.36-1.44-3.15-2.17-5.36-2.17Z"/>
    <path class="uuid-464d8907-cad0-40f2-ade3-11fc732701d7" d="M1188.39,169.48c3.71,0,6.68,1.24,8.92,3.72,2.21,2.52,3.32,5.87,3.32,10.05s-1.11,7.48-3.32,10c-2.24,2.52-5.22,3.77-8.92,3.77-3.91,0-6.92-1.56-9.03-4.69v4.08h-3.88v-36.31h4.08v13.77c2.11-2.92,5.05-4.39,8.82-4.39ZM1187.88,193.35c2.55,0,4.6-.93,6.15-2.78,1.55-1.85,2.32-4.36,2.32-7.52s-.76-5.52-2.27-7.27c-1.51-1.75-3.58-2.63-6.2-2.63s-4.64.88-6.17,2.65c-1.53,1.77-2.29,4.25-2.29,7.45s.76,5.63,2.29,7.39c1.53,1.8,3.59,2.7,6.17,2.7Z"/>
    <path class="uuid-464d8907-cad0-40f2-ade3-11fc732701d7" d="M1215.42,160.1h12.24c5.51,0,9.86,1.6,13.06,4.79,3.16,3.2,4.74,7.65,4.74,13.36s-1.58,10.08-4.74,13.31c-3.23,3.23-7.58,4.85-13.06,4.85h-12.24v-36.31ZM1219.7,192.53h7.96c4.28,0,7.57-1.26,9.87-3.77,2.29-2.52,3.44-6.02,3.44-10.51s-1.15-7.99-3.44-10.51c-2.29-2.52-5.58-3.77-9.87-3.77h-7.96v28.56Z"/>
    <path class="uuid-464d8907-cad0-40f2-ade3-11fc732701d7" d="M1273.5,183.25v1.43h-19.99c.2,2.86,1,5.01,2.4,6.45,1.39,1.45,3.3,2.17,5.71,2.17,3.64,0,5.97-1.63,6.99-4.9h4.23c-.71,2.65-2.04,4.75-3.98,6.3-1.94,1.55-4.39,2.32-7.34,2.32-3.64,0-6.58-1.24-8.82-3.72-2.28-2.48-3.42-5.83-3.42-10.05s1.12-7.48,3.37-10c2.21-2.52,5.13-3.77,8.77-3.77s6.73,1.31,8.87,3.93c2.14,2.62,3.21,5.9,3.21,9.84ZM1261.42,173.2c-2.14,0-3.89.67-5.25,2.01-1.36,1.34-2.21,3.27-2.55,5.79h15.5c-.2-2.31-.99-4.19-2.35-5.64-1.36-1.44-3.15-2.17-5.36-2.17Z"/>
    <path class="uuid-464d8907-cad0-40f2-ade3-11fc732701d7" d="M1290.49,181.77l4.33-11.68h4.39l-10.35,26.32h-4.28l-10.3-26.32h4.44l4.33,11.73c2.14,5.75,3.38,9.15,3.72,10.2.61-1.8,1.85-5.22,3.72-10.25Z"/>
    <path class="uuid-464d8907-cad0-40f2-ade3-11fc732701d7" d="M1323.94,183.25v1.43h-19.99c.2,2.86,1,5.01,2.4,6.45,1.39,1.45,3.3,2.17,5.71,2.17,3.64,0,5.97-1.63,6.99-4.9h4.23c-.71,2.65-2.04,4.75-3.98,6.3-1.94,1.55-4.39,2.32-7.34,2.32-3.64,0-6.58-1.24-8.82-3.72-2.28-2.48-3.42-5.83-3.42-10.05s1.12-7.48,3.37-10c2.21-2.52,5.13-3.77,8.77-3.77s6.73,1.31,8.87,3.93c2.14,2.62,3.21,5.9,3.21,9.84ZM1311.86,173.2c-2.14,0-3.89.67-5.25,2.01-1.36,1.34-2.21,3.27-2.55,5.79h15.5c-.2-2.31-.99-4.19-2.35-5.64-1.36-1.44-3.15-2.17-5.36-2.17Z"/>
    <path class="uuid-464d8907-cad0-40f2-ade3-11fc732701d7" d="M1332.87,196.41h-4.08v-36.31h4.08v36.31Z"/>
    <path class="uuid-464d8907-cad0-40f2-ade3-11fc732701d7" d="M1359.64,193.25c-2.41,2.52-5.47,3.77-9.18,3.77s-6.77-1.26-9.18-3.77c-2.38-2.48-3.57-5.81-3.57-10s1.19-7.51,3.57-10c2.41-2.52,5.47-3.77,9.18-3.77s6.77,1.26,9.18,3.77c2.38,2.48,3.57,5.81,3.57,10s-1.19,7.51-3.57,10ZM1344.29,190.64c1.53,1.8,3.59,2.7,6.17,2.7s4.64-.9,6.17-2.7c1.53-1.77,2.29-4.23,2.29-7.39s-.76-5.68-2.29-7.45c-1.53-1.77-3.59-2.65-6.17-2.65s-4.64.88-6.17,2.65c-1.53,1.77-2.29,4.25-2.29,7.45s.76,5.63,2.29,7.39Z"/>
    <path class="uuid-464d8907-cad0-40f2-ade3-11fc732701d7" d="M1380.96,169.48c3.71,0,6.68,1.24,8.92,3.72,2.21,2.52,3.32,5.87,3.32,10.05s-1.11,7.48-3.32,10c-2.24,2.52-5.22,3.77-8.92,3.77s-6.71-1.46-8.82-4.39v13.77h-4.08v-36.31h3.88v4.08c2.11-3.13,5.12-4.69,9.03-4.69ZM1380.45,193.35c2.55,0,4.6-.93,6.15-2.78,1.55-1.85,2.32-4.36,2.32-7.52s-.76-5.52-2.27-7.27c-1.51-1.75-3.58-2.63-6.2-2.63s-4.64.88-6.17,2.65c-1.53,1.77-2.29,4.25-2.29,7.45s.76,5.63,2.29,7.39c1.53,1.8,3.59,2.7,6.17,2.7Z"/>
    <path class="uuid-464d8907-cad0-40f2-ade3-11fc732701d7" d="M1425.74,169.48c2.86,0,5.07.83,6.66,2.47,1.58,1.65,2.37,3.85,2.37,6.6v17.85h-4.08v-17.44c0-3.88-1.84-5.81-5.51-5.81-1.94,0-3.54.77-4.82,2.32-1.27,1.55-1.91,3.73-1.91,6.55v14.38h-4.08v-17.44c0-3.88-1.84-5.81-5.51-5.81-1.9,0-3.5.77-4.79,2.32-1.29,1.55-1.94,3.73-1.94,6.55v14.38h-4.08v-26.32h3.88v3.88c1.73-2.99,4.27-4.49,7.6-4.49,3.94,0,6.65,1.65,8.11,4.95,1.84-3.3,4.54-4.95,8.11-4.95Z"/>
    <path class="uuid-464d8907-cad0-40f2-ade3-11fc732701d7" d="M1463.83,183.25v1.43h-19.99c.2,2.86,1,5.01,2.4,6.45,1.39,1.45,3.3,2.17,5.71,2.17,3.64,0,5.97-1.63,6.99-4.9h4.23c-.71,2.65-2.04,4.75-3.98,6.3-1.94,1.55-4.39,2.32-7.34,2.32-3.64,0-6.58-1.24-8.82-3.72-2.28-2.48-3.42-5.83-3.42-10.05s1.12-7.48,3.37-10c2.21-2.52,5.13-3.77,8.77-3.77s6.73,1.31,8.87,3.93c2.14,2.62,3.21,5.9,3.21,9.84ZM1451.75,173.2c-2.14,0-3.89.67-5.25,2.01-1.36,1.34-2.21,3.27-2.55,5.79h15.5c-.2-2.31-.99-4.19-2.35-5.64-1.36-1.44-3.15-2.17-5.36-2.17Z"/>
    <path class="uuid-464d8907-cad0-40f2-ade3-11fc732701d7" d="M1480.82,169.48c2.92,0,5.2.8,6.83,2.4,1.63,1.6,2.45,3.84,2.45,6.73v17.8h-4.08v-17.39c0-3.91-2.01-5.86-6.02-5.86-1.9,0-3.59.71-5.05,2.14s-2.19,3.5-2.19,6.22v14.89h-4.08v-26.32h3.88v3.93c2.01-3.03,4.76-4.54,8.26-4.54Z"/>
    <path class="uuid-464d8907-cad0-40f2-ade3-11fc732701d7" d="M1506.73,170.09v3.57h-5.41v17.08c0,1.5,1,2.24,3.01,2.24h2.4v3.42c-1.12.1-2.09.15-2.91.15-4.39,0-6.58-1.82-6.58-5.46v-17.44h-4.33v-3.57h4.33v-7.45h4.08v7.45h5.41Z"/>
    <path class="uuid-464d8907-cad0-40f2-ade3-11fc732701d7" d="M1091.49,215.1h12.24c5.51,0,9.86,1.6,13.06,4.79,3.16,3.2,4.74,7.65,4.74,13.36s-1.58,10.08-4.74,13.31c-3.23,3.23-7.58,4.84-13.06,4.84h-12.24v-36.31ZM1095.77,247.53h7.96c4.28,0,7.57-1.26,9.87-3.77,2.29-2.52,3.44-6.02,3.44-10.51s-1.15-7.99-3.44-10.51c-2.29-2.52-5.58-3.77-9.87-3.77h-7.96v28.56Z"/>
    <path class="uuid-464d8907-cad0-40f2-ade3-11fc732701d7" d="M1149.58,238.25v1.43h-19.99c.2,2.86,1,5.01,2.4,6.45,1.39,1.45,3.3,2.17,5.71,2.17,3.64,0,5.97-1.63,6.99-4.9h4.23c-.71,2.65-2.04,4.75-3.98,6.3-1.94,1.55-4.39,2.32-7.34,2.32-3.64,0-6.58-1.24-8.82-3.72-2.28-2.48-3.42-5.83-3.42-10.05s1.12-7.48,3.37-10c2.21-2.52,5.13-3.77,8.77-3.77s6.73,1.31,8.87,3.93c2.14,2.62,3.21,5.9,3.21,9.84ZM1137.49,228.2c-2.14,0-3.89.67-5.25,2.01-1.36,1.34-2.21,3.27-2.55,5.79h15.5c-.2-2.31-.99-4.19-2.35-5.63-1.36-1.45-3.15-2.17-5.36-2.17Z"/>
    <path class="uuid-464d8907-cad0-40f2-ade3-11fc732701d7" d="M1163.45,252.02c-7.04,0-10.76-2.99-11.17-8.98h4.13c.24,1.97.89,3.38,1.96,4.21s2.76,1.25,5.07,1.25c4.22,0,6.32-1.36,6.32-4.08,0-1.19-.43-2.09-1.3-2.7-.87-.61-2.44-1.14-4.72-1.58l-2.45-.46c-5.47-1.02-8.21-3.6-8.21-7.75,0-2.28.86-4.09,2.58-5.43s4.05-2.01,7.01-2.01c6.97,0,10.54,2.91,10.71,8.72h-4.08c-.1-1.9-.68-3.25-1.73-4.03-1.05-.78-2.69-1.17-4.9-1.17-1.77,0-3.13.34-4.08,1.02-.95.68-1.43,1.63-1.43,2.86,0,1.16.41,2.02,1.22,2.6s2.18,1.07,4.08,1.48l2.35.46c3.23.65,5.55,1.56,6.96,2.75,1.41,1.19,2.12,2.86,2.12,5,0,2.48-.93,4.41-2.78,5.79-1.85,1.38-4.41,2.07-7.68,2.07Z"/>
    <path class="uuid-464d8907-cad0-40f2-ade3-11fc732701d7" d="M1182.17,221.11h-4.33v-5h4.33v5ZM1182.06,251.41h-4.08v-26.32h4.08v26.32Z"/>
    <path class="uuid-464d8907-cad0-40f2-ade3-11fc732701d7" d="M1208.17,228.92v-3.83h3.88v25.3c0,3.6-1.05,6.44-3.16,8.52-2.11,2.07-5.13,3.11-9.08,3.11-3.26,0-5.88-.75-7.85-2.24-1.97-1.5-3.09-3.57-3.37-6.22h4.08c.51,3.33,2.89,5,7.14,5,5.44,0,8.16-2.72,8.16-8.16v-2.55c-2.07,2.79-5.02,4.18-8.82,4.18s-6.67-1.26-8.87-3.77c-2.24-2.52-3.37-5.85-3.37-10s1.12-7.56,3.37-10.05c2.17-2.48,5.13-3.72,8.87-3.72s6.92,1.48,9.03,4.44ZM1199.66,248.35c2.58,0,4.64-.9,6.17-2.7s2.29-4.27,2.29-7.4-.76-5.59-2.29-7.39c-1.53-1.8-3.59-2.7-6.17-2.7s-4.6.92-6.15,2.75c-1.55,1.84-2.32,4.28-2.32,7.34s.77,5.51,2.32,7.34c1.55,1.84,3.6,2.75,6.15,2.75Z"/>
    <path class="uuid-464d8907-cad0-40f2-ade3-11fc732701d7" d="M1230.31,224.48c2.92,0,5.2.8,6.83,2.4,1.63,1.6,2.45,3.84,2.45,6.73v17.8h-4.08v-17.39c0-3.91-2.01-5.87-6.02-5.87-1.9,0-3.59.71-5.05,2.14-1.46,1.43-2.19,3.5-2.19,6.22v14.89h-4.08v-26.32h3.88v3.93c2.01-3.03,4.76-4.54,8.26-4.54Z"/>
    <path class="uuid-464d8907-cad0-40f2-ade3-11fc732701d7" d="M1268.3,224.48c3.71,0,6.68,1.24,8.92,3.72,2.21,2.52,3.32,5.87,3.32,10.05s-1.11,7.48-3.32,10c-2.24,2.52-5.22,3.77-8.92,3.77-3.91,0-6.92-1.56-9.03-4.69v4.08h-3.88v-36.31h4.08v13.77c2.11-2.92,5.05-4.39,8.82-4.39ZM1267.79,248.35c2.55,0,4.6-.93,6.15-2.78,1.55-1.85,2.32-4.36,2.32-7.52s-.76-5.52-2.27-7.27c-1.51-1.75-3.58-2.63-6.2-2.63s-4.64.88-6.17,2.65c-1.53,1.77-2.29,4.25-2.29,7.45s.76,5.63,2.29,7.4c1.53,1.8,3.59,2.7,6.17,2.7Z"/>
    <path class="uuid-464d8907-cad0-40f2-ade3-11fc732701d7" d="M1296.81,236.01l3.72-10.91h4.44l-11.12,30.45c-.78,2.21-1.85,3.77-3.21,4.67-1.36.9-3.15,1.35-5.35,1.35-.75,0-1.56-.05-2.45-.15v-3.42h2.4c2.35,0,3.94-1.09,4.79-3.26l.92-2.45-9.89-27.18h4.49l3.72,10.97c1.33,3.88,2.58,7.67,3.77,11.37.99-3.16,2.24-6.97,3.77-11.42Z"/>
    <path class="uuid-464d8907-cad0-40f2-ade3-11fc732701d7" d="M1327.21,228.41l-4.84,6.68-2.55-2.04,4.9-6.78-7.75-2.5,1.07-3.06,7.55,2.45v-8.06h3.26v8.06l7.55-2.45,1.07,3.06-7.75,2.5,4.9,6.78-2.55,2.04-4.84-6.68Z"/>
    <path class="uuid-464d8907-cad0-40f2-ade3-11fc732701d7" d="M1365.25,235.14l8.11-20.04h5.61v36.31h-4.18v-11.63c0-7.65.05-13.82.15-18.51-.82,2.24-1.89,5-3.21,8.26l-8.98,21.88h-3.67l-9.03-21.88c-1.33-3.26-2.4-6.02-3.21-8.26.1,4.69.15,10.86.15,18.51v11.63h-4.18v-36.31h5.61l8.42,20.66c1.26,3.09,2.63,6.58,4.13,10.46,2.07-5.51,3.5-9.2,4.28-11.07Z"/>
    <path class="uuid-464d8907-cad0-40f2-ade3-11fc732701d7" d="M1403.4,223.56l5.3-8.47h4.84l-13.87,21.73v14.59h-4.28v-14.59l-13.87-21.73h4.9l5.35,8.52c2.31,3.6,4.25,6.73,5.81,9.38,2.18-3.67,4.11-6.82,5.81-9.43Z"/>
    <path class="uuid-464d8907-cad0-40f2-ade3-11fc732701d7" d="M1420.38,215.1v32.44h18.26v3.88h-22.54v-36.31h4.28Z"/>
    <path class="uuid-464d8907-cad0-40f2-ade3-11fc732701d7" d="M1455.42,236.62v-3.88h15.45v18.67h-3.52l-.92-4.9c-2.69,3.81-6.65,5.71-11.88,5.71s-9.35-1.75-12.44-5.25c-3.16-3.47-4.74-8.04-4.74-13.72s1.56-10.23,4.69-13.77c3.09-3.47,7.28-5.2,12.55-5.2,4.32,0,7.89,1.16,10.71,3.47,2.82,2.31,4.54,5.39,5.15,9.23h-4.44c-.44-2.69-1.73-4.83-3.88-6.43-2.07-1.56-4.59-2.35-7.55-2.35-3.88,0-6.97,1.36-9.28,4.08-2.31,2.72-3.47,6.38-3.47,10.96s1.16,8.25,3.47,10.96c2.31,2.72,5.41,4.08,9.28,4.08,3.43,0,6.36-1.1,8.77-3.31s3.62-5,3.62-8.36h-11.58Z"/>
    <path class="uuid-464d8907-cad0-40f2-ade3-11fc732701d7" d="M1481.13,251.41h-5.15v-5.1h5.15v5.1ZM1479.8,241.92h-2.65l-.71-16.83v-10h4.28v10l-.92,16.83Z"/>
    <path class="uuid-464d8907-cad0-40f2-ade3-11fc732701d7" d="M1495.71,228.41l-4.84,6.68-2.55-2.04,4.9-6.78-7.75-2.5,1.07-3.06,7.55,2.45v-8.06h3.26v8.06l7.55-2.45,1.07,3.06-7.75,2.5,4.9,6.78-2.55,2.04-4.84-6.68Z"/>
  </g>
  <g>
    <path class="uuid-464d8907-cad0-40f2-ade3-11fc732701d7" d="M1866.6,154.87v11.28h-2.28v-14.1l1.17.06c1.76.12,3.27.52,4.53,1.2s2.36,1.83,3.3,3.45l1.56,2.7c.8,1.36,1.58,2.32,2.34,2.89.76.57,1.68.86,2.76.86,1.18,0,2.12-.38,2.83-1.12s1.06-1.79,1.06-3.11c0-2.98-1.53-4.47-4.59-4.47v-2.49c2.18-.02,3.87.59,5.07,1.83s1.8,2.97,1.8,5.19c0,2.02-.57,3.66-1.71,4.92-1.18,1.26-2.67,1.89-4.47,1.89-2.76,0-5.08-1.62-6.96-4.86l-1.32-2.28c-.8-1.32-1.58-2.27-2.33-2.85s-1.67-.91-2.77-.99Z"/>
    <path class="uuid-464d8907-cad0-40f2-ade3-11fc732701d7" d="M1866.6,171.31v11.28h-2.28v-14.1l1.17.06c1.76.12,3.27.52,4.53,1.2s2.36,1.83,3.3,3.45l1.56,2.7c.8,1.36,1.58,2.32,2.34,2.89.76.57,1.68.86,2.76.86,1.18,0,2.12-.38,2.83-1.12s1.06-1.79,1.06-3.11c0-2.98-1.53-4.47-4.59-4.47v-2.49c2.18-.02,3.87.59,5.07,1.83s1.8,2.97,1.8,5.19c0,2.02-.57,3.66-1.71,4.92-1.18,1.26-2.67,1.89-4.47,1.89-2.76,0-5.08-1.62-6.96-4.86l-1.32-2.28c-.8-1.32-1.58-2.27-2.33-2.85s-1.67-.91-2.77-.99Z"/>
    <path class="uuid-464d8907-cad0-40f2-ade3-11fc732701d7" d="M1871.7,192.79v-8.67h2.16v8.67h-2.16Z"/>
    <path class="uuid-464d8907-cad0-40f2-ade3-11fc732701d7" d="M1885.68,198.31v2.04h-21.36v-2.52h15.93v-4.86h1.98l.03.48c.1,1.52.4,2.65.9,3.39.5.74,1.34,1.23,2.52,1.47Z"/>
    <path class="uuid-464d8907-cad0-40f2-ade3-11fc732701d7" d="M1866.6,206.53v11.28h-2.28v-14.1l1.17.06c1.76.12,3.27.52,4.53,1.2s2.36,1.83,3.3,3.45l1.56,2.7c.8,1.36,1.58,2.32,2.34,2.89.76.57,1.68.86,2.76.86,1.18,0,2.12-.38,2.83-1.12s1.06-1.79,1.06-3.11c0-2.98-1.53-4.47-4.59-4.47v-2.49c2.18-.02,3.87.59,5.07,1.83s1.8,2.97,1.8,5.19c0,2.02-.57,3.66-1.71,4.92-1.18,1.26-2.67,1.89-4.47,1.89-2.76,0-5.08-1.62-6.96-4.86l-1.32-2.28c-.8-1.32-1.58-2.27-2.33-2.85s-1.67-.91-2.77-.99Z"/>
    <path class="uuid-464d8907-cad0-40f2-ade3-11fc732701d7" d="M1871.7,228.01v-8.67h2.16v8.67h-2.16Z"/>
    <path class="uuid-464d8907-cad0-40f2-ade3-11fc732701d7" d="M1885.68,233.53v2.04h-21.36v-2.52h15.93v-4.86h1.98l.03.48c.1,1.52.4,2.65.9,3.39.5.74,1.34,1.23,2.52,1.47Z"/>
    <path class="uuid-464d8907-cad0-40f2-ade3-11fc732701d7" d="M1866.72,252.55c-1.92-1.3-2.88-3.23-2.88-5.79s.96-4.51,2.88-5.79c1.94-1.3,4.7-1.95,8.28-1.95s6.34.65,8.28,1.95c1.92,1.28,2.88,3.21,2.88,5.79s-.96,4.49-2.88,5.79c-1.94,1.3-4.7,1.95-8.28,1.95s-6.34-.65-8.28-1.95ZM1883.88,246.76c0-3.4-2.96-5.1-8.88-5.1s-8.88,1.7-8.88,5.1,2.96,5.1,8.88,5.1,8.88-1.7,8.88-5.1Z"/>
  </g>
</svg>