<?xml version="1.0" encoding="UTF-8"?>
<svg id="uuid-8652c410-5f6c-4aa3-b7ec-ce7f081d743e" data-name="Layer 1" xmlns="http://www.w3.org/2000/svg" xmlns:xlink="http://www.w3.org/1999/xlink" viewBox="0 0 1920 956">
  <defs>
    <style>
      .uuid-7e4c2ff6-aece-4ded-9149-70a917591d77 {
        fill: none;
      }

      .uuid-7e4c2ff6-aece-4ded-9149-70a917591d77, .uuid-e4ab4c69-1191-42ad-a5a3-f99017ffb5b2, .uuid-f974692a-238a-4c3d-b603-2884734b74ca, .uuid-0a92b05f-d314-401a-8c16-4170237004cd {
        stroke-width: 0px;
      }

      .uuid-e4ab4c69-1191-42ad-a5a3-f99017ffb5b2 {
        fill: #fff;
      }

      .uuid-f974692a-238a-4c3d-b603-2884734b74ca {
        fill: #1a1818;
      }

      .uuid-0a92b05f-d314-401a-8c16-4170237004cd {
        fill: #d0ad54;
      }

      .uuid-bf7a0d91-8599-4c2a-a1d0-f3e249026050 {
        clip-path: url(#uuid-7a77a04f-b56e-48ab-8029-0412095a65f4);
      }
    </style>
    <clipPath id="uuid-7a77a04f-b56e-48ab-8029-0412095a65f4">
      <rect class="uuid-7e4c2ff6-aece-4ded-9149-70a917591d77" x="776.76" y="295.01" width="366" height="366"/>
    </clipPath>
  </defs>
  <image width="1920" height="956" xlink:href="https://mylgcontent.s3.us-west-1.amazonaws.com/31-Pipedream+Events/01.jpg"/>
  <g id="uuid-bd4c2817-4e94-431d-bb8e-0eb83c16a696" data-name="Group 769">
    <g class="uuid-bf7a0d91-8599-4c2a-a1d0-f3e249026050">
      <g id="uuid-7341b69d-1bce-430f-b8e4-be6aefb1df8d" data-name="Group 768">
        <path id="uuid-9788dac5-0a19-4877-92f3-aebad8b04b80" data-name="Path 3383" class="uuid-f974692a-238a-4c3d-b603-2884734b74ca" d="M959.76,654.58c-97.36,0-176.58-79.21-176.58-176.58s79.21-176.58,176.58-176.58,176.58,79.21,176.58,176.58-79.21,176.58-176.58,176.58"/>
        <path id="uuid-e3c5828b-cefd-410f-af8d-727b42d34fe2" data-name="Path 3384" class="uuid-0a92b05f-d314-401a-8c16-4170237004cd" d="M959.76,307.85c93.98,0,170.16,76.18,170.16,170.16s-76.18,170.16-170.16,170.16-170.16-76.18-170.16-170.16c0-93.98,76.18-170.16,170.16-170.16M959.76,295.01c-100.9,0-183,82.09-183,183s82.1,183,183,183,183-82.09,183-183-82.09-183-183-183"/>
        <path id="uuid-9e5a3075-dce6-46e0-a18c-113b6e3f8d0c" data-name="Path 3385" class="uuid-0a92b05f-d314-401a-8c16-4170237004cd" d="M959.09,634.94c-.88,0-1.6-.72-1.6-1.6h0v-4.29c0-.89.72-1.6,1.6-1.6s1.6.72,1.6,1.6v4.28c0,.88-.72,1.6-1.6,1.6h0M959.1,622.09c-.88,0-1.6-.72-1.6-1.6h0v-4.28c0-.89.72-1.6,1.6-1.6s1.6.72,1.6,1.6v4.28c0,.88-.72,1.6-1.6,1.6h0M959.11,609.25c-.88,0-1.6-.72-1.6-1.6h0v-4.28c0-.89.72-1.6,1.6-1.6s1.6.72,1.6,1.6v4.28c0,.88-.72,1.6-1.6,1.6h0M959.11,596.41c-.88,0-1.6-.72-1.6-1.6h0v-4.28c0-.89.72-1.6,1.6-1.6s1.6.72,1.6,1.6v4.28c0,.88-.72,1.6-1.6,1.6h0M959.12,583.57c-.88,0-1.6-.72-1.6-1.6,0,0,0,0,0,0v-4.28c0-.89.72-1.6,1.6-1.6s1.6.72,1.6,1.6v4.28c0,.88-.71,1.6-1.59,1.61h0M959.13,570.73c-.88,0-1.6-.72-1.6-1.6,0,0,0,0,0,0v-4.28c0-.89.72-1.6,1.6-1.6s1.6.72,1.6,1.6v4.28c0,.88-.71,1.6-1.59,1.61h0M959.14,557.89c-.88,0-1.6-.72-1.6-1.6,0,0,0,0,0,0v-4.28c0-.89.72-1.6,1.6-1.6s1.6.72,1.6,1.6v4.28c0,.88-.71,1.6-1.59,1.61,0,0,0,0,0,0M959.15,545.04c-.88,0-1.6-.72-1.6-1.6h0v-4.28c0-.89.72-1.6,1.6-1.6s1.6.72,1.6,1.6v4.28c0,.88-.72,1.6-1.6,1.6h0M959.15,532.2c-.88,0-1.6-.72-1.6-1.6,0,0,0,0,0,0v-4.28c0-.89.72-1.6,1.6-1.6s1.6.72,1.6,1.6v4.28c0,.88-.71,1.6-1.59,1.61,0,0,0,0,0,0M959.16,519.36c-.88,0-1.6-.72-1.6-1.61v-4.28c0-.89.72-1.6,1.6-1.6s1.6.72,1.6,1.6v4.28c0,.88-.72,1.6-1.6,1.61M959.17,506.52c-.88,0-1.6-.72-1.6-1.6h0v-4.28c0-.89.72-1.6,1.6-1.6s1.6.72,1.6,1.6v4.28c0,.88-.72,1.6-1.6,1.6h0M959.18,493.68c-.88,0-1.6-.72-1.6-1.6h0v-4.28c0-.89.72-1.6,1.6-1.6s1.6.72,1.6,1.6v4.28c0,.88-.72,1.6-1.6,1.6h0M959.19,480.83c-.88,0-1.6-.72-1.6-1.6,0,0,0,0,0,0v-4.28c0-.89.72-1.6,1.6-1.6s1.6.72,1.6,1.6v4.28c0,.88-.71,1.6-1.59,1.61,0,0,0,0,0,0M959.19,467.99c-.88,0-1.6-.72-1.6-1.61v-4.28c0-.89.72-1.6,1.6-1.6s1.6.72,1.6,1.6v4.28c0,.88-.72,1.6-1.6,1.61M959.2,455.15c-.88,0-1.6-.72-1.6-1.61v-4.28c0-.89.72-1.6,1.6-1.6s1.6.72,1.6,1.6v4.28c0,.88-.72,1.6-1.6,1.61M959.21,442.31c-.88,0-1.6-.72-1.6-1.6h0v-4.28c0-.89.72-1.6,1.6-1.6s1.6.72,1.6,1.6v4.28c0,.88-.72,1.6-1.6,1.6h0M959.22,429.47c-.88,0-1.6-.72-1.6-1.6,0,0,0,0,0,0v-4.28c0-.89.72-1.6,1.6-1.6s1.6.72,1.6,1.6v4.28c0,.88-.71,1.6-1.59,1.61,0,0,0,0,0,0M959.23,416.62c-.88,0-1.6-.72-1.6-1.6,0,0,0,0,0,0v-4.28c0-.89.72-1.6,1.6-1.6s1.6.72,1.6,1.6v4.27c0,.88-.71,1.6-1.59,1.61,0,0,0,0,0,0M959.23,403.78c-.88,0-1.6-.72-1.6-1.6v-4.28c0-.89.72-1.6,1.6-1.6s1.6.72,1.6,1.6v4.28c0,.88-.72,1.6-1.6,1.6M959.24,390.94c-.88,0-1.6-.72-1.6-1.6v-4.28c0-.89.72-1.6,1.6-1.6s1.6.72,1.6,1.6v4.28c0,.88-.72,1.6-1.6,1.6M959.25,378.09c-.88,0-1.6-.72-1.6-1.6,0,0,0,0,0,0v-4.27c0-.89.72-1.6,1.6-1.6s1.6.72,1.6,1.6v4.28c0,.88-.71,1.6-1.59,1.61,0,0,0,0,0,0M959.26,365.26c-.88,0-1.6-.72-1.6-1.6v-4.28c0-.89.72-1.6,1.6-1.6s1.6.72,1.6,1.6v4.28c0,.88-.72,1.6-1.6,1.6M959.27,352.42c-.88,0-1.6-.72-1.6-1.6v-4.29c0-.89.72-1.6,1.6-1.6s1.6.72,1.6,1.6v4.28c0,.88-.72,1.6-1.6,1.6M959.27,339.57c-.88,0-1.6-.72-1.6-1.6,0,0,0,0,0,0v-4.28c0-.89.72-1.6,1.6-1.6s1.6.72,1.6,1.6h0v4.28c0,.88-.71,1.6-1.59,1.61,0,0,0,0,0,0M959.28,326.73c-.88,0-1.6-.72-1.6-1.6,0,0,0,0,0,0v-4.28c0-.89.72-1.6,1.6-1.6s1.6.72,1.6,1.6v4.28c0,.88-.71,1.6-1.59,1.61,0,0,0,0,0,0"/>
        <path id="uuid-5a98de10-7351-4b08-b7c2-4298f8f95b3d" data-name="Path 3386" class="uuid-0a92b05f-d314-401a-8c16-4170237004cd" d="M1114.9,479.12h-4.28c-.89,0-1.61-.72-1.61-1.6,0-.89.72-1.61,1.6-1.61h4.28c.89,0,1.6.72,1.6,1.61,0,.89-.72,1.6-1.6,1.6M1102.06,479.12h-4.28c-.89,0-1.6-.72-1.6-1.61,0-.89.72-1.6,1.6-1.6h4.28c.89,0,1.61.72,1.61,1.6,0,.89-.72,1.61-1.6,1.61h0M1089.21,479.12h-4.28c-.89,0-1.61-.72-1.61-1.6,0-.89.72-1.61,1.6-1.61h4.28c.89,0,1.61.72,1.61,1.6,0,.89-.72,1.61-1.6,1.61h0M1076.37,479.12h-4.28c-.89,0-1.61-.72-1.61-1.6,0-.89.72-1.61,1.6-1.61h4.29c.89,0,1.61.72,1.61,1.6,0,.89-.72,1.61-1.6,1.61h0M1063.53,479.12h-4.28c-.89,0-1.61-.72-1.61-1.6,0-.89.72-1.61,1.6-1.61h4.28c.89,0,1.6.72,1.6,1.61,0,.89-.72,1.6-1.6,1.6M1050.69,479.12h-4.28c-.89,0-1.6-.72-1.6-1.61,0-.89.72-1.6,1.6-1.6h4.28c.89,0,1.61.72,1.61,1.6,0,.89-.72,1.61-1.6,1.61h0M1037.85,479.12h-4.28c-.89,0-1.61-.72-1.61-1.6,0-.89.72-1.61,1.6-1.61h4.28c.89,0,1.61.72,1.61,1.6,0,.89-.72,1.61-1.6,1.61h0M1025.01,479.12h-4.28c-.89,0-1.61-.72-1.61-1.6,0-.89.72-1.61,1.6-1.61h4.28c.89,0,1.6.72,1.6,1.61,0,.89-.72,1.6-1.6,1.6M1012.16,479.12h-4.28c-.89,0-1.6-.72-1.6-1.61,0-.89.72-1.6,1.6-1.6h4.28c.89,0,1.6.72,1.6,1.61,0,.89-.72,1.6-1.6,1.6M999.32,479.12h-4.28c-.89,0-1.6-.72-1.6-1.61,0-.89.72-1.6,1.6-1.6h4.28c.89,0,1.6.72,1.6,1.61,0,.89-.72,1.6-1.6,1.6M986.48,479.12h-4.28c-.89,0-1.61-.72-1.61-1.6,0-.89.72-1.61,1.6-1.61h4.28c.89,0,1.61.72,1.61,1.6,0,.89-.72,1.61-1.6,1.61h0M973.64,479.12h-4.28c-.89,0-1.61-.72-1.61-1.6,0-.89.72-1.61,1.6-1.61h4.28c.89,0,1.61.72,1.61,1.6,0,.89-.72,1.61-1.6,1.61h0M960.8,479.12h-4.28c-.89,0-1.61-.72-1.61-1.6,0-.89.72-1.61,1.6-1.61h4.28c.89,0,1.6.72,1.6,1.61,0,.89-.72,1.6-1.6,1.6M947.96,479.12h-4.28c-.89,0-1.6-.72-1.6-1.61,0-.89.72-1.6,1.6-1.6h4.28c.89,0,1.6.72,1.6,1.61,0,.89-.72,1.6-1.6,1.6M935.11,479.12h-4.28c-.89,0-1.6-.72-1.6-1.61,0-.89.72-1.6,1.6-1.6h4.28c.89,0,1.61.72,1.61,1.6,0,.89-.72,1.61-1.6,1.61h0M922.27,479.12h-4.28c-.89,0-1.61-.72-1.61-1.6,0-.89.72-1.61,1.6-1.61h4.28c.89,0,1.6.72,1.6,1.61,0,.89-.72,1.6-1.6,1.6M909.43,479.12h-4.29c-.89,0-1.6-.72-1.6-1.61,0-.89.72-1.6,1.6-1.6h4.28c.89,0,1.6.72,1.6,1.61,0,.89-.72,1.6-1.6,1.6M896.58,479.12h-4.28c-.89,0-1.6-.72-1.6-1.61,0-.89.72-1.6,1.6-1.6h4.28c.89,0,1.61.72,1.61,1.6,0,.89-.72,1.61-1.6,1.61h0M883.74,479.12h-4.28c-.89,0-1.61-.72-1.61-1.6,0-.89.72-1.61,1.6-1.61h4.28c.89,0,1.6.72,1.6,1.61,0,.89-.72,1.6-1.6,1.6M870.9,479.12h-4.28c-.89,0-1.6-.72-1.6-1.61,0-.89.72-1.6,1.6-1.6h4.28c.89,0,1.6.72,1.6,1.61,0,.89-.72,1.6-1.6,1.6M858.06,479.12h-4.28c-.89,0-1.6-.72-1.6-1.61,0-.89.72-1.6,1.6-1.6h4.28c.89,0,1.61.72,1.61,1.6,0,.89-.72,1.61-1.6,1.61h0M845.21,479.12h-4.28c-.89,0-1.61-.72-1.61-1.6,0-.89.72-1.61,1.6-1.61h4.28c.89,0,1.61.72,1.61,1.6,0,.89-.72,1.61-1.6,1.61h0M832.37,479.12h-4.28c-.89,0-1.61-.72-1.61-1.6,0-.89.72-1.61,1.6-1.61h4.28c.89,0,1.6.72,1.6,1.61,0,.89-.72,1.6-1.6,1.6M819.53,479.12h-4.28c-.89,0-1.6-.72-1.6-1.61,0-.89.72-1.6,1.6-1.6h4.28c.89,0,1.6.72,1.6,1.61,0,.89-.72,1.6-1.6,1.6M806.69,479.12h-4.28c-.89,0-1.6-.72-1.6-1.61,0-.89.72-1.6,1.6-1.6h4.28c.89,0,1.6.72,1.6,1.61,0,.89-.72,1.6-1.6,1.6"/>
        <path id="uuid-a60e9274-cdb8-4c59-871e-2a63c6d7119e" data-name="Path 3387" class="uuid-0a92b05f-d314-401a-8c16-4170237004cd" d="M1069.26,589.29c-.43,0-.84-.17-1.14-.47l-3.03-3.03c-.63-.62-.64-1.64-.02-2.27.62-.63,1.64-.64,2.27-.02,0,0,.01.01.02.02l3.03,3.02c.62.63.62,1.64,0,2.27-.3.3-.71.47-1.14.47M1060.18,580.21c-.43,0-.84-.17-1.13-.47l-3.03-3.02c-.63-.63-.63-1.65,0-2.27s1.65-.63,2.27,0l3.03,3.03c.63.63.63,1.65,0,2.27-.3.3-.71.47-1.14.47M1051.1,571.13c-.43,0-.84-.17-1.14-.47l-3.03-3.03c-.62-.63-.62-1.65.02-2.27.63-.62,1.63-.62,2.26,0l3.03,3.03c.63.63.63,1.64,0,2.27-.3.3-.72.48-1.15.47M1042.02,562.05c-.43,0-.83-.17-1.14-.47l-3.03-3.02c-.62-.63-.62-1.65.02-2.27.63-.62,1.63-.62,2.26,0l3.03,3.02c.63.62.64,1.63.02,2.26-.31.31-.72.48-1.16.48M1032.94,552.97c-.43,0-.83-.17-1.14-.47l-3.03-3.03c-.62-.64-.6-1.66.04-2.28.62-.6,1.61-.6,2.23,0l3.03,3.03c.63.62.64,1.63.02,2.26-.31.31-.72.49-1.16.48M1023.86,543.89c-.43,0-.84-.17-1.14-.47l-3.03-3.03c-.62-.63-.62-1.65.02-2.27.63-.62,1.63-.62,2.26,0l3.03,3.02c.62.63.62,1.64,0,2.27-.3.3-.71.47-1.14.47M1014.77,534.81c-.43,0-.84-.17-1.14-.47l-3.02-3.02c-.63-.63-.63-1.64,0-2.27s1.64-.63,2.27,0l3.03,3.03c.63.63.63,1.64,0,2.27-.3.3-.71.47-1.14.47M1005.69,525.73c-.43,0-.84-.17-1.14-.47l-3.03-3.03c-.62-.63-.62-1.65.02-2.27.63-.62,1.63-.62,2.26,0l3.02,3.03c.63.62.64,1.63.02,2.26-.3.31-.72.48-1.16.48M996.61,516.65c-.43,0-.84-.17-1.14-.47l-3.03-3.02c-.62-.63-.62-1.65.02-2.27.63-.62,1.63-.62,2.26,0l3.03,3.03c.63.63.63,1.65,0,2.27-.3.3-.71.47-1.14.47M987.53,507.57c-.43,0-.84-.17-1.14-.47l-3.03-3.03c-.63-.63-.63-1.65,0-2.27s1.65-.63,2.27,0l3.03,3.02c.63.63.63,1.64,0,2.27-.3.3-.71.48-1.14.47M978.45,498.49c-.43,0-.84-.17-1.14-.47l-3.03-3.03c-.62-.63-.62-1.65.02-2.27.63-.62,1.63-.62,2.26,0l3.03,3.03c.63.62.64,1.63.02,2.26-.3.31-.72.48-1.16.48M969.36,489.41c-.43,0-.84-.17-1.14-.47l-3.03-3.02c-.62-.63-.62-1.65.02-2.27.63-.62,1.63-.62,2.26,0l3.03,3.03c.63.63.63,1.64,0,2.27-.3.3-.71.47-1.14.47M960.29,480.33c-.43,0-.84-.17-1.14-.47l-3.03-3.03c-.63-.63-.63-1.64,0-2.27s1.64-.63,2.27,0l3.03,3.03c.63.62.64,1.63.02,2.26-.3.31-.72.48-1.15.48M951.21,471.25c-.43,0-.83-.17-1.13-.47l-3.03-3.02c-.62-.64-.61-1.65.03-2.27.62-.61,1.61-.61,2.24,0l3.03,3.03c.63.63.63,1.64,0,2.27-.3.3-.71.47-1.13.47M942.13,462.17c-.43,0-.83-.17-1.13-.47l-3.03-3.03c-.63-.63-.63-1.64,0-2.27s1.64-.63,2.27,0l3.02,3.03c.63.63.63,1.65,0,2.28h0c-.3.3-.71.47-1.13.47M933.05,453.09c-.43,0-.83-.17-1.14-.47l-3.03-3.03c-.62-.64-.6-1.65.03-2.27.62-.61,1.62-.61,2.24,0l3.03,3.03c.63.63.63,1.64,0,2.27-.3.3-.71.47-1.14.47M923.97,444.01c-.43,0-.84-.17-1.14-.47l-3.03-3.03c-.63-.63-.63-1.64,0-2.27.63-.63,1.64-.63,2.27,0h0l3.03,3.03c.63.62.64,1.63.02,2.26-.3.31-.72.48-1.15.48M914.89,434.93c-.43,0-.84-.17-1.14-.47l-3.03-3.03c-.63-.63-.62-1.64,0-2.27s1.64-.62,2.27,0l3.03,3.03c.63.62.63,1.63.01,2.26-.3.31-.71.48-1.14.47M905.8,425.84c-.43,0-.83-.17-1.14-.47l-3.03-3.03c-.63-.63-.63-1.64,0-2.27.63-.63,1.64-.63,2.27,0h0l3.03,3.03c.63.62.64,1.63.02,2.26-.3.31-.72.48-1.15.48M896.73,416.76c-.43,0-.83-.17-1.14-.47l-3.03-3.03c-.63-.63-.63-1.64,0-2.27s1.64-.63,2.27,0h0l3.03,3.03c.63.63.63,1.64,0,2.27-.3.3-.71.47-1.14.47M887.65,407.68c-.43,0-.84-.17-1.14-.47l-3.03-3.03c-.62-.64-.61-1.65.03-2.27.62-.61,1.62-.61,2.24,0l3.03,3.03c.63.63.63,1.64,0,2.27-.3.3-.71.47-1.14.47M878.57,398.6c-.43,0-.84-.17-1.14-.47l-3.03-3.03c-.63-.63-.63-1.65,0-2.27s1.65-.63,2.27,0l3.03,3.03c.63.63.63,1.64,0,2.27-.3.3-.71.47-1.14.47M869.49,389.52c-.43,0-.84-.17-1.13-.47l-3.03-3.03c-.61-.64-.59-1.66.06-2.27.62-.59,1.59-.59,2.21,0l3.03,3.03c.63.63.63,1.64,0,2.27-.3.3-.71.47-1.13.47M860.4,380.44c-.43,0-.83-.17-1.13-.47l-3.03-3.03c-.62-.64-.6-1.65.03-2.27.62-.61,1.62-.61,2.24,0l3.03,3.03c.63.63.63,1.64,0,2.27-.3.3-.71.47-1.14.47M851.32,371.36c-.43,0-.83-.17-1.13-.47l-3.02-3.03c-.63-.62-.64-1.64-.02-2.27s1.64-.64,2.27-.02c0,0,.01.01.02.02l3.03,3.03c.63.62.64,1.63.02,2.26-.3.31-.72.48-1.15.48"/>
        <path id="uuid-ce0a89fd-763b-40c7-91a3-0fd8ac4fb79c" data-name="Path 3388" class="uuid-0a92b05f-d314-401a-8c16-4170237004cd" d="M848.29,589.91c-.89,0-1.61-.72-1.61-1.61,0-.43.17-.84.47-1.14l3.03-3.03c.64-.62,1.65-.6,2.27.03.61.62.6,1.62,0,2.24l-3.03,3.03c-.3.3-.71.47-1.13.47M857.38,580.83c-.89,0-1.61-.72-1.61-1.6,0-.43.17-.84.47-1.14l3.03-3.02c.64-.61,1.66-.59,2.27.06.59.62.59,1.6,0,2.22l-3.03,3.03c-.3.3-.71.47-1.13.47M866.46,571.75c-.89,0-1.61-.72-1.61-1.6,0-.43.17-.84.47-1.14l3.03-3.03c.64-.62,1.65-.6,2.27.03.61.62.6,1.62,0,2.24l-3.03,3.02c-.3.3-.71.47-1.13.47M875.54,562.67c-.89,0-1.61-.71-1.61-1.6,0-.43.17-.84.47-1.14l3.03-3.03c.64-.61,1.66-.59,2.27.06.59.62.59,1.6,0,2.22l-3.03,3.03c-.3.3-.71.47-1.13.47M884.62,553.58c-.89,0-1.61-.72-1.61-1.6,0-.43.17-.84.47-1.14l3.03-3.03c.63-.63,1.65-.63,2.27,0s.63,1.65,0,2.27h0l-3.03,3.03c-.3.3-.71.47-1.14.47M893.7,544.5c-.88,0-1.61-.7-1.62-1.58,0-.43.17-.85.48-1.16l3.03-3.02c.64-.61,1.66-.59,2.27.05.59.62.59,1.6,0,2.22l-3.03,3.03c-.3.3-.71.47-1.14.47M902.78,535.43c-.89,0-1.61-.72-1.61-1.6,0-.43.17-.84.47-1.14l3.03-3.02c.62-.64,1.64-.65,2.27-.03s.65,1.64.03,2.27c-.01.01-.02.02-.03.03l-3.03,3.03c-.3.3-.71.47-1.14.47M911.86,526.35c-.88,0-1.61-.7-1.61-1.59,0-.43.17-.85.48-1.15l3.03-3.03c.63-.63,1.64-.63,2.27,0s.63,1.64,0,2.27h0l-3.03,3.03c-.3.3-.71.47-1.14.47M920.94,517.27c-.43,0-.83-.17-1.14-.47-.63-.63-.63-1.65,0-2.27,0,0,0,0,0,0l3.03-3.03c.63-.63,1.65-.63,2.27,0,.63.63.63,1.65,0,2.27l-3.03,3.03c-.3.3-.71.47-1.14.47M930.02,508.18c-.89,0-1.61-.72-1.6-1.61,0-.43.17-.84.47-1.14l3.03-3.03c.61-.64,1.63-.66,2.27-.05.64.61.66,1.63.05,2.27-.02.02-.04.04-.05.05l-3.03,3.02c-.3.3-.71.47-1.14.47M939.11,499.1c-.43,0-.83-.17-1.14-.47-.63-.63-.63-1.64,0-2.27l3.03-3.03c.63-.63,1.64-.62,2.27,0,.63.63.62,1.64,0,2.27l-3.02,3.03c-.3.3-.71.47-1.14.47M948.19,490.02c-.89,0-1.61-.72-1.61-1.6,0-.43.17-.84.47-1.14l3.03-3.02c.64-.62,1.65-.6,2.27.03.61.62.6,1.62,0,2.24l-3.03,3.03c-.3.3-.71.47-1.13.47M957.27,480.94c-.88,0-1.61-.7-1.62-1.58,0-.43.17-.85.48-1.16l3.03-3.03c.64-.61,1.66-.59,2.27.06.59.62.59,1.6,0,2.22l-3.03,3.03c-.3.3-.71.47-1.13.47M966.35,471.86c-.89,0-1.61-.71-1.61-1.6,0-.43.17-.84.47-1.14l3.03-3.03c.62-.63,1.64-.64,2.27-.02.63.62.64,1.64.02,2.27,0,0-.01.01-.02.02l-3.03,3.03c-.3.3-.71.47-1.14.47M975.43,462.78c-.89,0-1.6-.72-1.6-1.61,0-.42.17-.83.47-1.13l3.03-3.03c.62-.63,1.64-.64,2.27-.02.63.62.64,1.64.02,2.27,0,0-.01.01-.02.02l-3.03,3.03c-.3.3-.71.47-1.14.47M984.51,453.7c-.43,0-.84-.17-1.14-.47-.62-.63-.62-1.64,0-2.27l3.03-3.03c.62-.63,1.64-.64,2.27-.02.63.62.64,1.64.02,2.27,0,0-.01.01-.02.02l-3.03,3.03c-.3.3-.71.47-1.14.47M993.59,444.62c-.89,0-1.61-.72-1.61-1.6,0-.43.17-.84.47-1.14l3.03-3.03c.63-.63,1.64-.63,2.27,0,.63.63.63,1.64,0,2.27h0l-3.03,3.03c-.3.3-.71.47-1.14.47M1002.67,435.54c-.88,0-1.61-.7-1.62-1.58,0-.43.17-.85.48-1.16l3.03-3.03c.61-.64,1.63-.67,2.27-.05.64.61.67,1.63.05,2.27-.02.02-.04.04-.05.05l-3.02,3.03c-.3.3-.71.47-1.14.47M1011.75,426.46c-.89,0-1.61-.71-1.61-1.6,0-.43.17-.84.47-1.15l3.03-3.03c.62-.63,1.64-.64,2.27-.02.63.62.64,1.64.02,2.27,0,0-.01.01-.02.02l-3.02,3.02c-.3.3-.71.47-1.13.47M1020.84,417.37c-.89,0-1.61-.71-1.61-1.6,0-.43.17-.84.47-1.15l3.03-3.03c.63-.62,1.65-.62,2.27.02.62.63.62,1.63,0,2.26l-3.03,3.03c-.3.3-.71.47-1.14.47M1029.92,408.29c-.43,0-.84-.17-1.14-.47-.62-.63-.62-1.64,0-2.27l3.03-3.03c.63-.62,1.65-.62,2.27.02.62.63.62,1.63,0,2.26l-3.03,3.03c-.3.3-.71.47-1.13.47M1038.99,399.22c-.89,0-1.61-.72-1.61-1.6,0-.43.17-.84.47-1.14l3.03-3.03c.63-.62,1.65-.62,2.27.02.62.63.62,1.63,0,2.26l-3.03,3.03c-.3.3-.71.47-1.14.47M1048.08,390.13c-.43,0-.84-.17-1.14-.47-.62-.63-.62-1.64,0-2.27l3.03-3.03c.63-.63,1.65-.63,2.28,0,.63.63.63,1.65,0,2.28h0l-3.03,3.03c-.3.3-.71.47-1.14.47M1057.16,381.05c-.43,0-.83-.17-1.13-.47-.62-.63-.62-1.64,0-2.27l3.03-3.03c.63-.63,1.65-.63,2.27,0,.63.63.63,1.65,0,2.27l-3.03,3.03c-.3.3-.71.47-1.14.47M1066.23,371.97c-.88,0-1.61-.7-1.62-1.58,0-.43.17-.85.48-1.16l3.03-3.03c.63-.62,1.65-.62,2.27.02.62.63.62,1.63,0,2.26l-3.03,3.03c-.3.3-.71.47-1.14.47"/>
        <path id="uuid-801c22ca-f349-4108-8bb9-2f38d0e4ef16" data-name="Path 3389" class="uuid-0a92b05f-d314-401a-8c16-4170237004cd" d="M1018.71,623.08c-.65,0-1.24-.39-1.48-.99l-1.64-3.96c-.34-.82.05-1.76.87-2.1.82-.34,1.76.05,2.1.87l1.63,3.95c.34.81-.04,1.75-.86,2.09,0,0,0,0-.01,0-.19.08-.4.12-.62.12M1013.8,611.21c-.65,0-1.24-.39-1.48-.99l-1.64-3.95c-.34-.82.05-1.76.87-2.1.82-.34,1.76.05,2.1.87l1.64,3.95c.34.82-.05,1.76-.87,2.1,0,0,0,0,0,0-.19.08-.4.12-.62.12M1008.88,599.34c-.65,0-1.24-.39-1.48-.99l-1.64-3.95c-.36-.81.01-1.76.83-2.12.81-.36,1.76.01,2.12.83,0,.02.02.04.03.06l1.64,3.95c.34.81-.04,1.75-.86,2.09-.2.08-.41.13-.63.12M1003.97,587.48c-.65,0-1.23-.39-1.48-.99l-1.64-3.96c-.36-.81,0-1.76.81-2.12.81-.36,1.76,0,2.12.81.01.03.03.06.04.09l1.64,3.95c.34.82-.05,1.76-.87,2.1,0,0,0,0,0,0-.2.08-.41.12-.62.12M999.06,575.62c-.65,0-1.24-.39-1.48-.99l-1.64-3.95c-.32-.83.09-1.76.91-2.08.8-.31,1.71.06,2.06.85l1.64,3.95c.34.81-.04,1.75-.85,2.1,0,0,0,0-.01,0-.2.08-.41.12-.62.12M994.14,563.76c-.65,0-1.23-.39-1.48-.99l-1.64-3.95c-.35-.81.02-1.76.83-2.11.81-.35,1.76.02,2.11.83,0,.02.02.04.02.05l1.64,3.96c.34.81-.04,1.75-.86,2.09-.2.08-.41.13-.63.12M989.23,551.9c-.65,0-1.24-.39-1.48-.99l-1.64-3.95c-.36-.81.01-1.76.83-2.12.81-.36,1.76.01,2.12.83,0,.02.02.04.03.06l1.64,3.96c.34.82-.05,1.76-.87,2.1-.19.08-.4.12-.61.12M984.31,540.02c-.65,0-1.24-.39-1.49-.99l-1.64-3.96c-.32-.83.08-1.76.91-2.08.8-.32,1.71.06,2.06.85l1.64,3.95c.34.81-.04,1.75-.85,2.1-.2.08-.41.13-.63.13M979.4,528.16c-.65,0-1.23-.39-1.48-.99l-1.64-3.96c-.34-.82.05-1.76.87-2.1.82-.34,1.76.05,2.1.87l1.64,3.95c.34.81-.04,1.75-.86,2.09-.2.08-.41.13-.63.12M974.48,516.29c-.65,0-1.24-.39-1.49-.99l-1.64-3.95c-.35-.81.02-1.76.83-2.11.81-.35,1.76.02,2.11.83,0,.02.02.04.02.05l1.64,3.96c.34.82-.05,1.76-.87,2.1,0,0,0,0,0,0-.19.08-.4.12-.61.12M969.57,504.43c-.65,0-1.23-.39-1.48-.99l-1.64-3.95c-.34-.82.05-1.76.87-2.1.82-.34,1.76.05,2.1.87h0l1.64,3.95c.34.81-.04,1.75-.85,2.1-.2.08-.41.13-.63.13M964.66,492.57c-.65,0-1.24-.39-1.48-.99l-1.64-3.95c-.36-.81.01-1.76.83-2.12.81-.36,1.76.01,2.12.83,0,.02.02.04.03.06l1.64,3.95c.34.81-.04,1.75-.86,2.09,0,0,0,0-.01,0-.19.08-.4.12-.61.12M959.74,480.7c-.65,0-1.24-.39-1.48-.99l-1.64-3.95c-.34-.82.05-1.76.87-2.1.82-.34,1.76.05,2.1.87l1.64,3.95c.34.82-.05,1.76-.87,2.1,0,0,0,0,0,0-.19.08-.4.12-.61.12M954.83,468.84c-.65,0-1.24-.39-1.49-.99l-1.64-3.96c-.34-.82.05-1.76.87-2.1.82-.34,1.76.05,2.1.87h0l1.64,3.96c.34.81-.04,1.75-.86,2.09,0,0,0,0-.01,0-.19.08-.4.12-.61.12M949.91,456.98c-.65,0-1.23-.39-1.49-.99l-1.64-3.95c-.34-.82.05-1.76.87-2.1.82-.34,1.76.05,2.1.87h0l1.64,3.96c.34.82-.05,1.76-.87,2.1-.19.08-.4.12-.61.12M944.99,445.11c-.65,0-1.24-.39-1.48-.99l-1.64-3.96c-.34-.82.05-1.76.87-2.1s1.76.05,2.1.87l1.64,3.95c.34.81-.04,1.75-.86,2.09-.2.08-.41.13-.63.12M940.08,433.24c-.65,0-1.24-.39-1.49-.99l-1.63-3.96c-.34-.82.05-1.76.87-2.1s1.76.05,2.1.87l1.64,3.95c.34.81-.04,1.75-.85,2.1-.2.08-.41.13-.63.13M935.16,421.38c-.65,0-1.23-.39-1.48-.99l-1.64-3.95c-.32-.83.08-1.76.91-2.08.8-.32,1.71.06,2.06.85l1.64,3.95c.34.82-.05,1.76-.87,2.1,0,0,0,0,0,0-.19.08-.4.12-.61.12M930.25,409.51c-.65,0-1.23-.39-1.48-.99l-1.64-3.95c-.34-.82.05-1.76.87-2.1.82-.34,1.76.05,2.1.87l1.64,3.96c.34.82-.05,1.76-.87,2.1,0,0,0,0,0,0-.19.08-.4.12-.61.12M925.34,397.65c-.65,0-1.23-.39-1.48-.99l-1.64-3.95c-.34-.82.05-1.76.87-2.1.82-.34,1.76.05,2.1.87h0l1.64,3.95c.34.81-.04,1.75-.86,2.09-.2.08-.41.13-.63.12M920.42,385.78c-.65,0-1.23-.39-1.48-.99l-1.64-3.96c-.35-.81.02-1.76.83-2.11.81-.35,1.76.02,2.11.83,0,.02.02.04.02.05l1.64,3.95c.34.82-.05,1.76-.87,2.1,0,0,0,0,0,0-.2.08-.41.12-.62.12M915.51,373.92c-.65,0-1.24-.39-1.48-.99l-1.64-3.96c-.32-.83.08-1.76.91-2.08.8-.32,1.71.06,2.06.85l1.64,3.96c.34.82-.05,1.76-.87,2.1h0c-.19.08-.4.13-.61.12M910.59,362.05c-.65,0-1.23-.39-1.48-.99l-1.64-3.95c-.34-.82.05-1.76.87-2.1.82-.34,1.76.05,2.1.87l1.64,3.96c.34.81-.04,1.75-.86,2.09-.2.08-.41.13-.63.12M905.68,350.19c-.65,0-1.24-.39-1.49-.99l-1.64-3.95c-.34-.82.05-1.76.87-2.1.82-.34,1.76.05,2.1.87l1.64,3.96c.34.81-.04,1.75-.86,2.09-.2.08-.41.13-.62.12M900.76,338.32c-.65,0-1.23-.39-1.48-.99l-1.64-3.96c-.32-.83.08-1.76.91-2.08.8-.32,1.71.06,2.06.85l1.64,3.95c.34.81-.04,1.75-.85,2.1-.2.08-.41.13-.63.13"/>
        <path id="uuid-21f8ce4b-4bee-4b3d-a045-581259ccd2a0" data-name="Path 3390" class="uuid-0a92b05f-d314-401a-8c16-4170237004cd" d="M814.33,539.08c-.89,0-1.61-.72-1.61-1.6,0-.65.39-1.23.99-1.48l3.96-1.64c.82-.34,1.76.05,2.1.87.34.82-.05,1.76-.87,2.1l-3.96,1.64c-.19.08-.4.12-.61.12M826.19,534.17c-.88.01-1.61-.7-1.62-1.58,0-.66.39-1.26,1.01-1.51l3.96-1.64c.82-.34,1.75.05,2.09.87s-.05,1.75-.87,2.09l-3.95,1.63c-.2.08-.4.12-.61.12M838.06,529.25c-.89,0-1.61-.72-1.61-1.61,0-.65.39-1.23.99-1.48l3.96-1.64c.83-.32,1.76.08,2.08.91.32.8-.06,1.71-.85,2.06l-3.96,1.64c-.19.08-.4.12-.61.12M849.92,524.34c-.89,0-1.6-.72-1.6-1.61,0-.65.39-1.23.99-1.48l3.95-1.64c.83-.32,1.76.09,2.08.91.31.8-.06,1.71-.85,2.06l-3.96,1.64c-.19.08-.4.12-.62.12M861.78,519.42c-.89,0-1.61-.72-1.6-1.61,0-.65.39-1.23.99-1.48l3.96-1.64c.81-.35,1.76.02,2.11.83.35.81-.02,1.76-.83,2.11-.02,0-.04.02-.05.02l-3.95,1.64c-.19.08-.4.12-.61.12M873.65,514.51c-.89,0-1.61-.72-1.6-1.61,0-.65.39-1.23.99-1.48l3.96-1.64c.82-.34,1.76.05,2.1.87.34.82-.05,1.76-.87,2.1l-3.95,1.64c-.19.08-.4.12-.61.12M885.52,509.6c-.89,0-1.61-.73-1.6-1.61,0-.65.39-1.23.99-1.48l3.96-1.64c.82-.34,1.76.05,2.1.87.34.82-.05,1.76-.87,2.1l-3.95,1.64c-.19.08-.4.12-.61.12M897.38,504.68c-.89,0-1.61-.72-1.6-1.61,0-.65.39-1.23.99-1.48l3.95-1.64c.83-.32,1.76.09,2.08.91.31.8-.06,1.71-.85,2.06l-3.95,1.64c-.19.08-.4.12-.61.12M909.24,499.77c-.89,0-1.61-.72-1.61-1.6,0-.65.39-1.24.99-1.49l3.95-1.63c.82-.35,1.76.03,2.11.85s-.03,1.76-.85,2.11c-.01,0-.02,0-.03.01l-3.95,1.63c-.19.08-.4.12-.61.12M921.11,494.85c-.89,0-1.61-.72-1.6-1.61,0-.65.39-1.23.99-1.48l3.95-1.64c.81-.36,1.76.01,2.12.83.36.81-.01,1.76-.83,2.12-.02,0-.04.02-.06.03l-3.95,1.64c-.2.08-.4.12-.61.12M932.97,489.94c-.89,0-1.61-.72-1.61-1.61,0-.65.39-1.23.99-1.48l3.95-1.64c.83-.32,1.76.09,2.08.91.31.8-.06,1.71-.85,2.06l-3.95,1.64c-.2.08-.4.12-.62.12M944.84,485.03c-.89,0-1.6-.72-1.6-1.61,0-.65.39-1.23.99-1.48l3.95-1.64c.83-.32,1.76.09,2.08.91.31.8-.06,1.71-.85,2.06l-3.95,1.64c-.2.08-.4.12-.62.12M956.71,480.11c-.89,0-1.61-.72-1.6-1.61,0-.65.39-1.23.99-1.48l3.95-1.64c.81-.36,1.76.01,2.12.83.36.81-.01,1.76-.83,2.12-.02,0-.04.02-.06.03l-3.95,1.64c-.19.08-.4.12-.62.12M968.57,475.2c-.89,0-1.6-.72-1.6-1.61,0-.65.39-1.23.99-1.48l3.96-1.64c.82-.34,1.76.05,2.1.87.34.82-.05,1.76-.87,2.1h0l-3.95,1.64c-.2.08-.41.12-.62.12M980.43,470.28c-.89,0-1.61-.72-1.61-1.61,0-.65.39-1.23.99-1.48l3.96-1.64c.83-.32,1.76.09,2.08.91.31.8-.06,1.71-.85,2.06l-3.95,1.64c-.19.08-.4.12-.62.12M992.3,465.37c-.89,0-1.61-.72-1.6-1.61,0-.65.39-1.23.99-1.48l3.95-1.64c.81-.35,1.76.02,2.11.83.35.81-.02,1.76-.83,2.11-.02,0-.04.02-.05.02l-3.96,1.64c-.19.08-.4.12-.61.12M1004.16,460.46c-.89,0-1.61-.72-1.61-1.6,0-.65.39-1.24.99-1.49l3.95-1.64c.82-.34,1.76.05,2.1.87.34.82-.05,1.76-.87,2.1l-3.96,1.64c-.19.08-.4.12-.62.12M1016.02,455.54c-.89,0-1.61-.72-1.6-1.61,0-.65.39-1.23.99-1.48l3.96-1.65c.82-.34,1.76.05,2.1.87.34.82-.05,1.76-.87,2.1h0l-3.95,1.64c-.2.08-.41.12-.62.12M1027.89,450.62c-.89,0-1.61-.72-1.61-1.6,0-.65.39-1.23.99-1.48l3.96-1.64c.82-.34,1.76.05,2.1.87.34.82-.05,1.76-.87,2.1l-3.95,1.64c-.2.08-.4.12-.62.12M1039.76,445.71c-.88.01-1.61-.69-1.62-1.57-.01-.66.39-1.27,1.01-1.51l3.96-1.64c.82-.34,1.76.05,2.1.87.34.82-.05,1.76-.87,2.1l-3.96,1.64c-.19.08-.4.12-.61.12M1051.62,440.79c-.88.01-1.61-.69-1.62-1.58,0-.66.39-1.26,1.01-1.51l3.95-1.64c.81-.36,1.76.01,2.12.83s-.01,1.76-.83,2.12c-.02,0-.04.02-.06.03l-3.96,1.63c-.2.08-.4.12-.61.12M1063.49,435.88c-.89,0-1.61-.72-1.61-1.61,0-.65.39-1.23.99-1.48l3.96-1.64c.81-.35,1.76.02,2.11.83.35.81-.02,1.76-.83,2.11-.02,0-.04.02-.05.02l-3.95,1.64c-.2.08-.4.12-.61.12M1075.35,430.97c-.89,0-1.61-.72-1.61-1.61,0-.65.39-1.23.99-1.48l3.96-1.64c.82-.34,1.76.05,2.1.87.34.82-.05,1.76-.87,2.1h0l-3.95,1.64c-.19.08-.4.12-.61.12M1087.21,426.06c-.89,0-1.6-.72-1.6-1.61,0-.65.39-1.23.99-1.48l3.95-1.64c.82-.34,1.76.05,2.1.87.34.82-.05,1.76-.87,2.1l-3.96,1.64c-.2.08-.4.12-.61.12M1099.08,421.14c-.89,0-1.6-.72-1.6-1.61,0-.65.39-1.23.99-1.48l3.95-1.64c.82-.33,1.76.06,2.1.88.33.81-.05,1.74-.86,2.09l-3.96,1.64c-.2.08-.4.12-.61.12"/>
        <path id="uuid-a6f988e2-b87c-40dd-bd42-7a41afa1ff1c" data-name="Path 3391" class="uuid-0a92b05f-d314-401a-8c16-4170237004cd" d="M1103.04,538.75c-.21,0-.42-.04-.62-.12l-3.95-1.64c-.82-.34-1.21-1.28-.87-2.1.34-.82,1.28-1.21,2.1-.87l3.96,1.64c.82.34,1.21,1.28.87,2.1-.25.6-.83.99-1.48.99M1091.17,533.83c-.21,0-.42-.04-.61-.12l-3.95-1.64c-.82-.35-1.2-1.29-.85-2.11.34-.8,1.26-1.19,2.07-.86l3.96,1.64c.82.34,1.21,1.28.87,2.1-.25.6-.83.99-1.48.99M1079.31,528.92c-.21,0-.42-.04-.61-.12l-3.96-1.64c-.83-.32-1.23-1.26-.91-2.08.32-.83,1.26-1.23,2.08-.91.02,0,.04.01.05.02l3.96,1.64c.82.34,1.21,1.28.87,2.1-.25.6-.83.99-1.48.99M1067.44,524c-.21,0-.42-.04-.61-.12l-3.96-1.64c-.82-.35-1.2-1.29-.86-2.11.34-.81,1.27-1.19,2.09-.86l3.96,1.64c.82.34,1.21,1.28.87,2.1-.25.6-.83.99-1.48.99M1055.58,519.09c-.21,0-.42-.04-.62-.12l-3.95-1.63c-.82-.34-1.21-1.28-.87-2.1.34-.82,1.28-1.21,2.1-.87l3.96,1.63c.82.34,1.21,1.28.87,2.1-.25.6-.83.99-1.48.99M1043.71,514.18c-.21,0-.42-.04-.61-.12l-3.96-1.64c-.82-.34-1.21-1.28-.87-2.1s1.28-1.21,2.1-.87h0l3.96,1.64c.82.34,1.21,1.28.87,2.1-.25.6-.83.99-1.48.99M1031.85,509.26c-.21,0-.42-.04-.62-.12l-3.96-1.64c-.82-.34-1.21-1.28-.87-2.1.34-.82,1.28-1.21,2.1-.87h0l3.95,1.64c.82.34,1.21,1.28.87,2.1-.25.6-.83.99-1.48.99M1019.98,504.35c-.21,0-.42-.04-.62-.12l-3.95-1.64c-.82-.34-1.21-1.28-.87-2.1.34-.82,1.28-1.21,2.1-.87h0l3.95,1.64c.82.34,1.21,1.28.87,2.1-.25.6-.83.99-1.48.99M1008.11,499.43c-.21,0-.42-.04-.62-.12l-3.95-1.64c-.82-.34-1.21-1.28-.87-2.1.34-.82,1.28-1.21,2.1-.87l3.95,1.64c.82.34,1.21,1.28.87,2.1-.25.6-.83.99-1.48.99M996.25,494.52c-.21,0-.42-.04-.62-.12l-3.95-1.64c-.83-.32-1.24-1.25-.91-2.08.32-.83,1.25-1.24,2.08-.91.02,0,.04.02.06.03l3.95,1.64c.82.34,1.21,1.28.87,2.1-.25.6-.84,1-1.49.99M984.38,489.6c-.21,0-.42-.04-.62-.12l-3.96-1.64c-.82-.34-1.21-1.28-.87-2.1.34-.82,1.28-1.21,2.1-.87l3.95,1.64c.82.34,1.21,1.28.87,2.1-.25.6-.83.99-1.48.99M972.52,484.68c-.21,0-.42-.04-.61-.12l-3.96-1.64c-.83-.32-1.23-1.26-.91-2.08.32-.83,1.26-1.23,2.08-.91.02,0,.04.01.05.02l3.95,1.64c.82.33,1.22,1.26.9,2.08-.25.62-.85,1.02-1.51,1.01M960.65,479.77c-.21,0-.42-.04-.62-.12l-3.96-1.64c-.82-.34-1.21-1.28-.87-2.1.34-.82,1.28-1.21,2.1-.87h0l3.96,1.64c.82.34,1.21,1.28.87,2.1-.25.6-.83.99-1.48.99M948.79,474.85c-.21,0-.42-.04-.62-.12l-3.95-1.64c-.83-.32-1.23-1.26-.91-2.08.32-.83,1.26-1.23,2.08-.91.02,0,.04.01.05.02l3.95,1.64c.82.33,1.22,1.26.9,2.08-.25.62-.85,1.02-1.51,1.01M936.92,469.94c-.21,0-.42-.04-.62-.12l-3.95-1.64c-.83-.32-1.24-1.25-.91-2.08.32-.83,1.25-1.24,2.08-.91.02,0,.04.02.06.03l3.95,1.64c.82.34,1.21,1.28.87,2.1-.25.6-.83.99-1.48.99M925.06,465.03c-.21,0-.42-.04-.62-.12l-3.96-1.64c-.81-.35-1.19-1.3-.83-2.11.35-.79,1.26-1.17,2.06-.85l3.97,1.64c.82.34,1.21,1.28.87,2.1-.25.6-.83.99-1.48.99M913.2,460.11c-.21,0-.42-.04-.61-.12l-3.95-1.63c-.82-.34-1.21-1.28-.87-2.1s1.28-1.21,2.1-.87h0l3.96,1.63c.82.34,1.21,1.28.87,2.1-.25.6-.84,1-1.49.99M901.33,455.2c-.21,0-.42-.04-.62-.12l-3.95-1.64c-.83-.32-1.23-1.26-.91-2.08.32-.83,1.26-1.23,2.08-.91.02,0,.04.01.05.02l3.95,1.64c.82.34,1.21,1.28.87,2.1-.25.6-.83.99-1.48.99M889.47,450.29c-.21,0-.42-.04-.61-.12l-3.96-1.64c-.82-.34-1.21-1.28-.87-2.1.34-.82,1.28-1.21,2.1-.87l3.95,1.64c.82.33,1.22,1.26.9,2.08-.24.62-.85,1.02-1.51,1.01M877.61,445.37c-.21,0-.42-.04-.62-.12l-3.96-1.64c-.81-.35-1.19-1.3-.83-2.11.35-.79,1.26-1.17,2.06-.85l3.95,1.64c.82.33,1.22,1.26.9,2.08-.24.62-.84,1.02-1.51,1.01M865.74,440.46c-.21,0-.42-.04-.61-.12l-3.96-1.64c-.81-.36-1.18-1.3-.83-2.12.35-.79,1.25-1.17,2.06-.85l3.96,1.64c.82.33,1.22,1.26.9,2.08-.25.62-.85,1.02-1.51,1.01M853.88,435.55c-.21,0-.42-.04-.62-.12l-3.95-1.64c-.82-.34-1.21-1.28-.87-2.1.34-.82,1.28-1.21,2.1-.87l3.96,1.64c.82.34,1.21,1.28.87,2.1-.25.6-.83.99-1.48.99M842.01,430.63c-.21,0-.42-.04-.61-.12l-3.96-1.64c-.82-.34-1.21-1.28-.87-2.1s1.28-1.21,2.1-.87h0l3.96,1.64c.82.34,1.21,1.28.87,2.1-.25.6-.83.99-1.48.99M830.15,425.72c-.21,0-.42-.04-.61-.12l-3.96-1.63c-.82-.34-1.21-1.28-.87-2.1s1.28-1.21,2.1-.87h0l3.95,1.63c.82.34,1.21,1.28.87,2.1-.25.6-.83.99-1.48.99M818.28,420.8c-.21,0-.42-.04-.61-.12l-3.95-1.64c-.82-.34-1.21-1.28-.87-2.1.34-.82,1.28-1.21,2.1-.87l3.96,1.64c.82.34,1.21,1.28.87,2.1-.25.6-.83.99-1.48.99"/>
        <path id="uuid-b3424c9b-b900-4370-bb99-747ff1b3ffc6" data-name="Path 3392" class="uuid-0a92b05f-d314-401a-8c16-4170237004cd" d="M899.13,623.88c-.21,0-.42-.04-.62-.12-.82-.33-1.21-1.27-.87-2.09,0,0,0,0,0-.01l1.64-3.95c.35-.81,1.3-1.19,2.11-.83.79.35,1.17,1.26.85,2.06l-1.64,3.95c-.25.6-.83.99-1.48.99M904.04,612.01c-.21,0-.42-.04-.61-.12-.82-.34-1.21-1.28-.87-2.1l1.64-3.95c.35-.81,1.3-1.19,2.11-.83.79.35,1.17,1.26.85,2.06l-1.64,3.96c-.25.6-.83.99-1.48.99M908.95,600.15c-.88,0-1.6-.71-1.61-1.59,0-.22.04-.43.13-.63l1.64-3.95c.32-.83,1.25-1.24,2.08-.91.83.32,1.24,1.25.91,2.08,0,.02-.02.04-.03.06l-1.64,3.95c-.25.6-.84.99-1.49.99M913.87,588.29c-.21,0-.42-.04-.62-.12-.82-.34-1.21-1.28-.87-2.1h0s1.64-3.96,1.64-3.96c.32-.83,1.26-1.23,2.08-.91.83.32,1.23,1.26.91,2.08,0,.02-.01.04-.02.05l-1.64,3.96c-.25.6-.83.99-1.48.99M918.78,576.42c-.21,0-.42-.04-.61-.12-.82-.34-1.21-1.27-.87-2.09,0,0,0,0,0-.01l1.64-3.96c.34-.82,1.28-1.21,2.1-.87.82.34,1.21,1.28.87,2.1l-1.64,3.96c-.25.6-.83.99-1.48.99M923.7,564.55c-.21,0-.42-.04-.62-.12-.82-.34-1.21-1.27-.87-2.09,0,0,0,0,0-.01l1.64-3.96c.34-.82,1.28-1.21,2.1-.87s1.21,1.28.87,2.1l-1.64,3.95c-.25.6-.83.99-1.48.99M928.61,552.69c-.88,0-1.6-.71-1.61-1.59,0-.22.04-.43.12-.63l1.64-3.96c.34-.82,1.28-1.21,2.1-.87s1.21,1.28.87,2.1h0l-1.63,3.96c-.25.6-.83.99-1.48.99M933.53,540.83c-.88,0-1.6-.71-1.61-1.59,0-.22.04-.43.13-.63l1.64-3.95c.34-.82,1.28-1.21,2.1-.87.82.34,1.21,1.28.87,2.1l-1.64,3.96c-.25.6-.83.99-1.48.99M938.45,528.96c-.21,0-.42-.04-.61-.12-.82-.34-1.21-1.28-.87-2.1h0s1.64-3.96,1.64-3.96c.34-.82,1.28-1.21,2.1-.87.82.34,1.21,1.28.87,2.1h0l-1.64,3.96c-.25.6-.83.99-1.48.99M943.36,517.1c-.21,0-.42-.04-.61-.12-.82-.34-1.21-1.28-.87-2.1,0,0,0,0,0,0l1.64-3.96c.34-.82,1.28-1.21,2.1-.87.82.34,1.21,1.28.87,2.1h0l-1.64,3.95c-.25.6-.83.99-1.48.99M948.27,505.23c-.88,0-1.6-.71-1.61-1.59,0-.22.04-.43.13-.63l1.64-3.95c.34-.82,1.28-1.21,2.1-.87.82.34,1.21,1.28.87,2.1l-1.64,3.95c-.25.6-.84.99-1.49.99M953.19,493.37c-.21,0-.42-.04-.61-.12-.82-.34-1.21-1.27-.87-2.09,0,0,0,0,0-.01l1.64-3.95c.34-.82,1.28-1.21,2.1-.87.82.34,1.21,1.28.87,2.1h0l-1.64,3.96c-.25.6-.83.99-1.48.99M958.1,481.5c-.21,0-.42-.04-.61-.12-.82-.34-1.21-1.27-.87-2.09,0,0,0,0,0-.01l1.64-3.96c.35-.81,1.3-1.19,2.11-.83.79.35,1.17,1.26.85,2.06l-1.64,3.95c-.25.6-.83.99-1.49.99M963.02,469.63c-.21,0-.42-.04-.62-.12-.82-.34-1.21-1.27-.87-2.09,0,0,0,0,0-.01l1.64-3.96c.34-.82,1.28-1.21,2.1-.87s1.21,1.28.87,2.1l-1.64,3.95c-.25.6-.83.99-1.48.99M967.92,457.77c-.88,0-1.6-.71-1.61-1.59,0-.22.04-.43.12-.63l1.64-3.96c.34-.82,1.28-1.21,2.1-.87s1.21,1.28.87,2.1l-1.64,3.96c-.25.6-.84.99-1.49.99M972.84,445.9c-.88,0-1.6-.71-1.61-1.59,0-.22.04-.43.12-.63l1.64-3.95c.34-.82,1.28-1.21,2.1-.87.82.34,1.21,1.28.87,2.1h0l-1.64,3.96c-.25.6-.83.99-1.48.99M977.76,434.04c-.21,0-.42-.04-.61-.12-.82-.34-1.21-1.28-.87-2.1,0,0,0,0,0,0l1.64-3.95c.36-.81,1.3-1.18,2.12-.83.79.35,1.16,1.25.85,2.06l-1.64,3.95c-.25.6-.83.99-1.49.99M982.67,422.17c-.21,0-.42-.04-.62-.12-.82-.34-1.21-1.28-.87-2.1,0,0,0,0,0,0l1.64-3.95c.36-.81,1.3-1.18,2.12-.83.79.35,1.16,1.25.85,2.06l-1.64,3.95c-.25.6-.83.99-1.48.99M987.59,410.31c-.21,0-.42-.04-.61-.12-.82-.34-1.21-1.28-.87-2.1l1.64-3.95c.36-.81,1.3-1.18,2.12-.83.79.35,1.16,1.25.85,2.06l-1.63,3.96c-.25.6-.83.99-1.49.99M992.51,398.45c-.88,0-1.6-.71-1.61-1.59,0-.22.04-.43.13-.63l1.64-3.96c.34-.82,1.28-1.21,2.1-.87.82.34,1.21,1.28.87,2.1l-1.64,3.96c-.25.6-.83.99-1.48.99M997.42,386.59c-.21,0-.42-.04-.62-.12-.82-.34-1.21-1.28-.87-2.1,0,0,0,0,0,0l1.63-3.95c.36-.81,1.3-1.18,2.12-.83.79.35,1.16,1.25.85,2.06l-1.64,3.95c-.25.6-.83.99-1.48.99M1002.34,374.73c-.88,0-1.6-.71-1.61-1.59,0-.22.04-.43.12-.63l1.64-3.96c.32-.83,1.25-1.24,2.08-.91s1.24,1.25.91,2.08c0,.02-.02.04-.03.06l-1.64,3.95c-.25.6-.83.99-1.48.99M1007.25,362.85c-.88,0-1.6-.71-1.61-1.59,0-.22.04-.43.12-.63l1.64-3.96c.34-.82,1.28-1.21,2.1-.87.82.34,1.21,1.28.87,2.1l-1.64,3.95c-.25.6-.83.99-1.48.99M1012.17,350.99c-.88,0-1.6-.71-1.61-1.59,0-.22.04-.43.13-.63l1.63-3.95c.32-.83,1.26-1.23,2.08-.91.83.32,1.23,1.26.91,2.08,0,.02-.01.04-.02.05l-1.63,3.96c-.25.6-.84.99-1.49.99M1017.08,339.13c-.88,0-1.6-.71-1.6-1.6,0-.21.04-.42.12-.62l1.64-3.95c.34-.82,1.28-1.21,2.1-.87.82.34,1.21,1.28.87,2.1l-1.64,3.96c-.25.6-.83.99-1.48.99"/>
        <path id="uuid-11232400-9d6b-4f17-b91b-33f66795a209" data-name="Path 3393" class="uuid-0a92b05f-d314-401a-8c16-4170237004cd" d="M986.72,617.56c-.51,0-.95-.36-1.05-.86l-.84-4.2c-.12-.58.26-1.14.84-1.26.58-.12,1.14.26,1.26.84l.84,4.2c.12.58-.26,1.14-.84,1.26-.07.01-.14.02-.21.02M984.22,604.96c-.51,0-.95-.36-1.05-.86l-.84-4.2c-.12-.58.26-1.14.84-1.26.58-.12,1.14.26,1.26.84l.84,4.2c.12.58-.25,1.14-.83,1.26,0,0,0,0-.01,0-.07.01-.14.02-.21.02M981.73,592.36c-.51,0-.95-.36-1.05-.86l-.84-4.2c-.12-.58.26-1.14.84-1.26.58-.12,1.14.26,1.26.84l.84,4.2c.12.58-.26,1.14-.83,1.26,0,0,0,0,0,0-.07.02-.14.02-.21.02M979.22,579.76c-.51,0-.95-.36-1.05-.86l-.83-4.2c-.12-.58.26-1.14.84-1.26.58-.12,1.14.26,1.26.84l.84,4.2c.12.58-.26,1.14-.84,1.26,0,0,0,0,0,0-.07.01-.14.02-.21.02M976.72,567.17c-.51,0-.95-.36-1.05-.86l-.83-4.2c-.12-.58.26-1.14.84-1.26.58-.12,1.14.26,1.26.84l.83,4.2c.12.58-.26,1.14-.83,1.26-.07.01-.14.02-.22.02M974.22,554.57c-.51,0-.95-.36-1.05-.86l-.84-4.2c-.12-.58.26-1.14.84-1.26.58-.12,1.14.26,1.26.84l.84,4.2c.12.58-.26,1.14-.84,1.26,0,0,0,0,0,0-.07.01-.14.02-.21.02M971.71,541.97c-.51,0-.95-.36-1.05-.86l-.84-4.2c-.12-.58.26-1.14.84-1.26.58-.12,1.14.26,1.26.84l.83,4.2c.12.58-.26,1.14-.83,1.26,0,0,0,0,0,0-.07.01-.14.02-.21.02M969.21,529.37c-.51,0-.95-.36-1.05-.86l-.84-4.2c-.12-.58.26-1.14.84-1.26.58-.12,1.14.26,1.26.84l.84,4.2c.11.58-.27,1.15-.85,1.26-.06.01-.13.02-.19.02M966.72,516.77c-.51,0-.95-.36-1.05-.86l-.83-4.2c-.12-.58.26-1.14.84-1.26.58-.12,1.14.26,1.26.84l.84,4.2c.11.58-.27,1.15-.85,1.26-.06.01-.13.02-.19.02M964.21,504.17c-.51,0-.95-.36-1.05-.86l-.83-4.2c-.12-.58.26-1.14.84-1.26.58-.1,1.13.27,1.26.84l.83,4.2c.11.58-.27,1.15-.85,1.26-.06.01-.13.02-.19.02M961.7,491.57c-.51,0-.95-.36-1.05-.86l-.83-4.2c-.12-.58.26-1.14.84-1.26.58-.12,1.14.26,1.26.84l.83,4.2c.12.58-.26,1.14-.84,1.26,0,0,0,0,0,0-.07.02-.14.02-.21.02M959.2,478.97c-.51,0-.95-.36-1.05-.86l-.84-4.2c-.11-.58.26-1.14.84-1.26.58-.1,1.13.27,1.26.84l.83,4.2c.12.58-.26,1.14-.84,1.26,0,0,0,0,0,0-.07.02-.14.02-.21.02M956.7,466.36c-.51,0-.95-.36-1.05-.86l-.83-4.19c-.12-.58.26-1.14.83-1.26,0,0,0,0,0,0,.58-.11,1.14.26,1.26.84l.83,4.2c.12.58-.26,1.14-.84,1.26,0,0,0,0,0,0-.07.02-.14.02-.21.02M954.19,453.76c-.51,0-.95-.36-1.05-.86l-.83-4.19c-.12-.58.26-1.14.84-1.26,0,0,0,0,0,0,.58-.11,1.13.27,1.26.84l.83,4.2c.12.58-.26,1.14-.83,1.25,0,0,0,0,0,0-.07.02-.14.02-.21.02M951.69,441.16c-.51,0-.95-.36-1.05-.86l-.83-4.19c-.12-.58.26-1.14.84-1.26s1.14.26,1.26.84l.84,4.2c.11.58-.26,1.14-.84,1.26-.07.02-.14.02-.21.02M949.19,428.56c-.51,0-.95-.36-1.05-.86l-.83-4.19c-.12-.58.26-1.14.84-1.26,0,0,0,0,0,0,.58-.11,1.14.27,1.26.84l.83,4.2c.12.58-.26,1.14-.83,1.25,0,0,0,0,0,0-.07.02-.14.02-.21.02M946.68,415.96c-.51,0-.95-.36-1.05-.86l-.84-4.19c-.12-.58.26-1.14.84-1.26s1.14.26,1.26.84l.84,4.2c.11.58-.26,1.14-.84,1.26-.07.01-.14.02-.21.02M944.18,403.37c-.51,0-.95-.36-1.05-.86l-.83-4.2c-.12-.58.26-1.14.84-1.26,0,0,0,0,0,0,.58-.11,1.14.27,1.26.84l.83,4.2c.12.58-.26,1.14-.84,1.26-.07.01-.14.02-.21.02M941.68,390.77c-.51,0-.95-.36-1.05-.86l-.83-4.2c-.12-.58.26-1.14.84-1.26s1.14.26,1.26.84l.83,4.2c.12.58-.26,1.14-.84,1.26,0,0,0,0,0,0-.07.01-.14.02-.21.02M939.17,378.17c-.51,0-.95-.36-1.05-.86l-.84-4.2c-.12-.58.26-1.14.84-1.26s1.14.26,1.26.84h0l.84,4.2c.12.58-.26,1.14-.84,1.26-.07.01-.14.02-.21.02M936.67,365.57c-.51,0-.95-.36-1.05-.86l-.83-4.2c-.12-.58.26-1.14.84-1.26.58-.11,1.14.27,1.26.84l.83,4.2c.12.58-.26,1.14-.84,1.26-.07.01-.14.02-.21.02M934.17,352.97c-.51,0-.95-.36-1.05-.86l-.84-4.2c-.12-.58.26-1.14.84-1.26,0,0,0,0,0,0,.58-.11,1.14.27,1.26.84l.84,4.2c.12.58-.26,1.14-.84,1.26-.07.01-.14.02-.21.02M931.62,340.45c-.51,0-.95-.36-1.05-.86l-.83-4.2c-.12-.58.26-1.14.84-1.26s1.14.26,1.26.84l.83,4.2c.12.58-.26,1.14-.83,1.26,0,0,0,0,0,0-.07.01-.14.02-.21.02"/>
        <path id="uuid-880b874f-123b-45f1-9aff-2145b20a990a" data-name="Path 3394" class="uuid-0a92b05f-d314-401a-8c16-4170237004cd" d="M816.75,506.9c-.59,0-1.07-.48-1.07-1.07,0-.51.36-.95.86-1.05l4.2-.84c.58-.11,1.14.27,1.26.84.12.58-.26,1.14-.84,1.26,0,0,0,0,0,0l-4.2.84c-.07.01-.14.02-.21.02M829.35,504.39c-.59,0-1.07-.48-1.07-1.07,0-.51.36-.95.86-1.05l4.2-.83c.58-.12,1.14.26,1.26.84.12.58-.26,1.14-.84,1.26l-4.2.84c-.07.01-.14.02-.21.02M841.95,501.88c-.59,0-1.07-.48-1.07-1.07,0-.51.36-.95.86-1.05l4.2-.83c.58-.11,1.14.26,1.26.84.11.58-.26,1.14-.84,1.26h0l-4.2.83c-.07.01-.14.02-.21.02M854.55,499.38c-.59,0-1.07-.48-1.07-1.07,0-.51.36-.95.86-1.05l4.2-.84c.58-.11,1.13.27,1.26.84.12.58-.26,1.14-.83,1.26,0,0,0,0,0,0l-4.2.84c-.07.01-.14.02-.21.02M867.14,496.88c-.59,0-1.07-.48-1.07-1.07,0-.51.36-.95.86-1.05l4.2-.84c.58-.11,1.14.27,1.26.84.12.58-.26,1.14-.84,1.26,0,0,0,0,0,0l-4.2.84c-.07.01-.14.02-.21.02M879.74,494.38c-.59,0-1.07-.48-1.07-1.07,0-.51.36-.95.86-1.05l4.2-.84c.58-.12,1.14.26,1.26.84s-.26,1.14-.84,1.26l-4.2.84c-.07.01-.14.02-.21.02M892.34,491.87c-.59,0-1.07-.48-1.07-1.07,0-.51.36-.95.86-1.05l4.2-.83c.58-.11,1.14.26,1.26.84.12.58-.26,1.14-.83,1.26,0,0,0,0,0,0l-4.2.83c-.07.01-.14.02-.21.02M904.94,489.37c-.59,0-1.07-.48-1.07-1.07,0-.51.36-.95.86-1.05l4.2-.84c.58-.11,1.14.27,1.26.84.12.58-.26,1.14-.84,1.26l-4.2.83c-.07.01-.14.02-.21.02M917.54,486.87c-.59,0-1.07-.48-1.07-1.07,0-.51.36-.95.86-1.05l4.2-.84c.58-.12,1.14.26,1.26.84s-.26,1.14-.84,1.26l-4.2.84c-.07.01-.14.02-.21.02M930.14,484.37c-.59,0-1.07-.48-1.07-1.07,0-.51.36-.95.86-1.05l4.2-.84c.58-.11,1.14.26,1.26.84.12.58-.26,1.14-.84,1.26,0,0,0,0,0,0l-4.2.84c-.07.01-.14.02-.21.02M942.74,481.86c-.59,0-1.07-.48-1.07-1.07,0-.51.36-.95.86-1.05l4.2-.84c.58-.1,1.13.27,1.26.84.12.58-.26,1.14-.84,1.26,0,0,0,0,0,0l-4.2.84c-.07.01-.14.02-.21.02M955.34,479.36c-.59,0-1.07-.49-1.06-1.08,0-.51.36-.94.86-1.04l4.2-.83c.58-.11,1.13.27,1.26.84.11.58-.26,1.14-.84,1.26l-4.2.84c-.07.01-.14.02-.21.02M967.94,476.85c-.59,0-1.07-.47-1.08-1.06,0-.51.36-.96.86-1.06l4.2-.83c.57-.12,1.13.24,1.25.81,0,0,0,.02,0,.03.12.58-.26,1.14-.83,1.26,0,0,0,0,0,0l-4.2.83c-.07.01-.14.02-.21.02M980.54,474.35c-.59,0-1.07-.47-1.08-1.06,0-.51.36-.96.86-1.06l4.2-.83c.57-.12,1.13.24,1.25.81,0,0,0,.02,0,.03.12.58-.26,1.14-.84,1.26,0,0,0,0,0,0l-4.2.83c-.07.01-.14.02-.21.02M993.14,471.84c-.59,0-1.07-.47-1.07-1.06,0-.51.36-.96.86-1.05l4.2-.84c.58-.12,1.14.26,1.26.84.12.58-.26,1.14-.84,1.26l-4.2.84c-.07.01-.14.02-.21.02M1005.73,469.34c-.59,0-1.07-.47-1.07-1.07,0-.51.36-.96.86-1.05l4.2-.84c.58-.12,1.14.26,1.26.84.12.58-.26,1.14-.84,1.26l-4.2.84c-.07.01-.14.02-.21.02M1018.33,466.84c-.59,0-1.07-.47-1.07-1.07,0-.51.36-.96.86-1.05l4.2-.84c.58-.12,1.14.26,1.26.84.12.58-.26,1.14-.84,1.26l-4.2.84c-.07.01-.14.02-.21.02M1030.92,464.34c-.59,0-1.07-.47-1.07-1.07,0-.51.36-.96.86-1.05l4.2-.83c.57-.12,1.13.24,1.25.8,0,.01,0,.02,0,.03.12.58-.26,1.14-.84,1.26,0,0,0,0,0,0l-4.2.83c-.07.01-.14.02-.21.02M1043.52,461.84c-.59,0-1.07-.47-1.07-1.07,0-.51.36-.96.86-1.05l4.2-.84c.58-.12,1.14.26,1.26.84.12.58-.26,1.14-.84,1.26h0l-4.2.83c-.07.01-.14.02-.21.02M1056.12,459.33c-.59,0-1.07-.47-1.07-1.06,0-.51.36-.95.86-1.05l4.2-.84c.58-.12,1.14.26,1.26.84.12.58-.26,1.14-.84,1.26l-4.2.84c-.07.01-.14.02-.21.02M1068.72,456.82c-.59,0-1.07-.47-1.07-1.06,0-.51.36-.95.86-1.05l4.2-.83c.58-.12,1.14.26,1.26.84.12.58-.26,1.14-.84,1.26l-4.2.83c-.07.01-.14.02-.21.02M1081.31,454.32c-.59,0-1.07-.47-1.07-1.07,0-.51.36-.96.86-1.05l4.2-.84c.58-.12,1.14.26,1.26.84.12.58-.26,1.14-.84,1.26l-4.2.84c-.07.01-.14.02-.21.02M1093.91,451.83c-.59,0-1.07-.49-1.07-1.08,0-.51.36-.94.86-1.04l4.2-.83c.58-.12,1.14.26,1.26.84.12.58-.26,1.14-.84,1.26h0l-4.2.84c-.07.01-.14.02-.21.02"/>
        <path id="uuid-925dd8de-9ff2-40e8-bf8b-9627bcf511ce" data-name="Path 3395" class="uuid-0a92b05f-d314-401a-8c16-4170237004cd" d="M1076.9,557.3c-.21,0-.42-.06-.6-.18l-3.56-2.38c-.49-.33-.62-.99-.3-1.48s.99-.62,1.48-.3l3.56,2.38c.49.33.62.99.29,1.49-.2.3-.53.47-.89.48M1066.22,550.17c-.21,0-.42-.06-.6-.18l-3.56-2.38c-.5-.32-.65-.98-.33-1.48.32-.5.98-.65,1.48-.33.01,0,.03.02.04.03l3.56,2.38c.49.33.62.99.29,1.49-.2.3-.53.47-.89.48M1055.55,543.04c-.21,0-.42-.06-.6-.18l-3.56-2.38c-.49-.33-.62-.99-.3-1.49.33-.49.99-.62,1.49-.3h0l3.56,2.38c.49.33.62.99.29,1.49-.2.3-.53.47-.89.48M1044.87,535.9c-.21,0-.42-.06-.59-.18l-3.56-2.38c-.49-.33-.62-.99-.3-1.49.33-.49.99-.62,1.49-.3h0l3.55,2.38c.49.33.63.99.3,1.48-.2.3-.53.48-.89.48M1034.19,528.77c-.21,0-.42-.06-.6-.18l-3.56-2.38c-.49-.33-.62-.99-.3-1.49.33-.49.99-.62,1.49-.3l3.56,2.38c.49.33.62.99.29,1.49-.2.3-.53.47-.89.48M1023.51,521.63c-.21,0-.42-.06-.6-.18l-3.56-2.38c-.49-.33-.63-.99-.3-1.48s.99-.63,1.48-.3l3.56,2.38c.49.33.62.99.29,1.49-.2.3-.53.47-.89.48M1012.84,514.5c-.21,0-.42-.06-.6-.18l-3.56-2.38c-.49-.33-.62-1-.28-1.49.33-.48.98-.61,1.47-.29l3.56,2.38c.49.33.62.99.29,1.49-.2.3-.53.47-.89.48M1002.16,507.36c-.21,0-.42-.06-.6-.18l-3.56-2.38c-.49-.33-.63-.99-.3-1.48s.99-.63,1.48-.3l3.56,2.38c.49.33.63.99.3,1.48-.2.3-.53.48-.89.48M991.48,500.23c-.21,0-.42-.06-.6-.18l-3.56-2.38c-.49-.33-.62-.99-.3-1.49.33-.49.99-.62,1.49-.3h0l3.55,2.38c.49.33.63.99.3,1.48-.2.3-.53.48-.89.48M980.8,493.09c-.21,0-.42-.06-.6-.18l-3.56-2.37c-.49-.33-.63-.99-.3-1.48s.99-.63,1.48-.3l3.56,2.38c.49.33.63.99.3,1.48-.2.3-.53.48-.89.48M970.13,485.96c-.21,0-.42-.06-.6-.18l-3.56-2.38c-.49-.33-.62-.99-.3-1.49.33-.49.99-.62,1.49-.3l3.56,2.38c.49.33.63.99.3,1.48-.2.3-.53.48-.89.48M959.45,478.82c-.21,0-.42-.06-.59-.18l-3.56-2.38c-.5-.32-.65-.98-.33-1.48.32-.5.98-.65,1.48-.33.01,0,.03.02.04.03l3.56,2.38c.49.33.62.99.3,1.48-.2.3-.53.48-.89.48M948.76,471.68c-.21,0-.42-.06-.59-.18l-3.56-2.38c-.49-.33-.62-.99-.3-1.48s.99-.62,1.48-.3l3.56,2.38c.49.33.62.99.3,1.48-.2.3-.53.48-.89.48M938.09,464.55c-.21,0-.42-.06-.6-.18l-3.56-2.38c-.49-.33-.63-.99-.3-1.48s.99-.63,1.48-.3h0l3.56,2.38c.49.33.63.99.3,1.48-.2.3-.53.48-.89.48M927.41,457.42c-.21,0-.42-.06-.6-.18l-3.56-2.38c-.49-.33-.63-.99-.3-1.48s.99-.63,1.48-.3h0l3.56,2.38c.49.33.63.99.3,1.48-.2.3-.53.48-.89.48M916.73,450.28c-.21,0-.42-.06-.6-.18l-3.56-2.38c-.48-.34-.6-1.01-.26-1.49.33-.47.97-.59,1.45-.29l3.56,2.38c.49.33.62.99.3,1.48-.2.3-.53.48-.89.48M906.06,443.15c-.21,0-.42-.06-.59-.18l-3.56-2.38c-.49-.33-.63-.99-.3-1.48.33-.49.99-.63,1.48-.3h0l3.56,2.38c.49.33.63.99.3,1.48-.2.3-.53.48-.89.48M895.38,436.02c-.21,0-.42-.06-.6-.18l-3.56-2.38c-.49-.33-.63-.99-.3-1.49.33-.49.99-.63,1.49-.3l3.56,2.38c.49.33.62,1,.29,1.49-.2.3-.53.47-.89.47M884.7,428.88c-.21,0-.42-.06-.59-.18l-3.56-2.38c-.49-.33-.62-.99-.3-1.49.33-.49.99-.62,1.49-.3l3.55,2.38c.49.33.63.99.3,1.48-.2.3-.53.48-.89.48M874.02,421.74c-.21,0-.42-.06-.6-.18l-3.56-2.38c-.49-.33-.62-1-.29-1.49.33-.49,1-.62,1.49-.29l3.56,2.38c.49.33.62.99.29,1.49-.2.3-.53.47-.89.48M863.35,414.61c-.21,0-.42-.06-.6-.18l-3.56-2.38c-.49-.33-.63-.99-.3-1.48.33-.49.99-.63,1.48-.3h0l3.56,2.38c.49.33.63.99.3,1.48-.2.3-.53.48-.89.48M852.67,407.48c-.21,0-.42-.06-.6-.18l-3.56-2.38c-.49-.34-.61-1-.27-1.49.33-.47.98-.6,1.46-.29l3.56,2.38c.49.33.63.99.3,1.48-.2.3-.53.48-.89.48M841.99,400.34c-.21,0-.42-.06-.59-.18l-3.56-2.38c-.49-.33-.63-.99-.3-1.48.33-.49.99-.63,1.48-.3l3.56,2.38c.49.33.63.99.3,1.48-.2.3-.53.48-.89.48"/>
        <path id="uuid-b8453b7c-89ce-4823-87d4-e51245b1a372" data-name="Path 3396" class="uuid-0a92b05f-d314-401a-8c16-4170237004cd" d="M878.46,599.25c-.59,0-1.07-.48-1.07-1.07,0-.21.06-.42.18-.6l2.38-3.56c.33-.49.99-.62,1.48-.3s.62.99.3,1.48l-2.38,3.55c-.2.3-.53.48-.89.48M885.59,588.57c-.59,0-1.07-.48-1.07-1.07,0-.21.06-.42.18-.59l2.38-3.56c.32-.5.98-.65,1.48-.33s.65.98.33,1.48c0,.01-.02.03-.03.04l-2.38,3.56c-.2.3-.53.48-.89.48M892.73,577.89c-.59,0-1.07-.48-1.07-1.08,0-.21.06-.41.18-.59l2.38-3.56c.33-.49.99-.62,1.49-.3.49.33.62.99.3,1.49l-2.38,3.56c-.2.3-.53.48-.89.48M899.86,567.21c-.59,0-1.07-.47-1.07-1.06,0-.21.06-.42.18-.6l2.38-3.56c.32-.5.98-.65,1.48-.33.5.32.65.98.33,1.48,0,.01-.02.03-.03.04l-2.38,3.56c-.2.3-.53.48-.89.48M907,556.54c-.21,0-.42-.06-.6-.18-.49-.33-.63-.99-.3-1.48l2.38-3.56c.33-.49.99-.62,1.49-.3.49.33.62.99.3,1.49h0l-2.38,3.56c-.2.3-.53.48-.89.48M914.13,545.86c-.21,0-.42-.06-.59-.18-.49-.33-.63-.99-.3-1.48,0,0,0,0,0,0l2.38-3.56c.33-.49.99-.63,1.48-.3.49.33.63.99.3,1.48h0l-2.38,3.56c-.2.3-.53.48-.89.48M921.26,535.19c-.59,0-1.07-.48-1.07-1.07,0-.21.06-.42.18-.6l2.39-3.56c.33-.49.99-.62,1.49-.3.49.33.62.99.3,1.49h0l-2.38,3.56c-.2.3-.53.48-.89.48M928.41,524.5c-.59,0-1.07-.48-1.07-1.07,0-.21.06-.42.18-.6l2.38-3.55c.33-.49.99-.63,1.48-.3s.63.99.3,1.48l-2.38,3.55c-.2.3-.53.48-.89.48M935.54,513.83c-.59,0-1.07-.48-1.07-1.07,0-.21.06-.42.18-.59l2.38-3.56c.33-.49.99-.62,1.49-.3.49.33.62.99.3,1.49h0l-2.38,3.55c-.2.3-.53.48-.89.48M942.67,503.15c-.59,0-1.07-.48-1.07-1.07,0-.21.06-.42.18-.6l2.38-3.56c.31-.5.97-.66,1.47-.35s.66.97.35,1.47c-.01.02-.03.04-.04.06l-2.38,3.56c-.2.3-.53.48-.89.48M949.81,492.47c-.21,0-.42-.06-.59-.18-.49-.33-.63-.99-.3-1.48l2.38-3.56c.33-.49.99-.62,1.49-.3.49.33.62.99.3,1.49l-2.38,3.56c-.2.3-.53.48-.89.48M956.94,481.8c-.59,0-1.07-.48-1.07-1.07,0-.21.06-.42.18-.6l2.38-3.56c.33-.49.99-.63,1.48-.3s.63.99.3,1.48l-2.38,3.56c-.2.3-.53.48-.89.48M964.08,471.12c-.21,0-.42-.06-.6-.18-.49-.33-.62-.99-.29-1.49l2.38-3.56c.33-.49.99-.63,1.48-.3s.63.99.3,1.48l-2.38,3.56c-.2.3-.53.48-.89.48M971.21,460.44c-.59,0-1.07-.48-1.07-1.07,0-.21.06-.42.18-.6l2.38-3.55c.33-.49.99-.63,1.48-.3.49.33.63.99.3,1.48l-2.38,3.55c-.2.3-.53.48-.89.48M978.34,449.77c-.59,0-1.07-.49-1.07-1.08,0-.21.06-.42.18-.59l2.38-3.56c.33-.49.99-.62,1.49-.3.49.33.62.99.3,1.49h0l-2.38,3.56c-.2.3-.53.48-.89.48M985.49,439.08c-.21,0-.42-.06-.6-.18-.49-.33-.63-.99-.3-1.48l2.38-3.56c.33-.49.99-.63,1.48-.3s.63.99.3,1.48l-2.38,3.56c-.2.3-.53.48-.89.48M992.62,428.41c-.21,0-.42-.06-.59-.18-.49-.33-.63-.99-.3-1.48l2.38-3.56c.33-.49.99-.62,1.48-.3.49.33.62.99.3,1.48h0l-2.37,3.56c-.2.3-.53.48-.89.48M999.76,417.73c-.21,0-.42-.06-.59-.18-.49-.33-.63-.99-.3-1.48,0,0,0,0,0,0l2.38-3.56c.33-.49.99-.63,1.48-.3s.63.99.3,1.48l-2.38,3.56c-.2.3-.53.48-.89.48M1006.89,407.05c-.59,0-1.07-.48-1.07-1.07,0-.21.06-.42.18-.6l2.38-3.56c.33-.49.99-.62,1.48-.3.49.33.62.99.3,1.48h0l-2.38,3.56c-.2.3-.53.48-.89.48M1014.02,396.37c-.59,0-1.07-.48-1.07-1.07,0-.21.06-.42.18-.6l2.38-3.56c.33-.49.99-.63,1.48-.3s.63.99.3,1.48l-2.38,3.56c-.2.3-.53.48-.89.48M1021.16,385.69c-.59,0-1.07-.48-1.07-1.07,0-.21.06-.42.18-.59l2.38-3.56c.33-.49.99-.62,1.49-.3.49.33.62.99.3,1.49h0l-2.38,3.56c-.2.3-.53.48-.89.48M1028.29,375.02c-.21,0-.42-.06-.59-.18-.49-.33-.63-.99-.3-1.48,0,0,0,0,0,0l2.38-3.56c.33-.49.99-.63,1.48-.3.49.33.63.99.3,1.48h0l-2.38,3.56c-.2.3-.53.48-.89.48M1035.42,364.34c-.21,0-.42-.06-.59-.18-.49-.33-.63-.99-.3-1.48,0,0,0,0,0,0l2.38-3.56c.33-.49.99-.62,1.49-.3.49.33.62.99.3,1.49l-2.37,3.56c-.2.3-.53.48-.89.48"/>
        <path id="uuid-a0291448-899d-4d2b-8a06-6384d662c778" data-name="Path 3397" class="uuid-0a92b05f-d314-401a-8c16-4170237004cd" d="M1037.81,596.4c-.36,0-.69-.18-.89-.48l-2.38-3.56c-.35-.48-.24-1.15.24-1.49s1.15-.24,1.49.24c.01.02.03.04.04.06l2.38,3.56c.33.49.2,1.15-.29,1.48-.18.12-.38.18-.6.18M1030.67,585.72c-.36,0-.69-.18-.89-.48l-2.38-3.56c-.34-.48-.22-1.15.26-1.49.48-.34,1.15-.22,1.49.26,0,.01.02.03.03.04l2.38,3.56c.33.49.19,1.16-.3,1.49-.18.12-.38.18-.59.18M1023.53,575.04c-.36,0-.69-.18-.89-.48l-2.38-3.56c-.32-.5-.17-1.16.33-1.48.48-.31,1.12-.18,1.45.29l2.38,3.56c.33.49.2,1.15-.29,1.48-.18.12-.38.18-.6.18M1016.4,564.37c-.36,0-.69-.18-.89-.48l-2.38-3.56c-.33-.49-.19-1.16.3-1.48.49-.33,1.16-.19,1.48.3l2.38,3.56c.33.49.19,1.16-.3,1.49-.18.12-.38.18-.59.18M1009.26,553.69c-.36,0-.69-.18-.89-.48l-2.38-3.56c-.33-.49-.19-1.16.3-1.48s1.16-.19,1.48.3l2.38,3.57c.33.49.19,1.15-.3,1.48,0,0,0,0,0,0-.17.12-.38.18-.59.18M1002.13,543.01c-.36,0-.69-.18-.89-.48l-2.38-3.56c-.33-.49-.19-1.16.3-1.48s1.16-.19,1.48.3l2.38,3.56c.33.49.19,1.15-.3,1.48,0,0,0,0,0,0-.17.12-.38.18-.59.18M994.99,532.33c-.36,0-.69-.18-.89-.48l-2.38-3.56c-.33-.49-.19-1.16.3-1.48.49-.33,1.16-.19,1.48.3l2.38,3.56c.33.49.2,1.15-.29,1.48-.18.12-.39.18-.6.18M987.86,521.66c-.36,0-.69-.18-.89-.48l-2.38-3.56c-.33-.49-.19-1.16.3-1.48s1.16-.19,1.48.3l2.38,3.55c.33.49.19,1.16-.3,1.49-.17.12-.38.18-.59.18M980.72,510.98c-.36,0-.69-.18-.89-.48l-2.38-3.56c-.32-.49-.19-1.16.3-1.48.48-.33,1.14-.2,1.47.28,0,0,0,.01.01.02l2.38,3.56c.33.49.19,1.16-.3,1.49-.18.12-.38.18-.6.18M973.59,500.31c-.36,0-.69-.18-.89-.48l-2.38-3.56c-.32-.5-.17-1.16.33-1.48.48-.31,1.12-.18,1.45.29l2.38,3.56c.33.49.19,1.16-.3,1.48,0,0,0,0,0,0-.18.12-.38.18-.6.18M966.46,489.62c-.36,0-.69-.18-.89-.48l-2.38-3.56c-.34-.48-.22-1.15.26-1.49.48-.34,1.15-.22,1.49.26,0,.01.02.03.03.04l2.38,3.56c.33.49.19,1.16-.3,1.48-.18.12-.38.18-.59.18M959.32,478.94c-.36,0-.69-.18-.89-.48l-2.38-3.56c-.33-.49-.19-1.16.3-1.48s1.16-.19,1.48.3l2.38,3.56c.33.49.2,1.16-.29,1.48-.18.12-.38.18-.6.18M952.19,468.27c-.36,0-.69-.18-.89-.48l-2.38-3.56c-.33-.49-.19-1.16.3-1.48.49-.33,1.16-.19,1.48.3l2.38,3.56c.33.49.2,1.15-.29,1.48-.18.12-.38.18-.6.18M945.05,457.59c-.36,0-.69-.18-.89-.48l-2.38-3.56c-.33-.49-.19-1.16.3-1.48s1.16-.19,1.48.3l2.38,3.56c.33.49.2,1.16-.29,1.48-.18.12-.38.18-.6.18M937.92,446.91c-.36,0-.69-.18-.89-.48l-2.38-3.56c-.34-.48-.22-1.15.26-1.49.48-.34,1.15-.22,1.49.26,0,.01.02.03.03.04l2.38,3.56c.33.49.19,1.16-.3,1.49-.18.12-.38.18-.6.18M930.78,436.23c-.36,0-.69-.18-.89-.48l-2.38-3.56c-.35-.48-.24-1.15.24-1.49s1.15-.24,1.49.24c.01.02.03.04.04.06l2.38,3.56c.33.49.19,1.16-.3,1.49-.18.12-.38.18-.59.18M923.65,425.56c-.36,0-.69-.18-.89-.48l-2.38-3.56c-.31-.5-.16-1.16.34-1.48.48-.3,1.11-.18,1.44.29l2.38,3.56c.33.49.2,1.15-.29,1.48-.18.12-.38.18-.6.18M916.51,414.88c-.36,0-.69-.18-.89-.48l-2.38-3.56c-.33-.49-.19-1.16.3-1.48s1.16-.19,1.48.3l2.38,3.56c.33.49.19,1.16-.3,1.49-.18.12-.38.18-.59.18M909.38,404.2c-.36,0-.69-.18-.89-.48l-2.38-3.56c-.33-.49-.19-1.16.3-1.48s1.16-.19,1.48.3l2.38,3.56c.33.49.2,1.15-.29,1.48,0,0,0,0,0,0-.18.12-.39.18-.6.18M902.24,393.52c-.36,0-.69-.18-.89-.48l-2.38-3.56c-.33-.49-.19-1.16.3-1.49.49-.33,1.16-.19,1.49.3l2.38,3.55c.33.49.19,1.16-.3,1.49-.18.12-.38.18-.59.18M895.11,382.85c-.36,0-.69-.18-.89-.48l-2.38-3.56c-.33-.49-.19-1.16.3-1.48.49-.33,1.16-.19,1.48.3h0l2.38,3.56c.33.49.19,1.16-.3,1.48-.18.12-.38.18-.59.18M887.97,372.17c-.36,0-.69-.18-.89-.48l-2.38-3.56c-.32-.5-.17-1.16.33-1.48.48-.31,1.12-.18,1.45.29l2.37,3.56c.33.49.19,1.15-.3,1.48,0,0,0,0,0,0-.18.12-.38.18-.59.18M880.84,361.49c-.36,0-.69-.18-.89-.48l-2.38-3.56c-.34-.48-.22-1.15.26-1.49s1.15-.22,1.49.26c0,.01.02.03.03.04l2.38,3.56c.33.49.2,1.15-.29,1.48-.18.12-.38.18-.6.18"/>
        <path id="uuid-1a8c2e10-f77c-4935-9ff6-eed4b3019b47" data-name="Path 3398" class="uuid-0a92b05f-d314-401a-8c16-4170237004cd" d="M838.43,559.21c-.59,0-1.07-.48-1.07-1.07,0-.36.18-.69.48-.89l3.56-2.38c.49-.33,1.16-.19,1.48.3.33.49.19,1.16-.3,1.48h0l-3.56,2.38c-.18.12-.38.18-.59.18M849.11,552.07c-.59,0-1.07-.48-1.08-1.07,0-.36.18-.69.48-.89l3.56-2.38c.49-.33,1.16-.2,1.49.3.33.49.2,1.16-.3,1.49l-3.56,2.38c-.18.12-.39.18-.6.18M859.78,544.94c-.59,0-1.07-.48-1.07-1.07,0-.36.18-.69.48-.89l3.56-2.38c.49-.33,1.16-.19,1.48.3.33.49.19,1.16-.3,1.48h0l-3.56,2.38c-.18.12-.38.18-.6.18M870.46,537.8c-.59,0-1.07-.48-1.07-1.07,0-.36.18-.69.47-.89l3.56-2.38c.49-.33,1.16-.2,1.49.3.33.49.2,1.16-.3,1.49l-3.56,2.38c-.18.12-.38.18-.6.18M881.13,530.67c-.59,0-1.07-.48-1.07-1.07,0-.36.18-.69.48-.89l3.56-2.38c.49-.33,1.16-.2,1.49.29s.2,1.16-.29,1.49l-3.56,2.38c-.18.12-.38.18-.59.18M891.82,523.53c-.59,0-1.07-.47-1.07-1.07,0-.36.18-.69.47-.89l3.56-2.38c.49-.33,1.16-.2,1.49.3.33.49.2,1.16-.3,1.49h0l-3.55,2.38c-.18.12-.38.18-.6.18M902.5,516.4c-.59,0-1.07-.48-1.07-1.07,0-.36.18-.69.48-.89l3.56-2.38c.49-.33,1.16-.19,1.48.3s.19,1.16-.3,1.48h0l-3.56,2.38c-.18.12-.38.18-.59.18M913.17,509.26c-.59,0-1.07-.48-1.07-1.07,0-.36.18-.69.47-.89l3.56-2.38c.49-.33,1.16-.2,1.49.3.33.49.2,1.16-.3,1.49l-3.56,2.38c-.18.12-.39.18-.6.18M923.85,502.13c-.59,0-1.07-.48-1.07-1.07,0-.36.18-.69.48-.89l3.56-2.38c.49-.33,1.16-.19,1.48.3s.19,1.16-.3,1.48l-3.56,2.38c-.18.12-.38.18-.6.18M934.53,494.99c-.59,0-1.07-.47-1.07-1.06,0-.36.18-.7.48-.89l3.56-2.38c.48-.35,1.15-.24,1.49.24.35.48.24,1.15-.24,1.49-.02.01-.04.03-.06.04l-3.56,2.38c-.18.12-.38.18-.6.18M945.2,487.86c-.59,0-1.07-.48-1.07-1.07,0-.36.18-.69.48-.89l3.56-2.38c.49-.33,1.16-.19,1.48.3s.19,1.16-.3,1.48h0l-3.56,2.38c-.18.12-.38.18-.59.18M955.88,480.72c-.59,0-1.07-.48-1.07-1.08,0-.35.18-.69.47-.88l3.56-2.38c.49-.33,1.16-.19,1.48.3s.19,1.16-.3,1.48h0l-3.56,2.38c-.18.12-.38.18-.59.18M966.56,473.59c-.59,0-1.07-.47-1.07-1.06,0-.36.18-.7.48-.9l3.56-2.38c.49-.33,1.16-.19,1.48.3s.19,1.16-.3,1.48h0l-3.56,2.38c-.18.12-.38.18-.59.18M977.24,466.45c-.59,0-1.07-.48-1.07-1.06,0-.36.18-.7.48-.89l3.56-2.38c.49-.33,1.16-.19,1.48.3s.19,1.16-.3,1.48l-3.56,2.37c-.18.12-.38.18-.59.18M987.92,459.32c-.59,0-1.07-.48-1.07-1.07,0-.36.18-.69.47-.89l3.56-2.38c.49-.33,1.16-.19,1.48.3s.19,1.16-.3,1.48h0l-3.56,2.38c-.18.12-.38.18-.59.18M998.6,452.19c-.59,0-1.07-.48-1.07-1.07,0-.36.18-.69.48-.89l3.56-2.38c.49-.33,1.16-.19,1.48.3s.19,1.16-.3,1.48l-3.56,2.38c-.18.12-.38.18-.6.18M1009.27,445.05c-.59,0-1.07-.48-1.07-1.07,0-.36.18-.69.48-.89l3.56-2.38c.49-.33,1.16-.19,1.48.3s.19,1.16-.3,1.48l-3.56,2.38c-.18.12-.38.18-.6.18M1019.95,437.92c-.59,0-1.07-.48-1.07-1.07,0-.36.18-.69.48-.89l3.56-2.38c.49-.33,1.16-.19,1.48.3.33.49.19,1.16-.3,1.48l-3.56,2.38c-.17.12-.38.18-.59.18M1030.63,430.79c-.59,0-1.07-.48-1.07-1.07,0-.36.18-.69.48-.89l3.56-2.38c.49-.33,1.16-.19,1.48.3s.19,1.16-.3,1.48h0l-3.55,2.38c-.18.12-.38.18-.6.18M1041.31,423.65c-.59,0-1.07-.48-1.07-1.07,0-.36.18-.69.48-.89l3.56-2.38c.48-.34,1.15-.22,1.49.26.34.48.22,1.15-.26,1.49-.01,0-.03.02-.04.03l-3.56,2.38c-.18.12-.38.18-.59.18M1051.98,416.51c-.59,0-1.07-.48-1.07-1.07,0-.36.18-.69.48-.89l3.56-2.38c.48-.34,1.15-.23,1.49.25.34.48.23,1.15-.25,1.49-.02.01-.04.02-.05.04l-3.56,2.38c-.18.12-.38.18-.6.18M1062.66,409.38c-.59,0-1.07-.48-1.07-1.07,0-.36.18-.69.48-.89l3.56-2.38c.48-.34,1.15-.23,1.49.25.34.48.23,1.15-.25,1.49-.02.01-.04.02-.05.04l-3.56,2.38c-.18.12-.38.18-.59.18M1073.34,402.25c-.59,0-1.07-.48-1.07-1.08,0-.36.18-.69.47-.89l3.56-2.38c.5-.32,1.16-.17,1.48.33.31.48.18,1.12-.29,1.45l-3.56,2.38c-.18.12-.38.18-.6.18"/>
        <path id="uuid-af8c9676-bb3e-4c19-a309-0cac5c1e826a" data-name="Path 3399" class="uuid-0a92b05f-d314-401a-8c16-4170237004cd" d="M1098.05,506.23c-.07,0-.14,0-.21-.02l-4.2-.84c-.58-.12-.96-.68-.84-1.26.12-.58.68-.96,1.26-.84l4.2.84c.58.11.96.68.84,1.26-.1.5-.54.87-1.05.86M1085.45,503.72c-.07,0-.14,0-.21-.02l-4.2-.84c-.58-.12-.96-.68-.84-1.26.12-.58.68-.96,1.26-.84l4.2.83c.58.11.96.68.84,1.26-.1.5-.54.87-1.05.86M1072.85,501.21c-.07,0-.14,0-.21-.02l-4.2-.83c-.58-.12-.96-.68-.84-1.26.12-.58.68-.96,1.26-.84h0l4.2.83c.58.11.96.68.84,1.25-.1.5-.54.87-1.05.86M1060.25,498.71c-.07,0-.14,0-.21-.02l-4.2-.84c-.58-.11-.95-.67-.84-1.25,0,0,0,0,0,0,.1-.57.65-.95,1.22-.85.01,0,.02,0,.03,0l4.2.84c.58.11.96.68.84,1.26-.1.5-.54.87-1.05.86M1047.65,496.2c-.07,0-.14,0-.21-.02l-4.2-.84c-.58-.12-.96-.68-.84-1.26.12-.58.68-.96,1.26-.84h0l4.2.84c.58.11.96.68.84,1.25-.1.5-.54.87-1.05.86M1035.05,493.69c-.07,0-.14,0-.21-.02l-4.2-.83c-.58-.12-.96-.68-.84-1.26.12-.58.68-.96,1.26-.84h0l4.2.83c.58.11.96.68.84,1.26-.1.5-.54.87-1.05.86M1022.45,491.19c-.07,0-.14,0-.21-.02l-4.2-.84c-.58-.12-.96-.68-.84-1.26,0,0,0,0,0,0,.1-.57.65-.95,1.22-.85.01,0,.03,0,.04,0l4.2.83c.58.11.96.68.85,1.26-.1.5-.54.87-1.06.87M1009.85,488.69c-.07,0-.14,0-.21-.02l-4.2-.83c-.58-.12-.96-.68-.84-1.26,0,0,0,0,0,0,.1-.57.65-.95,1.22-.85.01,0,.03,0,.04,0l4.2.83c.58.11.96.68.84,1.26-.1.5-.54.87-1.05.86M997.25,486.18c-.07,0-.14,0-.21-.02l-4.2-.83c-.58-.1-.97-.66-.87-1.24.1-.58.66-.97,1.24-.87.02,0,.03,0,.05,0l4.2.84c.58.11.96.68.84,1.25-.1.5-.54.87-1.05.86M984.65,483.67c-.07,0-.14,0-.21-.02l-4.2-.83c-.58-.12-.96-.68-.84-1.26.12-.58.68-.96,1.26-.84l4.2.83c.58.11.96.68.84,1.25-.1.5-.54.87-1.05.86M972.05,481.17c-.07,0-.14,0-.21-.02l-4.2-.84c-.58-.11-.95-.67-.84-1.25,0,0,0,0,0,0,.1-.57.65-.95,1.22-.85.01,0,.02,0,.04,0l4.2.84c.58.11.96.68.84,1.26-.1.5-.54.87-1.05.86M959.46,478.67c-.07,0-.14,0-.21-.02l-4.2-.84c-.58-.12-.96-.68-.84-1.26,0,0,0,0,0,0,.12-.57.68-.95,1.26-.84l4.2.84c.58.11.96.68.84,1.26-.1.5-.54.86-1.05.86M946.87,476.17c-.07,0-.14,0-.21-.02l-4.2-.84c-.58-.12-.96-.68-.84-1.26.12-.58.68-.96,1.26-.84l4.2.83c.58.11.96.68.84,1.26-.1.5-.54.86-1.05.86M934.27,473.66c-.07,0-.14,0-.21-.02l-4.2-.83c-.58-.13-.94-.7-.81-1.28.13-.56.67-.92,1.23-.82l4.2.84c.58.11.96.68.84,1.26-.1.5-.54.86-1.05.86M921.72,471.15c-.07,0-.14,0-.21-.02l-4.2-.84c-.58-.12-.96-.68-.84-1.26s.68-.96,1.26-.84l4.2.84c.58.11.96.67.86,1.24-.09.51-.54.88-1.06.87M909.12,468.65c-.07,0-.14,0-.21-.02l-4.2-.84c-.58-.12-.95-.68-.84-1.26,0,0,0,0,0,0,.12-.57.68-.95,1.26-.84l4.2.84c.58.12.95.69.83,1.26-.1.5-.54.85-1.04.86M896.52,466.15c-.07,0-.14,0-.21-.02l-4.2-.83c-.58-.12-.96-.68-.84-1.26s.68-.96,1.26-.84l4.2.83c.58.11.96.68.84,1.26-.1.5-.54.87-1.05.86M883.92,463.65c-.07,0-.14,0-.21-.02l-4.2-.84c-.58-.12-.96-.68-.84-1.26s.68-.96,1.26-.84l4.2.83c.58.12.95.69.83,1.27-.1.5-.54.85-1.04.86M871.31,461.14c-.07,0-.14,0-.21-.02l-4.2-.83c-.58-.12-.96-.68-.84-1.26s.68-.96,1.26-.84h0l4.2.84c.58.11.96.68.84,1.26-.1.5-.54.87-1.05.86M858.72,458.64c-.07,0-.14,0-.21-.02l-4.2-.84c-.58-.11-.96-.68-.84-1.25,0,0,0,0,0,0,.12-.57.68-.94,1.26-.84l4.2.84c.58.11.96.68.84,1.26-.1.5-.54.87-1.05.86M846.11,456.13c-.07,0-.14,0-.21-.02l-4.2-.83c-.58-.11-.96-.68-.84-1.26.11-.58.68-.96,1.26-.84l4.2.83c.58.11.96.68.84,1.25-.1.5-.54.86-1.05.86M833.51,453.63c-.07,0-.14,0-.21-.02l-4.2-.84c-.58-.11-.95-.67-.84-1.25,0,0,0,0,0,0,.12-.57.68-.95,1.26-.84l4.2.84c.58.11.96.68.84,1.26-.1.5-.54.87-1.05.86M820.91,451.13c-.07,0-.14,0-.21-.02l-4.2-.84c-.58-.11-.96-.68-.84-1.25,0,0,0,0,0,0,.11-.59.67-.97,1.26-.87.02,0,.03,0,.05,0l4.2.84c.58.11.96.68.84,1.26-.1.5-.54.87-1.05.86"/>
        <path id="uuid-373c66b8-bf81-4b11-9ca6-0db9a4071d9c" data-name="Path 3400" class="uuid-0a92b05f-d314-401a-8c16-4170237004cd" d="M930.78,620.92c-.07,0-.14,0-.21-.02-.58-.12-.95-.68-.84-1.26,0,0,0,0,0,0l.83-4.2c.12-.58.68-.96,1.26-.84.58.12.96.68.84,1.26l-.83,4.2c-.1.5-.54.86-1.05.86M933.29,608.32c-.59,0-1.07-.49-1.07-1.08,0-.07,0-.13.02-.2l.84-4.2c.12-.58.68-.96,1.26-.84.58.12.96.68.84,1.26l-.84,4.2c-.1.5-.54.86-1.05.86M935.79,595.72c-.07,0-.14,0-.21-.02-.58-.12-.96-.68-.84-1.26l.84-4.2c.12-.58.68-.96,1.26-.84.58.12.96.68.84,1.26l-.83,4.2c-.1.5-.54.86-1.05.86M938.3,583.12c-.59,0-1.08-.49-1.07-1.08,0-.07,0-.13.02-.2l.83-4.2c.12-.58.68-.95,1.26-.84.58.11.95.67.84,1.25,0,0,0,0,0,0l-.84,4.2c-.1.5-.54.86-1.04.86M940.8,570.52c-.07,0-.14,0-.21-.02-.58-.11-.96-.67-.84-1.25h0s.83-4.2.83-4.2c.13-.58.7-.94,1.28-.81.56.13.92.67.82,1.23l-.84,4.2c-.1.5-.54.86-1.05.86M943.31,557.92c-.07,0-.14,0-.21-.02-.58-.12-.96-.68-.84-1.26,0,0,0,0,0,0l.84-4.2c.13-.57.68-.94,1.26-.84.58.12.96.68.84,1.26,0,0,0,0,0,0l-.84,4.2c-.1.5-.54.86-1.05.86M945.81,545.32c-.07,0-.14,0-.21-.02-.58-.12-.96-.68-.84-1.26l.84-4.2c.12-.58.68-.96,1.26-.84.58.12.96.68.84,1.26l-.83,4.2c-.1.5-.54.86-1.05.86M948.32,532.72c-.07,0-.14,0-.21-.02-.58-.12-.96-.68-.84-1.26l.84-4.2c.12-.58.68-.95,1.26-.84.58.11.95.67.84,1.25,0,0,0,0,0,0l-.83,4.2c-.1.5-.54.86-1.05.86M950.82,520.12c-.07,0-.14,0-.21-.02-.58-.12-.96-.68-.84-1.26l.83-4.2c.13-.57.68-.94,1.26-.84.58.12.95.68.84,1.26l-.84,4.2c-.1.5-.54.86-1.05.86M953.33,507.53c-.07,0-.14,0-.21-.02-.58-.12-.96-.68-.84-1.26,0,0,0,0,0,0l.84-4.2c.12-.57.68-.95,1.26-.84.58.12.96.68.84,1.26,0,0,0,0,0,0l-.84,4.2c-.1.5-.54.86-1.05.86M955.83,494.93c-.07,0-.14,0-.21-.02-.58-.11-.95-.67-.84-1.25,0,0,0,0,0,0l.83-4.2c.13-.57.68-.94,1.26-.84.58.12.95.68.84,1.26l-.84,4.2c-.1.5-.54.86-1.05.86M958.34,482.33c-.07,0-.14,0-.21-.02-.58-.12-.96-.68-.84-1.26,0,0,0,0,0,0l.84-4.2c.12-.58.68-.95,1.26-.84.58.12.96.68.84,1.26,0,0,0,0,0,0l-.83,4.2c-.1.5-.54.86-1.05.86M960.84,469.73c-.07,0-.14,0-.21-.02-.58-.11-.96-.68-.84-1.26,0,0,0,0,0,0l.83-4.2c.13-.57.68-.94,1.26-.84.58.12.95.68.84,1.26l-.84,4.2c-.1.5-.54.86-1.05.86M963.34,457.13c-.59,0-1.07-.49-1.07-1.08,0-.07,0-.13.02-.2l.84-4.2c.12-.58.68-.96,1.26-.84.58.12.96.68.84,1.26l-.83,4.2c-.1.5-.54.86-1.05.86M965.85,444.53c-.07,0-.14,0-.21-.02-.58-.11-.96-.67-.84-1.25,0,0,0,0,0,0l.83-4.2c.1-.58.66-.97,1.24-.87.58.1.97.66.87,1.24,0,.02,0,.03,0,.05l-.84,4.2c-.1.5-.54.86-1.05.86M968.35,431.94c-.07,0-.14,0-.21-.02-.58-.11-.96-.68-.84-1.25,0,0,0,0,0,0l.84-4.2c.12-.58.68-.96,1.26-.84s.96.68.84,1.26l-.84,4.2c-.1.5-.54.86-1.05.86M970.86,419.34c-.07,0-.14,0-.21-.02-.58-.11-.95-.67-.84-1.25,0,0,0,0,0,0l.84-4.2c.12-.58.68-.96,1.26-.84s.96.68.84,1.26l-.83,4.2c-.1.5-.54.86-1.05.86M973.37,406.74c-.07,0-.14,0-.21-.02-.58-.12-.96-.68-.84-1.26,0,0,0,0,0,0l.83-4.2c.11-.57.66-.95,1.23-.85,0,0,.02,0,.03,0,.58.12.95.68.84,1.26l-.83,4.2c-.1.5-.54.86-1.05.86M975.87,394.14c-.07,0-.14,0-.21-.02-.58-.11-.96-.67-.84-1.25,0,0,0,0,0,0l.84-4.2c.12-.58.68-.96,1.26-.84s.96.68.84,1.26h0l-.84,4.2c-.1.5-.54.87-1.05.86M978.38,381.54c-.07,0-.14,0-.21-.02-.58-.12-.95-.68-.84-1.26,0,0,0,0,0,0l.84-4.2c.11-.57.66-.95,1.23-.85,0,0,.02,0,.03,0,.58.12.96.68.84,1.26l-.84,4.2c-.1.5-.54.86-1.05.86M980.88,368.95c-.07,0-.14,0-.21-.02-.58-.12-.96-.68-.84-1.26l.84-4.2c.11-.57.66-.95,1.24-.85,0,0,.02,0,.02,0,.58.12.96.68.84,1.26l-.84,4.2c-.1.5-.54.86-1.05.86M983.39,356.35c-.07,0-.14,0-.21-.02-.58-.12-.96-.68-.84-1.26l.83-4.2c.1-.57.65-.95,1.23-.85.01,0,.02,0,.03,0,.58.12.96.68.84,1.26l-.83,4.2c-.1.5-.54.86-1.05.86M985.89,343.75c-.07,0-.14,0-.21-.02-.58-.11-.95-.67-.84-1.24,0,0,0-.01,0-.02l.83-4.2c.1-.57.65-.95,1.22-.85.01,0,.02,0,.04,0,.58.12.96.68.84,1.26,0,0,0,0,0,0l-.83,4.2c-.1.5-.54.86-1.05.86"/>
        <path id="uuid-5447d1ee-be5f-4e60-b9c5-228ccc93b9b1" data-name="Path 3401" class="uuid-f974692a-238a-4c3d-b603-2884734b74ca" d="M989.58,478.01c0,16.47-13.35,29.82-29.81,29.82s-29.82-13.35-29.82-29.81,13.35-29.82,29.81-29.82h0c16.47,0,29.81,13.35,29.82,29.81"/>
        <path id="uuid-79fe638e-4600-4006-88e5-3866a0519be2" data-name="Path 3402" class="uuid-e4ab4c69-1191-42ad-a5a3-f99017ffb5b2" d="M975.89,550.65c-5.52.12-10.1-4.25-10.22-9.78,0-.15,0-.29,0-.44v-124.78c-.12-5.52,4.25-10.09,9.77-10.22.15,0,.3,0,.45,0h34.59c29.29-.2,55.83,17.19,67.35,44.12,7.66,18.21,7.66,38.74,0,56.95-11.55,26.9-38.08,44.28-67.35,44.14h-34.59ZM1013.74,502.39c2.24-.26,4.43-.84,6.51-1.71,5.99-2.44,10.78-7.14,13.33-13.08,2.57-6.11,2.57-13,0-19.11-1.26-2.93-3.08-5.59-5.36-7.83-2.3-2.25-5.02-4.03-7.99-5.25-2.07-.87-4.26-1.45-6.49-1.71v48.69Z"/>
        <path id="uuid-b2fd291e-b1bd-47ec-acae-427ecdba0bea" data-name="Path 3403" class="uuid-f974692a-238a-4c3d-b603-2884734b74ca" d="M1010.48,414c8.63-.06,17.19,1.63,25.15,4.96,15.46,6.41,27.79,18.62,34.34,34.01,6.72,16.04,6.72,34.11,0,50.15-10.2,23.76-33.63,39.11-59.49,38.97h-34.59c-.8.11-1.54-.44-1.66-1.24-.02-.14-.02-.28,0-.41v-124.78c-.11-.8.44-1.54,1.24-1.66.14-.02.28-.02.42,0h34.59ZM1005.18,511.14h5.3c13.42.13,25.61-7.79,30.95-20.1,3.53-8.3,3.53-17.68,0-25.99-1.7-3.94-4.14-7.5-7.2-10.51-3.08-3-6.7-5.39-10.67-7.03-4.14-1.72-8.59-2.6-13.07-2.57h-5.3v66.19M1010.48,396.88h-34.59c-10.26-.11-18.67,8.11-18.78,18.37,0,.14,0,.27,0,.41v124.77c-.11,10.26,8.12,18.67,18.37,18.78.13,0,.27,0,.4,0h34.59c32.7.19,62.32-19.23,75.2-49.28,8.6-20.38,8.61-43.37,0-63.75-12.9-30.04-42.52-49.46-75.21-49.3M1022.3,489.24v-22.4c1.46,1.46,2.63,3.19,3.44,5.08,1.61,3.92,1.61,8.33,0,12.25-.81,1.89-1.98,3.62-3.44,5.07"/>
        <path id="uuid-f7b680bb-5886-45a7-9c6d-9cc3e589c674" data-name="Path 3404" class="uuid-e4ab4c69-1191-42ad-a5a3-f99017ffb5b2" d="M851.76,550.65c-5.52.13-10.09-4.25-10.22-9.76,0-.15,0-.3,0-.45v-124.78c-.12-5.52,4.25-10.09,9.77-10.22.15,0,.3,0,.45,0h41.04c7.55-.04,15.04,1.46,21.99,4.41,6.61,2.81,12.65,6.82,17.82,11.82,16.26,16.18,21.07,40.62,12.15,61.75-8.92,20.73-29.39,34.11-51.96,33.96h-3.19v23.05c.12,5.52-4.25,10.09-9.77,10.22-.15,0-.3,0-.45,0h-27.63ZM892.8,470.14c1.07.01,2.13-.2,3.12-.62,1.03-.43,1.96-1.05,2.75-1.84.78-.78,1.4-1.71,1.83-2.72.83-2.01.83-4.27,0-6.28-.87-2.06-2.51-3.69-4.57-4.56-.99-.42-2.06-.63-3.13-.61h-3.19v16.64h3.19Z"/>
        <path id="uuid-e213354f-9b68-426a-83ff-0e6f7049704e" data-name="Path 3405" class="uuid-f974692a-238a-4c3d-b603-2884734b74ca" d="M892.8,414.01c6.4-.05,12.73,1.22,18.62,3.72,5.65,2.4,10.82,5.82,15.22,10.09,4.39,4.29,7.88,9.41,10.26,15.06,2.5,5.88,3.77,12.22,3.72,18.61.05,6.37-1.22,12.68-3.72,18.54-7.57,17.59-24.95,28.94-44.1,28.8h-11.75v31.61c.11.8-.45,1.54-1.25,1.66-.14.02-.27.02-.41,0h-27.63c-.8.11-1.54-.44-1.65-1.24-.02-.14-.02-.27,0-.41v-124.78c-.11-.8.44-1.54,1.24-1.65.14-.02.28-.02.42,0h41.04ZM881.05,478.71h11.75c2.25.01,4.47-.44,6.53-1.33,4.06-1.73,7.29-4.96,9.02-9.01,1.77-4.18,1.77-8.9,0-13.07-1.73-4.06-4.97-7.29-9.02-9.02-2.06-.89-4.29-1.34-6.53-1.32h-11.75v33.76M892.8,396.88h-41.04c-10.26-.11-18.67,8.12-18.78,18.37,0,.13,0,.27,0,.4v124.78c-.11,10.26,8.12,18.67,18.38,18.78.13,0,.27,0,.4,0h27.63c10.26.11,18.67-8.12,18.78-18.38,0-.13,0-.27,0-.4v-14.7c6.83-.51,13.53-2.12,19.85-4.76,15.54-6.43,27.96-18.69,34.59-34.15,10.45-24.38,4.88-52.68-14.03-71.28-5.92-5.74-12.84-10.34-20.42-13.57-8.02-3.41-16.65-5.14-25.37-5.1"/>
      </g>
    </g>
  </g>
</svg>