<?xml version="1.0" encoding="UTF-8"?>
<svg id="uuid-4e273307-477c-4b2d-83a1-d4a24d48df78" data-name="Layer 1" xmlns="http://www.w3.org/2000/svg" xmlns:xlink="http://www.w3.org/1999/xlink" viewBox="0 0 1920 1073.5">
  <defs>
    <style>
      .uuid-0382c450-3835-4d17-b4ec-96205a4cf276 {
        isolation: isolate;
        box-shadow: 0 0 10px 5px blue;
      }

      .uuid-a92d7f27-248d-4ca9-8363-f5d330b67436 {
        fill: #f4f4f4;
        stroke-width: 0px;
         
      }



    </style>
  </defs>
  <image width="1920" height="720" transform="translate(-114 120) scale(1.18)" xlink:href="https://d2qb21tb4meex0.cloudfront.net/31-Pipedream+Events/02.png"/>
  <g id="uuid-a1a59676-b5a4-4079-bae3-4da4f6095489" data-name="Events. Drapery. Design. " class="uuid-0382c450-3835-4d17-b4ec-96205a4cf276">
    <g class="uuid-0382c450-3835-4d17-b4ec-96205a4cf276">
      <path class="uuid-a92d7f27-248d-4ca9-8363-f5d330b67436" d="M856,418.06v6.99h-37.81v20.88h34.13v6.99h-34.13v23.64h37.44v6.99h-45.17v-65.5h45.54Z"/>
      <path class="uuid-a92d7f27-248d-4ca9-8363-f5d330b67436" d="M884.33,457.16l7.82-21.07h7.91l-18.68,47.47h-7.73l-18.58-47.47h8l7.82,21.16c3.86,10.37,6.1,16.5,6.72,18.4,1.1-3.25,3.34-9.41,6.72-18.49Z"/>
      <path class="uuid-a92d7f27-248d-4ca9-8363-f5d330b67436" d="M941.92,459.83v2.58h-36.06c.37,5.15,1.81,9.03,4.32,11.64,2.51,2.61,5.95,3.91,10.3,3.91,6.56,0,10.76-2.94,12.6-8.83h7.64c-1.29,4.78-3.68,8.57-7.18,11.36-3.5,2.79-7.91,4.19-13.25,4.19-6.56,0-11.87-2.24-15.92-6.72-4.11-4.48-6.16-10.52-6.16-18.12s2.02-13.49,6.07-18.03c3.99-4.54,9.26-6.81,15.82-6.81s12.14,2.36,16.01,7.08c3.86,4.72,5.8,10.64,5.8,17.76ZM920.12,441.7c-3.86,0-7.02,1.21-9.48,3.63-2.45,2.42-3.99,5.9-4.6,10.44h27.97c-.37-4.17-1.78-7.56-4.23-10.17-2.45-2.61-5.67-3.91-9.66-3.91Z"/>
      <path class="uuid-a92d7f27-248d-4ca9-8363-f5d330b67436" d="M969.8,434.99c5.27,0,9.38,1.44,12.33,4.32,2.94,2.88,4.42,6.93,4.42,12.14v32.11h-7.36v-31.37c0-7.05-3.62-10.58-10.86-10.58-3.44,0-6.47,1.29-9.11,3.86-2.64,2.58-3.96,6.32-3.96,11.22v26.86h-7.36v-47.47h6.99v7.08c3.62-5.46,8.59-8.19,14.9-8.19Z"/>
      <path class="uuid-a92d7f27-248d-4ca9-8363-f5d330b67436" d="M1013.78,436.09v6.44h-9.75v30.82c0,2.7,1.81,4.05,5.43,4.05h4.32v6.16c-2.02.18-3.77.28-5.24.28-7.91,0-11.87-3.28-11.87-9.84v-31.46h-7.82v-6.44h7.82v-13.43h7.36v13.43h9.75Z"/>
      <path class="uuid-a92d7f27-248d-4ca9-8363-f5d330b67436" d="M1035.12,484.67c-12.7,0-19.41-5.4-20.15-16.19h7.45c.43,3.56,1.61,6.09,3.54,7.59,1.93,1.5,4.98,2.25,9.15,2.25,7.6,0,11.41-2.45,11.41-7.36,0-2.15-.78-3.77-2.35-4.88-1.56-1.1-4.4-2.05-8.51-2.85l-4.42-.83c-9.88-1.84-14.81-6.5-14.81-13.98,0-4.11,1.55-7.38,4.65-9.8,3.1-2.42,7.31-3.63,12.65-3.63,12.57,0,19.01,5.24,19.32,15.73h-7.36c-.18-3.43-1.23-5.86-3.13-7.27-1.9-1.41-4.85-2.12-8.83-2.12-3.19,0-5.64.61-7.36,1.84-1.72,1.23-2.58,2.94-2.58,5.15,0,2.09.74,3.65,2.21,4.69,1.47,1.04,3.92,1.93,7.36,2.67l4.23.83c5.83,1.17,10.01,2.82,12.56,4.97,2.54,2.15,3.82,5.15,3.82,9.02,0,4.48-1.67,7.96-5.01,10.44s-7.96,3.73-13.85,3.73Z"/>
      <path class="uuid-a92d7f27-248d-4ca9-8363-f5d330b67436" d="M1066.49,483.56h-9.29v-9.2h9.29v9.2Z"/>
    </g>
    <g class="uuid-0382c450-3835-4d17-b4ec-96205a4cf276">
      <path class="uuid-a92d7f27-248d-4ca9-8363-f5d330b67436" d="M810.46,499.06h22.08c9.94,0,17.79,2.88,23.55,8.65,5.7,5.77,8.56,13.8,8.56,24.1s-2.85,18.19-8.56,24.01c-5.83,5.83-13.68,8.74-23.55,8.74h-22.08v-65.5ZM818.18,557.57h14.35c7.73,0,13.66-2.27,17.8-6.81,4.14-4.54,6.21-10.86,6.21-18.95s-2.07-14.41-6.21-18.95c-4.14-4.54-10.07-6.81-17.8-6.81h-14.35v51.52Z"/>
      <path class="uuid-a92d7f27-248d-4ca9-8363-f5d330b67436" d="M892.89,516.36c1.23,0,2.05.03,2.48.09v7.08h-1.84c-4.91,0-8.73,1.21-11.45,3.63-2.73,2.42-4.09,5.87-4.09,10.35v27.05h-7.36v-47.47h6.99v8.37c3.19-6.07,8.28-9.11,15.27-9.11Z"/>
      <path class="uuid-a92d7f27-248d-4ca9-8363-f5d330b67436" d="M935.12,558.58h2.67v5.98c-1.23.18-2.58.28-4.05.28-4.97,0-7.64-2.27-8-6.81-3.31,5.09-8.46,7.64-15.46,7.64-5.21,0-9.31-1.21-12.28-3.63-2.98-2.42-4.46-5.84-4.46-10.26,0-8.59,5.86-13.49,17.57-14.72l6.81-.74c4.97-.55,7.45-2.73,7.45-6.53,0-2.64-.81-4.54-2.44-5.7-1.63-1.16-4.37-1.75-8.23-1.75-4.11,0-7.07.69-8.88,2.07-1.81,1.38-2.84,3.82-3.08,7.31h-7.36c.61-10.49,7.05-15.73,19.32-15.73s17.85,4.6,17.85,13.8v26.5c0,1.53.86,2.3,2.58,2.3ZM910.64,559.41c3.92,0,7.36-1.2,10.3-3.59,2.94-2.33,4.42-5.67,4.42-10.03v-5.61c-1.35,1.04-3.44,1.72-6.26,2.02l-6.9.83c-3.99.49-6.82,1.41-8.51,2.76-1.69,1.35-2.53,3.28-2.53,5.8s.8,4.37,2.39,5.75c1.59,1.38,3.96,2.07,7.08,2.07Z"/>
      <path class="uuid-a92d7f27-248d-4ca9-8363-f5d330b67436" d="M964.74,515.99c6.68,0,12.05,2.24,16.1,6.72,3.99,4.54,5.98,10.58,5.98,18.12s-1.99,13.49-5.98,18.03c-4.05,4.54-9.42,6.81-16.1,6.81s-12.11-2.64-15.92-7.91v24.84h-7.36v-65.5h6.99v7.36c3.8-5.64,9.23-8.46,16.28-8.46ZM963.82,559.04c4.6,0,8.29-1.67,11.09-5.01,2.79-3.34,4.19-7.87,4.19-13.57s-1.37-9.95-4.09-13.11c-2.73-3.16-6.46-4.74-11.18-4.74s-8.37,1.6-11.13,4.78c-2.76,3.19-4.14,7.67-4.14,13.43s1.38,10.15,4.14,13.34c2.76,3.25,6.47,4.88,11.13,4.88Z"/>
      <path class="uuid-a92d7f27-248d-4ca9-8363-f5d330b67436" d="M1034.2,540.83v2.58h-36.06c.37,5.15,1.81,9.03,4.32,11.64,2.51,2.61,5.95,3.91,10.3,3.91,6.56,0,10.76-2.94,12.6-8.83h7.64c-1.29,4.78-3.68,8.57-7.18,11.36-3.5,2.79-7.91,4.19-13.25,4.19-6.56,0-11.87-2.24-15.92-6.72-4.11-4.48-6.16-10.52-6.16-18.12s2.02-13.49,6.07-18.03c3.99-4.54,9.26-6.81,15.82-6.81s12.14,2.36,16.01,7.08c3.86,4.72,5.8,10.64,5.8,17.76ZM1012.4,522.7c-3.86,0-7.02,1.21-9.48,3.63-2.45,2.42-3.99,5.9-4.6,10.44h27.97c-.37-4.17-1.78-7.56-4.23-10.17-2.45-2.61-5.67-3.91-9.66-3.91Z"/>
      <path class="uuid-a92d7f27-248d-4ca9-8363-f5d330b67436" d="M1062.44,516.36c1.23,0,2.05.03,2.48.09v7.08h-1.84c-4.91,0-8.73,1.21-11.45,3.63-2.73,2.42-4.09,5.87-4.09,10.35v27.05h-7.36v-47.47h6.99v8.37c3.19-6.07,8.28-9.11,15.27-9.11Z"/>
      <path class="uuid-a92d7f27-248d-4ca9-8363-f5d330b67436" d="M1093.81,536.78l6.72-19.69h8l-20.06,54.92c-1.41,3.99-3.34,6.79-5.8,8.42-2.45,1.62-5.67,2.44-9.66,2.44-1.35,0-2.82-.09-4.42-.28v-6.16h4.32c4.23,0,7.11-1.96,8.65-5.89l1.66-4.42-17.85-49.04h8.1l6.72,19.78c2.39,6.99,4.66,13.83,6.81,20.52,1.78-5.7,4.05-12.57,6.81-20.61Z"/>
      <path class="uuid-a92d7f27-248d-4ca9-8363-f5d330b67436" d="M1111.38,564.56h-9.29v-9.2h9.29v9.2Z"/>
    </g>
    <g class="uuid-0382c450-3835-4d17-b4ec-96205a4cf276">
      <path class="uuid-a92d7f27-248d-4ca9-8363-f5d330b67436" d="M810.46,580.06h22.08c9.94,0,17.79,2.88,23.55,8.65,5.7,5.77,8.56,13.8,8.56,24.1s-2.85,18.19-8.56,24.01c-5.83,5.83-13.68,8.74-23.55,8.74h-22.08v-65.5ZM818.18,638.57h14.35c7.73,0,13.66-2.27,17.8-6.81,4.14-4.54,6.21-10.86,6.21-18.95s-2.07-14.41-6.21-18.95c-4.14-4.54-10.07-6.81-17.8-6.81h-14.35v51.52Z"/>
      <path class="uuid-a92d7f27-248d-4ca9-8363-f5d330b67436" d="M912.48,621.83v2.58h-36.06c.37,5.15,1.81,9.03,4.32,11.64,2.51,2.61,5.95,3.91,10.3,3.91,6.56,0,10.76-2.94,12.6-8.83h7.64c-1.29,4.78-3.68,8.57-7.18,11.36-3.5,2.79-7.91,4.19-13.25,4.19-6.56,0-11.87-2.24-15.92-6.72-4.11-4.48-6.16-10.52-6.16-18.12s2.02-13.49,6.07-18.03c3.99-4.54,9.26-6.81,15.82-6.81s12.14,2.36,16.01,7.08c3.86,4.72,5.8,10.64,5.8,17.76ZM890.68,603.7c-3.86,0-7.02,1.21-9.48,3.63-2.45,2.42-3.99,5.9-4.6,10.44h27.97c-.37-4.17-1.78-7.56-4.23-10.17-2.45-2.61-5.67-3.91-9.66-3.91Z"/>
      <path class="uuid-a92d7f27-248d-4ca9-8363-f5d330b67436" d="M934.75,646.67c-12.7,0-19.41-5.4-20.15-16.19h7.45c.43,3.56,1.61,6.09,3.54,7.59,1.93,1.5,4.98,2.25,9.15,2.25,7.6,0,11.41-2.45,11.41-7.36,0-2.15-.78-3.77-2.35-4.88-1.56-1.1-4.4-2.05-8.51-2.85l-4.42-.83c-9.88-1.84-14.81-6.5-14.81-13.98,0-4.11,1.55-7.38,4.65-9.8,3.1-2.42,7.31-3.63,12.65-3.63,12.57,0,19.01,5.24,19.32,15.73h-7.36c-.18-3.43-1.23-5.86-3.13-7.27-1.9-1.41-4.85-2.12-8.83-2.12-3.19,0-5.64.61-7.36,1.84-1.72,1.23-2.58,2.94-2.58,5.15,0,2.09.74,3.65,2.21,4.69,1.47,1.04,3.92,1.93,7.36,2.67l4.23.83c5.83,1.17,10.01,2.82,12.56,4.97,2.54,2.15,3.82,5.15,3.82,9.02,0,4.48-1.67,7.96-5.01,10.44-3.34,2.48-7.96,3.73-13.85,3.73Z"/>
      <path class="uuid-a92d7f27-248d-4ca9-8363-f5d330b67436" d="M965.75,590.92h-7.82v-9.02h7.82v9.02ZM965.57,645.56h-7.36v-47.47h7.36v47.47Z"/>
      <path class="uuid-a92d7f27-248d-4ca9-8363-f5d330b67436" d="M1009.91,604.99v-6.9h6.99v45.63c0,6.5-1.9,11.62-5.7,15.36-3.8,3.74-9.26,5.61-16.38,5.61-5.89,0-10.61-1.35-14.17-4.05-3.56-2.7-5.58-6.44-6.07-11.22h7.36c.92,6.01,5.21,9.02,12.88,9.02,9.81,0,14.72-4.91,14.72-14.72v-4.6c-3.74,5.03-9.05,7.54-15.92,7.54s-12.02-2.27-16.01-6.81c-4.05-4.54-6.07-10.55-6.07-18.03s2.02-13.65,6.07-18.12c3.92-4.48,9.26-6.72,16.01-6.72s12.48,2.67,16.28,8ZM994.55,640.04c4.66,0,8.37-1.62,11.13-4.88,2.76-3.25,4.14-7.7,4.14-13.34s-1.38-10.09-4.14-13.34c-2.76-3.25-6.47-4.88-11.13-4.88s-8.3,1.66-11.09,4.97c-2.79,3.31-4.19,7.73-4.19,13.25s1.39,9.94,4.19,13.25c2.79,3.31,6.49,4.97,11.09,4.97Z"/>
      <path class="uuid-a92d7f27-248d-4ca9-8363-f5d330b67436" d="M1047.08,596.99c5.27,0,9.38,1.44,12.33,4.32,2.94,2.88,4.42,6.93,4.42,12.14v32.11h-7.36v-31.37c0-7.05-3.62-10.58-10.86-10.58-3.44,0-6.47,1.29-9.11,3.86-2.64,2.58-3.96,6.32-3.96,11.22v26.86h-7.36v-47.47h6.99v7.08c3.62-5.46,8.59-8.19,14.9-8.19Z"/>
      <path class="uuid-a92d7f27-248d-4ca9-8363-f5d330b67436" d="M1080.01,645.56h-9.29v-9.2h9.29v9.2Z"/>
    </g>
  </g>
</svg>