<?xml version="1.0" encoding="UTF-8"?>
<svg id="uuid-575e683c-502a-4aa7-838c-408dad356900" data-name="Layer 1" xmlns="http://www.w3.org/2000/svg" viewBox="0 0 1908.96 312.94">
  <defs>
    <style>
      .uuid-1f904d63-28e7-416e-928f-dc12026a943b {
        fill: #fff;
        stroke-width: 0px;
      }

                       .st4{fill:#FFFFFF;}
	.st3{fill:#FFFFFF;}
    </style>
  </defs>
  <g>
    <polygon class="st4" points="551.06 201.92 533.18 201.92 588.38 109.39 606.26 109.39 551.06 201.92"/>
    <polygon class="st4" points="599.17 201.92 581.29 201.92 636.49 109.39 654.37 109.39 599.17 201.92"/>
    <polygon class="st4" points="647.27 201.92 629.4 201.92 684.6 109.39 702.48 109.39 647.27 201.92"/>
    <polygon class="st4" points="695.38 201.92 677.5 201.92 732.71 109.39 750.58 109.39 695.38 201.92"/>
    <polygon class="st4" points="743.49 201.92 725.61 201.92 780.81 109.39 798.69 109.39 743.49 201.92"/>
    <polygon class="st4" points="791.6 201.92 773.72 201.92 828.92 109.39 846.8 109.39 791.6 201.92"/>
  </g>
  <polygon class="uuid-1f904d63-28e7-416e-928f-dc12026a943b" points="35.49 0 35.49 6.5 7.17 6.5 7.17 34.82 .67 34.82 .67 0 35.49 0"/>
  <polygon class="uuid-1f904d63-28e7-416e-928f-dc12026a943b" points="1874.14 1 1874.14 7.5 1902.46 7.5 1902.46 35.82 1908.96 35.82 1908.96 1 1874.14 1"/>
  <polygon class="uuid-1f904d63-28e7-416e-928f-dc12026a943b" points="34.82 312.94 34.82 306.45 6.5 306.45 6.5 278.12 0 278.12 0 312.94 34.82 312.94"/>
  <polygon class="uuid-1f904d63-28e7-416e-928f-dc12026a943b" points="1874.14 311.94 1874.14 305.45 1902.46 305.45 1902.46 277.12 1908.96 277.12 1908.96 311.94 1874.14 311.94"/>
  <g>
    <rect class="uuid-1f904d63-28e7-416e-928f-dc12026a943b" x="1673.36" y="66.59" width="2.15" height="50.44"/>
    <rect class="uuid-1f904d63-28e7-416e-928f-dc12026a943b" x="1681.97" y="66.59" width="4.3" height="50.44"/>
    <rect class="uuid-1f904d63-28e7-416e-928f-dc12026a943b" x="1692.72" y="66.59" width="2.15" height="50.44"/>
    <rect class="uuid-1f904d63-28e7-416e-928f-dc12026a943b" x="1697.02" y="66.59" width="2.15" height="50.44"/>
    <rect class="uuid-1f904d63-28e7-416e-928f-dc12026a943b" x="1707.77" y="66.59" width="2.15" height="50.44"/>
    <rect class="uuid-1f904d63-28e7-416e-928f-dc12026a943b" x="1712.07" y="66.59" width="8.6" height="50.44"/>
    <rect class="uuid-1f904d63-28e7-416e-928f-dc12026a943b" x="1722.83" y="66.59" width="2.15" height="50.44"/>
    <rect class="uuid-1f904d63-28e7-416e-928f-dc12026a943b" x="1727.13" y="66.59" width="2.15" height="50.44"/>
    <rect class="uuid-1f904d63-28e7-416e-928f-dc12026a943b" x="1735.73" y="66.59" width="4.3" height="50.44"/>
    <rect class="uuid-1f904d63-28e7-416e-928f-dc12026a943b" x="1742.18" y="66.59" width="6.45" height="50.44"/>
    <rect class="uuid-1f904d63-28e7-416e-928f-dc12026a943b" x="1752.93" y="66.59" width="2.15" height="50.44"/>
    <rect class="uuid-1f904d63-28e7-416e-928f-dc12026a943b" x="1757.23" y="66.59" width="2.15" height="50.44"/>
    <rect class="uuid-1f904d63-28e7-416e-928f-dc12026a943b" x="1767.99" y="66.59" width="2.15" height="50.44"/>
    <rect class="uuid-1f904d63-28e7-416e-928f-dc12026a943b" x="1772.29" y="66.59" width="2.15" height="50.44"/>
    <rect class="uuid-1f904d63-28e7-416e-928f-dc12026a943b" x="1776.59" y="66.59" width="2.15" height="50.44"/>
    <rect class="uuid-1f904d63-28e7-416e-928f-dc12026a943b" x="1780.89" y="66.59" width="2.15" height="50.44"/>
    <rect class="uuid-1f904d63-28e7-416e-928f-dc12026a943b" x="1785.19" y="66.59" width="6.45" height="50.44"/>
    <rect class="uuid-1f904d63-28e7-416e-928f-dc12026a943b" x="1795.94" y="66.59" width="2.15" height="50.44"/>
    <rect class="uuid-1f904d63-28e7-416e-928f-dc12026a943b" x="1802.4" y="66.59" width="6.45" height="50.44"/>
    <rect class="uuid-1f904d63-28e7-416e-928f-dc12026a943b" x="1811" y="66.59" width="4.3" height="50.44"/>
    <rect class="uuid-1f904d63-28e7-416e-928f-dc12026a943b" x="1817.45" y="66.59" width="4.3" height="50.44"/>
    <rect class="uuid-1f904d63-28e7-416e-928f-dc12026a943b" x="1826.05" y="66.59" width="2.15" height="50.44"/>
    <rect class="uuid-1f904d63-28e7-416e-928f-dc12026a943b" x="1832.5" y="66.59" width="6.45" height="50.44"/>
    <rect class="uuid-1f904d63-28e7-416e-928f-dc12026a943b" x="1841.11" y="66.59" width="2.15" height="50.44"/>
    <rect class="uuid-1f904d63-28e7-416e-928f-dc12026a943b" x="1851.86" y="66.59" width="2.15" height="50.44"/>
    <rect class="uuid-1f904d63-28e7-416e-928f-dc12026a943b" x="1856.16" y="66.59" width="6.45" height="50.44"/>
    <rect class="uuid-1f904d63-28e7-416e-928f-dc12026a943b" x="1866.91" y="66.59" width="2.15" height="50.44"/>
    <rect class="uuid-1f904d63-28e7-416e-928f-dc12026a943b" x="1871.21" y="66.59" width="2.15" height="50.44"/>
    <rect class="uuid-1f904d63-28e7-416e-928f-dc12026a943b" x="1875.52" y="66.59" width="2.15" height="50.44"/>
  </g>
  <g>
    <path class="st3" d="M31.18,56.74h25.11c3.01,0,5.5.37,7.47,1.11,1.88.72,3.36,1.67,4.43,2.86,1.07,1.16,1.82,2.42,2.26,3.78.33,1.33.5,2.62.5,3.87,0,2.31-.5,4.15-1.49,5.52-1.04,1.44-2.44,2.63-4.22,3.59,2.18.7,4.04,1.94,5.59,3.71,1.61,1.82,2.43,4.44,2.48,7.87-.08,4.63-1.74,8.11-4.96,10.44-3.16,2.43-6.87,3.65-11.12,3.65h-26.04v-46.4ZM45.02,74.83h7.82c1.56,0,2.78-.28,3.68-.83.9-.57,1.35-1.58,1.35-3.03,0-1.17-.45-2.02-1.35-2.55-.9-.42-2.13-.64-3.68-.64h-7.82v7.05ZM45.02,92.09h8.65c1.62,0,2.98-.31,4.09-.92,1.07-.59,1.64-1.76,1.7-3.49,0-2.77-1.73-4.18-5.18-4.22h-9.27v8.64Z"/>
    <path class="st3" d="M112.6,95.62c0,1.26.08,2.56.25,3.89.17,1.31.59,2.52,1.27,3.63h-13.12c-.34-1.08-.49-2.14-.44-3.17h-.13c-1.39,1.5-3,2.54-4.82,3.11-1.9.61-3.91.92-6.02.92-3.23,0-5.91-.82-8.03-2.47-2.27-1.69-3.42-4.27-3.46-7.74,0-2.64.7-4.69,2.09-6.15,1.33-1.48,2.99-2.55,4.98-3.2,2.09-.7,4.2-1.17,6.32-1.43,2.12-.25,4-.49,5.65-.7.49-.15.94-.29,1.36-.41.4-.13.77-.27,1.11-.44.7-.42,1.05-1.14,1.05-2.16-.04-1.16-.48-1.98-1.3-2.44-.83-.44-1.8-.67-2.93-.67-1.93.04-3.21.41-3.85,1.1-.66.78-.99,1.55-.99,2.33h-12c.17-2.39.77-4.33,1.82-5.81,1.03-1.46,2.35-2.56,3.99-3.3,1.65-.78,3.5-1.32,5.53-1.62,1.97-.21,3.91-.32,5.84-.32,3.93,0,7.02.36,9.26,1.08,2.22.74,3.78,1.75,4.68,3.02.94,1.25,1.53,2.66,1.76,4.22.08,1.59.13,3.21.13,4.86v13.87ZM100.67,88.01c-1.69.74-3.46,1.28-5.32,1.62-3.04.38-4.56,1.6-4.56,3.66,0,.83.41,1.54,1.23,2.13.75.66,1.75.99,2.99.99,1.57,0,2.89-.46,3.96-1.37,1.04-.87,1.61-2.17,1.7-3.91v-3.12Z"/>
    <path class="st3" d="M119.74,69.4h11.95v5.4h.12c1-2.03,2.24-3.59,3.72-4.67,1.41-1.04,3.24-1.56,5.47-1.56,1.25,0,2.47.17,3.66.51v11.36c-.59-.25-1.25-.47-1.97-.63-.72-.13-1.7-.19-2.95-.19-5-.08-7.52,3.31-7.57,10.19v13.33h-12.44v-33.74Z"/>
    <path class="st3" d="M157.12,89.17c.21,1.91.86,3.46,1.94,4.67,1.04,1.27,2.57,1.91,4.61,1.91,1.1,0,2.15-.22,3.15-.67,1-.38,1.75-.96,2.26-1.75h12.04c-1.36,3.64-3.59,6.33-6.69,8.06-3.08,1.73-6.57,2.6-10.49,2.6-5.44-.04-9.87-1.59-13.28-4.63-3.56-3.03-5.36-7.35-5.4-12.98.04-5.08,1.66-9.31,4.86-12.7,3.18-3.32,7.43-5.02,12.74-5.11,12.76.17,19.08,7.04,18.96,20.6h-24.69ZM169.89,82.51c-.04-1.62-.58-2.97-1.61-4.06-1.05-1.09-2.46-1.63-4.23-1.63-3.96.04-6.25,1.94-6.86,5.68h12.7Z"/>
    <path class="st3" d="M188.36,56.74h12.44v16.38h.12c2.11-2.98,5.19-4.5,9.22-4.54,2.85.04,5.21.56,7.07,1.56,1.86,1.08,3.33,2.49,4.41,4.22,1.1,1.74,1.86,3.62,2.28,5.65.4,2.03.6,4.06.6,6.09v1.59c-.06.51-.14,1.03-.22,1.56-.04.51-.1,1.03-.19,1.56-.13.51-.25,1.05-.38,1.62-.61,2.07-1.48,3.98-2.63,5.71-2.32,3.77-5.85,5.72-10.6,5.87-2.99-.04-5.17-.57-6.55-1.58-1.36-.91-2.42-1.9-3.2-2.97h-.13v3.7h-12.26v-46.4ZM212.07,86.25c0-2.14-.36-4.05-1.08-5.75-.4-.78-.98-1.41-1.74-1.87-.81-.49-1.82-.73-3.02-.73-2.3.04-3.87.91-4.7,2.61-.42.78-.71,1.68-.89,2.67-.18,1-.26,2.03-.26,3.09,0,1,.09,1.99.26,2.99.18,1,.47,1.89.89,2.67.83,1.78,2.4,2.69,4.7,2.74,1.21,0,2.21-.29,3.02-.86.77-.47,1.35-1.09,1.74-1.88.72-1.65,1.08-3.54,1.08-5.66v-.02Z"/>
    <path class="st3" d="M240.18,89.17c.21,1.91.86,3.46,1.94,4.67,1.04,1.27,2.57,1.91,4.61,1.91,1.1,0,2.15-.22,3.15-.67,1-.38,1.75-.96,2.26-1.75h12.04c-1.36,3.64-3.59,6.33-6.69,8.06-3.08,1.73-6.57,2.6-10.49,2.6-5.44-.04-9.87-1.59-13.28-4.63-3.56-3.03-5.36-7.35-5.4-12.98.04-5.08,1.66-9.31,4.86-12.7,3.18-3.32,7.43-5.02,12.74-5.11,12.76.17,19.08,7.04,18.96,20.6h-24.69ZM252.95,82.51c-.04-1.62-.58-2.97-1.61-4.06-1.05-1.09-2.46-1.63-4.23-1.63-3.96.04-6.25,1.94-6.86,5.68h12.7Z"/>
    <path class="st3" d="M271.67,56.74h12.44v46.4h-12.44v-46.4Z"/>
    <path class="st3" d="M292.14,56.74h12.44v46.4h-12.44v-46.4Z"/>
    <path class="st3" d="M331.9,79.23c-.08-1.14-.56-1.99-1.45-2.55-.88-.67-1.9-1-3.06-1-1.02,0-1.95.15-2.79.45-.93.36-1.39,1.08-1.39,2.17,0,.43.17.77.52,1.02.32.32.66.56,1.01.73.63.21,1.36.38,2.2.51.86.19,1.79.37,2.79.54,2.12.34,4.3.86,6.55,1.56,2.15.62,3.97,1.66,5.46,3.12.76.7,1.35,1.57,1.78,2.61.37,1.04.55,2.28.55,3.73,0,2.32-.49,4.22-1.47,5.7-.98,1.56-2.29,2.8-3.91,3.7-3.47,1.69-7.31,2.51-11.52,2.47-4.11,0-7.84-.91-11.18-2.72-3.32-1.81-5.14-4.86-5.45-9.15h12.26c.08,1.15.6,2.14,1.55,2.96.7.65,1.85.98,3.45.98.91,0,1.86-.2,2.85-.6.95-.38,1.45-1.05,1.49-2,.04-.95-.37-1.67-1.24-2.16-.95-.47-2.9-.94-5.84-1.43-4.85-.83-8.36-2.11-10.54-3.84-2.16-1.67-3.24-3.93-3.24-6.76,0-2.12.51-3.88,1.54-5.3.98-1.44,2.27-2.53,3.86-3.27,1.59-.83,3.3-1.39,5.14-1.68,1.76-.3,3.48-.44,5.17-.44,3.83-.06,7.4.6,10.73,2,1.59.74,2.87,1.83,3.86,3.25.98,1.4,1.53,3.2,1.63,5.41h-11.31Z"/>
    <path class="st3" d="M32.08,128.74h13.83v46.4h-13.83v-46.4Z"/>
    <path class="st3" d="M53.53,141.4h12.39v4.28h.13c2.28-3.41,5.94-5.11,10.96-5.11,3.05,0,5.67.93,7.86,2.79,2.17,1.86,3.28,4.74,3.32,8.63v23.14h-12.44v-17.7c.04-1.99-.19-3.6-.7-4.83-.53-1.21-1.77-1.81-3.71-1.81-1.22-.04-2.38.35-3.48,1.18-.53.42-.98,1.07-1.36,1.94-.35.91-.53,2.04-.53,3.4v17.83h-12.44v-33.74Z"/>
    <path class="st3" d="M97.75,149.33h-5.12v-7.93h5.12c-.08-1.74.04-3.45.37-5.14.35-1.63,1.08-3.08,2.21-4.35,1.35-1.37,2.88-2.26,4.6-2.67,1.72-.34,3.8-.51,6.26-.51,1.9.04,3.77.13,5.61.25v8.85c-.51-.11-1.02-.22-1.53-.35-.53-.08-1.06-.13-1.59-.13-1.54,0-2.6.26-3.17.79-.61.59-.88,1.67-.79,3.24h6.76v7.93h-6.28v25.81h-12.44v-25.81Z"/>
    <path class="st3" d="M121.2,128.74h12.44v46.4h-12.44v-46.4Z"/>
    <path class="st3" d="M176.08,175.14h-12.26v-4.28h-.13c-2.26,3.39-5.88,5.1-10.85,5.14-3.03,0-5.67-.95-7.9-2.86-2.3-1.93-3.47-4.79-3.51-8.6v-23.14h12.44v17.7c-.04,1.95.21,3.54.76,4.77.53,1.25,1.75,1.88,3.65,1.88,1.22.04,2.42-.39,3.61-1.3.53-.42.98-1.09,1.36-2,.26-.83.4-1.9.4-3.21v-17.83h12.44v33.74Z"/>
    <path class="st3" d="M193.24,161.17c.21,1.91.86,3.46,1.94,4.67,1.04,1.27,2.57,1.91,4.61,1.91,1.1,0,2.15-.22,3.15-.67,1-.38,1.75-.96,2.26-1.75h12.04c-1.36,3.64-3.59,6.33-6.69,8.06-3.08,1.73-6.57,2.6-10.49,2.6-5.44-.04-9.87-1.59-13.28-4.63-3.56-3.03-5.36-7.35-5.4-12.98.04-5.08,1.66-9.31,4.86-12.7,3.18-3.32,7.43-5.02,12.74-5.11,12.76.17,19.08,7.04,18.96,20.6h-24.69ZM206.01,154.51c-.04-1.62-.58-2.97-1.61-4.06-1.05-1.09-2.46-1.63-4.23-1.63-3.96.04-6.25,1.94-6.86,5.68h12.7Z"/>
    <path class="st3" d="M224.48,141.4h12.39v4.28h.13c2.28-3.41,5.94-5.11,10.96-5.11,3.05,0,5.67.93,7.86,2.79,2.17,1.86,3.28,4.74,3.32,8.63v23.14h-12.44v-17.7c.04-1.99-.19-3.6-.7-4.83-.53-1.21-1.77-1.81-3.71-1.81-1.22-.04-2.38.35-3.48,1.18-.53.42-.98,1.07-1.36,1.94-.35.91-.53,2.04-.53,3.4v17.83h-12.44v-33.74Z"/>
    <path class="st3" d="M287.67,154.22c-.14-1.4-.6-2.46-1.38-3.21-.76-.74-1.82-1.11-3.17-1.11-1.17,0-2.1.24-2.77.73-.76.47-1.33,1.09-1.7,1.88-.39.78-.65,1.68-.77,2.67-.17,1.04-.25,2.09-.25,3.15,0,1,.08,1.99.25,2.99.12,1,.38,1.89.77,2.67.37.78.93,1.41,1.69,1.88.68.53,1.6.8,2.77.8,1.4,0,2.53-.5,3.42-1.5.84-.95,1.32-2.11,1.45-3.47h11.91c-.64,4.59-2.5,8.1-5.6,10.52-3.12,2.47-6.92,3.73-11.41,3.77-5.04-.04-9.19-1.67-12.45-4.89-3.44-3.11-5.19-7.37-5.23-12.79.04-5.42,1.78-9.73,5.23-12.95,3.26-3.15,7.41-4.75,12.45-4.79,4.41,0,8.17,1.08,11.28,3.24,3.05,2.24,4.84,5.71,5.35,10.41h-11.84Z"/>
    <path class="st3" d="M316.01,161.17c.21,1.91.86,3.46,1.94,4.67,1.04,1.27,2.57,1.91,4.61,1.91,1.1,0,2.15-.22,3.15-.67,1-.38,1.75-.96,2.26-1.75h12.04c-1.36,3.64-3.59,6.33-6.69,8.06-3.08,1.73-6.57,2.6-10.49,2.6-5.44-.04-9.87-1.59-13.28-4.63-3.56-3.03-5.36-7.35-5.4-12.98.04-5.08,1.66-9.31,4.86-12.7,3.18-3.32,7.43-5.02,12.74-5.11,12.76.17,19.08,7.04,18.96,20.6h-24.69ZM328.77,154.51c-.04-1.62-.58-2.97-1.61-4.06-1.05-1.09-2.46-1.63-4.23-1.63-3.96.04-6.25,1.94-6.86,5.68h12.7Z"/>
    <path class="st3" d="M347.24,141.4h11.95v5.4h.12c1-2.03,2.24-3.59,3.72-4.67,1.41-1.04,3.24-1.56,5.47-1.56,1.25,0,2.47.17,3.66.51v11.36c-.59-.25-1.25-.47-1.97-.63-.72-.13-1.7-.19-2.95-.19-5-.08-7.52,3.31-7.57,10.19v13.33h-12.44v-33.74Z"/>
    <path class="st3" d="M43.06,231.55c0,1.17.16,2.18.49,3.05.59,1.34,1.59,2.23,2.99,2.67,1.33.47,2.7.7,4.1.7,1.29.04,2.62-.23,4-.83,1.36-.61,2.06-1.75,2.1-3.4.04-1.16-.61-2.09-1.97-2.79-1.42-.66-4.1-1.5-8.06-2.54-1.86-.51-3.68-1.07-5.46-1.68-1.86-.61-3.54-1.4-5.04-2.35-1.52-.95-2.76-2.21-3.71-3.78-.99-1.46-1.49-3.34-1.49-5.65.08-5.37,1.97-9.29,5.66-11.74,3.52-2.39,7.68-3.59,12.48-3.59,5.02-.04,9.34,1.03,12.97,3.23,3.52,2.34,5.45,6.3,5.78,11.87h-13.11c.16-1.72-.38-2.95-1.63-3.69-1.23-.76-2.59-1.14-4.09-1.14-1.03,0-2.08.19-3.17.57-.49.21-.91.52-1.26.92-.37.42-.55.96-.55,1.62.08.78.52,1.43,1.32,1.94.76.57,1.74,1.07,2.95,1.49,2.56.78,5.49,1.59,8.77,2.41,1.75.44,3.42.98,5.01,1.62,1.57.61,3,1.44,4.29,2.48,1.31,1.04,2.35,2.3,3.11,3.78.7,1.57,1.05,3.41,1.05,5.52-.13,5.95-2.35,10.1-6.68,12.47-4.26,2.39-9.09,3.57-14.48,3.52-1.34,0-3.09-.2-5.27-.6-2.19-.38-4.42-1.13-6.68-2.25-2.24-1.14-4.13-2.84-5.67-5.08-1.57-2.16-2.41-5.08-2.54-8.76h13.8Z"/>
    <path class="st3" d="M90.22,213.4h6.69v7.93h-6.69v11.8c-.04,1.55.21,2.67.77,3.37.53.74,1.56,1.11,3.08,1.11.97,0,1.91-.06,2.84-.19v9.71c-2.6.08-5.26.21-7.98.38-1.35,0-2.65-.11-3.9-.32-1.29-.25-2.49-.69-3.59-1.3-1.08-.7-1.94-1.71-2.58-3.04-.72-1.35-1.07-3.14-1.07-5.38v-16.16h-5.57v-7.93h5.57v-10.25h12.44v10.25Z"/>
    <path class="st3" d="M136.34,247.14h-12.26v-4.28h-.13c-2.26,3.39-5.88,5.1-10.85,5.14-3.03,0-5.67-.95-7.9-2.86-2.3-1.93-3.47-4.79-3.51-8.6v-23.14h12.44v17.7c-.04,1.95.21,3.54.76,4.77.53,1.25,1.75,1.88,3.65,1.88,1.22.04,2.42-.39,3.61-1.3.53-.42.98-1.09,1.36-2,.26-.83.4-1.9.4-3.21v-17.83h12.44v33.74Z"/>
    <path class="st3" d="M178.55,247.14h-12.27v-3.71h-.13c-.33.53-.76,1.03-1.29,1.49-.5.53-1.1,1.03-1.79,1.49-.69.49-1.59.86-2.7,1.11-1.07.27-2.4.43-3.99.48-4.67-.15-8.16-2.1-10.48-5.87-2.36-3.6-3.55-7.61-3.55-12.03,0-2.03.24-4.06.73-6.09.42-2.03,1.18-3.91,2.29-5.65,1.08-1.73,2.55-3.14,4.41-4.22,1.86-.99,4.18-1.51,6.95-1.56,4.04.04,7.12,1.55,9.24,4.54h.13v-16.38h12.44v46.4ZM166.54,230.25c0-2.14-.35-4.05-1.06-5.75-.42-.78-1.01-1.41-1.78-1.87-.81-.49-1.82-.73-3.03-.73-2.29.04-3.86.91-4.71,2.61-.42.78-.71,1.68-.89,2.67-.18,1-.26,2.03-.26,3.09,0,1,.09,1.99.26,2.99s.47,1.89.89,2.67c.86,1.78,2.43,2.69,4.71,2.74,1.21,0,2.22-.29,3.03-.86.77-.47,1.36-1.09,1.78-1.88.7-1.65,1.06-3.54,1.06-5.66v-.02Z"/>
    <path class="st3" d="M198.6,209.75h-12.44v-9.01h12.44v9.01ZM186.17,213.4h12.44v33.74h-12.44v-33.74Z"/>
    <path class="st3" d="M240.63,230.27c0,4.8-1.46,8.91-4.39,12.34-2.91,3.51-7.51,5.31-13.81,5.39-6.21-.08-10.8-1.88-13.75-5.4-3.01-3.43-4.49-7.54-4.42-12.35-.06-4.87,1.41-8.99,4.42-12.38,2.95-3.45,7.53-5.22,13.75-5.3,6.3.08,10.9,1.85,13.81,5.31,2.93,3.39,4.39,7.52,4.39,12.39ZM228.19,230.27c0-.91-.04-1.88-.13-2.89-.13-1-.41-1.89-.83-2.67-.4-.85-.96-1.54-1.68-2.07-.81-.49-1.85-.73-3.1-.73s-2.18.24-2.91.73c-.81.53-1.42,1.22-1.82,2.07-.73,1.74-1.07,3.59-1.02,5.57,0,.87.09,1.78.26,2.74.13.95.39,1.87.76,2.74.4.87,1,1.56,1.82,2.07.73.57,1.7.86,2.91.86s2.29-.29,3.1-.86c.73-.51,1.29-1.2,1.68-2.07.68-1.78,1-3.6.96-5.47Z"/>
    <path class="st3" d="M266.86,223.23c-.08-1.14-.56-1.99-1.45-2.55-.88-.67-1.9-1-3.06-1-1.02,0-1.95.15-2.79.45-.93.36-1.39,1.08-1.39,2.17,0,.43.17.77.52,1.02.32.32.66.56,1.01.73.63.21,1.36.38,2.2.51.86.19,1.79.37,2.79.54,2.12.34,4.3.86,6.55,1.56,2.15.62,3.97,1.66,5.46,3.12.76.7,1.35,1.57,1.78,2.61.37,1.04.55,2.28.55,3.73,0,2.32-.49,4.22-1.47,5.7-.98,1.56-2.29,2.8-3.91,3.7-3.47,1.69-7.31,2.51-11.52,2.47-4.11,0-7.84-.91-11.18-2.72-3.32-1.81-5.14-4.86-5.45-9.15h12.26c.08,1.15.6,2.14,1.55,2.96.7.65,1.85.98,3.45.98.91,0,1.86-.2,2.85-.6.95-.38,1.45-1.05,1.49-2,.04-.95-.37-1.67-1.24-2.16-.95-.47-2.9-.94-5.84-1.43-4.85-.83-8.36-2.11-10.54-3.84-2.16-1.67-3.24-3.93-3.24-6.76,0-2.12.51-3.88,1.54-5.3.98-1.44,2.27-2.53,3.86-3.27,1.59-.83,3.3-1.39,5.14-1.68,1.76-.3,3.48-.44,5.17-.44,3.83-.06,7.4.6,10.73,2,1.59.74,2.87,1.83,3.86,3.25.98,1.4,1.53,3.2,1.63,5.41h-11.31Z"/>
  </g>
  <g>
    <path class="uuid-1f904d63-28e7-416e-928f-dc12026a943b" d="M1539.16,154.34h-10.95l-9.48-32.84h9.89l5.19,19.93h.11l5.11-19.93h10.06l-9.93,32.84Z"/>
    <path class="uuid-1f904d63-28e7-416e-928f-dc12026a943b" d="M1556.03,144.46c.15,1.35.61,2.45,1.37,3.3.73.9,1.82,1.35,3.26,1.35.78,0,1.52-.16,2.23-.47.7-.27,1.24-.68,1.6-1.24h8.52c-.96,2.58-2.54,4.48-4.73,5.7-2.18,1.23-4.65,1.84-7.42,1.84-3.85-.03-6.99-1.12-9.4-3.28-2.52-2.14-3.79-5.2-3.82-9.19.03-3.59,1.18-6.59,3.44-8.98,2.25-2.35,5.26-3.56,9.02-3.62,9.03.12,13.5,4.98,13.42,14.58h-17.47ZM1565.07,139.74c-.03-1.14-.41-2.1-1.14-2.87-.74-.77-1.74-1.15-3-1.15-2.8.03-4.42,1.37-4.85,4.02h8.99Z"/>
    <path class="uuid-1f904d63-28e7-416e-928f-dc12026a943b" d="M1578.14,130.47h8.77v3.03h.09c1.61-2.41,4.2-3.62,7.76-3.62,2.16,0,4.01.66,5.57,1.98,1.54,1.32,2.32,3.35,2.35,6.11v16.37h-8.8v-12.53c.03-1.41-.13-2.55-.49-3.42-.38-.85-1.25-1.28-2.63-1.28-.86-.03-1.68.25-2.46.83-.38.3-.7.76-.96,1.37-.25.65-.38,1.45-.38,2.41v12.62h-8.8v-23.88Z"/>
    <path class="uuid-1f904d63-28e7-416e-928f-dc12026a943b" d="M1616.92,127.88h-8.8v-6.38h8.8v6.38ZM1608.12,130.47h8.8v23.88h-8.8v-23.88Z"/>
    <path class="uuid-1f904d63-28e7-416e-928f-dc12026a943b" d="M1637.35,139.54c-.1-.99-.43-1.74-.98-2.27-.54-.52-1.29-.79-2.24-.79-.83,0-1.48.17-1.96.52-.54.33-.94.77-1.2,1.33-.28.56-.46,1.19-.55,1.89-.12.74-.17,1.48-.17,2.23,0,.71.06,1.41.17,2.12.09.71.27,1.33.54,1.89.26.55.66,1,1.2,1.33.48.38,1.13.56,1.96.56.99,0,1.79-.35,2.42-1.06.59-.68.94-1.49,1.02-2.45h8.43c-.45,3.25-1.77,5.73-3.96,7.45-2.21,1.75-4.9,2.64-8.07,2.67-3.57-.03-6.51-1.18-8.81-3.46-2.44-2.2-3.67-5.22-3.7-9.05.03-3.83,1.26-6.89,3.7-9.16,2.31-2.23,5.24-3.36,8.81-3.39,3.12,0,5.78.76,7.99,2.29,2.16,1.59,3.42,4.04,3.79,7.37h-8.38Z"/>
    <path class="uuid-1f904d63-28e7-416e-928f-dc12026a943b" d="M1657.4,144.46c.15,1.35.61,2.45,1.37,3.3.73.9,1.82,1.35,3.26,1.35.78,0,1.52-.16,2.23-.47.7-.27,1.24-.68,1.6-1.24h8.52c-.96,2.58-2.54,4.48-4.73,5.7-2.18,1.23-4.65,1.84-7.42,1.84-3.85-.03-6.99-1.12-9.4-3.28-2.52-2.14-3.79-5.2-3.82-9.19.03-3.59,1.18-6.59,3.44-8.98,2.25-2.35,5.26-3.56,9.02-3.62,9.03.12,13.5,4.98,13.42,14.58h-17.47ZM1666.43,139.74c-.03-1.14-.41-2.1-1.14-2.87-.74-.77-1.74-1.15-3-1.15-2.8.03-4.42,1.37-4.85,4.02h8.99Z"/>
    <path class="uuid-1f904d63-28e7-416e-928f-dc12026a943b" d="M1521.4,165.51h17.77c2.13,0,3.89.26,5.29.79,1.33.51,2.38,1.18,3.13,2.02.76.82,1.29,1.71,1.6,2.67.24.94.36,1.86.36,2.74,0,1.63-.35,2.93-1.06,3.91-.73,1.02-1.73,1.86-2.99,2.54,1.54.49,2.86,1.37,3.95,2.63,1.14,1.29,1.72,3.14,1.75,5.57-.06,3.28-1.23,5.74-3.51,7.39-2.24,1.72-4.86,2.58-7.87,2.58h-18.43v-32.84ZM1531.19,178.31h5.54c1.1,0,1.97-.2,2.61-.59.64-.41.95-1.12.95-2.14,0-.83-.32-1.43-.95-1.81-.64-.3-1.5-.45-2.61-.45h-5.54v4.99ZM1531.19,190.53h6.12c1.14,0,2.11-.22,2.9-.65.76-.42,1.16-1.24,1.21-2.47,0-1.96-1.22-2.96-3.66-2.99h-6.56v6.11Z"/>
    <path class="uuid-1f904d63-28e7-416e-928f-dc12026a943b" d="M1562.84,188.46c.15,1.35.61,2.45,1.37,3.3.73.9,1.82,1.35,3.26,1.35.78,0,1.52-.16,2.23-.47.7-.27,1.24-.68,1.6-1.24h8.52c-.96,2.58-2.54,4.48-4.73,5.7-2.18,1.23-4.65,1.84-7.42,1.84-3.85-.03-6.99-1.12-9.4-3.28-2.52-2.14-3.79-5.2-3.82-9.19.03-3.59,1.18-6.59,3.44-8.98,2.25-2.35,5.26-3.56,9.02-3.62,9.03.12,13.5,4.98,13.42,14.58h-17.47ZM1571.87,183.74c-.03-1.14-.41-2.1-1.14-2.87-.74-.77-1.74-1.15-3-1.15-2.8.03-4.42,1.37-4.85,4.02h8.99Z"/>
    <path class="uuid-1f904d63-28e7-416e-928f-dc12026a943b" d="M1607.99,193.02c0,.89.06,1.81.18,2.75.12.92.42,1.78.9,2.57h-9.28c-.24-.76-.34-1.51-.31-2.25h-.09c-.99,1.06-2.12,1.8-3.41,2.2-1.35.43-2.77.65-4.26.65-2.29,0-4.18-.58-5.68-1.75-1.61-1.2-2.42-3.02-2.45-5.47,0-1.87.49-3.32,1.48-4.35.94-1.05,2.12-1.8,3.53-2.27,1.48-.49,2.97-.83,4.47-1.01s2.83-.34,4-.49c.34-.1.67-.2.97-.29.28-.09.55-.2.79-.31.49-.3.74-.81.74-1.53-.03-.82-.34-1.4-.92-1.73-.59-.31-1.28-.47-2.07-.47-1.37.03-2.27.29-2.73.78-.46.55-.7,1.1-.7,1.65h-8.49c.12-1.69.55-3.06,1.29-4.11.73-1.03,1.67-1.81,2.82-2.33,1.17-.55,2.47-.94,3.91-1.15,1.39-.15,2.77-.22,4.13-.22,2.79,0,4.97.25,6.55.76,1.57.52,2.67,1.24,3.31,2.13.67.88,1.08,1.88,1.24,2.99.06,1.12.09,2.27.09,3.44v9.82ZM1599.54,187.64c-1.19.53-2.45.91-3.77,1.15-2.15.27-3.22,1.13-3.22,2.59,0,.59.29,1.09.87,1.51.53.46,1.24.7,2.12.7,1.11,0,2.05-.32,2.8-.97.74-.62,1.14-1.54,1.2-2.77v-2.21Z"/>
    <path class="uuid-1f904d63-28e7-416e-928f-dc12026a943b" d="M1627.96,183.54c-.1-.99-.43-1.74-.98-2.27-.54-.52-1.29-.79-2.24-.79-.83,0-1.48.17-1.96.52-.54.33-.94.77-1.2,1.33-.28.56-.46,1.19-.55,1.89-.12.74-.17,1.48-.17,2.23,0,.71.06,1.41.17,2.12.09.71.27,1.33.54,1.89.26.55.66,1,1.2,1.33.48.38,1.13.56,1.96.56.99,0,1.79-.35,2.42-1.06.59-.68.94-1.49,1.02-2.45h8.43c-.45,3.25-1.77,5.73-3.96,7.45-2.21,1.75-4.9,2.64-8.07,2.67-3.57-.03-6.51-1.18-8.81-3.46-2.44-2.2-3.67-5.22-3.7-9.05.03-3.83,1.26-6.89,3.7-9.16,2.31-2.23,5.24-3.36,8.81-3.39,3.12,0,5.78.76,7.99,2.29,2.16,1.59,3.42,4.04,3.79,7.37h-8.38Z"/>
    <path class="uuid-1f904d63-28e7-416e-928f-dc12026a943b" d="M1641.14,165.51h8.81v11.54h.09c.79-.96,1.79-1.73,3-2.31,1.18-.57,2.75-.85,4.72-.85,2.16,0,4.01.66,5.57,1.98,1.54,1.32,2.32,3.35,2.35,6.11v16.37h-8.8v-12.5c.03-1.41-.13-2.54-.49-3.41-.38-.85-1.25-1.28-2.63-1.28-.86-.03-1.68.25-2.46.83-.38.3-.7.75-.96,1.37-.25.64-.38,1.44-.38,2.4v12.59h-8.8v-32.84Z"/>
    <path class="uuid-1f904d63-28e7-416e-928f-dc12026a943b" d="M1542.06,221.74c-.03-.35-.12-.8-.26-1.35-.17-.53-.44-1.04-.81-1.55-.35-.58-.86-1.07-1.52-1.44-.65-.33-1.5-.5-2.53-.5-2.23.06-3.8,1.01-4.72,2.86-.93,1.8-1.38,3.86-1.35,6.17-.03,2.31.42,4.37,1.35,6.17.91,1.88,2.49,2.83,4.72,2.86,1.62,0,2.84-.53,3.66-1.6.77-1.02,1.27-2.31,1.5-3.87h9.64c-.03,3.46-1.28,6.55-3.74,9.27-2.47,2.83-6.06,4.29-10.79,4.38-5.13-.06-9.1-1.73-11.9-5.01-2.81-3.19-4.22-7.25-4.22-12.2.03-5.27,1.49-9.44,4.4-12.51,2.86-3.1,6.77-4.66,11.73-4.69,8.73.24,13.53,4.58,14.4,13.02h-9.55Z"/>
    <path class="uuid-1f904d63-28e7-416e-928f-dc12026a943b" d="M1579.84,237.02c0,.89.06,1.81.18,2.75.12.92.42,1.78.9,2.57h-9.28c-.24-.76-.34-1.51-.31-2.25h-.09c-.99,1.06-2.12,1.8-3.41,2.2-1.35.43-2.77.65-4.26.65-2.29,0-4.18-.58-5.68-1.75-1.61-1.2-2.42-3.02-2.45-5.47,0-1.87.49-3.32,1.48-4.35.94-1.05,2.12-1.8,3.53-2.27,1.48-.49,2.97-.83,4.47-1.01s2.83-.34,4-.49c.34-.1.67-.2.97-.29.28-.09.55-.2.79-.31.49-.3.74-.81.74-1.53-.03-.82-.34-1.4-.92-1.73-.59-.31-1.28-.47-2.07-.47-1.37.03-2.27.29-2.73.78-.46.55-.7,1.1-.7,1.65h-8.49c.12-1.69.55-3.06,1.29-4.11.73-1.03,1.67-1.81,2.82-2.33,1.17-.55,2.47-.94,3.91-1.15,1.39-.15,2.77-.22,4.13-.22,2.79,0,4.97.25,6.55.76,1.57.52,2.67,1.24,3.31,2.13.67.88,1.08,1.88,1.24,2.99.06,1.12.09,2.27.09,3.44v9.82ZM1571.4,231.64c-1.19.53-2.45.91-3.77,1.15-2.15.27-3.22,1.13-3.22,2.59,0,.59.29,1.09.87,1.51.53.46,1.24.7,2.12.7,1.11,0,2.05-.32,2.8-.97.74-.62,1.14-1.54,1.2-2.77v-2.21Z"/>
    <path class="uuid-1f904d63-28e7-416e-928f-dc12026a943b" d="M1585.08,209.51h8.8v32.84h-8.8v-32.84Z"/>
    <path class="uuid-1f904d63-28e7-416e-928f-dc12026a943b" d="M1608.37,215.88h-8.8v-6.38h8.8v6.38ZM1599.57,218.47h8.8v23.88h-8.8v-23.88Z"/>
    <path class="uuid-1f904d63-28e7-416e-928f-dc12026a943b" d="M1615.36,224.08h-3.62v-5.61h3.62c-.06-1.23.03-2.44.26-3.64.25-1.15.77-2.18,1.56-3.08.96-.97,2.04-1.6,3.26-1.89,1.21-.24,2.69-.36,4.43-.36,1.35.03,2.67.09,3.97.18v6.26c-.36-.07-.72-.16-1.08-.25-.38-.06-.75-.09-1.12-.09-1.09,0-1.84.19-2.25.56-.43.42-.62,1.18-.56,2.29h4.78v5.61h-4.45v18.26h-8.8v-18.26Z"/>
    <path class="uuid-1f904d63-28e7-416e-928f-dc12026a943b" d="M1656.01,230.41c0,3.4-1.04,6.31-3.11,8.73-2.06,2.48-5.32,3.75-9.77,3.81-4.4-.06-7.64-1.33-9.73-3.82-2.13-2.43-3.18-5.34-3.13-8.74-.04-3.44,1-6.36,3.13-8.76,2.09-2.44,5.33-3.69,9.73-3.75,4.46.06,7.71,1.31,9.77,3.75,2.07,2.4,3.11,5.32,3.11,8.77ZM1647.2,230.41c0-.65-.03-1.33-.09-2.05-.09-.71-.29-1.34-.58-1.89-.28-.6-.68-1.09-1.19-1.46-.58-.34-1.31-.52-2.2-.52s-1.54.17-2.06.52c-.58.38-1,.86-1.29,1.46-.51,1.23-.75,2.54-.72,3.94,0,.62.06,1.26.19,1.94.09.68.27,1.32.54,1.94.28.62.71,1.1,1.29,1.46.51.41,1.2.61,2.06.61s1.62-.2,2.2-.61c.51-.36.91-.85,1.19-1.46.48-1.26.71-2.55.68-3.87Z"/>
    <path class="uuid-1f904d63-28e7-416e-928f-dc12026a943b" d="M1660.75,218.47h8.46v3.82h.09c.71-1.44,1.59-2.54,2.63-3.3,1-.73,2.29-1.1,3.87-1.1.88,0,1.75.12,2.59.36v8.04c-.42-.18-.89-.33-1.39-.45-.51-.09-1.2-.13-2.09-.13-3.54-.06-5.33,2.34-5.35,7.21v9.43h-8.8v-23.88Z"/>
    <path class="uuid-1f904d63-28e7-416e-928f-dc12026a943b" d="M1682,218.47h8.77v3.03h.09c1.61-2.41,4.2-3.62,7.76-3.62,2.16,0,4.01.66,5.57,1.98,1.54,1.32,2.32,3.35,2.35,6.11v16.37h-8.8v-12.53c.03-1.41-.13-2.55-.49-3.42-.38-.85-1.25-1.28-2.63-1.28-.86-.03-1.68.25-2.46.83-.38.3-.7.76-.96,1.37-.25.65-.38,1.45-.38,2.41v12.62h-8.8v-23.88Z"/>
    <path class="uuid-1f904d63-28e7-416e-928f-dc12026a943b" d="M1720.78,215.88h-8.8v-6.38h8.8v6.38ZM1711.98,218.47h8.8v23.88h-8.8v-23.88Z"/>
    <path class="uuid-1f904d63-28e7-416e-928f-dc12026a943b" d="M1749.33,237.02c0,.89.06,1.81.18,2.75.12.92.42,1.78.9,2.57h-9.28c-.24-.76-.34-1.51-.31-2.25h-.09c-.99,1.06-2.12,1.8-3.41,2.2-1.35.43-2.77.65-4.26.65-2.29,0-4.18-.58-5.68-1.75-1.61-1.2-2.42-3.02-2.45-5.47,0-1.87.49-3.32,1.48-4.35.94-1.05,2.12-1.8,3.53-2.27,1.48-.49,2.97-.83,4.47-1.01s2.83-.34,4-.49c.34-.1.67-.2.97-.29.28-.09.55-.2.79-.31.49-.3.74-.81.74-1.53-.03-.82-.34-1.4-.92-1.73-.59-.31-1.28-.47-2.07-.47-1.37.03-2.27.29-2.73.78-.46.55-.7,1.1-.7,1.65h-8.49c.12-1.69.55-3.06,1.29-4.11.73-1.03,1.67-1.81,2.82-2.33,1.17-.55,2.47-.94,3.91-1.15,1.39-.15,2.77-.22,4.13-.22,2.79,0,4.97.25,6.55.76,1.57.52,2.67,1.24,3.31,2.13.67.88,1.08,1.88,1.24,2.99.06,1.12.09,2.27.09,3.44v9.82ZM1740.89,231.64c-1.19.53-2.45.91-3.77,1.15-2.15.27-3.22,1.13-3.22,2.59,0,.59.29,1.09.87,1.51.53.46,1.24.7,2.12.7,1.11,0,2.05-.32,2.8-.97.74-.62,1.14-1.54,1.2-2.77v-2.21Z"/>
  </g>
  <g>
    <path class="uuid-1f904d63-28e7-416e-928f-dc12026a943b" d="M1542.98,97.41h5.66v4.48h-5.66v10.5h-4.96v-10.5h-21.06v-4.78l20.65-26.73h5.37v27.02ZM1538.03,97.41v-20.53l-15.87,20.53h15.87Z"/>
    <path class="uuid-1f904d63-28e7-416e-928f-dc12026a943b" d="M1557.56,107.91h22.18v4.48h-27.73l.12-2.3c.24-3.46,1.02-6.43,2.36-8.91,1.34-2.48,3.6-4.64,6.79-6.49l5.31-3.07c2.67-1.57,4.57-3.11,5.69-4.6,1.12-1.49,1.68-3.3,1.68-5.43,0-2.32-.74-4.18-2.21-5.58-1.48-1.4-3.51-2.09-6.11-2.09-5.86,0-8.79,3.01-8.79,9.03h-4.9c-.04-4.29,1.16-7.61,3.6-9.97,2.44-2.36,5.84-3.54,10.21-3.54,3.97,0,7.2,1.12,9.68,3.36,2.48,2.32,3.72,5.25,3.72,8.79,0,5.43-3.19,9.99-9.56,13.69l-4.48,2.6c-2.6,1.57-4.46,3.1-5.61,4.57-1.14,1.47-1.79,3.29-1.95,5.46Z"/>
    <path class="uuid-1f904d63-28e7-416e-928f-dc12026a943b" d="M1597.32,85.02c4.48,0,7.98,1.32,10.5,3.95,2.52,2.63,3.78,6.04,3.78,10.21s-1.32,7.51-3.95,10.15c-2.67,2.68-6.21,4.01-10.62,4.01-4.01,0-7.34-1.16-9.97-3.48-2.64-2.28-4.07-5.33-4.31-9.15h4.96c.24,2.52,1.22,4.5,2.95,5.96,1.73,1.46,3.85,2.18,6.37,2.18,2.75,0,5-.89,6.76-2.68,1.75-1.79,2.63-4.12,2.63-6.99s-.88-5.2-2.63-6.99c-1.75-1.79-4-2.68-6.76-2.68-4.13,0-7,1.69-8.61,5.07h-4.6l3.54-24.19h21.71v4.48h-17.7l-2.01,13.22c2.28-2.04,4.94-3.07,7.97-3.07Z"/>
    <path class="uuid-1f904d63-28e7-416e-928f-dc12026a943b" d="M1640.86,97.41h5.66v4.48h-5.66v10.5h-4.96v-10.5h-21.06v-4.78l20.65-26.73h5.37v27.02ZM1635.91,97.41v-20.53l-15.87,20.53h15.87Z"/>
  </g>
  <g>
    <path class="uuid-1f904d63-28e7-416e-928f-dc12026a943b" d="M1145.4,92.48c5.08,2.65,7.62,6.46,7.62,11.46,0,4.14-1.45,7.47-4.35,9.98-2.86,2.56-6.63,3.84-11.33,3.84-5.08,0-9.01-1.32-11.81-3.97-2.79-2.64-4.17-6.25-4.13-10.82h5.31c.08,3.24,1.04,5.71,2.88,7.39,1.83,1.69,4.42,2.53,7.74,2.53,3.07,0,5.51-.81,7.33-2.43,1.81-1.62,2.72-3.8,2.72-6.53s-.93-4.98-2.78-6.62c-1.86-1.64-4.38-2.46-7.58-2.46h-3.39v-4.48h3.07c3.03,0,5.37-.68,7.01-2.05,1.64-1.37,2.46-3.26,2.46-5.7s-.82-4.26-2.46-5.6c-1.64-1.34-3.87-2.02-6.69-2.02s-5.13.74-6.82,2.21c-1.69,1.47-2.59,3.64-2.72,6.5h-5.38c.04-4.14,1.4-7.43,4.06-9.89,2.67-2.45,6.28-3.68,10.85-3.68s7.92,1.1,10.59,3.3c2.67,2.2,4,5.22,4,9.06,0,4.35-2.07,7.68-6.21,9.98Z"/>
    <path class="uuid-1f904d63-28e7-416e-928f-dc12026a943b" d="M1159.41,71.17h15.36c6.91,0,12.37,2.01,16.38,6.02,3.97,4.01,5.95,9.6,5.95,16.77s-1.98,12.65-5.95,16.7c-4.05,4.05-9.52,6.08-16.38,6.08h-15.36v-45.57ZM1164.79,111.87h9.98c5.38,0,9.5-1.58,12.38-4.74,2.88-3.16,4.32-7.55,4.32-13.18s-1.44-10.03-4.32-13.18-7.01-4.74-12.38-4.74h-9.98v35.84Z"/>
    <path class="uuid-1f904d63-28e7-416e-928f-dc12026a943b" d="M1249.14,103.55l.45,7.36c.21,2.56.77,4.5,1.66,5.82h-5.57c-.94-1.37-1.43-3.39-1.47-6.08l-.19-4.86c-.13-3.07-.81-5.26-2.05-6.56-1.24-1.3-3.26-1.95-6.08-1.95h-14.85v19.46h-5.38v-45.57h19.26c4.69,0,8.44,1.09,11.23,3.26,2.79,2.18,4.19,5.23,4.19,9.15,0,2.77-.67,5.11-2.02,7.01-1.34,1.9-3.17,3.23-5.47,4,3.84,1.2,5.93,4.18,6.27,8.96ZM1221.04,92.41h14.53c2.86,0,5.11-.74,6.75-2.21,1.64-1.47,2.46-3.57,2.46-6.3s-.86-4.57-2.59-5.89c-1.73-1.32-4.15-1.98-7.26-1.98h-13.89v16.38Z"/>
    <path class="uuid-1f904d63-28e7-416e-928f-dc12026a943b" d="M1285.17,100.22v1.79h-25.09c.26,3.58,1.26,6.28,3.01,8.1,1.75,1.81,4.14,2.72,7.17,2.72,4.57,0,7.49-2.05,8.77-6.14h5.31c-.9,3.33-2.56,5.96-4.99,7.9-2.43,1.94-5.5,2.91-9.22,2.91-4.57,0-8.26-1.56-11.07-4.67-2.86-3.11-4.29-7.32-4.29-12.61s1.41-9.39,4.22-12.54c2.77-3.16,6.44-4.74,11.01-4.74s8.45,1.64,11.14,4.93c2.69,3.29,4.03,7.4,4.03,12.35ZM1270,87.61c-2.69,0-4.89.84-6.59,2.53-1.71,1.69-2.77,4.11-3.2,7.26h19.46c-.26-2.9-1.24-5.26-2.94-7.07-1.71-1.81-3.95-2.72-6.72-2.72Z"/>
    <path class="uuid-1f904d63-28e7-416e-928f-dc12026a943b" d="M1306.48,82.94c3.67,0,6.53,1,8.58,3.01,2.05,2.01,3.07,4.82,3.07,8.45v22.34h-5.12v-21.82c0-4.91-2.52-7.36-7.55-7.36-2.39,0-4.5.9-6.34,2.69-1.83,1.79-2.75,4.39-2.75,7.81v18.69h-5.12v-33.02h4.86v4.93c2.52-3.8,5.97-5.7,10.37-5.7Z"/>
    <path class="uuid-1f904d63-28e7-416e-928f-dc12026a943b" d="M1350.64,88.45v-17.28h5.12v45.57h-4.86v-5.12c-2.65,3.93-6.42,5.89-11.33,5.89-4.65,0-8.36-1.58-11.14-4.74-2.82-3.16-4.22-7.34-4.22-12.54s1.41-9.49,4.22-12.61c2.73-3.11,6.44-4.67,11.14-4.67s8.43,1.83,11.07,5.5ZM1332.47,109.63c1.92,2.18,4.5,3.26,7.74,3.26s5.82-1.13,7.74-3.39c1.92-2.22,2.88-5.31,2.88-9.28s-.96-7.02-2.88-9.28-4.5-3.39-7.74-3.39-5.77,1.16-7.71,3.49c-1.94,2.33-2.91,5.47-2.91,9.44s.96,6.98,2.88,9.15Z"/>
    <path class="uuid-1f904d63-28e7-416e-928f-dc12026a943b" d="M1392.24,100.22v1.79h-25.09c.26,3.58,1.26,6.28,3.01,8.1,1.75,1.81,4.14,2.72,7.17,2.72,4.57,0,7.49-2.05,8.77-6.14h5.31c-.9,3.33-2.56,5.96-4.99,7.9-2.43,1.94-5.5,2.91-9.22,2.91-4.57,0-8.26-1.56-11.07-4.67-2.86-3.11-4.29-7.32-4.29-12.61s1.41-9.39,4.22-12.54c2.77-3.16,6.44-4.74,11.01-4.74s8.45,1.64,11.14,4.93c2.69,3.29,4.03,7.4,4.03,12.35ZM1377.07,87.61c-2.69,0-4.89.84-6.59,2.53-1.71,1.69-2.77,4.11-3.2,7.26h19.46c-.26-2.9-1.24-5.26-2.94-7.07-1.71-1.81-3.95-2.72-6.72-2.72Z"/>
    <path class="uuid-1f904d63-28e7-416e-928f-dc12026a943b" d="M1413.81,83.2c.85,0,1.43.02,1.73.06v4.93h-1.28c-3.41,0-6.07.84-7.97,2.53-1.9,1.69-2.85,4.09-2.85,7.2v18.82h-5.12v-33.02h4.86v5.82c2.22-4.22,5.76-6.34,10.62-6.34Z"/>
    <path class="uuid-1f904d63-28e7-416e-928f-dc12026a943b" d="M1425.59,78.72h-5.44v-6.27h5.44v6.27ZM1425.46,116.73h-5.12v-33.02h5.12v33.02Z"/>
    <path class="uuid-1f904d63-28e7-416e-928f-dc12026a943b" d="M1448.37,82.94c3.67,0,6.53,1,8.58,3.01,2.05,2.01,3.07,4.82,3.07,8.45v22.34h-5.12v-21.82c0-4.91-2.52-7.36-7.55-7.36-2.39,0-4.5.9-6.34,2.69-1.83,1.79-2.75,4.39-2.75,7.81v18.69h-5.12v-33.02h4.86v4.93c2.52-3.8,5.97-5.7,10.37-5.7Z"/>
    <path class="uuid-1f904d63-28e7-416e-928f-dc12026a943b" d="M1492.79,88.51v-4.8h4.86v31.74c0,4.52-1.32,8.08-3.97,10.69-2.65,2.6-6.44,3.9-11.39,3.9-4.1,0-7.38-.94-9.86-2.82-2.48-1.88-3.88-4.48-4.22-7.81h5.12c.64,4.18,3.63,6.27,8.96,6.27,6.83,0,10.24-3.41,10.24-10.24v-3.2c-2.6,3.5-6.29,5.25-11.07,5.25s-8.36-1.58-11.14-4.74c-2.82-3.16-4.22-7.34-4.22-12.54s1.41-9.49,4.22-12.61c2.73-3.11,6.44-4.67,11.14-4.67s8.68,1.86,11.33,5.57ZM1482.1,112.89c3.24,0,5.82-1.13,7.74-3.39,1.92-2.26,2.88-5.35,2.88-9.28s-.96-7.02-2.88-9.28-4.5-3.39-7.74-3.39-5.77,1.15-7.71,3.46c-1.94,2.3-2.91,5.38-2.91,9.22s.97,6.91,2.91,9.22c1.94,2.3,4.51,3.46,7.71,3.46Z"/>
    <path class="uuid-1f904d63-28e7-416e-928f-dc12026a943b" d="M1042.04,177.73h-5.38v-45.57h5.38v45.57Z"/>
    <path class="uuid-1f904d63-28e7-416e-928f-dc12026a943b" d="M1084.79,143.94c3.58,0,6.37,1.04,8.35,3.1,1.98,2.07,2.98,4.83,2.98,8.29v22.4h-5.12v-21.89c0-4.86-2.3-7.3-6.91-7.3-2.43,0-4.45.97-6.05,2.91-1.6,1.94-2.4,4.68-2.4,8.22v18.05h-5.12v-21.89c0-4.86-2.3-7.3-6.91-7.3-2.39,0-4.4.97-6.02,2.91-1.62,1.94-2.43,4.68-2.43,8.22v18.05h-5.12v-33.02h4.86v4.86c2.18-3.75,5.35-5.63,9.54-5.63,4.95,0,8.34,2.07,10.18,6.21,2.3-4.14,5.7-6.21,10.18-6.21Z"/>
    <path class="uuid-1f904d63-28e7-416e-928f-dc12026a943b" d="M1138.55,143.94c3.58,0,6.37,1.04,8.35,3.1,1.98,2.07,2.98,4.83,2.98,8.29v22.4h-5.12v-21.89c0-4.86-2.3-7.3-6.91-7.3-2.43,0-4.45.97-6.05,2.91-1.6,1.94-2.4,4.68-2.4,8.22v18.05h-5.12v-21.89c0-4.86-2.3-7.3-6.91-7.3-2.39,0-4.4.97-6.02,2.91-1.62,1.94-2.43,4.68-2.43,8.22v18.05h-5.12v-33.02h4.86v4.86c2.18-3.75,5.35-5.63,9.54-5.63,4.95,0,8.34,2.07,10.18,6.21,2.3-4.14,5.7-6.21,10.18-6.21Z"/>
    <path class="uuid-1f904d63-28e7-416e-928f-dc12026a943b" d="M1186.36,161.22v1.79h-25.09c.26,3.58,1.26,6.28,3.01,8.1,1.75,1.81,4.14,2.72,7.17,2.72,4.57,0,7.49-2.05,8.77-6.14h5.31c-.9,3.33-2.56,5.96-4.99,7.9-2.43,1.94-5.5,2.91-9.22,2.91-4.57,0-8.26-1.56-11.07-4.67-2.86-3.11-4.29-7.32-4.29-12.61s1.41-9.39,4.22-12.54c2.77-3.16,6.44-4.74,11.01-4.74s8.45,1.64,11.14,4.93c2.69,3.29,4.03,7.4,4.03,12.35ZM1171.19,148.61c-2.69,0-4.89.84-6.59,2.53-1.71,1.69-2.77,4.11-3.2,7.26h19.46c-.26-2.9-1.24-5.26-2.94-7.07-1.71-1.81-3.95-2.72-6.72-2.72Z"/>
    <path class="uuid-1f904d63-28e7-416e-928f-dc12026a943b" d="M1207.92,144.2c.85,0,1.43.02,1.73.06v4.93h-1.28c-3.41,0-6.07.84-7.97,2.53-1.9,1.69-2.85,4.09-2.85,7.2v18.82h-5.12v-33.02h4.86v5.82c2.22-4.22,5.76-6.34,10.62-6.34Z"/>
    <path class="uuid-1f904d63-28e7-416e-928f-dc12026a943b" d="M1224.82,178.5c-8.83,0-13.5-3.75-14.02-11.26h5.18c.3,2.47,1.12,4.23,2.46,5.28s3.47,1.57,6.37,1.57c5.29,0,7.94-1.71,7.94-5.12,0-1.49-.54-2.62-1.63-3.39-1.09-.77-3.06-1.43-5.92-1.98l-3.07-.58c-6.87-1.28-10.3-4.52-10.3-9.73,0-2.86,1.08-5.13,3.23-6.82,2.15-1.68,5.09-2.53,8.8-2.53,8.75,0,13.23,3.65,13.44,10.94h-5.12c-.13-2.39-.85-4.07-2.18-5.06-1.32-.98-3.37-1.47-6.14-1.47-2.22,0-3.93.43-5.12,1.28-1.2.85-1.79,2.05-1.79,3.58,0,1.45.51,2.54,1.54,3.26,1.02.73,2.73,1.34,5.12,1.86l2.94.58c4.05.81,6.96,1.96,8.74,3.46,1.77,1.49,2.66,3.58,2.66,6.27,0,3.11-1.16,5.54-3.49,7.26-2.33,1.73-5.54,2.59-9.63,2.59Z"/>
    <path class="uuid-1f904d63-28e7-416e-928f-dc12026a943b" d="M1248.31,139.72h-5.44v-6.27h5.44v6.27ZM1248.18,177.73h-5.12v-33.02h5.12v33.02Z"/>
    <path class="uuid-1f904d63-28e7-416e-928f-dc12026a943b" d="M1272.37,159.37l5.44-14.66h5.5l-12.99,33.02h-5.38l-12.93-33.02h5.57l5.44,14.72c2.69,7.21,4.25,11.48,4.67,12.8.77-2.26,2.33-6.55,4.67-12.86Z"/>
    <path class="uuid-1f904d63-28e7-416e-928f-dc12026a943b" d="M1314.36,161.22v1.79h-25.09c.26,3.58,1.26,6.28,3.01,8.1,1.75,1.81,4.14,2.72,7.17,2.72,4.57,0,7.49-2.05,8.77-6.14h5.31c-.9,3.33-2.56,5.96-4.99,7.9-2.43,1.94-5.5,2.91-9.22,2.91-4.57,0-8.26-1.56-11.07-4.67-2.86-3.11-4.29-7.32-4.29-12.61s1.41-9.39,4.22-12.54c2.77-3.16,6.44-4.74,11.01-4.74s8.45,1.64,11.14,4.93c2.69,3.29,4.03,7.4,4.03,12.35ZM1299.19,148.61c-2.69,0-4.89.84-6.59,2.53-1.71,1.69-2.77,4.11-3.2,7.26h19.46c-.26-2.9-1.24-5.26-2.94-7.07-1.71-1.81-3.95-2.72-6.72-2.72Z"/>
    <path class="uuid-1f904d63-28e7-416e-928f-dc12026a943b" d="M1332.91,132.17h15.36c6.91,0,12.37,2.01,16.38,6.02,3.97,4.01,5.95,9.6,5.95,16.77s-1.98,12.65-5.95,16.7c-4.05,4.05-9.52,6.08-16.38,6.08h-15.36v-45.57ZM1338.29,172.87h9.98c5.38,0,9.5-1.58,12.38-4.74,2.88-3.16,4.32-7.55,4.32-13.18s-1.44-10.03-4.32-13.18-7.01-4.74-12.38-4.74h-9.98v35.84Z"/>
    <path class="uuid-1f904d63-28e7-416e-928f-dc12026a943b" d="M1381.94,139.72h-5.44v-6.27h5.44v6.27ZM1381.81,177.73h-5.12v-33.02h5.12v33.02Z"/>
    <path class="uuid-1f904d63-28e7-416e-928f-dc12026a943b" d="M1414.58,149.51v-4.8h4.86v31.74c0,4.52-1.32,8.08-3.97,10.69-2.65,2.6-6.44,3.9-11.39,3.9-4.1,0-7.38-.94-9.86-2.82-2.48-1.88-3.88-4.48-4.22-7.81h5.12c.64,4.18,3.63,6.27,8.96,6.27,6.83,0,10.24-3.41,10.24-10.24v-3.2c-2.6,3.5-6.29,5.25-11.07,5.25s-8.36-1.58-11.14-4.74c-2.82-3.16-4.22-7.34-4.22-12.54s1.41-9.49,4.22-12.61c2.73-3.11,6.44-4.67,11.14-4.67s8.68,1.86,11.33,5.57ZM1403.89,173.89c3.24,0,5.82-1.13,7.74-3.39,1.92-2.26,2.88-5.35,2.88-9.28s-.96-7.02-2.88-9.28-4.5-3.39-7.74-3.39-5.77,1.15-7.71,3.46c-1.94,2.3-2.91,5.38-2.91,9.22s.97,6.91,2.91,9.22c1.94,2.3,4.51,3.46,7.71,3.46Z"/>
    <path class="uuid-1f904d63-28e7-416e-928f-dc12026a943b" d="M1432.37,139.72h-5.44v-6.27h5.44v6.27ZM1432.24,177.73h-5.12v-33.02h5.12v33.02Z"/>
    <path class="uuid-1f904d63-28e7-416e-928f-dc12026a943b" d="M1454.39,144.71v4.48h-6.78v21.44c0,1.88,1.26,2.82,3.78,2.82h3.01v4.29c-1.41.13-2.62.19-3.65.19-5.5,0-8.26-2.28-8.26-6.85v-21.89h-5.44v-4.48h5.44v-9.34h5.12v9.34h6.78Z"/>
    <path class="uuid-1f904d63-28e7-416e-928f-dc12026a943b" d="M1486.51,173.57h1.86v4.16c-.85.13-1.79.19-2.82.19-3.46,0-5.31-1.58-5.57-4.74-2.3,3.54-5.89,5.31-10.75,5.31-3.63,0-6.48-.84-8.54-2.53-2.07-1.69-3.1-4.06-3.1-7.14,0-5.97,4.07-9.39,12.22-10.24l4.74-.51c3.46-.38,5.18-1.9,5.18-4.54,0-1.83-.57-3.16-1.7-3.97-1.13-.81-3.04-1.22-5.73-1.22-2.86,0-4.92.48-6.18,1.44-1.26.96-1.97,2.66-2.14,5.09h-5.12c.43-7.3,4.91-10.94,13.44-10.94s12.42,3.2,12.42,9.6v18.43c0,1.07.6,1.6,1.79,1.6ZM1469.49,174.15c2.73,0,5.12-.83,7.17-2.5,2.05-1.62,3.07-3.95,3.07-6.98v-3.9c-.94.73-2.39,1.19-4.35,1.41l-4.8.58c-2.77.34-4.75.98-5.92,1.92-1.17.94-1.76,2.28-1.76,4.03s.55,3.04,1.66,4c1.11.96,2.75,1.44,4.93,1.44Z"/>
    <path class="uuid-1f904d63-28e7-416e-928f-dc12026a943b" d="M1497.65,177.73h-5.12v-45.57h5.12v45.57Z"/>
    <path class="uuid-1f904d63-28e7-416e-928f-dc12026a943b" d="M978.81,193.17h15.36c6.91,0,12.37,2.01,16.38,6.02,3.97,4.01,5.95,9.6,5.95,16.77s-1.98,12.65-5.95,16.7c-4.05,4.05-9.52,6.08-16.38,6.08h-15.36v-45.57ZM984.18,233.87h9.98c5.38,0,9.5-1.58,12.38-4.74s4.32-7.55,4.32-13.18-1.44-10.03-4.32-13.18-7.01-4.74-12.38-4.74h-9.98v35.84Z"/>
    <path class="uuid-1f904d63-28e7-416e-928f-dc12026a943b" d="M1051.7,222.22v1.79h-25.09c.26,3.58,1.26,6.28,3.01,8.1,1.75,1.81,4.14,2.72,7.17,2.72,4.57,0,7.49-2.05,8.77-6.14h5.31c-.9,3.33-2.56,5.96-4.99,7.9-2.43,1.94-5.5,2.91-9.22,2.91-4.57,0-8.26-1.56-11.07-4.67-2.86-3.11-4.29-7.32-4.29-12.61s1.41-9.39,4.22-12.54c2.77-3.16,6.44-4.74,11.01-4.74s8.45,1.64,11.14,4.93c2.69,3.29,4.03,7.4,4.03,12.35ZM1036.53,209.61c-2.69,0-4.89.84-6.59,2.53-1.71,1.69-2.77,4.11-3.2,7.26h19.46c-.26-2.9-1.24-5.26-2.94-7.07-1.71-1.81-3.95-2.72-6.72-2.72Z"/>
    <path class="uuid-1f904d63-28e7-416e-928f-dc12026a943b" d="M1069.11,239.5c-8.83,0-13.5-3.75-14.02-11.26h5.18c.3,2.47,1.12,4.24,2.46,5.28,1.34,1.05,3.47,1.57,6.37,1.57,5.29,0,7.94-1.71,7.94-5.12,0-1.49-.54-2.62-1.63-3.39-1.09-.77-3.06-1.43-5.92-1.98l-3.07-.58c-6.87-1.28-10.3-4.52-10.3-9.73,0-2.86,1.08-5.13,3.23-6.82,2.15-1.68,5.09-2.53,8.8-2.53,8.75,0,13.23,3.65,13.44,10.94h-5.12c-.13-2.39-.85-4.07-2.18-5.06-1.32-.98-3.37-1.47-6.14-1.47-2.22,0-3.93.43-5.12,1.28-1.2.85-1.79,2.05-1.79,3.58,0,1.45.51,2.54,1.54,3.26,1.02.73,2.73,1.34,5.12,1.86l2.94.58c4.05.81,6.96,1.96,8.74,3.46,1.77,1.49,2.66,3.58,2.66,6.27,0,3.12-1.16,5.54-3.49,7.26-2.33,1.73-5.54,2.59-9.63,2.59Z"/>
    <path class="uuid-1f904d63-28e7-416e-928f-dc12026a943b" d="M1092.6,200.72h-5.44v-6.27h5.44v6.27ZM1092.47,238.73h-5.12v-33.02h5.12v33.02Z"/>
    <path class="uuid-1f904d63-28e7-416e-928f-dc12026a943b" d="M1125.24,210.51v-4.8h4.86v31.74c0,4.52-1.32,8.08-3.97,10.69-2.65,2.6-6.44,3.9-11.39,3.9-4.1,0-7.38-.94-9.86-2.82-2.48-1.88-3.88-4.48-4.22-7.81h5.12c.64,4.18,3.63,6.27,8.96,6.27,6.83,0,10.24-3.41,10.24-10.24v-3.2c-2.6,3.5-6.29,5.25-11.07,5.25s-8.36-1.58-11.14-4.74c-2.82-3.16-4.22-7.34-4.22-12.54s1.41-9.49,4.22-12.61c2.73-3.11,6.44-4.67,11.14-4.67s8.68,1.86,11.33,5.57ZM1114.55,234.89c3.24,0,5.82-1.13,7.74-3.39,1.92-2.26,2.88-5.35,2.88-9.28s-.96-7.02-2.88-9.28-4.5-3.39-7.74-3.39-5.77,1.15-7.71,3.46c-1.94,2.3-2.91,5.38-2.91,9.22s.97,6.91,2.91,9.22c1.94,2.3,4.51,3.46,7.71,3.46Z"/>
    <path class="uuid-1f904d63-28e7-416e-928f-dc12026a943b" d="M1153.02,204.94c3.67,0,6.53,1,8.58,3.01,2.05,2.01,3.07,4.82,3.07,8.45v22.34h-5.12v-21.82c0-4.91-2.52-7.36-7.55-7.36-2.39,0-4.5.9-6.34,2.69-1.83,1.79-2.75,4.39-2.75,7.81v18.69h-5.12v-33.02h4.86v4.93c2.52-3.8,5.97-5.7,10.37-5.7Z"/>
    <path class="uuid-1f904d63-28e7-416e-928f-dc12026a943b" d="M1200.69,204.94c4.65,0,8.38,1.56,11.2,4.67,2.77,3.16,4.16,7.36,4.16,12.61s-1.39,9.39-4.16,12.54c-2.82,3.16-6.55,4.74-11.2,4.74-4.91,0-8.68-1.96-11.33-5.89v5.12h-4.86v-45.57h5.12v17.28c2.65-3.67,6.34-5.5,11.07-5.5ZM1200.05,234.89c3.2,0,5.77-1.16,7.71-3.49,1.94-2.33,2.91-5.47,2.91-9.44s-.95-6.92-2.85-9.12c-1.9-2.2-4.49-3.3-7.78-3.3s-5.82,1.11-7.74,3.33c-1.92,2.22-2.88,5.33-2.88,9.34s.96,7.06,2.88,9.28c1.92,2.26,4.5,3.39,7.74,3.39Z"/>
    <path class="uuid-1f904d63-28e7-416e-928f-dc12026a943b" d="M1236.47,219.41l4.67-13.7h5.57l-13.95,38.21c-.98,2.77-2.33,4.73-4.03,5.86-1.71,1.13-3.95,1.7-6.72,1.7-.94,0-1.96-.06-3.07-.19v-4.29h3.01c2.94,0,4.95-1.37,6.02-4.1l1.15-3.07-12.42-34.11h5.63l4.67,13.76c1.66,4.87,3.24,9.62,4.74,14.27,1.24-3.97,2.82-8.75,4.74-14.34Z"/>
    <path class="uuid-1f904d63-28e7-416e-928f-dc12026a943b" d="M1274.61,209.87l-6.08,8.38-3.2-2.56,6.14-8.51-9.73-3.14,1.34-3.84,9.47,3.07v-10.11h4.1v10.11l9.47-3.07,1.34,3.84-9.73,3.14,6.14,8.51-3.2,2.56-6.08-8.38Z"/>
    <path class="uuid-1f904d63-28e7-416e-928f-dc12026a943b" d="M1322.36,218.32l10.18-25.15h7.04v45.57h-5.25v-14.59c0-9.6.06-17.34.19-23.23-1.02,2.82-2.37,6.27-4.03,10.37l-11.26,27.46h-4.61l-11.33-27.46c-1.66-4.1-3.01-7.55-4.03-10.37.13,5.89.19,13.63.19,23.23v14.59h-5.25v-45.57h7.04l10.56,25.92c1.58,3.88,3.31,8.26,5.18,13.12,2.6-6.91,4.39-11.54,5.38-13.89Z"/>
    <path class="uuid-1f904d63-28e7-416e-928f-dc12026a943b" d="M1370.23,203.79l6.66-10.62h6.08l-17.41,27.26v18.3h-5.38v-18.3l-17.41-27.26h6.14l6.72,10.69c2.9,4.52,5.33,8.45,7.3,11.78,2.73-4.61,5.16-8.55,7.3-11.84Z"/>
    <path class="uuid-1f904d63-28e7-416e-928f-dc12026a943b" d="M1391.54,193.17v40.7h22.91v4.86h-28.29v-45.57h5.38Z"/>
    <path class="uuid-1f904d63-28e7-416e-928f-dc12026a943b" d="M1435.51,220.17v-4.86h19.39v23.42h-4.42l-1.15-6.14c-3.37,4.78-8.34,7.17-14.91,7.17s-11.73-2.2-15.62-6.59c-3.97-4.35-5.95-10.09-5.95-17.22s1.96-12.84,5.89-17.28c3.88-4.35,9.13-6.53,15.74-6.53,5.42,0,9.9,1.45,13.44,4.35,3.54,2.9,5.7,6.76,6.46,11.58h-5.57c-.55-3.37-2.18-6.06-4.86-8.06-2.6-1.96-5.76-2.94-9.47-2.94-4.86,0-8.75,1.71-11.65,5.12-2.9,3.41-4.35,8-4.35,13.76s1.45,10.35,4.35,13.76c2.9,3.41,6.78,5.12,11.65,5.12,4.31,0,7.98-1.39,11.01-4.16,3.03-2.77,4.54-6.27,4.54-10.5h-14.53Z"/>
    <path class="uuid-1f904d63-28e7-416e-928f-dc12026a943b" d="M1467.76,238.73h-6.46v-6.4h6.46v6.4ZM1466.1,226.83h-3.33l-.9-21.12v-12.54h5.38v12.54l-1.15,21.12Z"/>
    <path class="uuid-1f904d63-28e7-416e-928f-dc12026a943b" d="M1486.07,209.87l-6.08,8.38-3.2-2.56,6.14-8.51-9.73-3.14,1.34-3.84,9.47,3.07v-10.11h4.1v10.11l9.47-3.07,1.34,3.84-9.73,3.14,6.14,8.51-3.2,2.56-6.08-8.38Z"/>
  </g>
  <g>
    <path class="uuid-1f904d63-28e7-416e-928f-dc12026a943b" d="M1859.09,127.57v11.28h-2.28v-14.1l1.17.06c1.76.12,3.27.52,4.53,1.2s2.36,1.83,3.3,3.45l1.56,2.7c.8,1.36,1.58,2.32,2.34,2.89.76.57,1.68.86,2.76.86,1.18,0,2.12-.38,2.83-1.12s1.06-1.79,1.06-3.11c0-2.98-1.53-4.47-4.59-4.47v-2.49c2.18-.02,3.87.59,5.07,1.83s1.8,2.97,1.8,5.19c0,2.02-.57,3.66-1.71,4.92-1.18,1.26-2.67,1.89-4.47,1.89-2.76,0-5.08-1.62-6.96-4.86l-1.32-2.28c-.8-1.32-1.58-2.27-2.33-2.85s-1.67-.91-2.77-.99Z"/>
    <path class="uuid-1f904d63-28e7-416e-928f-dc12026a943b" d="M1859.09,144.01v11.28h-2.28v-14.1l1.17.06c1.76.12,3.27.52,4.53,1.2s2.36,1.83,3.3,3.45l1.56,2.7c.8,1.36,1.58,2.32,2.34,2.89.76.57,1.68.86,2.76.86,1.18,0,2.12-.38,2.83-1.12s1.06-1.79,1.06-3.11c0-2.98-1.53-4.47-4.59-4.47v-2.49c2.18-.02,3.87.59,5.07,1.83s1.8,2.97,1.8,5.19c0,2.02-.57,3.66-1.71,4.92-1.18,1.26-2.67,1.89-4.47,1.89-2.76,0-5.08-1.62-6.96-4.86l-1.32-2.28c-.8-1.32-1.58-2.27-2.33-2.85s-1.67-.91-2.77-.99Z"/>
    <path class="uuid-1f904d63-28e7-416e-928f-dc12026a943b" d="M1864.19,165.49v-8.67h2.16v8.67h-2.16Z"/>
    <path class="uuid-1f904d63-28e7-416e-928f-dc12026a943b" d="M1859.21,181.72c-1.92-1.3-2.88-3.23-2.88-5.79s.96-4.51,2.88-5.79c1.94-1.3,4.7-1.95,8.28-1.95s6.34.65,8.28,1.95c1.92,1.28,2.88,3.21,2.88,5.79s-.96,4.49-2.88,5.79c-1.94,1.3-4.7,1.95-8.28,1.95s-6.34-.65-8.28-1.95ZM1876.37,175.93c0-3.4-2.96-5.1-8.88-5.1s-8.88,1.7-8.88,5.1,2.96,5.1,8.88,5.1,8.88-1.7,8.88-5.1Z"/>
    <path class="uuid-1f904d63-28e7-416e-928f-dc12026a943b" d="M1876.91,198.28c-.94,1.16-2.18,1.98-3.73,2.46-1.55.48-3.5.72-5.83.72-3.52,0-6.28-.67-8.27-2.02-1.99-1.35-2.98-3.28-2.98-5.78,0-1.92.51-3.51,1.53-4.77,1.02-1.26,2.43-2.05,4.23-2.37v2.46c-1.12.24-1.98.76-2.58,1.57-.6.81-.9,1.85-.9,3.11,0,3.46,2.85,5.22,8.55,5.28-.86-.58-1.56-1.38-2.1-2.39s-.81-2.02-.81-3.04c0-2.24.68-4.01,2.04-5.31,1.36-1.32,3.08-1.98,5.16-1.98s3.82.67,5.16,2.01c1.36,1.32,2.04,3.1,2.04,5.34,0,1.86-.5,3.43-1.5,4.71ZM1867.67,190.18c-.92.86-1.38,1.99-1.38,3.39s.46,2.52,1.38,3.42c.9.9,2.08,1.35,3.54,1.35s2.63-.45,3.57-1.35c.9-.9,1.35-2.04,1.35-3.42s-.46-2.53-1.38-3.39c-.94-.88-2.12-1.32-3.54-1.32s-2.6.44-3.54,1.32Z"/>
    <path class="uuid-1f904d63-28e7-416e-928f-dc12026a943b" d="M1864.19,212.83v-8.67h2.16v8.67h-2.16Z"/>
    <path class="uuid-1f904d63-28e7-416e-928f-dc12026a943b" d="M1859.09,218.26v11.28h-2.28v-14.1l1.17.06c1.76.12,3.27.52,4.53,1.2s2.36,1.83,3.3,3.45l1.56,2.7c.8,1.36,1.58,2.32,2.34,2.89.76.57,1.68.86,2.76.86,1.18,0,2.12-.38,2.83-1.12s1.06-1.79,1.06-3.11c0-2.98-1.53-4.47-4.59-4.47v-2.49c2.18-.02,3.87.59,5.07,1.83s1.8,2.97,1.8,5.19c0,2.02-.57,3.66-1.71,4.92-1.18,1.26-2.67,1.89-4.47,1.89-2.76,0-5.08-1.62-6.96-4.86l-1.32-2.28c-.8-1.32-1.58-2.27-2.33-2.85s-1.67-.91-2.77-.99Z"/>
    <path class="uuid-1f904d63-28e7-416e-928f-dc12026a943b" d="M1859.21,245.05c-1.92-1.3-2.88-3.23-2.88-5.79s.96-4.51,2.88-5.79c1.94-1.3,4.7-1.95,8.28-1.95s6.34.65,8.28,1.95c1.92,1.28,2.88,3.21,2.88,5.79s-.96,4.49-2.88,5.79c-1.94,1.3-4.7,1.95-8.28,1.95s-6.34-.65-8.28-1.95ZM1876.37,239.26c0-3.4-2.96-5.1-8.88-5.1s-8.88,1.7-8.88,5.1,2.96,5.1,8.88,5.1,8.88-1.7,8.88-5.1Z"/>
  </g>
</svg>