<?xml version="1.0" encoding="UTF-8"?>
<svg id="uuid-197ae858-0758-4c9b-8c11-b1fb915450a1" data-name="Layer 1" xmlns="http://www.w3.org/2000/svg" xmlns:xlink="http://www.w3.org/1999/xlink" viewBox="0 0 1920 768">
  <defs>
    <style>
      .uuid-349fe278-5564-4f49-b53a-9031ce05dfdd {
        fill: #fff;
      }

      .uuid-349fe278-5564-4f49-b53a-9031ce05dfdd, .uuid-73818bd5-ec1d-4378-b2a5-01a9382adb2e, .uuid-3f42628e-bf69-4a32-be37-5e488dc5a967 {
        stroke-width: 0px;
      }

      .uuid-73818bd5-ec1d-4378-b2a5-01a9382adb2e {
        fill: #231f20;
      }

      .uuid-3f42628e-bf69-4a32-be37-5e488dc5a967 {
        fill: url(#uuid-c5994a88-8a09-45e7-801e-8b33ceaaedae);
      }
    </style>
    <linearGradient id="uuid-c5994a88-8a09-45e7-801e-8b33ceaaedae" x1="960" y1="768" x2="960" y2="0" gradientUnits="userSpaceOnUse">
      <stop offset="0" stop-color="#6fc8f0"/>
      <stop offset="1" stop-color="#29b7e6"/>
    </linearGradient>
  </defs>
  <rect class="uuid-3f42628e-bf69-4a32-be37-5e488dc5a967" width="1920" height="768"/>
  <g>
    <path class="uuid-73818bd5-ec1d-4378-b2a5-01a9382adb2e" d="M1511.83,416.32l-.69-3.21c-.13-.6.04-1.22.45-1.67,5.66-6.21,8.78-14.23,8.78-22.58,0-9.2-3.72-17.84-10.53-24.38l-5.58-5.58.16.07c-.59-.49-1.58-1.49-3.58-3.48-.16-.16-2.57-2.57-2.57-2.57l.19.08c-.63-.52-1.71-1.61-3.99-3.88l.19.08c-.63-.52-1.71-1.6-3.97-3.86l.27.22s-.43-.38-1-.96c-1.06-1.05-3.38-3.38-3.38-3.38l.04.03c-.07-.05-.56-.54-.56-.54-6.75-6.49-15.72-10.07-25.26-10.07-10.13,0-19.83,4.18-26.61,11.47-3.92,4.22-7.04,8.7-10.06,13.05l-13.41,19.12c-1.12,1.6-2.63,3.73-4.33,6.1-.36.51-.94.79-1.54.79-.27,0-.54-.06-.8-.18-.83-.38-1.26-1.3-1.03-2.18l5.34-20.65c3.07-11.82,6.18-23.62,9.3-35.51l4.11-15.69c1.43-6.28-.35-12.4-4.95-16.84-.14-.15-23.59-23.58-23.79-23.78-3.81-3.78-9.28-6.06-15.04-6.25-1.33-.06-2.6-.08-3.82-.08-27.42,0-32.64,14.4-33.61,18.9l-1.46,5.54c-.16.59-.58,1.07-1.15,1.28-.22.08-.45.13-.67.13-.37,0-.73-.11-1.04-.32q-.17-.11-9.11-9.06c-5.12-5.12-10.61-10.61-10.8-10.79-3.31-3.14-7.56-4.94-12.62-5.34-2.1-.17-4.17-.26-6.15-.26-24.67,0-31.96,13.64-34.12,21.78l-2.92,11.04c-6.11,23.07-12.38,46.74-18.51,70.34-.17.65-.68,1.17-1.33,1.35-.17.05-.33.07-.5.07-.49,0-.98-.2-1.34-.55,0,0-12.13-12.13-12.24-12.25-5.44-5.9-13.13-10.04-22.24-11.95-5.14-1.08-10.28-1.63-15.29-1.63-9.52,0-18.67,1.95-27.19,5.8-16.11,7.27-29.04,17.62-38.44,30.75-.32.46-.94.63-1.5.67-.03,0-.07,0-.1,0-.53,0-1.14-.31-1.5-.68-.35-.36-23.75-23.76-23.81-23.83-5.31-5.83-11.99-9.79-19.32-11.45-.5-.11-.93-.42-1.2-.86-.26-.44-.34-.97-.21-1.47l8.01-29.86c1.72-4.91,1.16-12.57-4.13-17.78l-23.47-23.47c-3.77-3.95-9.19-5.94-16.12-5.94-30.19,0-36.61,16.61-37.25,18.51-.07.19-.12.38-.17.57l-9.3,35.22c-4.28,16.2-8.55,32.39-12.81,48.59-.17.66-.68,1.17-1.33,1.34-.16.04-.33.06-.49.06-.5,0-.98-.19-1.34-.55,0,0-12.01-12.01-12.04-12.05-5.44-5.9-13.12-10.03-22.23-11.95-5.14-1.08-10.29-1.63-15.29-1.63-9.52,0-18.67,1.95-27.19,5.8-17.73,8-31.57,19.71-41.16,34.81-.31.49-.82.81-1.39.87-.07,0-.13,0-.2,0-.5,0-.99-.2-1.34-.56-.15-.15-5.61-5.61-5.6-5.62-.09-.06-.13-.11-3.58-3.56-4.32-4.32-11.24-11.23-11.47-11.46-5-4.7-11.61-8.29-20.21-10.98-1.88-.59-3.78-1.11-5.68-1.61-.33-.09-.63-.26-.87-.5-.11-.11-13.86-13.86-13.91-13.91-2.94-3.24-7.2-4.93-12.63-5.01-8.63,0-16.15,5.57-20.62,15.27-1.47,3.2-2.57,6.55-3.28,10.1l-.97,3.54c-.18.65-.69,1.16-1.34,1.33-.16.04-.32.06-.48.06-.5,0-.98-.19-1.34-.55,0,0-13.14-13.13-13.44-13.43-1.06-1.09-2.35-2.08-3.83-2.93-3.37-1.94-6.86-2.94-10.44-3.88-2.42-.63-4.86-1.17-7.36-1.68-2.42-.49-4.84-.73-7.18-.73-7.87,0-14.58,2.7-19.42,7.82-.95,1-1.83,2.11-2.6,3.31-.28.43-.72.73-1.23.83-.12.02-.24.04-.36.04-.39,0-.77-.12-1.09-.35-4.85-3.41-10.05-5.7-15.47-6.79-2.48-.5-5.05-.75-7.65-.75-5.8,0-11.89,1.26-18.1,3.75-.23.09-.47.14-.7.14-.34,0-.69-.09-.99-.28-.51-.31-.84-.84-.9-1.44-.61-6.67-2.6-13.07-5.91-19.02-2.12-3.82-4.74-7.46-7.73-10.76l-23.76-23.78c-7.49-8.25-17.54-14.59-30.74-19.4-12.86-4.69-26.35-6.96-41.26-6.96-7.09,0-14.6.54-22.33,1.6-31.66,4.36-57.59,16.48-77.08,36-16.36,16.39-23.1,36.49-19.5,58.13,1.05,6.34,3.83,11.94,8.07,16.27l15.7,15.7s8.3,8.28,8.34,8.33c1.59,1.59,3.37,2.97,5.26,4.09.75.45,1.1,1.35.84,2.19-3,9.72-6.64,19.96-12.96,29.04-.15.21-.34.39-.56.53-.07.05-.34.19-.42.23-.12.05-.24.09-.37.12-15.94,3.41-27,9.16-33.8,17.58-5.35,6.62-7.25,14.65-5.09,21.49.87,2.75,2.37,5.14,4.51,7.17.18.18,23.64,23.63,23.64,23.63,4.01,3.9,9.88,5.87,17.44,5.87,14.84,0,29.48-3.81,43.52-11.33.28-.15.58-.22.89-.22.25,0,.49.05.73.14,13.37,5.56,27.39,8.37,41.65,8.37,4.48,0,9.06-.27,13.63-.82,25.48-3.05,44.94-12.42,59.52-28.65.37-.41.89-.63,1.41-.63.43,0,.86.15,1.21.44.02,0,5.17,5.15,5.17,5.15.02.02,5.7,5.7,5.7,5.7.02.02,7.05,7.06,7.22,7.23,3.39,3.53,7.24,6.38,11.43,8.47,5.87,2.93,12.72,4.48,19.8,4.48,6.09,0,12.41-1.14,18.26-3.29,6.16-2.27,12.18-5.72,17.9-10.24.34-.27.76-.41,1.17-.41.46,0,.93.17,1.29.51l.8.78c7.72,7.89,19.3,12.6,30.97,12.6,1.14,0,2.27-.04,3.4-.14,15.41-1.24,30.77-10.1,42.16-24.3,1.73-2.16,3.4-4.43,4.96-6.75.32-.47.82-.77,1.39-.82.06,0,.12,0,.18,0,.5,0,.98.2,1.34.56,0,0,2.03,2.03,3.42,3.42l2.87,2.86,5.89,5.89,2.79,2.79c1.64,1.64,6.33,6.33,6.33,6.33,6.2,6.2,15.75,9.48,27.64,9.48,13.22,0,27.76-4.06,37.05-10.36,3.44-2.32,6.87-5.02,10.51-8.23.36-.31.8-.47,1.25-.47.42,0,.85.14,1.2.43.03.03,3.18,3.17,3.18,3.17,7.38,7.74,17.01,12.93,27.85,14.99,6.31,1.2,12.6,1.82,18.7,1.82,15.1,0,29.32-3.69,42.25-10.98.29-.16.61-.24.93-.24.49,0,.97.19,1.34.56l5.99,5.99c.92.93,1.94,1.68,3.05,2.24,1.95,1.01,3.87,1.38,5.32,1.59,4.47.64,8.81.69,12.51.69h4.03c7.25,0,14.91-.32,21.8-4.07,1.64-.88,3.06-2.02,4.21-3.36.37-.43.9-.66,1.44-.66.38,0,.75.12,1.08.34,9.23,6.43,18.97,7.17,25.48,7.17.96,0,1.94-.02,2.93-.05,27-.95,50.98-9.28,71.26-24.75.34-.26.74-.38,1.14-.38.49,0,.98.19,1.35.56.24.24,9.92,9.93,10.09,10.1,7.25,6.97,16.11,11.49,26.34,13.44,6.31,1.2,12.6,1.82,18.7,1.82,15.58,0,30.2-3.93,43.45-11.67,3.51-2.05,7.11-4.45,11.34-7.53.33-.24.73-.36,1.11-.36.49,0,.97.19,1.34.55l5.63,5.63,2.93,2.93c5.35,5.14,12.5,8.3,21.27,9.41,2.52.31,5.04.47,7.48.47,12.24,0,23.67-3.88,33.94-11.53,1.81-1.35,3.57-2.73,5.31-4.14.35-.28.77-.42,1.19-.42.46,0,.92.17,1.28.5l6.23,6.21c6.5,6.18,15.75,9.44,26.78,9.44,2.28,0,4.72-.14,7.22-.42,12.37-1.39,23.45-6.46,33.86-15.49.36-.31.8-.46,1.24-.46.49,0,.97.19,1.34.56l.41.41,3.24,3.2c4.92,4.4,10.87,7.74,17.19,9.67,8.63,2.62,18.12,4.01,27.43,4.01,20.75,0,38.01-6.72,48.6-18.93,12.28-14.16,17.46-34.72,13.87-54.99-1.04-5.89-2.31-11.76-3.59-17.65"/>
    <path class="uuid-349fe278-5564-4f49-b53a-9031ce05dfdd" d="M1476.76,384.87c6.29-4.57,10.37-11.75,10.37-19.84,0-13.8-11.79-24.99-26.33-24.99-7.87,0-14.91,3.29-19.73,8.48-4.25,4.57-7.6,9.74-11.16,14.8-3.84,5.45-7.67,10.9-11.49,16.36-3.51,5.02-10.98,15.35-15.41,21.6-.1-.04-.2-.09-.3-.12-1.4-.44-2.85-.37-4.3-.27-1.3.09-2.58.35-3.81.77-2.45.84-4.61,2.29-6.5,3.98-.79.71-1.54,1.46-2.26,2.24-6.8,7.42-8.47,16.34-8.86,25.71-.06,1.36.19,3.32-.62,3.99-4.81,3.92-9.42,8.45-15,11-6.39,2.92-12.14-1.44-12.31-8.28-.08-3.1.02-6.31.79-9.3,8.44-33.03,17.02-66.03,25.6-99.02,4.39-16.91,8.85-33.8,13.34-50.93,1.47-6.44-4.22-11.32-11.21-11.55-26.45-1.18-27.83,11.52-27.83,11.52-9.78,37.05-19.47,73.91-29.26,110.75-4.06,15.29-7.98,30.8-18.59,43.42-4.28,5.09-9.87,9.71-15.83,12.88-6.96,3.7-13.14-.61-13.29-8.2-.06-2.95.05-6,.78-8.84,7.17-28.02,14.49-56.01,21.77-84.01,3.06-11.8,6.13-23.59,9.19-35.39,2.3-8.86,5.49-17.52,7.29-26.5.75-3.75,1.75-7.31-.42-10.75-1.89-3.01-4.86-4.35-8.43-4.64-12.81-1.03-26.85,1.08-30.42,14.56-9.83,37.12-19.76,74.28-29.24,111.5-.34,1.33-.68,2.67-1.02,4-6.51,25.7-21.75,43.77-48.38,52.25-20.2,6.43-35.57-2.49-37.78-21.51-.5-3.66-.59-6.74-.55-9.02,17.89,4.5,34.93-3.06,34.93-3.06,14.22-6.8,25.84-16.73,32.36-31.05,8.13-17.85-.48-34.07-20.43-38.27-12.57-2.64-25.09-1.69-36.67,3.54-29.66,13.39-45.1,36.66-50.18,66.85-.39,2.33-1.33,4.9-2.87,6.69-9.28,10.83-20.71,19.16-34,25.17-.85.38-1.82.52-3.21.9,2.96-4.16,5.79-7.63,8.06-11.41,12.01-20,19.05-41.11,14.98-64.48-2.62-15.01-12.47-26.02-25.26-28.01-13.55-2.1-25.81.89-36.53,9.15-2.38,1.84-4.69,3.77-8.1,6.51,7.65-28.54,14.98-55.83,22.35-83.35.94-2.14,1.73-11.12-10.92-11.12-24.29,0-28.33,12.09-28.33,12.09-10.33,39.14-20.73,78.27-30.93,117.44l-2.48,9.45c-7.59,21.06-22.2,36.01-45.7,43.49-20.2,6.43-35.57-2.49-37.78-21.51-.5-3.66-.59-6.74-.55-9.02,17.89,4.5,34.93-3.06,34.93-3.06,14.22-6.8,25.84-16.73,32.36-31.05,8.13-17.85-.48-34.07-20.43-38.27-12.57-2.64-25.09-1.69-36.67,3.54-29.66,13.39-45.1,36.66-50.18,66.85,0,0-.59,3.65-.57,8.32-2.42,4.25-5.19,8.34-8.49,12.21-3.8,4.45-8.25,8.14-14.57,8.91-9.97,1.22-9.7-9.67-7.83-16.06,3.73-12.75,7.74-25.44,11.75-38.12,6.93-21.96-4.11-32.7-21.74-38.21-2.49-.78-5.03-1.43-7.56-2.08-5.94-1.53-11.87-3.04-17.81-4.55,2.73-6.17,4.22-13.82-4.72-13.97-6.14-.1-10.04,4.98-12.26,9.81-1.21,2.62-2.11,5.42-2.64,8.24-5.93,21.56-11.5,43.22-18,64.63-2.38,7.84-6.42,15.24-12.12,21.38-4.42,4.77-13.33,12.36-20.23,6.98-4.22-3.29-3.56-9.48-2.46-14.56,2.06-9.54,4.32-19.04,6.7-28.51,2.38-9.48,4.88-18.92,7.43-28.36,1.28-4.75,2.58-9.49,3.89-14.23.65-2.37,1.3-4.74,1.95-7.11.27-.99.63-1.95.4-2.98-.32-1.43-1.58-2.43-2.84-3.15-2.46-1.42-5.35-2.21-8.11-2.93-2.26-.59-4.55-1.09-6.84-1.56-6.41-1.28-13.37-.5-17.94,4.33-1.93,2.03-3.07,4.57-3.9,7.16-.93,2.94-1.8,5.9-2.7,8.86-5.57-7.58-13.3-14.3-22.83-16.22-10.51-2.11-21.39,1.96-30.31,7.66-22.05,14.08-35.75,38.1-40.1,62.98-1.66,9.54-2.05,19.45.7,28.76,2.75,9.31,8.93,17.99,17.95,22.49,9.32,4.65,20.8,4.39,30.62.77,9.81-3.62,18.1-10.29,24.94-17.89,3.27,13.26,18.79,21.6,33.08,20.44,14.3-1.15,26.89-9.97,35.57-20.81,14.95-18.67,21.43-41.39,27.07-63.77,1.82-7.21,3.87-14.36,5.86-21.72,3.98.88,7.35,1.49,10.64,2.39,8.27,2.26,12.05,7.3,10.42,15.48-1.73,8.69-4.65,17.17-6.74,25.8-3.09,12.73-6.66,25.42-8.61,38.33-4.7,31.09,40.22,26.5,57.26,14.96,7.11-4.82,13.4-10.83,19.49-17.01,6,13.51,16.94,22.67,31.53,25.45,19.58,3.74,38.56,1.25,55.65-8.73,8.14-4.76,15.48-10.73,22.94-16.38l-1.83,6.96c-1.07,4.64-2.07,8.94-3.13,13.56-.25,1.76-.79,3.83,1.19,4.86.71.37,1.52.51,2.32.62,5.01.72,10.15.59,15.2.59,5.75,0,12.18-.13,17.32-2.92,2.54-1.38,2.76-3.6,3.45-6.06.82-2.94,1.64-5.88,2.45-8.82,9.39,14.79,19.9,17.66,33.4,17.18,28.94-1.02,54.1-10.94,74.89-30.34,1.01-.94,2.11-1.79,3.33-2.81,5.06,17.28,17.13,29.05,34.07,32.29,19.58,3.74,38.56,1.25,55.65-8.73,9.52-5.56,17.93-12.82,26.73-19.24,0,1.08-.1,3.2,0,5.31.72,13.41,8.76,21.58,22.8,23.34,12.96,1.63,24.52-1.74,34.63-9.28,6.52-4.86,12.55-10.31,18.77-15.53.64,17.6,12.47,27.31,33.82,24.9,12.8-1.44,22.84-7.45,31.62-15.87,2.02-1.94,3.8-4.11,5.95-6.45-1.31,1.43,8.52,11.7,9.83,12.87,3.91,3.49,8.56,6.13,13.67,7.68,21.14,6.44,51.11,5.32,66.2-12.08,11.12-12.83,14.57-31.1,11.72-47.21-1.59-8.99-3.72-17.9-5.56-26.9M1169.6,379.36c3.05-4.56,7-8.68,11.11-12.44,2.09-1.92,5.34-3.01,8.26-3.73,5.31-1.32,8.93,1.19,9.75,6.42,1.81,11.62-3.41,21.05-10.91,29.51,0,0-12.28,14.52-30.6,9.94,2.22-10.83,6.31-20.63,12.39-29.7M908.35,379.36c3.05-4.56,7-8.68,11.11-12.44,2.09-1.92,5.34-3.01,8.26-3.73,5.31-1.32,8.93,1.19,9.75,6.42,1.81,11.62-3.41,21.05-10.91,29.51,0,0-12.28,14.52-30.6,9.94,2.22-10.83,6.31-20.63,12.39-29.7M685.52,394.76c-2.96,12.26-6.66,24.42-11.09,36.28-1.84,4.93-5.91,9.34-9.75,13.3-4.15,4.28-10.04,5.85-15.85,3.82-5.57-1.95-6.83-7.29-7.68-12.29-.42-2.44-.07-5-.06-7.5.85-19.44,6.4-37.5,18.96-53.14,2.49-3.1,6.15-5.77,9.87-7.46,7.13-3.25,15.28.3,16.39,7.63.95,6.31.71,13.15-.79,19.36M1059.39,388.44c-.26,15.72-5.08,31.36-13.89,44.68-.02.03-.05.07-.07.1-1.57,2.36-3.27,4.66-5.09,6.86-2.45,2.98-5.86,5.58-9.38,7.37-7.88,4.02-16.15.68-17.27-7.64-.95-7.1-.53-14.64.9-21.69,3.18-15.73,7.99-34.31,21.56-45.07,2.59-2.06,5.47-3.74,8.54-5.07,13.46-5.86,14.83,12.23,14.69,20.46M1438.46,442.39c-1.72,3.16-3.8,6.27-6.33,8.86-9.59,9.86-24.61,7.94-32.62-3.98-.96-1.43-1.72-2.98-2.83-4.92.15.26,5.36-2.91,5.82-3.23,1.79-1.25,3.43-2.69,4.82-4.34,3.75-4.46,5.63-10.83,6.4-16.41.4-2.92.99-6.79-1.15-9.26l2.98-4.28c6.33-9.67,13.06-19.1,19.66-28.62.37-.54.77-1.1,1.23-1.73l2.78-3.77s.75,8.17.8,9.61c1.53,11.14,3.12,22.29,4.26,33.48,1.01,9.94-.94,19.63-5.81,28.58"/>
    <path class="uuid-349fe278-5564-4f49-b53a-9031ce05dfdd" d="M605.86,301.64c-7.23-13.03-19.32-20.7-33.4-25.84-19.19-6.99-39.06-7.63-59.09-4.88-27.6,3.8-52.24,13.82-71.72,33.33-13.95,13.98-20.1,30.61-16.88,49.94,2.51,15.12,18.01,21.45,30.03,12.23,3.52-2.69,5.37-5.67,3.56-10.45-3.29-8.73-3.42-17.82-1.14-26.84,5.38-21.38,20.01-34.96,41.05-42.61,0,0,5.06-2.36,12.76-4.21,0,0-19.77,27.28-30.73,63.69-4.49,14.91-8.96,29.85-13.38,44.8-4.75,16.04-8.82,32.36-18.81,46.44-1.4,1.97-4.26,3.66-6.74,4.19-10.14,2.16-21.91,6.19-28.46,14.28-2.77,3.43-4.8,8.42-3.43,12.76,1.64,5.18,7.8,6.27,12.79,6.27,14.23,0,27.61-3.9,40.02-10.72,1.86-1.02,5.03-1.56,6.83-.77,16.75,7.35,34.17,9.9,52.46,7.71,22.8-2.73,42.26-11.21,56.49-28.95,12.72-15.87,13.97-36.18,3.12-51.74-5.54-7.95-13.5-13.14-22.94-17.48,1.96-.67,3.36-1.14,4.76-1.61,10.67-3.64,20.71-8.31,29.49-15.3,17.78-14.15,23.41-36.16,13.37-54.25M547.85,409.54c-.72,13.49-6.32,25.12-16.83,34.36-13.88,12.21-30.22,13.52-49.29,3.83,17.22-20.08,24.14-43.95,30.83-67.87,19.09-4.01,36.33,10.35,35.29,29.68M552.06,352.69c-9.87,8.88-22.03,11.79-36.69,12.74,6.46-22.22,17.97-62.15,24.73-84.16,3.45.69,6.92,1.73,10.33,3.24,10.11,4.47,15.56,12.19,16.83,22.23,2.2,17.34-1.13,33.3-15.2,45.96"/>
  </g>
</svg>