<?xml version="1.0" encoding="UTF-8"?>
<svg id="uuid-20c08990-9546-4c41-9eaa-611dcfe9732e" data-name="Layer 1" xmlns="http://www.w3.org/2000/svg" viewBox="0 0 1920 417.33">
  <defs>
    <style>
      .uuid-74e8b4c9-43c9-42fa-befd-f0e108c5f393 {
        isolation: isolate;
      }

      .uuid-70a8db98-1c53-454c-8b7e-fb47c580ca3a {
        fill: #fff;
        stroke-width: 0px;
      }
    </style>
  </defs>
  <g id="uuid-90894c58-9591-45bc-9e57-287149a873f3" data-name="INFLUENCER STUDIOS " class="uuid-74e8b4c9-43c9-42fa-befd-f0e108c5f393">
    <g class="uuid-74e8b4c9-43c9-42fa-befd-f0e108c5f393">
      <path class="uuid-70a8db98-1c53-454c-8b7e-fb47c580ca3a" d="M59.75,263.04h-10.92v-92.56h10.92v92.56Z"/>
      <path class="uuid-70a8db98-1c53-454c-8b7e-fb47c580ca3a" d="M135.67,201.68v-31.2h10.79v92.56h-13.26l-30.68-47.71c-8.84-14.04-15.25-24.48-19.24-31.33.26,12.13.39,28.08.39,47.84v31.2h-10.79v-92.56h13.26l30.68,47.71c8.84,14.04,15.25,24.48,19.24,31.33-.26-12.13-.39-28.08-.39-47.84Z"/>
      <path class="uuid-70a8db98-1c53-454c-8b7e-fb47c580ca3a" d="M220.82,170.48v9.88h-50.31v29.51h45.11v9.88h-45.11v43.29h-10.92v-92.56h61.23Z"/>
      <path class="uuid-70a8db98-1c53-454c-8b7e-fb47c580ca3a" d="M239.02,170.48v82.68h46.54v9.88h-57.46v-92.56h10.92Z"/>
      <path class="uuid-70a8db98-1c53-454c-8b7e-fb47c580ca3a" d="M350.3,255.5c-6.33,6.33-15.3,9.49-26.91,9.49s-20.58-3.16-26.91-9.49c-6.33-6.33-9.49-15.25-9.49-26.78v-58.24h10.92v58.24c0,17.59,8.49,26.39,25.48,26.39s25.48-8.8,25.48-26.39v-58.24h10.92v58.24c0,11.53-3.17,20.46-9.49,26.78Z"/>
      <path class="uuid-70a8db98-1c53-454c-8b7e-fb47c580ca3a" d="M435.97,170.48v9.88h-53.43v29.51h48.23v9.88h-48.23v33.41h52.91v9.88h-63.83v-92.56h64.35Z"/>
      <path class="uuid-70a8db98-1c53-454c-8b7e-fb47c580ca3a" d="M506.69,201.68v-31.2h10.79v92.56h-13.26l-30.68-47.71c-8.84-14.04-15.25-24.48-19.24-31.33.26,12.13.39,28.08.39,47.84v31.2h-10.79v-92.56h13.26l30.68,47.71c8.84,14.04,15.25,24.48,19.24,31.33-.26-12.13-.39-28.08-.39-47.84Z"/>
      <path class="uuid-70a8db98-1c53-454c-8b7e-fb47c580ca3a" d="M569.47,265.12c-12.57,0-22.84-4.38-30.81-13.13-7.97-8.75-11.96-20.5-11.96-35.23s3.99-26.47,11.96-35.23c7.97-8.75,18.24-13.13,30.81-13.13,9.97,0,18.46,2.71,25.48,8.12,7.02,5.42,11.66,13.32,13.91,23.72h-11.05c-3.9-14.56-13.35-21.84-28.34-21.84-9.45,0-17.03,3.38-22.75,10.14-5.72,6.85-8.58,16.25-8.58,28.21s2.86,21.32,8.58,28.08c5.72,6.85,13.3,10.27,22.75,10.27,7.11,0,13.43-2.21,18.98-6.63,5.46-4.25,8.8-10.62,10.01-19.11h10.92c-1.21,11.53-5.59,20.32-13.13,26.39-7.63,6.24-16.55,9.36-26.78,9.36Z"/>
      <path class="uuid-70a8db98-1c53-454c-8b7e-fb47c580ca3a" d="M682.31,170.48v9.88h-53.43v29.51h48.23v9.88h-48.23v33.41h52.91v9.88h-63.83v-92.56h64.35Z"/>
      <path class="uuid-70a8db98-1c53-454c-8b7e-fb47c580ca3a" d="M758.23,236.26l.91,14.95c.43,5.2,1.56,9.14,3.38,11.83h-11.31c-1.91-2.77-2.9-6.89-2.99-12.35l-.39-9.88c-.26-6.24-1.65-10.68-4.16-13.32-2.51-2.64-6.63-3.96-12.35-3.96h-30.16v39.52h-10.92v-92.56h39.13c9.53,0,17.14,2.21,22.81,6.63,5.68,4.42,8.52,10.62,8.52,18.59,0,5.63-1.37,10.38-4.1,14.23-2.73,3.86-6.44,6.57-11.11,8.12,7.8,2.43,12.04,8.5,12.74,18.2ZM701.16,213.64h29.51c5.81,0,10.38-1.49,13.72-4.48,3.33-2.99,5-7.26,5-12.81s-1.75-9.27-5.27-11.96c-3.51-2.68-8.43-4.03-14.75-4.03h-28.21v33.28Z"/>
    </g>
    <g class="uuid-74e8b4c9-43c9-42fa-befd-f0e108c5f393">
      <path class="uuid-70a8db98-1c53-454c-8b7e-fb47c580ca3a" d="M82.76,375.12c-12.05,0-21.45-2.73-28.21-8.19-6.76-5.46-10.18-13.6-10.27-24.44h11.31c.26,15.17,9.32,22.75,27.17,22.75,7.54,0,13.33-1.47,17.35-4.42,4.03-2.95,6.04-7.24,6.04-12.87,0-4.42-1.67-7.87-5-10.33-3.34-2.47-9.17-4.62-17.48-6.44l-8.19-1.82c-9.36-2.17-16.38-5.31-21.06-9.43-4.68-4.12-7.02-9.9-7.02-17.35s2.86-13.24,8.58-17.62c5.72-4.38,13.39-6.56,23.01-6.56,6.5,0,12.16.78,16.97,2.34,4.81,1.56,8.56,3.75,11.24,6.56,2.69,2.82,4.66,5.87,5.92,9.17,1.26,3.29,1.93,6.93,2.02,10.92h-11.18c-.52-6.58-2.67-11.42-6.44-14.49-3.77-3.08-9.94-4.62-18.52-4.62-6.5,0-11.5,1.26-15.01,3.77-3.51,2.51-5.27,6.03-5.27,10.53s1.52,8.02,4.55,10.53c2.95,2.51,8.67,4.72,17.16,6.63l8.19,1.82c10.23,2.25,17.59,5.48,22.1,9.69,4.51,4.21,6.76,9.77,6.76,16.71,0,8.41-3.08,15.04-9.23,19.89-6.15,4.85-14.65,7.28-25.48,7.28Z"/>
      <path class="uuid-70a8db98-1c53-454c-8b7e-fb47c580ca3a" d="M113.05,280.48h74.23v9.88h-31.46v82.68h-11.31v-82.68h-31.46v-9.88Z"/>
      <path class="uuid-70a8db98-1c53-454c-8b7e-fb47c580ca3a" d="M253.97,365.5c-6.33,6.33-15.3,9.49-26.91,9.49s-20.58-3.16-26.91-9.49c-6.33-6.33-9.49-15.25-9.49-26.78v-58.24h10.92v58.24c0,17.59,8.49,26.39,25.48,26.39s25.48-8.8,25.48-26.39v-58.24h10.92v58.24c0,11.53-3.17,20.46-9.49,26.78Z"/>
      <path class="uuid-70a8db98-1c53-454c-8b7e-fb47c580ca3a" d="M275.29,280.48h31.2c14.04,0,25.13,4.07,33.28,12.22,8.06,8.15,12.09,19.5,12.09,34.06s-4.03,25.7-12.09,33.93c-8.23,8.23-19.33,12.35-33.28,12.35h-31.2v-92.56ZM286.21,363.16h20.28c10.92,0,19.31-3.21,25.16-9.62,5.85-6.41,8.77-15.34,8.77-26.78s-2.93-20.37-8.77-26.78c-5.85-6.41-14.24-9.62-25.16-9.62h-20.28v72.8Z"/>
      <path class="uuid-70a8db98-1c53-454c-8b7e-fb47c580ca3a" d="M372.01,373.04h-10.92v-92.56h10.92v92.56Z"/>
      <path class="uuid-70a8db98-1c53-454c-8b7e-fb47c580ca3a" d="M457.81,361.73c-8.15,8.93-18.9,13.39-32.24,13.39s-24.05-4.46-32.11-13.39c-8.15-8.75-12.22-20.41-12.22-34.97s4.07-26.17,12.22-35.1c8.06-8.84,18.76-13.26,32.11-13.26s24.09,4.42,32.24,13.26c8.06,9.01,12.09,20.71,12.09,35.1s-4.03,26.13-12.09,34.97ZM401.65,354.71c5.98,6.93,13.95,10.4,23.92,10.4s17.94-3.47,23.92-10.4c5.98-6.85,8.97-16.16,8.97-27.95s-2.99-21.1-8.97-27.95c-5.98-6.93-13.95-10.4-23.92-10.4s-17.94,3.47-23.92,10.4c-5.98,6.85-8.97,16.17-8.97,27.95s2.99,21.1,8.97,27.95Z"/>
      <path class="uuid-70a8db98-1c53-454c-8b7e-fb47c580ca3a" d="M511.76,375.12c-12.05,0-21.45-2.73-28.21-8.19-6.76-5.46-10.18-13.6-10.27-24.44h11.31c.26,15.17,9.32,22.75,27.17,22.75,7.54,0,13.33-1.47,17.35-4.42,4.03-2.95,6.04-7.24,6.04-12.87,0-4.42-1.67-7.87-5-10.33-3.34-2.47-9.17-4.62-17.48-6.44l-8.19-1.82c-9.36-2.17-16.38-5.31-21.06-9.43-4.68-4.12-7.02-9.9-7.02-17.35s2.86-13.24,8.58-17.62c5.72-4.38,13.39-6.56,23.01-6.56,6.5,0,12.16.78,16.97,2.34,4.81,1.56,8.56,3.75,11.24,6.56,2.69,2.82,4.66,5.87,5.92,9.17,1.26,3.29,1.93,6.93,2.02,10.92h-11.18c-.52-6.58-2.67-11.42-6.44-14.49-3.77-3.08-9.94-4.62-18.52-4.62-6.5,0-11.5,1.26-15.01,3.77-3.51,2.51-5.27,6.03-5.27,10.53s1.52,8.02,4.55,10.53c2.95,2.51,8.67,4.72,17.16,6.63l8.19,1.82c10.23,2.25,17.59,5.48,22.1,9.69,4.51,4.21,6.76,9.77,6.76,16.71,0,8.41-3.08,15.04-9.23,19.89-6.15,4.85-14.65,7.28-25.48,7.28Z"/>
    </g>
  </g>
</svg>