<?xml version="1.0" encoding="UTF-8"?>
<svg id="uuid-76ebd64e-77eb-45c7-9ea5-46657da20599" data-name="Layer 1" xmlns="http://www.w3.org/2000/svg" xmlns:xlink="http://www.w3.org/1999/xlink" viewBox="0 0 1920 940">
  <defs>
    <style>
      .uuid-e255681b-0a85-4406-b532-b12d5de1de90 {
        fill: none;
      }

      .uuid-e255681b-0a85-4406-b532-b12d5de1de90, .uuid-5e01fd87-f256-4d71-a862-5ea3db1cf481 {
        stroke-width: 0px;
      }

      .uuid-5e01fd87-f256-4d71-a862-5ea3db1cf481 {
        fill: #fff;
      }

      .uuid-705a5e98-c7b4-4dff-aba2-687b0acb540b {
        clip-path: url(#uuid-db5f820b-de24-44de-ad90-01df3bfdd062);
      }
    </style>
    <clipPath id="uuid-db5f820b-de24-44de-ad90-01df3bfdd062">
      <rect class="uuid-e255681b-0a85-4406-b532-b12d5de1de90" x="572.59" y="82.57" width="774.81" height="774.87"/>
    </clipPath>
  </defs>
  <g id="uuid-1713632e-fb3d-4c5b-afba-7dac0a68cee0" data-name="Group 804">
    <g class="uuid-705a5e98-c7b4-4dff-aba2-687b0acb540b">
      <g id="uuid-a0e81ace-9053-466f-b222-ee60bbeefbe5" data-name="Group 803">
        <path id="uuid-e2d61b7c-ae7b-49e7-b37b-9a87ccbc0659" data-name="Path 3589" class="uuid-5e01fd87-f256-4d71-a862-5ea3db1cf481" d="M1117.75,337.43c-10.87-19.44-28.94-32.84-49.15-41.47-24.58-10.5-51.19-14.95-77.85-14.52-25.02.38-49.87,4.28-73.8,11.59-21.86,6.75-42.75,16.84-61.07,30.61-18.39,13.82-35.04,30.79-44.06,52.27-4.22,10.12-6.56,20.91-6.93,31.87-.18,5.71.13,11.42.91,17.08.57,5.21,1.99,10.29,4.2,15.03,4,8.2,11.09,14.48,19.72,17.46,8.75,2.97,18.36,1.79,26.52-2.35,4.68-2.24,8.75-5.55,11.9-9.67,3.22-4.53,3.46-10.15,1.63-15.28-2.32-6.19-3.77-12.66-4.32-19.24-.46-6.68-.02-13.39,1.3-19.95,3.77-19.56,13.71-37.41,28.37-50.9,7.28-6.51,15.4-12,24.15-16.33,4.54-2.29,9.2-4.32,13.97-6.09,1.02-.38,2.02-.79,3.02-1.23.81-.36-.47.18.14-.06.33-.13.66-.27,1-.41.85-.34,1.7-.67,2.55-.99,5.23-1.93,10.57-3.55,15.99-4.85l-3.94-5.13c-7.13,10.12-13.63,20.67-19.48,31.59-13.82,24.92-24.95,51.23-33.22,78.49-5.06,16.83-10.1,33.66-15.12,50.5-4.71,15.8-9.19,31.67-14.06,47.42-4.55,14.71-9.81,29.25-17.51,42.64-3.37,5.85-6.7,12.53-13.39,15.03-3.14,1.17-6.6,1.62-9.84,2.47-3.2.84-6.38,1.78-9.52,2.85-12.74,4.36-25.54,10.91-33.77,21.91-4.47,5.97-7.3,13.72-5.98,21.22,1.13,6.4,5.71,10.83,11.6,13.11s12.49,2.28,18.71,2.04c7.85-.3,15.65-1.28,23.33-2.92,7.51-1.61,14.88-3.84,22.03-6.66,3.74-1.47,7.43-3.08,11.06-4.82,1.73-.83,3.45-1.7,5.16-2.6,1.41-.85,2.89-1.58,4.43-2.17,2.58-.97,5.44-.91,7.97.18,3.73,1.6,7.51,3.09,11.34,4.44,7.55,2.66,15.28,4.78,23.13,6.33,15.67,3.07,31.68,3.94,47.59,2.58,26.97-2.28,54.12-9.68,76.63-25.12,22.84-15.67,41.95-38.98,45.42-67.17,1.61-13.48-.63-27.14-6.47-39.4-6.03-12.75-15.82-23.05-27.49-30.82-5.82-3.8-11.93-7.13-18.27-9.98l-.83,6.38c23.51-7.99,47.05-17.32,65.36-34.71,15.47-14.69,25.75-35.08,25.74-56.65-.06-11.77-3.09-23.33-8.8-33.61-2.17-3.94-8.2-.42-6.03,3.52,9.34,16.97,10.11,36.91,2.93,54.81-8.16,20.35-25.54,34.85-44.41,44.99-11.7,6.28-24.1,10.66-36.64,14.92-2.57.87-3.77,5.03-.83,6.38,12.35,5.69,24.29,12.7,33.34,23.03,8.41,9.64,13.79,21.55,15.45,34.23,1.55,12.89-.56,25.95-6.11,37.69-5.74,12.27-14.71,22.79-24.8,31.72-19.25,17.03-43.56,26.55-68.67,30.83-14.83,2.58-29.93,3.24-44.93,1.98-15.33-1.41-30.38-4.98-44.71-10.61-3.39-1.32-6.75-3.31-10.43-3.6-3.35-.2-6.7.45-9.74,1.88-3.38,1.54-6.59,3.47-9.95,5.05-3.27,1.54-6.6,2.96-9.98,4.25-14.14,5.44-29.12,8.4-44.27,8.75-5.31.1-11.04.01-15.7-2.48-2.05-.97-3.69-2.62-4.64-4.68-1.06-2.77-1.22-5.8-.46-8.67,3.01-12.82,15.74-20.94,27-25.91,5.92-2.53,12.04-4.56,18.3-6.07,3.02-.76,6.19-1.2,9.1-2.34,3.42-1.25,6.51-3.27,9.02-5.91,2.46-2.97,4.64-6.16,6.5-9.53,1.98-3.28,3.83-6.63,5.54-10.06,3.37-6.81,6.34-13.8,8.91-20.95,5.22-14.31,9.18-29.04,13.51-43.63,4.9-16.53,9.82-33.04,14.78-49.55,4.67-15.58,9.13-31.23,14.92-46.44,4.91-12.82,10.48-25.38,16.7-37.62,7.42-14.89,15.83-29.26,25.18-43.02.46-.66.91-1.32,1.38-1.97,1.89-2.61-1.22-5.79-3.94-5.13-5.42,1.3-10.76,2.92-15.99,4.85-1.65.62-3.29,1.27-4.91,1.96-.37.16-.73.32-1.1.47-.85.36.72-.26-.47.15-9.58,3.36-18.73,7.86-27.24,13.4-16.12,10.46-29.32,25.01-37.18,42.62-4.76,10.43-7.69,21.6-8.68,33.02-.51,6.62-.16,13.28,1.05,19.82.6,3.26,1.43,6.47,2.48,9.61.82,2.45,1.96,4.85,1.93,7.49-.04,3.93-3.27,7.1-6.59,9.47-3.54,2.59-7.58,4.41-11.86,5.35-7.41,1.56-15.13-.16-21.17-4.72-7.05-5.34-10.42-13.66-11.66-22.47-1.52-10.43-1.17-21.05,1.02-31.36,2.28-10.19,6.36-19.88,12.05-28.63,6.02-9.36,13.65-17.49,21.9-24.93,16.41-14.67,35.32-26.28,55.83-34.26,21.41-8.4,44.17-13.32,67.03-15.53,26.17-2.53,52.75-1.18,78.02,6.46,20.4,6.17,40.57,15.99,54.61,32.48,3.25,3.85,6.11,8.02,8.55,12.43,2.19,3.92,8.22.41,6.03-3.52"/>
        <path id="uuid-cd3ceddd-0a11-493d-a67a-b71a8552b92c" data-name="Path 3590" class="uuid-5e01fd87-f256-4d71-a862-5ea3db1cf481" d="M1013.55,520.9c-.13,2.35-.35,4.7-.65,7.04.04-.31.08-.62.12-.93-.94,7.15-2.83,14.14-5.61,20.79l.35-.83c-1.49,3.53-3.25,6.94-5.24,10.21-1.01,1.65-2.08,3.27-3.2,4.85-.55.84-1.15,1.65-1.8,2.43,0,0,.57-.73.22-.28l-.22.28c-.15.19-.3.37-.45.56-.3.37-.6.74-.91,1.11-2.61,3.14-5.43,6.09-8.45,8.85-1.53,1.4-3.09,2.75-4.71,4.03-.19.15-.39.31-.58.46-.64.5.62-.47-.02.02-.41.31-.83.62-1.24.93-.8.58-1.61,1.15-2.43,1.71-3.58,2.41-7.37,4.48-11.34,6.16l.83-.35c-4.9,2.06-10.05,3.46-15.32,4.18l.93-.12c-5.76.74-11.6.71-17.35-.08l.93.12c-7.87-1.15-15.55-3.33-22.84-6.49l.83.35c-2.69-1.14-5.33-2.37-7.93-3.7l.71,5.48c5.7-6.66,10.92-13.72,15.62-21.12,4.41-6.98,8.39-14.22,11.93-21.67,3.63-7.61,6.86-15.41,9.8-23.32,2.84-7.65,5.39-15.39,7.78-23.19,2.41-7.84,4.65-15.72,6.86-23.62.27-.98.55-1.95.82-2.93l-2.44,2.44c1.29-.27,2.6-.49,3.91-.67l-.93.12c4.5-.6,9.07-.61,13.57-.03l-.93-.12c4.35.58,8.61,1.74,12.66,3.44l-.83-.35c2.23.94,4.39,2.05,6.45,3.31,1.01.61,1.99,1.26,2.95,1.95.24.17.48.34.71.52.24.18,1.13.89.11.08.46.37.92.73,1.37,1.11,1.84,1.54,3.56,3.22,5.14,5.01.36.4.71.81,1.05,1.23.19.23.37.46.55.69.09.11.18.23.27.35-.77-.96-.27-.34-.1-.12.71.94,1.38,1.91,2.02,2.9,1.48,2.3,2.75,4.72,3.81,7.23l-.35-.83c1.64,3.92,2.76,8.04,3.33,12.24-.04-.31-.08-.62-.12-.93.42,3.15.54,6.33.37,9.49.01,1.92,1.57,3.48,3.49,3.49,1.91-.04,3.45-1.58,3.49-3.49.75-12.8-3.3-25.42-11.37-35.39-3.75-4.65-8.28-8.6-13.4-11.67-5.2-3.14-10.91-5.35-16.88-6.52-6.55-1.25-13.27-1.32-19.84-.21-.79.13-1.58.28-2.36.44-1.19.32-2.12,1.25-2.44,2.44-2.28,8.15-4.57,16.29-7.02,24.39s-5.06,16.12-7.97,24.06c-1.64,4.47-3.38,8.9-5.22,13.3l.35-.83c-3.04,7.26-6.45,14.35-10.21,21.26-3.82,7-8.08,13.76-12.76,20.22-.66.91-1.33,1.81-2,2.7-.19.24-.37.49-.56.73l-.19.24c-.05.06-.47.61-.1.13.33-.43.04-.05-.04.05l-.32.4c-.17.22-.34.43-.51.65-1.46,1.84-2.95,3.66-4.48,5.44-.75.78-1.1,1.86-.96,2.93.11,1.07.73,2.02,1.67,2.55,10.44,5.3,21.5,9.27,33.16,10.74,9.88,1.29,19.93.29,29.36-2.92,9.95-3.62,19.03-9.27,26.68-16.58,15.63-14.17,25.32-33.73,27.12-54.75.12-1.27.22-2.54.28-3.82-.01-1.92-1.57-3.48-3.49-3.49-1.91.04-3.45,1.58-3.49,3.49"/>
        <path id="uuid-59086a3c-3af0-44e2-abcf-5fcc505e52af" data-name="Path 3591" class="uuid-5e01fd87-f256-4d71-a862-5ea3db1cf481" d="M1021.67,422.69c-.81.73-1.63,1.43-2.47,2.13-.39.32-.78.63-1.17.94-.11.09-.23.17-.34.26-.02.01.59-.45.28-.22-.23.17-.45.34-.68.52-1.66,1.24-3.37,2.41-5.14,3.51-1.74,1.08-3.53,2.09-5.36,3.02-.93.47-1.86.93-2.81,1.36-.44.2-.88.4-1.33.6l-.67.29c-.19.08-.61.23.26-.11-.13.05-.26.11-.39.16-7.94,3.15-16.24,5.33-24.71,6.48-.6.09-1.2.17-1.8.26-.47.07.72-.09.25-.03l-.57.07c-.3.04-.61.08-.91.11-1.27.16-2.54.3-3.81.42-2.65.27-5.3.48-7.96.65l3.37,4.42c2.42-8.31,4.83-16.63,7.24-24.94,2.8-9.67,5.61-19.33,8.42-29,2.95-10.15,5.92-20.31,8.89-30.46,2.86-9.75,5.73-19.5,8.62-29.24,2.51-8.46,5.06-16.91,7.62-25.36.28-.92.56-1.84.84-2.75l-4.29,2.44c3.03.61,6.03,1.37,8.98,2.29,1.46.46,2.91.96,4.35,1.5.73.27,1.45.56,2.17.85.18.08.78.31.06.02.17.07.34.14.51.22.37.16.74.32,1.11.49,2.21,1,4.36,2.14,6.43,3.42,1,.62,1.98,1.27,2.93,1.96.21.15.43.31.64.47l.32.24c.46.34-.2-.16-.24-.19.46.37.92.73,1.37,1.1,1.7,1.43,3.3,2.98,4.77,4.64.33.37.66.75.97,1.14.18.22.35.43.53.65.09.11.36.46.01.01-.37-.48-.02-.02.07.09.65.87,1.26,1.76,1.85,2.67,1.15,1.8,2.16,3.69,3.02,5.64.05.12.46,1.05.2.44s.1.25.14.36c.22.55.43,1.11.63,1.67.36,1.02.69,2.04.98,3.08.61,2.2,1.08,4.44,1.41,6.69.02.13.03.27.06.4,0-.04-.12-.92-.05-.33.04.29.07.59.11.88.08.66.15,1.32.22,1.97.13,1.27.25,2.54.35,3.82.39,4.94.46,9.9.21,14.85-.13,2.43-.41,4.84-.68,7.27,0-.05.13-.9.04-.31-.02.14-.04.27-.06.41-.04.27-.08.55-.12.82-.09.61-.19,1.22-.3,1.83-.21,1.18-.44,2.36-.7,3.53-.51,2.3-1.12,4.58-1.83,6.84-.36,1.14-.75,2.28-1.16,3.4-.2.55-.41,1.09-.62,1.63-.1.26-.2.51-.31.77-.05.13-.1.25-.16.38-.28.7.33-.77.03-.07-1.93,4.48-4.29,8.76-7.04,12.79-.72,1.05-1.46,2.08-2.23,3.09-.09.12-.18.23-.27.35.04-.06.51-.65.14-.18-.18.23-.36.46-.55.69-.42.52-.84,1.04-1.27,1.55-1.72,2.04-3.53,4-5.44,5.87-.96.94-1.94,1.86-2.94,2.76-1.35,1.37-1.35,3.57,0,4.94,1.38,1.32,3.56,1.32,4.94,0,8.01-7.11,14.57-15.71,19.31-25.32,4.39-9.27,7.08-19.26,7.94-29.49.44-5,.53-10.03.27-15.04-.18-5.29-.8-10.55-1.84-15.73-1.95-9.23-6.59-17.67-13.33-24.27-8.1-7.82-18.76-12.52-29.55-15.27-1.49-.38-2.98-.72-4.49-1.02-1.85-.46-3.74.61-4.29,2.44-2.53,8.25-5.03,16.51-7.48,24.78-2.87,9.63-5.71,19.27-8.54,28.91-2.98,10.15-5.94,20.3-8.9,30.45-2.84,9.77-5.68,19.54-8.52,29.32-2.47,8.5-4.93,17.01-7.4,25.51l-.81,2.78c-.5,1.88.62,3.8,2.5,4.3.28.08.57.11.87.12,9.41-.5,18.76-1.81,27.95-3.91,8.47-1.98,16.6-5.2,24.13-9.57,4.34-2.59,8.42-5.61,12.18-8.99,1.35-1.37,1.35-3.57,0-4.94-1.38-1.32-3.56-1.32-4.94,0"/>
        <path id="uuid-2a5a80af-f01a-4260-94a1-47ee2b6c9f9e" data-name="Path 3592" class="uuid-5e01fd87-f256-4d71-a862-5ea3db1cf481" d="M1208.65,470c.02,137.33-111.29,248.69-248.62,248.71-74.26.01-144.65-33.17-191.9-90.46-32.59-39.37-52.18-87.87-56.09-138.83-2.04-26.34.1-52.83,6.32-78.5,24.64-100.99,109.54-175.98,212.8-187.96,26.19-3.01,52.69-1.88,78.54,3.34,101.89,20.78,180.09,102.76,196.05,205.51,1.94,12.64,2.91,25.41,2.89,38.2,0,4.49,6.99,4.5,6.98,0-.1-141.2-114.64-255.58-255.84-255.48-141.2.1-255.58,114.64-255.48,255.84.01,20.3,2.45,40.52,7.24,60.24,25.31,103.91,112.67,181.07,218.92,193.34,26.93,3.11,54.18,1.95,80.75-3.44,25.57-5.2,50.18-14.31,72.97-27.01,45.14-25.16,81.64-63.36,104.71-109.6,11.7-23.47,19.68-48.61,23.68-74.52,2-13.03,3.01-26.19,3.04-39.37,0-4.49-6.97-4.5-6.98,0"/>
        <path id="uuid-d0d65076-c721-4247-afd0-87c6feccb1fb" data-name="Path 3593" class="uuid-5e01fd87-f256-4d71-a862-5ea3db1cf481" d="M959.98,850.45c-210.13,0-380.48-170.34-380.48-380.47,0-198.59,152.73-363.78,350.71-379.32,209.52-16.38,392.65,140.2,409.02,349.72,15.48,198.1-124.06,374.76-320.35,405.58-19.49,3-39.18,4.5-58.9,4.49-4.49,0-4.5,6.99,0,6.98,80.42-.15,159.87-25.24,225.28-72.17,174.11-124.42,214.39-366.43,89.97-540.54-66.65-93.27-171.18-152.24-285.48-161.05-213.37-16.46-399.68,143.16-416.15,356.52-2.78,36.08-.5,72.36,6.78,107.81,15.7,76.99,55.44,148.21,112.25,202.41,56.74,54.12,129.74,90.41,207.28,102.38,19.88,3.06,39.96,4.61,60.07,4.63,4.49,0,4.5-6.97,0-6.98"/>
        <path id="uuid-fd70e420-4d03-48f8-a726-6aafc77ba9d4" data-name="Path 3594" class="uuid-5e01fd87-f256-4d71-a862-5ea3db1cf481" d="M1305.53,469.99c.11,190.8-154.48,345.57-345.29,345.67-67.54.04-133.6-19.72-190.03-56.83-28.85-19.01-54.72-42.22-76.74-68.84-45.35-54.75-72.61-122.22-78.03-193.11-2.82-36.57.15-73.36,8.8-109.01,34.27-140.38,152.31-244.58,295.85-261.18,36.38-4.16,73.18-2.59,109.07,4.67,141.49,28.89,250.1,142.71,272.32,285.4,2.71,17.62,4.06,35.41,4.05,53.23,0,4.49,6.99,4.5,6.98,0-.11-194.61-157.96-352.27-352.57-352.16s-352.27,157.96-352.16,352.57c.11,194.61,157.96,352.27,352.57,352.16,23.58-.01,47.1-2.39,70.2-7.11,35.28-7.17,69.24-19.74,100.69-37.25,62.29-34.71,112.64-87.42,144.47-151.23,16.13-32.39,27.14-67.08,32.65-102.84,2.74-17.92,4.13-36.02,4.16-54.14,0-4.49-6.97-4.5-6.98,0"/>
        <path id="uuid-8f8b0df6-1fee-41cc-a162-0e71f00998af" data-name="Path 3595" class="uuid-5e01fd87-f256-4d71-a862-5ea3db1cf481" d="M958.82,86.04v34.9c.02.64.55,1.15,1.2,1.13.62-.02,1.11-.51,1.13-1.13v-34.9c-.02-.64-.55-1.15-1.2-1.13-.62.02-1.11.51-1.13,1.13"/>
        <path id="uuid-1b1e6950-fd51-47a0-91d0-0c698fd3bd41" data-name="Path 3596" class="uuid-5e01fd87-f256-4d71-a862-5ea3db1cf481" d="M878.78,94.27l2.46,11.58c1.3,6.11,2.6,12.22,3.9,18.33l.9,4.23c.31,1.46,2.55.84,2.24-.62-.82-3.86-1.64-7.72-2.46-11.58l-3.9-18.33-.9-4.23c-.31-1.46-2.55-.84-2.24.62"/>
        <path id="uuid-07685c0a-68ed-44a5-b84d-0aaf3fdd96d7" data-name="Path 3597" class="uuid-5e01fd87-f256-4d71-a862-5ea3db1cf481" d="M802.23,118.94l4.82,10.82,7.62,17.12,1.76,3.95c.33.55,1.04.74,1.59.42.54-.33.72-1.04.42-1.59l-4.82-10.82-7.62-17.12-1.76-3.95c-.33-.55-1.04-.74-1.59-.42-.54.33-.72,1.04-.42,1.59"/>
        <path id="uuid-6798a092-34f3-402b-8cc9-fbbdac97ee3e" data-name="Path 3598" class="uuid-5e01fd87-f256-4d71-a862-5ea3db1cf481" d="M732.3,158.74l6.96,9.58,11.01,15.16,2.54,3.5c.34.54,1.03.72,1.59.42.55-.33.74-1.04.42-1.59l-6.96-9.58-11.01-15.16-2.54-3.5c-.34-.54-1.03-.72-1.59-.42-.55.33-.74,1.04-.42,1.59"/>
        <path id="uuid-bc78d0c5-98c8-419d-a47e-f6794b3345d4" data-name="Path 3599" class="uuid-5e01fd87-f256-4d71-a862-5ea3db1cf481" d="M672.35,212.45l8.8,7.92,13.93,12.54,3.21,2.89c1.11,1,2.76-.64,1.65-1.65l-8.8-7.92-13.93-12.54-3.21-2.89c-1.11-1-2.76.64-1.65,1.65"/>
        <path id="uuid-ac0b861a-c493-4890-aba1-2aa11e6bd77f" data-name="Path 3600" class="uuid-5e01fd87-f256-4d71-a862-5ea3db1cf481" d="M624.89,277.43l10.25,5.92,16.23,9.37,3.74,2.16c.56.31,1.27.1,1.58-.47.29-.54.12-1.22-.4-1.54l-10.25-5.92-16.23-9.37-3.75-2.16c-.56-.31-1.27-.11-1.58.45-.3.54-.12,1.23.41,1.56"/>
        <path id="uuid-41eda578-7118-4d2a-a7d7-798052c88e48" data-name="Path 3601" class="uuid-5e01fd87-f256-4d71-a862-5ea3db1cf481" d="M591.99,350.85l11.26,3.66,17.82,5.79,4.11,1.34c1.43.46,2.04-1.78.62-2.24l-11.26-3.66-17.82-5.79-4.11-1.34c-1.43-.46-2.04,1.78-.62,2.24"/>
        <path id="uuid-24a98a5a-2078-423f-9380-64750825eb5b" data-name="Path 3602" class="uuid-5e01fd87-f256-4d71-a862-5ea3db1cf481" d="M575.09,429.49l11.77,1.24,18.64,1.96,4.3.45c.64,0,1.16-.52,1.16-1.16-.01-.64-.53-1.15-1.16-1.16l-11.78-1.24-18.63-1.96-4.3-.45c-.64,0-1.16.52-1.16,1.16.01.64.53,1.15,1.16,1.16"/>
        <path id="uuid-e847deb0-99fd-43cf-9cea-abe6be2aa317" data-name="Path 3603" class="uuid-5e01fd87-f256-4d71-a862-5ea3db1cf481" d="M574.59,509.95l11.78-1.24,18.64-1.96,4.3-.45c.63-.02,1.14-.53,1.16-1.16,0-.64-.52-1.16-1.16-1.16l-11.77,1.24-18.64,1.96-4.3.45c-.63.02-1.14.53-1.16,1.16,0,.64.52,1.16,1.16,1.16"/>
        <path id="uuid-0b48c113-1680-42c3-9d8c-5570c3157d57" data-name="Path 3604" class="uuid-5e01fd87-f256-4d71-a862-5ea3db1cf481" d="M591.15,588.72l11.26-3.66,17.82-5.79,4.11-1.34c1.42-.46.81-2.71-.62-2.24l-11.26,3.66-17.82,5.79-4.11,1.34c-1.42.46-.81,2.71.62,2.24"/>
        <path id="uuid-906c0724-e63e-4331-ac4d-ebfb2234dd2a" data-name="Path 3605" class="uuid-5e01fd87-f256-4d71-a862-5ea3db1cf481" d="M623.7,662.31l10.25-5.92,16.23-9.37,3.74-2.16c.55-.34.72-1.05.38-1.6-.33-.53-1.01-.71-1.56-.41l-10.25,5.92-16.23,9.37-3.75,2.16c-.55.34-.72,1.05-.38,1.6.33.53,1.01.71,1.56.41"/>
        <path id="uuid-7ff7b4bb-5b24-400a-854d-e804964145a9" data-name="Path 3606" class="uuid-5e01fd87-f256-4d71-a862-5ea3db1cf481" d="M670.83,727.51l8.8-7.92,13.93-12.54,3.21-2.89c1.12-1-.54-2.65-1.65-1.65l-8.8,7.92-13.93,12.54-3.21,2.89c-1.12,1,.54,2.65,1.65,1.65"/>
        <path id="uuid-9c6c31c8-4d27-4562-aa5e-8fbb92b844c6" data-name="Path 3607" class="uuid-5e01fd87-f256-4d71-a862-5ea3db1cf481" d="M730.47,781.48l6.96-9.58,11.01-15.16,2.54-3.5c.32-.56.13-1.26-.42-1.59-.56-.31-1.26-.13-1.59.42l-6.96,9.58-11.01,15.16-2.54,3.5c-.32.56-.13,1.26.42,1.59.56.31,1.26.13,1.59-.42"/>
        <path id="uuid-3a56df00-4257-4ff7-a60f-051644cf9f9e" data-name="Path 3608" class="uuid-5e01fd87-f256-4d71-a862-5ea3db1cf481" d="M799.9,822.14l4.82-10.82,7.62-17.12,1.76-3.95c.3-.56.12-1.26-.42-1.59-.56-.32-1.26-.13-1.59.42l-4.82,10.82-7.62,17.12-1.76,3.95c-.3.56-.12,1.26.42,1.59.56.32,1.26.13,1.59-.42"/>
        <path id="uuid-9220cb47-360e-49eb-a92e-4f1828a0c65d" data-name="Path 3609" class="uuid-5e01fd87-f256-4d71-a862-5ea3db1cf481" d="M876.39,847.2l2.46-11.58c1.3-6.11,2.6-12.22,3.9-18.33l.9-4.23c.31-1.46-1.93-2.08-2.24-.62l-2.46,11.58c-1.3,6.11-2.6,12.22-3.9,18.33l-.9,4.23c-.31,1.46,1.93,2.08,2.24.62"/>
        <path id="uuid-40554e7d-4ae1-405a-9dc9-d7eef2222a7a" data-name="Path 3610" class="uuid-5e01fd87-f256-4d71-a862-5ea3db1cf481" d="M956.4,855.79v-34.9c-.02-.64-.55-1.15-1.2-1.13-.62.02-1.11.51-1.13,1.13v34.9c.02.64.55,1.15,1.2,1.13.62-.02,1.11-.51,1.13-1.13"/>
        <path id="uuid-1d2abbf2-17b0-424a-804e-2b709e2f0681" data-name="Path 3611" class="uuid-5e01fd87-f256-4d71-a862-5ea3db1cf481" d="M1036.43,847.57l-2.46-11.58-3.9-18.33-.9-4.23c-.31-1.46-2.55-.84-2.24.62.82,3.86,1.64,7.72,2.46,11.58,1.3,6.11,2.6,12.22,3.9,18.33l.9,4.23c.31,1.46,2.55.84,2.24-.62"/>
        <path id="uuid-73d79b3d-7518-4417-8ed5-d18dc5b8514b" data-name="Path 3612" class="uuid-5e01fd87-f256-4d71-a862-5ea3db1cf481" d="M1112.99,822.9l-4.82-10.82-7.62-17.12-1.76-3.95c-.33-.55-1.04-.74-1.59-.42-.54.33-.72,1.04-.42,1.59l4.82,10.82,7.62,17.12,1.76,3.95c.33.55,1.04.74,1.59.42.54-.33.73-1.04.42-1.59"/>
        <path id="uuid-624dd480-17dd-45db-86e9-895af6cdc1fa" data-name="Path 3613" class="uuid-5e01fd87-f256-4d71-a862-5ea3db1cf481" d="M1182.92,783.1l-6.96-9.58-11.01-15.16-2.54-3.5c-.34-.54-1.03-.72-1.59-.42-.55.33-.74,1.04-.42,1.59l6.96,9.58,11.01,15.16,2.54,3.5c.34.54,1.03.72,1.59.42.55-.33.74-1.04.42-1.59"/>
        <path id="uuid-a13f3c46-8a47-48be-ad61-fc32bb8878ef" data-name="Path 3614" class="uuid-5e01fd87-f256-4d71-a862-5ea3db1cf481" d="M1242.86,729.39l-8.8-7.92-13.93-12.54-3.21-2.89c-1.11-1-2.76.64-1.65,1.65l8.8,7.92,13.93,12.54,3.21,2.89c1.11,1,2.76-.64,1.65-1.65"/>
        <path id="uuid-acfaae2a-e452-4b58-a9d9-82beae53d5f4" data-name="Path 3615" class="uuid-5e01fd87-f256-4d71-a862-5ea3db1cf481" d="M1290.32,664.41l-10.26-5.92-16.23-9.37-3.75-2.16c-.56-.31-1.27-.1-1.58.47-.29.54-.12,1.22.4,1.54l10.25,5.92,16.23,9.37,3.74,2.16c.56.31,1.27.11,1.58-.45.3-.54.12-1.23-.41-1.56"/>
        <path id="uuid-40157405-d971-4df4-85b6-76267bcb605e" data-name="Path 3616" class="uuid-5e01fd87-f256-4d71-a862-5ea3db1cf481" d="M1323.22,590.99l-11.26-3.66-17.82-5.79-4.11-1.34c-1.43-.46-2.04,1.78-.62,2.24l11.26,3.66,17.82,5.79,4.11,1.34c1.43.46,2.04-1.78.62-2.24"/>
        <path id="uuid-a3810e6f-b41b-4e88-a8e7-d0053bc889f7" data-name="Path 3617" class="uuid-5e01fd87-f256-4d71-a862-5ea3db1cf481" d="M1340.12,512.34l-11.78-1.24-18.64-1.96-4.3-.45c-.64,0-1.16.52-1.16,1.16.01.64.53,1.15,1.16,1.16l11.78,1.24,18.64,1.96,4.3.45c.64,0,1.16-.52,1.16-1.16-.01-.64-.53-1.15-1.16-1.16"/>
        <path id="uuid-67ed227a-4702-4032-a82c-2ae03cb353aa" data-name="Path 3618" class="uuid-5e01fd87-f256-4d71-a862-5ea3db1cf481" d="M1340.62,431.88l-11.78,1.24-18.64,1.96-4.3.45c-.63.02-1.14.53-1.16,1.16,0,.64.52,1.16,1.16,1.16l11.78-1.24,18.64-1.96,4.3-.45c.63-.02,1.14-.53,1.16-1.16,0-.64-.52-1.16-1.16-1.16"/>
        <path id="uuid-de3ba322-40a1-4e82-91bf-1891bac540b2" data-name="Path 3619" class="uuid-5e01fd87-f256-4d71-a862-5ea3db1cf481" d="M1324.07,353.12l-11.26,3.66-17.82,5.79-4.11,1.34c-1.42.46-.81,2.71.62,2.24l11.26-3.66,17.82-5.79,4.11-1.34c1.42-.46.81-2.71-.62-2.24"/>
        <path id="uuid-16160ba1-9f24-4ede-b360-1defbfb5cbc7" data-name="Path 3620" class="uuid-5e01fd87-f256-4d71-a862-5ea3db1cf481" d="M1291.52,279.53l-10.26,5.92-16.23,9.37-3.74,2.16c-.55.34-.72,1.05-.38,1.6.33.53,1.01.71,1.56.41l10.26-5.92,16.23-9.37,3.74-2.16c.54-.34.71-1.06.37-1.6-.33-.52-1-.7-1.54-.4"/>
        <path id="uuid-aa33ca82-78b6-47a3-8acd-ea59b3673878" data-name="Path 3621" class="uuid-5e01fd87-f256-4d71-a862-5ea3db1cf481" d="M1244.39,214.33l-8.8,7.92-13.93,12.54-3.21,2.89c-1.11,1,.54,2.64,1.65,1.64l8.8-7.92,13.93-12.54,3.21-2.89c1.11-1-.54-2.65-1.65-1.65"/>
        <path id="uuid-dc31aa63-907a-450b-aa63-3da7b8e1b9be" data-name="Path 3622" class="uuid-5e01fd87-f256-4d71-a862-5ea3db1cf481" d="M1184.74,160.36l-6.96,9.58-11.01,15.16-2.54,3.5c-.32.56-.13,1.26.42,1.59.56.31,1.26.13,1.59-.42l6.96-9.58,11.01-15.16,2.54-3.5c.32-.56.13-1.26-.42-1.59-.56-.31-1.26-.13-1.59.42"/>
        <path id="uuid-dc6c81ec-85be-4925-bec9-a7323bf0ae3a" data-name="Path 3623" class="uuid-5e01fd87-f256-4d71-a862-5ea3db1cf481" d="M1115.31,119.7l-4.82,10.82-7.62,17.12-1.76,3.95c-.3.56-.12,1.26.42,1.59.56.32,1.26.13,1.59-.42l4.82-10.82,7.62-17.12,1.76-3.95c.3-.56.12-1.26-.42-1.59-.56-.32-1.26-.13-1.59.42"/>
        <path id="uuid-8bd53c16-ea26-47ab-8d84-4e2359615f14" data-name="Path 3624" class="uuid-5e01fd87-f256-4d71-a862-5ea3db1cf481" d="M1038.82,94.64l-2.46,11.58c-1.3,6.11-2.6,12.22-3.9,18.33l-.9,4.23c-.31,1.46,1.93,2.08,2.24.62l2.46-11.58,3.9-18.33.9-4.23c.31-1.46-1.93-2.09-2.24-.62"/>
      </g>
    </g>
  </g>
</svg>