<?xml version="1.0" encoding="UTF-8"?>
<svg id="uuid-066e7fd4-a2b5-46c6-ae37-b2e92ae41cb2" data-name="Layer 1" xmlns="http://www.w3.org/2000/svg" viewBox="0 0 1923 325.02">
  <defs>
    <style>
      .uuid-01215f8a-9ce2-4f93-a8d1-b081d8393bd7 {
        fill: #fff;
        stroke-width: 0px;
      }

      .st3{fill:#FFFFFF;}
	.st4{fill:#FFFFFF;}
    </style>
  </defs>
  <g>
    <polygon class="st4" points="558.57 204.42 540.69 204.42 595.89 111.89 613.77 111.89 558.57 204.42"/>
    <polygon class="st4" points="606.68 204.42 588.8 204.42 644 111.89 661.88 111.89 606.68 204.42"/>
    <polygon class="st4" points="654.78 204.42 636.91 204.42 692.11 111.89 709.99 111.89 654.78 204.42"/>
    <polygon class="st4" points="702.89 204.42 685.01 204.42 740.22 111.89 758.09 111.89 702.89 204.42"/>
    <polygon class="st4" points="751 204.42 733.12 204.42 788.32 111.89 806.2 111.89 751 204.42"/>
    <polygon class="st4" points="799.11 204.42 781.23 204.42 836.43 111.89 854.31 111.89 799.11 204.42"/>
  </g>
  <polygon class="uuid-01215f8a-9ce2-4f93-a8d1-b081d8393bd7" points="43 6.5 43 13 14.68 13 14.68 41.32 8.18 41.32 8.18 6.5 43 6.5"/>
  <polygon class="uuid-01215f8a-9ce2-4f93-a8d1-b081d8393bd7" points="1881.65 7.5 1881.65 14 1909.97 14 1909.97 42.32 1916.47 42.32 1916.47 7.5 1881.65 7.5"/>
  <polygon class="uuid-01215f8a-9ce2-4f93-a8d1-b081d8393bd7" points="42.33 319.44 42.33 312.95 14.01 312.95 14.01 284.62 7.51 284.62 7.51 319.44 42.33 319.44"/>
  <polygon class="uuid-01215f8a-9ce2-4f93-a8d1-b081d8393bd7" points="1881.65 318.44 1881.65 311.95 1909.97 311.95 1909.97 283.62 1916.47 283.62 1916.47 318.44 1881.65 318.44"/>
  <g>
    <rect class="uuid-01215f8a-9ce2-4f93-a8d1-b081d8393bd7" x="1680.87" y="73.09" width="2.15" height="50.44"/>
    <rect class="uuid-01215f8a-9ce2-4f93-a8d1-b081d8393bd7" x="1689.48" y="73.09" width="4.3" height="50.44"/>
    <rect class="uuid-01215f8a-9ce2-4f93-a8d1-b081d8393bd7" x="1700.23" y="73.09" width="2.15" height="50.44"/>
    <rect class="uuid-01215f8a-9ce2-4f93-a8d1-b081d8393bd7" x="1704.53" y="73.09" width="2.15" height="50.44"/>
    <rect class="uuid-01215f8a-9ce2-4f93-a8d1-b081d8393bd7" x="1715.28" y="73.09" width="2.15" height="50.44"/>
    <rect class="uuid-01215f8a-9ce2-4f93-a8d1-b081d8393bd7" x="1719.58" y="73.09" width="8.6" height="50.44"/>
    <rect class="uuid-01215f8a-9ce2-4f93-a8d1-b081d8393bd7" x="1730.34" y="73.09" width="2.15" height="50.44"/>
    <rect class="uuid-01215f8a-9ce2-4f93-a8d1-b081d8393bd7" x="1734.64" y="73.09" width="2.15" height="50.44"/>
    <rect class="uuid-01215f8a-9ce2-4f93-a8d1-b081d8393bd7" x="1743.24" y="73.09" width="4.3" height="50.44"/>
    <rect class="uuid-01215f8a-9ce2-4f93-a8d1-b081d8393bd7" x="1749.69" y="73.09" width="6.45" height="50.44"/>
    <rect class="uuid-01215f8a-9ce2-4f93-a8d1-b081d8393bd7" x="1760.44" y="73.09" width="2.15" height="50.44"/>
    <rect class="uuid-01215f8a-9ce2-4f93-a8d1-b081d8393bd7" x="1764.74" y="73.09" width="2.15" height="50.44"/>
    <rect class="uuid-01215f8a-9ce2-4f93-a8d1-b081d8393bd7" x="1775.5" y="73.09" width="2.15" height="50.44"/>
    <rect class="uuid-01215f8a-9ce2-4f93-a8d1-b081d8393bd7" x="1779.8" y="73.09" width="2.15" height="50.44"/>
    <rect class="uuid-01215f8a-9ce2-4f93-a8d1-b081d8393bd7" x="1784.1" y="73.09" width="2.15" height="50.44"/>
    <rect class="uuid-01215f8a-9ce2-4f93-a8d1-b081d8393bd7" x="1788.4" y="73.09" width="2.15" height="50.44"/>
    <rect class="uuid-01215f8a-9ce2-4f93-a8d1-b081d8393bd7" x="1792.7" y="73.09" width="6.45" height="50.44"/>
    <rect class="uuid-01215f8a-9ce2-4f93-a8d1-b081d8393bd7" x="1803.45" y="73.09" width="2.15" height="50.44"/>
    <rect class="uuid-01215f8a-9ce2-4f93-a8d1-b081d8393bd7" x="1809.91" y="73.09" width="6.45" height="50.44"/>
    <rect class="uuid-01215f8a-9ce2-4f93-a8d1-b081d8393bd7" x="1818.51" y="73.09" width="4.3" height="50.44"/>
    <rect class="uuid-01215f8a-9ce2-4f93-a8d1-b081d8393bd7" x="1824.96" y="73.09" width="4.3" height="50.44"/>
    <rect class="uuid-01215f8a-9ce2-4f93-a8d1-b081d8393bd7" x="1833.56" y="73.09" width="2.15" height="50.44"/>
    <rect class="uuid-01215f8a-9ce2-4f93-a8d1-b081d8393bd7" x="1840.01" y="73.09" width="6.45" height="50.44"/>
    <rect class="uuid-01215f8a-9ce2-4f93-a8d1-b081d8393bd7" x="1848.62" y="73.09" width="2.15" height="50.44"/>
    <rect class="uuid-01215f8a-9ce2-4f93-a8d1-b081d8393bd7" x="1859.37" y="73.09" width="2.15" height="50.44"/>
    <rect class="uuid-01215f8a-9ce2-4f93-a8d1-b081d8393bd7" x="1863.67" y="73.09" width="6.45" height="50.44"/>
    <rect class="uuid-01215f8a-9ce2-4f93-a8d1-b081d8393bd7" x="1874.42" y="73.09" width="2.15" height="50.44"/>
    <rect class="uuid-01215f8a-9ce2-4f93-a8d1-b081d8393bd7" x="1878.72" y="73.09" width="2.15" height="50.44"/>
    <rect class="uuid-01215f8a-9ce2-4f93-a8d1-b081d8393bd7" x="1883.03" y="73.09" width="2.15" height="50.44"/>
  </g>
  <g>
    <path class="st3" d="m91.32,117.04c-.05-.54-.18-1.25-.41-2.12-.27-.82-.69-1.63-1.26-2.43-.54-.92-1.34-1.67-2.38-2.26-1.02-.52-2.34-.78-3.95-.78-3.49.09-5.96,1.59-7.39,4.48-1.45,2.82-2.16,6.04-2.11,9.66-.05,3.62.66,6.84,2.11,9.66,1.43,2.94,3.89,4.43,7.39,4.48,2.54,0,4.45-.83,5.72-2.5,1.2-1.6,1.99-3.62,2.35-6.06h15.09c-.05,5.41-2,10.25-5.86,14.51-3.86,4.43-9.49,6.71-16.89,6.85-8.04-.09-14.25-2.71-18.63-7.84-4.4-4.99-6.61-11.36-6.61-19.09.04-8.25,2.34-14.78,6.88-19.58,4.47-4.85,10.59-7.3,18.36-7.35,13.67.38,21.18,7.17,22.54,20.37h-14.96Z"/>
    <path class="st3" d="m113.62,97.9h15.33v17.86h15.37v-17.86h15.32v51.4h-15.32v-20.39h-15.37v20.39h-15.33v-51.4Z"/>
    <path class="st3" d="m169.24,97.9h41.19v13.15h-25.87v6.44h23.49v12.23h-23.49v6.44h26.65v13.14h-41.98v-51.4Z"/>
    <path class="st3" d="m246.75,149.3h-17.15l-14.83-51.4h15.48l8.13,31.19h.17l7.99-31.19h15.75l-15.55,51.4Z"/>
    <path class="st3" d="m265.6,97.9h29.85c4.59,0,8.49,1.22,11.69,3.66,3.18,2.46,4.81,6.14,4.9,11.04,0,2.72-.6,5.29-1.79,7.7-1.31,2.34-3.28,4.07-5.91,5.17,4.41,1.88,6.93,6.15,7.56,12.83.09.61.16,1.39.21,2.36.09.96.16,1.99.2,3.09.18,2.32.6,4.17,1.26,5.55h-15.35c-.68-2.61-1.09-5.25-1.23-7.93-.05-1.27-.18-2.52-.4-3.77-.19-1.15-.53-2.21-1.02-3.17-.46-.96-1.16-1.73-2.1-2.29-.94-.54-2.23-.81-3.85-.81h-8.71v17.96h-15.33v-51.4Zm15.33,22.46h8.58c1.67.05,3.26-.25,4.77-.88,1.58-.61,2.39-2.03,2.44-4.25,0-1.67-.55-2.93-1.64-3.8-1.24-.87-3.39-1.3-6.47-1.3h-7.67v10.23Z"/>
    <path class="st3" d="m318.44,123.6c.04-8.02,2.4-14.47,7.05-19.37,4.5-4.94,10.56-7.46,18.19-7.56,7.72.09,13.84,2.61,18.36,7.56,4.54,4.9,6.83,11.36,6.88,19.37-.05,7.97-2.34,14.4-6.88,19.3-4.52,4.99-10.64,7.54-18.36,7.63-7.63-.09-13.69-2.64-18.19-7.63-4.65-4.9-7.01-11.33-7.05-19.3Zm15.32,0c0,2.8.35,5.11,1.06,6.94.66,1.86,1.5,3.31,2.52,4.37,2.14,1.93,4.25,2.87,6.34,2.82.98,0,2.07-.21,3.27-.63,1.16-.45,2.23-1.17,3.2-2.19,1.04-1.06,1.89-2.51,2.52-4.37.61-1.83.92-4.15.92-6.94s-.31-5.28-.92-7.16c-.64-1.88-1.48-3.3-2.52-4.27-2.18-1.88-4.34-2.78-6.48-2.71-.98,0-2.02.17-3.14.49-1.11.42-2.18,1.16-3.2,2.22-.48.49-.92,1.08-1.33,1.76-.43.71-.83,1.54-1.19,2.5-.7,1.88-1.06,4.26-1.06,7.16Z"/>
    <path class="st3" d="m377.3,97.9h15.7l14.47,27.5h.17v-27.5h14.48v51.4h-14.95l-15.26-28.09h-.14v28.09h-14.48v-51.4Z"/>
    <path class="st3" d="m71.61,183.04h-13.94v-13.15h43.22v13.15h-13.96v38.25h-15.32v-38.25Z"/>
    <path class="st3" d="m139.64,221.3h-13.58v-4.75h-.14c-2.5,3.75-6.51,5.65-12.02,5.7-3.36,0-6.28-1.05-8.75-3.16-2.55-2.13-3.85-5.31-3.89-9.53v-25.63h13.77v19.61c-.05,2.16.23,3.92.85,5.28.59,1.38,1.93,2.08,4.04,2.08,1.35.05,2.68-.43,4-1.44.59-.47,1.09-1.21,1.51-2.22.29-.92.44-2.1.44-3.56v-19.75h13.78v37.37Z"/>
    <path class="st3" d="m147.9,183.93h13.24v5.98h.14c1.11-2.25,2.48-3.97,4.12-5.17,1.57-1.15,3.59-1.72,6.06-1.72,1.38,0,2.73.19,4.05.56v12.58c-.66-.28-1.39-.52-2.18-.7-.79-.14-1.88-.21-3.27-.21-5.54-.09-8.33,3.67-8.38,11.29v14.77h-13.77v-37.37Z"/>
    <path class="st3" d="m181.16,183.93h13.72v4.75h.14c2.53-3.77,6.57-5.66,12.14-5.66,3.38,0,6.28,1.03,8.71,3.09,2.4,2.06,3.63,5.25,3.68,9.56v25.63h-13.78v-19.61c.05-2.21-.21-3.99-.77-5.35-.59-1.34-1.96-2.01-4.11-2.01-1.35-.05-2.63.39-3.86,1.3-.59.47-1.09,1.18-1.51,2.15-.39,1.01-.59,2.27-.59,3.77v19.75h-13.77v-37.37Z"/>
    <path class="st3" d="m265.91,179.88h-13.77v-9.98h13.77v9.98Zm-13.77,4.05h13.77v37.37h-13.77v-37.37Z"/>
    <path class="st3" d="m291.12,183.93h7.41v8.79h-7.41v13.07c-.05,1.71.24,2.96.85,3.74.59.82,1.73,1.23,3.41,1.23,1.07,0,2.12-.07,3.14-.21v10.76c-2.88.09-5.83.23-8.84.42-1.5,0-2.94-.12-4.32-.35-1.43-.28-2.75-.76-3.98-1.44-1.2-.77-2.15-1.89-2.86-3.36-.79-1.49-1.19-3.48-1.19-5.96v-17.9h-6.17v-8.79h6.17v-11.36h13.77v11.36Z"/>
    <path class="st3" d="m366.26,221.3h-13.58v-4.75h-.14c-2.5,3.75-6.51,5.65-12.02,5.7-3.36,0-6.28-1.05-8.75-3.16-2.55-2.13-3.85-5.31-3.89-9.53v-25.63h13.77v19.61c-.05,2.16.23,3.92.85,5.28.59,1.38,1.93,2.08,4.04,2.08,1.35.05,2.68-.43,4-1.44.59-.47,1.09-1.21,1.51-2.22.29-.92.44-2.1.44-3.56v-19.75h13.78v37.37Z"/>
    <path class="st3" d="m373.67,183.93h13.31v4.11h.14c.45-.68.96-1.3,1.53-1.86.54-.63,1.19-1.16,1.94-1.58,1.5-1.01,3.87-1.53,7.12-1.58,2.61.05,4.89.62,6.84,1.72,1.86,1.15,3.42,2.68,4.67,4.61,2.47,4.03,3.71,8.52,3.71,13.46,0,2.2-.22,4.43-.65,6.68-.45,2.25-1.27,4.34-2.45,6.26-2.27,4.17-6.38,6.34-12.33,6.5-4.34-.05-7.64-1.73-9.91-5.04h-.14v16.19h-13.78v-49.46Zm13.31,18.76c0,1.06.1,2.14.29,3.24.19,1.1.52,2.09.99,2.96.92,1.97,2.67,2.98,5.22,3.03,1.34,0,2.46-.32,3.36-.95.85-.52,1.5-1.21,1.94-2.08.8-1.88,1.2-3.95,1.2-6.2,0-2.37-.4-4.52-1.2-6.45-.44-.87-1.08-1.56-1.94-2.08-.9-.54-2.02-.81-3.36-.81-2.56.05-4.3,1.01-5.22,2.89-.46.87-.79,1.86-.99,2.96-.19,1.15-.29,2.31-.29,3.49Z"/>
  </g>
  <g>
    <path class="uuid-01215f8a-9ce2-4f93-a8d1-b081d8393bd7" d="m1528.54,134.9h16.73c2.22,0,4.1.35,5.64,1.06,1.53.7,2.74,1.62,3.64,2.76,1.79,2.43,2.67,4.9,2.64,7.41-.03,3.92-1.23,6.85-3.59,8.78s-5.47,2.9-9.3,2.9h-5.98v9.93h-9.79v-32.84Zm9.79,15.09h4.04c1.42.03,2.69-.14,3.81-.52.54-.24.98-.61,1.32-1.1.29-.47.44-1.1.44-1.89-.03-1.47-.53-2.38-1.49-2.73-.98-.33-2.13-.48-3.46-.45h-4.67v6.7Z"/>
    <path class="uuid-01215f8a-9ce2-4f93-a8d1-b081d8393bd7" d="m1560.93,134.9h16.09c5.25.09,8.98,1.77,11.19,5.05,2.13,3.25,3.19,7.02,3.16,11.32.07,10.77-5.35,16.25-16.26,16.46h-14.17v-32.84Zm9.79,24.44h3.83c1.55,0,2.79-.29,3.71-.88.93-.59,1.63-1.29,2.11-2.12.46-.86.79-1.75.98-2.68.15-.95.22-1.79.22-2.52,0-.59-.04-1.31-.13-2.19-.15-.86-.49-1.71-1.02-2.57-.51-.87-1.29-1.61-2.33-2.23-1.05-.57-2.46-.86-4.23-.86h-3.14v16.04Z"/>
    <path class="uuid-01215f8a-9ce2-4f93-a8d1-b081d8393bd7" d="m1612.07,134.9h26.32v8.4h-16.53v4.11h15v7.82h-15v4.11h17.03v8.4h-26.82v-32.84Z"/>
    <path class="uuid-01215f8a-9ce2-4f93-a8d1-b081d8393bd7" d="m1661.59,167.73h-10.95l-9.48-32.84h9.89l5.19,19.93h.11l5.11-19.93h10.06l-9.93,32.84Z"/>
    <path class="uuid-01215f8a-9ce2-4f93-a8d1-b081d8393bd7" d="m1674.27,134.9h26.32v8.4h-16.53v4.11h15v7.82h-15v4.11h17.03v8.4h-26.82v-32.84Z"/>
    <path class="uuid-01215f8a-9ce2-4f93-a8d1-b081d8393bd7" d="m1706.7,134.9h10.03l9.25,17.57h.11v-17.57h9.25v32.84h-9.55l-9.75-17.95h-.09v17.95h-9.25v-32.84Z"/>
    <path class="uuid-01215f8a-9ce2-4f93-a8d1-b081d8393bd7" d="m1748.99,143.29h-8.91v-8.4h27.61v8.4h-8.92v24.44h-9.79v-24.44Z"/>
    <path class="uuid-01215f8a-9ce2-4f93-a8d1-b081d8393bd7" d="m1780.06,156.7c0,.83.12,1.54.35,2.16.42.95,1.12,1.58,2.11,1.89.94.33,1.91.49,2.9.49.91.03,1.86-.16,2.83-.58.96-.43,1.45-1.24,1.49-2.4.03-.82-.43-1.48-1.39-1.98-1-.46-2.9-1.06-5.7-1.8-1.32-.36-2.61-.76-3.86-1.19-1.32-.43-2.51-.99-3.57-1.66-1.08-.67-1.95-1.57-2.63-2.67-.7-1.03-1.06-2.37-1.06-4,.06-3.8,1.39-6.57,4-8.31,2.49-1.69,5.44-2.54,8.83-2.54,3.55-.03,6.61.73,9.18,2.29,2.49,1.66,3.86,4.46,4.09,8.4h-9.28c.12-1.22-.27-2.09-1.15-2.61-.87-.54-1.84-.8-2.9-.8-.73,0-1.47.13-2.24.4-.35.15-.65.37-.89.65-.26.3-.39.68-.39,1.15.06.55.37,1.01.94,1.37.54.4,1.23.76,2.09,1.06,1.81.55,3.88,1.12,6.21,1.71,1.24.31,2.42.7,3.54,1.15,1.11.43,2.12,1.02,3.03,1.75.93.73,1.66,1.62,2.2,2.67.49,1.11.74,2.41.74,3.91-.09,4.21-1.66,7.15-4.72,8.83-3.02,1.69-6.43,2.52-10.25,2.49-.95,0-2.19-.14-3.73-.43-1.55-.27-3.13-.8-4.72-1.6-1.58-.81-2.92-2.01-4.01-3.59-1.11-1.53-1.71-3.6-1.8-6.2h9.76Z"/>
    <path class="uuid-01215f8a-9ce2-4f93-a8d1-b081d8393bd7" d="m1528.54,172.9h26.32v8.4h-16.53v4.11h15v7.82h-15v4.11h17.03v8.4h-26.82v-32.84Z"/>
    <path class="uuid-01215f8a-9ce2-4f93-a8d1-b081d8393bd7" d="m1560.97,172.9h8.8v32.84h-8.8v-32.84Z"/>
    <path class="uuid-01215f8a-9ce2-4f93-a8d1-b081d8393bd7" d="m1598.55,194.7c0,.82.12,1.54.35,2.16.42.95,1.12,1.58,2.11,1.89.94.33,1.91.5,2.9.5.91.03,1.86-.16,2.83-.58.96-.43,1.45-1.24,1.49-2.4.03-.82-.43-1.48-1.39-1.98-1-.46-2.9-1.06-5.7-1.8-1.32-.36-2.61-.76-3.86-1.19-1.32-.43-2.51-.99-3.57-1.66-1.08-.67-1.95-1.56-2.63-2.67-.7-1.03-1.06-2.37-1.06-4,.06-3.8,1.39-6.57,4-8.31,2.49-1.69,5.44-2.54,8.83-2.54,3.55-.03,6.61.73,9.18,2.29,2.49,1.66,3.86,4.46,4.09,8.4h-9.28c.12-1.22-.27-2.09-1.15-2.61-.87-.54-1.84-.8-2.9-.8-.73,0-1.47.13-2.24.4-.35.15-.65.37-.89.65-.26.3-.39.68-.39,1.15.06.55.37,1.01.94,1.37.54.4,1.23.76,2.09,1.06,1.81.55,3.88,1.12,6.21,1.71,1.24.31,2.42.7,3.54,1.15,1.11.43,2.12,1.02,3.03,1.75.93.73,1.66,1.62,2.2,2.67.49,1.11.74,2.41.74,3.91-.09,4.21-1.66,7.15-4.72,8.83-3.02,1.69-6.43,2.52-10.25,2.49-.95,0-2.19-.14-3.73-.43-1.55-.27-3.13-.8-4.72-1.6-1.58-.81-2.92-2.01-4.01-3.6-1.11-1.53-1.71-3.59-1.8-6.2h9.76Z"/>
    <path class="uuid-01215f8a-9ce2-4f93-a8d1-b081d8393bd7" d="m1628.2,195.85c.15,1.35.61,2.45,1.37,3.3.73.9,1.82,1.35,3.26,1.35.78,0,1.52-.16,2.23-.47.7-.27,1.24-.68,1.6-1.24h8.52c-.96,2.58-2.54,4.48-4.73,5.7-2.18,1.23-4.65,1.84-7.42,1.84-3.85-.03-6.99-1.12-9.4-3.28-2.52-2.14-3.79-5.2-3.82-9.19.03-3.59,1.18-6.59,3.44-8.98,2.25-2.35,5.26-3.56,9.02-3.62,9.03.12,13.5,4.98,13.42,14.58h-17.47Zm9.03-4.72c-.03-1.14-.41-2.1-1.14-2.87-.74-.77-1.74-1.15-3-1.15-2.8.03-4.42,1.37-4.85,4.02h8.99Z"/>
    <path class="uuid-01215f8a-9ce2-4f93-a8d1-b081d8393bd7" d="m1674.38,202.68c0,1.17-.1,2.41-.3,3.72-.25,1.31-.78,2.55-1.61,3.72-.77,1.12-1.97,2.03-3.61,2.73-1.64.78-3.8,1.18-6.5,1.21-2.83.03-5.41-.51-7.74-1.61-2.38-1.08-3.82-3.19-4.33-6.34h8.73c.13.25.3.53.5.82.29.43.66.81,1.11,1.14.45.37.94.57,1.48.6.71-.03,1.31-.23,1.79-.61.44-.39.79-.86,1.07-1.42.41-1.23.61-2.38.61-3.46v-2.2h-.09c-1.5,2.17-3.62,3.28-6.38,3.32-3.47-.04-6.03-1.2-7.68-3.46-1.69-2.22-2.54-4.95-2.54-8.2s.89-5.9,2.67-8.04c1.72-2.17,4.28-3.29,7.68-3.35,1.38,0,2.64.25,3.77.76,1.14.58,1.96,1.49,2.47,2.72h.09v-2.9h8.8v20.82Zm-16.69-10.06c0,.65.08,1.32.23,2.03.12.72.34,1.35.65,1.89.61,1.26,1.73,1.91,3.36,1.94.89,0,1.59-.2,2.1-.58.54-.35.93-.81,1.14-1.4.45-1.19.66-2.49.63-3.92,0-1.38-.33-2.5-1-3.35-.67-.87-1.7-1.32-3.11-1.35-1.34.03-2.34.5-3.01,1.4-.67.92-1,2.03-1,3.35Z"/>
    <path class="uuid-01215f8a-9ce2-4f93-a8d1-b081d8393bd7" d="m1703.8,205.73h-8.68v-3.03h-.09c-1.6,2.4-4.16,3.61-7.68,3.64-2.15,0-4.01-.67-5.59-2.02-1.63-1.36-2.46-3.39-2.49-6.09v-16.37h8.8v12.53c-.03,1.38.15,2.5.54,3.37.38.88,1.24,1.33,2.58,1.33.86.03,1.71-.28,2.56-.92.38-.3.7-.77.96-1.42.19-.58.28-1.34.28-2.27v-12.62h8.8v23.88Z"/>
    <path class="uuid-01215f8a-9ce2-4f93-a8d1-b081d8393bd7" d="m1709.08,181.86h8.77v3.03h.09c1.61-2.41,4.2-3.62,7.76-3.62,2.16,0,4.01.66,5.57,1.98,1.54,1.32,2.32,3.35,2.35,6.11v16.37h-8.8v-12.53c.03-1.41-.13-2.55-.49-3.42-.38-.85-1.25-1.28-2.63-1.28-.86-.03-1.68.25-2.46.83-.38.3-.7.76-.96,1.37-.25.65-.38,1.45-.38,2.41v12.62h-8.8v-23.88Z"/>
    <path class="uuid-01215f8a-9ce2-4f93-a8d1-b081d8393bd7" d="m1763.48,205.73h-8.68v-2.63h-.09c-.24.37-.54.73-.91,1.06-.36.37-.78.73-1.27,1.06-.49.34-1.12.61-1.91.79-.75.19-1.7.31-2.82.34-3.3-.1-5.77-1.49-7.42-4.16-1.67-2.55-2.51-5.38-2.51-8.51,0-1.44.17-2.88.52-4.31.3-1.44.84-2.77,1.62-4,.76-1.23,1.8-2.22,3.12-2.99,1.32-.7,2.96-1.07,4.92-1.1,2.86.03,5.04,1.1,6.54,3.21h.09v-11.59h8.8v32.84Zm-8.5-11.95c0-1.51-.25-2.87-.75-4.07-.29-.55-.71-1-1.26-1.33-.58-.34-1.29-.52-2.15-.52-1.62.03-2.73.65-3.34,1.85-.3.56-.51,1.19-.63,1.89-.12.71-.19,1.43-.19,2.18,0,.71.06,1.41.19,2.12.12.71.33,1.34.63,1.89.61,1.26,1.72,1.91,3.34,1.94.85,0,1.57-.2,2.15-.61.54-.33.96-.77,1.26-1.33.5-1.17.75-2.51.75-4.01h0Z"/>
    <path class="uuid-01215f8a-9ce2-4f93-a8d1-b081d8393bd7" d="m1792.92,193.8c0,3.4-1.04,6.31-3.11,8.73-2.06,2.48-5.32,3.75-9.77,3.81-4.4-.06-7.64-1.33-9.73-3.82-2.13-2.43-3.18-5.34-3.13-8.74-.04-3.44,1-6.36,3.13-8.76,2.09-2.44,5.33-3.69,9.73-3.75,4.46.06,7.71,1.31,9.77,3.75,2.07,2.4,3.11,5.32,3.11,8.77Zm-8.8,0c0-.65-.03-1.33-.09-2.05-.09-.71-.29-1.34-.58-1.89-.28-.6-.68-1.09-1.19-1.46-.58-.34-1.31-.52-2.2-.52s-1.54.17-2.06.52c-.58.38-1,.86-1.29,1.46-.51,1.23-.75,2.54-.72,3.94,0,.62.06,1.26.19,1.94.09.68.27,1.32.54,1.94.28.62.71,1.1,1.29,1.46.51.41,1.2.61,2.06.61s1.62-.2,2.2-.61c.51-.36.91-.85,1.19-1.46.48-1.26.71-2.55.68-3.87Z"/>
    <path class="uuid-01215f8a-9ce2-4f93-a8d1-b081d8393bd7" d="m1798.07,196.66h9.25v7.2c0,2.2-.4,4.17-1.19,5.92-.84,1.75-2.25,2.99-4.23,3.72-.8.28-1.5.44-2.13.47-.68.06-1.25.09-1.69.09v-4c1.13-.12,2.06-.59,2.8-1.42.71-.8,1.09-1.77,1.15-2.91h-3.95v-9.07Z"/>
    <path class="uuid-01215f8a-9ce2-4f93-a8d1-b081d8393bd7" d="m1548.57,223.13c-.03-.35-.12-.8-.26-1.35-.17-.53-.44-1.04-.81-1.55-.35-.58-.86-1.07-1.52-1.44-.65-.33-1.5-.5-2.53-.5-2.23.06-3.8,1.01-4.72,2.86-.93,1.8-1.38,3.86-1.35,6.17-.03,2.31.42,4.37,1.35,6.17.91,1.88,2.49,2.83,4.72,2.86,1.62,0,2.84-.53,3.66-1.6.77-1.02,1.27-2.31,1.5-3.87h9.64c-.03,3.46-1.28,6.55-3.74,9.27-2.47,2.83-6.06,4.29-10.79,4.38-5.13-.06-9.1-1.73-11.9-5.01-2.81-3.19-4.22-7.25-4.22-12.2.03-5.27,1.49-9.44,4.4-12.51,2.86-3.1,6.77-4.66,11.73-4.69,8.73.24,13.53,4.58,14.4,13.02h-9.55Z"/>
    <path class="uuid-01215f8a-9ce2-4f93-a8d1-b081d8393bd7" d="m1586.35,238.41c0,.89.06,1.81.18,2.75.12.92.42,1.78.9,2.57h-9.28c-.24-.76-.34-1.51-.31-2.25h-.09c-.99,1.06-2.12,1.8-3.41,2.2-1.35.43-2.77.65-4.26.65-2.29,0-4.18-.58-5.68-1.75-1.61-1.2-2.42-3.02-2.45-5.47,0-1.87.49-3.32,1.48-4.35.94-1.05,2.12-1.8,3.53-2.27,1.48-.49,2.97-.83,4.47-1.01s2.83-.34,4-.49c.34-.1.67-.2.97-.29.28-.09.55-.2.79-.31.49-.3.74-.81.74-1.53-.03-.82-.34-1.4-.92-1.73-.59-.31-1.28-.47-2.07-.47-1.37.03-2.27.29-2.73.78-.46.55-.7,1.1-.7,1.65h-8.49c.12-1.69.55-3.06,1.29-4.11.73-1.03,1.67-1.81,2.82-2.33,1.17-.55,2.47-.94,3.91-1.15,1.39-.15,2.77-.22,4.13-.22,2.79,0,4.97.25,6.55.76,1.57.52,2.67,1.24,3.31,2.13.67.88,1.08,1.88,1.24,2.99.06,1.12.09,2.27.09,3.44v9.82Zm-8.45-5.38c-1.19.53-2.45.91-3.77,1.15-2.15.27-3.22,1.13-3.22,2.59,0,.59.29,1.09.87,1.51.53.46,1.24.7,2.12.7,1.11,0,2.05-.32,2.8-.97.74-.62,1.14-1.54,1.2-2.77v-2.21Z"/>
    <path class="uuid-01215f8a-9ce2-4f93-a8d1-b081d8393bd7" d="m1591.59,210.9h8.8v32.84h-8.8v-32.84Z"/>
    <path class="uuid-01215f8a-9ce2-4f93-a8d1-b081d8393bd7" d="m1614.88,217.27h-8.8v-6.38h8.8v6.38Zm-8.8,2.58h8.8v23.88h-8.8v-23.88Z"/>
    <path class="uuid-01215f8a-9ce2-4f93-a8d1-b081d8393bd7" d="m1621.87,225.47h-3.62v-5.61h3.62c-.06-1.23.03-2.44.26-3.64.25-1.15.77-2.18,1.56-3.08.96-.97,2.04-1.6,3.26-1.89,1.21-.24,2.69-.36,4.43-.36,1.35.03,2.67.09,3.97.18v6.26c-.36-.07-.72-.16-1.08-.25-.38-.06-.75-.09-1.12-.09-1.09,0-1.84.19-2.25.56-.43.42-.62,1.18-.56,2.29h4.78v5.61h-4.45v18.26h-8.8v-18.26Z"/>
    <path class="uuid-01215f8a-9ce2-4f93-a8d1-b081d8393bd7" d="m1662.52,231.8c0,3.4-1.04,6.31-3.11,8.73-2.06,2.48-5.32,3.75-9.77,3.81-4.4-.06-7.64-1.33-9.73-3.82-2.13-2.43-3.18-5.34-3.13-8.74-.04-3.44,1-6.36,3.13-8.76,2.09-2.44,5.33-3.69,9.73-3.75,4.46.06,7.71,1.31,9.77,3.75,2.07,2.4,3.11,5.32,3.11,8.77Zm-8.8,0c0-.65-.03-1.33-.09-2.05-.09-.71-.29-1.34-.58-1.89-.28-.6-.68-1.09-1.19-1.46-.58-.34-1.31-.52-2.2-.52s-1.54.17-2.06.52c-.58.38-1,.86-1.29,1.46-.51,1.23-.75,2.54-.72,3.94,0,.62.06,1.26.19,1.94.09.68.27,1.32.54,1.94.28.62.71,1.1,1.29,1.46.51.41,1.2.61,2.06.61s1.62-.2,2.2-.61c.51-.36.91-.85,1.19-1.46.48-1.26.71-2.55.68-3.87Z"/>
    <path class="uuid-01215f8a-9ce2-4f93-a8d1-b081d8393bd7" d="m1667.26,219.86h8.46v3.82h.09c.71-1.44,1.59-2.54,2.63-3.3,1-.73,2.29-1.1,3.87-1.1.88,0,1.75.12,2.59.36v8.04c-.42-.18-.89-.33-1.39-.45-.51-.09-1.2-.13-2.09-.13-3.54-.06-5.33,2.34-5.35,7.21v9.43h-8.8v-23.88Z"/>
    <path class="uuid-01215f8a-9ce2-4f93-a8d1-b081d8393bd7" d="m1688.51,219.86h8.77v3.03h.09c1.61-2.41,4.2-3.62,7.76-3.62,2.16,0,4.01.66,5.57,1.98,1.54,1.32,2.32,3.35,2.35,6.11v16.37h-8.8v-12.53c.03-1.41-.13-2.55-.49-3.42-.38-.85-1.25-1.28-2.63-1.28-.86-.03-1.68.25-2.46.83-.38.3-.7.76-.96,1.37-.25.65-.38,1.45-.38,2.41v12.62h-8.8v-23.88Z"/>
    <path class="uuid-01215f8a-9ce2-4f93-a8d1-b081d8393bd7" d="m1727.29,217.27h-8.8v-6.38h8.8v6.38Zm-8.8,2.58h8.8v23.88h-8.8v-23.88Z"/>
    <path class="uuid-01215f8a-9ce2-4f93-a8d1-b081d8393bd7" d="m1755.84,238.41c0,.89.06,1.81.18,2.75.12.92.42,1.78.9,2.57h-9.28c-.24-.76-.34-1.51-.31-2.25h-.09c-.99,1.06-2.12,1.8-3.41,2.2-1.35.43-2.77.65-4.26.65-2.29,0-4.18-.58-5.68-1.75-1.61-1.2-2.42-3.02-2.45-5.47,0-1.87.49-3.32,1.48-4.35.94-1.05,2.12-1.8,3.53-2.27,1.48-.49,2.97-.83,4.47-1.01s2.83-.34,4-.49c.34-.1.67-.2.97-.29.28-.09.55-.2.79-.31.49-.3.74-.81.74-1.53-.03-.82-.34-1.4-.92-1.73-.59-.31-1.28-.47-2.07-.47-1.37.03-2.27.29-2.73.78-.46.55-.7,1.1-.7,1.65h-8.49c.12-1.69.55-3.06,1.29-4.11.73-1.03,1.67-1.81,2.82-2.33,1.17-.55,2.47-.94,3.91-1.15,1.39-.15,2.77-.22,4.13-.22,2.79,0,4.97.25,6.55.76,1.57.52,2.67,1.24,3.31,2.13.67.88,1.08,1.88,1.24,2.99.06,1.12.09,2.27.09,3.44v9.82Zm-8.45-5.38c-1.19.53-2.45.91-3.77,1.15-2.15.27-3.22,1.13-3.22,2.59,0,.59.29,1.09.87,1.51.53.46,1.24.7,2.12.7,1.11,0,2.05-.32,2.8-.97.74-.62,1.14-1.54,1.2-2.77v-2.21Z"/>
  </g>
  <g>
    <path class="uuid-01215f8a-9ce2-4f93-a8d1-b081d8393bd7" d="m1550.49,103.91h5.66v4.48h-5.66v10.5h-4.96v-10.5h-21.06v-4.78l20.65-26.73h5.37v27.02Zm-4.96,0v-20.53l-15.87,20.53h15.87Z"/>
    <path class="uuid-01215f8a-9ce2-4f93-a8d1-b081d8393bd7" d="m1565.07,114.41h22.18v4.48h-27.73l.12-2.3c.24-3.46,1.02-6.43,2.36-8.91,1.34-2.48,3.6-4.64,6.79-6.49l5.31-3.07c2.67-1.57,4.57-3.11,5.69-4.6,1.12-1.49,1.68-3.3,1.68-5.43,0-2.32-.74-4.18-2.21-5.58-1.48-1.4-3.51-2.09-6.11-2.09-5.86,0-8.79,3.01-8.79,9.03h-4.9c-.04-4.29,1.16-7.61,3.6-9.97,2.44-2.36,5.84-3.54,10.21-3.54,3.97,0,7.2,1.12,9.68,3.36,2.48,2.32,3.72,5.25,3.72,8.79,0,5.43-3.19,9.99-9.56,13.69l-4.48,2.6c-2.6,1.57-4.46,3.1-5.61,4.57-1.14,1.47-1.79,3.29-1.95,5.46Z"/>
    <path class="uuid-01215f8a-9ce2-4f93-a8d1-b081d8393bd7" d="m1604.83,91.52c4.48,0,7.98,1.32,10.5,3.95,2.52,2.63,3.78,6.04,3.78,10.21s-1.32,7.51-3.95,10.15c-2.67,2.68-6.21,4.01-10.62,4.01-4.01,0-7.34-1.16-9.97-3.48-2.64-2.28-4.07-5.33-4.31-9.15h4.96c.24,2.52,1.22,4.5,2.95,5.96,1.73,1.46,3.85,2.18,6.37,2.18,2.75,0,5-.89,6.76-2.68,1.75-1.79,2.63-4.12,2.63-6.99s-.88-5.2-2.63-6.99c-1.75-1.79-4-2.68-6.76-2.68-4.13,0-7,1.69-8.61,5.07h-4.6l3.54-24.19h21.71v4.48h-17.7l-2.01,13.22c2.28-2.04,4.94-3.07,7.97-3.07Z"/>
    <path class="uuid-01215f8a-9ce2-4f93-a8d1-b081d8393bd7" d="m1619.7,81.37v-4.48h26.96v3.89c-9.68,10.86-14.71,23.56-15.1,38.11h-5.13c.2-7.28,1.46-13.93,3.81-19.97,2.34-6.04,5.91-11.89,10.71-17.55h-21.24Z"/>
  </g>
  <g>
    <path class="uuid-01215f8a-9ce2-4f93-a8d1-b081d8393bd7" d="m1141.87,133.41h-4.28v-36.31h4.28v36.31Z"/>
    <path class="uuid-01215f8a-9ce2-4f93-a8d1-b081d8393bd7" d="m1175.94,106.48c2.86,0,5.07.83,6.66,2.47,1.58,1.65,2.37,3.85,2.37,6.6v17.85h-4.08v-17.44c0-3.88-1.84-5.81-5.51-5.81-1.94,0-3.54.77-4.82,2.32-1.27,1.55-1.91,3.73-1.91,6.55v14.38h-4.08v-17.44c0-3.88-1.84-5.81-5.51-5.81-1.9,0-3.5.77-4.79,2.32-1.29,1.55-1.94,3.73-1.94,6.55v14.38h-4.08v-26.32h3.88v3.88c1.73-2.99,4.27-4.49,7.6-4.49,3.94,0,6.65,1.65,8.11,4.95,1.84-3.3,4.54-4.95,8.11-4.95Z"/>
    <path class="uuid-01215f8a-9ce2-4f93-a8d1-b081d8393bd7" d="m1218.78,106.48c2.86,0,5.07.83,6.66,2.47,1.58,1.65,2.37,3.85,2.37,6.6v17.85h-4.08v-17.44c0-3.88-1.84-5.81-5.51-5.81-1.94,0-3.54.77-4.82,2.32-1.27,1.55-1.91,3.73-1.91,6.55v14.38h-4.08v-17.44c0-3.88-1.84-5.81-5.51-5.81-1.9,0-3.5.77-4.79,2.32-1.29,1.55-1.94,3.73-1.94,6.55v14.38h-4.08v-26.32h3.88v3.88c1.73-2.99,4.27-4.49,7.6-4.49,3.94,0,6.65,1.65,8.11,4.95,1.84-3.3,4.54-4.95,8.11-4.95Z"/>
    <path class="uuid-01215f8a-9ce2-4f93-a8d1-b081d8393bd7" d="m1256.88,120.25v1.43h-19.99c.2,2.86,1,5.01,2.4,6.45,1.39,1.45,3.3,2.17,5.71,2.17,3.64,0,5.97-1.63,6.99-4.9h4.23c-.71,2.65-2.04,4.75-3.98,6.3-1.94,1.55-4.39,2.32-7.34,2.32-3.64,0-6.58-1.24-8.82-3.72-2.28-2.48-3.42-5.83-3.42-10.05s1.12-7.48,3.37-10c2.21-2.52,5.13-3.77,8.77-3.77s6.73,1.31,8.87,3.93c2.14,2.62,3.21,5.9,3.21,9.84Zm-12.09-10.05c-2.14,0-3.89.67-5.25,2.01-1.36,1.34-2.21,3.27-2.55,5.79h15.5c-.2-2.31-.99-4.19-2.35-5.64-1.36-1.44-3.15-2.17-5.36-2.17Z"/>
    <path class="uuid-01215f8a-9ce2-4f93-a8d1-b081d8393bd7" d="m1274.07,106.68c.68,0,1.14.02,1.38.05v3.93h-1.02c-2.72,0-4.84.67-6.35,2.01s-2.27,3.26-2.27,5.74v14.99h-4.08v-26.32h3.88v4.64c1.77-3.37,4.59-5.05,8.47-5.05Z"/>
    <path class="uuid-01215f8a-9ce2-4f93-a8d1-b081d8393bd7" d="m1287.53,134.02c-7.04,0-10.76-2.99-11.17-8.98h4.13c.24,1.97.89,3.38,1.96,4.21,1.07.83,2.76,1.25,5.07,1.25,4.22,0,6.32-1.36,6.32-4.08,0-1.19-.43-2.09-1.3-2.7-.87-.61-2.44-1.14-4.72-1.58l-2.45-.46c-5.47-1.02-8.21-3.6-8.21-7.75,0-2.28.86-4.09,2.58-5.43,1.72-1.34,4.05-2.01,7.01-2.01,6.97,0,10.54,2.91,10.71,8.72h-4.08c-.1-1.9-.68-3.25-1.73-4.03-1.05-.78-2.69-1.17-4.9-1.17-1.77,0-3.13.34-4.08,1.02-.95.68-1.43,1.63-1.43,2.86,0,1.16.41,2.02,1.22,2.6.82.58,2.18,1.07,4.08,1.48l2.35.46c3.23.65,5.55,1.56,6.96,2.75,1.41,1.19,2.12,2.86,2.12,5,0,2.48-.93,4.41-2.78,5.79-1.85,1.38-4.41,2.07-7.68,2.07Z"/>
    <path class="uuid-01215f8a-9ce2-4f93-a8d1-b081d8393bd7" d="m1306.25,103.11h-4.33v-5h4.33v5Zm-.1,30.29h-4.08v-26.32h4.08v26.32Z"/>
    <path class="uuid-01215f8a-9ce2-4f93-a8d1-b081d8393bd7" d="m1325.42,118.77l4.33-11.68h4.39l-10.35,26.32h-4.28l-10.3-26.32h4.44l4.33,11.73c2.14,5.75,3.38,9.15,3.72,10.2.61-1.8,1.85-5.22,3.72-10.25Z"/>
    <path class="uuid-01215f8a-9ce2-4f93-a8d1-b081d8393bd7" d="m1358.88,120.25v1.43h-19.99c.2,2.86,1,5.01,2.4,6.45,1.39,1.45,3.3,2.17,5.71,2.17,3.64,0,5.97-1.63,6.99-4.9h4.23c-.71,2.65-2.04,4.75-3.98,6.3-1.94,1.55-4.39,2.32-7.34,2.32-3.64,0-6.58-1.24-8.82-3.72-2.28-2.48-3.42-5.83-3.42-10.05s1.12-7.48,3.37-10c2.21-2.52,5.13-3.77,8.77-3.77s6.73,1.31,8.87,3.93c2.14,2.62,3.21,5.9,3.21,9.84Zm-12.09-10.05c-2.14,0-3.89.67-5.25,2.01-1.36,1.34-2.21,3.27-2.55,5.79h15.5c-.2-2.31-.99-4.19-2.35-5.64-1.36-1.44-3.15-2.17-5.36-2.17Z"/>
    <path class="uuid-01215f8a-9ce2-4f93-a8d1-b081d8393bd7" d="m1373.67,97.1h12.24c5.51,0,9.86,1.6,13.06,4.79,3.16,3.2,4.74,7.65,4.74,13.36s-1.58,10.08-4.74,13.31c-3.23,3.23-7.58,4.85-13.06,4.85h-12.24v-36.31Zm4.28,32.44h7.96c4.28,0,7.57-1.26,9.87-3.77,2.29-2.52,3.44-6.02,3.44-10.51s-1.15-7.99-3.44-10.51c-2.29-2.52-5.58-3.77-9.87-3.77h-7.96v28.56Z"/>
    <path class="uuid-01215f8a-9ce2-4f93-a8d1-b081d8393bd7" d="m1412.73,103.11h-4.33v-5h4.33v5Zm-.1,30.29h-4.08v-26.32h4.08v26.32Z"/>
    <path class="uuid-01215f8a-9ce2-4f93-a8d1-b081d8393bd7" d="m1438.74,110.92v-3.83h3.88v25.3c0,3.6-1.05,6.44-3.16,8.52-2.11,2.07-5.13,3.11-9.08,3.11-3.26,0-5.88-.75-7.85-2.24-1.97-1.5-3.09-3.57-3.37-6.22h4.08c.51,3.33,2.89,5,7.14,5,5.44,0,8.16-2.72,8.16-8.16v-2.55c-2.07,2.79-5.02,4.18-8.82,4.18s-6.67-1.26-8.87-3.77c-2.24-2.52-3.37-5.85-3.37-10s1.12-7.56,3.37-10.05c2.17-2.48,5.13-3.72,8.87-3.72s6.92,1.48,9.03,4.44Zm-8.52,19.43c2.58,0,4.64-.9,6.17-2.7,1.53-1.8,2.29-4.27,2.29-7.39s-.76-5.59-2.29-7.4c-1.53-1.8-3.59-2.7-6.17-2.7s-4.6.92-6.15,2.75c-1.55,1.84-2.32,4.28-2.32,7.34s.77,5.51,2.32,7.34c1.55,1.84,3.6,2.75,6.15,2.75Z"/>
    <path class="uuid-01215f8a-9ce2-4f93-a8d1-b081d8393bd7" d="m1452.92,103.11h-4.33v-5h4.33v5Zm-.1,30.29h-4.08v-26.32h4.08v26.32Z"/>
    <path class="uuid-01215f8a-9ce2-4f93-a8d1-b081d8393bd7" d="m1470.46,107.09v3.57h-5.41v17.08c0,1.5,1,2.24,3.01,2.24h2.4v3.42c-1.12.1-2.09.15-2.91.15-4.39,0-6.58-1.82-6.58-5.46v-17.44h-4.33v-3.57h4.33v-7.45h4.08v7.45h5.41Z"/>
    <path class="uuid-01215f8a-9ce2-4f93-a8d1-b081d8393bd7" d="m1496.07,130.09h1.48v3.32c-.68.1-1.43.15-2.24.15-2.75,0-4.23-1.26-4.44-3.77-1.84,2.82-4.69,4.23-8.57,4.23-2.89,0-5.16-.67-6.81-2.01-1.65-1.34-2.47-3.24-2.47-5.69,0-4.76,3.25-7.48,9.74-8.16l3.77-.41c2.75-.31,4.13-1.51,4.13-3.62,0-1.46-.45-2.52-1.35-3.16-.9-.65-2.42-.97-4.56-.97-2.28,0-3.92.38-4.92,1.15-1,.76-1.57,2.12-1.71,4.05h-4.08c.34-5.81,3.91-8.72,10.71-8.72s9.89,2.55,9.89,7.65v14.69c0,.85.48,1.27,1.43,1.27Zm-13.57.46c2.18,0,4.08-.66,5.71-1.99,1.63-1.29,2.45-3.14,2.45-5.56v-3.11c-.75.58-1.9.95-3.47,1.12l-3.83.46c-2.21.27-3.78.78-4.72,1.53-.94.75-1.4,1.82-1.4,3.21s.44,2.42,1.33,3.19c.88.77,2.19,1.15,3.93,1.15Z"/>
    <path class="uuid-01215f8a-9ce2-4f93-a8d1-b081d8393bd7" d="m1504.94,133.41h-4.08v-36.31h4.08v36.31Z"/>
    <path class="uuid-01215f8a-9ce2-4f93-a8d1-b081d8393bd7" d="m1229.39,169.08c4.05,2.11,6.07,5.15,6.07,9.13,0,3.3-1.16,5.95-3.47,7.96-2.28,2.04-5.29,3.06-9.03,3.06-4.05,0-7.18-1.05-9.41-3.16-2.23-2.11-3.32-4.98-3.29-8.62h4.23c.07,2.58.83,4.55,2.29,5.89,1.46,1.34,3.52,2.01,6.17,2.01,2.45,0,4.39-.65,5.84-1.94,1.44-1.29,2.17-3.03,2.17-5.2s-.74-3.97-2.22-5.28c-1.48-1.31-3.49-1.96-6.04-1.96h-2.7v-3.57h2.45c2.41,0,4.27-.54,5.58-1.63,1.31-1.09,1.96-2.6,1.96-4.54s-.66-3.39-1.96-4.46c-1.31-1.07-3.08-1.61-5.33-1.61s-4.09.59-5.43,1.76c-1.34,1.17-2.07,2.9-2.17,5.18h-4.28c.03-3.3,1.11-5.92,3.24-7.88,2.12-1.96,5.01-2.93,8.64-2.93s6.32.88,8.44,2.63c2.12,1.75,3.19,4.16,3.19,7.22,0,3.47-1.65,6.12-4.95,7.96Z"/>
    <path class="uuid-01215f8a-9ce2-4f93-a8d1-b081d8393bd7" d="m1260.09,165.87v-13.77h4.08v36.31h-3.88v-4.08c-2.11,3.13-5.12,4.69-9.03,4.69-3.71,0-6.67-1.26-8.87-3.77-2.24-2.52-3.37-5.85-3.37-10s1.12-7.56,3.37-10.05c2.17-2.48,5.13-3.72,8.87-3.72s6.71,1.46,8.82,4.39Zm-14.48,16.88c1.53,1.73,3.59,2.6,6.17,2.6s4.64-.9,6.17-2.7c1.53-1.77,2.29-4.23,2.29-7.39s-.76-5.59-2.29-7.4c-1.53-1.8-3.59-2.7-6.17-2.7s-4.6.93-6.15,2.78c-1.55,1.85-2.32,4.36-2.32,7.52s.76,5.56,2.29,7.29Z"/>
    <path class="uuid-01215f8a-9ce2-4f93-a8d1-b081d8393bd7" d="m1306.91,177.9l.36,5.86c.17,2.04.61,3.59,1.33,4.64h-4.44c-.75-1.09-1.14-2.7-1.17-4.85l-.15-3.88c-.1-2.45-.65-4.19-1.63-5.23-.99-1.04-2.6-1.55-4.85-1.55h-11.83v15.5h-4.28v-36.31h15.35c3.74,0,6.72.87,8.95,2.6,2.23,1.73,3.34,4.17,3.34,7.29,0,2.21-.54,4.07-1.61,5.58-1.07,1.51-2.52,2.58-4.36,3.19,3.06.95,4.73,3.33,5,7.14Zm-22.39-8.87h11.58c2.28,0,4.07-.59,5.38-1.76,1.31-1.17,1.96-2.85,1.96-5.02s-.69-3.64-2.07-4.69c-1.38-1.05-3.31-1.58-5.79-1.58h-11.07v13.06Z"/>
    <path class="uuid-01215f8a-9ce2-4f93-a8d1-b081d8393bd7" d="m1335.62,175.25v1.43h-19.99c.2,2.86,1,5.01,2.4,6.45,1.39,1.45,3.3,2.17,5.71,2.17,3.64,0,5.97-1.63,6.99-4.9h4.23c-.71,2.65-2.04,4.75-3.98,6.3-1.94,1.55-4.39,2.32-7.34,2.32-3.64,0-6.58-1.24-8.82-3.72-2.28-2.48-3.42-5.83-3.42-10.05s1.12-7.48,3.37-10c2.21-2.52,5.13-3.77,8.77-3.77s6.73,1.31,8.87,3.93c2.14,2.62,3.21,5.9,3.21,9.84Zm-12.09-10.05c-2.14,0-3.89.67-5.25,2.01-1.36,1.34-2.21,3.27-2.55,5.79h15.5c-.2-2.31-.99-4.19-2.35-5.64-1.36-1.44-3.15-2.17-5.36-2.17Z"/>
    <path class="uuid-01215f8a-9ce2-4f93-a8d1-b081d8393bd7" d="m1352.61,161.48c2.92,0,5.2.8,6.83,2.4,1.63,1.6,2.45,3.84,2.45,6.73v17.8h-4.08v-17.39c0-3.91-2.01-5.86-6.02-5.86-1.9,0-3.59.71-5.05,2.14s-2.19,3.5-2.19,6.22v14.89h-4.08v-26.32h3.88v3.93c2.01-3.03,4.76-4.54,8.26-4.54Z"/>
    <path class="uuid-01215f8a-9ce2-4f93-a8d1-b081d8393bd7" d="m1387.79,165.87v-13.77h4.08v36.31h-3.88v-4.08c-2.11,3.13-5.12,4.69-9.03,4.69-3.71,0-6.67-1.26-8.87-3.77-2.24-2.52-3.37-5.85-3.37-10s1.12-7.56,3.37-10.05c2.17-2.48,5.13-3.72,8.87-3.72s6.71,1.46,8.82,4.39Zm-14.48,16.88c1.53,1.73,3.59,2.6,6.17,2.6s4.64-.9,6.17-2.7c1.53-1.77,2.29-4.23,2.29-7.39s-.76-5.59-2.29-7.4c-1.53-1.8-3.59-2.7-6.17-2.7s-4.6.93-6.15,2.78c-1.55,1.85-2.32,4.36-2.32,7.52s.76,5.56,2.29,7.29Z"/>
    <path class="uuid-01215f8a-9ce2-4f93-a8d1-b081d8393bd7" d="m1420.95,175.25v1.43h-19.99c.2,2.86,1,5.01,2.4,6.45,1.39,1.45,3.3,2.17,5.71,2.17,3.64,0,5.97-1.63,6.99-4.9h4.23c-.71,2.65-2.04,4.75-3.98,6.3-1.94,1.55-4.39,2.32-7.34,2.32-3.64,0-6.58-1.24-8.82-3.72-2.28-2.48-3.42-5.83-3.42-10.05s1.12-7.48,3.37-10c2.21-2.52,5.13-3.77,8.77-3.77s6.73,1.31,8.87,3.93c2.14,2.62,3.21,5.9,3.21,9.84Zm-12.09-10.05c-2.14,0-3.89.67-5.25,2.01-1.36,1.34-2.21,3.27-2.55,5.79h15.5c-.2-2.31-.99-4.19-2.35-5.64-1.36-1.44-3.15-2.17-5.36-2.17Z"/>
    <path class="uuid-01215f8a-9ce2-4f93-a8d1-b081d8393bd7" d="m1438.13,161.68c.68,0,1.14.02,1.38.05v3.93h-1.02c-2.72,0-4.84.67-6.35,2.01s-2.27,3.26-2.27,5.74v14.99h-4.08v-26.32h3.88v4.64c1.77-3.37,4.59-5.05,8.47-5.05Z"/>
    <path class="uuid-01215f8a-9ce2-4f93-a8d1-b081d8393bd7" d="m1447.52,158.11h-4.33v-5h4.33v5Zm-.1,30.29h-4.08v-26.32h4.08v26.32Z"/>
    <path class="uuid-01215f8a-9ce2-4f93-a8d1-b081d8393bd7" d="m1465.67,161.48c2.92,0,5.2.8,6.83,2.4,1.63,1.6,2.45,3.84,2.45,6.73v17.8h-4.08v-17.39c0-3.91-2.01-5.86-6.02-5.86-1.9,0-3.59.71-5.05,2.14s-2.19,3.5-2.19,6.22v14.89h-4.08v-26.32h3.88v3.93c2.01-3.03,4.76-4.54,8.26-4.54Z"/>
    <path class="uuid-01215f8a-9ce2-4f93-a8d1-b081d8393bd7" d="m1501.07,165.92v-3.83h3.88v25.3c0,3.6-1.05,6.44-3.16,8.52-2.11,2.07-5.13,3.11-9.08,3.11-3.26,0-5.88-.75-7.85-2.24-1.97-1.5-3.09-3.57-3.37-6.22h4.08c.51,3.33,2.89,5,7.14,5,5.44,0,8.16-2.72,8.16-8.16v-2.55c-2.07,2.79-5.02,4.18-8.82,4.18s-6.67-1.26-8.87-3.77c-2.24-2.52-3.37-5.85-3.37-10s1.12-7.56,3.37-10.05c2.17-2.48,5.13-3.72,8.87-3.72s6.92,1.48,9.03,4.44Zm-8.52,19.43c2.58,0,4.64-.9,6.17-2.7,1.53-1.8,2.29-4.27,2.29-7.39s-.76-5.59-2.29-7.4c-1.53-1.8-3.59-2.7-6.17-2.7s-4.6.92-6.15,2.75c-1.55,1.84-2.32,4.28-2.32,7.34s.77,5.51,2.32,7.34c1.55,1.84,3.6,2.75,6.15,2.75Z"/>
    <path class="uuid-01215f8a-9ce2-4f93-a8d1-b081d8393bd7" d="m1091.49,207.1h12.24c5.51,0,9.86,1.6,13.06,4.79,3.16,3.2,4.74,7.65,4.74,13.36s-1.58,10.08-4.74,13.31c-3.23,3.23-7.58,4.84-13.06,4.84h-12.24v-36.31Zm4.28,32.44h7.96c4.28,0,7.57-1.26,9.87-3.77,2.29-2.52,3.44-6.02,3.44-10.51s-1.15-7.99-3.44-10.51c-2.29-2.52-5.58-3.77-9.87-3.77h-7.96v28.56Z"/>
    <path class="uuid-01215f8a-9ce2-4f93-a8d1-b081d8393bd7" d="m1149.58,230.25v1.43h-19.99c.2,2.86,1,5.01,2.4,6.45,1.39,1.45,3.3,2.17,5.71,2.17,3.64,0,5.97-1.63,6.99-4.9h4.23c-.71,2.65-2.04,4.75-3.98,6.3-1.94,1.55-4.39,2.32-7.34,2.32-3.64,0-6.58-1.24-8.82-3.72-2.28-2.48-3.42-5.83-3.42-10.05s1.12-7.48,3.37-10c2.21-2.52,5.13-3.77,8.77-3.77s6.73,1.31,8.87,3.93c2.14,2.62,3.21,5.9,3.21,9.84Zm-12.09-10.05c-2.14,0-3.89.67-5.25,2.01-1.36,1.34-2.21,3.27-2.55,5.79h15.5c-.2-2.31-.99-4.19-2.35-5.63-1.36-1.45-3.15-2.17-5.36-2.17Z"/>
    <path class="uuid-01215f8a-9ce2-4f93-a8d1-b081d8393bd7" d="m1163.45,244.02c-7.04,0-10.76-2.99-11.17-8.98h4.13c.24,1.97.89,3.38,1.96,4.21s2.76,1.25,5.07,1.25c4.22,0,6.32-1.36,6.32-4.08,0-1.19-.43-2.09-1.3-2.7-.87-.61-2.44-1.14-4.72-1.58l-2.45-.46c-5.47-1.02-8.21-3.6-8.21-7.75,0-2.28.86-4.09,2.58-5.43s4.05-2.01,7.01-2.01c6.97,0,10.54,2.91,10.71,8.72h-4.08c-.1-1.9-.68-3.25-1.73-4.03-1.05-.78-2.69-1.17-4.9-1.17-1.77,0-3.13.34-4.08,1.02-.95.68-1.43,1.63-1.43,2.86,0,1.16.41,2.02,1.22,2.6s2.18,1.07,4.08,1.48l2.35.46c3.23.65,5.55,1.56,6.96,2.75,1.41,1.19,2.12,2.86,2.12,5,0,2.48-.93,4.41-2.78,5.79-1.85,1.38-4.41,2.07-7.68,2.07Z"/>
    <path class="uuid-01215f8a-9ce2-4f93-a8d1-b081d8393bd7" d="m1182.17,213.11h-4.33v-5h4.33v5Zm-.1,30.29h-4.08v-26.32h4.08v26.32Z"/>
    <path class="uuid-01215f8a-9ce2-4f93-a8d1-b081d8393bd7" d="m1208.17,220.92v-3.83h3.88v25.3c0,3.6-1.05,6.44-3.16,8.52-2.11,2.07-5.13,3.11-9.08,3.11-3.26,0-5.88-.75-7.85-2.24-1.97-1.5-3.09-3.57-3.37-6.22h4.08c.51,3.33,2.89,5,7.14,5,5.44,0,8.16-2.72,8.16-8.16v-2.55c-2.07,2.79-5.02,4.18-8.82,4.18s-6.67-1.26-8.87-3.77c-2.24-2.52-3.37-5.85-3.37-10s1.12-7.56,3.37-10.05c2.17-2.48,5.13-3.72,8.87-3.72s6.92,1.48,9.03,4.44Zm-8.52,19.43c2.58,0,4.64-.9,6.17-2.7s2.29-4.27,2.29-7.4-.76-5.59-2.29-7.39c-1.53-1.8-3.59-2.7-6.17-2.7s-4.6.92-6.15,2.75c-1.55,1.84-2.32,4.28-2.32,7.34s.77,5.51,2.32,7.34c1.55,1.84,3.6,2.75,6.15,2.75Z"/>
    <path class="uuid-01215f8a-9ce2-4f93-a8d1-b081d8393bd7" d="m1230.31,216.48c2.92,0,5.2.8,6.83,2.4,1.63,1.6,2.45,3.84,2.45,6.73v17.8h-4.08v-17.39c0-3.91-2.01-5.87-6.02-5.87-1.9,0-3.59.71-5.05,2.14-1.46,1.43-2.19,3.5-2.19,6.22v14.89h-4.08v-26.32h3.88v3.93c2.01-3.03,4.76-4.54,8.26-4.54Z"/>
    <path class="uuid-01215f8a-9ce2-4f93-a8d1-b081d8393bd7" d="m1268.3,216.48c3.71,0,6.68,1.24,8.92,3.72,2.21,2.52,3.32,5.87,3.32,10.05s-1.11,7.48-3.32,10c-2.24,2.52-5.22,3.77-8.92,3.77-3.91,0-6.92-1.56-9.03-4.69v4.08h-3.88v-36.31h4.08v13.77c2.11-2.92,5.05-4.39,8.82-4.39Zm-.51,23.87c2.55,0,4.6-.93,6.15-2.78,1.55-1.85,2.32-4.36,2.32-7.52s-.76-5.52-2.27-7.27c-1.51-1.75-3.58-2.63-6.2-2.63s-4.64.88-6.17,2.65c-1.53,1.77-2.29,4.25-2.29,7.45s.76,5.63,2.29,7.4c1.53,1.8,3.59,2.7,6.17,2.7Z"/>
    <path class="uuid-01215f8a-9ce2-4f93-a8d1-b081d8393bd7" d="m1296.81,228.01l3.72-10.91h4.44l-11.12,30.45c-.78,2.21-1.85,3.77-3.21,4.67-1.36.9-3.15,1.35-5.35,1.35-.75,0-1.56-.05-2.45-.15v-3.42h2.4c2.35,0,3.94-1.09,4.79-3.26l.92-2.45-9.89-27.18h4.49l3.72,10.97c1.33,3.88,2.58,7.67,3.77,11.37.99-3.16,2.24-6.97,3.77-11.42Z"/>
    <path class="uuid-01215f8a-9ce2-4f93-a8d1-b081d8393bd7" d="m1327.21,220.41l-4.84,6.68-2.55-2.04,4.9-6.78-7.75-2.5,1.07-3.06,7.55,2.45v-8.06h3.26v8.06l7.55-2.45,1.07,3.06-7.75,2.5,4.9,6.78-2.55,2.04-4.84-6.68Z"/>
    <path class="uuid-01215f8a-9ce2-4f93-a8d1-b081d8393bd7" d="m1365.25,227.14l8.11-20.04h5.61v36.31h-4.18v-11.63c0-7.65.05-13.82.15-18.51-.82,2.24-1.89,5-3.21,8.26l-8.98,21.88h-3.67l-9.03-21.88c-1.33-3.26-2.4-6.02-3.21-8.26.1,4.69.15,10.86.15,18.51v11.63h-4.18v-36.31h5.61l8.42,20.66c1.26,3.09,2.63,6.58,4.13,10.46,2.07-5.51,3.5-9.2,4.28-11.07Z"/>
    <path class="uuid-01215f8a-9ce2-4f93-a8d1-b081d8393bd7" d="m1403.4,215.56l5.3-8.47h4.84l-13.87,21.73v14.59h-4.28v-14.59l-13.87-21.73h4.9l5.35,8.52c2.31,3.6,4.25,6.73,5.81,9.38,2.18-3.67,4.11-6.82,5.81-9.43Z"/>
    <path class="uuid-01215f8a-9ce2-4f93-a8d1-b081d8393bd7" d="m1420.38,207.1v32.44h18.26v3.88h-22.54v-36.31h4.28Z"/>
    <path class="uuid-01215f8a-9ce2-4f93-a8d1-b081d8393bd7" d="m1455.42,228.62v-3.88h15.45v18.67h-3.52l-.92-4.9c-2.69,3.81-6.65,5.71-11.88,5.71s-9.35-1.75-12.44-5.25c-3.16-3.47-4.74-8.04-4.74-13.72s1.56-10.23,4.69-13.77c3.09-3.47,7.28-5.2,12.55-5.2,4.32,0,7.89,1.16,10.71,3.47,2.82,2.31,4.54,5.39,5.15,9.23h-4.44c-.44-2.69-1.73-4.83-3.88-6.43-2.07-1.56-4.59-2.35-7.55-2.35-3.88,0-6.97,1.36-9.28,4.08-2.31,2.72-3.47,6.38-3.47,10.96s1.16,8.25,3.47,10.96c2.31,2.72,5.41,4.08,9.28,4.08,3.43,0,6.36-1.1,8.77-3.31s3.62-5,3.62-8.36h-11.58Z"/>
    <path class="uuid-01215f8a-9ce2-4f93-a8d1-b081d8393bd7" d="m1481.13,243.41h-5.15v-5.1h5.15v5.1Zm-1.33-9.49h-2.65l-.71-16.83v-10h4.28v10l-.92,16.83Z"/>
    <path class="uuid-01215f8a-9ce2-4f93-a8d1-b081d8393bd7" d="m1495.71,220.41l-4.84,6.68-2.55-2.04,4.9-6.78-7.75-2.5,1.07-3.06,7.55,2.45v-8.06h3.26v8.06l7.55-2.45,1.07,3.06-7.75,2.5,4.9,6.78-2.55,2.04-4.84-6.68Z"/>
  </g>
  <g>
    <path class="uuid-01215f8a-9ce2-4f93-a8d1-b081d8393bd7" d="m1866.6,136.21v11.28h-2.28v-14.1l1.17.06c1.76.12,3.27.52,4.53,1.2s2.36,1.83,3.3,3.45l1.56,2.7c.8,1.36,1.58,2.32,2.34,2.89.76.57,1.68.86,2.76.86,1.18,0,2.12-.38,2.83-1.12s1.06-1.79,1.06-3.11c0-2.98-1.53-4.47-4.59-4.47v-2.49c2.18-.02,3.87.59,5.07,1.83s1.8,2.97,1.8,5.19c0,2.02-.57,3.66-1.71,4.92-1.18,1.26-2.67,1.89-4.47,1.89-2.76,0-5.08-1.62-6.96-4.86l-1.32-2.28c-.8-1.32-1.58-2.27-2.33-2.85s-1.67-.91-2.77-.99Z"/>
    <path class="uuid-01215f8a-9ce2-4f93-a8d1-b081d8393bd7" d="m1875.69,160.42c-1.24,2.38-3.03,3.57-5.37,3.57-1.94,0-3.5-.68-4.68-2.04-1.2-1.34-1.8-3.11-1.8-5.31,0-2.38.62-4.23,1.86-5.54,1.24-1.31,2.93-1.96,5.07-1.94v2.49c-1.52.04-2.68.49-3.46,1.35-.79.86-1.19,2.07-1.19,3.63,0,1.44.38,2.58,1.14,3.43.76.85,1.78,1.28,3.06,1.28s2.33-.44,3.11-1.31c.77-.87,1.15-2.05,1.15-3.55v-1.59h2.1v1.44c0,1.42.32,2.52.96,3.29.64.77,1.53,1.16,2.67,1.16s2-.39,2.62-1.16.94-1.81.94-3.13-.34-2.41-1.03-3.2c-.69-.79-1.71-1.21-3.04-1.27v-2.52c1.94.02,3.48.66,4.63,1.91,1.15,1.25,1.72,2.94,1.72,5.08s-.51,3.71-1.54,4.96-2.45,1.88-4.25,1.88c-2.04,0-3.6-.97-4.68-2.91Z"/>
    <path class="uuid-01215f8a-9ce2-4f93-a8d1-b081d8393bd7" d="m1871.7,174.91v-8.67h2.16v8.67h-2.16Z"/>
    <path class="uuid-01215f8a-9ce2-4f93-a8d1-b081d8393bd7" d="m1866.72,191.14c-1.92-1.3-2.88-3.23-2.88-5.79s.96-4.51,2.88-5.79c1.94-1.3,4.7-1.95,8.28-1.95s6.34.65,8.28,1.95c1.92,1.28,2.88,3.21,2.88,5.79s-.96,4.49-2.88,5.79c-1.94,1.3-4.7,1.95-8.28,1.95s-6.34-.65-8.28-1.95Zm17.16-5.79c0-3.4-2.96-5.1-8.88-5.1s-8.88,1.7-8.88,5.1,2.96,5.1,8.88,5.1,8.88-1.7,8.88-5.1Z"/>
    <path class="uuid-01215f8a-9ce2-4f93-a8d1-b081d8393bd7" d="m1875.78,207.01c-.48,1.24-1.18,2.21-2.12,2.91-.93.7-2.02,1.05-3.29,1.05-2,0-3.59-.71-4.77-2.13-1.18-1.42-1.77-3.29-1.77-5.61s.59-4.19,1.77-5.61c1.18-1.42,2.77-2.13,4.77-2.13,1.26,0,2.36.35,3.29,1.05.93.7,1.64,1.67,2.12,2.91.9-2.06,2.41-3.09,4.53-3.09,1.82,0,3.26.65,4.32,1.95,1.02,1.3,1.53,2.94,1.53,4.92s-.51,3.62-1.53,4.92c-1.06,1.3-2.5,1.95-4.32,1.95-2.12,0-3.63-1.03-4.53-3.09Zm-8.52-7.5c-.76.94-1.14,2.18-1.14,3.72s.38,2.78,1.14,3.72c.74.92,1.78,1.38,3.12,1.38s2.41-.46,3.15-1.38c.74-.92,1.11-2.16,1.11-3.72s-.37-2.8-1.11-3.72c-.74-.92-1.79-1.38-3.15-1.38s-2.38.46-3.12,1.38Zm15.69,6.87c.62-.8.93-1.85.93-3.15s-.31-2.35-.93-3.15c-.64-.82-1.52-1.23-2.64-1.23s-2,.41-2.64,1.23c-.62.8-.93,1.85-.93,3.15s.31,2.35.93,3.15c.64.82,1.52,1.23,2.64,1.23s2-.41,2.64-1.23Z"/>
    <path class="uuid-01215f8a-9ce2-4f93-a8d1-b081d8393bd7" d="m1871.7,221.89v-8.67h2.16v8.67h-2.16Z"/>
    <path class="uuid-01215f8a-9ce2-4f93-a8d1-b081d8393bd7" d="m1866.6,227.32v11.28h-2.28v-14.1l1.17.06c1.76.12,3.27.52,4.53,1.2s2.36,1.83,3.3,3.45l1.56,2.7c.8,1.36,1.58,2.32,2.34,2.89.76.57,1.68.86,2.76.86,1.18,0,2.12-.38,2.83-1.12s1.06-1.79,1.06-3.11c0-2.98-1.53-4.47-4.59-4.47v-2.49c2.18-.02,3.87.59,5.07,1.83s1.8,2.97,1.8,5.19c0,2.02-.57,3.66-1.71,4.92-1.18,1.26-2.67,1.89-4.47,1.89-2.76,0-5.08-1.62-6.96-4.86l-1.32-2.28c-.8-1.32-1.58-2.27-2.33-2.85s-1.67-.91-2.77-.99Z"/>
    <path class="uuid-01215f8a-9ce2-4f93-a8d1-b081d8393bd7" d="m1878.24,247.54c0,2.28-.67,4.06-2.01,5.34-1.34,1.28-3.07,1.92-5.19,1.92s-3.82-.67-5.16-2.01-2.04-3.16-2.04-5.4c0-2.04.59-3.73,1.77-5.07,1.16-1.34,2.71-2.07,4.65-2.19v2.52c-1.28.12-2.29.62-3.03,1.5-.74.88-1.11,1.96-1.11,3.24,0,1.4.46,2.54,1.37,3.44.91.89,2.09,1.33,3.55,1.33s2.64-.45,3.56-1.33c.91-.89,1.36-2.04,1.36-3.44,0-2.1-.86-3.56-2.58-4.38v-2.34l12.3,1.8v11.04h-2.28v-9l-6.72-1.02c1.04,1.16,1.56,2.51,1.56,4.05Z"/>
  </g>
</svg>