<?xml version="1.0" encoding="utf-8"?>
<!-- Generator: Adobe Illustrator 28.0.0, SVG Export Plug-In . SVG Version: 6.00 Build 0)  -->
<svg version="1.1" id="uuid-335e38ae-b1fe-4d37-beca-110d0a90d357"
	 xmlns="http://www.w3.org/2000/svg" xmlns:xlink="http://www.w3.org/1999/xlink" x="0px" y="0px" viewBox="0 0 1711.3 1377"
	 style="enable-background:new 0 0 1711.3 1377;" xml:space="preserve">
<style type="text/css">
	.st0{fill:#F4F4F4;}
	.st1{fill:none;stroke:#753BBD;stroke-width:16;}
	.st2{fill:none;stroke:#753BBD;stroke-width:14;}
</style>
<g id="uuid-6b8c02b0-f0a8-40e9-9d58-17c9c1c22e39">
	<g id="uuid-55907b58-9dbb-4382-88a9-0e778201919d">
		<g>
			<path class="st0" d="M385.5,227.4v14.4H312v43.1h65.9v14.4H312v63.3h-16V227.4H385.5z"/>
			<path class="st0" d="M471.4,350.3h5.5v12.4c-2.5,0.4-5.3,0.6-8.4,0.6c-10.3,0-15.8-4.7-16.5-14.1c-6.8,10.5-17.5,15.8-31.9,15.8
				c-10.8,0-19.2-2.5-25.4-7.5c-6.1-5-9.2-12.1-9.2-21.2c0-17.7,12.1-27.9,36.3-30.4l14.1-1.5c10.3-1.1,15.4-5.6,15.4-13.5
				c0-5.4-1.7-9.4-5-11.8c-3.4-2.4-9-3.6-17-3.6c-8.5,0-14.6,1.4-18.3,4.3c-3.7,2.9-5.9,7.9-6.4,15.1h-15.2
				c1.3-21.7,14.6-32.5,39.9-32.5s36.9,9.5,36.9,28.5v54.7C466.1,348.7,467.9,350.3,471.4,350.3L471.4,350.3z M420.8,352
				c8.1,0,15.2-2.5,21.3-7.4c6.1-4.8,9.1-11.7,9.1-20.7v-11.6c-2.8,2.2-7.1,3.6-12.9,4.2l-14.2,1.7c-8.2,1-14.1,2.9-17.6,5.7
				c-3.5,2.8-5.2,6.8-5.2,12s1.6,9,4.9,11.9C409.5,350.6,414.4,352,420.8,352L420.8,352z"/>
			<path class="st0" d="M531.6,262.3c13.8,0,24.9,4.6,33.2,13.9c8.2,9.4,12.3,21.8,12.3,37.4s-4.1,27.9-12.3,37.2
				c-8.4,9.4-19.5,14.1-33.2,14.1c-14.6,0-25.8-5.8-33.6-17.5v15.2h-14.4V227.4h15.2v51.3C506.6,267.8,517.6,262.3,531.6,262.3z
				 M529.7,351.2c9.5,0,17.1-3.5,22.9-10.4c5.8-6.9,8.7-16.2,8.7-28s-2.8-20.6-8.5-27.1c-5.6-6.5-13.3-9.8-23.1-9.8
				s-17.3,3.3-23,9.9s-8.5,15.8-8.5,27.7s2.9,21,8.5,27.6C512.4,347.9,520.1,351.2,529.7,351.2L529.7,351.2z"/>
			<path class="st0" d="M635.5,263.1c2.5,0,4.2,0.1,5.1,0.2v14.6h-3.8c-10.1,0-18,2.5-23.7,7.5c-5.6,5-8.5,12.1-8.5,21.4v55.9h-15.2
				v-98H604v17.3C610.6,269.3,621.1,263.1,635.5,263.1L635.5,263.1z"/>
			<path class="st0" d="M664.8,249.8h-16.2v-18.6h16.2V249.8z M664.4,362.6h-15.2v-98h15.2V362.6z"/>
			<path class="st0" d="M722.2,364.9c-13.6,0-24.5-4.7-32.9-14.1c-8.4-9.4-12.5-21.8-12.5-37.2c0-15.5,4.2-28.2,12.5-37.4
				c8.1-9.2,19.1-13.9,32.9-13.9c11.7,0,21.2,3.2,28.7,9.5c7.5,6.3,12,15,13.5,26h-15.8c-1.1-7-4.2-12.4-9-16.1
				c-4.9-3.8-10.7-5.7-17.4-5.7c-9,0-16.2,3.3-21.5,9.8c-5.3,6.5-8,15.8-8,27.8c0,12,2.7,21.2,8.1,27.7c5.4,6.6,12.5,9.9,21.4,9.9
				c6.7,0,12.5-2,17.5-5.9c4.9-3.9,8-9.4,9.1-16.3h15.6c-1.7,11-6.3,19.8-14,26.2C742.7,361.7,733.3,364.9,722.2,364.9L722.2,364.9z
				"/>
			<path class="st0" d="M806.2,227.4h45.6c20.5,0,36.7,6,48.6,17.9c11.8,11.9,17.7,28.5,17.7,49.8s-5.9,37.6-17.7,49.6
				c-12,12-28.2,18-48.6,18h-45.6V227.4z M822.1,348.2h29.6c16,0,28.2-4.7,36.8-14.1c8.5-9.4,12.8-22.4,12.8-39.1
				s-4.3-29.8-12.8-39.1c-8.5-9.4-20.8-14.1-36.8-14.1h-29.6V348.2z"/>
			<path class="st0" d="M1016.9,313.6v5.3h-74.5c0.8,10.6,3.7,18.6,8.9,24c5.2,5.4,12.3,8.1,21.3,8.1c13.5,0,22.2-6.1,26-18.2h15.8
				c-2.7,9.9-7.6,17.7-14.8,23.5c-7.2,5.8-16.3,8.6-27.4,8.6c-13.6,0-24.5-4.6-32.9-13.9c-8.5-9.2-12.7-21.7-12.7-37.4
				c0-15.7,4.2-27.9,12.5-37.2c8.2-9.4,19.1-14.1,32.7-14.1s25.1,4.9,33.1,14.6C1012.9,286.7,1016.9,298.9,1016.9,313.6
				L1016.9,313.6z M971.8,276.2c-8,0-14.5,2.5-19.6,7.5c-5.1,5-8.2,12.2-9.5,21.6h57.8c-0.8-8.6-3.7-15.6-8.7-21
				C986.7,278.9,980.1,276.2,971.8,276.2L971.8,276.2z"/>
			<path class="st0" d="M1062.8,364.9c-26.2,0-40.1-11.1-41.6-33.4h15.4c0.9,7.4,3.3,12.6,7.3,15.7c4,3.1,10.3,4.7,18.9,4.7
				c15.7,0,23.6-5.1,23.6-15.2c0-4.4-1.6-7.8-4.8-10.1c-3.2-2.3-9.1-4.2-17.6-5.9l-9.1-1.7c-20.4-3.8-30.6-13.4-30.6-28.9
				c0-8.5,3.2-15.2,9.6-20.2c6.4-5,15.1-7.5,26.1-7.5c26,0,39.3,10.8,39.9,32.5h-15.2c-0.4-7.1-2.5-12.1-6.5-15
				c-3.9-2.9-10-4.4-18.2-4.4c-6.6,0-11.7,1.3-15.2,3.8c-3.6,2.5-5.3,6.1-5.3,10.6c0,4.3,1.5,7.5,4.6,9.7c3,2.2,8.1,4,15.2,5.5
				l8.7,1.7c12,2.4,20.7,5.8,25.9,10.3c5.2,4.4,7.9,10.6,7.9,18.6c0,9.2-3.4,16.4-10.3,21.6C1084.5,362.4,1075,364.9,1062.8,364.9
				L1062.8,364.9z"/>
			<path class="st0" d="M1126.9,249.8h-16.2v-18.6h16.2V249.8z M1126.5,362.6h-15.2v-98h15.2V362.6z"/>
			<path class="st0" d="M1218.1,278.8v-14.2h14.4v94.2c0,13.4-3.9,24-11.8,31.7c-7.9,7.7-19.1,11.6-33.8,11.6
				c-12.2,0-21.9-2.8-29.3-8.4c-7.3-5.6-11.5-13.3-12.5-23.2h15.2c1.9,12.4,10.8,18.6,26.6,18.6c20.3,0,30.4-10.1,30.4-30.4v-9.5
				c-7.7,10.4-18.7,15.6-32.9,15.6s-24.8-4.7-33.1-14.1c-8.4-9.4-12.5-21.8-12.5-37.2c0-15.5,4.2-28.2,12.5-37.4
				c8.1-9.2,19.1-13.9,33.1-13.9S1210.2,267.8,1218.1,278.8L1218.1,278.8z M1186.3,351.2c9.6,0,17.3-3.4,23-10.1
				c5.7-6.7,8.6-15.9,8.6-27.6s-2.8-20.8-8.6-27.5c-5.7-6.7-13.4-10.1-23-10.1s-17.1,3.4-22.9,10.3c-5.8,6.8-8.6,16-8.6,27.4
				s2.9,20.5,8.6,27.4S1176.8,351.2,1186.3,351.2L1186.3,351.2z"/>
			<path class="st0" d="M1294.8,262.3c10.9,0,19.4,3,25.5,8.9c6.1,6,9.1,14.3,9.1,25.1v66.3h-15.2v-64.8c0-14.6-7.5-21.8-22.4-21.8
				c-7.1,0-13.4,2.7-18.8,8c-5.4,5.3-8.2,13.1-8.2,23.2v55.5h-15.2v-98h14.4v14.6C1271.5,268,1281.8,262.3,1294.8,262.3
				L1294.8,262.3z"/>
		</g>
	</g>
</g>
<path id="uuid-f1709a83-9ff8-40ab-96b9-c38dec4dc3b8" class="st1" d="M276.7,350.1c-20,10.9-41.1,19.8-63,26.4
	c-21.8,6.4-46,10.3-66.2,5.6c-51.6-12-34.7-80.2-77.1-80.2s-63,48.2-63,48.2"/>
<path id="uuid-70742123-5042-4673-bec0-ad5f0cec260b" class="st2" d="M1358.7,334c0,0,1,66.8,9.9,46.3s15.3-128.2,25.7-128.2
	s5.8,128.2,15.8,128.2s14.7-128.2,24.4-128.2s4.8,128.2,14.4,128.2s13.4-128.2,24.2-128.2s8.8,128.2,18.8,128.2
	s11.5-128.2,21.3-128.2s8.7,128.2,17.9,128.2s9.8-128.2,19.1-128.2s10.1,128.2,18,128.2s3-127.5,13.8-128.2s12.6,71.3,34.7,76.6
	s28.2-47.2,53.6-55.6c25.4-8.4,34.1,27.3,34.1,27.3"/>
<image style="overflow:visible;enable-background:new    ;" width="1690" height="528" xlink:href="https://d2qb21tb4meex0.cloudfront.net/06-Chevron/Group+540.png"  transform="matrix(1 0 0 1 1.25 648.96)">
</image>
</svg>
