<?xml version="1.0" encoding="UTF-8"?>
<svg id="uuid-276e5076-90e6-4944-bc31-7bf3a9d9ce00" data-name="Layer 1" xmlns="http://www.w3.org/2000/svg" xmlns:xlink="http://www.w3.org/1999/xlink" viewBox="0 0 1879.67 1443.66">
  <defs>
    <style>
      .uuid-baef9cca-98e3-4319-aec6-08b31dfda9dd {
        isolation: isolate;
      }

      .uuid-9eff35e0-dff0-4081-b3aa-583bf2c4e54a {
        fill: #f4f4f4;
      }

      .uuid-9eff35e0-dff0-4081-b3aa-583bf2c4e54a, .uuid-c9afc853-ef7c-44a9-9a77-641382cb5b21 {
        stroke-width: 0px;
      }

      .uuid-c9afc853-ef7c-44a9-9a77-641382cb5b21 {
        fill: #8d8787;
      }
    </style>
  </defs>
  <g id="uuid-9a450736-00ec-4435-83dc-6c7c166c906e" data-name="Works pg title text ">
    <g id="uuid-f9f8a379-bbf5-4612-8e1c-c0de1c08228d" data-name="Education Booths " class="uuid-baef9cca-98e3-4319-aec6-08b31dfda9dd">
      <g class="uuid-baef9cca-98e3-4319-aec6-08b31dfda9dd">
        <path class="uuid-9eff35e0-dff0-4081-b3aa-583bf2c4e54a" d="m151.37,31.68v16.72H60.95v49.94h81.62v16.72H60.95v56.54h89.54v16.72H42.47V31.68h108.9Z"/>
        <path class="uuid-9eff35e0-dff0-4081-b3aa-583bf2c4e54a" d="m247.73,91.08V31.68h17.6v156.64h-16.72v-17.6c-9.1,13.5-22.08,20.24-38.94,20.24-15.99,0-28.75-5.42-38.28-16.28-9.68-10.85-14.52-25.22-14.52-43.12s4.84-32.63,14.52-43.34c9.38-10.71,22.14-16.06,38.28-16.06s28.96,6.31,38.06,18.92Zm-62.48,72.82c6.6,7.48,15.47,11.22,26.62,11.22s20.02-3.88,26.62-11.66c6.6-7.62,9.9-18.26,9.9-31.9s-3.3-24.12-9.9-31.9c-6.6-7.77-15.48-11.66-26.62-11.66s-19.84,4-26.51,11.99c-6.68,8-10.01,18.81-10.01,32.45s3.3,23.98,9.9,31.46Z"/>
        <path class="uuid-9eff35e0-dff0-4081-b3aa-583bf2c4e54a" d="m359.93,139.04v-64.24h17.6v113.52h-16.72v-16.94c-8.66,13.06-20.54,19.58-35.64,19.58-12.62,0-22.44-3.44-29.48-10.34-7.04-6.89-10.56-16.57-10.56-29.04v-76.78h17.6v75.02c0,16.87,8.65,25.3,25.96,25.3,8.21,0,15.47-3.08,21.78-9.24,6.3-6.16,9.46-15.1,9.46-26.84Z"/>
        <path class="uuid-9eff35e0-dff0-4081-b3aa-583bf2c4e54a" d="m444.4,190.96c-15.7,0-28.38-5.42-38.06-16.28-9.68-10.85-14.52-25.22-14.52-43.12s4.84-32.63,14.52-43.34c9.38-10.71,22.07-16.06,38.06-16.06,13.49,0,24.56,3.67,33.22,11,8.65,7.34,13.86,17.38,15.62,30.14h-18.26c-1.32-8.06-4.81-14.3-10.45-18.7-5.65-4.4-12.36-6.6-20.13-6.6-10.42,0-18.7,3.78-24.86,11.33-6.16,7.56-9.24,18.3-9.24,32.23s3.11,24.5,9.35,32.12c6.23,7.63,14.48,11.44,24.75,11.44,7.77,0,14.52-2.27,20.24-6.82,5.72-4.54,9.24-10.85,10.56-18.92h18.04c-1.91,12.76-7.3,22.88-16.17,30.36-8.88,7.48-19.77,11.22-32.67,11.22Z"/>
        <path class="uuid-9eff35e0-dff0-4081-b3aa-583bf2c4e54a" d="m598.18,174.02h6.38v14.3c-2.94.44-6.16.66-9.68.66-11.88,0-18.26-5.42-19.14-16.28-7.92,12.18-20.24,18.26-36.96,18.26-12.47,0-22.26-2.89-29.37-8.69-7.12-5.79-10.67-13.97-10.67-24.53,0-20.53,14-32.26,42.02-35.2l16.28-1.76c11.88-1.32,17.82-6.52,17.82-15.62,0-6.3-1.95-10.85-5.83-13.64-3.89-2.78-10.45-4.18-19.69-4.18-9.83,0-16.91,1.65-21.23,4.95-4.33,3.3-6.79,9.13-7.37,17.49h-17.6c1.46-25.08,16.86-37.62,46.2-37.62s42.68,11,42.68,33v63.36c0,3.67,2.05,5.5,6.16,5.5Zm-58.52,1.98c9.38,0,17.6-2.86,24.64-8.58,7.04-5.57,10.56-13.56,10.56-23.98v-13.42c-3.23,2.5-8.22,4.11-14.96,4.84l-16.5,1.98c-9.54,1.18-16.32,3.38-20.35,6.6-4.04,3.23-6.05,7.85-6.05,13.86s1.9,10.45,5.72,13.75c3.81,3.3,9.46,4.95,16.94,4.95Z"/>
        <path class="uuid-9eff35e0-dff0-4081-b3aa-583bf2c4e54a" d="m658.69,74.8v15.4h-23.32v73.7c0,6.46,4.32,9.68,12.98,9.68h10.34v14.74c-4.84.44-9.02.66-12.54.66-18.92,0-28.38-7.84-28.38-23.54v-75.24h-18.7v-15.4h18.7v-32.12h17.6v32.12h23.32Z"/>
        <path class="uuid-9eff35e0-dff0-4081-b3aa-583bf2c4e54a" d="m688.82,57.64h-18.7v-21.56h18.7v21.56Zm-.44,130.68h-17.6v-113.52h17.6v113.52Z"/>
        <path class="uuid-9eff35e0-dff0-4081-b3aa-583bf2c4e54a" d="m797.28,174.68c-10.42,10.86-23.62,16.28-39.6,16.28s-29.19-5.42-39.6-16.28c-10.27-10.71-15.4-25.08-15.4-43.12s5.13-32.41,15.4-43.12c10.41-10.85,23.61-16.28,39.6-16.28s29.18,5.43,39.6,16.28c10.26,10.71,15.4,25.08,15.4,43.12s-5.14,32.42-15.4,43.12Zm-66.22-11.22c6.6,7.78,15.47,11.66,26.62,11.66s20.02-3.88,26.62-11.66c6.6-7.62,9.9-18.26,9.9-31.9s-3.3-24.49-9.9-32.12c-6.6-7.62-15.48-11.44-26.62-11.44s-20.02,3.82-26.62,11.44c-6.6,7.63-9.9,18.34-9.9,32.12s3.3,24.28,9.9,31.9Z"/>
        <path class="uuid-9eff35e0-dff0-4081-b3aa-583bf2c4e54a" d="m879.34,72.16c12.61,0,22.44,3.45,29.48,10.34,7.04,6.9,10.56,16.58,10.56,29.04v76.78h-17.6v-75.02c0-16.87-8.66-25.3-25.96-25.3-8.22,0-15.48,3.08-21.78,9.24-6.31,6.16-9.46,15.11-9.46,26.84v64.24h-17.6v-113.52h16.72v16.94c8.65-13.05,20.53-19.58,35.64-19.58Z"/>
      </g>
      <g class="uuid-baef9cca-98e3-4319-aec6-08b31dfda9dd">
        <path class="uuid-9eff35e0-dff0-4081-b3aa-583bf2c4e54a" d="m134.65,271.92c18.04,6.9,27.06,19.36,27.06,37.4,0,13.64-4.44,24.39-13.31,32.23-8.88,7.85-21.38,11.77-37.51,11.77H42.47v-156.64h65.12c15.1,0,26.84,3.78,35.2,11.33,8.36,7.56,12.54,17.42,12.54,29.59,0,15.7-6.9,27.14-20.68,34.32Zm-28.38-58.52h-45.32v51.7h45.32c10.12,0,17.82-2.34,23.1-7.04,5.28-4.69,7.92-11.29,7.92-19.8,0-7.77-2.68-13.86-8.03-18.26-5.36-4.4-13.02-6.6-22.99-6.6Zm-45.32,123.2h49.06c10.85,0,19.1-2.34,24.75-7.04,5.64-4.69,8.47-11.44,8.47-20.24,0-18.48-11.15-27.72-33.44-27.72h-48.84v55Z"/>
        <path class="uuid-9eff35e0-dff0-4081-b3aa-583bf2c4e54a" d="m265.1,339.68c-10.42,10.86-23.62,16.28-39.6,16.28s-29.19-5.42-39.6-16.28c-10.27-10.71-15.4-25.08-15.4-43.12s5.13-32.41,15.4-43.12c10.41-10.85,23.61-16.28,39.6-16.28s29.18,5.43,39.6,16.28c10.26,10.71,15.4,25.08,15.4,43.12s-5.14,32.42-15.4,43.12Zm-66.22-11.22c6.6,7.78,15.47,11.66,26.62,11.66s20.02-3.88,26.62-11.66c6.6-7.62,9.9-18.26,9.9-31.9s-3.3-24.49-9.9-32.12c-6.6-7.62-15.48-11.44-26.62-11.44s-20.02,3.82-26.62,11.44c-6.6,7.63-9.9,18.34-9.9,32.12s3.3,24.28,9.9,31.9Z"/>
        <path class="uuid-9eff35e0-dff0-4081-b3aa-583bf2c4e54a" d="m383.9,339.68c-10.42,10.86-23.62,16.28-39.6,16.28s-29.19-5.42-39.6-16.28c-10.27-10.71-15.4-25.08-15.4-43.12s5.13-32.41,15.4-43.12c10.41-10.85,23.61-16.28,39.6-16.28s29.18,5.43,39.6,16.28c10.26,10.71,15.4,25.08,15.4,43.12s-5.14,32.42-15.4,43.12Zm-66.22-11.22c6.6,7.78,15.47,11.66,26.62,11.66s20.02-3.88,26.62-11.66c6.6-7.62,9.9-18.26,9.9-31.9s-3.3-24.49-9.9-32.12c-6.6-7.62-15.48-11.44-26.62-11.44s-20.02,3.82-26.62,11.44c-6.6,7.63-9.9,18.34-9.9,32.12s3.3,24.28,9.9,31.9Z"/>
        <path class="uuid-9eff35e0-dff0-4081-b3aa-583bf2c4e54a" d="m456.72,239.8v15.4h-23.32v73.7c0,6.46,4.32,9.68,12.98,9.68h10.34v14.74c-4.84.44-9.02.66-12.54.66-18.92,0-28.38-7.84-28.38-23.54v-75.24h-18.7v-15.4h18.7v-32.12h17.6v32.12h23.32Z"/>
        <path class="uuid-9eff35e0-dff0-4081-b3aa-583bf2c4e54a" d="m521.18,237.16c12.61,0,22.44,3.45,29.48,10.34,7.04,6.9,10.56,16.58,10.56,29.04v76.78h-17.6v-75.02c0-16.87-8.66-25.3-25.96-25.3-8.22,0-15.48,3.08-21.78,9.24-6.31,6.16-9.46,15.11-9.46,26.84v64.24h-17.6v-156.64h17.6v58.74c8.65-12.17,20.24-18.26,34.76-18.26Z"/>
        <path class="uuid-9eff35e0-dff0-4081-b3aa-583bf2c4e54a" d="m621.06,355.96c-30.36,0-46.42-12.9-48.18-38.72h17.82c1.02,8.51,3.85,14.56,8.47,18.15,4.62,3.6,11.91,5.39,21.89,5.39,18.18,0,27.28-5.86,27.28-17.6,0-5.13-1.87-9.02-5.61-11.66-3.74-2.64-10.53-4.91-20.35-6.82l-10.56-1.98c-23.62-4.4-35.42-15.54-35.42-33.44,0-9.82,3.7-17.63,11.11-23.43,7.4-5.79,17.49-8.69,30.25-8.69,30.06,0,45.46,12.54,46.2,37.62h-17.6c-.44-8.21-2.94-14-7.48-17.38-4.55-3.37-11.59-5.06-21.12-5.06-7.63,0-13.5,1.47-17.6,4.4-4.11,2.94-6.16,7.04-6.16,12.32,0,4.99,1.76,8.73,5.28,11.22,3.52,2.5,9.38,4.62,17.6,6.38l10.12,1.98c13.93,2.79,23.94,6.75,30.03,11.88,6.08,5.14,9.13,12.32,9.13,21.56,0,10.71-4,19.03-11.99,24.97-8,5.94-19.03,8.91-33.11,8.91Z"/>
      </g>
    </g>
  </g>
  <g id="uuid-3ac40bcb-1ba5-4b14-807c-958af95e0093" data-name="PANTONE BY DESIGN " class="uuid-baef9cca-98e3-4319-aec6-08b31dfda9dd">
    <g class="uuid-baef9cca-98e3-4319-aec6-08b31dfda9dd">
      <path class="uuid-c9afc853-ef7c-44a9-9a77-641382cb5b21" d="m48.59,407.9h20.13c5.12,0,9.08,1.34,11.87,4.01,2.79,2.68,4.18,6.3,4.18,10.88s-1.39,8.21-4.18,10.88-6.74,4.01-11.87,4.01h-14.42v18.63h-5.71v-48.42Zm5.71,24.62h14.42c3.35,0,5.88-.83,7.58-2.48,1.7-1.65,2.55-4.07,2.55-7.24s-.85-5.59-2.55-7.24c-1.7-1.65-4.23-2.48-7.58-2.48h-14.42v19.45Z"/>
      <path class="uuid-c9afc853-ef7c-44a9-9a77-641382cb5b21" d="m123.18,456.32h-6.05l-5.64-14.08h-22.03l-5.58,14.08h-5.98l19.31-48.42h6.39l19.58,48.42Zm-31.48-19.79l-.2.54h17.95l-.27-.61c-1.13-2.76-4.08-10.22-8.84-22.37-3.22,8.61-6.1,16.09-8.64,22.44Z"/>
      <path class="uuid-c9afc853-ef7c-44a9-9a77-641382cb5b21" d="m158.07,424.22v-16.32h5.64v48.42h-6.94l-16.05-24.96c-4.62-7.34-7.98-12.81-10.06-16.39.14,6.35.2,14.69.2,25.02v16.32h-5.64v-48.42h6.94l16.05,24.96c4.62,7.34,7.98,12.81,10.06,16.39-.14-6.35-.2-14.69-.2-25.02Z"/>
      <path class="uuid-c9afc853-ef7c-44a9-9a77-641382cb5b21" d="m166.77,407.9h38.83v5.17h-16.46v43.25h-5.92v-43.25h-16.46v-5.17Z"/>
      <path class="uuid-c9afc853-ef7c-44a9-9a77-641382cb5b21" d="m242.59,450.4c-4.26,4.67-9.88,7-16.86,7s-12.58-2.33-16.8-7c-4.26-4.58-6.39-10.68-6.39-18.29s2.13-13.69,6.39-18.36c4.22-4.62,9.81-6.94,16.8-6.94s12.6,2.31,16.86,6.94c4.22,4.72,6.32,10.84,6.32,18.36s-2.11,13.67-6.32,18.29Zm-29.38-3.67c3.13,3.63,7.3,5.44,12.51,5.44s9.38-1.81,12.51-5.44c3.13-3.58,4.69-8.45,4.69-14.62s-1.56-11.04-4.69-14.62c-3.13-3.63-7.3-5.44-12.51-5.44s-9.38,1.81-12.51,5.44c-3.13,3.58-4.69,8.46-4.69,14.62s1.56,11.04,4.69,14.62Z"/>
      <path class="uuid-c9afc853-ef7c-44a9-9a77-641382cb5b21" d="m286.52,424.22v-16.32h5.64v48.42h-6.94l-16.05-24.96c-4.62-7.34-7.98-12.81-10.06-16.39.14,6.35.2,14.69.2,25.02v16.32h-5.64v-48.42h6.94l16.05,24.96c4.62,7.34,7.98,12.81,10.06,16.39-.14-6.35-.2-14.69-.2-25.02Z"/>
      <path class="uuid-c9afc853-ef7c-44a9-9a77-641382cb5b21" d="m332.62,407.9v5.17h-27.95v15.44h25.23v5.17h-25.23v17.48h27.68v5.17h-33.39v-48.42h33.66Z"/>
      <path class="uuid-c9afc853-ef7c-44a9-9a77-641382cb5b21" d="m376.07,431.16c5.58,2.13,8.36,5.98,8.36,11.56,0,4.22-1.37,7.54-4.11,9.96-2.74,2.43-6.61,3.64-11.59,3.64h-21.15v-48.42h20.13c4.67,0,8.3,1.17,10.88,3.5,2.58,2.33,3.88,5.38,3.88,9.15,0,4.85-2.13,8.39-6.39,10.61Zm-8.77-18.09h-14.01v15.98h14.01c3.13,0,5.51-.72,7.14-2.18,1.63-1.45,2.45-3.49,2.45-6.12,0-2.4-.83-4.28-2.48-5.64-1.66-1.36-4.02-2.04-7.11-2.04Zm-14.01,38.08h15.16c3.35,0,5.9-.72,7.65-2.18,1.74-1.45,2.62-3.54,2.62-6.26,0-5.71-3.45-8.57-10.34-8.57h-15.1v17Z"/>
      <path class="uuid-c9afc853-ef7c-44a9-9a77-641382cb5b21" d="m409.53,419.19l7.07-11.29h6.46l-18.5,28.97v19.45h-5.71v-19.45l-18.5-28.97h6.53l7.14,11.36c3.08,4.81,5.67,8.98,7.75,12.51,2.9-4.9,5.48-9.09,7.75-12.58Z"/>
      <path class="uuid-c9afc853-ef7c-44a9-9a77-641382cb5b21" d="m437.34,407.9h16.32c7.34,0,13.15,2.13,17.41,6.39,4.22,4.26,6.32,10.2,6.32,17.82s-2.11,13.44-6.32,17.75c-4.31,4.31-10.11,6.46-17.41,6.46h-16.32v-48.42Zm5.71,43.25h10.61c5.71,0,10.1-1.68,13.16-5.03,3.06-3.35,4.59-8.02,4.59-14.01s-1.53-10.65-4.59-14.01c-3.06-3.35-7.45-5.03-13.16-5.03h-10.61v38.08Z"/>
      <path class="uuid-c9afc853-ef7c-44a9-9a77-641382cb5b21" d="m515.81,407.9v5.17h-27.95v15.44h25.23v5.17h-25.23v17.48h27.68v5.17h-33.39v-48.42h33.66Z"/>
      <path class="uuid-c9afc853-ef7c-44a9-9a77-641382cb5b21" d="m537.3,457.41c-6.3,0-11.22-1.43-14.76-4.28-3.54-2.86-5.33-7.12-5.37-12.78h5.92c.14,7.93,4.87,11.9,14.21,11.9,3.94,0,6.97-.77,9.08-2.31s3.16-3.79,3.16-6.73c0-2.31-.87-4.11-2.62-5.41-1.75-1.29-4.79-2.41-9.15-3.37l-4.28-.95c-4.9-1.13-8.57-2.78-11.02-4.93-2.45-2.15-3.67-5.18-3.67-9.08s1.5-6.92,4.49-9.21c2.99-2.29,7-3.43,12.04-3.43,3.4,0,6.36.41,8.87,1.22,2.52.82,4.48,1.96,5.88,3.43,1.4,1.47,2.44,3.07,3.09,4.79.66,1.72,1.01,3.63,1.05,5.71h-5.85c-.27-3.44-1.39-5.97-3.37-7.58-1.97-1.61-5.2-2.41-9.69-2.41-3.4,0-6.02.66-7.85,1.97-1.84,1.32-2.75,3.15-2.75,5.51s.79,4.19,2.38,5.51c1.54,1.32,4.53,2.47,8.98,3.47l4.28.95c5.35,1.18,9.2,2.87,11.56,5.07,2.36,2.2,3.54,5.11,3.54,8.74,0,4.4-1.61,7.87-4.83,10.4-3.22,2.54-7.66,3.81-13.33,3.81Z"/>
      <path class="uuid-c9afc853-ef7c-44a9-9a77-641382cb5b21" d="m565.25,456.32h-5.71v-48.42h5.71v48.42Z"/>
      <path class="uuid-c9afc853-ef7c-44a9-9a77-641382cb5b21" d="m594.08,436.6v-5.17h20.6v24.89h-4.69l-1.22-6.53c-3.58,5.08-8.86,7.62-15.84,7.62s-12.47-2.33-16.59-7c-4.22-4.62-6.32-10.72-6.32-18.29s2.08-13.64,6.26-18.36c4.12-4.62,9.7-6.94,16.73-6.94,5.76,0,10.52,1.54,14.28,4.62,3.76,3.08,6.05,7.19,6.87,12.31h-5.92c-.59-3.58-2.31-6.44-5.17-8.57-2.77-2.08-6.12-3.13-10.06-3.13-5.17,0-9.29,1.81-12.38,5.44-3.08,3.63-4.62,8.5-4.62,14.62s1.54,10.99,4.62,14.62c3.08,3.63,7.21,5.44,12.38,5.44,4.58,0,8.48-1.47,11.7-4.42,3.22-2.95,4.83-6.66,4.83-11.15h-15.44Z"/>
      <path class="uuid-c9afc853-ef7c-44a9-9a77-641382cb5b21" d="m653.65,424.22v-16.32h5.64v48.42h-6.94l-16.05-24.96c-4.62-7.34-7.98-12.81-10.06-16.39.14,6.35.2,14.69.2,25.02v16.32h-5.64v-48.42h6.94l16.05,24.96c4.62,7.34,7.98,12.81,10.06,16.39-.14-6.35-.2-14.69-.2-25.02Z"/>
    </g>
  </g>
  <image width="347" height="521" transform="translate(.33 531.44) scale(.86)" xlink:href="https://mylgcontent.s3.us-west-1.amazonaws.com/06-Chevron/pantone-color-chip-266-c.png"/>
  <image width="296" height="444" transform="translate(634.33 995.99)" xlink:href="https://mylgcontent.s3.us-west-1.amazonaws.com/06-Chevron/pantone-color-chip-306-c.png"/>
  <image width="297" height="444" transform="translate(316.5 995.99)" xlink:href="https://mylgcontent.s3.us-west-1.amazonaws.com/06-Chevron/pantone-color-chip-360-c.png"/>
  <image width="345" height="518" transform="translate(633 531.44) scale(.87)" xlink:href="https://mylgcontent.s3.us-west-1.amazonaws.com/06-Chevron/pantone-color-chip-7417-c.png"/>
  <image width="298" height="444" transform="translate(0 995.99)" xlink:href="https://mylgcontent.s3.us-west-1.amazonaws.com/06-Chevron/pantone-color-chip-395-c.png"/>
  <image width="296" height="444" transform="translate(316.67 531.66) scale(1.01)" xlink:href="https://mylgcontent.s3.us-west-1.amazonaws.com/06-Chevron/pantone-color-chip-2144-c.png"/>
  <image width="928" height="906" transform="translate(951.67 537.66)" xlink:href="https://mylgcontent.s3.us-west-1.amazonaws.com/06-Chevron/03.png"/>
</svg>