<?xml version="1.0" encoding="UTF-8"?>
<svg id="uuid-79f2e788-6220-4b9b-bd05-5d546919ec9a" data-name="Layer 1" xmlns="http://www.w3.org/2000/svg" viewBox="0 0 1920 456">
  <defs>
    <style>
      .uuid-645ed536-b992-4db0-919b-fc6f3272bcf9 {
        isolation: isolate;
      }

      .uuid-b37bfa80-4c2b-473e-bfe1-0a4df8c7d927 {
        fill: #f4f4f4;
        stroke-width: 0px;
      }
    </style>
  </defs>
  <g id="uuid-96a0518f-4964-4de1-90ef-ca9443c39e86" data-name="Works pg title text ">
    <g id="uuid-6c238955-9ec7-44bb-b8d6-7b416fd429f3" data-name="Lighting Design " class="uuid-645ed536-b992-4db0-919b-fc6f3272bcf9">
      <g class="uuid-645ed536-b992-4db0-919b-fc6f3272bcf9">
        <path class="uuid-b37bfa80-4c2b-473e-bfe1-0a4df8c7d927" d="m764.2,206.95v120.84h68.02v14.44h-83.98v-135.28h15.96Z"/>
        <path class="uuid-b37bfa80-4c2b-473e-bfe1-0a4df8c7d927" d="m857.3,229.37h-16.15v-18.62h16.15v18.62Zm-.38,112.86h-15.2v-98.04h15.2v98.04Z"/>
        <path class="uuid-b37bfa80-4c2b-473e-bfe1-0a4df8c7d927" d="m948.5,258.44v-14.25h14.44v94.24c0,13.42-3.93,24-11.78,31.73-7.86,7.72-19.13,11.59-33.82,11.59-12.16,0-21.92-2.79-29.26-8.36-7.35-5.58-11.53-13.3-12.54-23.18h15.2c1.9,12.41,10.76,18.62,26.6,18.62,20.26,0,30.4-10.13,30.4-30.4v-9.5c-7.73,10.39-18.69,15.58-32.87,15.58s-24.83-4.68-33.06-14.06c-8.36-9.37-12.54-21.78-12.54-37.24s4.18-28.18,12.54-37.43c8.1-9.24,19.12-13.87,33.06-13.87s25.77,5.51,33.63,16.53Zm-31.73,72.39c9.62,0,17.29-3.35,22.99-10.07,5.7-6.71,8.55-15.89,8.55-27.55s-2.85-20.83-8.55-27.55c-5.7-6.71-13.37-10.07-22.99-10.07s-17.13,3.42-22.9,10.26c-5.77,6.84-8.65,15.96-8.65,27.36s2.88,20.52,8.65,27.36c5.76,6.84,13.4,10.26,22.9,10.26Z"/>
        <path class="uuid-b37bfa80-4c2b-473e-bfe1-0a4df8c7d927" d="m1025.26,241.91c10.89,0,19.38,2.98,25.46,8.93,6.08,5.96,9.12,14.32,9.12,25.08v66.31h-15.2v-64.79c0-14.56-7.48-21.85-22.42-21.85-7.09,0-13.37,2.66-18.81,7.98-5.45,5.32-8.17,13.05-8.17,23.18v55.48h-15.2v-135.28h15.2v50.73c7.47-10.51,17.48-15.77,30.02-15.77Z"/>
        <path class="uuid-b37bfa80-4c2b-473e-bfe1-0a4df8c7d927" d="m1116.08,244.19v13.3h-20.14v63.65c0,5.58,3.73,8.36,11.21,8.36h8.93v12.73c-4.18.38-7.79.57-10.83.57-16.34,0-24.51-6.78-24.51-20.33v-64.98h-16.15v-13.3h16.15v-27.74h15.2v27.74h20.14Z"/>
        <path class="uuid-b37bfa80-4c2b-473e-bfe1-0a4df8c7d927" d="m1142.11,229.37h-16.15v-18.62h16.15v18.62Zm-.38,112.86h-15.2v-98.04h15.2v98.04Z"/>
        <path class="uuid-b37bfa80-4c2b-473e-bfe1-0a4df8c7d927" d="m1204.05,241.91c10.89,0,19.38,2.98,25.46,8.93,6.08,5.96,9.12,14.32,9.12,25.08v66.31h-15.2v-64.79c0-14.56-7.47-21.85-22.42-21.85-7.1,0-13.37,2.66-18.81,7.98-5.45,5.32-8.17,13.05-8.17,23.18v55.48h-15.2v-98.04h14.44v14.63c7.47-11.27,17.73-16.91,30.78-16.91Z"/>
        <path class="uuid-b37bfa80-4c2b-473e-bfe1-0a4df8c7d927" d="m1330.21,258.44v-14.25h14.44v94.24c0,13.42-3.93,24-11.78,31.73-7.86,7.72-19.13,11.59-33.82,11.59-12.16,0-21.92-2.79-29.26-8.36-7.35-5.58-11.53-13.3-12.54-23.18h15.2c1.9,12.41,10.76,18.62,26.6,18.62,20.26,0,30.4-10.13,30.4-30.4v-9.5c-7.73,10.39-18.69,15.58-32.87,15.58s-24.83-4.68-33.06-14.06c-8.36-9.37-12.54-21.78-12.54-37.24s4.18-28.18,12.54-37.43c8.1-9.24,19.12-13.87,33.06-13.87s25.78,5.51,33.63,16.53Zm-31.73,72.39c9.62,0,17.29-3.35,22.99-10.07,5.7-6.71,8.55-15.89,8.55-27.55s-2.85-20.83-8.55-27.55c-5.7-6.71-13.37-10.07-22.99-10.07s-17.13,3.42-22.89,10.26c-5.77,6.84-8.65,15.96-8.65,27.36s2.88,20.52,8.65,27.36c5.76,6.84,13.39,10.26,22.89,10.26Z"/>
        <path class="uuid-b37bfa80-4c2b-473e-bfe1-0a4df8c7d927" d="m1393.09,206.95h45.6c20.52,0,36.73,5.96,48.64,17.86,11.78,11.91,17.67,28.5,17.67,49.78s-5.89,37.56-17.67,49.59c-12.04,12.04-28.25,18.05-48.64,18.05h-45.6v-135.28Zm15.96,120.84h29.64c15.96,0,28.21-4.68,36.77-14.06,8.55-9.37,12.82-22.42,12.82-39.14s-4.27-29.76-12.82-39.14c-8.55-9.37-20.8-14.06-36.77-14.06h-29.64v106.4Z"/>
        <path class="uuid-b37bfa80-4c2b-473e-bfe1-0a4df8c7d927" d="m1603.8,293.21v5.32h-74.48c.76,10.64,3.74,18.65,8.93,24.04,5.19,5.39,12.28,8.08,21.28,8.08,13.55,0,22.23-6.08,26.03-18.24h15.77c-2.66,9.88-7.6,17.7-14.82,23.46-7.22,5.77-16.34,8.65-27.36,8.65-13.55,0-24.51-4.62-32.87-13.87-8.49-9.25-12.73-21.72-12.73-37.43s4.18-27.87,12.54-37.24c8.23-9.37,19.12-14.06,32.68-14.06s25.08,4.88,33.06,14.63c7.98,9.76,11.97,21.98,11.97,36.67Zm-45.03-37.43c-7.98,0-14.51,2.5-19.57,7.5-5.07,5.01-8.24,12.19-9.5,21.57h57.76c-.76-8.61-3.68-15.61-8.74-21-5.07-5.38-11.72-8.08-19.95-8.08Z"/>
        <path class="uuid-b37bfa80-4c2b-473e-bfe1-0a4df8c7d927" d="m1649.78,344.51c-26.22,0-40.09-11.14-41.61-33.44h15.39c.88,7.35,3.32,12.57,7.31,15.67,3.99,3.11,10.29,4.66,18.91,4.66,15.7,0,23.56-5.06,23.56-15.2,0-4.43-1.62-7.79-4.84-10.07-3.23-2.28-9.09-4.24-17.58-5.89l-9.12-1.71c-20.4-3.8-30.59-13.42-30.59-28.88,0-8.48,3.2-15.23,9.59-20.24,6.4-5,15.11-7.5,26.12-7.5,25.96,0,39.27,10.83,39.9,32.49h-15.2c-.38-7.09-2.54-12.09-6.46-15.01-3.93-2.91-10.01-4.37-18.24-4.37-6.59,0-11.65,1.27-15.2,3.8-3.55,2.54-5.32,6.08-5.32,10.64,0,4.31,1.52,7.54,4.56,9.69,3.04,2.16,8.1,3.99,15.2,5.51l8.74,1.71c12.03,2.41,20.68,5.83,25.94,10.26,5.25,4.43,7.88,10.64,7.88,18.62,0,9.25-3.45,16.44-10.36,21.57-6.9,5.13-16.43,7.7-28.59,7.7Z"/>
        <path class="uuid-b37bfa80-4c2b-473e-bfe1-0a4df8c7d927" d="m1713.81,229.37h-16.15v-18.62h16.15v18.62Zm-.38,112.86h-15.2v-98.04h15.2v98.04Z"/>
        <path class="uuid-b37bfa80-4c2b-473e-bfe1-0a4df8c7d927" d="m1805.01,258.44v-14.25h14.44v94.24c0,13.42-3.93,24-11.78,31.73-7.86,7.72-19.13,11.59-33.82,11.59-12.16,0-21.92-2.79-29.26-8.36-7.35-5.58-11.53-13.3-12.54-23.18h15.2c1.9,12.41,10.76,18.62,26.6,18.62,20.26,0,30.4-10.13,30.4-30.4v-9.5c-7.73,10.39-18.69,15.58-32.87,15.58s-24.83-4.68-33.06-14.06c-8.36-9.37-12.54-21.78-12.54-37.24s4.18-28.18,12.54-37.43c8.1-9.24,19.12-13.87,33.06-13.87s25.78,5.51,33.63,16.53Zm-31.73,72.39c9.62,0,17.29-3.35,22.99-10.07,5.7-6.71,8.55-15.89,8.55-27.55s-2.85-20.83-8.55-27.55c-5.7-6.71-13.37-10.07-22.99-10.07s-17.13,3.42-22.89,10.26c-5.77,6.84-8.64,15.96-8.64,27.36s2.88,20.52,8.64,27.36c5.76,6.84,13.39,10.26,22.89,10.26Z"/>
        <path class="uuid-b37bfa80-4c2b-473e-bfe1-0a4df8c7d927" d="m1881.77,241.91c10.89,0,19.38,2.98,25.46,8.93,6.08,5.96,9.12,14.32,9.12,25.08v66.31h-15.2v-64.79c0-14.56-7.47-21.85-22.42-21.85-7.1,0-13.37,2.66-18.81,7.98-5.45,5.32-8.17,13.05-8.17,23.18v55.48h-15.2v-98.04h14.44v14.63c7.47-11.27,17.73-16.91,30.78-16.91Z"/>
      </g>
    </g>
  </g>
</svg>