<?xml version="1.0" encoding="UTF-8"?>
<svg id="uuid-94ca8657-199c-4287-b168-c542b07e6248" data-name="Layer 1" xmlns="http://www.w3.org/2000/svg" viewBox="0 0 1920 878">
  <defs>
    <style>
      .uuid-fe4dfc90-3a75-4ec0-ba3d-ba981677bafb {
        fill: #f929ee;
      }

      .uuid-fe4dfc90-3a75-4ec0-ba3d-ba981677bafb, .uuid-3a162f47-368e-45d2-9c61-c8cee80fc95d, .uuid-6ee78068-8f23-42bc-bdc1-1a1773c9d573, .uuid-7013e6bc-9a12-4d21-8e5f-971b8c5c580c, .uuid-9a7eaa94-87a5-4624-a36c-0a9489019c52 {
        stroke-width: 0px;
      }

      .uuid-3a162f47-368e-45d2-9c61-c8cee80fc95d {
        fill: #e04f39;
      }

      .uuid-6ee78068-8f23-42bc-bdc1-1a1773c9d573 {
        fill: #753bbd;
      }

      .uuid-13dca119-d215-4e45-8ab4-07d991ab1cbd {
        isolation: isolate;
      }

      .uuid-7013e6bc-9a12-4d21-8e5f-971b8c5c580c {
        fill: #f4f4f4;
      }

      .uuid-af5c3d7f-67fc-4269-8e17-6eb423db0eba {
        fill: none;
        stroke: #707070;
      }

      .uuid-9a7eaa94-87a5-4624-a36c-0a9489019c52 {
        fill: #8d8787;
      }
    </style>
  </defs>
  <g id="uuid-5e7d5252-650a-4dfe-916d-2491189926f0" data-name="Works pg title text ">
    <g id="uuid-70cddfcd-540f-4c09-94fa-c25053a570ca" data-name="Immersive Digital " class="uuid-13dca119-d215-4e45-8ab4-07d991ab1cbd">
      <g class="uuid-13dca119-d215-4e45-8ab4-07d991ab1cbd">
        <path class="uuid-7013e6bc-9a12-4d21-8e5f-971b8c5c580c" d="m53.78,363.26h-18.48v-156.64h18.48v156.64Z"/>
        <path class="uuid-7013e6bc-9a12-4d21-8e5f-971b8c5c580c" d="m194.14,247.1c12.32,0,21.89,3.56,28.71,10.67,6.82,7.12,10.23,16.61,10.23,28.49v77h-17.6v-75.24c0-16.72-7.92-25.08-23.76-25.08-8.36,0-15.29,3.34-20.79,10.01-5.5,6.67-8.25,16.1-8.25,28.27v62.04h-17.6v-75.24c0-16.72-7.92-25.08-23.76-25.08-8.22,0-15.11,3.34-20.68,10.01-5.58,6.67-8.36,16.1-8.36,28.27v62.04h-17.6v-113.52h16.72v16.72c7.48-12.9,18.4-19.36,32.78-19.36,17.01,0,28.67,7.12,34.98,21.34,7.92-14.22,19.58-21.34,34.98-21.34Z"/>
        <path class="uuid-7013e6bc-9a12-4d21-8e5f-971b8c5c580c" d="m372.34,247.1c12.32,0,21.89,3.56,28.71,10.67,6.82,7.12,10.23,16.61,10.23,28.49v77h-17.6v-75.24c0-16.72-7.92-25.08-23.76-25.08-8.36,0-15.29,3.34-20.79,10.01-5.5,6.67-8.25,16.1-8.25,28.27v62.04h-17.6v-75.24c0-16.72-7.92-25.08-23.76-25.08-8.22,0-15.11,3.34-20.68,10.01-5.58,6.67-8.36,16.1-8.36,28.27v62.04h-17.6v-113.52h16.72v16.72c7.48-12.9,18.4-19.36,32.78-19.36,17.01,0,28.67,7.12,34.98,21.34,7.92-14.22,19.58-21.34,34.98-21.34Z"/>
        <path class="uuid-7013e6bc-9a12-4d21-8e5f-971b8c5c580c" d="m530.08,306.5v6.16h-86.24c.88,12.32,4.32,21.6,10.34,27.83,6.01,6.24,14.22,9.35,24.64,9.35,15.69,0,25.74-7.04,30.14-21.12h18.26c-3.08,11.44-8.8,20.5-17.16,27.17-8.36,6.68-18.92,10.01-31.68,10.01-15.7,0-28.38-5.35-38.06-16.06-9.83-10.7-14.74-25.15-14.74-43.34s4.84-32.26,14.52-43.12c9.53-10.85,22.14-16.28,37.84-16.28s29.04,5.65,38.28,16.94c9.24,11.29,13.86,25.45,13.86,42.46Zm-52.14-43.34c-9.24,0-16.8,2.9-22.66,8.69-5.87,5.8-9.54,14.12-11,24.97h66.88c-.88-9.97-4.26-18.07-10.12-24.31-5.87-6.23-13.57-9.35-23.1-9.35Z"/>
        <path class="uuid-7013e6bc-9a12-4d21-8e5f-971b8c5c580c" d="m597.62,247.98c2.93,0,4.91.08,5.94.22v16.94h-4.4c-11.74,0-20.87,2.9-27.39,8.69-6.53,5.79-9.79,14.04-9.79,24.75v64.68h-17.6v-113.52h16.72v20.02c7.62-14.52,19.8-21.78,36.52-21.78Z"/>
        <path class="uuid-7013e6bc-9a12-4d21-8e5f-971b8c5c580c" d="m649.09,365.9c-30.36,0-46.42-12.9-48.18-38.72h17.82c1.02,8.51,3.85,14.56,8.47,18.15,4.62,3.6,11.91,5.39,21.89,5.39,18.18,0,27.28-5.86,27.28-17.6,0-5.13-1.87-9.02-5.61-11.66-3.74-2.64-10.53-4.91-20.35-6.82l-10.56-1.98c-23.62-4.4-35.42-15.54-35.42-33.44,0-9.82,3.7-17.63,11.11-23.43,7.4-5.79,17.49-8.69,30.25-8.69,30.06,0,45.46,12.54,46.2,37.62h-17.6c-.44-8.21-2.94-14-7.48-17.38-4.55-3.37-11.59-5.06-21.12-5.06-7.63,0-13.5,1.47-17.6,4.4-4.11,2.94-6.16,7.04-6.16,12.32,0,4.99,1.76,8.73,5.28,11.22,3.52,2.5,9.38,4.62,17.6,6.38l10.12,1.98c13.93,2.79,23.94,6.75,30.03,11.88,6.08,5.14,9.13,12.32,9.13,21.56,0,10.71-4,19.03-11.99,24.97-8,5.94-19.03,8.91-33.11,8.91Z"/>
        <path class="uuid-7013e6bc-9a12-4d21-8e5f-971b8c5c580c" d="m723.23,232.58h-18.7v-21.56h18.7v21.56Zm-.44,130.68h-17.6v-113.52h17.6v113.52Z"/>
        <path class="uuid-7013e6bc-9a12-4d21-8e5f-971b8c5c580c" d="m799.35,300.12l18.7-50.38h18.92l-44.66,113.52h-18.48l-44.44-113.52h19.14l18.7,50.6c9.24,24.79,14.59,39.46,16.06,44,2.64-7.77,7.99-22.51,16.06-44.22Z"/>
        <path class="uuid-7013e6bc-9a12-4d21-8e5f-971b8c5c580c" d="m937.07,306.5v6.16h-86.24c.88,12.32,4.32,21.6,10.34,27.83,6.01,6.24,14.22,9.35,24.64,9.35,15.69,0,25.74-7.04,30.14-21.12h18.26c-3.08,11.44-8.8,20.5-17.16,27.17-8.36,6.68-18.92,10.01-31.68,10.01-15.7,0-28.38-5.35-38.06-16.06-9.83-10.7-14.74-25.15-14.74-43.34s4.84-32.26,14.52-43.12c9.53-10.85,22.14-16.28,37.84-16.28s29.04,5.65,38.28,16.94c9.24,11.29,13.86,25.45,13.86,42.46Zm-52.14-43.34c-9.24,0-16.8,2.9-22.66,8.69-5.87,5.8-9.54,14.12-11,24.97h66.88c-.88-9.97-4.26-18.07-10.12-24.31-5.87-6.23-13.57-9.35-23.1-9.35Z"/>
      </g>
      <g class="uuid-13dca119-d215-4e45-8ab4-07d991ab1cbd">
        <path class="uuid-7013e6bc-9a12-4d21-8e5f-971b8c5c580c" d="m35.3,371.62h52.8c23.76,0,42.53,6.9,56.32,20.68,13.64,13.79,20.46,33,20.46,57.64s-6.82,43.49-20.46,57.42c-13.94,13.94-32.71,20.9-56.32,20.9h-52.8v-156.64Zm18.48,139.92h34.32c18.48,0,32.67-5.42,42.57-16.28,9.9-10.85,14.85-25.96,14.85-45.32s-4.95-34.46-14.85-45.32c-9.9-10.85-24.09-16.28-42.57-16.28h-34.32v123.2Z"/>
        <path class="uuid-7013e6bc-9a12-4d21-8e5f-971b8c5c580c" d="m197.22,397.58h-18.7v-21.56h18.7v21.56Zm-.44,130.68h-17.6v-113.52h17.6v113.52Z"/>
        <path class="uuid-7013e6bc-9a12-4d21-8e5f-971b8c5c580c" d="m302.82,431.24v-16.5h16.72v109.12c0,15.54-4.55,27.79-13.64,36.74-9.1,8.94-22.15,13.42-39.16,13.42-14.08,0-25.38-3.23-33.88-9.68-8.51-6.46-13.35-15.4-14.52-26.84h17.6c2.2,14.37,12.46,21.56,30.8,21.56,23.46,0,35.2-11.74,35.2-35.2v-11c-8.95,12.03-21.64,18.04-38.06,18.04s-28.75-5.42-38.28-16.28c-9.68-10.85-14.52-25.22-14.52-43.12s4.84-32.63,14.52-43.34c9.38-10.71,22.14-16.06,38.28-16.06s29.84,6.38,38.94,19.14Zm-36.74,83.82c11.14,0,20.02-3.88,26.62-11.66,6.6-7.77,9.9-18.4,9.9-31.9s-3.3-24.12-9.9-31.9c-6.6-7.77-15.48-11.66-26.62-11.66s-19.84,3.96-26.51,11.88c-6.68,7.92-10.01,18.48-10.01,31.68s3.33,23.76,10.01,31.68c6.67,7.92,15.51,11.88,26.51,11.88Z"/>
        <path class="uuid-7013e6bc-9a12-4d21-8e5f-971b8c5c580c" d="m357.38,397.58h-18.7v-21.56h18.7v21.56Zm-.44,130.68h-17.6v-113.52h17.6v113.52Z"/>
        <path class="uuid-7013e6bc-9a12-4d21-8e5f-971b8c5c580c" d="m426.46,414.74v15.4h-23.32v73.7c0,6.46,4.32,9.68,12.98,9.68h10.34v14.74c-4.84.44-9.02.66-12.54.66-18.92,0-28.38-7.84-28.38-23.54v-75.24h-18.7v-15.4h18.7v-32.12h17.6v32.12h23.32Z"/>
        <path class="uuid-7013e6bc-9a12-4d21-8e5f-971b8c5c580c" d="m530.3,513.96h6.38v14.3c-2.94.44-6.16.66-9.68.66-11.88,0-18.26-5.42-19.14-16.28-7.92,12.18-20.24,18.26-36.96,18.26-12.47,0-22.26-2.89-29.37-8.69-7.12-5.79-10.67-13.97-10.67-24.53,0-20.53,14-32.26,42.02-35.2l16.28-1.76c11.88-1.32,17.82-6.52,17.82-15.62,0-6.3-1.95-10.85-5.83-13.64-3.89-2.78-10.45-4.18-19.69-4.18-9.83,0-16.91,1.65-21.23,4.95-4.33,3.3-6.79,9.13-7.37,17.49h-17.6c1.46-25.08,16.86-37.62,46.2-37.62s42.68,11,42.68,33v63.36c0,3.67,2.05,5.5,6.16,5.5Zm-58.52,1.98c9.38,0,17.6-2.86,24.64-8.58,7.04-5.57,10.56-13.56,10.56-23.98v-13.42c-3.23,2.5-8.22,4.11-14.96,4.84l-16.5,1.98c-9.54,1.18-16.32,3.38-20.35,6.6-4.04,3.23-6.05,7.85-6.05,13.86s1.9,10.45,5.72,13.75c3.81,3.3,9.46,4.95,16.94,4.95Z"/>
        <path class="uuid-7013e6bc-9a12-4d21-8e5f-971b8c5c580c" d="m561.98,528.26h-17.6v-156.64h17.6v156.64Z"/>
      </g>
    </g>
  </g>
  <g id="uuid-b7108c95-a2fe-4f29-849e-afc543dd5319" data-name=" 3D Virtual Experience " class="uuid-13dca119-d215-4e45-8ab4-07d991ab1cbd">
    <g class="uuid-13dca119-d215-4e45-8ab4-07d991ab1cbd">
      <path class="uuid-9a7eaa94-87a5-4624-a36c-0a9489019c52" d="m53.34,630.08c6.11,3.18,9.16,7.78,9.16,13.78,0,4.98-1.75,8.98-5.24,12.01-3.44,3.08-7.98,4.62-13.63,4.62-6.11,0-10.85-1.59-14.21-4.77-3.36-3.18-5.02-7.52-4.97-13.01h6.39c.1,3.9,1.26,6.87,3.46,8.89,2.21,2.03,5.31,3.04,9.32,3.04,3.7,0,6.63-.97,8.82-2.93,2.18-1.95,3.27-4.57,3.27-7.85s-1.12-5.99-3.35-7.97c-2.23-1.98-5.27-2.96-9.12-2.96h-4.08v-5.39h3.7c3.64,0,6.45-.82,8.43-2.46,1.98-1.64,2.96-3.93,2.96-6.85s-.99-5.12-2.96-6.74c-1.98-1.62-4.66-2.43-8.05-2.43s-6.17.89-8.2,2.66c-2.03,1.77-3.12,4.38-3.27,7.82h-6.47c.05-4.98,1.68-8.94,4.89-11.9,3.21-2.95,7.56-4.43,13.05-4.43s9.53,1.32,12.74,3.96c3.21,2.64,4.81,6.28,4.81,10.9,0,5.24-2.49,9.24-7.47,12.01Z"/>
      <path class="uuid-9a7eaa94-87a5-4624-a36c-0a9489019c52" d="m67.89,604.44h18.48c8.32,0,14.89,2.41,19.71,7.24,4.77,4.83,7.16,11.55,7.16,20.17s-2.39,15.22-7.16,20.1c-4.88,4.88-11.45,7.32-19.71,7.32h-18.48v-54.82Zm6.47,48.97h12.01c6.47,0,11.43-1.9,14.9-5.7,3.47-3.8,5.2-9.09,5.2-15.86s-1.73-12.06-5.2-15.86c-3.46-3.8-8.43-5.7-14.9-5.7h-12.01v43.12Z"/>
      <path class="uuid-9a7eaa94-87a5-4624-a36c-0a9489019c52" d="m156.06,639.17l12.47-34.73h6.78l-20.33,54.82h-7.24l-20.64-54.82h6.85l12.71,34.73c2.31,6.52,3.88,11.06,4.7,13.63.77-2.57,2.33-7.11,4.7-13.63Z"/>
      <path class="uuid-9a7eaa94-87a5-4624-a36c-0a9489019c52" d="m182.77,613.52h-6.54v-7.55h6.54v7.55Zm-.15,45.74h-6.16v-39.73h6.16v39.73Z"/>
      <path class="uuid-9a7eaa94-87a5-4624-a36c-0a9489019c52" d="m208.18,618.92c1.03,0,1.72.03,2.08.08v5.93h-1.54c-4.11,0-7.3,1.01-9.59,3.04-2.28,2.03-3.43,4.92-3.43,8.66v22.64h-6.16v-39.73h5.85v7.01c2.67-5.08,6.93-7.62,12.78-7.62Z"/>
      <path class="uuid-9a7eaa94-87a5-4624-a36c-0a9489019c52" d="m231.52,619.53v5.39h-8.16v25.79c0,2.26,1.51,3.39,4.54,3.39h3.62v5.16c-1.69.15-3.16.23-4.39.23-6.62,0-9.93-2.75-9.93-8.24v-26.33h-6.55v-5.39h6.55v-11.24h6.16v11.24h8.16Z"/>
      <path class="uuid-9a7eaa94-87a5-4624-a36c-0a9489019c52" d="m261.93,642.01v-22.48h6.16v39.73h-5.85v-5.93c-3.03,4.57-7.19,6.85-12.47,6.85-4.42,0-7.85-1.21-10.32-3.62-2.46-2.41-3.7-5.8-3.7-10.16v-26.87h6.16v26.26c0,5.9,3.03,8.85,9.09,8.85,2.87,0,5.42-1.08,7.62-3.23,2.21-2.16,3.31-5.29,3.31-9.39Z"/>
      <path class="uuid-9a7eaa94-87a5-4624-a36c-0a9489019c52" d="m307.51,654.26h2.23v5c-1.03.15-2.16.23-3.39.23-4.16,0-6.39-1.9-6.7-5.7-2.77,4.26-7.08,6.39-12.94,6.39-4.36,0-7.79-1.01-10.28-3.04-2.49-2.03-3.73-4.89-3.73-8.59,0-7.19,4.9-11.29,14.71-12.32l5.7-.62c4.16-.46,6.24-2.28,6.24-5.47,0-2.21-.68-3.8-2.04-4.77-1.36-.97-3.66-1.46-6.89-1.46-3.44,0-5.92.58-7.43,1.73-1.51,1.16-2.38,3.2-2.58,6.12h-6.16c.51-8.78,5.9-13.17,16.17-13.17s14.94,3.85,14.94,11.55v22.18c0,1.28.72,1.92,2.16,1.92Zm-20.48.69c3.28,0,6.16-1,8.62-3,2.46-1.95,3.7-4.75,3.7-8.39v-4.7c-1.13.87-2.88,1.44-5.24,1.69l-5.77.69c-3.34.41-5.71,1.18-7.12,2.31-1.41,1.13-2.12,2.75-2.12,4.85s.67,3.66,2,4.81c1.33,1.16,3.31,1.73,5.93,1.73Z"/>
      <path class="uuid-9a7eaa94-87a5-4624-a36c-0a9489019c52" d="m318.6,659.26h-6.16v-54.82h6.16v54.82Z"/>
      <path class="uuid-9a7eaa94-87a5-4624-a36c-0a9489019c52" d="m376.35,604.44v5.85h-31.65v17.48h28.57v5.85h-28.57v19.79h31.34v5.85h-37.81v-54.82h38.12Z"/>
      <path class="uuid-9a7eaa94-87a5-4624-a36c-0a9489019c52" d="m413,619.53l-14.4,19.4,15.17,20.33h-7.24l-2.16-3c-3.75-5.34-6.85-9.65-9.32-12.94-3.7,4.98-6.85,9.32-9.47,13.01l-2.08,2.93h-7.16l15.17-20.33-14.4-19.4h7.24l3.08,4.24c3.44,4.62,6.01,8.21,7.7,10.78,3.9-5.49,6.47-9.09,7.7-10.78l3-4.24h7.16Z"/>
      <path class="uuid-9a7eaa94-87a5-4624-a36c-0a9489019c52" d="m435.18,618.61c5.59,0,10.09,1.88,13.48,5.62,3.34,3.8,5,8.86,5,15.17s-1.67,11.29-5,15.09c-3.39,3.8-7.88,5.7-13.48,5.7s-10.14-2.21-13.32-6.62v20.79h-6.16v-54.82h5.85v6.16c3.18-4.72,7.73-7.08,13.63-7.08Zm-.77,36.04c3.85,0,6.94-1.4,9.28-4.2,2.34-2.8,3.5-6.58,3.5-11.36s-1.14-8.33-3.43-10.97c-2.28-2.64-5.4-3.97-9.36-3.97s-7.01,1.34-9.32,4c-2.31,2.67-3.47,6.42-3.47,11.24s1.16,8.5,3.47,11.17c2.31,2.72,5.42,4.08,9.32,4.08Z"/>
      <path class="uuid-9a7eaa94-87a5-4624-a36c-0a9489019c52" d="m493.31,639.4v2.16h-30.18c.31,4.31,1.51,7.56,3.62,9.74,2.1,2.18,4.98,3.27,8.62,3.27,5.49,0,9.01-2.46,10.55-7.39h6.39c-1.08,4-3.08,7.17-6.01,9.51-2.93,2.34-6.62,3.5-11.09,3.5-5.49,0-9.93-1.87-13.32-5.62-3.44-3.75-5.16-8.8-5.16-15.17s1.69-11.29,5.08-15.09c3.34-3.8,7.75-5.7,13.24-5.7s10.16,1.98,13.4,5.93,4.85,8.91,4.85,14.86Zm-18.25-15.17c-3.23,0-5.88,1.01-7.93,3.04-2.05,2.03-3.34,4.94-3.85,8.74h23.41c-.31-3.49-1.49-6.33-3.54-8.51-2.05-2.18-4.75-3.27-8.08-3.27Z"/>
      <path class="uuid-9a7eaa94-87a5-4624-a36c-0a9489019c52" d="m516.95,618.92c1.03,0,1.72.03,2.08.08v5.93h-1.54c-4.11,0-7.3,1.01-9.59,3.04-2.28,2.03-3.43,4.92-3.43,8.66v22.64h-6.16v-39.73h5.85v7.01c2.67-5.08,6.93-7.62,12.78-7.62Z"/>
      <path class="uuid-9a7eaa94-87a5-4624-a36c-0a9489019c52" d="m528.81,613.52h-6.54v-7.55h6.54v7.55Zm-.15,45.74h-6.16v-39.73h6.16v39.73Z"/>
      <path class="uuid-9a7eaa94-87a5-4624-a36c-0a9489019c52" d="m570.23,639.4v2.16h-30.18c.31,4.31,1.51,7.56,3.62,9.74,2.1,2.18,4.98,3.27,8.62,3.27,5.49,0,9.01-2.46,10.55-7.39h6.39c-1.08,4-3.08,7.17-6.01,9.51-2.93,2.34-6.62,3.5-11.09,3.5-5.49,0-9.93-1.87-13.32-5.62-3.44-3.75-5.16-8.8-5.16-15.17s1.69-11.29,5.08-15.09c3.34-3.8,7.75-5.7,13.24-5.7s10.16,1.98,13.4,5.93,4.85,8.91,4.85,14.86Zm-18.25-15.17c-3.23,0-5.88,1.01-7.93,3.04-2.05,2.03-3.34,4.94-3.85,8.74h23.41c-.31-3.49-1.49-6.33-3.54-8.51-2.05-2.18-4.75-3.27-8.08-3.27Z"/>
      <path class="uuid-9a7eaa94-87a5-4624-a36c-0a9489019c52" d="m593.56,618.61c4.41,0,7.85,1.21,10.32,3.62,2.46,2.41,3.7,5.8,3.7,10.16v26.87h-6.16v-26.26c0-5.9-3.03-8.86-9.09-8.86-2.88,0-5.42,1.08-7.62,3.23-2.21,2.16-3.31,5.29-3.31,9.39v22.48h-6.16v-39.73h5.85v5.93c3.03-4.57,7.19-6.85,12.47-6.85Z"/>
      <path class="uuid-9a7eaa94-87a5-4624-a36c-0a9489019c52" d="m630.99,660.19c-5.49,0-9.93-1.9-13.32-5.7-3.39-3.8-5.08-8.83-5.08-15.09s1.69-11.42,5.08-15.17c3.28-3.75,7.73-5.62,13.32-5.62,4.72,0,8.6,1.28,11.63,3.85,3.03,2.57,4.85,6.08,5.47,10.55h-6.39c-.46-2.82-1.68-5-3.66-6.54-1.98-1.54-4.33-2.31-7.05-2.31-3.65,0-6.54,1.32-8.7,3.97-2.16,2.64-3.23,6.4-3.23,11.28s1.09,8.57,3.27,11.24c2.18,2.67,5.07,4,8.66,4,2.72,0,5.08-.79,7.08-2.39,2-1.59,3.23-3.8,3.7-6.62h6.31c-.67,4.47-2.55,8.01-5.66,10.63-3.11,2.62-6.92,3.93-11.43,3.93Z"/>
      <path class="uuid-9a7eaa94-87a5-4624-a36c-0a9489019c52" d="m686.96,639.4v2.16h-30.18c.31,4.31,1.51,7.56,3.62,9.74,2.1,2.18,4.98,3.27,8.62,3.27,5.49,0,9.01-2.46,10.55-7.39h6.39c-1.08,4-3.08,7.17-6.01,9.51-2.93,2.34-6.62,3.5-11.09,3.5-5.49,0-9.93-1.87-13.32-5.62-3.44-3.75-5.16-8.8-5.16-15.17s1.69-11.29,5.08-15.09c3.34-3.8,7.75-5.7,13.24-5.7s10.16,1.98,13.4,5.93,4.85,8.91,4.85,14.86Zm-18.25-15.17c-3.23,0-5.88,1.01-7.93,3.04-2.05,2.03-3.34,4.94-3.85,8.74h23.41c-.31-3.49-1.49-6.33-3.54-8.51-2.05-2.18-4.75-3.27-8.08-3.27Z"/>
    </g>
  </g>
  <g id="uuid-de2564bd-cda7-4b59-bac5-50d986616ebe" data-name="Rectangle 1006">
    <path class="uuid-6ee78068-8f23-42bc-bdc1-1a1773c9d573" d="m1471,240.26h399c16.57,0,30,13.43,30,30h0c0,16.57-13.43,30-30,30h-399c-16.57,0-30-13.43-30-30h0c0-16.57,13.43-30,30-30Z"/>
    <path class="uuid-af5c3d7f-67fc-4269-8e17-6eb423db0eba" d="m1471,240.76h399c16.29,0,29.5,13.21,29.5,29.5h0c0,16.29-13.21,29.5-29.5,29.5h-399c-16.29,0-29.5-13.21-29.5-29.5h0c0-16.29,13.21-29.5,29.5-29.5Z"/>
  </g>
  <g id="uuid-5eee6869-21b2-4c8d-a81f-d37be7188683" data-name="Rectangle 1007">
    <path class="uuid-fe4dfc90-3a75-4ec0-ba3d-ba981677bafb" d="m1471,363.26h399c16.57,0,30,13.43,30,30h0c0,16.57-13.43,30-30,30h-399c-16.57,0-30-13.43-30-30h0c0-16.57,13.43-30,30-30Z"/>
    <path class="uuid-af5c3d7f-67fc-4269-8e17-6eb423db0eba" d="m1471,363.76h399c16.29,0,29.5,13.21,29.5,29.5h0c0,16.29-13.21,29.5-29.5,29.5h-399c-16.29,0-29.5-13.21-29.5-29.5h0c0-16.29,13.21-29.5,29.5-29.5Z"/>
  </g>
  <g id="uuid-fba47de3-5dc5-4407-b2f5-82247166db75" data-name="Rectangle 1008">
    <path class="uuid-3a162f47-368e-45d2-9c61-c8cee80fc95d" d="m1471,476.26h399c16.57,0,30,13.43,30,30h0c0,16.57-13.43,30-30,30h-399c-16.57,0-30-13.43-30-30h0c0-16.57,13.43-30,30-30Z"/>
    <path class="uuid-af5c3d7f-67fc-4269-8e17-6eb423db0eba" d="m1471,476.76h399c16.29,0,29.5,13.21,29.5,29.5h0c0,16.29-13.21,29.5-29.5,29.5h-399c-16.29,0-29.5-13.21-29.5-29.5h0c0-16.29,13.21-29.5,29.5-29.5Z"/>
  </g>
</svg>