<?xml version="1.0" encoding="UTF-8"?>
<svg id="uuid-2369e4d6-de78-40a9-bc95-33b744ffa3ff" data-name="Layer 1" xmlns="http://www.w3.org/2000/svg" viewBox="0 0 1923 325.02">
  <defs>
    <style>
      .uuid-b0132972-32df-49fc-987c-f81273c14dfd {
        fill: #fff;
        stroke-width: 0px;
      }
           .st4{fill:#FFFFFF;}
	.st3{fill:#FFFFFF;}
    </style>
  </defs>
  <g>
    <polygon class="st4" points="558.57 204.42 540.69 204.42 595.89 111.89 613.77 111.89 558.57 204.42"/>
    <polygon class="st4" points="606.68 204.42 588.8 204.42 644 111.89 661.88 111.89 606.68 204.42"/>
    <polygon class="st4" points="654.78 204.42 636.91 204.42 692.11 111.89 709.99 111.89 654.78 204.42"/>
    <polygon class="st4" points="702.89 204.42 685.01 204.42 740.22 111.89 758.09 111.89 702.89 204.42"/>
    <polygon class="st4" points="751 204.42 733.12 204.42 788.32 111.89 806.2 111.89 751 204.42"/>
    <polygon class="st4" points="799.11 204.42 781.23 204.42 836.43 111.89 854.31 111.89 799.11 204.42"/>
  </g>
  <polygon class="uuid-b0132972-32df-49fc-987c-f81273c14dfd" points="43 6.5 43 13 14.68 13 14.68 41.32 8.18 41.32 8.18 6.5 43 6.5"/>
  <polygon class="uuid-b0132972-32df-49fc-987c-f81273c14dfd" points="1881.65 7.5 1881.65 14 1909.97 14 1909.97 42.32 1916.47 42.32 1916.47 7.5 1881.65 7.5"/>
  <polygon class="uuid-b0132972-32df-49fc-987c-f81273c14dfd" points="42.33 319.44 42.33 312.95 14.01 312.95 14.01 284.62 7.51 284.62 7.51 319.44 42.33 319.44"/>
  <polygon class="uuid-b0132972-32df-49fc-987c-f81273c14dfd" points="1881.65 318.44 1881.65 311.95 1909.97 311.95 1909.97 283.62 1916.47 283.62 1916.47 318.44 1881.65 318.44"/>
  <g>
    <rect class="uuid-b0132972-32df-49fc-987c-f81273c14dfd" x="1680.87" y="73.09" width="2.15" height="50.44"/>
    <rect class="uuid-b0132972-32df-49fc-987c-f81273c14dfd" x="1689.48" y="73.09" width="4.3" height="50.44"/>
    <rect class="uuid-b0132972-32df-49fc-987c-f81273c14dfd" x="1700.23" y="73.09" width="2.15" height="50.44"/>
    <rect class="uuid-b0132972-32df-49fc-987c-f81273c14dfd" x="1704.53" y="73.09" width="2.15" height="50.44"/>
    <rect class="uuid-b0132972-32df-49fc-987c-f81273c14dfd" x="1715.28" y="73.09" width="2.15" height="50.44"/>
    <rect class="uuid-b0132972-32df-49fc-987c-f81273c14dfd" x="1719.58" y="73.09" width="8.6" height="50.44"/>
    <rect class="uuid-b0132972-32df-49fc-987c-f81273c14dfd" x="1730.34" y="73.09" width="2.15" height="50.44"/>
    <rect class="uuid-b0132972-32df-49fc-987c-f81273c14dfd" x="1734.64" y="73.09" width="2.15" height="50.44"/>
    <rect class="uuid-b0132972-32df-49fc-987c-f81273c14dfd" x="1743.24" y="73.09" width="4.3" height="50.44"/>
    <rect class="uuid-b0132972-32df-49fc-987c-f81273c14dfd" x="1749.69" y="73.09" width="6.45" height="50.44"/>
    <rect class="uuid-b0132972-32df-49fc-987c-f81273c14dfd" x="1760.44" y="73.09" width="2.15" height="50.44"/>
    <rect class="uuid-b0132972-32df-49fc-987c-f81273c14dfd" x="1764.74" y="73.09" width="2.15" height="50.44"/>
    <rect class="uuid-b0132972-32df-49fc-987c-f81273c14dfd" x="1775.5" y="73.09" width="2.15" height="50.44"/>
    <rect class="uuid-b0132972-32df-49fc-987c-f81273c14dfd" x="1779.8" y="73.09" width="2.15" height="50.44"/>
    <rect class="uuid-b0132972-32df-49fc-987c-f81273c14dfd" x="1784.1" y="73.09" width="2.15" height="50.44"/>
    <rect class="uuid-b0132972-32df-49fc-987c-f81273c14dfd" x="1788.4" y="73.09" width="2.15" height="50.44"/>
    <rect class="uuid-b0132972-32df-49fc-987c-f81273c14dfd" x="1792.7" y="73.09" width="6.45" height="50.44"/>
    <rect class="uuid-b0132972-32df-49fc-987c-f81273c14dfd" x="1803.45" y="73.09" width="2.15" height="50.44"/>
    <rect class="uuid-b0132972-32df-49fc-987c-f81273c14dfd" x="1809.91" y="73.09" width="6.45" height="50.44"/>
    <rect class="uuid-b0132972-32df-49fc-987c-f81273c14dfd" x="1818.51" y="73.09" width="4.3" height="50.44"/>
    <rect class="uuid-b0132972-32df-49fc-987c-f81273c14dfd" x="1824.96" y="73.09" width="4.3" height="50.44"/>
    <rect class="uuid-b0132972-32df-49fc-987c-f81273c14dfd" x="1833.56" y="73.09" width="2.15" height="50.44"/>
    <rect class="uuid-b0132972-32df-49fc-987c-f81273c14dfd" x="1840.01" y="73.09" width="6.45" height="50.44"/>
    <rect class="uuid-b0132972-32df-49fc-987c-f81273c14dfd" x="1848.62" y="73.09" width="2.15" height="50.44"/>
    <rect class="uuid-b0132972-32df-49fc-987c-f81273c14dfd" x="1859.37" y="73.09" width="2.15" height="50.44"/>
    <rect class="uuid-b0132972-32df-49fc-987c-f81273c14dfd" x="1863.67" y="73.09" width="6.45" height="50.44"/>
    <rect class="uuid-b0132972-32df-49fc-987c-f81273c14dfd" x="1874.42" y="73.09" width="2.15" height="50.44"/>
    <rect class="uuid-b0132972-32df-49fc-987c-f81273c14dfd" x="1878.72" y="73.09" width="2.15" height="50.44"/>
    <rect class="uuid-b0132972-32df-49fc-987c-f81273c14dfd" x="1883.03" y="73.09" width="2.15" height="50.44"/>
  </g>
  <g>
    <path class="st3" d="M80.05,64.9h15.7l14.47,27.5h.17v-27.5h14.48v51.4h-14.95l-15.26-28.09h-.14v28.09h-14.48v-51.4Z"/>
    <path class="st3" d="M133.13,90.6c.04-8.02,2.4-14.47,7.05-19.37,4.5-4.94,10.56-7.46,18.19-7.56,7.72.09,13.84,2.61,18.36,7.56,4.54,4.9,6.83,11.36,6.88,19.37-.05,7.97-2.34,14.4-6.88,19.3-4.52,4.99-10.64,7.54-18.36,7.63-7.63-.09-13.69-2.64-18.19-7.63-4.65-4.9-7.01-11.33-7.05-19.3ZM148.45,90.6c0,2.8.35,5.11,1.06,6.94.66,1.86,1.5,3.31,2.52,4.37,2.14,1.93,4.25,2.87,6.34,2.82.98,0,2.07-.21,3.27-.63,1.16-.45,2.23-1.17,3.2-2.19,1.04-1.06,1.89-2.51,2.52-4.37.61-1.83.92-4.15.92-6.94s-.31-5.28-.92-7.16c-.64-1.88-1.48-3.3-2.52-4.27-2.18-1.88-4.34-2.78-6.48-2.71-.98,0-2.02.17-3.14.49-1.11.42-2.18,1.16-3.2,2.22-.48.49-.92,1.08-1.33,1.76-.43.71-.83,1.54-1.19,2.5-.7,1.88-1.06,4.26-1.06,7.16Z"/>
    <path class="st3" d="M223.26,84.04c-.05-.54-.18-1.25-.41-2.12-.27-.82-.69-1.63-1.26-2.43-.54-.92-1.34-1.67-2.38-2.26-1.02-.52-2.34-.78-3.95-.78-3.49.09-5.96,1.59-7.39,4.48-1.45,2.82-2.16,6.04-2.11,9.66-.05,3.62.66,6.84,2.11,9.66,1.43,2.94,3.89,4.43,7.39,4.48,2.54,0,4.45-.83,5.72-2.5,1.2-1.6,1.99-3.62,2.35-6.06h15.09c-.05,5.41-2,10.25-5.86,14.51-3.86,4.43-9.49,6.71-16.89,6.85-8.04-.09-14.25-2.71-18.63-7.84-4.4-4.99-6.61-11.36-6.61-19.09.04-8.25,2.34-14.78,6.88-19.58,4.47-4.85,10.59-7.3,18.36-7.35,13.67.38,21.18,7.17,22.54,20.37h-14.96Z"/>
    <path class="st3" d="M277.89,84.04c-.05-.54-.18-1.25-.41-2.12-.27-.82-.69-1.63-1.26-2.43-.54-.92-1.34-1.67-2.38-2.26-1.02-.52-2.34-.78-3.95-.78-3.49.09-5.96,1.59-7.39,4.48-1.45,2.82-2.16,6.04-2.11,9.66-.05,3.62.66,6.84,2.11,9.66,1.43,2.94,3.89,4.43,7.39,4.48,2.54,0,4.45-.83,5.72-2.5,1.2-1.6,1.99-3.62,2.35-6.06h15.09c-.05,5.41-2,10.25-5.86,14.51-3.86,4.43-9.49,6.71-16.89,6.85-8.04-.09-14.25-2.71-18.63-7.84-4.4-4.99-6.61-11.36-6.61-19.09.04-8.25,2.34-14.78,6.88-19.58,4.47-4.85,10.59-7.3,18.36-7.35,13.67.38,21.18,7.17,22.54,20.37h-14.96Z"/>
    <path class="st3" d="M299.7,90.6c.04-8.02,2.4-14.47,7.05-19.37,4.5-4.94,10.56-7.46,18.19-7.56,7.72.09,13.84,2.61,18.36,7.56,4.54,4.9,6.83,11.36,6.88,19.37-.05,7.97-2.34,14.4-6.88,19.3-4.52,4.99-10.64,7.54-18.36,7.63-7.63-.09-13.69-2.64-18.19-7.63-4.65-4.9-7.01-11.33-7.05-19.3ZM315.02,90.6c0,2.8.35,5.11,1.06,6.94.66,1.86,1.5,3.31,2.52,4.37,2.14,1.93,4.25,2.87,6.34,2.82.98,0,2.07-.21,3.27-.63,1.16-.45,2.23-1.17,3.2-2.19,1.04-1.06,1.89-2.51,2.52-4.37.61-1.83.92-4.15.92-6.94s-.31-5.28-.92-7.16c-.64-1.88-1.48-3.3-2.52-4.27-2.18-1.88-4.34-2.78-6.48-2.71-.98,0-2.02.17-3.14.49-1.11.42-2.18,1.16-3.2,2.22-.48.49-.92,1.08-1.33,1.76-.43.71-.83,1.54-1.19,2.5-.7,1.88-1.06,4.26-1.06,7.16Z"/>
    <path class="st3" d="M79.98,136.9h15.32v51.4h-15.32v-51.4Z"/>
    <path class="st3" d="M103.74,150.93h13.72v4.75h.14c2.53-3.77,6.57-5.66,12.14-5.66,3.38,0,6.28,1.03,8.71,3.09,2.4,2.06,3.63,5.25,3.68,9.56v25.63h-13.78v-19.61c.05-2.21-.21-3.99-.77-5.35-.59-1.34-1.96-2.01-4.11-2.01-1.35-.05-2.63.39-3.86,1.3-.59.47-1.09,1.18-1.51,2.15-.39,1.01-.59,2.27-.59,3.77v19.75h-13.77v-37.37Z"/>
    <path class="st3" d="M152.71,159.71h-5.67v-8.79h5.67c-.09-1.92.04-3.82.41-5.7.38-1.81,1.2-3.41,2.45-4.82,1.49-1.52,3.19-2.51,5.1-2.95,1.9-.37,4.21-.56,6.93-.56,2.11.05,4.18.14,6.22.28v9.81c-.57-.12-1.13-.25-1.7-.39-.59-.09-1.17-.14-1.76-.14-1.71,0-2.88.29-3.52.88-.68.66-.97,1.85-.88,3.59h7.49v8.79h-6.96v28.58h-13.77v-28.58Z"/>
    <path class="st3" d="M178.69,136.9h13.77v51.4h-13.77v-51.4Z"/>
    <path class="st3" d="M239.48,188.3h-13.58v-4.75h-.14c-2.5,3.75-6.51,5.65-12.02,5.7-3.36,0-6.28-1.05-8.75-3.16-2.55-2.13-3.85-5.31-3.89-9.53v-25.63h13.77v19.61c-.05,2.16.23,3.92.85,5.28.59,1.38,1.93,2.08,4.04,2.08,1.35.05,2.68-.43,4-1.44.59-.47,1.09-1.21,1.51-2.22.29-.92.44-2.1.44-3.56v-19.75h13.78v37.37Z"/>
    <path class="st3" d="M258.5,172.83c.23,2.11.95,3.83,2.15,5.17,1.15,1.41,2.85,2.11,5.1,2.11,1.22,0,2.38-.25,3.48-.74,1.1-.42,1.93-1.07,2.5-1.93h13.34c-1.51,4.03-3.98,7.01-7.41,8.93-3.41,1.92-7.28,2.88-11.62,2.88-6.03-.05-10.93-1.76-14.71-5.13-3.94-3.35-5.94-8.14-5.98-14.38.05-5.62,1.84-10.31,5.39-14.06,3.52-3.68,8.23-5.57,14.11-5.66,14.14.19,21.14,7.79,21,22.82h-27.35ZM272.63,165.45c-.05-1.79-.64-3.29-1.78-4.49-1.16-1.2-2.73-1.8-4.69-1.8-4.39.05-6.92,2.15-7.6,6.3h14.07Z"/>
    <path class="st3" d="M293.09,150.93h13.72v4.75h.14c2.53-3.77,6.57-5.66,12.14-5.66,3.38,0,6.28,1.03,8.71,3.09,2.4,2.06,3.63,5.25,3.68,9.56v25.63h-13.78v-19.61c.05-2.21-.21-3.99-.77-5.35-.59-1.34-1.96-2.01-4.11-2.01-1.35-.05-2.63.39-3.86,1.3-.59.47-1.09,1.18-1.51,2.15-.39,1.01-.59,2.27-.59,3.77v19.75h-13.77v-37.37Z"/>
    <path class="st3" d="M363.09,165.13c-.16-1.55-.67-2.73-1.53-3.55-.84-.82-2.01-1.23-3.51-1.23-1.3,0-2.32.27-3.07.81-.84.52-1.47,1.21-1.88,2.08-.43.87-.72,1.86-.85,2.96-.18,1.15-.27,2.31-.27,3.49,0,1.1.09,2.21.27,3.31.14,1.1.42,2.09.85,2.96.41.87,1.03,1.56,1.88,2.08.75.59,1.77.88,3.07.88,1.55,0,2.81-.55,3.78-1.66.93-1.06,1.47-2.34,1.6-3.84h13.19c-.7,5.09-2.77,8.97-6.2,11.66-3.45,2.74-7.66,4.13-12.64,4.17-5.59-.05-10.18-1.85-13.79-5.41-3.81-3.45-5.74-8.17-5.79-14.17.04-6,1.98-10.78,5.79-14.34,3.61-3.49,8.21-5.26,13.79-5.31,4.88,0,9.05,1.2,12.5,3.59,3.38,2.48,5.36,6.33,5.93,11.53h-13.12Z"/>
    <path class="st3" d="M394.48,172.83c.23,2.11.95,3.83,2.15,5.17,1.15,1.41,2.85,2.11,5.1,2.11,1.22,0,2.38-.25,3.48-.74,1.1-.42,1.93-1.07,2.5-1.93h13.34c-1.51,4.03-3.98,7.01-7.41,8.93-3.41,1.92-7.28,2.88-11.62,2.88-6.03-.05-10.93-1.76-14.71-5.13-3.94-3.35-5.94-8.14-5.98-14.38.05-5.62,1.84-10.31,5.39-14.06,3.52-3.68,8.23-5.57,14.11-5.66,14.14.19,21.14,7.79,21,22.82h-27.35ZM408.62,165.45c-.05-1.79-.64-3.29-1.78-4.49-1.16-1.2-2.73-1.8-4.69-1.8-4.39.05-6.92,2.15-7.6,6.3h14.07Z"/>
    <path class="st3" d="M429.08,150.93h13.24v5.98h.14c1.11-2.25,2.48-3.97,4.12-5.17,1.57-1.15,3.59-1.72,6.06-1.72,1.38,0,2.73.19,4.05.56v12.58c-.66-.28-1.39-.52-2.18-.7-.79-.14-1.88-.21-3.27-.21-5.54-.09-8.33,3.67-8.38,11.29v14.77h-13.77v-37.37Z"/>
    <path class="st3" d="M92.14,243.03c0,1.29.18,2.42.54,3.38.65,1.48,1.76,2.47,3.31,2.96,1.48.52,2.99.78,4.54.78,1.43.05,2.91-.26,4.43-.91,1.5-.68,2.28-1.93,2.33-3.76.05-1.29-.68-2.32-2.18-3.09-1.57-.73-4.55-1.66-8.93-2.81-2.06-.56-4.08-1.18-6.05-1.86-2.06-.68-3.92-1.55-5.59-2.6-1.69-1.05-3.06-2.45-4.11-4.18-1.1-1.62-1.65-3.7-1.65-6.26.09-5.95,2.18-10.29,6.26-13.01,3.9-2.65,8.51-3.97,13.82-3.97,5.56-.05,10.35,1.15,14.37,3.58,3.9,2.6,6.04,6.98,6.4,13.15h-14.52c.18-1.91-.42-3.27-1.81-4.09-1.36-.84-2.87-1.26-4.53-1.26-1.14,0-2.31.21-3.51.63-.55.23-1.01.57-1.4,1.02-.41.47-.61,1.07-.61,1.79.09.87.58,1.58,1.47,2.14.84.63,1.93,1.18,3.27,1.65,2.84.87,6.08,1.76,9.71,2.67,1.93.49,3.78,1.09,5.55,1.79,1.74.68,3.32,1.59,4.75,2.74,1.45,1.15,2.6,2.54,3.44,4.18.77,1.73,1.16,3.77,1.16,6.12-.14,6.59-2.6,11.19-7.4,13.82-4.72,2.65-10.07,3.95-16.04,3.9-1.48,0-3.43-.22-5.83-.67-2.43-.42-4.9-1.25-7.4-2.5-2.48-1.27-4.57-3.14-6.28-5.63-1.74-2.39-2.67-5.63-2.81-9.71h15.28Z"/>
    <path class="st3" d="M144.38,222.93h7.41v8.79h-7.41v13.07c-.05,1.71.24,2.96.85,3.74.59.82,1.73,1.23,3.41,1.23,1.07,0,2.12-.07,3.14-.21v10.76c-2.88.09-5.83.23-8.84.42-1.5,0-2.94-.12-4.32-.35-1.43-.28-2.75-.76-3.98-1.44-1.2-.77-2.15-1.89-2.86-3.36-.79-1.49-1.19-3.48-1.19-5.96v-17.9h-6.17v-8.79h6.17v-11.36h13.77v11.36Z"/>
    <path class="st3" d="M195.46,260.3h-13.58v-4.75h-.14c-2.5,3.75-6.51,5.65-12.02,5.7-3.36,0-6.28-1.05-8.75-3.16-2.55-2.13-3.85-5.31-3.89-9.53v-25.63h13.77v19.61c-.05,2.16.23,3.92.85,5.28.59,1.38,1.93,2.08,4.04,2.08,1.35.05,2.68-.43,4-1.44.59-.47,1.09-1.21,1.51-2.22.29-.92.44-2.1.44-3.56v-19.75h13.78v37.37Z"/>
    <path class="st3" d="M242.22,260.3h-13.59v-4.11h-.14c-.37.59-.85,1.14-1.42,1.65-.56.59-1.22,1.14-1.98,1.65-.76.54-1.76.95-2.99,1.23-1.18.3-2.65.48-4.42.53-5.17-.16-9.04-2.33-11.61-6.5-2.62-3.98-3.93-8.42-3.93-13.32,0-2.25.27-4.5.81-6.75.47-2.25,1.31-4.34,2.53-6.26,1.2-1.92,2.82-3.48,4.89-4.68,2.06-1.1,4.63-1.67,7.7-1.72,4.48.05,7.89,1.72,10.23,5.03h.14v-18.14h13.78v51.4ZM228.92,241.59c0-2.37-.39-4.49-1.17-6.37-.46-.87-1.12-1.56-1.97-2.08-.9-.54-2.02-.81-3.36-.81-2.53.05-4.27,1.01-5.22,2.89-.46.87-.79,1.86-.99,2.96-.2,1.1-.29,2.24-.29,3.42,0,1.1.1,2.21.29,3.31.19,1.1.52,2.09.99,2.96.95,1.97,2.69,2.98,5.22,3.03,1.34,0,2.46-.32,3.36-.95.85-.52,1.51-1.21,1.97-2.08.78-1.83,1.17-3.92,1.17-6.27v-.02Z"/>
    <path class="st3" d="M264.43,218.88h-13.77v-9.98h13.77v9.98ZM250.66,222.93h13.77v37.37h-13.77v-37.37Z"/>
    <path class="st3" d="M310.98,241.61c0,5.32-1.62,9.87-4.87,13.66-3.22,3.89-8.32,5.88-15.3,5.97-6.88-.09-11.96-2.09-15.23-5.98-3.34-3.8-4.97-8.35-4.9-13.68-.07-5.39,1.56-9.96,4.9-13.71,3.27-3.82,8.34-5.78,15.23-5.87,6.98.09,12.07,2.05,15.3,5.88,3.24,3.75,4.87,8.33,4.87,13.72ZM297.21,241.61c0-1.01-.05-2.08-.15-3.21-.15-1.1-.45-2.09-.92-2.96-.44-.94-1.06-1.7-1.87-2.29-.9-.54-2.05-.81-3.44-.81s-2.42.27-3.22.81c-.9.59-1.57,1.35-2.01,2.29-.8,1.93-1.18,3.98-1.13,6.17,0,.96.1,1.97.29,3.03.15,1.06.43,2.07.84,3.03.44.96,1.11,1.73,2.01,2.29.8.63,1.88.95,3.22.95s2.54-.32,3.44-.95c.8-.56,1.43-1.33,1.87-2.29.75-1.97,1.11-3.99,1.06-6.06Z"/>
  </g>
  <g>
    <path class="uuid-b0132972-32df-49fc-987c-f81273c14dfd" d="M1545.67,205.73h-10.95l-9.48-32.84h9.89l5.19,19.93h.11l5.11-19.93h10.06l-9.93,32.84Z"/>
    <path class="uuid-b0132972-32df-49fc-987c-f81273c14dfd" d="M1562.54,195.85c.15,1.35.61,2.45,1.37,3.3.73.9,1.82,1.35,3.26,1.35.78,0,1.52-.16,2.23-.47.7-.27,1.24-.68,1.6-1.24h8.52c-.96,2.58-2.54,4.48-4.73,5.7-2.18,1.23-4.65,1.84-7.42,1.84-3.85-.03-6.99-1.12-9.4-3.28-2.52-2.14-3.79-5.2-3.82-9.19.03-3.59,1.18-6.59,3.44-8.98,2.25-2.35,5.26-3.56,9.02-3.62,9.03.12,13.5,4.98,13.42,14.58h-17.47ZM1571.58,191.13c-.03-1.14-.41-2.1-1.14-2.87-.74-.77-1.74-1.15-3-1.15-2.8.03-4.42,1.37-4.85,4.02h8.99Z"/>
    <path class="uuid-b0132972-32df-49fc-987c-f81273c14dfd" d="M1584.65,181.86h8.77v3.03h.09c1.61-2.41,4.2-3.62,7.76-3.62,2.16,0,4.01.66,5.57,1.98,1.54,1.32,2.32,3.35,2.35,6.11v16.37h-8.8v-12.53c.03-1.41-.13-2.55-.49-3.42-.38-.85-1.25-1.28-2.63-1.28-.86-.03-1.68.25-2.46.83-.38.3-.7.76-.96,1.37-.25.65-.38,1.45-.38,2.41v12.62h-8.8v-23.88Z"/>
    <path class="uuid-b0132972-32df-49fc-987c-f81273c14dfd" d="M1623.43,179.27h-8.8v-6.38h8.8v6.38ZM1614.63,181.86h8.8v23.88h-8.8v-23.88Z"/>
    <path class="uuid-b0132972-32df-49fc-987c-f81273c14dfd" d="M1643.86,190.93c-.1-.99-.43-1.74-.98-2.27-.54-.52-1.29-.79-2.24-.79-.83,0-1.48.17-1.96.52-.54.33-.94.77-1.2,1.33-.28.56-.46,1.19-.55,1.89-.12.74-.17,1.48-.17,2.23,0,.71.06,1.41.17,2.12.09.71.27,1.33.54,1.89.26.55.66,1,1.2,1.33.48.38,1.13.56,1.96.56.99,0,1.79-.35,2.42-1.06.59-.68.94-1.49,1.02-2.45h8.43c-.45,3.25-1.77,5.73-3.96,7.45-2.21,1.75-4.9,2.64-8.07,2.67-3.57-.03-6.51-1.18-8.81-3.46-2.44-2.2-3.67-5.22-3.7-9.05.03-3.83,1.26-6.89,3.7-9.16,2.31-2.23,5.24-3.36,8.81-3.39,3.12,0,5.78.76,7.99,2.29,2.16,1.59,3.42,4.04,3.79,7.37h-8.38Z"/>
    <path class="uuid-b0132972-32df-49fc-987c-f81273c14dfd" d="M1663.91,195.85c.15,1.35.61,2.45,1.37,3.3.73.9,1.82,1.35,3.26,1.35.78,0,1.52-.16,2.23-.47.7-.27,1.24-.68,1.6-1.24h8.52c-.96,2.58-2.54,4.48-4.73,5.7-2.18,1.23-4.65,1.84-7.42,1.84-3.85-.03-6.99-1.12-9.4-3.28-2.52-2.14-3.79-5.2-3.82-9.19.03-3.59,1.18-6.59,3.44-8.98,2.25-2.35,5.26-3.56,9.02-3.62,9.03.12,13.5,4.98,13.42,14.58h-17.47ZM1672.94,191.13c-.03-1.14-.41-2.1-1.14-2.87-.74-.77-1.74-1.15-3-1.15-2.8.03-4.42,1.37-4.85,4.02h8.99Z"/>
    <path class="uuid-b0132972-32df-49fc-987c-f81273c14dfd" d="M1686.42,196.66h9.25v7.2c0,2.2-.4,4.17-1.19,5.92-.84,1.75-2.25,2.99-4.23,3.72-.8.28-1.5.44-2.13.47-.68.06-1.25.09-1.69.09v-4c1.13-.12,2.06-.59,2.8-1.42.71-.8,1.09-1.77,1.15-2.91h-3.95v-9.07Z"/>
    <path class="uuid-b0132972-32df-49fc-987c-f81273c14dfd" d="M1548.57,223.13c-.03-.35-.12-.8-.26-1.35-.17-.53-.44-1.04-.81-1.55-.35-.58-.86-1.07-1.52-1.44-.65-.33-1.5-.5-2.53-.5-2.23.06-3.8,1.01-4.72,2.86-.93,1.8-1.38,3.86-1.35,6.17-.03,2.31.42,4.37,1.35,6.17.91,1.88,2.49,2.83,4.72,2.86,1.62,0,2.84-.53,3.66-1.6.77-1.02,1.27-2.31,1.5-3.87h9.64c-.03,3.46-1.28,6.55-3.74,9.27-2.47,2.83-6.06,4.29-10.79,4.38-5.13-.06-9.1-1.73-11.9-5.01-2.81-3.19-4.22-7.25-4.22-12.2.03-5.27,1.49-9.44,4.4-12.51,2.86-3.1,6.77-4.66,11.73-4.69,8.73.24,13.53,4.58,14.4,13.02h-9.55Z"/>
    <path class="uuid-b0132972-32df-49fc-987c-f81273c14dfd" d="M1586.35,238.41c0,.89.06,1.81.18,2.75.12.92.42,1.78.9,2.57h-9.28c-.24-.76-.34-1.51-.31-2.25h-.09c-.99,1.06-2.12,1.8-3.41,2.2-1.35.43-2.77.65-4.26.65-2.29,0-4.18-.58-5.68-1.75-1.61-1.2-2.42-3.02-2.45-5.47,0-1.87.49-3.32,1.48-4.35.94-1.05,2.12-1.8,3.53-2.27,1.48-.49,2.97-.83,4.47-1.01s2.83-.34,4-.49c.34-.1.67-.2.97-.29.28-.09.55-.2.79-.31.49-.3.74-.81.74-1.53-.03-.82-.34-1.4-.92-1.73-.59-.31-1.28-.47-2.07-.47-1.37.03-2.27.29-2.73.78-.46.55-.7,1.1-.7,1.65h-8.49c.12-1.69.55-3.06,1.29-4.11.73-1.03,1.67-1.81,2.82-2.33,1.17-.55,2.47-.94,3.91-1.15,1.39-.15,2.77-.22,4.13-.22,2.79,0,4.97.25,6.55.76,1.57.52,2.67,1.24,3.31,2.13.67.88,1.08,1.88,1.24,2.99.06,1.12.09,2.27.09,3.44v9.82ZM1577.91,233.03c-1.19.53-2.45.91-3.77,1.15-2.15.27-3.22,1.13-3.22,2.59,0,.59.29,1.09.87,1.51.53.46,1.24.7,2.12.7,1.11,0,2.05-.32,2.8-.97.74-.62,1.14-1.54,1.2-2.77v-2.21Z"/>
    <path class="uuid-b0132972-32df-49fc-987c-f81273c14dfd" d="M1591.59,210.9h8.8v32.84h-8.8v-32.84Z"/>
    <path class="uuid-b0132972-32df-49fc-987c-f81273c14dfd" d="M1614.88,217.27h-8.8v-6.38h8.8v6.38ZM1606.08,219.86h8.8v23.88h-8.8v-23.88Z"/>
    <path class="uuid-b0132972-32df-49fc-987c-f81273c14dfd" d="M1621.87,225.47h-3.62v-5.61h3.62c-.06-1.23.03-2.44.26-3.64.25-1.15.77-2.18,1.56-3.08.96-.97,2.04-1.6,3.26-1.89,1.21-.24,2.69-.36,4.43-.36,1.35.03,2.67.09,3.97.18v6.26c-.36-.07-.72-.16-1.08-.25-.38-.06-.75-.09-1.12-.09-1.09,0-1.84.19-2.25.56-.43.42-.62,1.18-.56,2.29h4.78v5.61h-4.45v18.26h-8.8v-18.26Z"/>
    <path class="uuid-b0132972-32df-49fc-987c-f81273c14dfd" d="M1662.52,231.8c0,3.4-1.04,6.31-3.11,8.73-2.06,2.48-5.32,3.75-9.77,3.81-4.4-.06-7.64-1.33-9.73-3.82-2.13-2.43-3.18-5.34-3.13-8.74-.04-3.44,1-6.36,3.13-8.76,2.09-2.44,5.33-3.69,9.73-3.75,4.46.06,7.71,1.31,9.77,3.75,2.07,2.4,3.11,5.32,3.11,8.77ZM1653.71,231.8c0-.65-.03-1.33-.09-2.05-.09-.71-.29-1.34-.58-1.89-.28-.6-.68-1.09-1.19-1.46-.58-.34-1.31-.52-2.2-.52s-1.54.17-2.06.52c-.58.38-1,.86-1.29,1.46-.51,1.23-.75,2.54-.72,3.94,0,.62.06,1.26.19,1.94.09.68.27,1.32.54,1.94.28.62.71,1.1,1.29,1.46.51.41,1.2.61,2.06.61s1.62-.2,2.2-.61c.51-.36.91-.85,1.19-1.46.48-1.26.71-2.55.68-3.87Z"/>
    <path class="uuid-b0132972-32df-49fc-987c-f81273c14dfd" d="M1667.26,219.86h8.46v3.82h.09c.71-1.44,1.59-2.54,2.63-3.3,1-.73,2.29-1.1,3.87-1.1.88,0,1.75.12,2.59.36v8.04c-.42-.18-.89-.33-1.39-.45-.51-.09-1.2-.13-2.09-.13-3.54-.06-5.33,2.34-5.35,7.21v9.43h-8.8v-23.88Z"/>
    <path class="uuid-b0132972-32df-49fc-987c-f81273c14dfd" d="M1688.51,219.86h8.77v3.03h.09c1.61-2.41,4.2-3.62,7.76-3.62,2.16,0,4.01.66,5.57,1.98,1.54,1.32,2.32,3.35,2.35,6.11v16.37h-8.8v-12.53c.03-1.41-.13-2.55-.49-3.42-.38-.85-1.25-1.28-2.63-1.28-.86-.03-1.68.25-2.46.83-.38.3-.7.76-.96,1.37-.25.65-.38,1.45-.38,2.41v12.62h-8.8v-23.88Z"/>
    <path class="uuid-b0132972-32df-49fc-987c-f81273c14dfd" d="M1727.29,217.27h-8.8v-6.38h8.8v6.38ZM1718.49,219.86h8.8v23.88h-8.8v-23.88Z"/>
    <path class="uuid-b0132972-32df-49fc-987c-f81273c14dfd" d="M1755.84,238.41c0,.89.06,1.81.18,2.75.12.92.42,1.78.9,2.57h-9.28c-.24-.76-.34-1.51-.31-2.25h-.09c-.99,1.06-2.12,1.8-3.41,2.2-1.35.43-2.77.65-4.26.65-2.29,0-4.18-.58-5.68-1.75-1.61-1.2-2.42-3.02-2.45-5.47,0-1.87.49-3.32,1.48-4.35.94-1.05,2.12-1.8,3.53-2.27,1.48-.49,2.97-.83,4.47-1.01s2.83-.34,4-.49c.34-.1.67-.2.97-.29.28-.09.55-.2.79-.31.49-.3.74-.81.74-1.53-.03-.82-.34-1.4-.92-1.73-.59-.31-1.28-.47-2.07-.47-1.37.03-2.27.29-2.73.78-.46.55-.7,1.1-.7,1.65h-8.49c.12-1.69.55-3.06,1.29-4.11.73-1.03,1.67-1.81,2.82-2.33,1.17-.55,2.47-.94,3.91-1.15,1.39-.15,2.77-.22,4.13-.22,2.79,0,4.97.25,6.55.76,1.57.52,2.67,1.24,3.31,2.13.67.88,1.08,1.88,1.24,2.99.06,1.12.09,2.27.09,3.44v9.82ZM1747.4,233.03c-1.19.53-2.45.91-3.77,1.15-2.15.27-3.22,1.13-3.22,2.59,0,.59.29,1.09.87,1.51.53.46,1.24.7,2.12.7,1.11,0,2.05-.32,2.8-.97.74-.62,1.14-1.54,1.2-2.77v-2.21Z"/>
  </g>
  <g>
    <path class="uuid-b0132972-32df-49fc-987c-f81273c14dfd" d="M1550.49,103.91h5.66v4.48h-5.66v10.5h-4.96v-10.5h-21.06v-4.78l20.65-26.73h5.37v27.02ZM1545.54,103.91v-20.53l-15.87,20.53h15.87Z"/>
    <path class="uuid-b0132972-32df-49fc-987c-f81273c14dfd" d="M1565.07,114.41h22.18v4.48h-27.73l.12-2.3c.24-3.46,1.02-6.43,2.36-8.91,1.34-2.48,3.6-4.64,6.79-6.49l5.31-3.07c2.67-1.57,4.57-3.11,5.69-4.6,1.12-1.49,1.68-3.3,1.68-5.43,0-2.32-.74-4.18-2.21-5.58-1.48-1.4-3.51-2.09-6.11-2.09-5.86,0-8.79,3.01-8.79,9.03h-4.9c-.04-4.29,1.16-7.61,3.6-9.97,2.44-2.36,5.84-3.54,10.21-3.54,3.97,0,7.2,1.12,9.68,3.36,2.48,2.32,3.72,5.25,3.72,8.79,0,5.43-3.19,9.99-9.56,13.69l-4.48,2.6c-2.6,1.57-4.46,3.1-5.61,4.57-1.14,1.47-1.79,3.29-1.95,5.46Z"/>
    <path class="uuid-b0132972-32df-49fc-987c-f81273c14dfd" d="M1588.49,81.37v-4.48h26.96v3.89c-9.68,10.86-14.71,23.56-15.1,38.11h-5.13c.2-7.28,1.46-13.93,3.81-19.97,2.34-6.04,5.91-11.89,10.71-17.55h-21.24Z"/>
    <path class="uuid-b0132972-32df-49fc-987c-f81273c14dfd" d="M1639.58,96.36c2.44.94,4.35,2.33,5.72,4.16,1.38,1.83,2.06,3.98,2.06,6.46,0,3.93-1.4,7.06-4.19,9.38-2.79,2.32-6.47,3.48-11.03,3.48s-8.24-1.16-11.03-3.48c-2.79-2.32-4.19-5.45-4.19-9.38,0-2.48.69-4.63,2.06-6.46s3.28-3.22,5.72-4.16c-4.05-1.77-6.08-4.74-6.08-8.91,0-3.58,1.28-6.41,3.83-8.5,2.56-2.01,5.78-3.01,9.68-3.01s7.12,1,9.68,3.01c2.56,2.08,3.83,4.92,3.83,8.5,0,4.17-2.03,7.14-6.08,8.91ZM1624.83,113.12c1.85,1.5,4.29,2.24,7.32,2.24s5.47-.75,7.32-2.24c1.81-1.46,2.71-3.5,2.71-6.14s-.91-4.74-2.71-6.2c-1.81-1.46-4.25-2.18-7.32-2.18s-5.51.73-7.32,2.18c-1.81,1.46-2.71,3.52-2.71,6.2s.9,4.68,2.71,6.14ZM1638.34,82.26c-1.57-1.22-3.64-1.83-6.2-1.83s-4.62.61-6.2,1.83c-1.61,1.26-2.42,2.99-2.42,5.19s.81,3.93,2.42,5.19c1.57,1.22,3.64,1.83,6.2,1.83s4.62-.61,6.2-1.83c1.61-1.26,2.42-2.99,2.42-5.19s-.81-3.93-2.42-5.19Z"/>
  </g>
  <g>
    <path class="uuid-b0132972-32df-49fc-987c-f81273c14dfd" d="M1229.34,114.54c4.18,1.6,6.27,4.49,6.27,8.67,0,3.16-1.03,5.65-3.09,7.47-2.06,1.82-4.96,2.73-8.7,2.73h-15.86v-36.31h15.1c3.5,0,6.22.88,8.16,2.63,1.94,1.75,2.91,4.04,2.91,6.86,0,3.64-1.6,6.29-4.79,7.96ZM1222.76,100.97h-10.51v11.99h10.51c2.35,0,4.13-.54,5.35-1.63s1.84-2.62,1.84-4.59c0-1.8-.62-3.21-1.86-4.23-1.24-1.02-3.02-1.53-5.33-1.53ZM1212.25,129.53h11.37c2.52,0,4.43-.54,5.74-1.63,1.31-1.09,1.96-2.65,1.96-4.69,0-4.28-2.58-6.43-7.75-6.43h-11.32v12.75Z"/>
    <path class="uuid-b0132972-32df-49fc-987c-f81273c14dfd" d="M1252.29,106.68c.68,0,1.14.02,1.38.05v3.93h-1.02c-2.72,0-4.84.67-6.35,2.01s-2.27,3.26-2.27,5.74v14.99h-4.08v-26.32h3.88v4.64c1.77-3.37,4.59-5.05,8.47-5.05Z"/>
    <path class="uuid-b0132972-32df-49fc-987c-f81273c14dfd" d="M1277.23,130.09h1.48v3.32c-.68.1-1.43.15-2.24.15-2.75,0-4.23-1.26-4.44-3.77-1.84,2.82-4.69,4.23-8.57,4.23-2.89,0-5.16-.67-6.81-2.01-1.65-1.34-2.47-3.24-2.47-5.69,0-4.76,3.25-7.48,9.74-8.16l3.77-.41c2.75-.31,4.13-1.51,4.13-3.62,0-1.46-.45-2.52-1.35-3.16-.9-.65-2.42-.97-4.56-.97-2.28,0-3.92.38-4.92,1.15-1,.76-1.57,2.12-1.71,4.05h-4.08c.34-5.81,3.91-8.72,10.71-8.72s9.89,2.55,9.89,7.65v14.69c0,.85.48,1.27,1.43,1.27ZM1263.66,130.55c2.18,0,4.08-.66,5.71-1.99,1.63-1.29,2.45-3.14,2.45-5.56v-3.11c-.75.58-1.9.95-3.47,1.12l-3.83.46c-2.21.27-3.78.78-4.72,1.53-.94.75-1.4,1.82-1.4,3.21s.44,2.42,1.33,3.19c.88.77,2.19,1.15,3.93,1.15Z"/>
    <path class="uuid-b0132972-32df-49fc-987c-f81273c14dfd" d="M1294.42,106.48c2.92,0,5.2.8,6.83,2.4,1.63,1.6,2.45,3.84,2.45,6.73v17.8h-4.08v-17.39c0-3.91-2.01-5.86-6.02-5.86-1.9,0-3.59.71-5.05,2.14s-2.19,3.5-2.19,6.22v14.89h-4.08v-26.32h3.88v3.93c2.01-3.03,4.76-4.54,8.26-4.54Z"/>
    <path class="uuid-b0132972-32df-49fc-987c-f81273c14dfd" d="M1329.6,110.87v-13.77h4.08v36.31h-3.88v-4.08c-2.11,3.13-5.12,4.69-9.03,4.69-3.71,0-6.67-1.26-8.87-3.77-2.24-2.52-3.37-5.85-3.37-10s1.12-7.56,3.37-10.05c2.17-2.48,5.13-3.72,8.87-3.72s6.71,1.46,8.82,4.39ZM1315.12,127.75c1.53,1.73,3.59,2.6,6.17,2.6s4.64-.9,6.17-2.7c1.53-1.77,2.29-4.23,2.29-7.39s-.76-5.59-2.29-7.4c-1.53-1.8-3.59-2.7-6.17-2.7s-4.6.93-6.15,2.78c-1.55,1.85-2.32,4.36-2.32,7.52s.76,5.56,2.29,7.29Z"/>
    <path class="uuid-b0132972-32df-49fc-987c-f81273c14dfd" d="M1354.03,133.41h-4.28v-36.31h4.28v36.31Z"/>
    <path class="uuid-b0132972-32df-49fc-987c-f81273c14dfd" d="M1380.2,110.87v-13.77h4.08v36.31h-3.88v-4.08c-2.11,3.13-5.12,4.69-9.03,4.69-3.71,0-6.67-1.26-8.87-3.77-2.24-2.52-3.37-5.85-3.37-10s1.12-7.56,3.37-10.05c2.17-2.48,5.13-3.72,8.87-3.72s6.71,1.46,8.82,4.39ZM1365.71,127.75c1.53,1.73,3.59,2.6,6.17,2.6s4.64-.9,6.17-2.7c1.53-1.77,2.29-4.23,2.29-7.39s-.76-5.59-2.29-7.4c-1.53-1.8-3.59-2.7-6.17-2.7s-4.6.93-6.15,2.78c-1.55,1.85-2.32,4.36-2.32,7.52s.76,5.56,2.29,7.29Z"/>
    <path class="uuid-b0132972-32df-49fc-987c-f81273c14dfd" d="M1413.35,120.25v1.43h-19.99c.2,2.86,1,5.01,2.4,6.45,1.39,1.45,3.3,2.17,5.71,2.17,3.64,0,5.97-1.63,6.99-4.9h4.23c-.71,2.65-2.04,4.75-3.98,6.3-1.94,1.55-4.39,2.32-7.34,2.32-3.64,0-6.58-1.24-8.82-3.72-2.28-2.48-3.42-5.83-3.42-10.05s1.12-7.48,3.37-10c2.21-2.52,5.13-3.77,8.77-3.77s6.73,1.31,8.87,3.93c2.14,2.62,3.21,5.9,3.21,9.84ZM1401.26,110.2c-2.14,0-3.89.67-5.25,2.01-1.36,1.34-2.21,3.27-2.55,5.79h15.5c-.2-2.31-.99-4.19-2.35-5.64-1.36-1.44-3.15-2.17-5.36-2.17Z"/>
    <path class="uuid-b0132972-32df-49fc-987c-f81273c14dfd" d="M1430.33,106.48c2.92,0,5.2.8,6.83,2.4,1.63,1.6,2.45,3.84,2.45,6.73v17.8h-4.08v-17.39c0-3.91-2.01-5.86-6.02-5.86-1.9,0-3.59.71-5.05,2.14s-2.19,3.5-2.19,6.22v14.89h-4.08v-26.32h3.88v3.93c2.01-3.03,4.76-4.54,8.26-4.54Z"/>
    <path class="uuid-b0132972-32df-49fc-987c-f81273c14dfd" d="M1456.24,107.09v3.57h-5.41v17.08c0,1.5,1,2.24,3.01,2.24h2.4v3.42c-1.12.1-2.09.15-2.91.15-4.39,0-6.58-1.82-6.58-5.46v-17.44h-4.33v-3.57h4.33v-7.45h4.08v7.45h5.41Z"/>
    <path class="uuid-b0132972-32df-49fc-987c-f81273c14dfd" d="M1464.75,103.11h-4.33v-5h4.33v5ZM1464.65,133.41h-4.08v-26.32h4.08v26.32Z"/>
    <path class="uuid-b0132972-32df-49fc-987c-f81273c14dfd" d="M1482.3,107.09v3.57h-5.41v17.08c0,1.5,1,2.24,3.01,2.24h2.4v3.42c-1.12.1-2.09.15-2.91.15-4.39,0-6.58-1.82-6.58-5.46v-17.44h-4.33v-3.57h4.33v-7.45h4.08v7.45h5.41Z"/>
    <path class="uuid-b0132972-32df-49fc-987c-f81273c14dfd" d="M1499.59,118.01l3.72-10.91h4.44l-11.12,30.45c-.78,2.21-1.85,3.76-3.21,4.67-1.36.9-3.15,1.35-5.35,1.35-.75,0-1.56-.05-2.45-.15v-3.42h2.4c2.35,0,3.94-1.09,4.79-3.26l.92-2.45-9.89-27.18h4.49l3.72,10.96c1.33,3.88,2.58,7.67,3.77,11.37.99-3.16,2.24-6.97,3.77-11.42Z"/>
    <path class="uuid-b0132972-32df-49fc-987c-f81273c14dfd" d="M1229.39,169.08c4.05,2.11,6.07,5.15,6.07,9.13,0,3.3-1.16,5.95-3.47,7.96-2.28,2.04-5.29,3.06-9.03,3.06-4.05,0-7.18-1.05-9.41-3.16-2.23-2.11-3.32-4.98-3.29-8.62h4.23c.07,2.58.83,4.55,2.29,5.89,1.46,1.34,3.52,2.01,6.17,2.01,2.45,0,4.39-.65,5.84-1.94,1.44-1.29,2.17-3.03,2.17-5.2s-.74-3.97-2.22-5.28c-1.48-1.31-3.49-1.96-6.04-1.96h-2.7v-3.57h2.45c2.41,0,4.27-.54,5.58-1.63,1.31-1.09,1.96-2.6,1.96-4.54s-.66-3.39-1.96-4.46c-1.31-1.07-3.08-1.61-5.33-1.61s-4.09.59-5.43,1.76c-1.34,1.17-2.07,2.9-2.17,5.18h-4.28c.03-3.3,1.11-5.92,3.24-7.88,2.12-1.96,5.01-2.93,8.64-2.93s6.32.88,8.44,2.63c2.12,1.75,3.19,4.16,3.19,7.22,0,3.47-1.65,6.12-4.95,7.96Z"/>
    <path class="uuid-b0132972-32df-49fc-987c-f81273c14dfd" d="M1260.09,165.87v-13.77h4.08v36.31h-3.88v-4.08c-2.11,3.13-5.12,4.69-9.03,4.69-3.71,0-6.67-1.26-8.87-3.77-2.24-2.52-3.37-5.85-3.37-10s1.12-7.56,3.37-10.05c2.17-2.48,5.13-3.72,8.87-3.72s6.71,1.46,8.82,4.39ZM1245.61,182.75c1.53,1.73,3.59,2.6,6.17,2.6s4.64-.9,6.17-2.7c1.53-1.77,2.29-4.23,2.29-7.39s-.76-5.59-2.29-7.4c-1.53-1.8-3.59-2.7-6.17-2.7s-4.6.93-6.15,2.78c-1.55,1.85-2.32,4.36-2.32,7.52s.76,5.56,2.29,7.29Z"/>
    <path class="uuid-b0132972-32df-49fc-987c-f81273c14dfd" d="M1306.91,177.9l.36,5.86c.17,2.04.61,3.59,1.33,4.64h-4.44c-.75-1.09-1.14-2.7-1.17-4.85l-.15-3.88c-.1-2.45-.65-4.19-1.63-5.23-.99-1.04-2.6-1.55-4.85-1.55h-11.83v15.5h-4.28v-36.31h15.35c3.74,0,6.72.87,8.95,2.6,2.23,1.73,3.34,4.17,3.34,7.29,0,2.21-.54,4.07-1.61,5.58-1.07,1.51-2.52,2.58-4.36,3.19,3.06.95,4.73,3.33,5,7.14ZM1284.52,169.03h11.58c2.28,0,4.07-.59,5.38-1.76,1.31-1.17,1.96-2.85,1.96-5.02s-.69-3.64-2.07-4.69c-1.38-1.05-3.31-1.58-5.79-1.58h-11.07v13.06Z"/>
    <path class="uuid-b0132972-32df-49fc-987c-f81273c14dfd" d="M1335.62,175.25v1.43h-19.99c.2,2.86,1,5.01,2.4,6.45,1.39,1.45,3.3,2.17,5.71,2.17,3.64,0,5.97-1.63,6.99-4.9h4.23c-.71,2.65-2.04,4.75-3.98,6.3-1.94,1.55-4.39,2.32-7.34,2.32-3.64,0-6.58-1.24-8.82-3.72-2.28-2.48-3.42-5.83-3.42-10.05s1.12-7.48,3.37-10c2.21-2.52,5.13-3.77,8.77-3.77s6.73,1.31,8.87,3.93c2.14,2.62,3.21,5.9,3.21,9.84ZM1323.54,165.2c-2.14,0-3.89.67-5.25,2.01-1.36,1.34-2.21,3.27-2.55,5.79h15.5c-.2-2.31-.99-4.19-2.35-5.64-1.36-1.44-3.15-2.17-5.36-2.17Z"/>
    <path class="uuid-b0132972-32df-49fc-987c-f81273c14dfd" d="M1352.61,161.48c2.92,0,5.2.8,6.83,2.4,1.63,1.6,2.45,3.84,2.45,6.73v17.8h-4.08v-17.39c0-3.91-2.01-5.86-6.02-5.86-1.9,0-3.59.71-5.05,2.14s-2.19,3.5-2.19,6.22v14.89h-4.08v-26.32h3.88v3.93c2.01-3.03,4.76-4.54,8.26-4.54Z"/>
    <path class="uuid-b0132972-32df-49fc-987c-f81273c14dfd" d="M1387.79,165.87v-13.77h4.08v36.31h-3.88v-4.08c-2.11,3.13-5.12,4.69-9.03,4.69-3.71,0-6.67-1.26-8.87-3.77-2.24-2.52-3.37-5.85-3.37-10s1.12-7.56,3.37-10.05c2.17-2.48,5.13-3.72,8.87-3.72s6.71,1.46,8.82,4.39ZM1373.31,182.75c1.53,1.73,3.59,2.6,6.17,2.6s4.64-.9,6.17-2.7c1.53-1.77,2.29-4.23,2.29-7.39s-.76-5.59-2.29-7.4c-1.53-1.8-3.59-2.7-6.17-2.7s-4.6.93-6.15,2.78c-1.55,1.85-2.32,4.36-2.32,7.52s.76,5.56,2.29,7.29Z"/>
    <path class="uuid-b0132972-32df-49fc-987c-f81273c14dfd" d="M1420.95,175.25v1.43h-19.99c.2,2.86,1,5.01,2.4,6.45,1.39,1.45,3.3,2.17,5.71,2.17,3.64,0,5.97-1.63,6.99-4.9h4.23c-.71,2.65-2.04,4.75-3.98,6.3-1.94,1.55-4.39,2.32-7.34,2.32-3.64,0-6.58-1.24-8.82-3.72-2.28-2.48-3.42-5.83-3.42-10.05s1.12-7.48,3.37-10c2.21-2.52,5.13-3.77,8.77-3.77s6.73,1.31,8.87,3.93c2.14,2.62,3.21,5.9,3.21,9.84ZM1408.86,165.2c-2.14,0-3.89.67-5.25,2.01-1.36,1.34-2.21,3.27-2.55,5.79h15.5c-.2-2.31-.99-4.19-2.35-5.64-1.36-1.44-3.15-2.17-5.36-2.17Z"/>
    <path class="uuid-b0132972-32df-49fc-987c-f81273c14dfd" d="M1438.13,161.68c.68,0,1.14.02,1.38.05v3.93h-1.02c-2.72,0-4.84.67-6.35,2.01s-2.27,3.26-2.27,5.74v14.99h-4.08v-26.32h3.88v4.64c1.77-3.37,4.59-5.05,8.47-5.05Z"/>
    <path class="uuid-b0132972-32df-49fc-987c-f81273c14dfd" d="M1447.52,158.11h-4.33v-5h4.33v5ZM1447.41,188.41h-4.08v-26.32h4.08v26.32Z"/>
    <path class="uuid-b0132972-32df-49fc-987c-f81273c14dfd" d="M1465.67,161.48c2.92,0,5.2.8,6.83,2.4,1.63,1.6,2.45,3.84,2.45,6.73v17.8h-4.08v-17.39c0-3.91-2.01-5.86-6.02-5.86-1.9,0-3.59.71-5.05,2.14s-2.19,3.5-2.19,6.22v14.89h-4.08v-26.32h3.88v3.93c2.01-3.03,4.76-4.54,8.26-4.54Z"/>
    <path class="uuid-b0132972-32df-49fc-987c-f81273c14dfd" d="M1501.07,165.92v-3.83h3.88v25.3c0,3.6-1.05,6.44-3.16,8.52-2.11,2.07-5.13,3.11-9.08,3.11-3.26,0-5.88-.75-7.85-2.24-1.97-1.5-3.09-3.57-3.37-6.22h4.08c.51,3.33,2.89,5,7.14,5,5.44,0,8.16-2.72,8.16-8.16v-2.55c-2.07,2.79-5.02,4.18-8.82,4.18s-6.67-1.26-8.87-3.77c-2.24-2.52-3.37-5.85-3.37-10s1.12-7.56,3.37-10.05c2.17-2.48,5.13-3.72,8.87-3.72s6.92,1.48,9.03,4.44ZM1492.55,185.35c2.58,0,4.64-.9,6.17-2.7,1.53-1.8,2.29-4.27,2.29-7.39s-.76-5.59-2.29-7.4c-1.53-1.8-3.59-2.7-6.17-2.7s-4.6.92-6.15,2.75c-1.55,1.84-2.32,4.28-2.32,7.34s.77,5.51,2.32,7.34c1.55,1.84,3.6,2.75,6.15,2.75Z"/>
    <path class="uuid-b0132972-32df-49fc-987c-f81273c14dfd" d="M1091.49,207.1h12.24c5.51,0,9.86,1.6,13.06,4.79,3.16,3.2,4.74,7.65,4.74,13.36s-1.58,10.08-4.74,13.31c-3.23,3.23-7.58,4.84-13.06,4.84h-12.24v-36.31ZM1095.77,239.53h7.96c4.28,0,7.57-1.26,9.87-3.77,2.29-2.52,3.44-6.02,3.44-10.51s-1.15-7.99-3.44-10.51c-2.29-2.52-5.58-3.77-9.87-3.77h-7.96v28.56Z"/>
    <path class="uuid-b0132972-32df-49fc-987c-f81273c14dfd" d="M1149.58,230.25v1.43h-19.99c.2,2.86,1,5.01,2.4,6.45,1.39,1.45,3.3,2.17,5.71,2.17,3.64,0,5.97-1.63,6.99-4.9h4.23c-.71,2.65-2.04,4.75-3.98,6.3-1.94,1.55-4.39,2.32-7.34,2.32-3.64,0-6.58-1.24-8.82-3.72-2.28-2.48-3.42-5.83-3.42-10.05s1.12-7.48,3.37-10c2.21-2.52,5.13-3.77,8.77-3.77s6.73,1.31,8.87,3.93c2.14,2.62,3.21,5.9,3.21,9.84ZM1137.49,220.2c-2.14,0-3.89.67-5.25,2.01-1.36,1.34-2.21,3.27-2.55,5.79h15.5c-.2-2.31-.99-4.19-2.35-5.63-1.36-1.45-3.15-2.17-5.36-2.17Z"/>
    <path class="uuid-b0132972-32df-49fc-987c-f81273c14dfd" d="M1163.45,244.02c-7.04,0-10.76-2.99-11.17-8.98h4.13c.24,1.97.89,3.38,1.96,4.21s2.76,1.25,5.07,1.25c4.22,0,6.32-1.36,6.32-4.08,0-1.19-.43-2.09-1.3-2.7-.87-.61-2.44-1.14-4.72-1.58l-2.45-.46c-5.47-1.02-8.21-3.6-8.21-7.75,0-2.28.86-4.09,2.58-5.43s4.05-2.01,7.01-2.01c6.97,0,10.54,2.91,10.71,8.72h-4.08c-.1-1.9-.68-3.25-1.73-4.03-1.05-.78-2.69-1.17-4.9-1.17-1.77,0-3.13.34-4.08,1.02-.95.68-1.43,1.63-1.43,2.86,0,1.16.41,2.02,1.22,2.6s2.18,1.07,4.08,1.48l2.35.46c3.23.65,5.55,1.56,6.96,2.75,1.41,1.19,2.12,2.86,2.12,5,0,2.48-.93,4.41-2.78,5.79-1.85,1.38-4.41,2.07-7.68,2.07Z"/>
    <path class="uuid-b0132972-32df-49fc-987c-f81273c14dfd" d="M1182.17,213.11h-4.33v-5h4.33v5ZM1182.06,243.41h-4.08v-26.32h4.08v26.32Z"/>
    <path class="uuid-b0132972-32df-49fc-987c-f81273c14dfd" d="M1208.17,220.92v-3.83h3.88v25.3c0,3.6-1.05,6.44-3.16,8.52-2.11,2.07-5.13,3.11-9.08,3.11-3.26,0-5.88-.75-7.85-2.24-1.97-1.5-3.09-3.57-3.37-6.22h4.08c.51,3.33,2.89,5,7.14,5,5.44,0,8.16-2.72,8.16-8.16v-2.55c-2.07,2.79-5.02,4.18-8.82,4.18s-6.67-1.26-8.87-3.77c-2.24-2.52-3.37-5.85-3.37-10s1.12-7.56,3.37-10.05c2.17-2.48,5.13-3.72,8.87-3.72s6.92,1.48,9.03,4.44ZM1199.66,240.35c2.58,0,4.64-.9,6.17-2.7s2.29-4.27,2.29-7.4-.76-5.59-2.29-7.39c-1.53-1.8-3.59-2.7-6.17-2.7s-4.6.92-6.15,2.75c-1.55,1.84-2.32,4.28-2.32,7.34s.77,5.51,2.32,7.34c1.55,1.84,3.6,2.75,6.15,2.75Z"/>
    <path class="uuid-b0132972-32df-49fc-987c-f81273c14dfd" d="M1230.31,216.48c2.92,0,5.2.8,6.83,2.4,1.63,1.6,2.45,3.84,2.45,6.73v17.8h-4.08v-17.39c0-3.91-2.01-5.87-6.02-5.87-1.9,0-3.59.71-5.05,2.14-1.46,1.43-2.19,3.5-2.19,6.22v14.89h-4.08v-26.32h3.88v3.93c2.01-3.03,4.76-4.54,8.26-4.54Z"/>
    <path class="uuid-b0132972-32df-49fc-987c-f81273c14dfd" d="M1268.3,216.48c3.71,0,6.68,1.24,8.92,3.72,2.21,2.52,3.32,5.87,3.32,10.05s-1.11,7.48-3.32,10c-2.24,2.52-5.22,3.77-8.92,3.77-3.91,0-6.92-1.56-9.03-4.69v4.08h-3.88v-36.31h4.08v13.77c2.11-2.92,5.05-4.39,8.82-4.39ZM1267.79,240.35c2.55,0,4.6-.93,6.15-2.78,1.55-1.85,2.32-4.36,2.32-7.52s-.76-5.52-2.27-7.27c-1.51-1.75-3.58-2.63-6.2-2.63s-4.64.88-6.17,2.65c-1.53,1.77-2.29,4.25-2.29,7.45s.76,5.63,2.29,7.4c1.53,1.8,3.59,2.7,6.17,2.7Z"/>
    <path class="uuid-b0132972-32df-49fc-987c-f81273c14dfd" d="M1296.81,228.01l3.72-10.91h4.44l-11.12,30.45c-.78,2.21-1.85,3.77-3.21,4.67-1.36.9-3.15,1.35-5.35,1.35-.75,0-1.56-.05-2.45-.15v-3.42h2.4c2.35,0,3.94-1.09,4.79-3.26l.92-2.45-9.89-27.18h4.49l3.72,10.97c1.33,3.88,2.58,7.67,3.77,11.37.99-3.16,2.24-6.97,3.77-11.42Z"/>
    <path class="uuid-b0132972-32df-49fc-987c-f81273c14dfd" d="M1327.21,220.41l-4.84,6.68-2.55-2.04,4.9-6.78-7.75-2.5,1.07-3.06,7.55,2.45v-8.06h3.26v8.06l7.55-2.45,1.07,3.06-7.75,2.5,4.9,6.78-2.55,2.04-4.84-6.68Z"/>
    <path class="uuid-b0132972-32df-49fc-987c-f81273c14dfd" d="M1365.25,227.14l8.11-20.04h5.61v36.31h-4.18v-11.63c0-7.65.05-13.82.15-18.51-.82,2.24-1.89,5-3.21,8.26l-8.98,21.88h-3.67l-9.03-21.88c-1.33-3.26-2.4-6.02-3.21-8.26.1,4.69.15,10.86.15,18.51v11.63h-4.18v-36.31h5.61l8.42,20.66c1.26,3.09,2.63,6.58,4.13,10.46,2.07-5.51,3.5-9.2,4.28-11.07Z"/>
    <path class="uuid-b0132972-32df-49fc-987c-f81273c14dfd" d="M1403.4,215.56l5.3-8.47h4.84l-13.87,21.73v14.59h-4.28v-14.59l-13.87-21.73h4.9l5.35,8.52c2.31,3.6,4.25,6.73,5.81,9.38,2.18-3.67,4.11-6.82,5.81-9.43Z"/>
    <path class="uuid-b0132972-32df-49fc-987c-f81273c14dfd" d="M1420.38,207.1v32.44h18.26v3.88h-22.54v-36.31h4.28Z"/>
    <path class="uuid-b0132972-32df-49fc-987c-f81273c14dfd" d="M1455.42,228.62v-3.88h15.45v18.67h-3.52l-.92-4.9c-2.69,3.81-6.65,5.71-11.88,5.71s-9.35-1.75-12.44-5.25c-3.16-3.47-4.74-8.04-4.74-13.72s1.56-10.23,4.69-13.77c3.09-3.47,7.28-5.2,12.55-5.2,4.32,0,7.89,1.16,10.71,3.47,2.82,2.31,4.54,5.39,5.15,9.23h-4.44c-.44-2.69-1.73-4.83-3.88-6.43-2.07-1.56-4.59-2.35-7.55-2.35-3.88,0-6.97,1.36-9.28,4.08-2.31,2.72-3.47,6.38-3.47,10.96s1.16,8.25,3.47,10.96c2.31,2.72,5.41,4.08,9.28,4.08,3.43,0,6.36-1.1,8.77-3.31s3.62-5,3.62-8.36h-11.58Z"/>
    <path class="uuid-b0132972-32df-49fc-987c-f81273c14dfd" d="M1481.13,243.41h-5.15v-5.1h5.15v5.1ZM1479.8,233.92h-2.65l-.71-16.83v-10h4.28v10l-.92,16.83Z"/>
    <path class="uuid-b0132972-32df-49fc-987c-f81273c14dfd" d="M1495.71,220.41l-4.84,6.68-2.55-2.04,4.9-6.78-7.75-2.5,1.07-3.06,7.55,2.45v-8.06h3.26v8.06l7.55-2.45,1.07,3.06-7.75,2.5,4.9,6.78-2.55,2.04-4.84-6.68Z"/>
  </g>
  <g>
    <path class="uuid-b0132972-32df-49fc-987c-f81273c14dfd" d="M1866.6,160.9v11.28h-2.28v-14.1l1.17.06c1.76.12,3.27.52,4.53,1.2s2.36,1.83,3.3,3.45l1.56,2.7c.8,1.36,1.58,2.32,2.34,2.89.76.57,1.68.86,2.76.86,1.18,0,2.12-.38,2.83-1.12s1.06-1.79,1.06-3.11c0-2.98-1.53-4.47-4.59-4.47v-2.49c2.18-.02,3.87.59,5.07,1.83s1.8,2.97,1.8,5.19c0,2.02-.57,3.66-1.71,4.92-1.18,1.26-2.67,1.89-4.47,1.89-2.76,0-5.08-1.62-6.96-4.86l-1.32-2.28c-.8-1.32-1.58-2.27-2.33-2.85s-1.67-.91-2.77-.99Z"/>
    <path class="uuid-b0132972-32df-49fc-987c-f81273c14dfd" d="M1866.6,177.34v11.28h-2.28v-14.1l1.17.06c1.76.12,3.27.52,4.53,1.2s2.36,1.83,3.3,3.45l1.56,2.7c.8,1.36,1.58,2.32,2.34,2.89.76.57,1.68.86,2.76.86,1.18,0,2.12-.38,2.83-1.12s1.06-1.79,1.06-3.11c0-2.98-1.53-4.47-4.59-4.47v-2.49c2.18-.02,3.87.59,5.07,1.83s1.8,2.97,1.8,5.19c0,2.02-.57,3.66-1.71,4.92-1.18,1.26-2.67,1.89-4.47,1.89-2.76,0-5.08-1.62-6.96-4.86l-1.32-2.28c-.8-1.32-1.58-2.27-2.33-2.85s-1.67-.91-2.77-.99Z"/>
    <path class="uuid-b0132972-32df-49fc-987c-f81273c14dfd" d="M1871.7,198.82v-8.67h2.16v8.67h-2.16Z"/>
    <path class="uuid-b0132972-32df-49fc-987c-f81273c14dfd" d="M1885.68,204.34v2.04h-21.36v-2.52h15.93v-4.86h1.98l.03.48c.1,1.52.4,2.65.9,3.39.5.74,1.34,1.23,2.52,1.47Z"/>
    <path class="uuid-b0132972-32df-49fc-987c-f81273c14dfd" d="M1885.68,215.05v2.04h-21.36v-2.52h15.93v-4.86h1.98l.03.48c.1,1.52.4,2.65.9,3.39.5.74,1.34,1.23,2.52,1.47Z"/>
    <path class="uuid-b0132972-32df-49fc-987c-f81273c14dfd" d="M1871.7,228.91v-8.67h2.16v8.67h-2.16Z"/>
    <path class="uuid-b0132972-32df-49fc-987c-f81273c14dfd" d="M1885.68,234.43v2.04h-21.36v-2.52h15.93v-4.86h1.98l.03.48c.1,1.52.4,2.65.9,3.39.5.74,1.34,1.23,2.52,1.47Z"/>
    <path class="uuid-b0132972-32df-49fc-987c-f81273c14dfd" d="M1875.78,250.99c-.48,1.24-1.18,2.21-2.12,2.91-.93.7-2.02,1.05-3.29,1.05-2,0-3.59-.71-4.77-2.13-1.18-1.42-1.77-3.29-1.77-5.61s.59-4.19,1.77-5.61c1.18-1.42,2.77-2.13,4.77-2.13,1.26,0,2.36.35,3.29,1.05.93.7,1.64,1.67,2.12,2.91.9-2.06,2.41-3.09,4.53-3.09,1.82,0,3.26.65,4.32,1.95,1.02,1.3,1.53,2.94,1.53,4.92s-.51,3.62-1.53,4.92c-1.06,1.3-2.5,1.95-4.32,1.95-2.12,0-3.63-1.03-4.53-3.09ZM1867.26,243.49c-.76.94-1.14,2.18-1.14,3.72s.38,2.78,1.14,3.72c.74.92,1.78,1.38,3.12,1.38s2.41-.46,3.15-1.38c.74-.92,1.11-2.16,1.11-3.72s-.37-2.8-1.11-3.72c-.74-.92-1.79-1.38-3.15-1.38s-2.38.46-3.12,1.38ZM1882.95,250.36c.62-.8.93-1.85.93-3.15s-.31-2.35-.93-3.15c-.64-.82-1.52-1.23-2.64-1.23s-2,.41-2.64,1.23c-.62.8-.93,1.85-.93,3.15s.31,2.35.93,3.15c.64.82,1.52,1.23,2.64,1.23s2-.41,2.64-1.23Z"/>
  </g>
</svg>