<?xml version="1.0" encoding="UTF-8"?>
<svg id="uuid-940f17c0-d86f-423b-859e-0c852a71b599" data-name="Layer 1" xmlns="http://www.w3.org/2000/svg" viewBox="0 0 1920 800">
  <defs>
    <style>
      .uuid-ef4b8ed1-7c51-4454-bc81-d9f2456736bd {
        fill: #fff;
        stroke-width: 0px;
      }
    </style>
  </defs>
  <path class="uuid-ef4b8ed1-7c51-4454-bc81-d9f2456736bd" d="M1193.86,237.9h-101.58l-37.18,37.18v267.55l33.86,35.85,103.57-.66,37.84-37.84v-265.56l-36.51-36.51ZM1171.29,520.72h-57.1v-225.06h57.1v225.06Z"/>
  <path class="uuid-ef4b8ed1-7c51-4454-bc81-d9f2456736bd" d="M1806.75,237.9h-101.58l-37.18,37.18v267.55l33.86,35.85,103.57-.66,37.84-37.84v-265.56l-36.51-36.51ZM1784.18,520.72h-57.1v-225.06h57.1v225.06Z"/>
  <polygon class="uuid-ef4b8ed1-7c51-4454-bc81-d9f2456736bd" points="1442.6 342.68 1442.6 274.41 1406.09 237.9 1304.51 237.9 1267.33 275.08 1267.33 542.63 1301.19 578.48 1404.76 577.81 1442.6 539.97 1442.6 473.69 1383.51 473.69 1383.51 520.72 1326.42 520.72 1326.42 295.66 1383.51 295.66 1383.51 342.68 1442.6 342.68"/>
  <polygon class="uuid-ef4b8ed1-7c51-4454-bc81-d9f2456736bd" points="1639.12 342.68 1639.12 274.41 1602.6 237.9 1501.02 237.9 1463.85 275.08 1463.85 542.63 1497.7 578.48 1601.27 577.81 1639.12 539.97 1639.12 473.69 1580.03 473.69 1580.03 520.72 1522.93 520.72 1522.93 295.66 1580.03 295.66 1580.03 342.68 1639.12 342.68"/>
  <polygon class="uuid-ef4b8ed1-7c51-4454-bc81-d9f2456736bd" points="1035.51 238.99 1035.51 294.64 1013.28 294.64 1013.28 576.15 958.39 576.15 889.56 404.42 889.56 521.26 912.38 521.26 912.38 577.38 809.05 577.38 809.05 521.26 832.48 521.26 832.48 295.08 809.05 295.08 809.05 238.99 881.59 238.99 958.39 424.58 958.39 294.64 936.16 294.64 936.16 238.99 1035.51 238.99"/>
  <path class="uuid-ef4b8ed1-7c51-4454-bc81-d9f2456736bd" d="M76.74,460.75l537.46-132.82c23.57-5.83,40.13-26.98,40.13-51.26v-114.01L123.86,289.48c-27.63,6.61-47.12,31.31-47.12,59.72v111.55Z"/>
  <path class="uuid-ef4b8ed1-7c51-4454-bc81-d9f2456736bd" d="M76.74,637.34l537.46-132.82c23.57-5.83,40.13-26.98,40.13-51.26v-114.01L123.86,466.08c-27.63,6.61-47.12,31.31-47.12,59.72v111.55Z"/>
</svg>