<?xml version="1.0" encoding="UTF-8"?>
<svg id="uuid-f3b63b90-d9af-4578-8ab5-5e8fba1a1a0e" data-name="Layer 1" xmlns="http://www.w3.org/2000/svg" viewBox="0 0 840 1920">
  <defs>
    <style>
      .uuid-e5eee9e8-8f9d-4ea1-afc6-9d8b67ec7cd8 {
        fill: #60a4ff;
      }

      .uuid-e5eee9e8-8f9d-4ea1-afc6-9d8b67ec7cd8, .uuid-31e69fc8-5517-4e37-abf4-72fddaef2247 {
        stroke-width: 0px;
      }

      .uuid-82231609-6add-4b96-b820-8950d43e79b4 {
        isolation: isolate;
      }

      .uuid-31e69fc8-5517-4e37-abf4-72fddaef2247 {
        fill: #fff;
      }
    </style>
  </defs>
  <rect id="uuid-f5c3d8b8-1658-419a-a21c-d6f96bb3a5f9" data-name=" 402797884 990157758746744 3853317945329429929 n" class="uuid-e5eee9e8-8f9d-4ea1-afc6-9d8b67ec7cd8" width="840" height="1920"/>
  <path class="uuid-31e69fc8-5517-4e37-abf4-72fddaef2247" d="M131.67,1772.59h-19.45l-7.12,7.12v51.22l6.48,6.86,19.83-.13,7.24-7.24v-50.84l-6.99-6.99ZM127.35,1826.74h-10.93v-43.09h10.93v43.09Z"/>
  <path class="uuid-31e69fc8-5517-4e37-abf4-72fddaef2247" d="M249.01,1772.59h-19.45l-7.12,7.12v51.22l6.48,6.86,19.83-.13,7.24-7.24v-50.84l-6.99-6.99ZM244.69,1826.74h-10.93v-43.09h10.93v43.09Z"/>
  <polygon class="uuid-31e69fc8-5517-4e37-abf4-72fddaef2247" points="179.29 1792.65 179.29 1779.58 172.3 1772.59 152.86 1772.59 145.74 1779.71 145.74 1830.93 152.22 1837.8 172.05 1837.67 179.29 1830.43 179.29 1817.74 167.98 1817.74 167.98 1826.74 157.05 1826.74 157.05 1783.65 167.98 1783.65 167.98 1792.65 179.29 1792.65"/>
  <polygon class="uuid-31e69fc8-5517-4e37-abf4-72fddaef2247" points="216.92 1792.65 216.92 1779.58 209.92 1772.59 190.48 1772.59 183.36 1779.71 183.36 1830.93 189.84 1837.8 209.67 1837.67 216.92 1830.43 216.92 1817.74 205.6 1817.74 205.6 1826.74 194.67 1826.74 194.67 1783.65 205.6 1783.65 205.6 1792.65 216.92 1792.65"/>
  <polygon class="uuid-31e69fc8-5517-4e37-abf4-72fddaef2247" points="101.36 1772.8 101.36 1783.46 97.1 1783.46 97.1 1837.35 86.59 1837.35 73.41 1804.47 73.41 1826.84 77.78 1826.84 77.78 1837.59 58 1837.59 58 1826.84 62.48 1826.84 62.48 1783.54 58 1783.54 58 1772.8 71.89 1772.8 86.59 1808.33 86.59 1783.46 82.34 1783.46 82.34 1772.8 101.36 1772.8"/>
  <path class="uuid-31e69fc8-5517-4e37-abf4-72fddaef2247" d="M107.16,1735.18l100.92-24.94c4.43-1.09,7.54-5.07,7.54-9.62v-21.41l-99.61,23.81c-5.19,1.24-8.85,5.88-8.85,11.21v20.95Z"/>
  <path class="uuid-31e69fc8-5517-4e37-abf4-72fddaef2247" d="M107.16,1768.34l100.92-24.94c4.43-1.09,7.54-5.07,7.54-9.62v-21.41l-99.61,23.81c-5.19,1.24-8.85,5.88-8.85,11.21v20.95Z"/>
  <g id="uuid-f3fe7118-be55-4b00-9b1a-a516aa192437" data-name="NEXT BEST DRINK " class="uuid-82231609-6add-4b96-b820-8950d43e79b4">
    <g class="uuid-82231609-6add-4b96-b820-8950d43e79b4">
      <path class="uuid-31e69fc8-5517-4e37-abf4-72fddaef2247" d="M421.4,75.4v-12h4.15v35.6h-5.1l-11.8-18.35c-3.4-5.4-5.87-9.42-7.4-12.05.1,4.67.15,10.8.15,18.4v12h-4.15v-35.6h5.1l11.8,18.35c3.4,5.4,5.87,9.42,7.4,12.05-.1-4.67-.15-10.8-.15-18.4Z"/>
      <path class="uuid-31e69fc8-5517-4e37-abf4-72fddaef2247" d="M455.3,63.4v3.8h-20.55v11.35h18.55v3.8h-18.55v12.85h20.35v3.8h-24.55v-35.6h24.75Z"/>
      <path class="uuid-31e69fc8-5517-4e37-abf4-72fddaef2247" d="M485.05,63.4l-12.05,17.2,12.75,18.4h-4.9l-5.3-7.7c-.8-1.13-2.48-3.6-5.05-7.4-.97,1.43-2.67,3.9-5.1,7.4l-5.4,7.7h-4.7l12.85-18.25-12.15-17.35h4.9l4.85,7.05c2.1,3,3.7,5.37,4.8,7.1,1.03-1.57,2.67-3.95,4.9-7.15l4.9-7h4.7Z"/>
      <path class="uuid-31e69fc8-5517-4e37-abf4-72fddaef2247" d="M484,63.4h28.55v3.8h-12.1v31.8h-4.35v-31.8h-12.1v-3.8Z"/>
      <path class="uuid-31e69fc8-5517-4e37-abf4-72fddaef2247" d="M544.25,80.5c4.1,1.57,6.15,4.4,6.15,8.5,0,3.1-1.01,5.54-3.02,7.33-2.02,1.78-4.86,2.67-8.53,2.67h-15.55v-35.6h14.8c3.43,0,6.1.86,8,2.57,1.9,1.72,2.85,3.96,2.85,6.73,0,3.57-1.57,6.17-4.7,7.8ZM537.8,67.2h-10.3v11.75h10.3c2.3,0,4.05-.53,5.25-1.6,1.2-1.07,1.8-2.57,1.8-4.5,0-1.77-.61-3.15-1.83-4.15s-2.96-1.5-5.22-1.5ZM527.5,95.2h11.15c2.47,0,4.34-.53,5.62-1.6,1.28-1.07,1.93-2.6,1.93-4.6,0-4.2-2.53-6.3-7.6-6.3h-11.1v12.5Z"/>
      <path class="uuid-31e69fc8-5517-4e37-abf4-72fddaef2247" d="M578.15,63.4v3.8h-20.55v11.35h18.55v3.8h-18.55v12.85h20.35v3.8h-24.55v-35.6h24.75Z"/>
      <path class="uuid-31e69fc8-5517-4e37-abf4-72fddaef2247" d="M593.95,99.8c-4.63,0-8.25-1.05-10.85-3.15-2.6-2.1-3.92-5.23-3.95-9.4h4.35c.1,5.83,3.58,8.75,10.45,8.75,2.9,0,5.12-.57,6.67-1.7,1.55-1.13,2.33-2.78,2.33-4.95,0-1.7-.64-3.02-1.92-3.97s-3.53-1.78-6.72-2.47l-3.15-.7c-3.6-.83-6.3-2.04-8.1-3.62-1.8-1.58-2.7-3.81-2.7-6.67s1.1-5.09,3.3-6.78c2.2-1.68,5.15-2.53,8.85-2.53,2.5,0,4.68.3,6.53.9s3.29,1.44,4.33,2.53c1.03,1.08,1.79,2.26,2.27,3.52.48,1.27.74,2.67.78,4.2h-4.3c-.2-2.53-1.03-4.39-2.48-5.58-1.45-1.18-3.82-1.77-7.12-1.77-2.5,0-4.42.48-5.77,1.45-1.35.97-2.03,2.32-2.03,4.05s.58,3.08,1.75,4.05c1.13.97,3.33,1.82,6.6,2.55l3.15.7c3.93.87,6.77,2.11,8.5,3.72,1.73,1.62,2.6,3.76,2.6,6.42,0,3.23-1.18,5.78-3.55,7.65-2.37,1.87-5.63,2.8-9.8,2.8Z"/>
      <path class="uuid-31e69fc8-5517-4e37-abf4-72fddaef2247" d="M605.55,63.4h28.55v3.8h-12.1v31.8h-4.35v-31.8h-12.1v-3.8Z"/>
      <path class="uuid-31e69fc8-5517-4e37-abf4-72fddaef2247" d="M644.85,63.4h12c5.4,0,9.67,1.57,12.8,4.7,3.1,3.13,4.65,7.5,4.65,13.1s-1.55,9.88-4.65,13.05c-3.17,3.17-7.43,4.75-12.8,4.75h-12v-35.6ZM649.05,95.2h7.8c4.2,0,7.42-1.23,9.67-3.7s3.38-5.9,3.38-10.3-1.12-7.83-3.38-10.3-5.47-3.7-9.67-3.7h-7.8v28Z"/>
      <path class="uuid-31e69fc8-5517-4e37-abf4-72fddaef2247" d="M703.95,88.7l.35,5.75c.17,2,.6,3.52,1.3,4.55h-4.35c-.73-1.07-1.12-2.65-1.15-4.75l-.15-3.8c-.1-2.4-.63-4.11-1.6-5.12s-2.55-1.53-4.75-1.53h-11.6v15.2h-4.2v-35.6h15.05c3.67,0,6.59.85,8.78,2.55,2.18,1.7,3.27,4.08,3.27,7.15,0,2.17-.52,3.99-1.58,5.48-1.05,1.48-2.47,2.52-4.28,3.12,3,.93,4.63,3.27,4.9,7ZM682,80h11.35c2.23,0,3.99-.58,5.28-1.72,1.28-1.15,1.92-2.79,1.92-4.93s-.67-3.57-2.02-4.6-3.24-1.55-5.67-1.55h-10.85v12.8Z"/>
      <path class="uuid-31e69fc8-5517-4e37-abf4-72fddaef2247" d="M712.8,99h-4.2v-35.6h4.2v35.6Z"/>
      <path class="uuid-31e69fc8-5517-4e37-abf4-72fddaef2247" d="M741.95,75.4v-12h4.15v35.6h-5.1l-11.8-18.35c-3.4-5.4-5.87-9.42-7.4-12.05.1,4.67.15,10.8.15,18.4v12h-4.15v-35.6h5.1l11.8,18.35c3.4,5.4,5.87,9.42,7.4,12.05-.1-4.67-.15-10.8-.15-18.4Z"/>
      <path class="uuid-31e69fc8-5517-4e37-abf4-72fddaef2247" d="M774.75,63.4h5.55l-15.2,14.5,15.2,21.1h-5.15l-13.1-18.3-6.75,6.45v11.85h-4.2v-35.6h4.2v18.7l19.45-18.7Z"/>
    </g>
  </g>
  <g id="uuid-71d0888c-4101-478d-a411-28af5c8e873b" data-name="NOCCO products are carbonated sugar-free and low calorie. " class="uuid-82231609-6add-4b96-b820-8950d43e79b4">
    <g class="uuid-82231609-6add-4b96-b820-8950d43e79b4">
      <path class="uuid-31e69fc8-5517-4e37-abf4-72fddaef2247" d="M115.8,459.8v-24h8.3v71.2h-10.2l-23.6-36.7c-6.8-10.8-11.73-18.83-14.8-24.1.2,9.33.3,21.6.3,36.8v24h-8.3v-71.2h10.2l23.6,36.7c6.8,10.8,11.73,18.83,14.8,24.1-.2-9.33-.3-21.6-.3-36.8Z"/>
      <path class="uuid-31e69fc8-5517-4e37-abf4-72fddaef2247" d="M190,498.3c-6.27,6.87-14.53,10.3-24.8,10.3s-18.5-3.43-24.7-10.3c-6.27-6.73-9.4-15.7-9.4-26.9s3.13-20.13,9.4-27c6.2-6.8,14.43-10.2,24.7-10.2s18.53,3.4,24.8,10.2c6.2,6.93,9.3,15.93,9.3,27s-3.1,20.1-9.3,26.9ZM146.8,492.9c4.6,5.33,10.73,8,18.4,8s13.8-2.67,18.4-8c4.6-5.27,6.9-12.43,6.9-21.5s-2.3-16.23-6.9-21.5c-4.6-5.33-10.73-8-18.4-8s-13.8,2.67-18.4,8c-4.6,5.27-6.9,12.43-6.9,21.5s2.3,16.23,6.9,21.5Z"/>
      <path class="uuid-31e69fc8-5517-4e37-abf4-72fddaef2247" d="M236.2,508.6c-9.67,0-17.57-3.37-23.7-10.1-6.13-6.73-9.2-15.77-9.2-27.1s3.07-20.37,9.2-27.1c6.13-6.73,14.03-10.1,23.7-10.1,7.67,0,14.2,2.08,19.6,6.25,5.4,4.17,8.97,10.25,10.7,18.25h-8.5c-3-11.2-10.27-16.8-21.8-16.8-7.27,0-13.1,2.6-17.5,7.8-4.4,5.27-6.6,12.5-6.6,21.7s2.2,16.4,6.6,21.6c4.4,5.27,10.23,7.9,17.5,7.9,5.47,0,10.33-1.7,14.6-5.1,4.2-3.27,6.77-8.17,7.7-14.7h8.4c-.93,8.87-4.3,15.63-10.1,20.3-5.87,4.8-12.73,7.2-20.6,7.2Z"/>
      <path class="uuid-31e69fc8-5517-4e37-abf4-72fddaef2247" d="M303.3,508.6c-9.67,0-17.57-3.37-23.7-10.1-6.13-6.73-9.2-15.77-9.2-27.1s3.07-20.37,9.2-27.1c6.13-6.73,14.03-10.1,23.7-10.1,7.67,0,14.2,2.08,19.6,6.25,5.4,4.17,8.97,10.25,10.7,18.25h-8.5c-3-11.2-10.27-16.8-21.8-16.8-7.27,0-13.1,2.6-17.5,7.8-4.4,5.27-6.6,12.5-6.6,21.7s2.2,16.4,6.6,21.6c4.4,5.27,10.23,7.9,17.5,7.9,5.47,0,10.33-1.7,14.6-5.1,4.2-3.27,6.77-8.17,7.7-14.7h8.4c-.93,8.87-4.3,15.63-10.1,20.3-5.87,4.8-12.73,7.2-20.6,7.2Z"/>
      <path class="uuid-31e69fc8-5517-4e37-abf4-72fddaef2247" d="M396.4,498.3c-6.27,6.87-14.53,10.3-24.8,10.3s-18.5-3.43-24.7-10.3c-6.27-6.73-9.4-15.7-9.4-26.9s3.13-20.13,9.4-27c6.2-6.8,14.43-10.2,24.7-10.2s18.53,3.4,24.8,10.2c6.2,6.93,9.3,15.93,9.3,27s-3.1,20.1-9.3,26.9ZM353.2,492.9c4.6,5.33,10.73,8,18.4,8s13.8-2.67,18.4-8c4.6-5.27,6.9-12.43,6.9-21.5s-2.3-16.23-6.9-21.5c-4.6-5.33-10.73-8-18.4-8s-13.8,2.67-18.4,8c-4.6,5.27-6.9,12.43-6.9,21.5s2.3,16.23,6.9,21.5Z"/>
      <path class="uuid-31e69fc8-5517-4e37-abf4-72fddaef2247" d="M453.5,454.2c7.27,0,13.1,2.43,17.5,7.3,4.33,4.93,6.5,11.5,6.5,19.7s-2.17,14.67-6.5,19.6c-4.4,4.93-10.23,7.4-17.5,7.4s-13.17-2.87-17.3-8.6v27h-8v-71.2h7.6v8c4.13-6.13,10.03-9.2,17.7-9.2ZM452.5,501c5,0,9.02-1.82,12.05-5.45,3.03-3.63,4.55-8.55,4.55-14.75s-1.48-10.82-4.45-14.25c-2.97-3.43-7.02-5.15-12.15-5.15s-9.1,1.73-12.1,5.2c-3,3.47-4.5,8.33-4.5,14.6s1.5,11.03,4.5,14.5c3,3.53,7.03,5.3,12.1,5.3Z"/>
      <path class="uuid-31e69fc8-5517-4e37-abf4-72fddaef2247" d="M508.2,454.6c1.33,0,2.23.04,2.7.1v7.7h-2c-5.33,0-9.48,1.32-12.45,3.95-2.97,2.63-4.45,6.38-4.45,11.25v29.4h-8v-51.6h7.6v9.1c3.47-6.6,9-9.9,16.6-9.9Z"/>
      <path class="uuid-31e69fc8-5517-4e37-abf4-72fddaef2247" d="M552.9,500.8c-4.73,4.93-10.73,7.4-18,7.4s-13.27-2.47-18-7.4c-4.67-4.87-7-11.4-7-19.6s2.33-14.73,7-19.6c4.73-4.93,10.73-7.4,18-7.4s13.27,2.47,18,7.4c4.67,4.87,7,11.4,7,19.6s-2.33,14.73-7,19.6ZM522.79,495.7c3,3.53,7.03,5.3,12.1,5.3s9.1-1.77,12.1-5.3c3-3.47,4.5-8.3,4.5-14.5s-1.5-11.13-4.5-14.6c-3-3.46-7.04-5.2-12.1-5.2s-9.1,1.73-12.1,5.2c-3,3.47-4.5,8.33-4.5,14.6s1.5,11.03,4.5,14.5Z"/>
      <path class="uuid-31e69fc8-5517-4e37-abf4-72fddaef2247" d="M605.19,462.8v-27h8v71.2h-7.6v-8c-4.13,6.13-10.03,9.2-17.7,9.2-7.27,0-13.07-2.47-17.4-7.4-4.4-4.93-6.6-11.47-6.6-19.6s2.2-14.83,6.6-19.7c4.27-4.87,10.07-7.3,17.4-7.3s13.17,2.87,17.3,8.6ZM576.79,495.9c3,3.4,7.03,5.1,12.1,5.1s9.1-1.77,12.1-5.3c3-3.47,4.5-8.3,4.5-14.5s-1.5-10.97-4.5-14.5c-3-3.53-7.03-5.3-12.1-5.3s-9.02,1.82-12.05,5.45c-3.03,3.63-4.55,8.55-4.55,14.75s1.5,10.9,4.5,14.3Z"/>
      <path class="uuid-31e69fc8-5517-4e37-abf4-72fddaef2247" d="M656.19,484.6v-29.2h8v51.6h-7.6v-7.7c-3.93,5.93-9.33,8.9-16.2,8.9-5.73,0-10.2-1.57-13.4-4.7-3.2-3.13-4.8-7.53-4.8-13.2v-34.9h8v34.1c0,7.67,3.93,11.5,11.8,11.5,3.73,0,7.03-1.4,9.9-4.2,2.87-2.8,4.3-6.87,4.3-12.2Z"/>
      <path class="uuid-31e69fc8-5517-4e37-abf4-72fddaef2247" d="M694.59,508.2c-7.13,0-12.9-2.47-17.3-7.4-4.4-4.93-6.6-11.47-6.6-19.6s2.2-14.83,6.6-19.7c4.27-4.87,10.03-7.3,17.3-7.3,6.13,0,11.17,1.67,15.1,5,3.93,3.33,6.3,7.9,7.1,13.7h-8.3c-.6-3.67-2.18-6.5-4.75-8.5-2.57-2-5.62-3-9.15-3-4.73,0-8.5,1.72-11.3,5.15-2.8,3.43-4.2,8.32-4.2,14.65s1.42,11.13,4.25,14.6c2.83,3.47,6.58,5.2,11.25,5.2,3.53,0,6.6-1.03,9.2-3.1s4.2-4.93,4.8-8.6h8.2c-.87,5.8-3.32,10.4-7.35,13.8-4.03,3.4-8.98,5.1-14.85,5.1Z"/>
      <path class="uuid-31e69fc8-5517-4e37-abf4-72fddaef2247" d="M742.89,455.4v7h-10.6v33.5c0,2.93,1.96,4.4,5.9,4.4h4.7v6.7c-2.2.2-4.1.3-5.7.3-8.6,0-12.9-3.57-12.9-10.7v-34.2h-8.5v-7h8.5v-14.6h8v14.6h10.6Z"/>
      <path class="uuid-31e69fc8-5517-4e37-abf4-72fddaef2247" d="M766.09,508.2c-13.8,0-21.1-5.87-21.9-17.6h8.1c.46,3.87,1.75,6.62,3.85,8.25,2.1,1.63,5.42,2.45,9.95,2.45,8.27,0,12.4-2.67,12.4-8,0-2.33-.85-4.1-2.55-5.3s-4.78-2.23-9.25-3.1l-4.8-.9c-10.73-2-16.1-7.07-16.1-15.2,0-4.47,1.68-8.02,5.05-10.65,3.37-2.63,7.95-3.95,13.75-3.95,13.67,0,20.67,5.7,21,17.1h-8c-.2-3.73-1.33-6.37-3.4-7.9-2.07-1.53-5.27-2.3-9.6-2.3-3.47,0-6.13.67-8,2-1.87,1.33-2.8,3.2-2.8,5.6,0,2.27.8,3.97,2.4,5.1,1.6,1.13,4.27,2.1,8,2.9l4.6.9c6.33,1.27,10.88,3.07,13.65,5.4,2.77,2.33,4.15,5.6,4.15,9.8,0,4.87-1.82,8.65-5.45,11.35-3.63,2.7-8.65,4.05-15.05,4.05Z"/>
    </g>
    <g class="uuid-82231609-6add-4b96-b820-8950d43e79b4">
      <path class="uuid-31e69fc8-5517-4e37-abf4-72fddaef2247" d="M109.2,600.5h2.9v6.5c-1.33.2-2.8.3-4.4.3-5.4,0-8.3-2.47-8.7-7.4-3.6,5.53-9.2,8.3-16.8,8.3-5.67,0-10.12-1.32-13.35-3.95-3.23-2.63-4.85-6.35-4.85-11.15,0-9.33,6.37-14.67,19.1-16l7.4-.8c5.4-.6,8.1-2.97,8.1-7.1,0-2.87-.88-4.93-2.65-6.2-1.77-1.27-4.75-1.9-8.95-1.9-4.47,0-7.68.75-9.65,2.25-1.97,1.5-3.08,4.15-3.35,7.95h-8c.67-11.4,7.67-17.1,21-17.1s19.4,5,19.4,15v28.8c0,1.67.93,2.5,2.8,2.5ZM82.6,601.4c4.27,0,8-1.3,11.2-3.9,3.2-2.53,4.8-6.17,4.8-10.9v-6.1c-1.47,1.13-3.73,1.87-6.8,2.2l-7.5.9c-4.33.54-7.42,1.54-9.25,3-1.83,1.47-2.75,3.57-2.75,6.3s.87,4.75,2.6,6.25c1.73,1.5,4.3,2.25,7.7,2.25Z"/>
      <path class="uuid-31e69fc8-5517-4e37-abf4-72fddaef2247" d="M140.3,554.6c1.33,0,2.23.04,2.7.1v7.7h-2c-5.33,0-9.48,1.32-12.45,3.95-2.97,2.63-4.45,6.38-4.45,11.25v29.4h-8v-51.6h7.6v9.1c3.47-6.6,9-9.9,16.6-9.9Z"/>
      <path class="uuid-31e69fc8-5517-4e37-abf4-72fddaef2247" d="M189.5,581.2v2.8h-39.2c.4,5.6,1.97,9.82,4.7,12.65,2.73,2.83,6.47,4.25,11.2,4.25,7.13,0,11.7-3.2,13.7-9.6h8.3c-1.4,5.2-4,9.32-7.8,12.35-3.8,3.03-8.6,4.55-14.4,4.55-7.13,0-12.9-2.43-17.3-7.3-4.47-4.87-6.7-11.43-6.7-19.7s2.2-14.67,6.6-19.6c4.33-4.93,10.07-7.4,17.2-7.4s13.2,2.57,17.4,7.7c4.2,5.13,6.3,11.57,6.3,19.3ZM165.8,561.5c-4.2,0-7.63,1.32-10.3,3.95-2.67,2.63-4.33,6.42-5,11.35h30.4c-.4-4.53-1.93-8.22-4.6-11.05-2.67-2.83-6.17-4.25-10.5-4.25Z"/>
      <path class="uuid-31e69fc8-5517-4e37-abf4-72fddaef2247" d="M233.4,608.2c-7.13,0-12.9-2.47-17.3-7.4-4.4-4.93-6.6-11.47-6.6-19.6s2.2-14.83,6.6-19.7c4.27-4.87,10.03-7.3,17.3-7.3,6.13,0,11.17,1.67,15.1,5,3.93,3.33,6.3,7.9,7.1,13.7h-8.3c-.6-3.67-2.18-6.5-4.75-8.5-2.57-2-5.62-3-9.15-3-4.73,0-8.5,1.72-11.3,5.15-2.8,3.43-4.2,8.32-4.2,14.65s1.42,11.13,4.25,14.6c2.83,3.47,6.58,5.2,11.25,5.2,3.53,0,6.6-1.03,9.2-3.1s4.2-4.93,4.8-8.6h8.2c-.87,5.8-3.32,10.4-7.35,13.8-4.03,3.4-8.98,5.1-14.85,5.1Z"/>
      <path class="uuid-31e69fc8-5517-4e37-abf4-72fddaef2247" d="M303.3,600.5h2.9v6.5c-1.33.2-2.8.3-4.4.3-5.4,0-8.3-2.47-8.7-7.4-3.6,5.53-9.2,8.3-16.8,8.3-5.67,0-10.12-1.32-13.35-3.95-3.23-2.63-4.85-6.35-4.85-11.15,0-9.33,6.37-14.67,19.1-16l7.4-.8c5.4-.6,8.1-2.97,8.1-7.1,0-2.87-.88-4.93-2.65-6.2-1.77-1.27-4.75-1.9-8.95-1.9-4.47,0-7.68.75-9.65,2.25-1.97,1.5-3.08,4.15-3.35,7.95h-8c.67-11.4,7.67-17.1,21-17.1s19.4,5,19.4,15v28.8c0,1.67.93,2.5,2.8,2.5ZM276.7,601.4c4.27,0,8-1.3,11.2-3.9,3.2-2.53,4.8-6.17,4.8-10.9v-6.1c-1.47,1.13-3.73,1.87-6.8,2.2l-7.5.9c-4.33.54-7.42,1.54-9.25,3-1.83,1.47-2.75,3.57-2.75,6.3s.87,4.75,2.6,6.25c1.73,1.5,4.3,2.25,7.7,2.25Z"/>
      <path class="uuid-31e69fc8-5517-4e37-abf4-72fddaef2247" d="M334.4,554.6c1.33,0,2.23.04,2.7.1v7.7h-2c-5.33,0-9.48,1.32-12.45,3.95-2.97,2.63-4.45,6.38-4.45,11.25v29.4h-8v-51.6h7.6v9.1c3.47-6.6,9-9.9,16.6-9.9Z"/>
      <path class="uuid-31e69fc8-5517-4e37-abf4-72fddaef2247" d="M366.9,554.2c7.27,0,13.1,2.43,17.5,7.3,4.33,4.93,6.5,11.5,6.5,19.7s-2.17,14.67-6.5,19.6c-4.4,4.93-10.23,7.4-17.5,7.4-7.67,0-13.57-3.07-17.7-9.2v8h-7.6v-71.2h8v27c4.13-5.73,9.9-8.6,17.3-8.6ZM365.9,601c5,0,9.02-1.82,12.05-5.45,3.03-3.63,4.55-8.55,4.55-14.75s-1.48-10.82-4.45-14.25c-2.97-3.43-7.02-5.15-12.15-5.15s-9.1,1.73-12.1,5.2c-3,3.47-4.5,8.33-4.5,14.6s1.5,11.03,4.5,14.5c3,3.53,7.03,5.3,12.1,5.3Z"/>
      <path class="uuid-31e69fc8-5517-4e37-abf4-72fddaef2247" d="M437.9,600.8c-4.73,4.93-10.73,7.4-18,7.4s-13.27-2.47-18-7.4c-4.67-4.87-7-11.4-7-19.6s2.33-14.73,7-19.6c4.73-4.93,10.73-7.4,18-7.4s13.27,2.47,18,7.4c4.67,4.87,7,11.4,7,19.6s-2.33,14.73-7,19.6ZM407.8,595.7c3,3.53,7.03,5.3,12.1,5.3s9.1-1.77,12.1-5.3c3-3.47,4.5-8.3,4.5-14.5s-1.5-11.13-4.5-14.6c-3-3.46-7.04-5.2-12.1-5.2s-9.1,1.73-12.1,5.2c-3,3.47-4.5,8.33-4.5,14.6s1.5,11.03,4.5,14.5Z"/>
      <path class="uuid-31e69fc8-5517-4e37-abf4-72fddaef2247" d="M475.2,554.2c5.73,0,10.2,1.57,13.4,4.7,3.2,3.13,4.8,7.53,4.8,13.2v34.9h-8v-34.1c0-7.67-3.93-11.5-11.8-11.5-3.73,0-7.04,1.4-9.9,4.2-2.87,2.8-4.3,6.87-4.3,12.2v29.2h-8v-51.6h7.6v7.7c3.93-5.93,9.33-8.9,16.2-8.9Z"/>
      <path class="uuid-31e69fc8-5517-4e37-abf4-72fddaef2247" d="M544.59,600.5h2.9v6.5c-1.33.2-2.8.3-4.4.3-5.4,0-8.3-2.47-8.7-7.4-3.6,5.53-9.2,8.3-16.8,8.3-5.67,0-10.12-1.32-13.35-3.95-3.23-2.63-4.85-6.35-4.85-11.15,0-9.33,6.37-14.67,19.1-16l7.4-.8c5.4-.6,8.1-2.97,8.1-7.1,0-2.87-.88-4.93-2.65-6.2-1.77-1.27-4.75-1.9-8.95-1.9-4.47,0-7.68.75-9.65,2.25-1.97,1.5-3.08,4.15-3.35,7.95h-8c.67-11.4,7.67-17.1,21-17.1s19.4,5,19.4,15v28.8c0,1.67.93,2.5,2.8,2.5ZM517.99,601.4c4.27,0,8-1.3,11.2-3.9,3.2-2.53,4.8-6.17,4.8-10.9v-6.1c-1.47,1.13-3.73,1.87-6.8,2.2l-7.5.9c-4.33.54-7.42,1.54-9.25,3-1.83,1.47-2.75,3.57-2.75,6.3s.87,4.75,2.6,6.25c1.73,1.5,4.3,2.25,7.7,2.25Z"/>
      <path class="uuid-31e69fc8-5517-4e37-abf4-72fddaef2247" d="M572.1,555.4v7h-10.6v33.5c0,2.93,1.97,4.4,5.9,4.4h4.7v6.7c-2.2.2-4.1.3-5.7.3-8.6,0-12.9-3.57-12.9-10.7v-34.2h-8.5v-7h8.5v-14.6h8v14.6h10.6Z"/>
      <path class="uuid-31e69fc8-5517-4e37-abf4-72fddaef2247" d="M621.59,581.2v2.8h-39.2c.4,5.6,1.97,9.82,4.7,12.65,2.73,2.83,6.47,4.25,11.2,4.25,7.13,0,11.7-3.2,13.7-9.6h8.3c-1.4,5.2-4,9.32-7.8,12.35-3.8,3.03-8.6,4.55-14.4,4.55-7.13,0-12.9-2.43-17.3-7.3-4.47-4.87-6.7-11.43-6.7-19.7s2.2-14.67,6.6-19.6c4.33-4.93,10.06-7.4,17.2-7.4s13.2,2.57,17.4,7.7c4.2,5.13,6.3,11.57,6.3,19.3ZM597.89,561.5c-4.2,0-7.63,1.32-10.3,3.95-2.67,2.63-4.33,6.42-5,11.35h30.4c-.4-4.53-1.93-8.22-4.6-11.05-2.67-2.83-6.17-4.25-10.5-4.25Z"/>
      <path class="uuid-31e69fc8-5517-4e37-abf4-72fddaef2247" d="M666.89,562.8v-27h8v71.2h-7.6v-8c-4.13,6.13-10.04,9.2-17.7,9.2-7.27,0-13.07-2.47-17.4-7.4-4.4-4.93-6.6-11.47-6.6-19.6s2.2-14.83,6.6-19.7c4.27-4.87,10.06-7.3,17.4-7.3s13.17,2.87,17.3,8.6ZM638.49,595.9c3,3.4,7.03,5.1,12.1,5.1s9.1-1.77,12.1-5.3c3-3.47,4.5-8.3,4.5-14.5s-1.5-10.97-4.5-14.5c-3-3.53-7.04-5.3-12.1-5.3s-9.02,1.82-12.05,5.45c-3.04,3.63-4.55,8.55-4.55,14.75s1.5,10.9,4.5,14.3Z"/>
      <path class="uuid-31e69fc8-5517-4e37-abf4-72fddaef2247" d="M682.39,607v-10h10.1v10.9c0,8-3.03,12.3-9.1,12.9l-1,.1v-5.4l.7-.1c2.47-.27,3.7-2.54,3.7-6.8v-1.6h-4.4Z"/>
    </g>
    <g class="uuid-82231609-6add-4b96-b820-8950d43e79b4">
      <path class="uuid-31e69fc8-5517-4e37-abf4-72fddaef2247" d="M85.2,708.2c-13.8,0-21.1-5.87-21.9-17.6h8.1c.47,3.87,1.75,6.62,3.85,8.25,2.1,1.63,5.42,2.45,9.95,2.45,8.27,0,12.4-2.67,12.4-8,0-2.33-.85-4.1-2.55-5.3-1.7-1.2-4.78-2.23-9.25-3.1l-4.8-.9c-10.73-2-16.1-7.07-16.1-15.2,0-4.47,1.68-8.02,5.05-10.65,3.37-2.63,7.95-3.95,13.75-3.95,13.67,0,20.67,5.7,21,17.1h-8c-.2-3.73-1.33-6.37-3.4-7.9-2.07-1.53-5.27-2.3-9.6-2.3-3.47,0-6.13.67-8,2-1.87,1.33-2.8,3.2-2.8,5.6,0,2.27.8,3.97,2.4,5.1,1.6,1.13,4.27,2.1,8,2.9l4.6.9c6.33,1.27,10.88,3.07,13.65,5.4,2.77,2.33,4.15,5.6,4.15,9.8,0,4.87-1.82,8.65-5.45,11.35-3.63,2.7-8.65,4.05-15.05,4.05Z"/>
      <path class="uuid-31e69fc8-5517-4e37-abf4-72fddaef2247" d="M144.7,684.6v-29.2h8v51.6h-7.6v-7.7c-3.93,5.93-9.33,8.9-16.2,8.9-5.73,0-10.2-1.57-13.4-4.7-3.2-3.13-4.8-7.53-4.8-13.2v-34.9h8v34.1c0,7.67,3.93,11.5,11.8,11.5,3.73,0,7.03-1.4,9.9-4.2,2.87-2.8,4.3-6.87,4.3-12.2Z"/>
      <path class="uuid-31e69fc8-5517-4e37-abf4-72fddaef2247" d="M200.9,662.9v-7.5h7.6v49.6c0,7.07-2.07,12.63-6.2,16.7-4.13,4.07-10.07,6.1-17.8,6.1-6.4,0-11.53-1.47-15.4-4.4-3.87-2.93-6.07-7-6.6-12.2h8c1,6.53,5.67,9.8,14,9.8,10.67,0,16-5.33,16-16v-5c-4.07,5.47-9.83,8.2-17.3,8.2s-13.07-2.47-17.4-7.4c-4.4-4.93-6.6-11.47-6.6-19.6s2.2-14.83,6.6-19.7c4.27-4.87,10.07-7.3,17.4-7.3s13.57,2.9,17.7,8.7ZM184.2,701c5.07,0,9.1-1.77,12.1-5.3,3-3.53,4.5-8.37,4.5-14.5s-1.5-10.97-4.5-14.5c-3-3.53-7.03-5.3-12.1-5.3s-9.02,1.8-12.05,5.4c-3.03,3.6-4.55,8.4-4.55,14.4s1.52,10.8,4.55,14.4c3.03,3.6,7.05,5.4,12.05,5.4Z"/>
      <path class="uuid-31e69fc8-5517-4e37-abf4-72fddaef2247" d="M259.7,700.5h2.9v6.5c-1.33.2-2.8.3-4.4.3-5.4,0-8.3-2.47-8.7-7.4-3.6,5.53-9.2,8.3-16.8,8.3-5.67,0-10.12-1.32-13.35-3.95-3.23-2.63-4.85-6.35-4.85-11.15,0-9.33,6.37-14.67,19.1-16l7.4-.8c5.4-.6,8.1-2.97,8.1-7.1,0-2.87-.88-4.93-2.65-6.2-1.77-1.27-4.75-1.9-8.95-1.9-4.47,0-7.68.75-9.65,2.25-1.97,1.5-3.08,4.15-3.35,7.95h-8c.67-11.4,7.67-17.1,21-17.1s19.4,5,19.4,15v28.8c0,1.67.93,2.5,2.8,2.5ZM233.1,701.4c4.27,0,8-1.3,11.2-3.9,3.2-2.53,4.8-6.17,4.8-10.9v-6.1c-1.47,1.13-3.73,1.87-6.8,2.2l-7.5.9c-4.33.54-7.42,1.54-9.25,3-1.83,1.47-2.75,3.57-2.75,6.3s.87,4.75,2.6,6.25c1.73,1.5,4.3,2.25,7.7,2.25Z"/>
      <path class="uuid-31e69fc8-5517-4e37-abf4-72fddaef2247" d="M290.8,654.6c1.33,0,2.23.04,2.7.1v7.7h-2c-5.33,0-9.48,1.32-12.45,3.95-2.97,2.63-4.45,6.38-4.45,11.25v29.4h-8v-51.6h7.6v9.1c3.47-6.6,9-9.9,16.6-9.9Z"/>
      <path class="uuid-31e69fc8-5517-4e37-abf4-72fddaef2247" d="M317.9,682.4h-28.9v-7.2h28.9v7.2Z"/>
      <path class="uuid-31e69fc8-5517-4e37-abf4-72fddaef2247" d="M348.4,642.6h-4.6c-4.6,0-6.9,2.43-6.9,7.3v5.5h11v7h-11v44.6h-8v-44.6h-8.5v-7h8.5v-5.3c0-9.67,4.8-14.5,14.4-14.5,1.27,0,2.97.07,5.1.2v6.8Z"/>
      <path class="uuid-31e69fc8-5517-4e37-abf4-72fddaef2247" d="M377.1,654.6c1.33,0,2.23.04,2.7.1v7.7h-2c-5.33,0-9.48,1.32-12.45,3.95-2.97,2.63-4.45,6.38-4.45,11.25v29.4h-8v-51.6h7.6v9.1c3.47-6.6,9-9.9,16.6-9.9Z"/>
      <path class="uuid-31e69fc8-5517-4e37-abf4-72fddaef2247" d="M426.3,681.2v2.8h-39.2c.4,5.6,1.97,9.82,4.7,12.65,2.73,2.83,6.47,4.25,11.2,4.25,7.13,0,11.7-3.2,13.7-9.6h8.3c-1.4,5.2-4,9.32-7.8,12.35-3.8,3.03-8.6,4.55-14.4,4.55-7.13,0-12.9-2.43-17.3-7.3-4.47-4.87-6.7-11.43-6.7-19.7s2.2-14.67,6.6-19.6c4.33-4.93,10.07-7.4,17.2-7.4s13.2,2.57,17.4,7.7c4.2,5.13,6.3,11.57,6.3,19.3ZM402.6,661.5c-4.2,0-7.63,1.32-10.3,3.95-2.67,2.63-4.33,6.42-5,11.35h30.4c-.4-4.53-1.93-8.22-4.6-11.05-2.67-2.83-6.17-4.25-10.5-4.25Z"/>
      <path class="uuid-31e69fc8-5517-4e37-abf4-72fddaef2247" d="M477.8,681.2v2.8h-39.2c.4,5.6,1.97,9.82,4.7,12.65,2.73,2.83,6.46,4.25,11.2,4.25,7.13,0,11.7-3.2,13.7-9.6h8.3c-1.4,5.2-4,9.32-7.8,12.35-3.8,3.03-8.6,4.55-14.4,4.55-7.13,0-12.9-2.43-17.3-7.3-4.47-4.87-6.7-11.43-6.7-19.7s2.2-14.67,6.6-19.6c4.33-4.93,10.07-7.4,17.2-7.4s13.2,2.57,17.4,7.7c4.2,5.13,6.3,11.57,6.3,19.3ZM454.1,661.5c-4.2,0-7.63,1.32-10.3,3.95-2.67,2.63-4.33,6.42-5,11.35h30.4c-.4-4.53-1.93-8.22-4.6-11.05-2.67-2.83-6.17-4.25-10.5-4.25Z"/>
      <path class="uuid-31e69fc8-5517-4e37-abf4-72fddaef2247" d="M542.5,700.5h2.9v6.5c-1.33.2-2.8.3-4.4.3-5.4,0-8.3-2.47-8.7-7.4-3.6,5.53-9.2,8.3-16.8,8.3-5.67,0-10.12-1.32-13.35-3.95-3.23-2.63-4.85-6.35-4.85-11.15,0-9.33,6.37-14.67,19.1-16l7.4-.8c5.4-.6,8.1-2.97,8.1-7.1,0-2.87-.88-4.93-2.65-6.2-1.77-1.27-4.75-1.9-8.95-1.9-4.47,0-7.68.75-9.65,2.25-1.97,1.5-3.08,4.15-3.35,7.95h-8c.67-11.4,7.67-17.1,21-17.1s19.4,5,19.4,15v28.8c0,1.67.93,2.5,2.8,2.5ZM515.89,701.4c4.27,0,8-1.3,11.2-3.9,3.2-2.53,4.8-6.17,4.8-10.9v-6.1c-1.47,1.13-3.73,1.87-6.8,2.2l-7.5.9c-4.33.54-7.42,1.54-9.25,3-1.83,1.47-2.75,3.57-2.75,6.3s.87,4.75,2.6,6.25c1.73,1.5,4.3,2.25,7.7,2.25Z"/>
      <path class="uuid-31e69fc8-5517-4e37-abf4-72fddaef2247" d="M573.19,654.2c5.73,0,10.2,1.57,13.4,4.7,3.2,3.13,4.8,7.53,4.8,13.2v34.9h-8v-34.1c0-7.67-3.93-11.5-11.8-11.5-3.73,0-7.03,1.4-9.9,4.2-2.87,2.8-4.3,6.87-4.3,12.2v29.2h-8v-51.6h7.6v7.7c3.93-5.93,9.33-8.9,16.2-8.9Z"/>
      <path class="uuid-31e69fc8-5517-4e37-abf4-72fddaef2247" d="M639.19,662.8v-27h8v71.2h-7.6v-8c-4.13,6.13-10.04,9.2-17.7,9.2-7.27,0-13.07-2.47-17.4-7.4-4.4-4.93-6.6-11.47-6.6-19.6s2.2-14.83,6.6-19.7c4.27-4.87,10.06-7.3,17.4-7.3s13.17,2.87,17.3,8.6ZM610.79,695.9c3,3.4,7.03,5.1,12.1,5.1s9.1-1.77,12.1-5.3c3-3.47,4.5-8.3,4.5-14.5s-1.5-10.97-4.5-14.5c-3-3.53-7.04-5.3-12.1-5.3s-9.02,1.82-12.05,5.45c-3.04,3.63-4.55,8.55-4.55,14.75s1.5,10.9,4.5,14.3Z"/>
    </g>
    <g class="uuid-82231609-6add-4b96-b820-8950d43e79b4">
      <path class="uuid-31e69fc8-5517-4e37-abf4-72fddaef2247" d="M75,807h-8v-71.2h8v71.2Z"/>
      <path class="uuid-31e69fc8-5517-4e37-abf4-72fddaef2247" d="M124.5,800.8c-4.73,4.93-10.73,7.4-18,7.4s-13.27-2.47-18-7.4c-4.67-4.87-7-11.4-7-19.6s2.33-14.73,7-19.6c4.73-4.93,10.73-7.4,18-7.4s13.27,2.47,18,7.4c4.67,4.87,7,11.4,7,19.6s-2.33,14.73-7,19.6ZM94.4,795.7c3,3.53,7.03,5.3,12.1,5.3s9.1-1.77,12.1-5.3c3-3.47,4.5-8.3,4.5-14.5s-1.5-11.13-4.5-14.6c-3-3.46-7.03-5.2-12.1-5.2s-9.1,1.73-12.1,5.2c-3,3.47-4.5,8.33-4.5,14.6s1.5,11.03,4.5,14.5Z"/>
      <path class="uuid-31e69fc8-5517-4e37-abf4-72fddaef2247" d="M190.4,778.7l7.3-23.3h8.6l-17.2,51.6h-8.4l-7.6-23.9c-2.6-8.46-4.33-14.3-5.2-17.5-1.53,5.47-3.3,11.3-5.3,17.5l-7.5,23.9h-8.4l-17.2-51.6h8.6l7.3,23.3c1.8,5.67,3.67,11.93,5.6,18.8,2.13-7.6,3.97-13.87,5.5-18.8l7.2-23.3h8.4l7.2,23.3c3.67,12.2,5.53,18.4,5.6,18.6.53-2.07,2.37-8.27,5.5-18.6Z"/>
      <path class="uuid-31e69fc8-5517-4e37-abf4-72fddaef2247" d="M247.2,808.2c-7.13,0-12.9-2.47-17.3-7.4-4.4-4.93-6.6-11.47-6.6-19.6s2.2-14.83,6.6-19.7c4.27-4.87,10.03-7.3,17.3-7.3,6.13,0,11.17,1.67,15.1,5,3.93,3.33,6.3,7.9,7.1,13.7h-8.3c-.6-3.67-2.18-6.5-4.75-8.5-2.57-2-5.62-3-9.15-3-4.73,0-8.5,1.72-11.3,5.15-2.8,3.43-4.2,8.32-4.2,14.65s1.42,11.13,4.25,14.6c2.83,3.47,6.58,5.2,11.25,5.2,3.53,0,6.6-1.03,9.2-3.1s4.2-4.93,4.8-8.6h8.2c-.87,5.8-3.32,10.4-7.35,13.8-4.03,3.4-8.98,5.1-14.85,5.1Z"/>
      <path class="uuid-31e69fc8-5517-4e37-abf4-72fddaef2247" d="M317.1,800.5h2.9v6.5c-1.33.2-2.8.3-4.4.3-5.4,0-8.3-2.47-8.7-7.4-3.6,5.53-9.2,8.3-16.8,8.3-5.67,0-10.12-1.32-13.35-3.95-3.23-2.63-4.85-6.35-4.85-11.15,0-9.33,6.37-14.67,19.1-16l7.4-.8c5.4-.6,8.1-2.97,8.1-7.1,0-2.87-.88-4.93-2.65-6.2-1.77-1.27-4.75-1.9-8.95-1.9-4.47,0-7.68.75-9.65,2.25-1.97,1.5-3.08,4.15-3.35,7.95h-8c.67-11.4,7.67-17.1,21-17.1s19.4,5,19.4,15v28.8c0,1.67.93,2.5,2.8,2.5ZM290.5,801.4c4.27,0,8-1.3,11.2-3.9,3.2-2.53,4.8-6.17,4.8-10.9v-6.1c-1.47,1.13-3.73,1.87-6.8,2.2l-7.5.9c-4.33.54-7.42,1.54-9.25,3-1.83,1.47-2.75,3.57-2.75,6.3s.87,4.75,2.6,6.25c1.73,1.5,4.3,2.25,7.7,2.25Z"/>
      <path class="uuid-31e69fc8-5517-4e37-abf4-72fddaef2247" d="M331.5,807h-8v-71.2h8v71.2Z"/>
      <path class="uuid-31e69fc8-5517-4e37-abf4-72fddaef2247" d="M381,800.8c-4.73,4.93-10.73,7.4-18,7.4s-13.27-2.47-18-7.4c-4.67-4.87-7-11.4-7-19.6s2.33-14.73,7-19.6c4.73-4.93,10.73-7.4,18-7.4s13.27,2.47,18,7.4c4.67,4.87,7,11.4,7,19.6s-2.33,14.73-7,19.6ZM350.9,795.7c3,3.53,7.03,5.3,12.1,5.3s9.1-1.77,12.1-5.3c3-3.47,4.5-8.3,4.5-14.5s-1.5-11.13-4.5-14.6c-3-3.46-7.03-5.2-12.1-5.2s-9.1,1.73-12.1,5.2c-3,3.47-4.5,8.33-4.5,14.6s1.5,11.03,4.5,14.5Z"/>
      <path class="uuid-31e69fc8-5517-4e37-abf4-72fddaef2247" d="M418.7,754.6c1.33,0,2.23.04,2.7.1v7.7h-2c-5.33,0-9.48,1.32-12.45,3.95-2.97,2.63-4.45,6.38-4.45,11.25v29.4h-8v-51.6h7.6v9.1c3.47-6.6,9-9.9,16.6-9.9Z"/>
      <path class="uuid-31e69fc8-5517-4e37-abf4-72fddaef2247" d="M434.1,747.6h-8.5v-9.8h8.5v9.8ZM433.9,807h-8v-51.6h8v51.6Z"/>
      <path class="uuid-31e69fc8-5517-4e37-abf4-72fddaef2247" d="M487.9,781.2v2.8h-39.2c.4,5.6,1.97,9.82,4.7,12.65,2.73,2.83,6.46,4.25,11.2,4.25,7.13,0,11.7-3.2,13.7-9.6h8.3c-1.4,5.2-4,9.32-7.8,12.35-3.8,3.03-8.6,4.55-14.4,4.55-7.13,0-12.9-2.43-17.3-7.3-4.47-4.87-6.7-11.43-6.7-19.7s2.2-14.67,6.6-19.6c4.33-4.93,10.07-7.4,17.2-7.4s13.2,2.57,17.4,7.7c4.2,5.13,6.3,11.57,6.3,19.3ZM464.2,761.5c-4.2,0-7.63,1.32-10.3,3.95-2.67,2.63-4.33,6.42-5,11.35h30.4c-.4-4.53-1.93-8.22-4.6-11.05-2.67-2.83-6.17-4.25-10.5-4.25Z"/>
      <path class="uuid-31e69fc8-5517-4e37-abf4-72fddaef2247" d="M499,807h-10.1v-10h10.1v10Z"/>
    </g>
  </g>
  <g id="uuid-4f7a76b3-208e-465c-9f15-7f4448b64164" data-name="We are proud of our all-embracing culture and proud of our commitment to be our very best. We are Nocco. " class="uuid-82231609-6add-4b96-b820-8950d43e79b4">
    <g class="uuid-82231609-6add-4b96-b820-8950d43e79b4">
      <path class="uuid-31e69fc8-5517-4e37-abf4-72fddaef2247" d="M89.77,1043.28l3.69-13.34h3.31l-7.68,27.06h-3.57l-3.88-13.79c-1.09-3.9-1.91-6.95-2.47-9.16-.56,2.2-1.38,5.26-2.47,9.16l-3.88,13.79h-3.57l-7.68-27.06h3.31l3.69,13.34c1.17,4.13,2.01,7.36,2.55,9.69.89-3.39,1.75-6.65,2.58-9.77l3.69-13.26h3.57l3.69,13.26c.86,3.12,1.72,6.37,2.58,9.77.53-2.33,1.38-5.56,2.55-9.69Z"/>
      <path class="uuid-31e69fc8-5517-4e37-abf4-72fddaef2247" d="M113.1,1047.2v1.06h-14.9c.15,2.13.75,3.73,1.79,4.81,1.04,1.08,2.46,1.61,4.26,1.61,2.71,0,4.45-1.22,5.21-3.65h3.15c-.53,1.98-1.52,3.54-2.96,4.69-1.44,1.15-3.27,1.73-5.47,1.73-2.71,0-4.9-.92-6.57-2.77-1.7-1.85-2.55-4.34-2.55-7.49s.84-5.57,2.51-7.45c1.65-1.88,3.83-2.81,6.54-2.81s5.02.98,6.61,2.93c1.6,1.95,2.39,4.4,2.39,7.33ZM104.09,1039.71c-1.6,0-2.9.5-3.91,1.5-1.01,1-1.65,2.44-1.9,4.31h11.55c-.15-1.72-.73-3.12-1.75-4.2s-2.34-1.62-3.99-1.62Z"/>
      <path class="uuid-31e69fc8-5517-4e37-abf4-72fddaef2247" d="M137.68,1054.53h1.1v2.47c-.51.08-1.06.11-1.67.11-2.05,0-3.15-.94-3.31-2.81-1.37,2.1-3.5,3.15-6.38,3.15-2.15,0-3.84-.5-5.07-1.5-1.23-1-1.84-2.41-1.84-4.24,0-3.55,2.42-5.57,7.26-6.08l2.81-.3c2.05-.23,3.08-1.13,3.08-2.7,0-1.09-.34-1.87-1.01-2.36s-1.8-.72-3.4-.72c-1.7,0-2.92.29-3.67.86-.75.57-1.17,1.58-1.27,3.02h-3.04c.25-4.33,2.91-6.5,7.98-6.5s7.37,1.9,7.37,5.7v10.94c0,.63.35.95,1.06.95ZM127.58,1054.87c1.62,0,3.04-.49,4.26-1.48,1.22-.96,1.82-2.34,1.82-4.14v-2.32c-.56.43-1.42.71-2.58.84l-2.85.34c-1.65.2-2.82.58-3.52,1.14-.7.56-1.04,1.36-1.04,2.39s.33,1.81.99,2.38c.66.57,1.63.86,2.93.86Z"/>
      <path class="uuid-31e69fc8-5517-4e37-abf4-72fddaef2247" d="M149.5,1037.09c.51,0,.85.01,1.03.04v2.93h-.76c-2.03,0-3.6.5-4.73,1.5-1.13,1-1.69,2.43-1.69,4.28v11.17h-3.04v-19.61h2.89v3.46c1.32-2.51,3.42-3.76,6.31-3.76Z"/>
      <path class="uuid-31e69fc8-5517-4e37-abf4-72fddaef2247" d="M168.2,1047.2v1.06h-14.9c.15,2.13.75,3.73,1.79,4.81,1.04,1.08,2.46,1.61,4.26,1.61,2.71,0,4.45-1.22,5.21-3.65h3.15c-.53,1.98-1.52,3.54-2.96,4.69-1.44,1.15-3.27,1.73-5.47,1.73-2.71,0-4.9-.92-6.57-2.77-1.7-1.85-2.55-4.34-2.55-7.49s.84-5.57,2.51-7.45c1.65-1.88,3.83-2.81,6.54-2.81s5.02.98,6.61,2.93c1.6,1.95,2.39,4.4,2.39,7.33ZM159.19,1039.71c-1.6,0-2.9.5-3.91,1.5-1.01,1-1.65,2.44-1.9,4.31h11.55c-.15-1.72-.73-3.12-1.75-4.2s-2.34-1.62-3.99-1.62Z"/>
      <path class="uuid-31e69fc8-5517-4e37-abf4-72fddaef2247" d="M186.36,1036.94c2.76,0,4.98.93,6.65,2.77,1.65,1.88,2.47,4.37,2.47,7.49s-.82,5.57-2.47,7.45c-1.67,1.88-3.89,2.81-6.65,2.81s-5-1.09-6.57-3.27v10.26h-3.04v-27.06h2.89v3.04c1.57-2.33,3.81-3.5,6.73-3.5ZM185.98,1054.72c1.9,0,3.43-.69,4.58-2.07s1.73-3.25,1.73-5.61-.56-4.11-1.69-5.42c-1.13-1.3-2.67-1.96-4.62-1.96s-3.46.66-4.6,1.98-1.71,3.17-1.71,5.55.57,4.19,1.71,5.51c1.14,1.34,2.67,2.01,4.6,2.01Z"/>
      <path class="uuid-31e69fc8-5517-4e37-abf4-72fddaef2247" d="M207.15,1037.09c.51,0,.85.01,1.03.04v2.93h-.76c-2.03,0-3.6.5-4.73,1.5-1.13,1-1.69,2.43-1.69,4.28v11.17h-3.04v-19.61h2.89v3.46c1.32-2.51,3.42-3.76,6.31-3.76Z"/>
      <path class="uuid-31e69fc8-5517-4e37-abf4-72fddaef2247" d="M224.13,1054.64c-1.8,1.88-4.08,2.81-6.84,2.81s-5.04-.94-6.84-2.81c-1.77-1.85-2.66-4.33-2.66-7.45s.89-5.6,2.66-7.45c1.8-1.88,4.08-2.81,6.84-2.81s5.04.94,6.84,2.81c1.77,1.85,2.66,4.33,2.66,7.45s-.89,5.6-2.66,7.45ZM212.69,1052.71c1.14,1.34,2.67,2.01,4.6,2.01s3.46-.67,4.6-2.01c1.14-1.32,1.71-3.15,1.71-5.51s-.57-4.23-1.71-5.55c-1.14-1.32-2.67-1.98-4.6-1.98s-3.46.66-4.6,1.98-1.71,3.17-1.71,5.55.57,4.19,1.71,5.51Z"/>
      <path class="uuid-31e69fc8-5517-4e37-abf4-72fddaef2247" d="M241.61,1048.49v-11.1h3.04v19.61h-2.89v-2.93c-1.5,2.25-3.55,3.38-6.16,3.38-2.18,0-3.88-.59-5.09-1.79-1.22-1.19-1.82-2.86-1.82-5.02v-13.26h3.04v12.96c0,2.91,1.49,4.37,4.48,4.37,1.42,0,2.67-.53,3.76-1.6,1.09-1.06,1.63-2.61,1.63-4.64Z"/>
      <path class="uuid-31e69fc8-5517-4e37-abf4-72fddaef2247" d="M262.82,1040.2v-10.26h3.04v27.06h-2.89v-3.04c-1.57,2.33-3.81,3.5-6.73,3.5-2.76,0-4.97-.94-6.61-2.81-1.67-1.87-2.51-4.36-2.51-7.45s.84-5.64,2.51-7.49c1.62-1.85,3.83-2.77,6.61-2.77s5,1.09,6.57,3.27ZM252.02,1052.78c1.14,1.29,2.67,1.94,4.6,1.94s3.46-.67,4.6-2.01c1.14-1.32,1.71-3.15,1.71-5.51s-.57-4.17-1.71-5.51c-1.14-1.34-2.67-2.01-4.6-2.01s-3.43.69-4.58,2.07c-1.15,1.38-1.73,3.25-1.73,5.6s.57,4.14,1.71,5.43Z"/>
      <path class="uuid-31e69fc8-5517-4e37-abf4-72fddaef2247" d="M290.75,1054.64c-1.8,1.88-4.08,2.81-6.84,2.81s-5.04-.94-6.84-2.81c-1.77-1.85-2.66-4.33-2.66-7.45s.89-5.6,2.66-7.45c1.8-1.88,4.08-2.81,6.84-2.81s5.04.94,6.84,2.81c1.77,1.85,2.66,4.33,2.66,7.45s-.89,5.6-2.66,7.45ZM279.31,1052.71c1.14,1.34,2.67,2.01,4.6,2.01s3.46-.67,4.6-2.01c1.14-1.32,1.71-3.15,1.71-5.51s-.57-4.23-1.71-5.55c-1.14-1.32-2.67-1.98-4.6-1.98s-3.46.66-4.6,1.98-1.71,3.17-1.71,5.55.57,4.19,1.71,5.51Z"/>
      <path class="uuid-31e69fc8-5517-4e37-abf4-72fddaef2247" d="M304.05,1032.53h-1.75c-1.75,0-2.62.92-2.62,2.77v2.09h4.18v2.66h-4.18v16.95h-3.04v-16.95h-3.23v-2.66h3.23v-2.01c0-3.67,1.82-5.51,5.47-5.51.48,0,1.13.03,1.94.08v2.58Z"/>
      <path class="uuid-31e69fc8-5517-4e37-abf4-72fddaef2247" d="M327.6,1054.64c-1.8,1.88-4.08,2.81-6.84,2.81s-5.04-.94-6.84-2.81c-1.77-1.85-2.66-4.33-2.66-7.45s.89-5.6,2.66-7.45c1.8-1.88,4.08-2.81,6.84-2.81s5.04.94,6.84,2.81c1.77,1.85,2.66,4.33,2.66,7.45s-.89,5.6-2.66,7.45ZM316.17,1052.71c1.14,1.34,2.67,2.01,4.6,2.01s3.46-.67,4.6-2.01c1.14-1.32,1.71-3.15,1.71-5.51s-.57-4.23-1.71-5.55c-1.14-1.32-2.67-1.98-4.6-1.98s-3.46.66-4.6,1.98-1.71,3.17-1.71,5.55.57,4.19,1.71,5.51Z"/>
      <path class="uuid-31e69fc8-5517-4e37-abf4-72fddaef2247" d="M345.08,1048.49v-11.1h3.04v19.61h-2.89v-2.93c-1.5,2.25-3.55,3.38-6.16,3.38-2.18,0-3.88-.59-5.09-1.79-1.22-1.19-1.82-2.86-1.82-5.02v-13.26h3.04v12.96c0,2.91,1.49,4.37,4.48,4.37,1.42,0,2.67-.53,3.76-1.6,1.09-1.06,1.63-2.61,1.63-4.64Z"/>
      <path class="uuid-31e69fc8-5517-4e37-abf4-72fddaef2247" d="M360.74,1037.09c.51,0,.85.01,1.03.04v2.93h-.76c-2.03,0-3.6.5-4.73,1.5-1.13,1-1.69,2.43-1.69,4.28v11.17h-3.04v-19.61h2.89v3.46c1.32-2.51,3.42-3.76,6.31-3.76Z"/>
      <path class="uuid-31e69fc8-5517-4e37-abf4-72fddaef2247" d="M385.97,1054.53h1.1v2.47c-.51.08-1.06.11-1.67.11-2.05,0-3.15-.94-3.31-2.81-1.37,2.1-3.5,3.15-6.38,3.15-2.15,0-3.84-.5-5.07-1.5-1.23-1-1.84-2.41-1.84-4.24,0-3.55,2.42-5.57,7.26-6.08l2.81-.3c2.05-.23,3.08-1.13,3.08-2.7,0-1.09-.34-1.87-1.01-2.36s-1.8-.72-3.4-.72c-1.7,0-2.92.29-3.67.86-.75.57-1.17,1.58-1.27,3.02h-3.04c.25-4.33,2.91-6.5,7.98-6.5s7.37,1.9,7.37,5.7v10.94c0,.63.35.95,1.06.95ZM375.86,1054.87c1.62,0,3.04-.49,4.26-1.48,1.22-.96,1.82-2.34,1.82-4.14v-2.32c-.56.43-1.42.71-2.58.84l-2.85.34c-1.65.2-2.82.58-3.52,1.14-.7.56-1.04,1.36-1.04,2.39s.33,1.81.99,2.38c.66.57,1.63.86,2.93.86Z"/>
      <path class="uuid-31e69fc8-5517-4e37-abf4-72fddaef2247" d="M391.44,1057h-3.04v-27.06h3.04v27.06Z"/>
      <path class="uuid-31e69fc8-5517-4e37-abf4-72fddaef2247" d="M397.9,1057h-3.04v-27.06h3.04v27.06Z"/>
      <path class="uuid-31e69fc8-5517-4e37-abf4-72fddaef2247" d="M411.55,1047.65h-10.98v-2.74h10.98v2.74Z"/>
      <path class="uuid-31e69fc8-5517-4e37-abf4-72fddaef2247" d="M431.3,1047.2v1.06h-14.9c.15,2.13.75,3.73,1.79,4.81,1.04,1.08,2.46,1.61,4.26,1.61,2.71,0,4.45-1.22,5.21-3.65h3.15c-.53,1.98-1.52,3.54-2.96,4.69-1.44,1.15-3.27,1.73-5.47,1.73-2.71,0-4.9-.92-6.57-2.77-1.7-1.85-2.55-4.34-2.55-7.49s.84-5.57,2.51-7.45c1.65-1.88,3.83-2.81,6.54-2.81s5.02.98,6.61,2.93c1.6,1.95,2.39,4.4,2.39,7.33ZM422.3,1039.71c-1.6,0-2.9.5-3.91,1.5-1.01,1-1.65,2.44-1.9,4.31h11.55c-.15-1.72-.74-3.12-1.75-4.2-1.01-1.08-2.34-1.62-3.99-1.62Z"/>
      <path class="uuid-31e69fc8-5517-4e37-abf4-72fddaef2247" d="M454.41,1036.94c2.13,0,3.78.62,4.96,1.84s1.77,2.87,1.77,4.92v13.3h-3.04v-13c0-2.89-1.37-4.33-4.1-4.33-1.44,0-2.64.58-3.59,1.73-.95,1.15-1.42,2.78-1.42,4.88v10.72h-3.04v-13c0-2.89-1.37-4.33-4.1-4.33-1.42,0-2.61.58-3.57,1.73-.96,1.15-1.44,2.78-1.44,4.88v10.72h-3.04v-19.61h2.89v2.89c1.29-2.23,3.18-3.34,5.66-3.34,2.94,0,4.95,1.23,6.04,3.69,1.37-2.46,3.38-3.69,6.04-3.69Z"/>
      <path class="uuid-31e69fc8-5517-4e37-abf4-72fddaef2247" d="M474.17,1036.94c2.76,0,4.98.93,6.65,2.77,1.65,1.88,2.47,4.37,2.47,7.49s-.82,5.57-2.47,7.45c-1.67,1.88-3.89,2.81-6.65,2.81-2.91,0-5.16-1.17-6.73-3.5v3.04h-2.89v-27.06h3.04v10.26c1.57-2.18,3.76-3.27,6.57-3.27ZM473.79,1054.72c1.9,0,3.43-.69,4.58-2.07s1.73-3.25,1.73-5.61-.56-4.11-1.69-5.42c-1.13-1.3-2.67-1.96-4.62-1.96s-3.46.66-4.6,1.98-1.71,3.17-1.71,5.55.57,4.19,1.71,5.51c1.14,1.34,2.67,2.01,4.6,2.01Z"/>
      <path class="uuid-31e69fc8-5517-4e37-abf4-72fddaef2247" d="M494.96,1037.09c.51,0,.85.01,1.03.04v2.93h-.76c-2.03,0-3.6.5-4.73,1.5-1.13,1-1.69,2.43-1.69,4.28v11.17h-3.04v-19.61h2.89v3.46c1.32-2.51,3.42-3.76,6.31-3.76Z"/>
      <path class="uuid-31e69fc8-5517-4e37-abf4-72fddaef2247" d="M512.4,1054.53h1.1v2.47c-.51.08-1.06.11-1.67.11-2.05,0-3.15-.94-3.31-2.81-1.37,2.1-3.5,3.15-6.38,3.15-2.15,0-3.85-.5-5.07-1.5s-1.84-2.41-1.84-4.24c0-3.55,2.42-5.57,7.26-6.08l2.81-.3c2.05-.23,3.08-1.13,3.08-2.7,0-1.09-.34-1.87-1.01-2.36-.67-.48-1.8-.72-3.4-.72-1.7,0-2.92.29-3.67.86-.75.57-1.17,1.58-1.27,3.02h-3.04c.25-4.33,2.91-6.5,7.98-6.5s7.37,1.9,7.37,5.7v10.94c0,.63.35.95,1.06.95ZM502.29,1054.87c1.62,0,3.04-.49,4.26-1.48,1.22-.96,1.82-2.34,1.82-4.14v-2.32c-.56.43-1.42.71-2.58.84l-2.85.34c-1.65.2-2.82.58-3.51,1.14-.7.56-1.04,1.36-1.04,2.39s.33,1.81.99,2.38c.66.57,1.63.86,2.93.86Z"/>
      <path class="uuid-31e69fc8-5517-4e37-abf4-72fddaef2247" d="M522.96,1057.46c-2.71,0-4.9-.94-6.57-2.81-1.67-1.87-2.51-4.36-2.51-7.45s.84-5.64,2.51-7.49c1.62-1.85,3.81-2.77,6.57-2.77,2.33,0,4.24.63,5.74,1.9,1.5,1.27,2.39,3,2.7,5.21h-3.15c-.23-1.39-.83-2.47-1.8-3.23-.98-.76-2.13-1.14-3.48-1.14-1.8,0-3.23.65-4.29,1.96-1.06,1.3-1.6,3.16-1.6,5.57s.54,4.23,1.62,5.55c1.08,1.32,2.5,1.98,4.28,1.98,1.34,0,2.51-.39,3.5-1.18.99-.79,1.6-1.87,1.82-3.27h3.12c-.33,2.2-1.26,3.95-2.79,5.24-1.53,1.29-3.41,1.94-5.64,1.94Z"/>
      <path class="uuid-31e69fc8-5517-4e37-abf4-72fddaef2247" d="M536.6,1034.43h-3.23v-3.72h3.23v3.72ZM536.53,1057h-3.04v-19.61h3.04v19.61Z"/>
      <path class="uuid-31e69fc8-5517-4e37-abf4-72fddaef2247" d="M548.99,1036.94c2.18,0,3.88.6,5.09,1.79,1.22,1.19,1.82,2.86,1.82,5.02v13.26h-3.04v-12.96c0-2.91-1.5-4.37-4.48-4.37-1.42,0-2.67.53-3.76,1.6-1.09,1.06-1.63,2.61-1.63,4.64v11.1h-3.04v-19.61h2.89v2.93c1.49-2.25,3.55-3.38,6.16-3.38Z"/>
      <path class="uuid-31e69fc8-5517-4e37-abf4-72fddaef2247" d="M574.22,1040.24v-2.85h2.89v18.85c0,2.68-.79,4.8-2.36,6.35-1.57,1.54-3.83,2.32-6.76,2.32-2.43,0-4.38-.56-5.85-1.67-1.47-1.12-2.31-2.66-2.51-4.64h3.04c.38,2.48,2.15,3.72,5.32,3.72,4.05,0,6.08-2.03,6.08-6.08v-1.9c-1.55,2.08-3.74,3.12-6.57,3.12s-4.97-.94-6.61-2.81c-1.67-1.87-2.51-4.36-2.51-7.45s.84-5.64,2.51-7.49c1.62-1.85,3.83-2.77,6.61-2.77s5.15,1.1,6.73,3.31ZM567.88,1054.72c1.92,0,3.46-.67,4.6-2.01,1.14-1.34,1.71-3.18,1.71-5.51s-.57-4.17-1.71-5.51c-1.14-1.34-2.67-2.01-4.6-2.01s-3.43.68-4.58,2.05c-1.15,1.37-1.73,3.19-1.73,5.47s.58,4.1,1.73,5.47,2.68,2.05,4.58,2.05Z"/>
      <path class="uuid-31e69fc8-5517-4e37-abf4-72fddaef2247" d="M594.74,1057.46c-2.71,0-4.9-.94-6.57-2.81-1.67-1.87-2.51-4.36-2.51-7.45s.84-5.64,2.51-7.49c1.62-1.85,3.81-2.77,6.57-2.77,2.33,0,4.24.63,5.74,1.9,1.5,1.27,2.39,3,2.7,5.21h-3.15c-.23-1.39-.83-2.47-1.8-3.23-.98-.76-2.13-1.14-3.48-1.14-1.8,0-3.23.65-4.29,1.96s-1.6,3.16-1.6,5.57.54,4.23,1.62,5.55c1.08,1.32,2.5,1.98,4.27,1.98,1.34,0,2.51-.39,3.5-1.18.99-.79,1.6-1.87,1.82-3.27h3.12c-.33,2.2-1.26,3.95-2.79,5.24-1.53,1.29-3.41,1.94-5.64,1.94Z"/>
      <path class="uuid-31e69fc8-5517-4e37-abf4-72fddaef2247" d="M618.19,1048.49v-11.1h3.04v19.61h-2.89v-2.93c-1.5,2.25-3.55,3.38-6.16,3.38-2.18,0-3.88-.59-5.09-1.79-1.22-1.19-1.82-2.86-1.82-5.02v-13.26h3.04v12.96c0,2.91,1.5,4.37,4.48,4.37,1.42,0,2.67-.53,3.76-1.6,1.09-1.06,1.63-2.61,1.63-4.64Z"/>
      <path class="uuid-31e69fc8-5517-4e37-abf4-72fddaef2247" d="M627.69,1057h-3.04v-27.06h3.04v27.06Z"/>
      <path class="uuid-31e69fc8-5517-4e37-abf4-72fddaef2247" d="M639.7,1037.39v2.66h-4.03v12.73c0,1.12.75,1.67,2.24,1.67h1.79v2.55c-.84.08-1.56.11-2.17.11-3.27,0-4.9-1.36-4.9-4.07v-13h-3.23v-2.66h3.23v-5.55h3.04v5.55h4.03Z"/>
      <path class="uuid-31e69fc8-5517-4e37-abf4-72fddaef2247" d="M654.71,1048.49v-11.1h3.04v19.61h-2.89v-2.93c-1.5,2.25-3.55,3.38-6.16,3.38-2.18,0-3.88-.59-5.09-1.79-1.22-1.19-1.82-2.86-1.82-5.02v-13.26h3.04v12.96c0,2.91,1.49,4.37,4.48,4.37,1.42,0,2.67-.53,3.76-1.6,1.09-1.06,1.63-2.61,1.63-4.64Z"/>
      <path class="uuid-31e69fc8-5517-4e37-abf4-72fddaef2247" d="M670.36,1037.09c.51,0,.85.01,1.03.04v2.93h-.76c-2.03,0-3.61.5-4.73,1.5-1.13,1-1.69,2.43-1.69,4.28v11.17h-3.04v-19.61h2.89v3.46c1.32-2.51,3.42-3.76,6.31-3.76Z"/>
      <path class="uuid-31e69fc8-5517-4e37-abf4-72fddaef2247" d="M689.06,1047.2v1.06h-14.9c.15,2.13.75,3.73,1.79,4.81s2.46,1.61,4.26,1.61c2.71,0,4.45-1.22,5.21-3.65h3.15c-.53,1.98-1.52,3.54-2.96,4.69-1.44,1.15-3.27,1.73-5.47,1.73-2.71,0-4.9-.92-6.57-2.77-1.7-1.85-2.55-4.34-2.55-7.49s.84-5.57,2.51-7.45c1.65-1.88,3.83-2.81,6.54-2.81s5.02.98,6.61,2.93,2.39,4.4,2.39,7.33ZM680.05,1039.71c-1.6,0-2.9.5-3.91,1.5-1.01,1-1.65,2.44-1.9,4.31h11.55c-.15-1.72-.73-3.12-1.75-4.2-1.01-1.08-2.34-1.62-3.99-1.62Z"/>
      <path class="uuid-31e69fc8-5517-4e37-abf4-72fddaef2247" d="M689.44,1057v-3.8h3.84v4.14c0,3.04-1.15,4.67-3.46,4.9l-.38.04v-2.05l.27-.04c.94-.1,1.41-.96,1.41-2.58v-.61h-1.67Z"/>
    </g>
    <g class="uuid-82231609-6add-4b96-b820-8950d43e79b4">
      <path class="uuid-31e69fc8-5517-4e37-abf4-72fddaef2247" d="M79.32,1111.53h1.1v2.47c-.51.08-1.06.11-1.67.11-2.05,0-3.15-.94-3.31-2.81-1.37,2.1-3.5,3.15-6.38,3.15-2.15,0-3.84-.5-5.07-1.5-1.23-1-1.84-2.41-1.84-4.24,0-3.55,2.42-5.57,7.26-6.08l2.81-.3c2.05-.23,3.08-1.13,3.08-2.7,0-1.09-.34-1.87-1.01-2.36s-1.8-.72-3.4-.72c-1.7,0-2.92.29-3.67.86-.75.57-1.17,1.58-1.27,3.02h-3.04c.25-4.33,2.91-6.5,7.98-6.5s7.37,1.9,7.37,5.7v10.94c0,.63.35.95,1.06.95ZM69.21,1111.87c1.62,0,3.04-.49,4.26-1.48,1.22-.96,1.82-2.34,1.82-4.14v-2.32c-.56.43-1.42.71-2.58.84l-2.85.34c-1.65.2-2.82.58-3.52,1.14-.7.56-1.04,1.36-1.04,2.39s.33,1.81.99,2.38c.66.57,1.63.86,2.93.86Z"/>
      <path class="uuid-31e69fc8-5517-4e37-abf4-72fddaef2247" d="M90.98,1093.94c2.18,0,3.88.6,5.09,1.79,1.22,1.19,1.82,2.86,1.82,5.02v13.26h-3.04v-12.96c0-2.91-1.5-4.37-4.48-4.37-1.42,0-2.67.53-3.76,1.6-1.09,1.06-1.63,2.61-1.63,4.64v11.1h-3.04v-19.61h2.89v2.93c1.49-2.25,3.55-3.38,6.16-3.38Z"/>
      <path class="uuid-31e69fc8-5517-4e37-abf4-72fddaef2247" d="M116.06,1097.2v-10.26h3.04v27.06h-2.89v-3.04c-1.57,2.33-3.81,3.5-6.73,3.5-2.76,0-4.97-.94-6.61-2.81-1.67-1.87-2.51-4.36-2.51-7.45s.84-5.64,2.51-7.49c1.62-1.85,3.83-2.77,6.61-2.77s5,1.09,6.57,3.27ZM105.27,1109.78c1.14,1.29,2.67,1.94,4.6,1.94s3.46-.67,4.6-2.01c1.14-1.32,1.71-3.15,1.71-5.51s-.57-4.17-1.71-5.51c-1.14-1.34-2.67-2.01-4.6-2.01s-3.43.69-4.58,2.07c-1.15,1.38-1.73,3.25-1.73,5.6s.57,4.14,1.71,5.43Z"/>
      <path class="uuid-31e69fc8-5517-4e37-abf4-72fddaef2247" d="M138.21,1093.94c2.76,0,4.98.93,6.65,2.77,1.65,1.88,2.47,4.37,2.47,7.49s-.82,5.57-2.47,7.45c-1.67,1.88-3.89,2.81-6.65,2.81s-5-1.09-6.57-3.27v10.26h-3.04v-27.06h2.89v3.04c1.57-2.33,3.81-3.5,6.73-3.5ZM137.83,1111.72c1.9,0,3.43-.69,4.58-2.07s1.73-3.25,1.73-5.61-.56-4.11-1.69-5.42c-1.13-1.3-2.67-1.96-4.62-1.96s-3.46.66-4.6,1.98-1.71,3.17-1.71,5.55.57,4.19,1.71,5.51c1.14,1.34,2.67,2.01,4.6,2.01Z"/>
      <path class="uuid-31e69fc8-5517-4e37-abf4-72fddaef2247" d="M159,1094.09c.51,0,.85.01,1.03.04v2.93h-.76c-2.03,0-3.6.5-4.73,1.5-1.13,1-1.69,2.43-1.69,4.28v11.17h-3.04v-19.61h2.89v3.46c1.32-2.51,3.42-3.76,6.31-3.76Z"/>
      <path class="uuid-31e69fc8-5517-4e37-abf4-72fddaef2247" d="M175.99,1111.64c-1.8,1.88-4.08,2.81-6.84,2.81s-5.04-.94-6.84-2.81c-1.77-1.85-2.66-4.33-2.66-7.45s.89-5.6,2.66-7.45c1.8-1.88,4.08-2.81,6.84-2.81s5.04.94,6.84,2.81c1.77,1.85,2.66,4.33,2.66,7.45s-.89,5.6-2.66,7.45ZM164.55,1109.71c1.14,1.34,2.67,2.01,4.6,2.01s3.46-.67,4.6-2.01c1.14-1.32,1.71-3.15,1.71-5.51s-.57-4.23-1.71-5.55c-1.14-1.32-2.67-1.98-4.6-1.98s-3.46.66-4.6,1.98-1.71,3.17-1.71,5.55.57,4.19,1.71,5.51Z"/>
      <path class="uuid-31e69fc8-5517-4e37-abf4-72fddaef2247" d="M193.47,1105.49v-11.1h3.04v19.61h-2.89v-2.93c-1.5,2.25-3.55,3.38-6.16,3.38-2.18,0-3.88-.59-5.09-1.79-1.22-1.19-1.82-2.86-1.82-5.02v-13.26h3.04v12.96c0,2.91,1.49,4.37,4.48,4.37,1.42,0,2.67-.53,3.76-1.6,1.09-1.06,1.63-2.61,1.63-4.64Z"/>
      <path class="uuid-31e69fc8-5517-4e37-abf4-72fddaef2247" d="M214.67,1097.2v-10.26h3.04v27.06h-2.89v-3.04c-1.57,2.33-3.81,3.5-6.73,3.5-2.76,0-4.97-.94-6.61-2.81-1.67-1.87-2.51-4.36-2.51-7.45s.84-5.64,2.51-7.49c1.62-1.85,3.83-2.77,6.61-2.77s5,1.09,6.57,3.27ZM203.88,1109.78c1.14,1.29,2.67,1.94,4.6,1.94s3.46-.67,4.6-2.01c1.14-1.32,1.71-3.15,1.71-5.51s-.57-4.17-1.71-5.51c-1.14-1.34-2.67-2.01-4.6-2.01s-3.43.69-4.58,2.07c-1.15,1.38-1.73,3.25-1.73,5.6s.57,4.14,1.71,5.43Z"/>
      <path class="uuid-31e69fc8-5517-4e37-abf4-72fddaef2247" d="M242.6,1111.64c-1.8,1.88-4.08,2.81-6.84,2.81s-5.04-.94-6.84-2.81c-1.77-1.85-2.66-4.33-2.66-7.45s.89-5.6,2.66-7.45c1.8-1.88,4.08-2.81,6.84-2.81s5.04.94,6.84,2.81c1.77,1.85,2.66,4.33,2.66,7.45s-.89,5.6-2.66,7.45ZM231.16,1109.71c1.14,1.34,2.67,2.01,4.6,2.01s3.46-.67,4.6-2.01c1.14-1.32,1.71-3.15,1.71-5.51s-.57-4.23-1.71-5.55c-1.14-1.32-2.67-1.98-4.6-1.98s-3.46.66-4.6,1.98-1.71,3.17-1.71,5.55.57,4.19,1.71,5.51Z"/>
      <path class="uuid-31e69fc8-5517-4e37-abf4-72fddaef2247" d="M255.9,1089.53h-1.75c-1.75,0-2.62.92-2.62,2.77v2.09h4.18v2.66h-4.18v16.95h-3.04v-16.95h-3.23v-2.66h3.23v-2.01c0-3.67,1.82-5.51,5.47-5.51.48,0,1.13.03,1.94.08v2.58Z"/>
      <path class="uuid-31e69fc8-5517-4e37-abf4-72fddaef2247" d="M279.46,1111.64c-1.8,1.88-4.08,2.81-6.84,2.81s-5.04-.94-6.84-2.81c-1.77-1.85-2.66-4.33-2.66-7.45s.89-5.6,2.66-7.45c1.8-1.88,4.08-2.81,6.84-2.81s5.04.94,6.84,2.81c1.77,1.85,2.66,4.33,2.66,7.45s-.89,5.6-2.66,7.45ZM268.02,1109.71c1.14,1.34,2.67,2.01,4.6,2.01s3.46-.67,4.6-2.01c1.14-1.32,1.71-3.15,1.71-5.51s-.57-4.23-1.71-5.55c-1.14-1.32-2.67-1.98-4.6-1.98s-3.46.66-4.6,1.98-1.71,3.17-1.71,5.55.57,4.19,1.71,5.51Z"/>
      <path class="uuid-31e69fc8-5517-4e37-abf4-72fddaef2247" d="M296.94,1105.49v-11.1h3.04v19.61h-2.89v-2.93c-1.5,2.25-3.55,3.38-6.16,3.38-2.18,0-3.88-.59-5.09-1.79-1.22-1.19-1.82-2.86-1.82-5.02v-13.26h3.04v12.96c0,2.91,1.49,4.37,4.48,4.37,1.42,0,2.67-.53,3.76-1.6,1.09-1.06,1.63-2.61,1.63-4.64Z"/>
      <path class="uuid-31e69fc8-5517-4e37-abf4-72fddaef2247" d="M312.59,1094.09c.51,0,.85.01,1.03.04v2.93h-.76c-2.03,0-3.6.5-4.73,1.5-1.13,1-1.69,2.43-1.69,4.28v11.17h-3.04v-19.61h2.89v3.46c1.32-2.51,3.42-3.76,6.31-3.76Z"/>
      <path class="uuid-31e69fc8-5517-4e37-abf4-72fddaef2247" d="M329.92,1114.46c-2.71,0-4.9-.94-6.57-2.81-1.67-1.87-2.51-4.36-2.51-7.45s.84-5.64,2.51-7.49c1.62-1.85,3.81-2.77,6.57-2.77,2.33,0,4.24.63,5.74,1.9,1.49,1.27,2.39,3,2.7,5.21h-3.15c-.23-1.39-.83-2.47-1.8-3.23-.98-.76-2.13-1.14-3.48-1.14-1.8,0-3.23.65-4.29,1.96s-1.6,3.16-1.6,5.57.54,4.23,1.62,5.55c1.08,1.32,2.5,1.98,4.27,1.98,1.34,0,2.51-.39,3.5-1.18.99-.79,1.6-1.87,1.82-3.27h3.12c-.33,2.2-1.26,3.95-2.79,5.24-1.53,1.29-3.41,1.94-5.64,1.94Z"/>
      <path class="uuid-31e69fc8-5517-4e37-abf4-72fddaef2247" d="M355.84,1111.64c-1.8,1.88-4.08,2.81-6.84,2.81s-5.04-.94-6.84-2.81c-1.77-1.85-2.66-4.33-2.66-7.45s.89-5.6,2.66-7.45c1.8-1.88,4.08-2.81,6.84-2.81s5.04.94,6.84,2.81c1.77,1.85,2.66,4.33,2.66,7.45s-.89,5.6-2.66,7.45ZM344.4,1109.71c1.14,1.34,2.67,2.01,4.6,2.01s3.46-.67,4.6-2.01c1.14-1.32,1.71-3.15,1.71-5.51s-.57-4.23-1.71-5.55c-1.14-1.32-2.67-1.98-4.6-1.98s-3.46.66-4.6,1.98-1.71,3.17-1.71,5.55.57,4.19,1.71,5.51Z"/>
      <path class="uuid-31e69fc8-5517-4e37-abf4-72fddaef2247" d="M381.6,1093.94c2.13,0,3.78.62,4.96,1.84,1.18,1.23,1.77,2.87,1.77,4.92v13.3h-3.04v-13c0-2.89-1.37-4.33-4.1-4.33-1.44,0-2.64.58-3.59,1.73-.95,1.15-1.42,2.78-1.42,4.88v10.72h-3.04v-13c0-2.89-1.37-4.33-4.1-4.33-1.42,0-2.61.58-3.57,1.73-.96,1.15-1.44,2.78-1.44,4.88v10.72h-3.04v-19.61h2.89v2.89c1.29-2.23,3.18-3.34,5.66-3.34,2.94,0,4.95,1.23,6.04,3.69,1.37-2.46,3.38-3.69,6.04-3.69Z"/>
      <path class="uuid-31e69fc8-5517-4e37-abf4-72fddaef2247" d="M412.38,1093.94c2.13,0,3.78.62,4.96,1.84,1.18,1.23,1.77,2.87,1.77,4.92v13.3h-3.04v-13c0-2.89-1.37-4.33-4.1-4.33-1.44,0-2.64.58-3.59,1.73-.95,1.15-1.42,2.78-1.42,4.88v10.72h-3.04v-13c0-2.89-1.37-4.33-4.1-4.33-1.42,0-2.61.58-3.57,1.73-.96,1.15-1.44,2.78-1.44,4.88v10.72h-3.04v-19.61h2.89v2.89c1.29-2.23,3.18-3.34,5.66-3.34,2.94,0,4.95,1.23,6.04,3.69,1.37-2.46,3.38-3.69,6.04-3.69Z"/>
      <path class="uuid-31e69fc8-5517-4e37-abf4-72fddaef2247" d="M425.64,1091.43h-3.23v-3.72h3.23v3.72ZM425.57,1114h-3.04v-19.61h3.04v19.61Z"/>
      <path class="uuid-31e69fc8-5517-4e37-abf4-72fddaef2247" d="M437.57,1094.39v2.66h-4.03v12.73c0,1.12.75,1.67,2.24,1.67h1.79v2.55c-.84.08-1.56.11-2.17.11-3.27,0-4.9-1.36-4.9-4.07v-13h-3.23v-2.66h3.23v-5.55h3.04v5.55h4.03Z"/>
      <path class="uuid-31e69fc8-5517-4e37-abf4-72fddaef2247" d="M460.3,1093.94c2.13,0,3.78.62,4.96,1.84,1.18,1.23,1.77,2.87,1.77,4.92v13.3h-3.04v-13c0-2.89-1.37-4.33-4.1-4.33-1.45,0-2.64.58-3.59,1.73-.95,1.15-1.42,2.78-1.42,4.88v10.72h-3.04v-13c0-2.89-1.37-4.33-4.1-4.33-1.42,0-2.61.58-3.57,1.73-.96,1.15-1.44,2.78-1.44,4.88v10.72h-3.04v-19.61h2.89v2.89c1.29-2.23,3.18-3.34,5.66-3.34,2.94,0,4.95,1.23,6.04,3.69,1.37-2.46,3.38-3.69,6.04-3.69Z"/>
      <path class="uuid-31e69fc8-5517-4e37-abf4-72fddaef2247" d="M487.54,1104.2v1.06h-14.9c.15,2.13.75,3.73,1.79,4.81s2.46,1.61,4.26,1.61c2.71,0,4.45-1.22,5.21-3.65h3.15c-.53,1.98-1.52,3.54-2.96,4.69-1.44,1.15-3.27,1.73-5.47,1.73-2.71,0-4.9-.92-6.57-2.77-1.7-1.85-2.55-4.34-2.55-7.49s.84-5.57,2.51-7.45c1.65-1.88,3.83-2.81,6.54-2.81s5.02.98,6.61,2.93,2.39,4.4,2.39,7.33ZM478.54,1096.71c-1.6,0-2.9.5-3.91,1.5-1.01,1-1.65,2.44-1.9,4.31h11.55c-.15-1.72-.73-3.12-1.75-4.2-1.01-1.08-2.34-1.62-3.99-1.62Z"/>
      <path class="uuid-31e69fc8-5517-4e37-abf4-72fddaef2247" d="M499.06,1093.94c2.18,0,3.88.6,5.09,1.79,1.21,1.19,1.82,2.86,1.82,5.02v13.26h-3.04v-12.96c0-2.91-1.49-4.37-4.48-4.37-1.42,0-2.67.53-3.76,1.6-1.09,1.06-1.63,2.61-1.63,4.64v11.1h-3.04v-19.61h2.89v2.93c1.49-2.25,3.55-3.38,6.16-3.38Z"/>
      <path class="uuid-31e69fc8-5517-4e37-abf4-72fddaef2247" d="M517.22,1094.39v2.66h-4.03v12.73c0,1.12.75,1.67,2.24,1.67h1.79v2.55c-.84.08-1.56.11-2.17.11-3.27,0-4.9-1.36-4.9-4.07v-13h-3.23v-2.66h3.23v-5.55h3.04v5.55h4.03Z"/>
      <path class="uuid-31e69fc8-5517-4e37-abf4-72fddaef2247" d="M533.98,1094.39v2.66h-4.03v12.73c0,1.12.75,1.67,2.24,1.67h1.79v2.55c-.84.08-1.56.11-2.17.11-3.27,0-4.9-1.36-4.9-4.07v-13h-3.23v-2.66h3.23v-5.55h3.04v5.55h4.03Z"/>
      <path class="uuid-31e69fc8-5517-4e37-abf4-72fddaef2247" d="M551.08,1111.64c-1.8,1.88-4.08,2.81-6.84,2.81s-5.04-.94-6.84-2.81c-1.77-1.85-2.66-4.33-2.66-7.45s.89-5.6,2.66-7.45c1.8-1.88,4.08-2.81,6.84-2.81s5.04.94,6.84,2.81c1.77,1.85,2.66,4.33,2.66,7.45s-.89,5.6-2.66,7.45ZM539.64,1109.71c1.14,1.34,2.67,2.01,4.6,2.01s3.46-.67,4.6-2.01c1.14-1.32,1.71-3.15,1.71-5.51s-.57-4.23-1.71-5.55c-1.14-1.32-2.67-1.98-4.6-1.98s-3.46.66-4.6,1.98c-1.14,1.32-1.71,3.17-1.71,5.55s.57,4.19,1.71,5.51Z"/>
      <path class="uuid-31e69fc8-5517-4e37-abf4-72fddaef2247" d="M571.9,1093.94c2.76,0,4.98.93,6.65,2.77,1.65,1.88,2.47,4.37,2.47,7.49s-.82,5.57-2.47,7.45c-1.67,1.88-3.89,2.81-6.65,2.81-2.91,0-5.16-1.17-6.73-3.5v3.04h-2.89v-27.06h3.04v10.26c1.57-2.18,3.76-3.27,6.57-3.27ZM571.52,1111.72c1.9,0,3.43-.69,4.58-2.07,1.15-1.38,1.73-3.25,1.73-5.61s-.56-4.11-1.69-5.42-2.67-1.96-4.62-1.96-3.46.66-4.6,1.98c-1.14,1.32-1.71,3.17-1.71,5.55s.57,4.19,1.71,5.51c1.14,1.34,2.67,2.01,4.6,2.01Z"/>
      <path class="uuid-31e69fc8-5517-4e37-abf4-72fddaef2247" d="M600.59,1104.2v1.06h-14.9c.15,2.13.75,3.73,1.79,4.81s2.46,1.61,4.26,1.61c2.71,0,4.45-1.22,5.21-3.65h3.15c-.53,1.98-1.52,3.54-2.96,4.69-1.44,1.15-3.27,1.73-5.47,1.73-2.71,0-4.9-.92-6.57-2.77-1.7-1.85-2.54-4.34-2.54-7.49s.84-5.57,2.51-7.45c1.65-1.88,3.82-2.81,6.54-2.81s5.02.98,6.61,2.93c1.6,1.95,2.39,4.4,2.39,7.33ZM591.59,1096.71c-1.6,0-2.9.5-3.91,1.5-1.01,1-1.65,2.44-1.9,4.31h11.55c-.15-1.72-.73-3.12-1.75-4.2s-2.34-1.62-3.99-1.62Z"/>
    </g>
    <g class="uuid-82231609-6add-4b96-b820-8950d43e79b4">
      <path class="uuid-31e69fc8-5517-4e37-abf4-72fddaef2247" d="M78.67,1168.64c-1.8,1.88-4.08,2.81-6.84,2.81s-5.04-.94-6.84-2.81c-1.77-1.85-2.66-4.33-2.66-7.45s.89-5.6,2.66-7.45c1.8-1.88,4.08-2.81,6.84-2.81s5.04.94,6.84,2.81c1.77,1.85,2.66,4.33,2.66,7.45s-.89,5.6-2.66,7.45ZM67.23,1166.71c1.14,1.34,2.67,2.01,4.6,2.01s3.46-.67,4.6-2.01c1.14-1.32,1.71-3.15,1.71-5.51s-.57-4.23-1.71-5.55c-1.14-1.32-2.67-1.98-4.6-1.98s-3.46.66-4.6,1.98-1.71,3.17-1.71,5.55.57,4.19,1.71,5.51Z"/>
      <path class="uuid-31e69fc8-5517-4e37-abf4-72fddaef2247" d="M96.15,1162.49v-11.1h3.04v19.61h-2.89v-2.93c-1.5,2.25-3.55,3.38-6.16,3.38-2.18,0-3.88-.59-5.09-1.79-1.22-1.19-1.82-2.86-1.82-5.02v-13.26h3.04v12.96c0,2.91,1.49,4.37,4.48,4.37,1.42,0,2.67-.53,3.76-1.6,1.09-1.06,1.63-2.61,1.63-4.64Z"/>
      <path class="uuid-31e69fc8-5517-4e37-abf4-72fddaef2247" d="M111.81,1151.09c.51,0,.85.01,1.03.04v2.93h-.76c-2.03,0-3.6.5-4.73,1.5-1.13,1-1.69,2.43-1.69,4.28v11.17h-3.04v-19.61h2.89v3.46c1.32-2.51,3.42-3.76,6.31-3.76Z"/>
      <path class="uuid-31e69fc8-5517-4e37-abf4-72fddaef2247" d="M130.99,1160.09l3.23-8.7h3.27l-7.71,19.61h-3.19l-7.68-19.61h3.31l3.23,8.74c1.6,4.28,2.52,6.82,2.77,7.6.46-1.34,1.38-3.89,2.77-7.64Z"/>
      <path class="uuid-31e69fc8-5517-4e37-abf4-72fddaef2247" d="M154.78,1161.2v1.06h-14.9c.15,2.13.75,3.73,1.79,4.81,1.04,1.08,2.46,1.61,4.26,1.61,2.71,0,4.45-1.22,5.21-3.65h3.15c-.53,1.98-1.52,3.54-2.96,4.69-1.44,1.15-3.27,1.73-5.47,1.73-2.71,0-4.9-.92-6.57-2.77-1.7-1.85-2.55-4.34-2.55-7.49s.84-5.57,2.51-7.45c1.65-1.88,3.83-2.81,6.54-2.81s5.02.98,6.61,2.93c1.6,1.95,2.39,4.4,2.39,7.33ZM145.78,1153.71c-1.6,0-2.9.5-3.91,1.5-1.01,1-1.65,2.44-1.9,4.31h11.55c-.15-1.72-.73-3.12-1.75-4.2s-2.34-1.62-3.99-1.62Z"/>
      <path class="uuid-31e69fc8-5517-4e37-abf4-72fddaef2247" d="M166.45,1151.09c.51,0,.85.01,1.03.04v2.93h-.76c-2.03,0-3.6.5-4.73,1.5-1.13,1-1.69,2.43-1.69,4.28v11.17h-3.04v-19.61h2.89v3.46c1.32-2.51,3.42-3.76,6.31-3.76Z"/>
      <path class="uuid-31e69fc8-5517-4e37-abf4-72fddaef2247" d="M179.41,1159.52l2.77-8.13h3.31l-8.28,22.69c-.58,1.65-1.38,2.81-2.39,3.48-1.01.67-2.34,1.01-3.99,1.01-.56,0-1.17-.04-1.82-.11v-2.55h1.79c1.75,0,2.94-.81,3.57-2.43l.68-1.82-7.37-20.25h3.34l2.77,8.17c.99,2.89,1.92,5.71,2.81,8.47.73-2.36,1.67-5.19,2.81-8.51Z"/>
      <path class="uuid-31e69fc8-5517-4e37-abf4-72fddaef2247" d="M202.51,1150.94c2.76,0,4.98.93,6.65,2.77,1.65,1.88,2.47,4.37,2.47,7.49s-.82,5.57-2.47,7.45c-1.67,1.88-3.89,2.81-6.65,2.81-2.91,0-5.16-1.17-6.73-3.5v3.04h-2.89v-27.06h3.04v10.26c1.57-2.18,3.76-3.27,6.57-3.27ZM202.13,1168.72c1.9,0,3.43-.69,4.58-2.07s1.73-3.25,1.73-5.61-.56-4.11-1.69-5.42c-1.13-1.3-2.67-1.96-4.62-1.96s-3.46.66-4.6,1.98-1.71,3.17-1.71,5.55.57,4.19,1.71,5.51c1.14,1.34,2.67,2.01,4.6,2.01Z"/>
      <path class="uuid-31e69fc8-5517-4e37-abf4-72fddaef2247" d="M231.2,1161.2v1.06h-14.9c.15,2.13.75,3.73,1.79,4.81,1.04,1.08,2.46,1.61,4.26,1.61,2.71,0,4.45-1.22,5.21-3.65h3.15c-.53,1.98-1.52,3.54-2.96,4.69-1.44,1.15-3.27,1.73-5.47,1.73-2.71,0-4.9-.92-6.57-2.77-1.7-1.85-2.55-4.34-2.55-7.49s.84-5.57,2.51-7.45c1.65-1.88,3.83-2.81,6.54-2.81s5.02.98,6.61,2.93c1.6,1.95,2.39,4.4,2.39,7.33ZM222.19,1153.71c-1.6,0-2.9.5-3.91,1.5-1.01,1-1.65,2.44-1.9,4.31h11.55c-.15-1.72-.73-3.12-1.75-4.2s-2.34-1.62-3.99-1.62Z"/>
      <path class="uuid-31e69fc8-5517-4e37-abf4-72fddaef2247" d="M240.39,1171.46c-5.24,0-8.02-2.23-8.32-6.69h3.08c.18,1.47.67,2.51,1.46,3.14s2.06.93,3.78.93c3.14,0,4.71-1.01,4.71-3.04,0-.89-.32-1.56-.97-2.01s-1.82-.85-3.52-1.18l-1.82-.34c-4.08-.76-6.12-2.68-6.12-5.78,0-1.7.64-3.05,1.92-4.05,1.28-1,3.02-1.5,5.23-1.5,5.19,0,7.85,2.17,7.98,6.5h-3.04c-.08-1.42-.51-2.42-1.29-3-.79-.58-2-.87-3.65-.87-1.32,0-2.33.25-3.04.76-.71.51-1.06,1.22-1.06,2.13,0,.86.3,1.51.91,1.94.61.43,1.62.8,3.04,1.1l1.75.34c2.41.48,4.14,1.17,5.19,2.05,1.05.89,1.58,2.13,1.58,3.72,0,1.85-.69,3.29-2.07,4.31-1.38,1.03-3.29,1.54-5.72,1.54Z"/>
      <path class="uuid-31e69fc8-5517-4e37-abf4-72fddaef2247" d="M258.29,1151.39v2.66h-4.03v12.73c0,1.12.75,1.67,2.24,1.67h1.79v2.55c-.84.08-1.56.11-2.17.11-3.27,0-4.9-1.36-4.9-4.07v-13h-3.23v-2.66h3.23v-5.55h3.04v5.55h4.03Z"/>
      <path class="uuid-31e69fc8-5517-4e37-abf4-72fddaef2247" d="M263.65,1171h-3.84v-3.8h3.84v3.8Z"/>
      <path class="uuid-31e69fc8-5517-4e37-abf4-72fddaef2247" d="M299.07,1157.28l3.69-13.34h3.31l-7.68,27.06h-3.57l-3.88-13.79c-1.09-3.9-1.91-6.95-2.47-9.16-.56,2.2-1.38,5.26-2.47,9.16l-3.88,13.79h-3.57l-7.68-27.06h3.31l3.69,13.34c1.17,4.13,2.01,7.36,2.55,9.69.89-3.39,1.75-6.65,2.58-9.77l3.69-13.26h3.57l3.69,13.26c.86,3.12,1.72,6.37,2.58,9.77.53-2.33,1.38-5.56,2.55-9.69Z"/>
      <path class="uuid-31e69fc8-5517-4e37-abf4-72fddaef2247" d="M322.4,1161.2v1.06h-14.9c.15,2.13.75,3.73,1.79,4.81,1.04,1.08,2.46,1.61,4.26,1.61,2.71,0,4.45-1.22,5.21-3.65h3.15c-.53,1.98-1.52,3.54-2.96,4.69-1.44,1.15-3.27,1.73-5.47,1.73-2.71,0-4.9-.92-6.57-2.77-1.7-1.85-2.55-4.34-2.55-7.49s.84-5.57,2.51-7.45c1.65-1.88,3.83-2.81,6.54-2.81s5.02.98,6.61,2.93c1.6,1.95,2.39,4.4,2.39,7.33ZM313.39,1153.71c-1.6,0-2.9.5-3.91,1.5-1.01,1-1.65,2.44-1.9,4.31h11.55c-.15-1.72-.73-3.12-1.75-4.2s-2.34-1.62-3.99-1.62Z"/>
      <path class="uuid-31e69fc8-5517-4e37-abf4-72fddaef2247" d="M346.98,1168.53h1.1v2.47c-.51.08-1.06.11-1.67.11-2.05,0-3.15-.94-3.31-2.81-1.37,2.1-3.5,3.15-6.38,3.15-2.15,0-3.84-.5-5.07-1.5-1.23-1-1.84-2.41-1.84-4.24,0-3.55,2.42-5.57,7.26-6.08l2.81-.3c2.05-.23,3.08-1.13,3.08-2.7,0-1.09-.34-1.87-1.01-2.36s-1.8-.72-3.4-.72c-1.7,0-2.92.29-3.67.86-.75.57-1.17,1.58-1.27,3.02h-3.04c.25-4.33,2.91-6.5,7.98-6.5s7.37,1.9,7.37,5.7v10.94c0,.63.35.95,1.06.95ZM336.88,1168.87c1.62,0,3.04-.49,4.26-1.48,1.22-.96,1.82-2.34,1.82-4.14v-2.32c-.56.43-1.42.71-2.58.84l-2.85.34c-1.65.2-2.82.58-3.52,1.14-.7.56-1.04,1.36-1.04,2.39s.33,1.81.99,2.38c.66.57,1.63.86,2.93.86Z"/>
      <path class="uuid-31e69fc8-5517-4e37-abf4-72fddaef2247" d="M358.8,1151.09c.51,0,.85.01,1.03.04v2.93h-.76c-2.03,0-3.6.5-4.73,1.5-1.13,1-1.69,2.43-1.69,4.28v11.17h-3.04v-19.61h2.89v3.46c1.32-2.51,3.42-3.76,6.31-3.76Z"/>
      <path class="uuid-31e69fc8-5517-4e37-abf4-72fddaef2247" d="M377.5,1161.2v1.06h-14.9c.15,2.13.75,3.73,1.79,4.81,1.04,1.08,2.46,1.61,4.26,1.61,2.71,0,4.45-1.22,5.21-3.65h3.15c-.53,1.98-1.52,3.54-2.96,4.69-1.44,1.15-3.27,1.73-5.47,1.73-2.71,0-4.9-.92-6.57-2.77-1.7-1.85-2.55-4.34-2.55-7.49s.84-5.57,2.51-7.45c1.65-1.88,3.83-2.81,6.54-2.81s5.02.98,6.61,2.93c1.6,1.95,2.39,4.4,2.39,7.33ZM368.49,1153.71c-1.6,0-2.9.5-3.91,1.5-1.01,1-1.65,2.44-1.9,4.31h11.55c-.15-1.72-.73-3.12-1.75-4.2s-2.34-1.62-3.99-1.62Z"/>
      <path class="uuid-31e69fc8-5517-4e37-abf4-72fddaef2247" d="M404.59,1153.06v-9.12h3.15v27.06h-3.88l-8.97-13.95c-2.58-4.1-4.46-7.16-5.62-9.16.08,3.55.11,8.21.11,13.98v9.12h-3.15v-27.06h3.88l8.97,13.95c2.58,4.1,4.46,7.16,5.62,9.16-.08-3.55-.11-8.21-.11-13.98Z"/>
      <path class="uuid-31e69fc8-5517-4e37-abf4-72fddaef2247" d="M426.74,1168.64c-1.8,1.88-4.08,2.81-6.84,2.81s-5.04-.94-6.84-2.81c-1.77-1.85-2.66-4.33-2.66-7.45s.89-5.6,2.66-7.45c1.8-1.88,4.08-2.81,6.84-2.81s5.04.94,6.84,2.81c1.77,1.85,2.66,4.33,2.66,7.45s-.89,5.6-2.66,7.45ZM415.31,1166.71c1.14,1.34,2.67,2.01,4.6,2.01s3.46-.67,4.6-2.01c1.14-1.32,1.71-3.15,1.71-5.51s-.57-4.23-1.71-5.55c-1.14-1.32-2.67-1.98-4.6-1.98s-3.46.66-4.6,1.98-1.71,3.17-1.71,5.55.57,4.19,1.71,5.51Z"/>
      <path class="uuid-31e69fc8-5517-4e37-abf4-72fddaef2247" d="M440.01,1171.46c-2.71,0-4.9-.94-6.57-2.81-1.67-1.87-2.51-4.36-2.51-7.45s.84-5.64,2.51-7.49c1.62-1.85,3.81-2.77,6.57-2.77,2.33,0,4.24.63,5.74,1.9,1.49,1.27,2.39,3,2.7,5.21h-3.15c-.23-1.39-.83-2.47-1.8-3.23-.98-.76-2.13-1.14-3.48-1.14-1.8,0-3.23.65-4.29,1.96-1.06,1.3-1.6,3.16-1.6,5.57s.54,4.23,1.62,5.55c1.08,1.32,2.5,1.98,4.27,1.98,1.34,0,2.51-.39,3.5-1.18s1.6-1.87,1.82-3.27h3.12c-.33,2.2-1.26,3.95-2.79,5.24-1.53,1.29-3.41,1.94-5.64,1.94Z"/>
      <path class="uuid-31e69fc8-5517-4e37-abf4-72fddaef2247" d="M458.66,1171.46c-2.71,0-4.9-.94-6.57-2.81-1.67-1.87-2.51-4.36-2.51-7.45s.84-5.64,2.51-7.49c1.62-1.85,3.81-2.77,6.57-2.77,2.33,0,4.24.63,5.74,1.9,1.49,1.27,2.39,3,2.7,5.21h-3.15c-.23-1.39-.83-2.47-1.8-3.23-.97-.76-2.13-1.14-3.48-1.14-1.8,0-3.23.65-4.29,1.96s-1.6,3.16-1.6,5.57.54,4.23,1.62,5.55,2.5,1.98,4.28,1.98c1.34,0,2.51-.39,3.5-1.18s1.6-1.87,1.82-3.27h3.12c-.33,2.2-1.26,3.95-2.79,5.24s-3.41,1.94-5.64,1.94Z"/>
      <path class="uuid-31e69fc8-5517-4e37-abf4-72fddaef2247" d="M484.58,1168.64c-1.8,1.88-4.08,2.81-6.84,2.81s-5.04-.94-6.84-2.81c-1.77-1.85-2.66-4.33-2.66-7.45s.89-5.6,2.66-7.45c1.8-1.88,4.08-2.81,6.84-2.81s5.04.94,6.84,2.81c1.77,1.85,2.66,4.33,2.66,7.45s-.89,5.6-2.66,7.45ZM473.14,1166.71c1.14,1.34,2.67,2.01,4.6,2.01s3.46-.67,4.6-2.01c1.14-1.32,1.71-3.15,1.71-5.51s-.57-4.23-1.71-5.55c-1.14-1.32-2.67-1.98-4.6-1.98s-3.46.66-4.6,1.98-1.71,3.17-1.71,5.55.57,4.19,1.71,5.51Z"/>
      <path class="uuid-31e69fc8-5517-4e37-abf4-72fddaef2247" d="M491.46,1171h-3.84v-3.8h3.84v3.8Z"/>
    </g>
  </g>
</svg>