<?xml version="1.0" encoding="UTF-8"?>
<svg id="uuid-2893492a-4f29-4cd5-8568-e708cd097bf7" data-name="Layer 1" xmlns="http://www.w3.org/2000/svg" viewBox="0 0 1920 470">
  <defs>
    <style>
      .uuid-4621f1d5-8dbf-41a3-a561-bdc23b5297a3 {
        isolation: isolate;
      }

      .uuid-ac039ee1-4273-4786-bfcf-8cbdb16244de {
        fill: #f4f4f4;
        stroke-width: 0px;
      }
    </style>
  </defs>
  <g id="uuid-1900a18c-9a11-4d76-8daa-3b5fea42f3e1" data-name="INFLUENCER STUDIOS" class="uuid-4621f1d5-8dbf-41a3-a561-bdc23b5297a3">
    <g class="uuid-4621f1d5-8dbf-41a3-a561-bdc23b5297a3">
      <path class="uuid-ac039ee1-4273-4786-bfcf-8cbdb16244de" d="M896.25,265.68v-114.53h15.16v114.53h-15.16Z"/>
      <path class="uuid-ac039ee1-4273-4786-bfcf-8cbdb16244de" d="M937.97,265.68v-114.53h15.55l60.16,89.92v-89.92h14.53v114.53h-15.55l-60.16-90v90h-14.53Z"/>
      <path class="uuid-ac039ee1-4273-4786-bfcf-8cbdb16244de" d="M1054.46,265.68v-114.53h77.27v13.52h-62.11v35.47h53.75v13.52h-53.75v52.03h-15.16Z"/>
      <path class="uuid-ac039ee1-4273-4786-bfcf-8cbdb16244de" d="M1150.79,265.68v-114.53h15.16v101.02h56.41v13.52h-71.56Z"/>
      <path class="uuid-ac039ee1-4273-4786-bfcf-8cbdb16244de" d="M1315.55,151.15h15.16v66.17c0,11.51-1.3,20.65-3.91,27.42-2.61,6.77-7.3,12.28-14.1,16.52-6.8,4.25-15.72,6.37-26.76,6.37s-19.51-1.85-26.33-5.55c-6.82-3.7-11.69-9.05-14.61-16.05-2.92-7-4.38-16.57-4.38-28.71v-66.17h15.16v66.09c0,9.95.92,17.28,2.77,21.99,1.85,4.71,5.03,8.35,9.53,10.9,4.5,2.55,10.01,3.83,16.52,3.83,11.14,0,19.09-2.53,23.83-7.58,4.74-5.05,7.11-14.77,7.11-29.14v-66.09Z"/>
      <path class="uuid-ac039ee1-4273-4786-bfcf-8cbdb16244de" d="M1356.25,265.68v-114.53h82.81v13.52h-67.66v35.08h63.36v13.44h-63.36v38.98h70.31v13.52h-85.47Z"/>
      <path class="uuid-ac039ee1-4273-4786-bfcf-8cbdb16244de" d="M1462.5,265.68v-114.53h15.55l60.16,89.92v-89.92h14.53v114.53h-15.55l-60.16-90v90h-14.53Z"/>
      <path class="uuid-ac039ee1-4273-4786-bfcf-8cbdb16244de" d="M1659.93,225.53l15.16,3.83c-3.18,12.45-8.89,21.94-17.15,28.48-8.26,6.54-18.35,9.8-30.27,9.8s-22.38-2.51-30.12-7.54c-7.73-5.03-13.62-12.3-17.66-21.84-4.04-9.53-6.05-19.77-6.05-30.7,0-11.93,2.28-22.33,6.84-31.21,4.56-8.88,11.04-15.62,19.45-20.23,8.41-4.61,17.67-6.91,27.77-6.91,11.46,0,21.09,2.92,28.91,8.75,7.81,5.83,13.25,14.04,16.33,24.61l-14.92,3.52c-2.66-8.33-6.51-14.4-11.56-18.2-5.05-3.8-11.41-5.7-19.06-5.7-8.8,0-16.16,2.11-22.07,6.33-5.91,4.22-10.07,9.88-12.46,16.99-2.4,7.11-3.59,14.44-3.59,21.99,0,9.74,1.42,18.24,4.26,25.51,2.84,7.27,7.25,12.7,13.24,16.29,5.99,3.59,12.47,5.39,19.45,5.39,8.49,0,15.68-2.45,21.56-7.34,5.88-4.89,9.87-12.16,11.95-21.8Z"/>
      <path class="uuid-ac039ee1-4273-4786-bfcf-8cbdb16244de" d="M1694.07,265.68v-114.53h82.81v13.52h-67.66v35.08h63.36v13.44h-63.36v38.98h70.31v13.52h-85.47Z"/>
      <path class="uuid-ac039ee1-4273-4786-bfcf-8cbdb16244de" d="M1800.71,265.68v-114.53h50.78c10.21,0,17.97,1.03,23.28,3.09,5.31,2.06,9.56,5.69,12.73,10.9,3.18,5.21,4.77,10.96,4.77,17.27,0,8.12-2.63,14.97-7.89,20.55-5.26,5.57-13.39,9.12-24.38,10.62,4.01,1.93,7.06,3.83,9.14,5.7,4.43,4.06,8.62,9.14,12.58,15.23l19.92,31.17h-19.06l-15.16-23.83c-4.43-6.88-8.07-12.13-10.94-15.78-2.87-3.64-5.43-6.2-7.7-7.66-2.27-1.46-4.57-2.47-6.91-3.05-1.72-.36-4.53-.55-8.44-.55h-17.58v50.86h-15.16ZM1815.86,201.7h32.58c6.93,0,12.34-.71,16.25-2.15,3.91-1.43,6.88-3.72,8.91-6.88,2.03-3.15,3.05-6.57,3.05-10.27,0-5.42-1.97-9.87-5.9-13.36-3.93-3.49-10.14-5.23-18.63-5.23h-36.25v37.89Z"/>
    </g>
    <g class="uuid-4621f1d5-8dbf-41a3-a561-bdc23b5297a3">
      <path class="uuid-ac039ee1-4273-4786-bfcf-8cbdb16244de" d="M1199.69,358.89l14.3-1.25c.68,5.73,2.25,10.43,4.73,14.1,2.47,3.67,6.31,6.64,11.52,8.91,5.21,2.27,11.07,3.4,17.58,3.4,5.78,0,10.88-.86,15.31-2.58,4.43-1.72,7.72-4.07,9.88-7.07,2.16-2.99,3.24-6.26,3.24-9.8s-1.04-6.73-3.12-9.41c-2.08-2.68-5.52-4.93-10.31-6.76-3.07-1.2-9.87-3.06-20.39-5.59-10.52-2.53-17.89-4.91-22.11-7.15-5.47-2.86-9.54-6.42-12.23-10.66-2.68-4.24-4.02-9-4.02-14.26,0-5.78,1.64-11.18,4.92-16.21,3.28-5.03,8.07-8.84,14.38-11.45,6.3-2.6,13.31-3.91,21.02-3.91,8.49,0,15.98,1.37,22.46,4.1s11.47,6.76,14.96,12.07c3.49,5.31,5.36,11.33,5.62,18.05l-14.53,1.09c-.78-7.24-3.43-12.71-7.93-16.41-4.51-3.7-11.16-5.55-19.96-5.55s-15.85,1.68-20.04,5.04c-4.19,3.36-6.29,7.41-6.29,12.15,0,4.12,1.48,7.5,4.45,10.16,2.92,2.66,10.53,5.38,22.85,8.16,12.32,2.79,20.77,5.22,25.35,7.3,6.67,3.07,11.59,6.97,14.77,11.68,3.18,4.71,4.77,10.14,4.77,16.29s-1.75,11.84-5.23,17.23c-3.49,5.39-8.5,9.58-15.04,12.58-6.54,2.99-13.89,4.49-22.07,4.49-10.37,0-19.05-1.51-26.05-4.53-7.01-3.02-12.5-7.56-16.48-13.63-3.98-6.07-6.08-12.93-6.29-20.59Z"/>
      <path class="uuid-ac039ee1-4273-4786-bfcf-8cbdb16244de" d="M1340.71,395.68v-101.02h-37.73v-13.52h90.78v13.52h-37.89v101.02h-15.16Z"/>
      <path class="uuid-ac039ee1-4273-4786-bfcf-8cbdb16244de" d="M1484.46,281.15h15.16v66.17c0,11.51-1.3,20.65-3.91,27.42-2.61,6.77-7.3,12.28-14.1,16.52-6.8,4.25-15.72,6.37-26.76,6.37s-19.51-1.85-26.33-5.55c-6.82-3.7-11.69-9.05-14.61-16.05-2.92-7-4.38-16.57-4.38-28.71v-66.17h15.16v66.09c0,9.95.92,17.28,2.77,21.99,1.85,4.71,5.03,8.35,9.53,10.9,4.5,2.55,10.01,3.83,16.52,3.83,11.14,0,19.09-2.53,23.83-7.58,4.74-5.05,7.11-14.77,7.11-29.14v-66.09Z"/>
      <path class="uuid-ac039ee1-4273-4786-bfcf-8cbdb16244de" d="M1524.85,395.68v-114.53h39.45c8.91,0,15.7.55,20.39,1.64,6.56,1.51,12.16,4.25,16.8,8.2,6.04,5.11,10.56,11.63,13.55,19.57,2.99,7.94,4.49,17.02,4.49,27.23,0,8.7-1.02,16.41-3.05,23.12s-4.64,12.28-7.81,16.68c-3.18,4.4-6.65,7.87-10.43,10.39-3.78,2.53-8.33,4.44-13.67,5.74-5.34,1.3-11.47,1.95-18.4,1.95h-41.33ZM1540,382.17h24.45c7.55,0,13.48-.7,17.77-2.11s7.72-3.38,10.27-5.94c3.59-3.59,6.39-8.42,8.4-14.49,2-6.07,3.01-13.42,3.01-22.07,0-11.98-1.97-21.18-5.9-27.62-3.93-6.43-8.71-10.74-14.34-12.93-4.06-1.56-10.6-2.34-19.61-2.34h-24.06v87.5Z"/>
      <path class="uuid-ac039ee1-4273-4786-bfcf-8cbdb16244de" d="M1642.97,395.68v-114.53h15.16v114.53h-15.16Z"/>
      <path class="uuid-ac039ee1-4273-4786-bfcf-8cbdb16244de" d="M1680.24,339.9c0-19.01,5.1-33.89,15.31-44.65,10.21-10.75,23.38-16.13,39.53-16.13,10.57,0,20.1,2.53,28.59,7.58,8.49,5.05,14.96,12.1,19.41,21.13,4.45,9.04,6.68,19.29,6.68,30.74s-2.34,22.01-7.03,31.17c-4.69,9.17-11.33,16.11-19.92,20.82-8.59,4.71-17.87,7.07-27.81,7.07-10.78,0-20.42-2.6-28.91-7.81-8.49-5.21-14.92-12.32-19.3-21.33-4.38-9.01-6.56-18.54-6.56-28.59ZM1695.86,340.14c0,13.8,3.71,24.68,11.13,32.62,7.42,7.94,16.73,11.91,27.93,11.91s20.79-4.01,28.16-12.03c7.37-8.02,11.05-19.4,11.05-34.14,0-9.32-1.58-17.46-4.73-24.41-3.15-6.95-7.76-12.34-13.83-16.17-6.07-3.83-12.88-5.74-20.43-5.74-10.73,0-19.96,3.69-27.7,11.05-7.73,7.37-11.6,19.68-11.6,36.91Z"/>
      <path class="uuid-ac039ee1-4273-4786-bfcf-8cbdb16244de" d="M1804.15,358.89l14.3-1.25c.68,5.73,2.25,10.43,4.73,14.1,2.47,3.67,6.31,6.64,11.52,8.91,5.21,2.27,11.07,3.4,17.58,3.4,5.78,0,10.88-.86,15.31-2.58,4.43-1.72,7.72-4.07,9.88-7.07,2.16-2.99,3.24-6.26,3.24-9.8s-1.04-6.73-3.12-9.41c-2.08-2.68-5.52-4.93-10.31-6.76-3.07-1.2-9.87-3.06-20.39-5.59-10.52-2.53-17.89-4.91-22.11-7.15-5.47-2.86-9.54-6.42-12.23-10.66-2.68-4.24-4.02-9-4.02-14.26,0-5.78,1.64-11.18,4.92-16.21,3.28-5.03,8.07-8.84,14.38-11.45,6.3-2.6,13.31-3.91,21.02-3.91,8.49,0,15.98,1.37,22.46,4.1s11.47,6.76,14.96,12.07c3.49,5.31,5.36,11.33,5.62,18.05l-14.53,1.09c-.78-7.24-3.43-12.71-7.93-16.41-4.51-3.7-11.16-5.55-19.96-5.55s-15.85,1.68-20.04,5.04c-4.19,3.36-6.29,7.41-6.29,12.15,0,4.12,1.48,7.5,4.45,10.16,2.92,2.66,10.53,5.38,22.85,8.16,12.32,2.79,20.77,5.22,25.35,7.3,6.67,3.07,11.59,6.97,14.77,11.68,3.18,4.71,4.77,10.14,4.77,16.29s-1.75,11.84-5.23,17.23c-3.49,5.39-8.5,9.58-15.04,12.58-6.54,2.99-13.89,4.49-22.07,4.49-10.37,0-19.05-1.51-26.05-4.53-7.01-3.02-12.5-7.56-16.48-13.63-3.98-6.07-6.08-12.93-6.29-20.59Z"/>
    </g>
  </g>
</svg>