<?xml version="1.0" encoding="UTF-8"?>
<svg id="uuid-0493803e-9fc9-4aa6-957d-5ebfad3f1fca" data-name="Layer 1" xmlns="http://www.w3.org/2000/svg" viewBox="0 0 1923 325.02">
  <defs>
    <style>
      .uuid-439cbfbf-74ff-4c04-9efa-52d41f762ba8 {
        fill: #fff;
        stroke-width: 0px;
      }

          .st3{fill:#FFFFFF;}
	.st4{fill:#FFFFFF;}
    </style>
  </defs>
  <g>
    <polygon class="st4" points="558.57 204.42 540.69 204.42 595.89 111.89 613.77 111.89 558.57 204.42"/>
    <polygon class="st4" points="606.68 204.42 588.8 204.42 644 111.89 661.88 111.89 606.68 204.42"/>
    <polygon class="st4" points="654.78 204.42 636.91 204.42 692.11 111.89 709.99 111.89 654.78 204.42"/>
    <polygon class="st4" points="702.89 204.42 685.01 204.42 740.22 111.89 758.09 111.89 702.89 204.42"/>
    <polygon class="st4" points="751 204.42 733.12 204.42 788.32 111.89 806.2 111.89 751 204.42"/>
    <polygon class="st4" points="799.11 204.42 781.23 204.42 836.43 111.89 854.31 111.89 799.11 204.42"/>
  </g>
  <polygon class="uuid-439cbfbf-74ff-4c04-9efa-52d41f762ba8" points="43 6.5 43 13 14.68 13 14.68 41.32 8.18 41.32 8.18 6.5 43 6.5"/>
  <polygon class="uuid-439cbfbf-74ff-4c04-9efa-52d41f762ba8" points="1881.65 7.5 1881.65 14 1909.97 14 1909.97 42.32 1916.47 42.32 1916.47 7.5 1881.65 7.5"/>
  <polygon class="uuid-439cbfbf-74ff-4c04-9efa-52d41f762ba8" points="42.33 319.44 42.33 312.95 14.01 312.95 14.01 284.62 7.51 284.62 7.51 319.44 42.33 319.44"/>
  <polygon class="uuid-439cbfbf-74ff-4c04-9efa-52d41f762ba8" points="1881.65 318.44 1881.65 311.95 1909.97 311.95 1909.97 283.62 1916.47 283.62 1916.47 318.44 1881.65 318.44"/>
  <g>
    <rect class="uuid-439cbfbf-74ff-4c04-9efa-52d41f762ba8" x="1680.87" y="73.09" width="2.15" height="50.44"/>
    <rect class="uuid-439cbfbf-74ff-4c04-9efa-52d41f762ba8" x="1689.48" y="73.09" width="4.3" height="50.44"/>
    <rect class="uuid-439cbfbf-74ff-4c04-9efa-52d41f762ba8" x="1700.23" y="73.09" width="2.15" height="50.44"/>
    <rect class="uuid-439cbfbf-74ff-4c04-9efa-52d41f762ba8" x="1704.53" y="73.09" width="2.15" height="50.44"/>
    <rect class="uuid-439cbfbf-74ff-4c04-9efa-52d41f762ba8" x="1715.28" y="73.09" width="2.15" height="50.44"/>
    <rect class="uuid-439cbfbf-74ff-4c04-9efa-52d41f762ba8" x="1719.58" y="73.09" width="8.6" height="50.44"/>
    <rect class="uuid-439cbfbf-74ff-4c04-9efa-52d41f762ba8" x="1730.34" y="73.09" width="2.15" height="50.44"/>
    <rect class="uuid-439cbfbf-74ff-4c04-9efa-52d41f762ba8" x="1734.64" y="73.09" width="2.15" height="50.44"/>
    <rect class="uuid-439cbfbf-74ff-4c04-9efa-52d41f762ba8" x="1743.24" y="73.09" width="4.3" height="50.44"/>
    <rect class="uuid-439cbfbf-74ff-4c04-9efa-52d41f762ba8" x="1749.69" y="73.09" width="6.45" height="50.44"/>
    <rect class="uuid-439cbfbf-74ff-4c04-9efa-52d41f762ba8" x="1760.44" y="73.09" width="2.15" height="50.44"/>
    <rect class="uuid-439cbfbf-74ff-4c04-9efa-52d41f762ba8" x="1764.74" y="73.09" width="2.15" height="50.44"/>
    <rect class="uuid-439cbfbf-74ff-4c04-9efa-52d41f762ba8" x="1775.5" y="73.09" width="2.15" height="50.44"/>
    <rect class="uuid-439cbfbf-74ff-4c04-9efa-52d41f762ba8" x="1779.8" y="73.09" width="2.15" height="50.44"/>
    <rect class="uuid-439cbfbf-74ff-4c04-9efa-52d41f762ba8" x="1784.1" y="73.09" width="2.15" height="50.44"/>
    <rect class="uuid-439cbfbf-74ff-4c04-9efa-52d41f762ba8" x="1788.4" y="73.09" width="2.15" height="50.44"/>
    <rect class="uuid-439cbfbf-74ff-4c04-9efa-52d41f762ba8" x="1792.7" y="73.09" width="6.45" height="50.44"/>
    <rect class="uuid-439cbfbf-74ff-4c04-9efa-52d41f762ba8" x="1803.45" y="73.09" width="2.15" height="50.44"/>
    <rect class="uuid-439cbfbf-74ff-4c04-9efa-52d41f762ba8" x="1809.91" y="73.09" width="6.45" height="50.44"/>
    <rect class="uuid-439cbfbf-74ff-4c04-9efa-52d41f762ba8" x="1818.51" y="73.09" width="4.3" height="50.44"/>
    <rect class="uuid-439cbfbf-74ff-4c04-9efa-52d41f762ba8" x="1824.96" y="73.09" width="4.3" height="50.44"/>
    <rect class="uuid-439cbfbf-74ff-4c04-9efa-52d41f762ba8" x="1833.56" y="73.09" width="2.15" height="50.44"/>
    <rect class="uuid-439cbfbf-74ff-4c04-9efa-52d41f762ba8" x="1840.01" y="73.09" width="6.45" height="50.44"/>
    <rect class="uuid-439cbfbf-74ff-4c04-9efa-52d41f762ba8" x="1848.62" y="73.09" width="2.15" height="50.44"/>
    <rect class="uuid-439cbfbf-74ff-4c04-9efa-52d41f762ba8" x="1859.37" y="73.09" width="2.15" height="50.44"/>
    <rect class="uuid-439cbfbf-74ff-4c04-9efa-52d41f762ba8" x="1863.67" y="73.09" width="6.45" height="50.44"/>
    <rect class="uuid-439cbfbf-74ff-4c04-9efa-52d41f762ba8" x="1874.42" y="73.09" width="2.15" height="50.44"/>
    <rect class="uuid-439cbfbf-74ff-4c04-9efa-52d41f762ba8" x="1878.72" y="73.09" width="2.15" height="50.44"/>
    <rect class="uuid-439cbfbf-74ff-4c04-9efa-52d41f762ba8" x="1883.03" y="73.09" width="2.15" height="50.44"/>
  </g>
  <g>
    <path class="st3" d="M88.76,95.9h14.99l18.15,51.4h-15.91l-2.08-7.34h-15.84l-2.25,7.34h-15.39l18.32-51.4ZM100.82,128.98l-4.46-15.89h-.14l-4.8,15.89h9.4Z"/>
    <path class="st3" d="M163.44,142.08c-.84,1.05-1.77,1.97-2.79,2.77-1.07.82-2.24,1.52-3.51,2.1-1.16.47-2.41.85-3.75,1.16-1.36.28-2.74.42-4.12.42-7.4-.09-13.19-2.68-17.37-7.77-4.22-4.94-6.36-11.17-6.4-18.67.14-9.73,2.83-16.76,8.07-21.09,5.06-4.27,10.56-6.38,16.48-6.33,12.87.19,20.51,6.59,22.92,19.21h-14.72c-.32-1.93-1.12-3.49-2.42-4.69-1.36-1.1-2.98-1.68-4.84-1.73-2.54.05-4.52.62-5.93,1.73-1.43,1.2-2.45,2.67-3.07,4.41-.61,1.67-.97,3.33-1.06,4.97-.09,1.64-.14,2.94-.14,3.88,0,1.22.17,2.57.51,4.05.32,1.5.87,2.95,1.67,4.34.84,1.39,1.98,2.54,3.41,3.46,1.5.96,3.38,1.45,5.65,1.45,1.86,0,3.55-.48,5.08-1.45,1.5-.96,2.45-2.37,2.86-4.23l-6.74-.02v-10.97h20.37v28.23h-9.7l-.48-5.22Z"/>
    <path class="st3" d="M182.98,95.9h41.19v13.15h-25.87v6.44h23.49v12.23h-23.49v6.44h26.65v13.14h-41.98v-51.4Z"/>
    <path class="st3" d="M233.74,95.9h15.7l14.47,27.5h.17v-27.5h14.48v51.4h-14.95l-15.26-28.09h-.14v28.09h-14.48v-51.4Z"/>
    <path class="st3" d="M288.3,95.9h25.18c8.22.14,14.06,2.78,17.51,7.91,3.34,5.09,4.99,10.99,4.94,17.72.12,16.85-8.37,25.44-25.45,25.77h-22.18v-51.4ZM303.63,134.15h6c2.43,0,4.37-.46,5.8-1.38,1.46-.92,2.56-2.02,3.31-3.31.73-1.34,1.24-2.74,1.53-4.2.23-1.48.34-2.8.34-3.95,0-.92-.07-2.06-.21-3.42-.23-1.34-.76-2.68-1.6-4.02-.8-1.36-2.01-2.53-3.65-3.49-1.64-.89-3.84-1.34-6.62-1.34h-4.91v25.11Z"/>
    <path class="st3" d="M358.1,95.9h14.99l18.15,51.4h-15.91l-2.08-7.34h-15.84l-2.25,7.34h-15.39l18.32-51.4ZM370.15,128.98l-4.46-15.89h-.14l-4.8,15.89h9.4Z"/>
    <path class="st3" d="M74.98,167.9h38.47v13.15h-23.15v6.44h19.87v12.23h-19.87v19.58h-15.32v-51.4Z"/>
    <path class="st3" d="M120.33,167.9h41.19v13.15h-25.87v6.44h23.49v12.23h-23.49v6.44h26.65v13.14h-41.98v-51.4Z"/>
    <path class="st3" d="M183.18,202.03c0,1.29.18,2.42.54,3.38.65,1.48,1.76,2.47,3.31,2.96,1.48.52,2.99.78,4.54.78,1.43.05,2.91-.26,4.43-.91,1.5-.68,2.28-1.93,2.33-3.76.05-1.29-.68-2.32-2.18-3.09-1.57-.73-4.55-1.66-8.93-2.81-2.06-.56-4.08-1.18-6.05-1.86-2.06-.68-3.92-1.55-5.59-2.6-1.69-1.05-3.06-2.45-4.11-4.18-1.1-1.62-1.65-3.7-1.65-6.26.09-5.95,2.18-10.29,6.26-13.01,3.9-2.65,8.51-3.97,13.82-3.97,5.56-.05,10.35,1.15,14.37,3.58,3.9,2.6,6.04,6.98,6.4,13.15h-14.52c.18-1.91-.42-3.27-1.81-4.09-1.36-.84-2.87-1.26-4.53-1.26-1.14,0-2.31.21-3.51.63-.55.23-1.01.57-1.4,1.02-.41.47-.61,1.07-.61,1.79.09.87.58,1.58,1.47,2.14.84.63,1.93,1.18,3.27,1.65,2.84.87,6.08,1.76,9.71,2.67,1.93.49,3.78,1.09,5.55,1.79,1.74.68,3.32,1.59,4.75,2.74,1.45,1.15,2.6,2.54,3.44,4.18.77,1.73,1.16,3.77,1.16,6.12-.14,6.59-2.6,11.19-7.4,13.82-4.72,2.65-10.07,3.95-16.04,3.9-1.48,0-3.43-.22-5.83-.67-2.43-.42-4.9-1.25-7.4-2.5-2.48-1.27-4.57-3.14-6.28-5.63-1.74-2.39-2.67-5.63-2.81-9.71h15.28Z"/>
    <path class="st3" d="M230.68,181.04h-13.94v-13.15h43.22v13.15h-13.96v38.25h-15.32v-38.25Z"/>
    <path class="st3" d="M267.14,167.9h15.32v51.4h-15.32v-51.4Z"/>
    <path class="st3" d="M317.93,219.3h-17.15l-14.83-51.4h15.48l8.13,31.19h.17l7.99-31.19h15.75l-15.55,51.4Z"/>
    <path class="st3" d="M347.58,167.9h14.99l18.15,51.4h-15.91l-2.08-7.34h-15.84l-2.25,7.34h-15.39l18.32-51.4ZM359.64,200.98l-4.46-15.89h-.14l-4.8,15.89h9.4Z"/>
    <path class="st3" d="M385.79,167.9h15.32v38.25h22.02v13.14h-37.34v-51.4Z"/>
  </g>
  <g>
    <path class="uuid-439cbfbf-74ff-4c04-9efa-52d41f762ba8" d="M1528.54,134.9h9.79v24.44h14.07v8.4h-23.86v-32.84Z"/>
    <path class="uuid-439cbfbf-74ff-4c04-9efa-52d41f762ba8" d="M1581.61,155.8c0,3.4-1.04,6.31-3.11,8.73-2.06,2.48-5.32,3.75-9.77,3.81-4.4-.06-7.64-1.33-9.73-3.82-2.13-2.43-3.18-5.34-3.13-8.74-.04-3.44,1-6.36,3.13-8.76,2.09-2.44,5.33-3.69,9.73-3.75,4.46.06,7.71,1.31,9.77,3.75,2.07,2.4,3.11,5.32,3.11,8.77ZM1572.81,155.8c0-.65-.03-1.33-.09-2.05-.09-.71-.29-1.34-.58-1.89-.28-.6-.68-1.09-1.19-1.46-.58-.34-1.31-.52-2.2-.52s-1.54.17-2.06.52c-.58.38-1,.86-1.29,1.46-.51,1.23-.75,2.54-.72,3.94,0,.62.06,1.26.19,1.94.09.68.27,1.32.54,1.94.28.62.71,1.1,1.29,1.46.51.41,1.2.61,2.06.61s1.62-.2,2.2-.61c.51-.36.91-.85,1.19-1.46.48-1.26.71-2.55.68-3.87Z"/>
    <path class="uuid-439cbfbf-74ff-4c04-9efa-52d41f762ba8" d="M1586.35,143.86h8.77v3.03h.09c1.61-2.41,4.2-3.62,7.76-3.62,2.16,0,4.01.66,5.57,1.98,1.54,1.32,2.32,3.35,2.35,6.11v16.37h-8.8v-12.53c.03-1.41-.13-2.55-.49-3.42-.38-.85-1.25-1.28-2.63-1.28-.86-.03-1.68.25-2.46.83-.38.3-.7.76-.96,1.37-.25.65-.38,1.45-.38,2.41v12.62h-8.8v-23.88Z"/>
    <path class="uuid-439cbfbf-74ff-4c04-9efa-52d41f762ba8" d="M1640.24,164.68c0,1.17-.1,2.41-.3,3.72-.25,1.31-.78,2.55-1.61,3.72-.77,1.12-1.97,2.03-3.61,2.73-1.64.78-3.8,1.18-6.5,1.21-2.83.03-5.41-.51-7.74-1.61-2.38-1.08-3.82-3.19-4.33-6.34h8.73c.13.25.3.53.5.82.29.43.66.81,1.11,1.14.45.37.94.57,1.48.6.71-.03,1.31-.23,1.79-.61.44-.39.79-.86,1.07-1.42.41-1.23.61-2.38.61-3.46v-2.2h-.09c-1.5,2.17-3.62,3.28-6.38,3.32-3.47-.04-6.03-1.2-7.68-3.46-1.69-2.22-2.54-4.95-2.54-8.2s.89-5.9,2.67-8.04c1.72-2.17,4.28-3.29,7.68-3.35,1.38,0,2.64.25,3.77.76,1.14.58,1.96,1.49,2.47,2.72h.09v-2.9h8.8v20.82ZM1623.55,154.62c0,.65.08,1.32.23,2.03.12.72.34,1.35.65,1.89.61,1.26,1.73,1.91,3.36,1.94.89,0,1.59-.2,2.1-.58.54-.34.93-.81,1.14-1.4.45-1.19.66-2.49.63-3.92,0-1.38-.33-2.5-1-3.35-.67-.87-1.7-1.32-3.11-1.35-1.34.03-2.34.5-3.01,1.4-.67.92-1,2.03-1,3.35Z"/>
    <path class="uuid-439cbfbf-74ff-4c04-9efa-52d41f762ba8" d="M1527.91,172.9h17.77c2.13,0,3.89.26,5.29.79,1.33.51,2.38,1.18,3.13,2.02.76.82,1.29,1.71,1.6,2.67.24.94.36,1.86.36,2.74,0,1.63-.35,2.93-1.06,3.91-.73,1.02-1.73,1.86-2.99,2.54,1.54.49,2.86,1.37,3.95,2.63,1.14,1.29,1.72,3.14,1.75,5.57-.06,3.28-1.23,5.74-3.51,7.39-2.24,1.72-4.86,2.58-7.87,2.58h-18.43v-32.84ZM1537.7,185.7h5.54c1.1,0,1.97-.2,2.61-.59.64-.41.95-1.12.95-2.14,0-.83-.32-1.43-.95-1.81-.64-.3-1.5-.45-2.61-.45h-5.54v4.99ZM1537.7,197.92h6.12c1.14,0,2.11-.22,2.9-.65.76-.42,1.16-1.24,1.21-2.47,0-1.96-1.22-2.96-3.66-2.99h-6.56v6.11Z"/>
    <path class="uuid-439cbfbf-74ff-4c04-9efa-52d41f762ba8" d="M1569.35,195.85c.15,1.35.61,2.45,1.37,3.3.73.9,1.82,1.35,3.26,1.35.78,0,1.52-.16,2.23-.47.7-.27,1.24-.68,1.6-1.24h8.52c-.96,2.58-2.54,4.48-4.73,5.7-2.18,1.23-4.65,1.84-7.42,1.84-3.85-.03-6.99-1.12-9.4-3.28-2.52-2.14-3.79-5.2-3.82-9.19.03-3.59,1.18-6.59,3.44-8.98,2.25-2.35,5.26-3.56,9.02-3.62,9.03.12,13.5,4.98,13.42,14.58h-17.47ZM1578.38,191.13c-.03-1.14-.41-2.1-1.14-2.87-.74-.77-1.74-1.15-3-1.15-2.8.03-4.42,1.37-4.85,4.02h8.99Z"/>
    <path class="uuid-439cbfbf-74ff-4c04-9efa-52d41f762ba8" d="M1614.5,200.41c0,.89.06,1.81.18,2.75.12.92.42,1.78.9,2.57h-9.28c-.24-.76-.34-1.51-.31-2.25h-.09c-.99,1.06-2.12,1.8-3.41,2.2-1.35.43-2.77.65-4.26.65-2.29,0-4.18-.58-5.68-1.75-1.61-1.2-2.42-3.02-2.45-5.47,0-1.87.49-3.32,1.48-4.35.94-1.05,2.12-1.8,3.53-2.27,1.48-.49,2.97-.83,4.47-1.01s2.83-.34,4-.49c.34-.1.67-.2.97-.29.28-.09.55-.2.79-.31.49-.3.74-.81.74-1.53-.03-.82-.34-1.4-.92-1.73-.59-.31-1.28-.47-2.07-.47-1.37.03-2.27.29-2.73.78-.46.55-.7,1.1-.7,1.65h-8.49c.12-1.69.55-3.06,1.29-4.11.73-1.03,1.67-1.81,2.82-2.33,1.17-.55,2.47-.94,3.91-1.15,1.39-.15,2.77-.22,4.13-.22,2.79,0,4.97.25,6.55.76,1.57.52,2.67,1.24,3.31,2.13.67.88,1.08,1.88,1.24,2.99.06,1.12.09,2.27.09,3.44v9.82ZM1606.05,195.03c-1.19.53-2.45.91-3.77,1.15-2.15.27-3.22,1.13-3.22,2.59,0,.59.29,1.09.87,1.51.53.46,1.24.7,2.12.7,1.11,0,2.05-.32,2.8-.97.74-.62,1.14-1.54,1.2-2.77v-2.21Z"/>
    <path class="uuid-439cbfbf-74ff-4c04-9efa-52d41f762ba8" d="M1634.47,190.93c-.1-.99-.43-1.74-.98-2.27-.54-.52-1.29-.79-2.24-.79-.83,0-1.48.17-1.96.52-.54.33-.94.77-1.2,1.33-.28.56-.46,1.19-.55,1.89-.12.74-.17,1.48-.17,2.23,0,.71.06,1.41.17,2.12.09.71.27,1.33.54,1.89.26.55.66,1,1.2,1.33.48.38,1.13.56,1.96.56.99,0,1.79-.35,2.42-1.06.59-.68.94-1.49,1.02-2.45h8.43c-.45,3.25-1.77,5.73-3.96,7.45-2.21,1.75-4.9,2.64-8.07,2.67-3.57-.03-6.51-1.18-8.81-3.46-2.44-2.2-3.67-5.22-3.7-9.05.03-3.83,1.26-6.89,3.7-9.16,2.31-2.23,5.24-3.36,8.81-3.39,3.12,0,5.78.76,7.99,2.29,2.16,1.59,3.42,4.04,3.79,7.37h-8.38Z"/>
    <path class="uuid-439cbfbf-74ff-4c04-9efa-52d41f762ba8" d="M1647.65,172.9h8.81v11.54h.09c.79-.96,1.79-1.73,3-2.31,1.18-.57,2.75-.85,4.72-.85,2.16,0,4.01.66,5.57,1.98,1.54,1.32,2.32,3.35,2.35,6.11v16.37h-8.8v-12.5c.03-1.41-.13-2.54-.49-3.41-.38-.85-1.25-1.28-2.63-1.28-.86-.03-1.68.25-2.46.83-.38.3-.7.75-.96,1.37-.25.64-.38,1.44-.38,2.4v12.59h-8.8v-32.84Z"/>
    <path class="uuid-439cbfbf-74ff-4c04-9efa-52d41f762ba8" d="M1677.86,196.66h9.25v7.2c0,2.2-.4,4.17-1.19,5.92-.84,1.75-2.25,2.99-4.23,3.72-.8.28-1.5.44-2.13.47-.68.06-1.25.09-1.69.09v-4c1.13-.12,2.06-.59,2.8-1.42.71-.8,1.09-1.77,1.15-2.91h-3.95v-9.07Z"/>
    <path class="uuid-439cbfbf-74ff-4c04-9efa-52d41f762ba8" d="M1548.57,223.13c-.03-.35-.12-.8-.26-1.35-.17-.53-.44-1.04-.81-1.55-.35-.58-.86-1.07-1.52-1.44-.65-.33-1.5-.5-2.53-.5-2.23.06-3.8,1.01-4.72,2.86-.93,1.8-1.38,3.86-1.35,6.17-.03,2.31.42,4.37,1.35,6.17.91,1.88,2.49,2.83,4.72,2.86,1.62,0,2.84-.53,3.66-1.6.77-1.02,1.27-2.31,1.5-3.87h9.64c-.03,3.46-1.28,6.55-3.74,9.27-2.47,2.83-6.06,4.29-10.79,4.38-5.13-.06-9.1-1.73-11.9-5.01-2.81-3.19-4.22-7.25-4.22-12.2.03-5.27,1.49-9.44,4.4-12.51,2.86-3.1,6.77-4.66,11.73-4.69,8.73.24,13.53,4.58,14.4,13.02h-9.55Z"/>
    <path class="uuid-439cbfbf-74ff-4c04-9efa-52d41f762ba8" d="M1586.35,238.41c0,.89.06,1.81.18,2.75.12.92.42,1.78.9,2.57h-9.28c-.24-.76-.34-1.51-.31-2.25h-.09c-.99,1.06-2.12,1.8-3.41,2.2-1.35.43-2.77.65-4.26.65-2.29,0-4.18-.58-5.68-1.75-1.61-1.2-2.42-3.02-2.45-5.47,0-1.87.49-3.32,1.48-4.35.94-1.05,2.12-1.8,3.53-2.27,1.48-.49,2.97-.83,4.47-1.01s2.83-.34,4-.49c.34-.1.67-.2.97-.29.28-.09.55-.2.79-.31.49-.3.74-.81.74-1.53-.03-.82-.34-1.4-.92-1.73-.59-.31-1.28-.47-2.07-.47-1.37.03-2.27.29-2.73.78-.46.55-.7,1.1-.7,1.65h-8.49c.12-1.69.55-3.06,1.29-4.11.73-1.03,1.67-1.81,2.82-2.33,1.17-.55,2.47-.94,3.91-1.15,1.39-.15,2.77-.22,4.13-.22,2.79,0,4.97.25,6.55.76,1.57.52,2.67,1.24,3.31,2.13.67.88,1.08,1.88,1.24,2.99.06,1.12.09,2.27.09,3.44v9.82ZM1577.91,233.03c-1.19.53-2.45.91-3.77,1.15-2.15.27-3.22,1.13-3.22,2.59,0,.59.29,1.09.87,1.51.53.46,1.24.7,2.12.7,1.11,0,2.05-.32,2.8-.97.74-.62,1.14-1.54,1.2-2.77v-2.21Z"/>
    <path class="uuid-439cbfbf-74ff-4c04-9efa-52d41f762ba8" d="M1591.59,210.9h8.8v32.84h-8.8v-32.84Z"/>
    <path class="uuid-439cbfbf-74ff-4c04-9efa-52d41f762ba8" d="M1614.88,217.27h-8.8v-6.38h8.8v6.38ZM1606.08,219.86h8.8v23.88h-8.8v-23.88Z"/>
    <path class="uuid-439cbfbf-74ff-4c04-9efa-52d41f762ba8" d="M1621.87,225.47h-3.62v-5.61h3.62c-.06-1.23.03-2.44.26-3.64.25-1.15.77-2.18,1.56-3.08.96-.97,2.04-1.6,3.26-1.89,1.21-.24,2.69-.36,4.43-.36,1.35.03,2.67.09,3.97.18v6.26c-.36-.07-.72-.16-1.08-.25-.38-.06-.75-.09-1.12-.09-1.09,0-1.84.19-2.25.56-.43.42-.62,1.18-.56,2.29h4.78v5.61h-4.45v18.26h-8.8v-18.26Z"/>
    <path class="uuid-439cbfbf-74ff-4c04-9efa-52d41f762ba8" d="M1662.52,231.8c0,3.4-1.04,6.31-3.11,8.73-2.06,2.48-5.32,3.75-9.77,3.81-4.4-.06-7.64-1.33-9.73-3.82-2.13-2.43-3.18-5.34-3.13-8.74-.04-3.44,1-6.36,3.13-8.76,2.09-2.44,5.33-3.69,9.73-3.75,4.46.06,7.71,1.31,9.77,3.75,2.07,2.4,3.11,5.32,3.11,8.77ZM1653.71,231.8c0-.65-.03-1.33-.09-2.05-.09-.71-.29-1.34-.58-1.89-.28-.6-.68-1.09-1.19-1.46-.58-.34-1.31-.52-2.2-.52s-1.54.17-2.06.52c-.58.38-1,.86-1.29,1.46-.51,1.23-.75,2.54-.72,3.94,0,.62.06,1.26.19,1.94.09.68.27,1.32.54,1.94.28.62.71,1.1,1.29,1.46.51.41,1.2.61,2.06.61s1.62-.2,2.2-.61c.51-.36.91-.85,1.19-1.46.48-1.26.71-2.55.68-3.87Z"/>
    <path class="uuid-439cbfbf-74ff-4c04-9efa-52d41f762ba8" d="M1667.26,219.86h8.46v3.82h.09c.71-1.44,1.59-2.54,2.63-3.3,1-.73,2.29-1.1,3.87-1.1.88,0,1.75.12,2.59.36v8.04c-.42-.18-.89-.33-1.39-.45-.51-.09-1.2-.13-2.09-.13-3.54-.06-5.33,2.34-5.35,7.21v9.43h-8.8v-23.88Z"/>
    <path class="uuid-439cbfbf-74ff-4c04-9efa-52d41f762ba8" d="M1688.51,219.86h8.77v3.03h.09c1.61-2.41,4.2-3.62,7.76-3.62,2.16,0,4.01.66,5.57,1.98,1.54,1.32,2.32,3.35,2.35,6.11v16.37h-8.8v-12.53c.03-1.41-.13-2.55-.49-3.42-.38-.85-1.25-1.28-2.63-1.28-.86-.03-1.68.25-2.46.83-.38.3-.7.76-.96,1.37-.25.65-.38,1.45-.38,2.41v12.62h-8.8v-23.88Z"/>
    <path class="uuid-439cbfbf-74ff-4c04-9efa-52d41f762ba8" d="M1727.29,217.27h-8.8v-6.38h8.8v6.38ZM1718.49,219.86h8.8v23.88h-8.8v-23.88Z"/>
    <path class="uuid-439cbfbf-74ff-4c04-9efa-52d41f762ba8" d="M1755.84,238.41c0,.89.06,1.81.18,2.75.12.92.42,1.78.9,2.57h-9.28c-.24-.76-.34-1.51-.31-2.25h-.09c-.99,1.06-2.12,1.8-3.41,2.2-1.35.43-2.77.65-4.26.65-2.29,0-4.18-.58-5.68-1.75-1.61-1.2-2.42-3.02-2.45-5.47,0-1.87.49-3.32,1.48-4.35.94-1.05,2.12-1.8,3.53-2.27,1.48-.49,2.97-.83,4.47-1.01s2.83-.34,4-.49c.34-.1.67-.2.97-.29.28-.09.55-.2.79-.31.49-.3.74-.81.74-1.53-.03-.82-.34-1.4-.92-1.73-.59-.31-1.28-.47-2.07-.47-1.37.03-2.27.29-2.73.78-.46.55-.7,1.1-.7,1.65h-8.49c.12-1.69.55-3.06,1.29-4.11.73-1.03,1.67-1.81,2.82-2.33,1.17-.55,2.47-.94,3.91-1.15,1.39-.15,2.77-.22,4.13-.22,2.79,0,4.97.25,6.55.76,1.57.52,2.67,1.24,3.31,2.13.67.88,1.08,1.88,1.24,2.99.06,1.12.09,2.27.09,3.44v9.82ZM1747.4,233.03c-1.19.53-2.45.91-3.77,1.15-2.15.27-3.22,1.13-3.22,2.59,0,.59.29,1.09.87,1.51.53.46,1.24.7,2.12.7,1.11,0,2.05-.32,2.8-.97.74-.62,1.14-1.54,1.2-2.77v-2.21Z"/>
  </g>
  <g>
    <path class="uuid-439cbfbf-74ff-4c04-9efa-52d41f762ba8" d="M1550.49,103.91h5.66v4.48h-5.66v10.5h-4.96v-10.5h-21.06v-4.78l20.65-26.73h5.37v27.02ZM1545.54,103.91v-20.53l-15.87,20.53h15.87Z"/>
    <path class="uuid-439cbfbf-74ff-4c04-9efa-52d41f762ba8" d="M1565.07,114.41h22.18v4.48h-27.73l.12-2.3c.24-3.46,1.02-6.43,2.36-8.91,1.34-2.48,3.6-4.64,6.79-6.49l5.31-3.07c2.67-1.57,4.57-3.11,5.69-4.6,1.12-1.49,1.68-3.3,1.68-5.43,0-2.32-.74-4.18-2.21-5.58-1.48-1.4-3.51-2.09-6.11-2.09-5.86,0-8.79,3.01-8.79,9.03h-4.9c-.04-4.29,1.16-7.61,3.6-9.97,2.44-2.36,5.84-3.54,10.21-3.54,3.97,0,7.2,1.12,9.68,3.36,2.48,2.32,3.72,5.25,3.72,8.79,0,5.43-3.19,9.99-9.56,13.69l-4.48,2.6c-2.6,1.57-4.46,3.1-5.61,4.57-1.14,1.47-1.79,3.29-1.95,5.46Z"/>
    <path class="uuid-439cbfbf-74ff-4c04-9efa-52d41f762ba8" d="M1604.83,91.52c4.48,0,7.98,1.32,10.5,3.95,2.52,2.63,3.78,6.04,3.78,10.21s-1.32,7.51-3.95,10.15c-2.67,2.68-6.21,4.01-10.62,4.01-4.01,0-7.34-1.16-9.97-3.48-2.64-2.28-4.07-5.33-4.31-9.15h4.96c.24,2.52,1.22,4.5,2.95,5.96,1.73,1.46,3.85,2.18,6.37,2.18,2.75,0,5-.89,6.76-2.68,1.75-1.79,2.63-4.12,2.63-6.99s-.88-5.2-2.63-6.99c-1.75-1.79-4-2.68-6.76-2.68-4.13,0-7,1.69-8.61,5.07h-4.6l3.54-24.19h21.71v4.48h-17.7l-2.01,13.22c2.28-2.04,4.94-3.07,7.97-3.07Z"/>
    <path class="uuid-439cbfbf-74ff-4c04-9efa-52d41f762ba8" d="M1628.02,114.41h22.18v4.48h-27.73l.12-2.3c.24-3.46,1.02-6.43,2.36-8.91,1.34-2.48,3.6-4.64,6.79-6.49l5.31-3.07c2.67-1.57,4.57-3.11,5.69-4.6,1.12-1.49,1.68-3.3,1.68-5.43,0-2.32-.74-4.18-2.21-5.58-1.48-1.4-3.51-2.09-6.11-2.09-5.86,0-8.79,3.01-8.79,9.03h-4.9c-.04-4.29,1.16-7.61,3.6-9.97,2.44-2.36,5.84-3.54,10.21-3.54,3.97,0,7.2,1.12,9.68,3.36,2.48,2.32,3.72,5.25,3.72,8.79,0,5.43-3.19,9.99-9.56,13.69l-4.48,2.6c-2.6,1.57-4.46,3.1-5.61,4.57-1.14,1.47-1.79,3.29-1.95,5.46Z"/>
  </g>
  <g>
    <path class="uuid-439cbfbf-74ff-4c04-9efa-52d41f762ba8" d="M1267.03,133.41h-4.54l-4.23-10.56h-16.52l-4.18,10.56h-4.49l14.48-36.31h4.79l14.69,36.31ZM1243.42,118.57l-.15.41h13.46l-.2-.46c-.85-2.07-3.06-7.67-6.63-16.78-2.41,6.46-4.57,12.07-6.48,16.83Z"/>
    <path class="uuid-439cbfbf-74ff-4c04-9efa-52d41f762ba8" d="M1282.69,106.68c.68,0,1.14.02,1.38.05v3.93h-1.02c-2.72,0-4.84.67-6.35,2.01s-2.27,3.26-2.27,5.74v14.99h-4.08v-26.32h3.88v4.64c1.77-3.37,4.59-5.05,8.47-5.05Z"/>
    <path class="uuid-439cbfbf-74ff-4c04-9efa-52d41f762ba8" d="M1299.67,107.09v3.57h-5.41v17.08c0,1.5,1,2.24,3.01,2.24h2.4v3.42c-1.12.1-2.09.15-2.91.15-4.39,0-6.58-1.82-6.58-5.46v-17.44h-4.33v-3.57h4.33v-7.45h4.08v7.45h5.41Z"/>
    <path class="uuid-439cbfbf-74ff-4c04-9efa-52d41f762ba8" d="M1313.95,97.1h12.24c5.51,0,9.86,1.6,13.06,4.79,3.16,3.2,4.74,7.65,4.74,13.36s-1.58,10.08-4.74,13.31c-3.23,3.23-7.58,4.85-13.06,4.85h-12.24v-36.31ZM1318.23,129.53h7.96c4.28,0,7.57-1.26,9.87-3.77,2.29-2.52,3.44-6.02,3.44-10.51s-1.15-7.99-3.44-10.51c-2.29-2.52-5.58-3.77-9.87-3.77h-7.96v28.56Z"/>
    <path class="uuid-439cbfbf-74ff-4c04-9efa-52d41f762ba8" d="M1353.01,103.11h-4.33v-5h4.33v5ZM1352.91,133.41h-4.08v-26.32h4.08v26.32Z"/>
    <path class="uuid-439cbfbf-74ff-4c04-9efa-52d41f762ba8" d="M1371.37,106.68c.68,0,1.14.02,1.38.05v3.93h-1.02c-2.72,0-4.84.67-6.35,2.01s-2.27,3.26-2.27,5.74v14.99h-4.08v-26.32h3.88v4.64c1.77-3.37,4.59-5.05,8.47-5.05Z"/>
    <path class="uuid-439cbfbf-74ff-4c04-9efa-52d41f762ba8" d="M1398,120.25v1.43h-19.99c.2,2.86,1,5.01,2.4,6.45,1.39,1.45,3.3,2.17,5.71,2.17,3.64,0,5.97-1.63,6.99-4.9h4.23c-.71,2.65-2.04,4.75-3.98,6.3-1.94,1.55-4.39,2.32-7.34,2.32-3.64,0-6.58-1.24-8.82-3.72-2.28-2.48-3.42-5.83-3.42-10.05s1.12-7.48,3.37-10c2.21-2.52,5.13-3.77,8.77-3.77s6.73,1.31,8.87,3.93c2.14,2.62,3.21,5.9,3.21,9.84ZM1385.91,110.2c-2.14,0-3.89.67-5.25,2.01-1.36,1.34-2.21,3.27-2.55,5.79h15.5c-.2-2.31-.99-4.19-2.35-5.64-1.36-1.44-3.15-2.17-5.36-2.17Z"/>
    <path class="uuid-439cbfbf-74ff-4c04-9efa-52d41f762ba8" d="M1413.75,134.02c-3.64,0-6.58-1.26-8.82-3.77-2.24-2.52-3.37-5.85-3.37-10s1.12-7.56,3.37-10.05c2.17-2.48,5.12-3.72,8.82-3.72,3.13,0,5.7.85,7.7,2.55s3.21,4.03,3.62,6.99h-4.23c-.31-1.87-1.11-3.31-2.42-4.33-1.31-1.02-2.87-1.53-4.67-1.53-2.41,0-4.33.88-5.76,2.63-1.43,1.75-2.14,4.24-2.14,7.47s.72,5.68,2.17,7.45,3.36,2.65,5.74,2.65c1.8,0,3.37-.53,4.69-1.58,1.33-1.05,2.14-2.52,2.45-4.39h4.18c-.44,2.96-1.69,5.3-3.75,7.04-2.06,1.73-4.58,2.6-7.57,2.6Z"/>
    <path class="uuid-439cbfbf-74ff-4c04-9efa-52d41f762ba8" d="M1439.92,107.09v3.57h-5.41v17.08c0,1.5,1,2.24,3.01,2.24h2.4v3.42c-1.12.1-2.09.15-2.91.15-4.39,0-6.58-1.82-6.58-5.46v-17.44h-4.33v-3.57h4.33v-7.45h4.08v7.45h5.41Z"/>
    <path class="uuid-439cbfbf-74ff-4c04-9efa-52d41f762ba8" d="M1448.43,103.11h-4.33v-5h4.33v5ZM1448.33,133.41h-4.08v-26.32h4.08v26.32Z"/>
    <path class="uuid-439cbfbf-74ff-4c04-9efa-52d41f762ba8" d="M1475.11,130.25c-2.41,2.52-5.47,3.77-9.18,3.77s-6.77-1.26-9.18-3.77c-2.38-2.48-3.57-5.81-3.57-10s1.19-7.51,3.57-10c2.41-2.52,5.47-3.77,9.18-3.77s6.77,1.26,9.18,3.77c2.38,2.48,3.57,5.81,3.57,10s-1.19,7.51-3.57,10ZM1459.76,127.64c1.53,1.8,3.59,2.7,6.17,2.7s4.64-.9,6.17-2.7c1.53-1.77,2.29-4.23,2.29-7.39s-.76-5.68-2.29-7.45c-1.53-1.77-3.59-2.65-6.17-2.65s-4.64.88-6.17,2.65c-1.53,1.77-2.29,4.25-2.29,7.45s.76,5.63,2.29,7.39Z"/>
    <path class="uuid-439cbfbf-74ff-4c04-9efa-52d41f762ba8" d="M1495.66,106.48c2.92,0,5.2.8,6.83,2.4,1.63,1.6,2.45,3.84,2.45,6.73v17.8h-4.08v-17.39c0-3.91-2.01-5.86-6.02-5.86-1.9,0-3.59.71-5.05,2.14s-2.19,3.5-2.19,6.22v14.89h-4.08v-26.32h3.88v3.93c2.01-3.03,4.76-4.54,8.26-4.54Z"/>
    <path class="uuid-439cbfbf-74ff-4c04-9efa-52d41f762ba8" d="M1175.13,152.1v32.44h18.26v3.88h-22.54v-36.31h4.28Z"/>
    <path class="uuid-439cbfbf-74ff-4c04-9efa-52d41f762ba8" d="M1201.65,158.11h-4.33v-5h4.33v5ZM1201.54,188.41h-4.08v-26.32h4.08v26.32Z"/>
    <path class="uuid-439cbfbf-74ff-4c04-9efa-52d41f762ba8" d="M1220.82,173.77l4.33-11.68h4.39l-10.35,26.32h-4.28l-10.3-26.32h4.44l4.33,11.73c2.14,5.75,3.38,9.15,3.72,10.2.61-1.8,1.85-5.22,3.72-10.25Z"/>
    <path class="uuid-439cbfbf-74ff-4c04-9efa-52d41f762ba8" d="M1254.28,175.25v1.43h-19.99c.2,2.86,1,5.01,2.4,6.45,1.39,1.45,3.3,2.17,5.71,2.17,3.64,0,5.97-1.63,6.99-4.9h4.23c-.71,2.65-2.04,4.75-3.98,6.3-1.94,1.55-4.39,2.32-7.34,2.32-3.64,0-6.58-1.24-8.82-3.72-2.28-2.48-3.42-5.83-3.42-10.05s1.12-7.48,3.37-10c2.21-2.52,5.13-3.77,8.77-3.77s6.73,1.31,8.87,3.93c2.14,2.62,3.21,5.9,3.21,9.84ZM1242.19,165.2c-2.14,0-3.89.67-5.25,2.01-1.36,1.34-2.21,3.27-2.55,5.79h15.5c-.2-2.31-.99-4.19-2.35-5.64-1.36-1.44-3.15-2.17-5.36-2.17Z"/>
    <path class="uuid-439cbfbf-74ff-4c04-9efa-52d41f762ba8" d="M1269.07,152.1h15.1c3.84,0,6.81,1,8.9,3.01,2.09,2.01,3.14,4.73,3.14,8.16s-1.05,6.15-3.14,8.16c-2.09,2.01-5.06,3.01-8.9,3.01h-10.81v13.97h-4.28v-36.31ZM1273.35,170.56h10.81c2.52,0,4.41-.62,5.69-1.86,1.27-1.24,1.91-3.05,1.91-5.43s-.64-4.19-1.91-5.43c-1.28-1.24-3.17-1.86-5.69-1.86h-10.81v14.59Z"/>
    <path class="uuid-439cbfbf-74ff-4c04-9efa-52d41f762ba8" d="M1312.57,161.68c.68,0,1.14.02,1.38.05v3.93h-1.02c-2.72,0-4.84.67-6.35,2.01s-2.27,3.26-2.27,5.74v14.99h-4.08v-26.32h3.88v4.64c1.77-3.37,4.59-5.05,8.47-5.05Z"/>
    <path class="uuid-439cbfbf-74ff-4c04-9efa-52d41f762ba8" d="M1336.9,185.25c-2.41,2.52-5.47,3.77-9.18,3.77s-6.77-1.26-9.18-3.77c-2.38-2.48-3.57-5.81-3.57-10s1.19-7.51,3.57-10c2.41-2.52,5.47-3.77,9.18-3.77s6.77,1.26,9.18,3.77c2.38,2.48,3.57,5.81,3.57,10s-1.19,7.51-3.57,10ZM1321.55,182.64c1.53,1.8,3.59,2.7,6.17,2.7s4.64-.9,6.17-2.7c1.53-1.77,2.29-4.23,2.29-7.39s-.76-5.68-2.29-7.45c-1.53-1.77-3.59-2.65-6.17-2.65s-4.64.88-6.17,2.65c-1.53,1.77-2.29,4.25-2.29,7.45s.76,5.63,2.29,7.39Z"/>
    <path class="uuid-439cbfbf-74ff-4c04-9efa-52d41f762ba8" d="M1365.1,165.87v-13.77h4.08v36.31h-3.88v-4.08c-2.11,3.13-5.12,4.69-9.03,4.69-3.71,0-6.67-1.26-8.87-3.77-2.24-2.52-3.37-5.85-3.37-10s1.12-7.56,3.37-10.05c2.17-2.48,5.13-3.72,8.87-3.72s6.71,1.46,8.82,4.39ZM1350.62,182.75c1.53,1.73,3.59,2.6,6.17,2.6s4.64-.9,6.17-2.7c1.53-1.77,2.29-4.23,2.29-7.39s-.76-5.59-2.29-7.4c-1.53-1.8-3.59-2.7-6.17-2.7s-4.6.93-6.15,2.78c-1.55,1.85-2.32,4.36-2.32,7.52s.76,5.56,2.29,7.29Z"/>
    <path class="uuid-439cbfbf-74ff-4c04-9efa-52d41f762ba8" d="M1392.64,176.98v-14.89h4.08v26.32h-3.88v-3.93c-2.01,3.03-4.76,4.54-8.26,4.54-2.92,0-5.2-.8-6.83-2.4-1.63-1.6-2.45-3.84-2.45-6.73v-17.8h4.08v17.39c0,3.91,2.01,5.86,6.02,5.86,1.9,0,3.59-.71,5.05-2.14s2.19-3.5,2.19-6.22Z"/>
    <path class="uuid-439cbfbf-74ff-4c04-9efa-52d41f762ba8" d="M1413.75,189.02c-3.64,0-6.58-1.26-8.82-3.77-2.24-2.52-3.37-5.85-3.37-10s1.12-7.56,3.37-10.05c2.17-2.48,5.12-3.72,8.82-3.72,3.13,0,5.7.85,7.7,2.55s3.21,4.03,3.62,6.99h-4.23c-.31-1.87-1.11-3.31-2.42-4.33-1.31-1.02-2.87-1.53-4.67-1.53-2.41,0-4.33.88-5.76,2.63-1.43,1.75-2.14,4.24-2.14,7.47s.72,5.68,2.17,7.45,3.36,2.65,5.74,2.65c1.8,0,3.37-.53,4.69-1.58,1.33-1.05,2.14-2.52,2.45-4.39h4.18c-.44,2.96-1.69,5.3-3.75,7.04-2.06,1.73-4.58,2.6-7.57,2.6Z"/>
    <path class="uuid-439cbfbf-74ff-4c04-9efa-52d41f762ba8" d="M1439.92,162.09v3.57h-5.41v17.08c0,1.5,1,2.24,3.01,2.24h2.4v3.42c-1.12.1-2.09.15-2.91.15-4.39,0-6.58-1.82-6.58-5.46v-17.44h-4.33v-3.57h4.33v-7.45h4.08v7.45h5.41Z"/>
    <path class="uuid-439cbfbf-74ff-4c04-9efa-52d41f762ba8" d="M1448.43,158.11h-4.33v-5h4.33v5ZM1448.33,188.41h-4.08v-26.32h4.08v26.32Z"/>
    <path class="uuid-439cbfbf-74ff-4c04-9efa-52d41f762ba8" d="M1475.11,185.25c-2.41,2.52-5.47,3.77-9.18,3.77s-6.77-1.26-9.18-3.77c-2.38-2.48-3.57-5.81-3.57-10s1.19-7.51,3.57-10c2.41-2.52,5.47-3.77,9.18-3.77s6.77,1.26,9.18,3.77c2.38,2.48,3.57,5.81,3.57,10s-1.19,7.51-3.57,10ZM1459.76,182.64c1.53,1.8,3.59,2.7,6.17,2.7s4.64-.9,6.17-2.7c1.53-1.77,2.29-4.23,2.29-7.39s-.76-5.68-2.29-7.45c-1.53-1.77-3.59-2.65-6.17-2.65s-4.64.88-6.17,2.65c-1.53,1.77-2.29,4.25-2.29,7.45s.76,5.63,2.29,7.39Z"/>
    <path class="uuid-439cbfbf-74ff-4c04-9efa-52d41f762ba8" d="M1495.66,161.48c2.92,0,5.2.8,6.83,2.4,1.63,1.6,2.45,3.84,2.45,6.73v17.8h-4.08v-17.39c0-3.91-2.01-5.86-6.02-5.86-1.9,0-3.59.71-5.05,2.14s-2.19,3.5-2.19,6.22v14.89h-4.08v-26.32h3.88v3.93c2.01-3.03,4.76-4.54,8.26-4.54Z"/>
    <path class="uuid-439cbfbf-74ff-4c04-9efa-52d41f762ba8" d="M1091.49,207.1h12.24c5.51,0,9.86,1.6,13.06,4.79,3.16,3.2,4.74,7.65,4.74,13.36s-1.58,10.08-4.74,13.31c-3.23,3.23-7.58,4.84-13.06,4.84h-12.24v-36.31ZM1095.77,239.53h7.96c4.28,0,7.57-1.26,9.87-3.77,2.29-2.52,3.44-6.02,3.44-10.51s-1.15-7.99-3.44-10.51c-2.29-2.52-5.58-3.77-9.87-3.77h-7.96v28.56Z"/>
    <path class="uuid-439cbfbf-74ff-4c04-9efa-52d41f762ba8" d="M1149.58,230.25v1.43h-19.99c.2,2.86,1,5.01,2.4,6.45,1.39,1.45,3.3,2.17,5.71,2.17,3.64,0,5.97-1.63,6.99-4.9h4.23c-.71,2.65-2.04,4.75-3.98,6.3-1.94,1.55-4.39,2.32-7.34,2.32-3.64,0-6.58-1.24-8.82-3.72-2.28-2.48-3.42-5.83-3.42-10.05s1.12-7.48,3.37-10c2.21-2.52,5.13-3.77,8.77-3.77s6.73,1.31,8.87,3.93c2.14,2.62,3.21,5.9,3.21,9.84ZM1137.49,220.2c-2.14,0-3.89.67-5.25,2.01-1.36,1.34-2.21,3.27-2.55,5.79h15.5c-.2-2.31-.99-4.19-2.35-5.63-1.36-1.45-3.15-2.17-5.36-2.17Z"/>
    <path class="uuid-439cbfbf-74ff-4c04-9efa-52d41f762ba8" d="M1163.45,244.02c-7.04,0-10.76-2.99-11.17-8.98h4.13c.24,1.97.89,3.38,1.96,4.21s2.76,1.25,5.07,1.25c4.22,0,6.32-1.36,6.32-4.08,0-1.19-.43-2.09-1.3-2.7-.87-.61-2.44-1.14-4.72-1.58l-2.45-.46c-5.47-1.02-8.21-3.6-8.21-7.75,0-2.28.86-4.09,2.58-5.43s4.05-2.01,7.01-2.01c6.97,0,10.54,2.91,10.71,8.72h-4.08c-.1-1.9-.68-3.25-1.73-4.03-1.05-.78-2.69-1.17-4.9-1.17-1.77,0-3.13.34-4.08,1.02-.95.68-1.43,1.63-1.43,2.86,0,1.16.41,2.02,1.22,2.6s2.18,1.07,4.08,1.48l2.35.46c3.23.65,5.55,1.56,6.96,2.75,1.41,1.19,2.12,2.86,2.12,5,0,2.48-.93,4.41-2.78,5.79-1.85,1.38-4.41,2.07-7.68,2.07Z"/>
    <path class="uuid-439cbfbf-74ff-4c04-9efa-52d41f762ba8" d="M1182.17,213.11h-4.33v-5h4.33v5ZM1182.06,243.41h-4.08v-26.32h4.08v26.32Z"/>
    <path class="uuid-439cbfbf-74ff-4c04-9efa-52d41f762ba8" d="M1208.17,220.92v-3.83h3.88v25.3c0,3.6-1.05,6.44-3.16,8.52-2.11,2.07-5.13,3.11-9.08,3.11-3.26,0-5.88-.75-7.85-2.24-1.97-1.5-3.09-3.57-3.37-6.22h4.08c.51,3.33,2.89,5,7.14,5,5.44,0,8.16-2.72,8.16-8.16v-2.55c-2.07,2.79-5.02,4.18-8.82,4.18s-6.67-1.26-8.87-3.77c-2.24-2.52-3.37-5.85-3.37-10s1.12-7.56,3.37-10.05c2.17-2.48,5.13-3.72,8.87-3.72s6.92,1.48,9.03,4.44ZM1199.66,240.35c2.58,0,4.64-.9,6.17-2.7s2.29-4.27,2.29-7.4-.76-5.59-2.29-7.39c-1.53-1.8-3.59-2.7-6.17-2.7s-4.6.92-6.15,2.75c-1.55,1.84-2.32,4.28-2.32,7.34s.77,5.51,2.32,7.34c1.55,1.84,3.6,2.75,6.15,2.75Z"/>
    <path class="uuid-439cbfbf-74ff-4c04-9efa-52d41f762ba8" d="M1230.31,216.48c2.92,0,5.2.8,6.83,2.4,1.63,1.6,2.45,3.84,2.45,6.73v17.8h-4.08v-17.39c0-3.91-2.01-5.87-6.02-5.87-1.9,0-3.59.71-5.05,2.14-1.46,1.43-2.19,3.5-2.19,6.22v14.89h-4.08v-26.32h3.88v3.93c2.01-3.03,4.76-4.54,8.26-4.54Z"/>
    <path class="uuid-439cbfbf-74ff-4c04-9efa-52d41f762ba8" d="M1268.3,216.48c3.71,0,6.68,1.24,8.92,3.72,2.21,2.52,3.32,5.87,3.32,10.05s-1.11,7.48-3.32,10c-2.24,2.52-5.22,3.77-8.92,3.77-3.91,0-6.92-1.56-9.03-4.69v4.08h-3.88v-36.31h4.08v13.77c2.11-2.92,5.05-4.39,8.82-4.39ZM1267.79,240.35c2.55,0,4.6-.93,6.15-2.78,1.55-1.85,2.32-4.36,2.32-7.52s-.76-5.52-2.27-7.27c-1.51-1.75-3.58-2.63-6.2-2.63s-4.64.88-6.17,2.65c-1.53,1.77-2.29,4.25-2.29,7.45s.76,5.63,2.29,7.4c1.53,1.8,3.59,2.7,6.17,2.7Z"/>
    <path class="uuid-439cbfbf-74ff-4c04-9efa-52d41f762ba8" d="M1296.81,228.01l3.72-10.91h4.44l-11.12,30.45c-.78,2.21-1.85,3.77-3.21,4.67-1.36.9-3.15,1.35-5.35,1.35-.75,0-1.56-.05-2.45-.15v-3.42h2.4c2.35,0,3.94-1.09,4.79-3.26l.92-2.45-9.89-27.18h4.49l3.72,10.97c1.33,3.88,2.58,7.67,3.77,11.37.99-3.16,2.24-6.97,3.77-11.42Z"/>
    <path class="uuid-439cbfbf-74ff-4c04-9efa-52d41f762ba8" d="M1327.21,220.41l-4.84,6.68-2.55-2.04,4.9-6.78-7.75-2.5,1.07-3.06,7.55,2.45v-8.06h3.26v8.06l7.55-2.45,1.07,3.06-7.75,2.5,4.9,6.78-2.55,2.04-4.84-6.68Z"/>
    <path class="uuid-439cbfbf-74ff-4c04-9efa-52d41f762ba8" d="M1365.25,227.14l8.11-20.04h5.61v36.31h-4.18v-11.63c0-7.65.05-13.82.15-18.51-.82,2.24-1.89,5-3.21,8.26l-8.98,21.88h-3.67l-9.03-21.88c-1.33-3.26-2.4-6.02-3.21-8.26.1,4.69.15,10.86.15,18.51v11.63h-4.18v-36.31h5.61l8.42,20.66c1.26,3.09,2.63,6.58,4.13,10.46,2.07-5.51,3.5-9.2,4.28-11.07Z"/>
    <path class="uuid-439cbfbf-74ff-4c04-9efa-52d41f762ba8" d="M1403.4,215.56l5.3-8.47h4.84l-13.87,21.73v14.59h-4.28v-14.59l-13.87-21.73h4.9l5.35,8.52c2.31,3.6,4.25,6.73,5.81,9.38,2.18-3.67,4.11-6.82,5.81-9.43Z"/>
    <path class="uuid-439cbfbf-74ff-4c04-9efa-52d41f762ba8" d="M1420.38,207.1v32.44h18.26v3.88h-22.54v-36.31h4.28Z"/>
    <path class="uuid-439cbfbf-74ff-4c04-9efa-52d41f762ba8" d="M1455.42,228.62v-3.88h15.45v18.67h-3.52l-.92-4.9c-2.69,3.81-6.65,5.71-11.88,5.71s-9.35-1.75-12.44-5.25c-3.16-3.47-4.74-8.04-4.74-13.72s1.56-10.23,4.69-13.77c3.09-3.47,7.28-5.2,12.55-5.2,4.32,0,7.89,1.16,10.71,3.47,2.82,2.31,4.54,5.39,5.15,9.23h-4.44c-.44-2.69-1.73-4.83-3.88-6.43-2.07-1.56-4.59-2.35-7.55-2.35-3.88,0-6.97,1.36-9.28,4.08-2.31,2.72-3.47,6.38-3.47,10.96s1.16,8.25,3.47,10.96c2.31,2.72,5.41,4.08,9.28,4.08,3.43,0,6.36-1.1,8.77-3.31s3.62-5,3.62-8.36h-11.58Z"/>
    <path class="uuid-439cbfbf-74ff-4c04-9efa-52d41f762ba8" d="M1481.13,243.41h-5.15v-5.1h5.15v5.1ZM1479.8,233.92h-2.65l-.71-16.83v-10h4.28v10l-.92,16.83Z"/>
    <path class="uuid-439cbfbf-74ff-4c04-9efa-52d41f762ba8" d="M1495.71,220.41l-4.84,6.68-2.55-2.04,4.9-6.78-7.75-2.5,1.07-3.06,7.55,2.45v-8.06h3.26v8.06l7.55-2.45,1.07,3.06-7.75,2.5,4.9,6.78-2.55,2.04-4.84-6.68Z"/>
  </g>
  <g>
    <path class="uuid-439cbfbf-74ff-4c04-9efa-52d41f762ba8" d="M1885.68,151.63v2.04h-21.36v-2.52h15.93v-4.86h1.98l.03.48c.1,1.52.4,2.65.9,3.39.5.74,1.34,1.23,2.52,1.47Z"/>
    <path class="uuid-439cbfbf-74ff-4c04-9efa-52d41f762ba8" d="M1875.78,168.19c-.48,1.24-1.18,2.21-2.12,2.91-.93.7-2.02,1.05-3.29,1.05-2,0-3.59-.71-4.77-2.13-1.18-1.42-1.77-3.29-1.77-5.61s.59-4.19,1.77-5.61c1.18-1.42,2.77-2.13,4.77-2.13,1.26,0,2.36.35,3.29,1.05.93.7,1.64,1.67,2.12,2.91.9-2.06,2.41-3.09,4.53-3.09,1.82,0,3.26.65,4.32,1.95,1.02,1.3,1.53,2.94,1.53,4.92s-.51,3.62-1.53,4.92c-1.06,1.3-2.5,1.95-4.32,1.95-2.12,0-3.63-1.03-4.53-3.09ZM1867.26,160.69c-.76.94-1.14,2.18-1.14,3.72s.38,2.78,1.14,3.72c.74.92,1.78,1.38,3.12,1.38s2.41-.46,3.15-1.38c.74-.92,1.11-2.16,1.11-3.72s-.37-2.8-1.11-3.72c-.74-.92-1.79-1.38-3.15-1.38s-2.38.46-3.12,1.38ZM1882.95,167.56c.62-.8.93-1.85.93-3.15s-.31-2.35-.93-3.15c-.64-.82-1.52-1.23-2.64-1.23s-2,.41-2.64,1.23c-.62.8-.93,1.85-.93,3.15s.31,2.35.93,3.15c.64.82,1.52,1.23,2.64,1.23s2-.41,2.64-1.23Z"/>
    <path class="uuid-439cbfbf-74ff-4c04-9efa-52d41f762ba8" d="M1871.7,183.07v-8.67h2.16v8.67h-2.16Z"/>
    <path class="uuid-439cbfbf-74ff-4c04-9efa-52d41f762ba8" d="M1866.72,199.3c-1.92-1.3-2.88-3.23-2.88-5.79s.96-4.51,2.88-5.79c1.94-1.3,4.7-1.95,8.28-1.95s6.34.65,8.28,1.95c1.92,1.28,2.88,3.21,2.88,5.79s-.96,4.49-2.88,5.79c-1.94,1.3-4.7,1.95-8.28,1.95s-6.34-.65-8.28-1.95ZM1883.88,193.51c0-3.4-2.96-5.1-8.88-5.1s-8.88,1.7-8.88,5.1,2.96,5.1,8.88,5.1,8.88-1.7,8.88-5.1Z"/>
    <path class="uuid-439cbfbf-74ff-4c04-9efa-52d41f762ba8" d="M1875.78,215.17c-.48,1.24-1.18,2.21-2.12,2.91-.93.7-2.02,1.05-3.29,1.05-2,0-3.59-.71-4.77-2.13-1.18-1.42-1.77-3.29-1.77-5.61s.59-4.19,1.77-5.61c1.18-1.42,2.77-2.13,4.77-2.13,1.26,0,2.36.35,3.29,1.05.93.7,1.64,1.67,2.12,2.91.9-2.06,2.41-3.09,4.53-3.09,1.82,0,3.26.65,4.32,1.95,1.02,1.3,1.53,2.94,1.53,4.92s-.51,3.62-1.53,4.92c-1.06,1.3-2.5,1.95-4.32,1.95-2.12,0-3.63-1.03-4.53-3.09ZM1867.26,207.67c-.76.94-1.14,2.18-1.14,3.72s.38,2.78,1.14,3.72c.74.92,1.78,1.38,3.12,1.38s2.41-.46,3.15-1.38c.74-.92,1.11-2.16,1.11-3.72s-.37-2.8-1.11-3.72c-.74-.92-1.79-1.38-3.15-1.38s-2.38.46-3.12,1.38ZM1882.95,214.54c.62-.8.93-1.85.93-3.15s-.31-2.35-.93-3.15c-.64-.82-1.52-1.23-2.64-1.23s-2,.41-2.64,1.23c-.62.8-.93,1.85-.93,3.15s.31,2.35.93,3.15c.64.82,1.52,1.23,2.64,1.23s2-.41,2.64-1.23Z"/>
    <path class="uuid-439cbfbf-74ff-4c04-9efa-52d41f762ba8" d="M1871.7,230.05v-8.67h2.16v8.67h-2.16Z"/>
    <path class="uuid-439cbfbf-74ff-4c04-9efa-52d41f762ba8" d="M1885.68,235.57v2.04h-21.36v-2.52h15.93v-4.86h1.98l.03.48c.1,1.52.4,2.65.9,3.39.5.74,1.34,1.23,2.52,1.47Z"/>
    <path class="uuid-439cbfbf-74ff-4c04-9efa-52d41f762ba8" d="M1866.6,243.79v11.28h-2.28v-14.1l1.17.06c1.76.12,3.27.52,4.53,1.2s2.36,1.83,3.3,3.45l1.56,2.7c.8,1.36,1.58,2.32,2.34,2.89.76.57,1.68.86,2.76.86,1.18,0,2.12-.38,2.83-1.12s1.06-1.79,1.06-3.11c0-2.98-1.53-4.47-4.59-4.47v-2.49c2.18-.02,3.87.59,5.07,1.83s1.8,2.97,1.8,5.19c0,2.02-.57,3.66-1.71,4.92-1.18,1.26-2.67,1.89-4.47,1.89-2.76,0-5.08-1.62-6.96-4.86l-1.32-2.28c-.8-1.32-1.58-2.27-2.33-2.85s-1.67-.91-2.77-.99Z"/>
  </g>
</svg>