<?xml version="1.0" encoding="UTF-8"?>
<svg id="uuid-5e7643f5-cf34-40e6-95fe-e92e637b2ba4" data-name="Layer 1" xmlns="http://www.w3.org/2000/svg" viewBox="0 0 1920 1080">
  <defs>
    <style>
      .uuid-f40f8d7e-ecfa-4f97-bfc6-650d6e007648 {
        fill: #fff;
        stroke-width: 0px;
      }
    </style>
  </defs>
  <path class="uuid-f40f8d7e-ecfa-4f97-bfc6-650d6e007648" d="M555.64,309.7h-44.13l-59.5,462.63,40.16-16.36,10.41-90.74,59.5-20.83,7.44,78.84,41.65-16.36-55.53-397.17ZM508.53,610.19l23.06-168.59,20.08,155.2-43.14,13.39Z"/>
  <path class="uuid-f40f8d7e-ecfa-4f97-bfc6-650d6e007648" d="M641.34,335.36l-3.16,338.73c-.12,12.92,11.88,22.56,24.47,19.65l83.28-19.22c16.02-3.7,27.38-17.97,27.38-34.41l.25-156.48-64.21,3.1v41.65l20.5-1.32.33,108.43-47.6,10.41,2.98-296.02h47.6l-.29,69.96,44.54-.25-.79-85.11c.63-15.78-12.28-28.78-28.07-28.26l-81.32,2.66c-14.33.47-25.75,12.15-25.88,26.49Z"/>
  <polygon class="uuid-f40f8d7e-ecfa-4f97-bfc6-650d6e007648" points="814.8 309.7 812.65 661.59 924.55 653 924.55 615.48 858.1 616.14 858.23 497.63 918.84 496.64 919.09 458.46 859.59 458.46 859.59 346.89 923.56 347.06 923.56 309.7 814.8 309.7"/>
  <polygon class="uuid-f40f8d7e-ecfa-4f97-bfc6-650d6e007648" points="958.26 309.7 957.77 653.33 999.25 653.33 999.25 475.81 1076.77 659.28 1099.09 659.28 1096.44 309.7 1057.43 309.7 1057.43 491.18 980.74 309.7 958.26 309.7"/>
  <path class="uuid-f40f8d7e-ecfa-4f97-bfc6-650d6e007648" d="M1142.72,309.7l5.21,356.89,83.04,20.64c23.86,5.49,51.09-14.63,51.09-39.11l-4.46-281.48c0-31.45-25.49-56.94-56.94-56.94h-77.93ZM1189.83,636.96l-2.98-287.1h22.29c14.13,0,25.64,11.34,25.85,25.47l3.6,245.77c.17,11.53-9.88,20.57-21.33,19.18l-27.44-3.33Z"/>
  <path class="uuid-f40f8d7e-ecfa-4f97-bfc6-650d6e007648" d="M1407.83,309.7h-44.3l-56.2,398.66,41.65,13.39,9.26-78.84,59.17,20.83,10.41,89.25,40.16,20.83-60.16-464.11ZM1362.38,598.29l22.31-156.19,25.29,168.09-47.6-11.9Z"/>
</svg>