<?xml version="1.0" encoding="UTF-8"?>
<svg id="uuid-48c1339d-9ac6-4449-b766-962e6bd02538" data-name="Layer 1" xmlns="http://www.w3.org/2000/svg" viewBox="0 0 1920 1080">
  <defs>
    <style>
      .uuid-7e5877ac-de84-4463-a59d-5a55438f93da {
        isolation: isolate;
      }

      .uuid-696164d5-91ff-4be5-b655-a9d5962c141e {
        fill: #fff;
        stroke-width: 0px;
      }
    </style>
  </defs>
  <g id="uuid-d349e51d-a9dd-4f55-a23b-e95b27ae86f4" data-name="Agenda is more than just a tradeshow. We are a community that seeks to uplift empower inspire and elevate the brands trends and experiences that shape our community." class="uuid-7e5877ac-de84-4463-a59d-5a55438f93da">
    <g class="uuid-7e5877ac-de84-4463-a59d-5a55438f93da">
      <path class="uuid-696164d5-91ff-4be5-b655-a9d5962c141e" d="M209.11,366.7h-8.9l-8.3-20.7h-32.4l-8.2,20.7h-8.8l28.4-71.2h9.4l28.8,71.2ZM162.81,337.6l-.3.8h26.4l-.4-.9c-1.67-4.07-6-15.03-13-32.9-4.73,12.67-8.97,23.67-12.7,33Z"/>
      <path class="uuid-696164d5-91ff-4be5-b655-a9d5962c141e" d="M251.31,322.6v-7.5h7.6v49.6c0,7.07-2.07,12.63-6.2,16.7-4.13,4.07-10.07,6.1-17.8,6.1-6.4,0-11.53-1.47-15.4-4.4-3.87-2.93-6.07-7-6.6-12.2h8c1,6.53,5.67,9.8,14,9.8,10.67,0,16-5.33,16-16v-5c-4.07,5.47-9.83,8.2-17.3,8.2s-13.07-2.47-17.4-7.4c-4.4-4.93-6.6-11.47-6.6-19.6s2.2-14.83,6.6-19.7c4.27-4.87,10.07-7.3,17.4-7.3s13.57,2.9,17.7,8.7ZM234.61,360.7c5.07,0,9.1-1.77,12.1-5.3,3-3.53,4.5-8.37,4.5-14.5s-1.5-10.97-4.5-14.5c-3-3.53-7.03-5.3-12.1-5.3s-9.02,1.8-12.05,5.4c-3.03,3.6-4.55,8.4-4.55,14.4s1.52,10.8,4.55,14.4c3.03,3.6,7.05,5.4,12.05,5.4Z"/>
      <path class="uuid-696164d5-91ff-4be5-b655-a9d5962c141e" d="M312.91,340.9v2.8h-39.2c.4,5.6,1.97,9.82,4.7,12.65,2.73,2.83,6.47,4.25,11.2,4.25,7.13,0,11.7-3.2,13.7-9.6h8.3c-1.4,5.2-4,9.32-7.8,12.35-3.8,3.03-8.6,4.55-14.4,4.55-7.13,0-12.9-2.43-17.3-7.3-4.47-4.87-6.7-11.43-6.7-19.7s2.2-14.67,6.6-19.6c4.33-4.93,10.07-7.4,17.2-7.4s13.2,2.57,17.4,7.7c4.2,5.13,6.3,11.57,6.3,19.3ZM289.21,321.2c-4.2,0-7.63,1.32-10.3,3.95-2.67,2.63-4.33,6.42-5,11.35h30.4c-.4-4.53-1.93-8.22-4.6-11.05-2.67-2.83-6.17-4.25-10.5-4.25Z"/>
      <path class="uuid-696164d5-91ff-4be5-b655-a9d5962c141e" d="M343.21,313.9c5.73,0,10.2,1.57,13.4,4.7,3.2,3.13,4.8,7.53,4.8,13.2v34.9h-8v-34.1c0-7.67-3.93-11.5-11.8-11.5-3.73,0-7.03,1.4-9.9,4.2-2.87,2.8-4.3,6.87-4.3,12.2v29.2h-8v-51.6h7.6v7.7c3.93-5.93,9.33-8.9,16.2-8.9Z"/>
      <path class="uuid-696164d5-91ff-4be5-b655-a9d5962c141e" d="M409.21,322.5v-27h8v71.2h-7.6v-8c-4.13,6.13-10.03,9.2-17.7,9.2-7.27,0-13.07-2.47-17.4-7.4-4.4-4.93-6.6-11.47-6.6-19.6s2.2-14.83,6.6-19.7c4.27-4.87,10.07-7.3,17.4-7.3s13.17,2.87,17.3,8.6ZM380.81,355.6c3,3.4,7.03,5.1,12.1,5.1s9.1-1.77,12.1-5.3c3-3.47,4.5-8.3,4.5-14.5s-1.5-10.97-4.5-14.5c-3-3.53-7.03-5.3-12.1-5.3s-9.02,1.82-12.05,5.45c-3.03,3.63-4.55,8.55-4.55,14.75s1.5,10.9,4.5,14.3Z"/>
      <path class="uuid-696164d5-91ff-4be5-b655-a9d5962c141e" d="M468.41,360.2h2.9v6.5c-1.33.2-2.8.3-4.4.3-5.4,0-8.3-2.47-8.7-7.4-3.6,5.53-9.2,8.3-16.8,8.3-5.67,0-10.12-1.32-13.35-3.95-3.23-2.63-4.85-6.35-4.85-11.15,0-9.33,6.37-14.67,19.1-16l7.4-.8c5.4-.6,8.1-2.97,8.1-7.1,0-2.87-.88-4.93-2.65-6.2-1.77-1.27-4.75-1.9-8.95-1.9-4.47,0-7.68.75-9.65,2.25-1.97,1.5-3.08,4.15-3.35,7.95h-8c.67-11.4,7.67-17.1,21-17.1s19.4,5,19.4,15v28.8c0,1.67.93,2.5,2.8,2.5ZM441.81,361.1c4.27,0,8-1.3,11.2-3.9,3.2-2.53,4.8-6.17,4.8-10.9v-6.1c-1.47,1.13-3.73,1.87-6.8,2.2l-7.5.9c-4.33.54-7.42,1.54-9.25,3-1.83,1.47-2.75,3.57-2.75,6.3s.87,4.75,2.6,6.25c1.73,1.5,4.3,2.25,7.7,2.25Z"/>
      <path class="uuid-696164d5-91ff-4be5-b655-a9d5962c141e" d="M499.51,307.3h-8.5v-9.8h8.5v9.8ZM499.31,366.7h-8v-51.6h8v51.6Z"/>
      <path class="uuid-696164d5-91ff-4be5-b655-a9d5962c141e" d="M526.51,367.9c-13.8,0-21.1-5.87-21.9-17.6h8.1c.47,3.87,1.75,6.62,3.85,8.25,2.1,1.63,5.42,2.45,9.95,2.45,8.27,0,12.4-2.67,12.4-8,0-2.33-.85-4.1-2.55-5.3-1.7-1.2-4.78-2.23-9.25-3.1l-4.8-.9c-10.73-2-16.1-7.07-16.1-15.2,0-4.47,1.68-8.02,5.05-10.65,3.37-2.63,7.95-3.95,13.75-3.95,13.67,0,20.67,5.7,21,17.1h-8c-.2-3.73-1.33-6.37-3.4-7.9-2.07-1.53-5.27-2.3-9.6-2.3-3.47,0-6.13.67-8,2-1.87,1.33-2.8,3.2-2.8,5.6,0,2.27.8,3.97,2.4,5.1,1.6,1.13,4.27,2.1,8,2.9l4.6.9c6.33,1.27,10.88,3.07,13.65,5.4,2.77,2.33,4.15,5.6,4.15,9.8,0,4.87-1.82,8.65-5.45,11.35-3.63,2.7-8.65,4.05-15.05,4.05Z"/>
      <path class="uuid-696164d5-91ff-4be5-b655-a9d5962c141e" d="M622.3,313.9c5.6,0,9.95,1.62,13.05,4.85,3.1,3.23,4.65,7.55,4.65,12.95v35h-8v-34.2c0-7.6-3.6-11.4-10.8-11.4-3.8,0-6.95,1.52-9.45,4.55-2.5,3.03-3.75,7.32-3.75,12.85v28.2h-8v-34.2c0-7.6-3.6-11.4-10.8-11.4-3.73,0-6.87,1.52-9.4,4.55-2.53,3.03-3.8,7.32-3.8,12.85v28.2h-8v-51.6h7.6v7.6c3.4-5.87,8.37-8.8,14.9-8.8,7.73,0,13.03,3.23,15.9,9.7,3.6-6.47,8.9-9.7,15.9-9.7Z"/>
      <path class="uuid-696164d5-91ff-4be5-b655-a9d5962c141e" d="M689.5,360.5c-4.73,4.93-10.73,7.4-18,7.4s-13.27-2.47-18-7.4c-4.67-4.87-7-11.4-7-19.6s2.33-14.73,7-19.6c4.73-4.93,10.73-7.4,18-7.4s13.27,2.47,18,7.4c4.67,4.87,7,11.4,7,19.6s-2.33,14.73-7,19.6ZM659.4,355.4c3,3.53,7.03,5.3,12.1,5.3s9.1-1.77,12.1-5.3c3-3.47,4.5-8.3,4.5-14.5s-1.5-11.13-4.5-14.6c-3-3.46-7.03-5.2-12.1-5.2s-9.1,1.73-12.1,5.2c-3,3.47-4.5,8.33-4.5,14.6s1.5,11.03,4.5,14.5Z"/>
      <path class="uuid-696164d5-91ff-4be5-b655-a9d5962c141e" d="M727.2,314.3c1.33,0,2.23.04,2.7.1v7.7h-2c-5.33,0-9.48,1.32-12.45,3.95-2.97,2.63-4.45,6.38-4.45,11.25v29.4h-8v-51.6h7.6v9.1c3.47-6.6,9-9.9,16.6-9.9Z"/>
      <path class="uuid-696164d5-91ff-4be5-b655-a9d5962c141e" d="M776.4,340.9v2.8h-39.2c.4,5.6,1.97,9.82,4.7,12.65,2.73,2.83,6.47,4.25,11.2,4.25,7.13,0,11.7-3.2,13.7-9.6h8.3c-1.4,5.2-4,9.32-7.8,12.35-3.8,3.03-8.6,4.55-14.4,4.55-7.13,0-12.9-2.43-17.3-7.3-4.47-4.87-6.7-11.43-6.7-19.7s2.2-14.67,6.6-19.6c4.33-4.93,10.07-7.4,17.2-7.4s13.2,2.57,17.4,7.7c4.2,5.13,6.3,11.57,6.3,19.3ZM752.7,321.2c-4.2,0-7.63,1.32-10.3,3.95-2.67,2.63-4.33,6.42-5,11.35h30.4c-.4-4.53-1.93-8.22-4.6-11.05-2.67-2.83-6.17-4.25-10.5-4.25Z"/>
      <path class="uuid-696164d5-91ff-4be5-b655-a9d5962c141e" d="M821.5,315.1v7h-10.6v33.5c0,2.93,1.97,4.4,5.9,4.4h4.7v6.7c-2.2.2-4.1.3-5.7.3-8.6,0-12.9-3.57-12.9-10.7v-34.2h-8.5v-7h8.5v-14.6h8v14.6h10.6Z"/>
      <path class="uuid-696164d5-91ff-4be5-b655-a9d5962c141e" d="M850.8,313.9c5.73,0,10.2,1.57,13.4,4.7,3.2,3.13,4.8,7.53,4.8,13.2v34.9h-8v-34.1c0-7.67-3.93-11.5-11.8-11.5-3.73,0-7.03,1.4-9.9,4.2-2.87,2.8-4.3,6.87-4.3,12.2v29.2h-8v-71.2h8v26.7c3.93-5.53,9.2-8.3,15.8-8.3Z"/>
      <path class="uuid-696164d5-91ff-4be5-b655-a9d5962c141e" d="M920.2,360.2h2.9v6.5c-1.33.2-2.8.3-4.4.3-5.4,0-8.3-2.47-8.7-7.4-3.6,5.53-9.2,8.3-16.8,8.3-5.67,0-10.12-1.32-13.35-3.95-3.23-2.63-4.85-6.35-4.85-11.15,0-9.33,6.37-14.67,19.1-16l7.4-.8c5.4-.6,8.1-2.97,8.1-7.1,0-2.87-.88-4.93-2.65-6.2-1.77-1.27-4.75-1.9-8.95-1.9-4.47,0-7.68.75-9.65,2.25-1.97,1.5-3.08,4.15-3.35,7.95h-8c.67-11.4,7.67-17.1,21-17.1s19.4,5,19.4,15v28.8c0,1.67.93,2.5,2.8,2.5ZM893.6,361.1c4.27,0,8-1.3,11.2-3.9,3.2-2.53,4.8-6.17,4.8-10.9v-6.1c-1.47,1.13-3.73,1.87-6.8,2.2l-7.5.9c-4.33.54-7.42,1.54-9.25,3-1.83,1.47-2.75,3.57-2.75,6.3s.87,4.75,2.6,6.25c1.73,1.5,4.3,2.25,7.7,2.25Z"/>
      <path class="uuid-696164d5-91ff-4be5-b655-a9d5962c141e" d="M950.9,313.9c5.73,0,10.2,1.57,13.4,4.7,3.2,3.13,4.8,7.53,4.8,13.2v34.9h-8v-34.1c0-7.67-3.93-11.5-11.8-11.5-3.73,0-7.03,1.4-9.9,4.2-2.87,2.8-4.3,6.87-4.3,12.2v29.2h-8v-51.6h7.6v7.7c3.93-5.93,9.33-8.9,16.2-8.9Z"/>
      <path class="uuid-696164d5-91ff-4be5-b655-a9d5962c141e" d="M990.2,386.6c-2.13,0-3.57-.04-4.3-.1v-6.9h3.3c3.27,0,4.9-1.47,4.9-4.4v-60.1h8v60.8c0,7.13-3.97,10.7-11.9,10.7ZM1002.3,307.3h-8.5v-9.8h8.5v9.8Z"/>
      <path class="uuid-696164d5-91ff-4be5-b655-a9d5962c141e" d="M1045.1,344.3v-29.2h8v51.6h-7.6v-7.7c-3.93,5.93-9.33,8.9-16.2,8.9-5.73,0-10.2-1.57-13.4-4.7-3.2-3.13-4.8-7.53-4.8-13.2v-34.9h8v34.1c0,7.67,3.93,11.5,11.8,11.5,3.73,0,7.03-1.4,9.9-4.2,2.87-2.8,4.3-6.87,4.3-12.2Z"/>
      <path class="uuid-696164d5-91ff-4be5-b655-a9d5962c141e" d="M1080.3,367.9c-13.8,0-21.1-5.87-21.9-17.6h8.1c.47,3.87,1.75,6.62,3.85,8.25,2.1,1.63,5.42,2.45,9.95,2.45,8.27,0,12.4-2.67,12.4-8,0-2.33-.85-4.1-2.55-5.3-1.7-1.2-4.78-2.23-9.25-3.1l-4.8-.9c-10.73-2-16.1-7.07-16.1-15.2,0-4.47,1.68-8.02,5.05-10.65,3.37-2.63,7.95-3.95,13.75-3.95,13.67,0,20.67,5.7,21,17.1h-8c-.2-3.73-1.33-6.37-3.4-7.9-2.07-1.53-5.27-2.3-9.6-2.3-3.47,0-6.13.67-8,2-1.87,1.33-2.8,3.2-2.8,5.6,0,2.27.8,3.97,2.4,5.1,1.6,1.13,4.27,2.1,8,2.9l4.6.9c6.33,1.27,10.88,3.07,13.65,5.4,2.77,2.33,4.15,5.6,4.15,9.8,0,4.87-1.82,8.65-5.45,11.35-3.63,2.7-8.65,4.05-15.05,4.05Z"/>
      <path class="uuid-696164d5-91ff-4be5-b655-a9d5962c141e" d="M1127.4,315.1v7h-10.6v33.5c0,2.93,1.97,4.4,5.9,4.4h4.7v6.7c-2.2.2-4.1.3-5.7.3-8.6,0-12.9-3.57-12.9-10.7v-34.2h-8.5v-7h8.5v-14.6h8v14.6h10.6Z"/>
      <path class="uuid-696164d5-91ff-4be5-b655-a9d5962c141e" d="M1191.09,360.2h2.9v6.5c-1.33.2-2.8.3-4.4.3-5.4,0-8.3-2.47-8.7-7.4-3.6,5.53-9.2,8.3-16.8,8.3-5.67,0-10.12-1.32-13.35-3.95-3.23-2.63-4.85-6.35-4.85-11.15,0-9.33,6.37-14.67,19.1-16l7.4-.8c5.4-.6,8.1-2.97,8.1-7.1,0-2.87-.88-4.93-2.65-6.2-1.77-1.27-4.75-1.9-8.95-1.9-4.47,0-7.68.75-9.65,2.25-1.97,1.5-3.08,4.15-3.35,7.95h-8c.67-11.4,7.67-17.1,21-17.1s19.4,5,19.4,15v28.8c0,1.67.93,2.5,2.8,2.5ZM1164.49,361.1c4.27,0,8-1.3,11.2-3.9,3.2-2.53,4.8-6.17,4.8-10.9v-6.1c-1.47,1.13-3.73,1.87-6.8,2.2l-7.5.9c-4.33.54-7.42,1.54-9.25,3-1.83,1.47-2.75,3.57-2.75,6.3s.87,4.75,2.6,6.25c1.73,1.5,4.3,2.25,7.7,2.25Z"/>
      <path class="uuid-696164d5-91ff-4be5-b655-a9d5962c141e" d="M1236.59,315.1v7h-10.6v33.5c0,2.93,1.97,4.4,5.9,4.4h4.7v6.7c-2.2.2-4.1.3-5.7.3-8.6,0-12.9-3.57-12.9-10.7v-34.2h-8.5v-7h8.5v-14.6h8v14.6h10.6Z"/>
      <path class="uuid-696164d5-91ff-4be5-b655-a9d5962c141e" d="M1266.29,314.3c1.33,0,2.23.04,2.7.1v7.7h-2c-5.33,0-9.48,1.32-12.45,3.95-2.97,2.63-4.45,6.38-4.45,11.25v29.4h-8v-51.6h7.6v9.1c3.47-6.6,9-9.9,16.6-9.9Z"/>
      <path class="uuid-696164d5-91ff-4be5-b655-a9d5962c141e" d="M1312.19,360.2h2.9v6.5c-1.33.2-2.8.3-4.4.3-5.4,0-8.3-2.47-8.7-7.4-3.6,5.53-9.2,8.3-16.8,8.3-5.67,0-10.12-1.32-13.35-3.95-3.23-2.63-4.85-6.35-4.85-11.15,0-9.33,6.37-14.67,19.1-16l7.4-.8c5.4-.6,8.1-2.97,8.1-7.1,0-2.87-.88-4.93-2.65-6.2-1.77-1.27-4.75-1.9-8.95-1.9-4.47,0-7.68.75-9.65,2.25-1.97,1.5-3.08,4.15-3.35,7.95h-8c.67-11.4,7.67-17.1,21-17.1s19.4,5,19.4,15v28.8c0,1.67.93,2.5,2.8,2.5ZM1285.59,361.1c4.27,0,8-1.3,11.2-3.9,3.2-2.53,4.8-6.17,4.8-10.9v-6.1c-1.47,1.13-3.73,1.87-6.8,2.2l-7.5.9c-4.33.54-7.42,1.54-9.25,3-1.83,1.47-2.75,3.57-2.75,6.3s.87,4.75,2.6,6.25c1.73,1.5,4.3,2.25,7.7,2.25Z"/>
      <path class="uuid-696164d5-91ff-4be5-b655-a9d5962c141e" d="M1357.39,322.5v-27h8v71.2h-7.6v-8c-4.13,6.13-10.03,9.2-17.7,9.2-7.27,0-13.07-2.47-17.4-7.4-4.4-4.93-6.6-11.47-6.6-19.6s2.2-14.83,6.6-19.7c4.27-4.87,10.07-7.3,17.4-7.3s13.17,2.87,17.3,8.6ZM1328.99,355.6c3,3.4,7.03,5.1,12.1,5.1s9.1-1.77,12.1-5.3c3-3.47,4.5-8.3,4.5-14.5s-1.5-10.97-4.5-14.5c-3-3.53-7.03-5.3-12.1-5.3s-9.02,1.82-12.05,5.45c-3.03,3.63-4.55,8.55-4.55,14.75s1.5,10.9,4.5,14.3Z"/>
      <path class="uuid-696164d5-91ff-4be5-b655-a9d5962c141e" d="M1419.39,340.9v2.8h-39.2c.4,5.6,1.97,9.82,4.7,12.65,2.73,2.83,6.47,4.25,11.2,4.25,7.13,0,11.7-3.2,13.7-9.6h8.3c-1.4,5.2-4,9.32-7.8,12.35-3.8,3.03-8.6,4.55-14.4,4.55-7.13,0-12.9-2.43-17.3-7.3-4.47-4.87-6.7-11.43-6.7-19.7s2.2-14.67,6.6-19.6c4.33-4.93,10.07-7.4,17.2-7.4s13.2,2.57,17.4,7.7c4.2,5.13,6.3,11.57,6.3,19.3ZM1395.69,321.2c-4.2,0-7.63,1.32-10.3,3.95-2.67,2.63-4.33,6.42-5,11.35h30.4c-.4-4.53-1.93-8.22-4.6-11.05-2.67-2.83-6.17-4.25-10.5-4.25Z"/>
      <path class="uuid-696164d5-91ff-4be5-b655-a9d5962c141e" d="M1443.59,367.9c-13.8,0-21.1-5.87-21.9-17.6h8.1c.46,3.87,1.75,6.62,3.85,8.25,2.1,1.63,5.42,2.45,9.95,2.45,8.27,0,12.4-2.67,12.4-8,0-2.33-.85-4.1-2.55-5.3s-4.78-2.23-9.25-3.1l-4.8-.9c-10.73-2-16.1-7.07-16.1-15.2,0-4.47,1.68-8.02,5.05-10.65,3.37-2.63,7.95-3.95,13.75-3.95,13.67,0,20.67,5.7,21,17.1h-8c-.2-3.73-1.33-6.37-3.4-7.9-2.07-1.53-5.27-2.3-9.6-2.3-3.47,0-6.13.67-8,2-1.87,1.33-2.8,3.2-2.8,5.6,0,2.27.8,3.97,2.4,5.1,1.6,1.13,4.27,2.1,8,2.9l4.6.9c6.33,1.27,10.88,3.07,13.65,5.4,2.77,2.33,4.15,5.6,4.15,9.8,0,4.87-1.82,8.65-5.45,11.35-3.63,2.7-8.65,4.05-15.05,4.05Z"/>
      <path class="uuid-696164d5-91ff-4be5-b655-a9d5962c141e" d="M1492.89,313.9c5.73,0,10.2,1.57,13.4,4.7,3.2,3.13,4.8,7.53,4.8,13.2v34.9h-8v-34.1c0-7.67-3.93-11.5-11.8-11.5-3.73,0-7.03,1.4-9.9,4.2-2.87,2.8-4.3,6.87-4.3,12.2v29.2h-8v-71.2h8v26.7c3.93-5.53,9.2-8.3,15.8-8.3Z"/>
      <path class="uuid-696164d5-91ff-4be5-b655-a9d5962c141e" d="M1560.59,360.5c-4.73,4.93-10.73,7.4-18,7.4s-13.27-2.47-18-7.4c-4.67-4.87-7-11.4-7-19.6s2.33-14.73,7-19.6c4.73-4.93,10.73-7.4,18-7.4s13.27,2.47,18,7.4c4.67,4.87,7,11.4,7,19.6s-2.33,14.73-7,19.6ZM1530.49,355.4c3,3.53,7.03,5.3,12.1,5.3s9.1-1.77,12.1-5.3c3-3.47,4.5-8.3,4.5-14.5s-1.5-11.13-4.5-14.6c-3-3.46-7.03-5.2-12.1-5.2s-9.1,1.73-12.1,5.2c-3,3.47-4.5,8.33-4.5,14.6s1.5,11.03,4.5,14.5Z"/>
      <path class="uuid-696164d5-91ff-4be5-b655-a9d5962c141e" d="M1626.49,338.4l7.3-23.3h8.6l-17.2,51.6h-8.4l-7.6-23.9c-2.6-8.46-4.33-14.3-5.2-17.5-1.54,5.47-3.3,11.3-5.3,17.5l-7.5,23.9h-8.4l-17.2-51.6h8.6l7.3,23.3c1.8,5.67,3.67,11.93,5.6,18.8,2.13-7.6,3.97-13.87,5.5-18.8l7.2-23.3h8.4l7.2,23.3c3.67,12.2,5.53,18.4,5.6,18.6.53-2.07,2.37-8.27,5.5-18.6Z"/>
      <path class="uuid-696164d5-91ff-4be5-b655-a9d5962c141e" d="M1645.49,366.7h-10.1v-10h10.1v10Z"/>
    </g>
    <g class="uuid-7e5877ac-de84-4463-a59d-5a55438f93da">
      <path class="uuid-696164d5-91ff-4be5-b655-a9d5962c141e" d="M216.71,430.6l9.7-35.1h8.7l-20.2,71.2h-9.4l-10.2-36.3c-2.87-10.27-5.03-18.3-6.5-24.1-1.47,5.8-3.63,13.83-6.5,24.1l-10.2,36.3h-9.4l-20.2-71.2h8.7l9.7,35.1c3.07,10.87,5.3,19.37,6.7,25.5,2.33-8.93,4.6-17.5,6.8-25.7l9.7-34.9h9.4l9.7,34.9c2.27,8.2,4.53,16.77,6.8,25.7,1.4-6.13,3.63-14.63,6.7-25.5Z"/>
      <path class="uuid-696164d5-91ff-4be5-b655-a9d5962c141e" d="M278.11,440.9v2.8h-39.2c.4,5.6,1.97,9.82,4.7,12.65,2.73,2.83,6.47,4.25,11.2,4.25,7.13,0,11.7-3.2,13.7-9.6h8.3c-1.4,5.2-4,9.32-7.8,12.35-3.8,3.03-8.6,4.55-14.4,4.55-7.13,0-12.9-2.43-17.3-7.3-4.47-4.87-6.7-11.43-6.7-19.7s2.2-14.67,6.6-19.6c4.33-4.93,10.07-7.4,17.2-7.4s13.2,2.57,17.4,7.7c4.2,5.13,6.3,11.57,6.3,19.3ZM254.41,421.2c-4.2,0-7.63,1.32-10.3,3.95-2.67,2.63-4.33,6.42-5,11.35h30.4c-.4-4.53-1.93-8.22-4.6-11.05-2.67-2.83-6.17-4.25-10.5-4.25Z"/>
      <path class="uuid-696164d5-91ff-4be5-b655-a9d5962c141e" d="M342.81,460.2h2.9v6.5c-1.33.2-2.8.3-4.4.3-5.4,0-8.3-2.47-8.7-7.4-3.6,5.53-9.2,8.3-16.8,8.3-5.67,0-10.12-1.32-13.35-3.95-3.23-2.63-4.85-6.35-4.85-11.15,0-9.33,6.37-14.67,19.1-16l7.4-.8c5.4-.6,8.1-2.97,8.1-7.1,0-2.87-.88-4.93-2.65-6.2-1.77-1.27-4.75-1.9-8.95-1.9-4.47,0-7.68.75-9.65,2.25-1.97,1.5-3.08,4.15-3.35,7.95h-8c.67-11.4,7.67-17.1,21-17.1s19.4,5,19.4,15v28.8c0,1.67.93,2.5,2.8,2.5ZM316.21,461.1c4.27,0,8-1.3,11.2-3.9,3.2-2.53,4.8-6.17,4.8-10.9v-6.1c-1.47,1.13-3.73,1.87-6.8,2.2l-7.5.9c-4.33.54-7.42,1.54-9.25,3-1.83,1.47-2.75,3.57-2.75,6.3s.87,4.75,2.6,6.25c1.73,1.5,4.3,2.25,7.7,2.25Z"/>
      <path class="uuid-696164d5-91ff-4be5-b655-a9d5962c141e" d="M373.91,414.3c1.33,0,2.23.04,2.7.1v7.7h-2c-5.33,0-9.48,1.32-12.45,3.95-2.97,2.63-4.45,6.38-4.45,11.25v29.4h-8v-51.6h7.6v9.1c3.47-6.6,9-9.9,16.6-9.9Z"/>
      <path class="uuid-696164d5-91ff-4be5-b655-a9d5962c141e" d="M423.11,440.9v2.8h-39.2c.4,5.6,1.97,9.82,4.7,12.65,2.73,2.83,6.47,4.25,11.2,4.25,7.13,0,11.7-3.2,13.7-9.6h8.3c-1.4,5.2-4,9.32-7.8,12.35-3.8,3.03-8.6,4.55-14.4,4.55-7.13,0-12.9-2.43-17.3-7.3-4.47-4.87-6.7-11.43-6.7-19.7s2.2-14.67,6.6-19.6c4.33-4.93,10.07-7.4,17.2-7.4s13.2,2.57,17.4,7.7c4.2,5.13,6.3,11.57,6.3,19.3ZM399.41,421.2c-4.2,0-7.63,1.32-10.3,3.95-2.67,2.63-4.33,6.42-5,11.35h30.4c-.4-4.53-1.93-8.22-4.6-11.05-2.67-2.83-6.17-4.25-10.5-4.25Z"/>
      <path class="uuid-696164d5-91ff-4be5-b655-a9d5962c141e" d="M487.81,460.2h2.9v6.5c-1.33.2-2.8.3-4.4.3-5.4,0-8.3-2.47-8.7-7.4-3.6,5.53-9.2,8.3-16.8,8.3-5.67,0-10.12-1.32-13.35-3.95-3.23-2.63-4.85-6.35-4.85-11.15,0-9.33,6.37-14.67,19.1-16l7.4-.8c5.4-.6,8.1-2.97,8.1-7.1,0-2.87-.88-4.93-2.65-6.2-1.77-1.27-4.75-1.9-8.95-1.9-4.47,0-7.68.75-9.65,2.25-1.97,1.5-3.08,4.15-3.35,7.95h-8c.67-11.4,7.67-17.1,21-17.1s19.4,5,19.4,15v28.8c0,1.67.93,2.5,2.8,2.5ZM461.21,461.1c4.27,0,8-1.3,11.2-3.9,3.2-2.53,4.8-6.17,4.8-10.9v-6.1c-1.47,1.13-3.73,1.87-6.8,2.2l-7.5.9c-4.33.54-7.42,1.54-9.25,3-1.83,1.47-2.75,3.57-2.75,6.3s.87,4.75,2.6,6.25c1.73,1.5,4.3,2.25,7.7,2.25Z"/>
      <path class="uuid-696164d5-91ff-4be5-b655-a9d5962c141e" d="M532.1,467.9c-7.13,0-12.9-2.47-17.3-7.4-4.4-4.93-6.6-11.47-6.6-19.6s2.2-14.83,6.6-19.7c4.27-4.87,10.03-7.3,17.3-7.3,6.13,0,11.17,1.67,15.1,5,3.93,3.33,6.3,7.9,7.1,13.7h-8.3c-.6-3.67-2.18-6.5-4.75-8.5-2.57-2-5.62-3-9.15-3-4.73,0-8.5,1.72-11.3,5.15-2.8,3.43-4.2,8.32-4.2,14.65s1.42,11.13,4.25,14.6c2.83,3.47,6.58,5.2,11.25,5.2,3.53,0,6.6-1.03,9.2-3.1s4.2-4.93,4.8-8.6h8.2c-.87,5.8-3.32,10.4-7.35,13.8-4.03,3.4-8.98,5.1-14.85,5.1Z"/>
      <path class="uuid-696164d5-91ff-4be5-b655-a9d5962c141e" d="M600.3,460.5c-4.73,4.93-10.73,7.4-18,7.4s-13.27-2.47-18-7.4c-4.67-4.87-7-11.4-7-19.6s2.33-14.73,7-19.6c4.73-4.93,10.73-7.4,18-7.4s13.27,2.47,18,7.4c4.67,4.87,7,11.4,7,19.6s-2.33,14.73-7,19.6ZM570.2,455.4c3,3.53,7.03,5.3,12.1,5.3s9.1-1.77,12.1-5.3c3-3.47,4.5-8.3,4.5-14.5s-1.5-11.13-4.5-14.6c-3-3.46-7.03-5.2-12.1-5.2s-9.1,1.73-12.1,5.2c-3,3.47-4.5,8.33-4.5,14.6s1.5,11.03,4.5,14.5Z"/>
      <path class="uuid-696164d5-91ff-4be5-b655-a9d5962c141e" d="M668.1,413.9c5.6,0,9.95,1.62,13.05,4.85,3.1,3.23,4.65,7.55,4.65,12.95v35h-8v-34.2c0-7.6-3.6-11.4-10.8-11.4-3.8,0-6.95,1.52-9.45,4.55-2.5,3.03-3.75,7.32-3.75,12.85v28.2h-8v-34.2c0-7.6-3.6-11.4-10.8-11.4-3.73,0-6.87,1.52-9.4,4.55-2.53,3.03-3.8,7.32-3.8,12.85v28.2h-8v-51.6h7.6v7.6c3.4-5.87,8.37-8.8,14.9-8.8,7.73,0,13.03,3.23,15.9,9.7,3.6-6.47,8.9-9.7,15.9-9.7Z"/>
      <path class="uuid-696164d5-91ff-4be5-b655-a9d5962c141e" d="M749.1,413.9c5.6,0,9.95,1.62,13.05,4.85,3.1,3.23,4.65,7.55,4.65,12.95v35h-8v-34.2c0-7.6-3.6-11.4-10.8-11.4-3.8,0-6.95,1.52-9.45,4.55-2.5,3.03-3.75,7.32-3.75,12.85v28.2h-8v-34.2c0-7.6-3.6-11.4-10.8-11.4-3.73,0-6.87,1.52-9.4,4.55-2.53,3.03-3.8,7.32-3.8,12.85v28.2h-8v-51.6h7.6v7.6c3.4-5.87,8.37-8.8,14.9-8.8,7.73,0,13.03,3.23,15.9,9.7,3.6-6.47,8.9-9.7,15.9-9.7Z"/>
      <path class="uuid-696164d5-91ff-4be5-b655-a9d5962c141e" d="M807.8,444.3v-29.2h8v51.6h-7.6v-7.7c-3.93,5.93-9.33,8.9-16.2,8.9-5.73,0-10.2-1.57-13.4-4.7-3.2-3.13-4.8-7.53-4.8-13.2v-34.9h8v34.1c0,7.67,3.93,11.5,11.8,11.5,3.73,0,7.03-1.4,9.9-4.2,2.87-2.8,4.3-6.87,4.3-12.2Z"/>
      <path class="uuid-696164d5-91ff-4be5-b655-a9d5962c141e" d="M848.6,413.9c5.73,0,10.2,1.57,13.4,4.7,3.2,3.13,4.8,7.53,4.8,13.2v34.9h-8v-34.1c0-7.67-3.93-11.5-11.8-11.5-3.73,0-7.03,1.4-9.9,4.2-2.87,2.8-4.3,6.87-4.3,12.2v29.2h-8v-51.6h7.6v7.7c3.93-5.93,9.33-8.9,16.2-8.9Z"/>
      <path class="uuid-696164d5-91ff-4be5-b655-a9d5962c141e" d="M884,407.3h-8.5v-9.8h8.5v9.8ZM883.8,466.7h-8v-51.6h8v51.6Z"/>
      <path class="uuid-696164d5-91ff-4be5-b655-a9d5962c141e" d="M915.4,415.1v7h-10.6v33.5c0,2.93,1.97,4.4,5.9,4.4h4.7v6.7c-2.2.2-4.1.3-5.7.3-8.6,0-12.9-3.57-12.9-10.7v-34.2h-8.5v-7h8.5v-14.6h8v14.6h10.6Z"/>
      <path class="uuid-696164d5-91ff-4be5-b655-a9d5962c141e" d="M946.3,436.5l7.3-21.4h8.7l-21.8,59.7c-1.53,4.33-3.63,7.38-6.3,9.15-2.67,1.77-6.17,2.65-10.5,2.65-1.47,0-3.07-.1-4.8-.3v-6.7h4.7c4.6,0,7.73-2.13,9.4-6.4l1.8-4.8-19.4-53.3h8.8l7.3,21.5c2.6,7.6,5.07,15.03,7.4,22.3,1.93-6.2,4.4-13.67,7.4-22.4Z"/>
      <path class="uuid-696164d5-91ff-4be5-b655-a9d5962c141e" d="M1004.4,415.1v7h-10.6v33.5c0,2.93,1.97,4.4,5.9,4.4h4.7v6.7c-2.2.2-4.1.3-5.7.3-8.6,0-12.9-3.57-12.9-10.7v-34.2h-8.5v-7h8.5v-14.6h8v14.6h10.6Z"/>
      <path class="uuid-696164d5-91ff-4be5-b655-a9d5962c141e" d="M1033.7,413.9c5.73,0,10.2,1.57,13.4,4.7,3.2,3.13,4.8,7.53,4.8,13.2v34.9h-8v-34.1c0-7.67-3.94-11.5-11.8-11.5-3.73,0-7.03,1.4-9.9,4.2-2.87,2.8-4.3,6.87-4.3,12.2v29.2h-8v-71.2h8v26.7c3.93-5.53,9.2-8.3,15.8-8.3Z"/>
      <path class="uuid-696164d5-91ff-4be5-b655-a9d5962c141e" d="M1103.1,460.2h2.9v6.5c-1.33.2-2.8.3-4.4.3-5.4,0-8.3-2.47-8.7-7.4-3.6,5.53-9.2,8.3-16.8,8.3-5.67,0-10.12-1.32-13.35-3.95-3.23-2.63-4.85-6.35-4.85-11.15,0-9.33,6.37-14.67,19.1-16l7.4-.8c5.4-.6,8.1-2.97,8.1-7.1,0-2.87-.88-4.93-2.65-6.2-1.77-1.27-4.75-1.9-8.95-1.9-4.47,0-7.68.75-9.65,2.25-1.97,1.5-3.08,4.15-3.35,7.95h-8c.67-11.4,7.67-17.1,21-17.1s19.4,5,19.4,15v28.8c0,1.67.93,2.5,2.8,2.5ZM1076.5,461.1c4.27,0,8-1.3,11.2-3.9,3.2-2.53,4.8-6.17,4.8-10.9v-6.1c-1.47,1.13-3.73,1.87-6.8,2.2l-7.5.9c-4.33.54-7.42,1.54-9.25,3-1.83,1.47-2.75,3.57-2.75,6.3s.87,4.75,2.6,6.25c1.73,1.5,4.3,2.25,7.7,2.25Z"/>
      <path class="uuid-696164d5-91ff-4be5-b655-a9d5962c141e" d="M1130.6,415.1v7h-10.6v33.5c0,2.93,1.97,4.4,5.9,4.4h4.7v6.7c-2.2.2-4.1.3-5.7.3-8.6,0-12.9-3.57-12.9-10.7v-34.2h-8.5v-7h8.5v-14.6h8v14.6h10.6Z"/>
      <path class="uuid-696164d5-91ff-4be5-b655-a9d5962c141e" d="M1170.3,467.9c-13.8,0-21.1-5.87-21.9-17.6h8.1c.46,3.87,1.75,6.62,3.85,8.25,2.1,1.63,5.42,2.45,9.95,2.45,8.27,0,12.4-2.67,12.4-8,0-2.33-.85-4.1-2.55-5.3s-4.78-2.23-9.25-3.1l-4.8-.9c-10.73-2-16.1-7.07-16.1-15.2,0-4.47,1.68-8.02,5.05-10.65,3.37-2.63,7.95-3.95,13.75-3.95,13.67,0,20.67,5.7,21,17.1h-8c-.2-3.73-1.33-6.37-3.4-7.9-2.07-1.53-5.27-2.3-9.6-2.3-3.47,0-6.13.67-8,2-1.87,1.33-2.8,3.2-2.8,5.6,0,2.27.8,3.97,2.4,5.1,1.6,1.13,4.27,2.1,8,2.9l4.6.9c6.33,1.27,10.88,3.07,13.65,5.4,2.77,2.33,4.15,5.6,4.15,9.8,0,4.87-1.82,8.65-5.45,11.35-3.63,2.7-8.65,4.05-15.05,4.05Z"/>
      <path class="uuid-696164d5-91ff-4be5-b655-a9d5962c141e" d="M1240.79,440.9v2.8h-39.2c.4,5.6,1.97,9.82,4.7,12.65,2.73,2.83,6.47,4.25,11.2,4.25,7.13,0,11.7-3.2,13.7-9.6h8.3c-1.4,5.2-4,9.32-7.8,12.35-3.8,3.03-8.6,4.55-14.4,4.55-7.13,0-12.9-2.43-17.3-7.3-4.47-4.87-6.7-11.43-6.7-19.7s2.2-14.67,6.6-19.6c4.33-4.93,10.07-7.4,17.2-7.4s13.2,2.57,17.4,7.7c4.2,5.13,6.3,11.57,6.3,19.3ZM1217.09,421.2c-4.2,0-7.63,1.32-10.3,3.95-2.67,2.63-4.33,6.42-5,11.35h30.4c-.4-4.53-1.93-8.22-4.6-11.05-2.67-2.83-6.17-4.25-10.5-4.25Z"/>
      <path class="uuid-696164d5-91ff-4be5-b655-a9d5962c141e" d="M1292.29,440.9v2.8h-39.2c.4,5.6,1.97,9.82,4.7,12.65,2.73,2.83,6.47,4.25,11.2,4.25,7.13,0,11.7-3.2,13.7-9.6h8.3c-1.4,5.2-4,9.32-7.8,12.35-3.8,3.03-8.6,4.55-14.4,4.55-7.13,0-12.9-2.43-17.3-7.3-4.47-4.87-6.7-11.43-6.7-19.7s2.2-14.67,6.6-19.6c4.33-4.93,10.07-7.4,17.2-7.4s13.2,2.57,17.4,7.7c4.2,5.13,6.3,11.57,6.3,19.3ZM1268.59,421.2c-4.2,0-7.63,1.32-10.3,3.95-2.67,2.63-4.33,6.42-5,11.35h30.4c-.4-4.53-1.93-8.22-4.6-11.05-2.67-2.83-6.17-4.25-10.5-4.25Z"/>
      <path class="uuid-696164d5-91ff-4be5-b655-a9d5962c141e" d="M1342.7,466.7h-9.3l-17.4-27.7-9.2,8.6v19.1h-8v-71.2h8v42.7l23.9-23.1h10.6l-19.6,18.6,21,33Z"/>
      <path class="uuid-696164d5-91ff-4be5-b655-a9d5962c141e" d="M1361.9,467.9c-13.8,0-21.1-5.87-21.9-17.6h8.1c.46,3.87,1.75,6.62,3.85,8.25,2.1,1.63,5.42,2.45,9.95,2.45,8.27,0,12.4-2.67,12.4-8,0-2.33-.85-4.1-2.55-5.3s-4.78-2.23-9.25-3.1l-4.8-.9c-10.73-2-16.1-7.07-16.1-15.2,0-4.47,1.68-8.02,5.05-10.65,3.37-2.63,7.95-3.95,13.75-3.95,13.67,0,20.67,5.7,21,17.1h-8c-.2-3.73-1.33-6.37-3.4-7.9-2.07-1.53-5.27-2.3-9.6-2.3-3.47,0-6.13.67-8,2-1.87,1.33-2.8,3.2-2.8,5.6,0,2.27.8,3.97,2.4,5.1,1.6,1.13,4.27,2.1,8,2.9l4.6.9c6.33,1.27,10.88,3.07,13.65,5.4,2.77,2.33,4.15,5.6,4.15,9.8,0,4.87-1.82,8.65-5.45,11.35-3.63,2.7-8.65,4.05-15.05,4.05Z"/>
      <path class="uuid-696164d5-91ff-4be5-b655-a9d5962c141e" d="M1425.99,415.1v7h-10.6v33.5c0,2.93,1.97,4.4,5.9,4.4h4.7v6.7c-2.2.2-4.1.3-5.7.3-8.6,0-12.9-3.57-12.9-10.7v-34.2h-8.5v-7h8.5v-14.6h8v14.6h10.6Z"/>
      <path class="uuid-696164d5-91ff-4be5-b655-a9d5962c141e" d="M1470.99,460.5c-4.73,4.93-10.73,7.4-18,7.4s-13.27-2.47-18-7.4c-4.67-4.87-7-11.4-7-19.6s2.33-14.73,7-19.6c4.73-4.93,10.73-7.4,18-7.4s13.27,2.47,18,7.4c4.67,4.87,7,11.4,7,19.6s-2.33,14.73-7,19.6ZM1440.89,455.4c3,3.53,7.03,5.3,12.1,5.3s9.1-1.77,12.1-5.3c3-3.47,4.5-8.3,4.5-14.5s-1.5-11.13-4.5-14.6c-3-3.46-7.03-5.2-12.1-5.2s-9.1,1.73-12.1,5.2c-3,3.47-4.5,8.33-4.5,14.6s1.5,11.03,4.5,14.5Z"/>
      <path class="uuid-696164d5-91ff-4be5-b655-a9d5962c141e" d="M1534.49,444.3v-29.2h8v51.6h-7.6v-7.7c-3.93,5.93-9.33,8.9-16.2,8.9-5.73,0-10.2-1.57-13.4-4.7-3.2-3.13-4.8-7.53-4.8-13.2v-34.9h8v34.1c0,7.67,3.93,11.5,11.8,11.5,3.73,0,7.03-1.4,9.9-4.2,2.87-2.8,4.3-6.87,4.3-12.2Z"/>
      <path class="uuid-696164d5-91ff-4be5-b655-a9d5962c141e" d="M1576.79,413.9c7.27,0,13.1,2.43,17.5,7.3,4.33,4.93,6.5,11.5,6.5,19.7s-2.17,14.67-6.5,19.6c-4.4,4.93-10.23,7.4-17.5,7.4s-13.17-2.87-17.3-8.6v27h-8v-71.2h7.6v8c4.13-6.13,10.03-9.2,17.7-9.2ZM1575.79,460.7c5,0,9.02-1.82,12.05-5.45,3.03-3.63,4.55-8.55,4.55-14.75s-1.48-10.82-4.45-14.25c-2.97-3.43-7.02-5.15-12.15-5.15s-9.1,1.73-12.1,5.2c-3,3.47-4.5,8.33-4.5,14.6s1.5,11.03,4.5,14.5c3,3.53,7.03,5.3,12.1,5.3Z"/>
      <path class="uuid-696164d5-91ff-4be5-b655-a9d5962c141e" d="M1615.29,466.7h-8v-71.2h8v71.2Z"/>
      <path class="uuid-696164d5-91ff-4be5-b655-a9d5962c141e" d="M1632.49,407.3h-8.5v-9.8h8.5v9.8ZM1632.29,466.7h-8v-51.6h8v51.6Z"/>
      <path class="uuid-696164d5-91ff-4be5-b655-a9d5962c141e" d="M1664.79,402.3h-4.6c-4.6,0-6.9,2.43-6.9,7.3v5.5h11v7h-11v44.6h-8v-44.6h-8.5v-7h8.5v-5.3c0-9.67,4.8-14.5,14.4-14.5,1.27,0,2.96.07,5.1.2v6.8Z"/>
      <path class="uuid-696164d5-91ff-4be5-b655-a9d5962c141e" d="M1692.89,415.1v7h-10.6v33.5c0,2.93,1.97,4.4,5.9,4.4h4.7v6.7c-2.2.2-4.1.3-5.7.3-8.6,0-12.9-3.57-12.9-10.7v-34.2h-8.5v-7h8.5v-14.6h8v14.6h10.6Z"/>
      <path class="uuid-696164d5-91ff-4be5-b655-a9d5962c141e" d="M1696.89,466.7v-10h10.1v10.9c0,8-3.03,12.3-9.1,12.9l-1,.1v-5.4l.7-.1c2.47-.27,3.7-2.54,3.7-6.8v-1.6h-4.4Z"/>
    </g>
    <g class="uuid-7e5877ac-de84-4463-a59d-5a55438f93da">
      <path class="uuid-696164d5-91ff-4be5-b655-a9d5962c141e" d="M192.01,540.9v2.8h-39.2c.4,5.6,1.97,9.82,4.7,12.65,2.73,2.83,6.47,4.25,11.2,4.25,7.13,0,11.7-3.2,13.7-9.6h8.3c-1.4,5.2-4,9.32-7.8,12.35-3.8,3.03-8.6,4.55-14.4,4.55-7.13,0-12.9-2.43-17.3-7.3-4.47-4.87-6.7-11.43-6.7-19.7s2.2-14.67,6.6-19.6c4.33-4.93,10.07-7.4,17.2-7.4s13.2,2.57,17.4,7.7c4.2,5.13,6.3,11.57,6.3,19.3ZM168.31,521.2c-4.2,0-7.63,1.32-10.3,3.95-2.67,2.63-4.33,6.42-5,11.35h30.4c-.4-4.53-1.93-8.22-4.6-11.05-2.67-2.83-6.17-4.25-10.5-4.25Z"/>
      <path class="uuid-696164d5-91ff-4be5-b655-a9d5962c141e" d="M252.81,513.9c5.6,0,9.95,1.62,13.05,4.85,3.1,3.23,4.65,7.55,4.65,12.95v35h-8v-34.2c0-7.6-3.6-11.4-10.8-11.4-3.8,0-6.95,1.52-9.45,4.55-2.5,3.03-3.75,7.32-3.75,12.85v28.2h-8v-34.2c0-7.6-3.6-11.4-10.8-11.4-3.73,0-6.87,1.52-9.4,4.55-2.53,3.03-3.8,7.32-3.8,12.85v28.2h-8v-51.6h7.6v7.6c3.4-5.87,8.37-8.8,14.9-8.8,7.73,0,13.03,3.23,15.9,9.7,3.6-6.47,8.9-9.7,15.9-9.7Z"/>
      <path class="uuid-696164d5-91ff-4be5-b655-a9d5962c141e" d="M304.81,513.9c7.27,0,13.1,2.43,17.5,7.3,4.33,4.93,6.5,11.5,6.5,19.7s-2.17,14.67-6.5,19.6c-4.4,4.93-10.23,7.4-17.5,7.4s-13.17-2.87-17.3-8.6v27h-8v-71.2h7.6v8c4.13-6.13,10.03-9.2,17.7-9.2ZM303.81,560.7c5,0,9.02-1.82,12.05-5.45,3.03-3.63,4.55-8.55,4.55-14.75s-1.48-10.82-4.45-14.25c-2.97-3.43-7.02-5.15-12.15-5.15s-9.1,1.73-12.1,5.2c-3,3.47-4.5,8.33-4.5,14.6s1.5,11.03,4.5,14.5c3,3.53,7.03,5.3,12.1,5.3Z"/>
      <path class="uuid-696164d5-91ff-4be5-b655-a9d5962c141e" d="M375.81,560.5c-4.73,4.93-10.73,7.4-18,7.4s-13.27-2.47-18-7.4c-4.67-4.87-7-11.4-7-19.6s2.33-14.73,7-19.6c4.73-4.93,10.73-7.4,18-7.4s13.27,2.47,18,7.4c4.67,4.87,7,11.4,7,19.6s-2.33,14.73-7,19.6ZM345.71,555.4c3,3.53,7.03,5.3,12.1,5.3s9.1-1.77,12.1-5.3c3-3.47,4.5-8.3,4.5-14.5s-1.5-11.13-4.5-14.6c-3-3.46-7.03-5.2-12.1-5.2s-9.1,1.73-12.1,5.2c-3,3.47-4.5,8.33-4.5,14.6s1.5,11.03,4.5,14.5Z"/>
      <path class="uuid-696164d5-91ff-4be5-b655-a9d5962c141e" d="M441.71,538.4l7.3-23.3h8.6l-17.2,51.6h-8.4l-7.6-23.9c-2.6-8.46-4.33-14.3-5.2-17.5-1.53,5.47-3.3,11.3-5.3,17.5l-7.5,23.9h-8.4l-17.2-51.6h8.6l7.3,23.3c1.8,5.67,3.67,11.93,5.6,18.8,2.13-7.6,3.97-13.87,5.5-18.8l7.2-23.3h8.4l7.2,23.3c3.67,12.2,5.53,18.4,5.6,18.6.53-2.07,2.37-8.27,5.5-18.6Z"/>
      <path class="uuid-696164d5-91ff-4be5-b655-a9d5962c141e" d="M503.11,540.9v2.8h-39.2c.4,5.6,1.97,9.82,4.7,12.65,2.73,2.83,6.47,4.25,11.2,4.25,7.13,0,11.7-3.2,13.7-9.6h8.3c-1.4,5.2-4,9.32-7.8,12.35-3.8,3.03-8.6,4.55-14.4,4.55-7.13,0-12.9-2.43-17.3-7.3-4.47-4.87-6.7-11.43-6.7-19.7s2.2-14.67,6.6-19.6c4.33-4.93,10.07-7.4,17.2-7.4s13.2,2.57,17.4,7.7c4.2,5.13,6.3,11.57,6.3,19.3ZM479.41,521.2c-4.2,0-7.63,1.32-10.3,3.95-2.67,2.63-4.33,6.42-5,11.35h30.4c-.4-4.53-1.93-8.22-4.6-11.05-2.67-2.83-6.17-4.25-10.5-4.25Z"/>
      <path class="uuid-696164d5-91ff-4be5-b655-a9d5962c141e" d="M533.81,514.3c1.33,0,2.23.04,2.7.1v7.7h-2c-5.33,0-9.48,1.32-12.45,3.95-2.97,2.63-4.45,6.38-4.45,11.25v29.4h-8v-51.6h7.6v9.1c3.47-6.6,9-9.9,16.6-9.9Z"/>
      <path class="uuid-696164d5-91ff-4be5-b655-a9d5962c141e" d="M530.51,566.7v-10h10.1v10.9c0,8-3.03,12.3-9.1,12.9l-1,.1v-5.4l.7-.1c2.47-.27,3.7-2.54,3.7-6.8v-1.6h-4.4Z"/>
      <path class="uuid-696164d5-91ff-4be5-b655-a9d5962c141e" d="M572.31,507.3h-8.5v-9.8h8.5v9.8ZM572.11,566.7h-8v-51.6h8v51.6Z"/>
      <path class="uuid-696164d5-91ff-4be5-b655-a9d5962c141e" d="M604.91,513.9c5.73,0,10.2,1.57,13.4,4.7,3.2,3.13,4.8,7.53,4.8,13.2v34.9h-8v-34.1c0-7.67-3.93-11.5-11.8-11.5-3.73,0-7.03,1.4-9.9,4.2-2.87,2.8-4.3,6.87-4.3,12.2v29.2h-8v-51.6h7.6v7.7c3.93-5.93,9.33-8.9,16.2-8.9Z"/>
      <path class="uuid-696164d5-91ff-4be5-b655-a9d5962c141e" d="M650.31,567.9c-13.8,0-21.1-5.87-21.9-17.6h8.1c.47,3.87,1.75,6.62,3.85,8.25,2.1,1.63,5.42,2.45,9.95,2.45,8.27,0,12.4-2.67,12.4-8,0-2.33-.85-4.1-2.55-5.3-1.7-1.2-4.78-2.23-9.25-3.1l-4.8-.9c-10.73-2-16.1-7.07-16.1-15.2,0-4.47,1.68-8.02,5.05-10.65,3.37-2.63,7.95-3.95,13.75-3.95,13.67,0,20.67,5.7,21,17.1h-8c-.2-3.73-1.33-6.37-3.4-7.9-2.07-1.53-5.27-2.3-9.6-2.3-3.47,0-6.13.67-8,2-1.87,1.33-2.8,3.2-2.8,5.6,0,2.27.8,3.97,2.4,5.1,1.6,1.13,4.27,2.1,8,2.9l4.6.9c6.33,1.27,10.88,3.07,13.65,5.4,2.77,2.33,4.15,5.6,4.15,9.8,0,4.87-1.82,8.65-5.45,11.35-3.63,2.7-8.65,4.05-15.05,4.05Z"/>
      <path class="uuid-696164d5-91ff-4be5-b655-a9d5962c141e" d="M701.1,513.9c7.27,0,13.1,2.43,17.5,7.3,4.33,4.93,6.5,11.5,6.5,19.7s-2.17,14.67-6.5,19.6c-4.4,4.93-10.23,7.4-17.5,7.4s-13.17-2.87-17.3-8.6v27h-8v-71.2h7.6v8c4.13-6.13,10.03-9.2,17.7-9.2ZM700.1,560.7c5,0,9.02-1.82,12.05-5.45,3.03-3.63,4.55-8.55,4.55-14.75s-1.48-10.82-4.45-14.25c-2.97-3.43-7.02-5.15-12.15-5.15s-9.1,1.73-12.1,5.2c-3,3.47-4.5,8.33-4.5,14.6s1.5,11.03,4.5,14.5c3,3.53,7.03,5.3,12.1,5.3Z"/>
      <path class="uuid-696164d5-91ff-4be5-b655-a9d5962c141e" d="M739.8,507.3h-8.5v-9.8h8.5v9.8ZM739.6,566.7h-8v-51.6h8v51.6Z"/>
      <path class="uuid-696164d5-91ff-4be5-b655-a9d5962c141e" d="M772.8,514.3c1.33,0,2.23.04,2.7.1v7.7h-2c-5.33,0-9.48,1.32-12.45,3.95-2.97,2.63-4.45,6.38-4.45,11.25v29.4h-8v-51.6h7.6v9.1c3.47-6.6,9-9.9,16.6-9.9Z"/>
      <path class="uuid-696164d5-91ff-4be5-b655-a9d5962c141e" d="M822,540.9v2.8h-39.2c.4,5.6,1.97,9.82,4.7,12.65,2.73,2.83,6.47,4.25,11.2,4.25,7.13,0,11.7-3.2,13.7-9.6h8.3c-1.4,5.2-4,9.32-7.8,12.35-3.8,3.03-8.6,4.55-14.4,4.55-7.13,0-12.9-2.43-17.3-7.3-4.47-4.87-6.7-11.43-6.7-19.7s2.2-14.67,6.6-19.6c4.33-4.93,10.07-7.4,17.2-7.4s13.2,2.57,17.4,7.7c4.2,5.13,6.3,11.57,6.3,19.3ZM798.3,521.2c-4.2,0-7.63,1.32-10.3,3.95-2.67,2.63-4.33,6.42-5,11.35h30.4c-.4-4.53-1.93-8.22-4.6-11.05-2.67-2.83-6.17-4.25-10.5-4.25Z"/>
      <path class="uuid-696164d5-91ff-4be5-b655-a9d5962c141e" d="M886.7,560.2h2.9v6.5c-1.33.2-2.8.3-4.4.3-5.4,0-8.3-2.47-8.7-7.4-3.6,5.53-9.2,8.3-16.8,8.3-5.67,0-10.12-1.32-13.35-3.95-3.23-2.63-4.85-6.35-4.85-11.15,0-9.33,6.37-14.67,19.1-16l7.4-.8c5.4-.6,8.1-2.97,8.1-7.1,0-2.87-.88-4.93-2.65-6.2-1.77-1.27-4.75-1.9-8.95-1.9-4.47,0-7.68.75-9.65,2.25-1.97,1.5-3.08,4.15-3.35,7.95h-8c.67-11.4,7.67-17.1,21-17.1s19.4,5,19.4,15v28.8c0,1.67.93,2.5,2.8,2.5ZM860.1,561.1c4.27,0,8-1.3,11.2-3.9,3.2-2.53,4.8-6.17,4.8-10.9v-6.1c-1.47,1.13-3.73,1.87-6.8,2.2l-7.5.9c-4.33.54-7.42,1.54-9.25,3-1.83,1.47-2.75,3.57-2.75,6.3s.87,4.75,2.6,6.25c1.73,1.5,4.3,2.25,7.7,2.25Z"/>
      <path class="uuid-696164d5-91ff-4be5-b655-a9d5962c141e" d="M917.4,513.9c5.73,0,10.2,1.57,13.4,4.7,3.2,3.13,4.8,7.53,4.8,13.2v34.9h-8v-34.1c0-7.67-3.93-11.5-11.8-11.5-3.73,0-7.03,1.4-9.9,4.2-2.87,2.8-4.3,6.87-4.3,12.2v29.2h-8v-51.6h7.6v7.7c3.93-5.93,9.33-8.9,16.2-8.9Z"/>
      <path class="uuid-696164d5-91ff-4be5-b655-a9d5962c141e" d="M983.4,522.5v-27h8v71.2h-7.6v-8c-4.13,6.13-10.03,9.2-17.7,9.2-7.27,0-13.07-2.47-17.4-7.4-4.4-4.93-6.6-11.47-6.6-19.6s2.2-14.83,6.6-19.7c4.27-4.87,10.07-7.3,17.4-7.3s13.17,2.87,17.3,8.6ZM955,555.6c3,3.4,7.03,5.1,12.1,5.1s9.1-1.77,12.1-5.3c3-3.47,4.5-8.3,4.5-14.5s-1.5-10.97-4.5-14.5c-3-3.53-7.04-5.3-12.1-5.3s-9.02,1.82-12.05,5.45c-3.03,3.63-4.55,8.55-4.55,14.75s1.5,10.9,4.5,14.3Z"/>
      <path class="uuid-696164d5-91ff-4be5-b655-a9d5962c141e" d="M1061.4,540.9v2.8h-39.2c.4,5.6,1.97,9.82,4.7,12.65,2.73,2.83,6.47,4.25,11.2,4.25,7.13,0,11.7-3.2,13.7-9.6h8.3c-1.4,5.2-4,9.32-7.8,12.35-3.8,3.03-8.6,4.55-14.4,4.55-7.13,0-12.9-2.43-17.3-7.3-4.47-4.87-6.7-11.43-6.7-19.7s2.2-14.67,6.6-19.6c4.33-4.93,10.06-7.4,17.2-7.4s13.2,2.57,17.4,7.7c4.2,5.13,6.3,11.57,6.3,19.3ZM1037.7,521.2c-4.2,0-7.63,1.32-10.3,3.95-2.67,2.63-4.33,6.42-5,11.35h30.4c-.4-4.53-1.93-8.22-4.6-11.05-2.67-2.83-6.17-4.25-10.5-4.25Z"/>
      <path class="uuid-696164d5-91ff-4be5-b655-a9d5962c141e" d="M1075.9,566.7h-8v-71.2h8v71.2Z"/>
      <path class="uuid-696164d5-91ff-4be5-b655-a9d5962c141e" d="M1129.9,540.9v2.8h-39.2c.4,5.6,1.96,9.82,4.7,12.65,2.73,2.83,6.47,4.25,11.2,4.25,7.13,0,11.7-3.2,13.7-9.6h8.3c-1.4,5.2-4,9.32-7.8,12.35-3.8,3.03-8.6,4.55-14.4,4.55-7.13,0-12.9-2.43-17.3-7.3-4.47-4.87-6.7-11.43-6.7-19.7s2.2-14.67,6.6-19.6c4.33-4.93,10.07-7.4,17.2-7.4s13.2,2.57,17.4,7.7c4.2,5.13,6.3,11.57,6.3,19.3ZM1106.2,521.2c-4.2,0-7.63,1.32-10.3,3.95-2.67,2.63-4.33,6.42-5,11.35h30.4c-.4-4.53-1.93-8.22-4.6-11.05-2.67-2.83-6.17-4.25-10.5-4.25Z"/>
      <path class="uuid-696164d5-91ff-4be5-b655-a9d5962c141e" d="M1160.2,538l8.5-22.9h8.6l-20.3,51.6h-8.4l-20.2-51.6h8.7l8.5,23c4.2,11.27,6.63,17.93,7.3,20,1.2-3.53,3.63-10.23,7.3-20.1Z"/>
      <path class="uuid-696164d5-91ff-4be5-b655-a9d5962c141e" d="M1220.5,560.2h2.9v6.5c-1.33.2-2.8.3-4.4.3-5.4,0-8.3-2.47-8.7-7.4-3.6,5.53-9.2,8.3-16.8,8.3-5.67,0-10.12-1.32-13.35-3.95-3.23-2.63-4.85-6.35-4.85-11.15,0-9.33,6.37-14.67,19.1-16l7.4-.8c5.4-.6,8.1-2.97,8.1-7.1,0-2.87-.88-4.93-2.65-6.2-1.77-1.27-4.75-1.9-8.95-1.9-4.47,0-7.68.75-9.65,2.25-1.97,1.5-3.08,4.15-3.35,7.95h-8c.67-11.4,7.67-17.1,21-17.1s19.4,5,19.4,15v28.8c0,1.67.93,2.5,2.8,2.5ZM1193.9,561.1c4.27,0,8-1.3,11.2-3.9,3.2-2.53,4.8-6.17,4.8-10.9v-6.1c-1.47,1.13-3.73,1.87-6.8,2.2l-7.5.9c-4.33.54-7.42,1.54-9.25,3-1.83,1.47-2.75,3.57-2.75,6.3s.87,4.75,2.6,6.25c1.73,1.5,4.3,2.25,7.7,2.25Z"/>
      <path class="uuid-696164d5-91ff-4be5-b655-a9d5962c141e" d="M1248,515.1v7h-10.6v33.5c0,2.93,1.97,4.4,5.9,4.4h4.7v6.7c-2.2.2-4.1.3-5.7.3-8.6,0-12.9-3.57-12.9-10.7v-34.2h-8.5v-7h8.5v-14.6h8v14.6h10.6Z"/>
      <path class="uuid-696164d5-91ff-4be5-b655-a9d5962c141e" d="M1297.5,540.9v2.8h-39.2c.4,5.6,1.97,9.82,4.7,12.65,2.73,2.83,6.47,4.25,11.2,4.25,7.13,0,11.7-3.2,13.7-9.6h8.3c-1.4,5.2-4,9.32-7.8,12.35-3.8,3.03-8.6,4.55-14.4,4.55-7.13,0-12.9-2.43-17.3-7.3-4.47-4.87-6.7-11.43-6.7-19.7s2.2-14.67,6.6-19.6c4.33-4.93,10.07-7.4,17.2-7.4s13.2,2.57,17.4,7.7c4.2,5.13,6.3,11.57,6.3,19.3ZM1273.8,521.2c-4.2,0-7.63,1.32-10.3,3.95-2.67,2.63-4.33,6.42-5,11.35h30.4c-.4-4.53-1.93-8.22-4.6-11.05-2.67-2.83-6.17-4.25-10.5-4.25Z"/>
      <path class="uuid-696164d5-91ff-4be5-b655-a9d5962c141e" d="M1342.6,515.1v7h-10.6v33.5c0,2.93,1.97,4.4,5.9,4.4h4.7v6.7c-2.2.2-4.1.3-5.7.3-8.6,0-12.9-3.57-12.9-10.7v-34.2h-8.5v-7h8.5v-14.6h8v14.6h10.6Z"/>
      <path class="uuid-696164d5-91ff-4be5-b655-a9d5962c141e" d="M1371.9,513.9c5.73,0,10.2,1.57,13.4,4.7,3.2,3.13,4.8,7.53,4.8,13.2v34.9h-8v-34.1c0-7.67-3.93-11.5-11.8-11.5-3.73,0-7.03,1.4-9.9,4.2-2.87,2.8-4.3,6.87-4.3,12.2v29.2h-8v-71.2h8v26.7c3.93-5.53,9.2-8.3,15.8-8.3Z"/>
      <path class="uuid-696164d5-91ff-4be5-b655-a9d5962c141e" d="M1444.1,540.9v2.8h-39.2c.4,5.6,1.97,9.82,4.7,12.65,2.73,2.83,6.47,4.25,11.2,4.25,7.13,0,11.7-3.2,13.7-9.6h8.3c-1.4,5.2-4,9.32-7.8,12.35-3.8,3.03-8.6,4.55-14.4,4.55-7.13,0-12.9-2.43-17.3-7.3-4.47-4.87-6.7-11.43-6.7-19.7s2.2-14.67,6.6-19.6c4.33-4.93,10.07-7.4,17.2-7.4s13.2,2.57,17.4,7.7c4.2,5.13,6.3,11.57,6.3,19.3ZM1420.4,521.2c-4.2,0-7.63,1.32-10.3,3.95-2.67,2.63-4.33,6.42-5,11.35h30.4c-.4-4.53-1.93-8.22-4.6-11.05-2.67-2.83-6.17-4.25-10.5-4.25Z"/>
      <path class="uuid-696164d5-91ff-4be5-b655-a9d5962c141e" d="M1491.89,513.9c7.27,0,13.1,2.43,17.5,7.3,4.33,4.93,6.5,11.5,6.5,19.7s-2.17,14.67-6.5,19.6c-4.4,4.93-10.23,7.4-17.5,7.4-7.67,0-13.57-3.07-17.7-9.2v8h-7.6v-71.2h8v27c4.13-5.73,9.9-8.6,17.3-8.6ZM1490.89,560.7c5,0,9.02-1.82,12.05-5.45,3.03-3.63,4.55-8.55,4.55-14.75s-1.48-10.82-4.45-14.25c-2.97-3.43-7.02-5.15-12.15-5.15s-9.1,1.73-12.1,5.2c-3,3.47-4.5,8.33-4.5,14.6s1.5,11.03,4.5,14.5c3,3.53,7.03,5.3,12.1,5.3Z"/>
      <path class="uuid-696164d5-91ff-4be5-b655-a9d5962c141e" d="M1546.59,514.3c1.33,0,2.23.04,2.7.1v7.7h-2c-5.33,0-9.48,1.32-12.45,3.95-2.97,2.63-4.45,6.38-4.45,11.25v29.4h-8v-51.6h7.6v9.1c3.47-6.6,9-9.9,16.6-9.9Z"/>
      <path class="uuid-696164d5-91ff-4be5-b655-a9d5962c141e" d="M1592.49,560.2h2.9v6.5c-1.33.2-2.8.3-4.4.3-5.4,0-8.3-2.47-8.7-7.4-3.6,5.53-9.2,8.3-16.8,8.3-5.67,0-10.12-1.32-13.35-3.95-3.23-2.63-4.85-6.35-4.85-11.15,0-9.33,6.37-14.67,19.1-16l7.4-.8c5.4-.6,8.1-2.97,8.1-7.1,0-2.87-.88-4.93-2.65-6.2-1.77-1.27-4.75-1.9-8.95-1.9-4.47,0-7.68.75-9.65,2.25-1.97,1.5-3.08,4.15-3.35,7.95h-8c.67-11.4,7.67-17.1,21-17.1s19.4,5,19.4,15v28.8c0,1.67.93,2.5,2.8,2.5ZM1565.89,561.1c4.27,0,8-1.3,11.2-3.9,3.2-2.53,4.8-6.17,4.8-10.9v-6.1c-1.47,1.13-3.73,1.87-6.8,2.2l-7.5.9c-4.33.54-7.42,1.54-9.25,3-1.83,1.47-2.75,3.57-2.75,6.3s.87,4.75,2.6,6.25c1.73,1.5,4.3,2.25,7.7,2.25Z"/>
      <path class="uuid-696164d5-91ff-4be5-b655-a9d5962c141e" d="M1623.19,513.9c5.73,0,10.2,1.57,13.4,4.7,3.2,3.13,4.8,7.53,4.8,13.2v34.9h-8v-34.1c0-7.67-3.93-11.5-11.8-11.5-3.73,0-7.03,1.4-9.9,4.2-2.87,2.8-4.3,6.87-4.3,12.2v29.2h-8v-51.6h7.6v7.7c3.93-5.93,9.33-8.9,16.2-8.9Z"/>
      <path class="uuid-696164d5-91ff-4be5-b655-a9d5962c141e" d="M1689.19,522.5v-27h8v71.2h-7.6v-8c-4.13,6.13-10.03,9.2-17.7,9.2-7.27,0-13.07-2.47-17.4-7.4-4.4-4.93-6.6-11.47-6.6-19.6s2.2-14.83,6.6-19.7c4.27-4.87,10.07-7.3,17.4-7.3s13.17,2.87,17.3,8.6ZM1660.79,555.6c3,3.4,7.03,5.1,12.1,5.1s9.1-1.77,12.1-5.3c3-3.47,4.5-8.3,4.5-14.5s-1.5-10.97-4.5-14.5c-3-3.53-7.03-5.3-12.1-5.3s-9.02,1.82-12.05,5.45c-3.03,3.63-4.55,8.55-4.55,14.75s1.5,10.9,4.5,14.3Z"/>
      <path class="uuid-696164d5-91ff-4be5-b655-a9d5962c141e" d="M1724.39,567.9c-13.8,0-21.1-5.87-21.9-17.6h8.1c.46,3.87,1.75,6.62,3.85,8.25,2.1,1.63,5.42,2.45,9.95,2.45,8.27,0,12.4-2.67,12.4-8,0-2.33-.85-4.1-2.55-5.3s-4.78-2.23-9.25-3.1l-4.8-.9c-10.73-2-16.1-7.07-16.1-15.2,0-4.47,1.68-8.02,5.05-10.65,3.37-2.63,7.95-3.95,13.75-3.95,13.67,0,20.67,5.7,21,17.1h-8c-.2-3.73-1.33-6.37-3.4-7.9-2.07-1.53-5.27-2.3-9.6-2.3-3.47,0-6.13.67-8,2-1.87,1.33-2.8,3.2-2.8,5.6,0,2.27.8,3.97,2.4,5.1,1.6,1.13,4.27,2.1,8,2.9l4.6.9c6.33,1.27,10.88,3.07,13.65,5.4,2.77,2.33,4.15,5.6,4.15,9.8,0,4.87-1.82,8.65-5.45,11.35-3.63,2.7-8.65,4.05-15.05,4.05Z"/>
      <path class="uuid-696164d5-91ff-4be5-b655-a9d5962c141e" d="M1748.39,566.7v-10h10.1v10.9c0,8-3.03,12.3-9.1,12.9l-1,.1v-5.4l.7-.1c2.47-.27,3.7-2.54,3.7-6.8v-1.6h-4.4Z"/>
    </g>
    <g class="uuid-7e5877ac-de84-4463-a59d-5a55438f93da">
      <path class="uuid-696164d5-91ff-4be5-b655-a9d5962c141e" d="M169.61,615.1v7h-10.6v33.5c0,2.93,1.97,4.4,5.9,4.4h4.7v6.7c-2.2.2-4.1.3-5.7.3-8.6,0-12.9-3.57-12.9-10.7v-34.2h-8.5v-7h8.5v-14.6h8v14.6h10.6Z"/>
      <path class="uuid-696164d5-91ff-4be5-b655-a9d5962c141e" d="M199.31,614.3c1.33,0,2.23.04,2.7.1v7.7h-2c-5.33,0-9.48,1.32-12.45,3.95-2.97,2.63-4.45,6.38-4.45,11.25v29.4h-8v-51.6h7.6v9.1c3.47-6.6,9-9.9,16.6-9.9Z"/>
      <path class="uuid-696164d5-91ff-4be5-b655-a9d5962c141e" d="M248.51,640.9v2.8h-39.2c.4,5.6,1.97,9.82,4.7,12.65,2.73,2.83,6.47,4.25,11.2,4.25,7.13,0,11.7-3.2,13.7-9.6h8.3c-1.4,5.2-4,9.32-7.8,12.35-3.8,3.03-8.6,4.55-14.4,4.55-7.13,0-12.9-2.43-17.3-7.3-4.47-4.87-6.7-11.43-6.7-19.7s2.2-14.67,6.6-19.6c4.33-4.93,10.07-7.4,17.2-7.4s13.2,2.57,17.4,7.7c4.2,5.13,6.3,11.57,6.3,19.3ZM224.81,621.2c-4.2,0-7.63,1.32-10.3,3.95-2.67,2.63-4.33,6.42-5,11.35h30.4c-.4-4.53-1.93-8.22-4.6-11.05-2.67-2.83-6.17-4.25-10.5-4.25Z"/>
      <path class="uuid-696164d5-91ff-4be5-b655-a9d5962c141e" d="M278.81,613.9c5.73,0,10.2,1.57,13.4,4.7,3.2,3.13,4.8,7.53,4.8,13.2v34.9h-8v-34.1c0-7.67-3.93-11.5-11.8-11.5-3.73,0-7.03,1.4-9.9,4.2-2.87,2.8-4.3,6.87-4.3,12.2v29.2h-8v-51.6h7.6v7.7c3.93-5.93,9.33-8.9,16.2-8.9Z"/>
      <path class="uuid-696164d5-91ff-4be5-b655-a9d5962c141e" d="M344.81,622.5v-27h8v71.2h-7.6v-8c-4.13,6.13-10.03,9.2-17.7,9.2-7.27,0-13.07-2.47-17.4-7.4-4.4-4.93-6.6-11.47-6.6-19.6s2.2-14.83,6.6-19.7c4.27-4.87,10.07-7.3,17.4-7.3s13.17,2.87,17.3,8.6ZM316.41,655.6c3,3.4,7.03,5.1,12.1,5.1s9.1-1.77,12.1-5.3c3-3.47,4.5-8.3,4.5-14.5s-1.5-10.97-4.5-14.5c-3-3.53-7.03-5.3-12.1-5.3s-9.02,1.82-12.05,5.45c-3.03,3.63-4.55,8.55-4.55,14.75s1.5,10.9,4.5,14.3Z"/>
      <path class="uuid-696164d5-91ff-4be5-b655-a9d5962c141e" d="M380.01,667.9c-13.8,0-21.1-5.87-21.9-17.6h8.1c.47,3.87,1.75,6.62,3.85,8.25,2.1,1.63,5.42,2.45,9.95,2.45,8.27,0,12.4-2.67,12.4-8,0-2.33-.85-4.1-2.55-5.3-1.7-1.2-4.78-2.23-9.25-3.1l-4.8-.9c-10.73-2-16.1-7.07-16.1-15.2,0-4.47,1.68-8.02,5.05-10.65,3.37-2.63,7.95-3.95,13.75-3.95,13.67,0,20.67,5.7,21,17.1h-8c-.2-3.73-1.33-6.37-3.4-7.9-2.07-1.53-5.27-2.3-9.6-2.3-3.47,0-6.13.67-8,2-1.87,1.33-2.8,3.2-2.8,5.6,0,2.27.8,3.97,2.4,5.1,1.6,1.13,4.27,2.1,8,2.9l4.6.9c6.33,1.27,10.88,3.07,13.65,5.4,2.77,2.33,4.15,5.6,4.15,9.8,0,4.87-1.82,8.65-5.45,11.35-3.63,2.7-8.65,4.05-15.05,4.05Z"/>
      <path class="uuid-696164d5-91ff-4be5-b655-a9d5962c141e" d="M463.71,660.2h2.9v6.5c-1.33.2-2.8.3-4.4.3-5.4,0-8.3-2.47-8.7-7.4-3.6,5.53-9.2,8.3-16.8,8.3-5.67,0-10.12-1.32-13.35-3.95-3.23-2.63-4.85-6.35-4.85-11.15,0-9.33,6.37-14.67,19.1-16l7.4-.8c5.4-.6,8.1-2.97,8.1-7.1,0-2.87-.88-4.93-2.65-6.2-1.77-1.27-4.75-1.9-8.95-1.9-4.47,0-7.68.75-9.65,2.25-1.97,1.5-3.08,4.15-3.35,7.95h-8c.67-11.4,7.67-17.1,21-17.1s19.4,5,19.4,15v28.8c0,1.67.93,2.5,2.8,2.5ZM437.11,661.1c4.27,0,8-1.3,11.2-3.9,3.2-2.53,4.8-6.17,4.8-10.9v-6.1c-1.47,1.13-3.73,1.87-6.8,2.2l-7.5.9c-4.33.54-7.42,1.54-9.25,3-1.83,1.47-2.75,3.57-2.75,6.3s.87,4.75,2.6,6.25c1.73,1.5,4.3,2.25,7.7,2.25Z"/>
      <path class="uuid-696164d5-91ff-4be5-b655-a9d5962c141e" d="M494.4,613.9c5.73,0,10.2,1.57,13.4,4.7,3.2,3.13,4.8,7.53,4.8,13.2v34.9h-8v-34.1c0-7.67-3.93-11.5-11.8-11.5-3.73,0-7.03,1.4-9.9,4.2-2.87,2.8-4.3,6.87-4.3,12.2v29.2h-8v-51.6h7.6v7.7c3.93-5.93,9.33-8.9,16.2-8.9Z"/>
      <path class="uuid-696164d5-91ff-4be5-b655-a9d5962c141e" d="M560.4,622.5v-27h8v71.2h-7.6v-8c-4.13,6.13-10.03,9.2-17.7,9.2-7.27,0-13.07-2.47-17.4-7.4-4.4-4.93-6.6-11.47-6.6-19.6s2.2-14.83,6.6-19.7c4.27-4.87,10.07-7.3,17.4-7.3s13.17,2.87,17.3,8.6ZM532,655.6c3,3.4,7.03,5.1,12.1,5.1s9.1-1.77,12.1-5.3c3-3.47,4.5-8.3,4.5-14.5s-1.5-10.97-4.5-14.5c-3-3.53-7.03-5.3-12.1-5.3s-9.02,1.82-12.05,5.45c-3.03,3.63-4.55,8.55-4.55,14.75s1.5,10.9,4.5,14.3Z"/>
      <path class="uuid-696164d5-91ff-4be5-b655-a9d5962c141e" d="M638.4,640.9v2.8h-39.2c.4,5.6,1.97,9.82,4.7,12.65,2.73,2.83,6.47,4.25,11.2,4.25,7.13,0,11.7-3.2,13.7-9.6h8.3c-1.4,5.2-4,9.32-7.8,12.35-3.8,3.03-8.6,4.55-14.4,4.55-7.13,0-12.9-2.43-17.3-7.3-4.47-4.87-6.7-11.43-6.7-19.7s2.2-14.67,6.6-19.6c4.33-4.93,10.07-7.4,17.2-7.4s13.2,2.57,17.4,7.7c4.2,5.13,6.3,11.57,6.3,19.3ZM614.7,621.2c-4.2,0-7.63,1.32-10.3,3.95-2.67,2.63-4.33,6.42-5,11.35h30.4c-.4-4.53-1.93-8.22-4.6-11.05-2.67-2.83-6.17-4.25-10.5-4.25Z"/>
      <path class="uuid-696164d5-91ff-4be5-b655-a9d5962c141e" d="M683,615.1l-18.7,25.2,19.7,26.4h-9.4l-2.8-3.9c-4.87-6.93-8.9-12.53-12.1-16.8-4.8,6.47-8.9,12.1-12.3,16.9l-2.7,3.8h-9.3l19.7-26.4-18.7-25.2h9.4l4,5.5c4.47,6,7.8,10.67,10,14,5.07-7.13,8.4-11.8,10-14l3.9-5.5h9.3Z"/>
      <path class="uuid-696164d5-91ff-4be5-b655-a9d5962c141e" d="M711.8,613.9c7.27,0,13.1,2.43,17.5,7.3,4.33,4.93,6.5,11.5,6.5,19.7s-2.17,14.67-6.5,19.6c-4.4,4.93-10.23,7.4-17.5,7.4s-13.17-2.87-17.3-8.6v27h-8v-71.2h7.6v8c4.13-6.13,10.03-9.2,17.7-9.2ZM710.8,660.7c5,0,9.02-1.82,12.05-5.45,3.03-3.63,4.55-8.55,4.55-14.75s-1.48-10.82-4.45-14.25c-2.97-3.43-7.02-5.15-12.15-5.15s-9.1,1.73-12.1,5.2c-3,3.47-4.5,8.33-4.5,14.6s1.5,11.03,4.5,14.5c3,3.53,7.03,5.3,12.1,5.3Z"/>
      <path class="uuid-696164d5-91ff-4be5-b655-a9d5962c141e" d="M787.3,640.9v2.8h-39.2c.4,5.6,1.97,9.82,4.7,12.65,2.73,2.83,6.47,4.25,11.2,4.25,7.13,0,11.7-3.2,13.7-9.6h8.3c-1.4,5.2-4,9.32-7.8,12.35-3.8,3.03-8.6,4.55-14.4,4.55-7.13,0-12.9-2.43-17.3-7.3-4.47-4.87-6.7-11.43-6.7-19.7s2.2-14.67,6.6-19.6c4.33-4.93,10.07-7.4,17.2-7.4s13.2,2.57,17.4,7.7c4.2,5.13,6.3,11.57,6.3,19.3ZM763.6,621.2c-4.2,0-7.63,1.32-10.3,3.95-2.67,2.63-4.33,6.42-5,11.35h30.4c-.4-4.53-1.93-8.22-4.6-11.05-2.67-2.83-6.17-4.25-10.5-4.25Z"/>
      <path class="uuid-696164d5-91ff-4be5-b655-a9d5962c141e" d="M818,614.3c1.33,0,2.23.04,2.7.1v7.7h-2c-5.33,0-9.48,1.32-12.45,3.95-2.97,2.63-4.45,6.38-4.45,11.25v29.4h-8v-51.6h7.6v9.1c3.47-6.6,9-9.9,16.6-9.9Z"/>
      <path class="uuid-696164d5-91ff-4be5-b655-a9d5962c141e" d="M833.4,607.3h-8.5v-9.8h8.5v9.8ZM833.2,666.7h-8v-51.6h8v51.6Z"/>
      <path class="uuid-696164d5-91ff-4be5-b655-a9d5962c141e" d="M887.2,640.9v2.8h-39.2c.4,5.6,1.97,9.82,4.7,12.65,2.73,2.83,6.47,4.25,11.2,4.25,7.13,0,11.7-3.2,13.7-9.6h8.3c-1.4,5.2-4,9.32-7.8,12.35-3.8,3.03-8.6,4.55-14.4,4.55-7.13,0-12.9-2.43-17.3-7.3-4.47-4.87-6.7-11.43-6.7-19.7s2.2-14.67,6.6-19.6c4.33-4.93,10.07-7.4,17.2-7.4s13.2,2.57,17.4,7.7c4.2,5.13,6.3,11.57,6.3,19.3ZM863.5,621.2c-4.2,0-7.63,1.32-10.3,3.95-2.67,2.63-4.33,6.42-5,11.35h30.4c-.4-4.53-1.93-8.22-4.6-11.05-2.67-2.83-6.17-4.25-10.5-4.25Z"/>
      <path class="uuid-696164d5-91ff-4be5-b655-a9d5962c141e" d="M917.5,613.9c5.73,0,10.2,1.57,13.4,4.7,3.2,3.13,4.8,7.53,4.8,13.2v34.9h-8v-34.1c0-7.67-3.93-11.5-11.8-11.5-3.73,0-7.03,1.4-9.9,4.2-2.87,2.8-4.3,6.87-4.3,12.2v29.2h-8v-51.6h7.6v7.7c3.93-5.93,9.33-8.9,16.2-8.9Z"/>
      <path class="uuid-696164d5-91ff-4be5-b655-a9d5962c141e" d="M966.1,667.9c-7.13,0-12.9-2.47-17.3-7.4-4.4-4.93-6.6-11.47-6.6-19.6s2.2-14.83,6.6-19.7c4.27-4.87,10.03-7.3,17.3-7.3,6.13,0,11.17,1.67,15.1,5,3.93,3.33,6.3,7.9,7.1,13.7h-8.3c-.6-3.67-2.18-6.5-4.75-8.5s-5.62-3-9.15-3c-4.73,0-8.5,1.72-11.3,5.15-2.8,3.43-4.2,8.32-4.2,14.65s1.42,11.13,4.25,14.6c2.83,3.47,6.58,5.2,11.25,5.2,3.53,0,6.6-1.03,9.2-3.1,2.6-2.07,4.2-4.93,4.8-8.6h8.2c-.87,5.8-3.32,10.4-7.35,13.8-4.03,3.4-8.98,5.1-14.85,5.1Z"/>
      <path class="uuid-696164d5-91ff-4be5-b655-a9d5962c141e" d="M1038.8,640.9v2.8h-39.2c.4,5.6,1.97,9.82,4.7,12.65,2.73,2.83,6.47,4.25,11.2,4.25,7.13,0,11.7-3.2,13.7-9.6h8.3c-1.4,5.2-4,9.32-7.8,12.35-3.8,3.03-8.6,4.55-14.4,4.55-7.13,0-12.9-2.43-17.3-7.3-4.47-4.87-6.7-11.43-6.7-19.7s2.2-14.67,6.6-19.6c4.33-4.93,10.06-7.4,17.2-7.4s13.2,2.57,17.4,7.7c4.2,5.13,6.3,11.57,6.3,19.3ZM1015.1,621.2c-4.2,0-7.63,1.32-10.3,3.95-2.67,2.63-4.33,6.42-5,11.35h30.4c-.4-4.53-1.93-8.22-4.6-11.05-2.67-2.83-6.17-4.25-10.5-4.25Z"/>
      <path class="uuid-696164d5-91ff-4be5-b655-a9d5962c141e" d="M1063,667.9c-13.8,0-21.1-5.87-21.9-17.6h8.1c.46,3.87,1.75,6.62,3.85,8.25,2.1,1.63,5.42,2.45,9.95,2.45,8.27,0,12.4-2.67,12.4-8,0-2.33-.85-4.1-2.55-5.3s-4.78-2.23-9.25-3.1l-4.8-.9c-10.73-2-16.1-7.07-16.1-15.2,0-4.47,1.68-8.02,5.05-10.65,3.37-2.63,7.95-3.95,13.75-3.95,13.67,0,20.67,5.7,21,17.1h-8c-.2-3.73-1.33-6.37-3.4-7.9-2.07-1.53-5.27-2.3-9.6-2.3-3.47,0-6.13.67-8,2-1.87,1.33-2.8,3.2-2.8,5.6,0,2.27.8,3.97,2.4,5.1,1.6,1.13,4.27,2.1,8,2.9l4.6.9c6.33,1.27,10.88,3.07,13.65,5.4,2.77,2.33,4.15,5.6,4.15,9.8,0,4.87-1.82,8.65-5.45,11.35-3.63,2.7-8.65,4.05-15.05,4.05Z"/>
      <path class="uuid-696164d5-91ff-4be5-b655-a9d5962c141e" d="M1127.1,615.1v7h-10.6v33.5c0,2.93,1.97,4.4,5.9,4.4h4.7v6.7c-2.2.2-4.1.3-5.7.3-8.6,0-12.9-3.57-12.9-10.7v-34.2h-8.5v-7h8.5v-14.6h8v14.6h10.6Z"/>
      <path class="uuid-696164d5-91ff-4be5-b655-a9d5962c141e" d="M1156.4,613.9c5.73,0,10.2,1.57,13.4,4.7,3.2,3.13,4.8,7.53,4.8,13.2v34.9h-8v-34.1c0-7.67-3.93-11.5-11.8-11.5-3.73,0-7.03,1.4-9.9,4.2-2.87,2.8-4.3,6.87-4.3,12.2v29.2h-8v-71.2h8v26.7c3.93-5.53,9.2-8.3,15.8-8.3Z"/>
      <path class="uuid-696164d5-91ff-4be5-b655-a9d5962c141e" d="M1225.8,660.2h2.9v6.5c-1.33.2-2.8.3-4.4.3-5.4,0-8.3-2.47-8.7-7.4-3.6,5.53-9.2,8.3-16.8,8.3-5.67,0-10.12-1.32-13.35-3.95-3.23-2.63-4.85-6.35-4.85-11.15,0-9.33,6.37-14.67,19.1-16l7.4-.8c5.4-.6,8.1-2.97,8.1-7.1,0-2.87-.88-4.93-2.65-6.2-1.77-1.27-4.75-1.9-8.95-1.9-4.47,0-7.68.75-9.65,2.25-1.97,1.5-3.08,4.15-3.35,7.95h-8c.67-11.4,7.67-17.1,21-17.1s19.4,5,19.4,15v28.8c0,1.67.93,2.5,2.8,2.5ZM1199.2,661.1c4.27,0,8-1.3,11.2-3.9,3.2-2.53,4.8-6.17,4.8-10.9v-6.1c-1.47,1.13-3.73,1.87-6.8,2.2l-7.5.9c-4.33.54-7.42,1.54-9.25,3-1.83,1.47-2.75,3.57-2.75,6.3s.87,4.75,2.6,6.25c1.73,1.5,4.3,2.25,7.7,2.25Z"/>
      <path class="uuid-696164d5-91ff-4be5-b655-a9d5962c141e" d="M1253.3,615.1v7h-10.6v33.5c0,2.93,1.97,4.4,5.9,4.4h4.7v6.7c-2.2.2-4.1.3-5.7.3-8.6,0-12.9-3.57-12.9-10.7v-34.2h-8.5v-7h8.5v-14.6h8v14.6h10.6Z"/>
      <path class="uuid-696164d5-91ff-4be5-b655-a9d5962c141e" d="M1293,667.9c-13.8,0-21.1-5.87-21.9-17.6h8.1c.46,3.87,1.75,6.62,3.85,8.25,2.1,1.63,5.42,2.45,9.95,2.45,8.27,0,12.4-2.67,12.4-8,0-2.33-.85-4.1-2.55-5.3s-4.78-2.23-9.25-3.1l-4.8-.9c-10.73-2-16.1-7.07-16.1-15.2,0-4.47,1.68-8.02,5.05-10.65,3.37-2.63,7.95-3.95,13.75-3.95,13.67,0,20.67,5.7,21,17.1h-8c-.2-3.73-1.33-6.37-3.4-7.9-2.07-1.53-5.27-2.3-9.6-2.3-3.47,0-6.13.67-8,2-1.87,1.33-2.8,3.2-2.8,5.6,0,2.27.8,3.97,2.4,5.1,1.6,1.13,4.27,2.1,8,2.9l4.6.9c6.33,1.27,10.88,3.07,13.65,5.4,2.77,2.33,4.15,5.6,4.15,9.8,0,4.87-1.82,8.65-5.45,11.35-3.63,2.7-8.65,4.05-15.05,4.05Z"/>
      <path class="uuid-696164d5-91ff-4be5-b655-a9d5962c141e" d="M1342.29,613.9c5.73,0,10.2,1.57,13.4,4.7,3.2,3.13,4.8,7.53,4.8,13.2v34.9h-8v-34.1c0-7.67-3.93-11.5-11.8-11.5-3.73,0-7.03,1.4-9.9,4.2-2.87,2.8-4.3,6.87-4.3,12.2v29.2h-8v-71.2h8v26.7c3.93-5.53,9.2-8.3,15.8-8.3Z"/>
      <path class="uuid-696164d5-91ff-4be5-b655-a9d5962c141e" d="M1411.69,660.2h2.9v6.5c-1.33.2-2.8.3-4.4.3-5.4,0-8.3-2.47-8.7-7.4-3.6,5.53-9.2,8.3-16.8,8.3-5.67,0-10.12-1.32-13.35-3.95-3.23-2.63-4.85-6.35-4.85-11.15,0-9.33,6.37-14.67,19.1-16l7.4-.8c5.4-.6,8.1-2.97,8.1-7.1,0-2.87-.88-4.93-2.65-6.2-1.77-1.27-4.75-1.9-8.95-1.9-4.47,0-7.68.75-9.65,2.25-1.97,1.5-3.08,4.15-3.35,7.95h-8c.67-11.4,7.67-17.1,21-17.1s19.4,5,19.4,15v28.8c0,1.67.93,2.5,2.8,2.5ZM1385.09,661.1c4.27,0,8-1.3,11.2-3.9,3.2-2.53,4.8-6.17,4.8-10.9v-6.1c-1.47,1.13-3.73,1.87-6.8,2.2l-7.5.9c-4.33.54-7.42,1.54-9.25,3-1.83,1.47-2.75,3.57-2.75,6.3s.87,4.75,2.6,6.25c1.73,1.5,4.3,2.25,7.7,2.25Z"/>
      <path class="uuid-696164d5-91ff-4be5-b655-a9d5962c141e" d="M1443.89,613.9c7.27,0,13.1,2.43,17.5,7.3,4.33,4.93,6.5,11.5,6.5,19.7s-2.17,14.67-6.5,19.6c-4.4,4.93-10.23,7.4-17.5,7.4s-13.17-2.87-17.3-8.6v27h-8v-71.2h7.6v8c4.13-6.13,10.03-9.2,17.7-9.2ZM1442.89,660.7c5,0,9.02-1.82,12.05-5.45,3.03-3.63,4.55-8.55,4.55-14.75s-1.48-10.82-4.45-14.25c-2.97-3.43-7.02-5.15-12.15-5.15s-9.1,1.73-12.1,5.2c-3,3.47-4.5,8.33-4.5,14.6s1.5,11.03,4.5,14.5c3,3.53,7.03,5.3,12.1,5.3Z"/>
      <path class="uuid-696164d5-91ff-4be5-b655-a9d5962c141e" d="M1519.39,640.9v2.8h-39.2c.4,5.6,1.97,9.82,4.7,12.65,2.73,2.83,6.47,4.25,11.2,4.25,7.13,0,11.7-3.2,13.7-9.6h8.3c-1.4,5.2-4,9.32-7.8,12.35-3.8,3.03-8.6,4.55-14.4,4.55-7.13,0-12.9-2.43-17.3-7.3-4.47-4.87-6.7-11.43-6.7-19.7s2.2-14.67,6.6-19.6c4.33-4.93,10.07-7.4,17.2-7.4s13.2,2.57,17.4,7.7c4.2,5.13,6.3,11.57,6.3,19.3ZM1495.69,621.2c-4.2,0-7.63,1.32-10.3,3.95-2.67,2.63-4.33,6.42-5,11.35h30.4c-.4-4.53-1.93-8.22-4.6-11.05-2.67-2.83-6.17-4.25-10.5-4.25Z"/>
      <path class="uuid-696164d5-91ff-4be5-b655-a9d5962c141e" d="M1582.39,660.5c-4.73,4.93-10.73,7.4-18,7.4s-13.27-2.47-18-7.4c-4.67-4.87-7-11.4-7-19.6s2.33-14.73,7-19.6c4.73-4.93,10.73-7.4,18-7.4s13.27,2.47,18,7.4c4.67,4.87,7,11.4,7,19.6s-2.33,14.73-7,19.6ZM1552.29,655.4c3,3.53,7.03,5.3,12.1,5.3s9.1-1.77,12.1-5.3c3-3.47,4.5-8.3,4.5-14.5s-1.5-11.13-4.5-14.6c-3-3.46-7.03-5.2-12.1-5.2s-9.1,1.73-12.1,5.2c-3,3.47-4.5,8.33-4.5,14.6s1.5,11.03,4.5,14.5Z"/>
      <path class="uuid-696164d5-91ff-4be5-b655-a9d5962c141e" d="M1628.39,644.3v-29.2h8v51.6h-7.6v-7.7c-3.93,5.93-9.33,8.9-16.2,8.9-5.73,0-10.2-1.57-13.4-4.7-3.2-3.13-4.8-7.53-4.8-13.2v-34.9h8v34.1c0,7.67,3.93,11.5,11.8,11.5,3.73,0,7.03-1.4,9.9-4.2,2.87-2.8,4.3-6.87,4.3-12.2Z"/>
      <path class="uuid-696164d5-91ff-4be5-b655-a9d5962c141e" d="M1669.59,614.3c1.33,0,2.23.04,2.7.1v7.7h-2c-5.33,0-9.48,1.32-12.45,3.95-2.97,2.63-4.45,6.38-4.45,11.25v29.4h-8v-51.6h7.6v9.1c3.47-6.6,9-9.9,16.6-9.9Z"/>
    </g>
    <g class="uuid-7e5877ac-de84-4463-a59d-5a55438f93da">
      <path class="uuid-696164d5-91ff-4be5-b655-a9d5962c141e" d="M168.41,767.9c-7.13,0-12.9-2.47-17.3-7.4-4.4-4.93-6.6-11.47-6.6-19.6s2.2-14.83,6.6-19.7c4.27-4.87,10.03-7.3,17.3-7.3,6.13,0,11.17,1.67,15.1,5,3.93,3.33,6.3,7.9,7.1,13.7h-8.3c-.6-3.67-2.18-6.5-4.75-8.5-2.57-2-5.62-3-9.15-3-4.73,0-8.5,1.72-11.3,5.15-2.8,3.43-4.2,8.32-4.2,14.65s1.42,11.13,4.25,14.6c2.83,3.47,6.58,5.2,11.25,5.2,3.53,0,6.6-1.03,9.2-3.1s4.2-4.93,4.8-8.6h8.2c-.87,5.8-3.32,10.4-7.35,13.8-4.03,3.4-8.98,5.1-14.85,5.1Z"/>
      <path class="uuid-696164d5-91ff-4be5-b655-a9d5962c141e" d="M236.61,760.5c-4.73,4.93-10.73,7.4-18,7.4s-13.27-2.47-18-7.4c-4.67-4.87-7-11.4-7-19.6s2.33-14.73,7-19.6c4.73-4.93,10.73-7.4,18-7.4s13.27,2.47,18,7.4c4.67,4.87,7,11.4,7,19.6s-2.33,14.73-7,19.6ZM206.51,755.4c3,3.53,7.03,5.3,12.1,5.3s9.1-1.77,12.1-5.3c3-3.47,4.5-8.3,4.5-14.5s-1.5-11.13-4.5-14.6c-3-3.46-7.03-5.2-12.1-5.2s-9.1,1.73-12.1,5.2c-3,3.47-4.5,8.33-4.5,14.6s1.5,11.03,4.5,14.5Z"/>
      <path class="uuid-696164d5-91ff-4be5-b655-a9d5962c141e" d="M304.41,713.9c5.6,0,9.95,1.62,13.05,4.85,3.1,3.23,4.65,7.55,4.65,12.95v35h-8v-34.2c0-7.6-3.6-11.4-10.8-11.4-3.8,0-6.95,1.52-9.45,4.55-2.5,3.03-3.75,7.32-3.75,12.85v28.2h-8v-34.2c0-7.6-3.6-11.4-10.8-11.4-3.73,0-6.87,1.52-9.4,4.55-2.53,3.03-3.8,7.32-3.8,12.85v28.2h-8v-51.6h7.6v7.6c3.4-5.87,8.37-8.8,14.9-8.8,7.73,0,13.03,3.23,15.9,9.7,3.6-6.47,8.9-9.7,15.9-9.7Z"/>
      <path class="uuid-696164d5-91ff-4be5-b655-a9d5962c141e" d="M385.41,713.9c5.6,0,9.95,1.62,13.05,4.85,3.1,3.23,4.65,7.55,4.65,12.95v35h-8v-34.2c0-7.6-3.6-11.4-10.8-11.4-3.8,0-6.95,1.52-9.45,4.55-2.5,3.03-3.75,7.32-3.75,12.85v28.2h-8v-34.2c0-7.6-3.6-11.4-10.8-11.4-3.73,0-6.87,1.52-9.4,4.55-2.53,3.03-3.8,7.32-3.8,12.85v28.2h-8v-51.6h7.6v7.6c3.4-5.87,8.37-8.8,14.9-8.8,7.73,0,13.03,3.23,15.9,9.7,3.6-6.47,8.9-9.7,15.9-9.7Z"/>
      <path class="uuid-696164d5-91ff-4be5-b655-a9d5962c141e" d="M444.11,744.3v-29.2h8v51.6h-7.6v-7.7c-3.93,5.93-9.33,8.9-16.2,8.9-5.73,0-10.2-1.57-13.4-4.7-3.2-3.13-4.8-7.53-4.8-13.2v-34.9h8v34.1c0,7.67,3.93,11.5,11.8,11.5,3.73,0,7.03-1.4,9.9-4.2,2.87-2.8,4.3-6.87,4.3-12.2Z"/>
      <path class="uuid-696164d5-91ff-4be5-b655-a9d5962c141e" d="M484.91,713.9c5.73,0,10.2,1.57,13.4,4.7,3.2,3.13,4.8,7.53,4.8,13.2v34.9h-8v-34.1c0-7.67-3.93-11.5-11.8-11.5-3.73,0-7.03,1.4-9.9,4.2-2.87,2.8-4.3,6.87-4.3,12.2v29.2h-8v-51.6h7.6v7.7c3.93-5.93,9.33-8.9,16.2-8.9Z"/>
      <path class="uuid-696164d5-91ff-4be5-b655-a9d5962c141e" d="M520.31,707.3h-8.5v-9.8h8.5v9.8ZM520.11,766.7h-8v-51.6h8v51.6Z"/>
      <path class="uuid-696164d5-91ff-4be5-b655-a9d5962c141e" d="M551.71,715.1v7h-10.6v33.5c0,2.93,1.97,4.4,5.9,4.4h4.7v6.7c-2.2.2-4.1.3-5.7.3-8.6,0-12.9-3.57-12.9-10.7v-34.2h-8.5v-7h8.5v-14.6h8v14.6h10.6Z"/>
      <path class="uuid-696164d5-91ff-4be5-b655-a9d5962c141e" d="M582.61,736.5l7.3-21.4h8.7l-21.8,59.7c-1.53,4.33-3.63,7.38-6.3,9.15-2.67,1.77-6.17,2.65-10.5,2.65-1.47,0-3.07-.1-4.8-.3v-6.7h4.7c4.6,0,7.73-2.13,9.4-6.4l1.8-4.8-19.4-53.3h8.8l7.3,21.5c2.6,7.6,5.07,15.03,7.4,22.3,1.93-6.2,4.4-13.67,7.4-22.4Z"/>
      <path class="uuid-696164d5-91ff-4be5-b655-a9d5962c141e" d="M601.71,766.7h-10.1v-10h10.1v10Z"/>
    </g>
  </g>
</svg>