<?xml version="1.0" encoding="UTF-8"?>
<svg id="uuid-44ca1385-091d-440f-8fa8-09a205c59746" data-name="Layer 1" xmlns="http://www.w3.org/2000/svg" viewBox="0 0 1923 325.02">
  <defs>
    <style>
      .uuid-0bc60997-8b42-47d9-911e-9dbe328d7278 {
        fill: #fff;
        stroke-width: 0px;
      }
    </style>
  </defs>
  <g>
    <polygon class="uuid-0bc60997-8b42-47d9-911e-9dbe328d7278" points="558.57 205.57 540.69 205.57 595.89 113.03 613.77 113.03 558.57 205.57"/>
    <polygon class="uuid-0bc60997-8b42-47d9-911e-9dbe328d7278" points="606.68 205.57 588.8 205.57 644 113.03 661.88 113.03 606.68 205.57"/>
    <polygon class="uuid-0bc60997-8b42-47d9-911e-9dbe328d7278" points="654.78 205.57 636.91 205.57 692.11 113.03 709.99 113.03 654.78 205.57"/>
    <polygon class="uuid-0bc60997-8b42-47d9-911e-9dbe328d7278" points="702.89 205.57 685.01 205.57 740.22 113.03 758.09 113.03 702.89 205.57"/>
    <polygon class="uuid-0bc60997-8b42-47d9-911e-9dbe328d7278" points="751 205.57 733.12 205.57 788.32 113.03 806.2 113.03 751 205.57"/>
    <polygon class="uuid-0bc60997-8b42-47d9-911e-9dbe328d7278" points="799.11 205.57 781.23 205.57 836.43 113.03 854.31 113.03 799.11 205.57"/>
  </g>
  <polygon class="uuid-0bc60997-8b42-47d9-911e-9dbe328d7278" points="43 6.5 43 13 14.68 13 14.68 41.32 8.18 41.32 8.18 6.5 43 6.5"/>
  <polygon class="uuid-0bc60997-8b42-47d9-911e-9dbe328d7278" points="1881.65 7.5 1881.65 14 1909.97 14 1909.97 42.32 1916.47 42.32 1916.47 7.5 1881.65 7.5"/>
  <polygon class="uuid-0bc60997-8b42-47d9-911e-9dbe328d7278" points="42.33 319.44 42.33 312.95 14.01 312.95 14.01 284.62 7.51 284.62 7.51 319.44 42.33 319.44"/>
  <polygon class="uuid-0bc60997-8b42-47d9-911e-9dbe328d7278" points="1881.65 318.44 1881.65 311.95 1909.97 311.95 1909.97 283.62 1916.47 283.62 1916.47 318.44 1881.65 318.44"/>
  <g>
    <rect class="uuid-0bc60997-8b42-47d9-911e-9dbe328d7278" x="1680.87" y="73.09" width="2.15" height="50.44"/>
    <rect class="uuid-0bc60997-8b42-47d9-911e-9dbe328d7278" x="1689.48" y="73.09" width="4.3" height="50.44"/>
    <rect class="uuid-0bc60997-8b42-47d9-911e-9dbe328d7278" x="1700.23" y="73.09" width="2.15" height="50.44"/>
    <rect class="uuid-0bc60997-8b42-47d9-911e-9dbe328d7278" x="1704.53" y="73.09" width="2.15" height="50.44"/>
    <rect class="uuid-0bc60997-8b42-47d9-911e-9dbe328d7278" x="1715.28" y="73.09" width="2.15" height="50.44"/>
    <rect class="uuid-0bc60997-8b42-47d9-911e-9dbe328d7278" x="1719.58" y="73.09" width="8.6" height="50.44"/>
    <rect class="uuid-0bc60997-8b42-47d9-911e-9dbe328d7278" x="1730.34" y="73.09" width="2.15" height="50.44"/>
    <rect class="uuid-0bc60997-8b42-47d9-911e-9dbe328d7278" x="1734.64" y="73.09" width="2.15" height="50.44"/>
    <rect class="uuid-0bc60997-8b42-47d9-911e-9dbe328d7278" x="1743.24" y="73.09" width="4.3" height="50.44"/>
    <rect class="uuid-0bc60997-8b42-47d9-911e-9dbe328d7278" x="1749.69" y="73.09" width="6.45" height="50.44"/>
    <rect class="uuid-0bc60997-8b42-47d9-911e-9dbe328d7278" x="1760.44" y="73.09" width="2.15" height="50.44"/>
    <rect class="uuid-0bc60997-8b42-47d9-911e-9dbe328d7278" x="1764.74" y="73.09" width="2.15" height="50.44"/>
    <rect class="uuid-0bc60997-8b42-47d9-911e-9dbe328d7278" x="1775.5" y="73.09" width="2.15" height="50.44"/>
    <rect class="uuid-0bc60997-8b42-47d9-911e-9dbe328d7278" x="1779.8" y="73.09" width="2.15" height="50.44"/>
    <rect class="uuid-0bc60997-8b42-47d9-911e-9dbe328d7278" x="1784.1" y="73.09" width="2.15" height="50.44"/>
    <rect class="uuid-0bc60997-8b42-47d9-911e-9dbe328d7278" x="1788.4" y="73.09" width="2.15" height="50.44"/>
    <rect class="uuid-0bc60997-8b42-47d9-911e-9dbe328d7278" x="1792.7" y="73.09" width="6.45" height="50.44"/>
    <rect class="uuid-0bc60997-8b42-47d9-911e-9dbe328d7278" x="1803.45" y="73.09" width="2.15" height="50.44"/>
    <rect class="uuid-0bc60997-8b42-47d9-911e-9dbe328d7278" x="1809.91" y="73.09" width="6.45" height="50.44"/>
    <rect class="uuid-0bc60997-8b42-47d9-911e-9dbe328d7278" x="1818.51" y="73.09" width="4.3" height="50.44"/>
    <rect class="uuid-0bc60997-8b42-47d9-911e-9dbe328d7278" x="1824.96" y="73.09" width="4.3" height="50.44"/>
    <rect class="uuid-0bc60997-8b42-47d9-911e-9dbe328d7278" x="1833.56" y="73.09" width="2.15" height="50.44"/>
    <rect class="uuid-0bc60997-8b42-47d9-911e-9dbe328d7278" x="1840.01" y="73.09" width="6.45" height="50.44"/>
    <rect class="uuid-0bc60997-8b42-47d9-911e-9dbe328d7278" x="1848.62" y="73.09" width="2.15" height="50.44"/>
    <rect class="uuid-0bc60997-8b42-47d9-911e-9dbe328d7278" x="1859.37" y="73.09" width="2.15" height="50.44"/>
    <rect class="uuid-0bc60997-8b42-47d9-911e-9dbe328d7278" x="1863.67" y="73.09" width="6.45" height="50.44"/>
    <rect class="uuid-0bc60997-8b42-47d9-911e-9dbe328d7278" x="1874.42" y="73.09" width="2.15" height="50.44"/>
    <rect class="uuid-0bc60997-8b42-47d9-911e-9dbe328d7278" x="1878.72" y="73.09" width="2.15" height="50.44"/>
    <rect class="uuid-0bc60997-8b42-47d9-911e-9dbe328d7278" x="1883.03" y="73.09" width="2.15" height="50.44"/>
  </g>
  <g>
    <path class="uuid-0bc60997-8b42-47d9-911e-9dbe328d7278" d="m78.98,60.75h15.33v17.86h15.37v-17.86h15.32v51.4h-15.32v-20.39h-15.37v20.39h-15.33v-51.4Z"/>
    <path class="uuid-0bc60997-8b42-47d9-911e-9dbe328d7278" d="m170.47,103.82c0,1.4.09,2.83.27,4.3.18,1.45.65,2.79,1.41,4.02h-14.53c-.37-1.2-.54-2.37-.49-3.52h-.14c-1.54,1.66-3.32,2.81-5.33,3.45-2.11.68-4.33,1.02-6.67,1.02-3.58,0-6.54-.91-8.9-2.74-2.51-1.87-3.79-4.73-3.84-8.57,0-2.93.77-5.2,2.32-6.81,1.48-1.64,3.32-2.82,5.52-3.55,2.32-.77,4.65-1.3,7-1.58,2.34-.28,4.43-.54,6.26-.77.54-.16,1.04-.32,1.51-.46.44-.14.85-.3,1.23-.49.77-.47,1.16-1.26,1.16-2.39-.05-1.29-.53-2.19-1.45-2.7-.92-.49-2-.74-3.24-.74-2.14.05-3.56.45-4.26,1.22-.73.86-1.09,1.72-1.09,2.58h-13.29c.19-2.65.86-4.79,2.02-6.43,1.14-1.62,2.61-2.83,4.42-3.66,1.83-.87,3.87-1.46,6.12-1.79,2.18-.23,4.34-.35,6.47-.35,4.36,0,7.78.4,10.26,1.2,2.46.82,4.18,1.93,5.18,3.34,1.04,1.38,1.69,2.94,1.95,4.68.09,1.76.14,3.55.14,5.38v15.36Zm-13.22-8.42c-1.87.82-3.83,1.42-5.89,1.8-3.36.42-5.05,1.77-5.05,4.05,0,.92.45,1.7,1.36,2.36.83.73,1.94,1.09,3.32,1.09,1.74,0,3.2-.5,4.38-1.51,1.15-.96,1.78-2.41,1.88-4.33v-3.45Z"/>
    <path class="uuid-0bc60997-8b42-47d9-911e-9dbe328d7278" d="m178.66,60.75h13.77v51.4h-13.77v-51.4Z"/>
    <path class="uuid-0bc60997-8b42-47d9-911e-9dbe328d7278" d="m201.34,60.75h13.77v51.4h-13.77v-51.4Z"/>
    <path class="uuid-0bc60997-8b42-47d9-911e-9dbe328d7278" d="m234.48,96.68c.23,2.11.95,3.83,2.15,5.17,1.15,1.41,2.85,2.11,5.1,2.11,1.22,0,2.38-.25,3.48-.74,1.1-.42,1.93-1.07,2.5-1.93h13.34c-1.51,4.03-3.98,7.01-7.41,8.93-3.41,1.92-7.28,2.88-11.62,2.88-6.03-.05-10.93-1.76-14.71-5.13-3.94-3.35-5.94-8.14-5.98-14.38.05-5.62,1.84-10.31,5.39-14.06,3.52-3.68,8.23-5.57,14.11-5.66,14.14.19,21.14,7.79,21,22.82h-27.35Zm14.14-7.38c-.05-1.79-.64-3.29-1.78-4.49-1.16-1.2-2.73-1.8-4.69-1.8-4.39.05-6.92,2.15-7.6,6.3h14.07Z"/>
    <path class="uuid-0bc60997-8b42-47d9-911e-9dbe328d7278" d="m269.08,74.78h13.24v5.98h.14c1.11-2.25,2.48-3.97,4.12-5.17,1.57-1.15,3.59-1.72,6.06-1.72,1.38,0,2.73.19,4.05.56v12.58c-.66-.28-1.39-.51-2.18-.7-.79-.14-1.88-.21-3.27-.21-5.54-.09-8.33,3.67-8.38,11.29v14.77h-13.77v-37.37Z"/>
    <path class="uuid-0bc60997-8b42-47d9-911e-9dbe328d7278" d="m351.74,75.38c-.27-1-.95-1.9-2.04-2.72-.98-.58-2.24-.87-3.76-.87-2.62.05-4.63,1.13-6.02,3.25-.66.97-1.2,2.06-1.61,3.29-.43,1.24-.72,2.51-.85,3.8,1.68-1.59,3.45-2.65,5.31-3.16,1.82-.49,3.79-.74,5.93-.74,4.79.07,8.7,1.49,11.72,4.25,2.98,2.88,4.49,6.8,4.53,11.74-.05,6.09-1.91,10.7-5.58,13.82-3.68,3.12-8.46,4.68-14.36,4.68-7.24-.14-12.51-2.58-15.82-7.31-3.29-4.66-4.91-10.16-4.87-16.49,0-8.06,1.81-14.62,5.45-19.69,3.63-5.09,9.11-7.68,16.44-7.77,10.55-.09,16.64,4.55,18.28,13.92h-12.73Zm-6.74,12.41c-1.92.05-3.48.67-4.69,1.86-1.3,1.24-1.95,2.83-1.95,4.75s.63,3.6,1.88,4.89c1.25,1.36,2.84,2.04,4.76,2.04,2.14,0,3.88-.7,5.2-2.11,1.3-1.29,1.95-2.9,1.95-4.82-.05-1.88-.67-3.43-1.88-4.68-1.3-1.24-3.06-1.89-5.27-1.93Z"/>
    <path class="uuid-0bc60997-8b42-47d9-911e-9dbe328d7278" d="m80.4,132.75h15.32v17.72h.14l13.66-17.72h18.91l-18.06,20.04,20.98,31.36h-19.11l-12.3-20-4.22,4.82v15.19h-15.32v-51.4Z"/>
    <path class="uuid-0bc60997-8b42-47d9-911e-9dbe328d7278" d="m146.52,168.68c.23,2.11.95,3.83,2.15,5.17,1.15,1.41,2.85,2.11,5.1,2.11,1.22,0,2.38-.25,3.48-.74,1.1-.42,1.93-1.07,2.5-1.93h13.34c-1.51,4.03-3.98,7.01-7.41,8.93-3.41,1.92-7.28,2.88-11.62,2.88-6.03-.05-10.93-1.76-14.71-5.13-3.94-3.35-5.94-8.14-5.98-14.38.05-5.62,1.84-10.31,5.39-14.06,3.52-3.68,8.23-5.57,14.11-5.66,14.14.19,21.14,7.79,21,22.82h-27.35Zm14.14-7.38c-.05-1.79-.64-3.29-1.78-4.49-1.16-1.2-2.73-1.8-4.69-1.8-4.39.05-6.92,2.15-7.6,6.3h14.07Z"/>
    <path class="uuid-0bc60997-8b42-47d9-911e-9dbe328d7278" d="m205.17,181.27c-.5,1.69-1.1,3.47-1.8,5.34-.75,1.85-1.66,3.53-2.72,5.03-1.86,2.2-4.07,3.55-6.64,4.04-2.54.42-5.19.61-7.93.56h-6.26v-11.39h3.3c.77,0,1.56-.02,2.36-.07.77,0,1.43-.09,1.97-.28.42-.19.77-.51,1.05-.98.21-.44.32-1.05.32-1.83,0-.56-.27-1.66-.81-3.3-.56-1.62-1.23-3.43-2-5.45-1.64-4.38-2.8-7.36-3.48-8.93l-6.21-17.23h14.77l5.79,21.43h.14l5.89-21.43h14.26l-11.98,34.49Z"/>
    <path class="uuid-0bc60997-8b42-47d9-911e-9dbe328d7278" d="m242.8,157.68c-.09-1.26-.62-2.21-1.6-2.83-.98-.74-2.11-1.11-3.39-1.11-1.13,0-2.16.17-3.09.5-1.03.4-1.54,1.2-1.54,2.4,0,.47.19.85.57,1.13.36.35.73.62,1.11.81.69.24,1.51.42,2.44.57.96.21,1.99.41,3.09.6,2.35.38,4.76.95,7.25,1.73,2.38.68,4.4,1.84,6.05,3.46.84.78,1.5,1.74,1.97,2.89.41,1.15.61,2.53.61,4.13,0,2.57-.54,4.67-1.63,6.31-1.09,1.73-2.53,3.1-4.34,4.1-3.84,1.87-8.09,2.78-12.76,2.73-4.56,0-8.68-1-12.38-3.01-3.68-2.01-5.69-5.39-6.03-10.13h13.58c.09,1.28.67,2.37,1.72,3.28.77.72,2.05,1.08,3.82,1.08,1.01,0,2.06-.22,3.16-.67,1.05-.42,1.6-1.16,1.65-2.21.05-1.05-.41-1.85-1.37-2.39-1.05-.52-3.21-1.04-6.47-1.58-5.37-.91-9.26-2.33-11.67-4.25-2.39-1.85-3.59-4.35-3.59-7.49,0-2.34.57-4.3,1.7-5.87,1.09-1.59,2.51-2.8,4.27-3.62,1.76-.91,3.66-1.54,5.7-1.86,1.95-.33,3.86-.49,5.73-.49,4.24-.07,8.2.67,11.88,2.22,1.76.82,3.18,2.02,4.27,3.6,1.09,1.55,1.69,3.55,1.81,5.99h-12.53Z"/>
    <path class="uuid-0bc60997-8b42-47d9-911e-9dbe328d7278" d="m92.14,238.88c0,1.29.18,2.42.54,3.38.65,1.48,1.76,2.46,3.31,2.96,1.48.52,2.99.77,4.54.77,1.43.05,2.91-.26,4.43-.91,1.5-.68,2.28-1.93,2.33-3.76.05-1.29-.68-2.32-2.18-3.09-1.57-.73-4.55-1.66-8.93-2.81-2.06-.56-4.08-1.18-6.05-1.86-2.06-.68-3.92-1.55-5.59-2.6-1.69-1.05-3.06-2.45-4.11-4.18-1.1-1.62-1.65-3.7-1.65-6.26.09-5.95,2.18-10.29,6.26-13.01,3.9-2.65,8.51-3.97,13.82-3.97,5.56-.05,10.35,1.15,14.37,3.58,3.9,2.6,6.04,6.98,6.4,13.15h-14.52c.18-1.91-.42-3.27-1.81-4.09-1.36-.84-2.87-1.26-4.53-1.26-1.14,0-2.31.21-3.51.63-.55.24-1.01.58-1.4,1.02-.41.47-.61,1.07-.61,1.79.09.87.58,1.58,1.47,2.15.84.63,1.93,1.18,3.27,1.65,2.84.87,6.08,1.76,9.71,2.67,1.93.49,3.78,1.09,5.55,1.79,1.74.68,3.32,1.59,4.75,2.74,1.45,1.15,2.6,2.54,3.44,4.18.77,1.73,1.16,3.77,1.16,6.12-.14,6.59-2.6,11.19-7.4,13.82-4.72,2.65-10.07,3.95-16.04,3.9-1.48,0-3.43-.22-5.83-.67-2.43-.42-4.9-1.25-7.4-2.5-2.48-1.27-4.57-3.14-6.28-5.63-1.74-2.39-2.67-5.63-2.81-9.71h15.28Z"/>
    <path class="uuid-0bc60997-8b42-47d9-911e-9dbe328d7278" d="m165.72,237.47c0,5.32-1.62,9.87-4.87,13.66-3.22,3.89-8.32,5.88-15.3,5.97-6.88-.09-11.96-2.09-15.23-5.98-3.34-3.8-4.97-8.36-4.9-13.68-.07-5.39,1.56-9.96,4.9-13.71,3.27-3.82,8.34-5.78,15.23-5.87,6.98.09,12.07,2.05,15.3,5.88,3.24,3.75,4.87,8.33,4.87,13.72Zm-13.77,0c0-1.01-.05-2.08-.15-3.21-.15-1.1-.45-2.09-.92-2.96-.44-.94-1.06-1.7-1.87-2.29-.9-.54-2.05-.81-3.44-.81s-2.42.27-3.22.81c-.9.59-1.57,1.35-2.01,2.29-.8,1.93-1.18,3.98-1.13,6.17,0,.96.1,1.97.29,3.03.15,1.06.43,2.07.84,3.03.44.96,1.11,1.73,2.01,2.29.8.63,1.88.95,3.22.95s2.54-.32,3.44-.95c.8-.56,1.43-1.33,1.87-2.29.75-1.97,1.11-3.99,1.06-6.06Z"/>
    <path class="uuid-0bc60997-8b42-47d9-911e-9dbe328d7278" d="m211.53,256.15h-13.58v-4.75h-.14c-2.5,3.75-6.51,5.65-12.02,5.7-3.36,0-6.28-1.05-8.75-3.16-2.55-2.13-3.85-5.31-3.89-9.53v-25.63h13.77v19.61c-.05,2.16.23,3.92.85,5.28.59,1.38,1.93,2.08,4.04,2.08,1.35.05,2.68-.43,4-1.44.59-.47,1.09-1.21,1.51-2.22.29-.92.44-2.1.44-3.56v-19.75h13.78v37.37Z"/>
    <path class="uuid-0bc60997-8b42-47d9-911e-9dbe328d7278" d="m220.07,204.75h13.77v51.4h-13.77v-51.4Z"/>
    <path class="uuid-0bc60997-8b42-47d9-911e-9dbe328d7278" d="m265.82,232.98c-.16-1.55-.67-2.73-1.53-3.55-.84-.82-2.01-1.23-3.51-1.23-1.3,0-2.32.27-3.07.81-.84.52-1.47,1.21-1.88,2.08-.43.87-.72,1.86-.85,2.96-.18,1.15-.27,2.31-.27,3.49,0,1.1.09,2.21.27,3.31.14,1.1.42,2.09.85,2.96.41.87,1.03,1.56,1.88,2.08.75.59,1.77.88,3.07.88,1.55,0,2.81-.55,3.78-1.66.93-1.06,1.47-2.34,1.6-3.84h13.19c-.7,5.08-2.77,8.97-6.2,11.66-3.45,2.74-7.66,4.13-12.64,4.17-5.59-.05-10.18-1.85-13.79-5.41-3.81-3.45-5.74-8.17-5.79-14.17.04-6,1.98-10.78,5.79-14.34,3.61-3.49,8.21-5.26,13.79-5.31,4.88,0,9.05,1.2,12.5,3.58,3.38,2.48,5.36,6.33,5.93,11.53h-13.12Z"/>
    <path class="uuid-0bc60997-8b42-47d9-911e-9dbe328d7278" d="m322.52,247.82c0,1.4.09,2.83.27,4.3.18,1.45.65,2.79,1.41,4.02h-14.53c-.37-1.2-.54-2.37-.49-3.52h-.14c-1.54,1.66-3.32,2.81-5.33,3.45-2.11.68-4.33,1.02-6.67,1.02-3.58,0-6.54-.91-8.9-2.74-2.51-1.87-3.79-4.73-3.84-8.57,0-2.93.77-5.2,2.32-6.81,1.48-1.64,3.32-2.82,5.52-3.55,2.32-.77,4.65-1.3,7-1.58,2.34-.28,4.43-.54,6.26-.77.54-.16,1.04-.32,1.51-.46.44-.14.85-.3,1.23-.49.77-.47,1.16-1.26,1.16-2.39-.05-1.29-.53-2.19-1.45-2.7-.92-.49-2-.74-3.24-.74-2.14.05-3.56.45-4.26,1.22-.73.86-1.09,1.72-1.09,2.58h-13.29c.19-2.65.86-4.79,2.02-6.43,1.14-1.62,2.61-2.83,4.42-3.66,1.83-.87,3.87-1.46,6.12-1.79,2.18-.23,4.34-.35,6.47-.35,4.36,0,7.78.4,10.26,1.2,2.46.82,4.18,1.93,5.18,3.34,1.04,1.38,1.69,2.94,1.95,4.68.09,1.76.14,3.55.14,5.38v15.36Zm-13.22-8.42c-1.87.82-3.83,1.42-5.89,1.8-3.36.42-5.05,1.77-5.05,4.05,0,.92.45,1.7,1.36,2.36.83.73,1.94,1.09,3.32,1.09,1.74,0,3.2-.5,4.38-1.51,1.15-.96,1.78-2.41,1.88-4.33v-3.45Z"/>
    <path class="uuid-0bc60997-8b42-47d9-911e-9dbe328d7278" d="m330.43,218.78h13.24v5.98h.14c1.11-2.25,2.48-3.97,4.12-5.17,1.57-1.15,3.59-1.72,6.06-1.72,1.38,0,2.73.19,4.05.56v12.58c-.66-.28-1.39-.51-2.18-.7-.79-.14-1.88-.21-3.27-.21-5.54-.09-8.33,3.67-8.38,11.29v14.77h-13.77v-37.37Z"/>
    <path class="uuid-0bc60997-8b42-47d9-911e-9dbe328d7278" d="m371.84,240.68c.23,2.11.95,3.83,2.15,5.17,1.15,1.41,2.85,2.11,5.1,2.11,1.22,0,2.38-.25,3.48-.74,1.1-.42,1.93-1.07,2.5-1.93h13.34c-1.51,4.03-3.98,7.01-7.41,8.93-3.41,1.92-7.28,2.88-11.62,2.88-6.03-.05-10.93-1.76-14.71-5.13-3.94-3.35-5.94-8.14-5.98-14.38.05-5.62,1.84-10.31,5.39-14.06,3.52-3.68,8.23-5.57,14.11-5.66,14.14.19,21.14,7.79,21,22.82h-27.35Zm14.14-7.38c-.05-1.79-.64-3.29-1.78-4.49-1.16-1.2-2.73-1.8-4.69-1.8-4.39.05-6.92,2.15-7.6,6.3h14.07Z"/>
  </g>
  <g>
    <path class="uuid-0bc60997-8b42-47d9-911e-9dbe328d7278" d="m1527.91,172.9h9.79v11.41h9.82v-11.41h9.79v32.84h-9.79v-13.03h-9.82v13.03h-9.79v-32.84Z"/>
    <path class="uuid-0bc60997-8b42-47d9-911e-9dbe328d7278" d="m1586.35,200.41c0,.89.06,1.81.18,2.75.12.92.42,1.78.9,2.57h-9.28c-.24-.76-.34-1.51-.31-2.25h-.09c-.99,1.06-2.12,1.8-3.41,2.2-1.35.43-2.77.65-4.26.65-2.29,0-4.18-.58-5.68-1.75-1.61-1.2-2.42-3.02-2.45-5.47,0-1.87.49-3.32,1.48-4.35.94-1.05,2.12-1.8,3.53-2.27,1.48-.49,2.97-.83,4.47-1.01s2.83-.34,4-.49c.34-.1.67-.2.97-.29.28-.09.55-.2.79-.31.49-.3.74-.81.74-1.53-.03-.82-.34-1.4-.92-1.73-.59-.31-1.28-.47-2.07-.47-1.37.03-2.27.29-2.73.78-.46.55-.7,1.1-.7,1.65h-8.49c.12-1.69.55-3.06,1.29-4.11.73-1.03,1.67-1.81,2.82-2.33,1.17-.55,2.47-.94,3.91-1.15,1.39-.15,2.77-.22,4.13-.22,2.79,0,4.97.25,6.55.76,1.57.52,2.67,1.24,3.31,2.13.67.88,1.08,1.88,1.24,2.99.06,1.12.09,2.27.09,3.44v9.82Zm-8.45-5.38c-1.19.53-2.45.91-3.77,1.15-2.15.27-3.22,1.13-3.22,2.59,0,.59.29,1.09.87,1.51.53.46,1.24.7,2.12.7,1.11,0,2.05-.32,2.8-.97.74-.62,1.14-1.54,1.2-2.77v-2.21Z"/>
    <path class="uuid-0bc60997-8b42-47d9-911e-9dbe328d7278" d="m1590.89,181.86h8.78v3.17h.09c1.87-2.58,4.48-3.83,7.82-3.75,1.32,0,2.58.3,3.77.9,1.2.66,2.09,1.59,2.67,2.81.09-.12.28-.36.58-.72.31-.4.79-.84,1.44-1.3.64-.45,1.45-.85,2.43-1.19,1.02-.33,2.25-.49,3.68-.49,2.93.06,5.01.91,6.22,2.56.62.79,1.06,1.65,1.32,2.58.25.97.37,1.95.37,2.94v16.37h-8.8v-12.9c.03-1.2-.11-2.2-.43-3.01-.39-.82-1.3-1.25-2.72-1.28-1.2,0-2.02.38-2.46,1.14-.52.81-.78,1.86-.78,3.14v12.9h-8.8v-12.9c.03-1.2-.11-2.2-.43-3.01-.39-.82-1.3-1.25-2.72-1.28-1.2,0-2.02.38-2.46,1.14-.52.81-.78,1.86-.78,3.14v12.9h-8.8v-23.88Z"/>
    <path class="uuid-0bc60997-8b42-47d9-911e-9dbe328d7278" d="m1635.7,172.9h8.81v11.59h.09c1.5-2.11,3.67-3.18,6.53-3.21,2.02.03,3.69.4,5,1.1,1.32.76,2.36,1.76,3.12,2.99.78,1.23,1.32,2.56,1.62,4,.28,1.44.43,2.88.43,4.31v1.12c-.04.36-.1.73-.16,1.1-.03.36-.07.73-.13,1.1-.09.36-.18.74-.27,1.15-.43,1.47-1.05,2.82-1.86,4.04-1.64,2.67-4.14,4.05-7.5,4.16-2.12-.03-3.66-.4-4.64-1.12-.96-.64-1.72-1.34-2.26-2.1h-.09v2.62h-8.68v-32.84Zm16.78,20.89c0-1.51-.26-2.87-.77-4.07-.28-.55-.69-1-1.23-1.33-.57-.34-1.29-.52-2.14-.52-1.63.03-2.74.65-3.33,1.85-.29.56-.5,1.19-.63,1.89-.12.71-.19,1.43-.19,2.18,0,.71.06,1.41.19,2.12.12.71.33,1.34.63,1.89.59,1.26,1.7,1.91,3.33,1.94.85,0,1.57-.2,2.14-.61.54-.33.95-.77,1.23-1.33.51-1.17.77-2.51.77-4.01h0Z"/>
    <path class="uuid-0bc60997-8b42-47d9-911e-9dbe328d7278" d="m1690.03,205.73h-8.68v-3.03h-.09c-1.6,2.4-4.16,3.61-7.68,3.64-2.15,0-4.01-.67-5.59-2.02-1.63-1.36-2.46-3.39-2.49-6.09v-16.37h8.8v12.53c-.03,1.38.15,2.5.54,3.37.38.88,1.24,1.33,2.58,1.33.86.03,1.71-.28,2.56-.92.38-.3.7-.77.96-1.42.19-.58.28-1.34.28-2.27v-12.62h8.8v23.88Z"/>
    <path class="uuid-0bc60997-8b42-47d9-911e-9dbe328d7278" d="m1695.31,181.86h8.46v3.82h.09c.71-1.44,1.59-2.54,2.63-3.3,1-.73,2.29-1.1,3.87-1.1.88,0,1.75.12,2.59.36v8.04c-.42-.18-.89-.33-1.39-.45-.51-.09-1.2-.13-2.09-.13-3.54-.06-5.33,2.34-5.35,7.21v9.43h-8.8v-23.88Z"/>
    <path class="uuid-0bc60997-8b42-47d9-911e-9dbe328d7278" d="m1739.81,202.68c0,1.17-.1,2.41-.3,3.72-.25,1.31-.78,2.55-1.61,3.72-.77,1.12-1.97,2.03-3.61,2.73-1.64.78-3.8,1.18-6.5,1.21-2.83.03-5.41-.51-7.74-1.61-2.38-1.08-3.82-3.19-4.33-6.34h8.73c.13.25.3.53.5.82.29.43.66.81,1.11,1.14.45.37.94.57,1.48.6.71-.03,1.31-.23,1.79-.61.44-.39.79-.86,1.07-1.42.41-1.23.61-2.38.61-3.46v-2.2h-.09c-1.5,2.17-3.62,3.28-6.38,3.32-3.47-.04-6.03-1.2-7.68-3.46-1.69-2.22-2.54-4.95-2.54-8.2s.89-5.9,2.67-8.04c1.72-2.17,4.28-3.29,7.68-3.35,1.38,0,2.64.25,3.77.76,1.14.58,1.96,1.49,2.47,2.72h.09v-2.9h8.8v20.82Zm-16.69-10.06c0,.65.08,1.32.23,2.03.12.72.34,1.35.65,1.89.61,1.26,1.73,1.91,3.36,1.94.89,0,1.59-.2,2.1-.58.54-.35.93-.81,1.14-1.4.45-1.19.66-2.49.63-3.92,0-1.38-.33-2.5-1-3.35-.67-.87-1.7-1.32-3.11-1.35-1.34.03-2.34.5-3.01,1.4-.67.92-1,2.03-1,3.35Z"/>
    <path class="uuid-0bc60997-8b42-47d9-911e-9dbe328d7278" d="m1745.11,196.66h9.25v7.2c0,2.2-.4,4.17-1.19,5.92-.84,1.75-2.25,2.99-4.23,3.72-.8.28-1.5.44-2.13.47-.68.06-1.25.09-1.69.09v-4c1.13-.12,2.06-.59,2.8-1.42.71-.8,1.09-1.77,1.15-2.91h-3.95v-9.07Z"/>
    <path class="uuid-0bc60997-8b42-47d9-911e-9dbe328d7278" d="m1551.84,240.4c-.54.67-1.13,1.26-1.79,1.77-.68.52-1.43.97-2.24,1.34-.74.3-1.54.54-2.39.74-.87.18-1.75.27-2.63.27-4.73-.06-8.43-1.71-11.1-4.96-2.7-3.16-4.06-7.13-4.09-11.93.09-6.21,1.81-10.71,5.16-13.48,3.23-2.73,6.75-4.07,10.53-4.04,8.22.12,13.11,4.21,14.64,12.27h-9.4c-.2-1.23-.72-2.23-1.54-3-.87-.71-1.9-1.07-3.09-1.1-1.62.03-2.89.4-3.79,1.1-.91.77-1.57,1.7-1.96,2.82-.39,1.07-.62,2.12-.67,3.18-.06,1.05-.09,1.88-.09,2.48,0,.78.11,1.64.33,2.59.2.96.56,1.88,1.07,2.77.54.89,1.26,1.62,2.18,2.21.96.62,2.16.92,3.61.92,1.19,0,2.27-.31,3.24-.92.96-.62,1.57-1.52,1.83-2.7h-4.31v-7.02h13.01v18.04h-6.2l-.3-3.33Z"/>
    <path class="uuid-0bc60997-8b42-47d9-911e-9dbe328d7278" d="m1571.06,233.85c.15,1.35.61,2.45,1.37,3.3.73.9,1.82,1.35,3.26,1.35.78,0,1.52-.16,2.23-.47.7-.27,1.24-.68,1.6-1.24h8.52c-.96,2.58-2.54,4.48-4.73,5.7-2.18,1.23-4.65,1.84-7.42,1.84-3.85-.03-6.99-1.12-9.4-3.28-2.52-2.14-3.79-5.2-3.82-9.19.03-3.59,1.18-6.59,3.44-8.98,2.25-2.35,5.26-3.56,9.02-3.62,9.03.12,13.5,4.98,13.42,14.58h-17.47Zm9.03-4.72c-.03-1.14-.41-2.1-1.14-2.87-.74-.77-1.74-1.15-3-1.15-2.8.03-4.42,1.37-4.85,4.02h8.99Z"/>
    <path class="uuid-0bc60997-8b42-47d9-911e-9dbe328d7278" d="m1593.16,219.86h8.46v3.82h.09c.71-1.44,1.59-2.54,2.63-3.3,1-.73,2.29-1.1,3.87-1.1.88,0,1.75.12,2.59.36v8.04c-.42-.18-.89-.33-1.39-.45-.51-.09-1.2-.13-2.09-.13-3.54-.06-5.33,2.34-5.35,7.21v9.43h-8.8v-23.88Z"/>
    <path class="uuid-0bc60997-8b42-47d9-911e-9dbe328d7278" d="m1613.06,219.86h8.78v3.17h.09c1.87-2.58,4.48-3.83,7.82-3.75,1.32,0,2.58.3,3.77.9,1.2.66,2.09,1.59,2.67,2.81.09-.12.28-.36.58-.72.31-.4.79-.84,1.44-1.3.64-.45,1.45-.85,2.43-1.19,1.02-.33,2.25-.49,3.68-.49,2.93.06,5.01.91,6.22,2.56.62.79,1.06,1.65,1.32,2.58.25.97.37,1.95.37,2.94v16.37h-8.8v-12.9c.03-1.2-.11-2.2-.43-3.01-.39-.82-1.3-1.25-2.72-1.28-1.2,0-2.02.38-2.46,1.14-.52.81-.78,1.86-.78,3.14v12.9h-8.8v-12.9c.03-1.2-.11-2.2-.43-3.01-.39-.82-1.3-1.25-2.72-1.28-1.2,0-2.02.38-2.46,1.14-.52.81-.78,1.86-.78,3.14v12.9h-8.8v-23.88Z"/>
    <path class="uuid-0bc60997-8b42-47d9-911e-9dbe328d7278" d="m1680.92,238.41c0,.89.06,1.81.18,2.75.12.92.42,1.78.9,2.57h-9.28c-.24-.76-.34-1.51-.31-2.25h-.09c-.99,1.06-2.12,1.8-3.41,2.2-1.35.43-2.77.65-4.26.65-2.29,0-4.18-.58-5.68-1.75-1.61-1.2-2.42-3.02-2.45-5.47,0-1.87.49-3.32,1.48-4.35.94-1.05,2.12-1.8,3.53-2.27,1.48-.49,2.97-.83,4.47-1.01s2.83-.34,4-.49c.34-.1.67-.2.97-.29.28-.09.55-.2.79-.31.49-.3.74-.81.74-1.53-.03-.82-.34-1.4-.92-1.73-.59-.31-1.28-.47-2.07-.47-1.37.03-2.27.29-2.73.78-.46.55-.7,1.1-.7,1.65h-8.49c.12-1.69.55-3.06,1.29-4.11.73-1.03,1.67-1.81,2.82-2.33,1.17-.55,2.47-.94,3.91-1.15,1.39-.15,2.77-.22,4.13-.22,2.79,0,4.97.25,6.55.76,1.57.52,2.67,1.24,3.31,2.13.67.88,1.08,1.88,1.24,2.99.06,1.12.09,2.27.09,3.44v9.82Zm-8.45-5.38c-1.19.53-2.45.91-3.77,1.15-2.15.27-3.22,1.13-3.22,2.59,0,.59.29,1.09.87,1.51.53.46,1.24.7,2.12.7,1.11,0,2.05-.32,2.8-.97.74-.62,1.14-1.54,1.2-2.77v-2.21Z"/>
    <path class="uuid-0bc60997-8b42-47d9-911e-9dbe328d7278" d="m1685.97,219.86h8.77v3.03h.09c1.61-2.41,4.2-3.62,7.76-3.62,2.16,0,4.01.66,5.57,1.98,1.54,1.32,2.32,3.35,2.35,6.11v16.37h-8.8v-12.53c.03-1.41-.13-2.55-.49-3.42-.38-.85-1.25-1.28-2.63-1.28-.86-.03-1.68.25-2.46.83-.38.3-.7.76-.96,1.37-.25.65-.38,1.45-.38,2.41v12.62h-8.8v-23.88Z"/>
    <path class="uuid-0bc60997-8b42-47d9-911e-9dbe328d7278" d="m1731.14,241.89c-.32,1.08-.7,2.22-1.15,3.41-.48,1.18-1.06,2.25-1.74,3.21-1.19,1.41-2.6,2.27-4.24,2.58-1.62.27-3.31.39-5.07.36h-4v-7.28h2.11c.49,0,1-.01,1.5-.04.49,0,.91-.06,1.26-.18.27-.12.49-.33.67-.63.13-.28.2-.67.2-1.17,0-.36-.17-1.06-.52-2.11-.36-1.03-.79-2.19-1.28-3.48-1.05-2.8-1.79-4.7-2.22-5.71l-3.97-11.01h9.44l3.7,13.69h.09l3.76-13.69h9.11l-7.65,22.03Z"/>
  </g>
  <g>
    <path class="uuid-0bc60997-8b42-47d9-911e-9dbe328d7278" d="m1550.49,103.91h5.66v4.48h-5.66v10.5h-4.96v-10.5h-21.06v-4.78l20.65-26.73h5.37v27.02Zm-4.96,0v-20.53l-15.87,20.53h15.87Z"/>
    <path class="uuid-0bc60997-8b42-47d9-911e-9dbe328d7278" d="m1565.07,114.41h22.18v4.48h-27.73l.12-2.3c.24-3.46,1.02-6.43,2.36-8.91,1.34-2.48,3.6-4.64,6.79-6.49l5.31-3.07c2.67-1.57,4.57-3.11,5.69-4.6,1.12-1.49,1.68-3.3,1.68-5.43,0-2.32-.74-4.18-2.21-5.58-1.48-1.4-3.51-2.09-6.11-2.09-5.86,0-8.79,3.01-8.79,9.03h-4.9c-.04-4.29,1.16-7.61,3.6-9.97,2.44-2.36,5.84-3.54,10.21-3.54,3.97,0,7.2,1.12,9.68,3.36,2.48,2.32,3.72,5.25,3.72,8.79,0,5.43-3.19,9.99-9.56,13.69l-4.48,2.6c-2.6,1.57-4.46,3.1-5.61,4.57-1.14,1.47-1.79,3.29-1.95,5.46Z"/>
    <path class="uuid-0bc60997-8b42-47d9-911e-9dbe328d7278" d="m1588.49,81.37v-4.48h26.96v3.89c-9.68,10.86-14.71,23.56-15.1,38.11h-5.13c.2-7.28,1.46-13.93,3.81-19.97,2.34-6.04,5.91-11.89,10.71-17.55h-21.24Z"/>
    <path class="uuid-0bc60997-8b42-47d9-911e-9dbe328d7278" d="m1628.67,76.89h4.01v42.01h-4.96v-31.33h-9.56v-3.89l.94-.06c2.99-.2,5.21-.79,6.67-1.77,1.45-.98,2.42-2.63,2.89-4.96Z"/>
  </g>
  <g>
    <path class="uuid-0bc60997-8b42-47d9-911e-9dbe328d7278" d="m1141.87,133.41h-4.28v-36.31h4.28v36.31Z"/>
    <path class="uuid-0bc60997-8b42-47d9-911e-9dbe328d7278" d="m1175.94,106.48c2.86,0,5.07.83,6.66,2.47,1.58,1.65,2.37,3.85,2.37,6.6v17.85h-4.08v-17.44c0-3.88-1.84-5.81-5.51-5.81-1.94,0-3.54.77-4.82,2.32-1.27,1.55-1.91,3.73-1.91,6.55v14.38h-4.08v-17.44c0-3.88-1.84-5.81-5.51-5.81-1.9,0-3.5.77-4.79,2.32-1.29,1.55-1.94,3.73-1.94,6.55v14.38h-4.08v-26.32h3.88v3.88c1.73-2.99,4.27-4.49,7.6-4.49,3.94,0,6.65,1.65,8.11,4.95,1.84-3.3,4.54-4.95,8.11-4.95Z"/>
    <path class="uuid-0bc60997-8b42-47d9-911e-9dbe328d7278" d="m1218.78,106.48c2.86,0,5.07.83,6.66,2.47,1.58,1.65,2.37,3.85,2.37,6.6v17.85h-4.08v-17.44c0-3.88-1.84-5.81-5.51-5.81-1.94,0-3.54.77-4.82,2.32-1.27,1.55-1.91,3.73-1.91,6.55v14.38h-4.08v-17.44c0-3.88-1.84-5.81-5.51-5.81-1.9,0-3.5.77-4.79,2.32-1.29,1.55-1.94,3.73-1.94,6.55v14.38h-4.08v-26.32h3.88v3.88c1.73-2.99,4.27-4.49,7.6-4.49,3.94,0,6.65,1.65,8.11,4.95,1.84-3.3,4.54-4.95,8.11-4.95Z"/>
    <path class="uuid-0bc60997-8b42-47d9-911e-9dbe328d7278" d="m1256.88,120.25v1.43h-19.99c.2,2.86,1,5.01,2.4,6.45,1.39,1.45,3.3,2.17,5.71,2.17,3.64,0,5.97-1.63,6.99-4.9h4.23c-.71,2.65-2.04,4.75-3.98,6.3-1.94,1.55-4.39,2.32-7.34,2.32-3.64,0-6.58-1.24-8.82-3.72-2.28-2.48-3.42-5.83-3.42-10.05s1.12-7.48,3.37-10c2.21-2.52,5.13-3.77,8.77-3.77s6.73,1.31,8.87,3.93c2.14,2.62,3.21,5.9,3.21,9.84Zm-12.09-10.05c-2.14,0-3.89.67-5.25,2.01-1.36,1.34-2.21,3.27-2.55,5.79h15.5c-.2-2.31-.99-4.19-2.35-5.64-1.36-1.44-3.15-2.17-5.36-2.17Z"/>
    <path class="uuid-0bc60997-8b42-47d9-911e-9dbe328d7278" d="m1274.07,106.68c.68,0,1.14.02,1.38.05v3.93h-1.02c-2.72,0-4.84.67-6.35,2.01s-2.27,3.26-2.27,5.74v14.99h-4.08v-26.32h3.88v4.64c1.77-3.37,4.59-5.05,8.47-5.05Z"/>
    <path class="uuid-0bc60997-8b42-47d9-911e-9dbe328d7278" d="m1287.53,134.02c-7.04,0-10.76-2.99-11.17-8.98h4.13c.24,1.97.89,3.38,1.96,4.21,1.07.83,2.76,1.25,5.07,1.25,4.22,0,6.32-1.36,6.32-4.08,0-1.19-.43-2.09-1.3-2.7-.87-.61-2.44-1.14-4.72-1.58l-2.45-.46c-5.47-1.02-8.21-3.6-8.21-7.75,0-2.28.86-4.09,2.58-5.43,1.72-1.34,4.05-2.01,7.01-2.01,6.97,0,10.54,2.91,10.71,8.72h-4.08c-.1-1.9-.68-3.25-1.73-4.03-1.05-.78-2.69-1.17-4.9-1.17-1.77,0-3.13.34-4.08,1.02-.95.68-1.43,1.63-1.43,2.86,0,1.16.41,2.02,1.22,2.6.82.58,2.18,1.07,4.08,1.48l2.35.46c3.23.65,5.55,1.56,6.96,2.75,1.41,1.19,2.12,2.86,2.12,5,0,2.48-.93,4.41-2.78,5.79-1.85,1.38-4.41,2.07-7.68,2.07Z"/>
    <path class="uuid-0bc60997-8b42-47d9-911e-9dbe328d7278" d="m1306.25,103.11h-4.33v-5h4.33v5Zm-.1,30.29h-4.08v-26.32h4.08v26.32Z"/>
    <path class="uuid-0bc60997-8b42-47d9-911e-9dbe328d7278" d="m1325.42,118.77l4.33-11.68h4.39l-10.35,26.32h-4.28l-10.3-26.32h4.44l4.33,11.73c2.14,5.75,3.38,9.15,3.72,10.2.61-1.8,1.85-5.22,3.72-10.25Z"/>
    <path class="uuid-0bc60997-8b42-47d9-911e-9dbe328d7278" d="m1358.88,120.25v1.43h-19.99c.2,2.86,1,5.01,2.4,6.45,1.39,1.45,3.3,2.17,5.71,2.17,3.64,0,5.97-1.63,6.99-4.9h4.23c-.71,2.65-2.04,4.75-3.98,6.3-1.94,1.55-4.39,2.32-7.34,2.32-3.64,0-6.58-1.24-8.82-3.72-2.28-2.48-3.42-5.83-3.42-10.05s1.12-7.48,3.37-10c2.21-2.52,5.13-3.77,8.77-3.77s6.73,1.31,8.87,3.93c2.14,2.62,3.21,5.9,3.21,9.84Zm-12.09-10.05c-2.14,0-3.89.67-5.25,2.01-1.36,1.34-2.21,3.27-2.55,5.79h15.5c-.2-2.31-.99-4.19-2.35-5.64-1.36-1.44-3.15-2.17-5.36-2.17Z"/>
    <path class="uuid-0bc60997-8b42-47d9-911e-9dbe328d7278" d="m1373.67,97.1h12.24c5.51,0,9.86,1.6,13.06,4.79,3.16,3.2,4.74,7.65,4.74,13.36s-1.58,10.08-4.74,13.31c-3.23,3.23-7.58,4.85-13.06,4.85h-12.24v-36.31Zm4.28,32.44h7.96c4.28,0,7.57-1.26,9.87-3.77,2.29-2.52,3.44-6.02,3.44-10.51s-1.15-7.99-3.44-10.51c-2.29-2.52-5.58-3.77-9.87-3.77h-7.96v28.56Z"/>
    <path class="uuid-0bc60997-8b42-47d9-911e-9dbe328d7278" d="m1412.73,103.11h-4.33v-5h4.33v5Zm-.1,30.29h-4.08v-26.32h4.08v26.32Z"/>
    <path class="uuid-0bc60997-8b42-47d9-911e-9dbe328d7278" d="m1438.74,110.92v-3.83h3.88v25.3c0,3.6-1.05,6.44-3.16,8.52-2.11,2.07-5.13,3.11-9.08,3.11-3.26,0-5.88-.75-7.85-2.24-1.97-1.5-3.09-3.57-3.37-6.22h4.08c.51,3.33,2.89,5,7.14,5,5.44,0,8.16-2.72,8.16-8.16v-2.55c-2.07,2.79-5.02,4.18-8.82,4.18s-6.67-1.26-8.87-3.77c-2.24-2.52-3.37-5.85-3.37-10s1.12-7.56,3.37-10.05c2.17-2.48,5.13-3.72,8.87-3.72s6.92,1.48,9.03,4.44Zm-8.52,19.43c2.58,0,4.64-.9,6.17-2.7,1.53-1.8,2.29-4.27,2.29-7.39s-.76-5.59-2.29-7.4c-1.53-1.8-3.59-2.7-6.17-2.7s-4.6.92-6.15,2.75c-1.55,1.84-2.32,4.28-2.32,7.34s.77,5.51,2.32,7.34c1.55,1.84,3.6,2.75,6.15,2.75Z"/>
    <path class="uuid-0bc60997-8b42-47d9-911e-9dbe328d7278" d="m1452.92,103.11h-4.33v-5h4.33v5Zm-.1,30.29h-4.08v-26.32h4.08v26.32Z"/>
    <path class="uuid-0bc60997-8b42-47d9-911e-9dbe328d7278" d="m1470.46,107.09v3.57h-5.41v17.08c0,1.5,1,2.24,3.01,2.24h2.4v3.42c-1.12.1-2.09.15-2.91.15-4.39,0-6.58-1.82-6.58-5.46v-17.44h-4.33v-3.57h4.33v-7.45h4.08v7.45h5.41Z"/>
    <path class="uuid-0bc60997-8b42-47d9-911e-9dbe328d7278" d="m1496.07,130.09h1.48v3.32c-.68.1-1.43.15-2.24.15-2.75,0-4.23-1.26-4.44-3.77-1.84,2.82-4.69,4.23-8.57,4.23-2.89,0-5.16-.67-6.81-2.01-1.65-1.34-2.47-3.24-2.47-5.69,0-4.76,3.25-7.48,9.74-8.16l3.77-.41c2.75-.31,4.13-1.51,4.13-3.62,0-1.46-.45-2.52-1.35-3.16-.9-.65-2.42-.97-4.56-.97-2.28,0-3.92.38-4.92,1.15-1,.76-1.57,2.12-1.71,4.05h-4.08c.34-5.81,3.91-8.72,10.71-8.72s9.89,2.55,9.89,7.65v14.69c0,.85.48,1.27,1.43,1.27Zm-13.57.46c2.18,0,4.08-.66,5.71-1.99,1.63-1.29,2.45-3.14,2.45-5.56v-3.11c-.75.58-1.9.95-3.47,1.12l-3.83.46c-2.21.27-3.78.78-4.72,1.53-.94.75-1.4,1.82-1.4,3.21s.44,2.42,1.33,3.19c.88.77,2.19,1.15,3.93,1.15Z"/>
    <path class="uuid-0bc60997-8b42-47d9-911e-9dbe328d7278" d="m1504.94,133.41h-4.08v-36.31h4.08v36.31Z"/>
    <path class="uuid-0bc60997-8b42-47d9-911e-9dbe328d7278" d="m1229.39,169.08c4.05,2.11,6.07,5.15,6.07,9.13,0,3.3-1.16,5.95-3.47,7.96-2.28,2.04-5.29,3.06-9.03,3.06-4.05,0-7.18-1.05-9.41-3.16-2.23-2.11-3.32-4.98-3.29-8.62h4.23c.07,2.58.83,4.55,2.29,5.89,1.46,1.34,3.52,2.01,6.17,2.01,2.45,0,4.39-.65,5.84-1.94,1.44-1.29,2.17-3.03,2.17-5.2s-.74-3.97-2.22-5.28c-1.48-1.31-3.49-1.96-6.04-1.96h-2.7v-3.57h2.45c2.41,0,4.27-.54,5.58-1.63,1.31-1.09,1.96-2.6,1.96-4.54s-.66-3.39-1.96-4.46c-1.31-1.07-3.08-1.61-5.33-1.61s-4.09.59-5.43,1.76c-1.34,1.17-2.07,2.9-2.17,5.18h-4.28c.03-3.3,1.11-5.92,3.24-7.88,2.12-1.96,5.01-2.93,8.64-2.93s6.32.88,8.44,2.63c2.12,1.75,3.19,4.16,3.19,7.22,0,3.47-1.65,6.12-4.95,7.96Z"/>
    <path class="uuid-0bc60997-8b42-47d9-911e-9dbe328d7278" d="m1260.09,165.87v-13.77h4.08v36.31h-3.88v-4.08c-2.11,3.13-5.12,4.69-9.03,4.69-3.71,0-6.67-1.26-8.87-3.77-2.24-2.52-3.37-5.85-3.37-10s1.12-7.56,3.37-10.05c2.17-2.48,5.13-3.72,8.87-3.72s6.71,1.46,8.82,4.39Zm-14.48,16.88c1.53,1.73,3.59,2.6,6.17,2.6s4.64-.9,6.17-2.7c1.53-1.77,2.29-4.23,2.29-7.39s-.76-5.59-2.29-7.4c-1.53-1.8-3.59-2.7-6.17-2.7s-4.6.93-6.15,2.78c-1.55,1.85-2.32,4.36-2.32,7.52s.76,5.56,2.29,7.29Z"/>
    <path class="uuid-0bc60997-8b42-47d9-911e-9dbe328d7278" d="m1306.91,177.9l.36,5.86c.17,2.04.61,3.59,1.33,4.64h-4.44c-.75-1.09-1.14-2.7-1.17-4.85l-.15-3.88c-.1-2.45-.65-4.19-1.63-5.23-.99-1.04-2.6-1.55-4.85-1.55h-11.83v15.5h-4.28v-36.31h15.35c3.74,0,6.72.87,8.95,2.6,2.23,1.73,3.34,4.17,3.34,7.29,0,2.21-.54,4.07-1.61,5.58-1.07,1.51-2.52,2.58-4.36,3.19,3.06.95,4.73,3.33,5,7.14Zm-22.39-8.87h11.58c2.28,0,4.07-.59,5.38-1.76,1.31-1.17,1.96-2.85,1.96-5.02s-.69-3.64-2.07-4.69c-1.38-1.05-3.31-1.58-5.79-1.58h-11.07v13.06Z"/>
    <path class="uuid-0bc60997-8b42-47d9-911e-9dbe328d7278" d="m1335.62,175.25v1.43h-19.99c.2,2.86,1,5.01,2.4,6.45,1.39,1.45,3.3,2.17,5.71,2.17,3.64,0,5.97-1.63,6.99-4.9h4.23c-.71,2.65-2.04,4.75-3.98,6.3-1.94,1.55-4.39,2.32-7.34,2.32-3.64,0-6.58-1.24-8.82-3.72-2.28-2.48-3.42-5.83-3.42-10.05s1.12-7.48,3.37-10c2.21-2.52,5.13-3.77,8.77-3.77s6.73,1.31,8.87,3.93c2.14,2.62,3.21,5.9,3.21,9.84Zm-12.09-10.05c-2.14,0-3.89.67-5.25,2.01-1.36,1.34-2.21,3.27-2.55,5.79h15.5c-.2-2.31-.99-4.19-2.35-5.64-1.36-1.44-3.15-2.17-5.36-2.17Z"/>
    <path class="uuid-0bc60997-8b42-47d9-911e-9dbe328d7278" d="m1352.61,161.48c2.92,0,5.2.8,6.83,2.4,1.63,1.6,2.45,3.84,2.45,6.73v17.8h-4.08v-17.39c0-3.91-2.01-5.86-6.02-5.86-1.9,0-3.59.71-5.05,2.14s-2.19,3.5-2.19,6.22v14.89h-4.08v-26.32h3.88v3.93c2.01-3.03,4.76-4.54,8.26-4.54Z"/>
    <path class="uuid-0bc60997-8b42-47d9-911e-9dbe328d7278" d="m1387.79,165.87v-13.77h4.08v36.31h-3.88v-4.08c-2.11,3.13-5.12,4.69-9.03,4.69-3.71,0-6.67-1.26-8.87-3.77-2.24-2.52-3.37-5.85-3.37-10s1.12-7.56,3.37-10.05c2.17-2.48,5.13-3.72,8.87-3.72s6.71,1.46,8.82,4.39Zm-14.48,16.88c1.53,1.73,3.59,2.6,6.17,2.6s4.64-.9,6.17-2.7c1.53-1.77,2.29-4.23,2.29-7.39s-.76-5.59-2.29-7.4c-1.53-1.8-3.59-2.7-6.17-2.7s-4.6.93-6.15,2.78c-1.55,1.85-2.32,4.36-2.32,7.52s.76,5.56,2.29,7.29Z"/>
    <path class="uuid-0bc60997-8b42-47d9-911e-9dbe328d7278" d="m1420.95,175.25v1.43h-19.99c.2,2.86,1,5.01,2.4,6.45,1.39,1.45,3.3,2.17,5.71,2.17,3.64,0,5.97-1.63,6.99-4.9h4.23c-.71,2.65-2.04,4.75-3.98,6.3-1.94,1.55-4.39,2.32-7.34,2.32-3.64,0-6.58-1.24-8.82-3.72-2.28-2.48-3.42-5.83-3.42-10.05s1.12-7.48,3.37-10c2.21-2.52,5.13-3.77,8.77-3.77s6.73,1.31,8.87,3.93c2.14,2.62,3.21,5.9,3.21,9.84Zm-12.09-10.05c-2.14,0-3.89.67-5.25,2.01-1.36,1.34-2.21,3.27-2.55,5.79h15.5c-.2-2.31-.99-4.19-2.35-5.64-1.36-1.44-3.15-2.17-5.36-2.17Z"/>
    <path class="uuid-0bc60997-8b42-47d9-911e-9dbe328d7278" d="m1438.13,161.68c.68,0,1.14.02,1.38.05v3.93h-1.02c-2.72,0-4.84.67-6.35,2.01s-2.27,3.26-2.27,5.74v14.99h-4.08v-26.32h3.88v4.64c1.77-3.37,4.59-5.05,8.47-5.05Z"/>
    <path class="uuid-0bc60997-8b42-47d9-911e-9dbe328d7278" d="m1447.52,158.11h-4.33v-5h4.33v5Zm-.1,30.29h-4.08v-26.32h4.08v26.32Z"/>
    <path class="uuid-0bc60997-8b42-47d9-911e-9dbe328d7278" d="m1465.67,161.48c2.92,0,5.2.8,6.83,2.4,1.63,1.6,2.45,3.84,2.45,6.73v17.8h-4.08v-17.39c0-3.91-2.01-5.86-6.02-5.86-1.9,0-3.59.71-5.05,2.14s-2.19,3.5-2.19,6.22v14.89h-4.08v-26.32h3.88v3.93c2.01-3.03,4.76-4.54,8.26-4.54Z"/>
    <path class="uuid-0bc60997-8b42-47d9-911e-9dbe328d7278" d="m1501.07,165.92v-3.83h3.88v25.3c0,3.6-1.05,6.44-3.16,8.52-2.11,2.07-5.13,3.11-9.08,3.11-3.26,0-5.88-.75-7.85-2.24-1.97-1.5-3.09-3.57-3.37-6.22h4.08c.51,3.33,2.89,5,7.14,5,5.44,0,8.16-2.72,8.16-8.16v-2.55c-2.07,2.79-5.02,4.18-8.82,4.18s-6.67-1.26-8.87-3.77c-2.24-2.52-3.37-5.85-3.37-10s1.12-7.56,3.37-10.05c2.17-2.48,5.13-3.72,8.87-3.72s6.92,1.48,9.03,4.44Zm-8.52,19.43c2.58,0,4.64-.9,6.17-2.7,1.53-1.8,2.29-4.27,2.29-7.39s-.76-5.59-2.29-7.4c-1.53-1.8-3.59-2.7-6.17-2.7s-4.6.92-6.15,2.75c-1.55,1.84-2.32,4.28-2.32,7.34s.77,5.51,2.32,7.34c1.55,1.84,3.6,2.75,6.15,2.75Z"/>
    <path class="uuid-0bc60997-8b42-47d9-911e-9dbe328d7278" d="m1068.64,207.1h12.24c5.51,0,9.86,1.6,13.06,4.79,3.16,3.2,4.74,7.65,4.74,13.36s-1.58,10.08-4.74,13.31c-3.23,3.23-7.58,4.84-13.06,4.84h-12.24v-36.31Zm4.28,32.44h7.96c4.28,0,7.57-1.26,9.87-3.77,2.29-2.52,3.44-6.02,3.44-10.51s-1.15-7.99-3.44-10.51c-2.29-2.52-5.58-3.77-9.87-3.77h-7.96v28.56Z"/>
    <path class="uuid-0bc60997-8b42-47d9-911e-9dbe328d7278" d="m1126.73,230.25v1.43h-19.99c.2,2.86,1,5.01,2.4,6.45,1.39,1.45,3.3,2.17,5.71,2.17,3.64,0,5.97-1.63,6.99-4.9h4.23c-.71,2.65-2.04,4.75-3.98,6.3-1.94,1.55-4.39,2.32-7.34,2.32-3.64,0-6.58-1.24-8.82-3.72-2.28-2.48-3.42-5.83-3.42-10.05s1.12-7.48,3.37-10c2.21-2.52,5.13-3.77,8.77-3.77s6.73,1.31,8.87,3.93c2.14,2.62,3.21,5.9,3.21,9.84Zm-12.09-10.05c-2.14,0-3.89.67-5.25,2.01-1.36,1.34-2.21,3.27-2.55,5.79h15.5c-.2-2.31-.99-4.19-2.35-5.63-1.36-1.45-3.15-2.17-5.36-2.17Z"/>
    <path class="uuid-0bc60997-8b42-47d9-911e-9dbe328d7278" d="m1140.6,244.02c-7.04,0-10.76-2.99-11.17-8.98h4.13c.24,1.97.89,3.38,1.96,4.21s2.76,1.25,5.07,1.25c4.22,0,6.32-1.36,6.32-4.08,0-1.19-.43-2.09-1.3-2.7-.87-.61-2.44-1.14-4.72-1.58l-2.45-.46c-5.47-1.02-8.21-3.6-8.21-7.75,0-2.28.86-4.09,2.58-5.43s4.05-2.01,7.01-2.01c6.97,0,10.54,2.91,10.71,8.72h-4.08c-.1-1.9-.68-3.25-1.73-4.03-1.05-.78-2.69-1.17-4.9-1.17-1.77,0-3.13.34-4.08,1.02-.95.68-1.43,1.63-1.43,2.86,0,1.16.41,2.02,1.22,2.6s2.18,1.07,4.08,1.48l2.35.46c3.23.65,5.55,1.56,6.96,2.75,1.41,1.19,2.12,2.86,2.12,5,0,2.48-.93,4.41-2.78,5.79-1.85,1.38-4.41,2.07-7.68,2.07Z"/>
    <path class="uuid-0bc60997-8b42-47d9-911e-9dbe328d7278" d="m1159.32,213.11h-4.33v-5h4.33v5Zm-.1,30.29h-4.08v-26.32h4.08v26.32Z"/>
    <path class="uuid-0bc60997-8b42-47d9-911e-9dbe328d7278" d="m1185.33,220.92v-3.83h3.88v25.3c0,3.6-1.05,6.44-3.16,8.52-2.11,2.07-5.13,3.11-9.08,3.11-3.26,0-5.88-.75-7.85-2.24-1.97-1.5-3.09-3.57-3.37-6.22h4.08c.51,3.33,2.89,5,7.14,5,5.44,0,8.16-2.72,8.16-8.16v-2.55c-2.07,2.79-5.02,4.18-8.82,4.18s-6.67-1.26-8.87-3.77c-2.24-2.52-3.37-5.85-3.37-10s1.12-7.56,3.37-10.05c2.17-2.48,5.13-3.72,8.87-3.72s6.92,1.48,9.03,4.44Zm-8.52,19.43c2.58,0,4.64-.9,6.17-2.7s2.29-4.27,2.29-7.4-.76-5.59-2.29-7.39c-1.53-1.8-3.59-2.7-6.17-2.7s-4.6.92-6.15,2.75c-1.55,1.84-2.32,4.28-2.32,7.34s.77,5.51,2.32,7.34c1.55,1.84,3.6,2.75,6.15,2.75Z"/>
    <path class="uuid-0bc60997-8b42-47d9-911e-9dbe328d7278" d="m1207.46,216.48c2.92,0,5.2.8,6.83,2.4,1.63,1.6,2.45,3.84,2.45,6.73v17.8h-4.08v-17.39c0-3.91-2.01-5.87-6.02-5.87-1.9,0-3.59.71-5.05,2.14-1.46,1.43-2.19,3.5-2.19,6.22v14.89h-4.08v-26.32h3.88v3.93c2.01-3.03,4.76-4.54,8.26-4.54Z"/>
    <path class="uuid-0bc60997-8b42-47d9-911e-9dbe328d7278" d="m1245.46,216.48c3.71,0,6.68,1.24,8.92,3.72,2.21,2.52,3.32,5.87,3.32,10.05s-1.11,7.48-3.32,10c-2.24,2.52-5.22,3.77-8.92,3.77-3.91,0-6.92-1.56-9.03-4.69v4.08h-3.88v-36.31h4.08v13.77c2.11-2.92,5.05-4.39,8.82-4.39Zm-.51,23.87c2.55,0,4.6-.93,6.15-2.78,1.55-1.85,2.32-4.36,2.32-7.52s-.76-5.52-2.27-7.27c-1.51-1.75-3.58-2.63-6.2-2.63s-4.64.88-6.17,2.65c-1.53,1.77-2.29,4.25-2.29,7.45s.76,5.63,2.29,7.4c1.53,1.8,3.59,2.7,6.17,2.7Z"/>
    <path class="uuid-0bc60997-8b42-47d9-911e-9dbe328d7278" d="m1273.96,228.01l3.72-10.91h4.44l-11.12,30.45c-.78,2.21-1.85,3.77-3.21,4.67-1.36.9-3.15,1.35-5.35,1.35-.75,0-1.56-.05-2.45-.15v-3.42h2.4c2.35,0,3.94-1.09,4.79-3.26l.92-2.45-9.89-27.18h4.49l3.72,10.97c1.33,3.88,2.58,7.67,3.77,11.37.99-3.16,2.24-6.97,3.77-11.42Z"/>
    <path class="uuid-0bc60997-8b42-47d9-911e-9dbe328d7278" d="m1317.82,227.14l8.11-20.04h5.61v36.31h-4.18v-11.63c0-7.65.05-13.82.15-18.51-.82,2.24-1.89,5-3.21,8.26l-8.98,21.88h-3.67l-9.03-21.88c-1.33-3.26-2.4-6.02-3.21-8.26.1,4.69.15,10.86.15,18.51v11.63h-4.18v-36.31h5.61l8.42,20.66c1.26,3.09,2.63,6.58,4.13,10.46,2.07-5.51,3.5-9.2,4.28-11.07Z"/>
    <path class="uuid-0bc60997-8b42-47d9-911e-9dbe328d7278" d="m1358.57,240.25c-2.41,2.52-5.47,3.77-9.18,3.77s-6.77-1.26-9.18-3.77c-2.38-2.48-3.57-5.81-3.57-10s1.19-7.51,3.57-10c2.41-2.52,5.47-3.77,9.18-3.77s6.77,1.26,9.18,3.77c2.38,2.48,3.57,5.81,3.57,10s-1.19,7.51-3.57,10Zm-15.35-2.6c1.53,1.8,3.59,2.7,6.17,2.7s4.64-.9,6.17-2.7c1.53-1.77,2.29-4.23,2.29-7.4s-.76-5.68-2.29-7.45-3.59-2.65-6.17-2.65-4.64.88-6.17,2.65c-1.53,1.77-2.29,4.25-2.29,7.45s.76,5.63,2.29,7.4Z"/>
    <path class="uuid-0bc60997-8b42-47d9-911e-9dbe328d7278" d="m1389.38,243.41h-4.74l-8.87-14.13-4.69,4.39v9.74h-4.08v-36.31h4.08v21.78l12.19-11.78h5.41l-10,9.49,10.71,16.83Z"/>
    <path class="uuid-0bc60997-8b42-47d9-911e-9dbe328d7278" d="m1396.36,213.11h-4.33v-5h4.33v5Zm-.1,30.29h-4.08v-26.32h4.08v26.32Z"/>
    <path class="uuid-0bc60997-8b42-47d9-911e-9dbe328d7278" d="m1415.28,216.48c3.71,0,6.68,1.24,8.92,3.72,2.21,2.52,3.32,5.87,3.32,10.05s-1.11,7.48-3.32,10c-2.24,2.52-5.22,3.77-8.92,3.77-3.91,0-6.92-1.56-9.03-4.69v4.08h-3.88v-36.31h4.08v13.77c2.11-2.92,5.05-4.39,8.82-4.39Zm-.51,23.87c2.55,0,4.6-.93,6.15-2.78,1.55-1.85,2.32-4.36,2.32-7.52s-.76-5.52-2.27-7.27c-1.51-1.75-3.58-2.63-6.2-2.63s-4.64.88-6.17,2.65c-1.53,1.77-2.29,4.25-2.29,7.45s.76,5.63,2.29,7.4c1.53,1.8,3.59,2.7,6.17,2.7Z"/>
    <path class="uuid-0bc60997-8b42-47d9-911e-9dbe328d7278" d="m1453.38,240.09h1.48v3.32c-.68.1-1.43.15-2.24.15-2.75,0-4.23-1.26-4.44-3.77-1.84,2.82-4.69,4.23-8.57,4.23-2.89,0-5.16-.67-6.81-2.01-1.65-1.34-2.47-3.24-2.47-5.69,0-4.76,3.25-7.48,9.74-8.16l3.77-.41c2.75-.31,4.13-1.51,4.13-3.62,0-1.46-.45-2.52-1.35-3.16-.9-.65-2.42-.97-4.56-.97-2.28,0-3.92.38-4.92,1.15-1,.77-1.57,2.12-1.71,4.05h-4.08c.34-5.81,3.91-8.72,10.71-8.72s9.89,2.55,9.89,7.65v14.69c0,.85.48,1.27,1.43,1.27Zm-13.57.46c2.18,0,4.08-.66,5.71-1.99,1.63-1.29,2.45-3.14,2.45-5.56v-3.11c-.75.58-1.9.95-3.47,1.12l-3.83.46c-2.21.27-3.78.78-4.72,1.53-.94.75-1.4,1.82-1.4,3.21s.44,2.42,1.33,3.19c.88.77,2.19,1.15,3.93,1.15Z"/>
    <path class="uuid-0bc60997-8b42-47d9-911e-9dbe328d7278" d="m1471.08,216.48c3.71,0,6.68,1.24,8.92,3.72,2.21,2.52,3.32,5.87,3.32,10.05s-1.11,7.48-3.32,10c-2.24,2.52-5.22,3.77-8.92,3.77-3.91,0-6.92-1.56-9.03-4.69v4.08h-3.88v-36.31h4.08v13.77c2.11-2.92,5.05-4.39,8.82-4.39Zm-.51,23.87c2.55,0,4.6-.93,6.15-2.78,1.55-1.85,2.32-4.36,2.32-7.52s-.76-5.52-2.27-7.27c-1.51-1.75-3.58-2.63-6.2-2.63s-4.64.88-6.17,2.65c-1.53,1.77-2.29,4.25-2.29,7.45s.76,5.63,2.29,7.4c1.53,1.8,3.59,2.7,6.17,2.7Z"/>
    <path class="uuid-0bc60997-8b42-47d9-911e-9dbe328d7278" d="m1499.59,228.01l3.72-10.91h4.44l-11.12,30.45c-.78,2.21-1.85,3.77-3.21,4.67-1.36.9-3.15,1.35-5.35,1.35-.75,0-1.56-.05-2.45-.15v-3.42h2.4c2.35,0,3.94-1.09,4.79-3.26l.92-2.45-9.89-27.18h4.49l3.72,10.97c1.33,3.88,2.58,7.67,3.77,11.37.99-3.16,2.24-6.97,3.77-11.42Z"/>
  </g>
  <g>
    <path class="uuid-0bc60997-8b42-47d9-911e-9dbe328d7278" d="m1866.6,148.52v11.28h-2.28v-14.1l1.17.06c1.76.12,3.27.52,4.53,1.2s2.36,1.83,3.3,3.45l1.56,2.7c.8,1.36,1.58,2.32,2.34,2.89.76.57,1.68.86,2.76.86,1.18,0,2.12-.38,2.83-1.12s1.06-1.79,1.06-3.11c0-2.98-1.53-4.47-4.59-4.47v-2.49c2.18-.02,3.87.59,5.07,1.83s1.8,2.97,1.8,5.19c0,2.02-.57,3.66-1.71,4.92-1.18,1.26-2.67,1.89-4.47,1.89-2.76,0-5.08-1.62-6.96-4.86l-1.32-2.28c-.8-1.32-1.58-2.27-2.33-2.85s-1.67-.91-2.77-.99Z"/>
    <path class="uuid-0bc60997-8b42-47d9-911e-9dbe328d7278" d="m1875.69,172.73c-1.24,2.38-3.03,3.57-5.37,3.57-1.94,0-3.5-.68-4.68-2.04-1.2-1.34-1.8-3.11-1.8-5.31,0-2.38.62-4.23,1.86-5.54,1.24-1.31,2.93-1.96,5.07-1.94v2.49c-1.52.04-2.68.49-3.46,1.35-.79.86-1.19,2.07-1.19,3.63,0,1.44.38,2.58,1.14,3.43.76.85,1.78,1.28,3.06,1.28s2.33-.44,3.11-1.31c.77-.87,1.15-2.05,1.15-3.55v-1.59h2.1v1.44c0,1.42.32,2.52.96,3.29.64.77,1.53,1.16,2.67,1.16s2-.39,2.62-1.16.94-1.81.94-3.13-.34-2.41-1.03-3.2c-.69-.79-1.71-1.21-3.04-1.27v-2.52c1.94.02,3.48.66,4.63,1.91,1.15,1.25,1.72,2.94,1.72,5.08s-.51,3.71-1.54,4.96-2.45,1.88-4.25,1.88c-2.04,0-3.6-.97-4.68-2.91Z"/>
    <path class="uuid-0bc60997-8b42-47d9-911e-9dbe328d7278" d="m1871.7,187.22v-8.67h2.16v8.67h-2.16Z"/>
    <path class="uuid-0bc60997-8b42-47d9-911e-9dbe328d7278" d="m1866.72,203.45c-1.92-1.3-2.88-3.23-2.88-5.79s.96-4.51,2.88-5.79c1.94-1.3,4.7-1.95,8.28-1.95s6.34.65,8.28,1.95c1.92,1.28,2.88,3.21,2.88,5.79s-.96,4.49-2.88,5.79c-1.94,1.3-4.7,1.95-8.28,1.95s-6.34-.65-8.28-1.95Zm17.16-5.79c0-3.4-2.96-5.1-8.88-5.1s-8.88,1.7-8.88,5.1,2.96,5.1,8.88,5.1,8.88-1.7,8.88-5.1Z"/>
    <path class="uuid-0bc60997-8b42-47d9-911e-9dbe328d7278" d="m1885.68,212.72v2.04h-21.36v-2.52h15.93v-4.86h1.98l.03.48c.1,1.52.4,2.65.9,3.39.5.74,1.34,1.23,2.52,1.47Z"/>
    <path class="uuid-0bc60997-8b42-47d9-911e-9dbe328d7278" d="m1871.7,226.58v-8.67h2.16v8.67h-2.16Z"/>
    <path class="uuid-0bc60997-8b42-47d9-911e-9dbe328d7278" d="m1885.68,232.1v2.04h-21.36v-2.52h15.93v-4.86h1.98l.03.48c.1,1.52.4,2.65.9,3.39.5.74,1.34,1.23,2.52,1.47Z"/>
    <path class="uuid-0bc60997-8b42-47d9-911e-9dbe328d7278" d="m1883.4,236.69h2.28v13.71h-1.98c-5.52-4.92-11.98-7.48-19.38-7.68v-2.61c3.7.1,7.08.75,10.16,1.94,3.07,1.19,6.04,3,8.92,5.45v-10.8Z"/>
  </g>
</svg>