<?xml version="1.0" encoding="UTF-8"?>
<svg id="uuid-11803c54-028b-41b5-b2de-d84b5fbcc6ab" data-name="Layer 1" xmlns="http://www.w3.org/2000/svg" viewBox="0 0 1920 768">
  <defs>
    <style>
      .uuid-b857124c-ebe9-4d5a-96be-dcaabd7eec66 {
        fill: #fff;
        stroke-width: 0px;
      }
    </style>
  </defs>
  <g>
    <path class="uuid-b857124c-ebe9-4d5a-96be-dcaabd7eec66" d="m759.59,205.21h-59.19c9.42,13.71,6.24,25.71-.19,36.31-4.04,6.66-8.85,13.07-14.33,18.6-19.53,19.73-39.48,39.05-59.29,58.51-.38.38-.88.64-1.82,1.32v-4.39c0-19.77-.01-39.54,0-59.32.01-17.12-.2-34.27,5.01-51.1h-40.65c3.16,13.09,3.5,26.28,3.51,39.48.05,44.79.13,89.57.07,134.36-.01,10.12-.3,20.25-.9,30.35-.35,5.96-1.56,11.86-2.38,17.82h39.67c-1.23-8.25-3.23-16.41-3.51-24.63-.69-20.7-.62-41.43-.78-62.15,0-1.07.4-2.4,1.09-3.18,4.19-4.71,8.52-9.3,13.05-14.2,37.53,37.33,74.23,73.84,110.58,110,7.71-7.63,15.11-14.95,22.09-21.85-36.1-36.64-72.34-73.43-108.71-110.34,31.87-31.51,64.02-63.31,96.66-95.58"/>
    <path class="uuid-b857124c-ebe9-4d5a-96be-dcaabd7eec66" d="m924,403.75c-7.95,2.46-16.11,4.44-24.32,5.8-28.98,4.82-28.17,3.79-57.38,3.7-1.91,0-2.8-.57-3.01-2.54-.41-4.04-.97-8.07-1.46-12.11-.56-19.41-.53-38.83-.68-58.25l-.04-17.62h93.67v-13.39h-93.69c0-17.7,0-35.41,0-53.11,0-9.61-.06-19.23.81-28.8.28-2.05.54-4.1.75-6.15.21-2.03,1.17-2.51,3.04-2.52,25.89-.22,21.73-.6,47.37,3.67,20.85,3.47,56.03,26.14,56.03,26.14,0,0-3.27-27.61-5.25-39.21-1.03-6.02-.6-4.99-5.92-4.95l-112.13.72h-20.32c3.16,13.09,3.5,26.28,3.51,39.48.05,44.79.13,89.57.07,134.36-.01,10.12-.31,20.25-.9,30.35-.35,5.95-1.56,11.86-2.38,17.82h39.19l57.44.23c25.77.12,21.45.17,47.23.28,1.69,0,2.98-.13,3.34-2.24,2.21-13.03,6.16-41.08,5.71-42.53-12.18,12.87-17.54,16.8-30.67,20.86"/>
    <path class="uuid-b857124c-ebe9-4d5a-96be-dcaabd7eec66" d="m1316.1,323.15c-10.84-11.68-24.66-20.19-38.72-28.46-12.9-7.58-26.41-14.46-37.45-24.26-9.23-8.19-14.62-17.71-14-29.67,1.09-20.96,23.05-33.77,45.98-28.18,10.91,2.66,15.17,9.55,19.52,18.36,3.36,6.79,5.52,14.05,8.55,21.97,1.26-.93,2.99-1.69,3.84-2.92,4.15-5.99,8.06-12.1,12.06-18.16,3.78-5.73,6.15-8.58,10.14-14.62-1.94-1.02-3.5-1.89-5.12-2.67-10.37-5.01-19.97-11.34-31.54-13.39-20.54-3.63-38.1-4.19-58.16,2.42-26.41,8.7-41.29,29-39.43,53.65,1.34,17.76,10.65,31.89,26.11,42.65,11.51,8.02,23.94,15.02,36.11,22.29,11.31,6.76,22.61,13.51,31.29,22.99,12.95,14.14,17.62,30.27,12.63,47.88-4.61,16.26-17.28,25.39-36.1,27.47-18.59,2.05-39.7-3.77-48.6-21.98-9.38-19.17-6.64-37.85,4.84-55.8.75-1.17.97-2.62,1.43-3.93-1.69.16-3.54-.01-5.04.54-9.21,3.39-18.32,6.98-27.5,10.42q-12.9,4.83-14.63,17.33c-3.4,24.89,9.42,46.56,34.89,57.68,23.11,10.09,47.4,11.36,72.15,5.54,16.52-3.88,30.37-11.65,40.72-23.83,20.02-23.58,18.27-59.32-3.97-83.3"/>
    <path class="uuid-b857124c-ebe9-4d5a-96be-dcaabd7eec66" d="m1171.4,210c1.11-1.47,2.2-2.96,3.61-4.87h-53.13c7.1,11.99,6.06,21.64,4.42,29.63-1.79,8.7-5.26,16.88-10.33,24.14-11.1,15.91-22.55,31.58-33.87,47.34-1.5,2.08-3.05,4.12-4.77,6.44-.98-1.32-1.71-2.23-2.37-3.19-23.18-33.9-46.38-67.79-69.48-101.75-1.46-2.15-2.99-2.88-5.52-2.84-10.14.14-20.28.05-30.42.06-1.14,0-2.28.1-3.89.17.87,1.33,1.46,2.32,2.13,3.25,28.19,39.41,56.41,78.81,84.53,118.27,1.14,1.6,1.91,3.85,1.94,5.81.17,13.57.21,27.15.06,40.73-.2,18.07.1,36.19-4.53,53.89h41.1c-3.37-11.78-4.13-23.66-4.31-35.53-.34-21.55-.22-43.11-.4-64.66-.02-2.88.7-5.17,2.47-7.51,27.65-36.42,55.21-72.91,82.79-109.39"/>
  </g>
  <path class="uuid-b857124c-ebe9-4d5a-96be-dcaabd7eec66" d="m1167.83,556.32v-15.47h26.45v-6.81h-26.45v-13.88h2.27s28.02,0,28.02,0v-6.81h-37.62v49.76h38.5v-6.81h-28.9l-2.27.02Zm-52.55-36.25c8.56,0,12.57,2.97,12.57,8.29s-4.01,8.12-12.57,8.12h-11.96v-16.42h2.36s9.6.01,9.6.01Zm-11.96,23.22h10.91l14.23,19.82h8.82l-14.86-20.46,1.16-.23c7.68-1.83,11.79-6.63,11.79-14.06,0-9.69-7.07-15.02-19.9-15.02h-19.47v49.76h7.33v-19.82Zm-61.43-1.13l.5-1.4,6.81-17.98h2.36l6.81,17.9.62,1.48h-17.1Zm24.94,20.95h7.95l-19.64-49.76h-9.34l-19.73,49.76h7.86l5.5-14.58h21.91l5.5,14.58Zm-93.76-24.88c0-10.48,5.15-18.94,15.19-18.94,6.02,0,9.95,3.75,13.62,9.69l6.02-4.63c-4.71-8.03-10.65-12.22-19.55-12.22-13.1,0-22.96,10.83-22.96,26.1s9.86,26.1,22.96,26.1c8.9,0,14.84-4.19,19.55-12.22l-6.02-4.63c-3.67,5.93-7.59,9.6-13.62,9.6-10.04,0-15.19-8.47-15.19-18.85m-55.61,18.04v-42.92h-7.33v49.76h35.88v-6.81h-26.28l-2.27-.03Zm-54.91,1.16c-7.07,0-12.48-5.06-12.48-13.01v-31.08h-7.33v32.04c0,11.44,8.82,18.94,19.82,18.94s19.81-7.51,19.81-18.94v-32.04h-7.33v31.08c0,7.94-5.41,13.01-12.48,13.01m-49.24-19.2c0,10.56-4.98,19.12-14.84,19.12s-14.75-8.55-14.75-19.12,4.89-19.21,14.75-19.21,14.84,8.64,14.84,19.21m7.68,0c0-14.67-8.73-26.1-22.52-26.1s-22.44,11.44-22.44,26.1,8.73,26.1,22.44,26.1,22.52-11.52,22.52-26.1m-85.9,19.2c-7.07,0-13.88-2.71-18.86-7.33l-4.36,6.29c5.41,5.06,14.14,7.94,23.22,7.94,11.7,0,19.99-6.29,19.99-15.45,0-7.51-5.41-11.52-12.75-13.36l-12.22-3.14c-4.71-1.13-7.94-2.53-7.94-6.37,0-4.45,4.36-7.07,11.09-7.07,5.59,0,11.35,2.01,16.41,6.55l4.63-5.76c-5.67-4.8-12.66-7.6-20.51-7.6-11.17,0-18.94,5.94-18.94,14.32,0,7.77,5.59,11.09,13.79,13.01l12.22,2.97c3.84.96,6.9,2.71,6.9,6.98,0,5.24-5.67,8.03-12.66,8.03"/>
</svg>