<?xml version="1.0" encoding="UTF-8"?>
<svg id="uuid-461f8588-f344-4517-bbf2-290aec63d268" data-name="Layer 1" xmlns="http://www.w3.org/2000/svg" viewBox="0 0 1920 501.33">
  <defs>
    <style>
      .uuid-66805d02-3584-4ce9-a4e0-94a8ae16c987 {
        isolation: isolate;
      }

      .uuid-b12f296f-66fb-4db2-bd28-6d899b3c2f99 {
        fill: #fff;
        stroke-width: 0px;
      }
    </style>
  </defs>
  <g id="uuid-6d2c8ca2-e16f-48dd-85cb-05d36e6b43c7" data-name="SALON 2 - AFFIRMATION ROOM " class="uuid-66805d02-3584-4ce9-a4e0-94a8ae16c987">
    <g class="uuid-66805d02-3584-4ce9-a4e0-94a8ae16c987">
      <path class="uuid-b12f296f-66fb-4db2-bd28-6d899b3c2f99" d="m7.25,135.76l1.86-.18c.96,7.74,6.42,11.04,12.54,11.04,7.14,0,10.68-4.26,10.68-9.36,0-6-3.42-7.86-12.36-10.08-7.56-1.92-11.28-3.84-11.28-11.76,0-5.94,5.4-9.96,11.4-9.96,6.66,0,11.1,2.22,12.36,11.4l-1.86.18c-1.26-7.86-4.44-9.78-10.44-9.78-4.86,0-8.88,3.12-8.88,7.56,0,6.6,3.3,7.92,9.96,9.66,9.24,2.4,13.68,4.32,13.68,12.06,0,6.78-4.8,11.88-13.26,11.88-7.08,0-13.44-4.08-14.4-12.66Z"/>
      <path class="uuid-b12f296f-66fb-4db2-bd28-6d899b3c2f99" d="m65.27,133.54h-17.52l-5.34,14.1h-2.34l16.02-41.7h2.04l15.6,41.7h-3.18l-5.28-14.1Zm-16.8-1.92h16.08l-7.92-21.3h-.12l-8.04,21.3Z"/>
      <path class="uuid-b12f296f-66fb-4db2-bd28-6d899b3c2f99" d="m84.65,145.72h21.6v1.92h-24.6v-41.4h3v39.48Z"/>
      <path class="uuid-b12f296f-66fb-4db2-bd28-6d899b3c2f99" d="m130.55,105.46c11.1,0,21.12,8.1,21.12,21.48s-10.02,21.48-21.12,21.48-21.12-8.1-21.12-21.48,10.02-21.48,21.12-21.48Zm0,40.8c9.66,0,18-7.02,18-19.32s-8.34-19.32-18-19.32-18.06,7.02-18.06,19.32,8.28,19.32,18.06,19.32Z"/>
      <path class="uuid-b12f296f-66fb-4db2-bd28-6d899b3c2f99" d="m191.87,147.88h-2.64l-25.92-38.58h-.06v38.34h-2.22v-41.4h3.72l24.78,36.84h.12v-36.84h2.22v41.64Z"/>
      <path class="uuid-b12f296f-66fb-4db2-bd28-6d899b3c2f99" d="m212.69,145.84c4.5-2.58,8.46-5.1,12.54-8.16,4.8-3.84,12.66-10.5,12.66-20.64,0-6.24-4.08-9.66-10.38-9.66-7.5,0-11.22,4.32-11.52,9.66l-1.8-.18c.18-6.06,5.1-11.4,13.62-11.4,7.8,0,13.14,4.02,13.14,11.52,0,11.52-11.94,20.94-24.12,28.14v.06h25.44v2.46h-29.52l-.06-1.8Z"/>
      <path class="uuid-b12f296f-66fb-4db2-bd28-6d899b3c2f99" d="m273.94,131.02h9.12l-.12,2.16h-9.12l.12-2.16Z"/>
      <path class="uuid-b12f296f-66fb-4db2-bd28-6d899b3c2f99" d="m326.5,133.54h-17.52l-5.34,14.1h-2.34l16.02-41.7h2.04l15.6,41.7h-3.18l-5.28-14.1Zm-16.8-1.92h16.08l-7.92-21.3h-.12l-8.04,21.3Z"/>
      <path class="uuid-b12f296f-66fb-4db2-bd28-6d899b3c2f99" d="m366.88,106.24v1.92h-21v17.22h14.4v1.92h-14.4v20.34h-3v-41.4h24Z"/>
      <path class="uuid-b12f296f-66fb-4db2-bd28-6d899b3c2f99" d="m398.5,106.24v1.92h-21v17.22h14.4v1.92h-14.4v20.34h-3v-41.4h24Z"/>
      <path class="uuid-b12f296f-66fb-4db2-bd28-6d899b3c2f99" d="m406.12,106.24h3v41.4h-3v-41.4Z"/>
      <path class="uuid-b12f296f-66fb-4db2-bd28-6d899b3c2f99" d="m431.92,106.24c10.14,0,13.98,3.96,13.98,10.86,0,5.46-3.84,9.24-10.08,9.96v.18c4.62.54,6.9,3.54,8.82,10.2.48,1.68,2.82,8.46,4.26,10.2h-3.24c-1.44-2.16-2.94-6.06-3.84-9.66-1.92-6.96-3.84-10.14-9.54-10.14h-8.64v19.8h-3v-41.4h11.28Zm-8.28,19.74h8.82c5.28,0,10.32-2.16,10.32-8.88,0-5.94-2.76-9-11.22-9h-7.92v17.88Z"/>
      <path class="uuid-b12f296f-66fb-4db2-bd28-6d899b3c2f99" d="m457.24,147.64v-41.4h4.44l13.74,37.02h.06l13.86-37.02h4.2v41.4h-3v-39h-.12l-14.4,38.94h-2.28l-14.28-39h-.12v39.06h-2.1Z"/>
      <path class="uuid-b12f296f-66fb-4db2-bd28-6d899b3c2f99" d="m526.54,133.54h-17.52l-5.34,14.1h-2.34l16.02-41.7h2.04l15.6,41.7h-3.18l-5.28-14.1Zm-16.8-1.92h16.08l-7.92-21.3h-.12l-8.04,21.3Z"/>
      <path class="uuid-b12f296f-66fb-4db2-bd28-6d899b3c2f99" d="m552.76,147.64h-3v-39.42h-15.12v-1.98h33.24v1.98h-15.12v39.42Z"/>
      <path class="uuid-b12f296f-66fb-4db2-bd28-6d899b3c2f99" d="m574.84,106.24h3v41.4h-3v-41.4Z"/>
      <path class="uuid-b12f296f-66fb-4db2-bd28-6d899b3c2f99" d="m608.2,105.46c11.1,0,21.12,8.1,21.12,21.48s-10.02,21.48-21.12,21.48-21.12-8.1-21.12-21.48,10.02-21.48,21.12-21.48Zm0,40.8c9.66,0,18-7.02,18-19.32s-8.34-19.32-18-19.32-18.06,7.02-18.06,19.32,8.28,19.32,18.06,19.32Z"/>
      <path class="uuid-b12f296f-66fb-4db2-bd28-6d899b3c2f99" d="m669.52,147.88h-2.64l-25.92-38.58h-.06v38.34h-2.22v-41.4h3.72l24.78,36.84h.12v-36.84h2.22v41.64Z"/>
      <path class="uuid-b12f296f-66fb-4db2-bd28-6d899b3c2f99" d="m718.11,106.24c10.14,0,13.98,3.96,13.98,10.86,0,5.46-3.84,9.24-10.08,9.96v.18c4.62.54,6.9,3.54,8.82,10.2.48,1.68,2.82,8.46,4.26,10.2h-3.24c-1.44-2.16-2.94-6.06-3.84-9.66-1.92-6.96-3.84-10.14-9.54-10.14h-8.64v19.8h-3v-41.4h11.28Zm-8.28,19.74h8.82c5.28,0,10.32-2.16,10.32-8.88,0-5.94-2.76-9-11.22-9h-7.92v17.88Z"/>
      <path class="uuid-b12f296f-66fb-4db2-bd28-6d899b3c2f99" d="m761.37,105.46c11.1,0,21.12,8.1,21.12,21.48s-10.02,21.48-21.12,21.48-21.12-8.1-21.12-21.48,10.02-21.48,21.12-21.48Zm0,40.8c9.66,0,18-7.02,18-19.32s-8.34-19.32-18-19.32-18.06,7.02-18.06,19.32,8.28,19.32,18.06,19.32Z"/>
      <path class="uuid-b12f296f-66fb-4db2-bd28-6d899b3c2f99" d="m810.75,105.46c11.1,0,21.12,8.1,21.12,21.48s-10.02,21.48-21.12,21.48-21.12-8.1-21.12-21.48,10.02-21.48,21.12-21.48Zm0,40.8c9.66,0,18-7.02,18-19.32s-8.34-19.32-18-19.32-18.06,7.02-18.06,19.32,8.28,19.32,18.06,19.32Z"/>
      <path class="uuid-b12f296f-66fb-4db2-bd28-6d899b3c2f99" d="m841.23,147.64v-41.4h4.44l13.74,37.02h.06l13.86-37.02h4.2v41.4h-3v-39h-.12l-14.4,38.94h-2.28l-14.28-39h-.12v39.06h-2.1Z"/>
    </g>
  </g>
  <g id="uuid-c6c542f1-b5d3-4cff-8b3f-e048843e2b41" data-name="Lightworkers will learn about KSC s affirmations on offering packaging. Staff will tell individuals: Every Keys Soulcare offering is paired with one of Alicia s favorite affirmations. Lightworkers will be directed on what affirmations are and share one o" class="uuid-66805d02-3584-4ce9-a4e0-94a8ae16c987">
    <g class="uuid-66805d02-3584-4ce9-a4e0-94a8ae16c987">
      <path class="uuid-b12f296f-66fb-4db2-bd28-6d899b3c2f99" d="m8.58,208.64h3.3v31.9h16.4v3.1H8.58v-35Z"/>
      <path class="uuid-b12f296f-66fb-4db2-bd28-6d899b3c2f99" d="m34.48,209.39c1-1,2.7-1,3.65,0,1,.95,1,2.65,0,3.65s-2.65.95-3.65,0c-.95-1-.95-2.7,0-3.65Zm.3,9.05h3.1v25.2h-3.1v-25.2Z"/>
      <path class="uuid-b12f296f-66fb-4db2-bd28-6d899b3c2f99" d="m48.78,220.39c1.65-1.55,3.65-2.35,6.1-2.35,1.55,0,3,.4,4.35,1.15l4.5-2.55,1.45,2.65-3.5,1.95c1.15,1.5,1.75,3.25,1.75,5.25,0,2.55-.8,4.6-2.45,6.15-1.65,1.55-3.65,2.3-6.1,2.3-1.8,0-3.35-.4-4.7-1.2-1.35.6-2.05,1.55-2.05,2.8,0,1.6,1.05,2.4,3.1,2.4h6.5c4.6,0,7.55,2.15,7.55,6.6,0,5.95-4.1,8.7-10.35,8.7s-10.4-3.1-10.4-8.3c0-2.25.85-4,2.6-5.3-1.35-.8-2-2.15-2-4.1s1.25-3.65,3.1-4.5c-1.25-1.55-1.9-3.4-1.9-5.55,0-2.5.8-4.55,2.45-6.1Zm3.45,21.25c-.9,0-1.7-.05-2.45-.15-1.5.95-2.25,2.5-2.25,4.55,0,3.35,2.55,5.4,7.4,5.4s7.35-2.25,7.35-5.5c0-2.85-1.65-4.3-4.9-4.3h-5.15Zm-2.8-15.15c0,1.75.5,3.15,1.55,4.2,1.05,1.05,2.35,1.55,3.9,1.55s2.8-.5,3.85-1.55c1.05-1.05,1.6-2.45,1.6-4.2s-.55-3.15-1.6-4.2c-1.05-1.05-2.3-1.55-3.85-1.55s-2.85.5-3.9,1.55c-1.05,1.05-1.55,2.45-1.55,4.2Z"/>
      <path class="uuid-b12f296f-66fb-4db2-bd28-6d899b3c2f99" d="m90.88,243.64h-3.1v-16.9c0-3.65-1.85-5.8-5.25-5.8-2.35,0-4.4,1.1-6.05,3.3s-2.45,5.1-2.45,8.65v10.75h-3.1v-35.4h3.1v15.7c1.65-3.85,5.35-5.9,9-5.9,4.95,0,7.85,3.05,7.85,8.3v17.3Z"/>
      <path class="uuid-b12f296f-66fb-4db2-bd28-6d899b3c2f99" d="m95.98,221.34v-2.9h4.45v-8.15l3.2-2.05v10.2h6.7v2.9h-6.7v15.65c0,2.75,1.15,4.15,3.5,4.15,1.25,0,2.3-.25,3.15-.8l.85,2.8c-1.1.6-2.55.9-4.4.9-3.85,0-6.3-2.5-6.3-7.55v-15.15h-4.45Z"/>
      <path class="uuid-b12f296f-66fb-4db2-bd28-6d899b3c2f99" d="m143.28,218.44h3.25l-7.55,25.2h-3.2l-5.25-20.6-5.25,20.6h-3.2l-7.55-25.2h3.25l5.9,20.8,5.3-20.8h3.1l5.3,20.8,5.9-20.8Z"/>
      <path class="uuid-b12f296f-66fb-4db2-bd28-6d899b3c2f99" d="m150.73,231.04c0-3.45,1.1-6.5,3.25-9.1,2.15-2.6,5-3.9,8.55-3.9s6.4,1.3,8.55,3.9c2.15,2.6,3.25,5.65,3.25,9.1s-1.1,6.5-3.25,9.1c-2.15,2.6-5,3.9-8.55,3.9s-6.4-1.3-8.55-3.9c-2.15-2.6-3.25-5.65-3.25-9.1Zm3.25,0c0,2.75.75,5.1,2.25,7.1,1.55,2,3.65,3,6.3,3s4.75-1,6.25-3c1.55-2,2.3-4.35,2.3-7.1s-.75-5.1-2.3-7.1c-1.5-2-3.6-3-6.25-3s-4.75,1-6.3,3c-1.5,2-2.25,4.35-2.25,7.1Z"/>
      <path class="uuid-b12f296f-66fb-4db2-bd28-6d899b3c2f99" d="m194.18,221.84c-1.1-.6-2.3-.9-3.55-.9-4.05,0-6.95,4.7-6.95,12.95v9.75h-3.1v-25.2h3.1v4.5c1.55-3.25,4.05-4.9,7.4-4.9,1.15,0,2.4.3,3.8.85l-.7,2.95Z"/>
      <path class="uuid-b12f296f-66fb-4db2-bd28-6d899b3c2f99" d="m199.03,208.24h3.1v21.35l10.55-11.15h3.9l-10.9,11.55,11.8,13.65h-3.95l-11.4-13.25v13.25h-3.1v-35.4Z"/>
      <path class="uuid-b12f296f-66fb-4db2-bd28-6d899b3c2f99" d="m242.38,231.04h-19c0,6,3,10.1,7.95,10.1,3.8,0,5.9-1.55,7.75-5.4l2.75,1.35c-2.55,5-5.7,6.95-10.5,6.95-3.35,0-6.05-1.2-8.1-3.65s-3.1-5.6-3.1-9.35,1.05-6.85,3.1-9.3,4.75-3.7,8.1-3.7,5.9,1.05,7.95,3.2c2.05,2.15,3.1,4.95,3.1,8.4v1.4Zm-18.8-2.9h15.6c-.6-4.45-3.4-7.2-7.85-7.2-4.05,0-6.9,2.95-7.75,7.2Z"/>
      <path class="uuid-b12f296f-66fb-4db2-bd28-6d899b3c2f99" d="m262.93,221.84c-1.1-.6-2.3-.9-3.55-.9-4.05,0-6.95,4.7-6.95,12.95v9.75h-3.1v-25.2h3.1v4.5c1.55-3.25,4.05-4.9,7.4-4.9,1.15,0,2.4.3,3.8.85l-.7,2.95Z"/>
      <path class="uuid-b12f296f-66fb-4db2-bd28-6d899b3c2f99" d="m281.98,221.94l-2.2,1.9c-1.45-1.95-3.1-2.9-4.95-2.9-2.2,0-3.7,1.55-3.7,3.8,0,1.85,1.85,3.2,4.2,4.15,3.4,1.35,7.75,3,7.75,7.25,0,4.85-3,7.9-7.8,7.9s-7.95-3.1-9.1-6.9l2.75-1.45c1.25,3.45,2.95,5.45,6.35,5.45,2.95,0,4.55-1.7,4.55-4.5,0-2.05-1.85-3.55-4.2-4.4-3.4-1.35-7.7-2.75-7.7-7.45,0-4,3-6.75,7.05-6.75,2.85,0,5.15,1.3,7,3.9Z"/>
      <path class="uuid-b12f296f-66fb-4db2-bd28-6d899b3c2f99" d="m329.28,218.44h3.25l-7.55,25.2h-3.2l-5.25-20.6-5.25,20.6h-3.2l-7.55-25.2h3.25l5.9,20.8,5.3-20.8h3.1l5.3,20.8,5.9-20.8Z"/>
      <path class="uuid-b12f296f-66fb-4db2-bd28-6d899b3c2f99" d="m338.03,209.39c1-1,2.7-1,3.65,0,1,.95,1,2.65,0,3.65s-2.65.95-3.65,0c-.95-1-.95-2.7,0-3.65Zm.3,9.05h3.1v25.2h-3.1v-25.2Z"/>
      <path class="uuid-b12f296f-66fb-4db2-bd28-6d899b3c2f99" d="m349.28,208.24h3.1v35.4h-3.1v-35.4Z"/>
      <path class="uuid-b12f296f-66fb-4db2-bd28-6d899b3c2f99" d="m359.58,208.24h3.1v35.4h-3.1v-35.4Z"/>
      <path class="uuid-b12f296f-66fb-4db2-bd28-6d899b3c2f99" d="m384.38,208.24h3.1v35.4h-3.1v-35.4Z"/>
      <path class="uuid-b12f296f-66fb-4db2-bd28-6d899b3c2f99" d="m416.13,231.04h-19c0,6,3,10.1,7.95,10.1,3.8,0,5.9-1.55,7.75-5.4l2.75,1.35c-2.55,5-5.7,6.95-10.5,6.95-3.35,0-6.05-1.2-8.1-3.65s-3.1-5.6-3.1-9.35,1.05-6.85,3.1-9.3,4.75-3.7,8.1-3.7,5.9,1.05,7.95,3.2c2.05,2.15,3.1,4.95,3.1,8.4v1.4Zm-18.8-2.9h15.6c-.6-4.45-3.4-7.2-7.85-7.2-4.05,0-6.9,2.95-7.75,7.2Z"/>
      <path class="uuid-b12f296f-66fb-4db2-bd28-6d899b3c2f99" d="m440.93,243.64h-2.35l-.75-3.9c-1.65,2.85-4.3,4.3-7.95,4.3-4.6,0-7.85-2.45-7.85-7.65s4.35-8.25,11.6-8.25h4.2v-1.1c0-4.2-2.2-6.1-5.8-6.1-3.05,0-5.05,1.55-6,4.7l-3-.7c.65-4.2,4.4-6.9,9-6.9,2.55,0,4.7.8,6.35,2.4,1.7,1.55,2.55,3.75,2.55,6.5v16.7Zm-10.75-2.5c1.95,0,3.7-.75,5.25-2.25,1.6-1.5,2.4-3.8,2.4-6.9v-.95h-4.1c-5.6,0-8.45,1.95-8.45,5.35,0,3.05,1.85,4.75,4.9,4.75Z"/>
      <path class="uuid-b12f296f-66fb-4db2-bd28-6d899b3c2f99" d="m461.98,221.84c-1.1-.6-2.3-.9-3.55-.9-4.05,0-6.95,4.7-6.95,12.95v9.75h-3.1v-25.2h3.1v4.5c1.55-3.25,4.05-4.9,7.4-4.9,1.15,0,2.4.3,3.8.85l-.7,2.95Z"/>
      <path class="uuid-b12f296f-66fb-4db2-bd28-6d899b3c2f99" d="m486.73,243.64h-3.1v-16.9c0-3.85-1.7-5.8-5.15-5.8-2.35,0-4.3,1.05-5.85,3.2-1.55,2.15-2.3,4.95-2.3,8.45v11.05h-3.1v-25.2h3.1v5.25c1.75-3.4,5.05-5.65,8.65-5.65,4.8,0,7.75,3.05,7.75,8.3v17.3Z"/>
      <path class="uuid-b12f296f-66fb-4db2-bd28-6d899b3c2f99" d="m525.58,243.64h-2.35l-.75-3.9c-1.65,2.85-4.3,4.3-7.95,4.3-4.6,0-7.85-2.45-7.85-7.65s4.35-8.25,11.6-8.25h4.2v-1.1c0-4.2-2.2-6.1-5.8-6.1-3.05,0-5.05,1.55-6,4.7l-3-.7c.65-4.2,4.4-6.9,9-6.9,2.55,0,4.7.8,6.35,2.4,1.7,1.55,2.55,3.75,2.55,6.5v16.7Zm-10.75-2.5c1.95,0,3.7-.75,5.25-2.25,1.6-1.5,2.4-3.8,2.4-6.9v-.95h-4.1c-5.6,0-8.45,1.95-8.45,5.35,0,3.05,1.85,4.75,4.9,4.75Z"/>
      <path class="uuid-b12f296f-66fb-4db2-bd28-6d899b3c2f99" d="m532.78,208.24h3.2v13.75c1.8-2.35,5.1-3.95,7.85-3.95,3.55,0,6.3,1.25,8.25,3.7,2,2.45,3,5.55,3,9.3s-1,6.9-3,9.35c-1.95,2.45-4.7,3.65-8.25,3.65-3.2,0-6.5-1.7-7.85-3.7v3.3h-3.2v-35.4Zm16.9,15.55c-1.45-1.9-3.45-2.85-6-2.85s-4.55.95-6,2.85c-1.4,1.9-2.1,4.3-2.1,7.25,0,5.95,2.9,10.1,8.1,10.1s8.15-4.15,8.15-10.1c0-2.95-.7-5.35-2.15-7.25Z"/>
      <path class="uuid-b12f296f-66fb-4db2-bd28-6d899b3c2f99" d="m561.18,231.04c0-3.45,1.1-6.5,3.25-9.1,2.15-2.6,5-3.9,8.55-3.9s6.4,1.3,8.55,3.9c2.15,2.6,3.25,5.65,3.25,9.1s-1.1,6.5-3.25,9.1c-2.15,2.6-5,3.9-8.55,3.9s-6.4-1.3-8.55-3.9c-2.15-2.6-3.25-5.65-3.25-9.1Zm3.25,0c0,2.75.75,5.1,2.25,7.1,1.55,2,3.65,3,6.3,3s4.75-1,6.25-3c1.55-2,2.3-4.35,2.3-7.1s-.75-5.1-2.3-7.1c-1.5-2-3.6-3-6.25-3s-4.75,1-6.3,3c-1.5,2-2.25,4.35-2.25,7.1Z"/>
      <path class="uuid-b12f296f-66fb-4db2-bd28-6d899b3c2f99" d="m591.28,218.44h3.1v16.9c0,3.85,1.7,5.8,5.15,5.8,2.35,0,4.25-1.05,5.8-3.2,1.55-2.15,2.35-4.95,2.35-8.45v-11.05h3.1v25.2h-3.1v-5.25c-1.75,3.4-5.05,5.65-8.65,5.65-4.8,0-7.75-3.05-7.75-8.3v-17.3Z"/>
      <path class="uuid-b12f296f-66fb-4db2-bd28-6d899b3c2f99" d="m616.62,221.34v-2.9h4.45v-8.15l3.2-2.05v10.2h6.7v2.9h-6.7v15.65c0,2.75,1.15,4.15,3.5,4.15,1.25,0,2.3-.25,3.15-.8l.85,2.8c-1.1.6-2.55.9-4.4.9-3.85,0-6.3-2.5-6.3-7.55v-15.15h-4.45Z"/>
      <path class="uuid-b12f296f-66fb-4db2-bd28-6d899b3c2f99" d="m673.88,243.64h-4.05l-15.05-18.55v18.55h-3.3v-35h3.3v14.95l13.65-14.95h4.2l-14.35,15.7,15.6,19.3Z"/>
      <path class="uuid-b12f296f-66fb-4db2-bd28-6d899b3c2f99" d="m692.87,215.34c-1.4-2.65-3.35-4-5.8-4-3.05,0-4.85,2.45-4.85,5.1,0,3.15,2.4,5.15,5.4,6.55,1.5.65,3,1.4,4.45,2.15,3,1.45,5.4,4.4,5.4,8.65,0,3.1-.95,5.6-2.85,7.45-1.85,1.85-4.25,2.8-7.15,2.8-5.65,0-9.5-3.8-10.7-9.45l2.85-1.7c1.4,5,3.45,8.05,7.85,8.05,3.95,0,6.55-2.5,6.55-7.05,0-3.2-2.35-5.35-5.35-6.75-4.25-1.95-9.85-4.25-9.75-10.3,0-2.55.8-4.6,2.35-6.2,1.6-1.6,3.55-2.4,5.8-2.4,1.6,0,2.95.25,4.1.8,2.35,1.05,3.05,2.2,4.4,4.6l-2.7,1.7Z"/>
      <path class="uuid-b12f296f-66fb-4db2-bd28-6d899b3c2f99" d="m730.98,234.04c-1.8,6.2-6.6,10-13.2,10-4.25,0-7.9-1.55-10.95-4.65-3-3.1-4.5-7.5-4.5-13.25s1.85-10.7,4.8-13.5c2.95-2.85,6.65-4.4,10.65-4.4,6.6,0,11.4,3.8,13.2,10l-3.25.95c-1.35-5-4.75-7.85-9.95-7.85-3.6,0-6.5,1.3-8.7,3.9-2.2,2.6-3.3,6.25-3.3,10.9s1.1,8.3,3.3,10.9c2.2,2.6,5.1,3.9,8.7,3.9,5.2,0,8.6-2.85,9.95-7.85l3.25.95Z"/>
      <path class="uuid-b12f296f-66fb-4db2-bd28-6d899b3c2f99" d="m735.92,217.44l3.05-9.2h5.15l-5.75,9.2h-2.45Z"/>
      <path class="uuid-b12f296f-66fb-4db2-bd28-6d899b3c2f99" d="m759.12,221.94l-2.2,1.9c-1.45-1.95-3.1-2.9-4.95-2.9-2.2,0-3.7,1.55-3.7,3.8,0,1.85,1.85,3.2,4.2,4.15,3.4,1.35,7.75,3,7.75,7.25,0,4.85-3,7.9-7.8,7.9s-7.95-3.1-9.1-6.9l2.75-1.45c1.25,3.45,2.95,5.45,6.35,5.45,2.95,0,4.55-1.7,4.55-4.5,0-2.05-1.85-3.55-4.2-4.4-3.4-1.35-7.7-2.75-7.7-7.45,0-4,3-6.75,7.05-6.75,2.85,0,5.15,1.3,7,3.9Z"/>
      <path class="uuid-b12f296f-66fb-4db2-bd28-6d899b3c2f99" d="m797.47,243.64h-2.35l-.75-3.9c-1.65,2.85-4.3,4.3-7.95,4.3-4.6,0-7.85-2.45-7.85-7.65s4.35-8.25,11.6-8.25h4.2v-1.1c0-4.2-2.2-6.1-5.8-6.1-3.05,0-5.05,1.55-6,4.7l-3-.7c.65-4.2,4.4-6.9,9-6.9,2.55,0,4.7.8,6.35,2.4,1.7,1.55,2.55,3.75,2.55,6.5v16.7Zm-10.75-2.5c1.95,0,3.7-.75,5.25-2.25,1.6-1.5,2.4-3.8,2.4-6.9v-.95h-4.1c-5.6,0-8.45,1.95-8.45,5.35,0,3.05,1.85,4.75,4.9,4.75Z"/>
      <path class="uuid-b12f296f-66fb-4db2-bd28-6d899b3c2f99" d="m802.42,221.34v-2.9h4v-1.6c0-5.75,2.6-8.6,7.8-8.6,1.2,0,2.2.2,3,.65l-.65,2.85c-.85-.4-1.75-.6-2.6-.6-2.95,0-4.45,1.75-4.45,5.2v2.1h6.1v2.9h-6.1v22.3h-3.1v-22.3h-4Z"/>
      <path class="uuid-b12f296f-66fb-4db2-bd28-6d899b3c2f99" d="m820.37,221.34v-2.9h4v-.8c0-2.9.95-5.2,2.8-6.85,1.9-1.7,4.25-2.55,7-2.55,2.15,0,3.95.5,5.5,1.45l-.65,2.85c-1.65-.95-3.35-1.4-5.1-1.4-3.85,0-6.45,2.45-6.45,6v1.3h13.2v25.2h-3.1v-22.3h-10.1v22.3h-3.1v-22.3h-4Z"/>
      <path class="uuid-b12f296f-66fb-4db2-bd28-6d899b3c2f99" d="m863.17,221.84c-1.1-.6-2.3-.9-3.55-.9-4.05,0-6.95,4.7-6.95,12.95v9.75h-3.1v-25.2h3.1v4.5c1.55-3.25,4.05-4.9,7.4-4.9,1.15,0,2.4.3,3.8.85l-.7,2.95Z"/>
      <path class="uuid-b12f296f-66fb-4db2-bd28-6d899b3c2f99" d="m902.18,243.64h-3.1v-16.9c0-3.95-1.15-5.8-4.5-5.8-2.1,0-3.9,1.05-5.35,3.2-1.45,2.15-2.15,4.95-2.15,8.45v11.05h-3.1v-16.9c0-3.95-1.15-5.8-4.5-5.8-2.1,0-3.9,1.05-5.35,3.2-1.45,2.15-2.15,4.95-2.15,8.45v11.05h-3.1v-25.2h3.1v5.25c1.6-3.45,4.45-5.65,8-5.65,3.8,0,6.1,1.85,6.85,5.6,1.75-3.25,4.9-5.6,8.25-5.6,4.85,0,7.1,2.7,7.1,8.3v17.3Z"/>
      <path class="uuid-b12f296f-66fb-4db2-bd28-6d899b3c2f99" d="m928.02,243.64h-2.35l-.75-3.9c-1.65,2.85-4.3,4.3-7.95,4.3-4.6,0-7.85-2.45-7.85-7.65s4.35-8.25,11.6-8.25h4.2v-1.1c0-4.2-2.2-6.1-5.8-6.1-3.05,0-5.05,1.55-6,4.7l-3-.7c.65-4.2,4.4-6.9,9-6.9,2.55,0,4.7.8,6.35,2.4,1.7,1.55,2.55,3.75,2.55,6.5v16.7Zm-10.75-2.5c1.95,0,3.7-.75,5.25-2.25,1.6-1.5,2.4-3.8,2.4-6.9v-.95h-4.1c-5.6,0-8.45,1.95-8.45,5.35,0,3.05,1.85,4.75,4.9,4.75Z"/>
      <path class="uuid-b12f296f-66fb-4db2-bd28-6d899b3c2f99" d="m932.62,221.34v-2.9h4.45v-8.15l3.2-2.05v10.2h6.7v2.9h-6.7v15.65c0,2.75,1.15,4.15,3.5,4.15,1.25,0,2.3-.25,3.15-.8l.85,2.8c-1.1.6-2.55.9-4.4.9-3.85,0-6.3-2.5-6.3-7.55v-15.15h-4.45Z"/>
      <path class="uuid-b12f296f-66fb-4db2-bd28-6d899b3c2f99" d="m953.02,209.39c1-1,2.7-1,3.65,0,1,.95,1,2.65,0,3.65s-2.65.95-3.65,0c-.95-1-.95-2.7,0-3.65Zm.3,9.05h3.1v25.2h-3.1v-25.2Z"/>
      <path class="uuid-b12f296f-66fb-4db2-bd28-6d899b3c2f99" d="m963.57,231.04c0-3.45,1.1-6.5,3.25-9.1,2.15-2.6,5-3.9,8.55-3.9s6.4,1.3,8.55,3.9c2.15,2.6,3.25,5.65,3.25,9.1s-1.1,6.5-3.25,9.1c-2.15,2.6-5,3.9-8.55,3.9s-6.4-1.3-8.55-3.9c-2.15-2.6-3.25-5.65-3.25-9.1Zm3.25,0c0,2.75.75,5.1,2.25,7.1,1.55,2,3.65,3,6.3,3s4.75-1,6.25-3c1.55-2,2.3-4.35,2.3-7.1s-.75-5.1-2.3-7.1c-1.5-2-3.6-3-6.25-3s-4.75,1-6.3,3c-1.5,2-2.25,4.35-2.25,7.1Z"/>
      <path class="uuid-b12f296f-66fb-4db2-bd28-6d899b3c2f99" d="m1013.88,243.64h-3.1v-16.9c0-3.85-1.7-5.8-5.15-5.8-2.35,0-4.3,1.05-5.85,3.2-1.55,2.15-2.3,4.95-2.3,8.45v11.05h-3.1v-25.2h3.1v5.25c1.75-3.4,5.05-5.65,8.65-5.65,4.8,0,7.75,3.05,7.75,8.3v17.3Z"/>
      <path class="uuid-b12f296f-66fb-4db2-bd28-6d899b3c2f99" d="m1035.17,221.94l-2.2,1.9c-1.45-1.95-3.1-2.9-4.95-2.9-2.2,0-3.7,1.55-3.7,3.8,0,1.85,1.85,3.2,4.2,4.15,3.4,1.35,7.75,3,7.75,7.25,0,4.85-3,7.9-7.8,7.9s-7.95-3.1-9.1-6.9l2.75-1.45c1.25,3.45,2.95,5.45,6.35,5.45,2.95,0,4.55-1.7,4.55-4.5,0-2.05-1.85-3.55-4.2-4.4-3.4-1.35-7.7-2.75-7.7-7.45,0-4,3-6.75,7.05-6.75,2.85,0,5.15,1.3,7,3.9Z"/>
      <path class="uuid-b12f296f-66fb-4db2-bd28-6d899b3c2f99" d="m1054.57,231.04c0-3.45,1.1-6.5,3.25-9.1,2.15-2.6,5-3.9,8.55-3.9s6.4,1.3,8.55,3.9c2.15,2.6,3.25,5.65,3.25,9.1s-1.1,6.5-3.25,9.1c-2.15,2.6-5,3.9-8.55,3.9s-6.4-1.3-8.55-3.9c-2.15-2.6-3.25-5.65-3.25-9.1Zm3.25,0c0,2.75.75,5.1,2.25,7.1,1.55,2,3.65,3,6.3,3s4.75-1,6.25-3c1.55-2,2.3-4.35,2.3-7.1s-.75-5.1-2.3-7.1c-1.5-2-3.6-3-6.25-3s-4.75,1-6.3,3c-1.5,2-2.25,4.35-2.25,7.1Z"/>
      <path class="uuid-b12f296f-66fb-4db2-bd28-6d899b3c2f99" d="m1104.87,243.64h-3.1v-16.9c0-3.85-1.7-5.8-5.15-5.8-2.35,0-4.3,1.05-5.85,3.2-1.55,2.15-2.3,4.95-2.3,8.45v11.05h-3.1v-25.2h3.1v5.25c1.75-3.4,5.05-5.65,8.65-5.65,4.8,0,7.75,3.05,7.75,8.3v17.3Z"/>
      <path class="uuid-b12f296f-66fb-4db2-bd28-6d899b3c2f99" d="m1124.77,231.04c0-3.45,1.1-6.5,3.25-9.1,2.15-2.6,5-3.9,8.55-3.9s6.4,1.3,8.55,3.9c2.15,2.6,3.25,5.65,3.25,9.1s-1.1,6.5-3.25,9.1c-2.15,2.6-5,3.9-8.55,3.9s-6.4-1.3-8.55-3.9c-2.15-2.6-3.25-5.65-3.25-9.1Zm3.25,0c0,2.75.75,5.1,2.25,7.1,1.55,2,3.65,3,6.3,3s4.75-1,6.25-3c1.55-2,2.3-4.35,2.3-7.1s-.75-5.1-2.3-7.1c-1.5-2-3.6-3-6.25-3s-4.75,1-6.3,3c-1.5,2-2.25,4.35-2.25,7.1Z"/>
      <path class="uuid-b12f296f-66fb-4db2-bd28-6d899b3c2f99" d="m1152.42,221.34v-2.9h4v-1.6c0-5.75,2.6-8.6,7.8-8.6,1.2,0,2.2.2,3,.65l-.65,2.85c-.85-.4-1.75-.6-2.6-.6-2.95,0-4.45,1.75-4.45,5.2v2.1h6.1v2.9h-6.1v22.3h-3.1v-22.3h-4Z"/>
      <path class="uuid-b12f296f-66fb-4db2-bd28-6d899b3c2f99" d="m1170.02,221.34v-2.9h4v-1.6c0-5.75,2.6-8.6,7.8-8.6,1.2,0,2.2.2,3,.65l-.65,2.85c-.85-.4-1.75-.6-2.6-.6-2.95,0-4.45,1.75-4.45,5.2v2.1h6.1v2.9h-6.1v22.3h-3.1v-22.3h-4Z"/>
      <path class="uuid-b12f296f-66fb-4db2-bd28-6d899b3c2f99" d="m1209.12,231.04h-19c0,6,3,10.1,7.95,10.1,3.8,0,5.9-1.55,7.75-5.4l2.75,1.35c-2.55,5-5.7,6.95-10.5,6.95-3.35,0-6.05-1.2-8.1-3.65s-3.1-5.6-3.1-9.35,1.05-6.85,3.1-9.3,4.75-3.7,8.1-3.7,5.9,1.05,7.95,3.2c2.05,2.15,3.1,4.95,3.1,8.4v1.4Zm-18.8-2.9h15.6c-.6-4.45-3.4-7.2-7.85-7.2-4.05,0-6.9,2.95-7.75,7.2Z"/>
      <path class="uuid-b12f296f-66fb-4db2-bd28-6d899b3c2f99" d="m1229.67,221.84c-1.1-.6-2.3-.9-3.55-.9-4.05,0-6.95,4.7-6.95,12.95v9.75h-3.1v-25.2h3.1v4.5c1.55-3.25,4.05-4.9,7.4-4.9,1.15,0,2.4.3,3.8.85l-.7,2.95Z"/>
      <path class="uuid-b12f296f-66fb-4db2-bd28-6d899b3c2f99" d="m1234.92,209.39c1-1,2.7-1,3.65,0,1,.95,1,2.65,0,3.65s-2.65.95-3.65,0c-.95-1-.95-2.7,0-3.65Zm.3,9.05h3.1v25.2h-3.1v-25.2Z"/>
      <path class="uuid-b12f296f-66fb-4db2-bd28-6d899b3c2f99" d="m1266.07,243.64h-3.1v-16.9c0-3.85-1.7-5.8-5.15-5.8-2.35,0-4.3,1.05-5.85,3.2-1.55,2.15-2.3,4.95-2.3,8.45v11.05h-3.1v-25.2h3.1v5.25c1.75-3.4,5.05-5.65,8.65-5.65,4.8,0,7.75,3.05,7.75,8.3v17.3Z"/>
      <path class="uuid-b12f296f-66fb-4db2-bd28-6d899b3c2f99" d="m1276.87,220.39c1.65-1.55,3.65-2.35,6.1-2.35,1.55,0,3,.4,4.35,1.15l4.5-2.55,1.45,2.65-3.5,1.95c1.15,1.5,1.75,3.25,1.75,5.25,0,2.55-.8,4.6-2.45,6.15-1.65,1.55-3.65,2.3-6.1,2.3-1.8,0-3.35-.4-4.7-1.2-1.35.6-2.05,1.55-2.05,2.8,0,1.6,1.05,2.4,3.1,2.4h6.5c4.6,0,7.55,2.15,7.55,6.6,0,5.95-4.1,8.7-10.35,8.7s-10.4-3.1-10.4-8.3c0-2.25.85-4,2.6-5.3-1.35-.8-2-2.15-2-4.1s1.25-3.65,3.1-4.5c-1.25-1.55-1.9-3.4-1.9-5.55,0-2.5.8-4.55,2.45-6.1Zm3.45,21.25c-.9,0-1.7-.05-2.45-.15-1.5.95-2.25,2.5-2.25,4.55,0,3.35,2.55,5.4,7.4,5.4s7.35-2.25,7.35-5.5c0-2.85-1.65-4.3-4.9-4.3h-5.15Zm-2.8-15.15c0,1.75.5,3.15,1.55,4.2s2.35,1.55,3.9,1.55,2.8-.5,3.85-1.55c1.05-1.05,1.6-2.45,1.6-4.2s-.55-3.15-1.6-4.2c-1.05-1.05-2.3-1.55-3.85-1.55s-2.85.5-3.9,1.55c-1.05,1.05-1.55,2.45-1.55,4.2Z"/>
      <path class="uuid-b12f296f-66fb-4db2-bd28-6d899b3c2f99" d="m1315.02,253.84h-3.2v-35.4h3.2v3.3c1.35-2,4.65-3.7,7.85-3.7,3.55,0,6.3,1.25,8.25,3.7,2,2.45,3,5.55,3,9.3s-1,6.9-3,9.35c-1.95,2.45-4.7,3.65-8.25,3.65-2.75,0-6.05-1.6-7.85-3.95v13.75Zm7.7-32.9c-5.2,0-8.1,4.15-8.1,10.1,0,2.95.7,5.35,2.1,7.25,1.45,1.9,3.45,2.85,6,2.85s4.55-.95,6-2.85c1.45-1.9,2.15-4.3,2.15-7.25,0-5.95-2.95-10.1-8.15-10.1Z"/>
      <path class="uuid-b12f296f-66fb-4db2-bd28-6d899b3c2f99" d="m1358.47,243.64h-2.35l-.75-3.9c-1.65,2.85-4.3,4.3-7.95,4.3-4.6,0-7.85-2.45-7.85-7.65s4.35-8.25,11.6-8.25h4.2v-1.1c0-4.2-2.2-6.1-5.8-6.1-3.05,0-5.05,1.55-6,4.7l-3-.7c.65-4.2,4.4-6.9,9-6.9,2.55,0,4.7.8,6.35,2.4,1.7,1.55,2.55,3.75,2.55,6.5v16.7Zm-10.75-2.5c1.95,0,3.7-.75,5.25-2.25,1.6-1.5,2.4-3.8,2.4-6.9v-.95h-4.1c-5.6,0-8.45,1.95-8.45,5.35,0,3.05,1.85,4.75,4.9,4.75Z"/>
      <path class="uuid-b12f296f-66fb-4db2-bd28-6d899b3c2f99" d="m1386.32,237.09c-1.75,4.65-5.15,6.95-10.15,6.95-3.5,0-6.25-1.25-8.2-3.8-1.95-2.55-2.95-5.65-2.95-9.2s1-6.6,2.95-9.15c1.95-2.55,4.7-3.85,8.2-3.85,5,0,8.4,2.3,10.15,6.95l-2.8,1.1c-1.4-3.45-3.85-5.15-7.35-5.15-2.55,0-4.55.95-5.9,2.9-1.35,1.9-2,4.3-2,7.2s.65,5.3,2,7.25c1.35,1.9,3.35,2.85,5.9,2.85,3.5,0,5.95-1.7,7.35-5.15l2.8,1.1Z"/>
      <path class="uuid-b12f296f-66fb-4db2-bd28-6d899b3c2f99" d="m1392.97,208.24h3.1v21.35l10.55-11.15h3.9l-10.9,11.55,11.8,13.65h-3.95l-11.4-13.25v13.25h-3.1v-35.4Z"/>
      <path class="uuid-b12f296f-66fb-4db2-bd28-6d899b3c2f99" d="m1433.37,243.64h-2.35l-.75-3.9c-1.65,2.85-4.3,4.3-7.95,4.3-4.6,0-7.85-2.45-7.85-7.65s4.35-8.25,11.6-8.25h4.2v-1.1c0-4.2-2.2-6.1-5.8-6.1-3.05,0-5.05,1.55-6,4.7l-3-.7c.65-4.2,4.4-6.9,9-6.9,2.55,0,4.7.8,6.35,2.4,1.7,1.55,2.55,3.75,2.55,6.5v16.7Zm-10.75-2.5c1.95,0,3.7-.75,5.25-2.25,1.6-1.5,2.4-3.8,2.4-6.9v-.95h-4.1c-5.6,0-8.45,1.95-8.45,5.35,0,3.05,1.85,4.75,4.9,4.75Z"/>
      <path class="uuid-b12f296f-66fb-4db2-bd28-6d899b3c2f99" d="m1443.87,220.39c1.65-1.55,3.65-2.35,6.1-2.35,1.55,0,3,.4,4.35,1.15l4.5-2.55,1.45,2.65-3.5,1.95c1.15,1.5,1.75,3.25,1.75,5.25,0,2.55-.8,4.6-2.45,6.15-1.65,1.55-3.65,2.3-6.1,2.3-1.8,0-3.35-.4-4.7-1.2-1.35.6-2.05,1.55-2.05,2.8,0,1.6,1.05,2.4,3.1,2.4h6.5c4.6,0,7.55,2.15,7.55,6.6,0,5.95-4.1,8.7-10.35,8.7s-10.4-3.1-10.4-8.3c0-2.25.85-4,2.6-5.3-1.35-.8-2-2.15-2-4.1s1.25-3.65,3.1-4.5c-1.25-1.55-1.9-3.4-1.9-5.55,0-2.5.8-4.55,2.45-6.1Zm3.45,21.25c-.9,0-1.7-.05-2.45-.15-1.5.95-2.25,2.5-2.25,4.55,0,3.35,2.55,5.4,7.4,5.4s7.35-2.25,7.35-5.5c0-2.85-1.65-4.3-4.9-4.3h-5.15Zm-2.8-15.15c0,1.75.5,3.15,1.55,4.2s2.35,1.55,3.9,1.55,2.8-.5,3.85-1.55c1.05-1.05,1.6-2.45,1.6-4.2s-.55-3.15-1.6-4.2c-1.05-1.05-2.3-1.55-3.85-1.55s-2.85.5-3.9,1.55c-1.05,1.05-1.55,2.45-1.55,4.2Z"/>
      <path class="uuid-b12f296f-66fb-4db2-bd28-6d899b3c2f99" d="m1466.12,209.39c1-1,2.7-1,3.65,0,1,.95,1,2.65,0,3.65s-2.65.95-3.65,0c-.95-1-.95-2.7,0-3.65Zm.3,9.05h3.1v25.2h-3.1v-25.2Z"/>
      <path class="uuid-b12f296f-66fb-4db2-bd28-6d899b3c2f99" d="m1497.27,243.64h-3.1v-16.9c0-3.85-1.7-5.8-5.15-5.8-2.35,0-4.3,1.05-5.85,3.2-1.55,2.15-2.3,4.95-2.3,8.45v11.05h-3.1v-25.2h3.1v5.25c1.75-3.4,5.05-5.65,8.65-5.65,4.8,0,7.75,3.05,7.75,8.3v17.3Z"/>
      <path class="uuid-b12f296f-66fb-4db2-bd28-6d899b3c2f99" d="m1508.07,220.39c1.65-1.55,3.65-2.35,6.1-2.35,1.55,0,3,.4,4.35,1.15l4.5-2.55,1.45,2.65-3.5,1.95c1.15,1.5,1.75,3.25,1.75,5.25,0,2.55-.8,4.6-2.45,6.15-1.65,1.55-3.65,2.3-6.1,2.3-1.8,0-3.35-.4-4.7-1.2-1.35.6-2.05,1.55-2.05,2.8,0,1.6,1.05,2.4,3.1,2.4h6.5c4.6,0,7.55,2.15,7.55,6.6,0,5.95-4.1,8.7-10.35,8.7s-10.4-3.1-10.4-8.3c0-2.25.85-4,2.6-5.3-1.35-.8-2-2.15-2-4.1s1.25-3.65,3.1-4.5c-1.25-1.55-1.9-3.4-1.9-5.55,0-2.5.8-4.55,2.45-6.1Zm3.45,21.25c-.9,0-1.7-.05-2.45-.15-1.5.95-2.25,2.5-2.25,4.55,0,3.35,2.55,5.4,7.4,5.4s7.35-2.25,7.35-5.5c0-2.85-1.65-4.3-4.9-4.3h-5.15Zm-2.8-15.15c0,1.75.5,3.15,1.55,4.2s2.35,1.55,3.9,1.55,2.8-.5,3.85-1.55c1.05-1.05,1.6-2.45,1.6-4.2s-.55-3.15-1.6-4.2c-1.05-1.05-2.3-1.55-3.85-1.55s-2.85.5-3.9,1.55c-1.05,1.05-1.55,2.45-1.55,4.2Z"/>
      <path class="uuid-b12f296f-66fb-4db2-bd28-6d899b3c2f99" d="m1532.07,238.64c1.45,0,2.55,1.1,2.55,2.55s-1.1,2.55-2.55,2.55-2.55-1-2.55-2.55c0-1.45,1.1-2.55,2.55-2.55Z"/>
      <path class="uuid-b12f296f-66fb-4db2-bd28-6d899b3c2f99" d="m1569.97,215.34c-1.4-2.65-3.35-4-5.8-4-3.05,0-4.85,2.45-4.85,5.1,0,3.15,2.4,5.15,5.4,6.55,1.5.65,3,1.4,4.45,2.15,3,1.45,5.4,4.4,5.4,8.65,0,3.1-.95,5.6-2.85,7.45-1.85,1.85-4.25,2.8-7.15,2.8-5.65,0-9.5-3.8-10.7-9.45l2.85-1.7c1.4,5,3.45,8.05,7.85,8.05,3.95,0,6.55-2.5,6.55-7.05,0-3.2-2.35-5.35-5.35-6.75-4.25-1.95-9.85-4.25-9.75-10.3,0-2.55.8-4.6,2.35-6.2,1.6-1.6,3.55-2.4,5.8-2.4,1.6,0,2.95.25,4.1.8,2.35,1.05,3.05,2.2,4.4,4.6l-2.7,1.7Z"/>
      <path class="uuid-b12f296f-66fb-4db2-bd28-6d899b3c2f99" d="m1578.22,221.34v-2.9h4.45v-8.15l3.2-2.05v10.2h6.7v2.9h-6.7v15.65c0,2.75,1.15,4.15,3.5,4.15,1.25,0,2.3-.25,3.15-.8l.85,2.8c-1.1.6-2.55.9-4.4.9-3.85,0-6.3-2.5-6.3-7.55v-15.15h-4.45Z"/>
      <path class="uuid-b12f296f-66fb-4db2-bd28-6d899b3c2f99" d="m1616.77,243.64h-2.35l-.75-3.9c-1.65,2.85-4.3,4.3-7.95,4.3-4.6,0-7.85-2.45-7.85-7.65s4.35-8.25,11.6-8.25h4.2v-1.1c0-4.2-2.2-6.1-5.8-6.1-3.05,0-5.05,1.55-6,4.7l-3-.7c.65-4.2,4.4-6.9,9-6.9,2.55,0,4.7.8,6.35,2.4,1.7,1.55,2.55,3.75,2.55,6.5v16.7Zm-10.75-2.5c1.95,0,3.7-.75,5.25-2.25,1.6-1.5,2.4-3.8,2.4-6.9v-.95h-4.1c-5.6,0-8.45,1.95-8.45,5.35,0,3.05,1.85,4.75,4.9,4.75Z"/>
      <path class="uuid-b12f296f-66fb-4db2-bd28-6d899b3c2f99" d="m1621.72,221.34v-2.9h4v-1.6c0-5.75,2.6-8.6,7.8-8.6,1.2,0,2.2.2,3,.65l-.65,2.85c-.85-.4-1.75-.6-2.6-.6-2.95,0-4.45,1.75-4.45,5.2v2.1h6.1v2.9h-6.1v22.3h-3.1v-22.3h-4Z"/>
      <path class="uuid-b12f296f-66fb-4db2-bd28-6d899b3c2f99" d="m1639.32,221.34v-2.9h4v-1.6c0-5.75,2.6-8.6,7.8-8.6,1.2,0,2.2.2,3,.65l-.65,2.85c-.85-.4-1.75-.6-2.6-.6-2.95,0-4.45,1.75-4.45,5.2v2.1h6.1v2.9h-6.1v22.3h-3.1v-22.3h-4Z"/>
    </g>
    <g class="uuid-66805d02-3584-4ce9-a4e0-94a8ae16c987">
      <path class="uuid-b12f296f-66fb-4db2-bd28-6d899b3c2f99" d="m34.23,268.44h3.25l-7.55,25.2h-3.2l-5.25-20.6-5.25,20.6h-3.2l-7.55-25.2h3.25l5.9,20.8,5.3-20.8h3.1l5.3,20.8,5.9-20.8Z"/>
      <path class="uuid-b12f296f-66fb-4db2-bd28-6d899b3c2f99" d="m42.98,259.39c1-1,2.7-1,3.65,0,1,.95,1,2.65,0,3.65s-2.65.95-3.65,0c-.95-1-.95-2.7,0-3.65Zm.3,9.05h3.1v25.2h-3.1v-25.2Z"/>
      <path class="uuid-b12f296f-66fb-4db2-bd28-6d899b3c2f99" d="m54.23,258.24h3.1v35.4h-3.1v-35.4Z"/>
      <path class="uuid-b12f296f-66fb-4db2-bd28-6d899b3c2f99" d="m64.53,258.24h3.1v35.4h-3.1v-35.4Z"/>
      <path class="uuid-b12f296f-66fb-4db2-bd28-6d899b3c2f99" d="m85.98,271.34v-2.9h4.45v-8.15l3.2-2.05v10.2h6.7v2.9h-6.7v15.65c0,2.75,1.15,4.15,3.5,4.15,1.25,0,2.3-.25,3.15-.8l.85,2.8c-1.1.6-2.55.9-4.4.9-3.85,0-6.3-2.5-6.3-7.55v-15.15h-4.45Z"/>
      <path class="uuid-b12f296f-66fb-4db2-bd28-6d899b3c2f99" d="m127.38,281.04h-19c0,6,3,10.1,7.95,10.1,3.8,0,5.9-1.55,7.75-5.4l2.75,1.35c-2.55,5-5.7,6.95-10.5,6.95-3.35,0-6.05-1.2-8.1-3.65s-3.1-5.6-3.1-9.35,1.05-6.85,3.1-9.3,4.75-3.7,8.1-3.7,5.9,1.05,7.95,3.2c2.05,2.15,3.1,4.95,3.1,8.4v1.4Zm-18.8-2.9h15.6c-.6-4.45-3.4-7.2-7.85-7.2-4.05,0-6.9,2.95-7.75,7.2Z"/>
      <path class="uuid-b12f296f-66fb-4db2-bd28-6d899b3c2f99" d="m134.78,258.24h3.1v35.4h-3.1v-35.4Z"/>
      <path class="uuid-b12f296f-66fb-4db2-bd28-6d899b3c2f99" d="m145.08,258.24h3.1v35.4h-3.1v-35.4Z"/>
      <path class="uuid-b12f296f-66fb-4db2-bd28-6d899b3c2f99" d="m170.38,259.39c1-1,2.7-1,3.65,0,1,.95,1,2.65,0,3.65s-2.65.95-3.65,0c-.95-1-.95-2.7,0-3.65Zm.3,9.05h3.1v25.2h-3.1v-25.2Z"/>
      <path class="uuid-b12f296f-66fb-4db2-bd28-6d899b3c2f99" d="m201.53,293.64h-3.1v-16.9c0-3.85-1.7-5.8-5.15-5.8-2.35,0-4.3,1.05-5.85,3.2-1.55,2.15-2.3,4.95-2.3,8.45v11.05h-3.1v-25.2h3.1v5.25c1.75-3.4,5.05-5.65,8.65-5.65,4.8,0,7.75,3.05,7.75,8.3v17.3Z"/>
      <path class="uuid-b12f296f-66fb-4db2-bd28-6d899b3c2f99" d="m227.48,258.24h3.2v35.4h-3.2v-3.3c-1.35,2-4.65,3.7-7.85,3.7-3.55,0-6.3-1.2-8.3-3.65-1.95-2.45-2.95-5.6-2.95-9.35s1-6.85,2.95-9.3c2-2.45,4.75-3.7,8.3-3.7,2.75,0,6.05,1.6,7.85,3.95v-13.75Zm-7.7,32.9c5.2,0,8.1-4.15,8.1-10.1,0-2.95-.7-5.35-2.15-7.25-1.4-1.9-3.4-2.85-5.95-2.85s-4.55.95-6,2.85c-1.45,1.9-2.15,4.3-2.15,7.25,0,5.95,2.95,10.1,8.15,10.1Z"/>
      <path class="uuid-b12f296f-66fb-4db2-bd28-6d899b3c2f99" d="m238.23,259.39c1-1,2.7-1,3.65,0,1,.95,1,2.65,0,3.65s-2.65.95-3.65,0c-.95-1-.95-2.7,0-3.65Zm.3,9.05h3.1v25.2h-3.1v-25.2Z"/>
      <path class="uuid-b12f296f-66fb-4db2-bd28-6d899b3c2f99" d="m264.18,268.44h3.25l-8.5,25.2h-3.4l-8.5-25.2h3.25l6.95,21.05,6.95-21.05Z"/>
      <path class="uuid-b12f296f-66fb-4db2-bd28-6d899b3c2f99" d="m272.68,259.39c1-1,2.7-1,3.65,0,1,.95,1,2.65,0,3.65s-2.65.95-3.65,0c-.95-1-.95-2.7,0-3.65Zm.3,9.05h3.1v25.2h-3.1v-25.2Z"/>
      <path class="uuid-b12f296f-66fb-4db2-bd28-6d899b3c2f99" d="m302.43,258.24h3.2v35.4h-3.2v-3.3c-1.35,2-4.65,3.7-7.85,3.7-3.55,0-6.3-1.2-8.3-3.65-1.95-2.45-2.95-5.6-2.95-9.35s1-6.85,2.95-9.3c2-2.45,4.75-3.7,8.3-3.7,2.75,0,6.05,1.6,7.85,3.95v-13.75Zm-7.7,32.9c5.2,0,8.1-4.15,8.1-10.1,0-2.95-.7-5.35-2.15-7.25-1.4-1.9-3.4-2.85-5.95-2.85s-4.55.95-6,2.85c-1.45,1.9-2.15,4.3-2.15,7.25,0,5.95,2.95,10.1,8.15,10.1Z"/>
      <path class="uuid-b12f296f-66fb-4db2-bd28-6d899b3c2f99" d="m313.23,268.44h3.1v16.9c0,3.85,1.7,5.8,5.15,5.8,2.35,0,4.25-1.05,5.8-3.2,1.55-2.15,2.35-4.95,2.35-8.45v-11.05h3.1v25.2h-3.1v-5.25c-1.75,3.4-5.05,5.65-8.65,5.65-4.8,0-7.75-3.05-7.75-8.3v-17.3Z"/>
      <path class="uuid-b12f296f-66fb-4db2-bd28-6d899b3c2f99" d="m358.53,293.64h-2.35l-.75-3.9c-1.65,2.85-4.3,4.3-7.95,4.3-4.6,0-7.85-2.45-7.85-7.65s4.35-8.25,11.6-8.25h4.2v-1.1c0-4.2-2.2-6.1-5.8-6.1-3.05,0-5.05,1.55-6,4.7l-3-.7c.65-4.2,4.4-6.9,9-6.9,2.55,0,4.7.8,6.35,2.4,1.7,1.55,2.55,3.75,2.55,6.5v16.7Zm-10.75-2.5c1.95,0,3.7-.75,5.25-2.25,1.6-1.5,2.4-3.8,2.4-6.9v-.95h-4.1c-5.6,0-8.45,1.95-8.45,5.35,0,3.05,1.85,4.75,4.9,4.75Z"/>
      <path class="uuid-b12f296f-66fb-4db2-bd28-6d899b3c2f99" d="m365.88,258.24h3.1v35.4h-3.1v-35.4Z"/>
      <path class="uuid-b12f296f-66fb-4db2-bd28-6d899b3c2f99" d="m390.93,271.94l-2.2,1.9c-1.45-1.95-3.1-2.9-4.95-2.9-2.2,0-3.7,1.55-3.7,3.8,0,1.85,1.85,3.2,4.2,4.15,3.4,1.35,7.75,3,7.75,7.25,0,4.85-3,7.9-7.8,7.9s-7.95-3.1-9.1-6.9l2.75-1.45c1.25,3.45,2.95,5.45,6.35,5.45,2.95,0,4.55-1.7,4.55-4.5,0-2.05-1.85-3.55-4.2-4.4-3.4-1.35-7.7-2.75-7.7-7.45,0-4,3-6.75,7.05-6.75,2.85,0,5.15,1.3,7,3.9Z"/>
      <path class="uuid-b12f296f-66fb-4db2-bd28-6d899b3c2f99" d="m404.18,271.09c1.65,1.55.4,4.35-1.8,4.35-1.55,0-2.55-1-2.55-2.55,0-2.2,2.8-3.45,4.35-1.8Zm0,18.3c1.65,1.55.4,4.35-1.8,4.35-1.55,0-2.55-1-2.55-2.55,0-2.2,2.8-3.45,4.35-1.8Z"/>
      <path class="uuid-b12f296f-66fb-4db2-bd28-6d899b3c2f99" d="m430.58,258.24l3.05,9.2h-2.45l-5.75-9.2h5.15Zm7.15,0l3.05,9.2h-2.45l-5.75-9.2h5.15Z"/>
      <path class="uuid-b12f296f-66fb-4db2-bd28-6d899b3c2f99" d="m448.38,258.64h19.75v3.1h-16.45v11.7h13.45v3.1h-13.45v14h16.95v3.1h-20.25v-35Z"/>
      <path class="uuid-b12f296f-66fb-4db2-bd28-6d899b3c2f99" d="m489.18,268.44h3.25l-8.5,25.2h-3.4l-8.5-25.2h3.25l6.95,21.05,6.95-21.05Z"/>
      <path class="uuid-b12f296f-66fb-4db2-bd28-6d899b3c2f99" d="m518.18,281.04h-19c0,6,3,10.1,7.95,10.1,3.8,0,5.9-1.55,7.75-5.4l2.75,1.35c-2.55,5-5.7,6.95-10.5,6.95-3.35,0-6.05-1.2-8.1-3.65s-3.1-5.6-3.1-9.35,1.05-6.85,3.1-9.3,4.75-3.7,8.1-3.7,5.9,1.05,7.95,3.2c2.05,2.15,3.1,4.95,3.1,8.4v1.4Zm-18.8-2.9h15.6c-.6-4.45-3.4-7.2-7.85-7.2-4.05,0-6.9,2.95-7.75,7.2Z"/>
      <path class="uuid-b12f296f-66fb-4db2-bd28-6d899b3c2f99" d="m538.73,271.84c-1.1-.6-2.3-.9-3.55-.9-4.05,0-6.95,4.7-6.95,12.95v9.75h-3.1v-25.2h3.1v4.5c1.55-3.25,4.05-4.9,7.4-4.9,1.15,0,2.4.3,3.8.85l-.7,2.95Z"/>
      <path class="uuid-b12f296f-66fb-4db2-bd28-6d899b3c2f99" d="m560.57,268.44h3.25l-12.5,35.4h-3.1l3.65-10.35-9.05-25.05h3.25l7.5,20.4,7-20.4Z"/>
      <path class="uuid-b12f296f-66fb-4db2-bd28-6d899b3c2f99" d="m604.63,293.64h-4.05l-15.05-18.55v18.55h-3.3v-35h3.3v14.95l13.65-14.95h4.2l-14.35,15.7,15.6,19.3Z"/>
      <path class="uuid-b12f296f-66fb-4db2-bd28-6d899b3c2f99" d="m629.72,281.04h-19c0,6,3,10.1,7.95,10.1,3.8,0,5.9-1.55,7.75-5.4l2.75,1.35c-2.55,5-5.7,6.95-10.5,6.95-3.35,0-6.05-1.2-8.1-3.65s-3.1-5.6-3.1-9.35,1.05-6.85,3.1-9.3,4.75-3.7,8.1-3.7,5.9,1.05,7.95,3.2c2.05,2.15,3.1,4.95,3.1,8.4v1.4Zm-18.8-2.9h15.6c-.6-4.45-3.4-7.2-7.85-7.2-4.05,0-6.9,2.95-7.75,7.2Z"/>
      <path class="uuid-b12f296f-66fb-4db2-bd28-6d899b3c2f99" d="m650.82,268.44h3.25l-12.5,35.4h-3.1l3.65-10.35-9.05-25.05h3.25l7.5,20.4,7-20.4Z"/>
      <path class="uuid-b12f296f-66fb-4db2-bd28-6d899b3c2f99" d="m672.97,271.94l-2.2,1.9c-1.45-1.95-3.1-2.9-4.95-2.9-2.2,0-3.7,1.55-3.7,3.8,0,1.85,1.85,3.2,4.2,4.15,3.4,1.35,7.75,3,7.75,7.25,0,4.85-3,7.9-7.8,7.9s-7.95-3.1-9.1-6.9l2.75-1.45c1.25,3.45,2.95,5.45,6.35,5.45,2.95,0,4.55-1.7,4.55-4.5,0-2.05-1.85-3.55-4.2-4.4-3.4-1.35-7.7-2.75-7.7-7.45,0-4,3-6.75,7.05-6.75,2.85,0,5.15,1.3,7,3.9Z"/>
      <path class="uuid-b12f296f-66fb-4db2-bd28-6d899b3c2f99" d="m707.77,265.34c-1.4-2.65-3.35-4-5.8-4-3.05,0-4.85,2.45-4.85,5.1,0,3.15,2.4,5.15,5.4,6.55,1.5.65,3,1.4,4.45,2.15,3,1.45,5.4,4.4,5.4,8.65,0,3.1-.95,5.6-2.85,7.45-1.85,1.85-4.25,2.8-7.15,2.8-5.65,0-9.5-3.8-10.7-9.45l2.85-1.7c1.4,5,3.45,8.05,7.85,8.05,3.95,0,6.55-2.5,6.55-7.05,0-3.2-2.35-5.35-5.35-6.75-4.25-1.95-9.85-4.25-9.75-10.3,0-2.55.8-4.6,2.35-6.2,1.6-1.6,3.55-2.4,5.8-2.4,1.6,0,2.95.25,4.1.8,2.35,1.05,3.05,2.2,4.4,4.6l-2.7,1.7Z"/>
      <path class="uuid-b12f296f-66fb-4db2-bd28-6d899b3c2f99" d="m717.52,281.04c0-3.45,1.1-6.5,3.25-9.1,2.15-2.6,5-3.9,8.55-3.9s6.4,1.3,8.55,3.9c2.15,2.6,3.25,5.65,3.25,9.1s-1.1,6.5-3.25,9.1c-2.15,2.6-5,3.9-8.55,3.9s-6.4-1.3-8.55-3.9c-2.15-2.6-3.25-5.65-3.25-9.1Zm3.25,0c0,2.75.75,5.1,2.25,7.1,1.55,2,3.65,3,6.3,3s4.75-1,6.25-3c1.55-2,2.3-4.35,2.3-7.1s-.75-5.1-2.3-7.1c-1.5-2-3.6-3-6.25-3s-4.75,1-6.3,3c-1.5,2-2.25,4.35-2.25,7.1Z"/>
      <path class="uuid-b12f296f-66fb-4db2-bd28-6d899b3c2f99" d="m747.62,268.44h3.1v16.9c0,3.85,1.7,5.8,5.15,5.8,2.35,0,4.25-1.05,5.8-3.2,1.55-2.15,2.35-4.95,2.35-8.45v-11.05h3.1v25.2h-3.1v-5.25c-1.75,3.4-5.05,5.65-8.65,5.65-4.8,0-7.75-3.05-7.75-8.3v-17.3Z"/>
      <path class="uuid-b12f296f-66fb-4db2-bd28-6d899b3c2f99" d="m774.62,258.24h3.1v35.4h-3.1v-35.4Z"/>
      <path class="uuid-b12f296f-66fb-4db2-bd28-6d899b3c2f99" d="m805.42,287.09c-1.75,4.65-5.15,6.95-10.15,6.95-3.5,0-6.25-1.25-8.2-3.8-1.95-2.55-2.95-5.65-2.95-9.2s1-6.6,2.95-9.15c1.95-2.55,4.7-3.85,8.2-3.85,5,0,8.4,2.3,10.15,6.95l-2.8,1.1c-1.4-3.45-3.85-5.15-7.35-5.15-2.55,0-4.55.95-5.9,2.9-1.35,1.9-2,4.3-2,7.2s.65,5.3,2,7.25c1.35,1.9,3.35,2.85,5.9,2.85,3.5,0,5.95-1.7,7.35-5.15l2.8,1.1Z"/>
      <path class="uuid-b12f296f-66fb-4db2-bd28-6d899b3c2f99" d="m829.07,293.64h-2.35l-.75-3.9c-1.65,2.85-4.3,4.3-7.95,4.3-4.6,0-7.85-2.45-7.85-7.65s4.35-8.25,11.6-8.25h4.2v-1.1c0-4.2-2.2-6.1-5.8-6.1-3.05,0-5.05,1.55-6,4.7l-3-.7c.65-4.2,4.4-6.9,9-6.9,2.55,0,4.7.8,6.35,2.4,1.7,1.55,2.55,3.75,2.55,6.5v16.7Zm-10.75-2.5c1.95,0,3.7-.75,5.25-2.25,1.6-1.5,2.4-3.8,2.4-6.9v-.95h-4.1c-5.6,0-8.45,1.95-8.45,5.35,0,3.05,1.85,4.75,4.9,4.75Z"/>
      <path class="uuid-b12f296f-66fb-4db2-bd28-6d899b3c2f99" d="m850.12,271.84c-1.1-.6-2.3-.9-3.55-.9-4.05,0-6.95,4.7-6.95,12.95v9.75h-3.1v-25.2h3.1v4.5c1.55-3.25,4.05-4.9,7.4-4.9,1.15,0,2.4.3,3.8.85l-.7,2.95Z"/>
      <path class="uuid-b12f296f-66fb-4db2-bd28-6d899b3c2f99" d="m876.18,281.04h-19c0,6,3,10.1,7.95,10.1,3.8,0,5.9-1.55,7.75-5.4l2.75,1.35c-2.55,5-5.7,6.95-10.5,6.95-3.35,0-6.05-1.2-8.1-3.65s-3.1-5.6-3.1-9.35,1.05-6.85,3.1-9.3,4.75-3.7,8.1-3.7,5.9,1.05,7.95,3.2c2.05,2.15,3.1,4.95,3.1,8.4v1.4Zm-18.8-2.9h15.6c-.6-4.45-3.4-7.2-7.85-7.2-4.05,0-6.9,2.95-7.75,7.2Z"/>
      <path class="uuid-b12f296f-66fb-4db2-bd28-6d899b3c2f99" d="m894.12,281.04c0-3.45,1.1-6.5,3.25-9.1,2.15-2.6,5-3.9,8.55-3.9s6.4,1.3,8.55,3.9c2.15,2.6,3.25,5.65,3.25,9.1s-1.1,6.5-3.25,9.1c-2.15,2.6-5,3.9-8.55,3.9s-6.4-1.3-8.55-3.9c-2.15-2.6-3.25-5.65-3.25-9.1Zm3.25,0c0,2.75.75,5.1,2.25,7.1,1.55,2,3.65,3,6.3,3s4.75-1,6.25-3c1.55-2,2.3-4.35,2.3-7.1s-.75-5.1-2.3-7.1c-1.5-2-3.6-3-6.25-3s-4.75,1-6.3,3c-1.5,2-2.25,4.35-2.25,7.1Z"/>
      <path class="uuid-b12f296f-66fb-4db2-bd28-6d899b3c2f99" d="m921.77,271.34v-2.9h4v-1.6c0-5.75,2.6-8.6,7.8-8.6,1.2,0,2.2.2,3,.65l-.65,2.85c-.85-.4-1.75-.6-2.6-.6-2.95,0-4.45,1.75-4.45,5.2v2.1h6.1v2.9h-6.1v22.3h-3.1v-22.3h-4Z"/>
      <path class="uuid-b12f296f-66fb-4db2-bd28-6d899b3c2f99" d="m939.37,271.34v-2.9h4v-1.6c0-5.75,2.6-8.6,7.8-8.6,1.2,0,2.2.2,3,.65l-.65,2.85c-.85-.4-1.75-.6-2.6-.6-2.95,0-4.45,1.75-4.45,5.2v2.1h6.1v2.9h-6.1v22.3h-3.1v-22.3h-4Z"/>
      <path class="uuid-b12f296f-66fb-4db2-bd28-6d899b3c2f99" d="m978.47,281.04h-19c0,6,3,10.1,7.95,10.1,3.8,0,5.9-1.55,7.75-5.4l2.75,1.35c-2.55,5-5.7,6.95-10.5,6.95-3.35,0-6.05-1.2-8.1-3.65s-3.1-5.6-3.1-9.35,1.05-6.85,3.1-9.3,4.75-3.7,8.1-3.7,5.9,1.05,7.95,3.2c2.05,2.15,3.1,4.95,3.1,8.4v1.4Zm-18.8-2.9h15.6c-.6-4.45-3.4-7.2-7.85-7.2-4.05,0-6.9,2.95-7.75,7.2Z"/>
      <path class="uuid-b12f296f-66fb-4db2-bd28-6d899b3c2f99" d="m999.02,271.84c-1.1-.6-2.3-.9-3.55-.9-4.05,0-6.95,4.7-6.95,12.95v9.75h-3.1v-25.2h3.1v4.5c1.55-3.25,4.05-4.9,7.4-4.9,1.15,0,2.4.3,3.8.85l-.7,2.95Z"/>
      <path class="uuid-b12f296f-66fb-4db2-bd28-6d899b3c2f99" d="m1004.27,259.39c1-1,2.7-1,3.65,0,1,.95,1,2.65,0,3.65s-2.65.95-3.65,0c-.95-1-.95-2.7,0-3.65Zm.3,9.05h3.1v25.2h-3.1v-25.2Z"/>
      <path class="uuid-b12f296f-66fb-4db2-bd28-6d899b3c2f99" d="m1035.42,293.64h-3.1v-16.9c0-3.85-1.7-5.8-5.15-5.8-2.35,0-4.3,1.05-5.85,3.2-1.55,2.15-2.3,4.95-2.3,8.45v11.05h-3.1v-25.2h3.1v5.25c1.75-3.4,5.05-5.65,8.65-5.65,4.8,0,7.75,3.05,7.75,8.3v17.3Z"/>
      <path class="uuid-b12f296f-66fb-4db2-bd28-6d899b3c2f99" d="m1046.22,270.39c1.65-1.55,3.65-2.35,6.1-2.35,1.55,0,3,.4,4.35,1.15l4.5-2.55,1.45,2.65-3.5,1.95c1.15,1.5,1.75,3.25,1.75,5.25,0,2.55-.8,4.6-2.45,6.15-1.65,1.55-3.65,2.3-6.1,2.3-1.8,0-3.35-.4-4.7-1.2-1.35.6-2.05,1.55-2.05,2.8,0,1.6,1.05,2.4,3.1,2.4h6.5c4.6,0,7.55,2.15,7.55,6.6,0,5.95-4.1,8.7-10.35,8.7s-10.4-3.1-10.4-8.3c0-2.25.85-4,2.6-5.3-1.35-.8-2-2.15-2-4.1s1.25-3.65,3.1-4.5c-1.25-1.55-1.9-3.4-1.9-5.55,0-2.5.8-4.55,2.45-6.1Zm3.45,21.25c-.9,0-1.7-.05-2.45-.15-1.5.95-2.25,2.5-2.25,4.55,0,3.35,2.55,5.4,7.4,5.4s7.35-2.25,7.35-5.5c0-2.85-1.65-4.3-4.9-4.3h-5.15Zm-2.8-15.15c0,1.75.5,3.15,1.55,4.2s2.35,1.55,3.9,1.55,2.8-.5,3.85-1.55c1.05-1.05,1.6-2.45,1.6-4.2s-.55-3.15-1.6-4.2c-1.05-1.05-2.3-1.55-3.85-1.55s-2.85.5-3.9,1.55c-1.05,1.05-1.55,2.45-1.55,4.2Z"/>
      <path class="uuid-b12f296f-66fb-4db2-bd28-6d899b3c2f99" d="m1081.57,259.39c1-1,2.7-1,3.65,0,1,.95,1,2.65,0,3.65s-2.65.95-3.65,0c-.95-1-.95-2.7,0-3.65Zm.3,9.05h3.1v25.2h-3.1v-25.2Z"/>
      <path class="uuid-b12f296f-66fb-4db2-bd28-6d899b3c2f99" d="m1106.97,271.94l-2.2,1.9c-1.45-1.95-3.1-2.9-4.95-2.9-2.2,0-3.7,1.55-3.7,3.8,0,1.85,1.85,3.2,4.2,4.15,3.4,1.35,7.75,3,7.75,7.25,0,4.85-3,7.9-7.8,7.9s-7.95-3.1-9.1-6.9l2.75-1.45c1.25,3.45,2.95,5.45,6.35,5.45,2.95,0,4.55-1.7,4.55-4.5,0-2.05-1.85-3.55-4.2-4.4-3.4-1.35-7.7-2.75-7.7-7.45,0-4,3-6.75,7.05-6.75,2.85,0,5.15,1.3,7,3.9Z"/>
      <path class="uuid-b12f296f-66fb-4db2-bd28-6d899b3c2f99" d="m1131.57,303.84h-3.2v-35.4h3.2v3.3c1.35-2,4.65-3.7,7.85-3.7,3.55,0,6.3,1.25,8.25,3.7,2,2.45,3,5.55,3,9.3s-1,6.9-3,9.35c-1.95,2.45-4.7,3.65-8.25,3.65-2.75,0-6.05-1.6-7.85-3.95v13.75Zm7.7-32.9c-5.2,0-8.1,4.15-8.1,10.1,0,2.95.7,5.35,2.1,7.25,1.45,1.9,3.45,2.85,6,2.85s4.55-.95,6-2.85c1.45-1.9,2.15-4.3,2.15-7.25,0-5.95-2.95-10.1-8.15-10.1Z"/>
      <path class="uuid-b12f296f-66fb-4db2-bd28-6d899b3c2f99" d="m1175.02,293.64h-2.35l-.75-3.9c-1.65,2.85-4.3,4.3-7.95,4.3-4.6,0-7.85-2.45-7.85-7.65s4.35-8.25,11.6-8.25h4.2v-1.1c0-4.2-2.2-6.1-5.8-6.1-3.05,0-5.05,1.55-6,4.7l-3-.7c.65-4.2,4.4-6.9,9-6.9,2.55,0,4.7.8,6.35,2.4,1.7,1.55,2.55,3.75,2.55,6.5v16.7Zm-10.75-2.5c1.95,0,3.7-.75,5.25-2.25,1.6-1.5,2.4-3.8,2.4-6.9v-.95h-4.1c-5.6,0-8.45,1.95-8.45,5.35,0,3.05,1.85,4.75,4.9,4.75Z"/>
      <path class="uuid-b12f296f-66fb-4db2-bd28-6d899b3c2f99" d="m1182.42,259.39c1-1,2.7-1,3.65,0,1,.95,1,2.65,0,3.65s-2.65.95-3.65,0c-.95-1-.95-2.7,0-3.65Zm.3,9.05h3.1v25.2h-3.1v-25.2Z"/>
      <path class="uuid-b12f296f-66fb-4db2-bd28-6d899b3c2f99" d="m1207.07,271.84c-1.1-.6-2.3-.9-3.55-.9-4.05,0-6.95,4.7-6.95,12.95v9.75h-3.1v-25.2h3.1v4.5c1.55-3.25,4.05-4.9,7.4-4.9,1.15,0,2.4.3,3.8.85l-.7,2.95Z"/>
      <path class="uuid-b12f296f-66fb-4db2-bd28-6d899b3c2f99" d="m1233.12,281.04h-19c0,6,3,10.1,7.95,10.1,3.8,0,5.9-1.55,7.75-5.4l2.75,1.35c-2.55,5-5.7,6.95-10.5,6.95-3.35,0-6.05-1.2-8.1-3.65s-3.1-5.6-3.1-9.35,1.05-6.85,3.1-9.3,4.75-3.7,8.1-3.7,5.9,1.05,7.95,3.2c2.05,2.15,3.1,4.95,3.1,8.4v1.4Zm-18.8-2.9h15.6c-.6-4.45-3.4-7.2-7.85-7.2-4.05,0-6.9,2.95-7.75,7.2Z"/>
      <path class="uuid-b12f296f-66fb-4db2-bd28-6d899b3c2f99" d="m1257.87,258.24h3.2v35.4h-3.2v-3.3c-1.35,2-4.65,3.7-7.85,3.7-3.55,0-6.3-1.2-8.3-3.65-1.95-2.45-2.95-5.6-2.95-9.35s1-6.85,2.95-9.3c2-2.45,4.75-3.7,8.3-3.7,2.75,0,6.05,1.6,7.85,3.95v-13.75Zm-7.7,32.9c5.2,0,8.1-4.15,8.1-10.1,0-2.95-.7-5.35-2.15-7.25-1.4-1.9-3.4-2.85-5.95-2.85s-4.55.95-6,2.85c-1.45,1.9-2.15,4.3-2.15,7.25,0,5.95,2.95,10.1,8.15,10.1Z"/>
      <path class="uuid-b12f296f-66fb-4db2-bd28-6d899b3c2f99" d="m1309.17,268.44h3.25l-7.55,25.2h-3.2l-5.25-20.6-5.25,20.6h-3.2l-7.55-25.2h3.25l5.9,20.8,5.3-20.8h3.1l5.3,20.8,5.9-20.8Z"/>
      <path class="uuid-b12f296f-66fb-4db2-bd28-6d899b3c2f99" d="m1317.92,259.39c1-1,2.7-1,3.65,0,1,.95,1,2.65,0,3.65s-2.65.95-3.65,0c-.95-1-.95-2.7,0-3.65Zm.3,9.05h3.1v25.2h-3.1v-25.2Z"/>
      <path class="uuid-b12f296f-66fb-4db2-bd28-6d899b3c2f99" d="m1327.22,271.34v-2.9h4.45v-8.15l3.2-2.05v10.2h6.7v2.9h-6.7v15.65c0,2.75,1.15,4.15,3.5,4.15,1.25,0,2.3-.25,3.15-.8l.85,2.8c-1.1.6-2.55.9-4.4.9-3.85,0-6.3-2.5-6.3-7.55v-15.15h-4.45Z"/>
      <path class="uuid-b12f296f-66fb-4db2-bd28-6d899b3c2f99" d="m1368.17,293.64h-3.1v-16.9c0-3.65-1.85-5.8-5.25-5.8-2.35,0-4.4,1.1-6.05,3.3s-2.45,5.1-2.45,8.65v10.75h-3.1v-35.4h3.1v15.7c1.65-3.85,5.35-5.9,9-5.9,4.95,0,7.85,3.05,7.85,8.3v17.3Z"/>
      <path class="uuid-b12f296f-66fb-4db2-bd28-6d899b3c2f99" d="m1388.07,281.04c0-3.45,1.1-6.5,3.25-9.1,2.15-2.6,5-3.9,8.55-3.9s6.4,1.3,8.55,3.9c2.15,2.6,3.25,5.65,3.25,9.1s-1.1,6.5-3.25,9.1c-2.15,2.6-5,3.9-8.55,3.9s-6.4-1.3-8.55-3.9c-2.15-2.6-3.25-5.65-3.25-9.1Zm3.25,0c0,2.75.75,5.1,2.25,7.1,1.55,2,3.65,3,6.3,3s4.75-1,6.25-3c1.55-2,2.3-4.35,2.3-7.1s-.75-5.1-2.3-7.1c-1.5-2-3.6-3-6.25-3s-4.75,1-6.3,3c-1.5,2-2.25,4.35-2.25,7.1Z"/>
      <path class="uuid-b12f296f-66fb-4db2-bd28-6d899b3c2f99" d="m1438.37,293.64h-3.1v-16.9c0-3.85-1.7-5.8-5.15-5.8-2.35,0-4.3,1.05-5.85,3.2-1.55,2.15-2.3,4.95-2.3,8.45v11.05h-3.1v-25.2h3.1v5.25c1.75-3.4,5.05-5.65,8.65-5.65,4.8,0,7.75,3.05,7.75,8.3v17.3Z"/>
      <path class="uuid-b12f296f-66fb-4db2-bd28-6d899b3c2f99" d="m1467.52,281.04h-19c0,6,3,10.1,7.95,10.1,3.8,0,5.9-1.55,7.75-5.4l2.75,1.35c-2.55,5-5.7,6.95-10.5,6.95-3.35,0-6.05-1.2-8.1-3.65s-3.1-5.6-3.1-9.35,1.05-6.85,3.1-9.3,4.75-3.7,8.1-3.7,5.9,1.05,7.95,3.2c2.05,2.15,3.1,4.95,3.1,8.4v1.4Zm-18.8-2.9h15.6c-.6-4.45-3.4-7.2-7.85-7.2-4.05,0-6.9,2.95-7.75,7.2Z"/>
      <path class="uuid-b12f296f-66fb-4db2-bd28-6d899b3c2f99" d="m1485.47,281.04c0-3.45,1.1-6.5,3.25-9.1,2.15-2.6,5-3.9,8.55-3.9s6.4,1.3,8.55,3.9c2.15,2.6,3.25,5.65,3.25,9.1s-1.1,6.5-3.25,9.1c-2.15,2.6-5,3.9-8.55,3.9s-6.4-1.3-8.55-3.9c-2.15-2.6-3.25-5.65-3.25-9.1Zm3.25,0c0,2.75.75,5.1,2.25,7.1,1.55,2,3.65,3,6.3,3s4.75-1,6.25-3c1.55-2,2.3-4.35,2.3-7.1s-.75-5.1-2.3-7.1c-1.5-2-3.6-3-6.25-3s-4.75,1-6.3,3c-1.5,2-2.25,4.35-2.25,7.1Z"/>
      <path class="uuid-b12f296f-66fb-4db2-bd28-6d899b3c2f99" d="m1513.12,271.34v-2.9h4v-1.6c0-5.75,2.6-8.6,7.8-8.6,1.2,0,2.2.2,3,.65l-.65,2.85c-.85-.4-1.75-.6-2.6-.6-2.95,0-4.45,1.75-4.45,5.2v2.1h6.1v2.9h-6.1v22.3h-3.1v-22.3h-4Z"/>
      <path class="uuid-b12f296f-66fb-4db2-bd28-6d899b3c2f99" d="m1554.32,258.64h2.9l12.65,35h-3.4l-3.5-9.95h-14.4l-3.5,9.95h-3.4l12.65-35Zm1.45,4.5l-6.15,17.45h12.3l-6.15-17.45Z"/>
      <path class="uuid-b12f296f-66fb-4db2-bd28-6d899b3c2f99" d="m1574.67,258.24h3.1v35.4h-3.1v-35.4Z"/>
      <path class="uuid-b12f296f-66fb-4db2-bd28-6d899b3c2f99" d="m1584.82,259.39c1-1,2.7-1,3.65,0,1,.95,1,2.65,0,3.65s-2.65.95-3.65,0c-.95-1-.95-2.7,0-3.65Zm.3,9.05h3.1v25.2h-3.1v-25.2Z"/>
      <path class="uuid-b12f296f-66fb-4db2-bd28-6d899b3c2f99" d="m1616.92,287.09c-1.75,4.65-5.15,6.95-10.15,6.95-3.5,0-6.25-1.25-8.2-3.8-1.95-2.55-2.95-5.65-2.95-9.2s1-6.6,2.95-9.15c1.95-2.55,4.7-3.85,8.2-3.85,5,0,8.4,2.3,10.15,6.95l-2.8,1.1c-1.4-3.45-3.85-5.15-7.35-5.15-2.55,0-4.55.95-5.9,2.9-1.35,1.9-2,4.3-2,7.2s.65,5.3,2,7.25c1.35,1.9,3.35,2.85,5.9,2.85,3.5,0,5.95-1.7,7.35-5.15l2.8,1.1Z"/>
      <path class="uuid-b12f296f-66fb-4db2-bd28-6d899b3c2f99" d="m1622.82,259.39c1-1,2.7-1,3.65,0,1,.95,1,2.65,0,3.65s-2.65.95-3.65,0c-.95-1-.95-2.7,0-3.65Zm.3,9.05h3.1v25.2h-3.1v-25.2Z"/>
      <path class="uuid-b12f296f-66fb-4db2-bd28-6d899b3c2f99" d="m1651.87,293.64h-2.35l-.75-3.9c-1.65,2.85-4.3,4.3-7.95,4.3-4.6,0-7.85-2.45-7.85-7.65s4.35-8.25,11.6-8.25h4.2v-1.1c0-4.2-2.2-6.1-5.8-6.1-3.05,0-5.05,1.55-6,4.7l-3-.7c.65-4.2,4.4-6.9,9-6.9,2.55,0,4.7.8,6.35,2.4,1.7,1.55,2.55,3.75,2.55,6.5v16.7Zm-10.75-2.5c1.95,0,3.7-.75,5.25-2.25,1.6-1.5,2.4-3.8,2.4-6.9v-.95h-4.1c-5.6,0-8.45,1.95-8.45,5.35,0,3.05,1.85,4.75,4.9,4.75Z"/>
      <path class="uuid-b12f296f-66fb-4db2-bd28-6d899b3c2f99" d="m1657.97,267.44l3.05-9.2h5.15l-5.75,9.2h-2.45Z"/>
      <path class="uuid-b12f296f-66fb-4db2-bd28-6d899b3c2f99" d="m1681.17,271.94l-2.2,1.9c-1.45-1.95-3.1-2.9-4.95-2.9-2.2,0-3.7,1.55-3.7,3.8,0,1.85,1.85,3.2,4.2,4.15,3.4,1.35,7.75,3,7.75,7.25,0,4.85-3,7.9-7.8,7.9s-7.95-3.1-9.1-6.9l2.75-1.45c1.25,3.45,2.95,5.45,6.35,5.45,2.95,0,4.55-1.7,4.55-4.5,0-2.05-1.85-3.55-4.2-4.4-3.4-1.35-7.7-2.75-7.7-7.45,0-4,3-6.75,7.05-6.75,2.85,0,5.15,1.3,7,3.9Z"/>
    </g>
    <g class="uuid-66805d02-3584-4ce9-a4e0-94a8ae16c987">
      <path class="uuid-b12f296f-66fb-4db2-bd28-6d899b3c2f99" d="m6.03,321.34v-2.9h4v-1.6c0-5.75,2.6-8.6,7.8-8.6,1.2,0,2.2.2,3,.65l-.65,2.85c-.85-.4-1.75-.6-2.6-.6-2.95,0-4.45,1.75-4.45,5.2v2.1h6.1v2.9h-6.1v22.3h-3.1v-22.3h-4Z"/>
      <path class="uuid-b12f296f-66fb-4db2-bd28-6d899b3c2f99" d="m41.98,343.64h-2.35l-.75-3.9c-1.65,2.85-4.3,4.3-7.95,4.3-4.6,0-7.85-2.45-7.85-7.65s4.35-8.25,11.6-8.25h4.2v-1.1c0-4.2-2.2-6.1-5.8-6.1-3.05,0-5.05,1.55-6,4.7l-3-.7c.65-4.2,4.4-6.9,9-6.9,2.55,0,4.7.8,6.35,2.4,1.7,1.55,2.55,3.75,2.55,6.5v16.7Zm-10.75-2.5c1.95,0,3.7-.75,5.25-2.25,1.6-1.5,2.4-3.8,2.4-6.9v-.95h-4.1c-5.6,0-8.45,1.95-8.45,5.35,0,3.05,1.85,4.75,4.9,4.75Z"/>
      <path class="uuid-b12f296f-66fb-4db2-bd28-6d899b3c2f99" d="m63.43,318.44h3.25l-8.5,25.2h-3.4l-8.5-25.2h3.25l6.95,21.05,6.95-21.05Z"/>
      <path class="uuid-b12f296f-66fb-4db2-bd28-6d899b3c2f99" d="m69.93,331.04c0-3.45,1.1-6.5,3.25-9.1,2.15-2.6,5-3.9,8.55-3.9s6.4,1.3,8.55,3.9c2.15,2.6,3.25,5.65,3.25,9.1s-1.1,6.5-3.25,9.1c-2.15,2.6-5,3.9-8.55,3.9s-6.4-1.3-8.55-3.9c-2.15-2.6-3.25-5.65-3.25-9.1Zm3.25,0c0,2.75.75,5.1,2.25,7.1,1.55,2,3.65,3,6.3,3s4.75-1,6.25-3c1.55-2,2.3-4.35,2.3-7.1s-.75-5.1-2.3-7.1c-1.5-2-3.6-3-6.25-3s-4.75,1-6.3,3c-1.5,2-2.25,4.35-2.25,7.1Z"/>
      <path class="uuid-b12f296f-66fb-4db2-bd28-6d899b3c2f99" d="m113.38,321.84c-1.1-.6-2.3-.9-3.55-.9-4.05,0-6.95,4.7-6.95,12.95v9.75h-3.1v-25.2h3.1v4.5c1.55-3.25,4.05-4.9,7.4-4.9,1.15,0,2.4.3,3.8.85l-.7,2.95Z"/>
      <path class="uuid-b12f296f-66fb-4db2-bd28-6d899b3c2f99" d="m118.63,309.39c1-1,2.7-1,3.65,0,1,.95,1,2.65,0,3.65s-2.65.95-3.65,0c-.95-1-.95-2.7,0-3.65Zm.3,9.05h3.1v25.2h-3.1v-25.2Z"/>
      <path class="uuid-b12f296f-66fb-4db2-bd28-6d899b3c2f99" d="m127.93,321.34v-2.9h4.45v-8.15l3.2-2.05v10.2h6.7v2.9h-6.7v15.65c0,2.75,1.15,4.15,3.5,4.15,1.25,0,2.3-.25,3.15-.8l.85,2.8c-1.1.6-2.55.9-4.4.9-3.85,0-6.3-2.5-6.3-7.55v-15.15h-4.45Z"/>
      <path class="uuid-b12f296f-66fb-4db2-bd28-6d899b3c2f99" d="m169.33,331.04h-19c0,6,3,10.1,7.95,10.1,3.8,0,5.9-1.55,7.75-5.4l2.75,1.35c-2.55,5-5.7,6.95-10.5,6.95-3.35,0-6.05-1.2-8.1-3.65s-3.1-5.6-3.1-9.35,1.05-6.85,3.1-9.3,4.75-3.7,8.1-3.7,5.9,1.05,7.95,3.2c2.05,2.15,3.1,4.95,3.1,8.4v1.4Zm-18.8-2.9h15.6c-.6-4.45-3.4-7.2-7.85-7.2-4.05,0-6.9,2.95-7.75,7.2Z"/>
      <path class="uuid-b12f296f-66fb-4db2-bd28-6d899b3c2f99" d="m206.23,343.64h-2.35l-.75-3.9c-1.65,2.85-4.3,4.3-7.95,4.3-4.6,0-7.85-2.45-7.85-7.65s4.35-8.25,11.6-8.25h4.2v-1.1c0-4.2-2.2-6.1-5.8-6.1-3.05,0-5.05,1.55-6,4.7l-3-.7c.65-4.2,4.4-6.9,9-6.9,2.55,0,4.7.8,6.35,2.4,1.7,1.55,2.55,3.75,2.55,6.5v16.7Zm-10.75-2.5c1.95,0,3.7-.75,5.25-2.25,1.6-1.5,2.4-3.8,2.4-6.9v-.95h-4.1c-5.6,0-8.45,1.95-8.45,5.35,0,3.05,1.85,4.75,4.9,4.75Z"/>
      <path class="uuid-b12f296f-66fb-4db2-bd28-6d899b3c2f99" d="m211.18,321.34v-2.9h4v-1.6c0-5.75,2.6-8.6,7.8-8.6,1.2,0,2.2.2,3,.65l-.65,2.85c-.85-.4-1.75-.6-2.6-.6-2.95,0-4.45,1.75-4.45,5.2v2.1h6.1v2.9h-6.1v22.3h-3.1v-22.3h-4Z"/>
      <path class="uuid-b12f296f-66fb-4db2-bd28-6d899b3c2f99" d="m229.13,321.34v-2.9h4v-.8c0-2.9.95-5.2,2.8-6.85,1.9-1.7,4.25-2.55,7-2.55,2.15,0,3.95.5,5.5,1.45l-.65,2.85c-1.65-.95-3.35-1.4-5.1-1.4-3.85,0-6.45,2.45-6.45,6v1.3h13.2v25.2h-3.1v-22.3h-10.1v22.3h-3.1v-22.3h-4Z"/>
      <path class="uuid-b12f296f-66fb-4db2-bd28-6d899b3c2f99" d="m271.93,321.84c-1.1-.6-2.3-.9-3.55-.9-4.05,0-6.95,4.7-6.95,12.95v9.75h-3.1v-25.2h3.1v4.5c1.55-3.25,4.05-4.9,7.4-4.9,1.15,0,2.4.3,3.8.85l-.7,2.95Z"/>
      <path class="uuid-b12f296f-66fb-4db2-bd28-6d899b3c2f99" d="m310.93,343.64h-3.1v-16.9c0-3.95-1.15-5.8-4.5-5.8-2.1,0-3.9,1.05-5.35,3.2-1.45,2.15-2.15,4.95-2.15,8.45v11.05h-3.1v-16.9c0-3.95-1.15-5.8-4.5-5.8-2.1,0-3.9,1.05-5.35,3.2-1.45,2.15-2.15,4.95-2.15,8.45v11.05h-3.1v-25.2h3.1v5.25c1.6-3.45,4.45-5.65,8-5.65,3.8,0,6.1,1.85,6.85,5.6,1.75-3.25,4.9-5.6,8.25-5.6,4.85,0,7.1,2.7,7.1,8.3v17.3Z"/>
      <path class="uuid-b12f296f-66fb-4db2-bd28-6d899b3c2f99" d="m336.78,343.64h-2.35l-.75-3.9c-1.65,2.85-4.3,4.3-7.95,4.3-4.6,0-7.85-2.45-7.85-7.65s4.35-8.25,11.6-8.25h4.2v-1.1c0-4.2-2.2-6.1-5.8-6.1-3.05,0-5.05,1.55-6,4.7l-3-.7c.65-4.2,4.4-6.9,9-6.9,2.55,0,4.7.8,6.35,2.4,1.7,1.55,2.55,3.75,2.55,6.5v16.7Zm-10.75-2.5c1.95,0,3.7-.75,5.25-2.25,1.6-1.5,2.4-3.8,2.4-6.9v-.95h-4.1c-5.6,0-8.45,1.95-8.45,5.35,0,3.05,1.85,4.75,4.9,4.75Z"/>
      <path class="uuid-b12f296f-66fb-4db2-bd28-6d899b3c2f99" d="m341.38,321.34v-2.9h4.45v-8.15l3.2-2.05v10.2h6.7v2.9h-6.7v15.65c0,2.75,1.15,4.15,3.5,4.15,1.25,0,2.3-.25,3.15-.8l.85,2.8c-1.1.6-2.55.9-4.4.9-3.85,0-6.3-2.5-6.3-7.55v-15.15h-4.45Z"/>
      <path class="uuid-b12f296f-66fb-4db2-bd28-6d899b3c2f99" d="m361.78,309.39c1-1,2.7-1,3.65,0,1,.95,1,2.65,0,3.65s-2.65.95-3.65,0c-.95-1-.95-2.7,0-3.65Zm.3,9.05h3.1v25.2h-3.1v-25.2Z"/>
      <path class="uuid-b12f296f-66fb-4db2-bd28-6d899b3c2f99" d="m372.33,331.04c0-3.45,1.1-6.5,3.25-9.1,2.15-2.6,5-3.9,8.55-3.9s6.4,1.3,8.55,3.9c2.15,2.6,3.25,5.65,3.25,9.1s-1.1,6.5-3.25,9.1c-2.15,2.6-5,3.9-8.55,3.9s-6.4-1.3-8.55-3.9c-2.15-2.6-3.25-5.65-3.25-9.1Zm3.25,0c0,2.75.75,5.1,2.25,7.1,1.55,2,3.65,3,6.3,3s4.75-1,6.25-3c1.55-2,2.3-4.35,2.3-7.1s-.75-5.1-2.3-7.1c-1.5-2-3.6-3-6.25-3s-4.75,1-6.3,3c-1.5,2-2.25,4.35-2.25,7.1Z"/>
      <path class="uuid-b12f296f-66fb-4db2-bd28-6d899b3c2f99" d="m422.63,343.64h-3.1v-16.9c0-3.85-1.7-5.8-5.15-5.8-2.35,0-4.3,1.05-5.85,3.2-1.55,2.15-2.3,4.95-2.3,8.45v11.05h-3.1v-25.2h3.1v5.25c1.75-3.4,5.05-5.65,8.65-5.65,4.8,0,7.75,3.05,7.75,8.3v17.3Z"/>
      <path class="uuid-b12f296f-66fb-4db2-bd28-6d899b3c2f99" d="m443.93,321.94l-2.2,1.9c-1.45-1.95-3.1-2.9-4.95-2.9-2.2,0-3.7,1.55-3.7,3.8,0,1.85,1.85,3.2,4.2,4.15,3.4,1.35,7.75,3,7.75,7.25,0,4.85-3,7.9-7.8,7.9s-7.95-3.1-9.1-6.9l2.75-1.45c1.25,3.45,2.95,5.45,6.35,5.45,2.95,0,4.55-1.7,4.55-4.5,0-2.05-1.85-3.55-4.2-4.4-3.4-1.35-7.7-2.75-7.7-7.45,0-4,3-6.75,7.05-6.75,2.85,0,5.15,1.3,7,3.9Z"/>
      <path class="uuid-b12f296f-66fb-4db2-bd28-6d899b3c2f99" d="m452.68,338.64c1.45,0,2.55,1.1,2.55,2.55s-1.1,2.55-2.55,2.55-2.55-1-2.55-2.55c0-1.45,1.1-2.55,2.55-2.55Z"/>
      <path class="uuid-b12f296f-66fb-4db2-bd28-6d899b3c2f99" d="m462.33,317.44l3.05-9.2h5.15l-5.75,9.2h-2.45Zm7.15,0l3.05-9.2h5.15l-5.75,9.2h-2.45Z"/>
      <path class="uuid-b12f296f-66fb-4db2-bd28-6d899b3c2f99" d="m498.33,308.64h3.3v31.9h16.4v3.1h-19.7v-35Z"/>
      <path class="uuid-b12f296f-66fb-4db2-bd28-6d899b3c2f99" d="m524.23,309.39c1-1,2.7-1,3.65,0,1,.95,1,2.65,0,3.65s-2.65.95-3.65,0c-.95-1-.95-2.7,0-3.65Zm.3,9.05h3.1v25.2h-3.1v-25.2Z"/>
      <path class="uuid-b12f296f-66fb-4db2-bd28-6d899b3c2f99" d="m538.53,320.39c1.65-1.55,3.65-2.35,6.1-2.35,1.55,0,3,.4,4.35,1.15l4.5-2.55,1.45,2.65-3.5,1.95c1.15,1.5,1.75,3.25,1.75,5.25,0,2.55-.8,4.6-2.45,6.15-1.65,1.55-3.65,2.3-6.1,2.3-1.8,0-3.35-.4-4.7-1.2-1.35.6-2.05,1.55-2.05,2.8,0,1.6,1.05,2.4,3.1,2.4h6.5c4.6,0,7.55,2.15,7.55,6.6,0,5.95-4.1,8.7-10.35,8.7s-10.4-3.1-10.4-8.3c0-2.25.85-4,2.6-5.3-1.35-.8-2-2.15-2-4.1s1.25-3.65,3.1-4.5c-1.25-1.55-1.9-3.4-1.9-5.55,0-2.5.8-4.55,2.45-6.1Zm3.45,21.25c-.9,0-1.7-.05-2.45-.15-1.5.95-2.25,2.5-2.25,4.55,0,3.35,2.55,5.4,7.4,5.4s7.35-2.25,7.35-5.5c0-2.85-1.65-4.3-4.9-4.3h-5.15Zm-2.8-15.15c0,1.75.5,3.15,1.55,4.2,1.05,1.05,2.35,1.55,3.9,1.55s2.8-.5,3.85-1.55c1.05-1.05,1.6-2.45,1.6-4.2s-.55-3.15-1.6-4.2c-1.05-1.05-2.3-1.55-3.85-1.55s-2.85.5-3.9,1.55c-1.05,1.05-1.55,2.45-1.55,4.2Z"/>
      <path class="uuid-b12f296f-66fb-4db2-bd28-6d899b3c2f99" d="m580.63,343.64h-3.1v-16.9c0-3.65-1.85-5.8-5.25-5.8-2.35,0-4.4,1.1-6.05,3.3s-2.45,5.1-2.45,8.65v10.75h-3.1v-35.4h3.1v15.7c1.65-3.85,5.35-5.9,9-5.9,4.95,0,7.85,3.05,7.85,8.3v17.3Z"/>
      <path class="uuid-b12f296f-66fb-4db2-bd28-6d899b3c2f99" d="m585.73,321.34v-2.9h4.45v-8.15l3.2-2.05v10.2h6.7v2.9h-6.7v15.65c0,2.75,1.15,4.15,3.5,4.15,1.25,0,2.3-.25,3.15-.8l.85,2.8c-1.1.6-2.55.9-4.4.9-3.85,0-6.3-2.5-6.3-7.55v-15.15h-4.45Z"/>
      <path class="uuid-b12f296f-66fb-4db2-bd28-6d899b3c2f99" d="m633.03,318.44h3.25l-7.55,25.2h-3.2l-5.25-20.6-5.25,20.6h-3.2l-7.55-25.2h3.25l5.9,20.8,5.3-20.8h3.1l5.3,20.8,5.9-20.8Z"/>
      <path class="uuid-b12f296f-66fb-4db2-bd28-6d899b3c2f99" d="m640.48,331.04c0-3.45,1.1-6.5,3.25-9.1,2.15-2.6,5-3.9,8.55-3.9s6.4,1.3,8.55,3.9c2.15,2.6,3.25,5.65,3.25,9.1s-1.1,6.5-3.25,9.1c-2.15,2.6-5,3.9-8.55,3.9s-6.4-1.3-8.55-3.9c-2.15-2.6-3.25-5.65-3.25-9.1Zm3.25,0c0,2.75.75,5.1,2.25,7.1,1.55,2,3.65,3,6.3,3s4.75-1,6.25-3c1.55-2,2.3-4.35,2.3-7.1s-.75-5.1-2.3-7.1c-1.5-2-3.6-3-6.25-3s-4.75,1-6.3,3c-1.5,2-2.25,4.35-2.25,7.1Z"/>
      <path class="uuid-b12f296f-66fb-4db2-bd28-6d899b3c2f99" d="m683.93,321.84c-1.1-.6-2.3-.9-3.55-.9-4.05,0-6.95,4.7-6.95,12.95v9.75h-3.1v-25.2h3.1v4.5c1.55-3.25,4.05-4.9,7.4-4.9,1.15,0,2.4.3,3.8.85l-.7,2.95Z"/>
      <path class="uuid-b12f296f-66fb-4db2-bd28-6d899b3c2f99" d="m688.78,308.24h3.1v21.35l10.55-11.15h3.9l-10.9,11.55,11.8,13.65h-3.95l-11.4-13.25v13.25h-3.1v-35.4Z"/>
      <path class="uuid-b12f296f-66fb-4db2-bd28-6d899b3c2f99" d="m732.13,331.04h-19c0,6,3,10.1,7.95,10.1,3.8,0,5.9-1.55,7.75-5.4l2.75,1.35c-2.55,5-5.7,6.95-10.5,6.95-3.35,0-6.05-1.2-8.1-3.65s-3.1-5.6-3.1-9.35,1.05-6.85,3.1-9.3,4.75-3.7,8.1-3.7,5.9,1.05,7.95,3.2c2.05,2.15,3.1,4.95,3.1,8.4v1.4Zm-18.8-2.9h15.6c-.6-4.45-3.4-7.2-7.85-7.2-4.05,0-6.9,2.95-7.75,7.2Z"/>
      <path class="uuid-b12f296f-66fb-4db2-bd28-6d899b3c2f99" d="m752.68,321.84c-1.1-.6-2.3-.9-3.55-.9-4.05,0-6.95,4.7-6.95,12.95v9.75h-3.1v-25.2h3.1v4.5c1.55-3.25,4.05-4.9,7.4-4.9,1.15,0,2.4.3,3.8.85l-.7,2.95Z"/>
      <path class="uuid-b12f296f-66fb-4db2-bd28-6d899b3c2f99" d="m771.73,321.94l-2.2,1.9c-1.45-1.95-3.1-2.9-4.95-2.9-2.2,0-3.7,1.55-3.7,3.8,0,1.85,1.85,3.2,4.2,4.15,3.4,1.35,7.75,3,7.75,7.25,0,4.85-3,7.9-7.8,7.9s-7.95-3.1-9.1-6.9l2.75-1.45c1.25,3.45,2.95,5.45,6.35,5.45,2.95,0,4.55-1.7,4.55-4.5,0-2.05-1.85-3.55-4.2-4.4-3.4-1.35-7.7-2.75-7.7-7.45,0-4,3-6.75,7.05-6.75,2.85,0,5.15,1.3,7,3.9Z"/>
      <path class="uuid-b12f296f-66fb-4db2-bd28-6d899b3c2f99" d="m819.03,318.44h3.25l-7.55,25.2h-3.2l-5.25-20.6-5.25,20.6h-3.2l-7.55-25.2h3.25l5.9,20.8,5.3-20.8h3.1l5.3,20.8,5.9-20.8Z"/>
      <path class="uuid-b12f296f-66fb-4db2-bd28-6d899b3c2f99" d="m827.78,309.39c1-1,2.7-1,3.65,0,1,.95,1,2.65,0,3.65s-2.65.95-3.65,0c-.95-1-.95-2.7,0-3.65Zm.3,9.05h3.1v25.2h-3.1v-25.2Z"/>
      <path class="uuid-b12f296f-66fb-4db2-bd28-6d899b3c2f99" d="m839.03,308.24h3.1v35.4h-3.1v-35.4Z"/>
      <path class="uuid-b12f296f-66fb-4db2-bd28-6d899b3c2f99" d="m849.33,308.24h3.1v35.4h-3.1v-35.4Z"/>
      <path class="uuid-b12f296f-66fb-4db2-bd28-6d899b3c2f99" d="m874.23,308.24h3.2v13.75c1.8-2.35,5.1-3.95,7.85-3.95,3.55,0,6.3,1.25,8.25,3.7,2,2.45,3,5.55,3,9.3s-1,6.9-3,9.35c-1.95,2.45-4.7,3.65-8.25,3.65-3.2,0-6.5-1.7-7.85-3.7v3.3h-3.2v-35.4Zm16.9,15.55c-1.45-1.9-3.45-2.85-6-2.85s-4.55.95-6,2.85c-1.4,1.9-2.1,4.3-2.1,7.25,0,5.95,2.9,10.1,8.1,10.1s8.15-4.15,8.15-10.1c0-2.95-.7-5.35-2.15-7.25Z"/>
      <path class="uuid-b12f296f-66fb-4db2-bd28-6d899b3c2f99" d="m924.88,331.04h-19c0,6,3,10.1,7.95,10.1,3.8,0,5.9-1.55,7.75-5.4l2.75,1.35c-2.55,5-5.7,6.95-10.5,6.95-3.35,0-6.05-1.2-8.1-3.65s-3.1-5.6-3.1-9.35,1.05-6.85,3.1-9.3,4.75-3.7,8.1-3.7,5.9,1.05,7.95,3.2c2.05,2.15,3.1,4.95,3.1,8.4v1.4Zm-18.8-2.9h15.6c-.6-4.45-3.4-7.2-7.85-7.2-4.05,0-6.9,2.95-7.75,7.2Z"/>
      <path class="uuid-b12f296f-66fb-4db2-bd28-6d899b3c2f99" d="m961.93,308.24h3.2v35.4h-3.2v-3.3c-1.35,2-4.65,3.7-7.85,3.7-3.55,0-6.3-1.2-8.3-3.65-1.95-2.45-2.95-5.6-2.95-9.35s1-6.85,2.95-9.3c2-2.45,4.75-3.7,8.3-3.7,2.75,0,6.05,1.6,7.85,3.95v-13.75Zm-7.7,32.9c5.2,0,8.1-4.15,8.1-10.1,0-2.95-.7-5.35-2.15-7.25-1.4-1.9-3.4-2.85-5.95-2.85s-4.55.95-6,2.85c-1.45,1.9-2.15,4.3-2.15,7.25,0,5.95,2.95,10.1,8.15,10.1Z"/>
      <path class="uuid-b12f296f-66fb-4db2-bd28-6d899b3c2f99" d="m972.67,309.39c1-1,2.7-1,3.65,0,1,.95,1,2.65,0,3.65s-2.65.95-3.65,0c-.95-1-.95-2.7,0-3.65Zm.3,9.05h3.1v25.2h-3.1v-25.2Z"/>
      <path class="uuid-b12f296f-66fb-4db2-bd28-6d899b3c2f99" d="m997.33,321.84c-1.1-.6-2.3-.9-3.55-.9-4.05,0-6.95,4.7-6.95,12.95v9.75h-3.1v-25.2h3.1v4.5c1.55-3.25,4.05-4.9,7.4-4.9,1.15,0,2.4.3,3.8.85l-.7,2.95Z"/>
      <path class="uuid-b12f296f-66fb-4db2-bd28-6d899b3c2f99" d="m1023.38,331.04h-19c0,6,3,10.1,7.95,10.1,3.8,0,5.9-1.55,7.75-5.4l2.75,1.35c-2.55,5-5.7,6.95-10.5,6.95-3.35,0-6.05-1.2-8.1-3.65s-3.1-5.6-3.1-9.35,1.05-6.85,3.1-9.3,4.75-3.7,8.1-3.7,5.9,1.05,7.95,3.2c2.05,2.15,3.1,4.95,3.1,8.4v1.4Zm-18.8-2.9h15.6c-.6-4.45-3.4-7.2-7.85-7.2-4.05,0-6.9,2.95-7.75,7.2Z"/>
      <path class="uuid-b12f296f-66fb-4db2-bd28-6d899b3c2f99" d="m1050.32,337.09c-1.75,4.65-5.15,6.95-10.15,6.95-3.5,0-6.25-1.25-8.2-3.8-1.95-2.55-2.95-5.65-2.95-9.2s1-6.6,2.95-9.15c1.95-2.55,4.7-3.85,8.2-3.85,5,0,8.4,2.3,10.15,6.95l-2.8,1.1c-1.4-3.45-3.85-5.15-7.35-5.15-2.55,0-4.55.95-5.9,2.9-1.35,1.9-2,4.3-2,7.2s.65,5.3,2,7.25c1.35,1.9,3.35,2.85,5.9,2.85,3.5,0,5.95-1.7,7.35-5.15l2.8,1.1Z"/>
      <path class="uuid-b12f296f-66fb-4db2-bd28-6d899b3c2f99" d="m1054.67,321.34v-2.9h4.45v-8.15l3.2-2.05v10.2h6.7v2.9h-6.7v15.65c0,2.75,1.15,4.15,3.5,4.15,1.25,0,2.3-.25,3.15-.8l.85,2.8c-1.1.6-2.55.9-4.4.9-3.85,0-6.3-2.5-6.3-7.55v-15.15h-4.45Z"/>
      <path class="uuid-b12f296f-66fb-4db2-bd28-6d899b3c2f99" d="m1096.07,331.04h-19c0,6,3,10.1,7.95,10.1,3.8,0,5.9-1.55,7.75-5.4l2.75,1.35c-2.55,5-5.7,6.95-10.5,6.95-3.35,0-6.05-1.2-8.1-3.65s-3.1-5.6-3.1-9.35,1.05-6.85,3.1-9.3,4.75-3.7,8.1-3.7,5.9,1.05,7.95,3.2,3.1,4.95,3.1,8.4v1.4Zm-18.8-2.9h15.6c-.6-4.45-3.4-7.2-7.85-7.2-4.05,0-6.9,2.95-7.75,7.2Z"/>
      <path class="uuid-b12f296f-66fb-4db2-bd28-6d899b3c2f99" d="m1120.82,308.24h3.2v35.4h-3.2v-3.3c-1.35,2-4.65,3.7-7.85,3.7-3.55,0-6.3-1.2-8.3-3.65-1.95-2.45-2.95-5.6-2.95-9.35s1-6.85,2.95-9.3c2-2.45,4.75-3.7,8.3-3.7,2.75,0,6.05,1.6,7.85,3.95v-13.75Zm-7.7,32.9c5.2,0,8.1-4.15,8.1-10.1,0-2.95-.7-5.35-2.15-7.25-1.4-1.9-3.4-2.85-5.95-2.85s-4.55.95-6,2.85c-1.45,1.9-2.15,4.3-2.15,7.25,0,5.95,2.95,10.1,8.15,10.1Z"/>
      <path class="uuid-b12f296f-66fb-4db2-bd28-6d899b3c2f99" d="m1144.22,331.04c0-3.45,1.1-6.5,3.25-9.1,2.15-2.6,5-3.9,8.55-3.9s6.4,1.3,8.55,3.9c2.15,2.6,3.25,5.65,3.25,9.1s-1.1,6.5-3.25,9.1c-2.15,2.6-5,3.9-8.55,3.9s-6.4-1.3-8.55-3.9c-2.15-2.6-3.25-5.65-3.25-9.1Zm3.25,0c0,2.75.75,5.1,2.25,7.1,1.55,2,3.65,3,6.3,3s4.75-1,6.25-3c1.55-2,2.3-4.35,2.3-7.1s-.75-5.1-2.3-7.1c-1.5-2-3.6-3-6.25-3s-4.75,1-6.3,3c-1.5,2-2.25,4.35-2.25,7.1Z"/>
      <path class="uuid-b12f296f-66fb-4db2-bd28-6d899b3c2f99" d="m1194.52,343.64h-3.1v-16.9c0-3.85-1.7-5.8-5.15-5.8-2.35,0-4.3,1.05-5.85,3.2-1.55,2.15-2.3,4.95-2.3,8.45v11.05h-3.1v-25.2h3.1v5.25c1.75-3.4,5.05-5.65,8.65-5.65,4.8,0,7.75,3.05,7.75,8.3v17.3Z"/>
      <path class="uuid-b12f296f-66fb-4db2-bd28-6d899b3c2f99" d="m1242.32,318.44h3.25l-7.55,25.2h-3.2l-5.25-20.6-5.25,20.6h-3.2l-7.55-25.2h3.25l5.9,20.8,5.3-20.8h3.1l5.3,20.8,5.9-20.8Z"/>
      <path class="uuid-b12f296f-66fb-4db2-bd28-6d899b3c2f99" d="m1271.17,343.64h-3.1v-16.9c0-3.65-1.85-5.8-5.25-5.8-2.35,0-4.4,1.1-6.05,3.3s-2.45,5.1-2.45,8.65v10.75h-3.1v-35.4h3.1v15.7c1.65-3.85,5.35-5.9,9-5.9,4.95,0,7.85,3.05,7.85,8.3v17.3Z"/>
      <path class="uuid-b12f296f-66fb-4db2-bd28-6d899b3c2f99" d="m1296.72,343.64h-2.35l-.75-3.9c-1.65,2.85-4.3,4.3-7.95,4.3-4.6,0-7.85-2.45-7.85-7.65s4.35-8.25,11.6-8.25h4.2v-1.1c0-4.2-2.2-6.1-5.8-6.1-3.05,0-5.05,1.55-6,4.7l-3-.7c.65-4.2,4.4-6.9,9-6.9,2.55,0,4.7.8,6.35,2.4,1.7,1.55,2.55,3.75,2.55,6.5v16.7Zm-10.75-2.5c1.95,0,3.7-.75,5.25-2.25,1.6-1.5,2.4-3.8,2.4-6.9v-.95h-4.1c-5.6,0-8.45,1.95-8.45,5.35,0,3.05,1.85,4.75,4.9,4.75Z"/>
      <path class="uuid-b12f296f-66fb-4db2-bd28-6d899b3c2f99" d="m1301.32,321.34v-2.9h4.45v-8.15l3.2-2.05v10.2h6.7v2.9h-6.7v15.65c0,2.75,1.15,4.15,3.5,4.15,1.25,0,2.3-.25,3.15-.8l.85,2.8c-1.1.6-2.55.9-4.4.9-3.85,0-6.3-2.5-6.3-7.55v-15.15h-4.45Z"/>
      <path class="uuid-b12f296f-66fb-4db2-bd28-6d899b3c2f99" d="m1352.87,343.64h-2.35l-.75-3.9c-1.65,2.85-4.3,4.3-7.95,4.3-4.6,0-7.85-2.45-7.85-7.65s4.35-8.25,11.6-8.25h4.2v-1.1c0-4.2-2.2-6.1-5.8-6.1-3.05,0-5.05,1.55-6,4.7l-3-.7c.65-4.2,4.4-6.9,9-6.9,2.55,0,4.7.8,6.35,2.4,1.7,1.55,2.55,3.75,2.55,6.5v16.7Zm-10.75-2.5c1.95,0,3.7-.75,5.25-2.25,1.6-1.5,2.4-3.8,2.4-6.9v-.95h-4.1c-5.6,0-8.45,1.95-8.45,5.35,0,3.05,1.85,4.75,4.9,4.75Z"/>
      <path class="uuid-b12f296f-66fb-4db2-bd28-6d899b3c2f99" d="m1357.82,321.34v-2.9h4v-1.6c0-5.75,2.6-8.6,7.8-8.6,1.2,0,2.2.2,3,.65l-.65,2.85c-.85-.4-1.75-.6-2.6-.6-2.95,0-4.45,1.75-4.45,5.2v2.1h6.1v2.9h-6.1v22.3h-3.1v-22.3h-4Z"/>
      <path class="uuid-b12f296f-66fb-4db2-bd28-6d899b3c2f99" d="m1375.77,321.34v-2.9h4v-.8c0-2.9.95-5.2,2.8-6.85,1.9-1.7,4.25-2.55,7-2.55,2.15,0,3.95.5,5.5,1.45l-.65,2.85c-1.65-.95-3.35-1.4-5.1-1.4-3.85,0-6.45,2.45-6.45,6v1.3h13.2v25.2h-3.1v-22.3h-10.1v22.3h-3.1v-22.3h-4Z"/>
      <path class="uuid-b12f296f-66fb-4db2-bd28-6d899b3c2f99" d="m1418.57,321.84c-1.1-.6-2.3-.9-3.55-.9-4.05,0-6.95,4.7-6.95,12.95v9.75h-3.1v-25.2h3.1v4.5c1.55-3.25,4.05-4.9,7.4-4.9,1.15,0,2.4.3,3.8.85l-.7,2.95Z"/>
      <path class="uuid-b12f296f-66fb-4db2-bd28-6d899b3c2f99" d="m1457.57,343.64h-3.1v-16.9c0-3.95-1.15-5.8-4.5-5.8-2.1,0-3.9,1.05-5.35,3.2s-2.15,4.95-2.15,8.45v11.05h-3.1v-16.9c0-3.95-1.15-5.8-4.5-5.8-2.1,0-3.9,1.05-5.35,3.2s-2.15,4.95-2.15,8.45v11.05h-3.1v-25.2h3.1v5.25c1.6-3.45,4.45-5.65,8-5.65,3.8,0,6.1,1.85,6.85,5.6,1.75-3.25,4.9-5.6,8.25-5.6,4.85,0,7.1,2.7,7.1,8.3v17.3Z"/>
      <path class="uuid-b12f296f-66fb-4db2-bd28-6d899b3c2f99" d="m1483.42,343.64h-2.35l-.75-3.9c-1.65,2.85-4.3,4.3-7.95,4.3-4.6,0-7.85-2.45-7.85-7.65s4.35-8.25,11.6-8.25h4.2v-1.1c0-4.2-2.2-6.1-5.8-6.1-3.05,0-5.05,1.55-6,4.7l-3-.7c.65-4.2,4.4-6.9,9-6.9,2.55,0,4.7.8,6.35,2.4,1.7,1.55,2.55,3.75,2.55,6.5v16.7Zm-10.75-2.5c1.95,0,3.7-.75,5.25-2.25,1.6-1.5,2.4-3.8,2.4-6.9v-.95h-4.1c-5.6,0-8.45,1.95-8.45,5.35,0,3.05,1.85,4.75,4.9,4.75Z"/>
      <path class="uuid-b12f296f-66fb-4db2-bd28-6d899b3c2f99" d="m1488.02,321.34v-2.9h4.45v-8.15l3.2-2.05v10.2h6.7v2.9h-6.7v15.65c0,2.75,1.15,4.15,3.5,4.15,1.25,0,2.3-.25,3.15-.8l.85,2.8c-1.1.6-2.55.9-4.4.9-3.85,0-6.3-2.5-6.3-7.55v-15.15h-4.45Z"/>
      <path class="uuid-b12f296f-66fb-4db2-bd28-6d899b3c2f99" d="m1508.42,309.39c1-1,2.7-1,3.65,0,1,.95,1,2.65,0,3.65s-2.65.95-3.65,0c-.95-1-.95-2.7,0-3.65Zm.3,9.05h3.1v25.2h-3.1v-25.2Z"/>
      <path class="uuid-b12f296f-66fb-4db2-bd28-6d899b3c2f99" d="m1518.97,331.04c0-3.45,1.1-6.5,3.25-9.1,2.15-2.6,5-3.9,8.55-3.9s6.4,1.3,8.55,3.9c2.15,2.6,3.25,5.65,3.25,9.1s-1.1,6.5-3.25,9.1c-2.15,2.6-5,3.9-8.55,3.9s-6.4-1.3-8.55-3.9c-2.15-2.6-3.25-5.65-3.25-9.1Zm3.25,0c0,2.75.75,5.1,2.25,7.1,1.55,2,3.65,3,6.3,3s4.75-1,6.25-3c1.55-2,2.3-4.35,2.3-7.1s-.75-5.1-2.3-7.1c-1.5-2-3.6-3-6.25-3s-4.75,1-6.3,3c-1.5,2-2.25,4.35-2.25,7.1Z"/>
      <path class="uuid-b12f296f-66fb-4db2-bd28-6d899b3c2f99" d="m1569.27,343.64h-3.1v-16.9c0-3.85-1.7-5.8-5.15-5.8-2.35,0-4.3,1.05-5.85,3.2-1.55,2.15-2.3,4.95-2.3,8.45v11.05h-3.1v-25.2h3.1v5.25c1.75-3.4,5.05-5.65,8.65-5.65,4.8,0,7.75,3.05,7.75,8.3v17.3Z"/>
      <path class="uuid-b12f296f-66fb-4db2-bd28-6d899b3c2f99" d="m1590.57,321.94l-2.2,1.9c-1.45-1.95-3.1-2.9-4.95-2.9-2.2,0-3.7,1.55-3.7,3.8,0,1.85,1.85,3.2,4.2,4.15,3.4,1.35,7.75,3,7.75,7.25,0,4.85-3,7.9-7.8,7.9s-7.95-3.1-9.1-6.9l2.75-1.45c1.25,3.45,2.95,5.45,6.35,5.45,2.95,0,4.55-1.7,4.55-4.5,0-2.05-1.85-3.55-4.2-4.4-3.4-1.35-7.7-2.75-7.7-7.45,0-4,3-6.75,7.05-6.75,2.85,0,5.15,1.3,7,3.9Z"/>
      <path class="uuid-b12f296f-66fb-4db2-bd28-6d899b3c2f99" d="m1628.92,343.64h-2.35l-.75-3.9c-1.65,2.85-4.3,4.3-7.95,4.3-4.6,0-7.85-2.45-7.85-7.65s4.35-8.25,11.6-8.25h4.2v-1.1c0-4.2-2.2-6.1-5.8-6.1-3.05,0-5.05,1.55-6,4.7l-3-.7c.65-4.2,4.4-6.9,9-6.9,2.55,0,4.7.8,6.35,2.4,1.7,1.55,2.55,3.75,2.55,6.5v16.7Zm-10.75-2.5c1.95,0,3.7-.75,5.25-2.25,1.6-1.5,2.4-3.8,2.4-6.9v-.95h-4.1c-5.6,0-8.45,1.95-8.45,5.35,0,3.05,1.85,4.75,4.9,4.75Z"/>
      <path class="uuid-b12f296f-66fb-4db2-bd28-6d899b3c2f99" d="m1649.97,321.84c-1.1-.6-2.3-.9-3.55-.9-4.05,0-6.95,4.7-6.95,12.95v9.75h-3.1v-25.2h3.1v4.5c1.55-3.25,4.05-4.9,7.4-4.9,1.15,0,2.4.3,3.8.85l-.7,2.95Z"/>
      <path class="uuid-b12f296f-66fb-4db2-bd28-6d899b3c2f99" d="m1676.02,331.04h-19c0,6,3,10.1,7.95,10.1,3.8,0,5.9-1.55,7.75-5.4l2.75,1.35c-2.55,5-5.7,6.95-10.5,6.95-3.35,0-6.05-1.2-8.1-3.65s-3.1-5.6-3.1-9.35,1.05-6.85,3.1-9.3,4.75-3.7,8.1-3.7,5.9,1.05,7.95,3.2c2.05,2.15,3.1,4.95,3.1,8.4v1.4Zm-18.8-2.9h15.6c-.6-4.45-3.4-7.2-7.85-7.2-4.05,0-6.9,2.95-7.75,7.2Z"/>
    </g>
    <g class="uuid-66805d02-3584-4ce9-a4e0-94a8ae16c987">
      <path class="uuid-b12f296f-66fb-4db2-bd28-6d899b3c2f99" d="m25.28,393.64h-2.35l-.75-3.9c-1.65,2.85-4.3,4.3-7.95,4.3-4.6,0-7.85-2.45-7.85-7.65s4.35-8.25,11.6-8.25h4.2v-1.1c0-4.2-2.2-6.1-5.8-6.1-3.05,0-5.05,1.55-6,4.7l-3-.7c.65-4.2,4.4-6.9,9-6.9,2.55,0,4.7.8,6.35,2.4,1.7,1.55,2.55,3.75,2.55,6.5v16.7Zm-10.75-2.5c1.95,0,3.7-.75,5.25-2.25,1.6-1.5,2.4-3.8,2.4-6.9v-.95h-4.1c-5.6,0-8.45,1.95-8.45,5.35,0,3.05,1.85,4.75,4.9,4.75Z"/>
      <path class="uuid-b12f296f-66fb-4db2-bd28-6d899b3c2f99" d="m52.08,393.64h-3.1v-16.9c0-3.85-1.7-5.8-5.15-5.8-2.35,0-4.3,1.05-5.85,3.2-1.55,2.15-2.3,4.95-2.3,8.45v11.05h-3.1v-25.2h3.1v5.25c1.75-3.4,5.05-5.65,8.65-5.65,4.8,0,7.75,3.05,7.75,8.3v17.3Z"/>
      <path class="uuid-b12f296f-66fb-4db2-bd28-6d899b3c2f99" d="m78.03,358.24h3.2v35.4h-3.2v-3.3c-1.35,2-4.65,3.7-7.85,3.7-3.55,0-6.3-1.2-8.3-3.65-1.95-2.45-2.95-5.6-2.95-9.35s1-6.85,2.95-9.3c2-2.45,4.75-3.7,8.3-3.7,2.75,0,6.05,1.6,7.85,3.95v-13.75Zm-7.7,32.9c5.2,0,8.1-4.15,8.1-10.1,0-2.95-.7-5.35-2.15-7.25-1.4-1.9-3.4-2.85-5.95-2.85s-4.55.95-6,2.85c-1.45,1.9-2.15,4.3-2.15,7.25,0,5.95,2.95,10.1,8.15,10.1Z"/>
      <path class="uuid-b12f296f-66fb-4db2-bd28-6d899b3c2f99" d="m117.13,371.94l-2.2,1.9c-1.45-1.95-3.1-2.9-4.95-2.9-2.2,0-3.7,1.55-3.7,3.8,0,1.85,1.85,3.2,4.2,4.15,3.4,1.35,7.75,3,7.75,7.25,0,4.85-3,7.9-7.8,7.9s-7.95-3.1-9.1-6.9l2.75-1.45c1.25,3.45,2.95,5.45,6.35,5.45,2.95,0,4.55-1.7,4.55-4.5,0-2.05-1.85-3.55-4.2-4.4-3.4-1.35-7.7-2.75-7.7-7.45,0-4,3-6.75,7.05-6.75,2.85,0,5.15,1.3,7,3.9Z"/>
      <path class="uuid-b12f296f-66fb-4db2-bd28-6d899b3c2f99" d="m144.48,393.64h-3.1v-16.9c0-3.65-1.85-5.8-5.25-5.8-2.35,0-4.4,1.1-6.05,3.3s-2.45,5.1-2.45,8.65v10.75h-3.1v-35.4h3.1v15.7c1.65-3.85,5.35-5.9,9-5.9,4.95,0,7.85,3.05,7.85,8.3v17.3Z"/>
      <path class="uuid-b12f296f-66fb-4db2-bd28-6d899b3c2f99" d="m170.03,393.64h-2.35l-.75-3.9c-1.65,2.85-4.3,4.3-7.95,4.3-4.6,0-7.85-2.45-7.85-7.65s4.35-8.25,11.6-8.25h4.2v-1.1c0-4.2-2.2-6.1-5.8-6.1-3.05,0-5.05,1.55-6,4.7l-3-.7c.65-4.2,4.4-6.9,9-6.9,2.55,0,4.7.8,6.35,2.4,1.7,1.55,2.55,3.75,2.55,6.5v16.7Zm-10.75-2.5c1.95,0,3.7-.75,5.25-2.25,1.6-1.5,2.4-3.8,2.4-6.9v-.95h-4.1c-5.6,0-8.45,1.95-8.45,5.35,0,3.05,1.85,4.75,4.9,4.75Z"/>
      <path class="uuid-b12f296f-66fb-4db2-bd28-6d899b3c2f99" d="m191.08,371.84c-1.1-.6-2.3-.9-3.55-.9-4.05,0-6.95,4.7-6.95,12.95v9.75h-3.1v-25.2h3.1v4.5c1.55-3.25,4.05-4.9,7.4-4.9,1.15,0,2.4.3,3.8.85l-.7,2.95Z"/>
      <path class="uuid-b12f296f-66fb-4db2-bd28-6d899b3c2f99" d="m217.13,381.04h-19c0,6,3,10.1,7.95,10.1,3.8,0,5.9-1.55,7.75-5.4l2.75,1.35c-2.55,5-5.7,6.95-10.5,6.95-3.35,0-6.05-1.2-8.1-3.65s-3.1-5.6-3.1-9.35,1.05-6.85,3.1-9.3,4.75-3.7,8.1-3.7,5.9,1.05,7.95,3.2c2.05,2.15,3.1,4.95,3.1,8.4v1.4Zm-18.8-2.9h15.6c-.6-4.45-3.4-7.2-7.85-7.2-4.05,0-6.9,2.95-7.75,7.2Z"/>
      <path class="uuid-b12f296f-66fb-4db2-bd28-6d899b3c2f99" d="m235.08,381.04c0-3.45,1.1-6.5,3.25-9.1,2.15-2.6,5-3.9,8.55-3.9s6.4,1.3,8.55,3.9c2.15,2.6,3.25,5.65,3.25,9.1s-1.1,6.5-3.25,9.1c-2.15,2.6-5,3.9-8.55,3.9s-6.4-1.3-8.55-3.9c-2.15-2.6-3.25-5.65-3.25-9.1Zm3.25,0c0,2.75.75,5.1,2.25,7.1,1.55,2,3.65,3,6.3,3s4.75-1,6.25-3c1.55-2,2.3-4.35,2.3-7.1s-.75-5.1-2.3-7.1c-1.5-2-3.6-3-6.25-3s-4.75,1-6.3,3c-1.5,2-2.25,4.35-2.25,7.1Z"/>
      <path class="uuid-b12f296f-66fb-4db2-bd28-6d899b3c2f99" d="m285.38,393.64h-3.1v-16.9c0-3.85-1.7-5.8-5.15-5.8-2.35,0-4.3,1.05-5.85,3.2-1.55,2.15-2.3,4.95-2.3,8.45v11.05h-3.1v-25.2h3.1v5.25c1.75-3.4,5.05-5.65,8.65-5.65,4.8,0,7.75,3.05,7.75,8.3v17.3Z"/>
      <path class="uuid-b12f296f-66fb-4db2-bd28-6d899b3c2f99" d="m314.53,381.04h-19c0,6,3,10.1,7.95,10.1,3.8,0,5.9-1.55,7.75-5.4l2.75,1.35c-2.55,5-5.7,6.95-10.5,6.95-3.35,0-6.05-1.2-8.1-3.65s-3.1-5.6-3.1-9.35,1.05-6.85,3.1-9.3,4.75-3.7,8.1-3.7,5.9,1.05,7.95,3.2c2.05,2.15,3.1,4.95,3.1,8.4v1.4Zm-18.8-2.9h15.6c-.6-4.45-3.4-7.2-7.85-7.2-4.05,0-6.9,2.95-7.75,7.2Z"/>
      <path class="uuid-b12f296f-66fb-4db2-bd28-6d899b3c2f99" d="m332.48,381.04c0-3.45,1.1-6.5,3.25-9.1,2.15-2.6,5-3.9,8.55-3.9s6.4,1.3,8.55,3.9c2.15,2.6,3.25,5.65,3.25,9.1s-1.1,6.5-3.25,9.1c-2.15,2.6-5,3.9-8.55,3.9s-6.4-1.3-8.55-3.9c-2.15-2.6-3.25-5.65-3.25-9.1Zm3.25,0c0,2.75.75,5.1,2.25,7.1,1.55,2,3.65,3,6.3,3s4.75-1,6.25-3c1.55-2,2.3-4.35,2.3-7.1s-.75-5.1-2.3-7.1c-1.5-2-3.6-3-6.25-3s-4.75,1-6.3,3c-1.5,2-2.25,4.35-2.25,7.1Z"/>
      <path class="uuid-b12f296f-66fb-4db2-bd28-6d899b3c2f99" d="m382.78,393.64h-3.1v-16.9c0-3.85-1.7-5.8-5.15-5.8-2.35,0-4.3,1.05-5.85,3.2-1.55,2.15-2.3,4.95-2.3,8.45v11.05h-3.1v-25.2h3.1v5.25c1.75-3.4,5.05-5.65,8.65-5.65,4.8,0,7.75,3.05,7.75,8.3v17.3Z"/>
      <path class="uuid-b12f296f-66fb-4db2-bd28-6d899b3c2f99" d="m401.23,371.34v-2.9h4.45v-8.15l3.2-2.05v10.2h6.7v2.9h-6.7v15.65c0,2.75,1.15,4.15,3.5,4.15,1.25,0,2.3-.25,3.15-.8l.85,2.8c-1.1.6-2.55.9-4.4.9-3.85,0-6.3-2.5-6.3-7.55v-15.15h-4.45Z"/>
      <path class="uuid-b12f296f-66fb-4db2-bd28-6d899b3c2f99" d="m442.18,393.64h-3.1v-16.9c0-3.65-1.85-5.8-5.25-5.8-2.35,0-4.4,1.1-6.05,3.3-1.65,2.2-2.45,5.1-2.45,8.65v10.75h-3.1v-35.4h3.1v15.7c1.65-3.85,5.35-5.9,9-5.9,4.95,0,7.85,3.05,7.85,8.3v17.3Z"/>
      <path class="uuid-b12f296f-66fb-4db2-bd28-6d899b3c2f99" d="m471.38,381.04h-19c0,6,3,10.1,7.95,10.1,3.8,0,5.9-1.55,7.75-5.4l2.75,1.35c-2.55,5-5.7,6.95-10.5,6.95-3.35,0-6.05-1.2-8.1-3.65s-3.1-5.6-3.1-9.35,1.05-6.85,3.1-9.3,4.75-3.7,8.1-3.7,5.9,1.05,7.95,3.2c2.05,2.15,3.1,4.95,3.1,8.4v1.4Zm-18.8-2.9h15.6c-.6-4.45-3.4-7.2-7.85-7.2-4.05,0-6.9,2.95-7.75,7.2Z"/>
      <path class="uuid-b12f296f-66fb-4db2-bd28-6d899b3c2f99" d="m524.63,393.64h-3.1v-16.9c0-3.95-1.15-5.8-4.5-5.8-2.1,0-3.9,1.05-5.35,3.2-1.45,2.15-2.15,4.95-2.15,8.45v11.05h-3.1v-16.9c0-3.95-1.15-5.8-4.5-5.8-2.1,0-3.9,1.05-5.35,3.2-1.45,2.15-2.15,4.95-2.15,8.45v11.05h-3.1v-25.2h3.1v5.25c1.6-3.45,4.45-5.65,8-5.65,3.8,0,6.1,1.85,6.85,5.6,1.75-3.25,4.9-5.6,8.25-5.6,4.85,0,7.1,2.7,7.1,8.3v17.3Z"/>
      <path class="uuid-b12f296f-66fb-4db2-bd28-6d899b3c2f99" d="m532.53,359.39c1-1,2.7-1,3.65,0,1,.95,1,2.65,0,3.65s-2.65.95-3.65,0c-.95-1-.95-2.7,0-3.65Zm.3,9.05h3.1v25.2h-3.1v-25.2Z"/>
      <path class="uuid-b12f296f-66fb-4db2-bd28-6d899b3c2f99" d="m557.18,371.84c-1.1-.6-2.3-.9-3.55-.9-4.05,0-6.95,4.7-6.95,12.95v9.75h-3.1v-25.2h3.1v4.5c1.55-3.25,4.05-4.9,7.4-4.9,1.15,0,2.4.3,3.8.85l-.7,2.95Z"/>
      <path class="uuid-b12f296f-66fb-4db2-bd28-6d899b3c2f99" d="m576.53,371.84c-1.1-.6-2.3-.9-3.55-.9-4.05,0-6.95,4.7-6.95,12.95v9.75h-3.1v-25.2h3.1v4.5c1.55-3.25,4.05-4.9,7.4-4.9,1.15,0,2.4.3,3.8.85l-.7,2.95Z"/>
      <path class="uuid-b12f296f-66fb-4db2-bd28-6d899b3c2f99" d="m580.33,381.04c0-3.45,1.1-6.5,3.25-9.1,2.15-2.6,5-3.9,8.55-3.9s6.4,1.3,8.55,3.9c2.15,2.6,3.25,5.65,3.25,9.1s-1.1,6.5-3.25,9.1c-2.15,2.6-5,3.9-8.55,3.9s-6.4-1.3-8.55-3.9c-2.15-2.6-3.25-5.65-3.25-9.1Zm3.25,0c0,2.75.75,5.1,2.25,7.1,1.55,2,3.65,3,6.3,3s4.75-1,6.25-3c1.55-2,2.3-4.35,2.3-7.1s-.75-5.1-2.3-7.1c-1.5-2-3.6-3-6.25-3s-4.75,1-6.3,3c-1.5,2-2.25,4.35-2.25,7.1Z"/>
      <path class="uuid-b12f296f-66fb-4db2-bd28-6d899b3c2f99" d="m623.78,371.84c-1.1-.6-2.3-.9-3.55-.9-4.05,0-6.95,4.7-6.95,12.95v9.75h-3.1v-25.2h3.1v4.5c1.55-3.25,4.05-4.9,7.4-4.9,1.15,0,2.4.3,3.8.85l-.7,2.95Z"/>
      <path class="uuid-b12f296f-66fb-4db2-bd28-6d899b3c2f99" d="m659.68,393.64h-2.35l-.75-3.9c-1.65,2.85-4.3,4.3-7.95,4.3-4.6,0-7.85-2.45-7.85-7.65s4.35-8.25,11.6-8.25h4.2v-1.1c0-4.2-2.2-6.1-5.8-6.1-3.05,0-5.05,1.55-6,4.7l-3-.7c.65-4.2,4.4-6.9,9-6.9,2.55,0,4.7.8,6.35,2.4,1.7,1.55,2.55,3.75,2.55,6.5v16.7Zm-10.75-2.5c1.95,0,3.7-.75,5.25-2.25,1.6-1.5,2.4-3.8,2.4-6.9v-.95h-4.1c-5.6,0-8.45,1.95-8.45,5.35,0,3.05,1.85,4.75,4.9,4.75Z"/>
      <path class="uuid-b12f296f-66fb-4db2-bd28-6d899b3c2f99" d="m681.18,371.94l-2.2,1.9c-1.45-1.95-3.1-2.9-4.95-2.9-2.2,0-3.7,1.55-3.7,3.8,0,1.85,1.85,3.2,4.2,4.15,3.4,1.35,7.75,3,7.75,7.25,0,4.85-3,7.9-7.8,7.9s-7.95-3.1-9.1-6.9l2.75-1.45c1.25,3.45,2.95,5.45,6.35,5.45,2.95,0,4.55-1.7,4.55-4.5,0-2.05-1.85-3.55-4.2-4.4-3.4-1.35-7.7-2.75-7.7-7.45,0-4,3-6.75,7.05-6.75,2.85,0,5.15,1.3,7,3.9Z"/>
      <path class="uuid-b12f296f-66fb-4db2-bd28-6d899b3c2f99" d="m699.13,371.34v-2.9h4.45v-8.15l3.2-2.05v10.2h6.7v2.9h-6.7v15.65c0,2.75,1.15,4.15,3.5,4.15,1.25,0,2.3-.25,3.15-.8l.85,2.8c-1.1.6-2.55.9-4.4.9-3.85,0-6.3-2.5-6.3-7.55v-15.15h-4.45Z"/>
      <path class="uuid-b12f296f-66fb-4db2-bd28-6d899b3c2f99" d="m740.08,393.64h-3.1v-16.9c0-3.65-1.85-5.8-5.25-5.8-2.35,0-4.4,1.1-6.05,3.3s-2.45,5.1-2.45,8.65v10.75h-3.1v-35.4h3.1v15.7c1.65-3.85,5.35-5.9,9-5.9,4.95,0,7.85,3.05,7.85,8.3v17.3Z"/>
      <path class="uuid-b12f296f-66fb-4db2-bd28-6d899b3c2f99" d="m769.28,381.04h-19c0,6,3,10.1,7.95,10.1,3.8,0,5.9-1.55,7.75-5.4l2.75,1.35c-2.55,5-5.7,6.95-10.5,6.95-3.35,0-6.05-1.2-8.1-3.65s-3.1-5.6-3.1-9.35,1.05-6.85,3.1-9.3,4.75-3.7,8.1-3.7,5.9,1.05,7.95,3.2c2.05,2.15,3.1,4.95,3.1,8.4v1.4Zm-18.8-2.9h15.6c-.6-4.45-3.4-7.2-7.85-7.2-4.05,0-6.9,2.95-7.75,7.2Z"/>
      <path class="uuid-b12f296f-66fb-4db2-bd28-6d899b3c2f99" d="m790.38,368.44h3.25l-12.5,35.4h-3.1l3.65-10.35-9.05-25.05h3.25l7.5,20.4,7-20.4Z"/>
      <path class="uuid-b12f296f-66fb-4db2-bd28-6d899b3c2f99" d="m811.68,358.24h3.1v35.4h-3.1v-35.4Z"/>
      <path class="uuid-b12f296f-66fb-4db2-bd28-6d899b3c2f99" d="m821.18,381.04c0-3.45,1.1-6.5,3.25-9.1,2.15-2.6,5-3.9,8.55-3.9s6.4,1.3,8.55,3.9c2.15,2.6,3.25,5.65,3.25,9.1s-1.1,6.5-3.25,9.1c-2.15,2.6-5,3.9-8.55,3.9s-6.4-1.3-8.55-3.9c-2.15-2.6-3.25-5.65-3.25-9.1Zm3.25,0c0,2.75.75,5.1,2.25,7.1,1.55,2,3.65,3,6.3,3s4.75-1,6.25-3c1.55-2,2.3-4.35,2.3-7.1s-.75-5.1-2.3-7.1c-1.5-2-3.6-3-6.25-3s-4.75,1-6.3,3c-1.5,2-2.25,4.35-2.25,7.1Z"/>
      <path class="uuid-b12f296f-66fb-4db2-bd28-6d899b3c2f99" d="m850.88,381.04c0-3.45,1.1-6.5,3.25-9.1,2.15-2.6,5-3.9,8.55-3.9s6.4,1.3,8.55,3.9c2.15,2.6,3.25,5.65,3.25,9.1s-1.1,6.5-3.25,9.1c-2.15,2.6-5,3.9-8.55,3.9s-6.4-1.3-8.55-3.9c-2.15-2.6-3.25-5.65-3.25-9.1Zm3.25,0c0,2.75.75,5.1,2.25,7.1,1.55,2,3.65,3,6.3,3s4.75-1,6.25-3c1.55-2,2.3-4.35,2.3-7.1s-.75-5.1-2.3-7.1c-1.5-2-3.6-3-6.25-3s-4.75,1-6.3,3c-1.5,2-2.25,4.35-2.25,7.1Z"/>
      <path class="uuid-b12f296f-66fb-4db2-bd28-6d899b3c2f99" d="m880.83,358.24h3.1v21.35l10.55-11.15h3.9l-10.9,11.55,11.8,13.65h-3.95l-11.4-13.25v13.25h-3.1v-35.4Z"/>
      <path class="uuid-b12f296f-66fb-4db2-bd28-6d899b3c2f99" d="m934.48,393.64h-2.35l-.75-3.9c-1.65,2.85-4.3,4.3-7.95,4.3-4.6,0-7.85-2.45-7.85-7.65s4.35-8.25,11.6-8.25h4.2v-1.1c0-4.2-2.2-6.1-5.8-6.1-3.05,0-5.05,1.55-6,4.7l-3-.7c.65-4.2,4.4-6.9,9-6.9,2.55,0,4.7.8,6.35,2.4,1.7,1.55,2.55,3.75,2.55,6.5v16.7Zm-10.75-2.5c1.95,0,3.7-.75,5.25-2.25,1.6-1.5,2.4-3.8,2.4-6.9v-.95h-4.1c-5.6,0-8.45,1.95-8.45,5.35,0,3.05,1.85,4.75,4.9,4.75Z"/>
      <path class="uuid-b12f296f-66fb-4db2-bd28-6d899b3c2f99" d="m939.08,371.34v-2.9h4.45v-8.15l3.2-2.05v10.2h6.7v2.9h-6.7v15.65c0,2.75,1.15,4.15,3.5,4.15,1.25,0,2.3-.25,3.15-.8l.85,2.8c-1.1.6-2.55.9-4.4.9-3.85,0-6.3-2.5-6.3-7.55v-15.15h-4.45Z"/>
      <path class="uuid-b12f296f-66fb-4db2-bd28-6d899b3c2f99" d="m970.22,371.34v-2.9h4.45v-8.15l3.2-2.05v10.2h6.7v2.9h-6.7v15.65c0,2.75,1.15,4.15,3.5,4.15,1.25,0,2.3-.25,3.15-.8l.85,2.8c-1.1.6-2.55.9-4.4.9-3.85,0-6.3-2.5-6.3-7.55v-15.15h-4.45Z"/>
      <path class="uuid-b12f296f-66fb-4db2-bd28-6d899b3c2f99" d="m1011.18,393.64h-3.1v-16.9c0-3.65-1.85-5.8-5.25-5.8-2.35,0-4.4,1.1-6.05,3.3s-2.45,5.1-2.45,8.65v10.75h-3.1v-35.4h3.1v15.7c1.65-3.85,5.35-5.9,9-5.9,4.95,0,7.85,3.05,7.85,8.3v17.3Z"/>
      <path class="uuid-b12f296f-66fb-4db2-bd28-6d899b3c2f99" d="m1040.38,381.04h-19c0,6,3,10.1,7.95,10.1,3.8,0,5.9-1.55,7.75-5.4l2.75,1.35c-2.55,5-5.7,6.95-10.5,6.95-3.35,0-6.05-1.2-8.1-3.65s-3.1-5.6-3.1-9.35,1.05-6.85,3.1-9.3,4.75-3.7,8.1-3.7,5.9,1.05,7.95,3.2c2.05,2.15,3.1,4.95,3.1,8.4v1.4Zm-18.8-2.9h15.6c-.6-4.45-3.4-7.2-7.85-7.2-4.05,0-6.9,2.95-7.75,7.2Z"/>
      <path class="uuid-b12f296f-66fb-4db2-bd28-6d899b3c2f99" d="m1048.02,359.39c1-1,2.7-1,3.65,0,1,.95,1,2.65,0,3.65s-2.65.95-3.65,0c-.95-1-.95-2.7,0-3.65Zm.3,9.05h3.1v25.2h-3.1v-25.2Z"/>
      <path class="uuid-b12f296f-66fb-4db2-bd28-6d899b3c2f99" d="m1072.67,371.84c-1.1-.6-2.3-.9-3.55-.9-4.05,0-6.95,4.7-6.95,12.95v9.75h-3.1v-25.2h3.1v4.5c1.55-3.25,4.05-4.9,7.4-4.9,1.15,0,2.4.3,3.8.85l-.7,2.95Z"/>
      <path class="uuid-b12f296f-66fb-4db2-bd28-6d899b3c2f99" d="m1105.22,371.84c-1.1-.6-2.3-.9-3.55-.9-4.05,0-6.95,4.7-6.95,12.95v9.75h-3.1v-25.2h3.1v4.5c1.55-3.25,4.05-4.9,7.4-4.9,1.15,0,2.4.3,3.8.85l-.7,2.95Z"/>
      <path class="uuid-b12f296f-66fb-4db2-bd28-6d899b3c2f99" d="m1131.28,381.04h-19c0,6,3,10.1,7.95,10.1,3.8,0,5.9-1.55,7.75-5.4l2.75,1.35c-2.55,5-5.7,6.95-10.5,6.95-3.35,0-6.05-1.2-8.1-3.65s-3.1-5.6-3.1-9.35,1.05-6.85,3.1-9.3,4.75-3.7,8.1-3.7,5.9,1.05,7.95,3.2,3.1,4.95,3.1,8.4v1.4Zm-18.8-2.9h15.6c-.6-4.45-3.4-7.2-7.85-7.2-4.05,0-6.9,2.95-7.75,7.2Z"/>
      <path class="uuid-b12f296f-66fb-4db2-bd28-6d899b3c2f99" d="m1136.32,371.34v-2.9h3.9v-1.6c0-5.75,2.6-8.6,7.8-8.6h10.45v35.4h-3.1v-32.5h-7.6c-2.95,0-4.45,1.75-4.45,5.2v2.1h6.1v2.9h-6.1v22.3h-3.1v-22.3h-3.9Z"/>
      <path class="uuid-b12f296f-66fb-4db2-bd28-6d899b3c2f99" d="m1187.92,381.04h-19c0,6,3,10.1,7.95,10.1,3.8,0,5.9-1.55,7.75-5.4l2.75,1.35c-2.55,5-5.7,6.95-10.5,6.95-3.35,0-6.05-1.2-8.1-3.65s-3.1-5.6-3.1-9.35,1.05-6.85,3.1-9.3,4.75-3.7,8.1-3.7,5.9,1.05,7.95,3.2,3.1,4.95,3.1,8.4v1.4Zm-18.8-2.9h15.6c-.6-4.45-3.4-7.2-7.85-7.2-4.05,0-6.9,2.95-7.75,7.2Z"/>
      <path class="uuid-b12f296f-66fb-4db2-bd28-6d899b3c2f99" d="m1214.87,387.09c-1.75,4.65-5.15,6.95-10.15,6.95-3.5,0-6.25-1.25-8.2-3.8-1.95-2.55-2.95-5.65-2.95-9.2s1-6.6,2.95-9.15c1.95-2.55,4.7-3.85,8.2-3.85,5,0,8.4,2.3,10.15,6.95l-2.8,1.1c-1.4-3.45-3.85-5.15-7.35-5.15-2.55,0-4.55.95-5.9,2.9-1.35,1.9-2,4.3-2,7.2s.65,5.3,2,7.25c1.35,1.9,3.35,2.85,5.9,2.85,3.5,0,5.95-1.7,7.35-5.15l2.8,1.1Z"/>
      <path class="uuid-b12f296f-66fb-4db2-bd28-6d899b3c2f99" d="m1219.22,371.34v-2.9h4.45v-8.15l3.2-2.05v10.2h6.7v2.9h-6.7v15.65c0,2.75,1.15,4.15,3.5,4.15,1.25,0,2.3-.25,3.15-.8l.85,2.8c-1.1.6-2.55.9-4.4.9-3.85,0-6.3-2.5-6.3-7.55v-15.15h-4.45Z"/>
      <path class="uuid-b12f296f-66fb-4db2-bd28-6d899b3c2f99" d="m1239.62,359.39c1-1,2.7-1,3.65,0,1,.95,1,2.65,0,3.65s-2.65.95-3.65,0c-.95-1-.95-2.7,0-3.65Zm.3,9.05h3.1v25.2h-3.1v-25.2Z"/>
      <path class="uuid-b12f296f-66fb-4db2-bd28-6d899b3c2f99" d="m1250.17,381.04c0-3.45,1.1-6.5,3.25-9.1,2.15-2.6,5-3.9,8.55-3.9s6.4,1.3,8.55,3.9c2.15,2.6,3.25,5.65,3.25,9.1s-1.1,6.5-3.25,9.1c-2.15,2.6-5,3.9-8.55,3.9s-6.4-1.3-8.55-3.9c-2.15-2.6-3.25-5.65-3.25-9.1Zm3.25,0c0,2.75.75,5.1,2.25,7.1,1.55,2,3.65,3,6.3,3s4.75-1,6.25-3c1.55-2,2.3-4.35,2.3-7.1s-.75-5.1-2.3-7.1c-1.5-2-3.6-3-6.25-3s-4.75,1-6.3,3c-1.5,2-2.25,4.35-2.25,7.1Z"/>
      <path class="uuid-b12f296f-66fb-4db2-bd28-6d899b3c2f99" d="m1300.47,393.64h-3.1v-16.9c0-3.85-1.7-5.8-5.15-5.8-2.35,0-4.3,1.05-5.85,3.2-1.55,2.15-2.3,4.95-2.3,8.45v11.05h-3.1v-25.2h3.1v5.25c1.75-3.4,5.05-5.65,8.65-5.65,4.8,0,7.75,3.05,7.75,8.3v17.3Z"/>
      <path class="uuid-b12f296f-66fb-4db2-bd28-6d899b3c2f99" d="m1321.77,371.94l-2.2,1.9c-1.45-1.95-3.1-2.9-4.95-2.9-2.2,0-3.7,1.55-3.7,3.8,0,1.85,1.85,3.2,4.2,4.15,3.4,1.35,7.75,3,7.75,7.25,0,4.85-3,7.9-7.8,7.9s-7.95-3.1-9.1-6.9l2.75-1.45c1.25,3.45,2.95,5.45,6.35,5.45,2.95,0,4.55-1.7,4.55-4.5,0-2.05-1.85-3.55-4.2-4.4-3.4-1.35-7.7-2.75-7.7-7.45,0-4,3-6.75,7.05-6.75,2.85,0,5.15,1.3,7,3.9Z"/>
      <path class="uuid-b12f296f-66fb-4db2-bd28-6d899b3c2f99" d="m1343.57,359.39c1-1,2.7-1,3.65,0,1,.95,1,2.65,0,3.65s-2.65.95-3.65,0c-.95-1-.95-2.7,0-3.65Zm.3,9.05h3.1v25.2h-3.1v-25.2Z"/>
      <path class="uuid-b12f296f-66fb-4db2-bd28-6d899b3c2f99" d="m1374.72,393.64h-3.1v-16.9c0-3.85-1.7-5.8-5.15-5.8-2.35,0-4.3,1.05-5.85,3.2-1.55,2.15-2.3,4.95-2.3,8.45v11.05h-3.1v-25.2h3.1v5.25c1.75-3.4,5.05-5.65,8.65-5.65,4.8,0,7.75,3.05,7.75,8.3v17.3Z"/>
      <path class="uuid-b12f296f-66fb-4db2-bd28-6d899b3c2f99" d="m1393.17,371.34v-2.9h4.45v-8.15l3.2-2.05v10.2h6.7v2.9h-6.7v15.65c0,2.75,1.15,4.15,3.5,4.15,1.25,0,2.3-.25,3.15-.8l.85,2.8c-1.1.6-2.55.9-4.4.9-3.85,0-6.3-2.5-6.3-7.55v-15.15h-4.45Z"/>
      <path class="uuid-b12f296f-66fb-4db2-bd28-6d899b3c2f99" d="m1434.12,393.64h-3.1v-16.9c0-3.65-1.85-5.8-5.25-5.8-2.35,0-4.4,1.1-6.05,3.3s-2.45,5.1-2.45,8.65v10.75h-3.1v-35.4h3.1v15.7c1.65-3.85,5.35-5.9,9-5.9,4.95,0,7.85,3.05,7.85,8.3v17.3Z"/>
      <path class="uuid-b12f296f-66fb-4db2-bd28-6d899b3c2f99" d="m1463.32,381.04h-19c0,6,3,10.1,7.95,10.1,3.8,0,5.9-1.55,7.75-5.4l2.75,1.35c-2.55,5-5.7,6.95-10.5,6.95-3.35,0-6.05-1.2-8.1-3.65s-3.1-5.6-3.1-9.35,1.05-6.85,3.1-9.3,4.75-3.7,8.1-3.7,5.9,1.05,7.95,3.2,3.1,4.95,3.1,8.4v1.4Zm-18.8-2.9h15.6c-.6-4.45-3.4-7.2-7.85-7.2-4.05,0-6.9,2.95-7.75,7.2Z"/>
      <path class="uuid-b12f296f-66fb-4db2-bd28-6d899b3c2f99" d="m1470.97,359.39c1-1,2.7-1,3.65,0,1,.95,1,2.65,0,3.65s-2.65.95-3.65,0c-.95-1-.95-2.7,0-3.65Zm.3,9.05h3.1v25.2h-3.1v-25.2Z"/>
      <path class="uuid-b12f296f-66fb-4db2-bd28-6d899b3c2f99" d="m1495.62,371.84c-1.1-.6-2.3-.9-3.55-.9-4.05,0-6.95,4.7-6.95,12.95v9.75h-3.1v-25.2h3.1v4.5c1.55-3.25,4.05-4.9,7.4-4.9,1.15,0,2.4.3,3.8.85l-.7,2.95Z"/>
      <path class="uuid-b12f296f-66fb-4db2-bd28-6d899b3c2f99" d="m1534.82,381.04h-19c0,6,3,10.1,7.95,10.1,3.8,0,5.9-1.55,7.75-5.4l2.75,1.35c-2.55,5-5.7,6.95-10.5,6.95-3.35,0-6.05-1.2-8.1-3.65s-3.1-5.6-3.1-9.35,1.05-6.85,3.1-9.3,4.75-3.7,8.1-3.7,5.9,1.05,7.95,3.2c2.05,2.15,3.1,4.95,3.1,8.4v1.4Zm-18.8-2.9h15.6c-.6-4.45-3.4-7.2-7.85-7.2-4.05,0-6.9,2.95-7.75,7.2Z"/>
      <path class="uuid-b12f296f-66fb-4db2-bd28-6d899b3c2f99" d="m1555.92,368.44h3.25l-12.5,35.4h-3.1l3.65-10.35-9.05-25.05h3.25l7.5,20.4,7-20.4Z"/>
      <path class="uuid-b12f296f-66fb-4db2-bd28-6d899b3c2f99" d="m1585.27,381.04h-19c0,6,3,10.1,7.95,10.1,3.8,0,5.9-1.55,7.75-5.4l2.75,1.35c-2.55,5-5.7,6.95-10.5,6.95-3.35,0-6.05-1.2-8.1-3.65s-3.1-5.6-3.1-9.35,1.05-6.85,3.1-9.3,4.75-3.7,8.1-3.7,5.9,1.05,7.95,3.2c2.05,2.15,3.1,4.95,3.1,8.4v1.4Zm-18.8-2.9h15.6c-.6-4.45-3.4-7.2-7.85-7.2-4.05,0-6.9,2.95-7.75,7.2Z"/>
      <path class="uuid-b12f296f-66fb-4db2-bd28-6d899b3c2f99" d="m1606.02,371.94l-2.2,1.9c-1.45-1.95-3.1-2.9-4.95-2.9-2.2,0-3.7,1.55-3.7,3.8,0,1.85,1.85,3.2,4.2,4.15,3.4,1.35,7.75,3,7.75,7.25,0,4.85-3,7.9-7.8,7.9s-7.95-3.1-9.1-6.9l2.75-1.45c1.25,3.45,2.95,5.45,6.35,5.45,2.95,0,4.55-1.7,4.55-4.5,0-2.05-1.85-3.55-4.2-4.4-3.4-1.35-7.7-2.75-7.7-7.45,0-4,3-6.75,7.05-6.75,2.85,0,5.15,1.3,7,3.9Z"/>
      <path class="uuid-b12f296f-66fb-4db2-bd28-6d899b3c2f99" d="m1610.97,397.49l2.5-8.25h4.6l-4.8,8.25h-2.3Z"/>
      <path class="uuid-b12f296f-66fb-4db2-bd28-6d899b3c2f99" d="m1638.17,383.94c0-5.2,3.15-8.85,6.95-10.8-2.2-3-3.3-5.5-3.3-7.45,0-4.65,3.35-7.45,7.55-7.45,4.65,0,7.65,2.85,7.65,7,0,3.35-2.45,6.35-7.4,8.9l8.15,10.45c.95-1.8,1.8-3.95,2.65-6.4l2.15,2.5c-.95,2.65-1.9,4.75-2.85,6.4l5.15,6.55h-3.6l-3.25-4.1c-2.45,3-5.65,4.5-9.65,4.5-6.15,0-10.2-3.75-10.2-10.1Zm17.95,3.2l-9.2-11.75c-3.75,2.05-5.65,4.9-5.65,8.65,0,4.25,2.9,7.1,7.1,7.1,3.15,0,5.75-1.35,7.75-4Zm-11.2-21.25c0,1.5.95,3.5,2.9,6,4.2-2.05,6.1-3.8,6.1-6.4s-1.6-4.55-4.55-4.55c-2.75,0-4.45,1.8-4.45,4.95Z"/>
    </g>
    <g class="uuid-66805d02-3584-4ce9-a4e0-94a8ae16c987">
      <path class="uuid-b12f296f-66fb-4db2-bd28-6d899b3c2f99" d="m8.73,409.39c1-1,2.7-1,3.65,0,1,.95,1,2.65,0,3.65s-2.65.95-3.65,0c-.95-1-.95-2.7,0-3.65Zm.3,9.05h3.1v25.2h-3.1v-25.2Z"/>
      <path class="uuid-b12f296f-66fb-4db2-bd28-6d899b3c2f99" d="m39.88,443.64h-3.1v-16.9c0-3.85-1.7-5.8-5.15-5.8-2.35,0-4.3,1.05-5.85,3.2-1.55,2.15-2.3,4.95-2.3,8.45v11.05h-3.1v-25.2h3.1v5.25c1.75-3.4,5.05-5.65,8.65-5.65,4.8,0,7.75,3.05,7.75,8.3v17.3Z"/>
      <path class="uuid-b12f296f-66fb-4db2-bd28-6d899b3c2f99" d="m44.53,421.34v-2.9h4.45v-8.15l3.2-2.05v10.2h6.7v2.9h-6.7v15.65c0,2.75,1.15,4.15,3.5,4.15,1.25,0,2.3-.25,3.15-.8l.85,2.8c-1.1.6-2.55.9-4.4.9-3.85,0-6.3-2.5-6.3-7.55v-15.15h-4.45Z"/>
      <path class="uuid-b12f296f-66fb-4db2-bd28-6d899b3c2f99" d="m63.68,431.04c0-3.45,1.1-6.5,3.25-9.1,2.15-2.6,5-3.9,8.55-3.9s6.4,1.3,8.55,3.9c2.15,2.6,3.25,5.65,3.25,9.1s-1.1,6.5-3.25,9.1c-2.15,2.6-5,3.9-8.55,3.9s-6.4-1.3-8.55-3.9c-2.15-2.6-3.25-5.65-3.25-9.1Zm3.25,0c0,2.75.75,5.1,2.25,7.1,1.55,2,3.65,3,6.3,3s4.75-1,6.25-3c1.55-2,2.3-4.35,2.3-7.1s-.75-5.1-2.3-7.1c-1.5-2-3.6-3-6.25-3s-4.75,1-6.3,3c-1.5,2-2.25,4.35-2.25,7.1Z"/>
      <path class="uuid-b12f296f-66fb-4db2-bd28-6d899b3c2f99" d="m104.03,421.34v-2.9h4.45v-8.15l3.2-2.05v10.2h6.7v2.9h-6.7v15.65c0,2.75,1.15,4.15,3.5,4.15,1.25,0,2.3-.25,3.15-.8l.85,2.8c-1.1.6-2.55.9-4.4.9-3.85,0-6.3-2.5-6.3-7.55v-15.15h-4.45Z"/>
      <path class="uuid-b12f296f-66fb-4db2-bd28-6d899b3c2f99" d="m144.98,443.64h-3.1v-16.9c0-3.65-1.85-5.8-5.25-5.8-2.35,0-4.4,1.1-6.05,3.3-1.65,2.2-2.45,5.1-2.45,8.65v10.75h-3.1v-35.4h3.1v15.7c1.65-3.85,5.35-5.9,9-5.9,4.95,0,7.85,3.05,7.85,8.3v17.3Z"/>
      <path class="uuid-b12f296f-66fb-4db2-bd28-6d899b3c2f99" d="m174.18,431.04h-19c0,6,3,10.1,7.95,10.1,3.8,0,5.9-1.55,7.75-5.4l2.75,1.35c-2.55,5-5.7,6.95-10.5,6.95-3.35,0-6.05-1.2-8.1-3.65s-3.1-5.6-3.1-9.35,1.05-6.85,3.1-9.3,4.75-3.7,8.1-3.7,5.9,1.05,7.95,3.2c2.05,2.15,3.1,4.95,3.1,8.4v1.4Zm-18.8-2.9h15.6c-.6-4.45-3.4-7.2-7.85-7.2-4.05,0-6.9,2.95-7.75,7.2Z"/>
      <path class="uuid-b12f296f-66fb-4db2-bd28-6d899b3c2f99" d="m181.83,409.39c1-1,2.7-1,3.65,0,1,.95,1,2.65,0,3.65s-2.65.95-3.65,0c-.95-1-.95-2.7,0-3.65Zm.3,9.05h3.1v25.2h-3.1v-25.2Z"/>
      <path class="uuid-b12f296f-66fb-4db2-bd28-6d899b3c2f99" d="m206.48,421.84c-1.1-.6-2.3-.9-3.55-.9-4.05,0-6.95,4.7-6.95,12.95v9.75h-3.1v-25.2h3.1v4.5c1.55-3.25,4.05-4.9,7.4-4.9,1.15,0,2.4.3,3.8.85l-.7,2.95Z"/>
      <path class="uuid-b12f296f-66fb-4db2-bd28-6d899b3c2f99" d="m239.13,421.94l-2.2,1.9c-1.45-1.95-3.1-2.9-4.95-2.9-2.2,0-3.7,1.55-3.7,3.8,0,1.85,1.85,3.2,4.2,4.15,3.4,1.35,7.75,3,7.75,7.25,0,4.85-3,7.9-7.8,7.9s-7.95-3.1-9.1-6.9l2.75-1.45c1.25,3.45,2.95,5.45,6.35,5.45,2.95,0,4.55-1.7,4.55-4.5,0-2.05-1.85-3.55-4.2-4.4-3.4-1.35-7.7-2.75-7.7-7.45,0-4,3-6.75,7.05-6.75,2.85,0,5.15,1.3,7,3.9Z"/>
      <path class="uuid-b12f296f-66fb-4db2-bd28-6d899b3c2f99" d="m245.13,431.04c0-3.45,1.1-6.5,3.25-9.1,2.15-2.6,5-3.9,8.55-3.9s6.4,1.3,8.55,3.9c2.15,2.6,3.25,5.65,3.25,9.1s-1.1,6.5-3.25,9.1c-2.15,2.6-5,3.9-8.55,3.9s-6.4-1.3-8.55-3.9c-2.15-2.6-3.25-5.65-3.25-9.1Zm3.25,0c0,2.75.75,5.1,2.25,7.1,1.55,2,3.65,3,6.3,3s4.75-1,6.25-3c1.55-2,2.3-4.35,2.3-7.1s-.75-5.1-2.3-7.1c-1.5-2-3.6-3-6.25-3s-4.75,1-6.3,3c-1.5,2-2.25,4.35-2.25,7.1Z"/>
      <path class="uuid-b12f296f-66fb-4db2-bd28-6d899b3c2f99" d="m275.23,418.44h3.1v16.9c0,3.85,1.7,5.8,5.15,5.8,2.35,0,4.25-1.05,5.8-3.2,1.55-2.15,2.35-4.95,2.35-8.45v-11.05h3.1v25.2h-3.1v-5.25c-1.75,3.4-5.05,5.65-8.65,5.65-4.8,0-7.75-3.05-7.75-8.3v-17.3Z"/>
      <path class="uuid-b12f296f-66fb-4db2-bd28-6d899b3c2f99" d="m302.23,408.24h3.1v35.4h-3.1v-35.4Z"/>
      <path class="uuid-b12f296f-66fb-4db2-bd28-6d899b3c2f99" d="m327.28,421.94l-2.2,1.9c-1.45-1.95-3.1-2.9-4.95-2.9-2.2,0-3.7,1.55-3.7,3.8,0,1.85,1.85,3.2,4.2,4.15,3.4,1.35,7.75,3,7.75,7.25,0,4.85-3,7.9-7.8,7.9s-7.95-3.1-9.1-6.9l2.75-1.45c1.25,3.45,2.95,5.45,6.35,5.45,2.95,0,4.55-1.7,4.55-4.5,0-2.05-1.85-3.55-4.2-4.4-3.4-1.35-7.7-2.75-7.7-7.45,0-4,3-6.75,7.05-6.75,2.85,0,5.15,1.3,7,3.9Z"/>
      <path class="uuid-b12f296f-66fb-4db2-bd28-6d899b3c2f99" d="m332.23,447.49l2.5-8.25h4.6l-4.8,8.25h-2.3Z"/>
      <path class="uuid-b12f296f-66fb-4db2-bd28-6d899b3c2f99" d="m356.83,421.34v-2.9h4.45v-8.15l3.2-2.05v10.2h6.7v2.9h-6.7v15.65c0,2.75,1.15,4.15,3.5,4.15,1.25,0,2.3-.25,3.15-.8l.85,2.8c-1.1.6-2.55.9-4.4.9-3.85,0-6.3-2.5-6.3-7.55v-15.15h-4.45Z"/>
      <path class="uuid-b12f296f-66fb-4db2-bd28-6d899b3c2f99" d="m397.78,443.64h-3.1v-16.9c0-3.65-1.85-5.8-5.25-5.8-2.35,0-4.4,1.1-6.05,3.3s-2.45,5.1-2.45,8.65v10.75h-3.1v-35.4h3.1v15.7c1.65-3.85,5.35-5.9,9-5.9,4.95,0,7.85,3.05,7.85,8.3v17.3Z"/>
      <path class="uuid-b12f296f-66fb-4db2-bd28-6d899b3c2f99" d="m426.98,431.04h-19c0,6,3,10.1,7.95,10.1,3.8,0,5.9-1.55,7.75-5.4l2.75,1.35c-2.55,5-5.7,6.95-10.5,6.95-3.35,0-6.05-1.2-8.1-3.65s-3.1-5.6-3.1-9.35,1.05-6.85,3.1-9.3,4.75-3.7,8.1-3.7,5.9,1.05,7.95,3.2c2.05,2.15,3.1,4.95,3.1,8.4v1.4Zm-18.8-2.9h15.6c-.6-4.45-3.4-7.2-7.85-7.2-4.05,0-6.9,2.95-7.75,7.2Z"/>
      <path class="uuid-b12f296f-66fb-4db2-bd28-6d899b3c2f99" d="m463.88,443.64h-2.35l-.75-3.9c-1.65,2.85-4.3,4.3-7.95,4.3-4.6,0-7.85-2.45-7.85-7.65s4.35-8.25,11.6-8.25h4.2v-1.1c0-4.2-2.2-6.1-5.8-6.1-3.05,0-5.05,1.55-6,4.7l-3-.7c.65-4.2,4.4-6.9,9-6.9,2.55,0,4.7.8,6.35,2.4,1.7,1.55,2.55,3.75,2.55,6.5v16.7Zm-10.75-2.5c1.95,0,3.7-.75,5.25-2.25,1.6-1.5,2.4-3.8,2.4-6.9v-.95h-4.1c-5.6,0-8.45,1.95-8.45,5.35,0,3.05,1.85,4.75,4.9,4.75Z"/>
      <path class="uuid-b12f296f-66fb-4db2-bd28-6d899b3c2f99" d="m468.83,421.34v-2.9h4v-1.6c0-5.75,2.6-8.6,7.8-8.6,1.2,0,2.2.2,3,.65l-.65,2.85c-.85-.4-1.75-.6-2.6-.6-2.95,0-4.45,1.75-4.45,5.2v2.1h6.1v2.9h-6.1v22.3h-3.1v-22.3h-4Z"/>
      <path class="uuid-b12f296f-66fb-4db2-bd28-6d899b3c2f99" d="m486.78,421.34v-2.9h4v-.8c0-2.9.95-5.2,2.8-6.85,1.9-1.7,4.25-2.55,7-2.55,2.15,0,3.95.5,5.5,1.45l-.65,2.85c-1.65-.95-3.35-1.4-5.1-1.4-3.85,0-6.45,2.45-6.45,6v1.3h13.2v25.2h-3.1v-22.3h-10.1v22.3h-3.1v-22.3h-4Z"/>
      <path class="uuid-b12f296f-66fb-4db2-bd28-6d899b3c2f99" d="m529.58,421.84c-1.1-.6-2.3-.9-3.55-.9-4.05,0-6.95,4.7-6.95,12.95v9.75h-3.1v-25.2h3.1v4.5c1.55-3.25,4.05-4.9,7.4-4.9,1.15,0,2.4.3,3.8.85l-.7,2.95Z"/>
      <path class="uuid-b12f296f-66fb-4db2-bd28-6d899b3c2f99" d="m568.58,443.64h-3.1v-16.9c0-3.95-1.15-5.8-4.5-5.8-2.1,0-3.9,1.05-5.35,3.2-1.45,2.15-2.15,4.95-2.15,8.45v11.05h-3.1v-16.9c0-3.95-1.15-5.8-4.5-5.8-2.1,0-3.9,1.05-5.35,3.2-1.45,2.15-2.15,4.95-2.15,8.45v11.05h-3.1v-25.2h3.1v5.25c1.6-3.45,4.45-5.65,8-5.65,3.8,0,6.1,1.85,6.85,5.6,1.75-3.25,4.9-5.6,8.25-5.6,4.85,0,7.1,2.7,7.1,8.3v17.3Z"/>
      <path class="uuid-b12f296f-66fb-4db2-bd28-6d899b3c2f99" d="m594.43,443.64h-2.35l-.75-3.9c-1.65,2.85-4.3,4.3-7.95,4.3-4.6,0-7.85-2.45-7.85-7.65s4.35-8.25,11.6-8.25h4.2v-1.1c0-4.2-2.2-6.1-5.8-6.1-3.05,0-5.05,1.55-6,4.7l-3-.7c.65-4.2,4.4-6.9,9-6.9,2.55,0,4.7.8,6.35,2.4,1.7,1.55,2.55,3.75,2.55,6.5v16.7Zm-10.75-2.5c1.95,0,3.7-.75,5.25-2.25,1.6-1.5,2.4-3.8,2.4-6.9v-.95h-4.1c-5.6,0-8.45,1.95-8.45,5.35,0,3.05,1.85,4.75,4.9,4.75Z"/>
      <path class="uuid-b12f296f-66fb-4db2-bd28-6d899b3c2f99" d="m599.03,421.34v-2.9h4.45v-8.15l3.2-2.05v10.2h6.7v2.9h-6.7v15.65c0,2.75,1.15,4.15,3.5,4.15,1.25,0,2.3-.25,3.15-.8l.85,2.8c-1.1.6-2.55.9-4.4.9-3.85,0-6.3-2.5-6.3-7.55v-15.15h-4.45Z"/>
      <path class="uuid-b12f296f-66fb-4db2-bd28-6d899b3c2f99" d="m619.43,409.39c1-1,2.7-1,3.65,0,1,.95,1,2.65,0,3.65s-2.65.95-3.65,0c-.95-1-.95-2.7,0-3.65Zm.3,9.05h3.1v25.2h-3.1v-25.2Z"/>
      <path class="uuid-b12f296f-66fb-4db2-bd28-6d899b3c2f99" d="m629.98,431.04c0-3.45,1.1-6.5,3.25-9.1,2.15-2.6,5-3.9,8.55-3.9s6.4,1.3,8.55,3.9c2.15,2.6,3.25,5.65,3.25,9.1s-1.1,6.5-3.25,9.1c-2.15,2.6-5,3.9-8.55,3.9s-6.4-1.3-8.55-3.9c-2.15-2.6-3.25-5.65-3.25-9.1Zm3.25,0c0,2.75.75,5.1,2.25,7.1,1.55,2,3.65,3,6.3,3s4.75-1,6.25-3c1.55-2,2.3-4.35,2.3-7.1s-.75-5.1-2.3-7.1c-1.5-2-3.6-3-6.25-3s-4.75,1-6.3,3c-1.5,2-2.25,4.35-2.25,7.1Z"/>
      <path class="uuid-b12f296f-66fb-4db2-bd28-6d899b3c2f99" d="m680.28,443.64h-3.1v-16.9c0-3.85-1.7-5.8-5.15-5.8-2.35,0-4.3,1.05-5.85,3.2-1.55,2.15-2.3,4.95-2.3,8.45v11.05h-3.1v-25.2h3.1v5.25c1.75-3.4,5.05-5.65,8.65-5.65,4.8,0,7.75,3.05,7.75,8.3v17.3Z"/>
      <path class="uuid-b12f296f-66fb-4db2-bd28-6d899b3c2f99" d="m701.58,421.94l-2.2,1.9c-1.45-1.95-3.1-2.9-4.95-2.9-2.2,0-3.7,1.55-3.7,3.8,0,1.85,1.85,3.2,4.2,4.15,3.4,1.35,7.75,3,7.75,7.25,0,4.85-3,7.9-7.8,7.9s-7.95-3.1-9.1-6.9l2.75-1.45c1.25,3.45,2.95,5.45,6.35,5.45,2.95,0,4.55-1.7,4.55-4.5,0-2.05-1.85-3.55-4.2-4.4-3.4-1.35-7.7-2.75-7.7-7.45,0-4,3-6.75,7.05-6.75,2.85,0,5.15,1.3,7,3.9Z"/>
      <path class="uuid-b12f296f-66fb-4db2-bd28-6d899b3c2f99" d="m723.68,418.44h3.1v28.4c0,4.25-2.1,6.75-6.25,7.4l-.7-2.9c2.75-.8,3.85-2,3.85-4.95v-27.95Zm-.3-9.05c1-1,2.7-1,3.65,0,1,.95,1,2.65,0,3.65s-2.65.95-3.65,0c-.95-1-.95-2.7,0-3.65Z"/>
      <path class="uuid-b12f296f-66fb-4db2-bd28-6d899b3c2f99" d="m734.03,418.44h3.1v16.9c0,3.85,1.7,5.8,5.15,5.8,2.35,0,4.25-1.05,5.8-3.2,1.55-2.15,2.35-4.95,2.35-8.45v-11.05h3.1v25.2h-3.1v-5.25c-1.75,3.4-5.05,5.65-8.65,5.65-4.8,0-7.75-3.05-7.75-8.3v-17.3Z"/>
      <path class="uuid-b12f296f-66fb-4db2-bd28-6d899b3c2f99" d="m775.23,421.94l-2.2,1.9c-1.45-1.95-3.1-2.9-4.95-2.9-2.2,0-3.7,1.55-3.7,3.8,0,1.85,1.85,3.2,4.2,4.15,3.4,1.35,7.75,3,7.75,7.25,0,4.85-3,7.9-7.8,7.9s-7.95-3.1-9.1-6.9l2.75-1.45c1.25,3.45,2.95,5.45,6.35,5.45,2.95,0,4.55-1.7,4.55-4.5,0-2.05-1.85-3.55-4.2-4.4-3.4-1.35-7.7-2.75-7.7-7.45,0-4,3-6.75,7.05-6.75,2.85,0,5.15,1.3,7,3.9Z"/>
      <path class="uuid-b12f296f-66fb-4db2-bd28-6d899b3c2f99" d="m779.78,421.34v-2.9h4.45v-8.15l3.2-2.05v10.2h6.7v2.9h-6.7v15.65c0,2.75,1.15,4.15,3.5,4.15,1.25,0,2.3-.25,3.15-.8l.85,2.8c-1.1.6-2.55.9-4.4.9-3.85,0-6.3-2.5-6.3-7.55v-15.15h-4.45Z"/>
      <path class="uuid-b12f296f-66fb-4db2-bd28-6d899b3c2f99" d="m834.33,443.64h-3.1v-16.9c0-3.65-1.85-5.8-5.25-5.8-2.35,0-4.4,1.1-6.05,3.3s-2.45,5.1-2.45,8.65v10.75h-3.1v-35.4h3.1v15.7c1.65-3.85,5.35-5.9,9-5.9,4.95,0,7.85,3.05,7.85,8.3v17.3Z"/>
      <path class="uuid-b12f296f-66fb-4db2-bd28-6d899b3c2f99" d="m842.43,409.39c1-1,2.7-1,3.65,0,1,.95,1,2.65,0,3.65s-2.65.95-3.65,0c-.95-1-.95-2.7,0-3.65Zm.3,9.05h3.1v25.2h-3.1v-25.2Z"/>
      <path class="uuid-b12f296f-66fb-4db2-bd28-6d899b3c2f99" d="m851.73,421.34v-2.9h4.45v-8.15l3.2-2.05v10.2h6.7v2.9h-6.7v15.65c0,2.75,1.15,4.15,3.5,4.15,1.25,0,2.3-.25,3.15-.8l.85,2.8c-1.1.6-2.55.9-4.4.9-3.85,0-6.3-2.5-6.3-7.55v-15.15h-4.45Z"/>
      <path class="uuid-b12f296f-66fb-4db2-bd28-6d899b3c2f99" d="m903.43,408.24h3.2v35.4h-3.2v-3.3c-1.35,2-4.65,3.7-7.85,3.7-3.55,0-6.3-1.2-8.3-3.65-1.95-2.45-2.95-5.6-2.95-9.35s1-6.85,2.95-9.3c2-2.45,4.75-3.7,8.3-3.7,2.75,0,6.05,1.6,7.85,3.95v-13.75Zm-7.7,32.9c5.2,0,8.1-4.15,8.1-10.1,0-2.95-.7-5.35-2.15-7.25-1.4-1.9-3.4-2.85-5.95-2.85s-4.55.95-6,2.85c-1.45,1.9-2.15,4.3-2.15,7.25,0,5.95,2.95,10.1,8.15,10.1Z"/>
      <path class="uuid-b12f296f-66fb-4db2-bd28-6d899b3c2f99" d="m914.17,409.39c1-1,2.7-1,3.65,0,1,.95,1,2.65,0,3.65s-2.65.95-3.65,0c-.95-1-.95-2.7,0-3.65Zm.3,9.05h3.1v25.2h-3.1v-25.2Z"/>
      <path class="uuid-b12f296f-66fb-4db2-bd28-6d899b3c2f99" d="m923.47,421.34v-2.9h4v-1.6c0-5.75,2.6-8.6,7.8-8.6,1.2,0,2.2.2,3,.65l-.65,2.85c-.85-.4-1.75-.6-2.6-.6-2.95,0-4.45,1.75-4.45,5.2v2.1h6.1v2.9h-6.1v22.3h-3.1v-22.3h-4Z"/>
      <path class="uuid-b12f296f-66fb-4db2-bd28-6d899b3c2f99" d="m941.08,421.34v-2.9h4v-1.6c0-5.75,2.6-8.6,7.8-8.6,1.2,0,2.2.2,3,.65l-.65,2.85c-.85-.4-1.75-.6-2.6-.6-2.95,0-4.45,1.75-4.45,5.2v2.1h6.1v2.9h-6.1v22.3h-3.1v-22.3h-4Z"/>
      <path class="uuid-b12f296f-66fb-4db2-bd28-6d899b3c2f99" d="m980.18,431.04h-19c0,6,3,10.1,7.95,10.1,3.8,0,5.9-1.55,7.75-5.4l2.75,1.35c-2.55,5-5.7,6.95-10.5,6.95-3.35,0-6.05-1.2-8.1-3.65-2.05-2.45-3.1-5.6-3.1-9.35s1.05-6.85,3.1-9.3c2.05-2.45,4.75-3.7,8.1-3.7s5.9,1.05,7.95,3.2c2.05,2.15,3.1,4.95,3.1,8.4v1.4Zm-18.8-2.9h15.6c-.6-4.45-3.4-7.2-7.85-7.2-4.05,0-6.9,2.95-7.75,7.2Z"/>
      <path class="uuid-b12f296f-66fb-4db2-bd28-6d899b3c2f99" d="m1000.73,421.84c-1.1-.6-2.3-.9-3.55-.9-4.05,0-6.95,4.7-6.95,12.95v9.75h-3.1v-25.2h3.1v4.5c1.55-3.25,4.05-4.9,7.4-4.9,1.15,0,2.4.3,3.8.85l-.7,2.95Z"/>
      <path class="uuid-b12f296f-66fb-4db2-bd28-6d899b3c2f99" d="m1026.78,431.04h-19c0,6,3,10.1,7.95,10.1,3.8,0,5.9-1.55,7.75-5.4l2.75,1.35c-2.55,5-5.7,6.95-10.5,6.95-3.35,0-6.05-1.2-8.1-3.65s-3.1-5.6-3.1-9.35,1.05-6.85,3.1-9.3,4.75-3.7,8.1-3.7,5.9,1.05,7.95,3.2c2.05,2.15,3.1,4.95,3.1,8.4v1.4Zm-18.8-2.9h15.6c-.6-4.45-3.4-7.2-7.85-7.2-4.05,0-6.9,2.95-7.75,7.2Z"/>
      <path class="uuid-b12f296f-66fb-4db2-bd28-6d899b3c2f99" d="m1053.13,443.64h-3.1v-16.9c0-3.85-1.7-5.8-5.15-5.8-2.35,0-4.3,1.05-5.85,3.2-1.55,2.15-2.3,4.95-2.3,8.45v11.05h-3.1v-25.2h3.1v5.25c1.75-3.4,5.05-5.65,8.65-5.65,4.8,0,7.75,3.05,7.75,8.3v17.3Z"/>
      <path class="uuid-b12f296f-66fb-4db2-bd28-6d899b3c2f99" d="m1057.77,421.34v-2.9h4.45v-8.15l3.2-2.05v10.2h6.7v2.9h-6.7v15.65c0,2.75,1.15,4.15,3.5,4.15,1.25,0,2.3-.25,3.15-.8l.85,2.8c-1.1.6-2.55.9-4.4.9-3.85,0-6.3-2.5-6.3-7.55v-15.15h-4.45Z"/>
      <path class="uuid-b12f296f-66fb-4db2-bd28-6d899b3c2f99" d="m1081.87,438.64c1.45,0,2.55,1.1,2.55,2.55s-1.1,2.55-2.55,2.55-2.55-1-2.55-2.55c0-1.45,1.1-2.55,2.55-2.55Z"/>
    </g>
  </g>
</svg>