<?xml version="1.0" encoding="UTF-8"?>
<svg id="uuid-924d50a6-d427-4f43-9cf6-60cede76430a" data-name="Layer 1" xmlns="http://www.w3.org/2000/svg" xmlns:xlink="http://www.w3.org/1999/xlink" viewBox="0 0 1920 768">
  <defs>
    <style>
      .uuid-24571ca7-5169-4e67-83c7-16fa12e3cf23 {
        stroke: #fff;
        stroke-miterlimit: 10;
      }

      .uuid-24571ca7-5169-4e67-83c7-16fa12e3cf23, .uuid-4dd9b0d5-1b36-4b18-bf88-37cdbcaadb8e {
        fill: none;
      }

      .uuid-4dd9b0d5-1b36-4b18-bf88-37cdbcaadb8e, .uuid-cf93c44d-12c4-4335-a77f-8fd1a5585578 {
        stroke-width: 0px;
      }

      .uuid-cf93c44d-12c4-4335-a77f-8fd1a5585578 {
        fill: #fff;
      }

      .uuid-34855e58-cca5-4b57-946c-50a12ee2fa2f {
        clip-path: url(#uuid-37682dd4-a6d6-466c-b660-934fba95fc10);
      }
    </style>
    <clipPath id="uuid-37682dd4-a6d6-466c-b660-934fba95fc10">
      <rect class="uuid-4dd9b0d5-1b36-4b18-bf88-37cdbcaadb8e" x="724.15" y="195.74" width="471.71" height="376.53"/>
    </clipPath>
  </defs>
  <g class="uuid-34855e58-cca5-4b57-946c-50a12ee2fa2f">
    <g id="uuid-8bdfb85a-4fd0-4259-b7a6-f57c2ff3ff2f" data-name="Group 840">
      <path id="uuid-e0fd4336-2a64-492a-8195-b7f353a876fe" data-name="Path 3657" class="uuid-cf93c44d-12c4-4335-a77f-8fd1a5585578" d="M918.49,502.57h-12.89c-1.13,0-2.04.91-2.04,2.04,0,0,0,.01,0,.02v64.02c0,1.13.91,2.04,2.04,2.05h12.89c1.13,0,2.04-.92,2.05-2.05v-64.02c0-.54-.22-1.06-.58-1.46-.39-.38-.92-.59-1.46-.6"/>
      <path id="uuid-0ebd7039-18ea-41f0-808f-95633eb1189a" data-name="Path 3658" class="uuid-24571ca7-5169-4e67-83c7-16fa12e3cf23" d="M918.49,502.57h-12.89c-1.13,0-2.04.91-2.04,2.04,0,0,0,.01,0,.02v64.02c0,1.13.91,2.04,2.04,2.05h12.89c1.13,0,2.04-.92,2.05-2.05v-64.02c0-.54-.22-1.06-.58-1.46-.39-.38-.92-.6-1.47-.6Z"/>
      <path id="uuid-1d3b0063-8a75-427a-906d-86eb6b3d92ab" data-name="Path 3659" class="uuid-cf93c44d-12c4-4335-a77f-8fd1a5585578" d="M822.46,518.97c-1.51-2.61-3.36-5-5.49-7.13-2.13-2.12-4.52-3.96-7.11-5.48-2.64-1.53-5.47-2.72-8.41-3.54-6.1-1.68-12.54-1.68-18.65,0-2.94.82-5.76,2.01-8.39,3.54-2.6,1.51-4.98,3.35-7.1,5.48-2.12,2.15-3.96,4.55-5.47,7.16-1.54,2.62-2.73,5.44-3.53,8.37-1.69,6.11-1.69,12.56,0,18.67.8,2.93,1.99,5.74,3.53,8.36,1.53,2.57,3.36,4.93,5.47,7.05,2.12,2.12,4.51,3.97,7.1,5.49,2.63,1.55,5.45,2.74,8.39,3.55,6.11,1.65,12.54,1.65,18.65,0,2.95-.81,5.77-2,8.41-3.55,2.59-1.52,4.98-3.37,7.11-5.49,2.13-2.1,3.97-4.47,5.49-7.05,1.53-2.62,2.72-5.43,3.52-8.36,1.71-6.09,1.71-12.54,0-18.64-.8-2.95-1.99-5.79-3.52-8.43M810.28,536.66c.02,2.53-.44,5.03-1.35,7.39-.86,2.23-2.14,4.27-3.76,6.02-1.62,1.72-3.57,3.09-5.74,4.04-2.31.97-4.79,1.46-7.29,1.44-2.5.03-4.97-.46-7.27-1.44-2.16-.95-4.1-2.32-5.72-4.04-1.64-1.74-2.92-3.78-3.76-6.02-.91-2.36-1.37-4.87-1.35-7.39,0-2.53.45-5.03,1.35-7.39.85-2.24,2.13-4.29,3.76-6.04,1.6-1.73,3.54-3.12,5.7-4.07,4.66-1.98,9.92-1.98,14.58,0,2.17.95,4.13,2.34,5.75,4.07,1.62,1.76,2.89,3.81,3.75,6.04.9,2.36,1.36,4.87,1.35,7.39"/>
      <path id="uuid-294a17e7-ba6b-46ec-a74b-c5b5b54d95e2" data-name="Path 3660" class="uuid-24571ca7-5169-4e67-83c7-16fa12e3cf23" d="M822.46,518.97c-1.51-2.61-3.36-5-5.49-7.13-2.13-2.12-4.52-3.96-7.11-5.48-2.64-1.53-5.47-2.72-8.41-3.54-6.1-1.68-12.54-1.68-18.65,0-2.94.82-5.76,2.01-8.39,3.54-2.6,1.51-4.98,3.35-7.1,5.48-2.12,2.15-3.96,4.55-5.47,7.16-1.54,2.62-2.73,5.44-3.53,8.37-1.69,6.11-1.69,12.56,0,18.67.8,2.93,1.99,5.74,3.53,8.36,1.53,2.57,3.36,4.93,5.47,7.05,2.12,2.12,4.51,3.97,7.1,5.49,2.63,1.55,5.45,2.74,8.39,3.55,6.11,1.65,12.54,1.65,18.65,0,2.95-.81,5.77-2,8.41-3.55,2.59-1.52,4.98-3.37,7.11-5.49,2.13-2.1,3.97-4.47,5.49-7.05,1.53-2.62,2.72-5.43,3.52-8.36,1.71-6.09,1.71-12.54,0-18.64-.8-2.95-1.99-5.79-3.52-8.43ZM810.28,536.66c.02,2.53-.44,5.03-1.35,7.39-.86,2.23-2.14,4.27-3.76,6.02-1.62,1.72-3.57,3.09-5.74,4.04-2.31.97-4.79,1.46-7.29,1.44-2.5.03-4.97-.46-7.27-1.44-2.16-.95-4.1-2.32-5.72-4.04-1.64-1.74-2.92-3.78-3.76-6.02-.91-2.36-1.37-4.87-1.35-7.39,0-2.53.45-5.03,1.35-7.39.85-2.24,2.13-4.29,3.76-6.04,1.6-1.73,3.54-3.12,5.7-4.07,4.66-1.98,9.92-1.98,14.58,0,2.17.95,4.13,2.34,5.75,4.07,1.62,1.76,2.89,3.81,3.75,6.04.9,2.36,1.35,4.87,1.34,7.39Z"/>
      <path id="uuid-f7919edf-d0f6-4324-be48-c3858600aac4" data-name="Path 3661" class="uuid-cf93c44d-12c4-4335-a77f-8fd1a5585578" d="M878.34,502.58h-43.4c-1.13,0-2.04.91-2.04,2.04,0,0,0,0,0,.01v64.01c0,1.13.91,2.05,2.04,2.05h12.88c1.13,0,2.06-.91,2.07-2.04,0,0,0,0,0,0v-21.28h20.92c1.13,0,2.05-.92,2.05-2.05l.03-10.27c0-1.13-.92-2.05-2.04-2.06h-20.96v-15.47h28.45c1.12,0,2.03-.91,2.03-2.04,0,0,0,0,0-.01v-10.82c.03-1.12-.86-2.05-1.98-2.07-.02,0-.03,0-.05,0"/>
      <path id="uuid-18a613d0-5b16-4dab-b8d4-8afcfee63e05" data-name="Path 3662" class="uuid-24571ca7-5169-4e67-83c7-16fa12e3cf23" d="M878.34,502.58h-43.4c-1.13,0-2.04.91-2.04,2.04,0,0,0,0,0,.01v64.01c0,1.13.91,2.05,2.04,2.05h12.88c1.13,0,2.06-.91,2.07-2.04,0,0,0,0,0,0v-21.28h20.92c1.13,0,2.05-.92,2.05-2.05l.03-10.27c0-1.13-.92-2.05-2.04-2.06h-20.96v-15.47h28.45c1.12,0,2.03-.91,2.03-2.04,0,0,0,0,0-.01v-10.82c.03-1.12-.86-2.05-1.98-2.07-.02,0-.03,0-.05,0Z"/>
      <path id="uuid-530340e5-5b73-4825-bad9-65a2c2f49726" data-name="Path 3663" class="uuid-cf93c44d-12c4-4335-a77f-8fd1a5585578" d="M978.37,502.57h-49.37c-1.13,0-2.05.9-2.06,2.03,0,0,0,.02,0,.03v10.84c0,1.13.91,2.05,2.05,2.05h16.15v51.13c0,1.13.92,2.05,2.06,2.05h12.89c1.13,0,2.05-.92,2.06-2.05v-51.13h16.24c1.11.02,2.03-.87,2.05-1.99,0-.02,0-.04,0-.07v-10.84c0-1.12-.9-2.05-2.02-2.06-.01,0-.02,0-.03,0"/>
      <path id="uuid-512cad93-032d-416a-9a26-9fe9952bd9f7" data-name="Path 3664" class="uuid-24571ca7-5169-4e67-83c7-16fa12e3cf23" d="M978.37,502.57h-49.37c-1.13,0-2.05.9-2.06,2.03,0,0,0,.02,0,.03v10.84c0,1.13.91,2.05,2.05,2.05h16.15v51.13c0,1.13.92,2.05,2.06,2.05h12.89c1.13,0,2.05-.92,2.06-2.05v-51.13h16.24c1.11.02,2.03-.87,2.05-1.99,0-.02,0-.04,0-.07v-10.84c0-1.12-.9-2.05-2.02-2.06-.01,0-.02,0-.03,0Z"/>
      <path id="uuid-6bef761a-86d1-4b59-b4b7-dd83c1c53909" data-name="Path 3665" class="uuid-cf93c44d-12c4-4335-a77f-8fd1a5585578" d="M1032.7,506.23l-1.01-2.25c-.09-.23-.22-.44-.39-.62-.09-.06-.17-.13-.23-.22-.38-.36-.89-.56-1.41-.56h-11.61c-.29,0-.58.07-.85.19-.2.09-.39.2-.56.33l-.11.08c-.3.24-.53.55-.67.91l-24.63,63.81c-.25.63-.16,1.35.23,1.9.38.56,1,.9,1.68.9h12.34c.86-.02,1.62-.55,1.93-1.35.6-1.63,1.21-3.21,1.8-4.78.62-1.56,1.22-3.14,1.8-4.72l.12-.32h25.45l.12.32c.58,1.58,1.16,3.15,1.77,4.72.59,1.57,1.18,3.14,1.76,4.66.02.04.04.08.06.11.29.76,1.01,1.29,1.82,1.34.08,0,.16.01.24.01h12.33c1.13,0,2.05-.9,2.06-2.03,0-.27-.05-.53-.15-.78l-23.91-61.66ZM1021.59,528.79c.62-1.86,1.21-3.58,1.8-5.15l.52-1.36,7.81,23.32h-15.75l.25-.69c.59-1.58,1.2-3.3,1.79-5.08.62-1.81,1.22-3.65,1.79-5.53.61-1.85,1.2-3.69,1.79-5.51"/>
      <path id="uuid-04eadeeb-7897-4101-9b65-5fb54694a54e" data-name="Path 3666" class="uuid-24571ca7-5169-4e67-83c7-16fa12e3cf23" d="M1032.7,506.23l-1.01-2.25c-.09-.23-.22-.44-.39-.62-.09-.06-.17-.13-.23-.22-.38-.36-.89-.56-1.41-.56h-11.61c-.29,0-.58.07-.85.19-.2.09-.39.2-.56.33l-.11.08c-.3.24-.53.55-.67.91l-24.63,63.81c-.25.63-.16,1.35.23,1.9.38.56,1,.9,1.68.9h12.34c.86-.02,1.62-.55,1.93-1.35.6-1.63,1.21-3.21,1.8-4.78.62-1.56,1.22-3.14,1.8-4.72l.12-.32h25.45l.12.32c.58,1.58,1.16,3.15,1.77,4.72.59,1.57,1.18,3.14,1.76,4.66.02.04.04.08.06.11.29.76,1.01,1.29,1.82,1.34.08,0,.16.01.24.01h12.33c1.13,0,2.05-.9,2.06-2.03,0-.27-.05-.53-.15-.78l-23.91-61.66ZM1021.59,528.79c.62-1.86,1.21-3.58,1.8-5.15l.52-1.36,7.81,23.32h-15.75l.25-.69c.59-1.58,1.2-3.3,1.79-5.08.62-1.81,1.22-3.65,1.79-5.53.61-1.85,1.2-3.69,1.79-5.51Z"/>
      <path id="uuid-381b4460-3ed8-41e3-81b7-d35f6480bf92" data-name="Path 3667" class="uuid-cf93c44d-12c4-4335-a77f-8fd1a5585578" d="M1104.98,555.24h-25.59v-50.66c0-1.13-.92-2.04-2.05-2.04,0,0,0,0-.01,0h-12.87c-1.12,0-2.04.9-2.05,2.02,0,0,0,.01,0,.02v64.07c0,1.13.92,2.05,2.05,2.05h40.52c1.13,0,2.05-.92,2.05-2.05v-11.37c0-1.13-.92-2.04-2.05-2.04h0"/>
      <path id="uuid-5ab8bc4f-1641-418a-83c8-5ac9063b45f0" data-name="Path 3668" class="uuid-24571ca7-5169-4e67-83c7-16fa12e3cf23" d="M1104.98,555.24h-25.59v-50.66c0-1.13-.92-2.04-2.05-2.04,0,0,0,0-.01,0h-12.87c-1.12,0-2.04.9-2.05,2.02,0,0,0,.01,0,.02v64.07c0,1.13.92,2.05,2.05,2.05h40.52c1.13,0,2.05-.92,2.05-2.05v-11.37c0-1.13-.92-2.04-2.04-2.04,0,0,0,0,0,0Z"/>
      <path id="uuid-d68ac8c1-dbd6-4570-8762-324bfb761193" data-name="Path 3669" class="uuid-cf93c44d-12c4-4335-a77f-8fd1a5585578" d="M1156.08,555.24h-25.6v-50.66c0-1.12-.9-2.03-2.02-2.04,0,0-.01,0-.02,0h-12.92c-1.12,0-2.03.92-2.03,2.04h0v64.07c0,1.12.91,2.04,2.03,2.05h40.57c1.13,0,2.03-.93,2.02-2.05v-11.37c0-1.12-.89-2.03-2.01-2.04,0,0-.01,0-.02,0"/>
      <path id="uuid-c4866f57-ea94-4247-964f-ae13cf7619c6" data-name="Path 3670" class="uuid-24571ca7-5169-4e67-83c7-16fa12e3cf23" d="M1156.08,555.24h-25.6v-50.66c0-1.12-.9-2.03-2.02-2.04,0,0-.01,0-.02,0h-12.92c-1.12,0-2.03.92-2.03,2.04h0v64.07c0,1.12.91,2.04,2.03,2.05h40.57c1.13,0,2.03-.93,2.02-2.05v-11.37c0-1.12-.89-2.03-2.01-2.04,0,0-.02,0-.02,0Z"/>
      <path id="uuid-1a6f122a-f504-410d-9b50-b15aba266743" data-name="Path 3671" class="uuid-cf93c44d-12c4-4335-a77f-8fd1a5585578" d="M757.81,489.56c1.13,0,2.05-.9,2.06-2.03,0,0,0,0,0,0v-61.98h16.27c.54,0,1.05-.21,1.44-.58.39-.39.61-.91.61-1.47v-10.84c-.01-1.13-.93-2.04-2.06-2.05h-49.39c-1.13,0-2.04.92-2.05,2.05v10.84c0,1.13.92,2.05,2.05,2.05h16.15v61.98c0,1.13.92,2.03,2.05,2.03,0,0,0,0,0,0h12.87Z"/>
      <path id="uuid-3b9aa3ab-443c-4355-a506-9cc15c5c4380" data-name="Path 3672" class="uuid-24571ca7-5169-4e67-83c7-16fa12e3cf23" d="M757.81,489.56c1.13,0,2.05-.9,2.06-2.03,0,0,0,0,0,0v-61.98h16.27c.54,0,1.05-.21,1.44-.58.39-.39.61-.91.61-1.47v-10.84c-.01-1.13-.93-2.04-2.06-2.05h-49.39c-1.13,0-2.04.92-2.05,2.05v10.84c0,1.13.92,2.05,2.05,2.05h16.15v61.98c0,1.13.92,2.03,2.05,2.03,0,0,0,0,0,0h12.87Z"/>
      <path id="uuid-d1d99fb3-962a-4bc4-ba26-ff03bb6e0294" data-name="Path 3673" class="uuid-cf93c44d-12c4-4335-a77f-8fd1a5585578" d="M787.29,478.72h12.88c1.13,0,2.05-.92,2.06-2.05v-26.43h24.16v26.43c0,1.13.91,2.05,2.04,2.05h12.89c.54,0,1.06-.22,1.44-.6.4-.38.62-.9.61-1.45v-64c0-.54-.21-1.07-.6-1.45-.38-.38-.9-.6-1.44-.6h-12.89c-1.13,0-2.04.92-2.04,2.05v22.13h-24.16v-22.14c0-1.13-.93-2.05-2.06-2.05h-12.88c-1.13,0-2.05.92-2.05,2.05,0,0,0,0,0,0v64c0,1.13.91,2.05,2.04,2.05h0"/>
      <path id="uuid-cbcf3cd5-6508-4863-bf9c-20ca3d0434f0" data-name="Path 3674" class="uuid-24571ca7-5169-4e67-83c7-16fa12e3cf23" d="M787.29,478.72h12.88c1.13,0,2.05-.92,2.06-2.05v-26.43h24.16v26.43c0,1.13.91,2.05,2.04,2.05h12.89c.54,0,1.06-.22,1.44-.6.4-.38.62-.9.61-1.45v-64c0-.54-.21-1.07-.6-1.45-.38-.38-.9-.6-1.44-.6h-12.89c-1.13,0-2.04.92-2.04,2.05v22.13h-24.16v-22.14c0-1.13-.93-2.05-2.06-2.05h-12.88c-1.13,0-2.05.92-2.05,2.05,0,0,0,0,0,0v64c0,1.13.91,2.05,2.04,2.06h0Z"/>
      <path id="uuid-72057388-6827-4beb-abb1-28af75f78bcf" data-name="Path 3675" class="uuid-cf93c44d-12c4-4335-a77f-8fd1a5585578" d="M901.44,465.83c0-1.14-.91-2.06-2.05-2.07,0,0,0,0,0,0h-31.32v-12.92h23.27c1.14,0,2.06-.92,2.06-2.06h0v-8.58c0-1.14-.92-2.07-2.06-2.07h-23.27v-12.58h30.31c1.13,0,2.05-.92,2.06-2.05v-10.82c0-1.14-.92-2.06-2.06-2.06h-45.25c-1.13,0-2.04.92-2.04,2.05v64c0,1.13.92,2.04,2.04,2.05h46.1c.54,0,1.07-.21,1.45-.6l.16-.17c.4-.38.62-.9.61-1.45v-10.67Z"/>
      <path id="uuid-56a7f45b-8761-49ef-9d92-47f0109b6aa6" data-name="Path 3676" class="uuid-24571ca7-5169-4e67-83c7-16fa12e3cf23" d="M901.44,465.83c0-1.14-.91-2.06-2.05-2.07,0,0,0,0,0,0h-31.32v-12.92h23.27c1.14,0,2.06-.92,2.06-2.06h0v-8.58c0-1.14-.92-2.07-2.06-2.07h-23.27v-12.58h30.31c1.13,0,2.05-.92,2.06-2.05v-10.82c0-1.14-.92-2.06-2.06-2.06h-45.25c-1.13,0-2.04.92-2.04,2.05v64c0,1.13.92,2.04,2.04,2.05h46.1c.54,0,1.07-.21,1.45-.6l.16-.17c.4-.38.62-.9.61-1.45v-10.67Z"/>
      <path id="uuid-a14b1580-546d-459f-82a8-f5e31c92bed8" data-name="Path 3677" class="uuid-cf93c44d-12c4-4335-a77f-8fd1a5585578" d="M983.31,474.81l-12.16-22.9.42-.24c1.63-.96,3.15-2.1,4.53-3.4,1.38-1.31,2.59-2.79,3.59-4.41,1-1.63,1.79-3.39,2.33-5.23.56-1.91.85-3.9.84-5.89.01-2.94-.59-5.86-1.76-8.56-1.13-2.63-2.76-5.02-4.8-7.03-2.05-2.03-4.47-3.65-7.13-4.77-2.78-1.18-5.76-1.78-8.78-1.76h-29.56c-1.13,0-2.06.91-2.06,2.04,0,0,0,0,0,.01v64.01c0,1.13.91,2.05,2.05,2.05h12.88c.54,0,1.07-.21,1.45-.6.39-.38.61-.9.61-1.45v-20.97h8.36l11.63,21.92c.36.67,1.06,1.08,1.82,1.08h14.39c.73,0,1.41-.37,1.79-.99.35-.64.36-1.4.03-2.05-.17-.29-.3-.56-.46-.87M945.75,423.84h6.95c.9,0,1.74.03,2.52.07.74.06,1.58.09,2.35.18h.13c1.08.15,2.12.51,3.05,1.08.91.54,1.71,1.24,2.37,2.07.66.81,1.18,1.73,1.54,2.71.36.94.55,1.95.56,2.96.01,1.04-.16,2.08-.5,3.07-.3.99-.79,1.91-1.43,2.72-.63.83-1.43,1.52-2.34,2.03-.96.55-2.03.91-3.14,1.03-.52.04-1,.11-1.46.15s-.95.04-1.52.04h-9.09v-18.11Z"/>
      <path id="uuid-aac73543-8c91-4f2f-b47c-8b913f636b06" data-name="Path 3678" class="uuid-24571ca7-5169-4e67-83c7-16fa12e3cf23" d="M983.31,474.81l-12.16-22.9.42-.24c1.63-.96,3.15-2.1,4.53-3.4,1.38-1.31,2.59-2.79,3.59-4.41,1-1.63,1.79-3.39,2.33-5.23.56-1.91.85-3.9.84-5.89.01-2.94-.59-5.86-1.76-8.56-1.13-2.63-2.76-5.02-4.8-7.03-2.05-2.03-4.47-3.65-7.13-4.77-2.78-1.18-5.76-1.78-8.78-1.76h-29.56c-1.13,0-2.06.91-2.06,2.04,0,0,0,0,0,.01v64.01c0,1.13.91,2.05,2.05,2.05h12.88c.54,0,1.07-.21,1.45-.6.39-.38.61-.9.61-1.45v-20.97h8.36l11.63,21.92c.36.67,1.06,1.08,1.82,1.08h14.39c.73,0,1.41-.37,1.79-.99.35-.64.36-1.4.03-2.05-.17-.29-.3-.56-.46-.87ZM945.75,423.84h6.95c.9,0,1.74.03,2.52.07.74.06,1.58.09,2.35.18h.13c1.08.15,2.12.51,3.05,1.08.91.54,1.71,1.24,2.37,2.07.66.81,1.18,1.73,1.54,2.71.36.94.55,1.95.56,2.96.01,1.04-.16,2.08-.5,3.07-.3.99-.79,1.91-1.43,2.72-.63.83-1.43,1.52-2.34,2.03-.96.55-2.03.91-3.14,1.03-.52.04-1,.11-1.46.15s-.95.04-1.52.04h-9.09v-18.11Z"/>
      <path id="uuid-aa4d55d5-0352-40fa-b0e0-77a9fbd9db92" data-name="Path 3679" class="uuid-cf93c44d-12c4-4335-a77f-8fd1a5585578" d="M1012.97,478.51c9.12,2.51,18.87,1.24,27.05-3.53,5.21-3.04,9.56-7.36,12.63-12.55,1.5-2.63,2.69-5.44,3.53-8.35,1.67-6.11,1.67-12.56,0-18.68-.85-2.93-2.03-5.75-3.53-8.4-3.05-5.22-7.39-9.56-12.6-12.61-2.65-1.52-5.48-2.71-8.42-3.54-6.11-1.67-12.55-1.67-18.66,0-2.93.83-5.75,2.02-8.39,3.54-2.58,1.51-4.96,3.35-7.08,5.47-4.3,4.32-7.41,9.67-9.03,15.54-1.65,6.12-1.65,12.56,0,18.68.81,2.93,2,5.73,3.54,8.35,1.52,2.58,3.37,4.96,5.49,7.08,4.28,4.3,9.61,7.4,15.47,9.01M1004.21,444.67c0-2.51.45-5.01,1.33-7.36.85-2.24,2.13-4.29,3.77-6.04,1.61-1.73,3.56-3.12,5.72-4.08,2.29-1.01,4.77-1.52,7.27-1.49,2.51-.03,4.99.48,7.29,1.48,2.18.96,4.14,2.35,5.76,4.09,1.64,1.75,2.92,3.8,3.76,6.04,1.76,4.77,1.76,10.01,0,14.78-.86,2.22-2.13,4.26-3.76,6-1.62,1.72-3.58,3.1-5.76,4.04-4.66,1.94-9.9,1.94-14.57,0-2.16-.95-4.1-2.32-5.72-4.04-1.63-1.74-2.9-3.78-3.77-6-.89-2.37-1.34-4.89-1.33-7.42"/>
      <path id="uuid-bd03d87a-1084-4320-982c-0a5adfab0716" data-name="Path 3680" class="uuid-24571ca7-5169-4e67-83c7-16fa12e3cf23" d="M1012.97,478.51c9.12,2.51,18.87,1.24,27.05-3.53,5.21-3.04,9.56-7.36,12.63-12.55,1.5-2.63,2.69-5.44,3.53-8.35,1.67-6.11,1.67-12.56,0-18.68-.85-2.93-2.03-5.75-3.53-8.4-3.05-5.22-7.39-9.56-12.6-12.61-2.65-1.52-5.48-2.71-8.42-3.54-6.11-1.67-12.55-1.67-18.66,0-2.93.83-5.75,2.02-8.39,3.54-2.58,1.51-4.96,3.35-7.08,5.47-4.3,4.32-7.41,9.67-9.03,15.54-1.65,6.12-1.65,12.56,0,18.68.81,2.93,2,5.73,3.54,8.35,1.52,2.58,3.37,4.96,5.49,7.08,4.28,4.3,9.61,7.4,15.47,9.01h0ZM1004.21,444.67c0-2.51.45-5.01,1.33-7.36.85-2.24,2.13-4.29,3.77-6.04,1.61-1.73,3.56-3.12,5.72-4.08,2.29-1.01,4.77-1.52,7.27-1.49,2.51-.03,4.99.48,7.29,1.48,2.18.96,4.14,2.35,5.76,4.09,1.64,1.75,2.92,3.8,3.76,6.04,1.76,4.77,1.76,10.01,0,14.78-.86,2.22-2.13,4.26-3.76,6-1.62,1.72-3.58,3.1-5.76,4.04-4.66,1.94-9.9,1.94-14.57,0-2.16-.95-4.1-2.32-5.72-4.04-1.63-1.74-2.9-3.78-3.77-6-.89-2.37-1.34-4.89-1.33-7.42Z"/>
      <path id="uuid-6c3c341f-296d-4165-9545-9dab21b3a9e1" data-name="Path 3681" class="uuid-cf93c44d-12c4-4335-a77f-8fd1a5585578" d="M1132.15,454.08c1.68-6.11,1.68-12.56,0-18.68-1.63-5.86-4.73-11.21-9-15.54-2.14-2.12-4.54-3.95-7.14-5.47-2.64-1.53-5.47-2.72-8.42-3.54-6.11-1.67-12.55-1.67-18.66,0-2.92.83-5.73,2.02-8.36,3.54-2.6,1.51-4.99,3.34-7.11,5.47-2.11,2.15-3.94,4.55-5.46,7.14-1.56,2.62-2.75,5.45-3.53,8.4-1.68,6.11-1.68,12.56,0,18.68.78,2.94,1.97,5.75,3.53,8.35,1.53,2.57,3.36,4.95,5.45,7.08,2.14,2.11,4.53,3.95,7.12,5.48,2.63,1.53,5.44,2.71,8.36,3.53,9.13,2.51,18.89,1.24,27.07-3.53,2.59-1.53,4.98-3.37,7.14-5.48,2.11-2.12,3.94-4.5,5.46-7.08,1.52-2.63,2.71-5.43,3.54-8.35M1116.43,444.68c.01,2.53-.44,5.05-1.32,7.42-.86,2.22-2.14,4.26-3.78,6-1.62,1.72-3.58,3.1-5.75,4.04-2.3.99-4.78,1.49-7.29,1.46-2.5.04-4.98-.46-7.27-1.46-2.17-.94-4.12-2.31-5.73-4.04-1.62-1.74-2.88-3.78-3.72-6-1.82-4.76-1.82-10.02,0-14.78.83-2.24,2.1-4.29,3.72-6.04,3.35-3.61,8.08-5.63,13-5.57,4.94-.07,9.68,1.95,13.04,5.57,1.64,1.75,2.93,3.8,3.78,6.04.88,2.35,1.33,4.85,1.32,7.36"/>
      <path id="uuid-90aba8c9-dc6e-48f1-a1f0-bc67b8d05f42" data-name="Path 3682" class="uuid-24571ca7-5169-4e67-83c7-16fa12e3cf23" d="M1132.15,454.08c1.68-6.11,1.68-12.56,0-18.68-1.63-5.86-4.73-11.21-9-15.54-2.14-2.12-4.54-3.95-7.14-5.47-2.64-1.53-5.47-2.72-8.42-3.54-6.11-1.67-12.55-1.67-18.66,0-2.92.83-5.73,2.02-8.36,3.54-2.6,1.51-4.99,3.34-7.11,5.47-2.11,2.15-3.94,4.55-5.46,7.14-1.56,2.62-2.75,5.45-3.53,8.4-1.68,6.11-1.68,12.56,0,18.68.78,2.94,1.97,5.75,3.53,8.35,1.53,2.57,3.36,4.95,5.45,7.08,2.14,2.11,4.53,3.95,7.12,5.48,2.63,1.53,5.44,2.71,8.36,3.53,9.13,2.51,18.89,1.24,27.07-3.53,2.59-1.53,4.98-3.37,7.14-5.48,2.11-2.12,3.94-4.5,5.46-7.08,1.52-2.63,2.71-5.43,3.54-8.35ZM1116.43,444.68c.01,2.53-.44,5.05-1.32,7.42-.86,2.22-2.14,4.26-3.78,6-1.62,1.72-3.58,3.1-5.75,4.04-2.3.99-4.78,1.49-7.29,1.46-2.5.04-4.98-.46-7.27-1.46-2.17-.94-4.12-2.31-5.73-4.04-1.62-1.74-2.88-3.78-3.72-6-1.82-4.76-1.82-10.02,0-14.78.83-2.24,2.1-4.29,3.72-6.04,3.35-3.61,8.08-5.63,13-5.57,4.94-.07,9.68,1.95,13.04,5.57,1.64,1.75,2.93,3.8,3.78,6.04.88,2.35,1.33,4.84,1.33,7.35h0Z"/>
      <path id="uuid-783980a1-4670-496f-8f24-25c76a8dfb9e" data-name="Path 3683" class="uuid-cf93c44d-12c4-4335-a77f-8fd1a5585578" d="M1188.21,412.67c0-1.14-.93-2.06-2.07-2.05,0,0,0,0,0,0h-49.37c-1.13,0-2.05.92-2.05,2.05v10.84c0,1.13.92,2.05,2.05,2.05h16.16v61.98c0,1.12.92,2.03,2.04,2.03h12.9c1.13,0,2.04-.9,2.05-2.03v-61.98h16.25c.54,0,1.07-.21,1.46-.58.39-.39.6-.92.59-1.47v-10.84Z"/>
      <path id="uuid-a011bafd-b7b2-472d-9d69-6ce5710a7117" data-name="Path 3684" class="uuid-24571ca7-5169-4e67-83c7-16fa12e3cf23" d="M1188.21,412.67c0-1.14-.93-2.06-2.07-2.05,0,0,0,0,0,0h-49.37c-1.13,0-2.05.92-2.05,2.05v10.84c0,1.13.92,2.05,2.05,2.05h16.16v61.98c0,1.12.92,2.03,2.04,2.03h12.9c1.13,0,2.04-.9,2.05-2.03v-61.98h16.25c.54,0,1.07-.21,1.46-.58.39-.39.6-.92.59-1.47v-10.84Z"/>
      <path id="uuid-7e23d8f4-118d-4c16-ada7-af3c84e10ee3" data-name="Path 3685" class="uuid-cf93c44d-12c4-4335-a77f-8fd1a5585578" d="M1173.64,557.92v12.78h-2.72v-12.78h-4.47v-2.73h11.65v2.73h-4.46Z"/>
      <path id="uuid-58b0eb28-7123-49c3-a60e-f99e0451a3f7" data-name="Path 3686" class="uuid-24571ca7-5169-4e67-83c7-16fa12e3cf23" d="M1173.64,557.92v12.78h-2.72v-12.78h-4.47v-2.73h11.65v2.73h-4.46Z"/>
      <path id="uuid-17e7eb48-973d-438e-9b49-4cb54d786eb5" data-name="Path 3687" class="uuid-cf93c44d-12c4-4335-a77f-8fd1a5585578" d="M1192.56,570.7v-9.48l-4.56,9.48-4.51-9.48v9.48h-2.73v-15.51h2.73l4.51,9.18,4.56-9.18h2.75v15.51h-2.75Z"/>
      <path id="uuid-254390ce-dd56-472b-abac-cb815cad9419" data-name="Path 3688" class="uuid-24571ca7-5169-4e67-83c7-16fa12e3cf23" d="M1192.56,570.7v-9.48l-4.56,9.48-4.51-9.48v9.48h-2.73v-15.51h2.73l4.51,9.18,4.56-9.18h2.75v15.51h-2.75Z"/>
      <path id="uuid-a096e0fa-4eb9-4f6b-a85e-c47843eedd20" data-name="Path 3689" class="uuid-cf93c44d-12c4-4335-a77f-8fd1a5585578" d="M1060.48,339.74c-1.74-3.25-10.85-18.45-31.44-25.51,23.46-27.39,19.72-69.72,19.53-71.62-.21-2.21-2.17-3.84-4.38-3.63-.04,0-.09,0-.13.01-22.81,2.88-38.18,11.11-50.51,18.61-4.79-20.47-15.41-41.98-29.7-59.81-.75-.95-1.88-1.5-3.09-1.51-1.21,0-2.35.52-3.14,1.43-.87,1.03-20.52,24.64-29.4,60.1-13.91-8.7-27.59-15.42-50.61-18.1-1.09-.11-2.18.2-3.04.88-.84.71-1.36,1.73-1.44,2.82-.13,1.67-2.65,39.06,19.67,69.52-13.52,3.46-28.26,17.41-33.28,27.05-.89,1.71-.44,3.8,1.06,5.01.67.55,15.59,12.24,41.87,18.59-2.83,4.57-5.26,10.19-5.02,14.25.08,1.57,1.07,2.96,2.54,3.53,7.51,2.69,15.42,4.09,23.39,4.14,12.1,0,27.69-3.67,37.41-19.89,9.81,15.92,25.15,19.51,37,19.51,8.17-.06,16.26-1.54,23.92-4.37,1.31-.52,2.24-1.7,2.46-3.09.81-4.87-2.01-10.2-4.83-14.14,22.76-4.89,39.39-18.14,40.16-18.76,1.5-1.22,1.93-3.33,1.02-5.04M1020.61,320.22c11.47,2.53,21.74,8.86,29.15,17.97l-57.95.03c-.32-.2-.66-.35-1.02-.45l-21.05-17.46h49.22M881.17,252.62l38.98,33.98-32.22.03c-3.94-10.94-6.22-22.4-6.76-34.01M926.85,281.68l-2.06-1.78c-.14-.12-.28-.21-.41-.3l-33.84-29.5c14.82,3.43,25,9.14,36.26,16.38l.04,15.2ZM934.93,288.74l-.05-24.04c4.84-22.79,14.92-41.21,21.79-51.86v94.88l-21.74-18.99ZM1035.25,286.46c-.09-.02-.19-.03-.28-.03l-33.5-.03,39.31-34.29c-.1,11.67-1.97,23.25-5.53,34.36M996.88,279.69c-.1.07-.18.12-.28.2l-1.83,1.6v-15.19c9.58-5.94,21-12.66,36.61-16.69l-34.5,30.08ZM986.7,288.55l-21.96,19.19v-95.13c10.99,16.26,18.83,34.62,22,51.86l-.04,24.08ZM1019.76,312.35c-.26-.06-.52-.09-.79-.08h-47.17l20.41-17.83,39.85.04c-3,6.64-7.17,12.69-12.3,17.87M891.32,294.7l38.13-.04,20.14,17.6h-47.08c-4.45-5.36-8.22-11.26-11.19-17.56M902.32,320.31h49.14l-21.32,17.7c-.34.1-.67.24-.98.42l-58.96-.02c7.14-9.04,20.57-19.29,29.96-18.13M878.62,346.48l41.19.02-11.63,10.13c-10.24-2.13-20.17-5.54-29.56-10.15M905.92,374.86c1.42-4.02,3.55-7.76,6.27-11.04l12.21-10.63c.08-.06.17-.1.23-.15l1.9-1.57-.02,25.88c-1.03.07-2.09.1-3.17.1-5.9-.06-11.76-.93-17.43-2.59M934.56,376.09l.05-31.31,21.96-18.22v29.44c-4.46,10.64-11.83,17.37-22.01,20.09M964.63,355.56v-29l21.76,18.02.04,31.04c-9.98-2.75-17.28-9.46-21.8-20.07M997.75,377.08c-1.1,0-2.21-.05-3.27-.12l-.04-25.68,2.14,1.76c.12.1.25.19.39.27l11.92,10.38c2.73,2.74,6.06,7.28,7.05,10.52-5.89,1.84-12.03,2.8-18.2,2.87M1012.91,356.5l-11.74-10.23h41.09c-9.13,5.05-19.06,8.51-29.35,10.23"/>
      <path id="uuid-f5e66124-a9ac-43c9-9052-cef25ee8a2a3" data-name="Path 3690" class="uuid-24571ca7-5169-4e67-83c7-16fa12e3cf23" d="M1060.48,339.74c-1.74-3.25-10.85-18.45-31.44-25.51,23.46-27.39,19.72-69.72,19.53-71.62-.21-2.21-2.17-3.84-4.38-3.63-.04,0-.09,0-.13.01-22.81,2.88-38.18,11.11-50.51,18.61-4.79-20.47-15.41-41.98-29.7-59.81-.75-.95-1.88-1.5-3.09-1.51-1.21,0-2.35.52-3.14,1.43-.87,1.03-20.52,24.64-29.4,60.1-13.91-8.7-27.59-15.42-50.61-18.1-1.09-.11-2.18.2-3.04.88-.84.71-1.36,1.73-1.44,2.82-.13,1.67-2.65,39.06,19.67,69.52-13.52,3.46-28.26,17.41-33.28,27.05-.89,1.71-.44,3.8,1.06,5.01.67.55,15.59,12.24,41.87,18.59-2.83,4.57-5.26,10.19-5.02,14.25.08,1.57,1.07,2.96,2.54,3.53,7.51,2.69,15.42,4.09,23.39,4.14,12.1,0,27.69-3.67,37.41-19.89,9.81,15.92,25.15,19.51,37,19.51,8.17-.06,16.26-1.54,23.92-4.37,1.31-.52,2.24-1.7,2.46-3.09.81-4.87-2.01-10.2-4.83-14.14,22.76-4.89,39.39-18.14,40.16-18.76,1.5-1.22,1.93-3.33,1.03-5.04ZM1020.61,320.22c11.47,2.53,21.74,8.86,29.15,17.97l-57.95.03c-.32-.2-.66-.35-1.02-.45l-21.05-17.46h49.22M881.18,252.62l38.98,33.98-32.22.03c-3.94-10.94-6.22-22.4-6.76-34.02h0ZM926.85,281.68l-2.06-1.78c-.14-.12-.28-.21-.41-.3l-33.84-29.5c14.82,3.43,25,9.14,36.26,16.38l.04,15.2ZM934.93,288.74l-.05-24.04c4.84-22.79,14.92-41.21,21.79-51.86v94.88l-21.74-18.99ZM1035.25,286.46c-.09-.02-.19-.03-.28-.03l-33.5-.03,39.31-34.29c-.1,11.67-1.97,23.25-5.53,34.36ZM996.88,279.69c-.1.07-.18.12-.28.2l-1.83,1.6v-15.19c9.58-5.94,21-12.66,36.61-16.69l-34.5,30.08ZM986.7,288.55l-21.96,19.19v-95.13c10.99,16.26,18.83,34.62,22,51.86l-.04,24.08ZM1019.76,312.35c-.26-.06-.52-.09-.79-.08h-47.17l20.41-17.83,39.85.04c-3,6.64-7.17,12.69-12.3,17.87h0ZM891.32,294.7l38.13-.04,20.14,17.6h-47.08c-4.45-5.36-8.22-11.26-11.19-17.56ZM902.32,320.31h49.14l-21.32,17.7c-.34.1-.67.24-.98.42l-58.96-.02c7.14-9.04,20.57-19.29,29.96-18.13M878.62,346.48l41.19.02-11.63,10.13c-10.24-2.13-20.17-5.54-29.56-10.15ZM905.92,374.86c1.42-4.02,3.55-7.76,6.27-11.04l12.21-10.63c.08-.06.17-.1.23-.15l1.9-1.57-.02,25.88c-1.03.07-2.09.1-3.17.1-5.9-.06-11.76-.93-17.42-2.59h0ZM934.57,376.09l.04-31.31,21.96-18.22v29.44c-4.46,10.63-11.83,17.36-22.01,20.09h0ZM964.63,355.56v-29l21.76,18.02.04,31.04c-9.98-2.75-17.28-9.46-21.8-20.07h0ZM997.75,377.08c-1.1,0-2.21-.05-3.27-.12l-.04-25.68,2.14,1.76c.12.1.25.19.39.27l11.92,10.38c2.73,2.74,6.06,7.28,7.05,10.52-5.89,1.84-12.02,2.8-18.2,2.87ZM1012.91,356.5l-11.74-10.23h41.09c-9.13,5.05-19.06,8.51-29.35,10.23h0Z"/>
    </g>
  </g>
</svg>