<?xml version="1.0" encoding="UTF-8"?>
<svg id="uuid-d573fd55-de04-4ea4-8bb4-f3a5f34a7deb" data-name="uuid-72595669-e374-4c27-8906-8e23e14b2603" xmlns="http://www.w3.org/2000/svg" viewBox="0 0 1920 423">
  <defs>
    <style>
      .uuid-be7f0624-55f7-4216-b71f-fef6ef4675b3 {
        isolation: isolate;
      }

      .uuid-bf4afa72-8777-473d-a73c-82e22ab168be {
        fill: #fff;
        stroke-width: 0px;
      }
    </style>
  </defs>
  <g id="uuid-0dc407a7-1fb3-4d0e-b2ad-865cf798ba2b" data-name=" 3D LIVE EVENT " class="uuid-be7f0624-55f7-4216-b71f-fef6ef4675b3">
    <g class="uuid-be7f0624-55f7-4216-b71f-fef6ef4675b3">
      <path class="uuid-bf4afa72-8777-473d-a73c-82e22ab168be" d="M1339.3,230.3c7.93,4.13,11.9,10.1,11.9,17.9,0,6.47-2.27,11.67-6.8,15.6-4.47,4-10.37,6-17.7,6-7.93,0-14.08-2.07-18.45-6.2-4.37-4.13-6.52-9.77-6.45-16.9h8.3c.13,5.07,1.63,8.92,4.5,11.55,2.87,2.63,6.9,3.95,12.1,3.95,4.8,0,8.62-1.27,11.45-3.8,2.83-2.53,4.25-5.93,4.25-10.2s-1.45-7.78-4.35-10.35-6.85-3.85-11.85-3.85h-5.3v-7h4.8c4.73,0,8.38-1.07,10.95-3.2,2.57-2.13,3.85-5.1,3.85-8.9s-1.28-6.65-3.85-8.75c-2.57-2.1-6.05-3.15-10.45-3.15s-8.02,1.15-10.65,3.45c-2.63,2.3-4.05,5.68-4.25,10.15h-8.4c.07-6.47,2.18-11.62,6.35-15.45,4.17-3.83,9.82-5.75,16.95-5.75s12.38,1.72,16.55,5.15c4.17,3.43,6.25,8.15,6.25,14.15,0,6.8-3.23,12-9.7,15.6Z"/>
      <path class="uuid-bf4afa72-8777-473d-a73c-82e22ab168be" d="M1361.2,197h24c10.8,0,19.33,3.13,25.6,9.4,6.2,6.27,9.3,15,9.3,26.2s-3.1,19.77-9.3,26.1c-6.33,6.33-14.87,9.5-25.6,9.5h-24v-71.2ZM1369.6,260.6h15.6c8.4,0,14.85-2.47,19.35-7.4,4.5-4.93,6.75-11.8,6.75-20.6s-2.25-15.67-6.75-20.6c-4.5-4.93-10.95-7.4-19.35-7.4h-15.6v56Z"/>
      <path class="uuid-bf4afa72-8777-473d-a73c-82e22ab168be" d="M1473,229h18.5v7.2h-18.5v18.5h-7.8v-18.5h-18.6v-7.2h18.6v-18.5h7.8v18.5Z"/>
    </g>
    <g class="uuid-be7f0624-55f7-4216-b71f-fef6ef4675b3">
      <path class="uuid-bf4afa72-8777-473d-a73c-82e22ab168be" d="M1312.2,277v63.6h35.8v7.6h-44.2v-71.2h8.4Z"/>
      <path class="uuid-bf4afa72-8777-473d-a73c-82e22ab168be" d="M1364.9,348.2h-8.4v-71.2h8.4v71.2Z"/>
      <path class="uuid-bf4afa72-8777-473d-a73c-82e22ab168be" d="M1409.5,322.1l16.2-45.1h8.8l-26.4,71.2h-9.4l-26.8-71.2h8.9l16.5,45.1c3,8.47,5.03,14.37,6.1,17.7,1-3.33,3.03-9.23,6.1-17.7Z"/>
      <path class="uuid-bf4afa72-8777-473d-a73c-82e22ab168be" d="M1491,277v7.6h-41.1v22.7h37.1v7.6h-37.1v25.7h40.7v7.6h-49.1v-71.2h49.5Z"/>
      <path class="uuid-bf4afa72-8777-473d-a73c-82e22ab168be" d="M1568.5,277v7.6h-41.1v22.7h37.1v7.6h-37.1v25.7h40.7v7.6h-49.1v-71.2h49.5Z"/>
      <path class="uuid-bf4afa72-8777-473d-a73c-82e22ab168be" d="M1608.6,322.1l16.2-45.1h8.8l-26.4,71.2h-9.4l-26.8-71.2h8.9l16.5,45.1c3,8.47,5.03,14.37,6.1,17.7,1-3.33,3.03-9.23,6.1-17.7Z"/>
      <path class="uuid-bf4afa72-8777-473d-a73c-82e22ab168be" d="M1690.1,277v7.6h-41.1v22.7h37.1v7.6h-37.1v25.7h40.7v7.6h-49.1v-71.2h49.5Z"/>
      <path class="uuid-bf4afa72-8777-473d-a73c-82e22ab168be" d="M1747.4,301v-24h8.3v71.2h-10.2l-23.6-36.7c-6.8-10.8-11.73-18.83-14.8-24.1.2,9.33.3,21.6.3,36.8v24h-8.3v-71.2h10.2l23.6,36.7c6.8,10.8,11.73,18.83,14.8,24.1-.2-9.33-.3-21.6-.3-36.8Z"/>
      <path class="uuid-bf4afa72-8777-473d-a73c-82e22ab168be" d="M1763.2,277h57.1v7.6h-24.2v63.6h-8.7v-63.6h-24.2v-7.6Z"/>
    </g>
  </g>
</svg>