<?xml version="1.0" encoding="UTF-8"?>
<svg id="uuid-f3ce7215-e6f7-4fee-a81d-22ae0f6c910f" data-name="uuid-72595669-e374-4c27-8906-8e23e14b2603" xmlns="http://www.w3.org/2000/svg" viewBox="0 0 1920 423">
  <defs>
    <style>
      .uuid-3244857a-9259-4b0f-8bdc-54f09212a6df {
        isolation: isolate;
      }

      .uuid-1d57f27b-008b-4588-bff4-dc06b6916bd3 {
        fill: #fff;
        stroke-width: 0px;
      }
    </style>
  </defs>
  <g id="uuid-ef1503e6-52c9-4af9-859f-799586326c72" data-name="TROIA RETAIL " class="uuid-3244857a-9259-4b0f-8bdc-54f09212a6df">
    <g class="uuid-3244857a-9259-4b0f-8bdc-54f09212a6df">
      <path class="uuid-1d57f27b-008b-4588-bff4-dc06b6916bd3" d="M73.85,198.5h57.1v7.6h-24.2v63.6h-8.7v-63.6h-24.2v-7.6Z"/>
      <path class="uuid-1d57f27b-008b-4588-bff4-dc06b6916bd3" d="M190.75,249.1l.7,11.5c.33,4,1.2,7.03,2.6,9.1h-8.7c-1.47-2.13-2.23-5.3-2.3-9.5l-.3-7.6c-.2-4.8-1.27-8.22-3.2-10.25-1.93-2.03-5.1-3.05-9.5-3.05h-23.2v30.4h-8.4v-71.2h30.1c7.33,0,13.18,1.7,17.55,5.1,4.37,3.4,6.55,8.17,6.55,14.3,0,4.33-1.05,7.98-3.15,10.95-2.1,2.97-4.95,5.05-8.55,6.25,6,1.87,9.27,6.53,9.8,14ZM146.85,231.7h22.7c4.47,0,7.98-1.15,10.55-3.45s3.85-5.58,3.85-9.85-1.35-7.13-4.05-9.2c-2.7-2.07-6.48-3.1-11.35-3.1h-21.7v25.6Z"/>
      <path class="uuid-1d57f27b-008b-4588-bff4-dc06b6916bd3" d="M258.95,261c-6.27,6.87-14.53,10.3-24.8,10.3s-18.5-3.43-24.7-10.3c-6.27-6.73-9.4-15.7-9.4-26.9s3.13-20.13,9.4-27c6.2-6.8,14.43-10.2,24.7-10.2s18.53,3.4,24.8,10.2c6.2,6.93,9.3,15.93,9.3,27s-3.1,20.1-9.3,26.9ZM215.75,255.6c4.6,5.33,10.73,8,18.4,8s13.8-2.67,18.4-8c4.6-5.27,6.9-12.43,6.9-21.5s-2.3-16.23-6.9-21.5c-4.6-5.33-10.73-8-18.4-8s-13.8,2.67-18.4,8c-4.6,5.27-6.9,12.43-6.9,21.5s2.3,16.23,6.9,21.5Z"/>
      <path class="uuid-1d57f27b-008b-4588-bff4-dc06b6916bd3" d="M286.65,269.7h-8.4v-71.2h8.4v71.2Z"/>
      <path class="uuid-1d57f27b-008b-4588-bff4-dc06b6916bd3" d="M359.25,269.7h-8.9l-8.3-20.7h-32.4l-8.2,20.7h-8.8l28.4-71.2h9.4l28.8,71.2ZM312.95,240.6l-.3.8h26.4l-.4-.9c-1.67-4.07-6-15.03-13-32.9-4.73,12.67-8.97,23.67-12.7,33Z"/>
    </g>
    <g class="uuid-3244857a-9259-4b0f-8bdc-54f09212a6df">
      <path class="uuid-1d57f27b-008b-4588-bff4-dc06b6916bd3" d="M130.65,329.1l.7,11.5c.33,4,1.2,7.03,2.6,9.1h-8.7c-1.47-2.13-2.23-5.3-2.3-9.5l-.3-7.6c-.2-4.8-1.27-8.22-3.2-10.25-1.93-2.03-5.1-3.05-9.5-3.05h-23.2v30.4h-8.4v-71.2h30.1c7.33,0,13.18,1.7,17.55,5.1,4.37,3.4,6.55,8.17,6.55,14.3,0,4.33-1.05,7.98-3.15,10.95-2.1,2.97-4.95,5.05-8.55,6.25,6,1.87,9.27,6.53,9.8,14ZM86.75,311.7h22.7c4.47,0,7.98-1.15,10.55-3.45s3.85-5.58,3.85-9.85-1.35-7.13-4.05-9.2c-2.7-2.07-6.48-3.1-11.35-3.1h-21.7v25.6Z"/>
      <path class="uuid-1d57f27b-008b-4588-bff4-dc06b6916bd3" d="M192.45,278.5v7.6h-41.1v22.7h37.1v7.6h-37.1v25.7h40.7v7.6h-49.1v-71.2h49.5Z"/>
      <path class="uuid-1d57f27b-008b-4588-bff4-dc06b6916bd3" d="M196.45,278.5h57.1v7.6h-24.2v63.6h-8.7v-63.6h-24.2v-7.6Z"/>
      <path class="uuid-1d57f27b-008b-4588-bff4-dc06b6916bd3" d="M309.15,349.7h-8.9l-8.3-20.7h-32.4l-8.2,20.7h-8.8l28.4-71.2h9.4l28.8,71.2ZM262.85,320.6l-.3.8h26.4l-.4-.9c-1.67-4.07-6-15.03-13-32.9-4.73,12.67-8.97,23.67-12.7,33Z"/>
      <path class="uuid-1d57f27b-008b-4588-bff4-dc06b6916bd3" d="M323.55,349.7h-8.4v-71.2h8.4v71.2Z"/>
      <path class="uuid-1d57f27b-008b-4588-bff4-dc06b6916bd3" d="M344.95,278.5v63.6h35.8v7.6h-44.2v-71.2h8.4Z"/>
    </g>
  </g>
</svg>