<?xml version="1.0" encoding="UTF-8"?>
<svg id="uuid-e9aee20f-e279-47b8-ba85-f4cf6d14b9b1" data-name="Layer 1" xmlns="http://www.w3.org/2000/svg" viewBox="0 0 1923 325.02">
  <defs>
    <style>
      .uuid-b036862b-b705-42d0-9000-350f9ac85a55 {
        fill: #fff;
        stroke-width: 0px;
      }

                     .st4{fill:#FFFFFF;}
	.st3{fill:#FFFFFF;}
    </style>
  </defs>
  <g>
    <polygon class="st4" points="558.57 204.42 540.69 204.42 595.89 111.89 613.77 111.89 558.57 204.42"/>
    <polygon class="st4" points="606.68 204.42 588.8 204.42 644 111.89 661.88 111.89 606.68 204.42"/>
    <polygon class="st4" points="654.78 204.42 636.91 204.42 692.11 111.89 709.99 111.89 654.78 204.42"/>
    <polygon class="st4" points="702.89 204.42 685.01 204.42 740.22 111.89 758.09 111.89 702.89 204.42"/>
    <polygon class="st4" points="751 204.42 733.12 204.42 788.32 111.89 806.2 111.89 751 204.42"/>
    <polygon class="st4" points="799.11 204.42 781.23 204.42 836.43 111.89 854.31 111.89 799.11 204.42"/>
  </g>
  <polygon class="uuid-b036862b-b705-42d0-9000-350f9ac85a55" points="43 6.5 43 13 14.68 13 14.68 41.32 8.18 41.32 8.18 6.5 43 6.5"/>
  <polygon class="uuid-b036862b-b705-42d0-9000-350f9ac85a55" points="1881.65 7.5 1881.65 14 1909.97 14 1909.97 42.32 1916.47 42.32 1916.47 7.5 1881.65 7.5"/>
  <polygon class="uuid-b036862b-b705-42d0-9000-350f9ac85a55" points="42.33 319.44 42.33 312.95 14.01 312.95 14.01 284.62 7.51 284.62 7.51 319.44 42.33 319.44"/>
  <polygon class="uuid-b036862b-b705-42d0-9000-350f9ac85a55" points="1881.65 318.44 1881.65 311.95 1909.97 311.95 1909.97 283.62 1916.47 283.62 1916.47 318.44 1881.65 318.44"/>
  <g>
    <rect class="uuid-b036862b-b705-42d0-9000-350f9ac85a55" x="1680.87" y="73.09" width="2.15" height="50.44"/>
    <rect class="uuid-b036862b-b705-42d0-9000-350f9ac85a55" x="1689.48" y="73.09" width="4.3" height="50.44"/>
    <rect class="uuid-b036862b-b705-42d0-9000-350f9ac85a55" x="1700.23" y="73.09" width="2.15" height="50.44"/>
    <rect class="uuid-b036862b-b705-42d0-9000-350f9ac85a55" x="1704.53" y="73.09" width="2.15" height="50.44"/>
    <rect class="uuid-b036862b-b705-42d0-9000-350f9ac85a55" x="1715.28" y="73.09" width="2.15" height="50.44"/>
    <rect class="uuid-b036862b-b705-42d0-9000-350f9ac85a55" x="1719.58" y="73.09" width="8.6" height="50.44"/>
    <rect class="uuid-b036862b-b705-42d0-9000-350f9ac85a55" x="1730.34" y="73.09" width="2.15" height="50.44"/>
    <rect class="uuid-b036862b-b705-42d0-9000-350f9ac85a55" x="1734.64" y="73.09" width="2.15" height="50.44"/>
    <rect class="uuid-b036862b-b705-42d0-9000-350f9ac85a55" x="1743.24" y="73.09" width="4.3" height="50.44"/>
    <rect class="uuid-b036862b-b705-42d0-9000-350f9ac85a55" x="1749.69" y="73.09" width="6.45" height="50.44"/>
    <rect class="uuid-b036862b-b705-42d0-9000-350f9ac85a55" x="1760.44" y="73.09" width="2.15" height="50.44"/>
    <rect class="uuid-b036862b-b705-42d0-9000-350f9ac85a55" x="1764.74" y="73.09" width="2.15" height="50.44"/>
    <rect class="uuid-b036862b-b705-42d0-9000-350f9ac85a55" x="1775.5" y="73.09" width="2.15" height="50.44"/>
    <rect class="uuid-b036862b-b705-42d0-9000-350f9ac85a55" x="1779.8" y="73.09" width="2.15" height="50.44"/>
    <rect class="uuid-b036862b-b705-42d0-9000-350f9ac85a55" x="1784.1" y="73.09" width="2.15" height="50.44"/>
    <rect class="uuid-b036862b-b705-42d0-9000-350f9ac85a55" x="1788.4" y="73.09" width="2.15" height="50.44"/>
    <rect class="uuid-b036862b-b705-42d0-9000-350f9ac85a55" x="1792.7" y="73.09" width="6.45" height="50.44"/>
    <rect class="uuid-b036862b-b705-42d0-9000-350f9ac85a55" x="1803.45" y="73.09" width="2.15" height="50.44"/>
    <rect class="uuid-b036862b-b705-42d0-9000-350f9ac85a55" x="1809.91" y="73.09" width="6.45" height="50.44"/>
    <rect class="uuid-b036862b-b705-42d0-9000-350f9ac85a55" x="1818.51" y="73.09" width="4.3" height="50.44"/>
    <rect class="uuid-b036862b-b705-42d0-9000-350f9ac85a55" x="1824.96" y="73.09" width="4.3" height="50.44"/>
    <rect class="uuid-b036862b-b705-42d0-9000-350f9ac85a55" x="1833.56" y="73.09" width="2.15" height="50.44"/>
    <rect class="uuid-b036862b-b705-42d0-9000-350f9ac85a55" x="1840.01" y="73.09" width="6.45" height="50.44"/>
    <rect class="uuid-b036862b-b705-42d0-9000-350f9ac85a55" x="1848.62" y="73.09" width="2.15" height="50.44"/>
    <rect class="uuid-b036862b-b705-42d0-9000-350f9ac85a55" x="1859.37" y="73.09" width="2.15" height="50.44"/>
    <rect class="uuid-b036862b-b705-42d0-9000-350f9ac85a55" x="1863.67" y="73.09" width="6.45" height="50.44"/>
    <rect class="uuid-b036862b-b705-42d0-9000-350f9ac85a55" x="1874.42" y="73.09" width="2.15" height="50.44"/>
    <rect class="uuid-b036862b-b705-42d0-9000-350f9ac85a55" x="1878.72" y="73.09" width="2.15" height="50.44"/>
    <rect class="uuid-b036862b-b705-42d0-9000-350f9ac85a55" x="1883.03" y="73.09" width="2.15" height="50.44"/>
  </g>
  <g>
    <path class="st3" d="M43.59,64.9h13.83v34.53h19.88v11.87h-33.71v-46.4Z"/>
    <path class="st3" d="M83.2,88.1c.04-7.24,2.16-13.07,6.37-17.49,4.06-4.46,9.53-6.74,16.42-6.82,6.97.08,12.49,2.36,16.57,6.82,4.1,4.42,6.17,10.25,6.21,17.49-.04,7.19-2.11,13-6.21,17.42-4.08,4.51-9.6,6.8-16.57,6.89-6.89-.08-12.36-2.38-16.42-6.89-4.2-4.42-6.32-10.23-6.37-17.42ZM97.03,88.1c0,2.53.32,4.61.95,6.27.59,1.68,1.35,2.99,2.28,3.95,1.93,1.74,3.84,2.59,5.72,2.55.88,0,1.87-.19,2.95-.57,1.05-.4,2.01-1.06,2.89-1.97.94-.96,1.7-2.27,2.28-3.95.55-1.66.83-3.74.83-6.27s-.28-4.76-.83-6.46c-.57-1.7-1.33-2.98-2.28-3.85-1.97-1.7-3.92-2.51-5.85-2.45-.88,0-1.83.15-2.83.45-1.01.38-1.97,1.05-2.89,2-.43.45-.83.98-1.2,1.59-.39.64-.75,1.39-1.08,2.26-.64,1.7-.95,3.85-.95,6.46Z"/>
    <path class="st3" d="M169.19,106.59c-.76.95-1.6,1.78-2.52,2.5-.96.74-2.02,1.37-3.17,1.9-1.05.42-2.17.77-3.38,1.04-1.23.25-2.47.38-3.72.38-6.68-.08-11.91-2.42-15.68-7.01-3.81-4.46-5.74-10.08-5.78-16.85.12-8.78,2.55-15.13,7.29-19.04,4.57-3.85,9.53-5.75,14.88-5.71,11.62.17,18.52,5.95,20.69,17.34h-13.29c-.29-1.74-1.01-3.15-2.18-4.23-1.23-1-2.69-1.52-4.37-1.56-2.3.04-4.08.56-5.35,1.56-1.29,1.08-2.21,2.41-2.77,3.98-.55,1.51-.87,3-.95,4.49-.08,1.49-.12,2.65-.12,3.5,0,1.1.15,2.32.46,3.66.29,1.36.79,2.66,1.51,3.92.76,1.25,1.78,2.29,3.08,3.12,1.35.87,3.05,1.3,5.1,1.3,1.68,0,3.21-.44,4.58-1.3,1.35-.87,2.21-2.14,2.58-3.82l-6.09-.02v-9.9h18.39v25.49h-8.76l-.43-4.71Z"/>
    <path class="st3" d="M186.82,64.9h13.83v46.4h-13.83v-46.4Z"/>
    <path class="st3" d="M218.98,76.76h-12.58v-11.87h39.02v11.87h-12.6v34.53h-13.83v-34.53Z"/>
    <path class="st3" d="M251.89,64.9h37.19v11.87h-23.35v5.81h21.2v11.04h-21.2v5.81h24.06v11.87h-37.89v-46.4Z"/>
    <path class="st3" d="M325.95,82.18c-.04-.49-.16-1.12-.37-1.91-.25-.74-.63-1.47-1.14-2.2-.49-.83-1.21-1.51-2.15-2.04-.92-.47-2.11-.7-3.57-.7-3.15.08-5.38,1.43-6.67,4.04-1.31,2.55-1.95,5.45-1.91,8.72-.04,3.27.59,6.17,1.91,8.72,1.29,2.65,3.52,4,6.67,4.04,2.3,0,4.02-.75,5.17-2.26,1.09-1.44,1.79-3.27,2.12-5.47h13.62c-.04,4.88-1.8,9.25-5.29,13.1-3.48,4-8.57,6.06-15.25,6.18-7.26-.08-12.86-2.44-16.82-7.08-3.98-4.51-5.96-10.25-5.96-17.23.04-7.45,2.11-13.34,6.21-17.68,4.04-4.38,9.56-6.59,16.57-6.63,12.34.34,19.12,6.47,20.35,18.39h-13.5Z"/>
    <path class="st3" d="M346.08,64.9h13.84v16.13h13.88v-16.13h13.83v46.4h-13.83v-18.41h-13.88v18.41h-13.84v-46.4Z"/>
    <path class="st3" d="M43.59,136.9h13.83v46.4h-13.83v-46.4Z"/>
    <path class="st3" d="M64.34,136.9h13.84v16.13h13.88v-16.13h13.83v46.4h-13.83v-18.41h-13.88v18.41h-13.84v-46.4Z"/>
    <path class="st3" d="M114.56,136.9h37.19v11.87h-23.35v5.81h21.2v11.04h-21.2v5.81h24.06v11.87h-37.89v-46.4Z"/>
    <path class="st3" d="M172.77,136.9h13.53l16.39,46.4h-14.36l-1.88-6.63h-14.3l-2.03,6.63h-13.9l16.54-46.4ZM183.65,166.77l-4.03-14.35h-.12l-4.33,14.35h8.49Z"/>
    <path class="st3" d="M206.37,136.9h26.95c4.15,0,7.66,1.1,10.55,3.3,2.87,2.22,4.34,5.54,4.43,9.97,0,2.46-.54,4.77-1.62,6.95-1.19,2.12-2.96,3.67-5.33,4.67,3.98,1.69,6.25,5.55,6.82,11.58.08.55.14,1.26.19,2.13.08.87.14,1.8.19,2.79.16,2.09.54,3.77,1.14,5.01h-13.86c-.61-2.35-.98-4.74-1.11-7.15-.04-1.15-.16-2.28-.36-3.4-.17-1.04-.48-1.99-.92-2.86-.42-.87-1.05-1.56-1.9-2.07-.85-.49-2.01-.73-3.47-.73h-7.86v16.22h-13.84v-46.4ZM220.21,157.18h7.75c1.51.04,2.94-.22,4.3-.79,1.42-.55,2.16-1.83,2.2-3.84,0-1.5-.49-2.64-1.48-3.43-1.12-.78-3.06-1.17-5.84-1.17h-6.93v9.24Z"/>
    <path class="st3" d="M264.74,148.76h-12.58v-11.87h39.02v11.87h-12.6v34.53h-13.83v-34.53Z"/>
    <path class="st3" d="M71.89,226.18c-.04-.49-.16-1.12-.37-1.91-.25-.74-.63-1.47-1.14-2.2-.49-.83-1.21-1.51-2.15-2.04-.92-.47-2.11-.7-3.57-.7-3.15.08-5.38,1.43-6.67,4.04-1.31,2.55-1.95,5.45-1.91,8.72-.04,3.27.59,6.17,1.91,8.72,1.29,2.65,3.52,4,6.67,4.04,2.3,0,4.02-.75,5.17-2.26,1.09-1.44,1.79-3.27,2.12-5.47h13.62c-.04,4.88-1.8,9.25-5.29,13.1-3.48,4-8.57,6.06-15.25,6.18-7.26-.08-12.86-2.44-16.82-7.08-3.98-4.51-5.96-10.25-5.96-17.23.04-7.45,2.11-13.34,6.21-17.68,4.04-4.38,9.56-6.59,16.57-6.63,12.34.34,19.12,6.47,20.35,18.39h-13.5Z"/>
    <path class="st3" d="M91.58,232.1c.04-7.24,2.16-13.07,6.37-17.49,4.06-4.46,9.53-6.74,16.42-6.82,6.97.08,12.49,2.36,16.57,6.82,4.1,4.42,6.17,10.25,6.21,17.49-.04,7.19-2.11,13-6.21,17.42-4.08,4.51-9.6,6.8-16.57,6.89-6.89-.08-12.36-2.38-16.42-6.89-4.2-4.42-6.32-10.23-6.37-17.42ZM105.41,232.1c0,2.53.32,4.61.95,6.27.59,1.68,1.35,2.99,2.28,3.95,1.93,1.74,3.84,2.59,5.72,2.55.88,0,1.87-.19,2.95-.57,1.05-.4,2.01-1.06,2.89-1.97.94-.96,1.7-2.27,2.28-3.95.55-1.66.83-3.74.83-6.27s-.28-4.76-.83-6.46c-.57-1.7-1.33-2.98-2.28-3.85-1.97-1.7-3.92-2.51-5.85-2.45-.88,0-1.83.15-2.83.45-1.01.38-1.97,1.05-2.89,2-.43.45-.83.98-1.2,1.59-.39.64-.75,1.39-1.08,2.26-.64,1.7-.95,3.85-.95,6.46Z"/>
    <path class="st3" d="M144.58,208.9h19.71l6.43,27.3h.12l6.43-27.3h19.68v46.4h-13.07v-29.77h-.15l-7.79,29.77h-10.34l-7.82-29.77h-.12v29.77h-13.07v-46.4Z"/>
    <path class="st3" d="M205.99,208.9h13.83v46.4h-13.83v-46.4Z"/>
    <path class="st3" d="M240.05,230.57l-15.27-21.67h16.76l7.01,12.6,6.89-12.6h15.87l-14.89,21.8,16.57,24.6h-17.23l-7.9-13.83-8.22,13.83h-16.38l16.79-24.73Z"/>
  </g>
  <g>
    <path class="uuid-b036862b-b705-42d0-9000-350f9ac85a55" d="M1528.54,132.01h9.79v24.44h14.07v8.4h-23.86v-32.84Z"/>
    <path class="uuid-b036862b-b705-42d0-9000-350f9ac85a55" d="M1581.61,152.91c0,3.4-1.04,6.31-3.11,8.73-2.06,2.48-5.32,3.75-9.77,3.81-4.4-.06-7.64-1.33-9.73-3.82-2.13-2.43-3.18-5.34-3.13-8.74-.04-3.44,1-6.36,3.13-8.76,2.09-2.44,5.33-3.69,9.73-3.75,4.46.06,7.71,1.31,9.77,3.75,2.07,2.4,3.11,5.32,3.11,8.77ZM1572.81,152.91c0-.65-.03-1.33-.09-2.05-.09-.71-.29-1.34-.58-1.89-.28-.6-.68-1.09-1.19-1.46-.58-.34-1.31-.52-2.2-.52s-1.54.17-2.06.52c-.58.38-1,.86-1.29,1.46-.51,1.23-.75,2.54-.72,3.94,0,.62.06,1.26.19,1.94.09.67.27,1.32.54,1.94.28.62.71,1.1,1.29,1.46.51.41,1.2.61,2.06.61s1.62-.2,2.2-.61c.51-.36.91-.85,1.19-1.46.48-1.26.71-2.55.68-3.87Z"/>
    <path class="uuid-b036862b-b705-42d0-9000-350f9ac85a55" d="M1600.18,147.93c-.06-.81-.4-1.41-1.02-1.81-.63-.47-1.35-.71-2.17-.71-.72,0-1.38.11-1.97.32-.66.25-.99.77-.99,1.53,0,.3.12.54.37.72.23.23.47.4.71.52.44.15.96.27,1.56.36.61.14,1.27.26,1.97.38,1.5.24,3.04.61,4.63,1.1,1.52.44,2.81,1.17,3.86,2.21.54.5.96,1.11,1.26,1.85.26.74.39,1.62.39,2.64,0,1.64-.35,2.99-1.04,4.03-.69,1.11-1.62,1.98-2.77,2.62-2.45,1.19-5.17,1.78-8.15,1.75-2.91,0-5.55-.64-7.91-1.93-2.35-1.28-3.63-3.44-3.86-6.47h8.67c.06.82.43,1.52,1.1,2.09.49.46,1.31.69,2.44.69.64,0,1.31-.14,2.02-.43.67-.27,1.02-.74,1.05-1.42s-.26-1.18-.88-1.53c-.67-.33-2.05-.67-4.13-1.01-3.43-.58-5.92-1.49-7.46-2.72-1.53-1.18-2.29-2.78-2.29-4.79,0-1.5.36-2.75,1.09-3.75.7-1.02,1.61-1.79,2.73-2.31,1.12-.58,2.34-.98,3.64-1.19,1.24-.21,2.46-.31,3.66-.31,2.71-.04,5.24.43,7.59,1.42,1.12.53,2.03,1.29,2.73,2.3.7.99,1.08,2.27,1.15,3.83h-8.01Z"/>
    <path class="uuid-b036862b-b705-42d0-9000-350f9ac85a55" d="M1537.35,176.01h9.57l11.6,32.84h-10.16l-1.33-4.69h-10.12l-1.44,4.69h-9.84l11.71-32.84ZM1545.05,197.14l-2.85-10.15h-.09l-3.07,10.15h6Z"/>
    <path class="uuid-b036862b-b705-42d0-9000-350f9ac85a55" d="M1561.62,184.97h8.77v3.03h.09c1.61-2.41,4.2-3.62,7.76-3.62,2.16,0,4.01.66,5.57,1.98,1.54,1.32,2.32,3.35,2.35,6.11v16.37h-8.8v-12.53c.03-1.41-.13-2.55-.49-3.42-.38-.85-1.25-1.28-2.63-1.28-.86-.03-1.68.25-2.46.83-.38.3-.7.76-.96,1.37-.25.65-.38,1.45-.38,2.41v12.62h-8.8v-23.88Z"/>
    <path class="uuid-b036862b-b705-42d0-9000-350f9ac85a55" d="M1615.51,205.79c0,1.17-.1,2.41-.3,3.72-.25,1.31-.78,2.55-1.61,3.72-.77,1.12-1.97,2.03-3.61,2.73-1.64.78-3.8,1.18-6.5,1.21-2.83.03-5.41-.51-7.74-1.61-2.38-1.08-3.82-3.19-4.33-6.34h8.73c.13.25.3.53.5.82.29.43.66.81,1.11,1.14.45.37.94.57,1.48.6.71-.03,1.31-.23,1.79-.61.44-.39.79-.86,1.07-1.42.41-1.23.61-2.38.61-3.46v-2.2h-.09c-1.5,2.17-3.62,3.28-6.38,3.32-3.47-.04-6.03-1.2-7.68-3.46-1.69-2.22-2.54-4.95-2.54-8.2s.89-5.9,2.67-8.04c1.72-2.17,4.28-3.29,7.68-3.35,1.38,0,2.64.25,3.77.76,1.14.58,1.96,1.49,2.47,2.72h.09v-2.9h8.8v20.82ZM1598.82,195.74c0,.65.08,1.32.23,2.03.12.72.34,1.35.65,1.89.61,1.26,1.73,1.91,3.36,1.94.89,0,1.59-.2,2.1-.58.54-.35.93-.81,1.14-1.4.45-1.19.66-2.49.63-3.92,0-1.38-.33-2.5-1-3.35-.67-.87-1.7-1.32-3.11-1.35-1.34.03-2.34.5-3.01,1.4-.67.92-1,2.03-1,3.35Z"/>
    <path class="uuid-b036862b-b705-42d0-9000-350f9ac85a55" d="M1627.28,198.96c.15,1.35.61,2.45,1.37,3.3.73.9,1.82,1.35,3.26,1.35.78,0,1.52-.16,2.23-.47.7-.27,1.24-.68,1.6-1.24h8.52c-.96,2.58-2.54,4.48-4.73,5.7-2.18,1.23-4.65,1.84-7.42,1.84-3.85-.03-6.99-1.12-9.4-3.28-2.52-2.14-3.79-5.2-3.82-9.19.03-3.59,1.18-6.59,3.44-8.98,2.25-2.35,5.26-3.56,9.02-3.62,9.03.12,13.5,4.98,13.42,14.58h-17.47ZM1636.31,194.24c-.03-1.14-.41-2.1-1.14-2.87-.74-.77-1.74-1.15-3-1.15-2.8.03-4.42,1.37-4.85,4.02h8.99Z"/>
    <path class="uuid-b036862b-b705-42d0-9000-350f9ac85a55" d="M1649.56,176.01h8.8v32.84h-8.8v-32.84Z"/>
    <path class="uuid-b036862b-b705-42d0-9000-350f9ac85a55" d="M1670.74,198.96c.15,1.35.61,2.45,1.37,3.3.73.9,1.82,1.35,3.26,1.35.78,0,1.52-.16,2.23-.47.7-.27,1.24-.68,1.6-1.24h8.52c-.96,2.58-2.54,4.48-4.73,5.7-2.18,1.23-4.65,1.84-7.42,1.84-3.85-.03-6.99-1.12-9.4-3.28-2.52-2.14-3.79-5.2-3.82-9.19.03-3.59,1.18-6.59,3.44-8.98,2.25-2.35,5.26-3.56,9.02-3.62,9.03.12,13.5,4.98,13.42,14.58h-17.47ZM1679.77,194.24c-.03-1.14-.41-2.1-1.14-2.87-.74-.77-1.74-1.15-3-1.15-2.8.03-4.42,1.37-4.85,4.02h8.99Z"/>
    <path class="uuid-b036862b-b705-42d0-9000-350f9ac85a55" d="M1706.67,191.93c-.06-.81-.4-1.41-1.02-1.81-.63-.47-1.35-.71-2.17-.71-.72,0-1.38.11-1.97.32-.66.26-.99.77-.99,1.53,0,.3.12.54.37.72.23.23.47.4.71.52.44.15.96.27,1.56.36.61.14,1.27.26,1.97.38,1.5.24,3.04.61,4.63,1.11,1.52.44,2.81,1.17,3.86,2.21.54.5.96,1.11,1.26,1.85.26.74.39,1.62.39,2.64,0,1.64-.35,2.99-1.04,4.03-.69,1.11-1.62,1.98-2.77,2.62-2.45,1.19-5.17,1.78-8.15,1.75-2.91,0-5.55-.64-7.91-1.93-2.35-1.28-3.63-3.44-3.86-6.47h8.67c.06.82.43,1.52,1.1,2.09.49.46,1.31.69,2.44.69.64,0,1.31-.14,2.02-.43.67-.27,1.02-.74,1.05-1.42s-.26-1.18-.88-1.53c-.67-.33-2.05-.67-4.13-1.01-3.43-.58-5.92-1.49-7.46-2.72-1.53-1.18-2.29-2.78-2.29-4.78,0-1.5.36-2.75,1.09-3.75.7-1.02,1.61-1.79,2.73-2.31,1.12-.58,2.34-.98,3.64-1.19,1.24-.21,2.46-.31,3.66-.31,2.71-.04,5.24.43,7.59,1.42,1.12.53,2.03,1.29,2.73,2.3.7.99,1.08,2.27,1.15,3.83h-8.01Z"/>
    <path class="uuid-b036862b-b705-42d0-9000-350f9ac85a55" d="M1719.64,199.77h9.25v7.2c0,2.2-.4,4.17-1.19,5.92-.84,1.75-2.25,2.99-4.23,3.72-.8.28-1.5.44-2.13.47-.68.06-1.25.09-1.69.09v-4c1.13-.12,2.06-.59,2.8-1.42.71-.8,1.09-1.77,1.15-2.91h-3.95v-9.07Z"/>
    <path class="uuid-b036862b-b705-42d0-9000-350f9ac85a55" d="M1548.57,232.24c-.03-.35-.12-.8-.26-1.35-.17-.53-.44-1.04-.81-1.55-.35-.58-.86-1.07-1.52-1.44-.65-.33-1.5-.5-2.53-.5-2.23.06-3.8,1.01-4.72,2.86-.93,1.8-1.38,3.86-1.35,6.17-.03,2.31.42,4.37,1.35,6.17.91,1.88,2.49,2.83,4.72,2.86,1.62,0,2.84-.53,3.66-1.6.77-1.02,1.27-2.31,1.5-3.87h9.64c-.03,3.46-1.28,6.55-3.74,9.27-2.47,2.83-6.06,4.29-10.79,4.38-5.13-.06-9.1-1.73-11.9-5.01-2.81-3.19-4.22-7.25-4.22-12.2.03-5.27,1.49-9.44,4.4-12.51,2.86-3.1,6.77-4.66,11.73-4.69,8.73.24,13.53,4.58,14.4,13.02h-9.55Z"/>
    <path class="uuid-b036862b-b705-42d0-9000-350f9ac85a55" d="M1586.35,247.52c0,.89.06,1.81.18,2.75.12.92.42,1.78.9,2.57h-9.28c-.24-.76-.34-1.51-.31-2.25h-.09c-.99,1.06-2.12,1.8-3.41,2.2-1.35.43-2.77.65-4.26.65-2.29,0-4.18-.58-5.68-1.75-1.61-1.2-2.42-3.02-2.45-5.47,0-1.87.49-3.32,1.48-4.35.94-1.05,2.12-1.8,3.53-2.27,1.48-.49,2.97-.83,4.47-1.01s2.83-.34,4-.49c.34-.1.67-.2.97-.29.28-.09.55-.2.79-.31.49-.3.74-.81.74-1.53-.03-.82-.34-1.4-.92-1.73-.59-.31-1.28-.47-2.07-.47-1.37.03-2.27.29-2.73.78-.46.55-.7,1.1-.7,1.65h-8.49c.12-1.69.55-3.06,1.29-4.11.73-1.03,1.67-1.81,2.82-2.33,1.17-.55,2.47-.94,3.91-1.15,1.39-.15,2.77-.22,4.13-.22,2.79,0,4.97.25,6.55.76,1.57.52,2.67,1.24,3.31,2.13.67.88,1.08,1.88,1.24,2.99.06,1.12.09,2.27.09,3.44v9.82ZM1577.91,242.14c-1.19.53-2.45.91-3.77,1.15-2.15.27-3.22,1.13-3.22,2.59,0,.59.29,1.09.87,1.51.53.46,1.24.7,2.12.7,1.11,0,2.05-.32,2.8-.97.74-.62,1.14-1.54,1.2-2.77v-2.21Z"/>
    <path class="uuid-b036862b-b705-42d0-9000-350f9ac85a55" d="M1591.59,220.01h8.8v32.84h-8.8v-32.84Z"/>
    <path class="uuid-b036862b-b705-42d0-9000-350f9ac85a55" d="M1614.88,226.38h-8.8v-6.38h8.8v6.38ZM1606.08,228.97h8.8v23.88h-8.8v-23.88Z"/>
    <path class="uuid-b036862b-b705-42d0-9000-350f9ac85a55" d="M1621.87,234.58h-3.62v-5.61h3.62c-.06-1.23.03-2.44.26-3.64.25-1.15.77-2.18,1.56-3.08.96-.97,2.04-1.6,3.26-1.89,1.21-.24,2.69-.36,4.43-.36,1.35.03,2.67.09,3.97.18v6.26c-.36-.07-.72-.16-1.08-.25-.38-.06-.75-.09-1.12-.09-1.09,0-1.84.19-2.25.56-.43.42-.62,1.18-.56,2.29h4.78v5.61h-4.45v18.26h-8.8v-18.26Z"/>
    <path class="uuid-b036862b-b705-42d0-9000-350f9ac85a55" d="M1662.52,240.91c0,3.4-1.04,6.31-3.11,8.73-2.06,2.48-5.32,3.75-9.77,3.81-4.4-.06-7.64-1.33-9.73-3.82-2.13-2.43-3.18-5.34-3.13-8.74-.04-3.44,1-6.36,3.13-8.76,2.09-2.44,5.33-3.69,9.73-3.75,4.46.06,7.71,1.31,9.77,3.75,2.07,2.4,3.11,5.32,3.11,8.77ZM1653.71,240.91c0-.65-.03-1.33-.09-2.05-.09-.71-.29-1.34-.58-1.89-.28-.6-.68-1.09-1.19-1.46-.58-.34-1.31-.52-2.2-.52s-1.54.17-2.06.52c-.58.38-1,.86-1.29,1.46-.51,1.23-.75,2.54-.72,3.94,0,.62.06,1.26.19,1.94.09.68.27,1.32.54,1.94.28.62.71,1.1,1.29,1.46.51.41,1.2.61,2.06.61s1.62-.2,2.2-.61c.51-.36.91-.85,1.19-1.46.48-1.26.71-2.55.68-3.87Z"/>
    <path class="uuid-b036862b-b705-42d0-9000-350f9ac85a55" d="M1667.26,228.97h8.46v3.82h.09c.71-1.44,1.59-2.54,2.63-3.3,1-.73,2.29-1.1,3.87-1.1.88,0,1.75.12,2.59.36v8.04c-.42-.18-.89-.33-1.39-.45-.51-.09-1.2-.13-2.09-.13-3.54-.06-5.33,2.34-5.35,7.21v9.43h-8.8v-23.88Z"/>
    <path class="uuid-b036862b-b705-42d0-9000-350f9ac85a55" d="M1688.51,228.97h8.77v3.03h.09c1.61-2.41,4.2-3.62,7.76-3.62,2.16,0,4.01.66,5.57,1.98,1.54,1.32,2.32,3.35,2.35,6.11v16.37h-8.8v-12.53c.03-1.41-.13-2.55-.49-3.42-.38-.85-1.25-1.28-2.63-1.28-.86-.03-1.68.25-2.46.83-.38.3-.7.76-.96,1.37-.25.65-.38,1.45-.38,2.41v12.62h-8.8v-23.88Z"/>
    <path class="uuid-b036862b-b705-42d0-9000-350f9ac85a55" d="M1727.29,226.38h-8.8v-6.38h8.8v6.38ZM1718.49,228.97h8.8v23.88h-8.8v-23.88Z"/>
    <path class="uuid-b036862b-b705-42d0-9000-350f9ac85a55" d="M1755.84,247.52c0,.89.06,1.81.18,2.75.12.92.42,1.78.9,2.57h-9.28c-.24-.76-.34-1.51-.31-2.25h-.09c-.99,1.06-2.12,1.8-3.41,2.2-1.35.43-2.77.65-4.26.65-2.29,0-4.18-.58-5.68-1.75-1.61-1.2-2.42-3.02-2.45-5.47,0-1.87.49-3.32,1.48-4.35.94-1.05,2.12-1.8,3.53-2.27,1.48-.49,2.97-.83,4.47-1.01s2.83-.34,4-.49c.34-.1.67-.2.97-.29.28-.09.55-.2.79-.31.49-.3.74-.81.74-1.53-.03-.82-.34-1.4-.92-1.73-.59-.31-1.28-.47-2.07-.47-1.37.03-2.27.29-2.73.78-.46.55-.7,1.1-.7,1.65h-8.49c.12-1.69.55-3.06,1.29-4.11.73-1.03,1.67-1.81,2.82-2.33,1.17-.55,2.47-.94,3.91-1.15,1.39-.15,2.77-.22,4.13-.22,2.79,0,4.97.25,6.55.76,1.57.52,2.67,1.24,3.31,2.13.67.88,1.08,1.88,1.24,2.99.06,1.12.09,2.27.09,3.44v9.82ZM1747.4,242.14c-1.19.53-2.45.91-3.77,1.15-2.15.27-3.22,1.13-3.22,2.59,0,.59.29,1.09.87,1.51.53.46,1.24.7,2.12.7,1.11,0,2.05-.32,2.8-.97.74-.62,1.14-1.54,1.2-2.77v-2.21Z"/>
  </g>
  <g>
    <path class="uuid-b036862b-b705-42d0-9000-350f9ac85a55" d="M1550.49,103.91h5.66v4.48h-5.66v10.5h-4.96v-10.5h-21.06v-4.78l20.65-26.73h5.37v27.02ZM1545.54,103.91v-20.53l-15.87,20.53h15.87Z"/>
    <path class="uuid-b036862b-b705-42d0-9000-350f9ac85a55" d="M1565.07,114.41h22.18v4.48h-27.73l.12-2.3c.24-3.46,1.02-6.43,2.36-8.91,1.34-2.48,3.6-4.64,6.79-6.49l5.31-3.07c2.67-1.57,4.57-3.11,5.69-4.6,1.12-1.49,1.68-3.3,1.68-5.43,0-2.32-.74-4.18-2.21-5.58-1.48-1.4-3.51-2.09-6.11-2.09-5.86,0-8.79,3.01-8.79,9.03h-4.9c-.04-4.29,1.16-7.61,3.6-9.97,2.44-2.36,5.84-3.54,10.21-3.54,3.97,0,7.2,1.12,9.68,3.36,2.48,2.32,3.72,5.25,3.72,8.79,0,5.43-3.19,9.99-9.56,13.69l-4.48,2.6c-2.6,1.57-4.46,3.1-5.61,4.57-1.14,1.47-1.79,3.29-1.95,5.46Z"/>
    <path class="uuid-b036862b-b705-42d0-9000-350f9ac85a55" d="M1588.49,81.37v-4.48h26.96v3.89c-9.68,10.86-14.71,23.56-15.1,38.11h-5.13c.2-7.28,1.46-13.93,3.81-19.97,2.34-6.04,5.91-11.89,10.71-17.55h-21.24Z"/>
    <path class="uuid-b036862b-b705-42d0-9000-350f9ac85a55" d="M1638.76,96.54c4.68,2.44,7.02,5.96,7.02,10.56,0,3.82-1.34,6.88-4.01,9.2-2.64,2.36-6.12,3.54-10.44,3.54-4.68,0-8.31-1.22-10.88-3.66-2.58-2.44-3.85-5.76-3.81-9.97h4.9c.08,2.99.96,5.26,2.66,6.81,1.69,1.55,4.07,2.33,7.14,2.33,2.83,0,5.08-.75,6.76-2.24,1.67-1.49,2.51-3.5,2.51-6.02s-.86-4.59-2.57-6.11c-1.71-1.51-4.04-2.27-6.99-2.27h-3.13v-4.13h2.83c2.79,0,4.95-.63,6.46-1.89,1.51-1.26,2.27-3.01,2.27-5.25s-.76-3.92-2.27-5.16c-1.51-1.24-3.57-1.86-6.17-1.86s-4.73.68-6.28,2.04c-1.55,1.36-2.39,3.35-2.51,5.99h-4.96c.04-3.81,1.29-6.85,3.75-9.12,2.46-2.26,5.79-3.39,10-3.39s7.31,1.01,9.76,3.04c2.46,2.03,3.69,4.81,3.69,8.35,0,4.01-1.91,7.08-5.72,9.2Z"/>
  </g>
  <g>
    <path class="uuid-b036862b-b705-42d0-9000-350f9ac85a55" d="M1123.02,104.98c5.08,2.65,7.62,6.46,7.62,11.46,0,4.14-1.45,7.47-4.35,9.98-2.86,2.56-6.63,3.84-11.33,3.84-5.08,0-9.01-1.32-11.81-3.97-2.79-2.64-4.17-6.25-4.13-10.82h5.31c.08,3.24,1.04,5.71,2.88,7.39,1.83,1.69,4.42,2.53,7.74,2.53,3.07,0,5.51-.81,7.33-2.43,1.81-1.62,2.72-3.8,2.72-6.53s-.93-4.98-2.78-6.62c-1.86-1.64-4.38-2.46-7.58-2.46h-3.39v-4.48h3.07c3.03,0,5.37-.68,7.01-2.05,1.64-1.37,2.46-3.26,2.46-5.7s-.82-4.26-2.46-5.6c-1.64-1.34-3.87-2.02-6.69-2.02s-5.13.74-6.82,2.21c-1.69,1.47-2.59,3.64-2.72,6.5h-5.38c.04-4.14,1.4-7.43,4.06-9.89,2.67-2.45,6.28-3.68,10.85-3.68s7.92,1.1,10.59,3.3c2.67,2.2,4,5.22,4,9.06,0,4.35-2.07,7.68-6.21,9.98Z"/>
    <path class="uuid-b036862b-b705-42d0-9000-350f9ac85a55" d="M1137.04,83.67h15.36c6.91,0,12.37,2.01,16.38,6.02,3.97,4.01,5.95,9.6,5.95,16.77s-1.98,12.65-5.95,16.7c-4.05,4.05-9.52,6.08-16.38,6.08h-15.36v-45.57ZM1142.41,124.37h9.98c5.38,0,9.5-1.58,12.38-4.74,2.88-3.16,4.32-7.55,4.32-13.18s-1.44-10.03-4.32-13.18-7.01-4.74-12.38-4.74h-9.98v35.84Z"/>
    <path class="uuid-b036862b-b705-42d0-9000-350f9ac85a55" d="M1226.76,116.05l.45,7.36c.21,2.56.77,4.5,1.66,5.82h-5.57c-.94-1.37-1.43-3.39-1.47-6.08l-.19-4.86c-.13-3.07-.81-5.26-2.05-6.56-1.24-1.3-3.26-1.95-6.08-1.95h-14.85v19.46h-5.38v-45.57h19.26c4.69,0,8.44,1.09,11.23,3.26,2.79,2.18,4.19,5.23,4.19,9.15,0,2.77-.67,5.11-2.02,7.01-1.34,1.9-3.17,3.23-5.47,4,3.84,1.2,5.93,4.18,6.27,8.96ZM1198.67,104.91h14.53c2.86,0,5.11-.74,6.75-2.21,1.64-1.47,2.46-3.57,2.46-6.3s-.86-4.57-2.59-5.89c-1.73-1.32-4.15-1.98-7.26-1.98h-13.89v16.38Z"/>
    <path class="uuid-b036862b-b705-42d0-9000-350f9ac85a55" d="M1262.79,112.72v1.79h-25.09c.26,3.58,1.26,6.28,3.01,8.1,1.75,1.81,4.14,2.72,7.17,2.72,4.57,0,7.49-2.05,8.77-6.14h5.31c-.9,3.33-2.56,5.96-4.99,7.9-2.43,1.94-5.5,2.91-9.22,2.91-4.57,0-8.26-1.56-11.07-4.67-2.86-3.11-4.29-7.32-4.29-12.61s1.41-9.39,4.22-12.54c2.77-3.16,6.44-4.74,11.01-4.74s8.45,1.64,11.14,4.93c2.69,3.29,4.03,7.4,4.03,12.35ZM1247.63,100.11c-2.69,0-4.89.84-6.59,2.53-1.71,1.69-2.77,4.11-3.2,7.26h19.46c-.26-2.9-1.24-5.26-2.94-7.07-1.71-1.81-3.95-2.72-6.72-2.72Z"/>
    <path class="uuid-b036862b-b705-42d0-9000-350f9ac85a55" d="M1284.11,95.44c3.67,0,6.53,1,8.58,3.01,2.05,2.01,3.07,4.82,3.07,8.45v22.34h-5.12v-21.82c0-4.91-2.52-7.36-7.55-7.36-2.39,0-4.5.9-6.34,2.69-1.83,1.79-2.75,4.39-2.75,7.81v18.69h-5.12v-33.02h4.86v4.93c2.52-3.8,5.97-5.7,10.37-5.7Z"/>
    <path class="uuid-b036862b-b705-42d0-9000-350f9ac85a55" d="M1328.27,100.95v-17.28h5.12v45.57h-4.86v-5.12c-2.65,3.93-6.42,5.89-11.33,5.89-4.65,0-8.36-1.58-11.14-4.74-2.82-3.16-4.22-7.34-4.22-12.54s1.41-9.49,4.22-12.61c2.73-3.11,6.44-4.67,11.14-4.67s8.43,1.83,11.07,5.5ZM1310.09,122.13c1.92,2.18,4.5,3.26,7.74,3.26s5.82-1.13,7.74-3.39c1.92-2.22,2.88-5.31,2.88-9.28s-.96-7.02-2.88-9.28-4.5-3.39-7.74-3.39-5.77,1.16-7.71,3.49c-1.94,2.33-2.91,5.47-2.91,9.44s.96,6.98,2.88,9.15Z"/>
    <path class="uuid-b036862b-b705-42d0-9000-350f9ac85a55" d="M1369.87,112.72v1.79h-25.09c.26,3.58,1.26,6.28,3.01,8.1,1.75,1.81,4.14,2.72,7.17,2.72,4.57,0,7.49-2.05,8.77-6.14h5.31c-.9,3.33-2.56,5.96-4.99,7.9-2.43,1.94-5.5,2.91-9.22,2.91-4.57,0-8.26-1.56-11.07-4.67-2.86-3.11-4.29-7.32-4.29-12.61s1.41-9.39,4.22-12.54c2.77-3.16,6.44-4.74,11.01-4.74s8.45,1.64,11.14,4.93c2.69,3.29,4.03,7.4,4.03,12.35ZM1354.7,100.11c-2.69,0-4.89.84-6.59,2.53-1.71,1.69-2.77,4.11-3.2,7.26h19.46c-.26-2.9-1.24-5.26-2.94-7.07-1.71-1.81-3.95-2.72-6.72-2.72Z"/>
    <path class="uuid-b036862b-b705-42d0-9000-350f9ac85a55" d="M1391.43,95.7c.85,0,1.43.02,1.73.06v4.93h-1.28c-3.41,0-6.07.84-7.97,2.53-1.9,1.69-2.85,4.09-2.85,7.2v18.82h-5.12v-33.02h4.86v5.82c2.22-4.22,5.76-6.34,10.62-6.34Z"/>
    <path class="uuid-b036862b-b705-42d0-9000-350f9ac85a55" d="M1403.21,91.22h-5.44v-6.27h5.44v6.27ZM1403.08,129.23h-5.12v-33.02h5.12v33.02Z"/>
    <path class="uuid-b036862b-b705-42d0-9000-350f9ac85a55" d="M1425.99,95.44c3.67,0,6.53,1,8.58,3.01,2.05,2.01,3.07,4.82,3.07,8.45v22.34h-5.12v-21.82c0-4.91-2.52-7.36-7.55-7.36-2.39,0-4.5.9-6.34,2.69-1.83,1.79-2.75,4.39-2.75,7.81v18.69h-5.12v-33.02h4.86v4.93c2.52-3.8,5.97-5.7,10.37-5.7Z"/>
    <path class="uuid-b036862b-b705-42d0-9000-350f9ac85a55" d="M1470.41,101.01v-4.8h4.86v31.74c0,4.52-1.32,8.08-3.97,10.69-2.65,2.6-6.44,3.9-11.39,3.9-4.1,0-7.38-.94-9.86-2.82-2.48-1.88-3.88-4.48-4.22-7.81h5.12c.64,4.18,3.63,6.27,8.96,6.27,6.83,0,10.24-3.41,10.24-10.24v-3.2c-2.6,3.5-6.29,5.25-11.07,5.25s-8.36-1.58-11.14-4.74c-2.82-3.16-4.22-7.34-4.22-12.54s1.41-9.49,4.22-12.61c2.73-3.11,6.44-4.67,11.14-4.67s8.68,1.86,11.33,5.57ZM1459.72,125.39c3.24,0,5.82-1.13,7.74-3.39,1.92-2.26,2.88-5.35,2.88-9.28s-.96-7.02-2.88-9.28-4.5-3.39-7.74-3.39-5.77,1.15-7.71,3.46c-1.94,2.3-2.91,5.38-2.91,9.22s.97,6.91,2.91,9.22c1.94,2.3,4.51,3.46,7.71,3.46Z"/>
    <path class="uuid-b036862b-b705-42d0-9000-350f9ac85a55" d="M1494.6,130c-8.83,0-13.5-3.75-14.02-11.26h5.18c.3,2.47,1.12,4.23,2.46,5.28s3.47,1.57,6.37,1.57c5.29,0,7.94-1.71,7.94-5.12,0-1.49-.54-2.62-1.63-3.39-1.09-.77-3.06-1.43-5.92-1.98l-3.07-.58c-6.87-1.28-10.3-4.52-10.3-9.73,0-2.86,1.08-5.13,3.23-6.82,2.15-1.68,5.09-2.53,8.8-2.53,8.75,0,13.23,3.65,13.44,10.94h-5.12c-.13-2.39-.85-4.07-2.18-5.06-1.32-.98-3.37-1.47-6.14-1.47-2.22,0-3.93.43-5.12,1.28-1.2.85-1.79,2.05-1.79,3.58,0,1.45.51,2.54,1.54,3.26,1.02.73,2.73,1.34,5.12,1.86l2.94.58c4.05.81,6.96,1.96,8.74,3.46,1.77,1.49,2.66,3.58,2.66,6.27,0,3.11-1.16,5.54-3.49,7.26-2.33,1.73-5.54,2.59-9.63,2.59Z"/>
    <path class="uuid-b036862b-b705-42d0-9000-350f9ac85a55" d="M1108.3,171.67v-4.86h19.39v23.42h-4.42l-1.15-6.14c-3.37,4.78-8.34,7.17-14.91,7.17s-11.73-2.2-15.62-6.59c-3.97-4.35-5.95-10.09-5.95-17.22s1.96-12.84,5.89-17.28c3.88-4.35,9.13-6.53,15.74-6.53,5.42,0,9.9,1.45,13.44,4.35,3.54,2.9,5.7,6.76,6.46,11.58h-5.57c-.55-3.37-2.18-6.06-4.86-8.06-2.6-1.96-5.76-2.94-9.47-2.94-4.86,0-8.75,1.71-11.65,5.12-2.9,3.41-4.35,8-4.35,13.76s1.45,10.35,4.35,13.76c2.9,3.41,6.78,5.12,11.65,5.12,4.31,0,7.98-1.39,11.01-4.16,3.03-2.77,4.54-6.27,4.54-10.5h-14.53Z"/>
    <path class="uuid-b036862b-b705-42d0-9000-350f9ac85a55" d="M1150.86,156.7c.85,0,1.43.02,1.73.06v4.93h-1.28c-3.41,0-6.07.84-7.97,2.53-1.9,1.69-2.85,4.09-2.85,7.2v18.82h-5.12v-33.02h4.86v5.82c2.22-4.22,5.76-6.34,10.62-6.34Z"/>
    <path class="uuid-b036862b-b705-42d0-9000-350f9ac85a55" d="M1182.16,186.07h1.86v4.16c-.85.13-1.79.19-2.82.19-3.46,0-5.31-1.58-5.57-4.74-2.3,3.54-5.89,5.31-10.75,5.31-3.63,0-6.48-.84-8.54-2.53-2.07-1.69-3.1-4.06-3.1-7.14,0-5.97,4.07-9.39,12.22-10.24l4.74-.51c3.46-.38,5.18-1.9,5.18-4.54,0-1.83-.57-3.16-1.7-3.97-1.13-.81-3.04-1.22-5.73-1.22-2.86,0-4.92.48-6.18,1.44-1.26.96-1.97,2.66-2.14,5.09h-5.12c.43-7.3,4.91-10.94,13.44-10.94s12.42,3.2,12.42,9.6v18.43c0,1.07.6,1.6,1.79,1.6ZM1165.13,186.65c2.73,0,5.12-.83,7.17-2.5,2.05-1.62,3.07-3.95,3.07-6.98v-3.9c-.94.73-2.39,1.19-4.35,1.41l-4.8.58c-2.77.34-4.75.98-5.92,1.92-1.17.94-1.76,2.28-1.76,4.03s.55,3.04,1.66,4c1.11.96,2.75,1.44,4.93,1.44Z"/>
    <path class="uuid-b036862b-b705-42d0-9000-350f9ac85a55" d="M1204.68,156.44c4.65,0,8.38,1.56,11.2,4.67,2.77,3.16,4.16,7.36,4.16,12.61s-1.39,9.39-4.16,12.54c-2.82,3.16-6.55,4.74-11.2,4.74s-8.43-1.83-11.07-5.5v17.28h-5.12v-45.57h4.86v5.12c2.64-3.92,6.42-5.89,11.33-5.89ZM1204.04,186.39c3.2,0,5.77-1.16,7.71-3.49,1.94-2.33,2.91-5.47,2.91-9.44s-.95-6.92-2.85-9.12c-1.9-2.2-4.49-3.3-7.78-3.3s-5.82,1.11-7.74,3.33c-1.92,2.22-2.88,5.33-2.88,9.34s.96,7.06,2.88,9.28c1.92,2.26,4.5,3.39,7.74,3.39Z"/>
    <path class="uuid-b036862b-b705-42d0-9000-350f9ac85a55" d="M1241.36,156.44c3.67,0,6.53,1,8.58,3.01,2.05,2.01,3.07,4.82,3.07,8.45v22.34h-5.12v-21.82c0-4.91-2.52-7.36-7.55-7.36-2.39,0-4.5.9-6.34,2.69-1.83,1.79-2.75,4.39-2.75,7.81v18.69h-5.12v-45.57h5.12v17.09c2.52-3.54,5.89-5.31,10.11-5.31Z"/>
    <path class="uuid-b036862b-b705-42d0-9000-350f9ac85a55" d="M1265.93,152.22h-5.44v-6.27h5.44v6.27ZM1265.8,190.23h-5.12v-33.02h5.12v33.02Z"/>
    <path class="uuid-b036862b-b705-42d0-9000-350f9ac85a55" d="M1287.18,191c-4.57,0-8.26-1.58-11.07-4.74-2.82-3.16-4.22-7.34-4.22-12.54s1.41-9.49,4.22-12.61c2.73-3.11,6.42-4.67,11.07-4.67,3.92,0,7.15,1.07,9.66,3.2,2.52,2.13,4.03,5.06,4.54,8.77h-5.31c-.38-2.35-1.4-4.16-3.04-5.44-1.64-1.28-3.59-1.92-5.86-1.92-3.03,0-5.44,1.1-7.23,3.3-1.79,2.2-2.69,5.32-2.69,9.38s.91,7.13,2.72,9.34,4.21,3.33,7.2,3.33c2.26,0,4.22-.66,5.89-1.98,1.66-1.32,2.69-3.16,3.07-5.5h5.25c-.55,3.71-2.12,6.66-4.7,8.83-2.58,2.18-5.75,3.26-9.5,3.26Z"/>
    <path class="uuid-b036862b-b705-42d0-9000-350f9ac85a55" d="M1319.31,144.67h15.36c6.91,0,12.37,2.01,16.38,6.02,3.97,4.01,5.95,9.6,5.95,16.77s-1.98,12.65-5.95,16.7c-4.05,4.05-9.52,6.08-16.38,6.08h-15.36v-45.57ZM1324.68,185.37h9.98c5.38,0,9.5-1.58,12.38-4.74,2.88-3.16,4.32-7.55,4.32-13.18s-1.44-10.03-4.32-13.18-7.01-4.74-12.38-4.74h-9.98v35.84Z"/>
    <path class="uuid-b036862b-b705-42d0-9000-350f9ac85a55" d="M1392.2,173.72v1.79h-25.09c.26,3.58,1.26,6.28,3.01,8.1,1.75,1.81,4.14,2.72,7.17,2.72,4.57,0,7.49-2.05,8.77-6.14h5.31c-.9,3.33-2.56,5.96-4.99,7.9-2.43,1.94-5.5,2.91-9.22,2.91-4.57,0-8.26-1.56-11.07-4.67-2.86-3.11-4.29-7.32-4.29-12.61s1.41-9.39,4.22-12.54c2.77-3.16,6.44-4.74,11.01-4.74s8.45,1.64,11.14,4.93c2.69,3.29,4.03,7.4,4.03,12.35ZM1377.03,161.11c-2.69,0-4.89.84-6.59,2.53-1.71,1.69-2.77,4.11-3.2,7.26h19.46c-.26-2.9-1.24-5.26-2.94-7.07-1.71-1.81-3.95-2.72-6.72-2.72Z"/>
    <path class="uuid-b036862b-b705-42d0-9000-350f9ac85a55" d="M1409.61,191c-8.83,0-13.5-3.75-14.02-11.26h5.18c.3,2.47,1.12,4.23,2.46,5.28s3.47,1.57,6.37,1.57c5.29,0,7.94-1.71,7.94-5.12,0-1.49-.54-2.62-1.63-3.39-1.09-.77-3.06-1.43-5.92-1.98l-3.07-.58c-6.87-1.28-10.3-4.52-10.3-9.73,0-2.86,1.08-5.13,3.23-6.82,2.15-1.68,5.09-2.53,8.8-2.53,8.75,0,13.23,3.65,13.44,10.94h-5.12c-.13-2.39-.85-4.07-2.18-5.06-1.32-.98-3.37-1.47-6.14-1.47-2.22,0-3.93.43-5.12,1.28-1.2.85-1.79,2.05-1.79,3.58,0,1.45.51,2.54,1.54,3.26,1.02.73,2.73,1.34,5.12,1.86l2.94.58c4.05.81,6.96,1.96,8.74,3.46,1.77,1.49,2.66,3.58,2.66,6.27,0,3.11-1.16,5.54-3.49,7.26-2.33,1.73-5.54,2.59-9.63,2.59Z"/>
    <path class="uuid-b036862b-b705-42d0-9000-350f9ac85a55" d="M1433.1,152.22h-5.44v-6.27h5.44v6.27ZM1432.97,190.23h-5.12v-33.02h5.12v33.02Z"/>
    <path class="uuid-b036862b-b705-42d0-9000-350f9ac85a55" d="M1465.74,162.01v-4.8h4.86v31.74c0,4.52-1.32,8.08-3.97,10.69-2.65,2.6-6.44,3.9-11.39,3.9-4.1,0-7.38-.94-9.86-2.82-2.48-1.88-3.88-4.48-4.22-7.81h5.12c.64,4.18,3.63,6.27,8.96,6.27,6.83,0,10.24-3.41,10.24-10.24v-3.2c-2.6,3.5-6.29,5.25-11.07,5.25s-8.36-1.58-11.14-4.74c-2.82-3.16-4.22-7.34-4.22-12.54s1.41-9.49,4.22-12.61c2.73-3.11,6.44-4.67,11.14-4.67s8.68,1.86,11.33,5.57ZM1455.05,186.39c3.24,0,5.82-1.13,7.74-3.39,1.92-2.26,2.88-5.35,2.88-9.28s-.96-7.02-2.88-9.28-4.5-3.39-7.74-3.39-5.77,1.15-7.71,3.46c-1.94,2.3-2.91,5.38-2.91,9.22s.97,6.91,2.91,9.22c1.94,2.3,4.51,3.46,7.71,3.46Z"/>
    <path class="uuid-b036862b-b705-42d0-9000-350f9ac85a55" d="M1493.51,156.44c3.67,0,6.53,1,8.58,3.01,2.05,2.01,3.07,4.82,3.07,8.45v22.34h-5.12v-21.82c0-4.91-2.52-7.36-7.55-7.36-2.39,0-4.5.9-6.34,2.69-1.83,1.79-2.75,4.39-2.75,7.81v18.69h-5.12v-33.02h4.86v4.93c2.52-3.8,5.97-5.7,10.37-5.7Z"/>
    <path class="uuid-b036862b-b705-42d0-9000-350f9ac85a55" d="M986.32,205.67h15.36c6.91,0,12.37,2.01,16.38,6.02,3.97,4.01,5.95,9.6,5.95,16.77s-1.98,12.65-5.95,16.7c-4.05,4.05-9.52,6.08-16.38,6.08h-15.36v-45.57ZM991.69,246.37h9.98c5.38,0,9.5-1.58,12.38-4.74s4.32-7.55,4.32-13.18-1.44-10.03-4.32-13.18-7.01-4.74-12.38-4.74h-9.98v35.84Z"/>
    <path class="uuid-b036862b-b705-42d0-9000-350f9ac85a55" d="M1059.21,234.72v1.79h-25.09c.26,3.58,1.26,6.28,3.01,8.1,1.75,1.81,4.14,2.72,7.17,2.72,4.57,0,7.49-2.05,8.77-6.14h5.31c-.9,3.33-2.56,5.96-4.99,7.9-2.43,1.94-5.5,2.91-9.22,2.91-4.57,0-8.26-1.56-11.07-4.67-2.86-3.11-4.29-7.32-4.29-12.61s1.41-9.39,4.22-12.54c2.77-3.16,6.44-4.74,11.01-4.74s8.45,1.64,11.14,4.93c2.69,3.29,4.03,7.4,4.03,12.35ZM1044.04,222.11c-2.69,0-4.89.84-6.59,2.53-1.71,1.69-2.77,4.11-3.2,7.26h19.46c-.26-2.9-1.24-5.26-2.94-7.07-1.71-1.81-3.95-2.72-6.72-2.72Z"/>
    <path class="uuid-b036862b-b705-42d0-9000-350f9ac85a55" d="M1076.62,252c-8.83,0-13.5-3.75-14.02-11.26h5.18c.3,2.47,1.12,4.24,2.46,5.28,1.34,1.05,3.47,1.57,6.37,1.57,5.29,0,7.94-1.71,7.94-5.12,0-1.49-.54-2.62-1.63-3.39-1.09-.77-3.06-1.43-5.92-1.98l-3.07-.58c-6.87-1.28-10.3-4.52-10.3-9.73,0-2.86,1.08-5.13,3.23-6.82,2.15-1.68,5.09-2.53,8.8-2.53,8.75,0,13.23,3.65,13.44,10.94h-5.12c-.13-2.39-.85-4.07-2.18-5.06-1.32-.98-3.37-1.47-6.14-1.47-2.22,0-3.93.43-5.12,1.28-1.2.85-1.79,2.05-1.79,3.58,0,1.45.51,2.54,1.54,3.26,1.02.73,2.73,1.34,5.12,1.86l2.94.58c4.05.81,6.96,1.96,8.74,3.46,1.77,1.49,2.66,3.58,2.66,6.27,0,3.12-1.16,5.54-3.49,7.26-2.33,1.73-5.54,2.59-9.63,2.59Z"/>
    <path class="uuid-b036862b-b705-42d0-9000-350f9ac85a55" d="M1100.11,213.22h-5.44v-6.27h5.44v6.27ZM1099.98,251.23h-5.12v-33.02h5.12v33.02Z"/>
    <path class="uuid-b036862b-b705-42d0-9000-350f9ac85a55" d="M1132.75,223.01v-4.8h4.86v31.74c0,4.52-1.32,8.08-3.97,10.69-2.65,2.6-6.44,3.9-11.39,3.9-4.1,0-7.38-.94-9.86-2.82-2.48-1.88-3.88-4.48-4.22-7.81h5.12c.64,4.18,3.63,6.27,8.96,6.27,6.83,0,10.24-3.41,10.24-10.24v-3.2c-2.6,3.5-6.29,5.25-11.07,5.25s-8.36-1.58-11.14-4.74c-2.82-3.16-4.22-7.34-4.22-12.54s1.41-9.49,4.22-12.61c2.73-3.11,6.44-4.67,11.14-4.67s8.68,1.86,11.33,5.57ZM1122.06,247.39c3.24,0,5.82-1.13,7.74-3.39,1.92-2.26,2.88-5.35,2.88-9.28s-.96-7.02-2.88-9.28-4.5-3.39-7.74-3.39-5.77,1.15-7.71,3.46c-1.94,2.3-2.91,5.38-2.91,9.22s.97,6.91,2.91,9.22c1.94,2.3,4.51,3.46,7.71,3.46Z"/>
    <path class="uuid-b036862b-b705-42d0-9000-350f9ac85a55" d="M1160.53,217.44c3.67,0,6.53,1,8.58,3.01,2.05,2.01,3.07,4.82,3.07,8.45v22.34h-5.12v-21.82c0-4.91-2.52-7.36-7.55-7.36-2.39,0-4.5.9-6.34,2.69-1.83,1.79-2.75,4.39-2.75,7.81v18.69h-5.12v-33.02h4.86v4.93c2.52-3.8,5.97-5.7,10.37-5.7Z"/>
    <path class="uuid-b036862b-b705-42d0-9000-350f9ac85a55" d="M1208.2,217.44c4.65,0,8.38,1.56,11.2,4.67,2.77,3.16,4.16,7.36,4.16,12.61s-1.39,9.39-4.16,12.54c-2.82,3.16-6.55,4.74-11.2,4.74-4.91,0-8.68-1.96-11.33-5.89v5.12h-4.86v-45.57h5.12v17.28c2.65-3.67,6.34-5.5,11.07-5.5ZM1207.56,247.39c3.2,0,5.77-1.16,7.71-3.49,1.94-2.33,2.91-5.47,2.91-9.44s-.95-6.92-2.85-9.12c-1.9-2.2-4.49-3.3-7.78-3.3s-5.82,1.11-7.74,3.33c-1.92,2.22-2.88,5.33-2.88,9.34s.96,7.06,2.88,9.28c1.92,2.26,4.5,3.39,7.74,3.39Z"/>
    <path class="uuid-b036862b-b705-42d0-9000-350f9ac85a55" d="M1243.98,231.91l4.67-13.7h5.57l-13.95,38.21c-.98,2.77-2.33,4.73-4.03,5.86-1.71,1.13-3.95,1.7-6.72,1.7-.94,0-1.96-.06-3.07-.19v-4.29h3.01c2.94,0,4.95-1.37,6.02-4.1l1.15-3.07-12.42-34.11h5.63l4.67,13.76c1.66,4.87,3.24,9.62,4.74,14.27,1.24-3.97,2.82-8.75,4.74-14.34Z"/>
    <path class="uuid-b036862b-b705-42d0-9000-350f9ac85a55" d="M1282.12,222.37l-6.08,8.38-3.2-2.56,6.14-8.51-9.73-3.14,1.34-3.84,9.47,3.07v-10.11h4.1v10.11l9.47-3.07,1.34,3.84-9.73,3.14,6.14,8.51-3.2,2.56-6.08-8.38Z"/>
    <path class="uuid-b036862b-b705-42d0-9000-350f9ac85a55" d="M1329.87,230.82l10.18-25.15h7.04v45.57h-5.25v-14.59c0-9.6.06-17.34.19-23.23-1.02,2.82-2.37,6.27-4.03,10.37l-11.26,27.46h-4.61l-11.33-27.46c-1.66-4.1-3.01-7.55-4.03-10.37.13,5.89.19,13.63.19,23.23v14.59h-5.25v-45.57h7.04l10.56,25.92c1.58,3.88,3.31,8.26,5.18,13.12,2.6-6.91,4.39-11.54,5.38-13.89Z"/>
    <path class="uuid-b036862b-b705-42d0-9000-350f9ac85a55" d="M1377.74,216.29l6.66-10.62h6.08l-17.41,27.26v18.3h-5.38v-18.3l-17.41-27.26h6.14l6.72,10.69c2.9,4.52,5.33,8.45,7.3,11.78,2.73-4.61,5.16-8.55,7.3-11.84Z"/>
    <path class="uuid-b036862b-b705-42d0-9000-350f9ac85a55" d="M1399.05,205.67v40.7h22.91v4.86h-28.29v-45.57h5.38Z"/>
    <path class="uuid-b036862b-b705-42d0-9000-350f9ac85a55" d="M1443.02,232.67v-4.86h19.39v23.42h-4.42l-1.15-6.14c-3.37,4.78-8.34,7.17-14.91,7.17s-11.73-2.2-15.62-6.59c-3.97-4.35-5.95-10.09-5.95-17.22s1.96-12.84,5.89-17.28c3.88-4.35,9.13-6.53,15.74-6.53,5.42,0,9.9,1.45,13.44,4.35,3.54,2.9,5.7,6.76,6.46,11.58h-5.57c-.55-3.37-2.18-6.06-4.86-8.06-2.6-1.96-5.76-2.94-9.47-2.94-4.86,0-8.75,1.71-11.65,5.12-2.9,3.41-4.35,8-4.35,13.76s1.45,10.35,4.35,13.76c2.9,3.41,6.78,5.12,11.65,5.12,4.31,0,7.98-1.39,11.01-4.16,3.03-2.77,4.54-6.27,4.54-10.5h-14.53Z"/>
    <path class="uuid-b036862b-b705-42d0-9000-350f9ac85a55" d="M1475.27,251.23h-6.46v-6.4h6.46v6.4ZM1473.61,239.33h-3.33l-.9-21.12v-12.54h5.38v12.54l-1.15,21.12Z"/>
    <path class="uuid-b036862b-b705-42d0-9000-350f9ac85a55" d="M1493.58,222.37l-6.08,8.38-3.2-2.56,6.14-8.51-9.73-3.14,1.34-3.84,9.47,3.07v-10.11h4.1v10.11l9.47-3.07,1.34,3.84-9.73,3.14,6.14,8.51-3.2,2.56-6.08-8.38Z"/>
  </g>
  <g>
    <path class="uuid-b036862b-b705-42d0-9000-350f9ac85a55" d="M1866.92,132.87v11.28h-2.28v-14.1l1.17.06c1.76.12,3.27.52,4.53,1.2s2.36,1.83,3.3,3.45l1.56,2.7c.8,1.36,1.58,2.32,2.34,2.89.76.57,1.68.86,2.76.86,1.18,0,2.12-.38,2.83-1.12s1.06-1.79,1.06-3.11c0-2.98-1.53-4.47-4.59-4.47v-2.49c2.18-.02,3.87.59,5.07,1.83s1.8,2.97,1.8,5.19c0,2.02-.57,3.66-1.71,4.92-1.18,1.26-2.67,1.89-4.47,1.89-2.76,0-5.08-1.62-6.96-4.86l-1.32-2.28c-.8-1.32-1.58-2.27-2.33-2.85s-1.67-.91-2.77-.99Z"/>
    <path class="uuid-b036862b-b705-42d0-9000-350f9ac85a55" d="M1866.92,149.31v11.28h-2.28v-14.1l1.17.06c1.76.12,3.27.52,4.53,1.2s2.36,1.83,3.3,3.45l1.56,2.7c.8,1.36,1.58,2.32,2.34,2.89.76.57,1.68.86,2.76.86,1.18,0,2.12-.38,2.83-1.12s1.06-1.79,1.06-3.11c0-2.98-1.53-4.47-4.59-4.47v-2.49c2.18-.02,3.87.59,5.07,1.83s1.8,2.97,1.8,5.19c0,2.02-.57,3.66-1.71,4.92-1.18,1.26-2.67,1.89-4.47,1.89-2.76,0-5.08-1.62-6.96-4.86l-1.32-2.28c-.8-1.32-1.58-2.27-2.33-2.85s-1.67-.91-2.77-.99Z"/>
    <path class="uuid-b036862b-b705-42d0-9000-350f9ac85a55" d="M1872.02,170.79v-8.67h2.16v8.67h-2.16Z"/>
    <path class="uuid-b036862b-b705-42d0-9000-350f9ac85a55" d="M1867.04,187.01c-1.92-1.3-2.88-3.23-2.88-5.79s.96-4.51,2.88-5.79c1.94-1.3,4.7-1.95,8.28-1.95s6.34.65,8.28,1.95c1.92,1.28,2.88,3.21,2.88,5.79s-.96,4.49-2.88,5.79c-1.94,1.3-4.7,1.95-8.28,1.95s-6.34-.65-8.28-1.95ZM1884.2,181.22c0-3.4-2.96-5.1-8.88-5.1s-8.88,1.7-8.88,5.1,2.96,5.1,8.88,5.1,8.88-1.7,8.88-5.1Z"/>
    <path class="uuid-b036862b-b705-42d0-9000-350f9ac85a55" d="M1884.74,203.57c-.94,1.16-2.18,1.98-3.73,2.46-1.55.48-3.5.72-5.83.72-3.52,0-6.28-.67-8.27-2.02-1.99-1.35-2.98-3.28-2.98-5.78,0-1.92.51-3.51,1.53-4.77,1.02-1.26,2.43-2.05,4.23-2.37v2.46c-1.12.24-1.98.76-2.58,1.57-.6.81-.9,1.85-.9,3.11,0,3.46,2.85,5.22,8.55,5.28-.86-.58-1.56-1.38-2.1-2.39s-.81-2.02-.81-3.04c0-2.24.68-4.01,2.04-5.31,1.36-1.32,3.08-1.98,5.16-1.98s3.82.67,5.16,2.01c1.36,1.32,2.04,3.1,2.04,5.34,0,1.86-.5,3.43-1.5,4.71ZM1875.5,195.47c-.92.86-1.38,1.99-1.38,3.39s.46,2.52,1.38,3.42c.9.9,2.08,1.35,3.54,1.35s2.63-.45,3.57-1.35c.9-.9,1.35-2.04,1.35-3.42s-.46-2.53-1.38-3.39c-.94-.88-2.12-1.32-3.54-1.32s-2.6.44-3.54,1.32Z"/>
    <path class="uuid-b036862b-b705-42d0-9000-350f9ac85a55" d="M1872.02,218.12v-8.67h2.16v8.67h-2.16Z"/>
    <path class="uuid-b036862b-b705-42d0-9000-350f9ac85a55" d="M1866.92,223.55v11.28h-2.28v-14.1l1.17.06c1.76.12,3.27.52,4.53,1.2s2.36,1.83,3.3,3.45l1.56,2.7c.8,1.36,1.58,2.32,2.34,2.89.76.57,1.68.86,2.76.86,1.18,0,2.12-.38,2.83-1.12s1.06-1.79,1.06-3.11c0-2.98-1.53-4.47-4.59-4.47v-2.49c2.18-.02,3.87.59,5.07,1.83s1.8,2.97,1.8,5.19c0,2.02-.57,3.66-1.71,4.92-1.18,1.26-2.67,1.89-4.47,1.89-2.76,0-5.08-1.62-6.96-4.86l-1.32-2.28c-.8-1.32-1.58-2.27-2.33-2.85s-1.67-.91-2.77-.99Z"/>
    <path class="uuid-b036862b-b705-42d0-9000-350f9ac85a55" d="M1878.56,244.76c0,2.24-.68,4.02-2.04,5.34-1.36,1.3-3.08,1.95-5.16,1.95s-3.8-.66-5.16-1.98c-1.36-1.36-2.04-3.15-2.04-5.37,0-1.86.5-3.43,1.5-4.71.94-1.16,2.19-1.98,3.74-2.46,1.55-.48,3.5-.72,5.83-.72,3.54,0,6.3.68,8.28,2.05,1.98,1.37,2.97,3.33,2.97,5.9,0,1.86-.51,3.41-1.53,4.65-1.02,1.24-2.43,2.02-4.23,2.34v-2.46c1.12-.24,1.98-.76,2.58-1.55.6-.79.9-1.78.9-2.98,0-3.56-2.85-5.37-8.55-5.43.86.58,1.56,1.38,2.1,2.39.54,1.01.81,2.02.81,3.04ZM1867.82,241.28c-.92.9-1.38,2.04-1.38,3.42s.46,2.53,1.38,3.39c.94.88,2.12,1.32,3.54,1.32s2.6-.44,3.54-1.32c.92-.86,1.38-1.99,1.38-3.39s-.45-2.52-1.35-3.42c-.94-.9-2.13-1.35-3.57-1.35s-2.64.45-3.54,1.35Z"/>
  </g>
</svg>