<?xml version="1.0" encoding="UTF-8"?>
<svg id="uuid-6c14b978-8b74-47e5-a35c-29fb55d896b3" data-name="00" xmlns="http://www.w3.org/2000/svg" xmlns:xlink="http://www.w3.org/1999/xlink" viewBox="0 0 1920 618">
  <defs>
    <style>
      .uuid-54f98144-b626-4db9-bb4b-da8f3b72776e {
        clip-path: url(#uuid-abca6b26-04d3-4b8f-b41e-4f9e343c70f6);
      }

      .uuid-83aa1002-4eba-4cf5-8322-61351d244b4f {
        fill: none;
      }

      .uuid-83aa1002-4eba-4cf5-8322-61351d244b4f, .uuid-c182ed5d-50f3-40ce-8432-38595d81bf72 {
        stroke-width: 0px;
      }

      .uuid-c182ed5d-50f3-40ce-8432-38595d81bf72 {
        fill: #fff;
      }
    </style>
    <clipPath id="uuid-abca6b26-04d3-4b8f-b41e-4f9e343c70f6">
      <rect class="uuid-83aa1002-4eba-4cf5-8322-61351d244b4f" x="513.5" y="269.45" width="893" height="229.1"/>
    </clipPath>
  </defs>
  <g class="uuid-54f98144-b626-4db9-bb4b-da8f3b72776e">
    <g id="uuid-df4c26fb-7a63-442b-95ed-d49dd593c387" data-name="Group 808">
      <path id="uuid-f0351e42-fd6e-46d6-99bc-431a10cf095f" data-name="Path 3639" class="uuid-c182ed5d-50f3-40ce-8432-38595d81bf72" d="M701.4,476.25c-14.32.16-26.07-11.32-26.23-25.64,0-.19,0-.39,0-.58h-23.19c0,27.48,21.77,48.53,49.42,48.53s49.43-21.05,49.43-48.53h-23.2c.16,14.32-11.32,26.07-25.64,26.23-.2,0-.39,0-.59,0M749.93,370.44v-18.21h-32.12c-5.27-1.85-10.82-2.82-16.41-2.85-27.66,0-49.42,21.06-49.42,48.53s21.77,48.54,49.42,48.54,49.43-21.06,49.43-48.54c0-9.28-2.5-18.37-7.5-25.15l6.6-2.32ZM701.4,424.32c-14.58,0-26.4-11.83-26.4-26.41,0-14.58,11.83-26.4,26.41-26.4,14.58,0,26.4,11.82,26.4,26.4.16,14.43-11.41,26.25-25.83,26.41-.19,0-.39,0-.58,0M513.5,443.77h22.84v-130.25h-22.84v130.25ZM594.69,349.38c-27.66,0-49.43,21.06-49.43,48.53s21.77,48.54,49.43,48.54,49.42-21.06,49.42-48.54-21.77-48.53-49.42-48.53M594.69,424.32c-14.58,0-26.41-11.82-26.41-26.41s11.82-26.41,26.41-26.41c14.58,0,26.4,11.82,26.41,26.4.16,14.43-11.41,26.25-25.84,26.41-.19,0-.38,0-.57,0M759.93,443.77h22.85v-91.54h-22.85v91.54ZM995.28,371.51c9.64,0,17.49,4.99,23.56,11.96l15.88-15.71c-9.52-11.79-23.92-18.56-39.07-18.38-27.66,0-49.43,21.06-49.43,48.53s21.77,48.54,49.43,48.54c15.15.18,29.55-6.59,39.07-18.37l-15.88-15.7c-5.89,6.78-13.92,11.95-23.73,11.95-14.63,0-25.88-11.42-25.88-26.41s11.24-26.4,26.06-26.4M1137.33,341.53c0-1.78-1.25-2.5-3.04-2.5h-2.85v8.2h1.07v-3.21h1.79l1.97,3.21h1.24l-2.13-3.38c1.15-.06,2.03-1.04,1.97-2.18,0-.05,0-.09-.01-.14M1132.5,342.95v-2.86h1.79c1.43,0,1.97.54,1.97,1.43s-.54,1.42-1.97,1.42h-1.79ZM1093.79,349.38c-10.44-.22-20.49,4-27.66,11.6v-47.46h-22.85v130.25h22.84v-49.79c0-13.2,8.39-22.31,22.3-22.31,13.03,0,20.17,8.03,20.17,22.31v49.78h22.84v-53.88c0-25.33-15.89-40.51-37.66-40.51M891.61,349.37c-27.47,0-48.36,21.06-48.36,49.07s19.1,48,48.71,48c16.42,0,31.05-6.07,41.76-17.49l-15.35-15.16c-7.49,7.14-15.53,12.31-25.88,12.31-12.49,0-21.95-7.14-25.16-19.09h71.19v-5.53c0-31.23-19.27-52.11-46.93-52.11M866.8,388.46c3.04-12.13,12.32-18.91,24.27-18.91s20.87,6.6,23.73,18.91h-48.01ZM1134.29,335.28c-4.38-.04-7.98,3.47-8.02,7.86s3.47,7.98,7.86,8.02c4.38.04,7.98-3.47,8.02-7.86,0-.06,0-.12,0-.18-.06-4.31-3.55-7.79-7.86-7.84M1134.29,350.1c-3.8.11-6.96-2.87-7.08-6.67-.11-3.8,2.87-6.96,6.67-7.08.14,0,.27,0,.41,0,3.8.11,6.78,3.28,6.67,7.08-.11,3.64-3.03,6.56-6.67,6.67M771.17,311.01c-8.23-.06-14.94,6.57-14.99,14.79,0,.13,0,.25,0,.38,0,8.38,6.79,15.17,15.17,15.17,8.38,0,15.17-6.79,15.17-15.17,0-8.38-6.79-15.17-15.17-15.17-.06,0-.12,0-.18,0M827.73,324.05h-22.84v28.18h-12.31v20.34h12.31v71.2h22.84v-71.2h12.49v-20.34h-12.49v-28.18Z"/>
      <path id="uuid-43005efb-196c-42ef-8a08-3122d6341ec4" data-name="Path 3640" class="uuid-c182ed5d-50f3-40ce-8432-38595d81bf72" d="M1224.57,303.99c21.16-22.04,50.39-34.51,80.94-34.54v46.19c-20.41.19-40.66,10-52.57,26.72-15.05,20.22-16.58,49.31-3.7,70.99,11.18,19.93,33.56,32.32,56.27,32.43.02,15.39.02,30.79,0,46.19-26.86-.02-52.82-9.67-73.18-27.2-46.43-39.87-51.75-109.83-11.88-156.26,1.33-1.55,2.7-3.06,4.11-4.53M1306.95,360.71h99.55c0,33.27,0,66.54-.02,99.8-15.28-.02-30.56-.02-45.84,0-.04-17.92,0-35.86-.02-53.78-17.88-.02-35.77-.02-53.65,0-.04-15.33-.04-30.67-.02-46.02"/>
    </g>
  </g>
</svg>