<?xml version="1.0" encoding="UTF-8"?>
<svg id="uuid-d3d42fca-7f64-4c76-a72d-a4adb6548bac" data-name="00" xmlns="http://www.w3.org/2000/svg" xmlns:xlink="http://www.w3.org/1999/xlink" viewBox="0 0 1920 940">
  <defs>
    <style>
      .uuid-f616e999-5cb2-4862-b82e-e5d5197679b2 {
        clip-path: url(#uuid-c2feb965-6d32-4b5d-8aec-41c8734d7f22);
      }

      .uuid-6bf0cfef-f056-4e7b-b09d-3d4ac9223595 {
        clip-path: url(#uuid-c2b17c7a-5d78-47de-8378-e1a243f5d70b);
      }

      .uuid-d94a3de1-3578-4b3e-bd94-2feef3823ec8 {
        isolation: isolate;
      }

      .uuid-aab90cbe-ca55-43b1-ad75-404d7a50fe8e {
        fill: none;
      }

      .uuid-aab90cbe-ca55-43b1-ad75-404d7a50fe8e, .uuid-85a80396-6c85-4b02-b7aa-70bf487e46d4, .uuid-a8f413d6-3750-4c6b-a3a1-ca759a8d0b17 {
        stroke-width: 0px;
      }

      .uuid-85a80396-6c85-4b02-b7aa-70bf487e46d4 {
        fill: #fff;
      }

      .uuid-a8f413d6-3750-4c6b-a3a1-ca759a8d0b17 {
        fill: #fdfeff;
      }
    </style>
    <clipPath id="uuid-c2feb965-6d32-4b5d-8aec-41c8734d7f22">
      <rect class="uuid-aab90cbe-ca55-43b1-ad75-404d7a50fe8e" x="589.89" y="685.86" width="740.21" height="119.07"/>
    </clipPath>
    <clipPath id="uuid-c2b17c7a-5d78-47de-8378-e1a243f5d70b">
      <rect class="uuid-aab90cbe-ca55-43b1-ad75-404d7a50fe8e" x="152.31" y="116.07" width="473.21" height="200.29" rx="40" ry="40"/>
    </clipPath>
  </defs>
  <g id="uuid-df32b5da-21ba-41f2-95ed-3c15578ee6c0" data-name="Herman Miller and Logitech G have collaborated to launch the Vantum a versatile gaming chair designed to adapt to the needs of the modern gamers." class="uuid-d94a3de1-3578-4b3e-bd94-2feef3823ec8">
    <g class="uuid-d94a3de1-3578-4b3e-bd94-2feef3823ec8">
      <path class="uuid-85a80396-6c85-4b02-b7aa-70bf487e46d4" d="M204.19,381.52v-21.11h5.8v49.13h-5.8v-22.63h-27.39v22.63h-5.8v-49.13h5.8v21.11h27.39Z"/>
      <path class="uuid-85a80396-6c85-4b02-b7aa-70bf487e46d4" d="M249.66,391.73v1.93h-27.05c.28,3.86,1.36,6.77,3.24,8.73,1.89,1.96,4.46,2.93,7.73,2.93,4.92,0,8.07-2.21,9.45-6.62h5.73c-.97,3.59-2.76,6.43-5.38,8.52-2.62,2.09-5.93,3.14-9.94,3.14-4.92,0-8.9-1.68-11.94-5.04-3.08-3.36-4.62-7.89-4.62-13.59s1.52-10.12,4.55-13.52c2.99-3.4,6.94-5.11,11.87-5.11s9.11,1.77,12.01,5.31c2.9,3.54,4.35,7.98,4.35,13.32ZM233.31,378.14c-2.9,0-5.27.91-7.11,2.72-1.84,1.82-2.99,4.43-3.45,7.83h20.98c-.28-3.13-1.33-5.67-3.17-7.62-1.84-1.95-4.26-2.93-7.25-2.93Z"/>
      <path class="uuid-85a80396-6c85-4b02-b7aa-70bf487e46d4" d="M272.91,373.38c.92,0,1.54.02,1.86.07v5.31h-1.38c-3.68,0-6.54.91-8.59,2.73-2.05,1.82-3.07,4.41-3.07,7.76v20.29h-5.52v-35.6h5.24v6.28c2.39-4.55,6.21-6.83,11.45-6.83Z"/>
      <path class="uuid-85a80396-6c85-4b02-b7aa-70bf487e46d4" d="M317.42,373.1c3.86,0,6.87,1.12,9,3.35,2.14,2.23,3.21,5.21,3.21,8.94v24.15h-5.52v-23.6c0-5.24-2.48-7.87-7.45-7.87-2.62,0-4.8,1.05-6.52,3.14-1.73,2.09-2.59,5.05-2.59,8.87v19.46h-5.52v-23.6c0-5.24-2.48-7.87-7.45-7.87-2.58,0-4.74,1.05-6.49,3.14-1.75,2.09-2.62,5.05-2.62,8.87v19.46h-5.52v-35.6h5.24v5.24c2.35-4.05,5.77-6.07,10.28-6.07,5.34,0,8.99,2.23,10.97,6.69,2.48-4.46,6.14-6.69,10.97-6.69Z"/>
      <path class="uuid-85a80396-6c85-4b02-b7aa-70bf487e46d4" d="M367.03,405.05h2v4.49c-.92.14-1.93.21-3.04.21-3.73,0-5.73-1.7-6-5.11-2.48,3.82-6.35,5.73-11.59,5.73-3.91,0-6.98-.91-9.21-2.73-2.23-1.82-3.35-4.38-3.35-7.69,0-6.44,4.39-10.12,13.18-11.04l5.11-.55c3.73-.41,5.59-2.05,5.59-4.9,0-1.98-.61-3.4-1.83-4.28-1.22-.87-3.28-1.31-6.18-1.31-3.08,0-5.3.52-6.66,1.55-1.36,1.03-2.13,2.86-2.31,5.49h-5.52c.46-7.87,5.29-11.8,14.49-11.8s13.39,3.45,13.39,10.35v19.87c0,1.15.64,1.72,1.93,1.72ZM348.67,405.67c2.94,0,5.52-.9,7.73-2.69,2.21-1.75,3.31-4.25,3.31-7.52v-4.21c-1.01.78-2.58,1.29-4.69,1.52l-5.17.62c-2.99.37-5.12,1.06-6.38,2.07-1.27,1.01-1.9,2.46-1.9,4.35s.6,3.28,1.79,4.31c1.2,1.03,2.97,1.55,5.31,1.55Z"/>
      <path class="uuid-85a80396-6c85-4b02-b7aa-70bf487e46d4" d="M390.28,373.1c3.96,0,7.04,1.08,9.25,3.24,2.21,2.16,3.31,5.2,3.31,9.11v24.08h-5.52v-23.53c0-5.29-2.71-7.93-8.14-7.93-2.58,0-4.85.97-6.83,2.9-1.98,1.93-2.97,4.74-2.97,8.42v20.15h-5.52v-35.6h5.24v5.31c2.71-4.09,6.44-6.14,11.18-6.14Z"/>
      <path class="uuid-85a80396-6c85-4b02-b7aa-70bf487e46d4" d="M454.93,387.52l10.97-27.12h7.59v49.13h-5.66v-15.73c0-10.35.07-18.7.21-25.05-1.1,3.04-2.55,6.76-4.35,11.18l-12.14,29.6h-4.97l-12.21-29.6c-1.79-4.42-3.24-8.14-4.35-11.18.14,6.35.21,14.7.21,25.05v15.73h-5.66v-49.13h7.59l11.38,27.95c1.7,4.19,3.56,8.9,5.59,14.14,2.81-7.45,4.74-12.44,5.8-14.97Z"/>
      <path class="uuid-85a80396-6c85-4b02-b7aa-70bf487e46d4" d="M487.43,368.54h-5.86v-6.76h5.86v6.76ZM487.29,409.53h-5.52v-35.6h5.52v35.6Z"/>
      <path class="uuid-85a80396-6c85-4b02-b7aa-70bf487e46d4" d="M501.09,409.53h-5.52v-49.13h5.52v49.13Z"/>
      <path class="uuid-85a80396-6c85-4b02-b7aa-70bf487e46d4" d="M514.89,409.53h-5.52v-49.13h5.52v49.13Z"/>
      <path class="uuid-85a80396-6c85-4b02-b7aa-70bf487e46d4" d="M554.22,391.73v1.93h-27.05c.28,3.86,1.36,6.77,3.24,8.73,1.89,1.96,4.46,2.93,7.73,2.93,4.92,0,8.07-2.21,9.45-6.62h5.73c-.97,3.59-2.76,6.43-5.38,8.52-2.62,2.09-5.93,3.14-9.94,3.14-4.92,0-8.9-1.68-11.94-5.04-3.08-3.36-4.62-7.89-4.62-13.59s1.52-10.12,4.55-13.52c2.99-3.4,6.94-5.11,11.87-5.11s9.11,1.77,12.01,5.31c2.9,3.54,4.35,7.98,4.35,13.32ZM537.87,378.14c-2.9,0-5.27.91-7.11,2.72-1.84,1.82-2.99,4.43-3.45,7.83h20.98c-.28-3.13-1.33-5.67-3.17-7.62-1.84-1.95-4.26-2.93-7.25-2.93Z"/>
      <path class="uuid-85a80396-6c85-4b02-b7aa-70bf487e46d4" d="M577.47,373.38c.92,0,1.54.02,1.86.07v5.31h-1.38c-3.68,0-6.54.91-8.59,2.73-2.05,1.82-3.07,4.41-3.07,7.76v20.29h-5.52v-35.6h5.24v6.28c2.39-4.55,6.21-6.83,11.45-6.83Z"/>
      <path class="uuid-85a80396-6c85-4b02-b7aa-70bf487e46d4" d="M627.43,405.05h2v4.49c-.92.14-1.93.21-3.04.21-3.73,0-5.73-1.7-6-5.11-2.48,3.82-6.35,5.73-11.59,5.73-3.91,0-6.98-.91-9.21-2.73-2.23-1.82-3.35-4.38-3.35-7.69,0-6.44,4.39-10.12,13.18-11.04l5.11-.55c3.73-.41,5.59-2.05,5.59-4.9,0-1.98-.61-3.4-1.83-4.28-1.22-.87-3.28-1.31-6.18-1.31-3.08,0-5.3.52-6.66,1.55-1.36,1.03-2.13,2.86-2.31,5.49h-5.52c.46-7.87,5.29-11.8,14.49-11.8s13.39,3.45,13.39,10.35v19.87c0,1.15.64,1.72,1.93,1.72ZM609.08,405.67c2.94,0,5.52-.9,7.73-2.69,2.21-1.75,3.31-4.25,3.31-7.52v-4.21c-1.01.78-2.58,1.29-4.69,1.52l-5.17.62c-2.99.37-5.12,1.06-6.38,2.07-1.27,1.01-1.9,2.46-1.9,4.35s.6,3.28,1.79,4.31c1.2,1.03,2.97,1.55,5.31,1.55Z"/>
      <path class="uuid-85a80396-6c85-4b02-b7aa-70bf487e46d4" d="M650.68,373.1c3.96,0,7.04,1.08,9.25,3.24,2.21,2.16,3.31,5.2,3.31,9.11v24.08h-5.52v-23.53c0-5.29-2.71-7.93-8.14-7.93-2.58,0-4.85.97-6.83,2.9-1.98,1.93-2.97,4.74-2.97,8.42v20.15h-5.52v-35.6h5.24v5.31c2.71-4.09,6.44-6.14,11.18-6.14Z"/>
      <path class="uuid-85a80396-6c85-4b02-b7aa-70bf487e46d4" d="M698.29,379.03v-18.63h5.52v49.13h-5.24v-5.52c-2.85,4.23-6.92,6.35-12.21,6.35-5.01,0-9.02-1.7-12.01-5.11-3.04-3.4-4.55-7.91-4.55-13.52s1.52-10.24,4.55-13.59c2.94-3.36,6.94-5.04,12.01-5.04s9.08,1.98,11.94,5.93ZM678.7,401.87c2.07,2.35,4.85,3.52,8.35,3.52s6.28-1.22,8.35-3.66c2.07-2.39,3.1-5.73,3.1-10s-1.04-7.57-3.1-10c-2.07-2.44-4.85-3.66-8.35-3.66s-6.22,1.25-8.31,3.76c-2.09,2.51-3.14,5.9-3.14,10.18s1.04,7.52,3.1,9.87Z"/>
      <path class="uuid-85a80396-6c85-4b02-b7aa-70bf487e46d4" d="M731.34,360.4v43.88h24.7v5.24h-30.5v-49.13h5.8Z"/>
      <path class="uuid-85a80396-6c85-4b02-b7aa-70bf487e46d4" d="M787.44,405.25c-3.27,3.41-7.41,5.11-12.42,5.11s-9.15-1.7-12.42-5.11c-3.22-3.36-4.83-7.87-4.83-13.52s1.61-10.17,4.83-13.52c3.27-3.4,7.41-5.11,12.42-5.11s9.15,1.7,12.42,5.11c3.22,3.36,4.83,7.87,4.83,13.52s-1.61,10.17-4.83,13.52ZM766.67,401.73c2.07,2.44,4.85,3.66,8.35,3.66s6.28-1.22,8.35-3.66c2.07-2.39,3.1-5.73,3.1-10s-1.04-7.68-3.1-10.07c-2.07-2.39-4.85-3.59-8.35-3.59s-6.28,1.2-8.35,3.59c-2.07,2.39-3.1,5.75-3.1,10.07s1.04,7.61,3.1,10Z"/>
      <path class="uuid-85a80396-6c85-4b02-b7aa-70bf487e46d4" d="M825.87,379.1v-5.17h5.24v34.22c0,4.88-1.43,8.72-4.28,11.52-2.85,2.81-6.95,4.21-12.28,4.21-4.42,0-7.96-1.01-10.63-3.04-2.67-2.03-4.19-4.83-4.55-8.42h5.52c.69,4.51,3.91,6.76,9.66,6.76,7.36,0,11.04-3.68,11.04-11.04v-3.45c-2.81,3.77-6.79,5.66-11.94,5.66s-9.02-1.7-12.01-5.11c-3.04-3.4-4.55-7.91-4.55-13.52s1.52-10.24,4.55-13.59c2.94-3.36,6.94-5.04,12.01-5.04s9.36,2,12.21,6ZM814.35,405.39c3.5,0,6.28-1.22,8.35-3.66,2.07-2.44,3.1-5.77,3.1-10s-1.04-7.57-3.1-10c-2.07-2.44-4.85-3.66-8.35-3.66s-6.22,1.24-8.31,3.73c-2.09,2.48-3.14,5.8-3.14,9.94s1.05,7.45,3.14,9.94c2.09,2.48,4.86,3.73,8.31,3.73Z"/>
      <path class="uuid-85a80396-6c85-4b02-b7aa-70bf487e46d4" d="M845.05,368.54h-5.86v-6.76h5.86v6.76ZM844.91,409.53h-5.52v-35.6h5.52v35.6Z"/>
      <path class="uuid-85a80396-6c85-4b02-b7aa-70bf487e46d4" d="M868.79,373.93v4.83h-7.31v23.12c0,2.02,1.36,3.04,4.07,3.04h3.24v4.62c-1.52.14-2.83.21-3.93.21-5.93,0-8.9-2.46-8.9-7.38v-23.6h-5.86v-4.83h5.86v-10.07h5.52v10.07h7.31Z"/>
      <path class="uuid-85a80396-6c85-4b02-b7aa-70bf487e46d4" d="M905.01,391.73v1.93h-27.05c.28,3.86,1.36,6.77,3.24,8.73,1.89,1.96,4.46,2.93,7.73,2.93,4.92,0,8.07-2.21,9.45-6.62h5.73c-.97,3.59-2.76,6.43-5.38,8.52-2.62,2.09-5.93,3.14-9.94,3.14-4.92,0-8.9-1.68-11.94-5.04-3.08-3.36-4.62-7.89-4.62-13.59s1.52-10.12,4.55-13.52c2.99-3.4,6.94-5.11,11.87-5.11s9.11,1.77,12.01,5.31c2.9,3.54,4.35,7.98,4.35,13.32ZM888.66,378.14c-2.9,0-5.27.91-7.11,2.72-1.84,1.82-2.99,4.43-3.45,7.83h20.98c-.28-3.13-1.33-5.67-3.17-7.62-1.84-1.95-4.26-2.93-7.25-2.93Z"/>
      <path class="uuid-85a80396-6c85-4b02-b7aa-70bf487e46d4" d="M926.33,410.36c-4.92,0-8.9-1.7-11.94-5.11-3.04-3.4-4.55-7.91-4.55-13.52s1.52-10.24,4.55-13.59c2.94-3.36,6.92-5.04,11.94-5.04,4.23,0,7.7,1.15,10.42,3.45,2.71,2.3,4.35,5.45,4.9,9.45h-5.73c-.41-2.53-1.51-4.48-3.28-5.86-1.77-1.38-3.88-2.07-6.31-2.07-3.27,0-5.86,1.18-7.8,3.55s-2.9,5.74-2.9,10.11.98,7.68,2.93,10.07c1.95,2.39,4.54,3.59,7.76,3.59,2.44,0,4.55-.71,6.35-2.14,1.79-1.42,2.9-3.4,3.31-5.93h5.66c-.6,4-2.29,7.18-5.07,9.52-2.78,2.35-6.2,3.52-10.25,3.52Z"/>
      <path class="uuid-85a80396-6c85-4b02-b7aa-70bf487e46d4" d="M963.94,373.1c3.96,0,7.04,1.08,9.25,3.24,2.21,2.16,3.31,5.2,3.31,9.11v24.08h-5.52v-23.53c0-5.29-2.71-7.93-8.14-7.93-2.58,0-4.85.97-6.83,2.9-1.98,1.93-2.97,4.74-2.97,8.42v20.15h-5.52v-49.13h5.52v18.42c2.71-3.82,6.35-5.73,10.9-5.73Z"/>
      <path class="uuid-85a80396-6c85-4b02-b7aa-70bf487e46d4" d="M1020.59,389.52v-5.24h20.91v25.25h-4.76l-1.24-6.62c-3.63,5.15-8.99,7.73-16.08,7.73s-12.65-2.37-16.84-7.11c-4.28-4.69-6.42-10.88-6.42-18.56s2.12-13.84,6.35-18.63c4.19-4.69,9.84-7.04,16.97-7.04,5.84,0,10.67,1.56,14.49,4.69,3.82,3.13,6.14,7.29,6.97,12.49h-6c-.6-3.63-2.35-6.53-5.24-8.69-2.81-2.12-6.21-3.17-10.21-3.17-5.24,0-9.43,1.84-12.56,5.52-3.13,3.68-4.69,8.62-4.69,14.83s1.56,11.16,4.69,14.84c3.13,3.68,7.31,5.52,12.56,5.52,4.65,0,8.6-1.49,11.87-4.49,3.27-2.99,4.9-6.76,4.9-11.32h-15.66Z"/>
      <path class="uuid-85a80396-6c85-4b02-b7aa-70bf487e46d4" d="M1078.96,373.1c3.96,0,7.04,1.08,9.25,3.24,2.21,2.16,3.31,5.2,3.31,9.11v24.08h-5.52v-23.53c0-5.29-2.71-7.93-8.14-7.93-2.58,0-4.85.97-6.83,2.9-1.98,1.93-2.97,4.74-2.97,8.42v20.15h-5.52v-49.13h5.52v18.42c2.71-3.82,6.35-5.73,10.9-5.73Z"/>
      <path class="uuid-85a80396-6c85-4b02-b7aa-70bf487e46d4" d="M1128.91,405.05h2v4.49c-.92.14-1.93.21-3.04.21-3.73,0-5.73-1.7-6-5.11-2.48,3.82-6.35,5.73-11.59,5.73-3.91,0-6.98-.91-9.21-2.73-2.23-1.82-3.35-4.38-3.35-7.69,0-6.44,4.39-10.12,13.18-11.04l5.11-.55c3.73-.41,5.59-2.05,5.59-4.9,0-1.98-.61-3.4-1.83-4.28-1.22-.87-3.28-1.31-6.18-1.31-3.08,0-5.3.52-6.66,1.55-1.36,1.03-2.13,2.86-2.31,5.49h-5.52c.46-7.87,5.29-11.8,14.49-11.8s13.39,3.45,13.39,10.35v19.87c0,1.15.64,1.72,1.93,1.72ZM1110.56,405.67c2.94,0,5.52-.9,7.73-2.69,2.21-1.75,3.31-4.25,3.31-7.52v-4.21c-1.01.78-2.58,1.29-4.69,1.52l-5.17.62c-2.99.37-5.12,1.06-6.38,2.07-1.27,1.01-1.9,2.46-1.9,4.35s.6,3.28,1.79,4.31c1.2,1.03,2.97,1.55,5.31,1.55Z"/>
      <path class="uuid-85a80396-6c85-4b02-b7aa-70bf487e46d4" d="M1152.17,389.73l5.87-15.8h5.93l-14.01,35.6h-5.8l-13.94-35.6h6l5.87,15.87c2.9,7.77,4.58,12.38,5.04,13.8.83-2.44,2.51-7.06,5.04-13.87Z"/>
      <path class="uuid-85a80396-6c85-4b02-b7aa-70bf487e46d4" d="M1197.43,391.73v1.93h-27.05c.28,3.86,1.36,6.77,3.24,8.73,1.89,1.96,4.46,2.93,7.73,2.93,4.92,0,8.07-2.21,9.45-6.62h5.73c-.97,3.59-2.76,6.43-5.38,8.52-2.62,2.09-5.93,3.14-9.94,3.14-4.92,0-8.9-1.68-11.94-5.04-3.08-3.36-4.62-7.89-4.62-13.59s1.52-10.12,4.55-13.52c2.99-3.4,6.95-5.11,11.87-5.11s9.11,1.77,12.01,5.31c2.9,3.54,4.35,7.98,4.35,13.32ZM1181.08,378.14c-2.9,0-5.27.91-7.11,2.72-1.84,1.82-2.99,4.43-3.45,7.83h20.98c-.28-3.13-1.33-5.67-3.17-7.62-1.84-1.95-4.26-2.93-7.25-2.93Z"/>
      <path class="uuid-85a80396-6c85-4b02-b7aa-70bf487e46d4" d="M1231.86,410.36c-4.92,0-8.9-1.7-11.94-5.11-3.04-3.4-4.55-7.91-4.55-13.52s1.52-10.24,4.55-13.59c2.94-3.36,6.92-5.04,11.94-5.04,4.23,0,7.7,1.15,10.42,3.45,2.71,2.3,4.35,5.45,4.9,9.45h-5.73c-.41-2.53-1.51-4.48-3.28-5.86-1.77-1.38-3.88-2.07-6.31-2.07-3.27,0-5.87,1.18-7.8,3.55-1.93,2.37-2.9,5.74-2.9,10.11s.98,7.68,2.93,10.07c1.95,2.39,4.54,3.59,7.76,3.59,2.44,0,4.55-.71,6.35-2.14,1.79-1.42,2.9-3.4,3.31-5.93h5.66c-.6,4-2.29,7.18-5.07,9.52-2.78,2.35-6.2,3.52-10.25,3.52Z"/>
      <path class="uuid-85a80396-6c85-4b02-b7aa-70bf487e46d4" d="M1280.99,405.25c-3.27,3.41-7.41,5.11-12.42,5.11s-9.15-1.7-12.42-5.11c-3.22-3.36-4.83-7.87-4.83-13.52s1.61-10.17,4.83-13.52c3.27-3.4,7.41-5.11,12.42-5.11s9.15,1.7,12.42,5.11c3.22,3.36,4.83,7.87,4.83,13.52s-1.61,10.17-4.83,13.52ZM1260.22,401.73c2.07,2.44,4.85,3.66,8.35,3.66s6.28-1.22,8.35-3.66c2.07-2.39,3.11-5.73,3.11-10s-1.04-7.68-3.11-10.07c-2.07-2.39-4.85-3.59-8.35-3.59s-6.28,1.2-8.35,3.59c-2.07,2.39-3.11,5.75-3.11,10.07s1.04,7.61,3.11,10Z"/>
      <path class="uuid-85a80396-6c85-4b02-b7aa-70bf487e46d4" d="M1297.89,409.53h-5.52v-49.13h5.52v49.13Z"/>
      <path class="uuid-85a80396-6c85-4b02-b7aa-70bf487e46d4" d="M1311.69,409.53h-5.52v-49.13h5.52v49.13Z"/>
      <path class="uuid-85a80396-6c85-4b02-b7aa-70bf487e46d4" d="M1349.09,405.05h2v4.49c-.92.14-1.93.21-3.04.21-3.73,0-5.73-1.7-6-5.11-2.48,3.82-6.35,5.73-11.59,5.73-3.91,0-6.98-.91-9.21-2.73-2.23-1.82-3.35-4.38-3.35-7.69,0-6.44,4.39-10.12,13.18-11.04l5.11-.55c3.73-.41,5.59-2.05,5.59-4.9,0-1.98-.61-3.4-1.83-4.28-1.22-.87-3.28-1.31-6.17-1.31-3.08,0-5.3.52-6.66,1.55-1.36,1.03-2.13,2.86-2.31,5.49h-5.52c.46-7.87,5.29-11.8,14.49-11.8s13.39,3.45,13.39,10.35v19.87c0,1.15.64,1.72,1.93,1.72ZM1330.74,405.67c2.94,0,5.52-.9,7.73-2.69,2.21-1.75,3.31-4.25,3.31-7.52v-4.21c-1.01.78-2.58,1.29-4.69,1.52l-5.17.62c-2.99.37-5.12,1.06-6.38,2.07-1.27,1.01-1.9,2.46-1.9,4.35s.6,3.28,1.79,4.31c1.2,1.03,2.97,1.55,5.31,1.55Z"/>
      <path class="uuid-85a80396-6c85-4b02-b7aa-70bf487e46d4" d="M1373.03,373.1c5.01,0,9.04,1.68,12.08,5.04,2.99,3.4,4.49,7.93,4.49,13.59s-1.5,10.12-4.49,13.52c-3.04,3.41-7.06,5.11-12.08,5.11-5.29,0-9.36-2.12-12.21-6.35v5.52h-5.24v-49.13h5.52v18.63c2.85-3.96,6.83-5.93,11.94-5.93ZM1372.34,405.39c3.45,0,6.22-1.25,8.31-3.76,2.09-2.51,3.14-5.9,3.14-10.18s-1.02-7.46-3.07-9.83-4.84-3.55-8.38-3.55-6.28,1.2-8.35,3.59c-2.07,2.39-3.1,5.75-3.1,10.07s1.04,7.61,3.1,10c2.07,2.44,4.85,3.66,8.35,3.66Z"/>
      <path class="uuid-85a80396-6c85-4b02-b7aa-70bf487e46d4" d="M1424.09,405.25c-3.27,3.41-7.41,5.11-12.42,5.11s-9.15-1.7-12.42-5.11c-3.22-3.36-4.83-7.87-4.83-13.52s1.61-10.17,4.83-13.52c3.27-3.4,7.41-5.11,12.42-5.11s9.15,1.7,12.42,5.11c3.22,3.36,4.83,7.87,4.83,13.52s-1.61,10.17-4.83,13.52ZM1403.33,401.73c2.07,2.44,4.85,3.66,8.35,3.66s6.28-1.22,8.35-3.66c2.07-2.39,3.11-5.73,3.11-10s-1.04-7.68-3.11-10.07c-2.07-2.39-4.85-3.59-8.35-3.59s-6.28,1.2-8.35,3.59c-2.07,2.39-3.11,5.75-3.11,10.07s1.04,7.61,3.11,10Z"/>
      <path class="uuid-85a80396-6c85-4b02-b7aa-70bf487e46d4" d="M1452.18,373.38c.92,0,1.54.02,1.86.07v5.31h-1.38c-3.68,0-6.54.91-8.59,2.73-2.05,1.82-3.07,4.41-3.07,7.76v20.29h-5.52v-35.6h5.24v6.28c2.39-4.55,6.21-6.83,11.45-6.83Z"/>
      <path class="uuid-85a80396-6c85-4b02-b7aa-70bf487e46d4" d="M1485.92,405.05h2v4.49c-.92.14-1.93.21-3.04.21-3.73,0-5.73-1.7-6-5.11-2.48,3.82-6.35,5.73-11.59,5.73-3.91,0-6.98-.91-9.21-2.73-2.23-1.82-3.35-4.38-3.35-7.69,0-6.44,4.39-10.12,13.18-11.04l5.11-.55c3.73-.41,5.59-2.05,5.59-4.9,0-1.98-.61-3.4-1.83-4.28-1.22-.87-3.28-1.31-6.17-1.31-3.08,0-5.3.52-6.66,1.55-1.36,1.03-2.13,2.86-2.31,5.49h-5.52c.46-7.87,5.29-11.8,14.49-11.8s13.39,3.45,13.39,10.35v19.87c0,1.15.64,1.72,1.93,1.72ZM1467.56,405.67c2.94,0,5.52-.9,7.73-2.69,2.21-1.75,3.31-4.25,3.31-7.52v-4.21c-1.01.78-2.58,1.29-4.69,1.52l-5.17.62c-2.99.37-5.12,1.06-6.38,2.07-1.27,1.01-1.9,2.46-1.9,4.35s.6,3.28,1.79,4.31c1.2,1.03,2.97,1.55,5.31,1.55Z"/>
      <path class="uuid-85a80396-6c85-4b02-b7aa-70bf487e46d4" d="M1506.96,373.93v4.83h-7.31v23.12c0,2.02,1.36,3.04,4.07,3.04h3.24v4.62c-1.52.14-2.83.21-3.93.21-5.93,0-8.9-2.46-8.9-7.38v-23.6h-5.87v-4.83h5.87v-10.07h5.52v10.07h7.31Z"/>
      <path class="uuid-85a80396-6c85-4b02-b7aa-70bf487e46d4" d="M1543.19,391.73v1.93h-27.05c.28,3.86,1.36,6.77,3.24,8.73,1.89,1.96,4.46,2.93,7.73,2.93,4.92,0,8.07-2.21,9.45-6.62h5.73c-.97,3.59-2.76,6.43-5.38,8.52-2.62,2.09-5.93,3.14-9.94,3.14-4.92,0-8.9-1.68-11.94-5.04-3.08-3.36-4.62-7.89-4.62-13.59s1.52-10.12,4.55-13.52c2.99-3.4,6.95-5.11,11.87-5.11s9.11,1.77,12.01,5.31c2.9,3.54,4.35,7.98,4.35,13.32ZM1526.83,378.14c-2.9,0-5.27.91-7.11,2.72-1.84,1.82-2.99,4.43-3.45,7.83h20.98c-.28-3.13-1.33-5.67-3.17-7.62-1.84-1.95-4.26-2.93-7.25-2.93Z"/>
      <path class="uuid-85a80396-6c85-4b02-b7aa-70bf487e46d4" d="M1576.51,379.03v-18.63h5.52v49.13h-5.24v-5.52c-2.85,4.23-6.92,6.35-12.21,6.35-5.01,0-9.02-1.7-12.01-5.11-3.04-3.4-4.55-7.91-4.55-13.52s1.52-10.24,4.55-13.59c2.94-3.36,6.95-5.04,12.01-5.04s9.08,1.98,11.94,5.93ZM1556.92,401.87c2.07,2.35,4.85,3.52,8.35,3.52s6.28-1.22,8.35-3.66c2.07-2.39,3.11-5.73,3.11-10s-1.04-7.57-3.11-10c-2.07-2.44-4.85-3.66-8.35-3.66s-6.22,1.25-8.31,3.76c-2.09,2.51-3.14,5.9-3.14,10.18s1.04,7.52,3.11,9.87Z"/>
      <path class="uuid-85a80396-6c85-4b02-b7aa-70bf487e46d4" d="M1619.02,373.93v4.83h-7.31v23.12c0,2.02,1.36,3.04,4.07,3.04h3.24v4.62c-1.52.14-2.83.21-3.93.21-5.93,0-8.9-2.46-8.9-7.38v-23.6h-5.87v-4.83h5.87v-10.07h5.52v10.07h7.31Z"/>
      <path class="uuid-85a80396-6c85-4b02-b7aa-70bf487e46d4" d="M1652.14,405.25c-3.27,3.41-7.41,5.11-12.42,5.11s-9.15-1.7-12.42-5.11c-3.22-3.36-4.83-7.87-4.83-13.52s1.61-10.17,4.83-13.52c3.27-3.4,7.41-5.11,12.42-5.11s9.15,1.7,12.42,5.11c3.22,3.36,4.83,7.87,4.83,13.52s-1.61,10.17-4.83,13.52ZM1631.37,401.73c2.07,2.44,4.85,3.66,8.35,3.66s6.28-1.22,8.35-3.66c2.07-2.39,3.11-5.73,3.11-10s-1.04-7.68-3.11-10.07c-2.07-2.39-4.85-3.59-8.35-3.59s-6.28,1.2-8.35,3.59c-2.07,2.39-3.11,5.75-3.11,10.07s1.04,7.61,3.11,10Z"/>
    </g>
    <g class="uuid-d94a3de1-3578-4b3e-bd94-2feef3823ec8">
      <path class="uuid-85a80396-6c85-4b02-b7aa-70bf487e46d4" d="M176.17,479.53h-5.52v-49.13h5.52v49.13Z"/>
      <path class="uuid-85a80396-6c85-4b02-b7aa-70bf487e46d4" d="M213.57,475.05h2v4.49c-.92.14-1.93.21-3.04.21-3.73,0-5.73-1.7-6-5.11-2.48,3.82-6.35,5.73-11.59,5.73-3.91,0-6.98-.91-9.21-2.73-2.23-1.82-3.35-4.38-3.35-7.69,0-6.44,4.39-10.12,13.18-11.04l5.11-.55c3.73-.41,5.59-2.05,5.59-4.9,0-1.98-.61-3.4-1.83-4.28-1.22-.87-3.28-1.31-6.18-1.31-3.08,0-5.3.52-6.66,1.55-1.36,1.03-2.13,2.86-2.31,5.49h-5.52c.46-7.87,5.29-11.8,14.49-11.8s13.39,3.45,13.39,10.35v19.87c0,1.15.64,1.72,1.93,1.72ZM195.22,475.67c2.94,0,5.52-.9,7.73-2.69,2.21-1.75,3.31-4.25,3.31-7.52v-4.21c-1.01.78-2.58,1.29-4.69,1.52l-5.17.62c-2.99.37-5.12,1.06-6.38,2.07-1.27,1.01-1.9,2.46-1.9,4.35s.6,3.28,1.79,4.31c1.2,1.03,2.97,1.55,5.31,1.55Z"/>
      <path class="uuid-85a80396-6c85-4b02-b7aa-70bf487e46d4" d="M243.86,464.08v-20.15h5.52v35.6h-5.24v-5.31c-2.71,4.09-6.44,6.14-11.18,6.14-3.96,0-7.04-1.08-9.25-3.24-2.21-2.16-3.31-5.2-3.31-9.11v-24.08h5.52v23.53c0,5.29,2.71,7.94,8.14,7.94,2.58,0,4.85-.97,6.83-2.9,1.98-1.93,2.97-4.74,2.97-8.42Z"/>
      <path class="uuid-85a80396-6c85-4b02-b7aa-70bf487e46d4" d="M274.08,443.1c3.96,0,7.04,1.08,9.25,3.24,2.21,2.16,3.31,5.2,3.31,9.11v24.08h-5.52v-23.53c0-5.29-2.71-7.93-8.14-7.93-2.58,0-4.85.97-6.83,2.9-1.98,1.93-2.97,4.74-2.97,8.42v20.15h-5.52v-35.6h5.24v5.31c2.71-4.09,6.44-6.14,11.18-6.14Z"/>
      <path class="uuid-85a80396-6c85-4b02-b7aa-70bf487e46d4" d="M309.69,480.36c-4.92,0-8.9-1.7-11.94-5.11-3.04-3.4-4.55-7.91-4.55-13.52s1.52-10.24,4.55-13.59c2.94-3.36,6.92-5.04,11.94-5.04,4.23,0,7.7,1.15,10.42,3.45,2.71,2.3,4.35,5.45,4.9,9.45h-5.73c-.41-2.53-1.51-4.48-3.28-5.86-1.77-1.38-3.88-2.07-6.31-2.07-3.27,0-5.86,1.18-7.8,3.55s-2.9,5.74-2.9,10.11.98,7.68,2.93,10.07c1.95,2.39,4.54,3.59,7.76,3.59,2.44,0,4.55-.71,6.35-2.14,1.79-1.42,2.9-3.4,3.31-5.93h5.66c-.6,4-2.29,7.18-5.07,9.52-2.78,2.35-6.2,3.52-10.25,3.52Z"/>
      <path class="uuid-85a80396-6c85-4b02-b7aa-70bf487e46d4" d="M347.29,443.1c3.96,0,7.04,1.08,9.25,3.24,2.21,2.16,3.31,5.2,3.31,9.11v24.08h-5.52v-23.53c0-5.29-2.71-7.93-8.14-7.93-2.58,0-4.85.97-6.83,2.9-1.98,1.93-2.97,4.74-2.97,8.42v20.15h-5.52v-49.13h5.52v18.42c2.71-3.82,6.35-5.73,10.9-5.73Z"/>
      <path class="uuid-85a80396-6c85-4b02-b7aa-70bf487e46d4" d="M396.83,443.93v4.83h-7.31v23.12c0,2.02,1.36,3.04,4.07,3.04h3.24v4.62c-1.52.14-2.83.21-3.93.21-5.93,0-8.9-2.46-8.9-7.38v-23.6h-5.86v-4.83h5.86v-10.07h5.52v10.07h7.31Z"/>
      <path class="uuid-85a80396-6c85-4b02-b7aa-70bf487e46d4" d="M419.12,443.1c3.96,0,7.04,1.08,9.25,3.24,2.21,2.16,3.31,5.2,3.31,9.11v24.08h-5.52v-23.53c0-5.29-2.71-7.93-8.14-7.93-2.58,0-4.85.97-6.83,2.9-1.98,1.93-2.97,4.74-2.97,8.42v20.15h-5.52v-49.13h5.52v18.42c2.71-3.82,6.35-5.73,10.9-5.73Z"/>
      <path class="uuid-85a80396-6c85-4b02-b7aa-70bf487e46d4" d="M471.01,461.73v1.93h-27.05c.28,3.86,1.36,6.77,3.24,8.73,1.89,1.96,4.46,2.93,7.73,2.93,4.92,0,8.07-2.21,9.45-6.62h5.73c-.97,3.59-2.76,6.43-5.38,8.52-2.62,2.09-5.93,3.14-9.94,3.14-4.92,0-8.9-1.68-11.94-5.04-3.08-3.36-4.62-7.89-4.62-13.59s1.52-10.12,4.55-13.52c2.99-3.4,6.94-5.11,11.87-5.11s9.11,1.77,12.01,5.31c2.9,3.54,4.35,7.98,4.35,13.32ZM454.65,448.14c-2.9,0-5.27.91-7.11,2.72-1.84,1.82-2.99,4.43-3.45,7.83h20.98c-.28-3.13-1.33-5.67-3.17-7.62-1.84-1.95-4.26-2.93-7.25-2.93Z"/>
      <path class="uuid-85a80396-6c85-4b02-b7aa-70bf487e46d4" d="M513.51,461.52l11.18-31.12h6.07l-18.22,49.13h-6.49l-18.49-49.13h6.14l11.39,31.12c2.07,5.84,3.47,9.91,4.21,12.21.69-2.3,2.09-6.37,4.21-12.21Z"/>
      <path class="uuid-85a80396-6c85-4b02-b7aa-70bf487e46d4" d="M559.53,475.05h2v4.49c-.92.14-1.93.21-3.04.21-3.73,0-5.73-1.7-6-5.11-2.48,3.82-6.35,5.73-11.59,5.73-3.91,0-6.98-.91-9.21-2.73-2.23-1.82-3.35-4.38-3.35-7.69,0-6.44,4.39-10.12,13.18-11.04l5.11-.55c3.73-.41,5.59-2.05,5.59-4.9,0-1.98-.61-3.4-1.83-4.28-1.22-.87-3.28-1.31-6.18-1.31-3.08,0-5.3.52-6.66,1.55-1.36,1.03-2.13,2.86-2.31,5.49h-5.52c.46-7.87,5.29-11.8,14.49-11.8s13.39,3.45,13.39,10.35v19.87c0,1.15.64,1.72,1.93,1.72ZM541.18,475.67c2.94,0,5.52-.9,7.73-2.69,2.21-1.75,3.31-4.25,3.31-7.52v-4.21c-1.01.78-2.58,1.29-4.69,1.52l-5.17.62c-2.99.37-5.12,1.06-6.38,2.07-1.27,1.01-1.9,2.46-1.9,4.35s.6,3.28,1.79,4.31c1.2,1.03,2.97,1.55,5.31,1.55Z"/>
      <path class="uuid-85a80396-6c85-4b02-b7aa-70bf487e46d4" d="M582.79,443.1c3.96,0,7.04,1.08,9.25,3.24,2.21,2.16,3.31,5.2,3.31,9.11v24.08h-5.52v-23.53c0-5.29-2.71-7.93-8.14-7.93-2.58,0-4.85.97-6.83,2.9-1.98,1.93-2.97,4.74-2.97,8.42v20.15h-5.52v-35.6h5.24v5.31c2.71-4.09,6.44-6.14,11.18-6.14Z"/>
      <path class="uuid-85a80396-6c85-4b02-b7aa-70bf487e46d4" d="M617.84,443.93v4.83h-7.31v23.12c0,2.02,1.36,3.04,4.07,3.04h3.24v4.62c-1.52.14-2.83.21-3.93.21-5.93,0-8.9-2.46-8.9-7.38v-23.6h-5.86v-4.83h5.86v-10.07h5.52v10.07h7.31Z"/>
      <path class="uuid-85a80396-6c85-4b02-b7aa-70bf487e46d4" d="M647.16,464.08v-20.15h5.52v35.6h-5.24v-5.31c-2.71,4.09-6.44,6.14-11.18,6.14-3.96,0-7.04-1.08-9.25-3.24-2.21-2.16-3.31-5.2-3.31-9.11v-24.08h5.52v23.53c0,5.29,2.71,7.94,8.14,7.94,2.58,0,4.85-.97,6.83-2.9,1.98-1.93,2.97-4.74,2.97-8.42Z"/>
      <path class="uuid-85a80396-6c85-4b02-b7aa-70bf487e46d4" d="M698.43,443.1c3.86,0,6.87,1.12,9,3.35,2.14,2.23,3.21,5.21,3.21,8.94v24.15h-5.52v-23.6c0-5.24-2.48-7.87-7.45-7.87-2.62,0-4.8,1.05-6.52,3.14-1.73,2.09-2.59,5.05-2.59,8.87v19.46h-5.52v-23.6c0-5.24-2.48-7.87-7.45-7.87-2.58,0-4.74,1.05-6.49,3.14-1.75,2.09-2.62,5.05-2.62,8.87v19.46h-5.52v-35.6h5.24v5.24c2.35-4.05,5.77-6.07,10.28-6.07,5.34,0,8.99,2.23,10.97,6.69,2.48-4.46,6.14-6.69,10.97-6.69Z"/>
      <path class="uuid-85a80396-6c85-4b02-b7aa-70bf487e46d4" d="M761.63,462.56h-30.98v-4.97h30.98v4.97Z"/>
      <path class="uuid-85a80396-6c85-4b02-b7aa-70bf487e46d4" d="M810.76,475.05h2v4.49c-.92.14-1.93.21-3.04.21-3.73,0-5.73-1.7-6-5.11-2.48,3.82-6.35,5.73-11.59,5.73-3.91,0-6.98-.91-9.21-2.73-2.23-1.82-3.35-4.38-3.35-7.69,0-6.44,4.39-10.12,13.18-11.04l5.11-.55c3.73-.41,5.59-2.05,5.59-4.9,0-1.98-.61-3.4-1.83-4.28-1.22-.87-3.28-1.31-6.18-1.31-3.08,0-5.3.52-6.66,1.55-1.36,1.03-2.13,2.86-2.31,5.49h-5.52c.46-7.87,5.29-11.8,14.49-11.8s13.39,3.45,13.39,10.35v19.87c0,1.15.64,1.72,1.93,1.72ZM792.4,475.67c2.94,0,5.52-.9,7.73-2.69,2.21-1.75,3.31-4.25,3.31-7.52v-4.21c-1.01.78-2.58,1.29-4.69,1.52l-5.17.62c-2.99.37-5.12,1.06-6.38,2.07-1.27,1.01-1.9,2.46-1.9,4.35s.6,3.28,1.79,4.31c1.2,1.03,2.97,1.55,5.31,1.55Z"/>
      <path class="uuid-85a80396-6c85-4b02-b7aa-70bf487e46d4" d="M848.85,459.73l5.86-15.8h5.93l-14.01,35.6h-5.8l-13.94-35.6h6l5.86,15.87c2.9,7.77,4.58,12.38,5.04,13.8.83-2.44,2.51-7.06,5.04-13.87Z"/>
      <path class="uuid-85a80396-6c85-4b02-b7aa-70bf487e46d4" d="M894.11,461.73v1.93h-27.05c.28,3.86,1.36,6.77,3.24,8.73,1.89,1.96,4.46,2.93,7.73,2.93,4.92,0,8.07-2.21,9.45-6.62h5.73c-.97,3.59-2.76,6.43-5.38,8.52-2.62,2.09-5.93,3.14-9.94,3.14-4.92,0-8.9-1.68-11.94-5.04-3.08-3.36-4.62-7.89-4.62-13.59s1.52-10.12,4.55-13.52c2.99-3.4,6.94-5.11,11.87-5.11s9.11,1.77,12.01,5.31c2.9,3.54,4.35,7.98,4.35,13.32ZM877.76,448.14c-2.9,0-5.27.91-7.11,2.72-1.84,1.82-2.99,4.43-3.45,7.83h20.98c-.28-3.13-1.33-5.67-3.17-7.62-1.84-1.95-4.26-2.93-7.25-2.93Z"/>
      <path class="uuid-85a80396-6c85-4b02-b7aa-70bf487e46d4" d="M917.36,443.38c.92,0,1.54.02,1.86.07v5.31h-1.38c-3.68,0-6.54.91-8.59,2.73-2.05,1.82-3.07,4.41-3.07,7.76v20.29h-5.52v-35.6h5.24v6.28c2.39-4.55,6.21-6.83,11.45-6.83Z"/>
      <path class="uuid-85a80396-6c85-4b02-b7aa-70bf487e46d4" d="M935.58,480.36c-9.52,0-14.56-4.05-15.11-12.14h5.59c.32,2.67,1.21,4.57,2.66,5.69s3.74,1.69,6.87,1.69c5.7,0,8.56-1.84,8.56-5.52,0-1.61-.59-2.83-1.76-3.66-1.17-.83-3.3-1.54-6.38-2.14l-3.31-.62c-7.41-1.38-11.11-4.88-11.11-10.49,0-3.08,1.16-5.53,3.48-7.35,2.32-1.82,5.49-2.73,9.49-2.73,9.43,0,14.26,3.93,14.49,11.8h-5.52c-.14-2.58-.92-4.39-2.35-5.45-1.43-1.06-3.63-1.59-6.62-1.59-2.39,0-4.23.46-5.52,1.38-1.29.92-1.93,2.21-1.93,3.86,0,1.56.55,2.74,1.66,3.52,1.1.78,2.94,1.45,5.52,2l3.17.62c4.37.87,7.51,2.12,9.42,3.73,1.91,1.61,2.86,3.86,2.86,6.76,0,3.36-1.25,5.97-3.76,7.83-2.51,1.86-5.97,2.79-10.38,2.79Z"/>
      <path class="uuid-85a80396-6c85-4b02-b7aa-70bf487e46d4" d="M985.39,475.05h2v4.49c-.92.14-1.93.21-3.04.21-3.73,0-5.73-1.7-6-5.11-2.48,3.82-6.35,5.73-11.59,5.73-3.91,0-6.98-.91-9.21-2.73-2.23-1.82-3.35-4.38-3.35-7.69,0-6.44,4.39-10.12,13.18-11.04l5.11-.55c3.73-.41,5.59-2.05,5.59-4.9,0-1.98-.61-3.4-1.83-4.28-1.22-.87-3.28-1.31-6.18-1.31-3.08,0-5.3.52-6.66,1.55-1.36,1.03-2.13,2.86-2.31,5.49h-5.52c.46-7.87,5.29-11.8,14.49-11.8s13.39,3.45,13.39,10.35v19.87c0,1.15.64,1.72,1.93,1.72ZM967.04,475.67c2.94,0,5.52-.9,7.73-2.69,2.21-1.75,3.31-4.25,3.31-7.52v-4.21c-1.01.78-2.58,1.29-4.69,1.52l-5.17.62c-2.99.37-5.12,1.06-6.38,2.07-1.27,1.01-1.9,2.46-1.9,4.35s.6,3.28,1.79,4.31c1.2,1.03,2.97,1.55,5.31,1.55Z"/>
      <path class="uuid-85a80396-6c85-4b02-b7aa-70bf487e46d4" d="M1006.44,443.93v4.83h-7.31v23.12c0,2.02,1.36,3.04,4.07,3.04h3.24v4.62c-1.52.14-2.83.21-3.93.21-5.93,0-8.9-2.46-8.9-7.38v-23.6h-5.86v-4.83h5.86v-10.07h5.52v10.07h7.31Z"/>
      <path class="uuid-85a80396-6c85-4b02-b7aa-70bf487e46d4" d="M1017.96,438.54h-5.87v-6.76h5.87v6.76ZM1017.83,479.53h-5.52v-35.6h5.52v35.6Z"/>
      <path class="uuid-85a80396-6c85-4b02-b7aa-70bf487e46d4" d="M1031.62,479.53h-5.52v-49.13h5.52v49.13Z"/>
      <path class="uuid-85a80396-6c85-4b02-b7aa-70bf487e46d4" d="M1070.96,461.73v1.93h-27.05c.28,3.86,1.36,6.77,3.24,8.73,1.89,1.96,4.46,2.93,7.73,2.93,4.92,0,8.07-2.21,9.45-6.62h5.73c-.97,3.59-2.76,6.43-5.38,8.52-2.62,2.09-5.93,3.14-9.94,3.14-4.92,0-8.9-1.68-11.94-5.04-3.08-3.36-4.62-7.89-4.62-13.59s1.52-10.12,4.55-13.52c2.99-3.4,6.94-5.11,11.87-5.11s9.11,1.77,12.01,5.31c2.9,3.54,4.35,7.98,4.35,13.32ZM1054.6,448.14c-2.9,0-5.27.91-7.11,2.72-1.84,1.82-2.99,4.43-3.45,7.83h20.98c-.28-3.13-1.33-5.67-3.17-7.62-1.84-1.95-4.25-2.93-7.25-2.93Z"/>
      <path class="uuid-85a80396-6c85-4b02-b7aa-70bf487e46d4" d="M1117.67,449.1v-5.17h5.24v34.22c0,4.88-1.43,8.72-4.28,11.52-2.85,2.81-6.95,4.21-12.28,4.21-4.42,0-7.96-1.01-10.63-3.04-2.67-2.03-4.19-4.83-4.55-8.42h5.52c.69,4.51,3.91,6.76,9.66,6.76,7.36,0,11.04-3.68,11.04-11.04v-3.45c-2.81,3.77-6.79,5.66-11.94,5.66s-9.02-1.7-12.01-5.11c-3.04-3.4-4.55-7.91-4.55-13.52s1.52-10.24,4.55-13.59c2.94-3.36,6.95-5.04,12.01-5.04s9.36,2,12.21,6ZM1106.14,475.39c3.5,0,6.28-1.22,8.35-3.66,2.07-2.44,3.11-5.77,3.11-10s-1.04-7.57-3.11-10-4.85-3.66-8.35-3.66-6.22,1.24-8.31,3.73c-2.09,2.48-3.14,5.8-3.14,9.94s1.05,7.45,3.14,9.94c2.09,2.48,4.86,3.73,8.31,3.73Z"/>
      <path class="uuid-85a80396-6c85-4b02-b7aa-70bf487e46d4" d="M1160.31,475.05h2v4.49c-.92.14-1.93.21-3.04.21-3.73,0-5.73-1.7-6-5.11-2.48,3.82-6.35,5.73-11.59,5.73-3.91,0-6.98-.91-9.21-2.73-2.23-1.82-3.35-4.38-3.35-7.69,0-6.44,4.39-10.12,13.18-11.04l5.11-.55c3.73-.41,5.59-2.05,5.59-4.9,0-1.98-.61-3.4-1.83-4.28-1.22-.87-3.28-1.31-6.17-1.31-3.08,0-5.3.52-6.66,1.55-1.36,1.03-2.13,2.86-2.31,5.49h-5.52c.46-7.87,5.29-11.8,14.49-11.8s13.39,3.45,13.39,10.35v19.87c0,1.15.64,1.72,1.93,1.72ZM1141.95,475.67c2.94,0,5.52-.9,7.73-2.69,2.21-1.75,3.31-4.25,3.31-7.52v-4.21c-1.01.78-2.58,1.29-4.69,1.52l-5.17.62c-2.99.37-5.12,1.06-6.38,2.07-1.27,1.01-1.9,2.46-1.9,4.35s.6,3.28,1.79,4.31c1.2,1.03,2.97,1.55,5.31,1.55Z"/>
      <path class="uuid-85a80396-6c85-4b02-b7aa-70bf487e46d4" d="M1204.61,443.1c3.86,0,6.87,1.12,9,3.35,2.14,2.23,3.21,5.21,3.21,8.94v24.15h-5.52v-23.6c0-5.24-2.48-7.87-7.45-7.87-2.62,0-4.79,1.05-6.52,3.14-1.72,2.09-2.59,5.05-2.59,8.87v19.46h-5.52v-23.6c0-5.24-2.48-7.87-7.45-7.87-2.58,0-4.74,1.05-6.49,3.14-1.75,2.09-2.62,5.05-2.62,8.87v19.46h-5.52v-35.6h5.24v5.24c2.35-4.05,5.77-6.07,10.28-6.07,5.34,0,8.99,2.23,10.97,6.69,2.48-4.46,6.14-6.69,10.97-6.69Z"/>
      <path class="uuid-85a80396-6c85-4b02-b7aa-70bf487e46d4" d="M1230.76,438.54h-5.87v-6.76h5.87v6.76ZM1230.62,479.53h-5.52v-35.6h5.52v35.6Z"/>
      <path class="uuid-85a80396-6c85-4b02-b7aa-70bf487e46d4" d="M1255.32,443.1c3.96,0,7.04,1.08,9.25,3.24,2.21,2.16,3.31,5.2,3.31,9.11v24.08h-5.52v-23.53c0-5.29-2.71-7.93-8.14-7.93-2.58,0-4.85.97-6.83,2.9-1.98,1.93-2.97,4.74-2.97,8.42v20.15h-5.52v-35.6h5.24v5.31c2.71-4.09,6.44-6.14,11.18-6.14Z"/>
      <path class="uuid-85a80396-6c85-4b02-b7aa-70bf487e46d4" d="M1303.21,449.1v-5.17h5.24v34.22c0,4.88-1.43,8.72-4.28,11.52-2.85,2.81-6.95,4.21-12.28,4.21-4.42,0-7.96-1.01-10.63-3.04-2.67-2.03-4.19-4.83-4.55-8.42h5.52c.69,4.51,3.91,6.76,9.66,6.76,7.36,0,11.04-3.68,11.04-11.04v-3.45c-2.81,3.77-6.79,5.66-11.94,5.66s-9.02-1.7-12.01-5.11c-3.04-3.4-4.55-7.91-4.55-13.52s1.52-10.24,4.55-13.59c2.94-3.36,6.95-5.04,12.01-5.04s9.36,2,12.21,6ZM1291.68,475.39c3.5,0,6.28-1.22,8.35-3.66,2.07-2.44,3.11-5.77,3.11-10s-1.04-7.57-3.11-10c-2.07-2.44-4.85-3.66-8.35-3.66s-6.22,1.24-8.31,3.73c-2.09,2.48-3.14,5.8-3.14,9.94s1.05,7.45,3.14,9.94c2.09,2.48,4.86,3.73,8.31,3.73Z"/>
      <path class="uuid-85a80396-6c85-4b02-b7aa-70bf487e46d4" d="M1344.61,480.36c-4.92,0-8.9-1.7-11.94-5.11-3.04-3.4-4.55-7.91-4.55-13.52s1.52-10.24,4.55-13.59c2.94-3.36,6.92-5.04,11.94-5.04,4.23,0,7.7,1.15,10.42,3.45,2.71,2.3,4.35,5.45,4.9,9.45h-5.73c-.41-2.53-1.51-4.48-3.28-5.86-1.77-1.38-3.88-2.07-6.31-2.07-3.27,0-5.87,1.18-7.8,3.55-1.93,2.37-2.9,5.74-2.9,10.11s.98,7.68,2.93,10.07c1.95,2.39,4.54,3.59,7.76,3.59,2.44,0,4.55-.71,6.35-2.14,1.79-1.42,2.9-3.4,3.31-5.93h5.66c-.6,4-2.29,7.18-5.07,9.52-2.78,2.35-6.2,3.52-10.25,3.52Z"/>
      <path class="uuid-85a80396-6c85-4b02-b7aa-70bf487e46d4" d="M1382.21,443.1c3.96,0,7.04,1.08,9.25,3.24,2.21,2.16,3.31,5.2,3.31,9.11v24.08h-5.52v-23.53c0-5.29-2.71-7.93-8.14-7.93-2.58,0-4.85.97-6.83,2.9-1.98,1.93-2.97,4.74-2.97,8.42v20.15h-5.52v-49.13h5.52v18.42c2.71-3.82,6.35-5.73,10.9-5.73Z"/>
      <path class="uuid-85a80396-6c85-4b02-b7aa-70bf487e46d4" d="M1432.17,475.05h2v4.49c-.92.14-1.93.21-3.04.21-3.73,0-5.73-1.7-6-5.11-2.48,3.82-6.35,5.73-11.59,5.73-3.91,0-6.98-.91-9.21-2.73-2.23-1.82-3.35-4.38-3.35-7.69,0-6.44,4.39-10.12,13.18-11.04l5.11-.55c3.73-.41,5.59-2.05,5.59-4.9,0-1.98-.61-3.4-1.83-4.28-1.22-.87-3.28-1.31-6.17-1.31-3.08,0-5.3.52-6.66,1.55-1.36,1.03-2.13,2.86-2.31,5.49h-5.52c.46-7.87,5.29-11.8,14.49-11.8s13.39,3.45,13.39,10.35v19.87c0,1.15.64,1.72,1.93,1.72ZM1413.81,475.67c2.94,0,5.52-.9,7.73-2.69,2.21-1.75,3.31-4.25,3.31-7.52v-4.21c-1.01.78-2.58,1.29-4.69,1.52l-5.17.62c-2.99.37-5.12,1.06-6.38,2.07-1.27,1.01-1.9,2.46-1.9,4.35s.6,3.28,1.79,4.31c1.2,1.03,2.97,1.55,5.31,1.55Z"/>
      <path class="uuid-85a80396-6c85-4b02-b7aa-70bf487e46d4" d="M1444.31,438.54h-5.87v-6.76h5.87v6.76ZM1444.17,479.53h-5.52v-35.6h5.52v35.6Z"/>
      <path class="uuid-85a80396-6c85-4b02-b7aa-70bf487e46d4" d="M1469.15,443.38c.92,0,1.54.02,1.86.07v5.31h-1.38c-3.68,0-6.54.91-8.59,2.73-2.05,1.82-3.07,4.41-3.07,7.76v20.29h-5.52v-35.6h5.24v6.28c2.39-4.55,6.21-6.83,11.45-6.83Z"/>
      <path class="uuid-85a80396-6c85-4b02-b7aa-70bf487e46d4" d="M1468.94,479.53v-6.9h6.97v7.52c0,5.52-2.09,8.49-6.28,8.9l-.69.07v-3.73l.48-.07c1.7-.18,2.55-1.75,2.55-4.69v-1.1h-3.04Z"/>
      <path class="uuid-85a80396-6c85-4b02-b7aa-70bf487e46d4" d="M1523.04,449.03v-18.63h5.52v49.13h-5.24v-5.52c-2.85,4.23-6.92,6.35-12.21,6.35-5.01,0-9.02-1.7-12.01-5.11-3.04-3.4-4.55-7.91-4.55-13.52s1.52-10.24,4.55-13.59c2.94-3.36,6.95-5.04,12.01-5.04s9.08,1.98,11.94,5.93ZM1503.44,471.87c2.07,2.35,4.85,3.52,8.35,3.52s6.28-1.22,8.35-3.66c2.07-2.39,3.11-5.73,3.11-10s-1.04-7.57-3.11-10c-2.07-2.44-4.85-3.66-8.35-3.66s-6.22,1.25-8.31,3.76c-2.09,2.51-3.14,5.9-3.14,10.18s1.04,7.52,3.11,9.87Z"/>
      <path class="uuid-85a80396-6c85-4b02-b7aa-70bf487e46d4" d="M1567.89,461.73v1.93h-27.05c.28,3.86,1.36,6.77,3.24,8.73,1.89,1.96,4.46,2.93,7.73,2.93,4.92,0,8.07-2.21,9.45-6.62h5.73c-.97,3.59-2.76,6.43-5.38,8.52-2.62,2.09-5.93,3.14-9.94,3.14-4.92,0-8.9-1.68-11.94-5.04-3.08-3.36-4.62-7.89-4.62-13.59s1.52-10.12,4.55-13.52c2.99-3.4,6.95-5.11,11.87-5.11s9.11,1.77,12.01,5.31c2.9,3.54,4.35,7.98,4.35,13.32ZM1551.53,448.14c-2.9,0-5.27.91-7.11,2.72-1.84,1.82-2.99,4.43-3.45,7.83h20.98c-.28-3.13-1.33-5.67-3.17-7.62-1.84-1.95-4.26-2.93-7.25-2.93Z"/>
      <path class="uuid-85a80396-6c85-4b02-b7aa-70bf487e46d4" d="M1586.66,480.36c-9.52,0-14.56-4.05-15.11-12.14h5.59c.32,2.67,1.21,4.57,2.66,5.69,1.45,1.13,3.74,1.69,6.87,1.69,5.7,0,8.56-1.84,8.56-5.52,0-1.61-.59-2.83-1.76-3.66-1.17-.83-3.3-1.54-6.38-2.14l-3.31-.62c-7.41-1.38-11.11-4.88-11.11-10.49,0-3.08,1.16-5.53,3.48-7.35,2.32-1.82,5.49-2.73,9.49-2.73,9.43,0,14.26,3.93,14.49,11.8h-5.52c-.14-2.58-.92-4.39-2.35-5.45-1.43-1.06-3.63-1.59-6.62-1.59-2.39,0-4.23.46-5.52,1.38-1.29.92-1.93,2.21-1.93,3.86,0,1.56.55,2.74,1.66,3.52,1.1.78,2.94,1.45,5.52,2l3.17.62c4.37.87,7.51,2.12,9.42,3.73,1.91,1.61,2.86,3.86,2.86,6.76,0,3.36-1.25,5.97-3.76,7.83-2.51,1.86-5.97,2.79-10.38,2.79Z"/>
      <path class="uuid-85a80396-6c85-4b02-b7aa-70bf487e46d4" d="M1611.98,438.54h-5.87v-6.76h5.87v6.76ZM1611.84,479.53h-5.52v-35.6h5.52v35.6Z"/>
      <path class="uuid-85a80396-6c85-4b02-b7aa-70bf487e46d4" d="M1647.17,449.1v-5.17h5.24v34.22c0,4.88-1.43,8.72-4.28,11.52-2.85,2.81-6.95,4.21-12.28,4.21-4.42,0-7.96-1.01-10.63-3.04-2.67-2.03-4.19-4.83-4.55-8.42h5.52c.69,4.51,3.91,6.76,9.66,6.76,7.36,0,11.04-3.68,11.04-11.04v-3.45c-2.81,3.77-6.79,5.66-11.94,5.66s-9.02-1.7-12.01-5.11c-3.04-3.4-4.55-7.91-4.55-13.52s1.52-10.24,4.55-13.59c2.94-3.36,6.95-5.04,12.01-5.04s9.36,2,12.21,6ZM1635.64,475.39c3.5,0,6.28-1.22,8.35-3.66,2.07-2.44,3.11-5.77,3.11-10s-1.04-7.57-3.11-10c-2.07-2.44-4.85-3.66-8.35-3.66s-6.22,1.24-8.31,3.73c-2.09,2.48-3.14,5.8-3.14,9.94s1.05,7.45,3.14,9.94c2.09,2.48,4.86,3.73,8.31,3.73Z"/>
      <path class="uuid-85a80396-6c85-4b02-b7aa-70bf487e46d4" d="M1677.11,443.1c3.96,0,7.04,1.08,9.25,3.24,2.21,2.16,3.31,5.2,3.31,9.11v24.08h-5.52v-23.53c0-5.29-2.71-7.93-8.14-7.93-2.58,0-4.85.97-6.83,2.9-1.98,1.93-2.97,4.74-2.97,8.42v20.15h-5.52v-35.6h5.24v5.31c2.71-4.09,6.44-6.14,11.18-6.14Z"/>
      <path class="uuid-85a80396-6c85-4b02-b7aa-70bf487e46d4" d="M1729,461.73v1.93h-27.05c.28,3.86,1.36,6.77,3.24,8.73,1.89,1.96,4.46,2.93,7.73,2.93,4.92,0,8.07-2.21,9.45-6.62h5.73c-.97,3.59-2.76,6.43-5.38,8.52-2.62,2.09-5.93,3.14-9.94,3.14-4.92,0-8.9-1.68-11.94-5.04-3.08-3.36-4.62-7.89-4.62-13.59s1.52-10.12,4.55-13.52c2.99-3.4,6.95-5.11,11.87-5.11s9.11,1.77,12.01,5.31c2.9,3.54,4.35,7.98,4.35,13.32ZM1712.65,448.14c-2.9,0-5.27.91-7.11,2.72-1.84,1.82-2.99,4.43-3.45,7.83h20.98c-.28-3.13-1.33-5.67-3.17-7.62-1.84-1.95-4.26-2.93-7.25-2.93Z"/>
      <path class="uuid-85a80396-6c85-4b02-b7aa-70bf487e46d4" d="M1762.33,449.03v-18.63h5.52v49.13h-5.24v-5.52c-2.85,4.23-6.92,6.35-12.21,6.35-5.01,0-9.02-1.7-12.01-5.11-3.04-3.4-4.55-7.91-4.55-13.52s1.52-10.24,4.55-13.59c2.94-3.36,6.95-5.04,12.01-5.04s9.08,1.98,11.94,5.93ZM1742.73,471.87c2.07,2.35,4.85,3.52,8.35,3.52s6.28-1.22,8.35-3.66c2.07-2.39,3.11-5.73,3.11-10s-1.04-7.57-3.11-10c-2.07-2.44-4.85-3.66-8.35-3.66s-6.22,1.25-8.31,3.76c-2.09,2.51-3.14,5.9-3.14,10.18s1.04,7.52,3.11,9.87Z"/>
    </g>
    <g class="uuid-d94a3de1-3578-4b3e-bd94-2feef3823ec8">
      <path class="uuid-85a80396-6c85-4b02-b7aa-70bf487e46d4" d="M186.25,513.93v4.83h-7.31v23.12c0,2.02,1.36,3.04,4.07,3.04h3.24v4.62c-1.52.14-2.83.21-3.93.21-5.93,0-8.9-2.46-8.9-7.38v-23.6h-5.86v-4.83h5.86v-10.07h5.52v10.07h7.31Z"/>
      <path class="uuid-85a80396-6c85-4b02-b7aa-70bf487e46d4" d="M219.37,545.25c-3.27,3.41-7.41,5.11-12.42,5.11s-9.15-1.7-12.42-5.11c-3.22-3.36-4.83-7.87-4.83-13.52s1.61-10.17,4.83-13.52c3.27-3.4,7.41-5.11,12.42-5.11s9.15,1.7,12.42,5.11c3.22,3.36,4.83,7.87,4.83,13.52s-1.61,10.17-4.83,13.52ZM198.6,541.73c2.07,2.44,4.85,3.66,8.35,3.66s6.28-1.22,8.35-3.66c2.07-2.39,3.1-5.73,3.1-10s-1.04-7.68-3.1-10.07c-2.07-2.39-4.85-3.59-8.35-3.59s-6.28,1.2-8.35,3.59c-2.07,2.39-3.1,5.75-3.1,10.07s1.04,7.61,3.1,10Z"/>
      <path class="uuid-85a80396-6c85-4b02-b7aa-70bf487e46d4" d="M272.98,545.05h2v4.49c-.92.14-1.93.21-3.04.21-3.73,0-5.73-1.7-6-5.11-2.48,3.82-6.35,5.73-11.59,5.73-3.91,0-6.98-.91-9.21-2.73-2.23-1.82-3.35-4.38-3.35-7.69,0-6.44,4.39-10.12,13.18-11.04l5.11-.55c3.73-.41,5.59-2.05,5.59-4.9,0-1.98-.61-3.4-1.83-4.28-1.22-.87-3.28-1.31-6.18-1.31-3.08,0-5.3.52-6.66,1.55-1.36,1.03-2.13,2.86-2.31,5.49h-5.52c.46-7.87,5.29-11.8,14.49-11.8s13.39,3.45,13.39,10.35v19.87c0,1.15.64,1.72,1.93,1.72ZM254.63,545.67c2.94,0,5.52-.9,7.73-2.69,2.21-1.75,3.31-4.25,3.31-7.52v-4.21c-1.01.78-2.58,1.29-4.69,1.52l-5.17.62c-2.99.37-5.12,1.06-6.38,2.07-1.27,1.01-1.9,2.46-1.9,4.35s.6,3.28,1.79,4.31c1.2,1.03,2.97,1.55,5.31,1.55Z"/>
      <path class="uuid-85a80396-6c85-4b02-b7aa-70bf487e46d4" d="M306.24,519.03v-18.63h5.52v49.13h-5.24v-5.52c-2.85,4.23-6.92,6.35-12.21,6.35-5.01,0-9.02-1.7-12.01-5.11-3.04-3.4-4.55-7.91-4.55-13.52s1.52-10.24,4.55-13.59c2.94-3.36,6.94-5.04,12.01-5.04s9.08,1.98,11.94,5.93ZM286.64,541.87c2.07,2.35,4.85,3.52,8.35,3.52s6.28-1.22,8.35-3.66c2.07-2.39,3.1-5.73,3.1-10s-1.04-7.57-3.1-10c-2.07-2.44-4.85-3.66-8.35-3.66s-6.22,1.25-8.31,3.76c-2.09,2.51-3.14,5.9-3.14,10.18s1.04,7.52,3.1,9.87Z"/>
      <path class="uuid-85a80396-6c85-4b02-b7aa-70bf487e46d4" d="M349.16,545.05h2v4.49c-.92.14-1.93.21-3.04.21-3.73,0-5.73-1.7-6-5.11-2.48,3.82-6.35,5.73-11.59,5.73-3.91,0-6.98-.91-9.21-2.73-2.23-1.82-3.35-4.38-3.35-7.69,0-6.44,4.39-10.12,13.18-11.04l5.11-.55c3.73-.41,5.59-2.05,5.59-4.9,0-1.98-.61-3.4-1.83-4.28-1.22-.87-3.28-1.31-6.18-1.31-3.08,0-5.3.52-6.66,1.55-1.36,1.03-2.13,2.86-2.31,5.49h-5.52c.46-7.87,5.29-11.8,14.49-11.8s13.39,3.45,13.39,10.35v19.87c0,1.15.64,1.72,1.93,1.72ZM330.8,545.67c2.94,0,5.52-.9,7.73-2.69,2.21-1.75,3.31-4.25,3.31-7.52v-4.21c-1.01.78-2.58,1.29-4.69,1.52l-5.17.62c-2.99.37-5.12,1.06-6.38,2.07-1.27,1.01-1.9,2.46-1.9,4.35s.6,3.28,1.79,4.31c1.2,1.03,2.97,1.55,5.31,1.55Z"/>
      <path class="uuid-85a80396-6c85-4b02-b7aa-70bf487e46d4" d="M373.44,513.1c5.01,0,9.04,1.68,12.07,5.04,2.99,3.4,4.49,7.93,4.49,13.59s-1.5,10.12-4.49,13.52c-3.04,3.41-7.06,5.11-12.07,5.11s-9.09-1.98-11.94-5.93v18.63h-5.52v-49.13h5.24v5.52c2.85-4.23,6.92-6.35,12.21-6.35ZM372.75,545.39c3.45,0,6.22-1.25,8.31-3.76,2.09-2.51,3.14-5.9,3.14-10.18s-1.02-7.46-3.07-9.83c-2.05-2.37-4.84-3.55-8.38-3.55s-6.28,1.2-8.35,3.59c-2.07,2.39-3.1,5.75-3.1,10.07s1.03,7.61,3.1,10c2.07,2.44,4.85,3.66,8.35,3.66Z"/>
      <path class="uuid-85a80396-6c85-4b02-b7aa-70bf487e46d4" d="M410.08,513.93v4.83h-7.31v23.12c0,2.02,1.36,3.04,4.07,3.04h3.24v4.62c-1.52.14-2.83.21-3.93.21-5.93,0-8.9-2.46-8.9-7.38v-23.6h-5.86v-4.83h5.86v-10.07h5.52v10.07h7.31Z"/>
      <path class="uuid-85a80396-6c85-4b02-b7aa-70bf487e46d4" d="M444.65,513.93v4.83h-7.31v23.12c0,2.02,1.36,3.04,4.07,3.04h3.24v4.62c-1.52.14-2.83.21-3.93.21-5.93,0-8.9-2.46-8.9-7.38v-23.6h-5.86v-4.83h5.86v-10.07h5.52v10.07h7.31Z"/>
      <path class="uuid-85a80396-6c85-4b02-b7aa-70bf487e46d4" d="M477.77,545.25c-3.27,3.41-7.41,5.11-12.42,5.11s-9.15-1.7-12.42-5.11c-3.22-3.36-4.83-7.87-4.83-13.52s1.61-10.17,4.83-13.52c3.27-3.4,7.41-5.11,12.42-5.11s9.15,1.7,12.42,5.11c3.22,3.36,4.83,7.87,4.83,13.52s-1.61,10.17-4.83,13.52ZM457,541.73c2.07,2.44,4.85,3.66,8.35,3.66s6.28-1.22,8.35-3.66c2.07-2.39,3.1-5.73,3.1-10s-1.04-7.68-3.1-10.07c-2.07-2.39-4.85-3.59-8.35-3.59s-6.28,1.2-8.35,3.59c-2.07,2.39-3.1,5.75-3.1,10.07s1.04,7.61,3.1,10Z"/>
      <path class="uuid-85a80396-6c85-4b02-b7aa-70bf487e46d4" d="M517.86,513.93v4.83h-7.31v23.12c0,2.02,1.36,3.04,4.07,3.04h3.24v4.62c-1.52.14-2.83.21-3.93.21-5.93,0-8.9-2.46-8.9-7.38v-23.6h-5.86v-4.83h5.86v-10.07h5.52v10.07h7.31Z"/>
      <path class="uuid-85a80396-6c85-4b02-b7aa-70bf487e46d4" d="M540.14,513.1c3.96,0,7.04,1.08,9.25,3.24,2.21,2.16,3.31,5.2,3.31,9.11v24.08h-5.52v-23.53c0-5.29-2.71-7.93-8.14-7.93-2.58,0-4.85.97-6.83,2.9-1.98,1.93-2.97,4.74-2.97,8.42v20.15h-5.52v-49.13h5.52v18.42c2.71-3.82,6.35-5.73,10.9-5.73Z"/>
      <path class="uuid-85a80396-6c85-4b02-b7aa-70bf487e46d4" d="M592.03,531.73v1.93h-27.05c.28,3.86,1.36,6.77,3.24,8.73,1.89,1.96,4.46,2.93,7.73,2.93,4.92,0,8.07-2.21,9.45-6.62h5.73c-.97,3.59-2.76,6.43-5.38,8.52-2.62,2.09-5.93,3.14-9.94,3.14-4.92,0-8.9-1.68-11.94-5.04-3.08-3.36-4.62-7.89-4.62-13.59s1.52-10.12,4.55-13.52c2.99-3.4,6.94-5.11,11.87-5.11s9.11,1.77,12.01,5.31c2.9,3.54,4.35,7.98,4.35,13.32ZM575.68,518.14c-2.9,0-5.27.91-7.11,2.72-1.84,1.82-2.99,4.43-3.45,7.83h20.98c-.28-3.13-1.33-5.67-3.17-7.62-1.84-1.95-4.26-2.93-7.25-2.93Z"/>
      <path class="uuid-85a80396-6c85-4b02-b7aa-70bf487e46d4" d="M628.12,513.1c3.96,0,7.04,1.08,9.25,3.24,2.21,2.16,3.31,5.2,3.31,9.11v24.08h-5.52v-23.53c0-5.29-2.71-7.93-8.14-7.93-2.58,0-4.85.97-6.83,2.9-1.98,1.93-2.97,4.74-2.97,8.42v20.15h-5.52v-35.6h5.24v5.31c2.71-4.09,6.44-6.14,11.18-6.14Z"/>
      <path class="uuid-85a80396-6c85-4b02-b7aa-70bf487e46d4" d="M680,531.73v1.93h-27.05c.28,3.86,1.36,6.77,3.24,8.73,1.89,1.96,4.46,2.93,7.73,2.93,4.92,0,8.07-2.21,9.45-6.62h5.73c-.97,3.59-2.76,6.43-5.38,8.52-2.62,2.09-5.93,3.14-9.94,3.14-4.92,0-8.9-1.68-11.94-5.04-3.08-3.36-4.62-7.89-4.62-13.59s1.52-10.12,4.55-13.52c2.99-3.4,6.94-5.11,11.87-5.11s9.11,1.77,12.01,5.31c2.9,3.54,4.35,7.98,4.35,13.32ZM663.65,518.14c-2.9,0-5.27.91-7.11,2.72-1.84,1.82-2.99,4.43-3.45,7.83h20.98c-.28-3.13-1.33-5.67-3.17-7.62-1.84-1.95-4.26-2.93-7.25-2.93Z"/>
      <path class="uuid-85a80396-6c85-4b02-b7aa-70bf487e46d4" d="M717.61,531.73v1.93h-27.05c.28,3.86,1.36,6.77,3.24,8.73,1.89,1.96,4.46,2.93,7.73,2.93,4.92,0,8.07-2.21,9.45-6.62h5.73c-.97,3.59-2.76,6.43-5.38,8.52-2.62,2.09-5.93,3.14-9.94,3.14-4.92,0-8.9-1.68-11.94-5.04-3.08-3.36-4.62-7.89-4.62-13.59s1.52-10.12,4.55-13.52c2.99-3.4,6.94-5.11,11.87-5.11s9.11,1.77,12.01,5.31c2.9,3.54,4.35,7.98,4.35,13.32ZM701.26,518.14c-2.9,0-5.27.91-7.11,2.72-1.84,1.82-2.99,4.43-3.45,7.83h20.98c-.28-3.13-1.33-5.67-3.17-7.62-1.84-1.95-4.26-2.93-7.25-2.93Z"/>
      <path class="uuid-85a80396-6c85-4b02-b7aa-70bf487e46d4" d="M750.94,519.03v-18.63h5.52v49.13h-5.24v-5.52c-2.85,4.23-6.92,6.35-12.21,6.35-5.01,0-9.02-1.7-12.01-5.11-3.04-3.4-4.55-7.91-4.55-13.52s1.52-10.24,4.55-13.59c2.94-3.36,6.94-5.04,12.01-5.04s9.08,1.98,11.94,5.93ZM731.34,541.87c2.07,2.35,4.85,3.52,8.35,3.52s6.28-1.22,8.35-3.66c2.07-2.39,3.1-5.73,3.1-10s-1.04-7.57-3.1-10c-2.07-2.44-4.85-3.66-8.35-3.66s-6.22,1.25-8.31,3.76c-2.09,2.51-3.14,5.9-3.14,10.18s1.04,7.52,3.1,9.87Z"/>
      <path class="uuid-85a80396-6c85-4b02-b7aa-70bf487e46d4" d="M777.29,550.36c-9.52,0-14.56-4.05-15.11-12.14h5.59c.32,2.67,1.21,4.57,2.66,5.69s3.74,1.69,6.87,1.69c5.7,0,8.56-1.84,8.56-5.52,0-1.61-.59-2.83-1.76-3.66-1.17-.83-3.3-1.54-6.38-2.14l-3.31-.62c-7.41-1.38-11.11-4.88-11.11-10.49,0-3.08,1.16-5.53,3.48-7.35,2.32-1.82,5.49-2.73,9.49-2.73,9.43,0,14.26,3.93,14.49,11.8h-5.52c-.14-2.58-.92-4.39-2.35-5.45-1.43-1.06-3.63-1.59-6.62-1.59-2.39,0-4.23.46-5.52,1.38-1.29.92-1.93,2.21-1.93,3.86,0,1.56.55,2.74,1.66,3.52,1.1.78,2.94,1.45,5.52,2l3.17.62c4.37.87,7.51,2.12,9.42,3.73,1.91,1.61,2.86,3.86,2.86,6.76,0,3.36-1.25,5.97-3.76,7.83-2.51,1.86-5.97,2.79-10.38,2.79Z"/>
      <path class="uuid-85a80396-6c85-4b02-b7aa-70bf487e46d4" d="M838.01,545.25c-3.27,3.41-7.41,5.11-12.42,5.11s-9.15-1.7-12.42-5.11c-3.22-3.36-4.83-7.87-4.83-13.52s1.61-10.17,4.83-13.52c3.27-3.4,7.41-5.11,12.42-5.11s9.15,1.7,12.42,5.11c3.22,3.36,4.83,7.87,4.83,13.52s-1.61,10.17-4.83,13.52ZM817.24,541.73c2.07,2.44,4.85,3.66,8.35,3.66s6.28-1.22,8.35-3.66c2.07-2.39,3.1-5.73,3.1-10s-1.04-7.68-3.1-10.07c-2.07-2.39-4.85-3.59-8.35-3.59s-6.28,1.2-8.35,3.59c-2.07,2.39-3.1,5.75-3.1,10.07s1.04,7.61,3.1,10Z"/>
      <path class="uuid-85a80396-6c85-4b02-b7aa-70bf487e46d4" d="M864.23,505.1h-3.17c-3.17,0-4.76,1.68-4.76,5.04v3.8h7.59v4.83h-7.59v30.77h-5.52v-30.77h-5.86v-4.83h5.86v-3.66c0-6.67,3.31-10,9.94-10,.87,0,2.05.05,3.52.14v4.69Z"/>
      <path class="uuid-85a80396-6c85-4b02-b7aa-70bf487e46d4" d="M898.8,513.93v4.83h-7.31v23.12c0,2.02,1.36,3.04,4.07,3.04h3.24v4.62c-1.52.14-2.83.21-3.93.21-5.93,0-8.9-2.46-8.9-7.38v-23.6h-5.86v-4.83h5.86v-10.07h5.52v10.07h7.31Z"/>
      <path class="uuid-85a80396-6c85-4b02-b7aa-70bf487e46d4" d="M921.09,513.1c3.96,0,7.04,1.08,9.25,3.24,2.21,2.16,3.31,5.2,3.31,9.11v24.08h-5.52v-23.53c0-5.29-2.71-7.93-8.14-7.93-2.58,0-4.85.97-6.83,2.9-1.98,1.93-2.97,4.74-2.97,8.42v20.15h-5.52v-49.13h5.52v18.42c2.71-3.82,6.35-5.73,10.9-5.73Z"/>
      <path class="uuid-85a80396-6c85-4b02-b7aa-70bf487e46d4" d="M972.97,531.73v1.93h-27.05c.28,3.86,1.36,6.77,3.24,8.73,1.89,1.96,4.46,2.93,7.73,2.93,4.92,0,8.07-2.21,9.45-6.62h5.73c-.97,3.59-2.76,6.43-5.38,8.52-2.62,2.09-5.93,3.14-9.94,3.14-4.92,0-8.9-1.68-11.94-5.04-3.08-3.36-4.62-7.89-4.62-13.59s1.52-10.12,4.55-13.52c2.99-3.4,6.94-5.11,11.87-5.11s9.11,1.77,12.01,5.31c2.9,3.54,4.35,7.98,4.35,13.32ZM956.62,518.14c-2.9,0-5.27.91-7.11,2.72-1.84,1.82-2.99,4.43-3.45,7.83h20.98c-.28-3.13-1.33-5.67-3.17-7.62-1.84-1.95-4.26-2.93-7.25-2.93Z"/>
      <path class="uuid-85a80396-6c85-4b02-b7aa-70bf487e46d4" d="M1030.11,513.1c3.86,0,6.87,1.12,9,3.35,2.14,2.23,3.21,5.21,3.21,8.94v24.15h-5.52v-23.6c0-5.24-2.48-7.87-7.45-7.87-2.62,0-4.8,1.05-6.52,3.14-1.72,2.09-2.59,5.05-2.59,8.87v19.46h-5.52v-23.6c0-5.24-2.48-7.87-7.45-7.87-2.58,0-4.74,1.05-6.49,3.14-1.75,2.09-2.62,5.05-2.62,8.87v19.46h-5.52v-35.6h5.24v5.24c2.35-4.05,5.77-6.07,10.28-6.07,5.33,0,8.99,2.23,10.97,6.69,2.48-4.46,6.14-6.69,10.97-6.69Z"/>
      <path class="uuid-85a80396-6c85-4b02-b7aa-70bf487e46d4" d="M1078.54,545.25c-3.27,3.41-7.41,5.11-12.42,5.11s-9.15-1.7-12.42-5.11c-3.22-3.36-4.83-7.87-4.83-13.52s1.61-10.17,4.83-13.52c3.27-3.4,7.41-5.11,12.42-5.11s9.15,1.7,12.42,5.11c3.22,3.36,4.83,7.87,4.83,13.52s-1.61,10.17-4.83,13.52ZM1057.77,541.73c2.07,2.44,4.85,3.66,8.35,3.66s6.28-1.22,8.35-3.66c2.07-2.39,3.11-5.73,3.11-10s-1.04-7.68-3.11-10.07c-2.07-2.39-4.85-3.59-8.35-3.59s-6.28,1.2-8.35,3.59c-2.07,2.39-3.1,5.75-3.1,10.07s1.04,7.61,3.1,10Z"/>
      <path class="uuid-85a80396-6c85-4b02-b7aa-70bf487e46d4" d="M1116.7,519.03v-18.63h5.52v49.13h-5.24v-5.52c-2.85,4.23-6.92,6.35-12.21,6.35-5.01,0-9.02-1.7-12.01-5.11-3.04-3.4-4.55-7.91-4.55-13.52s1.52-10.24,4.55-13.59c2.94-3.36,6.94-5.04,12.01-5.04s9.08,1.98,11.94,5.93ZM1097.1,541.87c2.07,2.35,4.85,3.52,8.35,3.52s6.28-1.22,8.35-3.66c2.07-2.39,3.1-5.73,3.1-10s-1.04-7.57-3.1-10c-2.07-2.44-4.85-3.66-8.35-3.66s-6.22,1.25-8.31,3.76c-2.09,2.51-3.14,5.9-3.14,10.18s1.04,7.52,3.11,9.87Z"/>
      <path class="uuid-85a80396-6c85-4b02-b7aa-70bf487e46d4" d="M1161.55,531.73v1.93h-27.05c.28,3.86,1.36,6.77,3.24,8.73,1.89,1.96,4.46,2.93,7.73,2.93,4.92,0,8.07-2.21,9.45-6.62h5.73c-.97,3.59-2.76,6.43-5.38,8.52-2.62,2.09-5.93,3.14-9.94,3.14-4.92,0-8.9-1.68-11.94-5.04-3.08-3.36-4.62-7.89-4.62-13.59s1.52-10.12,4.55-13.52c2.99-3.4,6.95-5.11,11.87-5.11s9.11,1.77,12.01,5.31c2.9,3.54,4.35,7.98,4.35,13.32ZM1145.2,518.14c-2.9,0-5.27.91-7.11,2.72-1.84,1.82-2.99,4.43-3.45,7.83h20.98c-.28-3.13-1.33-5.67-3.17-7.62-1.84-1.95-4.26-2.93-7.25-2.93Z"/>
      <path class="uuid-85a80396-6c85-4b02-b7aa-70bf487e46d4" d="M1184.8,513.38c.92,0,1.54.02,1.86.07v5.31h-1.38c-3.68,0-6.54.91-8.59,2.73-2.05,1.82-3.07,4.41-3.07,7.76v20.29h-5.52v-35.6h5.24v6.28c2.39-4.55,6.21-6.83,11.45-6.83Z"/>
      <path class="uuid-85a80396-6c85-4b02-b7aa-70bf487e46d4" d="M1208.26,513.1c3.96,0,7.04,1.08,9.25,3.24,2.21,2.16,3.31,5.2,3.31,9.11v24.08h-5.52v-23.53c0-5.29-2.71-7.93-8.14-7.93-2.58,0-4.85.97-6.83,2.9-1.98,1.93-2.97,4.74-2.97,8.42v20.15h-5.52v-35.6h5.24v5.31c2.71-4.09,6.44-6.14,11.18-6.14Z"/>
      <path class="uuid-85a80396-6c85-4b02-b7aa-70bf487e46d4" d="M1269.26,519.1v-5.17h5.24v34.22c0,4.88-1.43,8.72-4.28,11.52-2.85,2.81-6.95,4.21-12.28,4.21-4.42,0-7.96-1.01-10.63-3.04-2.67-2.03-4.19-4.83-4.55-8.42h5.52c.69,4.51,3.91,6.76,9.66,6.76,7.36,0,11.04-3.68,11.04-11.04v-3.45c-2.81,3.77-6.79,5.66-11.94,5.66s-9.02-1.7-12.01-5.11c-3.04-3.4-4.55-7.91-4.55-13.52s1.52-10.24,4.55-13.59c2.94-3.36,6.95-5.04,12.01-5.04s9.36,2,12.21,6ZM1257.73,545.39c3.5,0,6.28-1.22,8.35-3.66,2.07-2.44,3.11-5.77,3.11-10s-1.04-7.57-3.11-10c-2.07-2.44-4.85-3.66-8.35-3.66s-6.22,1.24-8.31,3.73c-2.09,2.48-3.14,5.8-3.14,9.94s1.05,7.45,3.14,9.94c2.09,2.48,4.86,3.73,8.31,3.73Z"/>
      <path class="uuid-85a80396-6c85-4b02-b7aa-70bf487e46d4" d="M1311.9,545.05h2v4.49c-.92.14-1.93.21-3.04.21-3.73,0-5.73-1.7-6-5.11-2.48,3.82-6.35,5.73-11.59,5.73-3.91,0-6.98-.91-9.21-2.73-2.23-1.82-3.35-4.38-3.35-7.69,0-6.44,4.39-10.12,13.18-11.04l5.11-.55c3.73-.41,5.59-2.05,5.59-4.9,0-1.98-.61-3.4-1.83-4.28-1.22-.87-3.28-1.31-6.17-1.31-3.08,0-5.3.52-6.66,1.55-1.36,1.03-2.13,2.86-2.31,5.49h-5.52c.46-7.87,5.29-11.8,14.49-11.8s13.39,3.45,13.39,10.35v19.87c0,1.15.64,1.72,1.93,1.72ZM1293.54,545.67c2.94,0,5.52-.9,7.73-2.69,2.21-1.75,3.31-4.25,3.31-7.52v-4.21c-1.01.78-2.58,1.29-4.69,1.52l-5.17.62c-2.99.37-5.12,1.06-6.38,2.07-1.27,1.01-1.9,2.46-1.9,4.35s.6,3.28,1.79,4.31c1.2,1.03,2.97,1.55,5.31,1.55Z"/>
      <path class="uuid-85a80396-6c85-4b02-b7aa-70bf487e46d4" d="M1356.2,513.1c3.86,0,6.87,1.12,9,3.35,2.14,2.23,3.21,5.21,3.21,8.94v24.15h-5.52v-23.6c0-5.24-2.48-7.87-7.45-7.87-2.62,0-4.79,1.05-6.52,3.14-1.72,2.09-2.59,5.05-2.59,8.87v19.46h-5.52v-23.6c0-5.24-2.48-7.87-7.45-7.87-2.58,0-4.74,1.05-6.49,3.14-1.75,2.09-2.62,5.05-2.62,8.87v19.46h-5.52v-35.6h5.24v5.24c2.35-4.05,5.77-6.07,10.28-6.07,5.34,0,8.99,2.23,10.97,6.69,2.48-4.46,6.14-6.69,10.97-6.69Z"/>
      <path class="uuid-85a80396-6c85-4b02-b7aa-70bf487e46d4" d="M1407.74,531.73v1.93h-27.05c.28,3.86,1.36,6.77,3.24,8.73,1.89,1.96,4.46,2.93,7.73,2.93,4.92,0,8.07-2.21,9.45-6.62h5.73c-.97,3.59-2.76,6.43-5.38,8.52-2.62,2.09-5.93,3.14-9.94,3.14-4.92,0-8.9-1.68-11.94-5.04-3.08-3.36-4.62-7.89-4.62-13.59s1.52-10.12,4.55-13.52c2.99-3.4,6.95-5.11,11.87-5.11s9.11,1.77,12.01,5.31c2.9,3.54,4.35,7.98,4.35,13.32ZM1391.39,518.14c-2.9,0-5.27.91-7.11,2.72-1.84,1.82-2.99,4.43-3.45,7.83h20.98c-.28-3.13-1.33-5.67-3.17-7.62-1.84-1.95-4.26-2.93-7.25-2.93Z"/>
      <path class="uuid-85a80396-6c85-4b02-b7aa-70bf487e46d4" d="M1430.99,513.38c.92,0,1.54.02,1.86.07v5.31h-1.38c-3.68,0-6.54.91-8.59,2.73-2.05,1.82-3.07,4.41-3.07,7.76v20.29h-5.52v-35.6h5.24v6.28c2.39-4.55,6.21-6.83,11.45-6.83Z"/>
      <path class="uuid-85a80396-6c85-4b02-b7aa-70bf487e46d4" d="M1449.21,550.36c-9.52,0-14.56-4.05-15.11-12.14h5.59c.32,2.67,1.21,4.57,2.66,5.69,1.45,1.13,3.74,1.69,6.87,1.69,5.7,0,8.56-1.84,8.56-5.52,0-1.61-.59-2.83-1.76-3.66-1.17-.83-3.3-1.54-6.38-2.14l-3.31-.62c-7.41-1.38-11.11-4.88-11.11-10.49,0-3.08,1.16-5.53,3.48-7.35,2.32-1.82,5.49-2.73,9.49-2.73,9.43,0,14.26,3.93,14.49,11.8h-5.52c-.14-2.58-.92-4.39-2.35-5.45-1.43-1.06-3.63-1.59-6.62-1.59-2.39,0-4.23.46-5.52,1.38-1.29.92-1.93,2.21-1.93,3.86,0,1.56.55,2.74,1.66,3.52,1.1.78,2.94,1.45,5.52,2l3.17.62c4.37.87,7.51,2.12,9.42,3.73,1.91,1.61,2.86,3.86,2.86,6.76,0,3.36-1.25,5.97-3.76,7.83-2.51,1.86-5.97,2.79-10.38,2.79Z"/>
      <path class="uuid-85a80396-6c85-4b02-b7aa-70bf487e46d4" d="M1474.81,549.53h-6.97v-6.9h6.97v6.9Z"/>
    </g>
  </g>
  <g id="uuid-b0efd296-d52b-45a2-a407-ebed6b8dc238" data-name="Group 811">
    <g class="uuid-f616e999-5cb2-4862-b82e-e5d5197679b2">
      <g id="uuid-57f35211-16b4-4d86-8091-332e548e7c5a" data-name="Group 810">
        <path id="uuid-bc62951e-488d-4e21-8c7b-bf8473a5ab52" data-name="Path 3641" class="uuid-85a80396-6c85-4b02-b7aa-70bf487e46d4" d="M1118.92,770.37c-4.29.05-7.81-3.39-7.86-7.68,0-.06,0-.12,0-.18h-6.95c.15,8.18,6.9,14.68,15.08,14.53,7.96-.15,14.39-6.57,14.53-14.53h-6.95c.05,4.29-3.39,7.8-7.67,7.85-.06,0-.12,0-.18,0M1133.45,738.68v-5.45h-9.62c-1.58-.56-3.24-.85-4.92-.86-8.03.14-14.42,6.77-14.28,14.8.14,8.03,6.77,14.42,14.8,14.28,7.93-.14,14.28-6.61,14.28-14.54.06-2.68-.72-5.32-2.24-7.53l1.98-.69ZM1118.92,754.82c-4.37,0-7.91-3.54-7.91-7.91,0-4.37,3.54-7.91,7.91-7.91,4.37,0,7.9,3.54,7.91,7.91.05,4.32-3.42,7.86-7.74,7.91-.06,0-.11,0-.17,0M1062.64,760.64h6.84v-39.01h-6.84v39.01ZM1086.96,732.37c-8.03.14-14.42,6.77-14.28,14.8.14,8.03,6.77,14.42,14.8,14.28,7.93-.14,14.28-6.61,14.28-14.54.03-8-6.43-14.51-14.43-14.54-.12,0-.25,0-.37,0M1086.96,754.81c-4.37,0-7.91-3.54-7.91-7.91,0-4.37,3.54-7.91,7.91-7.91,4.37,0,7.9,3.54,7.91,7.91.05,4.32-3.42,7.86-7.74,7.91-.06,0-.11,0-.17,0M1136.45,760.64h6.84v-27.42h-6.84v27.42ZM1206.94,739c2.77.09,5.35,1.4,7.06,3.58l4.76-4.7c-2.85-3.53-7.16-5.56-11.7-5.51-8.03-.15-14.66,6.24-14.81,14.27s6.24,14.66,14.27,14.81c.18,0,.36,0,.54,0,4.54.05,8.85-1.97,11.7-5.5l-4.76-4.7c-1.73,2.18-4.33,3.49-7.11,3.58-4.25.03-7.72-3.38-7.75-7.63,0-.09,0-.18,0-.28-.11-4.25,3.24-7.79,7.49-7.9.1,0,.21,0,.31,0M1249.48,730.03c0-.53-.38-.75-.91-.75h-.85v2.46h.32v-.96h.53l.59.96h.37l-.64-1.02c.34-.02.61-.3.59-.65,0-.02,0-.03,0-.05M1248.03,730.45v-.86h.53c.43,0,.59.16.59.43s-.16.42-.59.42h-.53ZM1236.43,732.37c-3.13-.07-6.14,1.2-8.29,3.48v-14.22h-6.84v39.01h6.85v-14.91c0-3.95,2.52-6.68,6.68-6.68,3.9,0,6.04,2.4,6.04,6.68v14.91h6.84v-16.14c0-7.59-4.76-12.13-11.28-12.13M1175.89,732.37c-7.89-.11-14.38,6.19-14.49,14.08,0,.21,0,.42,0,.62,0,8.28,5.72,14.38,14.59,14.38,4.72.09,9.26-1.81,12.51-5.24l-4.6-4.54c-2.24,2.14-4.65,3.69-7.75,3.69-3.56.15-6.72-2.25-7.54-5.72h21.33v-1.66c0-9.35-5.77-15.61-14.06-15.61M1168.46,744.08c.71-3.41,3.79-5.81,7.27-5.67,3.46-.17,6.51,2.26,7.11,5.67h-14.38ZM1248.57,728.15c-1.31-.01-2.39,1.04-2.4,2.35-.01,1.31,1.04,2.39,2.35,2.4,1.31.01,2.39-1.04,2.4-2.35,0-.02,0-.04,0-.05-.02-1.29-1.06-2.34-2.35-2.35M1248.57,732.59c-1.14,0-2.06-.92-2.06-2.06s.92-2.06,2.06-2.06,2.06.92,2.06,2.06-.92,2.06-2.06,2.06M1139.81,720.88c-2.49.05-4.48,2.11-4.43,4.6s2.11,4.48,4.6,4.43c2.45-.05,4.42-2.04,4.43-4.49.05-2.46-1.91-4.5-4.37-4.55-.08,0-.15,0-.23,0M1156.75,724.78h-6.84v8.44h-3.69v6.09h3.69v21.33h6.85v-21.33h3.74v-6.09h-3.74v-8.44Z"/>
        <path id="uuid-f6f62734-b433-4033-9293-ab461f35957b" data-name="Path 3642" class="uuid-85a80396-6c85-4b02-b7aa-70bf487e46d4" d="M1275.61,718.77c6.34-6.6,15.09-10.34,24.24-10.34v13.83c-10.76.08-19.43,8.87-19.35,19.63.08,10.65,8.7,19.27,19.35,19.35,0,4.61,0,9.22,0,13.84-8.04,0-15.82-2.9-21.92-8.15-13.91-11.94-15.5-32.89-3.56-46.8.4-.47.81-.92,1.24-1.36M1300.28,735.76h29.81c0,9.97,0,19.93,0,29.89-4.57,0-9.15,0-13.73,0-.01-5.37,0-10.74,0-16.11-5.35,0-10.71,0-16.07,0-.01-4.59,0-9.19,0-13.78"/>
        <path id="uuid-1b516543-122d-4d0d-a0b9-d247f4f4ea99" data-name="Path 3643" class="uuid-a8f413d6-3750-4c6b-a3a1-ca759a8d0b17" d="M898.78,803.16l1.77,1.77,57.77-57.77,57.77,57.77,1.77-1.77-57.77-57.77,57.77-57.77-1.77-1.76-57.77,57.77-57.77-57.77-1.77,1.77,57.77,57.77-57.77,57.76Z"/>
        <path id="uuid-1aa039f9-1553-41d3-88b6-7a6c65f41f9c" data-name="Path 3644" class="uuid-85a80396-6c85-4b02-b7aa-70bf487e46d4" d="M615.71,716.95c-14.26,0-25.82,11.56-25.82,25.82s11.56,25.82,25.82,25.82,25.82-11.56,25.82-25.82c0-14.26-11.56-25.82-25.82-25.82M629.99,756.24c-4.63-1.37-9.45-2.01-14.27-1.92h0c-4.83-.09-9.64.56-14.27,1.92v-26.9h.46s2.39,23.71,13.82,23.71h0c11.43,0,13.82-23.71,13.82-23.71h.46v26.9Z"/>
        <path id="uuid-7d3902ae-8e03-4d57-b7c3-c7ef636f699c" data-name="Path 3645" class="uuid-85a80396-6c85-4b02-b7aa-70bf487e46d4" d="M696.33,744.55h-6.6c0-2.91,1.32-4.49,3.3-4.49,2.11,0,3.3,1.72,3.3,4.49M748.49,746.66l-.13,3.96c-.69,1.16-1.95,1.87-3.3,1.85-1.28.11-2.41-.84-2.52-2.13-.01-.17-.01-.34.01-.51-.09-.86.26-1.7.92-2.24.66-.66,1.98-1.06,4.23-1.06.25.11.52.15.79.13M835.64,744.55h-6.47c.13-2.91,1.19-4.49,3.3-4.49,1.98,0,3.17,1.72,3.17,4.49M682.86,754.58v-22.84h-3.7v9.24h-8.58v-9.24h-3.7v22.97h3.7v-10.7h8.58v10.7h3.7v-.13ZM700.16,747.06v-.66c0-3.7-.79-5.81-2.11-7.13-1.28-1.22-2.99-1.89-4.76-1.85-2.01-.07-3.94.75-5.28,2.24-1.5,1.81-2.25,4.12-2.11,6.47,0,5.41,3.04,8.85,7.92,8.85,2.27.02,4.47-.77,6.2-2.24l-1.45-2.11c-1.22,1.02-2.76,1.58-4.36,1.58-1.44.05-2.81-.59-3.7-1.72-.51-.97-.74-2.07-.66-3.17v-.26h10.3ZM712.18,737.68c-.46-.18-.96-.26-1.45-.26-1.85,0-3.17,1.06-4.36,2.64v-.26c.02-.8-.21-1.59-.66-2.25l-3.43.92c.43,1.37.61,2.8.53,4.23v12.01h3.7v-11.22c.05-.75.44-1.43,1.06-1.85.6-.57,1.42-.85,2.25-.79.36.03.72.11,1.06.26l1.32-3.43ZM735.68,754.58v-12.28c0-1.85-.4-3.04-1.32-3.83-.9-.72-2.02-1.09-3.17-1.06-2.03.08-3.94.98-5.28,2.51-.75-1.57-2.36-2.56-4.1-2.51-1.75.11-3.39.87-4.62,2.11-.12-.73-.34-1.44-.65-2.11l-3.3.79c.53,1.06.66,1.72.66,4.1v12.14h3.57v-12.41c1-.98,2.31-1.59,3.7-1.72,1.45,0,1.98.79,1.98,2.64v11.49h3.56v-12.15c1.45-1.45,2.77-2.11,3.83-2.11,1.32,0,1.85.66,1.85,2.38v11.75h3.3v.26ZM753.5,753c-1.19-.79-1.59-1.45-1.59-3.44v-.53l.14-5.02v-1.05c.03-.97-.06-1.95-.27-2.9-.66-1.85-2.51-2.77-5.15-2.77-1.59-.01-3.16.3-4.62.92-.95.38-1.88.83-2.77,1.32l1.59,2.5c.64-.5,1.35-.9,2.11-1.19.99-.48,2.07-.75,3.17-.79.75-.1,1.51.2,1.98.79.44.66.63,1.46.53,2.25v1.19h-1.19c-5.68,0-8.71,1.98-8.71,5.94-.07,1.32.4,2.61,1.31,3.56,1.22,1,2.79,1.48,4.36,1.32,1.31.01,2.6-.35,3.7-1.06.38-.32.74-.67,1.06-1.06.44,1.05,1.3,1.87,2.38,2.24l1.98-2.25ZM769.75,754.58v-12.41c0-3.17-1.85-4.62-4.62-4.62-1.85,0-3.3.66-5.28,2.24-.02-.79-.24-1.57-.66-2.24l-3.3.92c.53,1.19.53,1.98.53,3.96v12.41h3.57v-12.15c1.04-1.12,2.44-1.82,3.96-1.98,1.45,0,1.98.66,1.98,3.04v11.09h3.83v-.27ZM797.75,754.58l-1.99-22.97h-5.15l-4.62,16.9-4.62-16.77h-5.28l-2.25,22.97h3.43l1.59-19.28,5.41,19.28h2.77l5.41-18.88,1.58,18.88h3.7v-.13ZM805.15,754.58v-17.16l-3.7.53v16.5h3.7v.13ZM815.45,754.58l-.66-2.11h-.4c-.66,0-1.19-.4-1.19-1.59v-15.84c.08-1.59-.01-3.18-.27-4.76l-3.7.8c.31,1.61.45,3.25.4,4.88v15.19c0,2.51,1.45,3.96,3.57,3.96.77-.09,1.52-.26,2.24-.53M805.81,732.93c-.01-1.33-1.1-2.39-2.42-2.38-.03,0-.06,0-.09,0-1.34-.02-2.45,1.04-2.51,2.38.08,1.39,1.26,2.45,2.65,2.37,1.28-.07,2.3-1.09,2.37-2.37ZM823.9,754.58l-.66-2.11c-.41.14-.87.04-1.19-.27-.37-.83-.51-1.74-.4-2.64v-14.52c.08-1.59-.01-3.18-.26-4.76l-3.7.8c.31,1.61.45,3.25.4,4.88v14.53c-.08,1.2.2,2.39.79,3.43.67.83,1.71,1.27,2.77,1.19.76-.12,1.51-.29,2.24-.53h0ZM839.48,747.06v-.66c0-3.7-.79-5.81-2.11-7.13-1.32-1.24-3.08-1.91-4.89-1.85-2-.02-3.91.79-5.28,2.24-1.5,1.81-2.26,4.12-2.11,6.47,0,5.41,3.04,8.85,7.92,8.85,2.27,0,4.46-.79,6.21-2.24l-1.45-2.11c-1.22,1.02-2.77,1.58-4.36,1.58-1.44.05-2.81-.59-3.7-1.72-.56-.96-.83-2.06-.79-3.17v-.26h10.57ZM851.63,737.68c-.46-.18-.96-.27-1.45-.26-1.81.07-3.46,1.06-4.36,2.64v-.26c.02-.8-.21-1.59-.66-2.25l-3.3.92c.43,1.36.61,2.8.53,4.23v12.01h3.7v-11.22c.05-.75.44-1.43,1.05-1.85.61-.57,1.42-.85,2.24-.79.37.03.72.11,1.06.26l1.18-3.43Z"/>
      </g>
    </g>
  </g>
  <g id="uuid-ec2579a1-4575-4edc-afe8-7be3b24e2df5" data-name="Group 813">
    <g class="uuid-6bf0cfef-f056-4e7b-b09d-3d4ac9223595">
      <g id="uuid-31a4773e-e947-4fc8-893d-d57d1c5522d0" data-name="Group 812">
        <g id="uuid-02a19572-4e33-4642-9aee-d3bdefafe677" data-name="UNLEASH YOUR PLAY " class="uuid-d94a3de1-3578-4b3e-bd94-2feef3823ec8">
          <g class="uuid-d94a3de1-3578-4b3e-bd94-2feef3823ec8">
            <path class="uuid-85a80396-6c85-4b02-b7aa-70bf487e46d4" d="M217.23,187.07c0,17.11-7.72,25.66-23.15,25.66s-22.17-8.23-22.17-24.68v-37.25h7.14v36.79c0,12.49,5.27,18.73,15.8,18.73s15.25-6.03,15.25-18.1v-37.42h7.14v36.28Z"/>
            <path class="uuid-85a80396-6c85-4b02-b7aa-70bf487e46d4" d="M279.81,211.71h-8.75l-31.35-48.55c-.79-1.22-1.44-2.49-1.95-3.82h-.25c.23,1.3.34,4.09.34,8.37v44.01h-7.14v-60.92h9.26l30.5,47.79c1.27,1.98,2.1,3.34,2.46,4.08h.17c-.28-1.75-.42-4.74-.42-8.96v-42.91h7.14v60.92Z"/>
            <path class="uuid-85a80396-6c85-4b02-b7aa-70bf487e46d4" d="M325.64,211.71h-31.61v-60.92h7.14v54.46h24.47v6.46Z"/>
            <path class="uuid-85a80396-6c85-4b02-b7aa-70bf487e46d4" d="M365.54,211.71h-32.29v-60.92h30.93v6.46h-23.79v20.26h22v6.42h-22v21.33h25.15v6.46Z"/>
            <path class="uuid-85a80396-6c85-4b02-b7aa-70bf487e46d4" d="M422.67,211.71h-7.9l-6.46-17.08h-25.83l-6.07,17.08h-7.94l23.36-60.92h7.39l23.45,60.92ZM405.98,188.22l-9.56-25.96c-.31-.85-.62-2.21-.93-4.08h-.17c-.28,1.73-.61,3.09-.98,4.08l-9.47,25.96h21.11Z"/>
            <path class="uuid-85a80396-6c85-4b02-b7aa-70bf487e46d4" d="M427.05,209.25v-8.41c.96.85,2.12,1.61,3.46,2.29,1.34.68,2.76,1.25,4.25,1.72,1.49.47,2.98.83,4.48,1.08,1.5.25,2.89.38,4.16.38,4.39,0,7.67-.81,9.83-2.44,2.17-1.63,3.25-3.97,3.25-7.03,0-1.64-.36-3.07-1.08-4.29-.72-1.22-1.72-2.33-3-3.33s-2.78-1.97-4.52-2.89c-1.74-.92-3.62-1.89-5.63-2.91-2.12-1.08-4.11-2.17-5.95-3.27-1.84-1.11-3.44-2.32-4.8-3.65-1.36-1.33-2.43-2.84-3.21-4.52-.78-1.68-1.17-3.66-1.17-5.93,0-2.78.61-5.19,1.83-7.24,1.22-2.05,2.82-3.75,4.8-5.08,1.98-1.33,4.24-2.32,6.78-2.97,2.53-.65,5.12-.98,7.75-.98,6,0,10.38.72,13.13,2.17v8.03c-3.6-2.49-8.21-3.74-13.85-3.74-1.56,0-3.12.16-4.67.49-1.56.33-2.95.86-4.16,1.59-1.22.74-2.21,1.69-2.97,2.85s-1.15,2.58-1.15,4.25c0,1.56.29,2.9.87,4.04s1.44,2.17,2.57,3.1c1.13.93,2.51,1.84,4.14,2.72s3.5,1.84,5.63,2.89c2.18,1.08,4.25,2.21,6.2,3.4s3.67,2.51,5.14,3.95c1.47,1.45,2.64,3.04,3.5,4.8s1.3,3.77,1.3,6.03c0,3-.59,5.54-1.76,7.62-1.18,2.08-2.76,3.77-4.76,5.08-2,1.3-4.3,2.24-6.9,2.82-2.61.58-5.35.87-8.24.87-.96,0-2.15-.08-3.57-.23-1.42-.16-2.86-.38-4.33-.68-1.47-.3-2.87-.67-4.18-1.1-1.32-.44-2.37-.93-3.16-1.47Z"/>
            <path class="uuid-85a80396-6c85-4b02-b7aa-70bf487e46d4" d="M520.17,211.71h-7.14v-27.78h-31.52v27.78h-7.14v-60.92h7.14v26.72h31.52v-26.72h7.14v60.92Z"/>
          </g>
          <g class="uuid-d94a3de1-3578-4b3e-bd94-2feef3823ec8">
            <path class="uuid-85a80396-6c85-4b02-b7aa-70bf487e46d4" d="M212.26,220.8l-20.09,38.4v22.51h-7.14v-22.34l-19.58-38.57h8.11l13.64,27.53c.17.34.67,1.59,1.49,3.74h.13c.28-.96.82-2.21,1.61-3.74l14.27-27.53h7.56Z"/>
            <path class="uuid-85a80396-6c85-4b02-b7aa-70bf487e46d4" d="M240.17,282.73c-8.64,0-15.56-2.85-20.75-8.54-5.2-5.69-7.79-13.1-7.79-22.22,0-9.8,2.65-17.62,7.94-23.45,5.3-5.83,12.5-8.75,21.62-8.75,8.41,0,15.19,2.83,20.33,8.5,5.14,5.66,7.71,13.07,7.71,22.22,0,9.94-2.63,17.8-7.9,23.58s-12.32,8.67-21.16,8.67ZM240.68,226.23c-6.4,0-11.6,2.31-15.59,6.92s-5.99,10.68-5.99,18.18,1.95,13.54,5.84,18.12c3.89,4.57,8.97,6.86,15.23,6.86,6.68,0,11.95-2.18,15.8-6.54,3.85-4.36,5.78-10.46,5.78-18.31s-1.87-14.26-5.61-18.65-8.89-6.58-15.46-6.58Z"/>
            <path class="uuid-85a80396-6c85-4b02-b7aa-70bf487e46d4" d="M324.03,257.07c0,17.11-7.72,25.66-23.15,25.66s-22.17-8.23-22.17-24.68v-37.25h7.14v36.79c0,12.49,5.27,18.73,15.8,18.73s15.25-6.03,15.25-18.1v-37.42h7.14v36.28Z"/>
            <path class="uuid-85a80396-6c85-4b02-b7aa-70bf487e46d4" d="M381.17,281.71h-8.5l-10.2-17.08c-.93-1.59-1.84-2.94-2.72-4.06-.88-1.12-1.78-2.03-2.7-2.74-.92-.71-1.91-1.22-2.97-1.55-1.06-.33-2.26-.49-3.59-.49h-5.86v25.91h-7.14v-60.92h18.18c2.66,0,5.12.33,7.37,1,2.25.67,4.21,1.68,5.86,3.04,1.66,1.36,2.95,3.05,3.89,5.08s1.4,4.4,1.4,7.12c0,2.12-.32,4.07-.96,5.84-.64,1.77-1.54,3.35-2.72,4.74s-2.59,2.57-4.25,3.55c-1.66.98-3.52,1.73-5.59,2.27v.17c1.02.45,1.9.97,2.66,1.55.75.58,1.47,1.27,2.15,2.06.68.79,1.35,1.69,2.02,2.7.67,1,1.41,2.17,2.23,3.5l11.43,18.31ZM344.63,227.25v22.09h9.69c1.78,0,3.43-.27,4.95-.81,1.51-.54,2.82-1.31,3.93-2.31s1.97-2.24,2.59-3.7c.62-1.46.93-3.09.93-4.91,0-3.26-1.06-5.8-3.17-7.62-2.11-1.83-5.16-2.74-9.15-2.74h-9.77Z"/>
            <path class="uuid-85a80396-6c85-4b02-b7aa-70bf487e46d4" d="M417.02,258.69v23.02h-7.14v-60.92h16.74c6.51,0,11.56,1.59,15.14,4.76,3.58,3.17,5.37,7.65,5.37,13.42s-1.99,10.51-5.97,14.19c-3.98,3.68-9.35,5.52-16.12,5.52h-8.03ZM417.02,227.25v24.98h7.48c4.93,0,8.69-1.13,11.28-3.38,2.59-2.25,3.89-5.43,3.89-9.54,0-8.04-4.76-12.06-14.27-12.06h-8.37Z"/>
            <path class="uuid-85a80396-6c85-4b02-b7aa-70bf487e46d4" d="M488.48,281.71h-31.61v-60.92h7.14v54.46h24.47v6.46Z"/>
            <path class="uuid-85a80396-6c85-4b02-b7aa-70bf487e46d4" d="M545.79,281.71h-7.9l-6.46-17.08h-25.83l-6.07,17.08h-7.94l23.36-60.92h7.39l23.45,60.92ZM529.09,258.22l-9.56-25.96c-.31-.85-.62-2.21-.93-4.08h-.17c-.28,1.73-.61,3.09-.98,4.08l-9.47,25.96h21.11Z"/>
            <path class="uuid-85a80396-6c85-4b02-b7aa-70bf487e46d4" d="M586.65,220.8l-20.09,38.4v22.51h-7.14v-22.34l-19.58-38.57h8.11l13.64,27.53c.17.34.67,1.59,1.49,3.74h.13c.28-.96.82-2.21,1.61-3.74l14.27-27.53h7.56Z"/>
          </g>
        </g>
      </g>
    </g>
  </g>
</svg>