<?xml version="1.0" encoding="UTF-8"?>
<svg id="uuid-f1339b9f-e738-4196-b35d-155e0c3b65c2" data-name="uuid-20c08990-9546-4c41-9eaa-611dcfe9732e" xmlns="http://www.w3.org/2000/svg" viewBox="0 0 1920 417.33">
  <defs>
    <style>
      .uuid-ee725a5a-9f07-4e2f-8f1a-44d6784eaf6c {
        isolation: isolate;
      }

      .uuid-6b04b273-d040-4a75-96f0-23c3fe2e3b03 {
        fill: #fff;
        stroke-width: 0px;
      }
    </style>
  </defs>
  <g id="uuid-6343766d-e02b-4610-98b5-0b8868dfd646" data-name="GRAPHIC DESIGN" class="uuid-ee725a5a-9f07-4e2f-8f1a-44d6784eaf6c">
    <g class="uuid-ee725a5a-9f07-4e2f-8f1a-44d6784eaf6c">
      <path class="uuid-6b04b273-d040-4a75-96f0-23c3fe2e3b03" d="M86.6,221.16v-10.09h40.24v48.6h-9.16l-2.39-12.75c-6.99,9.92-17.31,14.87-30.94,14.87s-24.35-4.56-32.4-13.68c-8.23-9.03-12.35-20.94-12.35-35.72s4.07-26.65,12.22-35.85c8.05-9.03,18.94-13.54,32.67-13.54,11.24,0,20.54,3.01,27.89,9.03,7.35,6.02,11.82,14.03,13.41,24.04h-11.55c-1.15-6.99-4.52-12.57-10.09-16.73-5.4-4.07-11.95-6.11-19.65-6.11-10.09,0-18.15,3.54-24.17,10.62-6.02,7.08-9.03,16.6-9.03,28.55s3.01,21.47,9.03,28.55c6.02,7.08,14.08,10.62,24.17,10.62,8.94,0,16.55-2.88,22.84-8.63,6.28-5.75,9.43-13.01,9.43-21.78h-30.14Z"/>
      <path class="uuid-6b04b273-d040-4a75-96f0-23c3fe2e3b03" d="M212.22,232.32l.93,15.27c.44,5.31,1.59,9.34,3.45,12.08h-11.55c-1.95-2.83-2.97-7.04-3.05-12.62l-.4-10.09c-.27-6.37-1.68-10.91-4.25-13.61-2.57-2.7-6.77-4.05-12.62-4.05h-30.81v40.37h-11.15v-94.55h39.97c9.74,0,17.51,2.26,23.31,6.77,5.8,4.52,8.7,10.85,8.7,18.99,0,5.76-1.39,10.6-4.18,14.54-2.79,3.94-6.57,6.71-11.35,8.3,7.97,2.48,12.3,8.68,13.01,18.59ZM153.92,209.21h30.14c5.93,0,10.6-1.53,14.01-4.58,3.41-3.05,5.11-7.41,5.11-13.08s-1.79-9.47-5.38-12.22c-3.59-2.74-8.61-4.12-15.07-4.12h-28.82v34Z"/>
      <path class="uuid-6b04b273-d040-4a75-96f0-23c3fe2e3b03" d="M307.03,259.67h-11.82l-11.02-27.49h-43.02l-10.89,27.49h-11.69l37.71-94.55h12.48l38.24,94.55ZM245.55,221.03l-.4,1.06h35.06l-.53-1.2c-2.21-5.4-7.97-19.96-17.26-43.69-6.29,16.82-11.91,31.43-16.87,43.82Z"/>
      <path class="uuid-6b04b273-d040-4a75-96f0-23c3fe2e3b03" d="M315,165.12h39.31c10,0,17.73,2.61,23.17,7.83,5.44,5.22,8.17,12.31,8.17,21.25s-2.72,16.02-8.17,21.25c-5.44,5.22-13.17,7.83-23.17,7.83h-28.15v36.39h-11.15v-94.55ZM326.16,213.19h28.15c6.55,0,11.49-1.61,14.81-4.85,3.32-3.23,4.98-7.94,4.98-14.14s-1.66-10.91-4.98-14.14c-3.32-3.23-8.26-4.85-14.81-4.85h-28.15v37.98Z"/>
      <path class="uuid-6b04b273-d040-4a75-96f0-23c3fe2e3b03" d="M462,205.76v-40.63h11.15v94.55h-11.15v-43.56h-52.72v43.56h-11.15v-94.55h11.15v40.63h52.72Z"/>
      <path class="uuid-6b04b273-d040-4a75-96f0-23c3fe2e3b03" d="M501.58,259.67h-11.15v-94.55h11.15v94.55Z"/>
      <path class="uuid-6b04b273-d040-4a75-96f0-23c3fe2e3b03" d="M558.54,261.8c-12.84,0-23.33-4.47-31.47-13.41-8.15-8.94-12.22-20.94-12.22-35.99s4.07-27.04,12.22-35.99c8.14-8.94,18.63-13.41,31.47-13.41,10.18,0,18.86,2.77,26.03,8.3,7.17,5.53,11.91,13.61,14.21,24.23h-11.29c-3.98-14.87-13.63-22.31-28.95-22.31-9.65,0-17.4,3.45-23.24,10.36-5.84,6.99-8.76,16.6-8.76,28.82s2.92,21.78,8.76,28.68c5.84,6.99,13.59,10.49,23.24,10.49,7.26,0,13.72-2.26,19.39-6.77,5.58-4.34,8.98-10.84,10.23-19.52h11.15c-1.24,11.78-5.71,20.76-13.41,26.96-7.79,6.37-16.91,9.56-27.36,9.56Z"/>
    </g>
    <g class="uuid-ee725a5a-9f07-4e2f-8f1a-44d6784eaf6c">
      <path class="uuid-6b04b273-d040-4a75-96f0-23c3fe2e3b03" d="M43.57,271.36h31.87c14.34,0,25.67,4.16,34,12.48,8.23,8.32,12.35,19.92,12.35,34.79s-4.12,26.25-12.35,34.66c-8.41,8.41-19.74,12.62-34,12.62h-31.87v-94.55ZM54.73,355.81h20.72c11.15,0,19.72-3.27,25.7-9.83,5.98-6.55,8.96-15.67,8.96-27.36s-2.99-20.8-8.96-27.36c-5.98-6.55-14.54-9.83-25.7-9.83h-20.72v74.36Z"/>
      <path class="uuid-6b04b273-d040-4a75-96f0-23c3fe2e3b03" d="M200.8,271.36v10.09h-54.58v30.14h49.27v10.09h-49.27v34.13h54.05v10.09h-65.2v-94.55h65.73Z"/>
      <path class="uuid-6b04b273-d040-4a75-96f0-23c3fe2e3b03" d="M246.74,368.03c-12.31,0-21.91-2.79-28.82-8.37s-10.4-13.9-10.49-24.96h11.55c.27,15.49,9.52,23.24,27.75,23.24,7.7,0,13.61-1.5,17.73-4.51,4.12-3.01,6.17-7.39,6.17-13.15,0-4.52-1.71-8.03-5.11-10.56-3.41-2.52-9.36-4.71-17.86-6.57l-8.37-1.86c-9.56-2.21-16.73-5.42-21.51-9.63-4.78-4.2-7.17-10.11-7.17-17.73s2.92-13.52,8.76-17.99c5.84-4.47,13.68-6.71,23.5-6.71,6.64,0,12.42.8,17.33,2.39,4.91,1.59,8.74,3.83,11.49,6.71,2.74,2.88,4.76,6,6.04,9.36,1.28,3.37,1.97,7.08,2.06,11.15h-11.42c-.53-6.73-2.72-11.66-6.57-14.81-3.85-3.14-10.16-4.71-18.92-4.71-6.64,0-11.75,1.28-15.34,3.85-3.59,2.57-5.38,6.15-5.38,10.76s1.55,8.19,4.65,10.76c3.01,2.57,8.85,4.83,17.53,6.77l8.37,1.86c10.44,2.3,17.97,5.6,22.57,9.89,4.6,4.29,6.91,9.98,6.91,17.06,0,8.59-3.14,15.36-9.43,20.32-6.29,4.96-14.96,7.44-26.03,7.44Z"/>
      <path class="uuid-6b04b273-d040-4a75-96f0-23c3fe2e3b03" d="M305.31,365.91h-11.15v-94.55h11.15v94.55Z"/>
      <path class="uuid-6b04b273-d040-4a75-96f0-23c3fe2e3b03" d="M365.59,327.4v-10.09h40.24v48.6h-9.16l-2.39-12.75c-6.99,9.92-17.31,14.87-30.94,14.87s-24.35-4.56-32.4-13.68c-8.23-9.03-12.35-20.94-12.35-35.72s4.07-26.65,12.22-35.85c8.05-9.03,18.94-13.54,32.67-13.54,11.24,0,20.54,3.01,27.89,9.03,7.35,6.02,11.82,14.03,13.41,24.04h-11.55c-1.15-6.99-4.52-12.57-10.09-16.73-5.4-4.07-11.95-6.11-19.65-6.11-10.09,0-18.15,3.54-24.17,10.62-6.02,7.08-9.03,16.6-9.03,28.55s3.01,21.47,9.03,28.55c6.02,7.08,14.08,10.62,24.17,10.62,8.94,0,16.55-2.88,22.84-8.63,6.28-5.75,9.43-13.01,9.43-21.78h-30.14Z"/>
      <path class="uuid-6b04b273-d040-4a75-96f0-23c3fe2e3b03" d="M485.9,303.23v-31.87h11.02v94.55h-13.54l-31.34-48.74c-9.03-14.34-15.58-25.01-19.65-32,.27,12.4.4,28.68.4,48.87v31.87h-11.02v-94.55h13.54l31.34,48.74c9.03,14.34,15.58,25.01,19.65,32-.27-12.39-.4-28.68-.4-48.87Z"/>
    </g>
  </g>
</svg>