<?xml version="1.0" encoding="UTF-8"?>
<svg id="uuid-c420c86c-b46b-4de2-bca1-c27c4a64b4af" data-name="uuid-20c08990-9546-4c41-9eaa-611dcfe9732e" xmlns="http://www.w3.org/2000/svg" viewBox="0 0 1920 417.33">
  <defs>
    <style>
      .uuid-b080f4d7-2bb6-427e-9abd-f9f3725e3bad {
        isolation: isolate;
      }

      .uuid-9ff4c02d-60a9-41c5-ba96-de6dd4eddde6 {
        fill: #fff;
        stroke-width: 0px;
      }
    </style>
  </defs>
  <g id="uuid-f75dbfd1-155a-4904-ba46-12de7fcf1b0c" data-name=" 3D BOOTH RENDERING" class="uuid-b080f4d7-2bb6-427e-9abd-f9f3725e3bad">
    <g class="uuid-b080f4d7-2bb6-427e-9abd-f9f3725e3bad">
      <path class="uuid-9ff4c02d-60a9-41c5-ba96-de6dd4eddde6" d="M1214.59,212.7c10.43,5.43,15.64,13.28,15.64,23.53,0,8.5-2.98,15.34-8.94,20.51-5.87,5.26-13.63,7.89-23.27,7.89-10.43,0-18.51-2.72-24.25-8.15-5.74-5.43-8.57-12.84-8.48-22.21h10.91c.17,6.66,2.15,11.72,5.92,15.18,3.77,3.46,9.07,5.19,15.91,5.19,6.31,0,11.33-1.66,15.05-5,3.72-3.33,5.59-7.8,5.59-13.41s-1.91-10.23-5.72-13.6c-3.81-3.37-9-5.06-15.58-5.06h-6.97v-9.2h6.31c6.22,0,11.02-1.4,14.39-4.21,3.37-2.8,5.06-6.7,5.06-11.7s-1.69-8.74-5.06-11.5c-3.38-2.76-7.95-4.14-13.74-4.14s-10.54,1.51-14,4.54c-3.46,3.02-5.32,7.47-5.59,13.34h-11.04c.09-8.5,2.87-15.27,8.35-20.31,5.48-5.04,12.9-7.56,22.28-7.56s16.28,2.26,21.75,6.77c5.48,4.51,8.22,10.71,8.22,18.6,0,8.94-4.25,15.77-12.75,20.51Z"/>
      <path class="uuid-9ff4c02d-60a9-41c5-ba96-de6dd4eddde6" d="M1243.38,168.93h31.55c14.2,0,25.41,4.12,33.65,12.36,8.15,8.24,12.22,19.72,12.22,34.44s-4.08,25.98-12.22,34.31c-8.33,8.33-19.54,12.49-33.65,12.49h-31.55v-93.59ZM1254.42,252.53h20.51c11.04,0,19.52-3.24,25.43-9.73,5.92-6.48,8.87-15.51,8.87-27.08s-2.96-20.59-8.87-27.08c-5.92-6.48-14.39-9.73-25.43-9.73h-20.51v73.61Z"/>
      <path class="uuid-9ff4c02d-60a9-41c5-ba96-de6dd4eddde6" d="M1413.99,213.88c10.78,4.12,16.17,11.57,16.17,22.35,0,8.15-2.65,14.57-7.95,19.26-5.3,4.69-12.77,7.03-22.41,7.03h-40.88v-93.59h38.91c9.02,0,16.04,2.26,21.03,6.77,4.99,4.51,7.49,10.41,7.49,17.68,0,9.38-4.12,16.21-12.36,20.51ZM1397.03,178.92h-27.08v30.89h27.08c6.05,0,10.65-1.4,13.8-4.21,3.15-2.8,4.73-6.75,4.73-11.83,0-4.64-1.6-8.28-4.8-10.91-3.2-2.63-7.78-3.94-13.74-3.94ZM1369.96,252.53h29.31c6.48,0,11.41-1.4,14.79-4.21,3.37-2.8,5.06-6.83,5.06-12.09,0-11.04-6.66-16.56-19.98-16.56h-29.18v32.86Z"/>
      <path class="uuid-9ff4c02d-60a9-41c5-ba96-de6dd4eddde6" d="M1514.81,251.08c-8.24,9.03-19.1,13.54-32.6,13.54s-24.32-4.51-32.47-13.54c-8.24-8.85-12.36-20.64-12.36-35.36s4.12-26.46,12.36-35.49c8.15-8.94,18.97-13.41,32.47-13.41s24.36,4.47,32.6,13.41c8.15,9.12,12.22,20.95,12.22,35.49s-4.08,26.42-12.22,35.36ZM1458.02,243.98c6.05,7.01,14.11,10.52,24.19,10.52s18.14-3.5,24.19-10.52c6.05-6.92,9.07-16.34,9.07-28.26s-3.02-21.34-9.07-28.26c-6.05-7.01-14.11-10.52-24.19-10.52s-18.14,3.51-24.19,10.52c-6.05,6.92-9.07,16.34-9.07,28.26s3.02,21.34,9.07,28.26Z"/>
      <path class="uuid-9ff4c02d-60a9-41c5-ba96-de6dd4eddde6" d="M1613.65,251.08c-8.24,9.03-19.1,13.54-32.6,13.54s-24.32-4.51-32.47-13.54c-8.24-8.85-12.36-20.64-12.36-35.36s4.12-26.46,12.36-35.49c8.15-8.94,18.97-13.41,32.47-13.41s24.36,4.47,32.6,13.41c8.15,9.12,12.22,20.95,12.22,35.49s-4.08,26.42-12.22,35.36ZM1556.87,243.98c6.05,7.01,14.11,10.52,24.19,10.52s18.14-3.5,24.19-10.52c6.05-6.92,9.07-16.34,9.07-28.26s-3.02-21.34-9.07-28.26c-6.05-7.01-14.11-10.52-24.19-10.52s-18.14,3.51-24.19,10.52c-6.05,6.92-9.07,16.34-9.07,28.26s3.02,21.34,9.07,28.26Z"/>
      <path class="uuid-9ff4c02d-60a9-41c5-ba96-de6dd4eddde6" d="M1623.91,168.93h75.06v9.99h-31.81v83.6h-11.44v-83.6h-31.81v-9.99Z"/>
      <path class="uuid-9ff4c02d-60a9-41c5-ba96-de6dd4eddde6" d="M1772.04,209.15v-40.22h11.04v93.59h-11.04v-43.11h-52.18v43.11h-11.04v-93.59h11.04v40.22h52.18Z"/>
    </g>
    <g class="uuid-b080f4d7-2bb6-427e-9abd-f9f3725e3bad">
      <path class="uuid-9ff4c02d-60a9-41c5-ba96-de6dd4eddde6" d="M1236.67,340.6l.92,15.12c.44,5.26,1.58,9.25,3.42,11.96h-11.44c-1.93-2.8-2.94-6.97-3.02-12.49l-.39-9.99c-.26-6.31-1.67-10.8-4.21-13.47-2.54-2.67-6.7-4.01-12.49-4.01h-30.5v39.96h-11.04v-93.59h39.56c9.64,0,17.33,2.23,23.07,6.7,5.74,4.47,8.61,10.74,8.61,18.8,0,5.7-1.38,10.5-4.14,14.39-2.76,3.9-6.51,6.64-11.24,8.22,7.89,2.45,12.18,8.59,12.88,18.4ZM1178.97,317.72h29.84c5.87,0,10.49-1.51,13.87-4.54,3.37-3.02,5.06-7.34,5.06-12.95s-1.78-9.38-5.32-12.09c-3.55-2.71-8.52-4.07-14.92-4.07h-28.52v33.65Z"/>
      <path class="uuid-9ff4c02d-60a9-41c5-ba96-de6dd4eddde6" d="M1317.91,274.08v9.99h-54.02v29.84h48.77v9.99h-48.77v33.78h53.5v9.99h-64.54v-93.59h65.07Z"/>
      <path class="uuid-9ff4c02d-60a9-41c5-ba96-de6dd4eddde6" d="M1393.22,305.63v-31.55h10.91v93.59h-13.41l-31.02-48.24c-8.94-14.2-15.42-24.75-19.45-31.68.26,12.27.39,28.39.39,48.37v31.55h-10.91v-93.59h13.41l31.02,48.24c8.94,14.2,15.42,24.76,19.45,31.68-.26-12.27-.39-28.39-.39-48.37Z"/>
      <path class="uuid-9ff4c02d-60a9-41c5-ba96-de6dd4eddde6" d="M1421.22,274.08h31.55c14.2,0,25.41,4.12,33.65,12.36,8.15,8.24,12.22,19.72,12.22,34.44s-4.07,25.98-12.22,34.31c-8.33,8.33-19.54,12.49-33.65,12.49h-31.55v-93.59ZM1432.26,357.68h20.5c11.04,0,19.52-3.24,25.43-9.73,5.92-6.48,8.87-15.51,8.87-27.08s-2.96-20.59-8.87-27.08c-5.92-6.48-14.39-9.73-25.43-9.73h-20.5v73.61Z"/>
      <path class="uuid-9ff4c02d-60a9-41c5-ba96-de6dd4eddde6" d="M1576.85,274.08v9.99h-54.02v29.84h48.77v9.99h-48.77v33.78h53.5v9.99h-64.54v-93.59h65.07Z"/>
      <path class="uuid-9ff4c02d-60a9-41c5-ba96-de6dd4eddde6" d="M1657.42,340.6l.92,15.12c.44,5.26,1.58,9.25,3.42,11.96h-11.44c-1.93-2.8-2.94-6.97-3.02-12.49l-.39-9.99c-.26-6.31-1.67-10.8-4.21-13.47-2.54-2.67-6.7-4.01-12.49-4.01h-30.5v39.96h-11.04v-93.59h39.57c9.64,0,17.33,2.23,23.07,6.7,5.74,4.47,8.61,10.74,8.61,18.8,0,5.7-1.38,10.5-4.14,14.39-2.76,3.9-6.51,6.64-11.24,8.22,7.89,2.45,12.18,8.59,12.88,18.4ZM1599.72,317.72h29.84c5.87,0,10.49-1.51,13.87-4.54,3.37-3.02,5.06-7.34,5.06-12.95s-1.77-9.38-5.32-12.09c-3.55-2.71-8.52-4.07-14.92-4.07h-28.52v33.65Z"/>
      <path class="uuid-9ff4c02d-60a9-41c5-ba96-de6dd4eddde6" d="M1684.63,367.67h-11.04v-93.59h11.04v93.59Z"/>
      <path class="uuid-9ff4c02d-60a9-41c5-ba96-de6dd4eddde6" d="M1765.21,305.63v-31.55h10.91v93.59h-13.41l-31.02-48.24c-8.94-14.2-15.42-24.75-19.45-31.68.26,12.27.39,28.39.39,48.37v31.55h-10.91v-93.59h13.41l31.02,48.24c8.94,14.2,15.42,24.76,19.45,31.68-.26-12.27-.39-28.39-.39-48.37Z"/>
      <path class="uuid-9ff4c02d-60a9-41c5-ba96-de6dd4eddde6" d="M1835.79,329.55v-9.99h39.83v48.11h-9.07l-2.37-12.62c-6.92,9.82-17.13,14.72-30.63,14.72s-24.1-4.51-32.07-13.54c-8.15-8.94-12.22-20.72-12.22-35.36s4.03-26.38,12.09-35.49c7.97-8.94,18.75-13.41,32.34-13.41,11.13,0,20.33,2.98,27.6,8.94,7.27,5.96,11.7,13.89,13.28,23.79h-11.44c-1.14-6.92-4.47-12.44-9.99-16.56-5.35-4.03-11.83-6.05-19.45-6.05-9.99,0-17.96,3.51-23.92,10.52-5.96,7.01-8.94,16.43-8.94,28.26s2.98,21.25,8.94,28.26c5.96,7.01,13.93,10.52,23.92,10.52,8.85,0,16.39-2.85,22.61-8.54,6.22-5.69,9.33-12.88,9.33-21.56h-29.84Z"/>
    </g>
  </g>
</svg>