<?xml version="1.0" encoding="UTF-8"?>
<svg id="uuid-ca9acaac-5caf-43f0-987f-c15a4ab8d098" data-name="Layer 1" xmlns="http://www.w3.org/2000/svg" xmlns:xlink="http://www.w3.org/1999/xlink" viewBox="0 0 1920 320">
  <defs>
    <style>
      .uuid-6c7974c4-35e0-4d38-a3a2-45a01d954de0 {
        fill: none;
      }

      .uuid-6c7974c4-35e0-4d38-a3a2-45a01d954de0, .uuid-38577032-8c5d-4e8a-8111-2d638e0b12a1, .uuid-369a3539-31d1-4416-af80-bd345471436b {
        stroke-width: 0px;
      }

      .uuid-38577032-8c5d-4e8a-8111-2d638e0b12a1 {
        fill: #fff;
      }

      .uuid-56557c1f-6834-4cd8-877e-42a516114fd0 {
        clip-path: url(#uuid-9341cddc-154a-4197-9f73-c8d16054eb03);
      }

      .uuid-369a3539-31d1-4416-af80-bd345471436b {
        fill: #fdfeff;
      }
    </style>
    <clipPath id="uuid-9341cddc-154a-4197-9f73-c8d16054eb03">
      <rect class="uuid-6c7974c4-35e0-4d38-a3a2-45a01d954de0" x="589.89" y="100.46" width="740.21" height="119.07"/>
    </clipPath>
  </defs>
  <g class="uuid-56557c1f-6834-4cd8-877e-42a516114fd0">
    <g id="uuid-5c5a1de6-6499-44d7-b8f5-03d1dfc17517" data-name="Group 810">
      <path id="uuid-d1af05a7-cd81-4ccb-a6b1-bb16de4d6cad" data-name="Path 3641" class="uuid-38577032-8c5d-4e8a-8111-2d638e0b12a1" d="M1118.92,184.97c-4.29.05-7.81-3.39-7.86-7.68,0-.06,0-.12,0-.18h-6.95c.15,8.18,6.9,14.68,15.08,14.53,7.96-.15,14.39-6.57,14.53-14.53h-6.95c.05,4.29-3.39,7.8-7.67,7.85-.06,0-.12,0-.18,0M1133.45,153.28v-5.45h-9.62c-1.58-.56-3.24-.85-4.92-.86-8.03.14-14.42,6.77-14.28,14.8.14,8.03,6.77,14.42,14.8,14.28,7.93-.14,14.28-6.61,14.28-14.54.06-2.68-.72-5.32-2.24-7.53l1.98-.69ZM1118.92,169.42c-4.37,0-7.91-3.54-7.91-7.91,0-4.37,3.54-7.91,7.91-7.91,4.37,0,7.9,3.54,7.91,7.91.05,4.32-3.42,7.86-7.74,7.91-.06,0-.11,0-.17,0M1062.64,175.25h6.84v-39.01h-6.84v39.01ZM1086.96,146.97c-8.03.14-14.42,6.77-14.28,14.8.14,8.03,6.77,14.42,14.8,14.28,7.93-.14,14.28-6.61,14.28-14.54.03-8-6.43-14.51-14.43-14.54-.12,0-.25,0-.37,0M1086.96,169.42c-4.37,0-7.91-3.54-7.91-7.91,0-4.37,3.54-7.91,7.91-7.91,4.37,0,7.9,3.54,7.91,7.91.05,4.32-3.42,7.86-7.74,7.91-.06,0-.11,0-.17,0M1136.45,175.25h6.84v-27.42h-6.84v27.42ZM1206.94,153.6c2.77.09,5.35,1.4,7.06,3.58l4.76-4.7c-2.85-3.53-7.16-5.56-11.7-5.51-8.03-.15-14.66,6.24-14.81,14.27s6.24,14.66,14.27,14.81c.18,0,.36,0,.54,0,4.54.05,8.85-1.97,11.7-5.5l-4.76-4.7c-1.73,2.18-4.33,3.49-7.11,3.58-4.25.03-7.72-3.38-7.75-7.63,0-.09,0-.18,0-.28-.11-4.25,3.24-7.79,7.49-7.9.1,0,.21,0,.31,0M1249.48,144.63c0-.53-.38-.75-.91-.75h-.85v2.46h.32v-.96h.53l.59.96h.37l-.64-1.02c.34-.02.61-.3.59-.65,0-.02,0-.03,0-.05M1248.03,145.06v-.86h.53c.43,0,.59.16.59.43s-.16.42-.59.42h-.53ZM1236.43,146.98c-3.13-.07-6.14,1.2-8.29,3.48v-14.22h-6.84v39.01h6.85v-14.91c0-3.95,2.52-6.68,6.68-6.68,3.9,0,6.04,2.4,6.04,6.68v14.91h6.84v-16.14c0-7.59-4.76-12.13-11.28-12.13M1175.89,146.97c-7.89-.11-14.38,6.19-14.49,14.08,0,.21,0,.42,0,.62,0,8.28,5.72,14.38,14.59,14.38,4.72.09,9.26-1.81,12.51-5.24l-4.6-4.54c-2.24,2.14-4.65,3.69-7.75,3.69-3.56.15-6.72-2.25-7.54-5.72h21.33v-1.66c0-9.35-5.77-15.61-14.06-15.61M1168.46,158.68c.71-3.41,3.79-5.81,7.27-5.67,3.46-.17,6.51,2.26,7.11,5.67h-14.38ZM1248.57,142.75c-1.31-.01-2.39,1.04-2.4,2.35-.01,1.31,1.04,2.39,2.35,2.4,1.31.01,2.39-1.04,2.4-2.35,0-.02,0-.04,0-.05-.02-1.29-1.06-2.34-2.35-2.35M1248.57,147.19c-1.14,0-2.06-.92-2.06-2.06s.92-2.06,2.06-2.06,2.06.92,2.06,2.06-.92,2.06-2.06,2.06M1139.81,135.49c-2.49.05-4.48,2.11-4.43,4.6s2.11,4.48,4.6,4.43c2.45-.05,4.42-2.04,4.43-4.49.05-2.46-1.91-4.5-4.37-4.55-.08,0-.15,0-.23,0M1156.75,139.39h-6.84v8.44h-3.69v6.09h3.69v21.33h6.85v-21.33h3.74v-6.09h-3.74v-8.44Z"/>
      <path id="uuid-65423bf3-924d-4c89-a256-c957b8825b25" data-name="Path 3642" class="uuid-38577032-8c5d-4e8a-8111-2d638e0b12a1" d="M1275.61,133.38c6.34-6.6,15.09-10.34,24.24-10.34v13.83c-10.76.08-19.43,8.87-19.35,19.63.08,10.65,8.7,19.27,19.35,19.35,0,4.61,0,9.22,0,13.84-8.04,0-15.82-2.9-21.92-8.15-13.91-11.94-15.5-32.89-3.56-46.8.4-.47.81-.92,1.24-1.36M1300.28,150.37h29.81c0,9.97,0,19.93,0,29.89-4.57,0-9.15,0-13.73,0-.01-5.37,0-10.74,0-16.11-5.35,0-10.71,0-16.07,0-.01-4.59,0-9.19,0-13.78"/>
      <path id="uuid-e08e12bc-ff93-4b45-bd8e-cae2f0d270c7" data-name="Path 3643" class="uuid-369a3539-31d1-4416-af80-bd345471436b" d="M898.78,217.76l1.77,1.77,57.77-57.77,57.77,57.77,1.77-1.77-57.77-57.77,57.77-57.77-1.77-1.76-57.77,57.77-57.77-57.77-1.77,1.77,57.77,57.77-57.77,57.76Z"/>
      <path id="uuid-fedd4f6e-0988-4465-a1fd-d2cecb892130" data-name="Path 3644" class="uuid-38577032-8c5d-4e8a-8111-2d638e0b12a1" d="M615.71,131.56c-14.26,0-25.82,11.56-25.82,25.82s11.56,25.82,25.82,25.82,25.82-11.56,25.82-25.82c0-14.26-11.56-25.82-25.82-25.82M629.99,170.85c-4.63-1.37-9.45-2.01-14.27-1.92h0c-4.83-.09-9.64.56-14.27,1.92v-26.9h.46s2.39,23.71,13.82,23.71h0c11.43,0,13.82-23.71,13.82-23.71h.46v26.9Z"/>
      <path id="uuid-7c121027-e506-41c0-ba7f-2f0ba1907aff" data-name="Path 3645" class="uuid-38577032-8c5d-4e8a-8111-2d638e0b12a1" d="M696.33,159.16h-6.6c0-2.91,1.32-4.49,3.3-4.49,2.11,0,3.3,1.72,3.3,4.49M748.49,161.27l-.13,3.96c-.69,1.16-1.95,1.87-3.3,1.85-1.28.11-2.41-.84-2.52-2.13-.01-.17-.01-.34.01-.51-.09-.86.26-1.7.92-2.24.66-.66,1.98-1.06,4.23-1.06.25.11.52.15.79.13M835.64,159.16h-6.47c.13-2.91,1.19-4.49,3.3-4.49,1.98,0,3.17,1.72,3.17,4.49M682.86,169.19v-22.84h-3.7v9.24h-8.58v-9.24h-3.7v22.97h3.7v-10.7h8.58v10.7h3.7v-.13ZM700.16,161.67v-.66c0-3.7-.79-5.81-2.11-7.13-1.28-1.22-2.99-1.89-4.76-1.85-2.01-.07-3.94.75-5.28,2.24-1.5,1.81-2.25,4.12-2.11,6.47,0,5.41,3.04,8.85,7.92,8.85,2.27.02,4.47-.77,6.2-2.24l-1.45-2.11c-1.22,1.02-2.76,1.58-4.36,1.58-1.44.05-2.81-.59-3.7-1.72-.51-.97-.74-2.07-.66-3.17v-.26h10.3ZM712.18,152.29c-.46-.18-.96-.26-1.45-.26-1.85,0-3.17,1.06-4.36,2.64v-.26c.02-.8-.21-1.59-.66-2.25l-3.43.92c.43,1.37.61,2.8.53,4.23v12.01h3.7v-11.22c.05-.75.44-1.43,1.06-1.85.6-.57,1.42-.85,2.25-.79.36.03.72.11,1.06.26l1.32-3.43ZM735.68,169.19v-12.28c0-1.85-.4-3.04-1.32-3.83-.9-.72-2.02-1.09-3.17-1.06-2.03.08-3.94.98-5.28,2.51-.75-1.57-2.36-2.56-4.1-2.51-1.75.11-3.39.87-4.62,2.11-.12-.73-.34-1.44-.65-2.11l-3.3.79c.53,1.06.66,1.72.66,4.1v12.14h3.57v-12.41c1-.98,2.31-1.59,3.7-1.72,1.45,0,1.98.79,1.98,2.64v11.49h3.56v-12.15c1.45-1.45,2.77-2.11,3.83-2.11,1.32,0,1.85.66,1.85,2.38v11.75h3.3v.26ZM753.5,167.61c-1.19-.79-1.59-1.45-1.59-3.44v-.53l.14-5.02v-1.05c.03-.97-.06-1.95-.27-2.9-.66-1.85-2.51-2.77-5.15-2.77-1.59-.01-3.16.3-4.62.92-.95.38-1.88.83-2.77,1.32l1.59,2.5c.64-.5,1.35-.9,2.11-1.19.99-.48,2.07-.75,3.17-.79.75-.1,1.51.2,1.98.79.44.66.63,1.46.53,2.25v1.19h-1.19c-5.68,0-8.71,1.98-8.71,5.94-.07,1.32.4,2.61,1.31,3.56,1.22,1,2.79,1.48,4.36,1.32,1.31.01,2.6-.35,3.7-1.06.38-.32.74-.67,1.06-1.06.44,1.05,1.3,1.87,2.38,2.24l1.98-2.25ZM769.75,169.19v-12.41c0-3.17-1.85-4.62-4.62-4.62-1.85,0-3.3.66-5.28,2.24-.02-.79-.24-1.57-.66-2.24l-3.3.92c.53,1.19.53,1.98.53,3.96v12.41h3.57v-12.15c1.04-1.12,2.44-1.82,3.96-1.98,1.45,0,1.98.66,1.98,3.04v11.09h3.83v-.27ZM797.75,169.19l-1.99-22.97h-5.15l-4.62,16.9-4.62-16.77h-5.28l-2.25,22.97h3.43l1.59-19.28,5.41,19.28h2.77l5.41-18.88,1.58,18.88h3.7v-.13ZM805.15,169.19v-17.16l-3.7.53v16.5h3.7v.13ZM815.45,169.19l-.66-2.11h-.4c-.66,0-1.19-.4-1.19-1.59v-15.84c.08-1.59-.01-3.18-.27-4.76l-3.7.8c.31,1.61.45,3.25.4,4.88v15.19c0,2.51,1.45,3.96,3.57,3.96.77-.09,1.52-.26,2.24-.53M805.81,147.53c-.01-1.33-1.1-2.39-2.42-2.38-.03,0-.06,0-.09,0-1.34-.02-2.45,1.04-2.51,2.38.08,1.39,1.26,2.45,2.65,2.37,1.28-.07,2.3-1.09,2.37-2.37ZM823.9,169.19l-.66-2.11c-.41.14-.87.04-1.19-.27-.37-.83-.51-1.74-.4-2.64v-14.52c.08-1.59-.01-3.18-.26-4.76l-3.7.8c.31,1.61.45,3.25.4,4.88v14.53c-.08,1.2.2,2.39.79,3.43.67.83,1.71,1.27,2.77,1.19.76-.12,1.51-.29,2.24-.53h0ZM839.48,161.67v-.66c0-3.7-.79-5.81-2.11-7.13-1.32-1.24-3.08-1.91-4.89-1.85-2-.02-3.91.79-5.28,2.24-1.5,1.81-2.26,4.12-2.11,6.47,0,5.41,3.04,8.85,7.92,8.85,2.27,0,4.46-.79,6.21-2.24l-1.45-2.11c-1.22,1.02-2.77,1.58-4.36,1.58-1.44.05-2.81-.59-3.7-1.72-.56-.96-.83-2.06-.79-3.17v-.26h10.57ZM851.63,152.29c-.46-.18-.96-.27-1.45-.26-1.81.07-3.46,1.06-4.36,2.64v-.26c.02-.8-.21-1.59-.66-2.25l-3.3.92c.43,1.36.61,2.8.53,4.23v12.01h3.7v-11.22c.05-.75.44-1.43,1.05-1.85.61-.57,1.42-.85,2.24-.79.37.03.72.11,1.06.26l1.18-3.43Z"/>
    </g>
  </g>
</svg>