<?xml version="1.0" encoding="UTF-8"?>
<svg id="uuid-4636c4ef-39ba-422c-afd8-f1df22f9135e" data-name="Layer 1" xmlns="http://www.w3.org/2000/svg" viewBox="0 0 1923 325.02">
  <defs>
    <style>
      .uuid-93b2ab2e-7aab-478c-b463-6deca7645bb5 {
        fill: #fff;
        stroke-width: 0px;
      }
                .st0{fill:#FFFFFF;}
	.st1{fill:#FFFFFF;}
	.st2{fill:#FFFFFF;}
    </style>
  </defs>
  <g>
    <polygon class="st2" points="558.57 204.42 540.69 204.42 595.89 111.89 613.77 111.89 558.57 204.42"/>
    <polygon class="st2" points="606.68 204.42 588.8 204.42 644 111.89 661.88 111.89 606.68 204.42"/>
    <polygon class="st2" points="654.78 204.42 636.91 204.42 692.11 111.89 709.99 111.89 654.78 204.42"/>
    <polygon class="st2" points="702.89 204.42 685.01 204.42 740.22 111.89 758.09 111.89 702.89 204.42"/>
    <polygon class="st2" points="751 204.42 733.12 204.42 788.32 111.89 806.2 111.89 751 204.42"/>
    <polygon class="st2" points="799.11 204.42 781.23 204.42 836.43 111.89 854.31 111.89 799.11 204.42"/>
  </g>
  <polygon class="uuid-93b2ab2e-7aab-478c-b463-6deca7645bb5" points="43 6.5 43 13 14.68 13 14.68 41.32 8.18 41.32 8.18 6.5 43 6.5"/>
  <polygon class="uuid-93b2ab2e-7aab-478c-b463-6deca7645bb5" points="1881.65 7.5 1881.65 14 1909.97 14 1909.97 42.32 1916.47 42.32 1916.47 7.5 1881.65 7.5"/>
  <polygon class="uuid-93b2ab2e-7aab-478c-b463-6deca7645bb5" points="42.33 319.44 42.33 312.95 14.01 312.95 14.01 284.62 7.51 284.62 7.51 319.44 42.33 319.44"/>
  <polygon class="uuid-93b2ab2e-7aab-478c-b463-6deca7645bb5" points="1881.65 318.44 1881.65 311.95 1909.97 311.95 1909.97 283.62 1916.47 283.62 1916.47 318.44 1881.65 318.44"/>
  <g>
    <rect class="uuid-93b2ab2e-7aab-478c-b463-6deca7645bb5" x="1680.87" y="73.09" width="2.15" height="50.44"/>
    <rect class="uuid-93b2ab2e-7aab-478c-b463-6deca7645bb5" x="1685.17" y="73.09" width="2.15" height="50.44"/>
    <rect class="uuid-93b2ab2e-7aab-478c-b463-6deca7645bb5" x="1689.48" y="73.09" width="4.3" height="50.44"/>
    <rect class="uuid-93b2ab2e-7aab-478c-b463-6deca7645bb5" x="1700.23" y="73.09" width="2.15" height="50.44"/>
    <rect class="uuid-93b2ab2e-7aab-478c-b463-6deca7645bb5" x="1704.53" y="73.09" width="2.15" height="50.44"/>
    <rect class="uuid-93b2ab2e-7aab-478c-b463-6deca7645bb5" x="1715.28" y="73.09" width="2.15" height="50.44"/>
    <rect class="uuid-93b2ab2e-7aab-478c-b463-6deca7645bb5" x="1719.58" y="73.09" width="8.6" height="50.44"/>
    <rect class="uuid-93b2ab2e-7aab-478c-b463-6deca7645bb5" x="1730.34" y="73.09" width="2.15" height="50.44"/>
    <rect class="uuid-93b2ab2e-7aab-478c-b463-6deca7645bb5" x="1734.64" y="73.09" width="2.15" height="50.44"/>
    <rect class="uuid-93b2ab2e-7aab-478c-b463-6deca7645bb5" x="1743.24" y="73.09" width="4.3" height="50.44"/>
    <rect class="uuid-93b2ab2e-7aab-478c-b463-6deca7645bb5" x="1749.69" y="73.09" width="6.45" height="50.44"/>
    <rect class="uuid-93b2ab2e-7aab-478c-b463-6deca7645bb5" x="1760.44" y="73.09" width="2.15" height="50.44"/>
    <rect class="uuid-93b2ab2e-7aab-478c-b463-6deca7645bb5" x="1764.74" y="73.09" width="2.15" height="50.44"/>
    <rect class="uuid-93b2ab2e-7aab-478c-b463-6deca7645bb5" x="1775.5" y="73.09" width="2.15" height="50.44"/>
    <rect class="uuid-93b2ab2e-7aab-478c-b463-6deca7645bb5" x="1779.8" y="73.09" width="2.15" height="50.44"/>
    <rect class="uuid-93b2ab2e-7aab-478c-b463-6deca7645bb5" x="1784.1" y="73.09" width="2.15" height="50.44"/>
    <rect class="uuid-93b2ab2e-7aab-478c-b463-6deca7645bb5" x="1788.4" y="73.09" width="2.15" height="50.44"/>
    <rect class="uuid-93b2ab2e-7aab-478c-b463-6deca7645bb5" x="1792.7" y="73.09" width="6.45" height="50.44"/>
    <rect class="uuid-93b2ab2e-7aab-478c-b463-6deca7645bb5" x="1803.45" y="73.09" width="2.15" height="50.44"/>
    <rect class="uuid-93b2ab2e-7aab-478c-b463-6deca7645bb5" x="1809.91" y="73.09" width="6.45" height="50.44"/>
    <rect class="uuid-93b2ab2e-7aab-478c-b463-6deca7645bb5" x="1818.51" y="73.09" width="4.3" height="50.44"/>
    <rect class="uuid-93b2ab2e-7aab-478c-b463-6deca7645bb5" x="1824.96" y="73.09" width="4.3" height="50.44"/>
    <rect class="uuid-93b2ab2e-7aab-478c-b463-6deca7645bb5" x="1833.56" y="73.09" width="2.15" height="50.44"/>
    <rect class="uuid-93b2ab2e-7aab-478c-b463-6deca7645bb5" x="1840.01" y="73.09" width="6.45" height="50.44"/>
    <rect class="uuid-93b2ab2e-7aab-478c-b463-6deca7645bb5" x="1848.62" y="73.09" width="2.15" height="50.44"/>
    <rect class="uuid-93b2ab2e-7aab-478c-b463-6deca7645bb5" x="1859.37" y="73.09" width="2.15" height="50.44"/>
    <rect class="uuid-93b2ab2e-7aab-478c-b463-6deca7645bb5" x="1863.67" y="73.09" width="6.45" height="50.44"/>
    <rect class="uuid-93b2ab2e-7aab-478c-b463-6deca7645bb5" x="1874.42" y="73.09" width="2.15" height="50.44"/>
    <rect class="uuid-93b2ab2e-7aab-478c-b463-6deca7645bb5" x="1878.72" y="73.09" width="2.15" height="50.44"/>
    <rect class="uuid-93b2ab2e-7aab-478c-b463-6deca7645bb5" x="1883.03" y="73.09" width="2.15" height="50.44"/>
  </g>
  <g>
    <path class="st1" d="m90.52,100.83c.23,2.11.95,3.83,2.15,5.17,1.15,1.41,2.85,2.11,5.1,2.11,1.22,0,2.38-.25,3.48-.74,1.1-.42,1.93-1.07,2.5-1.93h13.34c-1.51,4.03-3.98,7.01-7.41,8.93-3.41,1.92-7.28,2.88-11.62,2.88-6.03-.05-10.93-1.76-14.71-5.13-3.94-3.35-5.94-8.14-5.98-14.38.05-5.62,1.84-10.31,5.39-14.06,3.52-3.68,8.23-5.57,14.11-5.66,14.14.19,21.14,7.79,21,22.82h-27.35Zm14.14-7.38c-.05-1.79-.64-3.29-1.78-4.49-1.16-1.2-2.73-1.8-4.69-1.8-4.39.05-6.92,2.15-7.6,6.3h14.07Z"/>
    <path class="st1" d="m125.75,102.1h14.48v14.2h-14.48v-14.2Z"/>
    <path class="st1" d="m149.44,64.9h13.77v51.4h-13.77v-51.4Z"/>
    <path class="st1" d="m172.47,102.1h14.48v14.2h-14.48v-14.2Z"/>
    <path class="st1" d="m198.21,87.71h-5.67v-8.79h5.67c-.09-1.92.04-3.82.41-5.7.38-1.81,1.2-3.41,2.45-4.82,1.49-1.52,3.19-2.51,5.1-2.95,1.9-.37,4.21-.56,6.93-.56,2.11.05,4.18.14,6.22.28v9.81c-.57-.12-1.13-.25-1.7-.39-.59-.09-1.17-.14-1.76-.14-1.71,0-2.88.29-3.52.88-.68.66-.97,1.85-.88,3.59h7.49v8.79h-6.96v28.58h-13.77v-28.58Z"/>
    <path class="st1" d="m224.54,102.1h14.48v14.2h-14.48v-14.2Z"/>
    <path class="st1" d="m93.76,136.9h14.99l18.15,51.4h-15.91l-2.08-7.34h-15.84l-2.25,7.34h-15.39l18.32-51.4Zm12.06,33.09l-4.46-15.89h-.14l-4.8,15.89h9.4Z"/>
    <path class="st1" d="m131.76,150.93h13.24v5.98h.14c1.11-2.25,2.48-3.97,4.12-5.17,1.57-1.15,3.59-1.72,6.06-1.72,1.38,0,2.73.19,4.05.56v12.58c-.66-.28-1.39-.52-2.18-.7-.79-.14-1.88-.21-3.27-.21-5.54-.09-8.33,3.67-8.38,11.29v14.77h-13.77v-37.37Z"/>
    <path class="st1" d="m180.31,150.93h7.41v8.79h-7.41v13.07c-.05,1.71.24,2.96.85,3.74.59.82,1.73,1.23,3.41,1.23,1.07,0,2.12-.07,3.14-.21v10.76c-2.88.09-5.83.23-8.84.42-1.5,0-2.94-.12-4.32-.35-1.43-.28-2.75-.76-3.98-1.44-1.2-.77-2.15-1.89-2.86-3.36-.79-1.49-1.19-3.48-1.19-5.96v-17.9h-6.17v-8.79h6.17v-11.36h13.77v11.36Z"/>
    <path class="st1" d="m78.98,208.9h27.81c3.34,0,6.1.41,8.28,1.23,2.09.8,3.72,1.85,4.9,3.16,1.18,1.29,2.02,2.68,2.5,4.18.37,1.48.56,2.91.56,4.29,0,2.55-.55,4.59-1.65,6.12-1.15,1.59-2.71,2.92-4.68,3.97,2.41.77,4.48,2.14,6.19,4.11,1.78,2.02,2.69,4.92,2.74,8.72-.09,5.13-1.92,8.99-5.5,11.57-3.5,2.7-7.61,4.04-12.32,4.04h-28.84v-51.4Zm15.33,20.04h8.67c1.72,0,3.08-.31,4.08-.92,1-.64,1.49-1.75,1.49-3.36,0-1.3-.5-2.24-1.49-2.83-1-.47-2.35-.71-4.08-.71h-8.67v7.81Zm0,19.13h9.58c1.79,0,3.3-.34,4.54-1.02,1.19-.66,1.81-1.95,1.89-3.87,0-3.07-1.91-4.63-5.73-4.68h-10.27v9.57Z"/>
    <path class="st1" d="m169.17,251.97c0,1.4.09,2.83.27,4.3.18,1.45.65,2.79,1.41,4.02h-14.53c-.37-1.2-.54-2.37-.49-3.52h-.14c-1.54,1.67-3.32,2.81-5.33,3.45-2.11.68-4.33,1.02-6.67,1.02-3.58,0-6.54-.91-8.9-2.74-2.51-1.87-3.79-4.73-3.84-8.57,0-2.93.77-5.2,2.32-6.81,1.48-1.64,3.32-2.82,5.52-3.55,2.32-.77,4.65-1.3,7-1.58,2.34-.28,4.43-.54,6.26-.77.54-.16,1.04-.32,1.51-.46.44-.14.85-.3,1.23-.49.77-.47,1.16-1.26,1.16-2.39-.05-1.29-.53-2.19-1.45-2.7-.92-.49-2-.74-3.24-.74-2.14.05-3.56.45-4.26,1.22-.73.86-1.09,1.72-1.09,2.58h-13.29c.19-2.65.86-4.79,2.02-6.43,1.14-1.62,2.61-2.84,4.42-3.66,1.83-.87,3.87-1.46,6.12-1.79,2.18-.23,4.34-.35,6.47-.35,4.36,0,7.78.4,10.26,1.2,2.46.82,4.18,1.93,5.18,3.34,1.04,1.38,1.69,2.94,1.95,4.68.09,1.76.14,3.55.14,5.38v15.37Zm-13.22-8.42c-1.87.82-3.83,1.42-5.89,1.8-3.36.42-5.05,1.77-5.05,4.05,0,.92.45,1.7,1.36,2.36.83.73,1.94,1.09,3.32,1.09,1.74,0,3.2-.5,4.38-1.52,1.15-.96,1.78-2.41,1.88-4.33v-3.45Z"/>
    <path class="st1" d="m198.72,233.82c-.09-1.26-.62-2.21-1.6-2.83-.98-.74-2.11-1.11-3.39-1.11-1.13,0-2.16.17-3.09.49-1.03.4-1.54,1.2-1.54,2.4,0,.47.19.85.57,1.13.36.35.73.62,1.11.81.69.24,1.51.42,2.44.56.96.21,1.99.41,3.09.6,2.35.38,4.76.95,7.25,1.73,2.38.68,4.4,1.84,6.05,3.46.84.78,1.5,1.74,1.97,2.9.41,1.15.61,2.53.61,4.13,0,2.57-.54,4.67-1.63,6.31-1.09,1.73-2.53,3.1-4.34,4.1-3.84,1.87-8.09,2.78-12.76,2.73-4.56,0-8.68-1-12.38-3.01-3.68-2.01-5.69-5.39-6.03-10.13h13.58c.09,1.28.67,2.37,1.72,3.28.77.72,2.05,1.08,3.82,1.08,1.01,0,2.06-.22,3.16-.67,1.05-.42,1.6-1.16,1.65-2.22.05-1.05-.41-1.85-1.37-2.39-1.05-.52-3.21-1.04-6.47-1.58-5.37-.91-9.26-2.33-11.67-4.25-2.39-1.85-3.59-4.35-3.59-7.49,0-2.34.57-4.3,1.7-5.87,1.09-1.59,2.51-2.8,4.27-3.62,1.76-.91,3.66-1.53,5.7-1.86,1.95-.33,3.86-.49,5.73-.49,4.24-.07,8.2.67,11.88,2.22,1.76.82,3.18,2.02,4.27,3.6,1.09,1.55,1.69,3.55,1.81,5.99h-12.53Z"/>
    <path class="st1" d="m229.14,244.83c.23,2.11.95,3.83,2.15,5.17,1.15,1.41,2.85,2.11,5.1,2.11,1.22,0,2.38-.25,3.48-.74,1.1-.42,1.93-1.07,2.5-1.93h13.34c-1.51,4.03-3.98,7.01-7.41,8.93-3.41,1.92-7.28,2.88-11.62,2.88-6.03-.05-10.93-1.76-14.71-5.13-3.94-3.35-5.94-8.14-5.98-14.38.05-5.62,1.84-10.31,5.39-14.06,3.52-3.68,8.23-5.57,14.11-5.66,14.14.19,21.14,7.79,21,22.82h-27.35Zm14.14-7.38c-.05-1.79-.64-3.29-1.78-4.49-1.16-1.2-2.73-1.8-4.69-1.8-4.39.05-6.92,2.15-7.6,6.3h14.07Z"/>
    <path class="st1" d="m264.02,208.9h13.77v51.4h-13.77v-51.4Z"/>
  </g>
  <g>
    <path class="uuid-93b2ab2e-7aab-478c-b463-6deca7645bb5" d="m1528.58,134.9h10.03l9.25,17.57h.11v-17.57h9.25v32.84h-9.55l-9.75-17.95h-.09v17.95h-9.25v-32.84Z"/>
    <path class="uuid-93b2ab2e-7aab-478c-b463-6deca7645bb5" d="m1578.67,165.89c-.32,1.08-.7,2.21-1.15,3.41-.48,1.18-1.06,2.25-1.74,3.21-1.19,1.41-2.6,2.27-4.24,2.58-1.62.27-3.31.39-5.07.36h-4v-7.28h2.11c.49,0,1-.02,1.5-.04.49,0,.91-.06,1.26-.18.27-.12.49-.33.67-.63.13-.28.2-.67.2-1.17,0-.36-.17-1.06-.52-2.11-.36-1.03-.79-2.19-1.28-3.48-1.05-2.8-1.79-4.7-2.22-5.71l-3.97-11.01h9.44l3.7,13.69h.09l3.76-13.69h9.11l-7.65,22.03Z"/>
    <path class="uuid-93b2ab2e-7aab-478c-b463-6deca7645bb5" d="m1589.07,134.9h8.8v32.84h-8.8v-32.84Z"/>
    <path class="uuid-93b2ab2e-7aab-478c-b463-6deca7645bb5" d="m1627.61,155.8c0,3.4-1.04,6.31-3.11,8.73-2.06,2.48-5.32,3.75-9.77,3.81-4.4-.06-7.64-1.33-9.73-3.82-2.13-2.43-3.18-5.34-3.13-8.74-.04-3.44,1-6.36,3.13-8.76,2.09-2.44,5.33-3.69,9.73-3.75,4.46.06,7.71,1.31,9.77,3.75,2.07,2.4,3.11,5.32,3.11,8.77Zm-8.8,0c0-.65-.03-1.33-.09-2.05-.09-.71-.29-1.34-.58-1.89-.28-.6-.68-1.09-1.19-1.46-.58-.34-1.31-.52-2.2-.52s-1.54.17-2.06.52c-.58.38-1,.86-1.29,1.46-.51,1.23-.75,2.54-.72,3.94,0,.62.06,1.26.19,1.94.09.68.27,1.32.54,1.94.28.62.71,1.1,1.29,1.46.51.41,1.2.61,2.06.61s1.62-.2,2.2-.61c.51-.36.91-.85,1.19-1.46.48-1.26.71-2.55.68-3.87Z"/>
    <path class="uuid-93b2ab2e-7aab-478c-b463-6deca7645bb5" d="m1632.35,143.86h8.77v3.03h.09c1.61-2.41,4.2-3.62,7.76-3.62,2.16,0,4.01.66,5.57,1.98,1.54,1.32,2.32,3.35,2.35,6.11v16.37h-8.8v-12.53c.03-1.41-.13-2.55-.49-3.42-.38-.85-1.25-1.28-2.63-1.28-.86-.03-1.68.25-2.46.83-.38.3-.7.76-.96,1.37-.25.65-.38,1.45-.38,2.41v12.62h-8.8v-23.88Z"/>
    <path class="uuid-93b2ab2e-7aab-478c-b463-6deca7645bb5" d="m1677.03,134.9h9.79v11.41h9.82v-11.41h9.79v32.84h-9.79v-13.03h-9.82v13.03h-9.79v-32.84Z"/>
    <path class="uuid-93b2ab2e-7aab-478c-b463-6deca7645bb5" d="m1736.66,155.8c0,3.4-1.04,6.31-3.11,8.73-2.06,2.48-5.32,3.75-9.77,3.81-4.4-.06-7.64-1.33-9.73-3.82-2.13-2.43-3.18-5.34-3.13-8.74-.04-3.44,1-6.36,3.13-8.76,2.09-2.44,5.33-3.69,9.73-3.75,4.46.06,7.71,1.31,9.77,3.75,2.07,2.4,3.11,5.32,3.11,8.77Zm-8.8,0c0-.65-.03-1.33-.09-2.05-.09-.71-.29-1.34-.58-1.89-.28-.6-.68-1.09-1.19-1.46-.58-.34-1.31-.52-2.2-.52s-1.54.17-2.06.52c-.58.38-1,.86-1.29,1.46-.51,1.23-.75,2.54-.72,3.94,0,.62.06,1.26.19,1.94.09.68.27,1.32.54,1.94.28.62.71,1.1,1.29,1.46.51.41,1.2.61,2.06.61s1.62-.2,2.2-.61c.51-.36.91-.85,1.19-1.46.48-1.26.71-2.55.68-3.87Z"/>
    <path class="uuid-93b2ab2e-7aab-478c-b463-6deca7645bb5" d="m1765.93,167.73h-8.68v-3.03h-.09c-1.6,2.4-4.16,3.61-7.68,3.64-2.15,0-4.01-.67-5.59-2.02-1.63-1.36-2.46-3.39-2.49-6.09v-16.37h8.8v12.53c-.03,1.38.15,2.5.54,3.37.38.88,1.24,1.33,2.58,1.33.86.03,1.71-.28,2.56-.92.38-.3.7-.77.96-1.42.19-.58.28-1.34.28-2.27v-12.62h8.8v23.88Z"/>
    <path class="uuid-93b2ab2e-7aab-478c-b463-6deca7645bb5" d="m1785.03,150.82c-.06-.81-.4-1.41-1.02-1.81-.63-.47-1.35-.71-2.17-.71-.72,0-1.38.11-1.97.32-.66.25-.99.77-.99,1.53,0,.3.12.54.37.72.23.23.47.4.71.52.44.15.96.27,1.56.36.61.14,1.27.26,1.97.38,1.5.24,3.04.61,4.63,1.1,1.52.44,2.81,1.17,3.86,2.21.54.5.96,1.11,1.26,1.85.26.74.39,1.62.39,2.64,0,1.64-.35,2.99-1.04,4.03-.69,1.11-1.62,1.98-2.77,2.62-2.45,1.19-5.17,1.78-8.15,1.75-2.91,0-5.55-.64-7.91-1.93-2.35-1.28-3.63-3.44-3.86-6.47h8.67c.06.82.43,1.52,1.1,2.09.49.46,1.31.69,2.44.69.64,0,1.31-.14,2.02-.43.67-.27,1.02-.74,1.05-1.42s-.26-1.18-.88-1.53c-.67-.33-2.05-.67-4.13-1.01-3.43-.58-5.92-1.49-7.46-2.72-1.53-1.18-2.29-2.78-2.29-4.79,0-1.5.36-2.75,1.09-3.75.7-1.02,1.61-1.79,2.73-2.31,1.12-.58,2.34-.98,3.64-1.19,1.24-.21,2.46-.31,3.66-.31,2.71-.04,5.24.43,7.59,1.42,1.12.53,2.03,1.29,2.73,2.3.7.99,1.08,2.27,1.15,3.83h-8.01Z"/>
    <path class="uuid-93b2ab2e-7aab-478c-b463-6deca7645bb5" d="m1804.47,157.85c.15,1.35.61,2.45,1.37,3.3.73.9,1.82,1.35,3.26,1.35.78,0,1.52-.16,2.23-.47.7-.27,1.24-.68,1.6-1.24h8.52c-.96,2.58-2.54,4.48-4.73,5.7-2.18,1.23-4.65,1.84-7.42,1.84-3.85-.03-6.99-1.12-9.4-3.28-2.52-2.14-3.79-5.2-3.82-9.19.03-3.59,1.18-6.59,3.44-8.98,2.25-2.35,5.26-3.56,9.02-3.62,9.03.12,13.5,4.98,13.42,14.58h-17.47Zm9.03-4.72c-.03-1.14-.41-2.1-1.14-2.87-.74-.77-1.74-1.15-3-1.15-2.8.03-4.42,1.37-4.85,4.02h8.99Z"/>
    <path class="uuid-93b2ab2e-7aab-478c-b463-6deca7645bb5" d="m1536.31,194.7c0,.82.12,1.54.35,2.16.42.95,1.12,1.58,2.11,1.89.94.33,1.91.5,2.9.5.91.03,1.86-.16,2.83-.58.96-.43,1.45-1.24,1.49-2.4.03-.82-.43-1.48-1.39-1.98-1-.46-2.9-1.06-5.7-1.8-1.32-.36-2.61-.76-3.86-1.19-1.32-.43-2.51-.99-3.57-1.66-1.08-.67-1.95-1.56-2.63-2.67-.7-1.03-1.06-2.37-1.06-4,.06-3.8,1.39-6.57,4-8.31,2.49-1.69,5.44-2.54,8.83-2.54,3.55-.03,6.61.73,9.18,2.29,2.49,1.66,3.86,4.46,4.09,8.4h-9.28c.12-1.22-.27-2.09-1.15-2.61-.87-.54-1.84-.8-2.9-.8-.73,0-1.47.13-2.24.4-.35.15-.65.37-.89.65-.26.3-.39.68-.39,1.15.06.55.37,1.01.94,1.37.54.4,1.23.76,2.09,1.06,1.81.55,3.88,1.12,6.21,1.71,1.24.31,2.42.7,3.54,1.15,1.11.43,2.12,1.02,3.03,1.75.93.73,1.66,1.62,2.2,2.67.49,1.11.74,2.41.74,3.91-.09,4.21-1.66,7.15-4.72,8.83-3.02,1.69-6.43,2.52-10.25,2.49-.95,0-2.19-.14-3.73-.43-1.55-.27-3.13-.8-4.72-1.6-1.58-.81-2.92-2.01-4.01-3.6-1.11-1.53-1.71-3.59-1.8-6.2h9.76Z"/>
    <path class="uuid-93b2ab2e-7aab-478c-b463-6deca7645bb5" d="m1569.68,181.86h4.73v5.61h-4.73v8.35c-.03,1.1.15,1.89.54,2.39.38.53,1.11.79,2.18.79.68,0,1.35-.04,2.01-.13v6.87c-1.84.06-3.72.15-5.65.27-.96,0-1.88-.08-2.76-.22-.91-.18-1.76-.49-2.54-.92-.77-.49-1.38-1.21-1.82-2.15-.51-.95-.76-2.22-.76-3.8v-11.44h-3.94v-5.61h3.94v-7.25h8.8v7.25Z"/>
    <path class="uuid-93b2ab2e-7aab-478c-b463-6deca7645bb5" d="m1577.8,181.86h8.46v3.82h.09c.71-1.44,1.59-2.54,2.63-3.3,1-.73,2.29-1.1,3.87-1.1.88,0,1.75.12,2.59.36v8.04c-.42-.18-.89-.33-1.39-.45-.51-.09-1.2-.13-2.09-.13-3.54-.06-5.33,2.34-5.35,7.21v9.43h-8.8v-23.88Z"/>
    <path class="uuid-93b2ab2e-7aab-478c-b463-6deca7645bb5" d="m1621.26,200.41c0,.89.06,1.81.18,2.75.12.92.42,1.78.9,2.57h-9.28c-.24-.76-.34-1.51-.31-2.25h-.09c-.99,1.06-2.12,1.8-3.41,2.2-1.35.43-2.77.65-4.26.65-2.29,0-4.18-.58-5.68-1.75-1.61-1.2-2.42-3.02-2.45-5.47,0-1.87.49-3.32,1.48-4.35.94-1.05,2.12-1.8,3.53-2.27,1.48-.49,2.97-.83,4.47-1.01s2.83-.34,4-.49c.34-.1.67-.2.97-.29.28-.09.55-.2.79-.31.49-.3.74-.81.74-1.53-.03-.82-.34-1.4-.92-1.73-.59-.31-1.28-.47-2.07-.47-1.37.03-2.27.29-2.73.78-.46.55-.7,1.1-.7,1.65h-8.49c.12-1.69.55-3.06,1.29-4.11.73-1.03,1.67-1.81,2.82-2.33,1.17-.55,2.47-.94,3.91-1.15,1.39-.15,2.77-.22,4.13-.22,2.79,0,4.97.25,6.55.76,1.57.52,2.67,1.24,3.31,2.13.67.88,1.08,1.88,1.24,2.99.06,1.12.09,2.27.09,3.44v9.82Zm-8.45-5.38c-1.19.53-2.45.91-3.77,1.15-2.15.27-3.22,1.13-3.22,2.59,0,.59.29,1.09.87,1.51.53.46,1.24.7,2.12.7,1.11,0,2.05-.32,2.8-.97.74-.62,1.14-1.54,1.2-2.77v-2.21Z"/>
    <path class="uuid-93b2ab2e-7aab-478c-b463-6deca7645bb5" d="m1655.44,205.73h-9.34l-3.44-14.67h-.09l-3.55,14.67h-9.34l-7.43-23.88h9.46l3.55,14.8h.09l3.03-14.8h8.51l3.19,14.8h.18l3.3-14.8h9.48l-7.59,23.88Z"/>
    <path class="uuid-93b2ab2e-7aab-478c-b463-6deca7645bb5" d="m1666.34,172.9h8.81v11.59h.09c1.5-2.11,3.67-3.18,6.53-3.21,2.02.03,3.69.4,5,1.1,1.32.76,2.36,1.76,3.12,2.99.78,1.23,1.32,2.56,1.62,4,.28,1.44.43,2.88.43,4.31v1.12c-.04.36-.1.73-.16,1.1-.03.36-.07.73-.13,1.1-.09.36-.18.74-.27,1.15-.43,1.47-1.05,2.82-1.86,4.04-1.64,2.67-4.14,4.05-7.5,4.16-2.12-.03-3.66-.4-4.64-1.12-.96-.64-1.72-1.34-2.26-2.1h-.09v2.62h-8.68v-32.84Zm16.78,20.89c0-1.51-.26-2.87-.77-4.07-.28-.55-.69-1-1.23-1.33-.57-.34-1.29-.52-2.14-.52-1.63.03-2.74.65-3.33,1.85-.29.56-.5,1.19-.63,1.89-.12.71-.19,1.43-.19,2.18,0,.71.06,1.41.19,2.12.12.71.33,1.34.63,1.89.59,1.26,1.7,1.91,3.33,1.94.85,0,1.57-.2,2.14-.61.54-.33.95-.77,1.23-1.33.51-1.17.77-2.51.77-4.01h0Z"/>
    <path class="uuid-93b2ab2e-7aab-478c-b463-6deca7645bb5" d="m1703.01,195.85c.15,1.35.61,2.45,1.37,3.3.73.9,1.82,1.35,3.26,1.35.78,0,1.52-.16,2.23-.47.7-.27,1.24-.68,1.6-1.24h8.52c-.96,2.58-2.54,4.48-4.73,5.7-2.18,1.23-4.65,1.84-7.42,1.84-3.85-.03-6.99-1.12-9.4-3.28-2.52-2.14-3.79-5.2-3.82-9.19.03-3.59,1.18-6.59,3.44-8.98,2.25-2.35,5.26-3.56,9.02-3.62,9.03.12,13.5,4.98,13.42,14.58h-17.47Zm9.03-4.72c-.03-1.14-.41-2.1-1.14-2.87-.74-.77-1.74-1.15-3-1.15-2.8.03-4.42,1.37-4.85,4.02h8.99Z"/>
    <path class="uuid-93b2ab2e-7aab-478c-b463-6deca7645bb5" d="m1725.12,181.86h8.46v3.82h.09c.71-1.44,1.59-2.54,2.63-3.3,1-.73,2.29-1.1,3.87-1.1.88,0,1.75.12,2.59.36v8.04c-.42-.18-.89-.33-1.39-.45-.51-.09-1.2-.13-2.09-.13-3.54-.06-5.33,2.34-5.35,7.21v9.43h-8.8v-23.88Z"/>
    <path class="uuid-93b2ab2e-7aab-478c-b463-6deca7645bb5" d="m1745.54,181.86h8.46v3.82h.09c.71-1.44,1.59-2.54,2.63-3.3,1-.73,2.29-1.1,3.87-1.1.88,0,1.75.12,2.59.36v8.04c-.42-.18-.89-.33-1.39-.45-.51-.09-1.2-.13-2.09-.13-3.54-.06-5.33,2.34-5.35,7.21v9.43h-8.8v-23.88Z"/>
    <path class="uuid-93b2ab2e-7aab-478c-b463-6deca7645bb5" d="m1781.77,203.89c-.32,1.08-.7,2.22-1.15,3.41-.48,1.18-1.06,2.25-1.74,3.21-1.19,1.41-2.6,2.27-4.24,2.58-1.62.27-3.31.39-5.07.36h-4v-7.28h2.11c.49,0,1-.01,1.5-.04.49,0,.91-.06,1.26-.18.27-.12.49-.33.67-.63.13-.28.2-.67.2-1.17,0-.36-.17-1.06-.52-2.11-.36-1.03-.79-2.19-1.28-3.48-1.05-2.8-1.79-4.7-2.22-5.71l-3.97-11.01h9.44l3.7,13.69h.09l3.76-13.69h9.11l-7.65,22.03Z"/>
    <path class="uuid-93b2ab2e-7aab-478c-b463-6deca7645bb5" d="m1528.5,210.9h13.95l4.55,19.32h.09l4.55-19.32h13.93v32.84h-9.25v-21.07h-.11l-5.51,21.07h-7.32l-5.53-21.07h-.09v21.07h-9.25v-32.84Z"/>
    <path class="uuid-93b2ab2e-7aab-478c-b463-6deca7645bb5" d="m1596.05,231.8c0,3.4-1.04,6.31-3.11,8.73-2.06,2.48-5.32,3.75-9.77,3.81-4.4-.06-7.64-1.33-9.73-3.82-2.13-2.43-3.18-5.34-3.13-8.74-.04-3.44,1-6.36,3.13-8.76,2.09-2.44,5.33-3.69,9.73-3.75,4.46.06,7.71,1.31,9.77,3.75,2.07,2.4,3.11,5.32,3.11,8.77Zm-8.8,0c0-.65-.03-1.33-.09-2.05-.09-.71-.29-1.34-.58-1.89-.28-.6-.68-1.09-1.19-1.46-.58-.34-1.31-.52-2.2-.52s-1.54.17-2.06.52c-.58.38-1,.86-1.29,1.46-.51,1.23-.75,2.54-.72,3.94,0,.62.06,1.26.19,1.94.09.68.27,1.32.54,1.94.28.62.71,1.1,1.29,1.46.51.41,1.2.61,2.06.61s1.62-.2,2.2-.61c.51-.36.91-.85,1.19-1.46.48-1.26.71-2.55.68-3.87Z"/>
    <path class="uuid-93b2ab2e-7aab-478c-b463-6deca7645bb5" d="m1625.03,231.8c0,3.4-1.04,6.31-3.11,8.73-2.06,2.48-5.32,3.75-9.77,3.81-4.4-.06-7.64-1.33-9.73-3.82-2.13-2.43-3.18-5.34-3.13-8.74-.04-3.44,1-6.36,3.13-8.76,2.09-2.44,5.33-3.69,9.73-3.75,4.46.06,7.71,1.31,9.77,3.75,2.07,2.4,3.11,5.32,3.11,8.77Zm-8.8,0c0-.65-.03-1.33-.09-2.05-.09-.71-.29-1.34-.58-1.89-.28-.6-.68-1.09-1.19-1.46-.58-.34-1.31-.52-2.2-.52s-1.54.17-2.06.52c-.58.38-1,.86-1.29,1.46-.51,1.23-.75,2.54-.72,3.94,0,.62.06,1.26.19,1.94.09.68.27,1.32.54,1.94.28.62.71,1.1,1.29,1.46.51.41,1.2.61,2.06.61s1.62-.2,2.2-.61c.51-.36.91-.85,1.19-1.46.48-1.26.71-2.55.68-3.87Z"/>
    <path class="uuid-93b2ab2e-7aab-478c-b463-6deca7645bb5" d="m1629.77,219.86h8.77v3.03h.09c1.61-2.41,4.2-3.62,7.76-3.62,2.16,0,4.01.66,5.57,1.98,1.54,1.32,2.32,3.35,2.35,6.11v16.37h-8.8v-12.53c.03-1.41-.13-2.55-.49-3.42-.38-.85-1.25-1.28-2.63-1.28-.86-.03-1.68.25-2.46.83-.38.3-.7.76-.96,1.37-.25.65-.38,1.45-.38,2.41v12.62h-8.8v-23.88Z"/>
  </g>
  <g>
    <path class="uuid-93b2ab2e-7aab-478c-b463-6deca7645bb5" d="m1550.49,103.91h5.66v4.48h-5.66v10.5h-4.96v-10.5h-21.06v-4.78l20.65-26.73h5.37v27.02Zm-4.96,0v-20.53l-15.87,20.53h15.87Z"/>
    <path class="uuid-93b2ab2e-7aab-478c-b463-6deca7645bb5" d="m1565.07,114.41h22.18v4.48h-27.73l.12-2.3c.24-3.46,1.02-6.43,2.36-8.91,1.34-2.48,3.6-4.64,6.79-6.49l5.31-3.07c2.67-1.57,4.57-3.11,5.69-4.6,1.12-1.49,1.68-3.3,1.68-5.43,0-2.32-.74-4.18-2.21-5.58-1.48-1.4-3.51-2.09-6.11-2.09-5.86,0-8.79,3.01-8.79,9.03h-4.9c-.04-4.29,1.16-7.61,3.6-9.97,2.44-2.36,5.84-3.54,10.21-3.54,3.97,0,7.2,1.12,9.68,3.36,2.48,2.32,3.72,5.25,3.72,8.79,0,5.43-3.19,9.99-9.56,13.69l-4.48,2.6c-2.6,1.57-4.46,3.1-5.61,4.57-1.14,1.47-1.79,3.29-1.95,5.46Z"/>
    <path class="uuid-93b2ab2e-7aab-478c-b463-6deca7645bb5" d="m1604.83,91.52c4.48,0,7.98,1.32,10.5,3.95,2.52,2.63,3.78,6.04,3.78,10.21s-1.32,7.51-3.95,10.15c-2.67,2.68-6.21,4.01-10.62,4.01-4.01,0-7.34-1.16-9.97-3.48-2.64-2.28-4.07-5.33-4.31-9.15h4.96c.24,2.52,1.22,4.5,2.95,5.96,1.73,1.46,3.85,2.18,6.37,2.18,2.75,0,5-.89,6.76-2.68,1.75-1.79,2.63-4.12,2.63-6.99s-.88-5.2-2.63-6.99c-1.75-1.79-4-2.68-6.76-2.68-4.13,0-7,1.69-8.61,5.07h-4.6l3.54-24.19h21.71v4.48h-17.7l-2.01,13.22c2.28-2.04,4.94-3.07,7.97-3.07Z"/>
    <path class="uuid-93b2ab2e-7aab-478c-b463-6deca7645bb5" d="m1646.37,79.37c2.28,1.85,3.89,4.3,4.84,7.35.94,3.05,1.42,6.87,1.42,11.48,0,6.92-1.33,12.34-3.98,16.25-2.66,3.92-6.44,5.87-11.36,5.87-3.78,0-6.9-1-9.38-3.01-2.48-2.01-4.03-4.78-4.66-8.32h4.84c.47,2.2,1.5,3.89,3.1,5.07,1.59,1.18,3.63,1.77,6.11,1.77,6.8,0,10.27-5.6,10.38-16.81-1.14,1.69-2.71,3.07-4.69,4.13-1.99,1.06-3.98,1.59-5.99,1.59-4.41,0-7.89-1.34-10.44-4.01-2.6-2.67-3.89-6.06-3.89-10.15s1.32-7.51,3.95-10.15c2.6-2.67,6.1-4.01,10.5-4.01,3.66,0,6.75.98,9.26,2.95Zm-15.93,18.17c1.69,1.81,3.91,2.71,6.67,2.71s4.96-.9,6.73-2.71c1.77-1.77,2.66-4.09,2.66-6.96s-.88-5.17-2.66-7.02c-1.77-1.77-4.01-2.66-6.73-2.66s-4.98.91-6.67,2.71c-1.73,1.85-2.6,4.17-2.6,6.96s.87,5.11,2.6,6.96Z"/>
  </g>
  <g>
    <path class="uuid-93b2ab2e-7aab-478c-b463-6deca7645bb5" d="m1229.39,114.08c4.05,2.11,6.07,5.15,6.07,9.13,0,3.3-1.16,5.95-3.47,7.96-2.28,2.04-5.29,3.06-9.03,3.06-4.05,0-7.18-1.05-9.41-3.16-2.23-2.11-3.32-4.98-3.29-8.62h4.23c.07,2.58.83,4.55,2.29,5.89,1.46,1.34,3.52,2.01,6.17,2.01,2.45,0,4.39-.65,5.84-1.94,1.44-1.29,2.17-3.03,2.17-5.2s-.74-3.97-2.22-5.28c-1.48-1.31-3.49-1.96-6.04-1.96h-2.7v-3.57h2.45c2.41,0,4.27-.54,5.58-1.63,1.31-1.09,1.96-2.6,1.96-4.54s-.66-3.39-1.96-4.46c-1.31-1.07-3.08-1.61-5.33-1.61s-4.09.59-5.43,1.76c-1.34,1.17-2.07,2.9-2.17,5.18h-4.28c.03-3.3,1.11-5.92,3.24-7.88,2.12-1.96,5.01-2.93,8.64-2.93s6.32.88,8.44,2.63c2.12,1.75,3.19,4.16,3.19,7.22,0,3.47-1.65,6.12-4.95,7.96Z"/>
    <path class="uuid-93b2ab2e-7aab-478c-b463-6deca7645bb5" d="m1260.09,110.87v-13.77h4.08v36.31h-3.88v-4.08c-2.11,3.13-5.12,4.69-9.03,4.69-3.71,0-6.67-1.26-8.87-3.77-2.24-2.52-3.37-5.85-3.37-10s1.12-7.56,3.37-10.05c2.17-2.48,5.13-3.72,8.87-3.72s6.71,1.46,8.82,4.39Zm-14.48,16.88c1.53,1.73,3.59,2.6,6.17,2.6s4.64-.9,6.17-2.7c1.53-1.77,2.29-4.23,2.29-7.39s-.76-5.59-2.29-7.4c-1.53-1.8-3.59-2.7-6.17-2.7s-4.6.93-6.15,2.78c-1.55,1.85-2.32,4.36-2.32,7.52s.76,5.56,2.29,7.29Z"/>
    <path class="uuid-93b2ab2e-7aab-478c-b463-6deca7645bb5" d="m1306.91,122.9l.36,5.86c.17,2.04.61,3.59,1.33,4.64h-4.44c-.75-1.09-1.14-2.7-1.17-4.85l-.15-3.88c-.1-2.45-.65-4.19-1.63-5.23-.99-1.04-2.6-1.55-4.85-1.55h-11.83v15.5h-4.28v-36.31h15.35c3.74,0,6.72.87,8.95,2.6,2.23,1.73,3.34,4.17,3.34,7.29,0,2.21-.54,4.07-1.61,5.58-1.07,1.51-2.52,2.58-4.36,3.19,3.06.95,4.73,3.33,5,7.14Zm-22.39-8.87h11.58c2.28,0,4.07-.59,5.38-1.76,1.31-1.17,1.96-2.85,1.96-5.02s-.69-3.64-2.07-4.69c-1.38-1.05-3.31-1.58-5.79-1.58h-11.07v13.06Z"/>
    <path class="uuid-93b2ab2e-7aab-478c-b463-6deca7645bb5" d="m1335.62,120.25v1.43h-19.99c.2,2.86,1,5.01,2.4,6.45,1.39,1.45,3.3,2.17,5.71,2.17,3.64,0,5.97-1.63,6.99-4.9h4.23c-.71,2.65-2.04,4.75-3.98,6.3-1.94,1.55-4.39,2.32-7.34,2.32-3.64,0-6.58-1.24-8.82-3.72-2.28-2.48-3.42-5.83-3.42-10.05s1.12-7.48,3.37-10c2.21-2.52,5.13-3.77,8.77-3.77s6.73,1.31,8.87,3.93c2.14,2.62,3.21,5.9,3.21,9.84Zm-12.09-10.05c-2.14,0-3.89.67-5.25,2.01-1.36,1.34-2.21,3.27-2.55,5.79h15.5c-.2-2.31-.99-4.19-2.35-5.64-1.36-1.44-3.15-2.17-5.36-2.17Z"/>
    <path class="uuid-93b2ab2e-7aab-478c-b463-6deca7645bb5" d="m1352.61,106.48c2.92,0,5.2.8,6.83,2.4,1.63,1.6,2.45,3.84,2.45,6.73v17.8h-4.08v-17.39c0-3.91-2.01-5.86-6.02-5.86-1.9,0-3.59.71-5.05,2.14s-2.19,3.5-2.19,6.22v14.89h-4.08v-26.32h3.88v3.93c2.01-3.03,4.76-4.54,8.26-4.54Z"/>
    <path class="uuid-93b2ab2e-7aab-478c-b463-6deca7645bb5" d="m1387.79,110.87v-13.77h4.08v36.31h-3.88v-4.08c-2.11,3.13-5.12,4.69-9.03,4.69-3.71,0-6.67-1.26-8.87-3.77-2.24-2.52-3.37-5.85-3.37-10s1.12-7.56,3.37-10.05c2.17-2.48,5.13-3.72,8.87-3.72s6.71,1.46,8.82,4.39Zm-14.48,16.88c1.53,1.73,3.59,2.6,6.17,2.6s4.64-.9,6.17-2.7c1.53-1.77,2.29-4.23,2.29-7.39s-.76-5.59-2.29-7.4c-1.53-1.8-3.59-2.7-6.17-2.7s-4.6.93-6.15,2.78c-1.55,1.85-2.32,4.36-2.32,7.52s.76,5.56,2.29,7.29Z"/>
    <path class="uuid-93b2ab2e-7aab-478c-b463-6deca7645bb5" d="m1420.95,120.25v1.43h-19.99c.2,2.86,1,5.01,2.4,6.45,1.39,1.45,3.3,2.17,5.71,2.17,3.64,0,5.97-1.63,6.99-4.9h4.23c-.71,2.65-2.04,4.75-3.98,6.3-1.94,1.55-4.39,2.32-7.34,2.32-3.64,0-6.58-1.24-8.82-3.72-2.28-2.48-3.42-5.83-3.42-10.05s1.12-7.48,3.37-10c2.21-2.52,5.13-3.77,8.77-3.77s6.73,1.31,8.87,3.93c2.14,2.62,3.21,5.9,3.21,9.84Zm-12.09-10.05c-2.14,0-3.89.67-5.25,2.01-1.36,1.34-2.21,3.27-2.55,5.79h15.5c-.2-2.31-.99-4.19-2.35-5.64-1.36-1.44-3.15-2.17-5.36-2.17Z"/>
    <path class="uuid-93b2ab2e-7aab-478c-b463-6deca7645bb5" d="m1438.13,106.68c.68,0,1.14.02,1.38.05v3.93h-1.02c-2.72,0-4.84.67-6.35,2.01s-2.27,3.26-2.27,5.74v14.99h-4.08v-26.32h3.88v4.64c1.77-3.37,4.59-5.05,8.47-5.05Z"/>
    <path class="uuid-93b2ab2e-7aab-478c-b463-6deca7645bb5" d="m1447.52,103.11h-4.33v-5h4.33v5Zm-.1,30.29h-4.08v-26.32h4.08v26.32Z"/>
    <path class="uuid-93b2ab2e-7aab-478c-b463-6deca7645bb5" d="m1465.67,106.48c2.92,0,5.2.8,6.83,2.4,1.63,1.6,2.45,3.84,2.45,6.73v17.8h-4.08v-17.39c0-3.91-2.01-5.86-6.02-5.86-1.9,0-3.59.71-5.05,2.14s-2.19,3.5-2.19,6.22v14.89h-4.08v-26.32h3.88v3.93c2.01-3.03,4.76-4.54,8.26-4.54Z"/>
    <path class="uuid-93b2ab2e-7aab-478c-b463-6deca7645bb5" d="m1501.07,110.92v-3.83h3.88v25.3c0,3.6-1.05,6.44-3.16,8.52-2.11,2.07-5.13,3.11-9.08,3.11-3.26,0-5.88-.75-7.85-2.24-1.97-1.5-3.09-3.57-3.37-6.22h4.08c.51,3.33,2.89,5,7.14,5,5.44,0,8.16-2.72,8.16-8.16v-2.55c-2.07,2.79-5.02,4.18-8.82,4.18s-6.67-1.26-8.87-3.77c-2.24-2.52-3.37-5.85-3.37-10s1.12-7.56,3.37-10.05c2.17-2.48,5.13-3.72,8.87-3.72s6.92,1.48,9.03,4.44Zm-8.52,19.43c2.58,0,4.64-.9,6.17-2.7,1.53-1.8,2.29-4.27,2.29-7.39s-.76-5.59-2.29-7.4c-1.53-1.8-3.59-2.7-6.17-2.7s-4.6.92-6.15,2.75c-1.55,1.84-2.32,4.28-2.32,7.34s.77,5.51,2.32,7.34c1.55,1.84,3.6,2.75,6.15,2.75Z"/>
    <path class="uuid-93b2ab2e-7aab-478c-b463-6deca7645bb5" d="m1141.87,188.41h-4.28v-36.31h4.28v36.31Z"/>
    <path class="uuid-93b2ab2e-7aab-478c-b463-6deca7645bb5" d="m1175.94,161.48c2.86,0,5.07.83,6.66,2.47,1.58,1.65,2.37,3.85,2.37,6.6v17.85h-4.08v-17.44c0-3.88-1.84-5.81-5.51-5.81-1.94,0-3.54.77-4.82,2.32-1.27,1.55-1.91,3.73-1.91,6.55v14.38h-4.08v-17.44c0-3.88-1.84-5.81-5.51-5.81-1.9,0-3.5.77-4.79,2.32-1.29,1.55-1.94,3.73-1.94,6.55v14.38h-4.08v-26.32h3.88v3.88c1.73-2.99,4.27-4.49,7.6-4.49,3.94,0,6.65,1.65,8.11,4.95,1.84-3.3,4.54-4.95,8.11-4.95Z"/>
    <path class="uuid-93b2ab2e-7aab-478c-b463-6deca7645bb5" d="m1218.78,161.48c2.86,0,5.07.83,6.66,2.47,1.58,1.65,2.37,3.85,2.37,6.6v17.85h-4.08v-17.44c0-3.88-1.84-5.81-5.51-5.81-1.94,0-3.54.77-4.82,2.32-1.27,1.55-1.91,3.73-1.91,6.55v14.38h-4.08v-17.44c0-3.88-1.84-5.81-5.51-5.81-1.9,0-3.5.77-4.79,2.32-1.29,1.55-1.94,3.73-1.94,6.55v14.38h-4.08v-26.32h3.88v3.88c1.73-2.99,4.27-4.49,7.6-4.49,3.94,0,6.65,1.65,8.11,4.95,1.84-3.3,4.54-4.95,8.11-4.95Z"/>
    <path class="uuid-93b2ab2e-7aab-478c-b463-6deca7645bb5" d="m1256.88,175.25v1.43h-19.99c.2,2.86,1,5.01,2.4,6.45,1.39,1.45,3.3,2.17,5.71,2.17,3.64,0,5.97-1.63,6.99-4.9h4.23c-.71,2.65-2.04,4.75-3.98,6.3-1.94,1.55-4.39,2.32-7.34,2.32-3.64,0-6.58-1.24-8.82-3.72-2.28-2.48-3.42-5.83-3.42-10.05s1.12-7.48,3.37-10c2.21-2.52,5.13-3.77,8.77-3.77s6.73,1.31,8.87,3.93c2.14,2.62,3.21,5.9,3.21,9.84Zm-12.09-10.05c-2.14,0-3.89.67-5.25,2.01-1.36,1.34-2.21,3.27-2.55,5.79h15.5c-.2-2.31-.99-4.19-2.35-5.64-1.36-1.44-3.15-2.17-5.36-2.17Z"/>
    <path class="uuid-93b2ab2e-7aab-478c-b463-6deca7645bb5" d="m1274.07,161.68c.68,0,1.14.02,1.38.05v3.93h-1.02c-2.72,0-4.84.67-6.35,2.01s-2.27,3.26-2.27,5.74v14.99h-4.08v-26.32h3.88v4.64c1.77-3.37,4.59-5.05,8.47-5.05Z"/>
    <path class="uuid-93b2ab2e-7aab-478c-b463-6deca7645bb5" d="m1287.53,189.02c-7.04,0-10.76-2.99-11.17-8.98h4.13c.24,1.97.89,3.38,1.96,4.21,1.07.83,2.76,1.25,5.07,1.25,4.22,0,6.32-1.36,6.32-4.08,0-1.19-.43-2.09-1.3-2.7-.87-.61-2.44-1.14-4.72-1.58l-2.45-.46c-5.47-1.02-8.21-3.6-8.21-7.75,0-2.28.86-4.09,2.58-5.43,1.72-1.34,4.05-2.01,7.01-2.01,6.97,0,10.54,2.91,10.71,8.72h-4.08c-.1-1.9-.68-3.25-1.73-4.03-1.05-.78-2.69-1.17-4.9-1.17-1.77,0-3.13.34-4.08,1.02-.95.68-1.43,1.63-1.43,2.86,0,1.16.41,2.02,1.22,2.6.82.58,2.18,1.07,4.08,1.48l2.35.46c3.23.65,5.55,1.56,6.96,2.75,1.41,1.19,2.12,2.86,2.12,5,0,2.48-.93,4.41-2.78,5.79-1.85,1.38-4.41,2.07-7.68,2.07Z"/>
    <path class="uuid-93b2ab2e-7aab-478c-b463-6deca7645bb5" d="m1306.25,158.11h-4.33v-5h4.33v5Zm-.1,30.29h-4.08v-26.32h4.08v26.32Z"/>
    <path class="uuid-93b2ab2e-7aab-478c-b463-6deca7645bb5" d="m1325.42,173.77l4.33-11.68h4.39l-10.35,26.32h-4.28l-10.3-26.32h4.44l4.33,11.73c2.14,5.75,3.38,9.15,3.72,10.2.61-1.8,1.85-5.22,3.72-10.25Z"/>
    <path class="uuid-93b2ab2e-7aab-478c-b463-6deca7645bb5" d="m1358.88,175.25v1.43h-19.99c.2,2.86,1,5.01,2.4,6.45,1.39,1.45,3.3,2.17,5.71,2.17,3.64,0,5.97-1.63,6.99-4.9h4.23c-.71,2.65-2.04,4.75-3.98,6.3-1.94,1.55-4.39,2.32-7.34,2.32-3.64,0-6.58-1.24-8.82-3.72-2.28-2.48-3.42-5.83-3.42-10.05s1.12-7.48,3.37-10c2.21-2.52,5.13-3.77,8.77-3.77s6.73,1.31,8.87,3.93c2.14,2.62,3.21,5.9,3.21,9.84Zm-12.09-10.05c-2.14,0-3.89.67-5.25,2.01-1.36,1.34-2.21,3.27-2.55,5.79h15.5c-.2-2.31-.99-4.19-2.35-5.64-1.36-1.44-3.15-2.17-5.36-2.17Z"/>
    <path class="uuid-93b2ab2e-7aab-478c-b463-6deca7645bb5" d="m1373.67,152.1h12.24c5.51,0,9.86,1.6,13.06,4.79,3.16,3.2,4.74,7.65,4.74,13.36s-1.58,10.08-4.74,13.31c-3.23,3.23-7.58,4.85-13.06,4.85h-12.24v-36.31Zm4.28,32.44h7.96c4.28,0,7.57-1.26,9.87-3.77,2.29-2.52,3.44-6.02,3.44-10.51s-1.15-7.99-3.44-10.51c-2.29-2.52-5.58-3.77-9.87-3.77h-7.96v28.56Z"/>
    <path class="uuid-93b2ab2e-7aab-478c-b463-6deca7645bb5" d="m1412.73,158.11h-4.33v-5h4.33v5Zm-.1,30.29h-4.08v-26.32h4.08v26.32Z"/>
    <path class="uuid-93b2ab2e-7aab-478c-b463-6deca7645bb5" d="m1438.74,165.92v-3.83h3.88v25.3c0,3.6-1.05,6.44-3.16,8.52-2.11,2.07-5.13,3.11-9.08,3.11-3.26,0-5.88-.75-7.85-2.24-1.97-1.5-3.09-3.57-3.37-6.22h4.08c.51,3.33,2.89,5,7.14,5,5.44,0,8.16-2.72,8.16-8.16v-2.55c-2.07,2.79-5.02,4.18-8.82,4.18s-6.67-1.26-8.87-3.77c-2.24-2.52-3.37-5.85-3.37-10s1.12-7.56,3.37-10.05c2.17-2.48,5.13-3.72,8.87-3.72s6.92,1.48,9.03,4.44Zm-8.52,19.43c2.58,0,4.64-.9,6.17-2.7,1.53-1.8,2.29-4.27,2.29-7.39s-.76-5.59-2.29-7.4c-1.53-1.8-3.59-2.7-6.17-2.7s-4.6.92-6.15,2.75c-1.55,1.84-2.32,4.28-2.32,7.34s.77,5.51,2.32,7.34c1.55,1.84,3.6,2.75,6.15,2.75Z"/>
    <path class="uuid-93b2ab2e-7aab-478c-b463-6deca7645bb5" d="m1452.92,158.11h-4.33v-5h4.33v5Zm-.1,30.29h-4.08v-26.32h4.08v26.32Z"/>
    <path class="uuid-93b2ab2e-7aab-478c-b463-6deca7645bb5" d="m1470.46,162.09v3.57h-5.41v17.08c0,1.5,1,2.24,3.01,2.24h2.4v3.42c-1.12.1-2.09.15-2.91.15-4.39,0-6.58-1.82-6.58-5.46v-17.44h-4.33v-3.57h4.33v-7.45h4.08v7.45h5.41Z"/>
    <path class="uuid-93b2ab2e-7aab-478c-b463-6deca7645bb5" d="m1496.07,185.09h1.48v3.32c-.68.1-1.43.15-2.24.15-2.75,0-4.23-1.26-4.44-3.77-1.84,2.82-4.69,4.23-8.57,4.23-2.89,0-5.16-.67-6.81-2.01-1.65-1.34-2.47-3.24-2.47-5.69,0-4.76,3.25-7.48,9.74-8.16l3.77-.41c2.75-.31,4.13-1.51,4.13-3.62,0-1.46-.45-2.52-1.35-3.16-.9-.65-2.42-.97-4.56-.97-2.28,0-3.92.38-4.92,1.15-1,.76-1.57,2.12-1.71,4.05h-4.08c.34-5.81,3.91-8.72,10.71-8.72s9.89,2.55,9.89,7.65v14.69c0,.85.48,1.27,1.43,1.27Zm-13.57.46c2.18,0,4.08-.66,5.71-1.99,1.63-1.29,2.45-3.14,2.45-5.56v-3.11c-.75.58-1.9.95-3.47,1.12l-3.83.46c-2.21.27-3.78.78-4.72,1.53-.94.75-1.4,1.82-1.4,3.21s.44,2.42,1.33,3.19c.88.77,2.19,1.15,3.93,1.15Z"/>
    <path class="uuid-93b2ab2e-7aab-478c-b463-6deca7645bb5" d="m1504.94,188.41h-4.08v-36.31h4.08v36.31Z"/>
    <path class="uuid-93b2ab2e-7aab-478c-b463-6deca7645bb5" d="m1068.64,207.1h12.24c5.51,0,9.86,1.6,13.06,4.79,3.16,3.2,4.74,7.65,4.74,13.36s-1.58,10.08-4.74,13.31c-3.23,3.23-7.58,4.84-13.06,4.84h-12.24v-36.31Zm4.28,32.44h7.96c4.28,0,7.57-1.26,9.87-3.77,2.29-2.52,3.44-6.02,3.44-10.51s-1.15-7.99-3.44-10.51c-2.29-2.52-5.58-3.77-9.87-3.77h-7.96v28.56Z"/>
    <path class="uuid-93b2ab2e-7aab-478c-b463-6deca7645bb5" d="m1126.73,230.25v1.43h-19.99c.2,2.86,1,5.01,2.4,6.45,1.39,1.45,3.3,2.17,5.71,2.17,3.64,0,5.97-1.63,6.99-4.9h4.23c-.71,2.65-2.04,4.75-3.98,6.3-1.94,1.55-4.39,2.32-7.34,2.32-3.64,0-6.58-1.24-8.82-3.72-2.28-2.48-3.42-5.83-3.42-10.05s1.12-7.48,3.37-10c2.21-2.52,5.13-3.77,8.77-3.77s6.73,1.31,8.87,3.93c2.14,2.62,3.21,5.9,3.21,9.84Zm-12.09-10.05c-2.14,0-3.89.67-5.25,2.01-1.36,1.34-2.21,3.27-2.55,5.79h15.5c-.2-2.31-.99-4.19-2.35-5.63-1.36-1.45-3.15-2.17-5.36-2.17Z"/>
    <path class="uuid-93b2ab2e-7aab-478c-b463-6deca7645bb5" d="m1140.6,244.02c-7.04,0-10.76-2.99-11.17-8.98h4.13c.24,1.97.89,3.38,1.96,4.21s2.76,1.25,5.07,1.25c4.22,0,6.32-1.36,6.32-4.08,0-1.19-.43-2.09-1.3-2.7-.87-.61-2.44-1.14-4.72-1.58l-2.45-.46c-5.47-1.02-8.21-3.6-8.21-7.75,0-2.28.86-4.09,2.58-5.43s4.05-2.01,7.01-2.01c6.97,0,10.54,2.91,10.71,8.72h-4.08c-.1-1.9-.68-3.25-1.73-4.03-1.05-.78-2.69-1.17-4.9-1.17-1.77,0-3.13.34-4.08,1.02-.95.68-1.43,1.63-1.43,2.86,0,1.16.41,2.02,1.22,2.6s2.18,1.07,4.08,1.48l2.35.46c3.23.65,5.55,1.56,6.96,2.75,1.41,1.19,2.12,2.86,2.12,5,0,2.48-.93,4.41-2.78,5.79-1.85,1.38-4.41,2.07-7.68,2.07Z"/>
    <path class="uuid-93b2ab2e-7aab-478c-b463-6deca7645bb5" d="m1159.32,213.11h-4.33v-5h4.33v5Zm-.1,30.29h-4.08v-26.32h4.08v26.32Z"/>
    <path class="uuid-93b2ab2e-7aab-478c-b463-6deca7645bb5" d="m1185.33,220.92v-3.83h3.88v25.3c0,3.6-1.05,6.44-3.16,8.52-2.11,2.07-5.13,3.11-9.08,3.11-3.26,0-5.88-.75-7.85-2.24-1.97-1.5-3.09-3.57-3.37-6.22h4.08c.51,3.33,2.89,5,7.14,5,5.44,0,8.16-2.72,8.16-8.16v-2.55c-2.07,2.79-5.02,4.18-8.82,4.18s-6.67-1.26-8.87-3.77c-2.24-2.52-3.37-5.85-3.37-10s1.12-7.56,3.37-10.05c2.17-2.48,5.13-3.72,8.87-3.72s6.92,1.48,9.03,4.44Zm-8.52,19.43c2.58,0,4.64-.9,6.17-2.7s2.29-4.27,2.29-7.4-.76-5.59-2.29-7.39c-1.53-1.8-3.59-2.7-6.17-2.7s-4.6.92-6.15,2.75c-1.55,1.84-2.32,4.28-2.32,7.34s.77,5.51,2.32,7.34c1.55,1.84,3.6,2.75,6.15,2.75Z"/>
    <path class="uuid-93b2ab2e-7aab-478c-b463-6deca7645bb5" d="m1207.46,216.48c2.92,0,5.2.8,6.83,2.4,1.63,1.6,2.45,3.84,2.45,6.73v17.8h-4.08v-17.39c0-3.91-2.01-5.87-6.02-5.87-1.9,0-3.59.71-5.05,2.14-1.46,1.43-2.19,3.5-2.19,6.22v14.89h-4.08v-26.32h3.88v3.93c2.01-3.03,4.76-4.54,8.26-4.54Z"/>
    <path class="uuid-93b2ab2e-7aab-478c-b463-6deca7645bb5" d="m1245.46,216.48c3.71,0,6.68,1.24,8.92,3.72,2.21,2.52,3.32,5.87,3.32,10.05s-1.11,7.48-3.32,10c-2.24,2.52-5.22,3.77-8.92,3.77-3.91,0-6.92-1.56-9.03-4.69v4.08h-3.88v-36.31h4.08v13.77c2.11-2.92,5.05-4.39,8.82-4.39Zm-.51,23.87c2.55,0,4.6-.93,6.15-2.78,1.55-1.85,2.32-4.36,2.32-7.52s-.76-5.52-2.27-7.27c-1.51-1.75-3.58-2.63-6.2-2.63s-4.64.88-6.17,2.65c-1.53,1.77-2.29,4.25-2.29,7.45s.76,5.63,2.29,7.4c1.53,1.8,3.59,2.7,6.17,2.7Z"/>
    <path class="uuid-93b2ab2e-7aab-478c-b463-6deca7645bb5" d="m1273.96,228.01l3.72-10.91h4.44l-11.12,30.45c-.78,2.21-1.85,3.77-3.21,4.67-1.36.9-3.15,1.35-5.35,1.35-.75,0-1.56-.05-2.45-.15v-3.42h2.4c2.35,0,3.94-1.09,4.79-3.26l.92-2.45-9.89-27.18h4.49l3.72,10.97c1.33,3.88,2.58,7.67,3.77,11.37.99-3.16,2.24-6.97,3.77-11.42Z"/>
    <path class="uuid-93b2ab2e-7aab-478c-b463-6deca7645bb5" d="m1317.82,227.14l8.11-20.04h5.61v36.31h-4.18v-11.63c0-7.65.05-13.82.15-18.51-.82,2.24-1.89,5-3.21,8.26l-8.98,21.88h-3.67l-9.03-21.88c-1.33-3.26-2.4-6.02-3.21-8.26.1,4.69.15,10.86.15,18.51v11.63h-4.18v-36.31h5.61l8.42,20.66c1.26,3.09,2.63,6.58,4.13,10.46,2.07-5.51,3.5-9.2,4.28-11.07Z"/>
    <path class="uuid-93b2ab2e-7aab-478c-b463-6deca7645bb5" d="m1358.57,240.25c-2.41,2.52-5.47,3.77-9.18,3.77s-6.77-1.26-9.18-3.77c-2.38-2.48-3.57-5.81-3.57-10s1.19-7.51,3.57-10c2.41-2.52,5.47-3.77,9.18-3.77s6.77,1.26,9.18,3.77c2.38,2.48,3.57,5.81,3.57,10s-1.19,7.51-3.57,10Zm-15.35-2.6c1.53,1.8,3.59,2.7,6.17,2.7s4.64-.9,6.17-2.7c1.53-1.77,2.29-4.23,2.29-7.4s-.76-5.68-2.29-7.45-3.59-2.65-6.17-2.65-4.64.88-6.17,2.65c-1.53,1.77-2.29,4.25-2.29,7.45s.76,5.63,2.29,7.4Z"/>
    <path class="uuid-93b2ab2e-7aab-478c-b463-6deca7645bb5" d="m1389.38,243.41h-4.74l-8.87-14.13-4.69,4.39v9.74h-4.08v-36.31h4.08v21.78l12.19-11.78h5.41l-10,9.49,10.71,16.83Z"/>
    <path class="uuid-93b2ab2e-7aab-478c-b463-6deca7645bb5" d="m1396.36,213.11h-4.33v-5h4.33v5Zm-.1,30.29h-4.08v-26.32h4.08v26.32Z"/>
    <path class="uuid-93b2ab2e-7aab-478c-b463-6deca7645bb5" d="m1415.28,216.48c3.71,0,6.68,1.24,8.92,3.72,2.21,2.52,3.32,5.87,3.32,10.05s-1.11,7.48-3.32,10c-2.24,2.52-5.22,3.77-8.92,3.77-3.91,0-6.92-1.56-9.03-4.69v4.08h-3.88v-36.31h4.08v13.77c2.11-2.92,5.05-4.39,8.82-4.39Zm-.51,23.87c2.55,0,4.6-.93,6.15-2.78,1.55-1.85,2.32-4.36,2.32-7.52s-.76-5.52-2.27-7.27c-1.51-1.75-3.58-2.63-6.2-2.63s-4.64.88-6.17,2.65c-1.53,1.77-2.29,4.25-2.29,7.45s.76,5.63,2.29,7.4c1.53,1.8,3.59,2.7,6.17,2.7Z"/>
    <path class="uuid-93b2ab2e-7aab-478c-b463-6deca7645bb5" d="m1453.38,240.09h1.48v3.32c-.68.1-1.43.15-2.24.15-2.75,0-4.23-1.26-4.44-3.77-1.84,2.82-4.69,4.23-8.57,4.23-2.89,0-5.16-.67-6.81-2.01-1.65-1.34-2.47-3.24-2.47-5.69,0-4.76,3.25-7.48,9.74-8.16l3.77-.41c2.75-.31,4.13-1.51,4.13-3.62,0-1.46-.45-2.52-1.35-3.16-.9-.65-2.42-.97-4.56-.97-2.28,0-3.92.38-4.92,1.15-1,.77-1.57,2.12-1.71,4.05h-4.08c.34-5.81,3.91-8.72,10.71-8.72s9.89,2.55,9.89,7.65v14.69c0,.85.48,1.27,1.43,1.27Zm-13.57.46c2.18,0,4.08-.66,5.71-1.99,1.63-1.29,2.45-3.14,2.45-5.56v-3.11c-.75.58-1.9.95-3.47,1.12l-3.83.46c-2.21.27-3.78.78-4.72,1.53-.94.75-1.4,1.82-1.4,3.21s.44,2.42,1.33,3.19c.88.77,2.19,1.15,3.93,1.15Z"/>
    <path class="uuid-93b2ab2e-7aab-478c-b463-6deca7645bb5" d="m1471.08,216.48c3.71,0,6.68,1.24,8.92,3.72,2.21,2.52,3.32,5.87,3.32,10.05s-1.11,7.48-3.32,10c-2.24,2.52-5.22,3.77-8.92,3.77-3.91,0-6.92-1.56-9.03-4.69v4.08h-3.88v-36.31h4.08v13.77c2.11-2.92,5.05-4.39,8.82-4.39Zm-.51,23.87c2.55,0,4.6-.93,6.15-2.78,1.55-1.85,2.32-4.36,2.32-7.52s-.76-5.52-2.27-7.27c-1.51-1.75-3.58-2.63-6.2-2.63s-4.64.88-6.17,2.65c-1.53,1.77-2.29,4.25-2.29,7.45s.76,5.63,2.29,7.4c1.53,1.8,3.59,2.7,6.17,2.7Z"/>
    <path class="uuid-93b2ab2e-7aab-478c-b463-6deca7645bb5" d="m1499.59,228.01l3.72-10.91h4.44l-11.12,30.45c-.78,2.21-1.85,3.77-3.21,4.67-1.36.9-3.15,1.35-5.35,1.35-.75,0-1.56-.05-2.45-.15v-3.42h2.4c2.35,0,3.94-1.09,4.79-3.26l.92-2.45-9.89-27.18h4.49l3.72,10.97c1.33,3.88,2.58,7.67,3.77,11.37.99-3.16,2.24-6.97,3.77-11.42Z"/>
  </g>
  <g>
    <path class="uuid-93b2ab2e-7aab-478c-b463-6deca7645bb5" d="m1866.6,151.06v11.28h-2.28v-14.1l1.17.06c1.76.12,3.27.52,4.53,1.2s2.36,1.83,3.3,3.45l1.56,2.7c.8,1.36,1.58,2.32,2.34,2.89.76.57,1.68.86,2.76.86,1.18,0,2.12-.38,2.83-1.12s1.06-1.79,1.06-3.11c0-2.98-1.53-4.47-4.59-4.47v-2.49c2.18-.02,3.87.59,5.07,1.83s1.8,2.97,1.8,5.19c0,2.02-.57,3.66-1.71,4.92-1.18,1.26-2.67,1.89-4.47,1.89-2.76,0-5.08-1.62-6.96-4.86l-1.32-2.28c-.8-1.32-1.58-2.27-2.33-2.85s-1.67-.91-2.77-.99Z"/>
    <path class="uuid-93b2ab2e-7aab-478c-b463-6deca7645bb5" d="m1866.6,167.5v11.28h-2.28v-14.1l1.17.06c1.76.12,3.27.52,4.53,1.2s2.36,1.83,3.3,3.45l1.56,2.7c.8,1.36,1.58,2.32,2.34,2.89.76.57,1.68.86,2.76.86,1.18,0,2.12-.38,2.83-1.12s1.06-1.79,1.06-3.11c0-2.98-1.53-4.47-4.59-4.47v-2.49c2.18-.02,3.87.59,5.07,1.83s1.8,2.97,1.8,5.19c0,2.02-.57,3.66-1.71,4.92-1.18,1.26-2.67,1.89-4.47,1.89-2.76,0-5.08-1.62-6.96-4.86l-1.32-2.28c-.8-1.32-1.58-2.27-2.33-2.85s-1.67-.91-2.77-.99Z"/>
    <path class="uuid-93b2ab2e-7aab-478c-b463-6deca7645bb5" d="m1871.7,188.98v-8.67h2.16v8.67h-2.16Z"/>
    <path class="uuid-93b2ab2e-7aab-478c-b463-6deca7645bb5" d="m1885.68,194.5v2.04h-21.36v-2.52h15.93v-4.86h1.98l.03.48c.1,1.52.4,2.65.9,3.39.5.74,1.34,1.23,2.52,1.47Z"/>
    <path class="uuid-93b2ab2e-7aab-478c-b463-6deca7645bb5" d="m1866.6,202.72v11.28h-2.28v-14.1l1.17.06c1.76.12,3.27.52,4.53,1.2s2.36,1.83,3.3,3.45l1.56,2.7c.8,1.36,1.58,2.32,2.34,2.89.76.57,1.68.86,2.76.86,1.18,0,2.12-.38,2.83-1.12s1.06-1.79,1.06-3.11c0-2.98-1.53-4.47-4.59-4.47v-2.49c2.18-.02,3.87.59,5.07,1.83s1.8,2.97,1.8,5.19c0,2.02-.57,3.66-1.71,4.92-1.18,1.26-2.67,1.89-4.47,1.89-2.76,0-5.08-1.62-6.96-4.86l-1.32-2.28c-.8-1.32-1.58-2.27-2.33-2.85s-1.67-.91-2.77-.99Z"/>
    <path class="uuid-93b2ab2e-7aab-478c-b463-6deca7645bb5" d="m1871.7,224.2v-8.67h2.16v8.67h-2.16Z"/>
    <path class="uuid-93b2ab2e-7aab-478c-b463-6deca7645bb5" d="m1885.68,229.72v2.04h-21.36v-2.52h15.93v-4.86h1.98l.03.48c.1,1.52.4,2.65.9,3.39.5.74,1.34,1.23,2.52,1.47Z"/>
    <path class="uuid-93b2ab2e-7aab-478c-b463-6deca7645bb5" d="m1866.72,248.74c-1.92-1.3-2.88-3.23-2.88-5.79s.96-4.51,2.88-5.79c1.94-1.3,4.7-1.95,8.28-1.95s6.34.65,8.28,1.95c1.92,1.28,2.88,3.21,2.88,5.79s-.96,4.49-2.88,5.79c-1.94,1.3-4.7,1.95-8.28,1.95s-6.34-.65-8.28-1.95Zm17.16-5.79c0-3.4-2.96-5.1-8.88-5.1s-8.88,1.7-8.88,5.1,2.96,5.1,8.88,5.1,8.88-1.7,8.88-5.1Z"/>
  </g>
</svg>