<?xml version="1.0" encoding="UTF-8"?>
<svg id="uuid-c28ecdaa-abd7-4d8f-99af-508b665a19d4" data-name="Layer 1" xmlns="http://www.w3.org/2000/svg" viewBox="0 0 1920 768">
  <defs>
    <style>
      .uuid-93bb4f61-ec99-448c-b703-a00eb2098f05 {
        fill: none;
      }

      .uuid-93bb4f61-ec99-448c-b703-a00eb2098f05, .uuid-b8a04144-efad-46d9-8b43-7e811c5df0b1 {
        stroke-width: 0px;
      }

      .uuid-b8a04144-efad-46d9-8b43-7e811c5df0b1 {
        fill: #fff;
      }
    </style>
  </defs>
  <rect class="uuid-93bb4f61-ec99-448c-b703-a00eb2098f05" x="129.4" y="192.67" width="532" height="532"/>
  <g>
    <g>
      <path class="uuid-b8a04144-efad-46d9-8b43-7e811c5df0b1" d="M813.76,185.69c-5.28-18.72-16.48-29.92-36-29.92-24.64,0-42.4,23.52-42.4,49.44,0,40,29.76,48.16,42.08,48.16,16.64,0,22.56-5.92,22.88-13.28l.64-12c.64-12.16-1.92-14.4-14.4-14.4v-3.2h40v3.2c-10.4,0-11.84,2.24-12,14.4l-.32,18.56c-6.4,3.84-18.72,9.92-36.16,9.92-42.56,0-58.72-28-58.72-50.4,0-29.28,23.36-53.6,57.76-53.6,20.64,0,32.64,6.72,39.04,11.84.8,5.92.32,14.24.48,21.28h-2.88Z"/>
      <path class="uuid-b8a04144-efad-46d9-8b43-7e811c5df0b1" d="M834.24,153.85h43.36v3.2c-15.2,0-17.12,2.24-17.12,14.4v50.56c0,16.48,11.84,28.16,32,28.16,22.4,0,28.96-12.48,29.76-33.92l1.6-44.8c.48-11.36-5.28-14.4-15.2-14.4v-3.2h34.4v3.2c-11.2,1.28-13.12,4.48-13.76,24.64l-1.28,37.44c-.48,18.56-6.56,37.44-39.2,37.44-26.4,0-41.12-11.2-41.12-34.88v-50.24c0-12.16-1.92-14.4-13.44-14.4v-3.2Z"/>
      <path class="uuid-b8a04144-efad-46d9-8b43-7e811c5df0b1" d="M1038.4,184.89c-3.52-11.2-12.8-29.12-36.16-29.12-18.24,0-35.84,15.68-35.84,49.92,0,28.16,16.48,47.68,39.84,47.68,16.48,0,28.8-11.36,35.04-26.4h3.2l-2.24,16c-4.96,6.08-19.2,13.6-38.24,13.6-35.04,0-53.6-24.16-53.6-49.44,0-30.4,20.48-54.56,53.44-54.56,11.2,0,30.24,4.96,38.24,12.48l-.8,19.84h-2.88Z"/>
      <path class="uuid-b8a04144-efad-46d9-8b43-7e811c5df0b1" d="M1142.4,184.89c-3.52-11.2-12.8-29.12-36.16-29.12-18.24,0-35.84,15.68-35.84,49.92,0,28.16,16.48,47.68,39.84,47.68,16.48,0,28.8-11.36,35.04-26.4h3.2l-2.24,16c-4.96,6.08-19.2,13.6-38.24,13.6-35.04,0-53.6-24.16-53.6-49.44,0-30.4,20.48-54.56,53.44-54.56,11.2,0,30.24,4.96,38.24,12.48l-.8,19.84h-2.88Z"/>
      <path class="uuid-b8a04144-efad-46d9-8b43-7e811c5df0b1" d="M1186.24,237.69c0,12.16,1.92,14.4,12.16,14.4v3.2h-38.4v-3.2c10.56,0,12.48-2.24,12.48-14.4v-66.24c0-12.16-1.92-14.4-12.48-14.4v-3.2h40.64v3.2c-12.48,0-14.4,2.24-14.4,14.4v66.24Z"/>
    </g>
    <path class="uuid-b8a04144-efad-46d9-8b43-7e811c5df0b1" d="M1028.49,340.76c-24,0-46.71,5.61-66.89,15.6-20.18-9.99-42.89-15.6-66.89-15.6-83.45,0-151.34,67.89-151.34,151.34s67.89,151.33,151.34,151.33c24,0,46.71-5.61,66.89-15.6,20.18,9.99,42.89,15.6,66.89,15.6,83.44,0,151.33-67.89,151.33-151.33s-67.89-151.34-151.33-151.34ZM1028.49,613.43c-12.68,0-24.9-1.95-36.4-5.58,22.48-18.94,39.38-44.29,47.86-73.2,2.81-9.57,4.69-19.53,5.55-29.77,0-.08.01-.15.02-.23l-71.81.23v29.77h34.63c-9.06,24.11-25.58,44.59-46.74,58.63-21.29-14.12-37.89-34.77-46.91-59.07h35.02v-29.56h-72.04c.01.16.02.32.04.48.85,10,2.68,19.72,5.4,29.08,8.44,29.1,25.4,54.61,48,73.64-11.49,3.63-23.72,5.58-36.4,5.58-66.91,0-121.34-54.43-121.34-121.33s54.43-121.34,121.34-121.34c12.68,0,24.91,1.96,36.41,5.58-23.11,19.47-40.32,45.72-48.56,75.65h31.42c8.84-25.17,25.75-46.57,47.62-61.08,21.86,14.51,38.77,35.91,47.61,61.08h31.42c-8.24-29.93-25.45-56.18-48.55-75.65,11.5-3.63,23.73-5.58,36.41-5.58,66.9,0,121.33,54.43,121.33,121.34s-54.43,121.33-121.33,121.33Z"/>
  </g>
</svg>