<?xml version="1.0" encoding="UTF-8"?>
<svg id="uuid-4b8d9b01-3e83-4073-9268-96aa11d4c6c2" data-name="Layer 1" xmlns="http://www.w3.org/2000/svg" viewBox="0 0 1920 640">
  <defs>
    <style>
      .uuid-b50bc559-9cff-4093-933e-015758854933 {
        fill: #fff;
        stroke-width: 0px;
      }
    </style>
  </defs>
  <path class="uuid-b50bc559-9cff-4093-933e-015758854933" d="M1129.9,482.59c-1.42,0-2.57,1.15-2.57,2.62s1.16,2.57,2.57,2.57,2.63-1.16,2.63-2.57-1.16-2.62-2.63-2.62M1099.81,473.97c.53-3.26,3.25-5.62,6.4-5.62s5.73,2.21,6.41,5.62h-12.81ZM1116.57,477.12v-.73c0-6.83-4.15-11.4-10.35-11.4s-10.61,4.67-10.61,11.34,4.36,11.56,10.66,11.56c4.46,0,7.66-1.95,10.08-6.2l-3.15-1.79c-.95,1.52-1.37,2.1-2.05,2.78-1.26,1.1-2.94,1.79-4.67,1.79-3.94,0-6.72-2.89-6.93-7.35h17.02ZM1085.9,467.04c-2.26-1.47-4.2-2.05-6.72-2.05-6.62,0-11.66,4.99-11.66,11.5s5.04,11.4,11.55,11.4c2.52,0,4.31-.58,6.99-2.26v-4.94c-2.52,2.84-4.31,3.78-7.19,3.78-4.2,0-7.51-3.52-7.51-8.04s3.31-8.04,7.66-8.04c2.68,0,4.47.95,6.88,3.57v-4.93ZM1045.73,468.35c4.3,0,7.35,3.25,7.35,7.88,0,4.88-2.94,8.25-7.3,8.25s-7.14-3.47-7.14-8.3c0-4.41,3.1-7.82,7.09-7.82M1052.81,465.47v3.1c-2.15-2.52-4.46-3.62-7.56-3.62-6.04,0-10.45,4.78-10.45,11.39s4.46,11.56,10.45,11.56c3.15,0,5.46-1.1,7.56-3.68v3.05h3.73v-21.79h-3.73ZM1021.77,468.93h5.51v-3.47h-5.51v-8.4c0-3.94.63-4.99,2.99-4.99.84,0,1.36.1,2.52.52v-3.78c-1.26-.37-1.79-.47-2.89-.47-2.05,0-3.84.79-4.99,2.21-.95,1.15-1.37,2.89-1.37,5.62v9.3h-2.05v3.47h2.05v18.33h3.73v-18.33ZM1003.24,482.59c-1.42,0-2.57,1.15-2.57,2.62s1.15,2.57,2.57,2.57,2.62-1.16,2.62-2.57-1.15-2.62-2.62-2.62M989.27,468.93c-1.31-2.63-3.31-3.94-5.83-3.94-3.78,0-6.51,2.57-6.51,6.09,0,2.89,1.26,4.15,6.3,6.35,2.73,1.16,3.52,1.94,3.52,3.62,0,1.94-1.52,3.41-3.52,3.41-2.1,0-3.15-.84-4.41-3.52l-3.31,1.37c1.42,3.73,3.99,5.57,7.67,5.57,4.15,0,7.4-3.1,7.4-7.09,0-2.05-.79-3.62-2.41-4.78-1-.73-1.63-1.05-4.15-2.1-2.84-1.16-3.52-1.84-3.52-3.15s1.21-2.36,2.68-2.36c1.26,0,2.21.68,2.99,2.15l3.1-1.63ZM955.24,468.35c4.15,0,7.14,3.41,7.14,8.29,0,4.36-3.1,7.83-7.09,7.83-4.25,0-7.35-3.31-7.35-7.88,0-4.88,2.99-8.24,7.3-8.24M948.21,499.55v-15.33c2.15,2.52,4.51,3.68,7.56,3.68,5.99,0,10.45-4.78,10.45-11.19,0-6.88-4.36-11.76-10.4-11.76-3.15,0-5.51,1.1-7.61,3.62v-3.1h-3.73v34.08h3.73ZM930.2,454.54c-1.47,0-2.68,1.2-2.68,2.68s1.21,2.68,2.68,2.68,2.68-1.21,2.68-2.68-1.2-2.68-2.68-2.68M932.03,465.47h-3.73v21.79h3.73v-21.79ZM915.91,448.98h-3.73v38.28h3.73v-38.28ZM897.38,482.59c-1.42,0-2.57,1.15-2.57,2.62s1.15,2.57,2.57,2.57,2.62-1.16,2.62-2.57-1.15-2.62-2.62-2.62M883.41,468.93c-1.31-2.63-3.31-3.94-5.83-3.94-3.78,0-6.51,2.57-6.51,6.09,0,2.89,1.26,4.15,6.3,6.35,2.73,1.16,3.52,1.94,3.52,3.62,0,1.94-1.52,3.41-3.52,3.41-2.1,0-3.15-.84-4.41-3.52l-3.31,1.37c1.42,3.73,3.99,5.57,7.67,5.57,4.15,0,7.4-3.1,7.4-7.09,0-2.05-.79-3.62-2.41-4.78-1-.73-1.63-1.05-4.15-2.1-2.84-1.16-3.52-1.84-3.52-3.15s1.21-2.36,2.68-2.36c1.26,0,2.21.68,2.99,2.15l3.1-1.63ZM843.66,473.97c.53-3.26,3.25-5.62,6.4-5.62s5.73,2.21,6.41,5.62h-12.81ZM860.41,477.12v-.73c0-6.83-4.15-11.4-10.35-11.4s-10.61,4.67-10.61,11.34,4.36,11.56,10.66,11.56c4.46,0,7.66-1.95,10.08-6.2l-3.15-1.79c-.95,1.52-1.37,2.1-2.05,2.78-1.26,1.1-2.94,1.79-4.67,1.79-3.94,0-6.72-2.89-6.93-7.35h17.02ZM819.13,485.21l-7.04,14.34h4.2l16.12-34.08h-4.25l-7.04,15.6-7.72-15.6h-4.3l10.03,19.74ZM785.37,473.97c.53-3.26,3.26-5.62,6.41-5.62s5.72,2.21,6.4,5.62h-12.81ZM802.12,477.12v-.73c0-6.83-4.15-11.4-10.34-11.4s-10.61,4.67-10.61,11.34,4.36,11.56,10.66,11.56c4.46,0,7.67-1.95,10.08-6.2l-3.15-1.79c-.95,1.52-1.36,2.1-2.05,2.78-1.26,1.1-2.94,1.79-4.67,1.79-3.94,0-6.72-2.89-6.93-7.35h17.02Z"/>
  <path class="uuid-b50bc559-9cff-4093-933e-015758854933" d="M855.09,261.5c25.15,0,50.3,17.92,53.06,61.67h-108.18c0-30.84,25.84-61.67,55.12-61.67M857.15,253.92c-41.46,0-76.93,27.56-76.93,82s39.5,84.76,79,84.76c27.22,0,47.2-13.78,60.29-25.84l-6.55-6.2s-19.29,22.39-49.61,22.39-64.08-21.99-64.08-78.55h127.82c0-33.42-19.64-78.55-69.94-78.55"/>
  <path class="uuid-b50bc559-9cff-4093-933e-015758854933" d="M942.6,407.23c-3.14,0-5.68,2.54-5.68,5.68s2.54,5.68,5.68,5.68,5.68-2.54,5.68-5.68-2.54-5.68-5.68-5.68"/>
  <path class="uuid-b50bc559-9cff-4093-933e-015758854933" d="M1020.86,407.23c-3.14,0-5.68,2.54-5.68,5.68s2.54,5.68,5.68,5.68,5.68-2.54,5.68-5.68-2.54-5.68-5.68-5.68"/>
  <path class="uuid-b50bc559-9cff-4093-933e-015758854933" d="M1097.81,407.23c-3.14,0-5.68,2.54-5.68,5.68s2.54,5.68,5.68,5.68,5.68-2.54,5.68-5.68-2.54-5.68-5.68-5.68"/>
  <path class="uuid-b50bc559-9cff-4093-933e-015758854933" d="M973.26,160.09v258.51h18.95V141.37c-9.48,0-18.95,4.59-18.95,18.72"/>
  <path class="uuid-b50bc559-9cff-4093-933e-015758854933" d="M1101.42,140.45c-26.88,0-51.91,19.06-51.91,64.08v214.07h18.38v-154.35h48.23v-10.33h-48.23v-49.84c0-30.09,8.27-55.36,36.06-55.36,15.39,0,25.27,10.11,30.09,16.77l5.74-5.05s-11.49-19.98-38.36-19.98"/>
</svg>