<?xml version="1.0" encoding="UTF-8"?>
<svg id="uuid-57e43533-7cb7-48d9-904a-34612e48aa3c" data-name="Layer 1" xmlns="http://www.w3.org/2000/svg" viewBox="0 0 1920 636">
  <defs>
    <style>
      .uuid-b8ad6f76-3728-429a-9b4c-74449e3dde07 {
        opacity: .7;
      }

      .uuid-5d2c94a6-9418-49ea-b6c3-911f20b27ac6 {
        isolation: isolate;
      }

      .uuid-30009e99-e5f5-4dab-ba6b-4145a36fe45c {
        fill: #ac26cc;
        stroke-width: 0px;
      }
    </style>
  </defs>
  <g class="uuid-b8ad6f76-3728-429a-9b4c-74449e3dde07">
    <g id="uuid-652ba2d2-a487-4263-ab2e-a487afc8057f" data-name="WE CAN SURVIVE" class="uuid-5d2c94a6-9418-49ea-b6c3-911f20b27ac6">
      <g class="uuid-5d2c94a6-9418-49ea-b6c3-911f20b27ac6">
        <path class="uuid-30009e99-e5f5-4dab-ba6b-4145a36fe45c" d="M157.11,171.15l15.33-55.46h13.75l-31.92,112.5h-14.85l-16.12-57.35c-4.53-16.22-7.95-28.91-10.27-38.08-2.32,9.16-5.74,21.86-10.27,38.08l-16.12,57.35h-14.85l-31.92-112.5h13.75l15.33,55.46c4.84,17.17,8.37,30.6,10.59,40.29,3.69-14.11,7.27-27.65,10.74-40.61l15.33-55.14h14.85l15.33,55.14c3.58,12.96,7.16,26.49,10.74,40.61,2.21-9.69,5.74-23.12,10.59-40.29Z"/>
        <path class="uuid-30009e99-e5f5-4dab-ba6b-4145a36fe45c" d="M272.29,115.69v12.01h-64.94v35.87h58.62v12.01h-58.62v40.61h64.31v12.01h-77.58v-112.5h78.21Z"/>
      </g>
      <g class="uuid-5d2c94a6-9418-49ea-b6c3-911f20b27ac6">
        <path class="uuid-30009e99-e5f5-4dab-ba6b-4145a36fe45c" d="M95.01,375.71c-15.27,0-27.76-5.32-37.45-15.96-9.69-10.64-14.54-24.91-14.54-42.82s4.84-32.18,14.54-42.82c9.69-10.64,22.17-15.96,37.45-15.96,12.11,0,22.44,3.29,30.97,9.88,8.53,6.58,14.17,16.2,16.91,28.83h-13.43c-4.74-17.7-16.22-26.54-34.44-26.54-11.48,0-20.7,4.11-27.65,12.32-6.95,8.32-10.43,19.75-10.43,34.29s3.48,25.91,10.43,34.13c6.95,8.32,16.17,12.48,27.65,12.48,8.64,0,16.33-2.69,23.07-8.06,6.64-5.16,10.69-12.9,12.17-23.23h13.27c-1.48,14.01-6.79,24.7-15.96,32.07-9.27,7.58-20.12,11.38-32.55,11.38Z"/>
        <path class="uuid-30009e99-e5f5-4dab-ba6b-4145a36fe45c" d="M244.8,373.19h-14.06l-13.11-32.71h-51.19l-12.96,32.71h-13.9l44.87-112.5h14.85l45.5,112.5ZM171.64,327.21l-.47,1.26h41.71l-.63-1.42c-2.63-6.42-9.48-23.75-20.54-51.98-7.48,20.01-14.17,37.39-20.07,52.14Z"/>
        <path class="uuid-30009e99-e5f5-4dab-ba6b-4145a36fe45c" d="M325.85,298.61v-37.92h13.11v112.5h-16.12l-37.29-57.99c-10.74-17.06-18.54-29.76-23.38-38.08.32,14.75.47,34.13.47,58.14v37.92h-13.11v-112.5h16.12l37.29,57.99c10.74,17.06,18.54,29.76,23.38,38.08-.32-14.75-.47-34.13-.47-58.14Z"/>
      </g>
      <g class="uuid-5d2c94a6-9418-49ea-b6c3-911f20b27ac6">
        <path class="uuid-30009e99-e5f5-4dab-ba6b-4145a36fe45c" d="M89.01,520.71c-14.64,0-26.07-3.32-34.29-9.95-8.22-6.64-12.38-16.54-12.48-29.7h13.75c.32,18.43,11.32,27.65,33.02,27.65,9.16,0,16.2-1.79,21.09-5.37,4.9-3.58,7.35-8.79,7.35-15.64,0-5.37-2.03-9.56-6.08-12.56-4.06-3-11.14-5.61-21.25-7.82l-9.95-2.21c-11.38-2.63-19.91-6.45-25.6-11.46-5.69-5-8.53-12.03-8.53-21.09s3.48-16.09,10.43-21.41c6.95-5.32,16.27-7.98,27.97-7.98,7.9,0,14.77.95,20.62,2.84,5.85,1.9,10.4,4.56,13.67,7.98,3.26,3.42,5.66,7.14,7.19,11.14,1.53,4,2.34,8.43,2.45,13.27h-13.59c-.63-8-3.24-13.88-7.82-17.62-4.58-3.74-12.09-5.61-22.52-5.61-7.9,0-13.98,1.53-18.25,4.58-4.27,3.06-6.4,7.32-6.4,12.8s1.84,9.74,5.53,12.8c3.58,3.06,10.53,5.74,20.86,8.06l9.95,2.21c12.43,2.74,21.38,6.66,26.86,11.77,5.48,5.11,8.22,11.88,8.22,20.3,0,10.22-3.74,18.28-11.22,24.17-7.48,5.9-17.8,8.85-30.97,8.85Z"/>
        <path class="uuid-30009e99-e5f5-4dab-ba6b-4145a36fe45c" d="M216.04,509.02c-7.69,7.69-18.59,11.53-32.71,11.53s-25.02-3.84-32.71-11.53c-7.69-7.69-11.53-18.54-11.53-32.55v-70.78h13.27v70.78c0,21.38,10.32,32.07,30.97,32.07s30.97-10.69,30.97-32.07v-70.78h13.27v70.78c0,14.01-3.85,24.86-11.53,32.55Z"/>
        <path class="uuid-30009e99-e5f5-4dab-ba6b-4145a36fe45c" d="M324.43,485.64l1.11,18.17c.53,6.32,1.9,11.11,4.11,14.38h-13.75c-2.32-3.37-3.53-8.37-3.63-15.01l-.47-12.01c-.32-7.58-2-12.98-5.06-16.2-3.06-3.21-8.06-4.82-15.01-4.82h-36.66v48.03h-13.27v-112.5h47.56c11.59,0,20.83,2.69,27.73,8.06,6.9,5.37,10.35,12.9,10.35,22.59,0,6.85-1.66,12.62-4.98,17.3-3.32,4.69-7.82,7.98-13.51,9.88,9.48,2.95,14.64,10.32,15.48,22.12ZM255.06,458.15h35.87c7.06,0,12.61-1.82,16.67-5.45,4.05-3.63,6.08-8.82,6.08-15.56s-2.13-11.27-6.4-14.54c-4.27-3.26-10.25-4.9-17.93-4.9h-34.29v40.45Z"/>
        <path class="uuid-30009e99-e5f5-4dab-ba6b-4145a36fe45c" d="M385.89,476.95l25.6-71.26h13.9l-41.71,112.5h-14.85l-42.34-112.5h14.06l26.07,71.26c4.74,13.38,7.95,22.7,9.64,27.97,1.58-5.27,4.79-14.59,9.64-27.97Z"/>
        <path class="uuid-30009e99-e5f5-4dab-ba6b-4145a36fe45c" d="M444.98,518.19h-13.27v-112.5h13.27v112.5Z"/>
        <path class="uuid-30009e99-e5f5-4dab-ba6b-4145a36fe45c" d="M510.71,476.95l25.6-71.26h13.9l-41.71,112.5h-14.85l-42.34-112.5h14.06l26.07,71.26c4.74,13.38,7.95,22.7,9.64,27.97,1.58-5.27,4.79-14.59,9.64-27.97Z"/>
        <path class="uuid-30009e99-e5f5-4dab-ba6b-4145a36fe45c" d="M634.74,405.69v12.01h-64.94v35.87h58.62v12.01h-58.62v40.61h64.31v12.01h-77.58v-112.5h78.21Z"/>
      </g>
    </g>
    <path id="uuid-d5b22311-e4cc-45df-9a94-5f83da8bbf73" data-name="Rectangle 947" class="uuid-30009e99-e5f5-4dab-ba6b-4145a36fe45c" d="M1772.5,212.19h0c15.46,0,28,12.54,28,28v257c0,15.46-12.54,28-28,28h0c-15.46,0-28-12.54-28-28V240.19c0-15.46,12.54-28,28-28Z"/>
    <path id="uuid-59c48544-82f7-43c8-9e31-42f90a73b55e" data-name="Rectangle 948" class="uuid-30009e99-e5f5-4dab-ba6b-4145a36fe45c" d="M1854.5,111.19h0c15.46,0,28,12.54,28,28v358c0,15.46-12.54,28-28,28h0c-15.46,0-28-12.54-28-28V139.19c0-15.46,12.54-28,28-28Z"/>
    <path id="uuid-1a5c730f-8376-4836-b3eb-0d3f727fe937" data-name="Rectangle 949" class="uuid-30009e99-e5f5-4dab-ba6b-4145a36fe45c" d="M1691.5,318.19h0c15.46,0,28,12.54,28,28v151c0,15.46-12.54,28-28,28h0c-15.46,0-28-12.54-28-28v-151c0-15.46,12.54-28,28-28Z"/>
  </g>
</svg>