<?xml version="1.0" encoding="UTF-8"?>
<svg id="uuid-0739c028-0163-4c3e-bcc1-4c89c3ec706d" data-name="Layer 1" xmlns="http://www.w3.org/2000/svg" viewBox="0 0 1923 325.02">
  <defs>
    <style>
      .uuid-643e3264-b8f0-4c45-8ca9-cd5a0ef20bd0 {
        fill: #fff;
        stroke-width: 0px;
      }
            .st4{fill:#FFFFFF;}
	.st3{fill:#FFFFFF;}
    </style>
  </defs>
  <g>
    <polygon class="st4" points="558.57 204.42 540.69 204.42 595.89 111.89 613.77 111.89 558.57 204.42"/>
    <polygon class="st4" points="606.68 204.42 588.8 204.42 644 111.89 661.88 111.89 606.68 204.42"/>
    <polygon class="st4" points="654.78 204.42 636.91 204.42 692.11 111.89 709.99 111.89 654.78 204.42"/>
    <polygon class="st4" points="702.89 204.42 685.01 204.42 740.22 111.89 758.09 111.89 702.89 204.42"/>
    <polygon class="st4" points="751 204.42 733.12 204.42 788.32 111.89 806.2 111.89 751 204.42"/>
    <polygon class="st4" points="799.11 204.42 781.23 204.42 836.43 111.89 854.31 111.89 799.11 204.42"/>
  </g>
  <polygon class="uuid-643e3264-b8f0-4c45-8ca9-cd5a0ef20bd0" points="43 6.5 43 13 14.68 13 14.68 41.32 8.18 41.32 8.18 6.5 43 6.5"/>
  <polygon class="uuid-643e3264-b8f0-4c45-8ca9-cd5a0ef20bd0" points="1881.65 7.5 1881.65 14 1909.97 14 1909.97 42.32 1916.47 42.32 1916.47 7.5 1881.65 7.5"/>
  <polygon class="uuid-643e3264-b8f0-4c45-8ca9-cd5a0ef20bd0" points="42.33 319.44 42.33 312.95 14.01 312.95 14.01 284.62 7.51 284.62 7.51 319.44 42.33 319.44"/>
  <polygon class="uuid-643e3264-b8f0-4c45-8ca9-cd5a0ef20bd0" points="1881.65 318.44 1881.65 311.95 1909.97 311.95 1909.97 283.62 1916.47 283.62 1916.47 318.44 1881.65 318.44"/>
  <g>
    <rect class="uuid-643e3264-b8f0-4c45-8ca9-cd5a0ef20bd0" x="1680.87" y="73.09" width="2.15" height="50.44"/>
    <rect class="uuid-643e3264-b8f0-4c45-8ca9-cd5a0ef20bd0" x="1689.48" y="73.09" width="4.3" height="50.44"/>
    <rect class="uuid-643e3264-b8f0-4c45-8ca9-cd5a0ef20bd0" x="1700.23" y="73.09" width="2.15" height="50.44"/>
    <rect class="uuid-643e3264-b8f0-4c45-8ca9-cd5a0ef20bd0" x="1704.53" y="73.09" width="2.15" height="50.44"/>
    <rect class="uuid-643e3264-b8f0-4c45-8ca9-cd5a0ef20bd0" x="1715.28" y="73.09" width="2.15" height="50.44"/>
    <rect class="uuid-643e3264-b8f0-4c45-8ca9-cd5a0ef20bd0" x="1719.58" y="73.09" width="8.6" height="50.44"/>
    <rect class="uuid-643e3264-b8f0-4c45-8ca9-cd5a0ef20bd0" x="1730.34" y="73.09" width="2.15" height="50.44"/>
    <rect class="uuid-643e3264-b8f0-4c45-8ca9-cd5a0ef20bd0" x="1734.64" y="73.09" width="2.15" height="50.44"/>
    <rect class="uuid-643e3264-b8f0-4c45-8ca9-cd5a0ef20bd0" x="1743.24" y="73.09" width="4.3" height="50.44"/>
    <rect class="uuid-643e3264-b8f0-4c45-8ca9-cd5a0ef20bd0" x="1749.69" y="73.09" width="6.45" height="50.44"/>
    <rect class="uuid-643e3264-b8f0-4c45-8ca9-cd5a0ef20bd0" x="1760.44" y="73.09" width="2.15" height="50.44"/>
    <rect class="uuid-643e3264-b8f0-4c45-8ca9-cd5a0ef20bd0" x="1764.74" y="73.09" width="2.15" height="50.44"/>
    <rect class="uuid-643e3264-b8f0-4c45-8ca9-cd5a0ef20bd0" x="1775.5" y="73.09" width="2.15" height="50.44"/>
    <rect class="uuid-643e3264-b8f0-4c45-8ca9-cd5a0ef20bd0" x="1779.8" y="73.09" width="2.15" height="50.44"/>
    <rect class="uuid-643e3264-b8f0-4c45-8ca9-cd5a0ef20bd0" x="1784.1" y="73.09" width="2.15" height="50.44"/>
    <rect class="uuid-643e3264-b8f0-4c45-8ca9-cd5a0ef20bd0" x="1788.4" y="73.09" width="2.15" height="50.44"/>
    <rect class="uuid-643e3264-b8f0-4c45-8ca9-cd5a0ef20bd0" x="1792.7" y="73.09" width="6.45" height="50.44"/>
    <rect class="uuid-643e3264-b8f0-4c45-8ca9-cd5a0ef20bd0" x="1803.45" y="73.09" width="2.15" height="50.44"/>
    <rect class="uuid-643e3264-b8f0-4c45-8ca9-cd5a0ef20bd0" x="1809.91" y="73.09" width="6.45" height="50.44"/>
    <rect class="uuid-643e3264-b8f0-4c45-8ca9-cd5a0ef20bd0" x="1818.51" y="73.09" width="4.3" height="50.44"/>
    <rect class="uuid-643e3264-b8f0-4c45-8ca9-cd5a0ef20bd0" x="1824.96" y="73.09" width="4.3" height="50.44"/>
    <rect class="uuid-643e3264-b8f0-4c45-8ca9-cd5a0ef20bd0" x="1833.56" y="73.09" width="2.15" height="50.44"/>
    <rect class="uuid-643e3264-b8f0-4c45-8ca9-cd5a0ef20bd0" x="1840.01" y="73.09" width="6.45" height="50.44"/>
    <rect class="uuid-643e3264-b8f0-4c45-8ca9-cd5a0ef20bd0" x="1848.62" y="73.09" width="2.15" height="50.44"/>
    <rect class="uuid-643e3264-b8f0-4c45-8ca9-cd5a0ef20bd0" x="1859.37" y="73.09" width="2.15" height="50.44"/>
    <rect class="uuid-643e3264-b8f0-4c45-8ca9-cd5a0ef20bd0" x="1863.67" y="73.09" width="6.45" height="50.44"/>
    <rect class="uuid-643e3264-b8f0-4c45-8ca9-cd5a0ef20bd0" x="1874.42" y="73.09" width="2.15" height="50.44"/>
    <rect class="uuid-643e3264-b8f0-4c45-8ca9-cd5a0ef20bd0" x="1878.72" y="73.09" width="2.15" height="50.44"/>
    <rect class="uuid-643e3264-b8f0-4c45-8ca9-cd5a0ef20bd0" x="1883.03" y="73.09" width="2.15" height="50.44"/>
  </g>
  <g>
    <path class="st3" d="M42.69,64.9h25.11c3.01,0,5.5.37,7.47,1.11,1.88.72,3.36,1.67,4.43,2.86,1.07,1.16,1.82,2.42,2.26,3.78.33,1.33.5,2.62.5,3.87,0,2.31-.5,4.15-1.49,5.52-1.04,1.44-2.44,2.63-4.22,3.59,2.18.7,4.04,1.94,5.59,3.71,1.61,1.82,2.43,4.44,2.48,7.87-.08,4.63-1.74,8.12-4.96,10.44-3.16,2.43-6.87,3.65-11.12,3.65h-26.04v-46.4ZM56.53,82.99h7.82c1.56,0,2.78-.28,3.68-.83.9-.57,1.35-1.58,1.35-3.03,0-1.17-.45-2.02-1.35-2.55-.9-.42-2.13-.64-3.68-.64h-7.82v7.05ZM56.53,100.26h8.65c1.62,0,2.98-.31,4.09-.92,1.07-.59,1.64-1.76,1.7-3.49,0-2.77-1.73-4.18-5.18-4.22h-9.27v8.64Z"/>
    <path class="st3" d="M101.25,97.33c.21,1.91.86,3.46,1.94,4.67,1.04,1.27,2.57,1.91,4.61,1.91,1.1,0,2.15-.22,3.15-.67,1-.38,1.75-.96,2.26-1.75h12.04c-1.36,3.64-3.59,6.33-6.69,8.06-3.08,1.74-6.57,2.6-10.49,2.6-5.44-.04-9.87-1.59-13.28-4.63-3.56-3.03-5.36-7.35-5.4-12.98.04-5.08,1.66-9.31,4.86-12.7,3.18-3.32,7.43-5.02,12.74-5.11,12.76.17,19.08,7.04,18.96,20.6h-24.69ZM114.02,90.67c-.04-1.62-.58-2.97-1.61-4.06-1.05-1.08-2.46-1.63-4.23-1.63-3.96.04-6.25,1.94-6.86,5.68h12.7Z"/>
    <path class="st3" d="M54.57,167.71c0,1.17.16,2.18.49,3.05.59,1.34,1.59,2.23,2.99,2.67,1.33.47,2.7.7,4.1.7,1.29.04,2.62-.23,4-.83,1.36-.61,2.06-1.75,2.1-3.4.04-1.16-.61-2.09-1.97-2.79-1.42-.66-4.1-1.5-8.06-2.54-1.86-.51-3.68-1.07-5.46-1.68-1.86-.61-3.54-1.4-5.04-2.35-1.52-.95-2.76-2.21-3.71-3.78-.99-1.46-1.49-3.34-1.49-5.65.08-5.37,1.97-9.29,5.66-11.74,3.52-2.39,7.68-3.59,12.48-3.59,5.02-.04,9.34,1.03,12.97,3.23,3.52,2.34,5.45,6.3,5.78,11.88h-13.11c.16-1.72-.38-2.95-1.63-3.69-1.23-.76-2.59-1.13-4.09-1.13-1.03,0-2.08.19-3.17.57-.49.21-.91.52-1.26.92-.37.42-.55.96-.55,1.62.08.78.52,1.43,1.32,1.94.76.57,1.74,1.07,2.95,1.49,2.56.78,5.49,1.59,8.77,2.41,1.75.44,3.42.98,5.01,1.62,1.57.61,3,1.44,4.29,2.48,1.31,1.04,2.35,2.3,3.11,3.78.7,1.57,1.05,3.41,1.05,5.52-.13,5.95-2.35,10.1-6.68,12.47-4.26,2.39-9.09,3.57-14.48,3.52-1.34,0-3.09-.2-5.27-.6-2.19-.38-4.42-1.13-6.68-2.25-2.24-1.14-4.13-2.84-5.67-5.08-1.57-2.16-2.41-5.08-2.54-8.76h13.8Z"/>
    <path class="st3" d="M127.91,183.3h-13.2l-4.86-20.73h-.13l-5.01,20.73h-13.2l-10.51-33.74h13.36l5.01,20.92h.13l4.28-20.92h12.03l4.51,20.92h.25l4.67-20.92h13.39l-10.73,33.74Z"/>
    <path class="st3" d="M153.02,169.33c.21,1.91.86,3.46,1.94,4.67,1.04,1.27,2.57,1.91,4.61,1.91,1.1,0,2.15-.22,3.15-.67,1-.38,1.75-.96,2.26-1.75h12.04c-1.36,3.64-3.59,6.33-6.69,8.06-3.08,1.74-6.57,2.6-10.49,2.6-5.44-.04-9.87-1.59-13.28-4.63-3.56-3.03-5.36-7.35-5.4-12.98.04-5.08,1.66-9.31,4.86-12.7,3.18-3.32,7.43-5.02,12.74-5.11,12.76.17,19.08,7.04,18.96,20.6h-24.69ZM165.78,162.67c-.04-1.62-.58-2.97-1.61-4.06-1.05-1.08-2.46-1.63-4.23-1.63-3.96.04-6.25,1.94-6.86,5.68h12.7Z"/>
    <path class="st3" d="M193.96,169.33c.21,1.91.86,3.46,1.94,4.67,1.04,1.27,2.57,1.91,4.61,1.91,1.1,0,2.15-.22,3.15-.67,1-.38,1.75-.96,2.26-1.75h12.04c-1.36,3.64-3.59,6.33-6.69,8.06-3.08,1.74-6.57,2.6-10.49,2.6-5.44-.04-9.87-1.59-13.28-4.63-3.56-3.03-5.36-7.35-5.4-12.98.04-5.08,1.66-9.31,4.86-12.7,3.18-3.32,7.43-5.02,12.74-5.11,12.76.17,19.08,7.04,18.96,20.6h-24.69ZM206.72,162.67c-.04-1.62-.58-2.97-1.61-4.06-1.05-1.08-2.46-1.63-4.23-1.63-3.96.04-6.25,1.94-6.86,5.68h12.7Z"/>
    <path class="st3" d="M240.17,149.56h6.69v7.93h-6.69v11.8c-.04,1.55.21,2.67.77,3.37.53.74,1.56,1.11,3.08,1.11.97,0,1.91-.06,2.84-.19v9.71c-2.6.08-5.26.21-7.98.38-1.35,0-2.65-.11-3.9-.32-1.29-.25-2.49-.68-3.59-1.3-1.08-.7-1.94-1.71-2.58-3.04-.72-1.35-1.07-3.14-1.07-5.38v-16.16h-5.57v-7.93h5.57v-10.25h12.44v10.25Z"/>
    <path class="st3" d="M54.57,239.71c0,1.17.16,2.18.49,3.05.59,1.34,1.59,2.23,2.99,2.67,1.33.47,2.7.7,4.1.7,1.29.04,2.62-.23,4-.83,1.36-.61,2.06-1.75,2.1-3.4.04-1.16-.61-2.09-1.97-2.79-1.42-.66-4.1-1.5-8.06-2.54-1.86-.51-3.68-1.07-5.46-1.68-1.86-.61-3.54-1.4-5.04-2.35-1.52-.95-2.76-2.21-3.71-3.78-.99-1.46-1.49-3.34-1.49-5.65.08-5.37,1.97-9.29,5.66-11.74,3.52-2.39,7.68-3.59,12.48-3.59,5.02-.04,9.34,1.03,12.97,3.23,3.52,2.34,5.45,6.3,5.78,11.88h-13.11c.16-1.72-.38-2.95-1.63-3.69-1.23-.76-2.59-1.13-4.09-1.13-1.03,0-2.08.19-3.17.57-.49.21-.91.52-1.26.92-.37.42-.55.96-.55,1.62.08.78.52,1.43,1.32,1.94.76.57,1.74,1.07,2.95,1.49,2.56.78,5.49,1.59,8.77,2.41,1.75.44,3.42.98,5.01,1.62,1.57.61,3,1.44,4.29,2.48,1.31,1.04,2.35,2.3,3.11,3.78.7,1.57,1.05,3.41,1.05,5.52-.13,5.95-2.35,10.1-6.68,12.47-4.26,2.39-9.09,3.57-14.48,3.52-1.34,0-3.09-.2-5.27-.6-2.19-.38-4.42-1.13-6.68-2.25-2.24-1.14-4.13-2.84-5.67-5.08-1.57-2.16-2.41-5.08-2.54-8.76h13.8Z"/>
    <path class="st3" d="M99.44,217.91h-12.44v-9.01h12.44v9.01ZM87.01,221.56h12.44v33.74h-12.44v-33.74Z"/>
    <path class="st3" d="M114.68,237.54l-10.6-15.98h14.19l3.68,6.66,3.78-6.66h13.77l-10.6,16,11.97,17.74h-14.16l-4.95-8.25-4.73,8.25h-14.12l11.77-17.76Z"/>
    <path class="st3" d="M158.35,221.56h6.69v7.93h-6.69v11.8c-.04,1.55.21,2.67.77,3.37.53.74,1.56,1.11,3.08,1.11.97,0,1.91-.06,2.84-.19v9.71c-2.6.08-5.26.21-7.98.38-1.35,0-2.65-.11-3.9-.32-1.29-.25-2.49-.68-3.59-1.3-1.08-.7-1.94-1.71-2.58-3.04-.72-1.35-1.07-3.14-1.07-5.38v-16.16h-5.57v-7.93h5.57v-10.25h12.44v10.25Z"/>
    <path class="st3" d="M179.52,241.33c.21,1.91.86,3.46,1.94,4.67,1.04,1.27,2.57,1.91,4.61,1.91,1.1,0,2.15-.22,3.15-.67,1-.38,1.75-.96,2.26-1.75h12.04c-1.36,3.64-3.59,6.33-6.69,8.06-3.08,1.74-6.57,2.6-10.49,2.6-5.44-.04-9.87-1.59-13.28-4.63-3.56-3.03-5.36-7.35-5.4-12.98.04-5.08,1.66-9.31,4.86-12.7,3.18-3.32,7.43-5.02,12.74-5.11,12.76.17,19.08,7.04,18.96,20.6h-24.69ZM192.28,234.67c-.04-1.62-.58-2.97-1.61-4.06-1.05-1.08-2.46-1.63-4.23-1.63-3.96.04-6.25,1.94-6.86,5.68h12.7Z"/>
    <path class="st3" d="M220.46,241.33c.21,1.91.86,3.46,1.94,4.67,1.04,1.27,2.57,1.91,4.61,1.91,1.1,0,2.15-.22,3.15-.67,1-.38,1.75-.96,2.26-1.75h12.04c-1.36,3.64-3.59,6.33-6.69,8.06-3.08,1.74-6.57,2.6-10.49,2.6-5.44-.04-9.87-1.59-13.28-4.63-3.56-3.03-5.36-7.35-5.4-12.98.04-5.08,1.66-9.31,4.86-12.7,3.18-3.32,7.43-5.02,12.74-5.11,12.76.17,19.08,7.04,18.96,20.6h-24.69ZM233.23,234.67c-.04-1.62-.58-2.97-1.61-4.06-1.05-1.08-2.46-1.63-4.23-1.63-3.96.04-6.25,1.94-6.86,5.68h12.7Z"/>
    <path class="st3" d="M251.7,221.56h12.39v4.28h.13c2.28-3.41,5.94-5.11,10.96-5.11,3.05,0,5.67.93,7.86,2.79,2.17,1.86,3.28,4.74,3.32,8.63v23.14h-12.44v-17.7c.04-1.99-.19-3.6-.7-4.83-.53-1.21-1.77-1.81-3.71-1.81-1.22-.04-2.38.35-3.48,1.18-.53.42-.98,1.07-1.36,1.94-.35.91-.53,2.04-.53,3.4v17.83h-12.44v-33.74Z"/>
  </g>
  <g>
    <path class="uuid-643e3264-b8f0-4c45-8ca9-cd5a0ef20bd0" d="M1545.67,171.84h-10.95l-9.48-32.84h9.89l5.19,19.93h.11l5.11-19.93h10.06l-9.93,32.84Z"/>
    <path class="uuid-643e3264-b8f0-4c45-8ca9-cd5a0ef20bd0" d="M1578.72,166.52c0,.89.06,1.81.18,2.75.12.92.42,1.78.9,2.57h-9.28c-.24-.76-.34-1.51-.31-2.25h-.09c-.99,1.06-2.12,1.8-3.41,2.2-1.35.43-2.77.65-4.26.65-2.29,0-4.18-.58-5.68-1.75-1.61-1.2-2.42-3.02-2.45-5.47,0-1.87.49-3.32,1.48-4.35.94-1.05,2.12-1.8,3.53-2.27,1.48-.49,2.97-.83,4.47-1.01s2.83-.34,4-.49c.34-.1.67-.2.97-.29.28-.09.55-.19.79-.31.49-.3.74-.81.74-1.53-.03-.82-.34-1.4-.92-1.73-.59-.31-1.28-.47-2.07-.47-1.37.03-2.27.29-2.73.78-.46.55-.7,1.1-.7,1.65h-8.49c.12-1.69.55-3.06,1.29-4.11.73-1.03,1.67-1.81,2.82-2.33,1.17-.55,2.47-.94,3.91-1.15,1.39-.15,2.77-.22,4.13-.22,2.79,0,4.97.25,6.55.76,1.57.52,2.67,1.24,3.31,2.13.67.88,1.08,1.88,1.24,2.99.06,1.12.09,2.27.09,3.44v9.82ZM1570.27,161.14c-1.19.53-2.45.91-3.77,1.15-2.15.27-3.22,1.13-3.22,2.59,0,.59.29,1.09.87,1.51.53.46,1.24.7,2.12.7,1.11,0,2.05-.32,2.8-.97.74-.62,1.14-1.54,1.2-2.77v-2.21Z"/>
    <path class="uuid-643e3264-b8f0-4c45-8ca9-cd5a0ef20bd0" d="M1583.77,147.97h8.77v3.03h.09c1.61-2.41,4.2-3.62,7.76-3.62,2.16,0,4.01.66,5.57,1.98,1.54,1.32,2.32,3.35,2.35,6.11v16.37h-8.8v-12.53c.03-1.41-.13-2.55-.49-3.42-.38-.85-1.25-1.28-2.63-1.28-.86-.03-1.68.25-2.46.83-.38.3-.7.76-.96,1.37-.25.65-.38,1.45-.38,2.41v12.62h-8.8v-23.88Z"/>
    <path class="uuid-643e3264-b8f0-4c45-8ca9-cd5a0ef20bd0" d="M1528.58,177.01h10.03l9.25,17.57h.11v-17.57h9.25v32.84h-9.55l-9.75-17.95h-.09v17.95h-9.25v-32.84Z"/>
    <path class="uuid-643e3264-b8f0-4c45-8ca9-cd5a0ef20bd0" d="M1587.84,209.84h-8.68v-3.03h-.09c-1.6,2.4-4.16,3.61-7.68,3.64-2.15,0-4.01-.67-5.59-2.02-1.63-1.36-2.46-3.39-2.49-6.09v-16.37h8.8v12.53c-.03,1.38.15,2.5.54,3.37.38.88,1.24,1.33,2.58,1.33.86.03,1.71-.28,2.56-.92.38-.3.7-.77.96-1.42.19-.58.28-1.34.28-2.27v-12.62h8.8v23.88Z"/>
    <path class="uuid-643e3264-b8f0-4c45-8ca9-cd5a0ef20bd0" d="M1608.48,208c-.32,1.08-.7,2.22-1.15,3.41-.48,1.18-1.06,2.25-1.74,3.21-1.19,1.41-2.6,2.27-4.24,2.58-1.62.27-3.31.39-5.07.36h-4v-7.28h2.11c.49,0,1-.01,1.5-.04.49,0,.91-.06,1.26-.18.27-.12.49-.33.67-.63.13-.28.2-.67.2-1.17,0-.36-.17-1.06-.52-2.11-.36-1.03-.79-2.19-1.28-3.48-1.05-2.8-1.79-4.7-2.22-5.71l-3.97-11.01h9.44l3.7,13.69h.09l3.76-13.69h9.11l-7.65,22.03Z"/>
    <path class="uuid-643e3264-b8f0-4c45-8ca9-cd5a0ef20bd0" d="M1632.52,192.93c-.06-.81-.4-1.41-1.02-1.81-.63-.47-1.35-.71-2.17-.71-.72,0-1.38.11-1.97.32-.66.26-.99.77-.99,1.53,0,.3.12.54.37.72.23.23.47.4.71.52.44.15.96.27,1.56.36.61.14,1.27.26,1.97.38,1.5.24,3.04.61,4.63,1.11,1.52.44,2.81,1.17,3.86,2.21.54.5.96,1.11,1.26,1.85.26.74.39,1.62.39,2.64,0,1.64-.35,2.99-1.04,4.03-.69,1.11-1.62,1.98-2.77,2.62-2.45,1.19-5.17,1.78-8.15,1.75-2.91,0-5.55-.64-7.91-1.93-2.35-1.28-3.63-3.44-3.86-6.47h8.67c.06.82.43,1.52,1.1,2.09.49.46,1.31.69,2.44.69.64,0,1.31-.14,2.02-.43.67-.27,1.02-.74,1.05-1.42s-.26-1.18-.88-1.53c-.67-.33-2.05-.67-4.13-1.01-3.43-.58-5.92-1.49-7.46-2.72-1.53-1.18-2.29-2.78-2.29-4.78,0-1.5.36-2.75,1.09-3.75.7-1.02,1.61-1.79,2.73-2.31,1.12-.58,2.34-.98,3.64-1.19,1.24-.21,2.46-.31,3.66-.31,2.71-.04,5.24.43,7.59,1.42,1.12.53,2.03,1.29,2.73,2.3.7.99,1.08,2.27,1.15,3.83h-8.01Z"/>
    <path class="uuid-643e3264-b8f0-4c45-8ca9-cd5a0ef20bd0" d="M1645.49,200.77h9.25v7.2c0,2.2-.4,4.17-1.19,5.92-.84,1.75-2.25,2.99-4.23,3.72-.8.28-1.5.44-2.13.47-.68.06-1.25.09-1.69.09v-4c1.13-.12,2.06-.59,2.8-1.42.71-.8,1.09-1.77,1.15-2.91h-3.95v-9.07Z"/>
    <path class="uuid-643e3264-b8f0-4c45-8ca9-cd5a0ef20bd0" d="M1528.54,215.01h9.79v24.44h14.07v8.4h-23.86v-32.84Z"/>
    <path class="uuid-643e3264-b8f0-4c45-8ca9-cd5a0ef20bd0" d="M1581.61,235.91c0,3.4-1.04,6.31-3.11,8.73-2.06,2.48-5.32,3.75-9.77,3.81-4.4-.06-7.64-1.33-9.73-3.82-2.13-2.43-3.18-5.34-3.13-8.74-.04-3.44,1-6.36,3.13-8.76,2.09-2.44,5.33-3.69,9.73-3.75,4.46.06,7.71,1.31,9.77,3.75,2.07,2.4,3.11,5.32,3.11,8.77ZM1572.81,235.91c0-.65-.03-1.33-.09-2.05-.09-.71-.29-1.34-.58-1.89-.28-.6-.68-1.09-1.19-1.46-.58-.34-1.31-.52-2.2-.52s-1.54.17-2.06.52c-.58.38-1,.86-1.29,1.46-.51,1.23-.75,2.54-.72,3.94,0,.62.06,1.26.19,1.94.09.68.27,1.32.54,1.94.28.62.71,1.1,1.29,1.46.51.41,1.2.61,2.06.61s1.62-.2,2.2-.61c.51-.36.91-.85,1.19-1.46.48-1.26.71-2.55.68-3.87Z"/>
    <path class="uuid-643e3264-b8f0-4c45-8ca9-cd5a0ef20bd0" d="M1600.18,230.93c-.06-.81-.4-1.41-1.02-1.81-.63-.47-1.35-.71-2.17-.71-.72,0-1.38.11-1.97.32-.66.26-.99.77-.99,1.53,0,.3.12.54.37.72.23.23.47.4.71.52.44.15.96.27,1.56.36.61.14,1.27.26,1.97.38,1.5.24,3.04.61,4.63,1.11,1.52.44,2.81,1.17,3.86,2.21.54.5.96,1.11,1.26,1.85.26.74.39,1.62.39,2.64,0,1.64-.35,2.99-1.04,4.03-.69,1.11-1.62,1.98-2.77,2.62-2.45,1.19-5.17,1.78-8.15,1.75-2.91,0-5.55-.64-7.91-1.93-2.35-1.28-3.63-3.44-3.86-6.47h8.67c.06.82.43,1.52,1.1,2.09.49.46,1.31.69,2.44.69.64,0,1.31-.14,2.02-.43.67-.27,1.02-.74,1.05-1.42s-.26-1.18-.88-1.53c-.67-.33-2.05-.67-4.13-1.01-3.43-.58-5.92-1.49-7.46-2.72-1.53-1.18-2.29-2.78-2.29-4.78,0-1.5.36-2.75,1.09-3.75.7-1.02,1.61-1.79,2.73-2.31,1.12-.58,2.34-.98,3.64-1.19,1.24-.21,2.46-.31,3.66-.31,2.71-.04,5.24.43,7.59,1.42,1.12.53,2.03,1.29,2.73,2.3.7.99,1.08,2.27,1.15,3.83h-8.01Z"/>
    <path class="uuid-643e3264-b8f0-4c45-8ca9-cd5a0ef20bd0" d="M1637.05,215.01h9.57l11.6,32.84h-10.16l-1.33-4.69h-10.12l-1.44,4.69h-9.84l11.71-32.84ZM1644.76,236.14l-2.85-10.15h-.09l-3.07,10.15h6Z"/>
    <path class="uuid-643e3264-b8f0-4c45-8ca9-cd5a0ef20bd0" d="M1661.33,223.97h8.77v3.03h.09c1.61-2.41,4.2-3.62,7.76-3.62,2.16,0,4.01.66,5.57,1.98,1.54,1.32,2.32,3.35,2.35,6.11v16.37h-8.8v-12.53c.03-1.41-.13-2.55-.49-3.42-.38-.85-1.25-1.28-2.63-1.28-.86-.03-1.68.25-2.46.83-.38.3-.7.76-.96,1.37-.25.65-.38,1.45-.38,2.41v12.62h-8.8v-23.88Z"/>
    <path class="uuid-643e3264-b8f0-4c45-8ca9-cd5a0ef20bd0" d="M1715.21,244.79c0,1.17-.1,2.41-.3,3.72-.25,1.31-.78,2.55-1.61,3.72-.77,1.12-1.97,2.03-3.61,2.73-1.64.78-3.8,1.18-6.5,1.21-2.83.03-5.41-.51-7.74-1.61-2.38-1.08-3.82-3.19-4.33-6.34h8.73c.13.25.3.53.5.82.29.43.66.81,1.11,1.14.45.37.94.57,1.48.6.71-.03,1.31-.23,1.79-.61.44-.39.79-.86,1.07-1.42.41-1.23.61-2.38.61-3.46v-2.2h-.09c-1.5,2.17-3.62,3.28-6.38,3.32-3.47-.04-6.03-1.2-7.68-3.46-1.69-2.22-2.54-4.95-2.54-8.2s.89-5.9,2.67-8.04c1.72-2.17,4.28-3.29,7.68-3.35,1.38,0,2.64.25,3.77.76,1.14.58,1.96,1.49,2.47,2.72h.09v-2.9h8.8v20.82ZM1698.52,234.74c0,.65.08,1.32.23,2.03.12.72.34,1.35.65,1.89.61,1.26,1.73,1.91,3.36,1.94.89,0,1.59-.2,2.1-.58.54-.35.93-.81,1.14-1.4.45-1.19.66-2.49.63-3.92,0-1.38-.33-2.5-1-3.35-.67-.87-1.7-1.32-3.11-1.35-1.34.03-2.34.5-3.01,1.4-.67.92-1,2.03-1,3.35Z"/>
    <path class="uuid-643e3264-b8f0-4c45-8ca9-cd5a0ef20bd0" d="M1726.98,237.96c.15,1.35.61,2.45,1.37,3.3.73.9,1.82,1.35,3.26,1.35.78,0,1.52-.16,2.23-.47.7-.27,1.24-.68,1.6-1.24h8.52c-.96,2.58-2.54,4.48-4.73,5.7-2.18,1.23-4.65,1.84-7.42,1.84-3.85-.03-6.99-1.12-9.4-3.28-2.52-2.14-3.79-5.2-3.82-9.19.03-3.59,1.18-6.59,3.44-8.98,2.25-2.35,5.26-3.56,9.02-3.62,9.03.12,13.5,4.98,13.42,14.58h-17.47ZM1736.01,233.24c-.03-1.14-.41-2.1-1.14-2.87-.74-.77-1.74-1.15-3-1.15-2.8.03-4.42,1.37-4.85,4.02h8.99Z"/>
    <path class="uuid-643e3264-b8f0-4c45-8ca9-cd5a0ef20bd0" d="M1749.26,215.01h8.8v32.84h-8.8v-32.84Z"/>
    <path class="uuid-643e3264-b8f0-4c45-8ca9-cd5a0ef20bd0" d="M1770.44,237.96c.15,1.35.61,2.45,1.37,3.3.73.9,1.82,1.35,3.26,1.35.78,0,1.52-.16,2.23-.47.7-.27,1.24-.68,1.6-1.24h8.52c-.96,2.58-2.54,4.48-4.73,5.7-2.18,1.23-4.65,1.84-7.42,1.84-3.85-.03-6.99-1.12-9.4-3.28-2.52-2.14-3.79-5.2-3.82-9.19.03-3.59,1.18-6.59,3.44-8.98,2.25-2.35,5.26-3.56,9.02-3.62,9.03.12,13.5,4.98,13.42,14.58h-17.47ZM1779.47,233.24c-.03-1.14-.41-2.1-1.14-2.87-.74-.77-1.74-1.15-3-1.15-2.8.03-4.42,1.37-4.85,4.02h8.99Z"/>
    <path class="uuid-643e3264-b8f0-4c45-8ca9-cd5a0ef20bd0" d="M1806.37,230.93c-.06-.81-.4-1.41-1.02-1.81-.63-.47-1.35-.71-2.17-.71-.72,0-1.38.11-1.97.32-.66.26-.99.77-.99,1.53,0,.3.12.54.37.72.23.23.47.4.71.52.44.15.96.27,1.56.36.61.14,1.27.26,1.97.38,1.5.24,3.04.61,4.63,1.11,1.52.44,2.81,1.17,3.86,2.21.54.5.96,1.11,1.26,1.85.26.74.39,1.62.39,2.64,0,1.64-.35,2.99-1.04,4.03-.69,1.11-1.62,1.98-2.77,2.62-2.45,1.19-5.17,1.78-8.15,1.75-2.91,0-5.55-.64-7.91-1.93-2.35-1.28-3.63-3.44-3.86-6.47h8.67c.06.82.43,1.52,1.1,2.09.49.46,1.31.69,2.44.69.64,0,1.31-.14,2.02-.43.67-.27,1.02-.74,1.05-1.42s-.26-1.18-.88-1.53c-.67-.33-2.05-.67-4.13-1.01-3.43-.58-5.92-1.49-7.46-2.72-1.53-1.18-2.29-2.78-2.29-4.78,0-1.5.36-2.75,1.09-3.75.7-1.02,1.61-1.79,2.73-2.31,1.12-.58,2.34-.98,3.64-1.19,1.24-.21,2.46-.31,3.66-.31,2.71-.04,5.24.43,7.59,1.42,1.12.53,2.03,1.29,2.73,2.3.7.99,1.08,2.27,1.15,3.83h-8.01Z"/>
  </g>
  <g>
    <path class="uuid-643e3264-b8f0-4c45-8ca9-cd5a0ef20bd0" d="M1550.49,103.91h5.66v4.48h-5.66v10.5h-4.96v-10.5h-21.06v-4.78l20.65-26.73h5.37v27.02ZM1545.54,103.91v-20.53l-15.87,20.53h15.87Z"/>
    <path class="uuid-643e3264-b8f0-4c45-8ca9-cd5a0ef20bd0" d="M1565.07,114.41h22.18v4.48h-27.73l.12-2.3c.24-3.46,1.02-6.43,2.36-8.91,1.34-2.48,3.6-4.64,6.79-6.49l5.31-3.07c2.67-1.57,4.57-3.11,5.69-4.6,1.12-1.49,1.68-3.3,1.68-5.43,0-2.32-.74-4.18-2.21-5.58-1.48-1.4-3.51-2.09-6.11-2.09-5.86,0-8.79,3.01-8.79,9.03h-4.9c-.04-4.29,1.16-7.61,3.6-9.97,2.44-2.36,5.84-3.54,10.21-3.54,3.97,0,7.2,1.12,9.68,3.36,2.48,2.32,3.72,5.25,3.72,8.79,0,5.43-3.19,9.99-9.56,13.69l-4.48,2.6c-2.6,1.57-4.46,3.1-5.61,4.57-1.14,1.47-1.79,3.29-1.95,5.46Z"/>
    <path class="uuid-643e3264-b8f0-4c45-8ca9-cd5a0ef20bd0" d="M1606.78,91.52c4.4,0,7.91,1.34,10.5,4.01,2.56,2.68,3.83,6.06,3.83,10.15s-1.3,7.47-3.89,10.15c-2.68,2.68-6.2,4.01-10.56,4.01-3.66,0-6.75-.98-9.26-2.95-2.28-1.85-3.89-4.3-4.84-7.35-.94-3.05-1.42-6.87-1.42-11.48,0-6.96,1.35-12.39,4.04-16.28,2.69-3.89,6.56-5.84,11.59-5.84,3.66,0,6.71,1,9.15,3.01,2.44,2.01,3.97,4.78,4.6,8.32h-4.84c-.47-2.2-1.49-3.89-3.04-5.07s-3.51-1.77-5.87-1.77c-7,0-10.56,5.6-10.68,16.81,1.14-1.69,2.7-3.07,4.69-4.13,1.99-1.06,3.98-1.59,5.99-1.59ZM1599.93,112.64c1.77,1.81,4.01,2.71,6.73,2.71s4.98-.9,6.67-2.71c1.73-1.85,2.6-4.17,2.6-6.96s-.87-5.11-2.6-6.96c-1.69-1.81-3.91-2.71-6.67-2.71s-4.96.89-6.73,2.66c-1.77,1.85-2.66,4.19-2.66,7.02s.88,5.19,2.66,6.96Z"/>
    <path class="uuid-643e3264-b8f0-4c45-8ca9-cd5a0ef20bd0" d="M1635.22,76.89h4.01v42.01h-4.96v-31.33h-9.56v-3.89l.94-.06c2.99-.2,5.21-.79,6.67-1.77,1.45-.98,2.42-2.63,2.89-4.96Z"/>
  </g>
  <g>
    <path class="uuid-643e3264-b8f0-4c45-8ca9-cd5a0ef20bd0" d="M1152.91,98.98c5.08,2.65,7.62,6.46,7.62,11.46,0,4.14-1.45,7.47-4.35,9.98-2.86,2.56-6.63,3.84-11.33,3.84-5.08,0-9.01-1.32-11.81-3.97-2.79-2.64-4.17-6.25-4.13-10.82h5.31c.08,3.24,1.04,5.71,2.88,7.39,1.83,1.69,4.42,2.53,7.74,2.53,3.07,0,5.51-.81,7.33-2.43,1.81-1.62,2.72-3.8,2.72-6.53s-.93-4.98-2.78-6.62c-1.86-1.64-4.38-2.46-7.58-2.46h-3.39v-4.48h3.07c3.03,0,5.37-.68,7.01-2.05,1.64-1.37,2.46-3.26,2.46-5.7s-.82-4.26-2.46-5.6c-1.64-1.34-3.87-2.02-6.69-2.02s-5.13.74-6.82,2.21c-1.69,1.47-2.59,3.64-2.72,6.5h-5.38c.04-4.14,1.4-7.43,4.06-9.89,2.67-2.45,6.28-3.68,10.85-3.68s7.92,1.1,10.59,3.3c2.67,2.2,4,5.22,4,9.06,0,4.35-2.07,7.68-6.21,9.98Z"/>
    <path class="uuid-643e3264-b8f0-4c45-8ca9-cd5a0ef20bd0" d="M1166.92,77.67h15.36c6.91,0,12.37,2.01,16.38,6.02,3.97,4.01,5.95,9.6,5.95,16.77s-1.98,12.65-5.95,16.7c-4.05,4.05-9.52,6.08-16.38,6.08h-15.36v-45.57ZM1172.3,118.37h9.98c5.38,0,9.5-1.58,12.38-4.74,2.88-3.16,4.32-7.55,4.32-13.18s-1.44-10.03-4.32-13.18-7.01-4.74-12.38-4.74h-9.98v35.84Z"/>
    <path class="uuid-643e3264-b8f0-4c45-8ca9-cd5a0ef20bd0" d="M1256.65,110.05l.45,7.36c.21,2.56.77,4.5,1.66,5.82h-5.57c-.94-1.37-1.43-3.39-1.47-6.08l-.19-4.86c-.13-3.07-.81-5.26-2.05-6.56-1.24-1.3-3.26-1.95-6.08-1.95h-14.85v19.46h-5.38v-45.57h19.26c4.69,0,8.44,1.09,11.23,3.26,2.79,2.18,4.19,5.23,4.19,9.15,0,2.77-.67,5.11-2.02,7.01-1.34,1.9-3.17,3.23-5.47,4,3.84,1.2,5.93,4.18,6.27,8.96ZM1228.55,98.91h14.53c2.86,0,5.11-.74,6.75-2.21,1.64-1.47,2.46-3.57,2.46-6.3s-.86-4.57-2.59-5.89c-1.73-1.32-4.15-1.98-7.26-1.98h-13.89v16.38Z"/>
    <path class="uuid-643e3264-b8f0-4c45-8ca9-cd5a0ef20bd0" d="M1292.68,106.72v1.79h-25.09c.26,3.58,1.26,6.28,3.01,8.1,1.75,1.81,4.14,2.72,7.17,2.72,4.57,0,7.49-2.05,8.77-6.14h5.31c-.9,3.33-2.56,5.96-4.99,7.9-2.43,1.94-5.5,2.91-9.22,2.91-4.57,0-8.26-1.56-11.07-4.67-2.86-3.11-4.29-7.32-4.29-12.61s1.41-9.39,4.22-12.54c2.77-3.16,6.44-4.74,11.01-4.74s8.45,1.64,11.14,4.93c2.69,3.29,4.03,7.4,4.03,12.35ZM1277.51,94.11c-2.69,0-4.89.84-6.59,2.53-1.71,1.69-2.77,4.11-3.2,7.26h19.46c-.26-2.9-1.24-5.26-2.94-7.07-1.71-1.81-3.95-2.72-6.72-2.72Z"/>
    <path class="uuid-643e3264-b8f0-4c45-8ca9-cd5a0ef20bd0" d="M1313.99,89.44c3.67,0,6.53,1,8.58,3.01,2.05,2.01,3.07,4.82,3.07,8.45v22.34h-5.12v-21.82c0-4.91-2.52-7.36-7.55-7.36-2.39,0-4.5.9-6.34,2.69-1.83,1.79-2.75,4.39-2.75,7.81v18.69h-5.12v-33.02h4.86v4.93c2.52-3.8,5.97-5.7,10.37-5.7Z"/>
    <path class="uuid-643e3264-b8f0-4c45-8ca9-cd5a0ef20bd0" d="M1358.15,94.95v-17.28h5.12v45.57h-4.86v-5.12c-2.65,3.93-6.42,5.89-11.33,5.89-4.65,0-8.36-1.58-11.14-4.74-2.82-3.16-4.22-7.34-4.22-12.54s1.41-9.49,4.22-12.61c2.73-3.11,6.44-4.67,11.14-4.67s8.43,1.83,11.07,5.5ZM1339.98,116.13c1.92,2.18,4.5,3.26,7.74,3.26s5.82-1.13,7.74-3.39c1.92-2.22,2.88-5.31,2.88-9.28s-.96-7.02-2.88-9.28-4.5-3.39-7.74-3.39-5.77,1.16-7.71,3.49c-1.94,2.33-2.91,5.47-2.91,9.44s.96,6.98,2.88,9.15Z"/>
    <path class="uuid-643e3264-b8f0-4c45-8ca9-cd5a0ef20bd0" d="M1399.75,106.72v1.79h-25.09c.26,3.58,1.26,6.28,3.01,8.1,1.75,1.81,4.14,2.72,7.17,2.72,4.57,0,7.49-2.05,8.77-6.14h5.31c-.9,3.33-2.56,5.96-4.99,7.9-2.43,1.94-5.5,2.91-9.22,2.91-4.57,0-8.26-1.56-11.07-4.67-2.86-3.11-4.29-7.32-4.29-12.61s1.41-9.39,4.22-12.54c2.77-3.16,6.44-4.74,11.01-4.74s8.45,1.64,11.14,4.93c2.69,3.29,4.03,7.4,4.03,12.35ZM1384.58,94.11c-2.69,0-4.89.84-6.59,2.53-1.71,1.69-2.77,4.11-3.2,7.26h19.46c-.26-2.9-1.24-5.26-2.94-7.07-1.71-1.81-3.95-2.72-6.72-2.72Z"/>
    <path class="uuid-643e3264-b8f0-4c45-8ca9-cd5a0ef20bd0" d="M1421.32,89.7c.85,0,1.43.02,1.73.06v4.93h-1.28c-3.41,0-6.07.84-7.97,2.53-1.9,1.69-2.85,4.09-2.85,7.2v18.82h-5.12v-33.02h4.86v5.82c2.22-4.22,5.76-6.34,10.62-6.34Z"/>
    <path class="uuid-643e3264-b8f0-4c45-8ca9-cd5a0ef20bd0" d="M1433.1,85.22h-5.44v-6.27h5.44v6.27ZM1432.97,123.23h-5.12v-33.02h5.12v33.02Z"/>
    <path class="uuid-643e3264-b8f0-4c45-8ca9-cd5a0ef20bd0" d="M1455.88,89.44c3.67,0,6.53,1,8.58,3.01,2.05,2.01,3.07,4.82,3.07,8.45v22.34h-5.12v-21.82c0-4.91-2.52-7.36-7.55-7.36-2.39,0-4.5.9-6.34,2.69-1.83,1.79-2.75,4.39-2.75,7.81v18.69h-5.12v-33.02h4.86v4.93c2.52-3.8,5.97-5.7,10.37-5.7Z"/>
    <path class="uuid-643e3264-b8f0-4c45-8ca9-cd5a0ef20bd0" d="M1500.3,95.01v-4.8h4.86v31.74c0,4.52-1.32,8.08-3.97,10.69-2.65,2.6-6.44,3.9-11.39,3.9-4.1,0-7.38-.94-9.86-2.82-2.48-1.88-3.88-4.48-4.22-7.81h5.12c.64,4.18,3.63,6.27,8.96,6.27,6.83,0,10.24-3.41,10.24-10.24v-3.2c-2.6,3.5-6.29,5.25-11.07,5.25s-8.36-1.58-11.14-4.74c-2.82-3.16-4.22-7.34-4.22-12.54s1.41-9.49,4.22-12.61c2.73-3.11,6.44-4.67,11.14-4.67s8.68,1.86,11.33,5.57ZM1489.61,119.39c3.24,0,5.82-1.13,7.74-3.39,1.92-2.26,2.88-5.35,2.88-9.28s-.96-7.02-2.88-9.28-4.5-3.39-7.74-3.39-5.77,1.15-7.71,3.46c-1.94,2.3-2.91,5.38-2.91,9.22s.97,6.91,2.91,9.22c1.94,2.3,4.51,3.46,7.71,3.46Z"/>
    <path class="uuid-643e3264-b8f0-4c45-8ca9-cd5a0ef20bd0" d="M1049.55,184.23h-5.38v-45.57h5.38v45.57Z"/>
    <path class="uuid-643e3264-b8f0-4c45-8ca9-cd5a0ef20bd0" d="M1092.3,150.44c3.58,0,6.37,1.04,8.35,3.1,1.98,2.07,2.98,4.83,2.98,8.29v22.4h-5.12v-21.89c0-4.86-2.3-7.3-6.91-7.3-2.43,0-4.45.97-6.05,2.91-1.6,1.94-2.4,4.68-2.4,8.22v18.05h-5.12v-21.89c0-4.86-2.3-7.3-6.91-7.3-2.39,0-4.4.97-6.02,2.91-1.62,1.94-2.43,4.68-2.43,8.22v18.05h-5.12v-33.02h4.86v4.86c2.18-3.75,5.35-5.63,9.54-5.63,4.95,0,8.34,2.07,10.18,6.21,2.3-4.14,5.7-6.21,10.18-6.21Z"/>
    <path class="uuid-643e3264-b8f0-4c45-8ca9-cd5a0ef20bd0" d="M1146.06,150.44c3.58,0,6.37,1.04,8.35,3.1,1.98,2.07,2.98,4.83,2.98,8.29v22.4h-5.12v-21.89c0-4.86-2.3-7.3-6.91-7.3-2.43,0-4.45.97-6.05,2.91-1.6,1.94-2.4,4.68-2.4,8.22v18.05h-5.12v-21.89c0-4.86-2.3-7.3-6.91-7.3-2.39,0-4.4.97-6.02,2.91-1.62,1.94-2.43,4.68-2.43,8.22v18.05h-5.12v-33.02h4.86v4.86c2.18-3.75,5.35-5.63,9.54-5.63,4.95,0,8.34,2.07,10.18,6.21,2.3-4.14,5.7-6.21,10.18-6.21Z"/>
    <path class="uuid-643e3264-b8f0-4c45-8ca9-cd5a0ef20bd0" d="M1193.87,167.72v1.79h-25.09c.26,3.58,1.26,6.28,3.01,8.1,1.75,1.81,4.14,2.72,7.17,2.72,4.57,0,7.49-2.05,8.77-6.14h5.31c-.9,3.33-2.56,5.96-4.99,7.9-2.43,1.94-5.5,2.91-9.22,2.91-4.57,0-8.26-1.56-11.07-4.67-2.86-3.11-4.29-7.32-4.29-12.61s1.41-9.39,4.22-12.54c2.77-3.16,6.44-4.74,11.01-4.74s8.45,1.64,11.14,4.93c2.69,3.29,4.03,7.4,4.03,12.35ZM1178.7,155.11c-2.69,0-4.89.84-6.59,2.53-1.71,1.69-2.77,4.11-3.2,7.26h19.46c-.26-2.9-1.24-5.26-2.94-7.07-1.71-1.81-3.95-2.72-6.72-2.72Z"/>
    <path class="uuid-643e3264-b8f0-4c45-8ca9-cd5a0ef20bd0" d="M1215.43,150.7c.85,0,1.43.02,1.73.06v4.93h-1.28c-3.41,0-6.07.84-7.97,2.53-1.9,1.69-2.85,4.09-2.85,7.2v18.82h-5.12v-33.02h4.86v5.82c2.22-4.22,5.76-6.34,10.62-6.34Z"/>
    <path class="uuid-643e3264-b8f0-4c45-8ca9-cd5a0ef20bd0" d="M1232.33,185c-8.83,0-13.5-3.75-14.02-11.26h5.18c.3,2.47,1.12,4.23,2.46,5.28s3.47,1.57,6.37,1.57c5.29,0,7.94-1.71,7.94-5.12,0-1.49-.54-2.62-1.63-3.39-1.09-.77-3.06-1.43-5.92-1.98l-3.07-.58c-6.87-1.28-10.3-4.52-10.3-9.73,0-2.86,1.08-5.13,3.23-6.82,2.15-1.68,5.09-2.53,8.8-2.53,8.75,0,13.23,3.65,13.44,10.94h-5.12c-.13-2.39-.85-4.07-2.18-5.06-1.32-.98-3.37-1.47-6.14-1.47-2.22,0-3.93.43-5.12,1.28-1.2.85-1.79,2.05-1.79,3.58,0,1.45.51,2.54,1.54,3.26,1.02.73,2.73,1.34,5.12,1.86l2.94.58c4.05.81,6.96,1.96,8.74,3.46,1.77,1.49,2.66,3.58,2.66,6.27,0,3.11-1.16,5.54-3.49,7.26-2.33,1.73-5.54,2.59-9.63,2.59Z"/>
    <path class="uuid-643e3264-b8f0-4c45-8ca9-cd5a0ef20bd0" d="M1255.82,146.22h-5.44v-6.27h5.44v6.27ZM1255.69,184.23h-5.12v-33.02h5.12v33.02Z"/>
    <path class="uuid-643e3264-b8f0-4c45-8ca9-cd5a0ef20bd0" d="M1279.88,165.87l5.44-14.66h5.5l-12.99,33.02h-5.38l-12.93-33.02h5.57l5.44,14.72c2.69,7.21,4.25,11.48,4.67,12.8.77-2.26,2.33-6.55,4.67-12.86Z"/>
    <path class="uuid-643e3264-b8f0-4c45-8ca9-cd5a0ef20bd0" d="M1321.87,167.72v1.79h-25.09c.26,3.58,1.26,6.28,3.01,8.1,1.75,1.81,4.14,2.72,7.17,2.72,4.57,0,7.49-2.05,8.77-6.14h5.31c-.9,3.33-2.56,5.96-4.99,7.9-2.43,1.94-5.5,2.91-9.22,2.91-4.57,0-8.26-1.56-11.07-4.67-2.86-3.11-4.29-7.32-4.29-12.61s1.41-9.39,4.22-12.54c2.77-3.16,6.44-4.74,11.01-4.74s8.45,1.64,11.14,4.93c2.69,3.29,4.03,7.4,4.03,12.35ZM1306.7,155.11c-2.69,0-4.89.84-6.59,2.53-1.71,1.69-2.77,4.11-3.2,7.26h19.46c-.26-2.9-1.24-5.26-2.94-7.07-1.71-1.81-3.95-2.72-6.72-2.72Z"/>
    <path class="uuid-643e3264-b8f0-4c45-8ca9-cd5a0ef20bd0" d="M1340.42,138.67h15.36c6.91,0,12.37,2.01,16.38,6.02,3.97,4.01,5.95,9.6,5.95,16.77s-1.98,12.65-5.95,16.7c-4.05,4.05-9.52,6.08-16.38,6.08h-15.36v-45.57ZM1345.8,179.37h9.98c5.38,0,9.5-1.58,12.38-4.74,2.88-3.16,4.32-7.55,4.32-13.18s-1.44-10.03-4.32-13.18-7.01-4.74-12.38-4.74h-9.98v35.84Z"/>
    <path class="uuid-643e3264-b8f0-4c45-8ca9-cd5a0ef20bd0" d="M1389.45,146.22h-5.44v-6.27h5.44v6.27ZM1389.32,184.23h-5.12v-33.02h5.12v33.02Z"/>
    <path class="uuid-643e3264-b8f0-4c45-8ca9-cd5a0ef20bd0" d="M1422.09,156.01v-4.8h4.86v31.74c0,4.52-1.32,8.08-3.97,10.69-2.65,2.6-6.44,3.9-11.39,3.9-4.1,0-7.38-.94-9.86-2.82-2.48-1.88-3.88-4.48-4.22-7.81h5.12c.64,4.18,3.63,6.27,8.96,6.27,6.83,0,10.24-3.41,10.24-10.24v-3.2c-2.6,3.5-6.29,5.25-11.07,5.25s-8.36-1.58-11.14-4.74c-2.82-3.16-4.22-7.34-4.22-12.54s1.41-9.49,4.22-12.61c2.73-3.11,6.44-4.67,11.14-4.67s8.68,1.86,11.33,5.57ZM1411.4,180.39c3.24,0,5.82-1.13,7.74-3.39,1.92-2.26,2.88-5.35,2.88-9.28s-.96-7.02-2.88-9.28-4.5-3.39-7.74-3.39-5.77,1.15-7.71,3.46c-1.94,2.3-2.91,5.38-2.91,9.22s.97,6.91,2.91,9.22c1.94,2.3,4.51,3.46,7.71,3.46Z"/>
    <path class="uuid-643e3264-b8f0-4c45-8ca9-cd5a0ef20bd0" d="M1439.88,146.22h-5.44v-6.27h5.44v6.27ZM1439.75,184.23h-5.12v-33.02h5.12v33.02Z"/>
    <path class="uuid-643e3264-b8f0-4c45-8ca9-cd5a0ef20bd0" d="M1461.9,151.21v4.48h-6.78v21.44c0,1.88,1.26,2.82,3.78,2.82h3.01v4.29c-1.41.13-2.62.19-3.65.19-5.5,0-8.26-2.28-8.26-6.85v-21.89h-5.44v-4.48h5.44v-9.34h5.12v9.34h6.78Z"/>
    <path class="uuid-643e3264-b8f0-4c45-8ca9-cd5a0ef20bd0" d="M1494.02,180.07h1.86v4.16c-.85.13-1.79.19-2.82.19-3.46,0-5.31-1.58-5.57-4.74-2.3,3.54-5.89,5.31-10.75,5.31-3.63,0-6.48-.84-8.54-2.53-2.07-1.69-3.1-4.06-3.1-7.14,0-5.97,4.07-9.39,12.22-10.24l4.74-.51c3.46-.38,5.18-1.9,5.18-4.54,0-1.83-.57-3.16-1.7-3.97-1.13-.81-3.04-1.22-5.73-1.22-2.86,0-4.92.48-6.18,1.44-1.26.96-1.97,2.66-2.14,5.09h-5.12c.43-7.3,4.91-10.94,13.44-10.94s12.42,3.2,12.42,9.6v18.43c0,1.07.6,1.6,1.79,1.6ZM1477,180.65c2.73,0,5.12-.83,7.17-2.5,2.05-1.62,3.07-3.95,3.07-6.98v-3.9c-.94.73-2.39,1.19-4.35,1.41l-4.8.58c-2.77.34-4.75.98-5.92,1.92-1.17.94-1.76,2.28-1.76,4.03s.55,3.04,1.66,4c1.11.96,2.75,1.44,4.93,1.44Z"/>
    <path class="uuid-643e3264-b8f0-4c45-8ca9-cd5a0ef20bd0" d="M1505.16,184.23h-5.12v-45.57h5.12v45.57Z"/>
    <path class="uuid-643e3264-b8f0-4c45-8ca9-cd5a0ef20bd0" d="M986.32,199.67h15.36c6.91,0,12.37,2.01,16.38,6.02,3.97,4.01,5.95,9.6,5.95,16.77s-1.98,12.65-5.95,16.7c-4.05,4.05-9.52,6.08-16.38,6.08h-15.36v-45.57ZM991.69,240.37h9.98c5.38,0,9.5-1.58,12.38-4.74s4.32-7.55,4.32-13.18-1.44-10.03-4.32-13.18-7.01-4.74-12.38-4.74h-9.98v35.84Z"/>
    <path class="uuid-643e3264-b8f0-4c45-8ca9-cd5a0ef20bd0" d="M1059.21,228.72v1.79h-25.09c.26,3.58,1.26,6.28,3.01,8.1,1.75,1.81,4.14,2.72,7.17,2.72,4.57,0,7.49-2.05,8.77-6.14h5.31c-.9,3.33-2.56,5.96-4.99,7.9-2.43,1.94-5.5,2.91-9.22,2.91-4.57,0-8.26-1.56-11.07-4.67-2.86-3.11-4.29-7.32-4.29-12.61s1.41-9.39,4.22-12.54c2.77-3.16,6.44-4.74,11.01-4.74s8.45,1.64,11.14,4.93c2.69,3.29,4.03,7.4,4.03,12.35ZM1044.04,216.11c-2.69,0-4.89.84-6.59,2.53-1.71,1.69-2.77,4.11-3.2,7.26h19.46c-.26-2.9-1.24-5.26-2.94-7.07-1.71-1.81-3.95-2.72-6.72-2.72Z"/>
    <path class="uuid-643e3264-b8f0-4c45-8ca9-cd5a0ef20bd0" d="M1076.62,246c-8.83,0-13.5-3.75-14.02-11.26h5.18c.3,2.47,1.12,4.24,2.46,5.28,1.34,1.05,3.47,1.57,6.37,1.57,5.29,0,7.94-1.71,7.94-5.12,0-1.49-.54-2.62-1.63-3.39-1.09-.77-3.06-1.43-5.92-1.98l-3.07-.58c-6.87-1.28-10.3-4.52-10.3-9.73,0-2.86,1.08-5.13,3.23-6.82,2.15-1.68,5.09-2.53,8.8-2.53,8.75,0,13.23,3.65,13.44,10.94h-5.12c-.13-2.39-.85-4.07-2.18-5.06-1.32-.98-3.37-1.47-6.14-1.47-2.22,0-3.93.43-5.12,1.28-1.2.85-1.79,2.05-1.79,3.58,0,1.45.51,2.54,1.54,3.26,1.02.73,2.73,1.34,5.12,1.86l2.94.58c4.05.81,6.96,1.96,8.74,3.46,1.77,1.49,2.66,3.58,2.66,6.27,0,3.12-1.16,5.54-3.49,7.26-2.33,1.73-5.54,2.59-9.63,2.59Z"/>
    <path class="uuid-643e3264-b8f0-4c45-8ca9-cd5a0ef20bd0" d="M1100.11,207.22h-5.44v-6.27h5.44v6.27ZM1099.98,245.23h-5.12v-33.02h5.12v33.02Z"/>
    <path class="uuid-643e3264-b8f0-4c45-8ca9-cd5a0ef20bd0" d="M1132.75,217.01v-4.8h4.86v31.74c0,4.52-1.32,8.08-3.97,10.69-2.65,2.6-6.44,3.9-11.39,3.9-4.1,0-7.38-.94-9.86-2.82-2.48-1.88-3.88-4.48-4.22-7.81h5.12c.64,4.18,3.63,6.27,8.96,6.27,6.83,0,10.24-3.41,10.24-10.24v-3.2c-2.6,3.5-6.29,5.25-11.07,5.25s-8.36-1.58-11.14-4.74c-2.82-3.16-4.22-7.34-4.22-12.54s1.41-9.49,4.22-12.61c2.73-3.11,6.44-4.67,11.14-4.67s8.68,1.86,11.33,5.57ZM1122.06,241.39c3.24,0,5.82-1.13,7.74-3.39,1.92-2.26,2.88-5.35,2.88-9.28s-.96-7.02-2.88-9.28-4.5-3.39-7.74-3.39-5.77,1.15-7.71,3.46c-1.94,2.3-2.91,5.38-2.91,9.22s.97,6.91,2.91,9.22c1.94,2.3,4.51,3.46,7.71,3.46Z"/>
    <path class="uuid-643e3264-b8f0-4c45-8ca9-cd5a0ef20bd0" d="M1160.53,211.44c3.67,0,6.53,1,8.58,3.01,2.05,2.01,3.07,4.82,3.07,8.45v22.34h-5.12v-21.82c0-4.91-2.52-7.36-7.55-7.36-2.39,0-4.5.9-6.34,2.69-1.83,1.79-2.75,4.39-2.75,7.81v18.69h-5.12v-33.02h4.86v4.93c2.52-3.8,5.97-5.7,10.37-5.7Z"/>
    <path class="uuid-643e3264-b8f0-4c45-8ca9-cd5a0ef20bd0" d="M1208.2,211.44c4.65,0,8.38,1.56,11.2,4.67,2.77,3.16,4.16,7.36,4.16,12.61s-1.39,9.39-4.16,12.54c-2.82,3.16-6.55,4.74-11.2,4.74-4.91,0-8.68-1.96-11.33-5.89v5.12h-4.86v-45.57h5.12v17.28c2.65-3.67,6.34-5.5,11.07-5.5ZM1207.56,241.39c3.2,0,5.77-1.16,7.71-3.49,1.94-2.33,2.91-5.47,2.91-9.44s-.95-6.92-2.85-9.12c-1.9-2.2-4.49-3.3-7.78-3.3s-5.82,1.11-7.74,3.33c-1.92,2.22-2.88,5.33-2.88,9.34s.96,7.06,2.88,9.28c1.92,2.26,4.5,3.39,7.74,3.39Z"/>
    <path class="uuid-643e3264-b8f0-4c45-8ca9-cd5a0ef20bd0" d="M1243.98,225.91l4.67-13.7h5.57l-13.95,38.21c-.98,2.77-2.33,4.73-4.03,5.86-1.71,1.13-3.95,1.7-6.72,1.7-.94,0-1.96-.06-3.07-.19v-4.29h3.01c2.94,0,4.95-1.37,6.02-4.1l1.15-3.07-12.42-34.11h5.63l4.67,13.76c1.66,4.87,3.24,9.62,4.74,14.27,1.24-3.97,2.82-8.75,4.74-14.34Z"/>
    <path class="uuid-643e3264-b8f0-4c45-8ca9-cd5a0ef20bd0" d="M1282.12,216.37l-6.08,8.38-3.2-2.56,6.14-8.51-9.73-3.14,1.34-3.84,9.47,3.07v-10.11h4.1v10.11l9.47-3.07,1.34,3.84-9.73,3.14,6.14,8.51-3.2,2.56-6.08-8.38Z"/>
    <path class="uuid-643e3264-b8f0-4c45-8ca9-cd5a0ef20bd0" d="M1329.87,224.82l10.18-25.15h7.04v45.57h-5.25v-14.59c0-9.6.06-17.34.19-23.23-1.02,2.82-2.37,6.27-4.03,10.37l-11.26,27.46h-4.61l-11.33-27.46c-1.66-4.1-3.01-7.55-4.03-10.37.13,5.89.19,13.63.19,23.23v14.59h-5.25v-45.57h7.04l10.56,25.92c1.58,3.88,3.31,8.26,5.18,13.12,2.6-6.91,4.39-11.54,5.38-13.89Z"/>
    <path class="uuid-643e3264-b8f0-4c45-8ca9-cd5a0ef20bd0" d="M1377.74,210.29l6.66-10.62h6.08l-17.41,27.26v18.3h-5.38v-18.3l-17.41-27.26h6.14l6.72,10.69c2.9,4.52,5.33,8.45,7.3,11.78,2.73-4.61,5.16-8.55,7.3-11.84Z"/>
    <path class="uuid-643e3264-b8f0-4c45-8ca9-cd5a0ef20bd0" d="M1399.05,199.67v40.7h22.91v4.86h-28.29v-45.57h5.38Z"/>
    <path class="uuid-643e3264-b8f0-4c45-8ca9-cd5a0ef20bd0" d="M1443.02,226.67v-4.86h19.39v23.42h-4.42l-1.15-6.14c-3.37,4.78-8.34,7.17-14.91,7.17s-11.73-2.2-15.62-6.59c-3.97-4.35-5.95-10.09-5.95-17.22s1.96-12.84,5.89-17.28c3.88-4.35,9.13-6.53,15.74-6.53,5.42,0,9.9,1.45,13.44,4.35,3.54,2.9,5.7,6.76,6.46,11.58h-5.57c-.55-3.37-2.18-6.06-4.86-8.06-2.6-1.96-5.76-2.94-9.47-2.94-4.86,0-8.75,1.71-11.65,5.12-2.9,3.41-4.35,8-4.35,13.76s1.45,10.35,4.35,13.76c2.9,3.41,6.78,5.12,11.65,5.12,4.31,0,7.98-1.39,11.01-4.16,3.03-2.77,4.54-6.27,4.54-10.5h-14.53Z"/>
    <path class="uuid-643e3264-b8f0-4c45-8ca9-cd5a0ef20bd0" d="M1475.27,245.23h-6.46v-6.4h6.46v6.4ZM1473.61,233.33h-3.33l-.9-21.12v-12.54h5.38v12.54l-1.15,21.12Z"/>
    <path class="uuid-643e3264-b8f0-4c45-8ca9-cd5a0ef20bd0" d="M1493.58,216.37l-6.08,8.38-3.2-2.56,6.14-8.51-9.73-3.14,1.34-3.84,9.47,3.07v-10.11h4.1v10.11l9.47-3.07,1.34,3.84-9.73,3.14,6.14,8.51-3.2,2.56-6.08-8.38Z"/>
  </g>
  <g>
    <path class="uuid-643e3264-b8f0-4c45-8ca9-cd5a0ef20bd0" d="M1866.6,136.12v11.28h-2.28v-14.1l1.17.06c1.76.12,3.27.52,4.53,1.2s2.36,1.83,3.3,3.45l1.56,2.7c.8,1.36,1.58,2.32,2.34,2.89.76.57,1.68.86,2.76.86,1.18,0,2.12-.38,2.83-1.12s1.06-1.79,1.06-3.11c0-2.98-1.53-4.47-4.59-4.47v-2.49c2.18-.02,3.87.59,5.07,1.83s1.8,2.97,1.8,5.19c0,2.02-.57,3.66-1.71,4.92-1.18,1.26-2.67,1.89-4.47,1.89-2.76,0-5.08-1.62-6.96-4.86l-1.32-2.28c-.8-1.32-1.58-2.27-2.33-2.85s-1.67-.91-2.77-.99Z"/>
    <path class="uuid-643e3264-b8f0-4c45-8ca9-cd5a0ef20bd0" d="M1866.6,152.56v11.28h-2.28v-14.1l1.17.06c1.76.12,3.27.52,4.53,1.2s2.36,1.83,3.3,3.45l1.56,2.7c.8,1.36,1.58,2.32,2.34,2.89.76.57,1.68.86,2.76.86,1.18,0,2.12-.38,2.83-1.12s1.06-1.79,1.06-3.11c0-2.98-1.53-4.47-4.59-4.47v-2.49c2.18-.02,3.87.59,5.07,1.83s1.8,2.97,1.8,5.19c0,2.02-.57,3.66-1.71,4.92-1.18,1.26-2.67,1.89-4.47,1.89-2.76,0-5.08-1.62-6.96-4.86l-1.32-2.28c-.8-1.32-1.58-2.27-2.33-2.85s-1.67-.91-2.77-.99Z"/>
    <path class="uuid-643e3264-b8f0-4c45-8ca9-cd5a0ef20bd0" d="M1871.7,174.04v-8.67h2.16v8.67h-2.16Z"/>
    <path class="uuid-643e3264-b8f0-4c45-8ca9-cd5a0ef20bd0" d="M1866.72,190.27c-1.92-1.3-2.88-3.23-2.88-5.79s.96-4.51,2.88-5.79c1.94-1.3,4.7-1.95,8.28-1.95s6.34.65,8.28,1.95c1.92,1.28,2.88,3.21,2.88,5.79s-.96,4.49-2.88,5.79c-1.94,1.3-4.7,1.95-8.28,1.95s-6.34-.65-8.28-1.95ZM1883.88,184.48c0-3.4-2.96-5.1-8.88-5.1s-8.88,1.7-8.88,5.1,2.96,5.1,8.88,5.1,8.88-1.7,8.88-5.1Z"/>
    <path class="uuid-643e3264-b8f0-4c45-8ca9-cd5a0ef20bd0" d="M1878.24,202.87c0,2.24-.68,4.02-2.04,5.34-1.36,1.3-3.08,1.95-5.16,1.95s-3.8-.66-5.16-1.98c-1.36-1.36-2.04-3.15-2.04-5.37,0-1.86.5-3.43,1.5-4.71.94-1.16,2.19-1.98,3.74-2.46,1.55-.48,3.5-.72,5.83-.72,3.54,0,6.3.68,8.28,2.05,1.98,1.37,2.97,3.33,2.97,5.9,0,1.86-.51,3.41-1.53,4.65-1.02,1.24-2.43,2.02-4.23,2.34v-2.46c1.12-.24,1.98-.76,2.58-1.55.6-.79.9-1.78.9-2.98,0-3.56-2.85-5.37-8.55-5.43.86.58,1.56,1.38,2.1,2.39.54,1.01.81,2.02.81,3.04ZM1867.5,199.39c-.92.9-1.38,2.04-1.38,3.42s.46,2.53,1.38,3.39c.94.88,2.12,1.32,3.54,1.32s2.6-.44,3.54-1.32c.92-.86,1.38-1.99,1.38-3.39s-.45-2.52-1.35-3.42c-.94-.9-2.13-1.35-3.57-1.35s-2.64.45-3.54,1.35Z"/>
    <path class="uuid-643e3264-b8f0-4c45-8ca9-cd5a0ef20bd0" d="M1871.7,220.78v-8.67h2.16v8.67h-2.16Z"/>
    <path class="uuid-643e3264-b8f0-4c45-8ca9-cd5a0ef20bd0" d="M1866.6,226.21v11.28h-2.28v-14.1l1.17.06c1.76.12,3.27.52,4.53,1.2s2.36,1.83,3.3,3.45l1.56,2.7c.8,1.36,1.58,2.32,2.34,2.89.76.57,1.68.86,2.76.86,1.18,0,2.12-.38,2.83-1.12s1.06-1.79,1.06-3.11c0-2.98-1.53-4.47-4.59-4.47v-2.49c2.18-.02,3.87.59,5.07,1.83s1.8,2.97,1.8,5.19c0,2.02-.57,3.66-1.71,4.92-1.18,1.26-2.67,1.89-4.47,1.89-2.76,0-5.08-1.62-6.96-4.86l-1.32-2.28c-.8-1.32-1.58-2.27-2.33-2.85s-1.67-.91-2.77-.99Z"/>
    <path class="uuid-643e3264-b8f0-4c45-8ca9-cd5a0ef20bd0" d="M1875.78,250.99c-.48,1.24-1.18,2.21-2.12,2.91-.93.7-2.02,1.05-3.29,1.05-2,0-3.59-.71-4.77-2.13-1.18-1.42-1.77-3.29-1.77-5.61s.59-4.19,1.77-5.61c1.18-1.42,2.77-2.13,4.77-2.13,1.26,0,2.36.35,3.29,1.05.93.7,1.64,1.67,2.12,2.91.9-2.06,2.41-3.09,4.53-3.09,1.82,0,3.26.65,4.32,1.95,1.02,1.3,1.53,2.94,1.53,4.92s-.51,3.62-1.53,4.92c-1.06,1.3-2.5,1.95-4.32,1.95-2.12,0-3.63-1.03-4.53-3.09ZM1867.26,243.49c-.76.94-1.14,2.18-1.14,3.72s.38,2.78,1.14,3.72c.74.92,1.78,1.38,3.12,1.38s2.41-.46,3.15-1.38c.74-.92,1.11-2.16,1.11-3.72s-.37-2.8-1.11-3.72c-.74-.92-1.79-1.38-3.15-1.38s-2.38.46-3.12,1.38ZM1882.95,250.36c.62-.8.93-1.85.93-3.15s-.31-2.35-.93-3.15c-.64-.82-1.52-1.23-2.64-1.23s-2,.41-2.64,1.23c-.62.8-.93,1.85-.93,3.15s.31,2.35.93,3.15c.64.82,1.52,1.23,2.64,1.23s2-.41,2.64-1.23Z"/>
  </g>
</svg>