<?xml version="1.0" encoding="UTF-8"?>
<svg id="uuid-1868a399-f5dd-4618-9423-30b31c0b3192" data-name="Layer 1" xmlns="http://www.w3.org/2000/svg" xmlns:xlink="http://www.w3.org/1999/xlink" viewBox="0 0 1920 960">
  <defs>
    <style>
      .uuid-67859fb9-0d8c-431b-90a2-cdf4eb7e10ef {
        isolation: isolate;
      }

      .uuid-a9145e59-842a-4751-ae58-6b0c399e8db4 {
        fill: #fff;
        stroke-width: 0px;
      }
    </style>
  </defs>
  <image width="1920" height="960" xlink:href="https://d2qb21tb4meex0.cloudfront.net/13-Be+Sweet+16/00.png"/>
  <g id="uuid-2f91deb1-3afd-42e6-bdfd-876d270369db" data-name="B s Sweet" class="uuid-67859fb9-0d8c-431b-90a2-cdf4eb7e10ef">
    <g class="uuid-67859fb9-0d8c-431b-90a2-cdf4eb7e10ef">
      <path class="uuid-a9145e59-842a-4751-ae58-6b0c399e8db4" d="M538.69,465.79c11.32,4.33,16.97,12.14,16.97,23.46,0,8.56-2.78,15.3-8.35,20.22-5.57,4.92-13.41,7.38-23.53,7.38h-42.92v-98.26h40.85c9.47,0,16.84,2.37,22.08,7.11,5.24,4.74,7.87,10.93,7.87,18.56,0,9.85-4.33,17.02-12.97,21.53ZM520.89,429.08h-28.43v32.43h28.43c6.35,0,11.18-1.47,14.49-4.42,3.31-2.94,4.97-7.08,4.97-12.42,0-4.88-1.68-8.69-5.04-11.45-3.36-2.76-8.17-4.14-14.42-4.14ZM492.46,506.36h30.77c6.81,0,11.98-1.47,15.52-4.42,3.54-2.94,5.31-7.18,5.31-12.7,0-11.59-6.99-17.39-20.98-17.39h-30.64v34.5Z"/>
      <path class="uuid-a9145e59-842a-4751-ae58-6b0c399e8db4" d="M626.73,481.24v3.86h-54.1c.55,7.73,2.71,13.55,6.49,17.46,3.77,3.91,8.92,5.87,15.46,5.87,9.84,0,16.15-4.42,18.91-13.25h11.45c-1.93,7.18-5.52,12.86-10.76,17.04-5.24,4.19-11.87,6.28-19.87,6.28-9.85,0-17.8-3.36-23.87-10.07-6.17-6.71-9.25-15.78-9.25-27.19s3.04-20.24,9.11-27.05c5.98-6.81,13.89-10.21,23.74-10.21s18.22,3.54,24.01,10.63c5.8,7.09,8.69,15.96,8.69,26.63ZM594.03,454.06c-5.8,0-10.54,1.82-14.21,5.45-3.68,3.64-5.98,8.86-6.9,15.66h41.95c-.55-6.26-2.67-11.34-6.35-15.25-3.68-3.91-8.51-5.87-14.49-5.87Z"/>
      <path class="uuid-a9145e59-842a-4751-ae58-6b0c399e8db4" d="M694.49,519.05c-12.79,0-22.77-2.9-29.95-8.69s-10.81-14.44-10.9-25.94h12.01c.28,16.1,9.89,24.15,28.84,24.15,8,0,14.15-1.56,18.42-4.69,4.28-3.13,6.42-7.68,6.42-13.66,0-4.69-1.77-8.35-5.31-10.97-3.54-2.62-9.73-4.9-18.56-6.83l-8.69-1.93c-9.94-2.3-17.39-5.63-22.36-10-4.97-4.37-7.45-10.51-7.45-18.42s3.04-14.05,9.11-18.7c6.07-4.64,14.21-6.97,24.43-6.97,6.9,0,12.9.83,18.01,2.48,5.11,1.66,9.08,3.98,11.94,6.97,2.85,2.99,4.94,6.23,6.28,9.73,1.33,3.5,2.05,7.36,2.14,11.59h-11.87c-.55-6.99-2.83-12.12-6.83-15.39-4-3.26-10.56-4.9-19.67-4.9-6.9,0-12.21,1.33-15.94,4-3.73,2.67-5.59,6.4-5.59,11.18s1.61,8.51,4.83,11.18c3.13,2.67,9.2,5.02,18.22,7.04l8.69,1.93c10.85,2.39,18.67,5.82,23.46,10.28,4.78,4.46,7.18,10.37,7.18,17.73,0,8.92-3.27,15.96-9.8,21.11-6.53,5.15-15.55,7.73-27.05,7.73Z"/>
      <path class="uuid-a9145e59-842a-4751-ae58-6b0c399e8db4" d="M814,477.79l10.07-32.15h11.87l-23.74,71.21h-11.59l-10.49-32.98c-3.59-11.68-5.98-19.73-7.18-24.15-2.12,7.54-4.55,15.59-7.31,24.15l-10.35,32.98h-11.59l-23.74-71.21h11.87l10.07,32.15c2.48,7.82,5.06,16.47,7.73,25.94,2.94-10.49,5.47-19.13,7.59-25.94l9.94-32.15h11.59l9.94,32.15c5.06,16.84,7.64,25.39,7.73,25.67.74-2.85,3.26-11.41,7.59-25.67Z"/>
      <path class="uuid-a9145e59-842a-4751-ae58-6b0c399e8db4" d="M898.73,481.24v3.86h-54.1c.55,7.73,2.71,13.55,6.49,17.46,3.77,3.91,8.92,5.87,15.46,5.87,9.84,0,16.15-4.42,18.91-13.25h11.45c-1.93,7.18-5.52,12.86-10.76,17.04-5.24,4.19-11.87,6.28-19.87,6.28-9.85,0-17.8-3.36-23.87-10.07-6.17-6.71-9.25-15.78-9.25-27.19s3.04-20.24,9.11-27.05c5.98-6.81,13.89-10.21,23.74-10.21s18.22,3.54,24.01,10.63c5.8,7.09,8.69,15.96,8.69,26.63ZM866.02,454.06c-5.8,0-10.54,1.82-14.21,5.45-3.68,3.64-5.98,8.86-6.9,15.66h41.95c-.55-6.26-2.67-11.34-6.35-15.25-3.68-3.91-8.51-5.87-14.49-5.87Z"/>
      <path class="uuid-a9145e59-842a-4751-ae58-6b0c399e8db4" d="M969.8,481.24v3.86h-54.1c.55,7.73,2.71,13.55,6.49,17.46,3.77,3.91,8.92,5.87,15.46,5.87,9.84,0,16.15-4.42,18.91-13.25h11.45c-1.93,7.18-5.52,12.86-10.76,17.04-5.24,4.19-11.87,6.28-19.87,6.28-9.85,0-17.8-3.36-23.87-10.07-6.17-6.71-9.25-15.78-9.25-27.19s3.04-20.24,9.11-27.05c5.98-6.81,13.89-10.21,23.74-10.21s18.22,3.54,24.01,10.63c5.8,7.09,8.69,15.96,8.69,26.63ZM937.09,454.06c-5.8,0-10.54,1.82-14.21,5.45-3.68,3.64-5.98,8.86-6.9,15.66h41.95c-.55-6.26-2.67-11.34-6.35-15.25-3.68-3.91-8.51-5.87-14.49-5.87Z"/>
      <path class="uuid-a9145e59-842a-4751-ae58-6b0c399e8db4" d="M1005.82,445.64v9.66h-14.63v46.23c0,4.05,2.71,6.07,8.14,6.07h6.49v9.25c-3.04.28-5.66.41-7.87.41-11.87,0-17.8-4.92-17.8-14.77v-47.2h-11.73v-9.66h11.73v-20.15h11.04v20.15h14.63Z"/>
      <path class="uuid-a9145e59-842a-4751-ae58-6b0c399e8db4" d="M1072.19,519.05c-12.79,0-22.77-2.9-29.95-8.69s-10.81-14.44-10.9-25.94h12.01c.28,16.1,9.89,24.15,28.84,24.15,8,0,14.14-1.56,18.42-4.69,4.28-3.13,6.42-7.68,6.42-13.66,0-4.69-1.77-8.35-5.31-10.97-3.54-2.62-9.73-4.9-18.56-6.83l-8.69-1.93c-9.94-2.3-17.39-5.63-22.36-10-4.97-4.37-7.45-10.51-7.45-18.42s3.04-14.05,9.11-18.7c6.07-4.64,14.21-6.97,24.43-6.97,6.9,0,12.9.83,18.01,2.48,5.11,1.66,9.08,3.98,11.94,6.97,2.85,2.99,4.94,6.23,6.28,9.73,1.33,3.5,2.05,7.36,2.14,11.59h-11.87c-.55-6.99-2.83-12.12-6.83-15.39-4-3.26-10.56-4.9-19.67-4.9-6.9,0-12.21,1.33-15.94,4-3.73,2.67-5.59,6.4-5.59,11.18s1.61,8.51,4.83,11.18c3.13,2.67,9.2,5.02,18.22,7.04l8.69,1.93c10.85,2.39,18.67,5.82,23.46,10.28,4.78,4.46,7.18,10.37,7.18,17.73,0,8.92-3.27,15.96-9.8,21.11-6.53,5.15-15.55,7.73-27.05,7.73Z"/>
      <path class="uuid-a9145e59-842a-4751-ae58-6b0c399e8db4" d="M1127.94,434.87h-11.73v-13.52h11.73v13.52ZM1127.67,516.85h-11.04v-71.21h11.04v71.21Z"/>
      <path class="uuid-a9145e59-842a-4751-ae58-6b0c399e8db4" d="M1196.8,445.64l-25.81,34.78,27.19,36.43h-12.97l-3.86-5.38c-6.72-9.57-12.28-17.3-16.7-23.18-6.62,8.92-12.28,16.7-16.97,23.32l-3.73,5.24h-12.83l27.19-36.43-25.81-34.78h12.97l5.52,7.59c6.16,8.28,10.76,14.72,13.8,19.32,6.99-9.84,11.59-16.28,13.8-19.32l5.38-7.59h12.83Z"/>
      <path class="uuid-a9145e59-842a-4751-ae58-6b0c399e8db4" d="M1233.51,445.64v9.66h-14.63v46.23c0,4.05,2.71,6.07,8.14,6.07h6.49v9.25c-3.04.28-5.66.41-7.87.41-11.87,0-17.8-4.92-17.8-14.77v-47.2h-11.73v-9.66h11.73v-20.15h11.04v20.15h14.63Z"/>
      <path class="uuid-a9145e59-842a-4751-ae58-6b0c399e8db4" d="M1301.82,481.24v3.86h-54.1c.55,7.73,2.71,13.55,6.49,17.46,3.77,3.91,8.92,5.87,15.46,5.87,9.84,0,16.15-4.42,18.91-13.25h11.45c-1.93,7.18-5.52,12.86-10.76,17.04-5.24,4.19-11.87,6.28-19.87,6.28-9.85,0-17.8-3.36-23.87-10.07-6.17-6.71-9.25-15.78-9.25-27.19s3.04-20.24,9.11-27.05c5.98-6.81,13.89-10.21,23.74-10.21s18.22,3.54,24.01,10.63c5.8,7.09,8.69,15.96,8.69,26.63ZM1269.12,454.06c-5.8,0-10.54,1.82-14.21,5.45-3.68,3.64-5.98,8.86-6.9,15.66h41.95c-.55-6.26-2.67-11.34-6.35-15.25-3.68-3.91-8.51-5.87-14.49-5.87Z"/>
      <path class="uuid-a9145e59-842a-4751-ae58-6b0c399e8db4" d="M1372.89,481.24v3.86h-54.1c.55,7.73,2.71,13.55,6.49,17.46,3.77,3.91,8.92,5.87,15.46,5.87,9.84,0,16.15-4.42,18.91-13.25h11.45c-1.93,7.18-5.52,12.86-10.76,17.04-5.24,4.19-11.87,6.28-19.87,6.28-9.85,0-17.8-3.36-23.87-10.07-6.17-6.71-9.25-15.78-9.25-27.19s3.04-20.24,9.11-27.05c5.98-6.81,13.89-10.21,23.74-10.21s18.22,3.54,24.01,10.63c5.8,7.09,8.69,15.96,8.69,26.63ZM1340.19,454.06c-5.8,0-10.54,1.82-14.21,5.45-3.68,3.64-5.98,8.86-6.9,15.66h41.95c-.55-6.26-2.67-11.34-6.35-15.25-3.68-3.91-8.51-5.87-14.49-5.87Z"/>
      <path class="uuid-a9145e59-842a-4751-ae58-6b0c399e8db4" d="M1414.71,443.98c7.91,0,14.08,2.16,18.49,6.49,4.42,4.33,6.62,10.4,6.62,18.22v48.16h-11.04v-47.06c0-10.58-5.43-15.87-16.28-15.87-5.15,0-9.71,1.93-13.66,5.8-3.96,3.86-5.93,9.48-5.93,16.84v40.3h-11.04v-71.21h10.49v10.63c5.43-8.19,12.88-12.28,22.36-12.28Z"/>
    </g>
  </g>
</svg>