<?xml version="1.0" encoding="utf-8"?>
<!-- Generator: Adobe Illustrator 28.0.0, SVG Export Plug-In . SVG Version: 6.00 Build 0)  -->
<svg version="1.1" id="uuid-98a0473a-879b-4b81-80ea-c0cfda73f40b"
	 xmlns="http://www.w3.org/2000/svg" xmlns:xlink="http://www.w3.org/1999/xlink" x="0px" y="0px" viewBox="0 0 1923 325"
	 style="enable-background:new 0 0 1923 325;" xml:space="preserve">
<style type="text/css">
	.st0{fill:#FFFFFF;}
	.st1{fill:#FFFFFF;}
	.st2{fill:#FFFFFF;}
</style>
<g>
	<polygon class="st2" points="531.6,207.4 513.7,207.4 568.9,114.9 586.8,114.9 	"/>
	<polygon class="st2" points="579.7,207.4 561.8,207.4 617,114.9 634.9,114.9 	"/>
	<polygon class="st2" points="627.8,207.4 609.9,207.4 665.1,114.9 683,114.9 	"/>
	<polygon class="st2" points="675.9,207.4 658,207.4 713.2,114.9 731.1,114.9 	"/>
	<polygon class="st2" points="724,207.4 706.1,207.4 761.3,114.9 779.2,114.9 	"/>
	<polygon class="st2" points="772.1,207.4 754.2,207.4 809.4,114.9 827.3,114.9 	"/>
</g>
<polygon class="st0" points="43,6.5 43,13 14.7,13 14.7,41.3 8.2,41.3 8.2,6.5 "/>
<polygon class="st0" points="1881.7,7.5 1881.7,14 1910,14 1910,42.3 1916.5,42.3 1916.5,7.5 "/>
<polygon class="st0" points="42.3,319.4 42.3,313 14,313 14,284.6 7.5,284.6 7.5,319.4 "/>
<polygon class="st0" points="1881.7,318.4 1881.7,312 1910,312 1910,283.6 1916.5,283.6 1916.5,318.4 "/>
<g>
	<rect x="1680.9" y="73.1" class="st0" width="2.2" height="50.4"/>
	<rect x="1685.2" y="73.1" class="st0" width="2.2" height="50.4"/>
	<rect x="1689.5" y="73.1" class="st0" width="4.3" height="50.4"/>
	<rect x="1700.2" y="73.1" class="st0" width="2.2" height="50.4"/>
	<rect x="1704.5" y="73.1" class="st0" width="2.2" height="50.4"/>
	<rect x="1715.3" y="73.1" class="st0" width="2.2" height="50.4"/>
	<rect x="1719.6" y="73.1" class="st0" width="8.6" height="50.4"/>
	<rect x="1730.3" y="73.1" class="st0" width="2.2" height="50.4"/>
	<rect x="1734.6" y="73.1" class="st0" width="2.2" height="50.4"/>
	<rect x="1743.2" y="73.1" class="st0" width="4.3" height="50.4"/>
	<rect x="1749.7" y="73.1" class="st0" width="6.4" height="50.4"/>
	<rect x="1760.4" y="73.1" class="st0" width="2.2" height="50.4"/>
	<rect x="1764.7" y="73.1" class="st0" width="2.2" height="50.4"/>
	<rect x="1775.5" y="73.1" class="st0" width="2.2" height="50.4"/>
	<rect x="1779.8" y="73.1" class="st0" width="2.2" height="50.4"/>
	<rect x="1784.1" y="73.1" class="st0" width="2.2" height="50.4"/>
	<rect x="1788.4" y="73.1" class="st0" width="2.2" height="50.4"/>
	<rect x="1792.7" y="73.1" class="st0" width="6.4" height="50.4"/>
	<rect x="1803.4" y="73.1" class="st0" width="2.2" height="50.4"/>
	<rect x="1809.9" y="73.1" class="st0" width="6.4" height="50.4"/>
	<rect x="1818.5" y="73.1" class="st0" width="4.3" height="50.4"/>
	<rect x="1825" y="73.1" class="st0" width="4.3" height="50.4"/>
	<rect x="1833.6" y="73.1" class="st0" width="2.2" height="50.4"/>
	<rect x="1840" y="73.1" class="st0" width="6.4" height="50.4"/>
	<rect x="1848.6" y="73.1" class="st0" width="2.2" height="50.4"/>
	<rect x="1859.4" y="73.1" class="st0" width="2.2" height="50.4"/>
	<rect x="1863.7" y="73.1" class="st0" width="6.4" height="50.4"/>
	<rect x="1874.4" y="73.1" class="st0" width="2.2" height="50.4"/>
	<rect x="1878.7" y="73.1" class="st0" width="2.2" height="50.4"/>
	<rect x="1883" y="73.1" class="st0" width="2.2" height="50.4"/>
</g>
<g>
	<path class="st1" d="M53.8,63.9h15l18.2,51.4H71l-2.1-7.3H53.1l-2.2,7.3H35.4L53.8,63.9L53.8,63.9z M65.8,97l-4.5-15.9h-0.1
		L56.4,97H65.8z"/>
	<path class="st1" d="M40,135.9h38.5V149H55.3v6.4h19.9v12.2H55.3v19.6H40C40,187.3,40,135.9,40,135.9z"/>
	<path class="st1" d="M85.3,135.9h15.3v38.2h22v13.1H85.3V135.9z"/>
	<path class="st1" d="M129.2,161.6c0-8,2.4-14.5,7.1-19.4c4.5-4.9,10.6-7.5,18.2-7.6c7.7,0.1,13.8,2.6,18.4,7.6
		c4.5,4.9,6.8,11.4,6.9,19.4c-0.1,8-2.3,14.4-6.9,19.3c-4.5,5-10.6,7.5-18.4,7.6c-7.6-0.1-13.7-2.6-18.2-7.6
		C131.6,176,129.2,169.6,129.2,161.6z M144.5,161.6c0,2.8,0.4,5.1,1.1,6.9c0.7,1.9,1.5,3.3,2.5,4.4c2.1,1.9,4.2,2.9,6.3,2.8
		c1,0,2.1-0.2,3.3-0.6c1.2-0.4,2.2-1.2,3.2-2.2c1-1.1,1.9-2.5,2.5-4.4c0.6-1.8,0.9-4.1,0.9-6.9s-0.3-5.3-0.9-7.2
		c-0.6-1.9-1.5-3.3-2.5-4.3c-2.2-1.9-4.3-2.8-6.5-2.7c-1,0-2,0.2-3.1,0.5c-1.1,0.4-2.2,1.2-3.2,2.2c-0.5,0.5-0.9,1.1-1.3,1.8
		c-0.4,0.7-0.8,1.5-1.2,2.5C144.9,156.3,144.5,158.7,144.5,161.6L144.5,161.6z"/>
	<path class="st1" d="M237.3,187.3h-15.4l-5.6-31.4h-0.1l-5.4,31.4h-15.5l-14-51.4h15.5l6.3,31.8h0.1l6.2-31.8h14l6.1,32.2h0.1
		l6.4-32.2h15.6L237.3,187.3L237.3,187.3z"/>
	<path class="st1" d="M257.3,135.9h41.2V149h-25.9v6.4h23.5v12.2h-23.5v6.4h26.6v13.1h-42L257.3,135.9L257.3,135.9z"/>
	<path class="st1" d="M307,135.9h29.9c4.6,0,8.5,1.2,11.7,3.7c3.2,2.5,4.8,6.1,4.9,11c0,2.7-0.6,5.3-1.8,7.7
		c-1.3,2.3-3.3,4.1-5.9,5.2c4.4,1.9,6.9,6.1,7.6,12.8c0.1,0.6,0.2,1.4,0.2,2.4c0.1,1,0.2,2,0.2,3.1c0.2,2.3,0.6,4.2,1.3,5.6h-15.4
		c-0.7-2.6-1.1-5.2-1.2-7.9c0-1.3-0.2-2.5-0.4-3.8c-0.2-1.1-0.5-2.2-1-3.2c-0.5-1-1.2-1.7-2.1-2.3c-0.9-0.5-2.2-0.8-3.9-0.8h-8.7v18
		H307L307,135.9L307,135.9z M322.3,158.4h8.6c1.7,0.1,3.3-0.2,4.8-0.9c1.6-0.6,2.4-2,2.4-4.2c0-1.7-0.5-2.9-1.6-3.8
		c-1.2-0.9-3.4-1.3-6.5-1.3h-7.7L322.3,158.4L322.3,158.4z"/>
	<path class="st1" d="M39,207.9h27.8c3.3,0,6.1,0.4,8.3,1.2c2.1,0.8,3.7,1.9,4.9,3.2c1.2,1.3,2,2.7,2.5,4.2c0.4,1.5,0.6,2.9,0.6,4.3
		c0,2.6-0.6,4.6-1.7,6.1c-1.2,1.6-2.7,2.9-4.7,4c2.4,0.8,4.5,2.1,6.2,4.1c1.8,2,2.7,4.9,2.7,8.7c-0.1,5.1-1.9,9-5.5,11.6
		c-3.5,2.7-7.6,4-12.3,4H39L39,207.9L39,207.9z M54.3,227.9H63c1.7,0,3.1-0.3,4.1-0.9c1-0.6,1.5-1.8,1.5-3.4c0-1.3-0.5-2.2-1.5-2.8
		c-1-0.5-2.3-0.7-4.1-0.7h-8.7V227.9L54.3,227.9z M54.3,247.1h9.6c1.8,0,3.3-0.3,4.5-1c1.2-0.7,1.8-1.9,1.9-3.9
		c0-3.1-1.9-4.6-5.7-4.7H54.3L54.3,247.1L54.3,247.1z"/>
	<path class="st1" d="M107.1,207.9h15l18.1,51.4h-15.9l-2.1-7.3h-15.8l-2.2,7.3H88.8L107.1,207.9L107.1,207.9z M119.2,241l-4.5-15.9
		h-0.1l-4.8,15.9H119.2z"/>
	<path class="st1" d="M156.9,221H143v-13.1h43.2V221h-14v38.2h-15.3V221L156.9,221z"/>
	<path class="st1" d="M192.4,207.9h15.3v17.9h15.4v-17.9h15.3v51.4h-15.3v-20.4h-15.4v20.4h-15.3L192.4,207.9L192.4,207.9z"/>
</g>
<g>
	<path class="st0" d="M1529.7,147.9h24.7c3,0,5.4,0.4,7.4,1.1c1.8,0.7,3.3,1.6,4.4,2.8c1.1,1.1,1.8,2.4,2.2,3.7
		c0.3,1.3,0.5,2.6,0.5,3.8c0,2.3-0.5,4.1-1.5,5.4c-1,1.4-2.4,2.6-4.2,3.5c2.2,0.7,4,1.9,5.5,3.7c1.6,1.8,2.4,4.4,2.4,7.8
		c-0.1,4.6-1.7,8-4.9,10.3c-3.1,2.4-6.8,3.6-10.9,3.6h-25.6L1529.7,147.9L1529.7,147.9z M1543.3,165.7h7.7c1.5,0,2.7-0.3,3.6-0.8
		c0.9-0.6,1.3-1.6,1.3-3c0-1.1-0.4-2-1.3-2.5c-0.9-0.4-2.1-0.6-3.6-0.6h-7.7V165.7z M1543.3,182.7h8.5c1.6,0,2.9-0.3,4-0.9
		c1.1-0.6,1.6-1.7,1.7-3.4c0-2.7-1.7-4.1-5.1-4.2h-9.1L1543.3,182.7L1543.3,182.7z"/>
	<path class="st0" d="M1611.5,176.9c0,4.7-1.4,8.8-4.3,12.1c-2.9,3.5-7.4,5.2-13.6,5.3c-6.1-0.1-10.6-1.9-13.5-5.3
		c-3-3.4-4.4-7.4-4.4-12.2c-0.1-4.8,1.4-8.9,4.4-12.2c2.9-3.4,7.4-5.1,13.5-5.2c6.2,0.1,10.7,1.8,13.6,5.2
		C1610,168.1,1611.5,172.1,1611.5,176.9L1611.5,176.9z M1599.2,176.9c0-0.9,0-1.9-0.1-2.9c-0.1-1-0.4-1.9-0.8-2.6
		c-0.4-0.8-0.9-1.5-1.7-2c-0.8-0.5-1.8-0.7-3.1-0.7s-2.2,0.2-2.9,0.7c-0.8,0.5-1.4,1.2-1.8,2c-0.7,1.7-1.1,3.5-1,5.5
		c0,0.9,0.1,1.8,0.3,2.7c0.1,0.9,0.4,1.8,0.8,2.7c0.4,0.9,1,1.5,1.8,2c0.7,0.6,1.7,0.9,2.9,0.9s2.2-0.3,3.1-0.9
		c0.7-0.5,1.3-1.2,1.7-2C1599,180.6,1599.3,178.8,1599.2,176.9L1599.2,176.9z"/>
	<path class="st0" d="M1632.8,160.3h6.6v7.8h-6.6v11.6c0,1.5,0.2,2.6,0.8,3.3c0.5,0.7,1.5,1.1,3,1.1c0.9,0,1.9-0.1,2.8-0.2v9.6
		c-2.6,0.1-5.2,0.2-7.9,0.4c-1.3,0-2.6-0.1-3.8-0.3c-1.3-0.2-2.4-0.7-3.5-1.3c-1.1-0.7-1.9-1.7-2.5-3c-0.7-1.3-1.1-3.1-1.1-5.3
		v-15.9h-5.5v-7.8h5.5v-10.1h12.2L1632.8,160.3L1632.8,160.3z"/>
	<path class="st0" d="M1676.2,186.1c0,1.2,0.1,2.5,0.2,3.8c0.2,1.3,0.6,2.5,1.2,3.6h-12.9c-0.3-1.1-0.5-2.1-0.4-3.1h-0.1
		c-1.4,1.5-2.9,2.5-4.7,3.1c-1.9,0.6-3.8,0.9-5.9,0.9c-3.2,0-5.8-0.8-7.9-2.4c-2.2-1.7-3.4-4.2-3.4-7.6c0-2.6,0.7-4.6,2.1-6.1
		c1.3-1.5,2.9-2.5,4.9-3.1c2.1-0.7,4.1-1.1,6.2-1.4s3.9-0.5,5.6-0.7c0.5-0.1,0.9-0.3,1.3-0.4c0.4-0.1,0.8-0.3,1.1-0.4
		c0.7-0.4,1-1.1,1-2.1c0-1.1-0.5-1.9-1.3-2.4c-0.8-0.4-1.8-0.7-2.9-0.7c-1.9,0-3.2,0.4-3.8,1.1c-0.7,0.8-1,1.5-1,2.3h-11.8
		c0.2-2.4,0.8-4.3,1.8-5.7c1-1.4,2.3-2.5,3.9-3.2c1.6-0.8,3.4-1.3,5.4-1.6c1.9-0.2,3.8-0.3,5.8-0.3c3.9,0,6.9,0.4,9.1,1.1
		c2.2,0.7,3.7,1.7,4.6,3c0.9,1.2,1.5,2.6,1.7,4.2c0.1,1.6,0.1,3.2,0.1,4.8L1676.2,186.1L1676.2,186.1z M1664.4,178.7
		c-1.7,0.7-3.4,1.3-5.2,1.6c-3,0.4-4.5,1.6-4.5,3.6c0,0.8,0.4,1.5,1.2,2.1c0.7,0.6,1.7,1,2.9,1c1.6,0,2.8-0.4,3.9-1.4
		c1-0.9,1.6-2.1,1.7-3.9V178.7z"/>
	<path class="st0" d="M1683.2,160.3h12.2v4.2h0.1c2.2-3.4,5.8-5,10.8-5c3,0,5.6,0.9,7.7,2.8c2.1,1.8,3.2,4.7,3.3,8.5v22.8h-12.2
		v-17.4c0-2-0.2-3.6-0.7-4.8c-0.5-1.2-1.7-1.8-3.7-1.8c-1.2,0-2.3,0.3-3.4,1.2c-0.5,0.4-1,1.1-1.3,1.9c-0.3,0.9-0.5,2-0.5,3.4v17.6
		h-12.2L1683.2,160.3L1683.2,160.3z"/>
	<path class="st0" d="M1737.2,156.7h-12.2v-8.9h12.2V156.7z M1724.9,160.3h12.2v33.2h-12.2V160.3z"/>
	<path class="st0" d="M1765.6,173c-0.1-1.4-0.6-2.4-1.4-3.2c-0.8-0.7-1.8-1.1-3.1-1.1c-1.2,0-2.1,0.2-2.7,0.7
		c-0.8,0.5-1.3,1.1-1.7,1.9c-0.4,0.8-0.6,1.6-0.8,2.6c-0.2,1-0.2,2.1-0.2,3.1c0,1,0.1,2,0.2,2.9c0.1,1,0.4,1.9,0.8,2.6
		c0.4,0.8,0.9,1.4,1.7,1.9c0.7,0.5,1.6,0.8,2.7,0.8c1.4,0,2.5-0.5,3.4-1.5c0.8-0.9,1.3-2.1,1.4-3.4h11.7c-0.6,4.5-2.5,8-5.5,10.4
		c-3.1,2.4-6.8,3.7-11.2,3.7c-5,0-9.1-1.6-12.3-4.8c-3.4-3.1-5.1-7.3-5.2-12.6c0-5.3,1.8-9.6,5.2-12.8c3.2-3.1,7.3-4.7,12.3-4.7
		c4.3,0,8,1.1,11.1,3.2c3,2.2,4.8,5.6,5.3,10.2L1765.6,173L1765.6,173z"/>
	<path class="st0" d="M1816,186.1c0,1.2,0.1,2.5,0.2,3.8c0.2,1.3,0.6,2.5,1.2,3.6h-12.9c-0.3-1.1-0.5-2.1-0.4-3.1h-0.1
		c-1.4,1.5-2.9,2.5-4.7,3.1c-1.9,0.6-3.8,0.9-5.9,0.9c-3.2,0-5.8-0.8-7.9-2.4c-2.2-1.7-3.4-4.2-3.4-7.6c0-2.6,0.7-4.6,2.1-6.1
		c1.3-1.5,2.9-2.5,4.9-3.1c2.1-0.7,4.1-1.1,6.2-1.4s3.9-0.5,5.6-0.7c0.5-0.1,0.9-0.3,1.3-0.4c0.4-0.1,0.8-0.3,1.1-0.4
		c0.7-0.4,1-1.1,1-2.1c0-1.1-0.5-1.9-1.3-2.4c-0.8-0.4-1.8-0.7-2.9-0.7c-1.9,0-3.2,0.4-3.8,1.1c-0.7,0.8-1,1.5-1,2.3h-11.8
		c0.2-2.4,0.8-4.3,1.8-5.7c1-1.4,2.3-2.5,3.9-3.2c1.6-0.8,3.4-1.3,5.4-1.6c1.9-0.2,3.8-0.3,5.8-0.3c3.9,0,6.9,0.4,9.1,1.1
		c2.2,0.7,3.7,1.7,4.6,3c0.9,1.2,1.5,2.6,1.7,4.2c0.1,1.6,0.1,3.2,0.1,4.8L1816,186.1L1816,186.1z M1804.2,178.7
		c-1.7,0.7-3.4,1.3-5.2,1.6c-3,0.4-4.5,1.6-4.5,3.6c0,0.8,0.4,1.5,1.2,2.1c0.7,0.6,1.7,1,2.9,1c1.6,0,2.8-0.4,3.9-1.4
		c1-0.9,1.6-2.1,1.7-3.9V178.7z"/>
	<path class="st0" d="M1823.2,147.9h12.2v45.7h-12.2V147.9z"/>
	<path class="st0" d="M1541.3,233.2c0,1.1,0.2,2.1,0.5,3c0.6,1.3,1.6,2.2,2.9,2.6c1.3,0.5,2.7,0.7,4,0.7c1.3,0,2.6-0.2,3.9-0.8
		c1.3-0.6,2-1.7,2.1-3.3c0-1.1-0.6-2.1-1.9-2.8c-1.4-0.6-4-1.5-7.9-2.5c-1.8-0.5-3.6-1.1-5.4-1.7c-1.8-0.6-3.5-1.4-5-2.3
		c-1.5-0.9-2.7-2.2-3.7-3.7c-1-1.4-1.5-3.3-1.5-5.6c0.1-5.3,1.9-9.1,5.6-11.6c3.5-2.4,7.6-3.5,12.3-3.5c4.9,0,9.2,1,12.8,3.2
		c3.5,2.3,5.4,6.2,5.7,11.7h-12.9c0.2-1.7-0.4-2.9-1.6-3.6c-1.2-0.8-2.6-1.1-4-1.1c-1,0-2.1,0.2-3.1,0.6c-0.5,0.2-0.9,0.5-1.2,0.9
		c-0.4,0.4-0.6,0.9-0.6,1.6c0.1,0.8,0.5,1.4,1.3,1.9c0.8,0.6,1.7,1.1,2.9,1.5c2.5,0.8,5.4,1.6,8.6,2.4c1.7,0.4,3.4,1,4.9,1.6
		c1.6,0.6,3,1.4,4.2,2.4c1.3,1,2.3,2.3,3.1,3.7c0.7,1.5,1,3.4,1,5.4c-0.1,5.9-2.3,9.9-6.6,12.3c-4.2,2.4-8.9,3.5-14.3,3.5
		c-1.3,0-3-0.2-5.2-0.6c-2.2-0.4-4.3-1.1-6.6-2.2c-2.2-1.1-4.1-2.8-5.6-5c-1.5-2.1-2.4-5-2.5-8.6L1541.3,233.2L1541.3,233.2z"/>
	<path class="st0" d="M1606.8,231.9c0,4.7-1.4,8.8-4.3,12.1c-2.9,3.5-7.4,5.2-13.6,5.3c-6.1-0.1-10.6-1.9-13.5-5.3
		c-3-3.4-4.4-7.4-4.4-12.2c-0.1-4.8,1.4-8.9,4.4-12.2c2.9-3.4,7.4-5.1,13.5-5.2c6.2,0.1,10.7,1.8,13.6,5.2
		C1605.3,223.1,1606.8,227.1,1606.8,231.9L1606.8,231.9z M1594.5,231.9c0-0.9,0-1.9-0.1-2.9c-0.1-1-0.4-1.9-0.8-2.6
		c-0.4-0.8-0.9-1.5-1.7-2c-0.8-0.5-1.8-0.7-3.1-0.7s-2.2,0.2-2.9,0.7c-0.8,0.5-1.4,1.2-1.8,2c-0.7,1.7-1.1,3.5-1,5.5
		c0,0.9,0.1,1.8,0.3,2.7c0.1,0.9,0.4,1.8,0.8,2.7c0.4,0.9,1,1.5,1.8,2c0.7,0.6,1.7,0.9,2.9,0.9s2.2-0.3,3.1-0.9
		c0.7-0.5,1.3-1.2,1.7-2C1594.2,235.6,1594.6,233.8,1594.5,231.9L1594.5,231.9z"/>
	<path class="st0" d="M1645.4,241.1c0,1.2,0.1,2.5,0.2,3.8c0.2,1.3,0.6,2.5,1.2,3.6H1634c-0.3-1.1-0.5-2.1-0.4-3.1h-0.1
		c-1.4,1.5-2.9,2.5-4.7,3.1c-1.9,0.6-3.8,0.9-5.9,0.9c-3.2,0-5.8-0.8-7.9-2.4c-2.2-1.7-3.4-4.2-3.4-7.6c0-2.6,0.7-4.6,2.1-6.1
		c1.3-1.5,2.9-2.5,4.9-3.1c2.1-0.7,4.1-1.1,6.2-1.4s3.9-0.5,5.6-0.7c0.5-0.1,0.9-0.3,1.3-0.4c0.4-0.1,0.8-0.3,1.1-0.4
		c0.7-0.4,1-1.1,1-2.1c0-1.1-0.5-1.9-1.3-2.4c-0.8-0.4-1.8-0.7-2.9-0.7c-1.9,0-3.2,0.4-3.8,1.1c-0.7,0.8-1,1.5-1,2.3h-11.8
		c0.2-2.4,0.8-4.3,1.8-5.7c1-1.4,2.3-2.5,3.9-3.2c1.6-0.8,3.4-1.3,5.4-1.6c1.9-0.2,3.8-0.3,5.8-0.3c3.9,0,6.9,0.4,9.1,1.1
		c2.2,0.7,3.7,1.7,4.6,3c0.9,1.2,1.5,2.6,1.7,4.2c0.1,1.6,0.1,3.2,0.1,4.8L1645.4,241.1L1645.4,241.1z M1633.7,233.7
		c-1.7,0.7-3.4,1.3-5.2,1.6c-3,0.4-4.5,1.6-4.5,3.6c0,0.8,0.4,1.5,1.2,2.1c0.7,0.6,1.7,1,2.9,1c1.6,0,2.8-0.4,3.9-1.4
		c1-0.9,1.6-2.1,1.7-3.9V233.7z"/>
	<path class="st0" d="M1651.7,215.3h11.8v3.7h0.1c0.4-0.6,0.9-1.2,1.4-1.7c0.5-0.6,1.1-1,1.7-1.4c1.3-0.9,3.4-1.4,6.3-1.4
		c2.3,0,4.3,0.6,6.1,1.5c1.7,1,3,2.4,4.2,4.1c2.2,3.6,3.3,7.6,3.3,12c0,2-0.2,3.9-0.6,5.9c-0.4,2-1.1,3.9-2.2,5.6
		c-2,3.7-5.7,5.6-11,5.8c-3.9,0-6.8-1.5-8.8-4.5h-0.1v14.4h-12.2L1651.7,215.3L1651.7,215.3z M1663.5,232c0,0.9,0.1,1.9,0.3,2.9
		c0.2,1,0.5,1.9,0.9,2.6c0.8,1.8,2.4,2.6,4.6,2.7c1.2,0,2.2-0.3,3-0.9c0.8-0.5,1.3-1.1,1.7-1.9c0.7-1.7,1.1-3.5,1.1-5.5
		c0-2.1-0.4-4-1.1-5.7c-0.4-0.8-1-1.4-1.7-1.9c-0.8-0.5-1.8-0.7-3-0.7c-2.3,0-3.8,0.9-4.6,2.6c-0.4,0.8-0.7,1.6-0.9,2.6
		C1663.6,229.9,1663.5,231,1663.5,232L1663.5,232z"/>
	<path class="st0" d="M1713.1,225c-0.1-1.1-0.6-2-1.4-2.5c-0.9-0.7-1.9-1-3-1c-1,0-1.9,0.1-2.8,0.4c-0.9,0.4-1.4,1.1-1.4,2.1
		c0,0.4,0.2,0.8,0.5,1c0.3,0.3,0.7,0.6,1,0.7c0.6,0.2,1.3,0.4,2.2,0.5c0.8,0.2,1.8,0.4,2.8,0.5c2.1,0.3,4.2,0.9,6.4,1.5
		c2.1,0.6,3.9,1.6,5.4,3.1c0.8,0.7,1.3,1.6,1.8,2.6c0.4,1,0.5,2.2,0.5,3.7c0,2.3-0.5,4.1-1.4,5.6c-1,1.5-2.2,2.8-3.8,3.6
		c-3.4,1.7-7.2,2.5-11.3,2.4c-4.1,0-7.7-0.9-11-2.7c-3.3-1.8-5.1-4.8-5.4-9h12.1c0.1,1.1,0.6,2.1,1.5,2.9c0.7,0.6,1.8,1,3.4,1
		c0.9,0,1.8-0.2,2.8-0.6c0.9-0.4,1.4-1,1.5-2c0-0.9-0.4-1.6-1.2-2.1c-0.9-0.5-2.8-0.9-5.8-1.4c-4.8-0.8-8.2-2.1-10.4-3.8
		c-2.1-1.6-3.2-3.9-3.2-6.7c0-2.1,0.5-3.8,1.5-5.2c1-1.4,2.2-2.5,3.8-3.2c1.6-0.8,3.2-1.4,5.1-1.7c1.7-0.3,3.4-0.4,5.1-0.4
		c3.8-0.1,7.3,0.6,10.6,2c1.6,0.7,2.8,1.8,3.8,3.2c1,1.4,1.5,3.1,1.6,5.3L1713.1,225L1713.1,225z"/>
</g>
<g>
	<path class="st0" d="M1552.8,106.2h6.1v4.9h-6.1v11.4h-5.4v-11.4h-22.8v-5.2l22.4-29h5.8L1552.8,106.2L1552.8,106.2z M1547.4,106.2
		V83.9l-17.2,22.3H1547.4z"/>
	<path class="st0" d="M1568.6,117.6h24.1v4.9h-30.1l0.1-2.5c0.3-3.8,1.1-7,2.6-9.7c1.4-2.7,3.9-5,7.4-7l5.8-3.3c2.9-1.7,5-3.4,6.2-5
		c1.2-1.6,1.8-3.6,1.8-5.9c0-2.5-0.8-4.5-2.4-6.1c-1.6-1.5-3.8-2.3-6.6-2.3c-6.4,0-9.5,3.3-9.5,9.8h-5.3c0-4.7,1.3-8.3,3.9-10.8
		s6.3-3.8,11.1-3.8c4.3,0,7.8,1.2,10.5,3.7c2.7,2.5,4,5.7,4,9.5c0,5.9-3.5,10.8-10.4,14.8l-4.9,2.8c-2.8,1.7-4.8,3.4-6.1,5
		S1568.8,115.2,1568.6,117.6L1568.6,117.6z"/>
	<path class="st0" d="M1613.9,92.8c4.8,0,8.6,1.4,11.4,4.3c2.8,2.9,4.2,6.6,4.2,11s-1.4,8.1-4.2,11c-2.9,2.9-6.7,4.3-11.5,4.3
		c-4,0-7.3-1.1-10.1-3.2c-2.5-2-4.2-4.7-5.2-8c-1-3.3-1.5-7.5-1.5-12.4c0-7.6,1.5-13.4,4.4-17.7c2.9-4.2,7.1-6.3,12.6-6.3
		c4,0,7.3,1.1,9.9,3.3c2.6,2.2,4.3,5.2,5,9h-5.2c-0.5-2.4-1.6-4.2-3.3-5.5c-1.7-1.3-3.8-1.9-6.4-1.9c-7.6,0-11.5,6.1-11.6,18.2
		c1.2-1.8,2.9-3.3,5.1-4.5C1609.5,93.3,1611.7,92.8,1613.9,92.8L1613.9,92.8z M1606.5,115.7c1.9,2,4.3,2.9,7.3,2.9s5.4-1,7.2-2.9
		c1.9-2,2.8-4.5,2.8-7.6s-0.9-5.6-2.8-7.6c-1.8-2-4.2-2.9-7.2-2.9s-5.4,1-7.3,2.9c-1.9,2-2.9,4.5-2.9,7.6S1604.5,113.8,1606.5,115.7
		L1606.5,115.7z"/>
	<path class="st0" d="M1640.1,117.6h24.1v4.9H1634l0.1-2.5c0.3-3.8,1.1-7,2.6-9.7c1.4-2.7,3.9-5,7.4-7l5.8-3.3c2.9-1.7,5-3.4,6.2-5
		c1.2-1.6,1.8-3.6,1.8-5.9c0-2.5-0.8-4.5-2.4-6.1c-1.6-1.5-3.8-2.3-6.6-2.3c-6.4,0-9.5,3.3-9.5,9.8h-5.3c0-4.7,1.3-8.3,3.9-10.8
		s6.3-3.8,11.1-3.8c4.3,0,7.8,1.2,10.5,3.7c2.7,2.5,4,5.7,4,9.5c0,5.9-3.5,10.8-10.4,14.8l-4.9,2.8c-2.8,1.7-4.8,3.4-6.1,5
		S1640.2,115.2,1640.1,117.6L1640.1,117.6z"/>
</g>
<g>
	<path class="st0" d="M989,90.2c4.2,1.6,6.3,4.5,6.3,8.7c0,3.2-1,5.7-3.1,7.5c-2.1,1.8-5,2.7-8.7,2.7h-15.9V72.7h15.1
		c3.5,0,6.2,0.9,8.2,2.6s2.9,4,2.9,6.9C993.8,85.9,992.2,88.5,989,90.2L989,90.2z M982.4,76.6h-10.5v12h10.5c2.3,0,4.1-0.5,5.3-1.6
		s1.8-2.6,1.8-4.6c0-1.8-0.6-3.2-1.9-4.2C986.5,77.1,984.7,76.6,982.4,76.6z M971.9,105.2h11.4c2.5,0,4.4-0.5,5.7-1.6
		c1.3-1.1,2-2.7,2-4.7c0-4.3-2.6-6.4-7.8-6.4h-11.3V105.2z"/>
	<path class="st0" d="M1011.9,82.3c0.7,0,1.1,0,1.4,0.1v3.9h-1c-2.7,0-4.8,0.7-6.3,2c-1.5,1.3-2.3,3.3-2.3,5.7v15h-4.1V82.7h3.9v4.6
		C1005.2,84,1008.1,82.3,1011.9,82.3L1011.9,82.3z"/>
	<path class="st0" d="M1036.9,105.7h1.5v3.3c-0.7,0.1-1.4,0.1-2.2,0.1c-2.8,0-4.2-1.3-4.4-3.8c-1.8,2.8-4.7,4.2-8.6,4.2
		c-2.9,0-5.2-0.7-6.8-2s-2.5-3.2-2.5-5.7c0-4.8,3.2-7.5,9.7-8.2l3.8-0.4c2.8-0.3,4.1-1.5,4.1-3.6c0-1.5-0.4-2.5-1.3-3.2
		c-0.9-0.7-2.4-1-4.6-1c-2.3,0-3.9,0.4-4.9,1.2c-1,0.8-1.6,2.1-1.7,4.1h-4.1c0.3-5.8,3.9-8.7,10.7-8.7s9.9,2.6,9.9,7.7v14.7
		C1035.5,105.3,1035.9,105.7,1036.9,105.7L1036.9,105.7z M1023.3,106.2c2.2,0,4.1-0.7,5.7-2c1.6-1.3,2.4-3.1,2.4-5.6v-3.1
		c-0.8,0.6-1.9,0.9-3.5,1.1l-3.8,0.5c-2.2,0.3-3.8,0.8-4.7,1.5c-0.9,0.8-1.4,1.8-1.4,3.2s0.4,2.4,1.3,3.2
		C1020.3,105.8,1021.6,106.2,1023.3,106.2L1023.3,106.2z"/>
	<path class="st0" d="M1054.1,82.1c2.9,0,5.2,0.8,6.8,2.4s2.4,3.8,2.4,6.7V109h-4.1V91.7c0-3.9-2-5.9-6-5.9c-1.9,0-3.6,0.7-5.1,2.1
		c-1.5,1.4-2.2,3.5-2.2,6.2V109h-4.1V82.7h3.9v3.9C1047.8,83.6,1050.6,82.1,1054.1,82.1z"/>
	<path class="st0" d="M1089.2,86.5V72.7h4.1V109h-3.9V105c-2.1,3.1-5.1,4.7-9,4.7c-3.7,0-6.7-1.3-8.9-3.8c-2.2-2.5-3.4-5.8-3.4-10
		s1.1-7.6,3.4-10.1c2.2-2.5,5.1-3.7,8.9-3.7S1087.1,83.6,1089.2,86.5L1089.2,86.5z M1074.8,103.4c1.5,1.7,3.6,2.6,6.2,2.6
		s4.6-0.9,6.2-2.7c1.5-1.8,2.3-4.2,2.3-7.4s-0.8-5.6-2.3-7.4c-1.5-1.8-3.6-2.7-6.2-2.7s-4.6,0.9-6.2,2.8s-2.3,4.4-2.3,7.5
		S1073.2,101.6,1074.8,103.4L1074.8,103.4z"/>
	<path class="st0" d="M1122.7,109.9c-4.7,0-8.4-1.1-11.1-3.2c-2.7-2.1-4-5.3-4-9.6h4.4c0.1,5.9,3.7,8.9,10.7,8.9
		c3,0,5.2-0.6,6.8-1.7c1.6-1.2,2.4-2.8,2.4-5.1c0-1.7-0.7-3.1-2-4.1c-1.3-1-3.6-1.8-6.9-2.5l-3.2-0.7c-3.7-0.8-6.4-2.1-8.3-3.7
		c-1.8-1.6-2.8-3.9-2.8-6.8s1.1-5.2,3.4-6.9c2.2-1.7,5.2-2.6,9-2.6c2.6,0,4.8,0.3,6.7,0.9s3.4,1.5,4.4,2.6c1.1,1.1,1.8,2.3,2.3,3.6
		c0.5,1.3,0.8,2.7,0.8,4.3h-4.4c-0.2-2.6-1.1-4.5-2.5-5.7s-3.9-1.8-7.3-1.8c-2.6,0-4.5,0.5-5.9,1.5c-1.4,1-2.1,2.4-2.1,4.1
		s0.6,3.2,1.8,4.1c1.2,1,3.4,1.8,6.7,2.6l3.2,0.7c4,0.9,6.9,2.2,8.7,3.8s2.7,3.8,2.7,6.6c0,3.3-1.2,5.9-3.6,7.8
		C1130.3,108.9,1127,109.9,1122.7,109.9L1122.7,109.9z"/>
	<path class="st0" d="M1151.7,82.7v3.6h-5.4v17.1c0,1.5,1,2.2,3,2.2h2.4v3.4c-1.1,0.1-2.1,0.1-2.9,0.1c-4.4,0-6.6-1.8-6.6-5.5V86.3
		h-4.3v-3.6h4.3v-7.4h4.1v7.4L1151.7,82.7L1151.7,82.7z"/>
	<path class="st0" d="M1168.3,82.3c0.7,0,1.1,0,1.4,0.1v3.9h-1c-2.7,0-4.8,0.7-6.3,2c-1.5,1.3-2.3,3.3-2.3,5.7v15h-4.1V82.7h3.9v4.6
		C1161.7,84,1164.5,82.3,1168.3,82.3L1168.3,82.3z"/>
	<path class="st0" d="M1193.3,105.7h1.5v3.3c-0.7,0.1-1.4,0.1-2.2,0.1c-2.8,0-4.2-1.3-4.4-3.8c-1.8,2.8-4.7,4.2-8.6,4.2
		c-2.9,0-5.2-0.7-6.8-2s-2.5-3.2-2.5-5.7c0-4.8,3.2-7.5,9.7-8.2l3.8-0.4c2.8-0.3,4.1-1.5,4.1-3.6c0-1.5-0.4-2.5-1.3-3.2
		c-0.9-0.7-2.4-1-4.6-1c-2.3,0-3.9,0.4-4.9,1.2c-1,0.8-1.6,2.1-1.7,4.1h-4.1c0.3-5.8,3.9-8.7,10.7-8.7s9.9,2.6,9.9,7.7v14.7
		C1191.9,105.3,1192.3,105.7,1193.3,105.7L1193.3,105.7z M1179.7,106.2c2.2,0,4.1-0.7,5.7-2c1.6-1.3,2.4-3.1,2.4-5.6v-3.1
		c-0.8,0.6-1.9,0.9-3.5,1.1l-3.8,0.5c-2.2,0.3-3.8,0.8-4.7,1.5s-1.4,1.8-1.4,3.2s0.4,2.4,1.3,3.2
		C1176.7,105.8,1178,106.2,1179.7,106.2L1179.7,106.2z"/>
	<path class="st0" d="M1208.8,82.7v3.6h-5.4v17.1c0,1.5,1,2.2,3,2.2h2.4v3.4c-1.1,0.1-2.1,0.1-2.9,0.1c-4.4,0-6.6-1.8-6.6-5.5V86.3
		h-4.3v-3.6h4.3v-7.4h4.1v7.4L1208.8,82.7L1208.8,82.7z"/>
	<path class="st0" d="M1235.6,95.9v1.4h-20c0.2,2.9,1,5,2.4,6.5c1.4,1.4,3.3,2.2,5.7,2.2c3.6,0,6-1.6,7-4.9h4.2
		c-0.7,2.7-2,4.7-4,6.3s-4.4,2.3-7.3,2.3c-3.6,0-6.6-1.2-8.8-3.7c-2.3-2.5-3.4-5.8-3.4-10.1s1.1-7.5,3.4-10c2.2-2.5,5.1-3.8,8.8-3.8
		s6.7,1.3,8.9,3.9S1235.6,91.9,1235.6,95.9z M1223.5,85.8c-2.1,0-3.9,0.7-5.2,2c-1.4,1.3-2.2,3.3-2.6,5.8h15.5
		c-0.2-2.3-1-4.2-2.3-5.6C1227.5,86.6,1225.7,85.8,1223.5,85.8L1223.5,85.8z"/>
	<path class="st0" d="M1260.5,86.6v-3.8h3.9V108c0,3.6-1.1,6.4-3.2,8.5c-2.1,2.1-5.1,3.1-9.1,3.1c-3.3,0-5.9-0.8-7.8-2.2
		c-2-1.5-3.1-3.6-3.4-6.2h4.1c0.5,3.3,2.9,5,7.1,5c5.4,0,8.2-2.7,8.2-8.2v-2.6c-2.1,2.8-5,4.2-8.8,4.2s-6.7-1.3-8.9-3.8
		c-2.2-2.5-3.4-5.8-3.4-10s1.1-7.6,3.4-10.1c2.2-2.5,5.1-3.7,8.9-3.7S1258.4,83.6,1260.5,86.6L1260.5,86.6z M1251.9,106
		c2.6,0,4.6-0.9,6.2-2.7s2.3-4.3,2.3-7.4s-0.8-5.6-2.3-7.4c-1.5-1.8-3.6-2.7-6.2-2.7s-4.6,0.9-6.2,2.8c-1.6,1.8-2.3,4.3-2.3,7.3
		s0.8,5.5,2.3,7.3C1247.3,105.1,1249.4,106,1251.9,106L1251.9,106z"/>
	<path class="st0" d="M1283.1,93.6l3.7-10.9h4.4l-11.1,30.4c-0.8,2.2-1.8,3.8-3.2,4.7s-3.2,1.4-5.3,1.4c-0.8,0-1.6-0.1-2.4-0.1v-3.4
		h2.4c2.3,0,3.9-1.1,4.8-3.3l0.9-2.4l-9.9-27.2h4.5l3.7,11c1.3,3.9,2.6,7.7,3.8,11.4C1280.4,101.9,1281.6,98.1,1283.1,93.6
		L1283.1,93.6z"/>
	<path class="st0" d="M1327.8,101.2l7,7.9h-5.5l-3.8-4.3c-2.9,3.4-6.8,5.1-11.7,5.1c-3.3,0-6-1-8-3c-2-1.9-3-4.3-3-7.1
		c0-2.4,0.7-4.4,2-6c1.3-1.6,3.5-3.3,6.5-5c-1.6-1.8-2.7-3.3-3.3-4.7c-0.7-1.4-1-2.7-1-4.1c0-2.2,0.8-4.1,2.4-5.7
		c1.6-1.5,3.8-2.3,6.5-2.3c2.4,0,4.5,0.7,6.3,2.1c1.7,1.4,2.6,3.3,2.6,5.8c0,3.6-2.5,6.8-7.4,9.7l7.6,8.4c0.7-2,1-4.1,1-6.4h4.1
		C1329.9,95.1,1329.1,98.4,1327.8,101.2L1327.8,101.2z M1314,106c3.8,0,6.7-1.4,8.8-4.3l-9.1-10.2c-2.3,1.3-4,2.5-5,3.7
		c-1,1.2-1.5,2.7-1.5,4.4s0.6,3.3,1.9,4.6C1310.3,105.4,1311.9,106,1314,106L1314,106z M1315.8,75.6c-1.4,0-2.5,0.4-3.3,1.2
		c-0.8,0.8-1.3,1.8-1.3,3.1c0,1.8,1.2,4.1,3.7,6.8c1.9-1.1,3.3-2.1,4.2-3.2s1.3-2.3,1.3-3.6c0-1.3-0.4-2.3-1.3-3.1
		S1317.1,75.6,1315.8,75.6L1315.8,75.6z"/>
	<path class="st0" d="M1352.1,109h-4.3V72.7h4.3V109z"/>
	<path class="st0" d="M1378.3,86.5V72.7h4.1V109h-3.9V105c-2.1,3.1-5.1,4.7-9,4.7c-3.7,0-6.7-1.3-8.9-3.8c-2.2-2.5-3.4-5.8-3.4-10
		s1.1-7.6,3.4-10.1c2.2-2.5,5.1-3.7,8.9-3.7S1376.1,83.6,1378.3,86.5L1378.3,86.5z M1363.8,103.4c1.5,1.7,3.6,2.6,6.2,2.6
		s4.6-0.9,6.2-2.7c1.5-1.8,2.3-4.2,2.3-7.4s-0.8-5.6-2.3-7.4c-1.5-1.8-3.6-2.7-6.2-2.7s-4.6,0.9-6.2,2.8s-2.3,4.4-2.3,7.5
		S1362.2,101.6,1363.8,103.4L1363.8,103.4z"/>
	<path class="st0" d="M1411.4,95.9v1.4h-20c0.2,2.9,1,5,2.4,6.5c1.4,1.4,3.3,2.2,5.7,2.2c3.6,0,6-1.6,7-4.9h4.2
		c-0.7,2.7-2,4.7-4,6.3s-4.4,2.3-7.3,2.3c-3.6,0-6.6-1.2-8.8-3.7c-2.3-2.5-3.4-5.8-3.4-10.1s1.1-7.5,3.4-10c2.2-2.5,5.1-3.8,8.8-3.8
		s6.7,1.3,8.9,3.9S1411.4,91.9,1411.4,95.9z M1399.3,85.8c-2.1,0-3.9,0.7-5.2,2c-1.4,1.3-2.2,3.3-2.6,5.8h15.5
		c-0.2-2.3-1-4.2-2.3-5.6C1403.3,86.6,1401.5,85.8,1399.3,85.8L1399.3,85.8z"/>
	<path class="st0" d="M1428.4,82.1c2.9,0,5.2,0.8,6.8,2.4s2.4,3.8,2.4,6.7V109h-4.1V91.7c0-3.9-2-5.9-6-5.9c-1.9,0-3.6,0.7-5.1,2.1
		c-1.5,1.4-2.2,3.5-2.2,6.2V109h-4.1V82.7h3.9v3.9C1422.1,83.6,1424.9,82.1,1428.4,82.1z"/>
	<path class="st0" d="M1454.3,82.7v3.6h-5.4v17.1c0,1.5,1,2.2,3,2.2h2.4v3.4c-1.1,0.1-2.1,0.1-2.9,0.1c-4.4,0-6.6-1.8-6.6-5.5V86.3
		h-4.3v-3.6h4.3v-7.4h4.1v7.4L1454.3,82.7L1454.3,82.7z"/>
	<path class="st0" d="M1462.8,78.7h-4.3v-5h4.3V78.7z M1462.7,109h-4.1V82.7h4.1V109z"/>
	<path class="st0" d="M1480.4,82.7v3.6h-5.4v17.1c0,1.5,1,2.2,3,2.2h2.4v3.4c-1.1,0.1-2.1,0.1-2.9,0.1c-4.4,0-6.6-1.8-6.6-5.5V86.3
		h-4.3v-3.6h4.3v-7.4h4.1v7.4L1480.4,82.7L1480.4,82.7z"/>
	<path class="st0" d="M1497.7,93.6l3.7-10.9h4.4l-11.1,30.4c-0.8,2.2-1.8,3.8-3.2,4.7s-3.2,1.4-5.3,1.4c-0.8,0-1.6-0.1-2.4-0.1v-3.4
		h2.4c2.3,0,3.9-1.1,4.8-3.3l0.9-2.4l-9.9-27.2h4.5l3.7,11c1.3,3.9,2.6,7.7,3.8,11.4C1494.9,101.9,1496.1,98.1,1497.7,93.6
		L1497.7,93.6z"/>
	<path class="st0" d="M1225.5,127.7h15.1c3.8,0,6.8,1,8.9,3s3.1,4.7,3.1,8.2s-1.1,6.1-3.1,8.2s-5.1,3-8.9,3h-10.8v14h-4.3
		L1225.5,127.7L1225.5,127.7z M1229.7,146.2h10.8c2.5,0,4.4-0.6,5.7-1.9c1.3-1.2,1.9-3.1,1.9-5.4s-0.6-4.2-1.9-5.4
		c-1.3-1.2-3.2-1.9-5.7-1.9h-10.8V146.2L1229.7,146.2z"/>
	<path class="st0" d="M1268.8,137.1c2.9,0,5.2,0.8,6.8,2.4c1.6,1.6,2.4,3.8,2.4,6.7V164h-4.1v-17.4c0-3.9-2-5.9-6-5.9
		c-1.9,0-3.6,0.7-5.1,2.1s-2.2,3.5-2.2,6.2V164h-4.1v-36.3h4.1v13.6C1262.7,138.5,1265.4,137.1,1268.8,137.1z"/>
	<path class="st0" d="M1304.8,160.9c-2.4,2.5-5.5,3.8-9.2,3.8s-6.8-1.3-9.2-3.8c-2.4-2.5-3.6-5.8-3.6-10s1.2-7.5,3.6-10
		c2.4-2.5,5.5-3.8,9.2-3.8s6.8,1.3,9.2,3.8c2.4,2.5,3.6,5.8,3.6,10S1307.2,158.4,1304.8,160.9z M1289.5,158.3
		c1.5,1.8,3.6,2.7,6.2,2.7s4.6-0.9,6.2-2.7c1.5-1.8,2.3-4.2,2.3-7.4s-0.8-5.7-2.3-7.4s-3.6-2.6-6.2-2.6s-4.6,0.9-6.2,2.6
		c-1.5,1.8-2.3,4.2-2.3,7.4S1287.9,156.5,1289.5,158.3z"/>
	<path class="st0" d="M1323.2,137.7v3.6h-5.4v17.1c0,1.5,1,2.2,3,2.2h2.4v3.4c-1.1,0.1-2.1,0.1-2.9,0.1c-4.4,0-6.6-1.8-6.6-5.5
		v-17.4h-4.3v-3.6h4.3v-7.4h4.1v7.4L1323.2,137.7L1323.2,137.7z"/>
	<path class="st0" d="M1347.7,160.9c-2.4,2.5-5.5,3.8-9.2,3.8s-6.8-1.3-9.2-3.8c-2.4-2.5-3.6-5.8-3.6-10s1.2-7.5,3.6-10
		c2.4-2.5,5.5-3.8,9.2-3.8s6.8,1.3,9.2,3.8c2.4,2.5,3.6,5.8,3.6,10S1350.1,158.4,1347.7,160.9z M1332.4,158.3
		c1.5,1.8,3.6,2.7,6.2,2.7s4.6-0.9,6.2-2.7c1.5-1.8,2.3-4.2,2.3-7.4s-0.8-5.7-2.3-7.4s-3.6-2.6-6.2-2.6s-4.6,0.9-6.2,2.6
		c-1.5,1.8-2.3,4.2-2.3,7.4S1330.8,156.5,1332.4,158.3z"/>
	<path class="st0" d="M1376.1,141.6v-3.8h3.9V163c0,3.6-1.1,6.4-3.2,8.5c-2.1,2.1-5.1,3.1-9.1,3.1c-3.3,0-5.9-0.8-7.8-2.2
		c-2-1.5-3.1-3.6-3.4-6.2h4.1c0.5,3.3,2.9,5,7.1,5c5.4,0,8.2-2.7,8.2-8.2v-2.6c-2.1,2.8-5,4.2-8.8,4.2s-6.7-1.3-8.9-3.8
		c-2.2-2.5-3.4-5.9-3.4-10s1.1-7.6,3.4-10.1c2.2-2.5,5.1-3.7,8.9-3.7S1374,138.6,1376.1,141.6L1376.1,141.6z M1367.6,161
		c2.6,0,4.6-0.9,6.2-2.7s2.3-4.3,2.3-7.4s-0.8-5.6-2.3-7.4s-3.6-2.7-6.2-2.7s-4.6,0.9-6.2,2.8c-1.6,1.8-2.3,4.3-2.3,7.3
		s0.8,5.5,2.3,7.3C1363,160.1,1365,161,1367.6,161L1367.6,161z"/>
	<path class="st0" d="M1398.5,137.3c0.7,0,1.1,0,1.4,0.1v3.9h-1c-2.7,0-4.8,0.7-6.3,2c-1.5,1.3-2.3,3.3-2.3,5.7v15h-4.1v-26.3h3.9
		v4.6C1391.8,139,1394.6,137.3,1398.5,137.3L1398.5,137.3z"/>
	<path class="st0" d="M1423.4,160.7h1.5v3.3c-0.7,0.1-1.4,0.1-2.2,0.1c-2.8,0-4.2-1.3-4.4-3.8c-1.8,2.8-4.7,4.2-8.6,4.2
		c-2.9,0-5.2-0.7-6.8-2s-2.5-3.2-2.5-5.7c0-4.8,3.2-7.5,9.7-8.2l3.8-0.4c2.8-0.3,4.1-1.5,4.1-3.6c0-1.5-0.4-2.5-1.3-3.2
		c-0.9-0.6-2.4-1-4.6-1c-2.3,0-3.9,0.4-4.9,1.1c-1,0.8-1.6,2.1-1.7,4.1h-4.1c0.3-5.8,3.9-8.7,10.7-8.7s9.9,2.6,9.9,7.6v14.7
		C1422,160.3,1422.4,160.7,1423.4,160.7L1423.4,160.7z M1409.8,161.2c2.2,0,4.1-0.7,5.7-2c1.6-1.3,2.4-3.1,2.4-5.6v-3.1
		c-0.8,0.6-1.9,0.9-3.5,1.1l-3.8,0.5c-2.2,0.3-3.8,0.8-4.7,1.5s-1.4,1.8-1.4,3.2s0.4,2.4,1.3,3.2
		C1406.8,160.8,1408.1,161.2,1409.8,161.2z"/>
	<path class="st0" d="M1441.3,137.1c3.7,0,6.7,1.2,8.9,3.7c2.2,2.5,3.3,5.9,3.3,10.1s-1.1,7.5-3.3,10c-2.2,2.5-5.2,3.8-8.9,3.8
		s-6.7-1.5-8.8-4.4V174h-4.1v-36.3h3.9v4.1C1434.4,138.7,1437.4,137.1,1441.3,137.1L1441.3,137.1z M1440.8,161
		c2.6,0,4.6-0.9,6.2-2.8s2.3-4.4,2.3-7.5s-0.8-5.5-2.3-7.3s-3.6-2.6-6.2-2.6s-4.6,0.9-6.2,2.6c-1.5,1.8-2.3,4.2-2.3,7.4
		s0.8,5.6,2.3,7.4C1436.2,160.1,1438.3,161,1440.8,161L1440.8,161z"/>
	<path class="st0" d="M1470.6,137.1c2.9,0,5.2,0.8,6.8,2.4c1.6,1.6,2.4,3.8,2.4,6.7V164h-4.1v-17.4c0-3.9-2-5.9-6-5.9
		c-1.9,0-3.6,0.7-5.1,2.1s-2.2,3.5-2.2,6.2V164h-4.1v-36.3h4.1v13.6C1464.5,138.5,1467.2,137.1,1470.6,137.1z"/>
	<path class="st0" d="M1497.7,148.6l3.7-10.9h4.4l-11.1,30.4c-0.8,2.2-1.8,3.8-3.2,4.7s-3.2,1.4-5.3,1.4c-0.8,0-1.6-0.1-2.4-0.1
		v-3.4h2.4c2.3,0,3.9-1.1,4.8-3.3l0.9-2.4l-9.9-27.2h4.5l3.7,11c1.3,3.9,2.6,7.7,3.8,11.4C1494.9,156.9,1496.1,153.1,1497.7,148.6
		L1497.7,148.6z"/>
	<path class="st0" d="M1374,219.9c-4.7,0-8.4-1.1-11.1-3.2c-2.7-2.1-4-5.3-4-9.6h4.4c0.1,5.9,3.7,8.9,10.7,8.9c3,0,5.2-0.6,6.8-1.7
		s2.4-2.8,2.4-5.1c0-1.7-0.7-3.1-2-4.1c-1.3-1-3.6-1.8-6.9-2.5l-3.2-0.7c-3.7-0.9-6.4-2.1-8.3-3.7c-1.8-1.6-2.8-3.9-2.8-6.8
		s1.1-5.2,3.4-6.9c2.2-1.7,5.2-2.6,9-2.6c2.6,0,4.8,0.3,6.7,0.9s3.4,1.5,4.4,2.6s1.8,2.3,2.3,3.6s0.8,2.7,0.8,4.3h-4.4
		c-0.2-2.6-1.1-4.5-2.5-5.7s-3.9-1.8-7.3-1.8c-2.6,0-4.5,0.5-5.9,1.5c-1.4,1-2.1,2.4-2.1,4.1s0.6,3.1,1.8,4.1c1.2,1,3.4,1.9,6.7,2.6
		l3.2,0.7c4,0.9,6.9,2.1,8.7,3.8c1.8,1.6,2.7,3.8,2.7,6.6c0,3.3-1.2,5.9-3.6,7.8C1381.6,218.9,1378.2,219.9,1374,219.9L1374,219.9z"
		/>
	<path class="st0" d="M1402.9,192.7v3.6h-5.4v17.1c0,1.5,1,2.2,3,2.2h2.4v3.4c-1.1,0.1-2.1,0.1-2.9,0.1c-4.4,0-6.6-1.8-6.6-5.5
		v-17.4h-4.3v-3.6h4.3v-7.4h4.1v7.4L1402.9,192.7L1402.9,192.7z"/>
	<path class="st0" d="M1420.2,203.6l3.7-10.9h4.4l-11.1,30.4c-0.8,2.2-1.8,3.8-3.2,4.7s-3.2,1.4-5.3,1.4c-0.8,0-1.6-0.1-2.4-0.1
		v-3.4h2.4c2.3,0,3.9-1.1,4.8-3.3l0.9-2.4l-9.9-27.2h4.5l3.7,11c1.3,3.9,2.6,7.7,3.8,11.4C1417.5,211.9,1418.7,208.1,1420.2,203.6
		L1420.2,203.6z"/>
	<path class="st0" d="M1435.3,219h-4.1v-36.3h4.1V219z"/>
	<path class="st0" d="M1445.6,188.7h-4.3v-5h4.3V188.7z M1445.5,219h-4.1v-26.3h4.1V219z"/>
	<path class="st0" d="M1463.7,192.1c2.9,0,5.2,0.8,6.8,2.4c1.6,1.6,2.4,3.8,2.4,6.7V219h-4.1v-17.4c0-3.9-2-5.9-6-5.9
		c-1.9,0-3.6,0.7-5.1,2.1s-2.2,3.5-2.2,6.2V219h-4.1v-26.3h3.9v3.9C1457.5,193.6,1460.2,192.1,1463.7,192.1L1463.7,192.1z"/>
	<path class="st0" d="M1499.1,196.6v-3.8h3.9V218c0,3.6-1.1,6.4-3.2,8.5c-2.1,2.1-5.1,3.1-9.1,3.1c-3.3,0-5.9-0.8-7.8-2.2
		c-2-1.5-3.1-3.6-3.4-6.2h4.1c0.5,3.3,2.9,5,7.1,5c5.4,0,8.2-2.7,8.2-8.2v-2.6c-2.1,2.8-5,4.2-8.8,4.2s-6.7-1.3-8.9-3.8
		c-2.2-2.5-3.4-5.9-3.4-10s1.1-7.6,3.4-10.1c2.2-2.5,5.1-3.7,8.9-3.7S1497,193.6,1499.1,196.6L1499.1,196.6z M1490.6,216
		c2.6,0,4.6-0.9,6.2-2.7s2.3-4.3,2.3-7.4s-0.8-5.6-2.3-7.4s-3.6-2.7-6.2-2.7s-4.6,0.9-6.2,2.8c-1.6,1.8-2.3,4.3-2.3,7.3
		s0.8,5.5,2.3,7.3C1486,215.1,1488.1,216,1490.6,216z"/>
</g>
<g>
	<path class="st0" d="M1885.7,142.5v2h-21.4V142h15.9v-4.9h2l0,0.5c0.1,1.5,0.4,2.6,0.9,3.4S1884.5,142.2,1885.7,142.5L1885.7,142.5
		z"/>
	<path class="st0" d="M1883.4,147.1h2.3v13.7h-2c-5.5-4.9-12-7.5-19.4-7.7v-2.6c3.7,0.1,7.1,0.8,10.2,1.9c3.1,1.2,6,3,8.9,5.4
		L1883.4,147.1L1883.4,147.1z"/>
	<path class="st0" d="M1871.7,168.6v-8.7h2.2v8.7H1871.7z"/>
	<path class="st0" d="M1866.7,184.8c-1.9-1.3-2.9-3.2-2.9-5.8s1-4.5,2.9-5.8c1.9-1.3,4.7-1.9,8.3-1.9s6.3,0.6,8.3,1.9
		c1.9,1.3,2.9,3.2,2.9,5.8s-1,4.5-2.9,5.8c-1.9,1.3-4.7,1.9-8.3,1.9S1868.7,186.1,1866.7,184.8z M1883.9,179c0-3.4-3-5.1-8.9-5.1
		s-8.9,1.7-8.9,5.1s3,5.1,8.9,5.1S1883.9,182.4,1883.9,179z"/>
	<path class="st0" d="M1884.4,201.3c-0.9,1.2-2.2,2-3.7,2.5c-1.6,0.5-3.5,0.7-5.8,0.7c-3.5,0-6.3-0.7-8.3-2s-3-3.3-3-5.8
		c0-1.9,0.5-3.5,1.5-4.8c1-1.3,2.4-2.1,4.2-2.4v2.5c-1.1,0.2-2,0.8-2.6,1.6c-0.6,0.8-0.9,1.9-0.9,3.1c0,3.5,2.8,5.2,8.6,5.3
		c-0.9-0.6-1.6-1.4-2.1-2.4s-0.8-2-0.8-3c0-2.2,0.7-4,2-5.3c1.4-1.3,3.1-2,5.2-2s3.8,0.7,5.2,2c1.4,1.3,2,3.1,2,5.3
		C1885.9,198.5,1885.4,200.1,1884.4,201.3L1884.4,201.3z M1875.2,193.2c-0.9,0.9-1.4,2-1.4,3.4s0.5,2.5,1.4,3.4
		c0.9,0.9,2.1,1.4,3.5,1.4s2.6-0.4,3.6-1.4c0.9-0.9,1.3-2,1.3-3.4s-0.5-2.5-1.4-3.4c-0.9-0.9-2.1-1.3-3.5-1.3
		S1876.1,192.4,1875.2,193.2L1875.2,193.2z"/>
	<path class="st0" d="M1871.7,215.9v-8.7h2.2v8.7H1871.7z"/>
	<path class="st0" d="M1866.7,232.1c-1.9-1.3-2.9-3.2-2.9-5.8s1-4.5,2.9-5.8c1.9-1.3,4.7-1.9,8.3-1.9s6.3,0.6,8.3,1.9
		c1.9,1.3,2.9,3.2,2.9,5.8s-1,4.5-2.9,5.8c-1.9,1.3-4.7,1.9-8.3,1.9S1868.7,233.4,1866.7,232.1z M1883.9,226.3c0-3.4-3-5.1-8.9-5.1
		s-8.9,1.7-8.9,5.1s3,5.1,8.9,5.1S1883.9,229.7,1883.9,226.3z"/>
	<path class="st0" d="M1875.7,247.6c-1.2,2.4-3,3.6-5.4,3.6c-1.9,0-3.5-0.7-4.7-2c-1.2-1.3-1.8-3.1-1.8-5.3c0-2.4,0.6-4.2,1.9-5.5
		s2.9-2,5.1-1.9v2.5c-1.5,0-2.7,0.5-3.5,1.4c-0.8,0.9-1.2,2.1-1.2,3.6c0,1.4,0.4,2.6,1.1,3.4c0.8,0.9,1.8,1.3,3.1,1.3
		s2.3-0.4,3.1-1.3c0.8-0.9,1.2-2.1,1.2-3.6V242h2.1v1.4c0,1.4,0.3,2.5,1,3.3c0.6,0.8,1.5,1.2,2.7,1.2s2-0.4,2.6-1.2s0.9-1.8,0.9-3.1
		s-0.3-2.4-1-3.2c-0.7-0.8-1.7-1.2-3-1.3v-2.5c1.9,0,3.5,0.7,4.6,1.9s1.7,2.9,1.7,5.1s-0.5,3.7-1.5,5s-2.4,1.9-4.2,1.9
		C1878.3,250.5,1876.8,249.5,1875.7,247.6L1875.7,247.6z"/>
</g>
</svg>
