<?xml version="1.0" encoding="utf-8"?>
<!-- Generator: Adobe Illustrator 27.9.0, SVG Export Plug-In . SVG Version: 6.00 Build 0)  -->
<svg version="1.1" id="Layer_1" xmlns="http://www.w3.org/2000/svg" xmlns:xlink="http://www.w3.org/1999/xlink" x="0px" y="0px"
	 viewBox="0 0 189.93 61.35" style="enable-background:new 0 0 189.93 61.35;" xml:space="preserve">
<style type="text/css">
	.st0{fill:#FFFFFF;}
</style>
<g>
	<g>
		<g>
			<g>
				<g>
					<path class="st0" d="M189.93,61.35H60.6V0h129.33V61.35z M61.35,60.6h127.83V0.75H61.35V60.6z"/>
				</g>
			</g>
		</g>
	</g>
	<g>
		<g>
			<g>
				<g>
					<path class="st0" d="M189.93,21.51H60.6V0h129.33V21.51z M61.35,20.76h127.83V0.75H61.35V20.76z"/>
				</g>
			</g>
		</g>
	</g>
	<g>
		<g>
			<g>
				<g>
					<path class="st0" d="M61.35,61.35H0V0h61.35V61.35z M0.75,60.6H60.6V0.75H0.75V60.6z"/>
				</g>
			</g>
		</g>
	</g>
	<g>
		<g>
			<g>
				<g>
					<path class="st0" d="M125.26,59.14c-30.5,0-55.32-7.87-55.32-17.55s24.82-17.55,55.32-17.55c30.5,0,55.32,7.87,55.32,17.55
						S155.77,59.14,125.26,59.14z M125.26,24.79c-30.09,0-54.57,7.54-54.57,16.8c0,9.26,24.48,16.8,54.57,16.8
						c30.09,0,54.57-7.54,54.57-16.8C179.83,32.33,155.35,24.79,125.26,24.79z"/>
				</g>
			</g>
		</g>
	</g>
	<g>
		<g>
			<g>
				<g>
					<path class="st0" d="M125.26,59.14c-19.23,0-34.88-7.87-34.88-17.55s15.65-17.55,34.88-17.55s34.88,7.87,34.88,17.55
						S144.5,59.14,125.26,59.14z M125.26,24.79c-18.82,0-34.13,7.54-34.13,16.8c0,9.26,15.31,16.8,34.13,16.8
						c18.82,0,34.13-7.54,34.13-16.8C159.39,32.33,144.08,24.79,125.26,24.79z"/>
				</g>
			</g>
		</g>
	</g>
	<g>
		<g>
			<g>
				<g>
					<rect x="124.89" y="24.41" class="st0" width="0.75" height="34.35"/>
				</g>
			</g>
		</g>
	</g>
	<g>
		<g>
			<g>
				<g>
					<path class="st0" d="M125.26,59.14c-24.73,0-44.84-7.87-44.84-17.55s20.12-17.55,44.84-17.55c24.73,0,44.84,7.87,44.84,17.55
						S149.99,59.14,125.26,59.14z M125.26,24.79c-24.31,0-44.09,7.54-44.09,16.8c0,9.26,19.78,16.8,44.09,16.8
						s44.09-7.54,44.09-16.8C169.36,32.33,149.58,24.79,125.26,24.79z"/>
				</g>
			</g>
		</g>
	</g>
	<g>
		<g>
			<g>
				<g>
					<path class="st0" d="M125.26,59.14c-12.48,0-22.62-7.87-22.62-17.55s10.15-17.55,22.62-17.55s22.62,7.87,22.62,17.55
						S137.74,59.14,125.26,59.14z M125.26,24.79c-12.06,0-21.88,7.54-21.88,16.8c0,9.26,9.81,16.8,21.88,16.8s21.88-7.54,21.88-16.8
						C147.14,32.33,137.33,24.79,125.26,24.79z"/>
				</g>
			</g>
		</g>
	</g>
	<g>
		<g>
			<g>
				<g>
					<rect x="70.32" y="41.22" class="st0" width="109.89" height="0.75"/>
				</g>
			</g>
		</g>
	</g>
</g>
<g>
	<path class="st0" d="M76.34,6.72h0.58c0.28,0,0.55,0,0.82-0.01C78,6.7,78.23,6.69,78.42,6.68l-0.06,0.24
		c-0.27,0.01-0.48,0.04-0.64,0.09c-0.15,0.05-0.27,0.15-0.35,0.29s-0.17,0.36-0.25,0.65l-1.58,5.95c-0.07,0.29-0.1,0.5-0.09,0.65
		c0.01,0.14,0.08,0.24,0.21,0.29s0.32,0.08,0.59,0.1l-0.05,0.24c-0.18-0.02-0.41-0.03-0.67-0.03c-0.26,0-0.54-0.01-0.82-0.01
		c-0.31,0-0.61,0-0.89,0.01c-0.28,0-0.5,0.01-0.67,0.03l0.05-0.24c0.28-0.02,0.49-0.05,0.64-0.1c0.15-0.05,0.27-0.14,0.35-0.29
		c0.09-0.14,0.17-0.36,0.24-0.65l1.74-6.47l-4.98,7.8h-0.26l-0.82-7.9l-1.7,6.44c-0.07,0.29-0.1,0.51-0.1,0.68
		c0.01,0.16,0.08,0.28,0.23,0.35c0.14,0.07,0.37,0.11,0.67,0.13l-0.06,0.24c-0.09-0.01-0.2-0.01-0.34-0.02
		c-0.14,0-0.29-0.01-0.44-0.01c-0.15,0-0.3-0.01-0.43-0.01c-0.2,0-0.4,0-0.61,0.01c-0.21,0-0.38,0.01-0.52,0.03l0.06-0.24
		c0.28-0.02,0.5-0.06,0.65-0.13c0.15-0.07,0.27-0.18,0.37-0.35c0.09-0.16,0.17-0.39,0.25-0.68l1.56-5.83
		c0.08-0.3,0.11-0.51,0.1-0.65s-0.09-0.24-0.21-0.29c-0.12-0.05-0.32-0.08-0.59-0.09l0.06-0.24c0.13,0.01,0.29,0.02,0.47,0.02
		c0.19,0.01,0.39,0.01,0.59,0.01c0.18,0,0.37,0,0.56-0.01c0.19-0.01,0.36-0.02,0.49-0.02l0.66,7.12L76.34,6.72z"/>
	<path class="st0" d="M78.91,14.96c0.19,0,0.41-0.12,0.66-0.37c0.25-0.24,0.5-0.57,0.76-0.99c0.26-0.42,0.49-0.89,0.71-1.42
		c0.22-0.53,0.39-1.08,0.52-1.64l-0.2,1.3c-0.3,0.85-0.61,1.53-0.91,2.05s-0.61,0.89-0.92,1.12s-0.63,0.34-0.95,0.34
		c-0.38,0-0.66-0.14-0.85-0.41c-0.19-0.27-0.28-0.62-0.28-1.04c0-0.38,0.06-0.8,0.19-1.25c0.13-0.45,0.31-0.9,0.53-1.35
		c0.23-0.45,0.49-0.86,0.79-1.22c0.3-0.37,0.62-0.66,0.97-0.89c0.35-0.22,0.7-0.34,1.06-0.34c0.28,0,0.49,0.14,0.64,0.41
		c0.15,0.28,0.18,0.66,0.09,1.16l-0.13,0.07c0.06-0.42,0.03-0.77-0.08-1.03c-0.11-0.26-0.3-0.39-0.55-0.39
		c-0.21,0-0.43,0.1-0.65,0.31c-0.23,0.2-0.45,0.48-0.66,0.83c-0.21,0.35-0.4,0.74-0.58,1.17c-0.17,0.43-0.31,0.88-0.41,1.34
		s-0.15,0.9-0.15,1.33c0,0.34,0.04,0.58,0.11,0.72S78.78,14.96,78.91,14.96z M81.93,9.01c0.19-0.01,0.38-0.02,0.58-0.05
		c0.19-0.02,0.37-0.06,0.53-0.12l-1.5,5.3c-0.02,0.07-0.04,0.17-0.07,0.28c-0.03,0.12-0.03,0.22,0,0.32
		c0.03,0.1,0.11,0.14,0.25,0.14c0.16,0,0.32-0.09,0.47-0.26c0.15-0.18,0.3-0.5,0.46-0.96l0.14-0.44h0.23l-0.3,0.88
		c-0.11,0.32-0.25,0.57-0.4,0.75c-0.16,0.18-0.32,0.31-0.49,0.38c-0.17,0.08-0.33,0.11-0.49,0.11c-0.31,0-0.53-0.1-0.66-0.31
		c-0.1-0.18-0.13-0.4-0.08-0.64c0.05-0.24,0.1-0.49,0.17-0.74L81.93,9.01z"/>
	<path class="st0" d="M84.54,15.18h-1.04l2.38-8c0.08-0.27,0.07-0.47-0.03-0.6c-0.1-0.13-0.35-0.19-0.74-0.19l0.07-0.25
		c0.44-0.01,0.84-0.05,1.19-0.14c0.35-0.08,0.68-0.2,0.97-0.35L84.54,15.18z M87.63,14.41c-0.03,0.18-0.03,0.3,0,0.38
		c0.03,0.08,0.11,0.11,0.24,0.11c0.16,0,0.31-0.09,0.45-0.27c0.14-0.18,0.29-0.5,0.44-0.95l0.14-0.44h0.23l-0.29,0.88
		c-0.1,0.32-0.23,0.57-0.38,0.75c-0.15,0.18-0.31,0.31-0.49,0.38c-0.18,0.07-0.37,0.11-0.56,0.11c-0.26,0-0.46-0.09-0.62-0.27
		c-0.16-0.18-0.2-0.47-0.11-0.87l0.22-1.03c0.1-0.46,0.05-0.81-0.15-1.03c-0.2-0.22-0.63-0.35-1.3-0.4V11.7
		c0.3-0.02,0.61-0.02,0.93,0c0.32,0.02,0.6,0.09,0.85,0.2c0.25,0.11,0.44,0.27,0.56,0.48c0.13,0.21,0.16,0.49,0.08,0.83L87.63,14.41
		z M88.69,9.1c-0.1,0-0.18,0.02-0.25,0.05c-0.07,0.03-0.13,0.07-0.2,0.12c-0.15,0.12-0.28,0.28-0.38,0.49
		c-0.1,0.2-0.21,0.42-0.31,0.65c-0.1,0.23-0.23,0.45-0.38,0.65c-0.15,0.2-0.35,0.37-0.6,0.5s-0.57,0.19-0.97,0.18l-0.12,0.01
		l0.02-0.13c0.39-0.02,0.71-0.1,0.94-0.24c0.24-0.14,0.42-0.3,0.56-0.5c0.14-0.2,0.26-0.41,0.35-0.63c0.1-0.22,0.2-0.43,0.3-0.63
		c0.1-0.2,0.24-0.36,0.41-0.49c0.14-0.11,0.27-0.19,0.39-0.22c0.12-0.04,0.23-0.05,0.33-0.05c0.28,0,0.47,0.07,0.58,0.21
		c0.1,0.14,0.15,0.31,0.13,0.5c-0.01,0.1-0.04,0.2-0.08,0.32c-0.05,0.12-0.12,0.22-0.22,0.31c-0.1,0.09-0.23,0.13-0.39,0.13
		c-0.18,0-0.3-0.05-0.37-0.16s-0.1-0.23-0.1-0.35c0.01-0.11,0.05-0.23,0.12-0.37c0.07-0.13,0.16-0.25,0.26-0.34H88.7H88.69z"/>
	<path class="st0" d="M91.68,10.03c0.17-0.5,0.11-0.74-0.17-0.74c-0.18,0-0.35,0.1-0.49,0.3c-0.14,0.2-0.3,0.51-0.46,0.92
		l-0.17,0.44h-0.23l0.31-0.88c0.12-0.34,0.26-0.59,0.43-0.77c0.17-0.18,0.35-0.3,0.53-0.37c0.19-0.07,0.36-0.1,0.52-0.1
		c0.26,0,0.44,0.05,0.56,0.16c0.12,0.1,0.19,0.24,0.22,0.41c0.02,0.17,0.02,0.35-0.02,0.55c-0.04,0.2-0.09,0.39-0.16,0.57
		l-1.28,3.64c-0.08,0.23-0.11,0.41-0.08,0.55c0.03,0.13,0.12,0.2,0.27,0.2c0.16,0,0.31-0.09,0.46-0.26c0.14-0.18,0.3-0.5,0.48-0.96
		l0.17-0.44h0.23l-0.31,0.88c-0.11,0.31-0.25,0.56-0.41,0.74c-0.16,0.18-0.33,0.31-0.52,0.38c-0.18,0.08-0.37,0.11-0.55,0.11
		c-0.34,0-0.58-0.08-0.7-0.24c-0.12-0.16-0.16-0.37-0.13-0.62c0.03-0.26,0.1-0.53,0.2-0.82L91.68,10.03z M92.05,6.83
		c0.04-0.21,0.15-0.39,0.32-0.54c0.17-0.15,0.36-0.23,0.56-0.23c0.21,0,0.37,0.08,0.49,0.23c0.12,0.15,0.15,0.33,0.11,0.54
		s-0.15,0.39-0.32,0.54S92.85,7.6,92.64,7.6c-0.2,0-0.36-0.08-0.47-0.23S92.01,7.04,92.05,6.83z"/>
	<path class="st0" d="M94.87,15.18h-1.04l1.44-5.15c0.03-0.1,0.06-0.2,0.08-0.32c0.02-0.12,0.01-0.22-0.02-0.3s-0.11-0.13-0.24-0.13
		c-0.18,0-0.33,0.09-0.47,0.26c-0.14,0.17-0.29,0.49-0.46,0.97l-0.16,0.44h-0.23l0.3-0.88c0.18-0.5,0.39-0.84,0.65-1
		c0.26-0.16,0.52-0.24,0.77-0.24c0.24,0,0.41,0.05,0.52,0.16c0.11,0.1,0.17,0.24,0.18,0.4c0.01,0.16,0,0.34-0.04,0.54
		c-0.04,0.2-0.08,0.39-0.13,0.58L94.87,15.18z M95.42,12.68c0.28-0.72,0.55-1.32,0.82-1.81c0.26-0.49,0.52-0.88,0.78-1.18
		c0.26-0.3,0.52-0.52,0.79-0.65c0.27-0.13,0.55-0.2,0.83-0.2c0.38,0,0.63,0.09,0.77,0.27c0.14,0.18,0.2,0.41,0.19,0.68
		c-0.02,0.28-0.07,0.56-0.17,0.86l-1.16,3.5c-0.07,0.22-0.1,0.39-0.09,0.53c0.01,0.14,0.11,0.21,0.28,0.21
		c0.15,0,0.3-0.08,0.45-0.25s0.31-0.49,0.47-0.97l0.16-0.44h0.23l-0.3,0.88c-0.11,0.34-0.25,0.59-0.41,0.77
		c-0.16,0.18-0.34,0.3-0.52,0.37s-0.35,0.1-0.52,0.1c-0.19,0-0.35-0.03-0.47-0.1S97.32,15.1,97.26,15
		c-0.09-0.14-0.12-0.33-0.08-0.56c0.03-0.23,0.1-0.49,0.19-0.77l1.14-3.43c0.04-0.11,0.07-0.25,0.1-0.4
		c0.03-0.16,0.02-0.3-0.02-0.42s-0.16-0.19-0.35-0.19s-0.4,0.08-0.61,0.25c-0.22,0.17-0.44,0.41-0.67,0.71
		c-0.23,0.31-0.46,0.68-0.68,1.1c-0.22,0.43-0.44,0.9-0.64,1.42c-0.2,0.52-0.39,1.07-0.56,1.65L95.42,12.68z"/>
	<path class="st0" d="M102.96,12.48l0.3,0.01c-0.29,0.16-0.55,0.31-0.8,0.44s-0.44,0.25-0.59,0.37c-0.15,0.11-0.23,0.22-0.23,0.32
		c0,0.08,0.06,0.15,0.17,0.22c0.11,0.07,0.3,0.13,0.55,0.2l0.88,0.23c0.26,0.06,0.49,0.14,0.69,0.22s0.37,0.19,0.49,0.32
		s0.18,0.3,0.18,0.5c0,0.2-0.07,0.43-0.2,0.68c-0.13,0.25-0.34,0.49-0.61,0.73c-0.28,0.23-0.63,0.42-1.07,0.58
		c-0.44,0.15-0.97,0.23-1.6,0.23c-0.42,0-0.77-0.04-1.05-0.11c-0.28-0.08-0.5-0.18-0.64-0.32c-0.14-0.14-0.21-0.29-0.21-0.47
		c0-0.13,0.04-0.26,0.11-0.4c0.07-0.14,0.18-0.28,0.32-0.41c0.14-0.13,0.32-0.26,0.53-0.37c0.21-0.12,0.46-0.21,0.75-0.29l0.08,0.18
		c-0.3,0.15-0.5,0.32-0.61,0.52c-0.11,0.19-0.17,0.38-0.17,0.58c0,0.32,0.11,0.55,0.34,0.69c0.22,0.14,0.5,0.21,0.83,0.21
		c0.26,0,0.54-0.04,0.82-0.13c0.28-0.08,0.54-0.2,0.78-0.34c0.24-0.14,0.43-0.3,0.58-0.49c0.14-0.18,0.22-0.38,0.22-0.58
		c0-0.12-0.04-0.2-0.11-0.24s-0.2-0.08-0.38-0.12l-1.84-0.47c-0.19-0.05-0.35-0.13-0.47-0.25c-0.12-0.12-0.18-0.27-0.18-0.47
		c0-0.16,0.06-0.32,0.17-0.49c0.11-0.17,0.32-0.35,0.64-0.56C101.91,12.99,102.37,12.75,102.96,12.48z M103.62,8.84
		c0.47,0,0.85,0.11,1.15,0.32c0.29,0.21,0.44,0.55,0.44,1.03c0,0.38-0.11,0.76-0.32,1.14s-0.52,0.69-0.91,0.93
		c-0.39,0.24-0.86,0.37-1.39,0.37c-0.44,0-0.81-0.11-1.11-0.32c-0.3-0.21-0.45-0.54-0.45-0.99c0-0.22,0.05-0.47,0.14-0.75
		c0.09-0.28,0.24-0.56,0.44-0.82c0.2-0.26,0.47-0.48,0.8-0.65C102.72,8.93,103.13,8.84,103.62,8.84z M103.57,9.06
		c-0.26,0-0.47,0.07-0.65,0.22s-0.32,0.34-0.44,0.56c-0.12,0.23-0.2,0.47-0.26,0.71c-0.06,0.25-0.1,0.47-0.13,0.68
		c-0.02,0.2-0.04,0.35-0.04,0.45c0,0.26,0.06,0.44,0.17,0.55c0.12,0.11,0.27,0.17,0.46,0.17c0.3,0,0.55-0.09,0.74-0.28
		c0.19-0.18,0.33-0.41,0.44-0.68s0.17-0.54,0.21-0.82s0.05-0.5,0.05-0.68c0-0.27-0.04-0.49-0.11-0.65S103.8,9.06,103.57,9.06z
		 M104.47,9.47l-0.22-0.08c0.11-0.27,0.3-0.51,0.58-0.72c0.27-0.21,0.56-0.31,0.85-0.31c0.21,0,0.38,0.06,0.5,0.17
		c0.13,0.12,0.19,0.3,0.19,0.55c0,0.22-0.06,0.39-0.17,0.49c-0.11,0.1-0.23,0.16-0.36,0.16c-0.13,0-0.25-0.04-0.37-0.13
		c-0.12-0.08-0.19-0.22-0.21-0.4c-0.02-0.18,0.03-0.42,0.16-0.71l0.16,0.04c-0.34,0.13-0.58,0.26-0.72,0.4
		C104.72,9.06,104.59,9.24,104.47,9.47z"/>
	<path class="st0" d="M109.56,16.87c0.34-0.18,0.71-0.43,1.1-0.75c0.39-0.32,0.79-0.74,1.21-1.28c0.47-0.6,0.9-1.27,1.29-2.02
		c0.39-0.75,0.66-1.5,0.81-2.26c-0.13-0.07-0.27-0.16-0.41-0.27c-0.15-0.11-0.27-0.24-0.37-0.38c-0.1-0.15-0.14-0.31-0.13-0.5
		c0.02-0.18,0.08-0.32,0.19-0.42c0.11-0.1,0.25-0.14,0.42-0.14c0.22,0,0.37,0.08,0.47,0.25c0.1,0.16,0.15,0.41,0.15,0.73
		c0,0.41-0.07,0.85-0.2,1.31c-0.14,0.47-0.32,0.94-0.55,1.42c-0.23,0.48-0.48,0.94-0.76,1.39c-0.28,0.44-0.56,0.85-0.85,1.21
		c-0.13,0.16-0.3,0.36-0.53,0.6c-0.22,0.24-0.49,0.49-0.8,0.74c-0.31,0.25-0.65,0.47-1.04,0.65c-0.24,0.11-0.45,0.19-0.62,0.23
		s-0.31,0.07-0.43,0.07c-0.16,0-0.3-0.04-0.42-0.13s-0.18-0.21-0.18-0.37c0-0.18,0.07-0.31,0.2-0.4c0.13-0.09,0.28-0.14,0.45-0.14
		c0.18,0,0.36,0.05,0.52,0.14C109.25,16.64,109.41,16.75,109.56,16.87z M112.19,14.7l-0.8,0.88l-0.91-5.52
		c-0.04-0.25-0.09-0.42-0.14-0.52c-0.06-0.1-0.14-0.14-0.24-0.14c-0.09,0-0.19,0.07-0.3,0.21c-0.11,0.14-0.25,0.44-0.41,0.89
		l-0.16,0.44h-0.23l0.3-0.88c0.17-0.49,0.38-0.81,0.62-0.98s0.5-0.25,0.76-0.25c0.25,0,0.44,0.08,0.58,0.23
		c0.14,0.16,0.23,0.45,0.29,0.87L112.19,14.7z"/>
	<path class="st0" d="M114.81,13.46c0-0.35,0.05-0.74,0.14-1.15c0.1-0.42,0.24-0.83,0.43-1.24c0.19-0.41,0.43-0.78,0.7-1.12
		c0.28-0.34,0.6-0.61,0.97-0.81c0.37-0.2,0.78-0.31,1.22-0.31c0.5,0,0.89,0.15,1.19,0.46c0.3,0.31,0.45,0.78,0.45,1.42
		c0,0.35-0.05,0.74-0.14,1.15c-0.1,0.42-0.24,0.83-0.43,1.24s-0.43,0.78-0.7,1.12c-0.28,0.34-0.6,0.61-0.97,0.81
		c-0.37,0.2-0.78,0.31-1.22,0.31c-0.5,0-0.89-0.16-1.19-0.47S114.81,14.1,114.81,13.46z M118.21,9.08c-0.26,0-0.5,0.1-0.74,0.31
		c-0.24,0.2-0.45,0.48-0.65,0.83s-0.37,0.74-0.52,1.17c-0.15,0.43-0.26,0.88-0.34,1.34c-0.08,0.46-0.12,0.91-0.12,1.33
		c0,0.36,0.06,0.62,0.17,0.79c0.12,0.17,0.29,0.25,0.51,0.25c0.26,0,0.5-0.1,0.74-0.31c0.24-0.2,0.45-0.48,0.65-0.83
		c0.2-0.35,0.37-0.74,0.52-1.17s0.26-0.88,0.34-1.34s0.12-0.91,0.12-1.34c0-0.37-0.06-0.63-0.17-0.8
		C118.61,9.17,118.44,9.08,118.21,9.08z"/>
	<path class="st0" d="M125.18,11.03c-0.29,0.8-0.56,1.48-0.83,2.03c-0.26,0.55-0.53,1-0.79,1.33c-0.26,0.34-0.52,0.58-0.79,0.73
		c-0.27,0.15-0.55,0.23-0.83,0.23c-0.35,0-0.61-0.08-0.77-0.24c-0.16-0.16-0.24-0.38-0.24-0.65c0-0.27,0.06-0.58,0.17-0.92l1.16-3.5
		c0.08-0.24,0.11-0.42,0.08-0.55c-0.02-0.13-0.12-0.19-0.28-0.19c-0.15,0-0.3,0.08-0.45,0.25c-0.15,0.17-0.31,0.49-0.47,0.97
		l-0.16,0.44h-0.23l0.3-0.88c0.12-0.34,0.26-0.59,0.43-0.77c0.16-0.18,0.34-0.3,0.52-0.37s0.35-0.1,0.51-0.1
		c0.35,0,0.59,0.08,0.7,0.25s0.16,0.37,0.13,0.63c-0.03,0.26-0.09,0.52-0.19,0.8l-1.14,3.43c-0.22,0.67-0.14,1.01,0.26,1.01
		c0.19,0,0.4-0.09,0.61-0.26c0.22-0.17,0.44-0.42,0.66-0.74c0.22-0.32,0.45-0.71,0.67-1.16c0.22-0.45,0.43-0.96,0.64-1.51
		c0.2-0.56,0.39-1.15,0.56-1.79L125.18,11.03z M125.14,14.16c-0.06,0.22-0.08,0.39-0.08,0.53c0,0.14,0.09,0.21,0.25,0.21
		c0.18,0,0.34-0.09,0.49-0.28s0.3-0.5,0.45-0.94l0.16-0.44h0.23l-0.3,0.88c-0.11,0.34-0.25,0.59-0.41,0.77
		c-0.16,0.18-0.34,0.3-0.52,0.37c-0.18,0.07-0.35,0.1-0.52,0.1c-0.13,0-0.25-0.03-0.36-0.08c-0.11-0.06-0.2-0.14-0.25-0.24
		c-0.06-0.14-0.09-0.31-0.07-0.52c0.02-0.21,0.07-0.49,0.16-0.84l1.18-4.66c0.2-0.01,0.39-0.02,0.58-0.05
		c0.19-0.02,0.36-0.06,0.51-0.12L125.14,14.16z"/>
	<path class="st0" d="M131.48,14.16c-0.06,0.23-0.08,0.41-0.06,0.55c0.02,0.13,0.11,0.2,0.26,0.2c0.16,0,0.31-0.09,0.45-0.27
		c0.14-0.18,0.29-0.5,0.45-0.95l0.16-0.44h0.23l-0.3,0.88c-0.1,0.3-0.23,0.55-0.38,0.73c-0.15,0.18-0.31,0.31-0.49,0.39
		c-0.18,0.08-0.37,0.12-0.58,0.12c-0.26,0-0.46-0.05-0.58-0.15s-0.2-0.23-0.23-0.4c-0.03-0.17-0.02-0.35,0.01-0.55
		c0.04-0.2,0.08-0.39,0.14-0.58l1.96-6.49c0.08-0.27,0.07-0.47-0.02-0.6s-0.34-0.19-0.73-0.19l0.08-0.25
		c0.44-0.01,0.83-0.05,1.16-0.14s0.66-0.2,0.97-0.35L131.48,14.16z"/>
	<path class="st0" d="M133.83,13.46c0-0.35,0.05-0.74,0.14-1.15c0.1-0.42,0.24-0.83,0.43-1.24c0.19-0.41,0.43-0.78,0.7-1.12
		c0.28-0.34,0.6-0.61,0.97-0.81c0.37-0.2,0.78-0.31,1.22-0.31c0.5,0,0.89,0.15,1.19,0.46c0.3,0.31,0.45,0.78,0.45,1.42
		c0,0.35-0.05,0.74-0.14,1.15c-0.1,0.42-0.24,0.83-0.43,1.24s-0.43,0.78-0.7,1.12c-0.28,0.34-0.6,0.61-0.97,0.81
		c-0.37,0.2-0.78,0.31-1.22,0.31c-0.5,0-0.89-0.16-1.19-0.47S133.83,14.1,133.83,13.46z M137.23,9.08c-0.26,0-0.5,0.1-0.74,0.31
		c-0.24,0.2-0.45,0.48-0.65,0.83s-0.37,0.74-0.52,1.17c-0.15,0.43-0.26,0.88-0.34,1.34c-0.08,0.46-0.12,0.91-0.12,1.33
		c0,0.36,0.06,0.62,0.17,0.79c0.12,0.17,0.29,0.25,0.51,0.25c0.26,0,0.5-0.1,0.74-0.31c0.24-0.2,0.45-0.48,0.65-0.83
		c0.2-0.35,0.37-0.74,0.52-1.17s0.26-0.88,0.34-1.34s0.12-0.91,0.12-1.34c0-0.37-0.06-0.63-0.17-0.8
		C137.63,9.17,137.46,9.08,137.23,9.08z"/>
	<path class="st0" d="M139.69,13.46c0-0.35,0.05-0.74,0.14-1.15c0.1-0.42,0.24-0.83,0.43-1.24c0.19-0.41,0.43-0.78,0.7-1.12
		c0.28-0.34,0.6-0.61,0.97-0.81c0.37-0.2,0.78-0.31,1.22-0.31c0.5,0,0.89,0.15,1.19,0.46c0.3,0.31,0.45,0.78,0.45,1.42
		c0,0.35-0.05,0.74-0.14,1.15c-0.1,0.42-0.24,0.83-0.43,1.24s-0.43,0.78-0.7,1.12c-0.28,0.34-0.6,0.61-0.97,0.81
		c-0.37,0.2-0.78,0.31-1.22,0.31c-0.5,0-0.89-0.16-1.19-0.47S139.69,14.1,139.69,13.46z M143.08,9.08c-0.26,0-0.5,0.1-0.74,0.31
		c-0.24,0.2-0.45,0.48-0.65,0.83s-0.37,0.74-0.52,1.17c-0.15,0.43-0.26,0.88-0.34,1.34c-0.08,0.46-0.12,0.91-0.12,1.33
		c0,0.36,0.06,0.62,0.17,0.79c0.12,0.17,0.29,0.25,0.51,0.25c0.26,0,0.5-0.1,0.74-0.31c0.24-0.2,0.45-0.48,0.65-0.83
		c0.2-0.35,0.37-0.74,0.52-1.17s0.26-0.88,0.34-1.34s0.12-0.91,0.12-1.34c0-0.37-0.06-0.63-0.17-0.8
		C143.49,9.17,143.32,9.08,143.08,9.08z"/>
	<path class="st0" d="M146.23,15.18h-1.04l2.38-8c0.08-0.27,0.07-0.47-0.03-0.6c-0.1-0.13-0.35-0.19-0.74-0.19l0.07-0.25
		c0.44-0.01,0.84-0.05,1.19-0.14c0.35-0.08,0.68-0.2,0.97-0.35L146.23,15.18z M149.32,14.41c-0.03,0.18-0.03,0.3,0,0.38
		c0.03,0.08,0.11,0.11,0.24,0.11c0.16,0,0.31-0.09,0.45-0.27c0.14-0.18,0.29-0.5,0.44-0.95l0.14-0.44h0.23l-0.29,0.88
		c-0.1,0.32-0.23,0.57-0.38,0.75c-0.15,0.18-0.31,0.31-0.49,0.38c-0.18,0.07-0.37,0.11-0.56,0.11c-0.26,0-0.46-0.09-0.62-0.27
		c-0.16-0.18-0.2-0.47-0.11-0.87l0.22-1.03c0.1-0.46,0.05-0.81-0.15-1.03c-0.2-0.22-0.63-0.35-1.3-0.4V11.7
		c0.3-0.02,0.61-0.02,0.93,0c0.32,0.02,0.6,0.09,0.85,0.2c0.25,0.11,0.44,0.27,0.56,0.48c0.13,0.21,0.16,0.49,0.08,0.83
		L149.32,14.41z M150.38,9.1c-0.1,0-0.18,0.02-0.25,0.05c-0.07,0.03-0.13,0.07-0.2,0.12c-0.15,0.12-0.28,0.28-0.38,0.49
		c-0.1,0.2-0.21,0.42-0.31,0.65c-0.1,0.23-0.23,0.45-0.38,0.65c-0.15,0.2-0.35,0.37-0.6,0.5s-0.57,0.19-0.97,0.18l-0.12,0.01
		l0.02-0.13c0.39-0.02,0.71-0.1,0.94-0.24c0.24-0.14,0.42-0.3,0.56-0.5c0.14-0.2,0.26-0.41,0.35-0.63c0.1-0.22,0.2-0.43,0.3-0.63
		c0.1-0.2,0.24-0.36,0.41-0.49c0.14-0.11,0.27-0.19,0.39-0.22c0.12-0.04,0.23-0.05,0.33-0.05c0.28,0,0.47,0.07,0.58,0.21
		c0.1,0.14,0.15,0.31,0.13,0.5c-0.01,0.1-0.04,0.2-0.08,0.32c-0.05,0.12-0.12,0.22-0.22,0.31c-0.1,0.09-0.23,0.13-0.39,0.13
		c-0.18,0-0.3-0.05-0.37-0.16s-0.1-0.23-0.1-0.35c0.01-0.11,0.05-0.23,0.12-0.37c0.07-0.13,0.16-0.25,0.26-0.34h-0.01H150.38z"/>
	<path class="st0" d="M157.1,12.48l0.3,0.01c-0.29,0.16-0.55,0.31-0.8,0.44s-0.44,0.25-0.59,0.37c-0.15,0.11-0.23,0.22-0.23,0.32
		c0,0.08,0.06,0.15,0.17,0.22c0.11,0.07,0.3,0.13,0.55,0.2l0.88,0.23c0.26,0.06,0.49,0.14,0.69,0.22s0.37,0.19,0.49,0.32
		s0.18,0.3,0.18,0.5c0,0.2-0.07,0.43-0.2,0.68c-0.13,0.25-0.34,0.49-0.61,0.73c-0.28,0.23-0.63,0.42-1.07,0.58
		c-0.44,0.15-0.97,0.23-1.6,0.23c-0.42,0-0.77-0.04-1.05-0.11c-0.28-0.08-0.5-0.18-0.64-0.32c-0.14-0.14-0.21-0.29-0.21-0.47
		c0-0.13,0.04-0.26,0.11-0.4c0.07-0.14,0.18-0.28,0.32-0.41c0.14-0.13,0.32-0.26,0.53-0.37c0.21-0.12,0.46-0.21,0.75-0.29l0.08,0.18
		c-0.3,0.15-0.5,0.32-0.61,0.52c-0.11,0.19-0.17,0.38-0.17,0.58c0,0.32,0.11,0.55,0.34,0.69c0.22,0.14,0.5,0.21,0.83,0.21
		c0.26,0,0.54-0.04,0.82-0.13c0.28-0.08,0.54-0.2,0.78-0.34c0.24-0.14,0.43-0.3,0.58-0.49c0.14-0.18,0.22-0.38,0.22-0.58
		c0-0.12-0.04-0.2-0.11-0.24s-0.2-0.08-0.38-0.12l-1.84-0.47c-0.19-0.05-0.35-0.13-0.47-0.25c-0.12-0.12-0.18-0.27-0.18-0.47
		c0-0.16,0.06-0.32,0.17-0.49c0.11-0.17,0.32-0.35,0.64-0.56C156.06,12.99,156.51,12.75,157.1,12.48z M157.76,8.84
		c0.47,0,0.85,0.11,1.15,0.32c0.29,0.21,0.44,0.55,0.44,1.03c0,0.38-0.11,0.76-0.32,1.14s-0.52,0.69-0.91,0.93
		c-0.39,0.24-0.86,0.37-1.39,0.37c-0.44,0-0.81-0.11-1.11-0.32c-0.3-0.21-0.45-0.54-0.45-0.99c0-0.22,0.05-0.47,0.14-0.75
		c0.09-0.28,0.24-0.56,0.44-0.82c0.2-0.26,0.47-0.48,0.8-0.65C156.86,8.93,157.27,8.84,157.76,8.84z M157.71,9.06
		c-0.26,0-0.47,0.07-0.65,0.22s-0.32,0.34-0.44,0.56c-0.12,0.23-0.2,0.47-0.26,0.71c-0.06,0.25-0.1,0.47-0.13,0.68
		c-0.02,0.2-0.04,0.35-0.04,0.45c0,0.26,0.06,0.44,0.17,0.55c0.12,0.11,0.27,0.17,0.46,0.17c0.3,0,0.55-0.09,0.74-0.28
		c0.19-0.18,0.33-0.41,0.44-0.68s0.17-0.54,0.21-0.82s0.05-0.5,0.05-0.68c0-0.27-0.04-0.49-0.11-0.65S157.94,9.06,157.71,9.06z
		 M158.61,9.47l-0.22-0.08c0.11-0.27,0.3-0.51,0.58-0.72c0.27-0.21,0.56-0.31,0.85-0.31c0.21,0,0.38,0.06,0.5,0.17
		c0.13,0.12,0.19,0.3,0.19,0.55c0,0.22-0.06,0.39-0.17,0.49c-0.11,0.1-0.23,0.16-0.36,0.16c-0.13,0-0.25-0.04-0.37-0.13
		c-0.12-0.08-0.19-0.22-0.21-0.4c-0.02-0.18,0.03-0.42,0.16-0.71l0.16,0.04c-0.34,0.13-0.58,0.26-0.72,0.4
		C158.86,9.06,158.73,9.24,158.61,9.47z"/>
	<path class="st0" d="M160.15,13.46c0-0.35,0.05-0.74,0.14-1.15c0.1-0.42,0.24-0.83,0.43-1.24c0.19-0.41,0.43-0.78,0.7-1.12
		c0.28-0.34,0.6-0.61,0.97-0.81c0.37-0.2,0.78-0.31,1.22-0.31c0.5,0,0.89,0.15,1.19,0.46c0.3,0.31,0.45,0.78,0.45,1.42
		c0,0.35-0.05,0.74-0.14,1.15c-0.1,0.42-0.24,0.83-0.43,1.24s-0.43,0.78-0.7,1.12c-0.28,0.34-0.6,0.61-0.97,0.81
		c-0.37,0.2-0.78,0.31-1.22,0.31c-0.5,0-0.89-0.16-1.19-0.47S160.15,14.1,160.15,13.46z M163.54,9.08c-0.26,0-0.5,0.1-0.74,0.31
		c-0.24,0.2-0.45,0.48-0.65,0.83s-0.37,0.74-0.52,1.17c-0.15,0.43-0.26,0.88-0.34,1.34c-0.08,0.46-0.12,0.91-0.12,1.33
		c0,0.36,0.06,0.62,0.17,0.79c0.12,0.17,0.29,0.25,0.51,0.25c0.26,0,0.5-0.1,0.74-0.31c0.24-0.2,0.45-0.48,0.65-0.83
		c0.2-0.35,0.37-0.74,0.52-1.17s0.26-0.88,0.34-1.34s0.12-0.91,0.12-1.34c0-0.37-0.06-0.63-0.17-0.8
		C163.95,9.17,163.78,9.08,163.54,9.08z"/>
	<path class="st0" d="M166,13.46c0-0.35,0.05-0.74,0.14-1.15c0.1-0.42,0.24-0.83,0.43-1.24c0.19-0.41,0.43-0.78,0.7-1.12
		c0.28-0.34,0.6-0.61,0.97-0.81c0.37-0.2,0.78-0.31,1.22-0.31c0.5,0,0.89,0.15,1.19,0.46c0.3,0.31,0.45,0.78,0.45,1.42
		c0,0.35-0.05,0.74-0.14,1.15c-0.1,0.42-0.24,0.83-0.43,1.24s-0.43,0.78-0.7,1.12c-0.28,0.34-0.6,0.61-0.97,0.81
		c-0.37,0.2-0.78,0.31-1.22,0.31c-0.5,0-0.89-0.16-1.19-0.47S166,14.1,166,13.46z M169.4,9.08c-0.26,0-0.5,0.1-0.74,0.31
		c-0.24,0.2-0.45,0.48-0.65,0.83s-0.37,0.74-0.52,1.17c-0.15,0.43-0.26,0.88-0.34,1.34c-0.08,0.46-0.12,0.91-0.12,1.33
		c0,0.36,0.06,0.62,0.17,0.79c0.12,0.17,0.29,0.25,0.51,0.25c0.26,0,0.5-0.1,0.74-0.31c0.24-0.2,0.45-0.48,0.65-0.83
		c0.2-0.35,0.37-0.74,0.52-1.17s0.26-0.88,0.34-1.34s0.12-0.91,0.12-1.34c0-0.37-0.06-0.63-0.17-0.8
		C169.8,9.17,169.63,9.08,169.4,9.08z"/>
	<path class="st0" d="M173.35,14.96c0.2,0,0.43-0.12,0.68-0.35s0.51-0.56,0.77-0.96c0.26-0.4,0.5-0.86,0.72-1.38
		c0.22-0.52,0.39-1.05,0.52-1.6l-0.18,1.3c-0.31,0.82-0.62,1.48-0.93,1.98c-0.31,0.5-0.62,0.85-0.94,1.07
		c-0.32,0.22-0.65,0.33-0.99,0.33c-0.25,0-0.47-0.06-0.65-0.17c-0.19-0.12-0.33-0.29-0.44-0.52c-0.1-0.23-0.16-0.53-0.16-0.89
		c0-0.38,0.06-0.8,0.19-1.24c0.12-0.44,0.3-0.88,0.53-1.31c0.23-0.43,0.51-0.83,0.83-1.18s0.68-0.64,1.07-0.86
		c0.39-0.22,0.81-0.32,1.25-0.32c0.18,0,0.36,0.07,0.52,0.21s0.25,0.35,0.26,0.63l-0.1,0.24c-0.03-0.29-0.11-0.49-0.24-0.62
		s-0.27-0.19-0.43-0.19c-0.3,0-0.6,0.1-0.88,0.31c-0.28,0.21-0.54,0.48-0.77,0.83s-0.44,0.73-0.61,1.15s-0.31,0.85-0.41,1.28
		c-0.1,0.44-0.14,0.85-0.14,1.23c0,0.35,0.04,0.61,0.13,0.79C173.04,14.88,173.17,14.96,173.35,14.96z M176.04,14.16
		c-0.06,0.18-0.08,0.35-0.07,0.51c0.01,0.16,0.11,0.23,0.28,0.23c0.16,0,0.31-0.09,0.44-0.27c0.14-0.18,0.28-0.5,0.43-0.95
		l0.14-0.44h0.23l-0.28,0.88c-0.1,0.32-0.22,0.57-0.38,0.75c-0.16,0.18-0.33,0.31-0.5,0.38c-0.18,0.07-0.34,0.11-0.5,0.11
		c-0.48,0-0.73-0.23-0.76-0.68c-0.01-0.13,0-0.28,0.03-0.44s0.07-0.35,0.13-0.55l1.73-6.49c0.07-0.27,0.06-0.47-0.04-0.6
		c-0.1-0.13-0.34-0.19-0.73-0.19l0.07-0.25c0.44-0.01,0.83-0.05,1.16-0.14s0.66-0.2,0.96-0.35L176.04,14.16z"/>
	<path class="st0" d="M181.23,14.74c0-0.24,0.09-0.45,0.28-0.64c0.18-0.19,0.39-0.28,0.61-0.28c0.18,0,0.33,0.06,0.44,0.18
		s0.17,0.27,0.17,0.44c0,0.16-0.04,0.31-0.13,0.45s-0.19,0.25-0.33,0.34s-0.28,0.13-0.44,0.13c-0.18,0-0.32-0.06-0.43-0.17
		C181.29,15.06,181.23,14.91,181.23,14.74z M182.28,12.79c0.22-0.85,0.41-1.68,0.55-2.51c0.14-0.82,0.27-1.59,0.38-2.29
		c0.11-0.7,0.23-1.28,0.35-1.73c0.02-0.07,0.05-0.14,0.08-0.2c0.03-0.06,0.07-0.11,0.12-0.15c0.05-0.04,0.1-0.07,0.16-0.09
		c0.06-0.02,0.12-0.03,0.18-0.03c0.25,0,0.41,0.08,0.49,0.23c0.08,0.15,0.08,0.32,0.02,0.52c-0.09,0.32-0.22,0.71-0.38,1.16
		s-0.35,0.95-0.56,1.51c-0.2,0.55-0.41,1.13-0.61,1.75s-0.39,1.24-0.56,1.88L182.28,12.79z"/>
</g>
<g>
	<path class="st0" d="M12.39,18.13c0,0.07-0.02,0.15-0.06,0.22c-0.07,0.13-0.19,0.2-0.35,0.2c-0.14,0-0.29-0.05-0.47-0.15
		c-0.13-0.07-0.26-0.17-0.39-0.29c-0.13-0.12-0.31-0.29-0.53-0.52c-0.23-0.23-0.4-0.41-0.54-0.53c0.05,0.19,0.12,0.44,0.2,0.76
		s0.15,0.56,0.18,0.72c0.04,0.17,0.06,0.32,0.06,0.46c0,0.24-0.05,0.41-0.15,0.52s-0.21,0.16-0.35,0.16c-0.12,0-0.23-0.05-0.32-0.16
		C9.6,19.42,9.55,19.24,9.55,19c0-0.15,0.02-0.3,0.05-0.47c0.04-0.17,0.1-0.41,0.18-0.72c0.08-0.31,0.15-0.56,0.2-0.75
		c-0.14,0.13-0.33,0.32-0.56,0.55c-0.23,0.23-0.41,0.41-0.54,0.52s-0.25,0.21-0.37,0.28c-0.17,0.1-0.32,0.14-0.45,0.14
		c-0.18,0-0.31-0.07-0.39-0.22c-0.04-0.07-0.06-0.13-0.06-0.19c0-0.19,0.14-0.38,0.42-0.55c0.12-0.07,0.27-0.13,0.42-0.18
		c0.16-0.05,0.39-0.12,0.71-0.2c0.31-0.08,0.57-0.15,0.76-0.21c-0.18-0.05-0.43-0.12-0.75-0.21s-0.56-0.15-0.72-0.21
		s-0.31-0.11-0.43-0.18c-0.27-0.16-0.4-0.34-0.4-0.55c0-0.07,0.02-0.15,0.06-0.22c0.07-0.13,0.18-0.2,0.35-0.2
		c0.14,0,0.29,0.05,0.47,0.15c0.13,0.07,0.26,0.17,0.39,0.29c0.13,0.12,0.31,0.29,0.53,0.52c0.23,0.23,0.41,0.41,0.55,0.54
		c-0.04-0.18-0.11-0.43-0.19-0.74c-0.09-0.32-0.15-0.56-0.19-0.73c-0.04-0.17-0.06-0.33-0.06-0.47c0-0.24,0.05-0.41,0.14-0.52
		c0.09-0.11,0.2-0.17,0.34-0.17c0.13,0,0.24,0.06,0.33,0.17c0.09,0.11,0.13,0.29,0.13,0.52c0,0.15-0.02,0.3-0.05,0.47
		c-0.04,0.17-0.1,0.41-0.18,0.71c-0.08,0.31-0.15,0.56-0.2,0.75c0.14-0.13,0.33-0.31,0.56-0.55s0.41-0.41,0.53-0.52
		c0.13-0.12,0.25-0.21,0.37-0.28c0.17-0.1,0.33-0.14,0.45-0.14c0.18,0,0.31,0.07,0.39,0.22c0.04,0.07,0.06,0.13,0.06,0.19
		c0,0.2-0.14,0.39-0.43,0.55c-0.12,0.07-0.27,0.13-0.42,0.18s-0.39,0.12-0.71,0.2c-0.31,0.08-0.57,0.15-0.76,0.21
		c0.19,0.05,0.44,0.12,0.75,0.21c0.32,0.08,0.56,0.15,0.72,0.21c0.16,0.05,0.3,0.11,0.43,0.18C12.26,17.74,12.39,17.93,12.39,18.13z
		"/>
	<path class="st0" d="M23.03,14.94c-0.14,0.05-0.23,0.15-0.29,0.3s-0.08,0.38-0.08,0.7v6.32c0,0.32,0.03,0.55,0.08,0.7
		s0.15,0.24,0.29,0.3c0.14,0.05,0.36,0.09,0.67,0.1v0.25c-0.4-0.02-0.94-0.04-1.62-0.04c-0.73,0-1.27,0.01-1.63,0.04v-0.25
		c0.31-0.01,0.53-0.05,0.67-0.1c0.14-0.05,0.23-0.15,0.28-0.3s0.08-0.38,0.08-0.7v-6.81l-3.06,8.22h-0.21L15,15.4v6.72
		c0,0.33,0.03,0.57,0.09,0.74c0.06,0.17,0.17,0.29,0.33,0.36c0.16,0.07,0.41,0.12,0.74,0.13v0.25c-0.3-0.02-0.74-0.04-1.3-0.04
		c-0.51,0-0.9,0.01-1.18,0.04v-0.25c0.29-0.01,0.51-0.05,0.66-0.13c0.14-0.07,0.24-0.19,0.3-0.36c0.05-0.17,0.08-0.41,0.08-0.74
		v-6.19c0-0.32-0.03-0.55-0.08-0.7s-0.15-0.24-0.29-0.3c-0.14-0.05-0.36-0.09-0.67-0.1v-0.25c0.28,0.02,0.67,0.04,1.18,0.04
		c0.45,0,0.81-0.01,1.09-0.04l2.8,7.39l2.73-7.35h0.6c0.68,0,1.22-0.01,1.62-0.04v0.25C23.39,14.85,23.17,14.89,23.03,14.94z"/>
	<path class="st0" d="M30.77,14.62c0.38,0,0.7-0.01,0.95-0.04v0.25c-0.17,0.04-0.34,0.14-0.5,0.32s-0.34,0.45-0.52,0.81l-2,3.96
		v2.32c0,0.32,0.03,0.55,0.08,0.7c0.05,0.15,0.15,0.24,0.29,0.3c0.14,0.05,0.36,0.09,0.67,0.1v0.25c-0.4-0.02-0.94-0.04-1.62-0.04
		c-0.73,0-1.27,0.01-1.63,0.04v-0.25c0.31-0.01,0.53-0.05,0.67-0.1c0.14-0.05,0.23-0.15,0.29-0.3s0.08-0.38,0.08-0.7v-1.92
		l-2.58-4.76c-0.16-0.29-0.29-0.48-0.41-0.57c-0.11-0.1-0.23-0.14-0.33-0.14v-0.27c0.33,0.02,0.7,0.04,1.12,0.04
		c0.82,0,1.42-0.01,1.78-0.04v0.27c-0.6,0-0.9,0.16-0.9,0.49c0,0.12,0.04,0.27,0.13,0.44l2.12,4.06l1.62-3.23
		c0.23-0.47,0.35-0.83,0.35-1.09c0-0.24-0.09-0.41-0.28-0.51s-0.47-0.16-0.85-0.17v-0.25C29.79,14.61,30.28,14.62,30.77,14.62z"/>
	<path class="st0" d="M34.87,14.94c-0.14,0.05-0.23,0.15-0.29,0.3s-0.08,0.38-0.08,0.7v6.32c0,0.32,0.03,0.55,0.08,0.69
		s0.15,0.24,0.29,0.29s0.36,0.07,0.67,0.07h0.93c0.53,0,0.93-0.07,1.21-0.22c0.28-0.15,0.47-0.39,0.6-0.71
		c0.12-0.33,0.22-0.81,0.28-1.44h0.29c-0.02,0.27-0.04,0.61-0.04,1.04c0,0.48,0.03,1.02,0.09,1.63c-0.58-0.02-1.55-0.04-2.92-0.04
		c-1.63,0-2.86,0.01-3.69,0.04v-0.25c0.31-0.01,0.53-0.05,0.67-0.1c0.14-0.05,0.23-0.15,0.29-0.3s0.08-0.38,0.08-0.7v-6.32
		c0-0.32-0.03-0.55-0.08-0.7s-0.15-0.24-0.29-0.3c-0.14-0.05-0.36-0.09-0.67-0.1v-0.25c0.35,0.02,0.9,0.04,1.63,0.04
		c0.69,0,1.23-0.01,1.62-0.04v0.25C35.23,14.85,35.01,14.89,34.87,14.94z"/>
	<path class="st0" d="M46.75,23.1c-0.06-0.16-0.14-0.23-0.24-0.23c-0.05,0-0.11,0.01-0.16,0.04c-0.05,0.03-0.14,0.09-0.26,0.18
		c-0.3,0.23-0.61,0.4-0.92,0.52c-0.32,0.12-0.67,0.17-1.07,0.17c-0.87,0-1.62-0.18-2.24-0.54c-0.63-0.36-1.1-0.88-1.43-1.56
		c-0.33-0.68-0.49-1.49-0.49-2.43c0-0.97,0.18-1.83,0.53-2.56c0.35-0.73,0.84-1.3,1.46-1.69c0.62-0.4,1.33-0.59,2.11-0.59
		c0.34,0,0.65,0.04,0.92,0.11c0.27,0.07,0.5,0.16,0.7,0.28c0.2,0.11,0.42,0.26,0.68,0.44c0.11,0.09,0.19,0.13,0.25,0.13
		c0.16,0,0.27-0.26,0.32-0.78h0.29c-0.03,0.55-0.05,1.53-0.05,2.93h-0.29c-0.07-0.46-0.16-0.83-0.24-1.12
		c-0.09-0.29-0.22-0.55-0.4-0.76c-0.25-0.31-0.57-0.55-0.96-0.73c-0.39-0.18-0.81-0.27-1.24-0.27c-0.56,0-1.05,0.18-1.47,0.55
		c-0.42,0.36-0.75,0.88-0.98,1.56c-0.23,0.67-0.35,1.46-0.35,2.37c0,1.02,0.11,1.85,0.33,2.5c0.22,0.65,0.55,1.13,0.99,1.45
		c0.45,0.31,1.02,0.47,1.71,0.47c0.51,0,0.95-0.13,1.32-0.4c0.15-0.1,0.25-0.2,0.3-0.3c0.05-0.1,0.07-0.23,0.07-0.4v-1.22
		c0-0.35-0.03-0.61-0.1-0.77c-0.07-0.16-0.19-0.28-0.36-0.34c-0.17-0.06-0.45-0.1-0.83-0.11v-0.25c0.42,0.03,1.02,0.04,1.8,0.04
		c0.6,0,1.04-0.01,1.32-0.04v0.25c-0.2,0.02-0.34,0.05-0.43,0.1s-0.14,0.15-0.17,0.29c-0.03,0.14-0.05,0.38-0.05,0.7v2.52h-0.25
		C46.85,23.42,46.81,23.26,46.75,23.1z"/>
	<path class="st0" d="M53.71,18.13c0,0.07-0.02,0.15-0.06,0.22c-0.07,0.13-0.19,0.2-0.35,0.2c-0.14,0-0.29-0.05-0.47-0.15
		c-0.13-0.07-0.26-0.17-0.39-0.29C52.3,18,52.13,17.83,51.9,17.6c-0.23-0.23-0.4-0.41-0.54-0.53c0.05,0.19,0.12,0.44,0.2,0.76
		s0.15,0.56,0.18,0.72c0.04,0.17,0.06,0.32,0.06,0.46c0,0.24-0.05,0.41-0.15,0.52s-0.21,0.16-0.35,0.16c-0.12,0-0.23-0.05-0.32-0.16
		c-0.09-0.11-0.13-0.28-0.13-0.52c0-0.15,0.02-0.3,0.05-0.47c0.04-0.17,0.1-0.41,0.18-0.72c0.08-0.31,0.15-0.56,0.2-0.75
		c-0.14,0.13-0.33,0.32-0.56,0.55c-0.23,0.23-0.41,0.41-0.54,0.52s-0.25,0.21-0.37,0.28c-0.17,0.1-0.32,0.14-0.45,0.14
		c-0.18,0-0.31-0.07-0.39-0.22c-0.04-0.07-0.06-0.13-0.06-0.19c0-0.19,0.14-0.38,0.42-0.55c0.12-0.07,0.27-0.13,0.42-0.18
		c0.16-0.05,0.39-0.12,0.71-0.2c0.31-0.08,0.57-0.15,0.76-0.21c-0.18-0.05-0.43-0.12-0.75-0.21s-0.56-0.15-0.72-0.21
		s-0.31-0.11-0.43-0.18c-0.27-0.16-0.4-0.34-0.4-0.55c0-0.07,0.02-0.15,0.06-0.22c0.07-0.13,0.18-0.2,0.35-0.2
		c0.14,0,0.29,0.05,0.47,0.15c0.13,0.07,0.26,0.17,0.39,0.29c0.13,0.12,0.31,0.29,0.53,0.52c0.23,0.23,0.41,0.41,0.55,0.54
		c-0.04-0.18-0.11-0.43-0.19-0.74c-0.09-0.32-0.15-0.56-0.19-0.73c-0.04-0.17-0.06-0.33-0.06-0.47c0-0.24,0.05-0.41,0.14-0.52
		c0.09-0.11,0.2-0.17,0.34-0.17c0.13,0,0.24,0.06,0.33,0.17c0.09,0.11,0.13,0.29,0.13,0.52c0,0.15-0.02,0.3-0.05,0.47
		c-0.04,0.17-0.1,0.41-0.18,0.71c-0.08,0.31-0.15,0.56-0.2,0.75c0.14-0.13,0.33-0.31,0.56-0.55s0.41-0.41,0.53-0.52
		c0.13-0.12,0.25-0.21,0.37-0.28c0.17-0.1,0.33-0.14,0.45-0.14c0.18,0,0.31,0.07,0.39,0.22c0.04,0.07,0.06,0.13,0.06,0.19
		c0,0.2-0.14,0.39-0.43,0.55c-0.12,0.07-0.27,0.13-0.42,0.18s-0.39,0.12-0.71,0.2c-0.31,0.08-0.57,0.15-0.76,0.21
		c0.19,0.05,0.44,0.12,0.75,0.21c0.32,0.08,0.56,0.15,0.72,0.21c0.16,0.05,0.3,0.11,0.43,0.18C53.57,17.74,53.71,17.93,53.71,18.13z
		"/>
	<path class="st0" d="M14.15,32.91c0.36,0.53,0.93,0.8,1.68,0.8c0.29,0,0.56-0.06,0.81-0.18c0.25-0.12,0.45-0.31,0.61-0.56
		c0.16-0.25,0.23-0.57,0.23-0.95c0-0.33-0.08-0.62-0.24-0.88c-0.16-0.26-0.38-0.5-0.65-0.71c-0.27-0.22-0.64-0.46-1.09-0.73
		c-0.51-0.3-0.91-0.57-1.22-0.81c-0.31-0.24-0.56-0.53-0.75-0.86c-0.2-0.33-0.3-0.73-0.3-1.18c0-0.48,0.11-0.89,0.33-1.22
		c0.22-0.33,0.51-0.58,0.87-0.74c0.36-0.16,0.76-0.25,1.2-0.25c0.26,0,0.49,0.02,0.67,0.07c0.19,0.04,0.34,0.1,0.47,0.16
		c0.12,0.06,0.26,0.15,0.41,0.25c0.19,0.12,0.34,0.18,0.44,0.18c0.08,0,0.14-0.04,0.18-0.13c0.04-0.09,0.07-0.23,0.1-0.43h0.29
		c-0.04,0.5-0.06,1.36-0.06,2.6h-0.29c-0.03-0.44-0.13-0.84-0.28-1.21c-0.16-0.37-0.38-0.67-0.68-0.9c-0.3-0.23-0.67-0.35-1.12-0.35
		c-0.3,0-0.57,0.06-0.8,0.19c-0.24,0.12-0.42,0.3-0.55,0.52c-0.13,0.22-0.2,0.48-0.2,0.77c0,0.46,0.14,0.83,0.42,1.11
		c0.28,0.28,0.6,0.54,0.97,0.76c0.37,0.23,0.62,0.38,0.75,0.46c0.53,0.34,0.96,0.63,1.27,0.87c0.31,0.25,0.56,0.53,0.75,0.86
		c0.19,0.33,0.28,0.7,0.28,1.13c0,0.52-0.12,0.96-0.36,1.33c-0.24,0.36-0.56,0.64-0.97,0.82c-0.41,0.18-0.87,0.27-1.37,0.27
		c-0.41,0-0.74-0.04-1-0.13s-0.51-0.2-0.74-0.34c-0.19-0.12-0.34-0.18-0.44-0.18c-0.08,0-0.14,0.04-0.18,0.13
		c-0.04,0.09-0.07,0.23-0.1,0.43h-0.29c0.03-0.46,0.05-1.48,0.05-3.05h0.29C13.57,31.68,13.78,32.38,14.15,32.91z"/>
	<path class="st0" d="M22.35,25.12c-0.14,0.05-0.23,0.15-0.29,0.3s-0.08,0.38-0.08,0.7v6.32c0,0.32,0.03,0.55,0.08,0.7
		c0.05,0.14,0.15,0.24,0.29,0.3s0.36,0.09,0.67,0.1v0.25c-0.39-0.02-0.93-0.04-1.62-0.04c-0.73,0-1.27,0.01-1.63,0.04v-0.25
		c0.31-0.01,0.53-0.05,0.67-0.1c0.14-0.05,0.23-0.15,0.29-0.3c0.05-0.15,0.08-0.38,0.08-0.7v-6.32c0-0.32-0.03-0.55-0.08-0.7
		s-0.15-0.24-0.29-0.3c-0.14-0.05-0.36-0.09-0.67-0.1v-0.25c0.35,0.02,0.9,0.04,1.63,0.04c0.69,0,1.23-0.01,1.62-0.04v0.25
		C22.72,25.04,22.49,25.07,22.35,25.12z"/>
	<path class="st0" d="M31.43,25.15c-0.14,0.07-0.24,0.19-0.3,0.36c-0.05,0.17-0.08,0.41-0.08,0.74v7.6h-0.29l-5.35-8.26v6.72
		c0,0.33,0.03,0.57,0.09,0.74c0.06,0.17,0.17,0.28,0.33,0.36c0.16,0.07,0.41,0.11,0.74,0.13v0.25c-0.3-0.02-0.74-0.04-1.3-0.04
		c-0.51,0-0.9,0.01-1.18,0.04v-0.25c0.29-0.01,0.51-0.05,0.66-0.13c0.14-0.07,0.24-0.19,0.3-0.36c0.05-0.17,0.08-0.41,0.08-0.74
		v-6.19c0-0.32-0.03-0.55-0.08-0.7s-0.15-0.24-0.29-0.3c-0.14-0.05-0.36-0.09-0.67-0.1v-0.25c0.28,0.02,0.67,0.04,1.18,0.04
		c0.38,0,0.71-0.01,0.99-0.04l4.49,6.92v-5.45c0-0.33-0.03-0.57-0.08-0.74c-0.06-0.17-0.16-0.28-0.33-0.36
		c-0.16-0.07-0.41-0.11-0.75-0.13v-0.25c0.3,0.02,0.74,0.04,1.3,0.04c0.51,0,0.9-0.01,1.18-0.04v0.25
		C31.79,25.04,31.57,25.08,31.43,25.15z"/>
	<path class="st0" d="M40,33.21c-0.05-0.12-0.12-0.18-0.21-0.18c-0.07,0-0.15,0.04-0.26,0.11c-0.25,0.18-0.49,0.32-0.7,0.44
		s-0.46,0.21-0.73,0.28s-0.58,0.11-0.93,0.11c-0.81,0-1.52-0.18-2.12-0.55c-0.61-0.36-1.08-0.89-1.41-1.59
		c-0.33-0.69-0.5-1.52-0.5-2.48c0-0.94,0.17-1.77,0.52-2.49c0.34-0.72,0.82-1.28,1.44-1.68s1.31-0.6,2.1-0.6
		c0.51,0,0.94,0.07,1.3,0.22s0.71,0.35,1.05,0.61c0.09,0.07,0.17,0.11,0.25,0.11c0.17,0,0.28-0.25,0.32-0.76h0.29
		c-0.03,0.55-0.05,1.53-0.05,2.93h-0.29c-0.06-0.38-0.12-0.68-0.17-0.89c-0.05-0.21-0.11-0.39-0.18-0.54s-0.17-0.3-0.29-0.46
		c-0.26-0.33-0.58-0.58-0.98-0.75c-0.39-0.17-0.82-0.25-1.27-0.25c-0.55,0-1.03,0.18-1.45,0.55c-0.41,0.36-0.74,0.89-0.96,1.56
		s-0.34,1.47-0.34,2.37c0,0.92,0.12,1.72,0.37,2.38c0.25,0.66,0.59,1.17,1.03,1.51c0.44,0.34,0.93,0.52,1.48,0.52
		c0.42,0,0.84-0.08,1.24-0.24c0.4-0.16,0.71-0.4,0.94-0.73c0.17-0.23,0.3-0.48,0.37-0.76c0.07-0.27,0.15-0.69,0.22-1.26h0.29
		c0,1.46,0.02,2.48,0.05,3.06H40.1C40.08,33.52,40.04,33.33,40,33.21z"/>
	<path class="st0" d="M48.27,32.15c0,0.48,0.03,1.02,0.09,1.63c-0.58-0.02-1.55-0.04-2.92-0.04c-1.63,0-2.86,0.01-3.69,0.04v-0.25
		c0.31-0.01,0.53-0.05,0.67-0.1c0.14-0.05,0.23-0.15,0.29-0.3c0.05-0.15,0.08-0.38,0.08-0.7v-6.32c0-0.32-0.03-0.55-0.08-0.7
		s-0.15-0.24-0.29-0.3c-0.14-0.05-0.36-0.09-0.67-0.1v-0.25c0.83,0.02,2.06,0.04,3.69,0.04c1.25,0,2.13-0.01,2.66-0.04
		c-0.06,0.56-0.09,1.06-0.09,1.5c0,0.33,0.01,0.59,0.04,0.79h-0.29c-0.06-0.55-0.14-0.96-0.23-1.23c-0.09-0.27-0.25-0.46-0.47-0.59
		c-0.22-0.12-0.56-0.18-1-0.18H45c-0.31,0-0.53,0.02-0.67,0.07c-0.14,0.05-0.23,0.15-0.29,0.29c-0.05,0.14-0.08,0.37-0.08,0.69v3
		h0.85c0.43,0,0.71-0.13,0.85-0.38c0.14-0.25,0.23-0.52,0.26-0.78c0.03-0.27,0.06-0.44,0.07-0.52h0.29
		c-0.03,0.42-0.04,0.82-0.04,1.2l0.01,0.61c0,0.43,0.02,1.03,0.07,1.81h-0.29C46.02,31,46,30.8,45.96,30.44
		c-0.04-0.35-0.15-0.62-0.35-0.8c-0.19-0.18-0.46-0.27-0.8-0.27h-0.85v3.06c0,0.32,0.03,0.55,0.08,0.69
		c0.05,0.14,0.15,0.24,0.29,0.29c0.14,0.05,0.36,0.08,0.67,0.08h0.93c0.53,0,0.93-0.07,1.21-0.21c0.28-0.14,0.47-0.37,0.6-0.68
		c0.12-0.31,0.22-0.77,0.28-1.37h0.29C48.29,31.46,48.27,31.77,48.27,32.15z"/>
	<path class="st0" d="M21.64,35.31c-0.14,0.05-0.23,0.15-0.29,0.3c-0.05,0.15-0.08,0.38-0.08,0.7v6.32c0,0.32,0.03,0.55,0.08,0.7
		c0.05,0.14,0.15,0.24,0.29,0.3c0.14,0.05,0.36,0.09,0.67,0.1v0.25c-0.4-0.02-0.94-0.04-1.62-0.04c-0.73,0-1.27,0.01-1.63,0.04
		v-0.25c0.31-0.01,0.53-0.05,0.67-0.1s0.23-0.15,0.28-0.3c0.05-0.15,0.08-0.38,0.08-0.7v-6.81l-3.06,8.22h-0.21l-3.21-8.26v6.72
		c0,0.33,0.03,0.57,0.09,0.74c0.06,0.17,0.17,0.28,0.33,0.36c0.16,0.07,0.41,0.11,0.74,0.13v0.25c-0.3-0.02-0.74-0.04-1.3-0.04
		c-0.51,0-0.9,0.01-1.18,0.04v-0.25c0.29-0.01,0.51-0.05,0.66-0.13c0.14-0.07,0.24-0.19,0.3-0.36c0.05-0.17,0.08-0.41,0.08-0.74
		V36.3c0-0.32-0.03-0.55-0.08-0.7c-0.05-0.14-0.15-0.24-0.29-0.3c-0.14-0.05-0.36-0.09-0.67-0.1v-0.25
		c0.28,0.03,0.67,0.04,1.18,0.04c0.45,0,0.81-0.01,1.09-0.04l2.8,7.38l2.73-7.35h0.6c0.68,0,1.22-0.01,1.62-0.04v0.25
		C22,35.22,21.78,35.25,21.64,35.31z"/>
	<path class="st0" d="M32.73,35.31c-0.14,0.05-0.23,0.15-0.29,0.3c-0.05,0.15-0.08,0.38-0.08,0.7v6.32c0,0.32,0.03,0.55,0.08,0.7
		c0.05,0.14,0.15,0.24,0.29,0.3c0.14,0.05,0.36,0.09,0.67,0.1v0.25c-0.4-0.02-0.94-0.04-1.62-0.04c-0.73,0-1.27,0.01-1.63,0.04
		v-0.25c0.31-0.01,0.53-0.05,0.67-0.1s0.23-0.15,0.28-0.3c0.05-0.15,0.08-0.38,0.08-0.7v-6.81l-3.06,8.22h-0.21l-3.21-8.26v6.72
		c0,0.33,0.03,0.57,0.09,0.74c0.06,0.17,0.17,0.28,0.33,0.36c0.16,0.07,0.41,0.11,0.74,0.13v0.25c-0.3-0.02-0.74-0.04-1.3-0.04
		c-0.51,0-0.9,0.01-1.18,0.04v-0.25c0.29-0.01,0.51-0.05,0.66-0.13c0.14-0.07,0.24-0.19,0.3-0.36c0.05-0.17,0.08-0.41,0.08-0.74
		V36.3c0-0.32-0.03-0.55-0.08-0.7c-0.05-0.14-0.15-0.24-0.29-0.3c-0.14-0.05-0.36-0.09-0.67-0.1v-0.25
		c0.28,0.03,0.67,0.04,1.18,0.04c0.45,0,0.81-0.01,1.09-0.04l2.8,7.38l2.73-7.35h0.6c0.68,0,1.22-0.01,1.62-0.04v0.25
		C33.09,35.22,32.87,35.25,32.73,35.31z"/>
	<path class="st0" d="M41.34,43.45c0.08,0.09,0.16,0.15,0.25,0.18c0.09,0.04,0.19,0.06,0.32,0.07v0.27
		c-0.58-0.03-0.94-0.05-1.09-0.05c-0.29,0-0.88,0.02-1.8,0.05V43.7c0.33,0,0.57-0.01,0.7-0.04c0.14-0.03,0.21-0.08,0.21-0.16
		c0-0.06-0.03-0.14-0.09-0.23l-2.18-3.33l-1.37,2.05c-0.32,0.48-0.48,0.85-0.48,1.12c0,0.22,0.1,0.37,0.29,0.46
		c0.19,0.09,0.47,0.14,0.84,0.15v0.25c-0.48-0.02-1.05-0.04-1.72-0.04c-0.47,0-0.83,0.01-1.08,0.04v-0.25
		c0.25-0.04,0.49-0.15,0.72-0.34c0.23-0.19,0.47-0.47,0.71-0.83l1.92-2.87L35,35.85c-0.11-0.17-0.2-0.3-0.28-0.38
		s-0.16-0.15-0.25-0.18s-0.19-0.06-0.32-0.07v-0.27c0.58,0.03,0.94,0.05,1.09,0.05c0.57,0,1.17-0.02,1.8-0.05v0.27
		c-0.57,0-0.85,0.09-0.85,0.28c0,0.07,0.04,0.16,0.11,0.28l1.98,3.03l1.25-1.87c0.37-0.55,0.55-0.96,0.55-1.22
		c0-0.18-0.08-0.31-0.25-0.38c-0.16-0.08-0.41-0.12-0.74-0.13v-0.25c0.48,0.03,0.97,0.04,1.47,0.04c0.46,0,0.82-0.01,1.08-0.04v0.25
		c-0.26,0.04-0.5,0.15-0.73,0.34c-0.23,0.19-0.46,0.47-0.71,0.82l-1.78,2.66l2.64,4.03C41.17,43.24,41.26,43.36,41.34,43.45z"/>
	<path class="st0" d="M49.16,34.99c0.38,0,0.7-0.01,0.96-0.04v0.25c-0.43,0.1-0.76,0.46-1.01,1.11l-2.99,7.71h-0.11h-0.1l-3.11-8.01
		c-0.21-0.53-0.5-0.8-0.88-0.81v-0.25c0.34,0.03,0.8,0.04,1.36,0.04c0.73,0,1.27-0.01,1.63-0.04v0.25
		c-0.32,0.01-0.55,0.05-0.69,0.12c-0.14,0.07-0.21,0.18-0.21,0.35c0,0.14,0.05,0.34,0.15,0.6l2.31,6.12l2.08-5.38
		c0.17-0.44,0.25-0.79,0.25-1.04c0-0.27-0.09-0.46-0.27-0.58c-0.18-0.12-0.46-0.18-0.84-0.19v-0.25
		C48.18,34.98,48.67,34.99,49.16,34.99z"/>
</g>
</svg>
