<?xml version="1.0" encoding="UTF-8"?>
<svg id="uuid-54b85d56-208d-40ec-8b3c-0b1121010ad2" data-name="Layer 1" xmlns="http://www.w3.org/2000/svg" xmlns:xlink="http://www.w3.org/1999/xlink" viewBox="0 0 928 1494.02">
  <defs>
    <style>
      .uuid-2fa143b7-f8bb-40c9-bfc9-64e751ad952a {
        stroke: #f4f4f5;
      }

      .uuid-2fa143b7-f8bb-40c9-bfc9-64e751ad952a, .uuid-a887dd38-07cf-40a4-84e8-3ebafcbc53bd, .uuid-d5e244cc-2c3b-44fd-a514-6f1e6d8aa7a8 {
        fill: none;
      }

      .uuid-2fa143b7-f8bb-40c9-bfc9-64e751ad952a, .uuid-d5e244cc-2c3b-44fd-a514-6f1e6d8aa7a8 {
        stroke-width: 3px;
      }

      .uuid-f45ebbdd-fd0e-4c32-b939-92482ee45304 {
        fill: #f4f4f5;
      }

      .uuid-f45ebbdd-fd0e-4c32-b939-92482ee45304, .uuid-791c26e4-3880-4bb0-bd3b-b91b26064e5e, .uuid-a887dd38-07cf-40a4-84e8-3ebafcbc53bd, .uuid-8da8815c-e24d-4e63-a7ae-2f80f233d111 {
        stroke-width: 0px;
      }

      .uuid-f0163f49-48a2-4d75-a15d-4883967f79d9 {
        isolation: isolate;
      }

      .uuid-791c26e4-3880-4bb0-bd3b-b91b26064e5e {
        fill: #f1f0f0;
      }

      .uuid-ae2c0218-b794-4594-90cc-e2325b50c1a8 {
        clip-path: url(#uuid-ccaa8205-d946-4710-a5e9-d0c221e326f7);
      }

      .uuid-d5e244cc-2c3b-44fd-a514-6f1e6d8aa7a8 {
        stroke: #8d8787;
      }

      .uuid-8da8815c-e24d-4e63-a7ae-2f80f233d111 {
        fill: #1c1919;
      }
    </style>
    <clipPath id="uuid-ccaa8205-d946-4710-a5e9-d0c221e326f7">
      <rect class="uuid-a887dd38-07cf-40a4-84e8-3ebafcbc53bd" x="26.36" y="6" width="517.64" height="363.42"/>
    </clipPath>
  </defs>
  
  <g id="uuid-bc6b4715-2243-4f6d-b591-1bf81a136ac5" data-name="BRANDING" class="uuid-f0163f49-48a2-4d75-a15d-4883967f79d9">
    <g class="uuid-f0163f49-48a2-4d75-a15d-4883967f79d9">
      <path class="uuid-d5e244cc-2c3b-44fd-a514-6f1e6d8aa7a8" d="m882.56,47.48v95.77c0,17.66-4.05,31.83-12.14,42.5-8.1,10.67-20.33,16.01-36.71,16.01-9.94,0-18.45-2.44-25.53-7.31-7.08-4.88-12.56-11.82-16.42-20.84h-.55c-2.58,12.14-8.33,21.34-17.25,27.6-8.93,6.25-20.1,9.38-33.53,9.38-7.73,0-14.95-1.38-21.67-4.14-6.72-2.76-12.51-7.09-17.39-12.97-4.88-5.89-8.74-13.43-11.59-22.63-2.86-9.2-4.28-20.15-4.28-32.84V47.48h197.06Zm-168.91,34.5v61c0,10.49,2.71,18.63,8.14,24.43,5.42,5.8,13.11,8.69,23.05,8.69s17.25-2.9,22.49-8.69,7.87-13.94,7.87-24.43v-61h-61.55Zm86.39,0v56.3c0,8.28,2.35,15.18,7.04,20.7,4.69,5.52,11.45,8.28,20.29,8.28,9.94,0,16.93-2.48,20.98-7.45,4.04-4.97,6.07-12.14,6.07-21.53v-56.3h-54.37Z"/>
      <path class="uuid-d5e244cc-2c3b-44fd-a514-6f1e6d8aa7a8" d="m882.56,241.78v94.12c0,21.71-4.69,37.99-14.08,48.85-9.38,10.85-22.45,16.28-39.19,16.28-9.38,0-17.16-1.38-23.32-4.14-6.17-2.76-11.13-5.98-14.9-9.66-3.77-3.68-6.49-7.31-8.14-10.9-1.66-3.59-2.76-6.21-3.31-7.87h-.55c-.37,2.94-1.29,6.11-2.76,9.52-1.47,3.4-3.82,6.58-7.04,9.52-3.22,2.94-7.41,5.38-12.56,7.31-5.15,1.93-11.59,2.9-19.32,2.9-11.59,0-22.13.87-31.6,2.62-9.48,1.75-16.24,4.46-20.29,8.14v-36.98c4.23-2.58,8.92-4.1,14.08-4.55,5.15-.46,10.12-.69,14.9-.69,9.01,0,16.79-.55,23.32-1.66,6.53-1.1,11.96-3.13,16.28-6.07,4.32-2.95,7.5-6.95,9.52-12.01,2.02-5.06,3.04-11.55,3.04-19.46v-50.78h-81.14v-34.5h197.06Zm-89.7,34.5v56.58c0,11.04,2.62,19.41,7.87,25.12,5.24,5.7,13.11,8.56,23.6,8.56,6.25,0,11.36-.92,15.32-2.76,3.95-1.84,7.04-4.37,9.25-7.59,2.21-3.22,3.68-6.9,4.42-11.04.73-4.14,1.1-8.42,1.1-12.83v-56.03h-61.55Z"/>
      <path class="uuid-d5e244cc-2c3b-44fd-a514-6f1e6d8aa7a8" d="m882.56,488.8v36.71l-197.06,75.9v-36.98l52.16-18.49v-78.66l-52.16-18.49v-35.6l197.06,75.62Zm-118.68-12.14v60.17l84.73-29.53v-.83l-84.73-29.81Z"/>
      <path class="uuid-d5e244cc-2c3b-44fd-a514-6f1e6d8aa7a8" d="m882.56,618.79v36.43l-145.18,89.98v.55h145.18v32.84h-197.06v-36.43l144.9-89.7v-.83h-144.9v-32.84h197.06Z"/>
      <path class="uuid-d5e244cc-2c3b-44fd-a514-6f1e6d8aa7a8" d="m882.56,819.44v81.7c0,15.08-2.58,28.15-7.73,39.19-5.15,11.04-12.19,20.05-21.11,27.05-8.93,6.99-19.37,12.19-31.33,15.59-11.96,3.4-24.75,5.11-38.36,5.11s-26.41-1.7-38.36-5.11c-11.96-3.41-22.4-8.6-31.33-15.59-8.93-7-15.96-16.01-21.11-27.05-5.15-11.04-7.73-24.11-7.73-39.19v-81.7h197.06Zm-168.91,34.5v33.95c0,13.43,1.79,24.43,5.38,32.98,3.59,8.56,8.56,15.27,14.9,20.15,6.35,4.87,13.8,8.19,22.36,9.94,8.56,1.75,17.8,2.62,27.74,2.62s19.18-.88,27.74-2.62c8.56-1.75,16.01-5.06,22.36-9.94,6.35-4.88,11.32-11.59,14.9-20.15,3.59-8.56,5.38-19.55,5.38-32.98v-33.95h-140.76Z"/>
      <path class="uuid-d5e244cc-2c3b-44fd-a514-6f1e6d8aa7a8" d="m882.56,1018.71v34.5h-197.06v-34.5h197.06Z"/>
      <path class="uuid-d5e244cc-2c3b-44fd-a514-6f1e6d8aa7a8" d="m882.56,1094.05v36.43l-145.18,89.98v.55h145.18v32.84h-197.06v-36.43l144.9-89.7v-.83h-144.9v-32.84h197.06Z"/>
      <path class="uuid-d5e244cc-2c3b-44fd-a514-6f1e6d8aa7a8" d="m685.5,1466.65v-22.08l23.18-5.24c-10.49-9.2-17.76-18.4-21.8-27.6-4.04-9.2-6.07-19.78-6.07-31.74,0-14.72,2.72-27.92,8.14-39.61,5.42-11.69,12.83-21.58,22.22-29.67,9.38-8.1,20.33-14.31,32.84-18.63,12.51-4.33,25.85-6.49,40.02-6.49s27.23,2.16,39.74,6.49c12.51,4.32,23.46,10.53,32.84,18.63,9.38,8.09,16.84,17.98,22.36,29.67,5.52,11.68,8.28,24.88,8.28,39.61,0,10.67-1.43,20.84-4.28,30.5-2.85,9.66-7.08,18.26-12.7,25.81-5.62,7.54-12.65,13.8-21.11,18.77-8.47,4.97-18.22,8.09-29.26,9.38v-33.67c6.44-.92,12.1-2.9,16.97-5.93,4.87-3.04,8.97-6.86,12.28-11.45,3.31-4.6,5.8-9.75,7.45-15.46,1.66-5.71,2.48-11.69,2.48-17.94,0-10.49-2.12-19.55-6.35-27.19-4.23-7.64-9.89-13.85-16.97-18.63-7.09-4.79-15.14-8.33-24.15-10.63-9.02-2.3-18.22-3.45-27.6-3.45s-18.59,1.15-27.6,3.45c-9.02,2.3-17.07,5.84-24.15,10.63-7.09,4.78-12.74,10.99-16.97,18.63-4.23,7.63-6.35,16.7-6.35,27.19-.19,8.83.97,16.65,3.45,23.46,2.48,6.81,6.07,12.56,10.76,17.25s10.44,8.23,17.25,10.63c6.81,2.39,14.35,3.68,22.63,3.86v-52.44h26.22v83.9h-103.78Z"/>
    </g>
  </g>
  <g id="uuid-90a58eb7-7bba-4c2a-9915-28a406005e0d" data-name=" 04" class="uuid-f0163f49-48a2-4d75-a15d-4883967f79d9">
    <g class="uuid-f0163f49-48a2-4d75-a15d-4883967f79d9">
      <path class="uuid-2fa143b7-f8bb-40c9-bfc9-64e751ad952a" d="m159.55,1104.2c24.2,0,43.96,5.57,59.29,16.7,15.32,11.13,27.26,25.33,35.82,42.59,8.55,17.27,14.35,36.22,17.42,56.87,3.06,20.65,4.6,40.66,4.6,60.02s-1.54,39.37-4.6,60.02c-3.07,20.65-8.88,39.61-17.42,56.87-8.55,17.26-20.49,31.46-35.82,42.59-15.33,11.13-35.09,16.7-59.29,16.7s-43.97-5.57-59.29-16.7c-15.33-11.13-27.27-25.33-35.82-42.59-8.55-17.26-14.36-36.22-17.42-56.87-3.07-20.65-4.6-40.66-4.6-60.02s1.53-39.36,4.6-60.02c3.06-20.65,8.87-39.6,17.42-56.87,8.55-17.26,20.49-31.46,35.82-42.59,15.32-11.13,35.09-16.7,59.29-16.7Zm0,306.37c11.93,0,21.94-3.46,30.01-10.41,8.06-6.93,14.44-16.29,19.12-28.07,4.67-11.78,7.99-25.57,9.92-41.38,1.94-15.8,2.9-32.59,2.9-50.34s-.97-34.44-2.9-50.09c-1.94-15.65-5.25-29.44-9.92-41.38-4.68-11.93-11.06-21.37-19.12-28.31-8.07-6.93-18.07-10.41-30.01-10.41s-22.35,3.47-30.25,10.41c-7.91,6.94-14.2,16.38-18.88,28.31-4.68,11.94-7.99,25.74-9.92,41.38-1.94,15.65-2.9,32.35-2.9,50.09s.97,34.53,2.9,50.34c1.94,15.81,5.24,29.61,9.92,41.38,4.67,11.78,10.97,21.14,18.88,28.07,7.9,6.94,17.98,10.41,30.25,10.41Z"/>
      <path class="uuid-2fa143b7-f8bb-40c9-bfc9-64e751ad952a" d="m527.88,1369.43h-43.56v80.34h-52.27v-80.34h-145.2v-54.69l145.2-203.76h52.27v214.9h43.56v43.56Zm-198.44-43.56h102.61v-149.07h-.97l-101.64,149.07Z"/>
    </g>
  </g>
  <g id="uuid-28e99cc1-00b1-49b5-ae82-c5618a244c51" data-name="Group 457">
    <g id="uuid-72cb1711-0dee-4870-b26d-0463e38c5bde" data-name="Group 456">
      <g class="uuid-ae2c0218-b794-4594-90cc-e2325b50c1a8">
        <g id="uuid-43efbc20-a57a-4a1e-abff-4a9f4c2de73a" data-name="Group 455">
          <path id="uuid-e184840b-cd69-4830-ac51-cc7448e7afc4" data-name="Path 2642" class="uuid-791c26e4-3880-4bb0-bd3b-b91b26064e5e" d="m311.32,251.57c-13.62-13.53-22.64-31.01-25.79-49.95l-.42-2.59-2.66-.02-10.65-.08-3.69-.03.54,3.58c3.43,23.02,14.2,44.32,30.71,60.72,16.48,16.59,37.85,27.48,60.96,31.06l3.62.56.03-3.6.08-10.53.02-2.62-2.63-.46c-19.01-3.26-36.53-12.36-50.12-26.04m49.49,39.62c-45.92-7.16-82.24-43.54-89.04-89.15l10.64.08c3.25,19.58,12.58,37.64,26.66,51.62,14.06,14.14,32.18,23.55,51.83,26.92l-.09,10.53Z"/>
          <path id="uuid-4f73c073-52b0-4d6f-9c06-8c26421f6f40" data-name="Path 2643" class="uuid-791c26e4-3880-4bb0-bd3b-b91b26064e5e" d="m444.12,121.89c13.7,13.81,22.65,31.62,25.54,50.86l.4,2.62,2.71.02,10.61.09,3.64.03-.48-3.55c-3.12-23.33-13.78-45-30.36-61.7-16.56-16.88-38.14-27.95-61.52-31.54l-3.62-.57-.03,3.61-.09,10.53-.02,2.63,2.63.46c19.23,3.29,36.94,12.56,50.6,26.5m-49.96-40.09c46.56,7.26,83,44.23,89.24,90.59l-10.62-.09c-2.99-19.88-12.23-38.29-26.39-52.55-14.12-14.42-32.43-24.01-52.32-27.41l.09-10.53Z"/>
          <path id="uuid-24eca56c-c7bd-41ab-84d2-d39588fff8ad" data-name="Path 2644" class="uuid-791c26e4-3880-4bb0-bd3b-b91b26064e5e" d="m282.39,173.85l2.71.02.44-2.62c5.85-34.84,31.74-63.74,65.99-73.6,3.75-1.08,7.56-1.92,11.42-2.52l2.64-.41.02-2.62.09-10.53.03-3.61-3.64.51c-5.15.72-10.25,1.81-15.25,3.25-41.12,11.85-71.8,46.59-78.16,88.49l-.54,3.54,3.64.03,10.61.08Zm65.33-89.16c4.86-1.4,9.8-2.45,14.81-3.15l-.08,10.53c-40.78,6.37-72.97,38.01-80.03,78.68l-10.62-.08c6.37-41.02,36.01-74.59,75.92-85.98"/>
          <path id="uuid-cfbaa330-ffb0-4b2f-9607-ab034e343f89" data-name="Path 2645" class="uuid-791c26e4-3880-4bb0-bd3b-b91b26064e5e" d="m472.32,200.56l-2.67-.02-.47,2.57c-6.27,34.17-32.07,62.51-65.74,72.22h-.04c-3.73,1.08-7.53,1.92-11.37,2.52l-2.64.41-.02,2.62-.09,10.53-.02,3.6,3.63-.51c5.13-.71,10.21-1.79,15.19-3.23h.01l.06-.02h.04c19.89-5.77,37.75-17.01,51.55-32.45,13.78-15.33,22.9-34.26,26.32-54.59l.59-3.57-3.68-.03-10.65-.08Zm-65.07,87.74h0c-4.86,1.41-9.81,2.46-14.82,3.15l.1-10.53c21.74-3.39,41.66-14.13,56.43-30.44,12-13.12,20.08-29.34,23.34-46.81l10.64.08c-6.89,40.39-36.31,73.26-75.69,84.55"/>
          <path id="uuid-108a4016-23d7-4b5f-9689-6656b72771db" data-name="Path 2646" class="uuid-791c26e4-3880-4bb0-bd3b-b91b26064e5e" d="m427.97,172.92l.62,2.27,2.41.02,10.83.09,3.97.03-.85-3.8c-2.83-12.49-9.08-23.94-18.06-33.07-9.01-9.19-20.38-15.7-32.86-18.83l-3.91-.98-.03,3.97-.09,10.77v2.3s2.24.68,2.24.68c17.38,5.27,30.86,19.05,35.74,36.54m-34.73-50.28c24.24,6.05,43.03,25.21,48.62,49.56l-10.84-.09c-5.13-18.55-19.44-33.17-37.87-38.7l.09-10.77Z"/>
          <path id="uuid-dd8c0aaa-b31c-4347-bf89-a2892c4747c0" data-name="Path 2647" class="uuid-791c26e4-3880-4bb0-bd3b-b91b26064e5e" d="m362.41,136.14l2.26-.64.02-2.3.08-10.78.03-3.96-3.92.91c-1.15.27-2.3.57-3.42.9-23.94,6.86-42.38,25.99-48.35,50.16l-.92,3.79,3.97.03,10.83.09h2.41s.65-2.25.65-2.25c5.16-17.31,18.75-30.83,36.1-35.88l.25-.08Zm-.87-2.98c-.08.02-.18.05-.26.07-18.39,5.32-32.81,19.65-38.24,38.01l-10.84-.09c5.67-23.11,23.29-41.4,46.17-47.92,1.07-.3,2.16-.59,3.26-.85l-.08,10.78Z"/>
          <path id="uuid-21811278-c789-4f2f-979c-d7102ebe2af9" data-name="Path 2648" class="uuid-791c26e4-3880-4bb0-bd3b-b91b26064e5e" d="m396.34,253.04c23.39-6.75,41.57-25.2,47.98-48.68l1.03-3.85-4.07-.04-10.89-.08-2.34-.02-.71,2.19c-5.5,16.69-18.85,29.6-35.71,34.54l-.23.06-2.26.64-.02,2.32-.09,10.77-.03,3.96,3.93-.92c1.15-.26,2.3-.56,3.41-.89m-4.05-12.89c.08-.03.17-.05.25-.07,17.87-5.21,32.03-18.9,37.82-36.59l10.9.08c-6.08,22.45-23.45,40.08-45.81,46.49-1.07.31-2.17.6-3.26.86l.1-10.77Z"/>
          <path id="uuid-8304b0fd-4e13-45ff-899b-9188a1675bbf" data-name="Path 2649" class="uuid-791c26e4-3880-4bb0-bd3b-b91b26064e5e" d="m325.55,199.53h-2.34s-10.9-.1-10.9-.1l-4.07-.03.97,3.88c3.07,12.16,9.39,23.26,18.29,32.09,8.91,8.9,20.07,15.22,32.28,18.3l3.91.98.04-3.96.08-10.78.02-2.3-2.25-.68c-16.89-5.15-30.13-18.33-35.37-35.18l-.66-2.21Zm35.11,40.35l-.08,10.78c-23.71-5.97-42.24-24.45-48.29-48.14l10.9.09c5.52,17.88,19.56,31.85,37.48,37.26"/>
          <path id="uuid-9c5a6a39-9cce-46b7-bebc-e1368c69aa00" data-name="Path 2650" class="uuid-791c26e4-3880-4bb0-bd3b-b91b26064e5e" d="m370.11,224.61l-3.16-.02-.02,3.1-.86,104.02-.02,3.1,3.16.03,13.08.1,3.16.02.03-3.1.85-104.02.03-3.1-3.16-.02-13.09-.11Zm12.21,107.23l-13.09-.1.31-36.43.14-16.64.19-23.25.14-16.69.09-11.02,13.08.11-.09,11-.14,16.7-.19,23.31-.14,16.63-.29,36.37Z"/>
          <path id="uuid-b5fa1622-62a9-4d7d-b011-e0c961ab48ac" data-name="Path 2651" class="uuid-791c26e4-3880-4bb0-bd3b-b91b26064e5e" d="m522.67,178.93l-104.86-.85-3.16-.03-.03,3.1-.11,12.98-.02,3.1,3.16.03,104.86.85,3.16.02.03-3.1.11-12.98.02-3.09-3.16-.03Zm-.13,16.08l-35.35-.29-16.84-.13-24.16-.2-16.9-.13-11.62-.09.11-12.98,11.8.09,16.86.13,24.14.2,16.83.13,35.24.29-.11,12.99Z"/>
          <path id="uuid-7899801a-b7eb-4b42-9d05-da4916f3c953" data-name="Path 2652" class="uuid-791c26e4-3880-4bb0-bd3b-b91b26064e5e" d="m383.78,153.86l3.16.03.03-3.1.85-104.02.02-3.1-3.15-.02-13.09-.11-3.16-.02-.03,3.1-.85,104.01-.02,3.1,3.16.03,13.08.1Zm-12.21-107.22l13.09.11-.25,30.87-.14,16.63-.19,23.64-.14,16.69-.14,16.18-13.09-.1.14-16.19.14-16.7.19-23.56.14-16.65.25-30.92Z"/>
          <path id="uuid-a9db8820-b5e6-4427-84d4-ae7025607bef" data-name="Path 2653" class="uuid-791c26e4-3880-4bb0-bd3b-b91b26064e5e" d="m339.28,196.63l.02-3.1.1-12.98.03-3.1-3.16-.02-104.87-.86-3.16-.02-.02,3.1-.11,12.98-.02,3.1,3.16.02,104.87.86,3.16.02Zm-54.79-3.55l-16.84-.13-36.38-.3.12-12.98,36.26.3,16.83.14,22.99.18,16.86.15,11.91.09-.11,12.98-11.73-.09-16.93-.14-22.99-.19Z"/>
          <path id="uuid-dc8eb110-8bd0-480f-a15f-bbd5e39c2529" data-name="Path 2654" class="uuid-791c26e4-3880-4bb0-bd3b-b91b26064e5e" d="m379.19,167.45c-1.02.69-1.93,1.52-2.71,2.47-.31-.39-.64-.77-1-1.13-2.74-2.54-6.35-3.93-10.09-3.89-.3,0-.53.01-.68.02h-.02c-5.45-.17-10.47,2.91-12.8,7.83-1.14,2.29-1.82,4.78-2.01,7.33v.12c-.07,8.95,4.32,17.08,12.71,23.51,3.81,2.92,8.03,5.26,12.52,6.95l1.02.36,1.03-.34c4.52-1.62,8.77-3.9,12.63-6.75,8.51-6.3,13.04-14.36,13.11-23.31v-.12c-.15-2.57-.8-5.08-1.91-7.4-2.27-4.95-7.24-8.09-12.68-8-.19-.01-.49-.03-.9-.03-2.91-.02-5.77.8-8.23,2.36m20.56,13.17c-.16,19.44-23.58,27.14-23.58,27.14,0,0-23.3-8.08-23.13-27.52,0,0,.61-12.21,11.65-12.21h.12s.21-.02.58-.02c2.36,0,11.09.78,11,12.23.09-11.18,8.44-12.05,11.03-12.05.48,0,.76.03.76.03,11.17.09,11.58,12.4,11.58,12.4"/>
          <path id="uuid-c26c34de-bb4b-4a27-8a63-40a783d52987" data-name="Path 2655" class="uuid-791c26e4-3880-4bb0-bd3b-b91b26064e5e" d="m220.64,286.79c-4.86,1.4-9.81,2.45-14.81,3.15l.09-10.54c3.98-.62,7.93-1.49,11.8-2.61h0c34.9-10.06,61.48-39.29,67.97-74.65l10.64.09c-6.65,40.08-36.22,73.19-75.69,84.55h0m-25.3,4.09c-1.77.07-3.56.1-5.33.08s-3.58-.07-5.34-.17l.09-10.42c1.74.11,3.53.18,5.34.19s3.6-.02,5.34-.1l-.09,10.42Zm-21.14-1.2c-45.92-7.17-82.25-43.55-89.04-89.16l10.64.09c3.25,19.58,12.58,37.64,26.66,51.63,14.06,14.14,32.17,23.55,51.83,26.91l-.09,10.53Zm112.81-97.91c.14-1.96.22-3.97.24-6,.01-1.56,0-3.09-.07-4.59l10.5.09c.05,1.49.07,3.03.06,4.59-.02,2.01-.09,4.02-.22,6l-10.5-.09Zm-.83-20.99c-2.99-19.88-12.23-38.29-26.4-52.56-14.12-14.42-32.43-24.01-52.32-27.41l.09-10.53c46.57,7.26,83,44.23,89.24,90.59l-10.61-.09Zm-202.05,19.34c-.1-1.98-.13-4-.12-6,.01-1.56.06-3.09.13-4.59l10.5.09c-.09,1.49-.13,3.03-.15,4.59-.02,2.03.03,4.04.14,6l-10.5-.09Zm1.06-20.97c7.32-46.44,44.16-82.63,90.73-89.13l-.09,10.53c-40.78,6.36-72.97,38.01-80.02,78.67l-10.61-.08Zm111.8-79.56c-1.74-.11-3.53-.17-5.33-.19s-3.6.02-5.34.1l.09-10.42c1.77-.07,3.56-.1,5.34-.08s3.57.07,5.33.17l-.09,10.42Z"/>
          <path id="uuid-aa308f1c-04b0-4039-8b7a-a8dcb6c3504f" data-name="Path 2656" class="uuid-791c26e4-3880-4bb0-bd3b-b91b26064e5e" d="m208.84,248.55c-1.07.31-2.16.59-3.26.85l.09-10.77.25-.07c17.87-5.21,32.02-18.9,37.83-36.59l10.9.09c-6.08,22.45-23.45,40.09-45.81,46.5h0m-13.75,2.44c-1.76.13-3.55.18-5.34.17s-3.58-.1-5.34-.26l.09-10.45c1.74.18,3.53.28,5.34.3s3.59-.06,5.34-.21l-.09,10.44Zm-21.14-1.85c-23.71-5.97-42.24-24.45-48.29-48.14l10.9.09c5.52,17.88,19.56,31.85,37.47,37.27l-.08,10.78Zm72.04-57.55c.23-1.99.36-3.99.38-6,.01-1.52-.04-3.06-.15-4.59l10.52.09c.1,1.48.14,3.01.12,4.59-.02,2.01-.12,4.03-.32,6l-10.54-.08Zm-1.57-20.99c-5.13-18.55-19.44-33.17-37.87-38.7l.09-10.77c24.24,6.05,43.03,25.21,48.62,49.56l-10.83-.09Zm-120.47,20c-.17-1.97-.24-3.99-.22-6,.01-1.57.08-3.11.2-4.58l10.52.09c-.14,1.53-.21,3.07-.23,4.59-.02,2,.07,4.01.28,6l-10.54-.09Zm1.63-20.97c5.66-23.11,23.29-41.4,46.17-47.92,1.07-.31,2.17-.6,3.26-.85l-.09,10.78-.26.07c-18.39,5.32-32.81,19.64-38.25,38l-10.83-.09Zm70.51-39.82c-1.74-.18-3.53-.28-5.33-.3s-3.6.06-5.34.21l.08-10.44c1.76-.13,3.55-.18,5.34-.17s3.58.1,5.33.25l-.08,10.45Z"/>
          <path id="uuid-a1990f95-c66b-4581-aa6c-a2aa15a465ea" data-name="Path 2660" class="uuid-791c26e4-3880-4bb0-bd3b-b91b26064e5e" d="m182.62,330.22l.86-104.02,13.09.11-.86,104.02-13.09-.11Z"/>
          <path id="uuid-43fc4546-e194-49eb-b001-1cd026ff4203" data-name="Path 2661" class="uuid-791c26e4-3880-4bb0-bd3b-b91b26064e5e" d="m231.07,192.66l.1-12.98,104.87.82-.1,12.98-104.87-.82Z"/>
          <path id="uuid-88f76306-ffb3-46ab-ac7d-4b2c24992098" data-name="Path 2662" class="uuid-791c26e4-3880-4bb0-bd3b-b91b26064e5e" d="m184.11,149.14l.88-104.01,13.09.11-.88,104.01-13.09-.11Z"/>
          <path id="uuid-2332777d-f24c-48e2-9b07-b01676fe7ee4" data-name="Path 2663" class="uuid-791c26e4-3880-4bb0-bd3b-b91b26064e5e" d="m44.67,191.15l.1-12.98,104.87.82-.1,12.98-104.87-.82Z"/>
          <path id="uuid-c82bba0e-4bc6-463b-8de2-7ad248884978" data-name="Path 2657" class="uuid-791c26e4-3880-4bb0-bd3b-b91b26064e5e" d="m201.57,166.7s-11.67-1.22-11.78,12.02c.11-13.24-11.58-12.21-11.58-12.21-11.17-.09-11.78,12.21-11.78,12.21-.16,19.44,23.13,27.52,23.13,27.52,0,0,23.42-7.7,23.58-27.14,0,0-.41-12.31-11.58-12.4"/>
          <path id="uuid-0b232d39-b475-44c8-ad7f-04b52d12b1e9" data-name="Path 2658" class="uuid-791c26e4-3880-4bb0-bd3b-b91b26064e5e" d="m263.66,329.78h-10.05l-1.4,4.64h-9.04l10.77-28.12h9.66l10.77,28.12h-9.27l-1.43-4.64Zm-1.84-6.08l-3.16-10.11-3.13,10.11h6.29Z"/>
          <rect id="uuid-95cade93-5d73-45ee-86da-69a7712f0f88" data-name="Rectangle 829" class="uuid-791c26e4-3880-4bb0-bd3b-b91b26064e5e" x="277.53" y="306.31" width="8.87" height="28.12"/>
          <path id="uuid-38ad0d90-1299-4776-b072-e758e633a4d8" data-name="Path 2659" class="uuid-791c26e4-3880-4bb0-bd3b-b91b26064e5e" d="m292.65,306.3h11.64l4.49,17.11,4.46-17.11h11.63v28.12h-7.25v-21.44l-5.59,21.44h-6.56l-5.57-21.44v21.44h-7.25v-28.12Z"/>
        </g>
      </g>
    </g>
  </g>
  <g id="uuid-ca932321-b809-41ce-bd27-f1526c8e9d84" data-name="BRANDING-2" class="uuid-f0163f49-48a2-4d75-a15d-4883967f79d9">
    <g class="uuid-f0163f49-48a2-4d75-a15d-4883967f79d9">
      <path class="uuid-f45ebbdd-fd0e-4c32-b939-92482ee45304" d="m792.06,47.48v95.77c0,17.66-4.05,31.83-12.14,42.5-8.1,10.67-20.33,16.01-36.71,16.01-9.94,0-18.45-2.44-25.53-7.31-7.08-4.88-12.56-11.82-16.42-20.84h-.55c-2.58,12.14-8.33,21.34-17.25,27.6-8.93,6.25-20.1,9.38-33.53,9.38-7.73,0-14.95-1.38-21.67-4.14-6.72-2.76-12.51-7.09-17.39-12.97-4.88-5.89-8.74-13.43-11.59-22.63-2.86-9.2-4.28-20.15-4.28-32.84V47.48h197.06Zm-168.91,34.5v61c0,10.49,2.71,18.63,8.14,24.43,5.42,5.8,13.11,8.69,23.05,8.69s17.25-2.9,22.49-8.69,7.87-13.94,7.87-24.43v-61h-61.55Zm86.39,0v56.3c0,8.28,2.35,15.18,7.04,20.7,4.69,5.52,11.45,8.28,20.29,8.28,9.94,0,16.93-2.48,20.98-7.45,4.04-4.97,6.07-12.14,6.07-21.53v-56.3h-54.37Z"/>
      <path class="uuid-f45ebbdd-fd0e-4c32-b939-92482ee45304" d="m792.06,241.78v94.12c0,21.71-4.69,37.99-14.08,48.85-9.38,10.85-22.45,16.28-39.19,16.28-9.38,0-17.16-1.38-23.32-4.14-6.17-2.76-11.13-5.98-14.9-9.66-3.77-3.68-6.49-7.31-8.14-10.9-1.66-3.59-2.76-6.21-3.31-7.87h-.55c-.37,2.94-1.29,6.11-2.76,9.52-1.47,3.4-3.82,6.58-7.04,9.52-3.22,2.94-7.41,5.38-12.56,7.31-5.15,1.93-11.59,2.9-19.32,2.9-11.59,0-22.13.87-31.6,2.62-9.48,1.75-16.24,4.46-20.29,8.14v-36.98c4.23-2.58,8.92-4.1,14.08-4.55,5.15-.46,10.12-.69,14.9-.69,9.01,0,16.79-.55,23.32-1.66,6.53-1.1,11.96-3.13,16.28-6.07,4.32-2.95,7.5-6.95,9.52-12.01,2.02-5.06,3.04-11.55,3.04-19.46v-50.78h-81.14v-34.5h197.06Zm-89.7,34.5v56.58c0,11.04,2.62,19.41,7.87,25.12,5.24,5.7,13.11,8.56,23.6,8.56,6.25,0,11.36-.92,15.32-2.76,3.95-1.84,7.04-4.37,9.25-7.59,2.21-3.22,3.68-6.9,4.42-11.04.73-4.14,1.1-8.42,1.1-12.83v-56.03h-61.55Z"/>
      <path class="uuid-f45ebbdd-fd0e-4c32-b939-92482ee45304" d="m792.06,488.8v36.71l-197.06,75.9v-36.98l52.16-18.49v-78.66l-52.16-18.49v-35.6l197.06,75.62Zm-118.68-12.14v60.17l84.73-29.53v-.83l-84.73-29.81Z"/>
      <path class="uuid-f45ebbdd-fd0e-4c32-b939-92482ee45304" d="m792.06,618.79v36.43l-145.18,89.98v.55h145.18v32.84h-197.06v-36.43l144.9-89.7v-.83h-144.9v-32.84h197.06Z"/>
      <path class="uuid-f45ebbdd-fd0e-4c32-b939-92482ee45304" d="m792.06,819.44v81.7c0,15.08-2.58,28.15-7.73,39.19-5.15,11.04-12.19,20.05-21.11,27.05-8.93,6.99-19.37,12.19-31.33,15.59-11.96,3.4-24.75,5.11-38.36,5.11s-26.41-1.7-38.36-5.11c-11.96-3.41-22.4-8.6-31.33-15.59-8.93-7-15.96-16.01-21.11-27.05-5.15-11.04-7.73-24.11-7.73-39.19v-81.7h197.06Zm-168.91,34.5v33.95c0,13.43,1.79,24.43,5.38,32.98,3.59,8.56,8.56,15.27,14.9,20.15,6.35,4.87,13.8,8.19,22.36,9.94,8.56,1.75,17.8,2.62,27.74,2.62s19.18-.88,27.74-2.62c8.56-1.75,16.01-5.06,22.36-9.94,6.35-4.88,11.32-11.59,14.9-20.15,3.59-8.56,5.38-19.55,5.38-32.98v-33.95h-140.76Z"/>
      <path class="uuid-f45ebbdd-fd0e-4c32-b939-92482ee45304" d="m792.06,1018.71v34.5h-197.06v-34.5h197.06Z"/>
      <path class="uuid-f45ebbdd-fd0e-4c32-b939-92482ee45304" d="m792.06,1094.05v36.43l-145.18,89.98v.55h145.18v32.84h-197.06v-36.43l144.9-89.7v-.83h-144.9v-32.84h197.06Z"/>
      <path class="uuid-f45ebbdd-fd0e-4c32-b939-92482ee45304" d="m595,1466.65v-22.08l23.18-5.24c-10.49-9.2-17.76-18.4-21.8-27.6-4.04-9.2-6.07-19.78-6.07-31.74,0-14.72,2.72-27.92,8.14-39.61,5.42-11.69,12.83-21.58,22.22-29.67,9.38-8.1,20.33-14.31,32.84-18.63,12.51-4.33,25.85-6.49,40.02-6.49s27.23,2.16,39.74,6.49c12.51,4.32,23.46,10.53,32.84,18.63,9.38,8.09,16.84,17.98,22.36,29.67,5.52,11.68,8.28,24.88,8.28,39.61,0,10.67-1.43,20.84-4.28,30.5-2.85,9.66-7.08,18.26-12.7,25.81-5.62,7.54-12.65,13.8-21.11,18.77-8.47,4.97-18.22,8.09-29.26,9.38v-33.67c6.44-.92,12.1-2.9,16.97-5.93,4.87-3.04,8.97-6.86,12.28-11.45,3.31-4.6,5.8-9.75,7.45-15.46,1.66-5.71,2.48-11.69,2.48-17.94,0-10.49-2.12-19.55-6.35-27.19-4.23-7.64-9.89-13.85-16.97-18.63-7.09-4.79-15.14-8.33-24.15-10.63-9.02-2.3-18.22-3.45-27.6-3.45s-18.59,1.15-27.6,3.45c-9.02,2.3-17.07,5.84-24.15,10.63-7.09,4.78-12.74,10.99-16.97,18.63-4.23,7.63-6.35,16.7-6.35,27.19-.19,8.83.97,16.65,3.45,23.46,2.48,6.81,6.07,12.56,10.76,17.25s10.44,8.23,17.25,10.63c6.81,2.39,14.35,3.68,22.63,3.86v-52.44h26.22v83.9h-103.78Z"/>
    </g>
  </g>
  <g id="uuid-a126eaa1-c265-4ea0-ac19-cb41831d47b9" data-name="LOGO DESIGN BRAND IDENTITY DESIGN SYSTEMS TONE OF VOICE TYPE DESIGN PACKAGING CAMPAIGS BILLBOARDS GUIDELINES PHOTOGRAPHY ANIMATION " class="uuid-f0163f49-48a2-4d75-a15d-4883967f79d9">
    <g class="uuid-f0163f49-48a2-4d75-a15d-4883967f79d9">
      <path class="uuid-f45ebbdd-fd0e-4c32-b939-92482ee45304" d="m149.54,392.59h4.85v32.44h19.28v3.98h-24.12v-36.41Z"/>
      <path class="uuid-f45ebbdd-fd0e-4c32-b939-92482ee45304" d="m176.95,403.63c.73-2.3,1.83-4.33,3.29-6.09,1.46-1.77,3.28-3.18,5.46-4.23,2.18-1.05,4.71-1.58,7.6-1.58s5.42.53,7.6,1.58c2.18,1.05,3.99,2.47,5.46,4.23,1.46,1.77,2.56,3.8,3.29,6.09.73,2.29,1.1,4.68,1.1,7.17s-.37,4.87-1.1,7.17c-.73,2.29-1.83,4.33-3.29,6.09-1.46,1.77-3.28,3.18-5.46,4.23-2.18,1.05-4.71,1.58-7.6,1.58s-5.42-.53-7.6-1.58c-2.18-1.05-4-2.46-5.46-4.23-1.46-1.77-2.56-3.8-3.29-6.09-.73-2.3-1.1-4.68-1.1-7.17s.36-4.87,1.1-7.17Zm4.46,12.63c.48,1.8,1.22,3.42,2.24,4.85s2.33,2.59,3.93,3.47c1.6.87,3.5,1.31,5.71,1.31s4.11-.44,5.71-1.31,2.91-2.03,3.93-3.47,1.77-3.06,2.24-4.85c.48-1.8.71-3.62.71-5.47s-.24-3.67-.71-5.47c-.48-1.8-1.22-3.42-2.24-4.85s-2.33-2.59-3.93-3.47c-1.6-.87-3.5-1.31-5.71-1.31s-4.11.44-5.71,1.31c-1.6.87-2.91,2.03-3.93,3.47s-1.77,3.06-2.24,4.85c-.48,1.8-.71,3.62-.71,5.47s.24,3.67.71,5.47Z"/>
      <path class="uuid-f45ebbdd-fd0e-4c32-b939-92482ee45304" d="m243.89,424.46c-.71.95-1.52,1.77-2.42,2.45-.9.68-1.86,1.24-2.88,1.68s-2.07.77-3.16.97c-1.09.2-2.16.31-3.21.31-2.72,0-5.15-.51-7.29-1.53-2.14-1.02-3.96-2.38-5.46-4.08-1.5-1.7-2.64-3.65-3.42-5.87-.78-2.21-1.17-4.5-1.17-6.88,0-2.65.37-5.18,1.1-7.57.73-2.4,1.82-4.5,3.26-6.3,1.44-1.8,3.25-3.24,5.41-4.31,2.16-1.07,4.68-1.61,7.57-1.61,1.97,0,3.83.23,5.58.69,1.75.46,3.31,1.18,4.69,2.17s2.53,2.24,3.47,3.75c.94,1.51,1.57,3.34,1.91,5.48h-4.84c-.24-1.38-.68-2.58-1.33-3.62-.65-1.03-1.45-1.88-2.4-2.53-.95-.65-2.03-1.15-3.24-1.47-1.21-.33-2.49-.49-3.85-.49-2.21,0-4.11.45-5.69,1.33-1.58.89-2.87,2.06-3.88,3.52-1,1.46-1.74,3.12-2.22,4.98-.48,1.87-.71,3.77-.71,5.72s.27,3.76.82,5.52c.54,1.76,1.34,3.32,2.4,4.67,1.05,1.35,2.35,2.43,3.9,3.23,1.55.8,3.34,1.21,5.38,1.21,1.87,0,3.54-.31,5.02-.93,1.48-.62,2.73-1.48,3.75-2.57,1.02-1.09,1.78-2.37,2.27-3.84.49-1.47.71-3.05.64-4.75h-11.63v-3.98h15.96v19.18h-3.06l-1.27-4.54Z"/>
      <path class="uuid-f45ebbdd-fd0e-4c32-b939-92482ee45304" d="m254.42,403.63c.73-2.3,1.83-4.33,3.29-6.09,1.46-1.77,3.28-3.18,5.46-4.23,2.18-1.05,4.71-1.58,7.6-1.58s5.42.53,7.6,1.58c2.18,1.05,3.99,2.47,5.46,4.23,1.46,1.77,2.56,3.8,3.29,6.09.73,2.29,1.1,4.68,1.1,7.17s-.37,4.87-1.1,7.17c-.73,2.29-1.83,4.33-3.29,6.09-1.46,1.77-3.28,3.18-5.46,4.23-2.18,1.05-4.71,1.58-7.6,1.58s-5.42-.53-7.6-1.58c-2.18-1.05-4-2.46-5.46-4.23-1.46-1.77-2.56-3.8-3.29-6.09-.73-2.3-1.1-4.68-1.1-7.17s.36-4.87,1.1-7.17Zm4.46,12.63c.48,1.8,1.22,3.42,2.24,4.85s2.33,2.59,3.93,3.47c1.6.87,3.5,1.31,5.71,1.31s4.11-.44,5.71-1.31,2.91-2.03,3.93-3.47,1.77-3.06,2.24-4.85c.48-1.8.71-3.62.71-5.47s-.24-3.67-.71-5.47c-.48-1.8-1.22-3.42-2.24-4.85s-2.33-2.59-3.93-3.47c-1.6-.87-3.5-1.31-5.71-1.31s-4.11.44-5.71,1.31c-1.6.87-2.91,2.03-3.93,3.47s-1.77,3.06-2.24,4.85c-.48,1.8-.71,3.62-.71,5.47s.24,3.67.71,5.47Z"/>
      <path class="uuid-f45ebbdd-fd0e-4c32-b939-92482ee45304" d="m308.3,392.59h12.5c5.61,0,9.93,1.43,12.95,4.28,3.03,2.86,4.54,7.21,4.54,13.06,0,3.06-.34,5.77-1.02,8.13-.68,2.36-1.73,4.35-3.16,5.97-1.43,1.62-3.25,2.85-5.46,3.7-2.21.85-4.83,1.28-7.85,1.28h-12.5v-36.41Zm4.85,32.44h8.06c.54,0,1.22-.04,2.04-.13.82-.08,1.68-.29,2.6-.62s1.83-.8,2.73-1.41c.9-.62,1.71-1.46,2.42-2.52.71-1.06,1.3-2.39,1.76-3.98s.69-3.52.69-5.78-.21-4.15-.64-5.88c-.43-1.73-1.12-3.19-2.09-4.39-.97-1.2-2.22-2.12-3.75-2.77-1.53-.65-3.42-.98-5.66-.98h-8.16v28.46Z"/>
      <path class="uuid-f45ebbdd-fd0e-4c32-b939-92482ee45304" d="m344.2,392.59h25.14v3.98h-20.3v11.68h18.92v3.98h-18.92v12.8h20.45v3.98h-25.3v-36.41Z"/>
      <path class="uuid-f45ebbdd-fd0e-4c32-b939-92482ee45304" d="m396.43,403.24c-.27-2.65-1.22-4.58-2.83-5.76-1.62-1.19-3.68-1.78-6.2-1.78-1.02,0-2.02.1-3.01.31-.99.21-1.86.55-2.63,1.03s-1.38,1.12-1.84,1.93-.69,1.81-.69,3.01c0,1.13.33,2.05.99,2.75.66.7,1.55,1.28,2.65,1.72,1.1.45,2.35.81,3.75,1.11,1.39.29,2.82.61,4.28.95,1.46.34,2.89.74,4.28,1.2,1.39.46,2.63,1.08,3.72,1.86,1.09.78,1.96,1.78,2.63,2.98.66,1.21.99,2.7.99,4.46,0,1.94-.43,3.6-1.3,4.97-.87,1.38-1.98,2.5-3.34,3.37-1.36.87-2.88,1.5-4.56,1.91s-3.36.61-5.02.61c-2.04,0-3.97-.25-5.79-.77-1.82-.51-3.42-1.29-4.79-2.35-1.38-1.05-2.47-2.39-3.26-4-.8-1.62-1.2-3.53-1.2-5.74h4.59c0,1.55.3,2.88.89,4,.59,1.12,1.38,2.04,2.35,2.76.97.72,2.09,1.25,3.37,1.6,1.27.34,2.61.52,4,.52,1.09,0,2.18-.1,3.29-.31,1.1-.21,2.1-.56,2.98-1.05.88-.5,1.6-1.17,2.14-2.03.54-.86.82-1.95.82-3.29,0-1.27-.33-2.29-.99-3.08-.66-.79-1.54-1.43-2.63-1.93-1.09-.5-2.33-.91-3.72-1.23-1.39-.33-2.82-.64-4.28-.95-1.46-.31-2.89-.67-4.28-1.1-1.39-.42-2.64-1-3.75-1.71-1.1-.71-1.99-1.61-2.65-2.7-.66-1.09-.99-2.46-.99-4.13,0-1.84.37-3.42,1.12-4.77.75-1.34,1.74-2.45,2.98-3.31,1.24-.87,2.65-1.51,4.23-1.94,1.58-.42,3.2-.64,4.87-.64,1.87,0,3.6.22,5.2.66,1.6.44,2.99,1.14,4.18,2.09,1.19.95,2.14,2.15,2.86,3.6.71,1.45,1.1,3.17,1.17,5.18h-4.59Z"/>
      <path class="uuid-f45ebbdd-fd0e-4c32-b939-92482ee45304" d="m408.62,392.59h4.84v36.41h-4.84v-36.41Z"/>
      <path class="uuid-f45ebbdd-fd0e-4c32-b939-92482ee45304" d="m448.85,424.46c-.71.95-1.52,1.77-2.42,2.45-.9.68-1.86,1.24-2.88,1.68s-2.07.77-3.16.97c-1.09.2-2.16.31-3.21.31-2.72,0-5.15-.51-7.29-1.53-2.14-1.02-3.96-2.38-5.46-4.08-1.5-1.7-2.64-3.65-3.42-5.87-.78-2.21-1.17-4.5-1.17-6.88,0-2.65.37-5.18,1.1-7.57.73-2.4,1.82-4.5,3.26-6.3,1.44-1.8,3.25-3.24,5.41-4.31,2.16-1.07,4.68-1.61,7.57-1.61,1.97,0,3.83.23,5.58.69,1.75.46,3.31,1.18,4.69,2.17s2.53,2.24,3.47,3.75c.94,1.51,1.57,3.34,1.91,5.48h-4.84c-.24-1.38-.68-2.58-1.33-3.62-.65-1.03-1.45-1.88-2.4-2.53-.95-.65-2.03-1.15-3.24-1.47-1.21-.33-2.49-.49-3.85-.49-2.21,0-4.11.45-5.69,1.33-1.58.89-2.87,2.06-3.88,3.52-1,1.46-1.74,3.12-2.22,4.98-.48,1.87-.71,3.77-.71,5.72s.27,3.76.82,5.52c.54,1.76,1.34,3.32,2.4,4.67,1.05,1.35,2.35,2.43,3.9,3.23,1.55.8,3.34,1.21,5.38,1.21,1.87,0,3.54-.31,5.02-.93,1.48-.62,2.73-1.48,3.75-2.57,1.02-1.09,1.78-2.37,2.27-3.84.49-1.47.71-3.05.64-4.75h-11.63v-3.98h15.96v19.18h-3.06l-1.27-4.54Z"/>
      <path class="uuid-f45ebbdd-fd0e-4c32-b939-92482ee45304" d="m460.28,392.59h5.15l19.18,29.53h.1v-29.53h4.59v36.41h-5.3l-19.02-29.22h-.1v29.22h-4.59v-36.41Z"/>
    </g>
    <g class="uuid-f0163f49-48a2-4d75-a15d-4883967f79d9">
      <path class="uuid-f45ebbdd-fd0e-4c32-b939-92482ee45304" d="m104.2,453.59h13.21c.82,0,1.67,0,2.55.03.88.02,1.76.07,2.63.15.87.08,1.69.21,2.47.38.78.17,1.44.42,1.99.76,1.19.71,2.2,1.71,3.03,2.98.83,1.27,1.25,2.81,1.25,4.61,0,1.93-.48,3.6-1.43,5.01-.95,1.41-2.28,2.45-3.98,3.13v.1c2.24.48,3.96,1.5,5.15,3.07,1.19,1.57,1.79,3.47,1.79,5.72,0,1.33-.24,2.62-.71,3.88s-1.18,2.38-2.12,3.35c-.94.97-2.09,1.75-3.47,2.35-1.38.6-2.97.89-4.77.89h-17.6v-36.41Zm4.85,15.66h9.69c2.75,0,4.73-.49,5.94-1.47,1.21-.98,1.81-2.44,1.81-4.4,0-1.27-.2-2.29-.61-3.06-.41-.77-.97-1.36-1.68-1.77-.71-.41-1.54-.68-2.47-.8-.94-.12-1.93-.18-2.98-.18h-9.69v11.68Zm0,16.78h12.14c2.11,0,3.77-.6,5-1.79,1.22-1.19,1.84-2.81,1.84-4.85,0-1.21-.22-2.21-.66-3.01-.44-.79-1.03-1.42-1.76-1.89-.73-.47-1.57-.79-2.52-.98-.95-.19-1.94-.29-2.96-.29h-11.07v12.8Z"/>
      <path class="uuid-f45ebbdd-fd0e-4c32-b939-92482ee45304" d="m139.13,453.59h17.14c3.43,0,6.14.86,8.11,2.58,1.97,1.72,2.96,4.05,2.96,6.98,0,2.22-.5,4.16-1.5,5.83s-2.61,2.81-4.82,3.43v.1c1.05.2,1.91.54,2.58,1.02.66.47,1.2,1.04,1.61,1.7.41.66.7,1.4.87,2.21.17.81.31,1.66.41,2.54.07.88.13,1.79.18,2.72.05.93.14,1.83.25,2.7.12.86.31,1.69.56,2.49s.64,1.5,1.15,2.11h-5.41c-.34-.37-.57-.88-.69-1.53-.12-.65-.2-1.37-.23-2.17-.03-.8-.07-1.66-.1-2.58-.03-.92-.14-1.82-.31-2.7-.14-.88-.31-1.73-.51-2.53-.2-.8-.53-1.5-.97-2.09-.44-.59-1.03-1.07-1.76-1.43-.73-.36-1.67-.54-2.83-.54h-11.83v15.55h-4.85v-36.41Zm14.94,16.88c1.12,0,2.19-.09,3.21-.26,1.02-.17,1.91-.51,2.68-1.01.77-.5,1.38-1.17,1.84-2.02s.69-1.94.69-3.29c0-1.83-.51-3.34-1.53-4.53-1.02-1.19-2.67-1.79-4.95-1.79h-12.04v12.9h10.1Z"/>
      <path class="uuid-f45ebbdd-fd0e-4c32-b939-92482ee45304" d="m183.96,453.59h5.35l14.23,36.41h-5.35l-3.98-10.96h-15.4l-4.08,10.96h-5l14.23-36.41Zm-3.62,21.47h12.34l-6.07-17.08h-.1l-6.17,17.08Z"/>
      <path class="uuid-f45ebbdd-fd0e-4c32-b939-92482ee45304" d="m207.06,453.59h5.15l19.18,29.53h.1v-29.53h4.59v36.41h-5.3l-19.02-29.22h-.1v29.22h-4.59v-36.41Z"/>
      <path class="uuid-f45ebbdd-fd0e-4c32-b939-92482ee45304" d="m243.94,453.59h12.5c5.61,0,9.93,1.43,12.95,4.28,3.03,2.86,4.54,7.21,4.54,13.06,0,3.06-.34,5.77-1.02,8.13-.68,2.36-1.73,4.35-3.16,5.97-1.43,1.62-3.25,2.85-5.46,3.7-2.21.85-4.83,1.28-7.85,1.28h-12.5v-36.41Zm4.85,32.44h8.06c.54,0,1.22-.04,2.04-.13.82-.08,1.68-.29,2.6-.62s1.83-.8,2.73-1.41c.9-.62,1.71-1.46,2.42-2.52.71-1.06,1.3-2.39,1.76-3.98s.69-3.52.69-5.78-.21-4.15-.64-5.88c-.43-1.73-1.12-3.19-2.09-4.39-.97-1.2-2.22-2.12-3.75-2.77-1.53-.65-3.42-.98-5.66-.98h-8.16v28.46Z"/>
      <path class="uuid-f45ebbdd-fd0e-4c32-b939-92482ee45304" d="m294.22,453.59h4.84v36.41h-4.84v-36.41Z"/>
      <path class="uuid-f45ebbdd-fd0e-4c32-b939-92482ee45304" d="m307.23,453.59h12.5c5.61,0,9.93,1.43,12.95,4.28,3.03,2.86,4.54,7.21,4.54,13.06,0,3.06-.34,5.77-1.02,8.13-.68,2.36-1.73,4.35-3.16,5.97-1.43,1.62-3.25,2.85-5.46,3.7-2.21.85-4.83,1.28-7.85,1.28h-12.5v-36.41Zm4.85,32.44h8.06c.54,0,1.22-.04,2.04-.13.82-.08,1.68-.29,2.6-.62s1.83-.8,2.73-1.41c.9-.62,1.71-1.46,2.42-2.52.71-1.06,1.3-2.39,1.76-3.98s.69-3.52.69-5.78-.21-4.15-.64-5.88c-.43-1.73-1.12-3.19-2.09-4.39-.97-1.2-2.22-2.12-3.75-2.77-1.53-.65-3.42-.98-5.66-.98h-8.16v28.46Z"/>
      <path class="uuid-f45ebbdd-fd0e-4c32-b939-92482ee45304" d="m343.13,453.59h25.14v3.98h-20.3v11.68h18.92v3.98h-18.92v12.8h20.45v3.98h-25.3v-36.41Z"/>
      <path class="uuid-f45ebbdd-fd0e-4c32-b939-92482ee45304" d="m374.24,453.59h5.15l19.18,29.53h.1v-29.53h4.59v36.41h-5.3l-19.02-29.22h-.1v29.22h-4.59v-36.41Z"/>
      <path class="uuid-f45ebbdd-fd0e-4c32-b939-92482ee45304" d="m419.37,457.56h-12.14v-3.98h29.12v3.98h-12.14v32.44h-4.84v-32.44Z"/>
      <path class="uuid-f45ebbdd-fd0e-4c32-b939-92482ee45304" d="m440.59,453.59h4.84v36.41h-4.84v-36.41Z"/>
      <path class="uuid-f45ebbdd-fd0e-4c32-b939-92482ee45304" d="m461.86,457.56h-12.14v-3.98h29.12v3.98h-12.14v32.44h-4.84v-32.44Z"/>
      <path class="uuid-f45ebbdd-fd0e-4c32-b939-92482ee45304" d="m497.91,475.11v14.89h-4.84v-14.89l-14.08-21.52h5.76l10.91,17.34,10.66-17.34h5.51l-13.92,21.52Z"/>
    </g>
    <g class="uuid-f0163f49-48a2-4d75-a15d-4883967f79d9">
      <path class="uuid-f45ebbdd-fd0e-4c32-b939-92482ee45304" d="m76.45,514.59h12.5c5.61,0,9.93,1.43,12.95,4.28,3.03,2.86,4.54,7.21,4.54,13.06,0,3.06-.34,5.77-1.02,8.13-.68,2.36-1.73,4.35-3.16,5.97-1.43,1.62-3.25,2.85-5.46,3.7-2.21.85-4.83,1.28-7.85,1.28h-12.5v-36.41Zm4.85,32.44h8.06c.54,0,1.22-.04,2.04-.13.82-.08,1.68-.29,2.6-.62s1.83-.8,2.73-1.41c.9-.62,1.71-1.46,2.42-2.52.71-1.06,1.3-2.39,1.76-3.98s.69-3.52.69-5.78-.21-4.15-.64-5.88c-.43-1.73-1.12-3.19-2.09-4.39-.97-1.2-2.22-2.12-3.75-2.77-1.53-.65-3.42-.98-5.66-.98h-8.16v28.46Z"/>
      <path class="uuid-f45ebbdd-fd0e-4c32-b939-92482ee45304" d="m112.36,514.59h25.14v3.98h-20.3v11.68h18.92v3.98h-18.92v12.8h20.45v3.98h-25.3v-36.41Z"/>
      <path class="uuid-f45ebbdd-fd0e-4c32-b939-92482ee45304" d="m164.58,525.24c-.27-2.65-1.22-4.58-2.83-5.76-1.62-1.19-3.68-1.78-6.2-1.78-1.02,0-2.02.1-3.01.31-.99.21-1.86.55-2.63,1.03s-1.38,1.12-1.84,1.93-.69,1.81-.69,3.01c0,1.13.33,2.05.99,2.75.66.7,1.55,1.28,2.65,1.72,1.1.45,2.35.81,3.75,1.11,1.39.29,2.82.61,4.28.95,1.46.34,2.89.74,4.28,1.2,1.39.46,2.63,1.08,3.72,1.86,1.09.78,1.96,1.78,2.63,2.98.66,1.21.99,2.7.99,4.46,0,1.94-.43,3.6-1.3,4.97-.87,1.38-1.98,2.5-3.34,3.37-1.36.87-2.88,1.5-4.56,1.91s-3.36.61-5.02.61c-2.04,0-3.97-.25-5.79-.77-1.82-.51-3.42-1.29-4.79-2.35-1.38-1.05-2.47-2.39-3.26-4-.8-1.62-1.2-3.53-1.2-5.74h4.59c0,1.55.3,2.88.89,4,.59,1.12,1.38,2.04,2.35,2.76.97.72,2.09,1.25,3.37,1.6,1.27.34,2.61.52,4,.52,1.09,0,2.18-.1,3.29-.31,1.1-.21,2.1-.56,2.98-1.05.88-.5,1.6-1.17,2.14-2.03.54-.86.82-1.95.82-3.29,0-1.27-.33-2.29-.99-3.08-.66-.79-1.54-1.43-2.63-1.93-1.09-.5-2.33-.91-3.72-1.23-1.39-.33-2.82-.64-4.28-.95-1.46-.31-2.89-.67-4.28-1.1-1.39-.42-2.64-1-3.75-1.71-1.1-.71-1.99-1.61-2.65-2.7-.66-1.09-.99-2.46-.99-4.13,0-1.84.37-3.42,1.12-4.77.75-1.34,1.74-2.45,2.98-3.31,1.24-.87,2.65-1.51,4.23-1.94,1.58-.42,3.2-.64,4.87-.64,1.87,0,3.6.22,5.2.66,1.6.44,2.99,1.14,4.18,2.09,1.19.95,2.14,2.15,2.86,3.6.71,1.45,1.1,3.17,1.17,5.18h-4.59Z"/>
      <path class="uuid-f45ebbdd-fd0e-4c32-b939-92482ee45304" d="m176.77,514.59h4.84v36.41h-4.84v-36.41Z"/>
      <path class="uuid-f45ebbdd-fd0e-4c32-b939-92482ee45304" d="m217.01,546.46c-.71.95-1.52,1.77-2.42,2.45-.9.68-1.86,1.24-2.88,1.68s-2.07.77-3.16.97c-1.09.2-2.16.31-3.21.31-2.72,0-5.15-.51-7.29-1.53-2.14-1.02-3.96-2.38-5.46-4.08-1.5-1.7-2.64-3.65-3.42-5.87-.78-2.21-1.17-4.5-1.17-6.88,0-2.65.37-5.18,1.1-7.57.73-2.4,1.82-4.5,3.26-6.3,1.44-1.8,3.25-3.24,5.41-4.31,2.16-1.07,4.68-1.61,7.57-1.61,1.97,0,3.83.23,5.58.69,1.75.46,3.31,1.18,4.69,2.17s2.53,2.24,3.47,3.75c.94,1.51,1.57,3.34,1.91,5.48h-4.84c-.24-1.38-.68-2.58-1.33-3.62-.65-1.03-1.45-1.88-2.4-2.53-.95-.65-2.03-1.15-3.24-1.47-1.21-.33-2.49-.49-3.85-.49-2.21,0-4.11.45-5.69,1.33-1.58.89-2.87,2.06-3.88,3.52-1,1.46-1.74,3.12-2.22,4.98-.48,1.87-.71,3.77-.71,5.72s.27,3.76.82,5.52c.54,1.76,1.34,3.32,2.4,4.67,1.05,1.35,2.35,2.43,3.9,3.23,1.55.8,3.34,1.21,5.38,1.21,1.87,0,3.54-.31,5.02-.93,1.48-.62,2.73-1.48,3.75-2.57,1.02-1.09,1.78-2.37,2.27-3.84.49-1.47.71-3.05.64-4.75h-11.63v-3.98h15.96v19.18h-3.06l-1.27-4.54Z"/>
      <path class="uuid-f45ebbdd-fd0e-4c32-b939-92482ee45304" d="m228.43,514.59h5.15l19.18,29.53h.1v-29.53h4.59v36.41h-5.3l-19.02-29.22h-.1v29.22h-4.59v-36.41Z"/>
      <path class="uuid-f45ebbdd-fd0e-4c32-b939-92482ee45304" d="m300.54,525.24c-.27-2.65-1.22-4.58-2.83-5.76-1.62-1.19-3.68-1.78-6.2-1.78-1.02,0-2.02.1-3.01.31-.99.21-1.86.55-2.63,1.03s-1.38,1.12-1.84,1.93-.69,1.81-.69,3.01c0,1.13.33,2.05.99,2.75.66.7,1.55,1.28,2.65,1.72,1.1.45,2.35.81,3.75,1.11,1.39.29,2.82.61,4.28.95,1.46.34,2.89.74,4.28,1.2,1.39.46,2.63,1.08,3.72,1.86,1.09.78,1.96,1.78,2.63,2.98.66,1.21.99,2.7.99,4.46,0,1.94-.43,3.6-1.3,4.97-.87,1.38-1.98,2.5-3.34,3.37-1.36.87-2.88,1.5-4.56,1.91s-3.36.61-5.02.61c-2.04,0-3.97-.25-5.79-.77-1.82-.51-3.42-1.29-4.79-2.35-1.38-1.05-2.47-2.39-3.26-4-.8-1.62-1.2-3.53-1.2-5.74h4.59c0,1.55.3,2.88.89,4,.59,1.12,1.38,2.04,2.35,2.76.97.72,2.09,1.25,3.37,1.6,1.27.34,2.61.52,4,.52,1.09,0,2.18-.1,3.29-.31,1.1-.21,2.1-.56,2.98-1.05.88-.5,1.6-1.17,2.14-2.03.54-.86.82-1.95.82-3.29,0-1.27-.33-2.29-.99-3.08-.66-.79-1.54-1.43-2.63-1.93-1.09-.5-2.33-.91-3.72-1.23-1.39-.33-2.82-.64-4.28-.95-1.46-.31-2.89-.67-4.28-1.1-1.39-.42-2.64-1-3.75-1.71-1.1-.71-1.99-1.61-2.65-2.7-.66-1.09-.99-2.46-.99-4.13,0-1.84.37-3.42,1.12-4.77.75-1.34,1.74-2.45,2.98-3.31,1.24-.87,2.65-1.51,4.23-1.94,1.58-.42,3.2-.64,4.87-.64,1.87,0,3.6.22,5.2.66,1.6.44,2.99,1.14,4.18,2.09,1.19.95,2.14,2.15,2.86,3.6.71,1.45,1.1,3.17,1.17,5.18h-4.59Z"/>
      <path class="uuid-f45ebbdd-fd0e-4c32-b939-92482ee45304" d="m327.57,536.11v14.89h-4.84v-14.89l-14.08-21.52h5.76l10.91,17.34,10.66-17.34h5.51l-13.92,21.52Z"/>
      <path class="uuid-f45ebbdd-fd0e-4c32-b939-92482ee45304" d="m366.64,525.24c-.27-2.65-1.22-4.58-2.83-5.76-1.62-1.19-3.68-1.78-6.2-1.78-1.02,0-2.02.1-3.01.31-.99.21-1.86.55-2.63,1.03s-1.38,1.12-1.84,1.93-.69,1.81-.69,3.01c0,1.13.33,2.05.99,2.75.66.7,1.55,1.28,2.65,1.72,1.1.45,2.35.81,3.75,1.11,1.39.29,2.82.61,4.28.95,1.46.34,2.89.74,4.28,1.2,1.39.46,2.63,1.08,3.72,1.86,1.09.78,1.96,1.78,2.63,2.98.66,1.21.99,2.7.99,4.46,0,1.94-.43,3.6-1.3,4.97-.87,1.38-1.98,2.5-3.34,3.37-1.36.87-2.88,1.5-4.56,1.91s-3.36.61-5.02.61c-2.04,0-3.97-.25-5.79-.77-1.82-.51-3.42-1.29-4.79-2.35-1.38-1.05-2.47-2.39-3.26-4-.8-1.62-1.2-3.53-1.2-5.74h4.59c0,1.55.3,2.88.89,4,.59,1.12,1.38,2.04,2.35,2.76.97.72,2.09,1.25,3.37,1.6,1.27.34,2.61.52,4,.52,1.09,0,2.18-.1,3.29-.31,1.1-.21,2.1-.56,2.98-1.05.88-.5,1.6-1.17,2.14-2.03.54-.86.82-1.95.82-3.29,0-1.27-.33-2.29-.99-3.08-.66-.79-1.54-1.43-2.63-1.93-1.09-.5-2.33-.91-3.72-1.23-1.39-.33-2.82-.64-4.28-.95-1.46-.31-2.89-.67-4.28-1.1-1.39-.42-2.64-1-3.75-1.71-1.1-.71-1.99-1.61-2.65-2.7-.66-1.09-.99-2.46-.99-4.13,0-1.84.37-3.42,1.12-4.77.75-1.34,1.74-2.45,2.98-3.31,1.24-.87,2.65-1.51,4.23-1.94,1.58-.42,3.2-.64,4.87-.64,1.87,0,3.6.22,5.2.66,1.6.44,2.99,1.14,4.18,2.09,1.19.95,2.14,2.15,2.86,3.6.71,1.45,1.1,3.17,1.17,5.18h-4.59Z"/>
      <path class="uuid-f45ebbdd-fd0e-4c32-b939-92482ee45304" d="m386.89,518.56h-12.14v-3.98h29.12v3.98h-12.14v32.44h-4.84v-32.44Z"/>
      <path class="uuid-f45ebbdd-fd0e-4c32-b939-92482ee45304" d="m407.9,514.59h25.14v3.98h-20.3v11.68h18.92v3.98h-18.92v12.8h20.45v3.98h-25.3v-36.41Z"/>
      <path class="uuid-f45ebbdd-fd0e-4c32-b939-92482ee45304" d="m439.16,514.59h6.63l11.48,30.6,11.53-30.6h6.63v36.41h-4.59v-30.29h-.1l-11.37,30.29h-4.13l-11.37-30.29h-.1v30.29h-4.59v-36.41Z"/>
      <path class="uuid-f45ebbdd-fd0e-4c32-b939-92482ee45304" d="m504.54,525.24c-.27-2.65-1.22-4.58-2.83-5.76-1.62-1.19-3.68-1.78-6.2-1.78-1.02,0-2.02.1-3.01.31-.99.21-1.86.55-2.63,1.03-.76.48-1.38,1.12-1.84,1.93s-.69,1.81-.69,3.01c0,1.13.33,2.05,1,2.75.66.7,1.55,1.28,2.65,1.72,1.1.45,2.35.81,3.75,1.11,1.39.29,2.82.61,4.28.95,1.46.34,2.89.74,4.28,1.2s2.63,1.08,3.72,1.86c1.09.78,1.96,1.78,2.63,2.98.66,1.21,1,2.7,1,4.46,0,1.94-.43,3.6-1.3,4.97s-1.98,2.5-3.34,3.37c-1.36.87-2.88,1.5-4.56,1.91-1.68.41-3.36.61-5.02.61-2.04,0-3.97-.25-5.79-.77-1.82-.51-3.42-1.29-4.79-2.35-1.38-1.05-2.47-2.39-3.26-4s-1.2-3.53-1.2-5.74h4.59c0,1.55.3,2.88.89,4s1.38,2.04,2.35,2.76c.97.72,2.09,1.25,3.37,1.6,1.28.34,2.61.52,4,.52,1.09,0,2.18-.1,3.29-.31,1.1-.21,2.1-.56,2.98-1.05s1.6-1.17,2.14-2.03c.54-.86.82-1.95.82-3.29,0-1.27-.33-2.29-.99-3.08-.66-.79-1.54-1.43-2.63-1.93s-2.33-.91-3.72-1.23c-1.39-.33-2.82-.64-4.28-.95-1.46-.31-2.89-.67-4.28-1.1s-2.64-1-3.75-1.71c-1.11-.71-1.99-1.61-2.65-2.7-.66-1.09-.99-2.46-.99-4.13,0-1.84.37-3.42,1.12-4.77.75-1.34,1.74-2.45,2.98-3.31,1.24-.87,2.65-1.51,4.23-1.94,1.58-.42,3.2-.64,4.87-.64,1.87,0,3.6.22,5.2.66,1.6.44,2.99,1.14,4.18,2.09,1.19.95,2.14,2.15,2.86,3.6.71,1.45,1.1,3.17,1.17,5.18h-4.59Z"/>
    </g>
    <g class="uuid-f0163f49-48a2-4d75-a15d-4883967f79d9">
      <path class="uuid-f45ebbdd-fd0e-4c32-b939-92482ee45304" d="m141.91,579.56h-12.14v-3.98h29.12v3.98h-12.14v32.44h-4.84v-32.44Z"/>
      <path class="uuid-f45ebbdd-fd0e-4c32-b939-92482ee45304" d="m161.98,586.63c.73-2.3,1.83-4.33,3.29-6.09,1.46-1.77,3.28-3.18,5.46-4.23,2.18-1.05,4.71-1.58,7.6-1.58s5.42.53,7.6,1.58c2.18,1.05,3.99,2.47,5.46,4.23,1.46,1.77,2.56,3.8,3.29,6.09.73,2.29,1.1,4.68,1.1,7.17s-.37,4.87-1.1,7.17c-.73,2.29-1.83,4.33-3.29,6.09-1.46,1.77-3.28,3.18-5.46,4.23-2.18,1.05-4.71,1.58-7.6,1.58s-5.42-.53-7.6-1.58c-2.18-1.05-4-2.46-5.46-4.23-1.46-1.77-2.56-3.8-3.29-6.09-.73-2.3-1.1-4.68-1.1-7.17s.36-4.87,1.1-7.17Zm4.46,12.63c.48,1.8,1.22,3.42,2.24,4.85s2.33,2.59,3.93,3.47c1.6.87,3.5,1.31,5.71,1.31s4.11-.44,5.71-1.31,2.91-2.03,3.93-3.47,1.77-3.06,2.24-4.85c.48-1.8.71-3.62.71-5.47s-.24-3.67-.71-5.47c-.48-1.8-1.22-3.42-2.24-4.85s-2.33-2.59-3.93-3.47c-1.6-.87-3.5-1.31-5.71-1.31s-4.11.44-5.71,1.31c-1.6.87-2.91,2.03-3.93,3.47s-1.77,3.06-2.24,4.85c-.48,1.8-.71,3.62-.71,5.47s.24,3.67.71,5.47Z"/>
      <path class="uuid-f45ebbdd-fd0e-4c32-b939-92482ee45304" d="m201.63,575.59h5.15l19.18,29.53h.1v-29.53h4.59v36.41h-5.3l-19.02-29.22h-.1v29.22h-4.59v-36.41Z"/>
      <path class="uuid-f45ebbdd-fd0e-4c32-b939-92482ee45304" d="m238.5,575.59h25.14v3.98h-20.3v11.68h18.92v3.98h-18.92v12.8h20.45v3.98h-25.3v-36.41Z"/>
      <path class="uuid-f45ebbdd-fd0e-4c32-b939-92482ee45304" d="m282.9,586.63c.73-2.3,1.83-4.33,3.29-6.09,1.46-1.77,3.28-3.18,5.46-4.23,2.18-1.05,4.71-1.58,7.6-1.58s5.42.53,7.6,1.58c2.18,1.05,3.99,2.47,5.46,4.23,1.46,1.77,2.56,3.8,3.29,6.09.73,2.29,1.1,4.68,1.1,7.17s-.37,4.87-1.1,7.17c-.73,2.29-1.83,4.33-3.29,6.09-1.46,1.77-3.28,3.18-5.46,4.23-2.18,1.05-4.71,1.58-7.6,1.58s-5.42-.53-7.6-1.58c-2.18-1.05-4-2.46-5.46-4.23-1.46-1.77-2.56-3.8-3.29-6.09-.73-2.3-1.1-4.68-1.1-7.17s.36-4.87,1.1-7.17Zm4.46,12.63c.48,1.8,1.22,3.42,2.24,4.85s2.33,2.59,3.93,3.47c1.6.87,3.5,1.31,5.71,1.31s4.11-.44,5.71-1.31,2.91-2.03,3.93-3.47,1.77-3.06,2.24-4.85c.48-1.8.71-3.62.71-5.47s-.24-3.67-.71-5.47c-.48-1.8-1.22-3.42-2.24-4.85s-2.33-2.59-3.93-3.47c-1.6-.87-3.5-1.31-5.71-1.31s-4.11.44-5.71,1.31c-1.6.87-2.91,2.03-3.93,3.47s-1.77,3.06-2.24,4.85c-.48,1.8-.71,3.62-.71,5.47s.24,3.67.71,5.47Z"/>
      <path class="uuid-f45ebbdd-fd0e-4c32-b939-92482ee45304" d="m322.6,575.59h23.92v3.98h-19.07v11.68h16.73v3.98h-16.73v16.78h-4.85v-36.41Z"/>
      <path class="uuid-f45ebbdd-fd0e-4c32-b939-92482ee45304" d="m380.38,612h-5.51l-12.85-36.41h5.25l10.4,31.57h.1l10.51-31.57h5.05l-12.95,36.41Z"/>
      <path class="uuid-f45ebbdd-fd0e-4c32-b939-92482ee45304" d="m396.27,586.63c.73-2.3,1.83-4.33,3.29-6.09,1.46-1.77,3.28-3.18,5.46-4.23,2.18-1.05,4.71-1.58,7.6-1.58s5.42.53,7.6,1.58c2.18,1.05,3.99,2.47,5.46,4.23,1.46,1.77,2.56,3.8,3.29,6.09.73,2.29,1.1,4.68,1.1,7.17s-.37,4.87-1.1,7.17c-.73,2.29-1.83,4.33-3.29,6.09-1.46,1.77-3.28,3.18-5.46,4.23-2.18,1.05-4.71,1.58-7.6,1.58s-5.42-.53-7.6-1.58c-2.18-1.05-4-2.46-5.46-4.23-1.46-1.77-2.56-3.8-3.29-6.09-.73-2.3-1.1-4.68-1.1-7.17s.36-4.87,1.1-7.17Zm4.46,12.63c.48,1.8,1.22,3.42,2.24,4.85s2.33,2.59,3.93,3.47c1.6.87,3.5,1.31,5.71,1.31s4.11-.44,5.71-1.31,2.91-2.03,3.93-3.47,1.77-3.06,2.24-4.85c.48-1.8.71-3.62.71-5.47s-.24-3.67-.71-5.47c-.48-1.8-1.22-3.42-2.24-4.85s-2.33-2.59-3.93-3.47c-1.6-.87-3.5-1.31-5.71-1.31s-4.11.44-5.71,1.31c-1.6.87-2.91,2.03-3.93,3.47s-1.77,3.06-2.24,4.85c-.48,1.8-.71,3.62-.71,5.47s.24,3.67.71,5.47Z"/>
      <path class="uuid-f45ebbdd-fd0e-4c32-b939-92482ee45304" d="m436.18,575.59h4.84v36.41h-4.84v-36.41Z"/>
      <path class="uuid-f45ebbdd-fd0e-4c32-b939-92482ee45304" d="m474.78,586.55c-.27-1.31-.71-2.45-1.33-3.44-.61-.98-1.37-1.8-2.27-2.46-.9-.65-1.91-1.14-3.03-1.47-1.12-.33-2.31-.49-3.57-.49-2.18,0-4.04.41-5.58,1.23-1.55.82-2.82,1.93-3.82,3.31-1,1.39-1.74,2.97-2.22,4.75-.48,1.78-.71,3.63-.71,5.54,0,2.09.24,4.07.71,5.93.48,1.87,1.22,3.49,2.22,4.88,1,1.39,2.29,2.49,3.85,3.31,1.56.82,3.43,1.23,5.61,1.23,1.6,0,3.02-.26,4.26-.8,1.24-.53,2.31-1.27,3.21-2.21.9-.94,1.61-2.07,2.12-3.37.51-1.3.82-2.71.92-4.22h4.84c-.48,4.56-2.07,8.13-4.77,10.71s-6.37,3.88-10.99,3.88c-2.82,0-5.29-.49-7.4-1.48-2.11-.99-3.86-2.33-5.25-4.03-1.39-1.7-2.44-3.71-3.14-6.02-.7-2.31-1.05-4.79-1.05-7.45s.37-5.14,1.12-7.47c.75-2.33,1.84-4.36,3.29-6.09,1.44-1.73,3.24-3.1,5.38-4.11s4.62-1.5,7.45-1.5c1.9,0,3.71.25,5.41.77,1.7.51,3.21,1.26,4.54,2.24,1.33.99,2.43,2.22,3.32,3.7.88,1.48,1.46,3.19,1.73,5.12h-4.84Z"/>
      <path class="uuid-f45ebbdd-fd0e-4c32-b939-92482ee45304" d="m486,575.59h25.14v3.98h-20.3v11.68h18.92v3.98h-18.92v12.8h20.45v3.98h-25.3v-36.41Z"/>
    </g>
    <g class="uuid-f0163f49-48a2-4d75-a15d-4883967f79d9">
      <path class="uuid-f45ebbdd-fd0e-4c32-b939-92482ee45304" d="m190.85,640.56h-12.14v-3.98h29.12v3.98h-12.14v32.44h-4.84v-32.44Z"/>
      <path class="uuid-f45ebbdd-fd0e-4c32-b939-92482ee45304" d="m226.9,658.11v14.89h-4.84v-14.89l-14.08-21.52h5.76l10.91,17.34,10.66-17.34h5.51l-13.92,21.52Z"/>
      <path class="uuid-f45ebbdd-fd0e-4c32-b939-92482ee45304" d="m244.91,636.59h15.96c3.64,0,6.41.94,8.31,2.83,1.9,1.89,2.86,4.53,2.86,7.93s-.95,6.05-2.86,7.96c-1.9,1.91-4.68,2.84-8.31,2.81h-11.12v14.89h-4.85v-36.41Zm4.85,17.54h9.49c2.75.03,4.77-.54,6.04-1.71,1.27-1.17,1.91-2.87,1.91-5.08s-.64-3.89-1.91-5.05-3.29-1.73-6.04-1.73h-9.49v13.57Z"/>
      <path class="uuid-f45ebbdd-fd0e-4c32-b939-92482ee45304" d="m277.95,636.59h25.14v3.98h-20.3v11.68h18.92v3.98h-18.92v12.8h20.45v3.98h-25.3v-36.41Z"/>
      <path class="uuid-f45ebbdd-fd0e-4c32-b939-92482ee45304" d="m323.29,636.59h12.5c5.61,0,9.93,1.43,12.95,4.28,3.03,2.86,4.54,7.21,4.54,13.06,0,3.06-.34,5.77-1.02,8.13-.68,2.36-1.73,4.35-3.16,5.97-1.43,1.62-3.25,2.85-5.46,3.7-2.21.85-4.83,1.28-7.85,1.28h-12.5v-36.41Zm4.85,32.44h8.06c.54,0,1.22-.04,2.04-.13.82-.08,1.68-.29,2.6-.62s1.83-.8,2.73-1.41c.9-.62,1.71-1.46,2.42-2.52.71-1.06,1.3-2.39,1.76-3.98s.69-3.52.69-5.78-.21-4.15-.64-5.88c-.43-1.73-1.12-3.19-2.09-4.39-.97-1.2-2.22-2.12-3.75-2.77-1.53-.65-3.42-.98-5.66-.98h-8.16v28.46Z"/>
      <path class="uuid-f45ebbdd-fd0e-4c32-b939-92482ee45304" d="m359.2,636.59h25.14v3.98h-20.3v11.68h18.92v3.98h-18.92v12.8h20.45v3.98h-25.3v-36.41Z"/>
      <path class="uuid-f45ebbdd-fd0e-4c32-b939-92482ee45304" d="m411.42,647.24c-.27-2.65-1.22-4.58-2.83-5.76-1.62-1.19-3.68-1.78-6.2-1.78-1.02,0-2.02.1-3.01.31-.99.21-1.86.55-2.63,1.03s-1.38,1.12-1.84,1.93-.69,1.81-.69,3.01c0,1.13.33,2.05.99,2.75.66.7,1.55,1.28,2.65,1.72,1.1.45,2.35.81,3.75,1.11,1.39.29,2.82.61,4.28.95,1.46.34,2.89.74,4.28,1.2,1.39.46,2.63,1.08,3.72,1.86,1.09.78,1.96,1.78,2.63,2.98.66,1.21.99,2.7.99,4.46,0,1.94-.43,3.6-1.3,4.97-.87,1.38-1.98,2.5-3.34,3.37-1.36.87-2.88,1.5-4.56,1.91s-3.36.61-5.02.61c-2.04,0-3.97-.25-5.79-.77-1.82-.51-3.42-1.29-4.79-2.35-1.38-1.05-2.47-2.39-3.26-4-.8-1.62-1.2-3.53-1.2-5.74h4.59c0,1.55.3,2.88.89,4,.59,1.12,1.38,2.04,2.35,2.76.97.72,2.09,1.25,3.37,1.6,1.27.34,2.61.52,4,.52,1.09,0,2.18-.1,3.29-.31,1.1-.21,2.1-.56,2.98-1.05.88-.5,1.6-1.17,2.14-2.03.54-.86.82-1.95.82-3.29,0-1.27-.33-2.29-.99-3.08-.66-.79-1.54-1.43-2.63-1.93-1.09-.5-2.33-.91-3.72-1.23-1.39-.33-2.82-.64-4.28-.95-1.46-.31-2.89-.67-4.28-1.1-1.39-.42-2.64-1-3.75-1.71-1.1-.71-1.99-1.61-2.65-2.7-.66-1.09-.99-2.46-.99-4.13,0-1.84.37-3.42,1.12-4.77.75-1.34,1.74-2.45,2.98-3.31,1.24-.87,2.65-1.51,4.23-1.94,1.58-.42,3.2-.64,4.87-.64,1.87,0,3.6.22,5.2.66,1.6.44,2.99,1.14,4.18,2.09,1.19.95,2.14,2.15,2.86,3.6.71,1.45,1.1,3.17,1.17,5.18h-4.59Z"/>
      <path class="uuid-f45ebbdd-fd0e-4c32-b939-92482ee45304" d="m423.61,636.59h4.84v36.41h-4.84v-36.41Z"/>
      <path class="uuid-f45ebbdd-fd0e-4c32-b939-92482ee45304" d="m463.85,668.46c-.71.95-1.52,1.77-2.42,2.45-.9.68-1.86,1.24-2.88,1.68s-2.07.77-3.16.97c-1.09.2-2.16.31-3.21.31-2.72,0-5.15-.51-7.29-1.53-2.14-1.02-3.96-2.38-5.46-4.08-1.5-1.7-2.64-3.65-3.42-5.87-.78-2.21-1.17-4.5-1.17-6.88,0-2.65.37-5.18,1.1-7.57.73-2.4,1.82-4.5,3.26-6.3,1.44-1.8,3.25-3.24,5.41-4.31,2.16-1.07,4.68-1.61,7.57-1.61,1.97,0,3.83.23,5.58.69,1.75.46,3.31,1.18,4.69,2.17s2.53,2.24,3.47,3.75c.94,1.51,1.57,3.34,1.91,5.48h-4.85c-.24-1.38-.68-2.58-1.33-3.62-.65-1.03-1.45-1.88-2.4-2.53-.95-.65-2.03-1.15-3.24-1.47-1.21-.33-2.49-.49-3.85-.49-2.21,0-4.11.45-5.69,1.33-1.58.89-2.87,2.06-3.88,3.52-1,1.46-1.74,3.12-2.22,4.98-.48,1.87-.71,3.77-.71,5.72s.27,3.76.82,5.52c.54,1.76,1.34,3.32,2.4,4.67,1.05,1.35,2.35,2.43,3.9,3.23,1.55.8,3.34,1.21,5.38,1.21,1.87,0,3.54-.31,5.02-.93,1.48-.62,2.73-1.48,3.75-2.57,1.02-1.09,1.78-2.37,2.27-3.84.49-1.47.71-3.05.64-4.75h-11.63v-3.98h15.96v19.18h-3.06l-1.27-4.54Z"/>
      <path class="uuid-f45ebbdd-fd0e-4c32-b939-92482ee45304" d="m475.27,636.59h5.15l19.18,29.53h.1v-29.53h4.59v36.41h-5.3l-19.02-29.22h-.1v29.22h-4.59v-36.41Z"/>
    </g>
    <g class="uuid-f0163f49-48a2-4d75-a15d-4883967f79d9">
      <path class="uuid-f45ebbdd-fd0e-4c32-b939-92482ee45304" d="m213.6,697.59h15.96c3.64,0,6.41.94,8.31,2.83,1.9,1.89,2.86,4.53,2.86,7.93s-.95,6.05-2.86,7.96c-1.9,1.91-4.68,2.84-8.31,2.81h-11.12v14.89h-4.85v-36.41Zm4.85,17.54h9.49c2.75.03,4.77-.54,6.04-1.71,1.27-1.17,1.91-2.87,1.91-5.08s-.64-3.89-1.91-5.05-3.29-1.73-6.04-1.73h-9.49v13.57Z"/>
      <path class="uuid-f45ebbdd-fd0e-4c32-b939-92482ee45304" d="m252.77,697.59h5.35l14.23,36.41h-5.35l-3.98-10.96h-15.4l-4.08,10.96h-5l14.23-36.41Zm-3.62,21.47h12.34l-6.07-17.08h-.1l-6.17,17.08Z"/>
      <path class="uuid-f45ebbdd-fd0e-4c32-b939-92482ee45304" d="m301.53,708.55c-.27-1.31-.71-2.45-1.33-3.44-.61-.98-1.37-1.8-2.27-2.46-.9-.65-1.91-1.14-3.03-1.47-1.12-.33-2.31-.49-3.57-.49-2.18,0-4.04.41-5.58,1.23-1.55.82-2.82,1.93-3.82,3.31-1,1.39-1.74,2.97-2.22,4.75-.48,1.78-.71,3.63-.71,5.54,0,2.09.24,4.07.71,5.93.48,1.87,1.22,3.49,2.22,4.88,1,1.39,2.29,2.49,3.85,3.31,1.56.82,3.43,1.23,5.61,1.23,1.6,0,3.02-.26,4.26-.8,1.24-.53,2.31-1.27,3.21-2.21.9-.94,1.61-2.07,2.12-3.37.51-1.3.82-2.71.92-4.22h4.85c-.48,4.56-2.07,8.13-4.77,10.71-2.7,2.58-6.37,3.88-10.99,3.88-2.82,0-5.29-.49-7.4-1.48-2.11-.99-3.86-2.33-5.25-4.03-1.39-1.7-2.44-3.71-3.14-6.02-.7-2.31-1.05-4.79-1.05-7.45s.37-5.14,1.12-7.47c.75-2.33,1.84-4.36,3.29-6.09,1.44-1.73,3.24-3.1,5.38-4.11s4.62-1.5,7.45-1.5c1.9,0,3.71.25,5.41.77,1.7.51,3.21,1.26,4.54,2.24,1.33.99,2.43,2.22,3.31,3.7.88,1.48,1.46,3.19,1.73,5.12h-4.84Z"/>
      <path class="uuid-f45ebbdd-fd0e-4c32-b939-92482ee45304" d="m312.75,697.59h4.85v18.16l18.46-18.16h6.27l-15.35,14.69,15.96,21.73h-6.12l-13.16-18.41-6.07,5.66v12.75h-4.85v-36.41Z"/>
      <path class="uuid-f45ebbdd-fd0e-4c32-b939-92482ee45304" d="m356.66,697.59h5.35l14.23,36.41h-5.35l-3.98-10.96h-15.4l-4.08,10.96h-5l14.23-36.41Zm-3.62,21.47h12.34l-6.07-17.08h-.1l-6.17,17.08Z"/>
      <path class="uuid-f45ebbdd-fd0e-4c32-b939-92482ee45304" d="m407.04,729.46c-.71.95-1.52,1.77-2.42,2.45-.9.68-1.86,1.24-2.88,1.68s-2.07.77-3.16.97c-1.09.2-2.16.31-3.21.31-2.72,0-5.15-.51-7.29-1.53-2.14-1.02-3.96-2.38-5.46-4.08-1.5-1.7-2.64-3.65-3.42-5.87-.78-2.21-1.17-4.5-1.17-6.88,0-2.65.37-5.18,1.1-7.57.73-2.4,1.82-4.5,3.26-6.3,1.44-1.8,3.25-3.24,5.41-4.31,2.16-1.07,4.68-1.61,7.57-1.61,1.97,0,3.83.23,5.58.69,1.75.46,3.31,1.18,4.69,2.17s2.53,2.24,3.47,3.75c.94,1.51,1.57,3.34,1.91,5.48h-4.84c-.24-1.38-.68-2.58-1.33-3.62-.65-1.03-1.45-1.88-2.4-2.53-.95-.65-2.03-1.15-3.24-1.47-1.21-.33-2.49-.49-3.85-.49-2.21,0-4.11.45-5.69,1.33-1.58.89-2.87,2.06-3.88,3.52-1,1.46-1.74,3.12-2.22,4.98-.48,1.87-.71,3.77-.71,5.72s.27,3.76.82,5.52c.54,1.76,1.34,3.32,2.4,4.67,1.05,1.35,2.35,2.43,3.9,3.23,1.55.8,3.34,1.21,5.38,1.21,1.87,0,3.54-.31,5.02-.93,1.48-.62,2.73-1.48,3.75-2.57,1.02-1.09,1.78-2.37,2.27-3.84.49-1.47.71-3.05.64-4.75h-11.63v-3.98h15.96v19.18h-3.06l-1.27-4.54Z"/>
      <path class="uuid-f45ebbdd-fd0e-4c32-b939-92482ee45304" d="m418.72,697.59h4.84v36.41h-4.84v-36.41Z"/>
      <path class="uuid-f45ebbdd-fd0e-4c32-b939-92482ee45304" d="m431.67,697.59h5.15l19.18,29.53h.1v-29.53h4.59v36.41h-5.3l-19.02-29.22h-.1v29.22h-4.59v-36.41Z"/>
      <path class="uuid-f45ebbdd-fd0e-4c32-b939-92482ee45304" d="m495.78,729.46c-.71.95-1.52,1.77-2.42,2.45-.9.68-1.86,1.24-2.88,1.68-1.02.44-2.07.77-3.16.97-1.09.2-2.16.31-3.21.31-2.72,0-5.15-.51-7.29-1.53-2.14-1.02-3.96-2.38-5.46-4.08-1.5-1.7-2.63-3.65-3.42-5.87-.78-2.21-1.17-4.5-1.17-6.88,0-2.65.37-5.18,1.1-7.57.73-2.4,1.82-4.5,3.26-6.3,1.44-1.8,3.25-3.24,5.41-4.31,2.16-1.07,4.68-1.61,7.57-1.61,1.97,0,3.83.23,5.58.69,1.75.46,3.31,1.18,4.69,2.17s2.53,2.24,3.47,3.75c.94,1.51,1.57,3.34,1.91,5.48h-4.84c-.24-1.38-.68-2.58-1.33-3.62-.65-1.03-1.45-1.88-2.4-2.53-.95-.65-2.03-1.15-3.24-1.47-1.21-.33-2.49-.49-3.85-.49-2.21,0-4.11.45-5.69,1.33-1.58.89-2.87,2.06-3.88,3.52s-1.74,3.12-2.22,4.98c-.48,1.87-.71,3.77-.71,5.72s.27,3.76.82,5.52c.54,1.76,1.34,3.32,2.4,4.67s2.35,2.43,3.9,3.23c1.55.8,3.34,1.21,5.38,1.21,1.87,0,3.54-.31,5.02-.93,1.48-.62,2.73-1.48,3.75-2.57,1.02-1.09,1.78-2.37,2.27-3.84.49-1.47.71-3.05.64-4.75h-11.63v-3.98h15.96v19.18h-3.06l-1.28-4.54Z"/>
    </g>
    <g class="uuid-f0163f49-48a2-4d75-a15d-4883967f79d9">
      <path class="uuid-f45ebbdd-fd0e-4c32-b939-92482ee45304" d="m240.77,769.55c-.27-1.31-.71-2.45-1.33-3.44-.61-.98-1.37-1.8-2.27-2.46-.9-.65-1.91-1.14-3.03-1.47-1.12-.33-2.31-.49-3.57-.49-2.18,0-4.04.41-5.58,1.23-1.55.82-2.82,1.93-3.82,3.31-1,1.39-1.74,2.97-2.22,4.75-.48,1.78-.71,3.63-.71,5.54,0,2.09.24,4.07.71,5.93.48,1.87,1.22,3.49,2.22,4.88,1,1.39,2.29,2.49,3.85,3.31,1.56.82,3.43,1.23,5.61,1.23,1.6,0,3.02-.26,4.26-.8,1.24-.53,2.31-1.27,3.21-2.21.9-.94,1.61-2.07,2.12-3.37.51-1.3.82-2.71.92-4.22h4.85c-.48,4.56-2.07,8.13-4.77,10.71-2.7,2.58-6.37,3.88-10.99,3.88-2.82,0-5.29-.49-7.4-1.48-2.11-.99-3.86-2.33-5.25-4.03-1.39-1.7-2.44-3.71-3.14-6.02-.7-2.31-1.05-4.79-1.05-7.45s.37-5.14,1.12-7.47c.75-2.33,1.84-4.36,3.29-6.09,1.44-1.73,3.24-3.1,5.38-4.11s4.62-1.5,7.45-1.5c1.9,0,3.71.25,5.41.77,1.7.51,3.21,1.26,4.54,2.24,1.33.99,2.43,2.22,3.31,3.7.88,1.48,1.46,3.19,1.73,5.12h-4.84Z"/>
      <path class="uuid-f45ebbdd-fd0e-4c32-b939-92482ee45304" d="m261.88,758.59h5.35l14.23,36.41h-5.35l-3.98-10.96h-15.4l-4.08,10.96h-5l14.23-36.41Zm-3.62,21.47h12.34l-6.07-17.08h-.1l-6.17,17.08Z"/>
      <path class="uuid-f45ebbdd-fd0e-4c32-b939-92482ee45304" d="m285.14,758.59h6.63l11.48,30.6,11.53-30.6h6.63v36.41h-4.59v-30.29h-.1l-11.37,30.29h-4.13l-11.37-30.29h-.1v30.29h-4.59v-36.41Z"/>
      <path class="uuid-f45ebbdd-fd0e-4c32-b939-92482ee45304" d="m329.46,758.59h15.96c3.64,0,6.41.94,8.31,2.83,1.9,1.89,2.86,4.53,2.86,7.93s-.95,6.05-2.86,7.96c-1.9,1.91-4.68,2.84-8.31,2.81h-11.12v14.89h-4.85v-36.41Zm4.85,17.54h9.49c2.75.03,4.77-.54,6.04-1.71,1.27-1.17,1.91-2.87,1.91-5.08s-.64-3.89-1.91-5.05-3.29-1.73-6.04-1.73h-9.49v13.57Z"/>
      <path class="uuid-f45ebbdd-fd0e-4c32-b939-92482ee45304" d="m368.62,758.59h5.35l14.23,36.41h-5.35l-3.98-10.96h-15.4l-4.08,10.96h-5l14.23-36.41Zm-3.62,21.47h12.34l-6.07-17.08h-.1l-6.17,17.08Z"/>
      <path class="uuid-f45ebbdd-fd0e-4c32-b939-92482ee45304" d="m391.98,758.59h4.84v36.41h-4.84v-36.41Z"/>
      <path class="uuid-f45ebbdd-fd0e-4c32-b939-92482ee45304" d="m432.22,790.46c-.71.95-1.52,1.77-2.42,2.45-.9.68-1.86,1.24-2.88,1.68s-2.07.77-3.16.97c-1.09.2-2.16.31-3.21.31-2.72,0-5.15-.51-7.29-1.53-2.14-1.02-3.96-2.38-5.46-4.08-1.5-1.7-2.64-3.65-3.42-5.87-.78-2.21-1.17-4.5-1.17-6.88,0-2.65.37-5.18,1.1-7.57.73-2.4,1.82-4.5,3.26-6.3,1.44-1.8,3.25-3.24,5.41-4.31,2.16-1.07,4.68-1.61,7.57-1.61,1.97,0,3.83.23,5.58.69,1.75.46,3.31,1.18,4.69,2.17s2.53,2.24,3.47,3.75c.94,1.51,1.57,3.34,1.91,5.48h-4.84c-.24-1.38-.68-2.58-1.33-3.62-.65-1.03-1.45-1.88-2.4-2.53-.95-.65-2.03-1.15-3.24-1.47-1.21-.33-2.49-.49-3.85-.49-2.21,0-4.11.45-5.69,1.33-1.58.89-2.87,2.06-3.88,3.52-1,1.46-1.74,3.12-2.22,4.98-.48,1.87-.71,3.77-.71,5.72s.27,3.76.82,5.52c.54,1.76,1.34,3.32,2.4,4.67,1.05,1.35,2.35,2.43,3.9,3.23,1.55.8,3.34,1.21,5.38,1.21,1.87,0,3.54-.31,5.02-.93,1.48-.62,2.73-1.48,3.75-2.57,1.02-1.09,1.78-2.37,2.27-3.84.49-1.47.71-3.05.64-4.75h-11.63v-3.98h15.96v19.18h-3.06l-1.27-4.54Z"/>
      <path class="uuid-f45ebbdd-fd0e-4c32-b939-92482ee45304" d="m443.64,758.59h5.15l19.18,29.53h.1v-29.53h4.59v36.41h-5.3l-19.02-29.22h-.1v29.22h-4.59v-36.41Z"/>
      <path class="uuid-f45ebbdd-fd0e-4c32-b939-92482ee45304" d="m501.58,769.24c-.27-2.65-1.22-4.58-2.83-5.76-1.62-1.19-3.68-1.78-6.2-1.78-1.02,0-2.02.1-3.01.31-.99.21-1.86.55-2.63,1.03-.76.48-1.38,1.12-1.84,1.93s-.69,1.81-.69,3.01c0,1.13.33,2.05,1,2.75.66.7,1.55,1.28,2.65,1.72,1.1.45,2.35.81,3.75,1.11,1.39.29,2.82.61,4.28.95,1.46.34,2.89.74,4.28,1.2s2.63,1.08,3.72,1.86c1.09.78,1.96,1.78,2.63,2.98.66,1.21,1,2.7,1,4.46,0,1.94-.43,3.6-1.3,4.97s-1.98,2.5-3.34,3.37c-1.36.87-2.88,1.5-4.56,1.91-1.68.41-3.36.61-5.02.61-2.04,0-3.97-.25-5.79-.77-1.82-.51-3.42-1.29-4.79-2.35-1.38-1.05-2.47-2.39-3.26-4s-1.2-3.53-1.2-5.74h4.59c0,1.55.3,2.88.89,4s1.38,2.04,2.35,2.76c.97.72,2.09,1.25,3.37,1.6,1.28.34,2.61.52,4,.52,1.09,0,2.18-.1,3.29-.31,1.1-.21,2.1-.56,2.98-1.05s1.6-1.17,2.14-2.03c.54-.86.82-1.95.82-3.29,0-1.27-.33-2.29-.99-3.08-.66-.79-1.54-1.43-2.63-1.93s-2.33-.91-3.72-1.23c-1.39-.33-2.82-.64-4.28-.95-1.46-.31-2.89-.67-4.28-1.1s-2.64-1-3.75-1.71c-1.11-.71-1.99-1.61-2.65-2.7-.66-1.09-.99-2.46-.99-4.13,0-1.84.37-3.42,1.12-4.77.75-1.34,1.74-2.45,2.98-3.31,1.24-.87,2.65-1.51,4.23-1.94,1.58-.42,3.2-.64,4.87-.64,1.87,0,3.6.22,5.2.66,1.6.44,2.99,1.14,4.18,2.09,1.19.95,2.14,2.15,2.86,3.6.71,1.45,1.1,3.17,1.17,5.18h-4.59Z"/>
    </g>
    <g class="uuid-f0163f49-48a2-4d75-a15d-4883967f79d9">
      <path class="uuid-f45ebbdd-fd0e-4c32-b939-92482ee45304" d="m195.84,819.59h13.21c.82,0,1.67,0,2.55.03.88.02,1.76.07,2.63.15.87.08,1.69.21,2.47.38.78.17,1.44.42,1.99.76,1.19.71,2.2,1.71,3.03,2.98.83,1.27,1.25,2.81,1.25,4.61,0,1.93-.48,3.6-1.43,5.01-.95,1.41-2.28,2.45-3.98,3.13v.1c2.24.48,3.96,1.5,5.15,3.07,1.19,1.57,1.79,3.47,1.79,5.72,0,1.33-.24,2.62-.71,3.88-.48,1.26-1.18,2.38-2.12,3.35-.94.97-2.09,1.75-3.47,2.35-1.38.6-2.97.89-4.77.89h-17.6v-36.41Zm4.85,15.66h9.69c2.75,0,4.73-.49,5.94-1.47,1.21-.98,1.81-2.44,1.81-4.4,0-1.27-.2-2.29-.61-3.06-.41-.77-.97-1.36-1.68-1.77s-1.54-.68-2.47-.8c-.94-.12-1.93-.18-2.98-.18h-9.69v11.68Zm0,16.78h12.14c2.11,0,3.77-.6,5-1.79,1.22-1.19,1.84-2.81,1.84-4.85,0-1.21-.22-2.21-.66-3.01-.44-.79-1.03-1.42-1.76-1.89-.73-.47-1.57-.79-2.52-.98-.95-.19-1.94-.29-2.96-.29h-11.07v12.8Z"/>
      <path class="uuid-f45ebbdd-fd0e-4c32-b939-92482ee45304" d="m230.98,819.59h4.84v36.41h-4.84v-36.41Z"/>
      <path class="uuid-f45ebbdd-fd0e-4c32-b939-92482ee45304" d="m243.99,819.59h4.84v32.44h19.28v3.98h-24.12v-36.41Z"/>
      <path class="uuid-f45ebbdd-fd0e-4c32-b939-92482ee45304" d="m272.34,819.59h4.85v32.44h19.28v3.98h-24.12v-36.41Z"/>
      <path class="uuid-f45ebbdd-fd0e-4c32-b939-92482ee45304" d="m300.7,819.59h13.21c.82,0,1.67,0,2.55.03.88.02,1.76.07,2.63.15.87.08,1.69.21,2.47.38s1.45.42,1.99.76c1.19.71,2.2,1.71,3.03,2.98.83,1.27,1.25,2.81,1.25,4.61,0,1.93-.48,3.6-1.43,5.01-.95,1.41-2.28,2.45-3.98,3.13v.1c2.24.48,3.96,1.5,5.15,3.07,1.19,1.57,1.79,3.47,1.79,5.72,0,1.33-.24,2.62-.71,3.88-.48,1.26-1.18,2.38-2.12,3.35-.94.97-2.09,1.75-3.47,2.35-1.38.6-2.97.89-4.77.89h-17.59v-36.41Zm4.84,15.66h9.69c2.75,0,4.73-.49,5.94-1.47,1.21-.98,1.81-2.44,1.81-4.4,0-1.27-.2-2.29-.61-3.06-.41-.77-.97-1.36-1.68-1.77-.71-.41-1.54-.68-2.47-.8-.94-.12-1.93-.18-2.98-.18h-9.69v11.68Zm0,16.78h12.14c2.11,0,3.77-.6,5-1.79,1.22-1.19,1.84-2.81,1.84-4.85,0-1.21-.22-2.21-.66-3.01-.44-.79-1.03-1.42-1.76-1.89-.73-.47-1.57-.79-2.52-.98-.95-.19-1.94-.29-2.96-.29h-11.07v12.8Z"/>
      <path class="uuid-f45ebbdd-fd0e-4c32-b939-92482ee45304" d="m334.69,830.63c.73-2.3,1.83-4.33,3.29-6.09,1.46-1.77,3.28-3.18,5.46-4.23,2.18-1.05,4.71-1.58,7.6-1.58s5.42.53,7.6,1.58c2.18,1.05,4,2.47,5.46,4.23s2.56,3.8,3.29,6.09c.73,2.29,1.1,4.68,1.1,7.17s-.37,4.87-1.1,7.17c-.73,2.29-1.83,4.33-3.29,6.09-1.46,1.77-3.28,3.18-5.46,4.23s-4.71,1.58-7.6,1.58-5.42-.53-7.6-1.58-4-2.46-5.46-4.23c-1.46-1.77-2.56-3.8-3.29-6.09-.73-2.3-1.1-4.68-1.1-7.17s.37-4.87,1.1-7.17Zm4.46,12.63c.48,1.8,1.22,3.42,2.24,4.85,1.02,1.44,2.33,2.59,3.93,3.47,1.6.87,3.5,1.31,5.71,1.31s4.11-.44,5.71-1.31c1.6-.87,2.91-2.03,3.93-3.47,1.02-1.44,1.77-3.06,2.24-4.85.48-1.8.71-3.62.71-5.47s-.24-3.67-.71-5.47c-.48-1.8-1.22-3.42-2.24-4.85-1.02-1.44-2.33-2.59-3.93-3.47-1.6-.87-3.5-1.31-5.71-1.31s-4.11.44-5.71,1.31c-1.6.87-2.91,2.03-3.93,3.47-1.02,1.44-1.77,3.06-2.24,4.85-.48,1.8-.71,3.62-.71,5.47s.24,3.67.71,5.47Z"/>
      <path class="uuid-f45ebbdd-fd0e-4c32-b939-92482ee45304" d="m384.29,819.59h5.35l14.23,36.41h-5.36l-3.98-10.96h-15.4l-4.08,10.96h-5l14.23-36.41Zm-3.62,21.47h12.34l-6.07-17.08h-.1l-6.17,17.08Z"/>
      <path class="uuid-f45ebbdd-fd0e-4c32-b939-92482ee45304" d="m407.44,819.59h17.14c3.43,0,6.14.86,8.11,2.58,1.97,1.72,2.96,4.05,2.96,6.98,0,2.22-.5,4.16-1.5,5.83s-2.61,2.81-4.82,3.43v.1c1.05.2,1.91.54,2.58,1.02.66.47,1.2,1.04,1.61,1.7.41.66.7,1.4.87,2.21.17.81.31,1.66.41,2.54.07.88.13,1.79.18,2.72s.14,1.83.25,2.7c.12.86.31,1.69.56,2.49s.64,1.5,1.15,2.11h-5.41c-.34-.37-.57-.88-.69-1.53-.12-.65-.2-1.37-.23-2.17-.03-.8-.07-1.66-.1-2.58s-.14-1.82-.31-2.7c-.14-.88-.31-1.73-.51-2.53-.2-.8-.53-1.5-.97-2.09-.44-.59-1.03-1.07-1.76-1.43-.73-.36-1.67-.54-2.83-.54h-11.83v15.55h-4.85v-36.41Zm14.94,16.88c1.12,0,2.19-.09,3.21-.26,1.02-.17,1.91-.51,2.68-1.01.76-.5,1.38-1.17,1.84-2.02s.69-1.94.69-3.29c0-1.83-.51-3.34-1.53-4.53-1.02-1.19-2.67-1.79-4.95-1.79h-12.04v12.9h10.1Z"/>
      <path class="uuid-f45ebbdd-fd0e-4c32-b939-92482ee45304" d="m442.38,819.59h12.5c5.61,0,9.93,1.43,12.95,4.28,3.03,2.86,4.54,7.21,4.54,13.06,0,3.06-.34,5.77-1.02,8.13-.68,2.36-1.73,4.35-3.16,5.97-1.43,1.62-3.25,2.85-5.46,3.7-2.21.85-4.83,1.28-7.85,1.28h-12.5v-36.41Zm4.85,32.44h8.06c.54,0,1.22-.04,2.04-.13.82-.08,1.68-.29,2.6-.62s1.83-.8,2.73-1.41c.9-.62,1.71-1.46,2.42-2.52s1.3-2.39,1.76-3.98.69-3.52.69-5.78-.21-4.15-.64-5.88c-.43-1.73-1.12-3.19-2.09-4.39-.97-1.2-2.22-2.12-3.75-2.77-1.53-.65-3.42-.98-5.66-.98h-8.16v28.46Z"/>
      <path class="uuid-f45ebbdd-fd0e-4c32-b939-92482ee45304" d="m499.34,830.24c-.27-2.65-1.22-4.58-2.83-5.76-1.62-1.19-3.68-1.78-6.2-1.78-1.02,0-2.02.1-3.01.31-.99.21-1.86.55-2.63,1.03-.77.48-1.38,1.12-1.84,1.93s-.69,1.81-.69,3.01c0,1.13.33,2.05.99,2.75.66.7,1.55,1.28,2.65,1.72,1.1.45,2.35.81,3.75,1.11,1.39.29,2.82.61,4.28.95s2.89.74,4.28,1.2c1.39.46,2.63,1.08,3.72,1.86,1.09.78,1.96,1.78,2.63,2.98.66,1.21.99,2.7.99,4.46,0,1.94-.43,3.6-1.3,4.97-.87,1.38-1.98,2.5-3.34,3.37-1.36.87-2.88,1.5-4.56,1.91-1.68.41-3.36.61-5.02.61-2.04,0-3.97-.25-5.79-.77-1.82-.51-3.42-1.29-4.79-2.35-1.38-1.05-2.47-2.39-3.26-4-.8-1.62-1.2-3.53-1.2-5.74h4.59c0,1.55.3,2.88.89,4,.59,1.12,1.38,2.04,2.35,2.76.97.72,2.09,1.25,3.37,1.6,1.27.34,2.61.52,4,.52,1.09,0,2.18-.1,3.29-.31,1.1-.21,2.1-.56,2.98-1.05.88-.5,1.6-1.17,2.14-2.03.54-.86.82-1.95.82-3.29,0-1.27-.33-2.29-1-3.08-.66-.79-1.54-1.43-2.63-1.93-1.09-.5-2.33-.91-3.72-1.23-1.39-.33-2.82-.64-4.28-.95-1.46-.31-2.89-.67-4.28-1.1-1.39-.42-2.64-1-3.75-1.71s-1.99-1.61-2.65-2.7c-.66-1.09-1-2.46-1-4.13,0-1.84.37-3.42,1.12-4.77.75-1.34,1.74-2.45,2.98-3.31,1.24-.87,2.65-1.51,4.23-1.94,1.58-.42,3.2-.64,4.87-.64,1.87,0,3.6.22,5.2.66,1.6.44,2.99,1.14,4.18,2.09,1.19.95,2.14,2.15,2.86,3.6.71,1.45,1.1,3.17,1.17,5.18h-4.59Z"/>
    </g>
    <g class="uuid-f0163f49-48a2-4d75-a15d-4883967f79d9">
      <path class="uuid-f45ebbdd-fd0e-4c32-b939-92482ee45304" d="m242,912.46c-.71.95-1.52,1.77-2.42,2.45-.9.68-1.86,1.24-2.88,1.68s-2.07.77-3.16.97c-1.09.2-2.16.31-3.21.31-2.72,0-5.15-.51-7.29-1.53-2.14-1.02-3.96-2.38-5.46-4.08-1.5-1.7-2.64-3.65-3.42-5.87-.78-2.21-1.17-4.5-1.17-6.88,0-2.65.37-5.18,1.1-7.57.73-2.4,1.82-4.5,3.26-6.3,1.44-1.8,3.25-3.24,5.41-4.31,2.16-1.07,4.68-1.61,7.57-1.61,1.97,0,3.83.23,5.58.69,1.75.46,3.31,1.18,4.69,2.17s2.53,2.24,3.47,3.75c.94,1.51,1.57,3.34,1.91,5.48h-4.84c-.24-1.38-.68-2.58-1.33-3.62-.65-1.03-1.45-1.88-2.4-2.53-.95-.65-2.03-1.15-3.24-1.47-1.21-.33-2.49-.49-3.85-.49-2.21,0-4.11.45-5.69,1.33-1.58.89-2.87,2.06-3.88,3.52-1,1.46-1.74,3.12-2.22,4.98-.48,1.87-.71,3.77-.71,5.72s.27,3.76.82,5.52c.54,1.76,1.34,3.32,2.4,4.67,1.05,1.35,2.35,2.43,3.9,3.23,1.55.8,3.34,1.21,5.38,1.21,1.87,0,3.54-.31,5.02-.93,1.48-.62,2.73-1.48,3.75-2.57,1.02-1.09,1.78-2.37,2.27-3.84.49-1.47.71-3.05.64-4.75h-11.63v-3.98h15.96v19.18h-3.06l-1.27-4.54Z"/>
      <path class="uuid-f45ebbdd-fd0e-4c32-b939-92482ee45304" d="m282.54,903.84c0,4.62-1.25,8.12-3.75,10.48-2.5,2.36-6.03,3.54-10.58,3.54-2.35,0-4.45-.27-6.3-.82-1.85-.54-3.42-1.39-4.69-2.55-1.27-1.16-2.25-2.62-2.93-4.39-.68-1.77-1.02-3.86-1.02-6.27v-23.26h4.85v23.33c0,3.24.88,5.71,2.63,7.42,1.75,1.71,4.24,2.56,7.47,2.56s5.45-.85,7.06-2.56c1.61-1.71,2.42-4.18,2.42-7.42v-23.33h4.84v23.26Z"/>
      <path class="uuid-f45ebbdd-fd0e-4c32-b939-92482ee45304" d="m290.5,880.59h4.84v36.41h-4.84v-36.41Z"/>
      <path class="uuid-f45ebbdd-fd0e-4c32-b939-92482ee45304" d="m303.5,880.59h12.5c5.61,0,9.93,1.43,12.95,4.28,3.03,2.86,4.54,7.21,4.54,13.06,0,3.06-.34,5.77-1.02,8.13-.68,2.36-1.73,4.35-3.16,5.97-1.43,1.62-3.25,2.85-5.46,3.7-2.21.85-4.83,1.28-7.85,1.28h-12.5v-36.41Zm4.85,32.44h8.06c.54,0,1.22-.04,2.04-.13.82-.08,1.68-.29,2.6-.62s1.83-.8,2.73-1.41c.9-.62,1.71-1.46,2.42-2.52.71-1.06,1.3-2.39,1.76-3.98s.69-3.52.69-5.78-.21-4.15-.64-5.88c-.43-1.73-1.12-3.19-2.09-4.39-.97-1.2-2.22-2.12-3.75-2.77-1.53-.65-3.42-.98-5.66-.98h-8.16v28.46Z"/>
      <path class="uuid-f45ebbdd-fd0e-4c32-b939-92482ee45304" d="m339.41,880.59h25.14v3.98h-20.3v11.68h18.92v3.98h-18.92v12.8h20.45v3.98h-25.3v-36.41Z"/>
      <path class="uuid-f45ebbdd-fd0e-4c32-b939-92482ee45304" d="m370.57,880.59h4.85v32.44h19.28v3.98h-24.12v-36.41Z"/>
      <path class="uuid-f45ebbdd-fd0e-4c32-b939-92482ee45304" d="m399.13,880.59h4.84v36.41h-4.84v-36.41Z"/>
      <path class="uuid-f45ebbdd-fd0e-4c32-b939-92482ee45304" d="m412.08,880.59h5.15l19.18,29.53h.1v-29.53h4.59v36.41h-5.3l-19.02-29.22h-.1v29.22h-4.59v-36.41Z"/>
      <path class="uuid-f45ebbdd-fd0e-4c32-b939-92482ee45304" d="m448.95,880.59h25.14v3.98h-20.3v11.68h18.92v3.98h-18.92v12.8h20.45v3.98h-25.3v-36.41Z"/>
      <path class="uuid-f45ebbdd-fd0e-4c32-b939-92482ee45304" d="m501.18,891.24c-.27-2.65-1.22-4.58-2.83-5.76-1.62-1.19-3.68-1.78-6.2-1.78-1.02,0-2.02.1-3.01.31-.99.21-1.86.55-2.63,1.03-.76.48-1.38,1.12-1.84,1.93s-.69,1.81-.69,3.01c0,1.13.33,2.05,1,2.75.66.7,1.55,1.28,2.65,1.72,1.1.45,2.35.81,3.75,1.11,1.39.29,2.82.61,4.28.95,1.46.34,2.89.74,4.28,1.2s2.63,1.08,3.72,1.86c1.09.78,1.96,1.78,2.63,2.98.66,1.21,1,2.7,1,4.46,0,1.94-.43,3.6-1.3,4.97s-1.98,2.5-3.34,3.37c-1.36.87-2.88,1.5-4.56,1.91-1.68.41-3.36.61-5.02.61-2.04,0-3.97-.25-5.79-.77-1.82-.51-3.42-1.29-4.79-2.35-1.38-1.05-2.47-2.39-3.26-4s-1.2-3.53-1.2-5.74h4.59c0,1.55.3,2.88.89,4s1.38,2.04,2.35,2.76c.97.72,2.09,1.25,3.37,1.6,1.28.34,2.61.52,4,.52,1.09,0,2.18-.1,3.29-.31,1.1-.21,2.1-.56,2.98-1.05s1.6-1.17,2.14-2.03c.54-.86.82-1.95.82-3.29,0-1.27-.33-2.29-.99-3.08-.66-.79-1.54-1.43-2.63-1.93s-2.33-.91-3.72-1.23c-1.39-.33-2.82-.64-4.28-.95-1.46-.31-2.89-.67-4.28-1.1s-2.64-1-3.75-1.71c-1.11-.71-1.99-1.61-2.65-2.7-.66-1.09-.99-2.46-.99-4.13,0-1.84.37-3.42,1.12-4.77.75-1.34,1.74-2.45,2.98-3.31,1.24-.87,2.65-1.51,4.23-1.94,1.58-.42,3.2-.64,4.87-.64,1.87,0,3.6.22,5.2.66,1.6.44,2.99,1.14,4.18,2.09,1.19.95,2.14,2.15,2.86,3.6.71,1.45,1.1,3.17,1.17,5.18h-4.59Z"/>
    </g>
    <g class="uuid-f0163f49-48a2-4d75-a15d-4883967f79d9">
      <path class="uuid-f45ebbdd-fd0e-4c32-b939-92482ee45304" d="m118.69,941.59h15.96c3.64,0,6.41.94,8.31,2.83,1.9,1.89,2.86,4.53,2.86,7.93s-.95,6.05-2.86,7.96c-1.9,1.91-4.68,2.84-8.31,2.81h-11.12v14.89h-4.85v-36.41Zm4.85,17.54h9.49c2.75.03,4.77-.54,6.04-1.71,1.27-1.17,1.91-2.87,1.91-5.08s-.64-3.89-1.91-5.05-3.29-1.73-6.04-1.73h-9.49v13.57Z"/>
      <path class="uuid-f45ebbdd-fd0e-4c32-b939-92482ee45304" d="m151.74,941.59h4.85v15.66h19.18v-15.66h4.85v36.41h-4.85v-16.78h-19.18v16.78h-4.85v-36.41Z"/>
      <path class="uuid-f45ebbdd-fd0e-4c32-b939-92482ee45304" d="m187.62,952.63c.73-2.3,1.83-4.33,3.29-6.09,1.46-1.77,3.28-3.18,5.46-4.23,2.18-1.05,4.71-1.58,7.6-1.58s5.42.53,7.6,1.58c2.18,1.05,3.99,2.47,5.46,4.23,1.46,1.77,2.56,3.8,3.29,6.09.73,2.29,1.1,4.68,1.1,7.17s-.37,4.87-1.1,7.17c-.73,2.29-1.83,4.33-3.29,6.09-1.46,1.77-3.28,3.18-5.46,4.23-2.18,1.05-4.71,1.58-7.6,1.58s-5.42-.53-7.6-1.58c-2.18-1.05-4-2.46-5.46-4.23-1.46-1.77-2.56-3.8-3.29-6.09-.73-2.3-1.1-4.68-1.1-7.17s.36-4.87,1.1-7.17Zm4.46,12.63c.48,1.8,1.22,3.42,2.24,4.85s2.33,2.59,3.93,3.47c1.6.87,3.5,1.31,5.71,1.31s4.11-.44,5.71-1.31,2.91-2.03,3.93-3.47,1.77-3.06,2.24-4.85c.48-1.8.71-3.62.71-5.47s-.24-3.67-.71-5.47c-.48-1.8-1.22-3.42-2.24-4.85s-2.33-2.59-3.93-3.47c-1.6-.87-3.5-1.31-5.71-1.31s-4.11.44-5.71,1.31c-1.6.87-2.91,2.03-3.93,3.47s-1.77,3.06-2.24,4.85c-.48,1.8-.71,3.62-.71,5.47s.24,3.67.71,5.47Z"/>
      <path class="uuid-f45ebbdd-fd0e-4c32-b939-92482ee45304" d="m235.59,945.56h-12.14v-3.98h29.12v3.98h-12.14v32.44h-4.84v-32.44Z"/>
      <path class="uuid-f45ebbdd-fd0e-4c32-b939-92482ee45304" d="m255.65,952.63c.73-2.3,1.83-4.33,3.29-6.09,1.46-1.77,3.28-3.18,5.46-4.23,2.18-1.05,4.71-1.58,7.6-1.58s5.42.53,7.6,1.58c2.18,1.05,3.99,2.47,5.46,4.23,1.46,1.77,2.56,3.8,3.29,6.09.73,2.29,1.1,4.68,1.1,7.17s-.37,4.87-1.1,7.17c-.73,2.29-1.83,4.33-3.29,6.09-1.46,1.77-3.28,3.18-5.46,4.23-2.18,1.05-4.71,1.58-7.6,1.58s-5.42-.53-7.6-1.58c-2.18-1.05-4-2.46-5.46-4.23-1.46-1.77-2.56-3.8-3.29-6.09-.73-2.3-1.1-4.68-1.1-7.17s.36-4.87,1.1-7.17Zm4.46,12.63c.48,1.8,1.22,3.42,2.24,4.85s2.33,2.59,3.93,3.47c1.6.87,3.5,1.31,5.71,1.31s4.11-.44,5.71-1.31,2.91-2.03,3.93-3.47,1.77-3.06,2.24-4.85c.48-1.8.71-3.62.71-5.47s-.24-3.67-.71-5.47c-.48-1.8-1.22-3.42-2.24-4.85s-2.33-2.59-3.93-3.47c-1.6-.87-3.5-1.31-5.71-1.31s-4.11.44-5.71,1.31c-1.6.87-2.91,2.03-3.93,3.47s-1.77,3.06-2.24,4.85c-.48,1.8-.71,3.62-.71,5.47s.24,3.67.71,5.47Z"/>
      <path class="uuid-f45ebbdd-fd0e-4c32-b939-92482ee45304" d="m322.59,973.46c-.71.95-1.52,1.77-2.42,2.45-.9.68-1.86,1.24-2.88,1.68s-2.07.77-3.16.97c-1.09.2-2.16.31-3.21.31-2.72,0-5.15-.51-7.29-1.53-2.14-1.02-3.96-2.38-5.46-4.08-1.5-1.7-2.64-3.65-3.42-5.87-.78-2.21-1.17-4.5-1.17-6.88,0-2.65.37-5.18,1.1-7.57.73-2.4,1.82-4.5,3.26-6.3,1.44-1.8,3.25-3.24,5.41-4.31,2.16-1.07,4.68-1.61,7.57-1.61,1.97,0,3.83.23,5.58.69,1.75.46,3.31,1.18,4.69,2.17s2.53,2.24,3.47,3.75c.94,1.51,1.57,3.34,1.91,5.48h-4.84c-.24-1.38-.68-2.58-1.33-3.62-.65-1.03-1.45-1.88-2.4-2.53-.95-.65-2.03-1.15-3.24-1.47-1.21-.33-2.49-.49-3.85-.49-2.21,0-4.11.45-5.69,1.33-1.58.89-2.87,2.06-3.88,3.52-1,1.46-1.74,3.12-2.22,4.98-.48,1.87-.71,3.77-.71,5.72s.27,3.76.82,5.52c.54,1.76,1.34,3.32,2.4,4.67,1.05,1.35,2.35,2.43,3.9,3.23,1.55.8,3.34,1.21,5.38,1.21,1.87,0,3.54-.31,5.02-.93,1.48-.62,2.73-1.48,3.75-2.57,1.02-1.09,1.78-2.37,2.27-3.84.49-1.47.71-3.05.64-4.75h-11.63v-3.98h15.96v19.18h-3.06l-1.27-4.54Z"/>
      <path class="uuid-f45ebbdd-fd0e-4c32-b939-92482ee45304" d="m334.07,941.59h17.14c3.43,0,6.14.86,8.11,2.58,1.97,1.72,2.96,4.05,2.96,6.98,0,2.22-.5,4.16-1.5,5.83s-2.61,2.81-4.82,3.43v.1c1.05.2,1.91.54,2.58,1.02.66.47,1.2,1.04,1.61,1.7.41.66.7,1.4.87,2.21.17.81.31,1.66.41,2.54.07.88.13,1.79.18,2.72.05.93.14,1.83.25,2.7.12.86.31,1.69.56,2.49s.64,1.5,1.15,2.11h-5.41c-.34-.37-.57-.88-.69-1.53-.12-.65-.2-1.37-.23-2.17-.03-.8-.07-1.66-.1-2.58-.03-.92-.14-1.82-.31-2.7-.14-.88-.31-1.73-.51-2.53-.2-.8-.53-1.5-.97-2.09-.44-.59-1.03-1.07-1.76-1.43-.73-.36-1.67-.54-2.83-.54h-11.83v15.55h-4.85v-36.41Zm14.94,16.88c1.12,0,2.19-.09,3.21-.26,1.02-.17,1.91-.51,2.68-1.01.77-.5,1.38-1.17,1.84-2.02s.69-1.94.69-3.29c0-1.83-.51-3.34-1.53-4.53-1.02-1.19-2.67-1.79-4.95-1.79h-12.04v12.9h10.1Z"/>
      <path class="uuid-f45ebbdd-fd0e-4c32-b939-92482ee45304" d="m378.89,941.59h5.35l14.23,36.41h-5.35l-3.98-10.96h-15.4l-4.08,10.96h-5l14.23-36.41Zm-3.62,21.47h12.34l-6.07-17.08h-.1l-6.17,17.08Z"/>
      <path class="uuid-f45ebbdd-fd0e-4c32-b939-92482ee45304" d="m402.05,941.59h15.96c3.64,0,6.41.94,8.31,2.83,1.9,1.89,2.86,4.53,2.86,7.93s-.95,6.05-2.86,7.96c-1.9,1.91-4.68,2.84-8.31,2.81h-11.12v14.89h-4.85v-36.41Zm4.85,17.54h9.49c2.75.03,4.77-.54,6.04-1.71,1.27-1.17,1.91-2.87,1.91-5.08s-.64-3.89-1.91-5.05-3.29-1.73-6.04-1.73h-9.49v13.57Z"/>
      <path class="uuid-f45ebbdd-fd0e-4c32-b939-92482ee45304" d="m435.1,941.59h4.85v15.66h19.18v-15.66h4.85v36.41h-4.85v-16.78h-19.18v16.78h-4.85v-36.41Z"/>
      <path class="uuid-f45ebbdd-fd0e-4c32-b939-92482ee45304" d="m486.96,963.11v14.89h-4.84v-14.89l-14.08-21.52h5.76l10.91,17.34,10.66-17.34h5.51l-13.92,21.52Z"/>
    </g>
    <g class="uuid-f0163f49-48a2-4d75-a15d-4883967f79d9">
      <path class="uuid-f45ebbdd-fd0e-4c32-b939-92482ee45304" d="m246.43,1002.59h5.35l14.23,36.41h-5.35l-3.98-10.96h-15.4l-4.08,10.96h-5l14.23-36.41Zm-3.62,21.47h12.34l-6.07-17.08h-.1l-6.17,17.08Z"/>
      <path class="uuid-f45ebbdd-fd0e-4c32-b939-92482ee45304" d="m269.53,1002.59h5.15l19.18,29.53h.1v-29.53h4.59v36.41h-5.3l-19.02-29.22h-.1v29.22h-4.59v-36.41Z"/>
      <path class="uuid-f45ebbdd-fd0e-4c32-b939-92482ee45304" d="m306.61,1002.59h4.84v36.41h-4.84v-36.41Z"/>
      <path class="uuid-f45ebbdd-fd0e-4c32-b939-92482ee45304" d="m319.72,1002.59h6.63l11.48,30.6,11.53-30.6h6.63v36.41h-4.59v-30.29h-.1l-11.37,30.29h-4.13l-11.37-30.29h-.1v30.29h-4.59v-36.41Z"/>
      <path class="uuid-f45ebbdd-fd0e-4c32-b939-92482ee45304" d="m373.93,1002.59h5.35l14.23,36.41h-5.35l-3.98-10.96h-15.4l-4.08,10.96h-5l14.23-36.41Zm-3.62,21.47h12.34l-6.07-17.08h-.1l-6.17,17.08Z"/>
      <path class="uuid-f45ebbdd-fd0e-4c32-b939-92482ee45304" d="m400.65,1006.56h-12.14v-3.98h29.12v3.98h-12.14v32.44h-4.84v-32.44Z"/>
      <path class="uuid-f45ebbdd-fd0e-4c32-b939-92482ee45304" d="m421.87,1002.59h4.84v36.41h-4.84v-36.41Z"/>
      <path class="uuid-f45ebbdd-fd0e-4c32-b939-92482ee45304" d="m433.93,1013.63c.73-2.3,1.83-4.33,3.29-6.09,1.46-1.77,3.28-3.18,5.46-4.23,2.18-1.05,4.71-1.58,7.6-1.58s5.42.53,7.6,1.58c2.18,1.05,3.99,2.47,5.46,4.23,1.46,1.77,2.56,3.8,3.29,6.09.73,2.29,1.1,4.68,1.1,7.17s-.37,4.87-1.1,7.17c-.73,2.29-1.83,4.33-3.29,6.09-1.46,1.77-3.28,3.18-5.46,4.23-2.18,1.05-4.71,1.58-7.6,1.58s-5.42-.53-7.6-1.58c-2.18-1.05-4-2.46-5.46-4.23-1.46-1.77-2.56-3.8-3.29-6.09-.73-2.3-1.1-4.68-1.1-7.17s.36-4.87,1.1-7.17Zm4.46,12.63c.48,1.8,1.22,3.42,2.24,4.85s2.33,2.59,3.93,3.47c1.6.87,3.5,1.31,5.71,1.31s4.11-.44,5.71-1.31,2.91-2.03,3.93-3.47,1.77-3.06,2.24-4.85c.48-1.8.71-3.62.71-5.47s-.24-3.67-.71-5.47c-.48-1.8-1.22-3.42-2.24-4.85s-2.33-2.59-3.93-3.47c-1.6-.87-3.5-1.31-5.71-1.31s-4.11.44-5.71,1.31c-1.6.87-2.91,2.03-3.93,3.47s-1.77,3.06-2.24,4.85c-.48,1.8-.71,3.62-.71,5.47s.24,3.67.71,5.47Z"/>
      <path class="uuid-f45ebbdd-fd0e-4c32-b939-92482ee45304" d="m473.58,1002.59h5.15l19.18,29.53h.1v-29.53h4.59v36.41h-5.3l-19.02-29.22h-.1v29.22h-4.59v-36.41Z"/>
    </g>
  </g>
</svg>