<?xml version="1.0" encoding="UTF-8"?>
<svg id="Layer_1" data-name="Layer 1" xmlns="http://www.w3.org/2000/svg" viewBox="0 0 189.93 61.35">
  <defs>
    <style>
      .cls-1 {
        fill: #fff;
      }
    </style>
  </defs>
  <g>
    <path class="cls-1" d="m189.93,61.35H60.6V0h129.33v61.35Zm-128.58-.75h127.83V.75H61.35v59.85Z"/>
    <path class="cls-1" d="m189.93,21.51H60.6V0h129.33v21.51Zm-128.58-.75h127.83V.75H61.35v20.01Z"/>
    <path class="cls-1" d="m61.35,61.35H0V0h61.35v61.35Zm-60.6-.75h59.85V.75H.75v59.85Z"/>
    <path class="cls-1" d="m125.26,59.14c-30.5,0-55.32-7.87-55.32-17.55s24.82-17.55,55.32-17.55,55.32,7.87,55.32,17.55-24.82,17.55-55.32,17.55Zm0-34.35c-30.09,0-54.57,7.54-54.57,16.8s24.48,16.8,54.57,16.8,54.57-7.54,54.57-16.8-24.48-16.8-54.57-16.8Z"/>
    <path class="cls-1" d="m125.26,59.14c-19.23,0-34.88-7.87-34.88-17.55s15.65-17.55,34.88-17.55,34.88,7.87,34.88,17.55-15.65,17.55-34.88,17.55Zm0-34.35c-18.82,0-34.13,7.54-34.13,16.8s15.31,16.8,34.13,16.8,34.13-7.54,34.13-16.8-15.31-16.8-34.13-16.8Z"/>
    <rect class="cls-1" x="124.89" y="24.41" width=".75" height="34.35"/>
    <path class="cls-1" d="m125.26,59.14c-24.73,0-44.84-7.87-44.84-17.55s20.12-17.55,44.84-17.55,44.84,7.87,44.84,17.55-20.12,17.55-44.84,17.55Zm0-34.35c-24.31,0-44.09,7.54-44.09,16.8s19.78,16.8,44.09,16.8,44.09-7.54,44.09-16.8-19.78-16.8-44.09-16.8Z"/>
    <path class="cls-1" d="m125.26,59.14c-12.48,0-22.62-7.87-22.62-17.55s10.15-17.55,22.62-17.55,22.62,7.87,22.62,17.55-10.15,17.55-22.62,17.55Zm0-34.35c-12.06,0-21.88,7.54-21.88,16.8s9.81,16.8,21.88,16.8,21.88-7.54,21.88-16.8-9.81-16.8-21.88-16.8Z"/>
    <rect class="cls-1" x="70.32" y="41.22" width="109.89" height=".75"/>
  </g>
  <g>
    <path class="cls-1" d="m76.34,6.72h.58c.28,0,.55,0,.82-.01.26,0,.49-.02.68-.02l-.06.24c-.27,0-.48.04-.64.09-.15.05-.27.15-.35.29s-.17.36-.25.65l-1.58,5.95c-.07.29-.1.5-.09.65.01.14.08.24.21.29s.32.08.59.1l-.05.24c-.18-.02-.41-.03-.67-.03-.26,0-.54,0-.82,0-.31,0-.61,0-.89,0-.28,0-.5.01-.67.03l.05-.24c.28-.02.49-.05.64-.1.15-.05.27-.14.35-.29.09-.14.17-.36.24-.65l1.74-6.47-4.98,7.8h-.26l-.82-7.9-1.7,6.44c-.07.29-.1.51-.1.68,0,.16.08.28.23.35.14.07.37.11.67.13l-.06.24c-.09,0-.2-.01-.34-.02-.14,0-.29,0-.44-.01-.15,0-.3,0-.43,0-.2,0-.4,0-.61,0-.21,0-.38.01-.52.03l.06-.24c.28-.02.5-.06.65-.13.15-.07.27-.18.37-.35.09-.16.17-.39.25-.68l1.56-5.83c.08-.3.11-.51.1-.65s-.09-.24-.21-.29c-.12-.05-.32-.08-.59-.09l.06-.24c.13,0,.29.02.47.02.19,0,.39.01.59.01.18,0,.37,0,.56-.01.19,0,.36-.02.49-.02l.66,7.12,4.51-7.08Z"/>
    <path class="cls-1" d="m78.91,14.96c.19,0,.41-.12.66-.37.25-.24.5-.57.76-.99.26-.42.49-.89.71-1.42.22-.53.39-1.08.52-1.64l-.2,1.3c-.3.85-.61,1.53-.91,2.05s-.61.89-.92,1.12-.63.34-.95.34c-.38,0-.66-.14-.85-.41-.19-.27-.28-.62-.28-1.04,0-.38.06-.8.19-1.25.13-.45.31-.9.53-1.35.23-.45.49-.86.79-1.22.3-.37.62-.66.97-.89.35-.22.7-.34,1.06-.34.28,0,.49.14.64.41.15.28.18.66.09,1.16l-.13.07c.06-.42.03-.77-.08-1.03-.11-.26-.3-.39-.55-.39-.21,0-.43.1-.65.31-.23.2-.45.48-.66.83-.21.35-.4.74-.58,1.17-.17.43-.31.88-.41,1.34s-.15.9-.15,1.33c0,.34.04.58.11.72s.18.2.31.2Zm3.02-5.95c.19,0,.38-.02.58-.05.19-.02.37-.06.53-.12l-1.5,5.3c-.02.07-.04.17-.07.28-.03.12-.03.22,0,.32.03.1.11.14.25.14.16,0,.32-.09.47-.26.15-.18.3-.5.46-.96l.14-.44h.23l-.3.88c-.11.32-.25.57-.4.75-.16.18-.32.31-.49.38-.17.08-.33.11-.49.11-.31,0-.53-.1-.66-.31-.1-.18-.13-.4-.08-.64.05-.24.1-.49.17-.74l1.18-4.64Z"/>
    <path class="cls-1" d="m84.54,15.18h-1.04l2.38-8c.08-.27.07-.47-.03-.6-.1-.13-.35-.19-.74-.19l.07-.25c.44,0,.84-.05,1.19-.14.35-.08.68-.2.97-.35l-2.8,9.54Zm3.1-.77c-.03.18-.03.3,0,.38.03.08.11.11.24.11.16,0,.31-.09.45-.27.14-.18.29-.5.44-.95l.14-.44h.23l-.29.88c-.1.32-.23.57-.38.75-.15.18-.31.31-.49.38-.18.07-.37.11-.56.11-.26,0-.46-.09-.62-.27-.16-.18-.2-.47-.11-.87l.22-1.03c.1-.46.05-.81-.15-1.03-.2-.22-.63-.35-1.3-.4v-.05c.3-.02.61-.02.93,0,.32.02.6.09.85.2.25.11.44.27.56.48.13.21.16.49.08.83l-.24,1.2Zm1.06-5.32c-.1,0-.18.02-.25.05-.07.03-.13.07-.2.12-.15.12-.28.28-.38.49-.1.2-.21.42-.31.65-.1.23-.23.45-.38.65-.15.2-.35.37-.6.5s-.57.19-.97.18h-.12s.02-.12.02-.12c.39-.02.71-.1.94-.24.24-.14.42-.3.56-.5.14-.2.26-.41.35-.63.1-.22.2-.43.3-.63.1-.2.24-.36.41-.49.14-.11.27-.19.39-.22.12-.04.23-.05.33-.05.28,0,.47.07.58.21.1.14.15.31.13.5,0,.1-.04.2-.08.32-.05.12-.12.22-.22.31-.1.09-.23.13-.39.13-.18,0-.3-.05-.37-.16s-.1-.23-.1-.35c0-.11.05-.23.12-.37.07-.13.16-.25.26-.34h-.02Z"/>
    <path class="cls-1" d="m91.68,10.03c.17-.5.11-.74-.17-.74-.18,0-.35.1-.49.3-.14.2-.3.51-.46.92l-.17.44h-.23l.31-.88c.12-.34.26-.59.43-.77.17-.18.35-.3.53-.37.19-.07.36-.1.52-.1.26,0,.44.05.56.16.12.1.19.24.22.41.02.17.02.35-.02.55-.04.2-.09.39-.16.57l-1.28,3.64c-.08.23-.11.41-.08.55.03.13.12.2.27.2s.31-.09.46-.26c.14-.18.3-.5.48-.96l.17-.44h.23l-.31.88c-.11.31-.25.56-.41.74-.16.18-.33.31-.52.38-.18.08-.37.11-.55.11-.34,0-.58-.08-.7-.24-.12-.16-.16-.37-.13-.62.03-.26.1-.53.2-.82l1.28-3.64Zm.37-3.2c.04-.21.15-.39.32-.54.17-.15.36-.23.56-.23s.37.08.49.23c.12.15.15.33.11.54s-.15.39-.32.54-.36.23-.57.23-.36-.08-.47-.23-.15-.33-.11-.54Z"/>
    <path class="cls-1" d="m94.87,15.18h-1.04l1.44-5.15c.03-.1.06-.2.08-.32.02-.12.01-.22-.02-.3s-.11-.13-.24-.13c-.18,0-.33.09-.47.26-.14.17-.29.49-.46.97l-.16.44h-.23l.3-.88c.18-.5.39-.84.65-1,.26-.16.52-.24.77-.24.24,0,.41.05.52.16.11.1.17.24.18.4.01.16,0,.34-.04.54-.04.2-.08.39-.13.58l-1.18,4.66Zm.55-2.5c.28-.72.55-1.32.82-1.81.26-.49.52-.88.78-1.18.26-.3.52-.52.79-.65.27-.13.55-.2.83-.2.38,0,.63.09.77.27.14.18.2.41.19.68-.02.28-.07.56-.17.86l-1.16,3.5c-.07.22-.1.39-.09.53.01.14.11.21.28.21.15,0,.3-.08.45-.25s.31-.49.47-.97l.16-.44h.23l-.3.88c-.11.34-.25.59-.41.77-.16.18-.34.3-.52.37s-.35.1-.52.1c-.19,0-.35-.03-.47-.1s-.22-.15-.28-.25c-.09-.14-.12-.33-.08-.56.03-.23.1-.49.19-.77l1.14-3.43c.04-.11.07-.25.1-.4.03-.16.02-.3-.02-.42s-.16-.19-.35-.19-.4.08-.61.25c-.22.17-.44.41-.67.71-.23.31-.46.68-.68,1.1-.22.43-.44.9-.64,1.42-.2.52-.39,1.07-.56,1.65l.35-1.68Z"/>
    <path class="cls-1" d="m102.96,12.48h.3c-.29.17-.55.32-.8.45s-.44.25-.59.37c-.15.11-.23.22-.23.32,0,.08.06.15.17.22.11.07.3.13.55.2l.88.23c.26.06.49.14.69.22s.37.19.49.32.18.3.18.5-.07.43-.2.68c-.13.25-.34.49-.61.73-.28.23-.63.42-1.07.58-.44.15-.97.23-1.6.23-.42,0-.77-.04-1.05-.11-.28-.08-.5-.18-.64-.32-.14-.14-.21-.29-.21-.47,0-.13.04-.26.11-.4.07-.14.18-.28.32-.41.14-.13.32-.26.53-.37.21-.12.46-.21.75-.29l.08.18c-.3.15-.5.32-.61.52-.11.19-.17.38-.17.58,0,.32.11.55.34.69.22.14.5.21.83.21.26,0,.54-.04.82-.13.28-.08.54-.2.78-.34.24-.14.43-.3.58-.49.14-.18.22-.38.22-.58,0-.12-.04-.2-.11-.24s-.2-.08-.38-.12l-1.84-.47c-.19-.05-.35-.13-.47-.25-.12-.12-.18-.27-.18-.47,0-.16.06-.32.17-.49.11-.17.32-.35.64-.56.31-.2.76-.44,1.36-.71Zm.66-3.64c.47,0,.85.11,1.15.32.29.21.44.55.44,1.03,0,.38-.11.76-.32,1.14s-.52.69-.91.93c-.39.24-.86.37-1.39.37-.44,0-.81-.11-1.11-.32-.3-.21-.45-.54-.45-.99,0-.22.05-.47.14-.75.09-.28.24-.56.44-.82.2-.26.47-.48.8-.65.33-.17.74-.26,1.23-.26Zm-.05.22c-.26,0-.47.07-.65.22s-.32.34-.44.56c-.12.23-.2.47-.26.71-.06.25-.1.47-.13.68-.02.2-.04.35-.04.45,0,.26.06.44.17.55.12.11.27.17.46.17.3,0,.55-.09.74-.28.19-.18.33-.41.44-.68s.17-.54.21-.82.05-.5.05-.68c0-.27-.04-.49-.11-.65s-.22-.24-.46-.24Zm.9.41l-.22-.08c.11-.27.3-.51.58-.72.27-.21.56-.31.85-.31.21,0,.38.06.5.17.13.12.19.3.19.55,0,.22-.06.39-.17.49-.11.1-.23.16-.36.16s-.25-.04-.37-.13c-.12-.08-.19-.22-.21-.4-.02-.18.03-.42.16-.71l.16.04c-.34.13-.58.26-.72.4-.14.14-.28.32-.4.55Z"/>
    <path class="cls-1" d="m109.56,16.87c.34-.18.71-.43,1.1-.75.39-.32.79-.74,1.21-1.28.47-.6.9-1.27,1.29-2.02.39-.75.66-1.5.81-2.26-.13-.07-.27-.16-.41-.27-.15-.11-.27-.24-.37-.38-.1-.15-.14-.31-.13-.5.02-.18.08-.32.19-.42.11-.1.25-.14.42-.14.22,0,.37.08.47.25.1.16.15.41.15.73,0,.41-.07.85-.2,1.31-.14.47-.32.94-.55,1.42-.23.48-.48.94-.76,1.39-.28.44-.56.85-.85,1.21-.13.16-.3.36-.53.6-.22.24-.49.49-.8.74-.31.25-.65.47-1.04.65-.24.11-.45.19-.62.23s-.31.07-.43.07c-.16,0-.3-.04-.42-.13s-.18-.21-.18-.37c0-.18.07-.31.2-.4.13-.09.28-.14.45-.14.18,0,.36.05.52.14.16.1.32.2.47.32Zm2.63-2.17l-.8.88-.91-5.52c-.04-.25-.09-.42-.14-.52-.06-.1-.14-.14-.24-.14-.09,0-.19.07-.3.21-.11.14-.25.44-.41.89l-.16.44h-.23l.3-.88c.17-.49.38-.81.62-.98s.5-.25.76-.25.44.08.58.23c.14.16.23.45.29.87l.65,4.75Z"/>
    <path class="cls-1" d="m114.81,13.46c0-.35.05-.74.14-1.15.1-.42.24-.83.43-1.24.19-.41.43-.78.7-1.12.28-.34.6-.61.97-.81.37-.2.78-.31,1.22-.31.5,0,.89.15,1.19.46.3.31.45.78.45,1.42,0,.35-.05.74-.14,1.15-.1.42-.24.83-.43,1.24s-.43.78-.7,1.12c-.28.34-.6.61-.97.81-.37.2-.78.31-1.22.31-.5,0-.89-.16-1.19-.47s-.45-.78-.45-1.42Zm3.4-4.38c-.26,0-.5.1-.74.31-.24.2-.45.48-.65.83s-.37.74-.52,1.17c-.15.43-.26.88-.34,1.34-.08.46-.12.91-.12,1.33,0,.36.06.62.17.79.12.17.29.25.51.25.26,0,.5-.1.74-.31.24-.2.45-.48.65-.83.2-.35.37-.74.52-1.17s.26-.88.34-1.34.12-.91.12-1.34c0-.37-.06-.63-.17-.8-.11-.16-.28-.25-.52-.25Z"/>
    <path class="cls-1" d="m125.18,11.03c-.29.8-.56,1.48-.83,2.03-.26.55-.53,1-.79,1.33-.26.34-.52.58-.79.73-.27.15-.55.23-.83.23-.35,0-.61-.08-.77-.24-.16-.16-.24-.38-.24-.65s.06-.58.17-.92l1.16-3.5c.08-.24.11-.42.08-.55-.02-.13-.12-.19-.28-.19s-.3.08-.45.25c-.15.17-.31.49-.47.97l-.16.44h-.23l.3-.88c.12-.34.26-.59.43-.77.16-.18.34-.3.52-.37s.35-.1.51-.1c.35,0,.59.08.7.25s.16.37.13.63c-.03.26-.09.52-.19.8l-1.14,3.43c-.22.67-.14,1.01.26,1.01.19,0,.4-.09.61-.26.22-.17.44-.42.66-.74.22-.32.45-.71.67-1.16.22-.45.43-.96.64-1.51.2-.56.39-1.15.56-1.79l-.24,1.54Zm-.04,3.13c-.06.22-.08.39-.08.53,0,.14.09.21.25.21.18,0,.34-.09.49-.28s.3-.5.45-.94l.16-.44h.23l-.3.88c-.11.34-.25.59-.41.77-.16.18-.34.3-.52.37-.18.07-.35.1-.52.1-.13,0-.25-.03-.36-.08-.11-.06-.2-.14-.25-.24-.06-.14-.09-.31-.07-.52.02-.21.07-.49.16-.84l1.18-4.66c.2,0,.39-.02.58-.05.19-.02.36-.06.51-.12l-1.49,5.32Z"/>
    <path class="cls-1" d="m131.48,14.16c-.06.23-.08.41-.06.55.02.13.11.2.26.2.16,0,.31-.09.45-.27.14-.18.29-.5.45-.95l.16-.44h.23l-.3.88c-.1.3-.23.55-.38.73-.15.18-.31.31-.49.39-.18.08-.37.12-.58.12-.26,0-.46-.05-.58-.15s-.2-.23-.23-.4c-.03-.17-.02-.35.01-.55.04-.2.08-.39.14-.58l1.96-6.49c.08-.27.07-.47-.02-.6s-.34-.19-.73-.19l.08-.25c.44,0,.83-.05,1.16-.14s.66-.2.97-.35l-2.51,8.52Z"/>
    <path class="cls-1" d="m133.83,13.46c0-.35.05-.74.14-1.15.1-.42.24-.83.43-1.24.19-.41.43-.78.7-1.12.28-.34.6-.61.97-.81.37-.2.78-.31,1.22-.31.5,0,.89.15,1.19.46.3.31.45.78.45,1.42,0,.35-.05.74-.14,1.15-.1.42-.24.83-.43,1.24s-.43.78-.7,1.12c-.28.34-.6.61-.97.81-.37.2-.78.31-1.22.31-.5,0-.89-.16-1.19-.47s-.45-.78-.45-1.42Zm3.4-4.38c-.26,0-.5.1-.74.31-.24.2-.45.48-.65.83s-.37.74-.52,1.17c-.15.43-.26.88-.34,1.34-.08.46-.12.91-.12,1.33,0,.36.06.62.17.79.12.17.29.25.51.25.26,0,.5-.1.74-.31.24-.2.45-.48.65-.83.2-.35.37-.74.52-1.17s.26-.88.34-1.34.12-.91.12-1.34c0-.37-.06-.63-.17-.8-.11-.16-.28-.25-.52-.25Z"/>
    <path class="cls-1" d="m139.69,13.46c0-.35.05-.74.14-1.15.1-.42.24-.83.43-1.24.19-.41.43-.78.7-1.12.28-.34.6-.61.97-.81.37-.2.78-.31,1.22-.31.5,0,.89.15,1.19.46.3.31.45.78.45,1.42,0,.35-.05.74-.14,1.15-.1.42-.24.83-.43,1.24s-.43.78-.7,1.12c-.28.34-.6.61-.97.81-.37.2-.78.31-1.22.31-.5,0-.89-.16-1.19-.47s-.45-.78-.45-1.42Zm3.4-4.38c-.26,0-.5.1-.74.31-.24.2-.45.48-.65.83s-.37.74-.52,1.17c-.15.43-.26.88-.34,1.34-.08.46-.12.91-.12,1.33,0,.36.06.62.17.79.12.17.29.25.51.25.26,0,.5-.1.74-.31.24-.2.45-.48.65-.83.2-.35.37-.74.52-1.17s.26-.88.34-1.34.12-.91.12-1.34c0-.37-.06-.63-.17-.8-.11-.16-.28-.25-.52-.25Z"/>
    <path class="cls-1" d="m146.23,15.18h-1.04l2.38-8c.08-.27.07-.47-.03-.6-.1-.13-.35-.19-.74-.19l.07-.25c.44,0,.84-.05,1.19-.14.35-.08.68-.2.97-.35l-2.8,9.54Zm3.1-.77c-.03.18-.03.3,0,.38.03.08.11.11.24.11.16,0,.31-.09.45-.27.14-.18.29-.5.44-.95l.14-.44h.23l-.29.88c-.1.32-.23.57-.38.75-.15.18-.31.31-.49.38-.18.07-.37.11-.56.11-.26,0-.46-.09-.62-.27-.16-.18-.2-.47-.11-.87l.22-1.03c.1-.46.05-.81-.15-1.03-.2-.22-.63-.35-1.3-.4v-.05c.3-.02.61-.02.93,0,.32.02.6.09.85.2.25.11.44.27.56.48.13.21.16.49.08.83l-.24,1.2Zm1.06-5.32c-.1,0-.18.02-.25.05-.07.03-.13.07-.2.12-.15.12-.28.28-.38.49-.1.2-.21.42-.31.65-.1.23-.23.45-.38.65-.15.2-.35.37-.6.5s-.57.19-.97.18h-.12s.02-.12.02-.12c.39-.02.71-.1.94-.24.24-.14.42-.3.56-.5.14-.2.26-.41.35-.63.1-.22.2-.43.3-.63.1-.2.24-.36.41-.49.14-.11.27-.19.39-.22.12-.04.23-.05.33-.05.28,0,.47.07.58.21.1.14.15.31.13.5,0,.1-.04.2-.08.32-.05.12-.12.22-.22.31-.1.09-.23.13-.39.13-.18,0-.3-.05-.37-.16s-.1-.23-.1-.35c0-.11.05-.23.12-.37.07-.13.16-.25.26-.34h-.02Z"/>
    <path class="cls-1" d="m157.1,12.48h.3c-.29.17-.55.32-.8.45s-.44.25-.59.37c-.15.11-.23.22-.23.32,0,.08.06.15.17.22.11.07.3.13.55.2l.88.23c.26.06.49.14.69.22s.37.19.49.32.18.3.18.5-.07.43-.2.68c-.13.25-.34.49-.61.73-.28.23-.63.42-1.07.58-.44.15-.97.23-1.6.23-.42,0-.77-.04-1.05-.11-.28-.08-.5-.18-.64-.32-.14-.14-.21-.29-.21-.47,0-.13.04-.26.11-.4.07-.14.18-.28.32-.41.14-.13.32-.26.53-.37.21-.12.46-.21.75-.29l.08.18c-.3.15-.5.32-.61.52-.11.19-.17.38-.17.58,0,.32.11.55.34.69.22.14.5.21.83.21.26,0,.54-.04.82-.13.28-.08.54-.2.78-.34.24-.14.43-.3.58-.49.14-.18.22-.38.22-.58,0-.12-.04-.2-.11-.24s-.2-.08-.38-.12l-1.84-.47c-.19-.05-.35-.13-.47-.25-.12-.12-.18-.27-.18-.47,0-.16.06-.32.17-.49.11-.17.32-.35.64-.56.31-.2.76-.44,1.36-.71Zm.66-3.64c.47,0,.85.11,1.15.32.29.21.44.55.44,1.03,0,.38-.11.76-.32,1.14s-.52.69-.91.93c-.39.24-.86.37-1.39.37-.44,0-.81-.11-1.11-.32-.3-.21-.45-.54-.45-.99,0-.22.05-.47.14-.75.09-.28.24-.56.44-.82.2-.26.47-.48.8-.65.33-.17.74-.26,1.23-.26Zm-.05.22c-.26,0-.47.07-.65.22s-.32.34-.44.56c-.12.23-.2.47-.26.71-.06.25-.1.47-.13.68-.02.2-.04.35-.04.45,0,.26.06.44.17.55.12.11.27.17.46.17.3,0,.55-.09.74-.28.19-.18.33-.41.44-.68s.17-.54.21-.82.05-.5.05-.68c0-.27-.04-.49-.11-.65s-.22-.24-.46-.24Zm.9.41l-.22-.08c.11-.27.3-.51.58-.72.27-.21.56-.31.85-.31.21,0,.38.06.5.17.13.12.19.3.19.55,0,.22-.06.39-.17.49-.11.1-.23.16-.36.16s-.25-.04-.37-.13c-.12-.08-.19-.22-.21-.4-.02-.18.03-.42.16-.71l.16.04c-.34.13-.58.26-.72.4-.14.14-.28.32-.4.55Z"/>
    <path class="cls-1" d="m160.15,13.46c0-.35.05-.74.14-1.15.1-.42.24-.83.43-1.24.19-.41.43-.78.7-1.12.28-.34.6-.61.97-.81.37-.2.78-.31,1.22-.31.5,0,.89.15,1.19.46.3.31.45.78.45,1.42,0,.35-.05.74-.14,1.15-.1.42-.24.83-.43,1.24s-.43.78-.7,1.12c-.28.34-.6.61-.97.81-.37.2-.78.31-1.22.31-.5,0-.89-.16-1.19-.47s-.45-.78-.45-1.42Zm3.4-4.38c-.26,0-.5.1-.74.31-.24.2-.45.48-.65.83s-.37.74-.52,1.17c-.15.43-.26.88-.34,1.34-.08.46-.12.91-.12,1.33,0,.36.06.62.17.79.12.17.29.25.51.25.26,0,.5-.1.74-.31.24-.2.45-.48.65-.83.2-.35.37-.74.52-1.17s.26-.88.34-1.34.12-.91.12-1.34c0-.37-.06-.63-.17-.8-.11-.16-.28-.25-.52-.25Z"/>
    <path class="cls-1" d="m166,13.46c0-.35.05-.74.14-1.15.1-.42.24-.83.43-1.24.19-.41.43-.78.7-1.12.28-.34.6-.61.97-.81.37-.2.78-.31,1.22-.31.5,0,.89.15,1.19.46.3.31.45.78.45,1.42,0,.35-.05.74-.14,1.15-.1.42-.24.83-.43,1.24s-.43.78-.7,1.12c-.28.34-.6.61-.97.81-.37.2-.78.31-1.22.31-.5,0-.89-.16-1.19-.47s-.45-.78-.45-1.42Zm3.4-4.38c-.26,0-.5.1-.74.31-.24.2-.45.48-.65.83s-.37.74-.52,1.17c-.15.43-.26.88-.34,1.34-.08.46-.12.91-.12,1.33,0,.36.06.62.17.79.12.17.29.25.51.25.26,0,.5-.1.74-.31.24-.2.45-.48.65-.83.2-.35.37-.74.52-1.17s.26-.88.34-1.34.12-.91.12-1.34c0-.37-.06-.63-.17-.8-.11-.16-.28-.25-.52-.25Z"/>
    <path class="cls-1" d="m173.35,14.96c.2,0,.43-.12.68-.35s.51-.56.77-.96c.26-.4.5-.86.72-1.38.22-.52.39-1.05.52-1.6l-.18,1.3c-.31.82-.62,1.48-.93,1.98-.31.5-.62.85-.94,1.07-.32.22-.65.33-.99.33-.25,0-.47-.06-.65-.17-.19-.12-.33-.29-.44-.52-.1-.23-.16-.53-.16-.89,0-.38.06-.8.19-1.24.12-.44.3-.88.53-1.31.23-.43.51-.83.83-1.18s.68-.64,1.07-.86c.39-.22.81-.32,1.25-.32.18,0,.36.07.52.21s.25.35.26.63l-.1.24c-.03-.29-.11-.49-.24-.62s-.27-.19-.43-.19c-.3,0-.6.1-.88.31-.28.21-.54.48-.77.83s-.44.73-.61,1.15-.31.85-.41,1.28c-.1.44-.14.85-.14,1.23,0,.35.04.61.13.79.09.17.22.26.4.26Zm2.69-.8c-.06.18-.08.35-.07.51.01.16.11.23.28.23.16,0,.31-.09.44-.27.14-.18.28-.5.43-.95l.14-.44h.23l-.28.88c-.1.32-.22.57-.38.75-.16.18-.33.31-.5.38-.18.07-.34.11-.5.11-.48,0-.73-.23-.76-.68,0-.13,0-.28.03-.44s.07-.35.13-.55l1.73-6.49c.07-.27.06-.47-.04-.6-.1-.13-.34-.19-.73-.19l.07-.25c.44,0,.83-.05,1.16-.14s.66-.2.96-.35l-2.35,8.52Z"/>
    <path class="cls-1" d="m181.23,14.74c0-.24.09-.45.28-.64.18-.19.39-.28.61-.28.18,0,.33.06.44.18s.17.27.17.44c0,.16-.04.31-.13.45s-.19.25-.33.34-.28.13-.44.13c-.18,0-.32-.06-.43-.17-.11-.12-.17-.26-.17-.44Zm1.04-1.94c.22-.85.41-1.68.55-2.51.14-.82.27-1.59.38-2.29.11-.7.23-1.28.35-1.73.02-.07.05-.14.08-.2.03-.06.07-.11.12-.15.05-.04.1-.07.16-.09.06-.02.12-.03.18-.03.25,0,.41.08.49.23.08.15.08.32.02.52-.09.32-.22.71-.38,1.16s-.35.95-.56,1.51c-.2.55-.41,1.13-.61,1.75s-.39,1.24-.56,1.88l-.22-.04Z"/>
  </g>
  <g>
    <path class="cls-1" d="m12.39,18.13c0,.07-.02.15-.06.22-.07.13-.19.2-.35.2-.14,0-.29-.05-.47-.15-.13-.07-.26-.17-.39-.29-.13-.12-.31-.29-.53-.52-.23-.23-.4-.41-.54-.53.05.19.12.44.2.76s.15.56.18.72c.04.17.06.32.06.46,0,.24-.05.41-.15.52s-.21.16-.35.16c-.12,0-.23-.05-.32-.16-.09-.11-.13-.28-.13-.52,0-.15.02-.3.05-.47.04-.17.1-.41.18-.72.08-.31.15-.56.2-.75-.14.13-.33.32-.56.55-.23.23-.41.41-.54.52s-.25.21-.37.28c-.17.1-.32.14-.45.14-.18,0-.31-.07-.39-.22-.04-.07-.06-.13-.06-.19,0-.19.14-.38.42-.55.12-.07.27-.13.42-.18.16-.05.39-.12.71-.2.31-.08.57-.15.76-.21-.18-.05-.43-.12-.75-.21s-.56-.15-.72-.21-.31-.11-.43-.18c-.27-.16-.4-.34-.4-.55,0-.07.02-.15.06-.22.07-.13.18-.2.35-.2.14,0,.29.05.47.15.13.07.26.17.39.29.13.12.31.29.53.52.23.23.41.41.55.54-.04-.18-.11-.43-.19-.74-.09-.32-.15-.56-.19-.73-.04-.17-.06-.33-.06-.47,0-.24.05-.41.14-.52.09-.11.2-.17.34-.17s.24.06.33.17c.09.11.13.29.13.52,0,.15-.02.3-.05.47-.04.17-.1.41-.18.71-.08.31-.15.56-.2.75.14-.13.33-.31.56-.55s.41-.41.53-.52c.13-.12.25-.21.37-.28.17-.1.33-.14.45-.14.18,0,.31.07.39.22.04.07.06.13.06.19,0,.2-.14.39-.43.55-.12.07-.27.13-.42.18s-.39.12-.71.2c-.31.08-.57.15-.76.21.19.05.44.12.75.21.32.08.56.15.72.21.16.05.3.11.43.18.27.16.41.34.41.55Z"/>
    <path class="cls-1" d="m23.03,14.94c-.14.05-.23.15-.29.3s-.08.38-.08.7v6.32c0,.32.03.55.08.7s.15.24.29.3c.14.05.36.09.67.1v.25c-.4-.02-.94-.04-1.62-.04-.73,0-1.27.01-1.63.04v-.25c.31-.01.53-.05.67-.1.14-.05.23-.15.28-.3s.08-.38.08-.7v-6.81l-3.06,8.22h-.21l-3.21-8.26v6.72c0,.33.03.57.09.74.06.17.17.29.33.36.16.07.41.12.74.13v.25c-.3-.02-.74-.04-1.3-.04-.51,0-.9.01-1.18.04v-.25c.29-.01.51-.05.66-.13.14-.07.24-.19.3-.36.05-.17.08-.41.08-.74v-6.19c0-.32-.03-.55-.08-.7s-.15-.24-.29-.3c-.14-.05-.36-.09-.67-.1v-.25c.28.02.67.04,1.18.04.45,0,.81-.01,1.09-.04l2.8,7.39,2.73-7.35h.6c.68,0,1.22-.01,1.62-.04v.25c-.31.01-.53.05-.67.1Z"/>
    <path class="cls-1" d="m30.77,14.62c.38,0,.7-.01.95-.04v.25c-.17.04-.34.14-.5.32s-.34.45-.52.81l-2,3.96v2.32c0,.32.03.55.08.7.05.15.15.24.29.3.14.05.36.09.67.1v.25c-.4-.02-.94-.04-1.62-.04-.73,0-1.27.01-1.63.04v-.25c.31-.01.53-.05.67-.1.14-.05.23-.15.29-.3s.08-.38.08-.7v-1.92l-2.58-4.76c-.16-.29-.29-.48-.41-.57-.11-.1-.23-.14-.33-.14v-.27c.33.02.7.04,1.12.04.82,0,1.42-.01,1.78-.04v.27c-.6,0-.9.16-.9.49,0,.12.04.27.13.44l2.12,4.06,1.62-3.23c.23-.47.35-.83.35-1.09,0-.24-.09-.41-.28-.51s-.47-.16-.85-.17v-.25c.48.02.97.04,1.47.04Z"/>
    <path class="cls-1" d="m34.87,14.94c-.14.05-.23.15-.29.3s-.08.38-.08.7v6.32c0,.32.03.55.08.69s.15.24.29.29.36.07.67.07h.93c.53,0,.93-.07,1.21-.22.28-.15.47-.39.6-.71.12-.33.22-.81.28-1.44h.29c-.02.27-.04.61-.04,1.04,0,.48.03,1.02.09,1.63-.58-.02-1.55-.04-2.92-.04-1.63,0-2.86.01-3.69.04v-.25c.31-.01.53-.05.67-.1.14-.05.23-.15.29-.3s.08-.38.08-.7v-6.32c0-.32-.03-.55-.08-.7s-.15-.24-.29-.3c-.14-.05-.36-.09-.67-.1v-.25c.35.02.9.04,1.63.04.69,0,1.23-.01,1.62-.04v.25c-.31.01-.53.05-.67.1Z"/>
    <path class="cls-1" d="m46.75,23.1c-.06-.16-.14-.23-.24-.23-.05,0-.11.01-.16.04-.05.03-.14.09-.26.18-.3.23-.61.4-.92.52-.32.12-.67.17-1.07.17-.87,0-1.62-.18-2.24-.54-.63-.36-1.1-.88-1.43-1.56-.33-.68-.49-1.49-.49-2.43s.18-1.83.53-2.56.84-1.3,1.46-1.69c.62-.4,1.33-.59,2.11-.59.34,0,.65.04.92.11.27.07.5.16.7.28.2.11.42.26.68.44.11.09.19.13.25.13.16,0,.27-.26.32-.78h.29c-.03.55-.05,1.53-.05,2.93h-.29c-.07-.46-.16-.83-.24-1.12-.09-.29-.22-.55-.4-.76-.25-.31-.57-.55-.96-.73-.39-.18-.81-.27-1.24-.27-.56,0-1.05.18-1.47.55-.42.36-.75.88-.98,1.56-.23.67-.35,1.46-.35,2.37,0,1.02.11,1.85.33,2.5.22.65.55,1.13.99,1.45.45.31,1.02.47,1.71.47.51,0,.95-.13,1.32-.4.15-.1.25-.2.3-.3.05-.1.07-.23.07-.4v-1.22c0-.35-.03-.61-.1-.77-.07-.16-.19-.28-.36-.34-.17-.06-.45-.1-.83-.11v-.25c.42.03,1.02.04,1.8.04.6,0,1.04-.01,1.32-.04v.25c-.2.02-.34.05-.43.1s-.14.15-.17.29c-.03.14-.05.38-.05.7v2.52h-.25c0-.17-.04-.34-.11-.49Z"/>
    <path class="cls-1" d="m53.71,18.13c0,.07-.02.15-.06.22-.07.13-.19.2-.35.2-.14,0-.29-.05-.47-.15-.13-.07-.26-.17-.39-.29-.13-.12-.31-.29-.53-.52-.23-.23-.4-.41-.54-.53.05.19.12.44.2.76s.15.56.18.72c.04.17.06.32.06.46,0,.24-.05.41-.15.52s-.21.16-.35.16c-.12,0-.23-.05-.32-.16-.09-.11-.13-.28-.13-.52,0-.15.02-.3.05-.47.04-.17.1-.41.18-.72.08-.31.15-.56.2-.75-.14.13-.33.32-.56.55-.23.23-.41.41-.54.52s-.25.21-.37.28c-.17.1-.32.14-.45.14-.18,0-.31-.07-.39-.22-.04-.07-.06-.13-.06-.19,0-.19.14-.38.42-.55.12-.07.27-.13.42-.18.16-.05.39-.12.71-.2.31-.08.57-.15.76-.21-.18-.05-.43-.12-.75-.21s-.56-.15-.72-.21-.31-.11-.43-.18c-.27-.16-.4-.34-.4-.55,0-.07.02-.15.06-.22.07-.13.18-.2.35-.2.14,0,.29.05.47.15.13.07.26.17.39.29.13.12.31.29.53.52.23.23.41.41.55.54-.04-.18-.11-.43-.19-.74-.09-.32-.15-.56-.19-.73-.04-.17-.06-.33-.06-.47,0-.24.05-.41.14-.52.09-.11.2-.17.34-.17s.24.06.33.17c.09.11.13.29.13.52,0,.15-.02.3-.05.47-.04.17-.1.41-.18.71-.08.31-.15.56-.2.75.14-.13.33-.31.56-.55s.41-.41.53-.52c.13-.12.25-.21.37-.28.17-.1.33-.14.45-.14.18,0,.31.07.39.22.04.07.06.13.06.19,0,.2-.14.39-.43.55-.12.07-.27.13-.42.18s-.39.12-.71.2c-.31.08-.57.15-.76.21.19.05.44.12.75.21.32.08.56.15.72.21.16.05.3.11.43.18.27.16.41.34.41.55Z"/>
    <path class="cls-1" d="m14.15,32.91c.36.53.93.8,1.68.8.29,0,.56-.06.81-.18.25-.12.45-.31.61-.56.16-.25.23-.57.23-.95,0-.33-.08-.62-.24-.88-.16-.26-.38-.5-.65-.71-.27-.22-.64-.46-1.09-.73-.51-.3-.91-.57-1.22-.81-.31-.24-.56-.53-.75-.86-.2-.33-.3-.73-.3-1.18,0-.48.11-.89.33-1.22.22-.33.51-.58.87-.74.36-.16.76-.25,1.2-.25.26,0,.49.02.67.07.19.04.34.1.47.16.12.06.26.15.41.25.19.12.34.18.44.18.08,0,.14-.04.18-.13.04-.09.07-.23.1-.43h.29c-.04.5-.06,1.36-.06,2.6h-.29c-.03-.44-.13-.84-.28-1.21-.16-.37-.38-.67-.68-.9-.3-.23-.67-.35-1.12-.35-.3,0-.57.06-.8.19-.24.12-.42.3-.55.52-.13.22-.2.48-.2.77,0,.46.14.83.42,1.11.28.28.6.54.97.76.37.23.62.38.75.46.53.34.96.63,1.27.87.31.25.56.53.75.86.19.33.28.7.28,1.13,0,.52-.12.96-.36,1.33-.24.36-.56.64-.97.82-.41.18-.87.27-1.37.27-.41,0-.74-.04-1-.13s-.51-.2-.74-.34c-.19-.12-.34-.18-.44-.18-.08,0-.14.04-.18.13-.04.09-.07.23-.1.43h-.29c.03-.46.05-1.48.05-3.05h.29c.06.86.27,1.56.63,2.09Z"/>
    <path class="cls-1" d="m22.35,25.12c-.14.05-.23.15-.29.3s-.08.38-.08.7v6.32c0,.32.03.55.08.7.05.14.15.24.29.3s.36.09.67.1v.25c-.39-.02-.93-.04-1.62-.04-.73,0-1.27.01-1.63.04v-.25c.31-.01.53-.05.67-.1.14-.05.23-.15.29-.3.05-.15.08-.38.08-.7v-6.32c0-.32-.03-.55-.08-.7s-.15-.24-.29-.3c-.14-.05-.36-.09-.67-.1v-.25c.35.02.9.04,1.63.04.69,0,1.23-.01,1.62-.04v.25c-.31.01-.53.05-.67.1Z"/>
    <path class="cls-1" d="m31.43,25.15c-.14.07-.24.19-.3.36-.05.17-.08.41-.08.74v7.6h-.29l-5.35-8.26v6.72c0,.33.03.57.09.74.06.17.17.28.33.36.16.07.41.11.74.13v.25c-.3-.02-.74-.04-1.3-.04-.51,0-.9.01-1.18.04v-.25c.29-.01.51-.05.66-.13.14-.07.24-.19.3-.36.05-.17.08-.41.08-.74v-6.19c0-.32-.03-.55-.08-.7s-.15-.24-.29-.3c-.14-.05-.36-.09-.67-.1v-.25c.28.02.67.04,1.18.04.38,0,.71-.01.99-.04l4.49,6.92v-5.45c0-.33-.03-.57-.08-.74-.06-.17-.16-.28-.33-.36-.16-.07-.41-.11-.75-.13v-.25c.3.02.74.04,1.3.04.51,0,.9-.01,1.18-.04v.25c-.29.01-.51.06-.66.13Z"/>
    <path class="cls-1" d="m40,33.21c-.05-.12-.12-.18-.21-.18-.07,0-.15.04-.26.11-.25.18-.49.32-.7.44s-.46.21-.73.28-.58.11-.93.11c-.81,0-1.52-.18-2.12-.55-.61-.36-1.08-.89-1.41-1.59-.33-.69-.5-1.52-.5-2.48s.17-1.77.52-2.49c.34-.72.82-1.28,1.44-1.68s1.31-.6,2.1-.6c.51,0,.94.07,1.3.22s.71.35,1.05.61c.09.07.17.11.25.11.17,0,.28-.25.32-.76h.29c-.03.55-.05,1.53-.05,2.93h-.29c-.06-.38-.12-.68-.17-.89-.05-.21-.11-.39-.18-.54s-.17-.3-.29-.46c-.26-.33-.58-.58-.98-.75-.39-.17-.82-.25-1.27-.25-.55,0-1.03.18-1.45.55-.41.36-.74.89-.96,1.56s-.34,1.47-.34,2.37.12,1.72.37,2.38c.25.66.59,1.17,1.03,1.51.44.34.93.52,1.48.52.42,0,.84-.08,1.24-.24.4-.16.71-.4.94-.73.17-.23.3-.48.37-.76.07-.27.15-.69.22-1.26h.29c0,1.46.02,2.48.05,3.06h-.29c-.02-.27-.05-.46-.1-.58Z"/>
    <path class="cls-1" d="m48.27,32.15c0,.48.03,1.02.09,1.63-.58-.02-1.55-.04-2.92-.04-1.63,0-2.86.01-3.69.04v-.25c.31-.01.53-.05.67-.1.14-.05.23-.15.29-.3.05-.15.08-.38.08-.7v-6.32c0-.32-.03-.55-.08-.7s-.15-.24-.29-.3c-.14-.05-.36-.09-.67-.1v-.25c.83.02,2.06.04,3.69.04,1.25,0,2.13-.01,2.66-.04-.06.56-.09,1.06-.09,1.5,0,.33.01.59.04.79h-.29c-.06-.55-.14-.96-.23-1.23-.09-.27-.25-.46-.47-.59-.22-.12-.56-.18-1-.18h-1.06c-.31,0-.53.02-.67.07-.14.05-.23.15-.29.29-.05.14-.08.37-.08.69v3h.85c.43,0,.71-.13.85-.38.14-.25.23-.52.26-.78.03-.27.06-.44.07-.52h.29c-.03.42-.04.82-.04,1.2v.61c0,.43.03,1.03.08,1.81h-.29c0-.06-.03-.26-.07-.62-.04-.35-.15-.62-.35-.8-.19-.18-.46-.27-.8-.27h-.85v3.06c0,.32.03.55.08.69.05.14.15.24.29.29.14.05.36.08.67.08h.93c.53,0,.93-.07,1.21-.21.28-.14.47-.37.6-.68.12-.31.22-.77.28-1.37h.29c-.02.23-.04.53-.04.92Z"/>
    <path class="cls-1" d="m21.49,35.31c-.14.05-.23.15-.29.3-.05.15-.08.38-.08.7v6.32c0,.32.03.55.08.7.05.14.15.24.29.3.14.05.36.09.67.1v.25c-.4-.02-.94-.04-1.62-.04-.73,0-1.27.01-1.63.04v-.25c.31-.01.53-.05.67-.1s.23-.15.28-.3c.05-.15.08-.38.08-.7v-6.81l-3.06,8.22h-.21l-3.21-8.26v6.72c0,.33.03.57.09.74.06.17.17.28.33.36.16.07.41.11.74.13v.25c-.3-.02-.74-.04-1.3-.04-.51,0-.9.01-1.18.04v-.25c.29-.01.51-.05.66-.13.14-.07.24-.19.3-.36.05-.17.08-.41.08-.74v-6.19c0-.32-.03-.55-.08-.7-.05-.14-.15-.24-.29-.3-.14-.05-.36-.09-.67-.1v-.25c.28.03.67.04,1.18.04.45,0,.81-.01,1.09-.04l2.8,7.38,2.73-7.35h.6c.68,0,1.22-.01,1.62-.04v.25c-.31.01-.53.05-.67.1Z"/>
    <path class="cls-1" d="m32.58,35.31c-.14.05-.23.15-.29.3-.05.15-.08.38-.08.7v6.32c0,.32.03.55.08.7.05.14.15.24.29.3.14.05.36.09.67.1v.25c-.4-.02-.94-.04-1.62-.04-.73,0-1.27.01-1.63.04v-.25c.31-.01.53-.05.67-.1s.23-.15.28-.3c.05-.15.08-.38.08-.7v-6.81l-3.06,8.22h-.21l-3.21-8.26v6.72c0,.33.03.57.09.74.06.17.17.28.33.36.16.07.41.11.74.13v.25c-.3-.02-.74-.04-1.3-.04-.51,0-.9.01-1.18.04v-.25c.29-.01.51-.05.66-.13.14-.07.24-.19.3-.36.05-.17.08-.41.08-.74v-6.19c0-.32-.03-.55-.08-.7-.05-.14-.15-.24-.29-.3-.14-.05-.36-.09-.67-.1v-.25c.28.03.67.04,1.18.04.45,0,.81-.01,1.09-.04l2.8,7.38,2.73-7.35h.6c.68,0,1.22-.01,1.62-.04v.25c-.31.01-.53.05-.67.1Z"/>
    <path class="cls-1" d="m41.19,43.45c.08.09.16.15.25.18.09.04.19.06.32.07v.27c-.58-.03-.94-.05-1.09-.05-.29,0-.88.02-1.8.05v-.27c.33,0,.57-.01.7-.04.14-.03.21-.08.21-.16,0-.06-.03-.14-.09-.23l-2.18-3.33-1.37,2.05c-.32.48-.48.85-.48,1.12,0,.22.1.37.29.46.19.09.47.14.84.15v.25c-.48-.02-1.05-.04-1.72-.04-.47,0-.83.01-1.08.04v-.25c.25-.04.49-.15.72-.34.23-.19.47-.47.71-.83l1.92-2.87-2.49-3.82c-.11-.17-.2-.3-.28-.38s-.16-.15-.25-.18-.19-.06-.32-.07v-.27c.58.03.94.05,1.09.05.57,0,1.17-.02,1.8-.05v.27c-.57,0-.85.09-.85.28,0,.07.04.16.11.28l1.98,3.03,1.25-1.87c.37-.55.55-.96.55-1.22,0-.18-.08-.31-.25-.38-.16-.08-.41-.12-.74-.13v-.25c.48.03.97.04,1.47.04.46,0,.82-.01,1.08-.04v.25c-.26.04-.5.15-.73.34-.23.19-.46.47-.71.82l-1.78,2.66,2.64,4.03c.11.17.2.3.28.38Z"/>
    <path class="cls-1" d="m49.26,43.45c.08.09.16.15.25.18.09.04.19.06.32.07v.27c-.58-.03-.94-.05-1.09-.05-.29,0-.88.02-1.8.05v-.27c.33,0,.57-.01.7-.04.14-.03.21-.08.21-.16,0-.06-.03-.14-.09-.23l-2.18-3.33-1.37,2.05c-.32.48-.48.85-.48,1.12,0,.22.1.37.29.46.19.09.47.14.84.15v.25c-.48-.02-1.05-.04-1.72-.04-.47,0-.83.01-1.08.04v-.25c.25-.04.49-.15.72-.34.23-.19.47-.47.71-.83l1.92-2.87-2.49-3.82c-.11-.17-.2-.3-.28-.38s-.16-.15-.25-.18-.19-.06-.32-.07v-.27c.58.03.94.05,1.09.05.57,0,1.17-.02,1.8-.05v.27c-.57,0-.85.09-.85.28,0,.07.04.16.11.28l1.98,3.03,1.25-1.87c.37-.55.55-.96.55-1.22,0-.18-.08-.31-.25-.38-.16-.08-.41-.12-.74-.13v-.25c.48.03.97.04,1.47.04.46,0,.82-.01,1.08-.04v.25c-.26.04-.5.15-.73.34-.23.19-.46.47-.71.82l-1.78,2.66,2.64,4.03c.11.17.2.3.28.38Z"/>
  </g>
</svg>