<?xml version="1.0" encoding="UTF-8"?>
<svg id="Layer_1" data-name="Layer 1" xmlns="http://www.w3.org/2000/svg" viewBox="0 0 189.93 61.35">
  <defs>
    <style>
      .cls-1 {
        fill: #fff;
      }
    </style>
  </defs>
  <path class="cls-1" d="m189.93,61.35H60.6V0h129.33v61.35Zm-128.58-.75h127.83V.75H61.35v59.85Z"/>
  <path class="cls-1" d="m189.93,21.51H60.6V0h129.33v21.51Zm-128.58-.75h127.83V.75H61.35v20.01Z"/>
  <path class="cls-1" d="m61.35,61.35H0V0h61.35v61.35Zm-60.6-.75h59.85V.75H.75v59.85Z"/>
  <path class="cls-1" d="m125.26,59.14c-30.5,0-55.32-7.87-55.32-17.55s24.82-17.55,55.32-17.55,55.32,7.87,55.32,17.55-24.82,17.55-55.32,17.55Zm0-34.35c-30.09,0-54.57,7.54-54.57,16.8s24.48,16.8,54.57,16.8,54.57-7.54,54.57-16.8-24.48-16.8-54.57-16.8Z"/>
  <path class="cls-1" d="m125.26,59.14c-19.23,0-34.88-7.87-34.88-17.55s15.65-17.55,34.88-17.55,34.88,7.87,34.88,17.55-15.65,17.55-34.88,17.55Zm0-34.35c-18.82,0-34.13,7.54-34.13,16.8s15.31,16.8,34.13,16.8,34.13-7.54,34.13-16.8-15.31-16.8-34.13-16.8Z"/>
  <rect class="cls-1" x="124.89" y="24.41" width=".75" height="34.35"/>
  <path class="cls-1" d="m125.26,59.14c-24.73,0-44.84-7.87-44.84-17.55s20.12-17.55,44.84-17.55,44.84,7.87,44.84,17.55-20.12,17.55-44.84,17.55Zm0-34.35c-24.31,0-44.09,7.54-44.09,16.8s19.78,16.8,44.09,16.8,44.09-7.54,44.09-16.8-19.78-16.8-44.09-16.8Z"/>
  <path class="cls-1" d="m125.26,59.14c-12.48,0-22.62-7.87-22.62-17.55s10.15-17.55,22.62-17.55,22.62,7.87,22.62,17.55-10.15,17.55-22.62,17.55Zm0-34.35c-12.06,0-21.88,7.54-21.88,16.8s9.81,16.8,21.88,16.8,21.88-7.54,21.88-16.8-9.81-16.8-21.88-16.8Z"/>
  <rect class="cls-1" x="70.32" y="41.22" width="109.89" height=".75"/>
  <g>
    <path class="cls-1" d="m10.84,28.55c.12.07.21.16.28.28s.1.25.1.38-.03.26-.1.38-.16.21-.28.28-.25.11-.38.11-.26-.04-.38-.11-.21-.16-.28-.28-.1-.24-.1-.38.03-.26.1-.38.16-.21.28-.28.25-.1.38-.1.26.03.38.1Z"/>
    <path class="cls-1" d="m21.29,21.65c-.13.05-.22.14-.27.28s-.07.36-.07.66v5.95c0,.3.02.52.07.66s.14.23.27.28.34.08.63.09v.24c-.38-.02-.88-.04-1.52-.04-.69,0-1.2.01-1.54.04v-.24c.29-.01.5-.04.63-.09s.22-.14.27-.28.07-.36.07-.66v-6.42l-2.89,7.75h-.19l-3.02-7.79v6.33c0,.31.03.54.08.7s.16.27.31.34.38.11.7.12v.24c-.29-.02-.69-.04-1.22-.04-.48,0-.85.01-1.11.04v-.24c.28-.01.48-.05.62-.12s.23-.18.28-.34.08-.39.08-.7v-5.83c0-.3-.02-.52-.07-.66s-.14-.23-.27-.28-.34-.08-.63-.09v-.24c.26.02.63.04,1.11.04.42,0,.76-.01,1.03-.04l2.64,6.96,2.58-6.93h.57c.64,0,1.15-.01,1.52-.04v.24c-.29.01-.5.04-.63.09Z"/>
    <path class="cls-1" d="m31.74,21.65c-.13.05-.22.14-.27.28s-.07.36-.07.66v5.95c0,.3.02.52.07.66s.14.23.27.28.34.08.63.09v.24c-.38-.02-.88-.04-1.52-.04-.69,0-1.2.01-1.54.04v-.24c.29-.01.5-.04.63-.09s.22-.14.27-.28.07-.36.07-.66v-6.42l-2.89,7.75h-.19l-3.02-7.79v6.33c0,.31.03.54.08.7s.16.27.31.34.38.11.7.12v.24c-.29-.02-.69-.04-1.22-.04-.48,0-.85.01-1.11.04v-.24c.28-.01.48-.05.62-.12s.23-.18.28-.34.08-.39.08-.7v-5.83c0-.3-.02-.52-.07-.66s-.14-.23-.27-.28-.34-.08-.63-.09v-.24c.26.02.63.04,1.11.04.42,0,.76-.01,1.03-.04l2.64,6.96,2.58-6.93h.57c.64,0,1.15-.01,1.52-.04v.24c-.29.01-.5.04-.63.09Z"/>
    <path class="cls-1" d="m35.81,21.65c-.13.05-.22.14-.27.28s-.07.36-.07.66v5.95c0,.3.02.52.07.65s.14.23.27.27.34.07.63.07h.88c.5,0,.88-.07,1.14-.21s.45-.37.56-.67.2-.76.27-1.36h.28c-.02.25-.04.58-.04.98,0,.45.03.96.08,1.54-.54-.02-1.46-.04-2.75-.04-1.54,0-2.7.01-3.48.04v-.24c.29-.01.5-.04.63-.09s.22-.14.27-.28.07-.36.07-.66v-5.95c0-.3-.02-.52-.07-.66s-.14-.23-.27-.28-.34-.08-.63-.09v-.24c.33.02.84.04,1.54.04.65,0,1.16-.01,1.52-.04v.24c-.29.01-.5.04-.63.09Z"/>
    <path class="cls-1" d="m47.01,29.34c-.06-.15-.13-.22-.23-.22-.05,0-.1.01-.15.04s-.13.08-.25.17c-.28.21-.57.38-.87.49s-.63.16-1,.16c-.82,0-1.53-.17-2.12-.51s-1.04-.83-1.35-1.47-.47-1.4-.47-2.29.17-1.72.5-2.41.79-1.22,1.37-1.59,1.25-.56,1.99-.56c.32,0,.61.03.86.1s.47.16.66.26.4.24.64.42c.1.08.18.12.24.12.15,0,.25-.24.3-.73h.28c-.03.52-.05,1.44-.05,2.76h-.28c-.07-.43-.15-.78-.23-1.06s-.21-.51-.38-.72c-.23-.29-.54-.52-.91-.69s-.76-.25-1.17-.25c-.53,0-.99.17-1.39.52s-.71.83-.93,1.47-.33,1.38-.33,2.23c0,.96.1,1.75.31,2.36s.52,1.07.94,1.36.96.44,1.61.44c.48,0,.9-.12,1.25-.38.14-.1.24-.19.28-.28s.06-.21.06-.38v-1.15c0-.33-.03-.58-.09-.73s-.18-.26-.34-.32-.42-.09-.78-.11v-.24c.39.03.96.04,1.69.04.56,0,.98-.01,1.25-.04v.24c-.19.02-.32.05-.4.1s-.13.14-.16.27-.04.35-.04.66v2.38h-.24c0-.16-.04-.32-.1-.47Z"/>
    <path class="cls-1" d="m50.26,28.55c.12.07.21.16.28.28s.1.25.1.38-.03.26-.1.38-.16.21-.28.28-.25.11-.38.11-.26-.04-.38-.11-.21-.16-.28-.28-.1-.24-.1-.38.03-.26.1-.38.16-.21.28-.28.25-.1.38-.1.26.03.38.1Z"/>
    <path class="cls-1" d="m21.51,31.65c-.13.05-.22.14-.27.28s-.07.36-.07.66v5.95c0,.3.02.52.07.66s.14.23.27.28.34.08.63.09v.24c-.38-.02-.88-.04-1.52-.04-.69,0-1.2.01-1.54.04v-.24c.29-.01.5-.04.63-.09s.22-.14.27-.28.07-.36.07-.66v-6.42l-2.89,7.75h-.19l-3.02-7.79v6.33c0,.31.03.54.08.7s.16.27.31.34.38.11.7.12v.24c-.29-.02-.69-.04-1.22-.04-.48,0-.85.01-1.11.04v-.24c.28-.01.48-.05.62-.12s.23-.18.28-.34.08-.39.08-.7v-5.83c0-.3-.02-.52-.07-.66s-.14-.23-.27-.28-.34-.08-.63-.09v-.24c.26.02.63.04,1.11.04.42,0,.76-.01,1.03-.04l2.64,6.96,2.58-6.93h.57c.64,0,1.15-.01,1.52-.04v.24c-.29.01-.5.04-.63.09Z"/>
    <path class="cls-1" d="m31.96,31.65c-.13.05-.22.14-.27.28s-.07.36-.07.66v5.95c0,.3.02.52.07.66s.14.23.27.28.34.08.63.09v.24c-.38-.02-.88-.04-1.52-.04-.69,0-1.2.01-1.54.04v-.24c.29-.01.5-.04.63-.09s.22-.14.27-.28.07-.36.07-.66v-6.42l-2.89,7.75h-.19l-3.02-7.79v6.33c0,.31.03.54.08.7s.16.27.31.34.38.11.7.12v.24c-.29-.02-.69-.04-1.22-.04-.48,0-.85.01-1.11.04v-.24c.28-.01.48-.05.62-.12s.23-.18.28-.34.08-.39.08-.7v-5.83c0-.3-.02-.52-.07-.66s-.14-.23-.27-.28-.34-.08-.63-.09v-.24c.26.02.63.04,1.11.04.42,0,.76-.01,1.03-.04l2.64,6.96,2.58-6.93h.57c.64,0,1.15-.01,1.52-.04v.24c-.29.01-.5.04-.63.09Z"/>
    <path class="cls-1" d="m40.08,39.32c.07.08.15.14.23.17s.18.06.3.06v.25c-.55-.03-.89-.05-1.03-.05-.27,0-.83.02-1.69.05v-.25c.31,0,.53-.01.66-.04s.19-.08.19-.15c0-.06-.03-.13-.09-.22l-2.05-3.14-1.29,1.93c-.3.45-.46.8-.46,1.05,0,.2.09.35.27.43s.45.13.79.14v.24c-.45-.02-.99-.04-1.62-.04-.44,0-.78.01-1.02.04v-.24c.24-.04.47-.14.68-.32s.44-.44.67-.78l1.81-2.7-2.35-3.6c-.1-.16-.19-.28-.26-.36s-.15-.14-.23-.17-.18-.06-.3-.06v-.25c.55.03.89.05,1.03.05.54,0,1.1-.02,1.69-.05v.25c-.54,0-.8.09-.8.26,0,.06.04.15.11.26l1.87,2.86,1.18-1.76c.35-.52.52-.9.52-1.15,0-.17-.08-.29-.23-.36s-.39-.11-.7-.12v-.24c.46.02.92.04,1.38.04.44,0,.78-.01,1.02-.04v.24c-.24.04-.47.14-.69.33s-.44.44-.67.78l-1.68,2.51,2.48,3.8c.1.16.19.28.26.36Z"/>
    <path class="cls-1" d="m47.69,39.32c.07.08.15.14.23.17s.18.06.3.06v.25c-.55-.03-.89-.05-1.03-.05-.27,0-.83.02-1.69.05v-.25c.31,0,.53-.01.66-.04s.19-.08.19-.15c0-.06-.03-.13-.09-.22l-2.05-3.14-1.29,1.93c-.3.45-.46.8-.46,1.05,0,.2.09.35.27.43s.45.13.79.14v.24c-.45-.02-.99-.04-1.62-.04-.44,0-.78.01-1.02.04v-.24c.24-.04.47-.14.68-.32s.44-.44.67-.78l1.81-2.7-2.35-3.6c-.1-.16-.19-.28-.26-.36s-.15-.14-.23-.17-.18-.06-.3-.06v-.25c.55.03.89.05,1.03.05.54,0,1.1-.02,1.69-.05v.25c-.54,0-.8.09-.8.26,0,.06.04.15.11.26l1.87,2.86,1.18-1.76c.35-.52.52-.9.52-1.15,0-.17-.08-.29-.23-.36s-.39-.11-.7-.12v-.24c.46.02.92.04,1.38.04.44,0,.78-.01,1.02-.04v.24c-.24.04-.47.14-.69.33s-.44.44-.67.78l-1.68,2.51,2.48,3.8c.1.16.19.28.26.36Z"/>
  </g>
  <g>
    <path class="cls-1" d="m83.48,5.99h.58c.28,0,.55,0,.82-.01.26,0,.49-.02.68-.02l-.06.24c-.27,0-.48.04-.64.09-.15.05-.27.15-.35.29s-.17.36-.25.65l-1.58,5.95c-.07.29-.1.5-.09.65.01.14.08.24.21.29s.32.08.59.1l-.05.24c-.18-.02-.41-.03-.67-.03-.26,0-.54,0-.82,0-.31,0-.61,0-.89,0-.28,0-.5.01-.67.03l.05-.24c.28-.02.49-.05.64-.1.15-.05.27-.14.35-.29.09-.14.17-.36.24-.65l1.74-6.47-4.98,7.8h-.26l-.82-7.9-1.7,6.44c-.07.29-.1.51-.1.68,0,.16.08.28.23.35.14.07.37.11.67.13l-.06.24c-.09,0-.2-.01-.34-.02-.14,0-.29,0-.44-.01-.15,0-.3,0-.43,0-.2,0-.4,0-.61,0-.21,0-.38.01-.52.03l.06-.24c.28-.02.5-.06.65-.13.15-.07.27-.18.37-.35.09-.16.17-.39.25-.68l1.56-5.83c.08-.3.11-.51.1-.65s-.09-.24-.21-.29c-.12-.05-.32-.08-.59-.09l.06-.24c.13,0,.29.02.47.02.19,0,.39.01.59.01.18,0,.37,0,.56-.01.19,0,.36-.02.49-.02l.66,7.12,4.51-7.08Z"/>
    <path class="cls-1" d="m86.05,14.24c.19,0,.41-.12.66-.37.25-.24.5-.57.76-.99.26-.42.49-.89.71-1.42.22-.53.39-1.08.52-1.64l-.2,1.3c-.3.85-.61,1.53-.91,2.05s-.61.89-.92,1.12-.63.34-.95.34c-.38,0-.66-.14-.85-.41-.19-.27-.28-.62-.28-1.04,0-.38.06-.8.19-1.25.13-.45.31-.9.53-1.35.23-.45.49-.86.79-1.22.3-.37.62-.66.97-.89.35-.22.7-.34,1.06-.34.28,0,.49.14.64.41.15.28.18.66.09,1.16l-.13.07c.06-.42.03-.77-.08-1.03-.11-.26-.3-.39-.55-.39-.21,0-.43.1-.65.31-.23.2-.45.48-.66.83-.21.35-.4.74-.58,1.17-.17.43-.31.88-.41,1.34s-.15.9-.15,1.33c0,.34.04.58.11.72s.18.2.31.2Zm3.02-5.95c.19,0,.38-.02.58-.05.19-.02.37-.06.53-.12l-1.5,5.3c-.02.07-.04.17-.07.28-.03.12-.03.22,0,.32.03.1.11.14.25.14.16,0,.32-.09.47-.26.15-.18.3-.5.46-.96l.14-.44h.23l-.3.88c-.11.32-.25.57-.4.75-.16.18-.32.31-.49.38-.17.08-.33.11-.49.11-.31,0-.53-.1-.66-.31-.1-.18-.13-.4-.08-.64.05-.24.1-.49.17-.74l1.18-4.64Z"/>
    <path class="cls-1" d="m91.68,14.45h-1.04l2.38-8c.08-.27.07-.47-.03-.6s-.35-.19-.74-.19l.07-.25c.44,0,.84-.05,1.19-.14s.68-.2.97-.35l-2.8,9.54Zm3.1-.77c-.03.18-.03.3,0,.38.03.08.11.11.24.11.16,0,.31-.09.45-.27.14-.18.29-.5.44-.95l.14-.44h.23l-.29.88c-.1.32-.23.57-.38.75-.15.18-.31.31-.49.38-.18.07-.37.11-.56.11-.26,0-.46-.09-.62-.27s-.2-.47-.11-.87l.22-1.03c.1-.46.05-.81-.15-1.03-.2-.22-.63-.35-1.3-.4v-.05c.3-.02.61-.02.93,0s.6.09.85.2c.25.11.44.27.56.48.13.21.16.49.08.83l-.24,1.2Zm1.06-5.32c-.1,0-.18.02-.25.05-.07.03-.13.07-.2.12-.15.12-.28.28-.38.49-.1.2-.21.42-.31.65-.1.23-.23.45-.38.65s-.35.37-.6.5-.57.19-.97.18h-.12s.02-.12.02-.12c.39-.02.71-.1.94-.24.24-.14.42-.3.56-.5.14-.2.26-.41.35-.63.1-.22.2-.43.3-.63.1-.2.24-.36.41-.49.14-.11.27-.19.39-.22.12-.04.23-.05.33-.05.28,0,.47.07.58.21.1.14.15.31.13.5,0,.1-.04.2-.08.32-.05.12-.12.22-.22.31-.1.09-.23.13-.39.13-.18,0-.3-.05-.37-.16s-.1-.23-.1-.35c0-.11.05-.23.12-.37.07-.13.16-.25.26-.34h-.02Z"/>
    <path class="cls-1" d="m97.93,11.73c.45-.15.85-.3,1.22-.45.36-.15.65-.31.87-.47.29-.23.52-.51.68-.84s.25-.69.25-1.08c0-.23-.02-.38-.05-.44-.03-.06-.08-.1-.14-.1-.2,0-.42.09-.65.26-.23.18-.46.42-.68.73-.22.31-.43.66-.62,1.05-.19.39-.34.81-.45,1.25-.11.44-.17.89-.17,1.33,0,.41.08.7.23.88s.35.27.6.27c.29,0,.59-.09.91-.26.32-.18.63-.49.94-.94l.19.1c-.15.26-.35.52-.6.77s-.53.45-.83.61c-.31.16-.63.23-.98.23-.32,0-.6-.06-.84-.19-.24-.13-.42-.32-.55-.57-.13-.25-.19-.56-.19-.93,0-.34.06-.73.19-1.16.13-.43.31-.86.55-1.28.24-.43.52-.82.85-1.18s.69-.65,1.09-.86c.4-.22.83-.32,1.28-.32.25,0,.46.07.63.2.17.13.26.33.26.59,0,.32-.09.62-.28.89-.19.28-.44.53-.74.76s-.64.43-1,.61c-.36.18-.71.33-1.06.46-.34.13-.65.23-.91.31v-.2Z"/>
    <path class="cls-1" d="m106.56,14.45h-1.04l1.44-5.15c.02-.07.05-.17.07-.28.02-.12.02-.22,0-.32-.02-.1-.1-.14-.23-.14-.18,0-.34.09-.48.28-.14.18-.3.5-.46.95l-.16.44h-.23l.3-.88c.12-.34.26-.59.43-.77.16-.18.34-.3.52-.37.18-.07.35-.1.51-.1.24,0,.41.05.52.16.1.11.16.25.17.42.01.17,0,.35-.04.55s-.08.38-.13.55l-1.18,4.66Zm3.4-4.94c.06-.17.09-.33.11-.48s0-.28-.04-.38-.14-.15-.29-.15c-.22,0-.47.14-.74.41-.27.28-.54.66-.82,1.15-.28.49-.54,1.06-.8,1.72-.26.65-.48,1.35-.68,2.09l.4-1.92c.37-.96.71-1.72,1.03-2.28.32-.56.64-.96.97-1.2.32-.24.67-.36,1.04-.36.26,0,.44.06.56.17.12.12.19.27.21.45.02.18.02.38-.02.59s-.08.41-.13.6l-1.22,4.52h-1.08l1.5-4.94Zm3,0c.08-.25.12-.48.12-.69s-.09-.32-.26-.32c-.24,0-.49.14-.76.42-.26.28-.54.68-.82,1.19s-.56,1.12-.83,1.81c-.28.69-.54,1.45-.8,2.29l.28-1.54c.31-.83.6-1.54.86-2.12.26-.58.52-1.05.78-1.41.26-.36.52-.62.79-.79.27-.16.57-.25.89-.25.34,0,.56.1.68.29.12.19.17.43.15.7-.02.28-.07.55-.16.82l-1.16,3.5c-.08.25-.11.43-.08.56.02.12.12.19.28.19s.3-.08.45-.25c.15-.17.31-.49.47-.97l.16-.44h.23l-.3.88c-.11.34-.25.59-.41.77-.16.18-.34.3-.52.37s-.35.1-.52.1c-.2,0-.36-.03-.47-.09s-.21-.14-.27-.23c-.1-.15-.13-.34-.1-.57.03-.23.1-.49.19-.79l1.14-3.43Z"/>
    <path class="cls-1" d="m115.82,11.73c.45-.15.85-.3,1.22-.45.36-.15.65-.31.87-.47.29-.23.52-.51.68-.84s.25-.69.25-1.08c0-.23-.02-.38-.05-.44-.03-.06-.08-.1-.14-.1-.2,0-.42.09-.65.26-.23.18-.46.42-.68.73-.22.31-.43.66-.62,1.05-.19.39-.34.81-.45,1.25-.11.44-.17.89-.17,1.33,0,.41.08.7.23.88s.35.27.6.27c.29,0,.59-.09.91-.26.32-.18.63-.49.94-.94l.19.1c-.15.26-.35.52-.6.77s-.53.45-.83.61c-.31.16-.63.23-.98.23-.32,0-.6-.06-.84-.19-.24-.13-.42-.32-.55-.57-.13-.25-.19-.56-.19-.93,0-.34.06-.73.19-1.16.13-.43.31-.86.55-1.28.24-.43.52-.82.85-1.18s.69-.65,1.09-.86c.4-.22.83-.32,1.28-.32.25,0,.46.07.63.2.17.13.26.33.26.59,0,.32-.09.62-.28.89-.19.28-.44.53-.74.76s-.64.43-1,.61c-.36.18-.71.33-1.06.46-.34.13-.65.23-.91.31v-.2Z"/>
    <path class="cls-1" d="m124.22,13.43c-.06.23-.08.41-.06.55.02.13.11.2.26.2.16,0,.31-.09.45-.27.14-.18.29-.5.45-.95l.16-.44h.23l-.3.88c-.1.3-.23.55-.38.73-.15.18-.31.31-.49.39-.18.08-.37.12-.58.12-.26,0-.46-.05-.58-.15s-.2-.23-.23-.4c-.03-.17-.02-.35.01-.55.04-.2.08-.39.14-.58l1.96-6.49c.08-.27.07-.47-.02-.6s-.34-.19-.73-.19l.08-.25c.44,0,.83-.05,1.16-.14s.66-.2.97-.35l-2.51,8.52Z"/>
    <path class="cls-1" d="m126.57,12.74c0-.35.05-.74.14-1.15.1-.42.24-.83.43-1.24.19-.41.43-.78.7-1.12.28-.34.6-.61.97-.81.37-.2.78-.31,1.22-.31.5,0,.89.15,1.19.46.3.31.45.78.45,1.42,0,.35-.05.74-.14,1.15-.1.42-.24.83-.43,1.24s-.43.78-.7,1.12c-.28.34-.6.61-.97.81-.37.2-.78.31-1.22.31-.5,0-.89-.16-1.19-.47s-.45-.78-.45-1.42Zm3.4-4.38c-.26,0-.5.1-.74.31-.24.2-.45.48-.65.83s-.37.74-.52,1.17c-.15.43-.26.88-.34,1.34-.08.46-.12.91-.12,1.33,0,.36.06.62.17.79.12.17.29.25.51.25.26,0,.5-.1.74-.31.24-.2.45-.48.65-.83.2-.35.37-.74.52-1.17s.26-.88.34-1.34.12-.91.12-1.34c0-.37-.06-.63-.17-.8-.11-.16-.28-.25-.52-.25Z"/>
    <path class="cls-1" d="m132.43,12.74c0-.35.05-.74.14-1.15.1-.42.24-.83.43-1.24.19-.41.43-.78.7-1.12.28-.34.6-.61.97-.81.37-.2.78-.31,1.22-.31.5,0,.89.15,1.19.46.3.31.45.78.45,1.42,0,.35-.05.74-.14,1.15-.1.42-.24.83-.43,1.24s-.43.78-.7,1.12c-.28.34-.6.61-.97.81-.37.2-.78.31-1.22.31-.5,0-.89-.16-1.19-.47s-.45-.78-.45-1.42Zm3.4-4.38c-.26,0-.5.1-.74.31-.24.2-.45.48-.65.83s-.37.74-.52,1.17c-.15.43-.26.88-.34,1.34-.08.46-.12.91-.12,1.33,0,.36.06.62.17.79.12.17.29.25.51.25.26,0,.5-.1.74-.31.24-.2.45-.48.65-.83.2-.35.37-.74.52-1.17s.26-.88.34-1.34.12-.91.12-1.34c0-.37-.06-.63-.17-.8-.11-.16-.28-.25-.52-.25Z"/>
    <path class="cls-1" d="m138.97,14.45h-1.04l2.38-8c.08-.27.07-.47-.03-.6-.1-.13-.35-.19-.74-.19l.07-.25c.44,0,.84-.05,1.19-.14.35-.08.68-.2.97-.35l-2.8,9.54Zm3.1-.77c-.03.18-.03.3,0,.38.03.08.11.11.24.11.16,0,.31-.09.45-.27.14-.18.29-.5.44-.95l.14-.44h.23l-.29.88c-.1.32-.23.57-.38.75-.15.18-.31.31-.49.38-.18.07-.37.11-.56.11-.26,0-.46-.09-.62-.27-.16-.18-.2-.47-.11-.87l.22-1.03c.1-.46.05-.81-.15-1.03-.2-.22-.63-.35-1.3-.4v-.05c.3-.02.61-.02.93,0,.32.02.6.09.85.2.25.11.44.27.56.48.13.21.16.49.08.83l-.24,1.2Zm1.06-5.32c-.1,0-.18.02-.25.05-.07.03-.13.07-.2.12-.15.12-.28.28-.38.49-.1.2-.21.42-.31.65-.1.23-.23.45-.38.65-.15.2-.35.37-.6.5s-.57.19-.97.18h-.12s.02-.12.02-.12c.39-.02.71-.1.94-.24.24-.14.42-.3.56-.5.14-.2.26-.41.35-.63.1-.22.2-.43.3-.63.1-.2.24-.36.41-.49.14-.11.27-.19.39-.22.12-.04.23-.05.33-.05.28,0,.47.07.58.21.1.14.15.31.13.5,0,.1-.04.2-.08.32-.05.12-.12.22-.22.31-.1.09-.23.13-.39.13-.18,0-.3-.05-.37-.16s-.1-.23-.1-.35c0-.11.05-.23.12-.37.07-.13.16-.25.26-.34h-.02Z"/>
    <path class="cls-1" d="m149.84,11.75h.3c-.29.17-.55.32-.8.45s-.44.25-.59.37c-.15.11-.23.22-.23.32,0,.08.06.15.17.22.11.07.3.13.55.2l.88.23c.26.06.49.14.69.22s.37.19.49.32.18.3.18.5-.07.43-.2.68c-.13.25-.34.49-.61.73-.28.23-.63.42-1.07.58-.44.15-.97.23-1.6.23-.42,0-.77-.04-1.05-.11-.28-.08-.5-.18-.64-.32-.14-.14-.21-.29-.21-.47,0-.13.04-.26.11-.4.07-.14.18-.28.32-.41.14-.13.32-.26.53-.37.21-.12.46-.21.75-.29l.08.18c-.3.15-.5.32-.61.52-.11.19-.17.38-.17.58,0,.32.11.55.34.69.22.14.5.21.83.21.26,0,.54-.04.82-.13.28-.08.54-.2.78-.34.24-.14.43-.3.58-.49.14-.18.22-.38.22-.58,0-.12-.04-.2-.11-.24s-.2-.08-.38-.12l-1.84-.47c-.19-.05-.35-.13-.47-.25-.12-.12-.18-.27-.18-.47,0-.16.06-.32.17-.49.11-.17.32-.35.64-.56.31-.2.76-.44,1.36-.71Zm.66-3.64c.47,0,.85.11,1.15.32.29.21.44.55.44,1.03,0,.38-.11.76-.32,1.14s-.52.69-.91.93c-.39.24-.86.37-1.39.37-.44,0-.81-.11-1.11-.32-.3-.21-.45-.54-.45-.99,0-.22.05-.47.14-.75.09-.28.24-.56.44-.82.2-.26.47-.48.8-.65.33-.17.74-.26,1.23-.26Zm-.05.22c-.26,0-.47.07-.65.22s-.32.34-.44.56c-.12.23-.2.47-.26.71-.06.25-.1.47-.13.68-.02.2-.04.35-.04.45,0,.26.06.44.17.55.12.11.27.17.46.17.3,0,.55-.09.74-.28.19-.18.33-.41.44-.68s.17-.54.21-.82.05-.5.05-.68c0-.27-.04-.49-.11-.65s-.22-.24-.46-.24Zm.9.41l-.22-.08c.11-.27.3-.51.58-.72.27-.21.56-.31.85-.31.21,0,.38.06.5.17.13.12.19.3.19.55,0,.22-.06.39-.17.49-.11.1-.23.16-.36.16s-.25-.04-.37-.13c-.12-.08-.19-.22-.21-.4-.02-.18.03-.42.16-.71l.16.04c-.34.13-.58.26-.72.4-.14.14-.28.32-.4.55Z"/>
    <path class="cls-1" d="m152.89,12.74c0-.35.05-.74.14-1.15.1-.42.24-.83.43-1.24.19-.41.43-.78.7-1.12.28-.34.6-.61.97-.81.37-.2.78-.31,1.22-.31.5,0,.89.15,1.19.46.3.31.45.78.45,1.42,0,.35-.05.74-.14,1.15-.1.42-.24.83-.43,1.24s-.43.78-.7,1.12c-.28.34-.6.61-.97.81-.37.2-.78.31-1.22.31-.5,0-.89-.16-1.19-.47s-.45-.78-.45-1.42Zm3.4-4.38c-.26,0-.5.1-.74.31-.24.2-.45.48-.65.83s-.37.74-.52,1.17c-.15.43-.26.88-.34,1.34-.08.46-.12.91-.12,1.33,0,.36.06.62.17.79.12.17.29.25.51.25.26,0,.5-.1.74-.31.24-.2.45-.48.65-.83.2-.35.37-.74.52-1.17s.26-.88.34-1.34.12-.91.12-1.34c0-.37-.06-.63-.17-.8-.11-.16-.28-.25-.52-.25Z"/>
    <path class="cls-1" d="m158.75,12.74c0-.35.05-.74.14-1.15.1-.42.24-.83.43-1.24.19-.41.43-.78.7-1.12.28-.34.6-.61.97-.81.37-.2.78-.31,1.22-.31.5,0,.89.15,1.19.46.3.31.45.78.45,1.42,0,.35-.05.74-.14,1.15-.1.42-.24.83-.43,1.24s-.43.78-.7,1.12c-.28.34-.6.61-.97.81-.37.2-.78.31-1.22.31-.5,0-.89-.16-1.19-.47s-.45-.78-.45-1.42Zm3.4-4.38c-.26,0-.5.1-.74.31-.24.2-.45.48-.65.83s-.37.74-.52,1.17c-.15.43-.26.88-.34,1.34-.08.46-.12.91-.12,1.33,0,.36.06.62.17.79.12.17.29.25.51.25.26,0,.5-.1.74-.31.24-.2.45-.48.65-.83.2-.35.37-.74.52-1.17s.26-.88.34-1.34.12-.91.12-1.34c0-.37-.06-.63-.17-.8-.11-.16-.28-.25-.52-.25Z"/>
    <path class="cls-1" d="m166.09,14.24c.2,0,.43-.12.68-.35s.51-.56.77-.96c.26-.4.5-.86.72-1.38.22-.52.39-1.05.52-1.6l-.18,1.3c-.31.82-.62,1.48-.93,1.98-.31.5-.62.85-.94,1.07-.32.22-.65.33-.99.33-.25,0-.47-.06-.65-.17-.19-.12-.33-.29-.44-.52-.1-.23-.16-.53-.16-.89,0-.38.06-.8.19-1.24.12-.44.3-.88.53-1.31.23-.43.51-.83.83-1.18s.68-.64,1.07-.86c.39-.22.81-.32,1.25-.32.18,0,.36.07.52.21s.25.35.26.63l-.1.24c-.03-.29-.11-.49-.24-.62s-.27-.19-.43-.19c-.3,0-.6.1-.88.31-.28.21-.54.48-.77.83s-.44.73-.61,1.15-.31.85-.41,1.28c-.1.44-.14.85-.14,1.23,0,.35.04.61.13.79.09.17.22.26.4.26Zm2.69-.8c-.06.18-.08.35-.07.51.01.16.11.23.28.23.16,0,.31-.09.44-.27.14-.18.28-.5.43-.95l.14-.44h.23l-.28.88c-.1.32-.22.57-.38.75-.16.18-.33.31-.5.38-.18.07-.34.11-.5.11-.48,0-.73-.23-.76-.68,0-.13,0-.28.03-.44s.07-.35.13-.55l1.73-6.49c.07-.27.06-.47-.04-.6-.1-.13-.34-.19-.73-.19l.07-.25c.44,0,.83-.05,1.16-.14s.66-.2.96-.35l-2.35,8.52Z"/>
    <path class="cls-1" d="m173.97,14.01c0-.24.09-.45.28-.64.18-.19.39-.28.61-.28.18,0,.33.06.44.18s.17.27.17.44c0,.16-.04.31-.13.45s-.19.25-.33.34-.28.13-.44.13c-.18,0-.32-.06-.43-.17-.11-.12-.17-.26-.17-.44Zm1.04-1.94c.22-.85.41-1.68.55-2.51.14-.82.27-1.59.38-2.29.11-.7.23-1.28.35-1.73.02-.07.05-.14.08-.2.03-.06.07-.11.12-.15.05-.04.1-.07.16-.09.06-.02.12-.03.18-.03.25,0,.41.08.49.23.08.15.08.32.02.52-.09.32-.22.71-.38,1.16s-.35.95-.56,1.51c-.2.55-.41,1.13-.61,1.75s-.39,1.24-.56,1.88l-.22-.04Z"/>
  </g>
</svg>