<?xml version="1.0" encoding="UTF-8"?>
<svg id="Layer_1" data-name="Layer 1" xmlns="http://www.w3.org/2000/svg" viewBox="0 0 83.81 161.88">
  <defs>
    <style>
      .cls-1 {
        fill: #010101;
      }

      .cls-1, .cls-2 {
        stroke: #fff;
        stroke-miterlimit: 10;
      }

      .cls-2 {
        fill: #fff;
      }
    </style>
  </defs>
  <path class="cls-1" d="m52.42,161.38c-6,0-10.89-4.89-10.89-10.89v-37c-1.59,4.05-5.54,6.92-10.14,6.92-6.01,0-10.89-4.89-10.89-10.89v-32.17C8.16,69.88.5,56.32.5,41.9.5,19.07,19.07.5,41.91.5s41.4,18.57,41.4,41.4c0,14.41-7.66,27.97-20,35.44v73.14c0,6-4.89,10.89-10.89,10.89Zm-10.14-51.87v40.98c0,5.59,4.55,10.14,10.14,10.14s10.14-4.55,10.14-10.14v-73.57l.18-.11c12.22-7.31,19.81-20.69,19.81-34.91C82.56,19.49,64.32,1.25,41.91,1.25S1.25,19.49,1.25,41.9c0,14.22,7.59,27.6,19.81,34.91l.18.11v32.59c0,5.59,4.55,10.14,10.14,10.14s10.14-4.55,10.14-10.14h.75Z"/>
  <g>
    <polygon class="cls-2" points="41.9 15.49 44.99 38.22 67.73 41.31 44.99 44.4 41.9 67.13 38.82 44.4 16.08 41.31 38.82 38.22 41.9 15.49"/>
    <path class="cls-1" d="m41.9,69.92l-3.42-25.19-25.18-3.42,25.18-3.42,3.42-25.18,3.42,25.18,25.19,3.42-25.19,3.42-3.42,25.19Zm-23.04-28.61l20.28,2.76,2.76,20.28,2.76-20.28,20.28-2.76-20.28-2.76-2.76-20.28-2.76,20.28-20.28,2.76Z"/>
  </g>
</svg>