<?xml version="1.0" encoding="UTF-8"?>
<svg id="uuid-6a66daca-40df-4fd0-b520-61df7a06ef8d" data-name="uuid-6623818f-7643-41dc-8de9-56485a6dc990" xmlns="http://www.w3.org/2000/svg" viewBox="0 0 1908.96 312.94">
  <defs>
    <style>
      .uuid-f74452f9-4f1a-4371-8429-6d88cf46a3ee {
        fill: #fff;
        stroke-width: 0px;
      }
      .st0{fill:#FFFFFF;}
	.st1{fill:#FFFFFF;}
	.st2{fill:#FFFFFF;}
    </style>
  </defs>
  <g>
    <polygon class="st2" points="524.06 205.39 506.18 205.39 561.38 112.86 579.26 112.86 524.06 205.39"/>
    <polygon class="st2" points="572.17 205.39 554.29 205.39 609.49 112.86 627.37 112.86 572.17 205.39"/>
    <polygon class="st2" points="620.27 205.39 602.4 205.39 657.6 112.86 675.48 112.86 620.27 205.39"/>
    <polygon class="st2" points="668.38 205.39 650.5 205.39 705.71 112.86 723.58 112.86 668.38 205.39"/>
    <polygon class="st2" points="716.49 205.39 698.61 205.39 753.81 112.86 771.69 112.86 716.49 205.39"/>
    <polygon class="st2" points="764.6 205.39 746.72 205.39 801.92 112.86 819.8 112.86 764.6 205.39"/>
  </g>
  <polygon class="uuid-f74452f9-4f1a-4371-8429-6d88cf46a3ee" points="35.49 0 35.49 6.5 7.17 6.5 7.17 34.82 .67 34.82 .67 0 35.49 0"/>
  <polygon class="uuid-f74452f9-4f1a-4371-8429-6d88cf46a3ee" points="1874.14 1 1874.14 7.5 1902.46 7.5 1902.46 35.82 1908.96 35.82 1908.96 1 1874.14 1"/>
  <polygon class="uuid-f74452f9-4f1a-4371-8429-6d88cf46a3ee" points="34.82 312.94 34.82 306.45 6.5 306.45 6.5 278.12 0 278.12 0 312.94 34.82 312.94"/>
  <polygon class="uuid-f74452f9-4f1a-4371-8429-6d88cf46a3ee" points="1874.14 311.94 1874.14 305.45 1902.46 305.45 1902.46 277.12 1908.96 277.12 1908.96 311.94 1874.14 311.94"/>
  <g>
    <rect class="uuid-f74452f9-4f1a-4371-8429-6d88cf46a3ee" x="1673.36" y="66.59" width="2.15" height="50.44"/>
    <rect class="uuid-f74452f9-4f1a-4371-8429-6d88cf46a3ee" x="1677.66" y="66.59" width="2.15" height="50.44"/>
    <rect class="uuid-f74452f9-4f1a-4371-8429-6d88cf46a3ee" x="1681.97" y="66.59" width="4.3" height="50.44"/>
    <rect class="uuid-f74452f9-4f1a-4371-8429-6d88cf46a3ee" x="1692.72" y="66.59" width="2.15" height="50.44"/>
    <rect class="uuid-f74452f9-4f1a-4371-8429-6d88cf46a3ee" x="1697.02" y="66.59" width="2.15" height="50.44"/>
    <rect class="uuid-f74452f9-4f1a-4371-8429-6d88cf46a3ee" x="1707.77" y="66.59" width="2.15" height="50.44"/>
    <rect class="uuid-f74452f9-4f1a-4371-8429-6d88cf46a3ee" x="1712.07" y="66.59" width="8.6" height="50.44"/>
    <rect class="uuid-f74452f9-4f1a-4371-8429-6d88cf46a3ee" x="1722.83" y="66.59" width="2.15" height="50.44"/>
    <rect class="uuid-f74452f9-4f1a-4371-8429-6d88cf46a3ee" x="1727.13" y="66.59" width="2.15" height="50.44"/>
    <rect class="uuid-f74452f9-4f1a-4371-8429-6d88cf46a3ee" x="1735.73" y="66.59" width="4.3" height="50.44"/>
    <rect class="uuid-f74452f9-4f1a-4371-8429-6d88cf46a3ee" x="1742.18" y="66.59" width="6.45" height="50.44"/>
    <rect class="uuid-f74452f9-4f1a-4371-8429-6d88cf46a3ee" x="1752.93" y="66.59" width="2.15" height="50.44"/>
    <rect class="uuid-f74452f9-4f1a-4371-8429-6d88cf46a3ee" x="1757.23" y="66.59" width="2.15" height="50.44"/>
    <rect class="uuid-f74452f9-4f1a-4371-8429-6d88cf46a3ee" x="1767.99" y="66.59" width="2.15" height="50.44"/>
    <rect class="uuid-f74452f9-4f1a-4371-8429-6d88cf46a3ee" x="1772.29" y="66.59" width="2.15" height="50.44"/>
    <rect class="uuid-f74452f9-4f1a-4371-8429-6d88cf46a3ee" x="1776.59" y="66.59" width="2.15" height="50.44"/>
    <rect class="uuid-f74452f9-4f1a-4371-8429-6d88cf46a3ee" x="1780.89" y="66.59" width="2.15" height="50.44"/>
    <rect class="uuid-f74452f9-4f1a-4371-8429-6d88cf46a3ee" x="1785.19" y="66.59" width="6.45" height="50.44"/>
    <rect class="uuid-f74452f9-4f1a-4371-8429-6d88cf46a3ee" x="1795.94" y="66.59" width="2.15" height="50.44"/>
    <rect class="uuid-f74452f9-4f1a-4371-8429-6d88cf46a3ee" x="1802.4" y="66.59" width="6.45" height="50.44"/>
    <rect class="uuid-f74452f9-4f1a-4371-8429-6d88cf46a3ee" x="1811" y="66.59" width="4.3" height="50.44"/>
    <rect class="uuid-f74452f9-4f1a-4371-8429-6d88cf46a3ee" x="1817.45" y="66.59" width="4.3" height="50.44"/>
    <rect class="uuid-f74452f9-4f1a-4371-8429-6d88cf46a3ee" x="1826.05" y="66.59" width="2.15" height="50.44"/>
    <rect class="uuid-f74452f9-4f1a-4371-8429-6d88cf46a3ee" x="1832.5" y="66.59" width="6.45" height="50.44"/>
    <rect class="uuid-f74452f9-4f1a-4371-8429-6d88cf46a3ee" x="1841.11" y="66.59" width="2.15" height="50.44"/>
    <rect class="uuid-f74452f9-4f1a-4371-8429-6d88cf46a3ee" x="1851.86" y="66.59" width="2.15" height="50.44"/>
    <rect class="uuid-f74452f9-4f1a-4371-8429-6d88cf46a3ee" x="1856.16" y="66.59" width="6.45" height="50.44"/>
    <rect class="uuid-f74452f9-4f1a-4371-8429-6d88cf46a3ee" x="1866.91" y="66.59" width="2.15" height="50.44"/>
    <rect class="uuid-f74452f9-4f1a-4371-8429-6d88cf46a3ee" x="1871.21" y="66.59" width="2.15" height="50.44"/>
    <rect class="uuid-f74452f9-4f1a-4371-8429-6d88cf46a3ee" x="1875.52" y="66.59" width="2.15" height="50.44"/>
  </g>
  <g>
    <path class="st1" d="m34.47,80.4h25.18c8.22.14,14.06,2.78,17.51,7.91,3.34,5.09,4.99,10.99,4.94,17.72.12,16.85-8.37,25.44-25.45,25.77h-22.18v-51.4Zm15.32,38.25h6c2.43,0,4.37-.46,5.8-1.38,1.46-.92,2.56-2.02,3.31-3.31.73-1.34,1.24-2.74,1.53-4.2.23-1.48.34-2.8.34-3.95,0-.92-.07-2.06-.21-3.42-.23-1.34-.76-2.68-1.6-4.02-.8-1.36-2.01-2.53-3.65-3.49-1.64-.89-3.84-1.34-6.62-1.34h-4.91v25.11Z"/>
    <path class="st1" d="m89.77,106.66h21.79v11.81h-21.79v-11.81Z"/>
    <path class="st1" d="m118.76,80.4h29.85c4.59,0,8.49,1.22,11.69,3.66,3.18,2.46,4.81,6.14,4.9,11.04,0,2.72-.6,5.29-1.79,7.7-1.31,2.34-3.28,4.07-5.91,5.17,4.41,1.88,6.93,6.15,7.56,12.83.09.61.16,1.39.21,2.36.09.96.16,1.99.2,3.09.18,2.32.6,4.17,1.26,5.55h-15.35c-.68-2.61-1.09-5.25-1.23-7.93-.05-1.27-.18-2.52-.4-3.77-.19-1.15-.53-2.21-1.02-3.17-.46-.96-1.16-1.73-2.1-2.29-.94-.54-2.23-.81-3.85-.81h-8.71v17.96h-15.33v-51.4Zm15.33,22.46h8.58c1.67.05,3.26-.25,4.77-.88,1.58-.61,2.39-2.03,2.44-4.25,0-1.66-.55-2.93-1.64-3.8-1.24-.87-3.39-1.3-6.47-1.3h-7.67v10.23Z"/>
    <path class="st1" d="m171.61,106.1c.04-8.02,2.4-14.47,7.05-19.37,4.5-4.94,10.56-7.46,18.19-7.56,7.72.09,13.84,2.61,18.36,7.56,4.54,4.9,6.83,11.36,6.88,19.37-.05,7.97-2.34,14.4-6.88,19.3-4.52,4.99-10.64,7.54-18.36,7.63-7.63-.09-13.69-2.64-18.19-7.63-4.65-4.9-7.01-11.33-7.05-19.3Zm15.32,0c0,2.8.35,5.11,1.06,6.94.66,1.86,1.5,3.31,2.52,4.37,2.14,1.93,4.25,2.87,6.34,2.82.98,0,2.07-.21,3.27-.63,1.16-.45,2.23-1.17,3.2-2.19,1.04-1.06,1.89-2.51,2.52-4.37.61-1.83.92-4.15.92-6.94s-.31-5.28-.92-7.16c-.64-1.88-1.48-3.3-2.52-4.27-2.18-1.88-4.34-2.78-6.48-2.71-.98,0-2.02.17-3.14.49-1.11.42-2.18,1.16-3.2,2.22-.48.49-.92,1.08-1.33,1.76-.43.71-.83,1.54-1.19,2.5-.7,1.88-1.06,4.27-1.06,7.16Z"/>
    <path class="st1" d="m261.74,99.54c-.05-.54-.18-1.25-.41-2.12-.27-.82-.69-1.63-1.26-2.43-.54-.92-1.34-1.67-2.38-2.26-1.02-.52-2.34-.78-3.95-.78-3.49.09-5.96,1.59-7.39,4.48-1.45,2.82-2.16,6.04-2.11,9.66-.05,3.62.66,6.84,2.11,9.66,1.43,2.94,3.89,4.43,7.39,4.48,2.54,0,4.45-.83,5.72-2.5,1.2-1.6,1.99-3.62,2.35-6.06h15.09c-.05,5.41-2,10.25-5.86,14.51-3.86,4.43-9.49,6.71-16.89,6.85-8.04-.09-14.25-2.71-18.63-7.84-4.4-4.99-6.61-11.36-6.61-19.09.04-8.25,2.34-14.78,6.88-19.58,4.47-4.85,10.59-7.3,18.36-7.35,13.67.37,21.18,7.17,22.54,20.37h-14.96Z"/>
    <path class="st1" d="m285.45,80.4h15.32v17.72h.14l13.66-17.72h18.91l-18.06,20.04,20.98,31.36h-19.11l-12.3-20-4.22,4.82v15.19h-15.32v-51.4Z"/>
    <path class="st1" d="m69.93,185.3c0,13.39-6.35,19.96-19.05,19.73-12.56-.28-18.77-6.45-18.63-18.5v-4.33h13.77v2.96c-.05,2.02.15,3.77.6,5.24.45,1.55,1.75,2.35,3.9,2.39,2.1-.09,3.33-1.03,3.71-2.81.3-1.69.42-3.18.37-4.46v-33.12h15.33v32.9Z"/>
    <path class="st1" d="m78.45,152.4h41.19v13.15h-25.87v6.44h23.49v12.23h-23.49v6.44h26.65v13.15h-41.98v-51.4Z"/>
    <path class="st1" d="m142.93,152.4h14.99l18.15,51.4h-15.91l-2.08-7.34h-15.84l-2.25,7.34h-15.39l18.32-51.4Zm12.06,33.08l-4.46-15.89h-.14l-4.8,15.89h9.4Z"/>
    <path class="st1" d="m181.21,152.4h15.7l14.47,27.5h.17v-27.5h14.48v51.4h-14.95l-15.26-28.09h-.14v28.09h-14.48v-51.4Z"/>
    <path class="st1" d="m247.93,186.53c0,1.29.18,2.42.54,3.38.65,1.48,1.76,2.46,3.31,2.96,1.48.52,2.99.77,4.54.77,1.43.05,2.91-.26,4.43-.91,1.5-.68,2.28-1.93,2.33-3.76.05-1.29-.68-2.32-2.18-3.09-1.57-.73-4.55-1.66-8.93-2.81-2.06-.56-4.08-1.18-6.05-1.86-2.06-.68-3.92-1.55-5.59-2.6-1.69-1.05-3.06-2.45-4.11-4.18-1.1-1.62-1.65-3.7-1.65-6.26.09-5.95,2.18-10.29,6.26-13.01,3.9-2.65,8.51-3.97,13.82-3.97,5.56-.05,10.35,1.15,14.37,3.58,3.9,2.6,6.04,6.98,6.4,13.15h-14.52c.18-1.91-.42-3.27-1.81-4.09-1.36-.84-2.87-1.26-4.53-1.26-1.14,0-2.31.21-3.51.63-.55.23-1.01.57-1.4,1.02-.41.47-.61,1.07-.61,1.79.09.87.58,1.58,1.47,2.14.84.63,1.93,1.18,3.27,1.65,2.84.87,6.08,1.76,9.71,2.67,1.93.49,3.78,1.09,5.55,1.79,1.74.68,3.32,1.59,4.75,2.74,1.45,1.15,2.6,2.54,3.44,4.18.77,1.73,1.16,3.77,1.16,6.12-.14,6.59-2.6,11.19-7.4,13.82-4.72,2.65-10.07,3.95-16.04,3.9-1.48,0-3.43-.22-5.83-.67-2.43-.42-4.9-1.25-7.4-2.5-2.48-1.27-4.57-3.14-6.28-5.63-1.74-2.39-2.67-5.63-2.81-9.71h15.28Z"/>
  </g>
  <g>
    <path class="uuid-f74452f9-4f1a-4371-8429-6d88cf46a3ee" d="m1524.23,129.39h16.22c1.95,0,3.56.24,4.83.72,1.22.46,2.17,1.08,2.86,1.85.69.75,1.18,1.57,1.46,2.44.22.86.32,1.7.32,2.5,0,1.49-.32,2.68-.96,3.57-.67.93-1.58,1.7-2.73,2.32,1.41.45,2.61,1.25,3.61,2.4,1.04,1.18,1.57,2.87,1.6,5.09-.05,2.99-1.12,5.24-3.21,6.75-2.04,1.57-4.44,2.36-7.18,2.36h-16.82v-29.98Zm8.94,11.69h5.06c1.01,0,1.8-.18,2.38-.54.58-.37.87-1.02.87-1.96,0-.76-.29-1.31-.87-1.65-.58-.27-1.37-.41-2.38-.41h-5.06v4.55Zm0,11.16h5.59c1.04,0,1.93-.2,2.65-.6.69-.38,1.06-1.13,1.1-2.26,0-1.79-1.12-2.7-3.34-2.73h-5.99v5.58Z"/>
    <path class="uuid-f74452f9-4f1a-4371-8429-6d88cf46a3ee" d="m1555.8,137.58h7.72v3.49h.08c.65-1.31,1.45-2.32,2.4-3.01.91-.67,2.09-1,3.53-1,.81,0,1.6.11,2.36.33v7.34c-.38-.16-.81-.3-1.27-.41-.46-.08-1.1-.12-1.91-.12-3.23-.05-4.86,2.14-4.89,6.58v8.61h-8.04v-21.8Z"/>
    <path class="uuid-f74452f9-4f1a-4371-8429-6d88cf46a3ee" d="m1595.48,154.52c0,.82.05,1.65.16,2.51.11.84.38,1.63.82,2.35h-8.48c-.22-.7-.31-1.38-.29-2.05h-.08c-.9.97-1.94,1.64-3.11,2.01-1.23.4-2.53.59-3.89.59-2.09,0-3.82-.53-5.19-1.6-1.47-1.09-2.21-2.76-2.24-5,0-1.71.45-3.03,1.35-3.97.86-.96,1.93-1.65,3.22-2.07,1.35-.45,2.71-.76,4.08-.92,1.37-.16,2.58-.31,3.65-.45.31-.1.61-.18.88-.27.26-.08.5-.18.72-.29.45-.27.68-.74.68-1.39-.03-.75-.31-1.28-.84-1.58-.54-.29-1.17-.43-1.89-.43-1.25.03-2.08.26-2.49.71-.43.5-.64,1-.64,1.5h-7.75c.11-1.54.5-2.79,1.18-3.75.66-.94,1.52-1.65,2.58-2.13,1.07-.51,2.26-.85,3.57-1.05,1.27-.14,2.53-.21,3.77-.21,2.54,0,4.54.23,5.98.7,1.43.48,2.44,1.13,3.02,1.95.61.81.99,1.72,1.14,2.73.05,1.03.08,2.07.08,3.14v8.96Zm-7.71-4.91c-1.09.48-2.23.83-3.44,1.05-1.96.25-2.94,1.03-2.94,2.36,0,.53.26.99.79,1.38.49.43,1.13.64,1.93.64,1.02,0,1.87-.29,2.56-.88.67-.56,1.04-1.4,1.1-2.53v-2.01Z"/>
    <path class="uuid-f74452f9-4f1a-4371-8429-6d88cf46a3ee" d="m1600.09,137.58h8v2.77h.08c1.47-2.2,3.83-3.3,7.08-3.3,1.97,0,3.67.6,5.08,1.8,1.4,1.2,2.12,3.06,2.14,5.58v14.95h-8.04v-11.44c.03-1.29-.12-2.33-.45-3.12-.34-.78-1.14-1.17-2.4-1.17-.79-.03-1.54.23-2.25.76-.34.27-.64.69-.88,1.25-.23.59-.34,1.32-.34,2.2v11.52h-8.04v-21.8Z"/>
    <path class="uuid-f74452f9-4f1a-4371-8429-6d88cf46a3ee" d="m1649.76,159.38h-7.93v-2.4h-.08c-.22.34-.49.66-.83.96-.32.34-.71.66-1.16.96-.45.31-1.03.55-1.74.72-.69.18-1.55.28-2.58.31-3.01-.1-5.27-1.36-6.77-3.79-1.53-2.32-2.29-4.92-2.29-7.77,0-1.31.16-2.62.47-3.94.27-1.31.77-2.53,1.48-3.65.7-1.12,1.65-2.03,2.85-2.73,1.2-.64,2.7-.98,4.49-1,2.61.03,4.6,1,5.97,2.93h.08v-10.58h8.04v29.98Zm-7.76-10.91c0-1.38-.23-2.62-.68-3.71-.27-.51-.65-.91-1.15-1.21-.53-.31-1.18-.47-1.96-.47-1.48.03-2.49.59-3.05,1.69-.27.51-.46,1.08-.57,1.73-.11.64-.17,1.31-.17,1.99,0,.64.06,1.29.17,1.93.11.64.3,1.22.57,1.73.55,1.15,1.57,1.74,3.05,1.77.78,0,1.43-.19,1.96-.56.5-.3.88-.71,1.15-1.21.45-1.07.68-2.29.68-3.66h0Z"/>
    <path class="uuid-f74452f9-4f1a-4371-8429-6d88cf46a3ee" d="m1662.72,135.22h-8.04v-5.82h8.04v5.82Zm-8.04,2.36h8.04v21.8h-8.04v-21.8Z"/>
    <path class="uuid-f74452f9-4f1a-4371-8429-6d88cf46a3ee" d="m1667.75,137.58h8v2.77h.08c1.47-2.2,3.83-3.3,7.08-3.3,1.97,0,3.67.6,5.08,1.8,1.4,1.2,2.12,3.06,2.14,5.58v14.95h-8.04v-11.44c.03-1.29-.12-2.33-.45-3.12-.34-.78-1.14-1.17-2.4-1.17-.79-.03-1.54.23-2.25.76-.34.27-.64.69-.88,1.25-.23.59-.34,1.32-.34,2.2v11.52h-8.04v-21.8Z"/>
    <path class="uuid-f74452f9-4f1a-4371-8429-6d88cf46a3ee" d="m1716.95,156.59c0,1.06-.09,2.2-.28,3.4-.22,1.2-.71,2.33-1.47,3.4-.7,1.02-1.8,1.86-3.3,2.5-1.5.71-3.47,1.08-5.94,1.11-2.58.03-4.94-.46-7.07-1.47-2.17-.98-3.49-2.91-3.95-5.79h7.97c.12.23.27.48.46.75.26.39.6.74,1.01,1.04.41.34.86.52,1.35.55.65-.03,1.19-.21,1.63-.55.4-.36.72-.79.97-1.29.37-1.12.56-2.17.56-3.16v-2.01h-.08c-1.37,1.98-3.31,2.99-5.82,3.04-3.17-.04-5.51-1.09-7.01-3.16-1.54-2.02-2.32-4.52-2.32-7.49s.81-5.39,2.44-7.34c1.57-1.98,3.91-3,7.01-3.06,1.26,0,2.41.23,3.45.7,1.04.53,1.79,1.36,2.26,2.48h.08v-2.65h8.04v19.01Zm-15.24-9.18c0,.59.07,1.21.21,1.85.11.66.31,1.23.6,1.73.55,1.15,1.58,1.74,3.07,1.77.81,0,1.45-.18,1.92-.53.5-.31.85-.74,1.04-1.27.41-1.08.6-2.27.58-3.58,0-1.26-.31-2.28-.92-3.06-.61-.79-1.56-1.21-2.84-1.23-1.22.03-2.14.45-2.75,1.27-.61.84-.92,1.86-.92,3.06Z"/>
    <path class="uuid-f74452f9-4f1a-4371-8429-6d88cf46a3ee" d="m1543.09,180.56c-.03-.31-.11-.73-.24-1.23-.16-.48-.4-.95-.74-1.42-.32-.53-.78-.97-1.39-1.32-.6-.3-1.37-.45-2.31-.45-2.04.05-3.47.93-4.31,2.61-.85,1.65-1.26,3.52-1.23,5.63-.03,2.11.38,3.99,1.23,5.63.83,1.71,2.27,2.58,4.31,2.61,1.48,0,2.6-.49,3.34-1.46.7-.93,1.16-2.11,1.37-3.54h8.8c-.03,3.16-1.17,5.98-3.42,8.46-2.25,2.58-5.54,3.91-9.85,4-4.69-.05-8.31-1.58-10.87-4.57-2.57-2.91-3.85-6.62-3.85-11.14.03-4.81,1.36-8.62,4.01-11.42,2.61-2.83,6.18-4.26,10.71-4.29,7.97.22,12.36,4.18,13.15,11.88h-8.72Z"/>
    <path class="uuid-f74452f9-4f1a-4371-8429-6d88cf46a3ee" d="m1578.68,188.48c0,3.1-.95,5.76-2.84,7.97-1.88,2.27-4.85,3.43-8.92,3.48-4.02-.05-6.98-1.22-8.88-3.49-1.95-2.21-2.9-4.87-2.86-7.98-.04-3.14.91-5.81,2.86-8,1.91-2.23,4.87-3.37,8.88-3.42,4.07.05,7.04,1.2,8.92,3.43,1.89,2.19,2.84,4.86,2.84,8Zm-8.04,0c0-.59-.03-1.21-.08-1.87-.09-.64-.26-1.22-.53-1.73-.26-.55-.62-.99-1.09-1.34-.53-.32-1.2-.47-2.01-.47s-1.41.16-1.88.47c-.53.34-.92.79-1.17,1.34-.47,1.12-.69,2.32-.66,3.6,0,.56.06,1.15.17,1.77.08.62.25,1.21.49,1.77.26.56.65,1.01,1.17,1.34.47.37,1.09.55,1.88.55s1.48-.18,2.01-.55c.47-.33.83-.77,1.09-1.34.44-1.15.65-2.33.62-3.54Z"/>
    <path class="uuid-f74452f9-4f1a-4371-8429-6d88cf46a3ee" d="m1583.17,169.39h8.04v29.98h-8.04v-29.98Z"/>
    <path class="uuid-f74452f9-4f1a-4371-8429-6d88cf46a3ee" d="m1596.4,169.39h8.04v29.98h-8.04v-29.98Z"/>
    <path class="uuid-f74452f9-4f1a-4371-8429-6d88cf46a3ee" d="m1615.74,190.35c.14,1.23.55,2.24,1.25,3.02.67.82,1.66,1.23,2.98,1.23.71,0,1.39-.14,2.03-.43.64-.25,1.13-.62,1.46-1.13h7.78c-.88,2.35-2.32,4.09-4.32,5.21-1.99,1.12-4.25,1.68-6.78,1.68-3.52-.03-6.38-1.03-8.58-2.99-2.3-1.96-3.46-4.75-3.49-8.39.03-3.28,1.08-6.02,3.14-8.2,2.05-2.15,4.8-3.25,8.23-3.3,8.25.11,12.33,4.55,12.25,13.31h-15.95Zm8.25-4.31c-.03-1.04-.38-1.92-1.04-2.62-.68-.7-1.59-1.05-2.74-1.05-2.56.03-4.04,1.25-4.43,3.67h8.21Z"/>
    <path class="uuid-f74452f9-4f1a-4371-8429-6d88cf46a3ee" d="m1649.54,185.86c-.09-.9-.39-1.59-.89-2.07-.49-.48-1.17-.72-2.05-.72-.76,0-1.35.16-1.79.47-.49.3-.86.71-1.1,1.21-.25.51-.42,1.08-.5,1.73-.11.67-.16,1.35-.16,2.03,0,.64.05,1.29.16,1.93.08.64.25,1.22.5,1.73.24.51.6.91,1.09,1.21.44.34,1.03.51,1.79.51.9,0,1.64-.32,2.21-.97.54-.62.86-1.36.93-2.24h7.7c-.41,2.97-1.62,5.23-3.62,6.8-2.01,1.6-4.47,2.41-7.37,2.43-3.26-.03-5.94-1.08-8.05-3.16-2.22-2.01-3.35-4.76-3.38-8.26.03-3.5,1.15-6.29,3.38-8.37,2.11-2.04,4.79-3.07,8.05-3.1,2.85,0,5.28.7,7.29,2.09,1.97,1.45,3.12,3.69,3.46,6.72h-7.65Z"/>
    <path class="uuid-f74452f9-4f1a-4371-8429-6d88cf46a3ee" d="m1671.25,177.58h4.32v5.12h-4.32v7.63c-.03,1,.14,1.73.5,2.18.34.48,1.01.72,1.99.72.62,0,1.23-.04,1.83-.12v6.27c-1.68.05-3.4.14-5.16.25-.87,0-1.71-.07-2.52-.2-.83-.16-1.61-.44-2.32-.84-.7-.45-1.26-1.1-1.67-1.96-.46-.87-.69-2.03-.69-3.47v-10.44h-3.6v-5.12h3.6v-6.62h8.04v6.62Z"/>
    <path class="uuid-f74452f9-4f1a-4371-8429-6d88cf46a3ee" d="m1686.86,175.22h-8.04v-5.82h8.04v5.82Zm-8.04,2.36h8.04v21.8h-8.04v-21.8Z"/>
    <path class="uuid-f74452f9-4f1a-4371-8429-6d88cf46a3ee" d="m1714.01,188.48c0,3.1-.95,5.76-2.84,7.97-1.88,2.27-4.85,3.43-8.92,3.48-4.02-.05-6.98-1.22-8.88-3.49-1.95-2.21-2.9-4.87-2.86-7.98-.04-3.14.91-5.81,2.86-8,1.91-2.23,4.87-3.37,8.88-3.42,4.07.05,7.04,1.2,8.92,3.43,1.89,2.19,2.84,4.86,2.84,8Zm-8.04,0c0-.59-.03-1.21-.08-1.87-.09-.64-.26-1.22-.53-1.73-.26-.55-.62-.99-1.09-1.34-.53-.32-1.2-.47-2.01-.47s-1.41.16-1.88.47c-.53.34-.92.79-1.17,1.34-.47,1.12-.69,2.32-.66,3.6,0,.56.06,1.15.17,1.77.08.62.25,1.21.49,1.77.26.56.65,1.01,1.17,1.34.47.37,1.09.55,1.88.55s1.48-.18,2.01-.55c.47-.33.83-.77,1.09-1.34.44-1.15.65-2.33.62-3.54Z"/>
    <path class="uuid-f74452f9-4f1a-4371-8429-6d88cf46a3ee" d="m1718.34,177.58h8v2.77h.08c1.47-2.2,3.83-3.3,7.08-3.3,1.97,0,3.67.6,5.08,1.8,1.4,1.2,2.12,3.06,2.14,5.58v14.95h-8.04v-11.44c.03-1.29-.12-2.33-.45-3.12-.34-.78-1.14-1.17-2.4-1.17-.79-.03-1.54.23-2.25.76-.34.27-.64.69-.88,1.25-.23.59-.34,1.32-.34,2.2v11.52h-8.04v-21.8Z"/>
    <path class="uuid-f74452f9-4f1a-4371-8429-6d88cf46a3ee" d="m1524.81,209.39h8.94v22.31h12.85v7.67h-21.78v-29.98Z"/>
    <path class="uuid-f74452f9-4f1a-4371-8429-6d88cf46a3ee" d="m1572.18,234.52c0,.82.05,1.65.16,2.51.11.84.38,1.63.82,2.35h-8.48c-.22-.7-.31-1.38-.29-2.05h-.08c-.9.97-1.94,1.64-3.11,2.01-1.23.4-2.53.59-3.89.59-2.09,0-3.82-.53-5.19-1.6-1.47-1.09-2.21-2.76-2.24-5,0-1.71.45-3.03,1.35-3.97.86-.96,1.93-1.65,3.22-2.07,1.35-.45,2.71-.76,4.08-.92,1.37-.16,2.58-.31,3.65-.45.31-.1.61-.18.88-.27.26-.08.5-.18.72-.29.45-.27.68-.74.68-1.39-.03-.75-.31-1.28-.84-1.58-.54-.29-1.17-.43-1.89-.43-1.25.03-2.08.26-2.49.71-.43.5-.64,1-.64,1.5h-7.75c.11-1.54.5-2.79,1.18-3.75.66-.94,1.52-1.65,2.58-2.13,1.07-.51,2.26-.85,3.57-1.05,1.27-.14,2.53-.21,3.77-.21,2.54,0,4.54.23,5.98.7,1.43.48,2.44,1.13,3.02,1.95.61.81.99,1.72,1.14,2.73.05,1.03.08,2.07.08,3.14v8.96Zm-7.71-4.91c-1.09.48-2.23.83-3.44,1.05-1.96.25-2.94,1.03-2.94,2.36,0,.54.26.99.79,1.38.49.42,1.13.64,1.93.64,1.02,0,1.87-.29,2.56-.88.67-.56,1.04-1.4,1.1-2.53v-2.01Z"/>
    <path class="uuid-f74452f9-4f1a-4371-8429-6d88cf46a3ee" d="m1599.19,239.38h-7.92v-2.77h-.08c-1.46,2.19-3.8,3.29-7.01,3.32-1.96,0-3.66-.62-5.11-1.85-1.49-1.24-2.24-3.1-2.27-5.56v-14.95h8.04v11.44c-.03,1.26.14,2.29.49,3.08.34.81,1.13,1.21,2.36,1.21.79.03,1.56-.25,2.33-.84.34-.27.64-.71.88-1.29.17-.53.26-1.23.26-2.07v-11.52h8.04v21.8Z"/>
    <path class="uuid-f74452f9-4f1a-4371-8429-6d88cf46a3ee" d="m1604.01,217.58h8v2.77h.08c1.47-2.2,3.83-3.3,7.08-3.3,1.97,0,3.67.6,5.08,1.8,1.4,1.2,2.12,3.06,2.14,5.58v14.95h-8.04v-11.44c.03-1.29-.12-2.33-.45-3.12-.34-.78-1.14-1.17-2.4-1.17-.79-.03-1.54.23-2.25.76-.34.27-.64.69-.88,1.25-.23.59-.34,1.32-.34,2.2v11.52h-8.04v-21.8Z"/>
    <path class="uuid-f74452f9-4f1a-4371-8429-6d88cf46a3ee" d="m1644.84,225.86c-.09-.9-.39-1.59-.89-2.07-.49-.48-1.17-.72-2.05-.72-.76,0-1.35.16-1.79.47-.49.3-.86.71-1.1,1.21-.25.51-.42,1.08-.5,1.73-.11.67-.16,1.35-.16,2.03,0,.64.05,1.29.16,1.93.08.64.25,1.22.5,1.73.24.51.6.91,1.09,1.21.44.34,1.03.51,1.79.51.9,0,1.64-.32,2.21-.97.54-.62.86-1.36.93-2.24h7.7c-.41,2.97-1.62,5.23-3.62,6.8-2.01,1.6-4.47,2.41-7.37,2.43-3.26-.03-5.94-1.08-8.05-3.16-2.22-2.01-3.35-4.76-3.38-8.26.03-3.5,1.15-6.29,3.38-8.37,2.11-2.04,4.79-3.07,8.05-3.1,2.85,0,5.28.7,7.29,2.09,1.97,1.45,3.12,3.69,3.46,6.72h-7.65Z"/>
    <path class="uuid-f74452f9-4f1a-4371-8429-6d88cf46a3ee" d="m1656.88,209.39h8.04v10.54h.08c.72-.88,1.63-1.58,2.74-2.11,1.08-.52,2.51-.78,4.31-.78,1.97,0,3.67.6,5.08,1.8,1.4,1.2,2.12,3.06,2.14,5.58v14.95h-8.04v-11.41c.03-1.28-.12-2.32-.45-3.11-.34-.78-1.14-1.17-2.4-1.17-.79-.03-1.54.23-2.25.76-.34.27-.64.69-.88,1.25-.23.59-.34,1.32-.34,2.19v11.49h-8.04v-29.98Z"/>
  </g>
  <g>
    <path class="uuid-f74452f9-4f1a-4371-8429-6d88cf46a3ee" d="m1548.31,99.7h6.14v4.86h-6.14v11.39h-5.38v-11.39h-22.85v-5.18l22.4-28.99h5.82v29.31Zm-5.38,0v-22.27l-17.22,22.27h17.22Z"/>
    <path class="uuid-f74452f9-4f1a-4371-8429-6d88cf46a3ee" d="m1564.12,111.09h24.06v4.86h-30.08l.13-2.5c.26-3.75,1.11-6.98,2.56-9.66,1.45-2.69,3.9-5.03,7.36-7.04l5.76-3.33c2.9-1.71,4.96-3.37,6.18-4.99,1.22-1.62,1.82-3.58,1.82-5.89,0-2.52-.8-4.53-2.4-6.05-1.6-1.51-3.81-2.27-6.62-2.27-6.36,0-9.54,3.26-9.54,9.79h-5.31c-.04-4.65,1.26-8.26,3.9-10.82s6.34-3.84,11.07-3.84c4.31,0,7.81,1.22,10.5,3.65,2.69,2.52,4.03,5.7,4.03,9.54,0,5.89-3.46,10.84-10.37,14.85l-4.86,2.82c-2.82,1.71-4.84,3.36-6.08,4.96-1.24,1.6-1.94,3.57-2.11,5.92Z"/>
    <path class="uuid-f74452f9-4f1a-4371-8429-6d88cf46a3ee" d="m1607.26,86.26c4.86,0,8.66,1.43,11.39,4.29,2.73,2.86,4.1,6.55,4.1,11.07s-1.43,8.15-4.29,11.01c-2.9,2.9-6.74,4.35-11.52,4.35-4.35,0-7.96-1.26-10.82-3.78-2.86-2.47-4.42-5.78-4.67-9.92h5.38c.26,2.73,1.32,4.89,3.2,6.46,1.88,1.58,4.18,2.37,6.91,2.37,2.99,0,5.43-.97,7.33-2.91,1.9-1.94,2.85-4.47,2.85-7.58s-.95-5.64-2.85-7.58c-1.9-1.94-4.34-2.91-7.33-2.91-4.48,0-7.6,1.83-9.34,5.5h-4.99l3.84-26.24h23.55v4.86h-19.2l-2.18,14.34c2.47-2.22,5.35-3.33,8.64-3.33Z"/>
    <path class="uuid-f74452f9-4f1a-4371-8429-6d88cf46a3ee" d="m1651.48,91.51c2.64,1.02,4.71,2.53,6.21,4.51,1.49,1.98,2.24,4.32,2.24,7.01,0,4.27-1.51,7.66-4.54,10.18-3.03,2.52-7.02,3.78-11.97,3.78s-8.94-1.26-11.97-3.78c-3.03-2.52-4.54-5.91-4.54-10.18,0-2.69.75-5.02,2.24-7.01,1.49-1.98,3.56-3.49,6.21-4.51-4.4-1.92-6.59-5.14-6.59-9.66,0-3.88,1.39-6.95,4.16-9.22,2.77-2.18,6.27-3.26,10.5-3.26s7.72,1.09,10.5,3.26c2.77,2.26,4.16,5.33,4.16,9.22,0,4.52-2.2,7.74-6.59,9.66Zm-16,18.18c2,1.62,4.65,2.43,7.94,2.43s5.93-.81,7.94-2.43c1.96-1.58,2.94-3.8,2.94-6.66s-.98-5.14-2.94-6.72c-1.96-1.58-4.61-2.37-7.94-2.37s-5.97.79-7.94,2.37c-1.96,1.58-2.94,3.82-2.94,6.72s.98,5.08,2.94,6.66Zm14.66-33.47c-1.71-1.32-3.95-1.98-6.72-1.98s-5.01.66-6.72,1.98c-1.75,1.37-2.62,3.24-2.62,5.63s.87,4.27,2.62,5.63c1.71,1.32,3.95,1.98,6.72,1.98s5.01-.66,6.72-1.98c1.75-1.37,2.62-3.24,2.62-5.63s-.88-4.27-2.62-5.63Z"/>
  </g>
  <g>
    <path class="uuid-f74452f9-4f1a-4371-8429-6d88cf46a3ee" d="m983.41,108.04c4.18,1.6,6.27,4.49,6.27,8.67,0,3.16-1.03,5.65-3.09,7.47-2.06,1.82-4.96,2.73-8.7,2.73h-15.86v-36.31h15.1c3.5,0,6.22.88,8.16,2.63,1.94,1.75,2.91,4.04,2.91,6.86,0,3.64-1.6,6.29-4.79,7.96Zm-6.58-13.57h-10.51v11.98h10.51c2.35,0,4.13-.54,5.35-1.63,1.22-1.09,1.84-2.62,1.84-4.59,0-1.8-.62-3.21-1.86-4.23-1.24-1.02-3.02-1.53-5.33-1.53Zm-10.51,28.56h11.37c2.52,0,4.43-.54,5.74-1.63,1.31-1.09,1.96-2.65,1.96-4.69,0-4.28-2.58-6.43-7.75-6.43h-11.32v12.75Z"/>
    <path class="uuid-f74452f9-4f1a-4371-8429-6d88cf46a3ee" d="m1006.36,100.18c.68,0,1.14.02,1.38.05v3.93h-1.02c-2.72,0-4.84.67-6.35,2.01-1.51,1.34-2.27,3.26-2.27,5.74v14.99h-4.08v-26.32h3.88v4.64c1.77-3.37,4.59-5.05,8.47-5.05Z"/>
    <path class="uuid-f74452f9-4f1a-4371-8429-6d88cf46a3ee" d="m1031.3,123.59h1.48v3.31c-.68.1-1.43.15-2.24.15-2.75,0-4.23-1.26-4.44-3.77-1.84,2.82-4.69,4.23-8.57,4.23-2.89,0-5.16-.67-6.81-2.01-1.65-1.34-2.47-3.24-2.47-5.69,0-4.76,3.25-7.48,9.74-8.16l3.77-.41c2.75-.31,4.13-1.51,4.13-3.62,0-1.46-.45-2.52-1.35-3.16-.9-.65-2.42-.97-4.56-.97-2.28,0-3.92.38-4.92,1.15-1,.77-1.57,2.12-1.71,4.05h-4.08c.34-5.81,3.91-8.72,10.71-8.72s9.89,2.55,9.89,7.65v14.69c0,.85.48,1.27,1.43,1.27Zm-13.57.46c2.18,0,4.08-.66,5.71-1.99,1.63-1.29,2.45-3.14,2.45-5.56v-3.11c-.75.58-1.9.95-3.47,1.12l-3.83.46c-2.21.27-3.78.78-4.72,1.53-.94.75-1.4,1.82-1.4,3.21s.44,2.42,1.33,3.19c.88.77,2.19,1.15,3.93,1.15Z"/>
    <path class="uuid-f74452f9-4f1a-4371-8429-6d88cf46a3ee" d="m1048.48,99.98c2.92,0,5.2.8,6.83,2.4s2.45,3.84,2.45,6.73v17.8h-4.08v-17.39c0-3.91-2.01-5.86-6.02-5.86-1.9,0-3.59.71-5.05,2.14-1.46,1.43-2.19,3.5-2.19,6.22v14.89h-4.08v-26.32h3.88v3.93c2.01-3.03,4.76-4.54,8.26-4.54Z"/>
    <path class="uuid-f74452f9-4f1a-4371-8429-6d88cf46a3ee" d="m1083.67,104.37v-13.77h4.08v36.31h-3.88v-4.08c-2.11,3.13-5.12,4.69-9.03,4.69-3.71,0-6.67-1.26-8.87-3.77-2.24-2.52-3.37-5.85-3.37-10s1.12-7.56,3.37-10.05c2.17-2.48,5.13-3.72,8.87-3.72s6.71,1.46,8.82,4.39Zm-14.48,16.88c1.53,1.73,3.59,2.6,6.17,2.6s4.64-.9,6.17-2.7c1.53-1.77,2.29-4.23,2.29-7.4s-.76-5.59-2.29-7.4c-1.53-1.8-3.59-2.7-6.17-2.7s-4.6.93-6.15,2.78c-1.55,1.85-2.32,4.36-2.32,7.52s.76,5.56,2.29,7.29Z"/>
    <path class="uuid-f74452f9-4f1a-4371-8429-6d88cf46a3ee" d="m1117.13,127.72c-4.73,0-8.42-1.07-11.07-3.21-2.65-2.14-4-5.34-4.03-9.59h4.44c.1,5.95,3.65,8.92,10.66,8.92,2.96,0,5.23-.58,6.81-1.73,1.58-1.16,2.37-2.84,2.37-5.05,0-1.73-.65-3.09-1.96-4.05-1.31-.97-3.6-1.81-6.86-2.52l-3.21-.71c-3.67-.85-6.43-2.08-8.26-3.7-1.84-1.61-2.75-3.88-2.75-6.81s1.12-5.19,3.37-6.91c2.24-1.72,5.25-2.58,9.03-2.58,2.55,0,4.77.31,6.66.92,1.89.61,3.36,1.47,4.41,2.58,1.05,1.1,1.83,2.3,2.32,3.6.49,1.29.76,2.72.79,4.28h-4.39c-.2-2.58-1.05-4.48-2.53-5.69-1.48-1.21-3.9-1.81-7.27-1.81-2.55,0-4.51.49-5.89,1.48-1.38.99-2.07,2.36-2.07,4.13s.59,3.15,1.78,4.13c1.16.99,3.4,1.85,6.73,2.6l3.21.71c4.01.88,6.9,2.15,8.67,3.8,1.77,1.65,2.65,3.83,2.65,6.55,0,3.3-1.21,5.9-3.62,7.8-2.42,1.9-5.75,2.86-10,2.86Z"/>
    <path class="uuid-f74452f9-4f1a-4371-8429-6d88cf46a3ee" d="m1146.1,100.59v3.57h-5.41v17.08c0,1.5,1,2.24,3.01,2.24h2.4v3.42c-1.12.1-2.09.15-2.91.15-4.39,0-6.58-1.82-6.58-5.46v-17.44h-4.33v-3.57h4.33v-7.45h4.08v7.45h5.41Z"/>
    <path class="uuid-f74452f9-4f1a-4371-8429-6d88cf46a3ee" d="m1162.77,100.18c.68,0,1.14.02,1.38.05v3.93h-1.02c-2.72,0-4.84.67-6.35,2.01-1.51,1.34-2.27,3.26-2.27,5.74v14.99h-4.08v-26.32h3.88v4.64c1.77-3.37,4.59-5.05,8.47-5.05Z"/>
    <path class="uuid-f74452f9-4f1a-4371-8429-6d88cf46a3ee" d="m1187.71,123.59h1.48v3.31c-.68.1-1.43.15-2.24.15-2.75,0-4.23-1.26-4.44-3.77-1.84,2.82-4.69,4.23-8.57,4.23-2.89,0-5.16-.67-6.81-2.01-1.65-1.34-2.47-3.24-2.47-5.69,0-4.76,3.25-7.48,9.74-8.16l3.77-.41c2.75-.31,4.13-1.51,4.13-3.62,0-1.46-.45-2.52-1.35-3.16-.9-.65-2.42-.97-4.56-.97-2.28,0-3.92.38-4.92,1.15-1,.77-1.57,2.12-1.71,4.05h-4.08c.34-5.81,3.91-8.72,10.71-8.72s9.89,2.55,9.89,7.65v14.69c0,.85.48,1.27,1.43,1.27Zm-13.57.46c2.18,0,4.08-.66,5.71-1.99,1.63-1.29,2.45-3.14,2.45-5.56v-3.11c-.75.58-1.9.95-3.47,1.12l-3.83.46c-2.21.27-3.78.78-4.72,1.53-.94.75-1.4,1.82-1.4,3.21s.44,2.42,1.33,3.19c.88.77,2.19,1.15,3.93,1.15Z"/>
    <path class="uuid-f74452f9-4f1a-4371-8429-6d88cf46a3ee" d="m1203.27,100.59v3.57h-5.41v17.08c0,1.5,1,2.24,3.01,2.24h2.4v3.42c-1.12.1-2.09.15-2.91.15-4.39,0-6.58-1.82-6.58-5.46v-17.44h-4.33v-3.57h4.33v-7.45h4.08v7.45h5.41Z"/>
    <path class="uuid-f74452f9-4f1a-4371-8429-6d88cf46a3ee" d="m1230.04,113.75v1.43h-19.99c.2,2.86,1,5.01,2.4,6.45,1.39,1.45,3.3,2.17,5.71,2.17,3.64,0,5.97-1.63,6.99-4.9h4.23c-.71,2.65-2.04,4.75-3.98,6.3-1.94,1.55-4.39,2.32-7.34,2.32-3.64,0-6.58-1.24-8.82-3.72-2.28-2.48-3.42-5.83-3.42-10.05s1.12-7.48,3.37-10c2.21-2.52,5.13-3.77,8.77-3.77s6.73,1.31,8.87,3.93c2.14,2.62,3.21,5.9,3.21,9.84Zm-12.09-10.05c-2.14,0-3.89.67-5.25,2.01-1.36,1.34-2.21,3.27-2.55,5.79h15.5c-.2-2.31-.99-4.19-2.35-5.64-1.36-1.44-3.15-2.17-5.36-2.17Z"/>
    <path class="uuid-f74452f9-4f1a-4371-8429-6d88cf46a3ee" d="m1254.88,104.42v-3.82h3.88v25.3c0,3.6-1.05,6.44-3.16,8.52-2.11,2.07-5.13,3.11-9.08,3.11-3.26,0-5.88-.75-7.85-2.24-1.97-1.5-3.09-3.57-3.37-6.22h4.08c.51,3.33,2.89,5,7.14,5,5.44,0,8.16-2.72,8.16-8.16v-2.55c-2.07,2.79-5.02,4.18-8.82,4.18s-6.67-1.26-8.87-3.77c-2.24-2.52-3.37-5.85-3.37-10s1.12-7.56,3.37-10.05c2.17-2.48,5.13-3.72,8.87-3.72s6.92,1.48,9.03,4.44Zm-8.52,19.43c2.58,0,4.64-.9,6.17-2.7,1.53-1.8,2.29-4.27,2.29-7.4s-.76-5.59-2.29-7.4c-1.53-1.8-3.59-2.7-6.17-2.7s-4.6.92-6.15,2.75c-1.55,1.84-2.32,4.28-2.32,7.34s.77,5.51,2.32,7.34c1.55,1.84,3.6,2.75,6.15,2.75Z"/>
    <path class="uuid-f74452f9-4f1a-4371-8429-6d88cf46a3ee" d="m1277.57,111.51l3.72-10.91h4.44l-11.12,30.45c-.78,2.21-1.85,3.77-3.21,4.67-1.36.9-3.15,1.35-5.35,1.35-.75,0-1.56-.05-2.45-.15v-3.42h2.4c2.35,0,3.94-1.09,4.79-3.26l.92-2.45-9.89-27.18h4.49l3.72,10.96c1.33,3.88,2.58,7.67,3.77,11.37.99-3.16,2.24-6.97,3.77-11.42Z"/>
    <path class="uuid-f74452f9-4f1a-4371-8429-6d88cf46a3ee" d="m1322.2,119.05l7.04,7.85h-5.51l-3.83-4.28c-2.89,3.4-6.8,5.1-11.73,5.1-3.33,0-5.98-.99-7.96-2.96-2.01-1.94-3.01-4.32-3.01-7.14,0-2.38.65-4.39,1.96-6.02,1.31-1.63,3.48-3.3,6.5-5-1.56-1.77-2.68-3.33-3.34-4.69-.66-1.36-.99-2.74-.99-4.13,0-2.21.82-4.11,2.45-5.71,1.6-1.53,3.76-2.29,6.48-2.29,2.41,0,4.5.7,6.27,2.09,1.73,1.39,2.6,3.31,2.6,5.76,0,3.6-2.48,6.83-7.45,9.69l7.55,8.42c.68-1.97,1.02-4.1,1.02-6.38h4.13c-.1,3.64-.83,6.87-2.19,9.69Zm-13.77,4.79c3.77,0,6.7-1.43,8.77-4.28l-9.13-10.25c-2.35,1.26-4.02,2.48-5.02,3.67-1,1.19-1.5,2.67-1.5,4.44s.63,3.32,1.89,4.56c1.26,1.24,2.92,1.86,5,1.86Zm1.79-30.4c-1.36,0-2.47.4-3.32,1.2-.85.8-1.27,1.84-1.27,3.14,0,1.8,1.22,4.08,3.67,6.83,1.94-1.05,3.35-2.12,4.23-3.21.88-1.09,1.33-2.29,1.33-3.62,0-1.26-.44-2.29-1.33-3.11s-1.99-1.22-3.31-1.22Z"/>
    <path class="uuid-f74452f9-4f1a-4371-8429-6d88cf46a3ee" d="m1346.53,126.91h-4.28v-36.31h4.28v36.31Z"/>
    <path class="uuid-f74452f9-4f1a-4371-8429-6d88cf46a3ee" d="m1372.69,104.37v-13.77h4.08v36.31h-3.88v-4.08c-2.11,3.13-5.12,4.69-9.03,4.69-3.71,0-6.67-1.26-8.87-3.77-2.24-2.52-3.37-5.85-3.37-10s1.12-7.56,3.37-10.05c2.17-2.48,5.13-3.72,8.87-3.72s6.71,1.46,8.82,4.39Zm-14.48,16.88c1.53,1.73,3.59,2.6,6.17,2.6s4.64-.9,6.17-2.7c1.53-1.77,2.29-4.23,2.29-7.4s-.76-5.59-2.29-7.4c-1.53-1.8-3.59-2.7-6.17-2.7s-4.6.93-6.15,2.78c-1.55,1.85-2.32,4.36-2.32,7.52s.76,5.56,2.29,7.29Z"/>
    <path class="uuid-f74452f9-4f1a-4371-8429-6d88cf46a3ee" d="m1405.84,113.75v1.43h-19.99c.2,2.86,1,5.01,2.4,6.45,1.39,1.45,3.3,2.17,5.71,2.17,3.64,0,5.97-1.63,6.99-4.9h4.23c-.71,2.65-2.04,4.75-3.98,6.3-1.94,1.55-4.39,2.32-7.34,2.32-3.64,0-6.58-1.24-8.82-3.72-2.28-2.48-3.42-5.83-3.42-10.05s1.12-7.48,3.37-10c2.21-2.52,5.13-3.77,8.77-3.77s6.73,1.31,8.87,3.93c2.14,2.62,3.21,5.9,3.21,9.84Zm-12.09-10.05c-2.14,0-3.89.67-5.25,2.01-1.36,1.34-2.21,3.27-2.55,5.79h15.5c-.2-2.31-.99-4.19-2.35-5.64-1.36-1.44-3.15-2.17-5.36-2.17Z"/>
    <path class="uuid-f74452f9-4f1a-4371-8429-6d88cf46a3ee" d="m1422.82,99.98c2.92,0,5.2.8,6.83,2.4s2.45,3.84,2.45,6.73v17.8h-4.08v-17.39c0-3.91-2.01-5.86-6.02-5.86-1.9,0-3.59.71-5.05,2.14-1.46,1.43-2.19,3.5-2.19,6.22v14.89h-4.08v-26.32h3.88v3.93c2.01-3.03,4.76-4.54,8.26-4.54Z"/>
    <path class="uuid-f74452f9-4f1a-4371-8429-6d88cf46a3ee" d="m1448.73,100.59v3.57h-5.41v17.08c0,1.5,1,2.24,3.01,2.24h2.4v3.42c-1.12.1-2.09.15-2.91.15-4.39,0-6.58-1.82-6.58-5.46v-17.44h-4.33v-3.57h4.33v-7.45h4.08v7.45h5.41Z"/>
    <path class="uuid-f74452f9-4f1a-4371-8429-6d88cf46a3ee" d="m1457.25,96.61h-4.33v-5h4.33v5Zm-.1,30.29h-4.08v-26.32h4.08v26.32Z"/>
    <path class="uuid-f74452f9-4f1a-4371-8429-6d88cf46a3ee" d="m1474.79,100.59v3.57h-5.41v17.08c0,1.5,1,2.24,3.01,2.24h2.4v3.42c-1.12.1-2.09.15-2.91.15-4.39,0-6.58-1.82-6.58-5.46v-17.44h-4.33v-3.57h4.33v-7.45h4.08v7.45h5.41Z"/>
    <path class="uuid-f74452f9-4f1a-4371-8429-6d88cf46a3ee" d="m1492.08,111.51l3.72-10.91h4.44l-11.12,30.45c-.78,2.21-1.85,3.77-3.21,4.67-1.36.9-3.15,1.35-5.35,1.35-.75,0-1.56-.05-2.45-.15v-3.42h2.4c2.35,0,3.94-1.09,4.79-3.26l.92-2.45-9.89-27.18h4.49l3.72,10.96c1.33,3.88,2.58,7.67,3.77,11.37.99-3.16,2.24-6.97,3.77-11.42Z"/>
    <path class="uuid-f74452f9-4f1a-4371-8429-6d88cf46a3ee" d="m1219.89,145.6h15.1c3.84,0,6.81,1,8.9,3.01,2.09,2.01,3.14,4.73,3.14,8.16s-1.05,6.15-3.14,8.16c-2.09,2.01-5.06,3.01-8.9,3.01h-10.81v13.97h-4.28v-36.31Zm4.28,18.46h10.81c2.52,0,4.41-.62,5.69-1.86,1.27-1.24,1.91-3.05,1.91-5.43s-.64-4.19-1.91-5.43c-1.28-1.24-3.17-1.86-5.69-1.86h-10.81v14.59Z"/>
    <path class="uuid-f74452f9-4f1a-4371-8429-6d88cf46a3ee" d="m1263.19,154.98c2.92,0,5.2.8,6.83,2.4,1.63,1.6,2.45,3.84,2.45,6.73v17.8h-4.08v-17.39c0-3.91-2.01-5.86-6.02-5.86-1.9,0-3.59.71-5.05,2.14s-2.19,3.5-2.19,6.22v14.89h-4.08v-36.31h4.08v13.62c2.01-2.82,4.69-4.23,8.06-4.23Z"/>
    <path class="uuid-f74452f9-4f1a-4371-8429-6d88cf46a3ee" d="m1299.25,178.75c-2.41,2.52-5.47,3.77-9.18,3.77s-6.77-1.26-9.18-3.77c-2.38-2.48-3.57-5.81-3.57-10s1.19-7.51,3.57-10c2.41-2.52,5.47-3.77,9.18-3.77s6.77,1.26,9.18,3.77c2.38,2.48,3.57,5.81,3.57,10s-1.19,7.51-3.57,10Zm-15.35-2.6c1.53,1.8,3.59,2.7,6.17,2.7s4.64-.9,6.17-2.7c1.53-1.77,2.29-4.23,2.29-7.39s-.76-5.68-2.29-7.45c-1.53-1.77-3.59-2.65-6.17-2.65s-4.64.88-6.17,2.65c-1.53,1.77-2.29,4.25-2.29,7.45s.76,5.63,2.29,7.39Z"/>
    <path class="uuid-f74452f9-4f1a-4371-8429-6d88cf46a3ee" d="m1317.66,155.59v3.57h-5.41v17.08c0,1.5,1,2.24,3.01,2.24h2.4v3.42c-1.12.1-2.09.15-2.91.15-4.39,0-6.58-1.82-6.58-5.46v-17.44h-4.33v-3.57h4.33v-7.45h4.08v7.45h5.41Z"/>
    <path class="uuid-f74452f9-4f1a-4371-8429-6d88cf46a3ee" d="m1342.14,178.75c-2.41,2.52-5.47,3.77-9.18,3.77s-6.77-1.26-9.18-3.77c-2.38-2.48-3.57-5.81-3.57-10s1.19-7.51,3.57-10c2.41-2.52,5.47-3.77,9.18-3.77s6.77,1.26,9.18,3.77c2.38,2.48,3.57,5.81,3.57,10s-1.19,7.51-3.57,10Zm-15.35-2.6c1.53,1.8,3.59,2.7,6.17,2.7s4.64-.9,6.17-2.7c1.53-1.77,2.29-4.23,2.29-7.39s-.76-5.68-2.29-7.45c-1.53-1.77-3.59-2.65-6.17-2.65s-4.64.88-6.17,2.65c-1.53,1.77-2.29,4.25-2.29,7.45s.76,5.63,2.29,7.39Z"/>
    <path class="uuid-f74452f9-4f1a-4371-8429-6d88cf46a3ee" d="m1370.54,159.42v-3.83h3.88v25.3c0,3.6-1.05,6.44-3.16,8.52-2.11,2.07-5.13,3.11-9.08,3.11-3.26,0-5.88-.75-7.85-2.24-1.97-1.5-3.09-3.57-3.37-6.22h4.08c.51,3.33,2.89,5,7.14,5,5.44,0,8.16-2.72,8.16-8.16v-2.55c-2.07,2.79-5.02,4.18-8.82,4.18s-6.67-1.26-8.87-3.77c-2.24-2.52-3.37-5.85-3.37-10s1.12-7.56,3.37-10.05c2.17-2.48,5.13-3.72,8.87-3.72s6.92,1.48,9.03,4.44Zm-8.52,19.43c2.58,0,4.64-.9,6.17-2.7,1.53-1.8,2.29-4.27,2.29-7.39s-.76-5.59-2.29-7.4c-1.53-1.8-3.59-2.7-6.17-2.7s-4.6.92-6.15,2.75c-1.55,1.84-2.32,4.28-2.32,7.34s.77,5.51,2.32,7.34c1.55,1.84,3.6,2.75,6.15,2.75Z"/>
    <path class="uuid-f74452f9-4f1a-4371-8429-6d88cf46a3ee" d="m1392.88,155.18c.68,0,1.14.02,1.38.05v3.93h-1.02c-2.72,0-4.84.67-6.35,2.01s-2.27,3.26-2.27,5.74v14.99h-4.08v-26.32h3.88v4.64c1.77-3.37,4.59-5.05,8.47-5.05Z"/>
    <path class="uuid-f74452f9-4f1a-4371-8429-6d88cf46a3ee" d="m1417.82,178.59h1.48v3.32c-.68.1-1.43.15-2.24.15-2.75,0-4.23-1.26-4.44-3.77-1.84,2.82-4.69,4.23-8.57,4.23-2.89,0-5.16-.67-6.81-2.01-1.65-1.34-2.47-3.24-2.47-5.69,0-4.76,3.25-7.48,9.74-8.16l3.77-.41c2.75-.31,4.13-1.51,4.13-3.62,0-1.46-.45-2.52-1.35-3.16-.9-.65-2.42-.97-4.56-.97-2.28,0-3.92.38-4.92,1.15-1,.76-1.57,2.12-1.71,4.05h-4.08c.34-5.81,3.91-8.72,10.71-8.72s9.89,2.55,9.89,7.65v14.69c0,.85.48,1.27,1.43,1.27Zm-13.57.46c2.18,0,4.08-.66,5.71-1.99,1.63-1.29,2.45-3.14,2.45-5.56v-3.11c-.75.58-1.9.95-3.47,1.12l-3.83.46c-2.21.27-3.78.78-4.72,1.53-.94.75-1.4,1.82-1.4,3.21s.44,2.42,1.33,3.19c.88.77,2.19,1.15,3.93,1.15Z"/>
    <path class="uuid-f74452f9-4f1a-4371-8429-6d88cf46a3ee" d="m1435.77,154.98c3.71,0,6.68,1.24,8.92,3.72,2.21,2.52,3.32,5.87,3.32,10.05s-1.11,7.48-3.32,10c-2.24,2.52-5.22,3.77-8.92,3.77s-6.71-1.46-8.82-4.39v13.77h-4.08v-36.31h3.88v4.08c2.11-3.13,5.12-4.69,9.03-4.69Zm-.51,23.87c2.55,0,4.6-.93,6.15-2.78,1.55-1.85,2.32-4.36,2.32-7.52s-.76-5.52-2.27-7.27c-1.51-1.75-3.58-2.63-6.2-2.63s-4.64.88-6.17,2.65c-1.53,1.77-2.29,4.25-2.29,7.45s.76,5.63,2.29,7.39c1.53,1.8,3.59,2.7,6.17,2.7Z"/>
    <path class="uuid-f74452f9-4f1a-4371-8429-6d88cf46a3ee" d="m1464.99,154.98c2.92,0,5.2.8,6.83,2.4,1.63,1.6,2.45,3.84,2.45,6.73v17.8h-4.08v-17.39c0-3.91-2.01-5.86-6.02-5.86-1.9,0-3.59.71-5.05,2.14s-2.19,3.5-2.19,6.22v14.89h-4.08v-36.31h4.08v13.62c2.01-2.82,4.69-4.23,8.06-4.23Z"/>
    <path class="uuid-f74452f9-4f1a-4371-8429-6d88cf46a3ee" d="m1492.08,166.51l3.72-10.91h4.44l-11.12,30.45c-.78,2.21-1.85,3.76-3.21,4.67-1.36.9-3.15,1.35-5.35,1.35-.75,0-1.56-.05-2.45-.15v-3.42h2.4c2.35,0,3.94-1.09,4.79-3.26l.92-2.45-9.89-27.18h4.49l3.72,10.96c1.33,3.88,2.58,7.67,3.77,11.37.99-3.16,2.24-6.97,3.77-11.42Z"/>
    <path class="uuid-f74452f9-4f1a-4371-8429-6d88cf46a3ee" d="m1368.4,237.72c-4.73,0-8.42-1.07-11.07-3.21-2.65-2.14-4-5.34-4.03-9.59h4.44c.1,5.95,3.65,8.93,10.66,8.93,2.96,0,5.23-.58,6.81-1.73,1.58-1.16,2.37-2.84,2.37-5.05,0-1.73-.65-3.09-1.96-4.05-1.31-.97-3.6-1.81-6.86-2.52l-3.21-.71c-3.67-.85-6.43-2.08-8.26-3.7-1.84-1.61-2.75-3.88-2.75-6.81s1.12-5.19,3.37-6.91,5.25-2.58,9.03-2.58c2.55,0,4.77.31,6.66.92,1.89.61,3.36,1.47,4.41,2.58,1.05,1.11,1.83,2.3,2.32,3.6.49,1.29.76,2.72.79,4.28h-4.39c-.2-2.58-1.05-4.48-2.53-5.69-1.48-1.21-3.9-1.81-7.27-1.81-2.55,0-4.51.49-5.89,1.48-1.38.99-2.07,2.36-2.07,4.13s.59,3.14,1.78,4.13c1.16.99,3.4,1.85,6.73,2.6l3.21.71c4.01.88,6.9,2.15,8.67,3.8,1.77,1.65,2.65,3.83,2.65,6.55,0,3.3-1.21,5.9-3.62,7.8-2.42,1.9-5.75,2.86-10,2.86Z"/>
    <path class="uuid-f74452f9-4f1a-4371-8429-6d88cf46a3ee" d="m1397.37,210.59v3.57h-5.41v17.08c0,1.5,1,2.24,3.01,2.24h2.4v3.42c-1.12.1-2.09.15-2.91.15-4.39,0-6.58-1.82-6.58-5.46v-17.44h-4.33v-3.57h4.33v-7.45h4.08v7.45h5.41Z"/>
    <path class="uuid-f74452f9-4f1a-4371-8429-6d88cf46a3ee" d="m1414.66,221.51l3.72-10.91h4.44l-11.12,30.45c-.78,2.21-1.85,3.77-3.21,4.67-1.36.9-3.15,1.35-5.35,1.35-.75,0-1.56-.05-2.45-.15v-3.42h2.4c2.35,0,3.94-1.09,4.79-3.26l.92-2.45-9.89-27.18h4.49l3.72,10.97c1.33,3.88,2.58,7.67,3.77,11.37.99-3.16,2.24-6.97,3.77-11.42Z"/>
    <path class="uuid-f74452f9-4f1a-4371-8429-6d88cf46a3ee" d="m1429.7,236.91h-4.08v-36.31h4.08v36.31Z"/>
    <path class="uuid-f74452f9-4f1a-4371-8429-6d88cf46a3ee" d="m1440,206.61h-4.33v-5h4.33v5Zm-.1,30.29h-4.08v-26.32h4.08v26.32Z"/>
    <path class="uuid-f74452f9-4f1a-4371-8429-6d88cf46a3ee" d="m1458.16,209.98c2.92,0,5.2.8,6.83,2.4,1.63,1.6,2.45,3.84,2.45,6.73v17.8h-4.08v-17.39c0-3.91-2.01-5.87-6.02-5.87-1.9,0-3.59.71-5.05,2.14-1.46,1.43-2.19,3.5-2.19,6.22v14.89h-4.08v-26.32h3.88v3.93c2.01-3.03,4.76-4.54,8.26-4.54Z"/>
    <path class="uuid-f74452f9-4f1a-4371-8429-6d88cf46a3ee" d="m1493.55,214.42v-3.83h3.88v25.3c0,3.6-1.05,6.44-3.16,8.52-2.11,2.07-5.13,3.11-9.08,3.11-3.26,0-5.88-.75-7.85-2.24-1.97-1.5-3.09-3.57-3.37-6.22h4.08c.51,3.33,2.89,5,7.14,5,5.44,0,8.16-2.72,8.16-8.16v-2.55c-2.07,2.79-5.02,4.18-8.82,4.18s-6.67-1.26-8.87-3.77c-2.24-2.52-3.37-5.85-3.37-10s1.12-7.56,3.37-10.05c2.17-2.48,5.13-3.72,8.87-3.72s6.92,1.48,9.03,4.44Zm-8.52,19.43c2.58,0,4.64-.9,6.17-2.7s2.29-4.27,2.29-7.4-.76-5.59-2.29-7.39c-1.53-1.8-3.59-2.7-6.17-2.7s-4.6.92-6.15,2.75c-1.55,1.84-2.32,4.28-2.32,7.34s.77,5.51,2.32,7.34c1.55,1.84,3.6,2.75,6.15,2.75Z"/>
  </g>
  <g>
    <path class="uuid-f74452f9-4f1a-4371-8429-6d88cf46a3ee" d="m1859.09,131.21v11.28h-2.28v-14.1l1.17.06c1.76.12,3.27.52,4.53,1.2s2.36,1.83,3.3,3.45l1.56,2.7c.8,1.36,1.58,2.32,2.34,2.89.76.57,1.68.86,2.76.86,1.18,0,2.12-.38,2.83-1.12s1.06-1.79,1.06-3.11c0-2.98-1.53-4.47-4.59-4.47v-2.49c2.18-.02,3.87.59,5.07,1.83s1.8,2.97,1.8,5.19c0,2.02-.57,3.66-1.71,4.92-1.18,1.26-2.67,1.89-4.47,1.89-2.76,0-5.08-1.62-6.96-4.86l-1.32-2.28c-.8-1.32-1.58-2.27-2.33-2.85s-1.67-.91-2.77-.99Z"/>
    <path class="uuid-f74452f9-4f1a-4371-8429-6d88cf46a3ee" d="m1878.17,150.14v2.04h-21.36v-2.52h15.93v-4.86h1.98l.03.48c.1,1.52.4,2.65.9,3.39.5.74,1.34,1.23,2.52,1.47Z"/>
    <path class="uuid-f74452f9-4f1a-4371-8429-6d88cf46a3ee" d="m1864.19,164v-8.67h2.16v8.67h-2.16Z"/>
    <path class="uuid-f74452f9-4f1a-4371-8429-6d88cf46a3ee" d="m1859.21,180.23c-1.92-1.3-2.88-3.23-2.88-5.79s.96-4.51,2.88-5.79c1.94-1.3,4.7-1.95,8.28-1.95s6.34.65,8.28,1.95c1.92,1.28,2.88,3.21,2.88,5.79s-.96,4.49-2.88,5.79c-1.94,1.3-4.7,1.95-8.28,1.95s-6.34-.65-8.28-1.95Zm17.16-5.79c0-3.4-2.96-5.1-8.88-5.1s-8.88,1.7-8.88,5.1,2.96,5.1,8.88,5.1,8.88-1.7,8.88-5.1Z"/>
    <path class="uuid-f74452f9-4f1a-4371-8429-6d88cf46a3ee" d="m1870.73,191.99c0,2.28-.67,4.06-2.01,5.34-1.34,1.28-3.07,1.92-5.19,1.92s-3.82-.67-5.16-2.01-2.04-3.16-2.04-5.4c0-2.04.59-3.73,1.77-5.07,1.16-1.34,2.71-2.07,4.65-2.19v2.52c-1.28.12-2.29.62-3.03,1.5-.74.88-1.11,1.96-1.11,3.24,0,1.4.46,2.54,1.37,3.44.91.89,2.09,1.33,3.55,1.33s2.64-.45,3.56-1.33c.91-.89,1.36-2.04,1.36-3.44,0-2.1-.86-3.56-2.58-4.38v-2.34l12.3,1.8v11.04h-2.28v-9l-6.72-1.02c1.04,1.16,1.56,2.51,1.56,4.05Z"/>
    <path class="uuid-f74452f9-4f1a-4371-8429-6d88cf46a3ee" d="m1864.19,210.32v-8.67h2.16v8.67h-2.16Z"/>
    <path class="uuid-f74452f9-4f1a-4371-8429-6d88cf46a3ee" d="m1859.21,226.55c-1.92-1.3-2.88-3.23-2.88-5.79s.96-4.51,2.88-5.79c1.94-1.3,4.7-1.95,8.28-1.95s6.34.65,8.28,1.95c1.92,1.28,2.88,3.21,2.88,5.79s-.96,4.49-2.88,5.79c-1.94,1.3-4.7,1.95-8.28,1.95s-6.34-.65-8.28-1.95Zm17.16-5.79c0-3.4-2.96-5.1-8.88-5.1s-8.88,1.7-8.88,5.1,2.96,5.1,8.88,5.1,8.88-1.7,8.88-5.1Z"/>
    <path class="uuid-f74452f9-4f1a-4371-8429-6d88cf46a3ee" d="m1859.09,233.48v11.28h-2.28v-14.1l1.17.06c1.76.12,3.27.52,4.53,1.2s2.36,1.83,3.3,3.45l1.56,2.7c.8,1.36,1.58,2.32,2.34,2.89.76.57,1.68.86,2.76.86,1.18,0,2.12-.38,2.83-1.12s1.06-1.79,1.06-3.11c0-2.98-1.53-4.47-4.59-4.47v-2.49c2.18-.02,3.87.59,5.07,1.83s1.8,2.97,1.8,5.19c0,2.02-.57,3.66-1.71,4.92-1.18,1.26-2.67,1.89-4.47,1.89-2.76,0-5.08-1.62-6.96-4.86l-1.32-2.28c-.8-1.32-1.58-2.27-2.33-2.85s-1.67-.91-2.77-.99Z"/>
  </g>
</svg>