<?xml version="1.0" encoding="UTF-8"?>
<svg id="uuid-9a584a14-ebdc-43a3-af1a-cb80a40403a7" data-name="Layer 1" xmlns="http://www.w3.org/2000/svg" viewBox="0 0 928 1493">
  <defs>
    <style>
      .uuid-713c3f59-86d8-4f54-8da8-c1f82ee4e880 {
        letter-spacing: -.05em;
      }

      .uuid-aaa78508-3448-45b8-a814-09cbf9adf546 {
        fill: none;
        stroke: #f4f4f5;
        stroke-width: 3px;
      }

      .uuid-ec71da07-207a-47b7-ad5b-7574fcfcf238 {
        letter-spacing: -.14em;
      }

      .uuid-08d4f41e-253a-46e9-bef1-b6ae70cf3fdc {
        font-family: 'Helvetica Light', sans-serif;
        font-size: 46px;
        font-weight: 300;
      }

      .uuid-08d4f41e-253a-46e9-bef1-b6ae70cf3fdc, .uuid-e839ce74-73e5-412b-9763-2ba3e3d81b46, .uuid-3bb1e3a8-0bc0-4c28-9a2e-a5b0b871e5bb, .uuid-9a9ddaa2-7f33-46a4-a087-579ed07af918, .uuid-5f7b1042-b512-4774-9129-7d66ae74dc5d, .uuid-7ecdd2d5-2d14-4d80-a504-664e41586b4f {
        isolation: isolate;
      }

      .uuid-08d4f41e-253a-46e9-bef1-b6ae70cf3fdc, .uuid-3bb1e3a8-0bc0-4c28-9a2e-a5b0b871e5bb, .uuid-9a9ddaa2-7f33-46a4-a087-579ed07af918, .uuid-5f7b1042-b512-4774-9129-7d66ae74dc5d, .uuid-0c85fe91-369e-4304-ac7c-42ab8cf14b06 {
        fill: #f4f4f5;
      }

      .uuid-4ef51873-2888-467f-a45e-3b6f4a42224f {
        letter-spacing: -.07em;
      }

      .uuid-8afcf935-03d0-4471-8741-0666ae6fa184 {
        letter-spacing: -.09em;
      }

      .uuid-3bb1e3a8-0bc0-4c28-9a2e-a5b0b871e5bb {
        font-size: 170px;
        letter-spacing: -.04em;
      }

      .uuid-3bb1e3a8-0bc0-4c28-9a2e-a5b0b871e5bb, .uuid-9a9ddaa2-7f33-46a4-a087-579ed07af918 {
        font-family: 'Helvetica Medium', sans-serif;
        font-weight: 500;
      }

      .uuid-9a9ddaa2-7f33-46a4-a087-579ed07af918 {
        font-size: 172px;
      }

      .uuid-8b86cbe0-2706-45be-b5ad-4b7241c44d8c {
        letter-spacing: -.16em;
      }

      .uuid-fa181d52-53d1-4834-b4e9-1783db40a2b6 {
        letter-spacing: 0em;
      }

      .uuid-d56923fe-57c7-48ae-9636-6513c717396e {
        letter-spacing: -.14em;
      }

      .uuid-b64aa03e-0b69-47ac-8af2-954cbbe4691e {
        letter-spacing: 0em;
      }

      .uuid-1c2781ec-b8ab-4956-9345-377de84d80f1 {
        letter-spacing: -.02em;
      }

      .uuid-ecbca9bd-63d3-4880-b833-a44a423d1f8f {
        letter-spacing: -.15em;
      }

      .uuid-f451c45f-3523-4623-a969-aaac4f5db372 {
        letter-spacing: -.07em;
      }

      .uuid-6de68808-71f0-4191-bd05-8cb5f73ce9d9 {
        fill: #1c1919;
        stroke-width: 0px;
      }

      .uuid-5b14cc3f-7c21-49c9-9813-b13b930f42c9 {
        letter-spacing: -.07em;
      }

      .uuid-5f7b1042-b512-4774-9129-7d66ae74dc5d {
        font-family: NotoSansJP-Black, 'Noto Sans JP';
        font-size: 107px;
        font-weight: 800;
      }

      .uuid-32b8dad3-ddc2-4118-861a-15802d7f9c03 {
        letter-spacing: -.02em;
      }

      .uuid-0c85fe91-369e-4304-ac7c-42ab8cf14b06 {
        stroke: #fff;
        stroke-miterlimit: 10;
      }

      .uuid-7ecdd2d5-2d14-4d80-a504-664e41586b4f {
        fill: #707071;
        font-family: 'Helvetica Special', sans-serif;
        font-size: 40px;
      }
    </style>
  </defs>
 
  <g id="uuid-4eaf0bf6-835d-4a9c-a801-b65f1078f4a6" data-name="EXPERIENTIAL " class="uuid-e839ce74-73e5-412b-9763-2ba3e3d81b46">
    <text class="uuid-9a9ddaa2-7f33-46a4-a087-579ed07af918" transform="translate(241 1412) rotate(-90)"><tspan x="0" y="0">EXPERIENTIAL</tspan></text>
  </g>
  <g id="uuid-526a893d-9072-4f5a-aa4f-c88f27465752" data-name="CONCEPTS EVENT DESIGN CONSULTING CAD FLOORPLANS EVENT PLANNING 3D EVENT RENDERINGS CLIENT PRESENTATIONS 3D PRODUCT PRINTING GLOBAL MANAGMENT BRANDING USER X STAGE DESIGN TRADE SHOWS ACTIVATIONS " class="uuid-e839ce74-73e5-412b-9763-2ba3e3d81b46">
    <text class="uuid-08d4f41e-253a-46e9-bef1-b6ae70cf3fdc" transform="translate(371 284)"><tspan x="0" y="0">CONCEPTS</tspan></text>
    <text class="uuid-08d4f41e-253a-46e9-bef1-b6ae70cf3fdc" transform="translate(371 339)"><tspan x="0" y="0">EVENT DESIGN</tspan></text>
    <text class="uuid-08d4f41e-253a-46e9-bef1-b6ae70cf3fdc" transform="translate(371 394)"><tspan x="0" y="0">CONSULTING</tspan></text>
    <text class="uuid-08d4f41e-253a-46e9-bef1-b6ae70cf3fdc" transform="translate(371 449)"><tspan x="0" y="0">CAD FLOORPLANS</tspan></text>
    <text class="uuid-08d4f41e-253a-46e9-bef1-b6ae70cf3fdc" transform="translate(371 504)"><tspan x="0" y="0">EVENT PLANNING</tspan></text>
    <text class="uuid-08d4f41e-253a-46e9-bef1-b6ae70cf3fdc" transform="translate(371 559)"><tspan x="0" y="0">3D EVENT RENDERINGS</tspan></text>
    <text class="uuid-08d4f41e-253a-46e9-bef1-b6ae70cf3fdc" transform="translate(371 614)"><tspan x="0" y="0">CLIENT PRESENTATIONS</tspan></text>
    <text class="uuid-08d4f41e-253a-46e9-bef1-b6ae70cf3fdc" transform="translate(371 669)"><tspan x="0" y="0">3D PRODUCT PRINTING </tspan></text>
    <text class="uuid-08d4f41e-253a-46e9-bef1-b6ae70cf3fdc" transform="translate(371 724)"><tspan x="0" y="0">GLOBAL MANAGEMENT</tspan></text>
    <text class="uuid-08d4f41e-253a-46e9-bef1-b6ae70cf3fdc" transform="translate(371 779)"><tspan x="0" y="0">BRANDING USER X</tspan></text>
    <text class="uuid-08d4f41e-253a-46e9-bef1-b6ae70cf3fdc" transform="translate(371 834)"><tspan x="0" y="0">STAGE DESIGN</tspan></text>
    <text class="uuid-08d4f41e-253a-46e9-bef1-b6ae70cf3fdc" transform="translate(371 889)"><tspan x="0" y="0">TRADE SHOWS </tspan></text>
    <text class="uuid-08d4f41e-253a-46e9-bef1-b6ae70cf3fdc" transform="translate(371 944)"><tspan x="0" y="0">ACTIVATIONS</tspan></text>
  </g>
  <g id="uuid-8d935fb8-4339-4342-95f3-1a3e60a35afc" data-name="Designing thematic event environments detailed event spatial planning and layouts virtual visualization of event setups and management for experiential projects. " class="uuid-e839ce74-73e5-412b-9763-2ba3e3d81b46">
    <text class="uuid-7ecdd2d5-2d14-4d80-a504-664e41586b4f" transform="translate(280 1150)"><tspan x="0" y="0">Designing thematic event </tspan></text>
    <text class="uuid-7ecdd2d5-2d14-4d80-a504-664e41586b4f" transform="translate(280 1198)"><tspan x="0" y="0">environments, detailed event </tspan></text>
    <text class="uuid-7ecdd2d5-2d14-4d80-a504-664e41586b4f" transform="translate(280 1246)"><tspan x="0" y="0">spatial planning and layouts,</tspan></text>
    <text class="uuid-7ecdd2d5-2d14-4d80-a504-664e41586b4f" transform="translate(280 1294)"><tspan x="0" y="0">virtual visualization of event </tspan></text>
    <text class="uuid-7ecdd2d5-2d14-4d80-a504-664e41586b4f" transform="translate(280 1342)"><tspan x="0" y="0">setups and management for </tspan></text>
    <text class="uuid-7ecdd2d5-2d14-4d80-a504-664e41586b4f" transform="translate(280 1390)"><tspan x="0" y="0">experiential projects</tspan></text>
  </g>
  <g id="uuid-7d48698a-2b13-4988-86c2-2a92f2761e26" data-name=" 02" class="uuid-e839ce74-73e5-412b-9763-2ba3e3d81b46">
    <text class="uuid-3bb1e3a8-0bc0-4c28-9a2e-a5b0b871e5bb" transform="translate(707 171)"><tspan x="0" y="0">02</tspan></text>
  </g>
  <g id="uuid-b11468e1-335c-41ae-82db-64c1ad877809" data-name="drip">
    <path id="uuid-eee627e9-4017-4b02-9d5d-0a1f988cfc24" data-name="Path 580" class="uuid-0c85fe91-369e-4304-ac7c-42ab8cf14b06" d="m92.11,211.45c-6.5-.01-11.76-5.27-11.77-11.77v-39.99c-2.37,6.05-9.2,9.04-15.25,6.67-4.51-1.77-7.48-6.12-7.48-10.96v-34.77c-21.16-12.78-27.95-40.28-15.17-61.44,12.78-21.16,40.28-27.95,61.44-15.17,13.41,8.1,21.61,22.63,21.62,38.3-.05,15.66-8.24,30.16-21.62,38.3v79.06c-.01,6.5-5.27,11.76-11.77,11.77h0Zm-10.96-56.06v44.29c0,6.05,4.91,10.96,10.96,10.96s10.96-4.91,10.96-10.96v-79.51l.19-.12c20.84-12.44,27.64-39.41,15.21-60.25-12.44-20.84-39.41-27.64-60.25-15.21-13.28,7.93-21.42,22.26-21.42,37.72.05,15.46,8.17,29.76,21.41,37.73l.19.12v35.22c0,6.05,4.91,10.96,10.96,10.96s10.96-4.91,10.96-10.96h.82Z"/>
    <g id="uuid-ae637954-4876-4b75-bcfd-45f1dfb9eb65" data-name="Group 428">
      <path id="uuid-8427da3a-6f7e-46f5-bf0e-ba67a6db6753" data-name="Path 581" class="uuid-0c85fe91-369e-4304-ac7c-42ab8cf14b06" d="m80.74,53.77l3.34,24.57,24.57,3.34-24.58,3.34-3.34,24.56-3.33-24.56-24.58-3.34,24.58-3.34,3.33-24.57Z"/>
      <path id="uuid-1e5ad0cd-6bc2-4130-a1ef-38f27c0d25d5" data-name="Path 582" class="uuid-0c85fe91-369e-4304-ac7c-42ab8cf14b06" d="m80.74,112.6l-3.7-27.22-27.21-3.7,27.21-3.7,3.7-27.21,3.7,27.21,27.22,3.7-27.22,3.7-3.7,27.22Zm-24.9-30.92l21.92,2.98,2.98,21.92,2.98-21.92,21.92-2.98-21.92-2.98-2.98-21.92-2.98,21.92-21.92,2.98h0Z"/>
    </g>
  </g>
  <g id="uuid-f38f19ad-fa74-484d-bb3f-74d42c1c3d24" data-name="マジックルーム" class="uuid-e839ce74-73e5-412b-9763-2ba3e3d81b46">
    <text class="uuid-5f7b1042-b512-4774-9129-7d66ae74dc5d" transform="translate(347 968.35) rotate(-90)"><tspan class="uuid-4ef51873-2888-467f-a45e-3b6f4a42224f" x="0" y="0">マ</tspan><tspan class="uuid-ecbca9bd-63d3-4880-b833-a44a423d1f8f" x="99.94" y="0">ジ</tspan><tspan class="uuid-d56923fe-57c7-48ae-9636-6513c717396e" x="191.1" y="0">ッ</tspan><tspan class="uuid-8b86cbe0-2706-45be-b5ad-4b7241c44d8c" x="283.66" y="0">ク</tspan><tspan class="uuid-4ef51873-2888-467f-a45e-3b6f4a42224f" x="373.75" y="0">ル</tspan><tspan class="uuid-ec71da07-207a-47b7-ad5b-7574fcfcf238" x="473.69" y="0">ー</tspan><tspan class="uuid-5b14cc3f-7c21-49c9-9813-b13b930f42c9" x="566.14" y="0">ム</tspan></text>
  </g>
</svg>