<?xml version="1.0" encoding="UTF-8"?>
<svg id="uuid-e88916a8-8fca-4645-8bdf-96d2d2b83f46" data-name="uuid-6623818f-7643-41dc-8de9-56485a6dc990" xmlns="http://www.w3.org/2000/svg" viewBox="0 0 1923 325.02">
  <defs>
    <style>
      .uuid-7b268c2e-42eb-42f6-af50-66d63c18f30e {
        fill: #fff;
        stroke-width: 0px;
      }
    </style>
  </defs>
  <g>
    <polygon class="uuid-7b268c2e-42eb-42f6-af50-66d63c18f30e" points="531.57 207.42 513.69 207.42 568.89 114.89 586.77 114.89 531.57 207.42"/>
    <polygon class="uuid-7b268c2e-42eb-42f6-af50-66d63c18f30e" points="579.68 207.42 561.8 207.42 617 114.89 634.88 114.89 579.68 207.42"/>
    <polygon class="uuid-7b268c2e-42eb-42f6-af50-66d63c18f30e" points="627.78 207.42 609.91 207.42 665.11 114.89 682.99 114.89 627.78 207.42"/>
    <polygon class="uuid-7b268c2e-42eb-42f6-af50-66d63c18f30e" points="675.89 207.42 658.01 207.42 713.22 114.89 731.09 114.89 675.89 207.42"/>
    <polygon class="uuid-7b268c2e-42eb-42f6-af50-66d63c18f30e" points="724 207.42 706.12 207.42 761.32 114.89 779.2 114.89 724 207.42"/>
    <polygon class="uuid-7b268c2e-42eb-42f6-af50-66d63c18f30e" points="772.11 207.42 754.23 207.42 809.43 114.89 827.31 114.89 772.11 207.42"/>
  </g>
  <polygon class="uuid-7b268c2e-42eb-42f6-af50-66d63c18f30e" points="43 6.5 43 13 14.68 13 14.68 41.32 8.18 41.32 8.18 6.5 43 6.5"/>
  <polygon class="uuid-7b268c2e-42eb-42f6-af50-66d63c18f30e" points="1881.65 7.5 1881.65 14 1909.97 14 1909.97 42.32 1916.47 42.32 1916.47 7.5 1881.65 7.5"/>
  <polygon class="uuid-7b268c2e-42eb-42f6-af50-66d63c18f30e" points="42.33 319.44 42.33 312.95 14.01 312.95 14.01 284.62 7.51 284.62 7.51 319.44 42.33 319.44"/>
  <polygon class="uuid-7b268c2e-42eb-42f6-af50-66d63c18f30e" points="1881.65 318.44 1881.65 311.95 1909.97 311.95 1909.97 283.62 1916.47 283.62 1916.47 318.44 1881.65 318.44"/>
  <g>
    <rect class="uuid-7b268c2e-42eb-42f6-af50-66d63c18f30e" x="1680.87" y="73.09" width="2.15" height="50.44"/>
    <rect class="uuid-7b268c2e-42eb-42f6-af50-66d63c18f30e" x="1685.17" y="73.09" width="2.15" height="50.44"/>
    <rect class="uuid-7b268c2e-42eb-42f6-af50-66d63c18f30e" x="1689.48" y="73.09" width="4.3" height="50.44"/>
    <rect class="uuid-7b268c2e-42eb-42f6-af50-66d63c18f30e" x="1700.23" y="73.09" width="2.15" height="50.44"/>
    <rect class="uuid-7b268c2e-42eb-42f6-af50-66d63c18f30e" x="1704.53" y="73.09" width="2.15" height="50.44"/>
    <rect class="uuid-7b268c2e-42eb-42f6-af50-66d63c18f30e" x="1715.28" y="73.09" width="2.15" height="50.44"/>
    <rect class="uuid-7b268c2e-42eb-42f6-af50-66d63c18f30e" x="1719.58" y="73.09" width="8.6" height="50.44"/>
    <rect class="uuid-7b268c2e-42eb-42f6-af50-66d63c18f30e" x="1730.34" y="73.09" width="2.15" height="50.44"/>
    <rect class="uuid-7b268c2e-42eb-42f6-af50-66d63c18f30e" x="1734.64" y="73.09" width="2.15" height="50.44"/>
    <rect class="uuid-7b268c2e-42eb-42f6-af50-66d63c18f30e" x="1743.24" y="73.09" width="4.3" height="50.44"/>
    <rect class="uuid-7b268c2e-42eb-42f6-af50-66d63c18f30e" x="1749.69" y="73.09" width="6.45" height="50.44"/>
    <rect class="uuid-7b268c2e-42eb-42f6-af50-66d63c18f30e" x="1760.44" y="73.09" width="2.15" height="50.44"/>
    <rect class="uuid-7b268c2e-42eb-42f6-af50-66d63c18f30e" x="1764.74" y="73.09" width="2.15" height="50.44"/>
    <rect class="uuid-7b268c2e-42eb-42f6-af50-66d63c18f30e" x="1775.5" y="73.09" width="2.15" height="50.44"/>
    <rect class="uuid-7b268c2e-42eb-42f6-af50-66d63c18f30e" x="1779.8" y="73.09" width="2.15" height="50.44"/>
    <rect class="uuid-7b268c2e-42eb-42f6-af50-66d63c18f30e" x="1784.1" y="73.09" width="2.15" height="50.44"/>
    <rect class="uuid-7b268c2e-42eb-42f6-af50-66d63c18f30e" x="1788.4" y="73.09" width="2.15" height="50.44"/>
    <rect class="uuid-7b268c2e-42eb-42f6-af50-66d63c18f30e" x="1792.7" y="73.09" width="6.45" height="50.44"/>
    <rect class="uuid-7b268c2e-42eb-42f6-af50-66d63c18f30e" x="1803.45" y="73.09" width="2.15" height="50.44"/>
    <rect class="uuid-7b268c2e-42eb-42f6-af50-66d63c18f30e" x="1809.91" y="73.09" width="6.45" height="50.44"/>
    <rect class="uuid-7b268c2e-42eb-42f6-af50-66d63c18f30e" x="1818.51" y="73.09" width="4.3" height="50.44"/>
    <rect class="uuid-7b268c2e-42eb-42f6-af50-66d63c18f30e" x="1824.96" y="73.09" width="4.3" height="50.44"/>
    <rect class="uuid-7b268c2e-42eb-42f6-af50-66d63c18f30e" x="1833.56" y="73.09" width="2.15" height="50.44"/>
    <rect class="uuid-7b268c2e-42eb-42f6-af50-66d63c18f30e" x="1840.01" y="73.09" width="6.45" height="50.44"/>
    <rect class="uuid-7b268c2e-42eb-42f6-af50-66d63c18f30e" x="1848.62" y="73.09" width="2.15" height="50.44"/>
    <rect class="uuid-7b268c2e-42eb-42f6-af50-66d63c18f30e" x="1859.37" y="73.09" width="2.15" height="50.44"/>
    <rect class="uuid-7b268c2e-42eb-42f6-af50-66d63c18f30e" x="1863.67" y="73.09" width="6.45" height="50.44"/>
    <rect class="uuid-7b268c2e-42eb-42f6-af50-66d63c18f30e" x="1874.42" y="73.09" width="2.15" height="50.44"/>
    <rect class="uuid-7b268c2e-42eb-42f6-af50-66d63c18f30e" x="1878.72" y="73.09" width="2.15" height="50.44"/>
    <rect class="uuid-7b268c2e-42eb-42f6-af50-66d63c18f30e" x="1883.03" y="73.09" width="2.15" height="50.44"/>
  </g>
  <g>
    <path class="uuid-7b268c2e-42eb-42f6-af50-66d63c18f30e" d="m39.98,63.9h38.47v13.15h-23.15v6.44h19.87v12.23h-19.87v19.58h-15.32v-51.4Z"/>
    <path class="uuid-7b268c2e-42eb-42f6-af50-66d63c18f30e" d="m84.34,63.9h29.85c4.59,0,8.49,1.22,11.69,3.66,3.18,2.46,4.81,6.14,4.9,11.04,0,2.72-.6,5.29-1.79,7.7-1.31,2.34-3.28,4.07-5.91,5.17,4.41,1.88,6.93,6.15,7.56,12.83.09.61.16,1.39.21,2.36.09.96.16,1.99.2,3.09.18,2.32.6,4.17,1.26,5.55h-15.35c-.68-2.61-1.09-5.25-1.23-7.93-.05-1.27-.18-2.52-.4-3.77-.19-1.15-.53-2.21-1.02-3.17-.46-.96-1.16-1.73-2.1-2.29-.94-.54-2.23-.81-3.85-.81h-8.71v17.96h-15.33v-51.4Zm15.33,22.46h8.58c1.67.05,3.26-.25,4.77-.88,1.58-.61,2.39-2.03,2.44-4.25,0-1.66-.55-2.93-1.64-3.8-1.24-.87-3.39-1.3-6.47-1.3h-7.67v10.23Z"/>
    <path class="uuid-7b268c2e-42eb-42f6-af50-66d63c18f30e" d="m152.45,63.9h14.99l18.15,51.4h-15.91l-2.08-7.34h-15.84l-2.25,7.34h-15.39l18.32-51.4Zm12.06,33.09l-4.46-15.89h-.14l-4.8,15.89h9.4Z"/>
    <path class="uuid-7b268c2e-42eb-42f6-af50-66d63c18f30e" d="m190.73,63.9h15.7l14.47,27.5h.17v-27.5h14.48v51.4h-14.95l-15.26-28.09h-.14v28.09h-14.48v-51.4Z"/>
    <path class="uuid-7b268c2e-42eb-42f6-af50-66d63c18f30e" d="m245.71,63.9h15.32v17.72h.14l13.66-17.72h18.91l-18.06,20.04,20.98,31.36h-19.11l-12.3-20-4.22,4.82v15.19h-15.32v-51.4Z"/>
    <path class="uuid-7b268c2e-42eb-42f6-af50-66d63c18f30e" d="m37.66,174.96l23.15-25.91h-21.83v-13.15h42.05v11.51l-24.12,26.75h25.24v13.15h-44.5v-12.34Z"/>
    <path class="uuid-7b268c2e-42eb-42f6-af50-66d63c18f30e" d="m134.47,167.46c0,14.09-7.72,21.12-23.17,21.07-15.47.05-23.2-6.98-23.2-21.09v-31.54h15.33v28.01c0,1.31.05,2.64.15,3.98.1,1.38.4,2.69.91,3.91.49,1.15,1.27,2.09,2.37,2.82,1.09.75,2.61,1.13,4.55,1.13s3.46-.38,4.55-1.13c1.04-.73,1.79-1.67,2.26-2.82.48-1.22.78-2.52.87-3.91.05-1.34.07-2.66.07-3.98v-28.01h15.32v31.56Z"/>
    <path class="uuid-7b268c2e-42eb-42f6-af50-66d63c18f30e" d="m143.86,135.9h21.83l7.12,30.24h.14l7.12-30.24h21.8v51.4h-14.48v-32.98h-.17l-8.63,32.98h-11.45l-8.66-32.98h-.14v32.98h-14.48v-51.4Z"/>
    <path class="uuid-7b268c2e-42eb-42f6-af50-66d63c18f30e" d="m211.82,135.9h21.83l7.12,30.24h.14l7.12-30.24h21.8v51.4h-14.48v-32.98h-.17l-8.63,32.98h-11.45l-8.66-32.98h-.14v32.98h-14.48v-51.4Z"/>
    <path class="uuid-7b268c2e-42eb-42f6-af50-66d63c18f30e" d="m278.37,161.6c.04-8.02,2.4-14.47,7.05-19.37,4.5-4.94,10.56-7.46,18.19-7.56,7.72.09,13.84,2.61,18.36,7.56,4.54,4.9,6.83,11.36,6.88,19.37-.05,7.97-2.34,14.4-6.88,19.3-4.52,4.99-10.64,7.54-18.36,7.63-7.63-.09-13.69-2.64-18.19-7.63-4.65-4.9-7.01-11.33-7.05-19.3Zm15.32,0c0,2.8.35,5.11,1.06,6.94.66,1.86,1.5,3.31,2.52,4.37,2.14,1.93,4.25,2.87,6.34,2.82.98,0,2.07-.21,3.27-.63,1.16-.45,2.23-1.17,3.2-2.19,1.04-1.06,1.89-2.51,2.52-4.37.61-1.83.92-4.15.92-6.94s-.31-5.28-.92-7.16c-.64-1.88-1.48-3.3-2.52-4.27-2.18-1.88-4.34-2.78-6.48-2.71-.98,0-2.02.17-3.14.49-1.11.42-2.18,1.16-3.2,2.22-.48.49-.92,1.08-1.33,1.76-.43.71-.83,1.54-1.19,2.5-.7,1.88-1.06,4.27-1.06,7.16Z"/>
    <path class="uuid-7b268c2e-42eb-42f6-af50-66d63c18f30e" d="m52.14,242.03c0,1.29.18,2.42.54,3.38.65,1.48,1.76,2.46,3.31,2.96,1.48.52,2.99.77,4.54.77,1.43.05,2.91-.26,4.43-.91,1.5-.68,2.28-1.93,2.33-3.76.05-1.29-.68-2.32-2.18-3.09-1.57-.73-4.55-1.66-8.93-2.81-2.06-.56-4.08-1.18-6.05-1.86-2.06-.68-3.92-1.55-5.59-2.6-1.69-1.05-3.06-2.45-4.11-4.18-1.1-1.62-1.65-3.7-1.65-6.26.09-5.95,2.18-10.29,6.26-13.01,3.9-2.65,8.51-3.97,13.82-3.97,5.56-.05,10.35,1.15,14.37,3.58,3.9,2.6,6.04,6.98,6.4,13.15h-14.52c.18-1.91-.42-3.27-1.81-4.09-1.36-.84-2.87-1.26-4.53-1.26-1.14,0-2.31.21-3.51.63-.55.23-1.01.57-1.4,1.02-.41.47-.61,1.07-.61,1.79.09.87.58,1.58,1.47,2.14.84.63,1.93,1.18,3.27,1.65,2.84.87,6.08,1.76,9.71,2.67,1.93.49,3.78,1.09,5.55,1.79,1.74.68,3.32,1.59,4.75,2.74,1.45,1.15,2.6,2.54,3.44,4.18.77,1.73,1.16,3.77,1.16,6.12-.14,6.59-2.6,11.19-7.4,13.82-4.72,2.65-10.07,3.95-16.04,3.9-1.48,0-3.43-.22-5.83-.67-2.43-.42-4.9-1.25-7.4-2.5-2.48-1.27-4.57-3.14-6.28-5.63-1.74-2.39-2.67-5.63-2.81-9.71h15.28Z"/>
    <path class="uuid-7b268c2e-42eb-42f6-af50-66d63c18f30e" d="m133.17,239.46c0,14.09-7.72,21.12-23.17,21.07-15.47.05-23.2-6.98-23.2-21.09v-31.54h15.33v28.01c0,1.31.05,2.64.15,3.98.1,1.38.4,2.69.91,3.91.49,1.15,1.27,2.09,2.37,2.82,1.09.75,2.61,1.13,4.55,1.13s3.46-.38,4.55-1.13c1.04-.73,1.79-1.67,2.26-2.82.48-1.22.78-2.52.87-3.91.05-1.34.07-2.66.07-3.98v-28.01h15.32v31.56Z"/>
    <path class="uuid-7b268c2e-42eb-42f6-af50-66d63c18f30e" d="m142.56,207.9h21.83l7.12,30.24h.14l7.12-30.24h21.8v51.4h-14.48v-32.98h-.17l-8.63,32.98h-11.45l-8.66-32.98h-.14v32.98h-14.48v-51.4Z"/>
    <path class="uuid-7b268c2e-42eb-42f6-af50-66d63c18f30e" d="m230.28,249.39h-21.58v-13.55l22.23-26.64h13.83v27.95h6.58v12.23h-6.58v9.91h-14.48v-9.91Zm-11.87-12.23h11.87v-14.07l-11.87,14.07Z"/>
    <path class="uuid-7b268c2e-42eb-42f6-af50-66d63c18f30e" d="m274.19,230.43h-11.37v-10.33c3.66.14,6.91-.63,9.75-2.33,2.8-1.67,4.35-4.53,4.67-8.57h11.42v50.1h-14.48v-28.87Z"/>
  </g>
  <g>
    <path class="uuid-7b268c2e-42eb-42f6-af50-66d63c18f30e" d="m1557.52,167.32c-.57.71-1.21,1.34-1.9,1.88-.73.56-1.52,1.03-2.39,1.43-.79.32-1.64.58-2.55.79-.93.19-1.86.29-2.8.29-5.04-.06-8.98-1.83-11.82-5.29-2.87-3.37-4.33-7.6-4.36-12.7.09-6.62,1.92-11.4,5.49-14.36,3.45-2.9,7.18-4.34,11.22-4.31,8.76.13,13.96,4.49,15.6,13.07h-10.01c-.22-1.31-.77-2.38-1.65-3.19-.93-.75-2.02-1.14-3.29-1.18-1.73.03-3.08.42-4.03,1.18-.97.82-1.67,1.81-2.09,3-.42,1.14-.66,2.26-.72,3.38-.06,1.12-.09,2-.09,2.64,0,.83.12,1.75.35,2.76.22,1.02.59,2.01,1.14,2.95.57.94,1.34,1.73,2.32,2.35,1.02.66,2.3.98,3.85.98,1.27,0,2.42-.33,3.45-.98,1.02-.66,1.67-1.62,1.95-2.88l-4.59-.02v-7.46h13.86v19.21h-6.6l-.33-3.55Z"/>
    <path class="uuid-7b268c2e-42eb-42f6-af50-66d63c18f30e" d="m1592.15,148.92c-.03-.37-.12-.85-.28-1.44-.19-.56-.47-1.11-.86-1.66-.37-.62-.91-1.14-1.62-1.54-.7-.35-1.59-.53-2.69-.53-2.38.06-4.05,1.08-5.03,3.05-.99,1.92-1.47,4.11-1.44,6.57-.03,2.46.45,4.65,1.44,6.57.97,2,2.65,3.02,5.03,3.05,1.73,0,3.03-.57,3.89-1.7.82-1.09,1.35-2.46,1.6-4.13h10.27c-.03,3.68-1.36,6.97-3.99,9.87-2.63,3.01-6.46,4.57-11.5,4.66-5.47-.06-9.7-1.84-12.68-5.34-3-3.4-4.5-7.73-4.5-12.99.03-5.61,1.59-10.06,4.68-13.33,3.04-3.3,7.21-4.97,12.49-5,9.3.25,14.42,4.88,15.34,13.86h-10.18Z"/>
    <path class="uuid-7b268c2e-42eb-42f6-af50-66d63c18f30e" d="m1617.38,135.9h10.2l12.35,34.98h-10.83l-1.41-5h-10.78l-1.53,5h-10.48l12.47-34.98Zm8.21,22.52l-3.04-10.82h-.09l-3.27,10.82h6.4Z"/>
    <path class="uuid-7b268c2e-42eb-42f6-af50-66d63c18f30e" d="m1554.04,188.92c-.03-.37-.12-.85-.28-1.44-.19-.56-.47-1.11-.86-1.66-.37-.62-.91-1.14-1.62-1.54-.7-.35-1.59-.53-2.69-.53-2.38.06-4.05,1.08-5.03,3.05-.99,1.92-1.47,4.11-1.44,6.57-.03,2.46.45,4.66,1.44,6.57.97,2,2.65,3.01,5.03,3.05,1.73,0,3.03-.57,3.89-1.7.82-1.09,1.35-2.46,1.6-4.13h10.27c-.03,3.68-1.36,6.97-3.99,9.87-2.63,3.01-6.46,4.57-11.5,4.66-5.47-.06-9.7-1.84-12.68-5.34-3-3.4-4.5-7.73-4.5-12.99.03-5.61,1.59-10.06,4.68-13.33,3.04-3.3,7.21-4.97,12.49-5,9.3.25,14.42,4.88,15.34,13.86h-10.18Z"/>
    <path class="uuid-7b268c2e-42eb-42f6-af50-66d63c18f30e" d="m1595.55,198.16c0,3.62-1.1,6.72-3.31,9.3-2.19,2.65-5.66,4-10.41,4.06-4.68-.06-8.14-1.42-10.36-4.07-2.27-2.58-3.38-5.69-3.34-9.31-.05-3.67,1.06-6.78,3.34-9.33,2.22-2.6,5.68-3.93,10.36-4,4.75.06,8.22,1.4,10.41,4,2.21,2.55,3.31,5.67,3.31,9.34Zm-9.38,0c0-.69-.03-1.41-.1-2.18-.1-.75-.31-1.42-.62-2.01-.3-.64-.72-1.16-1.27-1.56-.61-.37-1.39-.55-2.34-.55s-1.64.18-2.19.55c-.61.4-1.07.92-1.37,1.56-.55,1.31-.8,2.71-.77,4.2,0,.66.07,1.34.2,2.06.1.72.29,1.41.57,2.06.3.66.75,1.17,1.37,1.56.55.43,1.28.65,2.19.65s1.73-.22,2.34-.65c.55-.38.97-.9,1.27-1.56.51-1.34.75-2.72.72-4.12Z"/>
    <path class="uuid-7b268c2e-42eb-42f6-af50-66d63c18f30e" d="m1600.8,175.9h9.37v34.98h-9.37v-34.98Z"/>
    <path class="uuid-7b268c2e-42eb-42f6-af50-66d63c18f30e" d="m1616.23,175.9h9.37v34.98h-9.37v-34.98Z"/>
    <path class="uuid-7b268c2e-42eb-42f6-af50-66d63c18f30e" d="m1638.79,200.35c.16,1.44.65,2.61,1.46,3.52.78.96,1.94,1.44,3.47,1.44.83,0,1.62-.17,2.37-.5.75-.29,1.32-.73,1.7-1.32h9.08c-1.03,2.74-2.71,4.77-5.04,6.08-2.32,1.31-4.96,1.96-7.91,1.96-4.1-.03-7.44-1.2-10.01-3.49-2.68-2.28-4.04-5.54-4.07-9.79.03-3.83,1.25-7.02,3.67-9.57,2.4-2.5,5.6-3.79,9.61-3.85,9.62.13,14.39,5.3,14.29,15.53h-18.61Zm9.62-5.02c-.03-1.22-.44-2.24-1.21-3.06-.79-.82-1.86-1.23-3.19-1.23-2.99.03-4.71,1.46-5.17,4.29h9.58Z"/>
    <path class="uuid-7b268c2e-42eb-42f6-af50-66d63c18f30e" d="m1678.22,195.11c-.11-1.05-.46-1.86-1.04-2.42-.57-.56-1.37-.84-2.39-.84-.88,0-1.58.18-2.09.55-.57.35-1,.82-1.28,1.42-.29.59-.49,1.26-.58,2.01-.12.78-.19,1.58-.19,2.37,0,.75.06,1.5.19,2.25.09.75.29,1.42.58,2.01.28.59.7,1.06,1.28,1.42.51.4,1.21.6,2.09.6,1.05,0,1.91-.38,2.58-1.13.63-.72,1-1.59,1.09-2.61h8.98c-.48,3.46-1.88,6.1-4.22,7.93-2.35,1.86-5.22,2.81-8.6,2.84-3.8-.03-6.93-1.26-9.39-3.69-2.6-2.34-3.91-5.56-3.94-9.64.03-4.08,1.34-7.34,3.94-9.76,2.46-2.38,5.59-3.58,9.39-3.61,3.32,0,6.16.81,8.51,2.44,2.3,1.69,3.65,4.31,4.03,7.85h-8.93Z"/>
    <path class="uuid-7b268c2e-42eb-42f6-af50-66d63c18f30e" d="m1703.55,185.44h5.04v5.98h-5.04v8.9c-.03,1.17.16,2.01.58,2.54.4.56,1.18.84,2.32.84.73,0,1.44-.05,2.14-.14v7.32c-1.96.06-3.96.16-6.02.29-1.02,0-2-.08-2.94-.24-.97-.19-1.88-.52-2.71-.98-.82-.52-1.47-1.29-1.94-2.29-.54-1.02-.81-2.37-.81-4.05v-12.18h-4.2v-5.98h4.2v-7.73h9.37v7.73Z"/>
    <path class="uuid-7b268c2e-42eb-42f6-af50-66d63c18f30e" d="m1721.76,182.69h-9.37v-6.79h9.37v6.79Zm-9.37,2.75h9.37v25.43h-9.37v-25.43Z"/>
    <path class="uuid-7b268c2e-42eb-42f6-af50-66d63c18f30e" d="m1753.44,198.16c0,3.62-1.1,6.72-3.31,9.3-2.19,2.65-5.66,4-10.41,4.06-4.68-.06-8.14-1.42-10.36-4.07-2.27-2.58-3.38-5.69-3.34-9.31-.05-3.67,1.06-6.78,3.34-9.33,2.22-2.6,5.68-3.93,10.36-4,4.75.06,8.22,1.4,10.41,4,2.21,2.55,3.31,5.67,3.31,9.34Zm-9.38,0c0-.69-.03-1.41-.1-2.18-.1-.75-.31-1.42-.62-2.01-.3-.64-.72-1.16-1.27-1.56-.61-.37-1.39-.55-2.34-.55s-1.64.18-2.19.55c-.61.4-1.07.92-1.37,1.56-.55,1.31-.8,2.71-.77,4.2,0,.66.07,1.34.2,2.06.1.72.29,1.41.57,2.06.3.66.75,1.17,1.37,1.56.55.43,1.28.65,2.19.65s1.73-.22,2.34-.65c.55-.38.97-.9,1.27-1.56.51-1.34.75-2.72.72-4.12Z"/>
    <path class="uuid-7b268c2e-42eb-42f6-af50-66d63c18f30e" d="m1758.49,185.44h9.34v3.23h.1c1.72-2.57,4.47-3.85,8.26-3.85,2.3,0,4.28.7,5.93,2.11,1.64,1.4,2.47,3.57,2.5,6.51v17.44h-9.38v-13.35c.03-1.5-.14-2.71-.53-3.64-.4-.91-1.33-1.37-2.8-1.37-.92-.03-1.79.26-2.62.89-.4.32-.74.81-1.02,1.46-.27.69-.4,1.54-.4,2.56v13.44h-9.37v-25.43Z"/>
    <path class="uuid-7b268c2e-42eb-42f6-af50-66d63c18f30e" d="m1554.04,228.92c-.03-.37-.12-.85-.28-1.44-.19-.56-.47-1.11-.86-1.66-.37-.62-.91-1.14-1.62-1.54-.7-.35-1.59-.53-2.69-.53-2.38.06-4.05,1.08-5.03,3.05-.99,1.92-1.47,4.11-1.44,6.57-.03,2.46.45,4.66,1.44,6.57.97,2,2.65,3.01,5.03,3.05,1.73,0,3.03-.57,3.89-1.7.82-1.09,1.35-2.46,1.6-4.13h10.27c-.03,3.68-1.36,6.97-3.99,9.87-2.63,3.01-6.46,4.57-11.5,4.66-5.47-.06-9.7-1.84-12.68-5.34-3-3.4-4.5-7.73-4.5-12.99.03-5.61,1.59-10.06,4.68-13.33,3.04-3.3,7.21-4.97,12.49-5,9.3.25,14.42,4.88,15.34,13.86h-10.18Z"/>
    <path class="uuid-7b268c2e-42eb-42f6-af50-66d63c18f30e" d="m1594.29,245.21c0,.95.06,1.93.19,2.93.12.98.44,1.9.96,2.74h-9.89c-.25-.81-.37-1.61-.33-2.39h-.1c-1.05,1.13-2.26,1.91-3.63,2.34-1.43.46-2.95.69-4.54.69-2.43,0-4.45-.62-6.05-1.87-1.71-1.27-2.58-3.22-2.61-5.83,0-1.99.53-3.54,1.58-4.64,1-1.12,2.26-1.92,3.76-2.41,1.58-.53,3.17-.88,4.76-1.08,1.59-.19,3.01-.37,4.26-.53.37-.11.71-.21,1.03-.31.3-.1.58-.21.84-.33.53-.32.79-.86.79-1.62-.03-.88-.36-1.49-.98-1.84-.62-.33-1.36-.5-2.21-.5-1.46.03-2.42.31-2.9.83-.5.58-.74,1.17-.74,1.75h-9.04c.13-1.8.58-3.26,1.37-4.38.77-1.1,1.77-1.93,3-2.49,1.25-.59,2.64-1,4.17-1.22,1.48-.16,2.95-.24,4.4-.24,2.97,0,5.29.27,6.98.81,1.67.56,2.85,1.32,3.53,2.27.71.94,1.15,2,1.33,3.18.06,1.2.09,2.42.09,3.66v10.46Zm-9-5.73c-1.27.56-2.61.97-4.01,1.22-2.29.29-3.43,1.21-3.43,2.76,0,.62.31,1.16.93,1.61.57.5,1.32.74,2.26.74,1.19,0,2.18-.34,2.98-1.03.79-.66,1.21-1.64,1.28-2.95v-2.35Z"/>
    <path class="uuid-7b268c2e-42eb-42f6-af50-66d63c18f30e" d="m1599.12,225.44h9.35v3.37h.1c1.99-2.74,4.77-4.08,8.33-4,1.4,0,2.74.32,4.02.96,1.28.7,2.22,1.7,2.85,2.99.1-.13.3-.38.62-.77.33-.43.85-.89,1.53-1.39.69-.48,1.55-.9,2.58-1.27,1.08-.35,2.39-.53,3.92-.53,3.13.06,5.34.97,6.63,2.73.66.85,1.13,1.76,1.41,2.75.26,1.04.39,2.08.39,3.13v17.44h-9.38v-13.74c.03-1.27-.12-2.34-.45-3.2-.42-.88-1.38-1.33-2.9-1.36-1.28,0-2.15.41-2.62,1.22-.55.86-.83,1.98-.83,3.35v13.74h-9.38v-13.74c.03-1.27-.12-2.34-.45-3.2-.42-.88-1.38-1.33-2.9-1.36-1.28,0-2.15.41-2.62,1.22-.55.86-.83,1.98-.83,3.35v13.74h-9.38v-25.43Z"/>
    <path class="uuid-7b268c2e-42eb-42f6-af50-66d63c18f30e" d="m1646.28,225.44h9.06v2.8h.09c.31-.46.66-.89,1.04-1.27.37-.43.81-.79,1.32-1.08,1.02-.69,2.63-1.04,4.84-1.08,1.78.03,3.33.42,4.66,1.17,1.27.78,2.33,1.83,3.17,3.13,1.68,2.74,2.53,5.8,2.53,9.16,0,1.5-.15,3.01-.44,4.55-.31,1.53-.87,2.95-1.67,4.26-1.55,2.84-4.34,4.31-8.39,4.43-2.95-.03-5.2-1.18-6.75-3.43h-.09v11.02h-9.38v-33.66Zm9.05,12.76c0,.72.07,1.46.2,2.21.13.75.36,1.42.67,2.01.63,1.34,1.81,2.03,3.55,2.06.91,0,1.67-.22,2.29-.65.58-.35,1.02-.82,1.32-1.42.55-1.28.82-2.69.82-4.22,0-1.61-.27-3.08-.82-4.39-.3-.59-.74-1.06-1.32-1.42-.61-.37-1.38-.55-2.29-.55-1.74.03-2.92.69-3.55,1.97-.32.59-.54,1.26-.67,2.01-.13.78-.2,1.58-.2,2.37Z"/>
    <path class="uuid-7b268c2e-42eb-42f6-af50-66d63c18f30e" d="m1703.15,245.21c0,.95.06,1.93.19,2.93.12.98.44,1.9.96,2.74h-9.89c-.25-.81-.37-1.61-.33-2.39h-.1c-1.05,1.13-2.26,1.91-3.63,2.34-1.43.46-2.95.69-4.54.69-2.43,0-4.45-.62-6.05-1.87-1.71-1.27-2.58-3.22-2.61-5.83,0-1.99.53-3.54,1.58-4.64,1-1.12,2.26-1.92,3.76-2.41,1.58-.53,3.17-.88,4.76-1.08,1.59-.19,3.01-.37,4.26-.53.37-.11.71-.21,1.03-.31.3-.1.58-.21.84-.33.53-.32.79-.86.79-1.62-.03-.88-.36-1.49-.98-1.84-.62-.33-1.36-.5-2.21-.5-1.46.03-2.42.31-2.9.83-.5.58-.74,1.17-.74,1.75h-9.04c.13-1.8.58-3.26,1.37-4.38.77-1.1,1.77-1.93,3-2.49,1.25-.59,2.64-1,4.17-1.22,1.48-.16,2.95-.24,4.4-.24,2.97,0,5.29.27,6.98.81,1.67.56,2.85,1.32,3.53,2.27.71.94,1.15,2,1.33,3.18.06,1.2.09,2.42.09,3.66v10.46Zm-9-5.73c-1.27.56-2.61.97-4.01,1.22-2.29.29-3.43,1.21-3.43,2.76,0,.62.31,1.16.93,1.61.57.5,1.32.74,2.26.74,1.19,0,2.18-.34,2.98-1.03.79-.66,1.21-1.64,1.28-2.95v-2.35Z"/>
    <path class="uuid-7b268c2e-42eb-42f6-af50-66d63c18f30e" d="m1718.1,222.69h-9.37v-6.79h9.37v6.79Zm-9.37,2.75h9.37v25.43h-9.37v-25.43Z"/>
    <path class="uuid-7b268c2e-42eb-42f6-af50-66d63c18f30e" d="m1749.62,247.62c0,1.24-.11,2.56-.32,3.96-.26,1.4-.83,2.72-1.71,3.96-.82,1.19-2.1,2.16-3.85,2.91-1.75.83-4.05,1.26-6.93,1.29-3.01.03-5.76-.54-8.25-1.72-2.53-1.15-4.07-3.4-4.61-6.75h9.3c.14.27.32.56.53.88.31.46.7.86,1.18,1.21.48.4,1,.61,1.58.64.76-.03,1.39-.25,1.9-.65.46-.42.84-.92,1.14-1.51.43-1.31.65-2.54.65-3.69v-2.35h-.1c-1.59,2.31-3.86,3.49-6.79,3.54-3.7-.05-6.43-1.28-8.18-3.68-1.8-2.36-2.7-5.27-2.7-8.73s.95-6.28,2.85-8.57c1.83-2.31,4.56-3.5,8.18-3.56,1.47,0,2.81.27,4.02.81,1.21.62,2.09,1.59,2.63,2.9h.1v-3.09h9.38v22.18Zm-17.78-10.71c0,.69.08,1.41.25,2.16.13.77.37,1.44.7,2.01.65,1.34,1.84,2.03,3.58,2.06.94,0,1.69-.21,2.24-.62.58-.37.99-.86,1.22-1.49.48-1.26.7-2.65.67-4.17,0-1.47-.36-2.66-1.07-3.57-.71-.93-1.82-1.41-3.31-1.44-1.43.03-2.5.53-3.21,1.49-.71.97-1.07,2.17-1.07,3.57Z"/>
    <path class="uuid-7b268c2e-42eb-42f6-af50-66d63c18f30e" d="m1754.83,225.44h9.34v3.23h.1c1.72-2.57,4.47-3.85,8.26-3.85,2.3,0,4.28.7,5.93,2.11,1.64,1.4,2.47,3.57,2.5,6.51v17.44h-9.38v-13.35c.03-1.5-.14-2.71-.53-3.64-.4-.91-1.33-1.37-2.8-1.37-.92-.03-1.79.26-2.62.89-.4.32-.74.81-1.02,1.46-.27.69-.4,1.54-.4,2.56v13.44h-9.37v-25.43Z"/>
  </g>
  <g>
    <path class="uuid-7b268c2e-42eb-42f6-af50-66d63c18f30e" d="m1552.82,106.2h6.14v4.86h-6.14v11.39h-5.38v-11.39h-22.85v-5.18l22.4-28.99h5.82v29.31Zm-5.38,0v-22.27l-17.22,22.27h17.22Z"/>
    <path class="uuid-7b268c2e-42eb-42f6-af50-66d63c18f30e" d="m1568.63,117.59h24.06v4.86h-30.08l.13-2.5c.26-3.75,1.11-6.98,2.56-9.66,1.45-2.69,3.9-5.03,7.36-7.04l5.76-3.33c2.9-1.71,4.96-3.37,6.18-4.99,1.22-1.62,1.82-3.58,1.82-5.89,0-2.52-.8-4.53-2.4-6.05-1.6-1.51-3.81-2.27-6.62-2.27-6.36,0-9.54,3.26-9.54,9.79h-5.31c-.04-4.65,1.26-8.26,3.9-10.82s6.34-3.84,11.07-3.84c4.31,0,7.81,1.22,10.5,3.65,2.69,2.52,4.03,5.7,4.03,9.54,0,5.89-3.46,10.84-10.37,14.85l-4.86,2.82c-2.82,1.71-4.84,3.36-6.08,4.96-1.24,1.6-1.94,3.57-2.11,5.92Z"/>
    <path class="uuid-7b268c2e-42eb-42f6-af50-66d63c18f30e" d="m1613.88,92.76c4.78,0,8.58,1.45,11.39,4.35,2.77,2.9,4.16,6.57,4.16,11.01s-1.41,8.11-4.22,11.01c-2.9,2.9-6.72,4.35-11.46,4.35-3.97,0-7.32-1.07-10.05-3.2-2.48-2.01-4.22-4.66-5.25-7.97-1.02-3.31-1.54-7.46-1.54-12.45,0-7.55,1.46-13.44,4.38-17.66,2.92-4.22,7.11-6.34,12.58-6.34,3.97,0,7.27,1.09,9.92,3.26,2.64,2.18,4.31,5.18,4.99,9.02h-5.25c-.51-2.39-1.61-4.22-3.3-5.5-1.69-1.28-3.81-1.92-6.37-1.92-7.59,0-11.46,6.08-11.58,18.24,1.24-1.83,2.93-3.33,5.09-4.48,2.15-1.15,4.32-1.73,6.5-1.73Zm-7.42,22.91c1.92,1.96,4.35,2.94,7.3,2.94s5.4-.98,7.23-2.94c1.88-2,2.82-4.52,2.82-7.55s-.94-5.55-2.82-7.55c-1.83-1.96-4.25-2.94-7.23-2.94s-5.38.96-7.3,2.88c-1.92,2.01-2.88,4.54-2.88,7.62s.96,5.63,2.88,7.55Z"/>
    <path class="uuid-7b268c2e-42eb-42f6-af50-66d63c18f30e" d="m1657.59,98.2c5.08,2.65,7.62,6.46,7.62,11.46,0,4.14-1.45,7.47-4.35,9.98-2.86,2.56-6.63,3.84-11.33,3.84-5.08,0-9.01-1.32-11.81-3.97-2.79-2.65-4.17-6.25-4.13-10.82h5.31c.08,3.24,1.04,5.71,2.88,7.39,1.83,1.69,4.42,2.53,7.74,2.53,3.07,0,5.51-.81,7.33-2.43,1.81-1.62,2.72-3.8,2.72-6.53s-.93-4.98-2.78-6.62c-1.86-1.64-4.38-2.46-7.58-2.46h-3.39v-4.48h3.07c3.03,0,5.37-.68,7.01-2.05,1.64-1.36,2.46-3.26,2.46-5.7s-.82-4.26-2.46-5.6c-1.64-1.34-3.87-2.02-6.69-2.02s-5.13.74-6.82,2.21-2.59,3.64-2.72,6.5h-5.38c.04-4.14,1.4-7.43,4.06-9.89,2.67-2.45,6.28-3.68,10.85-3.68s7.92,1.1,10.59,3.3c2.67,2.2,4,5.22,4,9.06,0,4.35-2.07,7.68-6.21,9.98Z"/>
  </g>
  <g>
    <path class="uuid-7b268c2e-42eb-42f6-af50-66d63c18f30e" d="m990.92,114.54c4.18,1.6,6.27,4.49,6.27,8.67,0,3.16-1.03,5.65-3.09,7.47-2.06,1.82-4.96,2.73-8.7,2.73h-15.86v-36.31h15.1c3.5,0,6.22.88,8.16,2.63,1.94,1.75,2.91,4.04,2.91,6.86,0,3.64-1.6,6.29-4.79,7.96Zm-6.58-13.57h-10.51v11.98h10.51c2.35,0,4.13-.54,5.35-1.63,1.22-1.09,1.84-2.62,1.84-4.59,0-1.8-.62-3.21-1.86-4.23-1.24-1.02-3.02-1.53-5.33-1.53Zm-10.51,28.56h11.37c2.52,0,4.43-.54,5.74-1.63,1.31-1.09,1.96-2.65,1.96-4.69,0-4.28-2.58-6.43-7.75-6.43h-11.32v12.75Z"/>
    <path class="uuid-7b268c2e-42eb-42f6-af50-66d63c18f30e" d="m1013.87,106.68c.68,0,1.14.02,1.38.05v3.93h-1.02c-2.72,0-4.84.67-6.35,2.01-1.51,1.34-2.27,3.26-2.27,5.74v14.99h-4.08v-26.32h3.88v4.64c1.77-3.37,4.59-5.05,8.47-5.05Z"/>
    <path class="uuid-7b268c2e-42eb-42f6-af50-66d63c18f30e" d="m1038.81,130.09h1.48v3.31c-.68.1-1.43.15-2.24.15-2.75,0-4.23-1.26-4.44-3.77-1.84,2.82-4.69,4.23-8.57,4.23-2.89,0-5.16-.67-6.81-2.01-1.65-1.34-2.47-3.24-2.47-5.69,0-4.76,3.25-7.48,9.74-8.16l3.77-.41c2.75-.31,4.13-1.51,4.13-3.62,0-1.46-.45-2.52-1.35-3.16-.9-.65-2.42-.97-4.56-.97-2.28,0-3.92.38-4.92,1.15-1,.77-1.57,2.12-1.71,4.05h-4.08c.34-5.81,3.91-8.72,10.71-8.72s9.89,2.55,9.89,7.65v14.69c0,.85.48,1.27,1.43,1.27Zm-13.57.46c2.18,0,4.08-.66,5.71-1.99,1.63-1.29,2.45-3.14,2.45-5.56v-3.11c-.75.58-1.9.95-3.47,1.12l-3.83.46c-2.21.27-3.78.78-4.72,1.53-.94.75-1.4,1.82-1.4,3.21s.44,2.42,1.33,3.19c.88.77,2.19,1.15,3.93,1.15Z"/>
    <path class="uuid-7b268c2e-42eb-42f6-af50-66d63c18f30e" d="m1055.99,106.48c2.92,0,5.2.8,6.83,2.4s2.45,3.84,2.45,6.73v17.8h-4.08v-17.39c0-3.91-2.01-5.86-6.02-5.86-1.9,0-3.59.71-5.05,2.14-1.46,1.43-2.19,3.5-2.19,6.22v14.89h-4.08v-26.32h3.88v3.93c2.01-3.03,4.76-4.54,8.26-4.54Z"/>
    <path class="uuid-7b268c2e-42eb-42f6-af50-66d63c18f30e" d="m1091.18,110.87v-13.77h4.08v36.31h-3.88v-4.08c-2.11,3.13-5.12,4.69-9.03,4.69-3.71,0-6.67-1.26-8.87-3.77-2.24-2.52-3.37-5.85-3.37-10s1.12-7.56,3.37-10.05c2.17-2.48,5.13-3.72,8.87-3.72s6.71,1.46,8.82,4.39Zm-14.48,16.88c1.53,1.73,3.59,2.6,6.17,2.6s4.64-.9,6.17-2.7c1.53-1.77,2.29-4.23,2.29-7.4s-.76-5.59-2.29-7.4c-1.53-1.8-3.59-2.7-6.17-2.7s-4.6.93-6.15,2.78c-1.55,1.85-2.32,4.36-2.32,7.52s.76,5.56,2.29,7.29Z"/>
    <path class="uuid-7b268c2e-42eb-42f6-af50-66d63c18f30e" d="m1124.64,134.22c-4.73,0-8.42-1.07-11.07-3.21-2.65-2.14-4-5.34-4.03-9.59h4.44c.1,5.95,3.65,8.92,10.66,8.92,2.96,0,5.23-.58,6.81-1.73,1.58-1.16,2.37-2.84,2.37-5.05,0-1.73-.65-3.09-1.96-4.05-1.31-.97-3.6-1.81-6.86-2.52l-3.21-.71c-3.67-.85-6.43-2.08-8.26-3.7-1.84-1.61-2.75-3.88-2.75-6.81s1.12-5.19,3.37-6.91c2.24-1.72,5.25-2.58,9.03-2.58,2.55,0,4.77.31,6.66.92,1.89.61,3.36,1.47,4.41,2.58,1.05,1.1,1.83,2.3,2.32,3.6.49,1.29.76,2.72.79,4.28h-4.39c-.2-2.58-1.05-4.48-2.53-5.69-1.48-1.21-3.9-1.81-7.27-1.81-2.55,0-4.51.49-5.89,1.48-1.38.99-2.07,2.36-2.07,4.13s.59,3.15,1.78,4.13c1.16.99,3.4,1.85,6.73,2.6l3.21.71c4.01.88,6.9,2.15,8.67,3.8,1.77,1.65,2.65,3.83,2.65,6.55,0,3.3-1.21,5.9-3.62,7.8-2.42,1.9-5.75,2.86-10,2.86Z"/>
    <path class="uuid-7b268c2e-42eb-42f6-af50-66d63c18f30e" d="m1153.61,107.09v3.57h-5.41v17.08c0,1.5,1,2.24,3.01,2.24h2.4v3.42c-1.12.1-2.09.15-2.91.15-4.39,0-6.58-1.82-6.58-5.46v-17.44h-4.33v-3.57h4.33v-7.45h4.08v7.45h5.41Z"/>
    <path class="uuid-7b268c2e-42eb-42f6-af50-66d63c18f30e" d="m1170.28,106.68c.68,0,1.14.02,1.38.05v3.93h-1.02c-2.72,0-4.84.67-6.35,2.01-1.51,1.34-2.27,3.26-2.27,5.74v14.99h-4.08v-26.32h3.88v4.64c1.77-3.37,4.59-5.05,8.47-5.05Z"/>
    <path class="uuid-7b268c2e-42eb-42f6-af50-66d63c18f30e" d="m1195.22,130.09h1.48v3.31c-.68.1-1.43.15-2.24.15-2.75,0-4.23-1.26-4.44-3.77-1.84,2.82-4.69,4.23-8.57,4.23-2.89,0-5.16-.67-6.81-2.01-1.65-1.34-2.47-3.24-2.47-5.69,0-4.76,3.25-7.48,9.74-8.16l3.77-.41c2.75-.31,4.13-1.51,4.13-3.62,0-1.46-.45-2.52-1.35-3.16-.9-.65-2.42-.97-4.56-.97-2.28,0-3.92.38-4.92,1.15-1,.77-1.57,2.12-1.71,4.05h-4.08c.34-5.81,3.91-8.72,10.71-8.72s9.89,2.55,9.89,7.65v14.69c0,.85.48,1.27,1.43,1.27Zm-13.57.46c2.18,0,4.08-.66,5.71-1.99,1.63-1.29,2.45-3.14,2.45-5.56v-3.11c-.75.58-1.9.95-3.47,1.12l-3.83.46c-2.21.27-3.78.78-4.72,1.53-.94.75-1.4,1.82-1.4,3.21s.44,2.42,1.33,3.19c.88.77,2.19,1.15,3.93,1.15Z"/>
    <path class="uuid-7b268c2e-42eb-42f6-af50-66d63c18f30e" d="m1210.78,107.09v3.57h-5.41v17.08c0,1.5,1,2.24,3.01,2.24h2.4v3.42c-1.12.1-2.09.15-2.91.15-4.39,0-6.58-1.82-6.58-5.46v-17.44h-4.33v-3.57h4.33v-7.45h4.08v7.45h5.41Z"/>
    <path class="uuid-7b268c2e-42eb-42f6-af50-66d63c18f30e" d="m1237.55,120.25v1.43h-19.99c.2,2.86,1,5.01,2.4,6.45,1.39,1.45,3.3,2.17,5.71,2.17,3.64,0,5.97-1.63,6.99-4.9h4.23c-.71,2.65-2.04,4.75-3.98,6.3-1.94,1.55-4.39,2.32-7.34,2.32-3.64,0-6.58-1.24-8.82-3.72-2.28-2.48-3.42-5.83-3.42-10.05s1.12-7.48,3.37-10c2.21-2.52,5.13-3.77,8.77-3.77s6.73,1.31,8.87,3.93c2.14,2.62,3.21,5.9,3.21,9.84Zm-12.09-10.05c-2.14,0-3.89.67-5.25,2.01-1.36,1.34-2.21,3.27-2.55,5.79h15.5c-.2-2.31-.99-4.19-2.35-5.64-1.36-1.44-3.15-2.17-5.36-2.17Z"/>
    <path class="uuid-7b268c2e-42eb-42f6-af50-66d63c18f30e" d="m1262.39,110.92v-3.82h3.88v25.3c0,3.6-1.05,6.44-3.16,8.52-2.11,2.07-5.13,3.11-9.08,3.11-3.26,0-5.88-.75-7.85-2.24-1.97-1.5-3.09-3.57-3.37-6.22h4.08c.51,3.33,2.89,5,7.14,5,5.44,0,8.16-2.72,8.16-8.16v-2.55c-2.07,2.79-5.02,4.18-8.82,4.18s-6.67-1.26-8.87-3.77c-2.24-2.52-3.37-5.85-3.37-10s1.12-7.56,3.37-10.05c2.17-2.48,5.13-3.72,8.87-3.72s6.92,1.48,9.03,4.44Zm-8.52,19.43c2.58,0,4.64-.9,6.17-2.7,1.53-1.8,2.29-4.27,2.29-7.4s-.76-5.59-2.29-7.4c-1.53-1.8-3.59-2.7-6.17-2.7s-4.6.92-6.15,2.75c-1.55,1.84-2.32,4.28-2.32,7.34s.77,5.51,2.32,7.34c1.55,1.84,3.6,2.75,6.15,2.75Z"/>
    <path class="uuid-7b268c2e-42eb-42f6-af50-66d63c18f30e" d="m1285.08,118.01l3.72-10.91h4.44l-11.12,30.45c-.78,2.21-1.85,3.77-3.21,4.67-1.36.9-3.15,1.35-5.35,1.35-.75,0-1.56-.05-2.45-.15v-3.42h2.4c2.35,0,3.94-1.09,4.79-3.26l.92-2.45-9.89-27.18h4.49l3.72,10.96c1.33,3.88,2.58,7.67,3.77,11.37.99-3.16,2.24-6.97,3.77-11.42Z"/>
    <path class="uuid-7b268c2e-42eb-42f6-af50-66d63c18f30e" d="m1329.71,125.55l7.04,7.85h-5.51l-3.83-4.28c-2.89,3.4-6.8,5.1-11.73,5.1-3.33,0-5.98-.99-7.96-2.96-2.01-1.94-3.01-4.32-3.01-7.14,0-2.38.65-4.39,1.96-6.02,1.31-1.63,3.48-3.3,6.5-5-1.56-1.77-2.68-3.33-3.34-4.69-.66-1.36-.99-2.74-.99-4.13,0-2.21.82-4.11,2.45-5.71,1.6-1.53,3.76-2.29,6.48-2.29,2.41,0,4.5.7,6.27,2.09,1.73,1.39,2.6,3.31,2.6,5.76,0,3.6-2.48,6.83-7.45,9.69l7.55,8.42c.68-1.97,1.02-4.1,1.02-6.38h4.13c-.1,3.64-.83,6.87-2.19,9.69Zm-13.77,4.79c3.77,0,6.7-1.43,8.77-4.28l-9.13-10.25c-2.35,1.26-4.02,2.48-5.02,3.67-1,1.19-1.5,2.67-1.5,4.44s.63,3.32,1.89,4.56c1.26,1.24,2.92,1.86,5,1.86Zm1.79-30.4c-1.36,0-2.47.4-3.32,1.2-.85.8-1.27,1.84-1.27,3.14,0,1.8,1.22,4.08,3.67,6.83,1.94-1.05,3.35-2.12,4.23-3.21.88-1.09,1.33-2.29,1.33-3.62,0-1.26-.44-2.29-1.33-3.11s-1.99-1.22-3.31-1.22Z"/>
    <path class="uuid-7b268c2e-42eb-42f6-af50-66d63c18f30e" d="m1354.04,133.41h-4.28v-36.31h4.28v36.31Z"/>
    <path class="uuid-7b268c2e-42eb-42f6-af50-66d63c18f30e" d="m1380.2,110.87v-13.77h4.08v36.31h-3.88v-4.08c-2.11,3.13-5.12,4.69-9.03,4.69-3.71,0-6.67-1.26-8.87-3.77-2.24-2.52-3.37-5.85-3.37-10s1.12-7.56,3.37-10.05c2.17-2.48,5.13-3.72,8.87-3.72s6.71,1.46,8.82,4.39Zm-14.48,16.88c1.53,1.73,3.59,2.6,6.17,2.6s4.64-.9,6.17-2.7c1.53-1.77,2.29-4.23,2.29-7.4s-.76-5.59-2.29-7.4c-1.53-1.8-3.59-2.7-6.17-2.7s-4.6.93-6.15,2.78c-1.55,1.85-2.32,4.36-2.32,7.52s.76,5.56,2.29,7.29Z"/>
    <path class="uuid-7b268c2e-42eb-42f6-af50-66d63c18f30e" d="m1413.35,120.25v1.43h-19.99c.2,2.86,1,5.01,2.4,6.45,1.39,1.45,3.3,2.17,5.71,2.17,3.64,0,5.97-1.63,6.99-4.9h4.23c-.71,2.65-2.04,4.75-3.98,6.3-1.94,1.55-4.39,2.32-7.34,2.32-3.64,0-6.58-1.24-8.82-3.72-2.28-2.48-3.42-5.83-3.42-10.05s1.12-7.48,3.37-10c2.21-2.52,5.13-3.77,8.77-3.77s6.73,1.31,8.87,3.93c2.14,2.62,3.21,5.9,3.21,9.84Zm-12.09-10.05c-2.14,0-3.89.67-5.25,2.01-1.36,1.34-2.21,3.27-2.55,5.79h15.5c-.2-2.31-.99-4.19-2.35-5.64-1.36-1.44-3.15-2.17-5.36-2.17Z"/>
    <path class="uuid-7b268c2e-42eb-42f6-af50-66d63c18f30e" d="m1430.33,106.48c2.92,0,5.2.8,6.83,2.4s2.45,3.84,2.45,6.73v17.8h-4.08v-17.39c0-3.91-2.01-5.86-6.02-5.86-1.9,0-3.59.71-5.05,2.14-1.46,1.43-2.19,3.5-2.19,6.22v14.89h-4.08v-26.32h3.88v3.93c2.01-3.03,4.76-4.54,8.26-4.54Z"/>
    <path class="uuid-7b268c2e-42eb-42f6-af50-66d63c18f30e" d="m1456.24,107.09v3.57h-5.41v17.08c0,1.5,1,2.24,3.01,2.24h2.4v3.42c-1.12.1-2.09.15-2.91.15-4.39,0-6.58-1.82-6.58-5.46v-17.44h-4.33v-3.57h4.33v-7.45h4.08v7.45h5.41Z"/>
    <path class="uuid-7b268c2e-42eb-42f6-af50-66d63c18f30e" d="m1464.76,103.11h-4.33v-5h4.33v5Zm-.1,30.29h-4.08v-26.32h4.08v26.32Z"/>
    <path class="uuid-7b268c2e-42eb-42f6-af50-66d63c18f30e" d="m1482.3,107.09v3.57h-5.41v17.08c0,1.5,1,2.24,3.01,2.24h2.4v3.42c-1.12.1-2.09.15-2.91.15-4.39,0-6.58-1.82-6.58-5.46v-17.44h-4.33v-3.57h4.33v-7.45h4.08v7.45h5.41Z"/>
    <path class="uuid-7b268c2e-42eb-42f6-af50-66d63c18f30e" d="m1499.59,118.01l3.72-10.91h4.44l-11.12,30.45c-.78,2.21-1.85,3.77-3.21,4.67-1.36.9-3.15,1.35-5.35,1.35-.75,0-1.56-.05-2.45-.15v-3.42h2.4c2.35,0,3.94-1.09,4.79-3.26l.92-2.45-9.89-27.18h4.49l3.72,10.96c1.33,3.88,2.58,7.67,3.77,11.37.99-3.16,2.24-6.97,3.77-11.42Z"/>
    <path class="uuid-7b268c2e-42eb-42f6-af50-66d63c18f30e" d="m1227.4,152.1h15.1c3.84,0,6.81,1,8.9,3.01,2.09,2.01,3.14,4.73,3.14,8.16s-1.05,6.15-3.14,8.16c-2.09,2.01-5.06,3.01-8.9,3.01h-10.81v13.97h-4.28v-36.31Zm4.28,18.46h10.81c2.52,0,4.41-.62,5.69-1.86,1.27-1.24,1.91-3.05,1.91-5.43s-.64-4.19-1.91-5.43c-1.28-1.24-3.17-1.86-5.69-1.86h-10.81v14.59Z"/>
    <path class="uuid-7b268c2e-42eb-42f6-af50-66d63c18f30e" d="m1270.7,161.48c2.92,0,5.2.8,6.83,2.4,1.63,1.6,2.45,3.84,2.45,6.73v17.8h-4.08v-17.39c0-3.91-2.01-5.86-6.02-5.86-1.9,0-3.59.71-5.05,2.14s-2.19,3.5-2.19,6.22v14.89h-4.08v-36.31h4.08v13.62c2.01-2.82,4.69-4.23,8.06-4.23Z"/>
    <path class="uuid-7b268c2e-42eb-42f6-af50-66d63c18f30e" d="m1306.76,185.25c-2.41,2.52-5.47,3.77-9.18,3.77s-6.77-1.26-9.18-3.77c-2.38-2.48-3.57-5.81-3.57-10s1.19-7.51,3.57-10c2.41-2.52,5.47-3.77,9.18-3.77s6.77,1.26,9.18,3.77c2.38,2.48,3.57,5.81,3.57,10s-1.19,7.51-3.57,10Zm-15.35-2.6c1.53,1.8,3.59,2.7,6.17,2.7s4.64-.9,6.17-2.7c1.53-1.77,2.29-4.23,2.29-7.39s-.76-5.68-2.29-7.45c-1.53-1.77-3.59-2.65-6.17-2.65s-4.64.88-6.17,2.65c-1.53,1.77-2.29,4.25-2.29,7.45s.76,5.63,2.29,7.39Z"/>
    <path class="uuid-7b268c2e-42eb-42f6-af50-66d63c18f30e" d="m1325.17,162.09v3.57h-5.41v17.08c0,1.5,1,2.24,3.01,2.24h2.4v3.42c-1.12.1-2.09.15-2.91.15-4.39,0-6.58-1.82-6.58-5.46v-17.44h-4.33v-3.57h4.33v-7.45h4.08v7.45h5.41Z"/>
    <path class="uuid-7b268c2e-42eb-42f6-af50-66d63c18f30e" d="m1349.65,185.25c-2.41,2.52-5.47,3.77-9.18,3.77s-6.77-1.26-9.18-3.77c-2.38-2.48-3.57-5.81-3.57-10s1.19-7.51,3.57-10c2.41-2.52,5.47-3.77,9.18-3.77s6.77,1.26,9.18,3.77c2.38,2.48,3.57,5.81,3.57,10s-1.19,7.51-3.57,10Zm-15.35-2.6c1.53,1.8,3.59,2.7,6.17,2.7s4.64-.9,6.17-2.7c1.53-1.77,2.29-4.23,2.29-7.39s-.76-5.68-2.29-7.45c-1.53-1.77-3.59-2.65-6.17-2.65s-4.64.88-6.17,2.65c-1.53,1.77-2.29,4.25-2.29,7.45s.76,5.63,2.29,7.39Z"/>
    <path class="uuid-7b268c2e-42eb-42f6-af50-66d63c18f30e" d="m1378.05,165.92v-3.83h3.88v25.3c0,3.6-1.05,6.44-3.16,8.52-2.11,2.07-5.13,3.11-9.08,3.11-3.26,0-5.88-.75-7.85-2.24-1.97-1.5-3.09-3.57-3.37-6.22h4.08c.51,3.33,2.89,5,7.14,5,5.44,0,8.16-2.72,8.16-8.16v-2.55c-2.07,2.79-5.02,4.18-8.82,4.18s-6.67-1.26-8.87-3.77c-2.24-2.52-3.37-5.85-3.37-10s1.12-7.56,3.37-10.05c2.17-2.48,5.13-3.72,8.87-3.72s6.92,1.48,9.03,4.44Zm-8.52,19.43c2.58,0,4.64-.9,6.17-2.7,1.53-1.8,2.29-4.27,2.29-7.39s-.76-5.59-2.29-7.4c-1.53-1.8-3.59-2.7-6.17-2.7s-4.6.92-6.15,2.75c-1.55,1.84-2.32,4.28-2.32,7.34s.77,5.51,2.32,7.34c1.55,1.84,3.6,2.75,6.15,2.75Z"/>
    <path class="uuid-7b268c2e-42eb-42f6-af50-66d63c18f30e" d="m1400.39,161.68c.68,0,1.14.02,1.38.05v3.93h-1.02c-2.72,0-4.84.67-6.35,2.01s-2.27,3.26-2.27,5.74v14.99h-4.08v-26.32h3.88v4.64c1.77-3.37,4.59-5.05,8.47-5.05Z"/>
    <path class="uuid-7b268c2e-42eb-42f6-af50-66d63c18f30e" d="m1425.33,185.09h1.48v3.32c-.68.1-1.43.15-2.24.15-2.75,0-4.23-1.26-4.44-3.77-1.84,2.82-4.69,4.23-8.57,4.23-2.89,0-5.16-.67-6.81-2.01-1.65-1.34-2.47-3.24-2.47-5.69,0-4.76,3.25-7.48,9.74-8.16l3.77-.41c2.75-.31,4.13-1.51,4.13-3.62,0-1.46-.45-2.52-1.35-3.16-.9-.65-2.42-.97-4.56-.97-2.28,0-3.92.38-4.92,1.15-1,.76-1.57,2.12-1.71,4.05h-4.08c.34-5.81,3.91-8.72,10.71-8.72s9.89,2.55,9.89,7.65v14.69c0,.85.48,1.27,1.43,1.27Zm-13.57.46c2.18,0,4.08-.66,5.71-1.99,1.63-1.29,2.45-3.14,2.45-5.56v-3.11c-.75.58-1.9.95-3.47,1.12l-3.83.46c-2.21.27-3.78.78-4.72,1.53-.94.75-1.4,1.82-1.4,3.21s.44,2.42,1.33,3.19c.88.77,2.19,1.15,3.93,1.15Z"/>
    <path class="uuid-7b268c2e-42eb-42f6-af50-66d63c18f30e" d="m1443.28,161.48c3.71,0,6.68,1.24,8.92,3.72,2.21,2.52,3.32,5.87,3.32,10.05s-1.11,7.48-3.32,10c-2.24,2.52-5.22,3.77-8.92,3.77s-6.71-1.46-8.82-4.39v13.77h-4.08v-36.31h3.88v4.08c2.11-3.13,5.12-4.69,9.03-4.69Zm-.51,23.87c2.55,0,4.6-.93,6.15-2.78,1.55-1.85,2.32-4.36,2.32-7.52s-.76-5.52-2.27-7.27c-1.51-1.75-3.58-2.63-6.2-2.63s-4.64.88-6.17,2.65c-1.53,1.77-2.29,4.25-2.29,7.45s.76,5.63,2.29,7.39c1.53,1.8,3.59,2.7,6.17,2.7Z"/>
    <path class="uuid-7b268c2e-42eb-42f6-af50-66d63c18f30e" d="m1472.5,161.48c2.92,0,5.2.8,6.83,2.4,1.63,1.6,2.45,3.84,2.45,6.73v17.8h-4.08v-17.39c0-3.91-2.01-5.86-6.02-5.86-1.9,0-3.59.71-5.05,2.14s-2.19,3.5-2.19,6.22v14.89h-4.08v-36.31h4.08v13.62c2.01-2.82,4.69-4.23,8.06-4.23Z"/>
    <path class="uuid-7b268c2e-42eb-42f6-af50-66d63c18f30e" d="m1499.59,173.01l3.72-10.91h4.44l-11.12,30.45c-.78,2.21-1.85,3.76-3.21,4.67-1.36.9-3.15,1.35-5.35,1.35-.75,0-1.56-.05-2.45-.15v-3.42h2.4c2.35,0,3.94-1.09,4.79-3.26l.92-2.45-9.89-27.18h4.49l3.72,10.96c1.33,3.88,2.58,7.67,3.77,11.37.99-3.16,2.24-6.97,3.77-11.42Z"/>
    <path class="uuid-7b268c2e-42eb-42f6-af50-66d63c18f30e" d="m1375.91,244.22c-4.73,0-8.42-1.07-11.07-3.21-2.65-2.14-4-5.34-4.03-9.59h4.44c.1,5.95,3.65,8.93,10.66,8.93,2.96,0,5.23-.58,6.81-1.73,1.58-1.16,2.37-2.84,2.37-5.05,0-1.73-.65-3.09-1.96-4.05-1.31-.97-3.6-1.81-6.86-2.52l-3.21-.71c-3.67-.85-6.43-2.08-8.26-3.7-1.84-1.61-2.75-3.88-2.75-6.81s1.12-5.19,3.37-6.91,5.25-2.58,9.03-2.58c2.55,0,4.77.31,6.66.92,1.89.61,3.36,1.47,4.41,2.58,1.05,1.11,1.83,2.3,2.32,3.6.49,1.29.76,2.72.79,4.28h-4.39c-.2-2.58-1.05-4.48-2.53-5.69-1.48-1.21-3.9-1.81-7.27-1.81-2.55,0-4.51.49-5.89,1.48-1.38.99-2.07,2.36-2.07,4.13s.59,3.14,1.78,4.13c1.16.99,3.4,1.85,6.73,2.6l3.21.71c4.01.88,6.9,2.15,8.67,3.8,1.77,1.65,2.65,3.83,2.65,6.55,0,3.3-1.21,5.9-3.62,7.8-2.42,1.9-5.75,2.86-10,2.86Z"/>
    <path class="uuid-7b268c2e-42eb-42f6-af50-66d63c18f30e" d="m1404.88,217.09v3.57h-5.41v17.08c0,1.5,1,2.24,3.01,2.24h2.4v3.42c-1.12.1-2.09.15-2.91.15-4.39,0-6.58-1.82-6.58-5.46v-17.44h-4.33v-3.57h4.33v-7.45h4.08v7.45h5.41Z"/>
    <path class="uuid-7b268c2e-42eb-42f6-af50-66d63c18f30e" d="m1422.17,228.01l3.72-10.91h4.44l-11.12,30.45c-.78,2.21-1.85,3.77-3.21,4.67-1.36.9-3.15,1.35-5.35,1.35-.75,0-1.56-.05-2.45-.15v-3.42h2.4c2.35,0,3.94-1.09,4.79-3.26l.92-2.45-9.89-27.18h4.49l3.72,10.97c1.33,3.88,2.58,7.67,3.77,11.37.99-3.16,2.24-6.97,3.77-11.42Z"/>
    <path class="uuid-7b268c2e-42eb-42f6-af50-66d63c18f30e" d="m1437.21,243.41h-4.08v-36.31h4.08v36.31Z"/>
    <path class="uuid-7b268c2e-42eb-42f6-af50-66d63c18f30e" d="m1447.51,213.11h-4.33v-5h4.33v5Zm-.1,30.29h-4.08v-26.32h4.08v26.32Z"/>
    <path class="uuid-7b268c2e-42eb-42f6-af50-66d63c18f30e" d="m1465.67,216.48c2.92,0,5.2.8,6.83,2.4,1.63,1.6,2.45,3.84,2.45,6.73v17.8h-4.08v-17.39c0-3.91-2.01-5.87-6.02-5.87-1.9,0-3.59.71-5.05,2.14-1.46,1.43-2.19,3.5-2.19,6.22v14.89h-4.08v-26.32h3.88v3.93c2.01-3.03,4.76-4.54,8.26-4.54Z"/>
    <path class="uuid-7b268c2e-42eb-42f6-af50-66d63c18f30e" d="m1501.06,220.92v-3.83h3.88v25.3c0,3.6-1.05,6.44-3.16,8.52-2.11,2.07-5.13,3.11-9.08,3.11-3.26,0-5.88-.75-7.85-2.24-1.97-1.5-3.09-3.57-3.37-6.22h4.08c.51,3.33,2.89,5,7.14,5,5.44,0,8.16-2.72,8.16-8.16v-2.55c-2.07,2.79-5.02,4.18-8.82,4.18s-6.67-1.26-8.87-3.77c-2.24-2.52-3.37-5.85-3.37-10s1.12-7.56,3.37-10.05c2.17-2.48,5.13-3.72,8.87-3.72s6.92,1.48,9.03,4.44Zm-8.52,19.43c2.58,0,4.64-.9,6.17-2.7s2.29-4.27,2.29-7.4-.76-5.59-2.29-7.39c-1.53-1.8-3.59-2.7-6.17-2.7s-4.6.92-6.15,2.75c-1.55,1.84-2.32,4.28-2.32,7.34s.77,5.51,2.32,7.34c1.55,1.84,3.6,2.75,6.15,2.75Z"/>
  </g>
  <g>
    <path class="uuid-7b268c2e-42eb-42f6-af50-66d63c18f30e" d="m1885.68,144.34v2.04h-21.36v-2.52h15.93v-4.86h1.98l.03.48c.1,1.52.4,2.65.9,3.39.5.74,1.34,1.23,2.52,1.47Z"/>
    <path class="uuid-7b268c2e-42eb-42f6-af50-66d63c18f30e" d="m1875.78,160.9c-.48,1.24-1.18,2.21-2.12,2.91-.93.7-2.02,1.05-3.29,1.05-2,0-3.59-.71-4.77-2.13-1.18-1.42-1.77-3.29-1.77-5.61s.59-4.19,1.77-5.61c1.18-1.42,2.77-2.13,4.77-2.13,1.26,0,2.36.35,3.29,1.05.93.7,1.64,1.67,2.12,2.91.9-2.06,2.41-3.09,4.53-3.09,1.82,0,3.26.65,4.32,1.95,1.02,1.3,1.53,2.94,1.53,4.92s-.51,3.62-1.53,4.92c-1.06,1.3-2.5,1.95-4.32,1.95-2.12,0-3.63-1.03-4.53-3.09Zm-8.52-7.5c-.76.94-1.14,2.18-1.14,3.72s.38,2.78,1.14,3.72c.74.92,1.78,1.38,3.12,1.38s2.41-.46,3.15-1.38c.74-.92,1.11-2.16,1.11-3.72s-.37-2.8-1.11-3.72c-.74-.92-1.79-1.38-3.15-1.38s-2.38.46-3.12,1.38Zm15.69,6.87c.62-.8.93-1.85.93-3.15s-.31-2.35-.93-3.15c-.64-.82-1.52-1.23-2.64-1.23s-2,.41-2.64,1.23c-.62.8-.93,1.85-.93,3.15s.31,2.35.93,3.15c.64.82,1.52,1.23,2.64,1.23s2-.41,2.64-1.23Z"/>
    <path class="uuid-7b268c2e-42eb-42f6-af50-66d63c18f30e" d="m1871.7,175.78v-8.67h2.16v8.67h-2.16Z"/>
    <path class="uuid-7b268c2e-42eb-42f6-af50-66d63c18f30e" d="m1866.72,192.01c-1.92-1.3-2.88-3.23-2.88-5.79s.96-4.51,2.88-5.79c1.94-1.3,4.7-1.95,8.28-1.95s6.34.65,8.28,1.95c1.92,1.28,2.88,3.21,2.88,5.79s-.96,4.49-2.88,5.79c-1.94,1.3-4.7,1.95-8.28,1.95s-6.34-.65-8.28-1.95Zm17.16-5.79c0-3.4-2.96-5.1-8.88-5.1s-8.88,1.7-8.88,5.1,2.96,5.1,8.88,5.1,8.88-1.7,8.88-5.1Z"/>
    <path class="uuid-7b268c2e-42eb-42f6-af50-66d63c18f30e" d="m1883.4,194.41h2.28v13.71h-1.98c-5.52-4.92-11.98-7.48-19.38-7.68v-2.61c3.7.1,7.08.75,10.16,1.94,3.07,1.19,6.04,3,8.92,5.45v-10.8Z"/>
    <path class="uuid-7b268c2e-42eb-42f6-af50-66d63c18f30e" d="m1871.7,215.89v-8.67h2.16v8.67h-2.16Z"/>
    <path class="uuid-7b268c2e-42eb-42f6-af50-66d63c18f30e" d="m1866.72,232.12c-1.92-1.3-2.88-3.23-2.88-5.79s.96-4.51,2.88-5.79c1.94-1.3,4.7-1.95,8.28-1.95s6.34.65,8.28,1.95c1.92,1.28,2.88,3.21,2.88,5.79s-.96,4.49-2.88,5.79c-1.94,1.3-4.7,1.95-8.28,1.95s-6.34-.65-8.28-1.95Zm17.16-5.79c0-3.4-2.96-5.1-8.88-5.1s-8.88,1.7-8.88,5.1,2.96,5.1,8.88,5.1,8.88-1.7,8.88-5.1Z"/>
    <path class="uuid-7b268c2e-42eb-42f6-af50-66d63c18f30e" d="m1875.69,247.57c-1.24,2.38-3.03,3.57-5.37,3.57-1.94,0-3.5-.68-4.68-2.04-1.2-1.34-1.8-3.11-1.8-5.31,0-2.38.62-4.23,1.86-5.54,1.24-1.31,2.93-1.96,5.07-1.94v2.49c-1.52.04-2.68.49-3.46,1.35-.79.86-1.19,2.07-1.19,3.63,0,1.44.38,2.58,1.14,3.43.76.85,1.78,1.28,3.06,1.28s2.33-.44,3.11-1.31c.77-.87,1.15-2.05,1.15-3.55v-1.59h2.1v1.44c0,1.42.32,2.52.96,3.29.64.77,1.53,1.16,2.67,1.16s2-.39,2.62-1.16.94-1.81.94-3.13-.34-2.41-1.03-3.2c-.69-.79-1.71-1.21-3.04-1.27v-2.52c1.94.02,3.48.66,4.63,1.91,1.15,1.25,1.72,2.94,1.72,5.08s-.51,3.71-1.54,4.96-2.45,1.88-4.25,1.88c-2.04,0-3.6-.97-4.68-2.91Z"/>
  </g>
</svg>