<?xml version="1.0" encoding="UTF-8"?>
<svg id="Layer_1" data-name="Layer 1" xmlns="http://www.w3.org/2000/svg" viewBox="0 0 582.93 101.75">
  <defs>
    <style>
      .cls-1 {
        fill: #fff;
      }
    </style>
  </defs>
  <path class="cls-1" d="m533.29,101.75c-2.33,0-3.37-3.43-4.46-7.06-.97-3.21-1.97-6.53-3.74-6.53-1.92,0-2.87.73-3.87,1.51-1.06.82-2.15,1.67-4.33,1.67s-3.04-11.02-4.48-36.17c-.85-14.78-2.01-35.03-3.73-35.46-2.27,0-3.37-2.13-4.43-4.19-1-1.94-1.95-3.78-3.77-3.78s-2.8,5.5-3.73,10.36c-1.13,5.88-2.11,10.96-4.47,10.96s-3.38-2.34-4.44-4.61c-1-2.15-1.95-4.17-3.76-4.17-2.26,0-3.36-1.82-4.42-3.58-1-1.66-1.94-3.22-3.78-3.22s-2.8,1.34-3.8,2.75c-1.06,1.51-2.16,3.07-4.41,3.07-1.7,0-2.92,18.7-3.73,31.07-1.44,22.09-2.3,31.76-4.48,31.76s-3.17-5.3-4.47-14.02c-.89-5.96-2-13.38-3.73-13.38-2.3,0-3.39-2.66-4.45-5.24-1.01-2.46-1.96-4.77-3.75-4.77-2.27,0-3.18-7.71-4.47-20.28-.85-8.27-2.02-19.6-3.73-19.6s-2.84,7.84-3.73,14.14c-1.3,9.2-2.26,14.79-4.47,14.79-1.72,0-2.83,8.83-3.73,15.93-1.3,10.32-2.25,16.59-4.47,16.59-1.76,0-2.81,3.93-3.74,7.39-1.09,4.09-2.12,7.95-4.46,7.95-1.81,0-2.76,2.08-3.76,4.28-1.06,2.32-2.15,4.72-4.44,4.72-2.16,0-3.25-.69-4.3-1.36-1.01-.64-1.96-1.25-3.9-1.25-2.27,0-3.18-6.54-4.47-17.22-.85-6.99-2.01-16.56-3.73-16.56s-2.77,3.66-3.74,7.2c-1.09,3.98-2.13,7.75-4.46,7.75-2.16,0-3.06-9.84-4.47-30.72-.81-11.96-2.03-30.02-3.73-30.02-2.08,0-3.14-.19-4.17-.38-1.04-.19-2.02-.36-4.03-.36s-3.07.07-4.07.15c-1.01.07-2.06.15-4.12.15-1.7,0-2.87,15.65-3.72,27.07-1.41,18.87-2.31,27.76-4.47,27.76s-3.03-9.91-4.48-32.51c-.81-12.67-2.03-31.81-3.73-31.81-2.13,0-3.2-.46-4.25-.9-1.02-.43-1.98-.84-3.95-.84-1.7,0-2.92,17.59-3.72,29.23-1.41,20.35-2.31,29.93-4.47,29.93s-3.06-8.65-4.47-27.02c-.85-11.11-2.02-26.33-3.72-26.33s-2.83,7.79-3.73,14.05c-1.3,9.14-2.26,14.69-4.47,14.69-1.76,0-2.81,4.29-3.74,8.07-1.09,4.44-2.12,8.64-4.46,8.64-2.04,0-3.06.03-4.09.06-1.03.03-2.05.06-4.11.06-2.22,0-3.17-5.94-4.47-15.73-.89-6.72-2-15.08-3.72-15.08s-2.8,5.11-3.73,9.61c-1.08,5.25-2.11,10.21-4.46,10.21-1.7,0-2.87,15.5-3.72,26.82-1.41,18.7-2.31,27.52-4.47,27.52-2.28,0-3.38-2.24-4.44-4.4-1-2.05-1.95-3.98-3.76-3.98-2.18,0-3.04-11.95-4.47-39.22-.89-16.88-2-37.89-3.74-38.51-1.97,0-2.93.36-3.95.75-1.04.39-2.11.8-4.23.8-1.72.55-2.88,21.7-3.73,37.14-1.44,26.31-2.3,37.84-4.47,37.84-2.05,0-3.08,0-4.1-.01-1.02,0-2.05-.01-4.1-.01-2.18,0-3.03-10.51-4.47-34.5-.85-14.15-2.01-33.53-3.73-33.79-1.74,0-2.8,4.96-3.73,9.33-1.09,5.1-2.11,9.92-4.47,9.92-1.74,0-2.84,5.94-3.73,10.72-1.13,6.08-2.11,11.33-4.47,11.33-2.22,0-3.17-5.87-4.47-15.54-.89-6.63-2.01-14.89-3.73-14.89s-2.83,8.71-3.73,15.71c-1.3,10.19-2.25,16.37-4.47,16.37-1.71,0-2.88,11.24-3.73,19.44-1.29,12.47-2.2,20.12-4.47,20.12s-3.03-11.07-4.47-36.34c-.85-14.85-2-35.19-3.73-35.64-2.36,0-3.34-5.71-4.46-12.32-.89-5.21-2-11.69-3.73-11.69s-2.92,17.76-3.73,29.52c-1.41,20.54-2.31,30.21-4.47,30.21-1.72,0-2.83,7.98-3.73,14.4-1.3,9.36-2.25,15.04-4.47,15.04s-3.16-5.01-4.47-13.26c-.89-5.63-2-12.63-3.73-12.63-2.16,0-3.06-8.75-4.47-27.34-.85-11.24-2.02-26.65-3.72-26.65s-2.84,7.12-3.73,12.84c-1.31,8.39-2.26,13.48-4.47,13.48-1.7,0-2.87,15.42-3.73,26.68-1.41,18.6-2.31,27.37-4.47,27.37s-3.03-9.76-4.47-32.04c-.81-12.48-2.03-31.34-3.72-31.34-1.86,0-2.8,1.32-3.79,2.71-1.06,1.49-2.16,3.03-4.4,3.03s-3.39-2.51-4.44-4.93c-1-2.31-1.95-4.48-3.75-4.48-2.32,0-3.41-3.33-4.46-6.55-.97-2.97-1.96-6.03-3.74-6.03-1.73.6-2.83,21.34-3.72,38.01-1.44,26.92-2.3,38.72-4.47,38.72-1.95,0-2.9.55-3.91,1.14-1.05.61-2.14,1.24-4.29,1.24s-3.04-13.39-4.47-43.93c-.89-18.89-1.99-42.4-3.75-43.23-1.95,0-2.91.39-3.93.79-1.04.41-2.12.84-4.24.84-1.73.7-2.83,22.57-3.72,40.14-1.44,28.4-2.29,40.85-4.47,40.85s-3.33-1.38-4.39-2.72c-1-1.25-1.94-2.44-3.8-2.44-2.36,0-3.34-5.47-4.47-11.8-.89-4.98-1.99-11.18-3.73-11.18-2.27,0-3.18-7.44-4.47-19.58-.85-7.98-2.01-18.91-3.73-18.91-2.22,0-3.32-1.28-4.38-2.51-1-1.16-1.94-2.25-3.82-2.25-.21,0-.38-.17-.38-.38s.17-.38.38-.38c2.22,0,3.32,1.28,4.38,2.51,1,1.16,1.94,2.25,3.82,2.25,2.27,0,3.18,7.44,4.47,19.58.85,7.98,2.01,18.91,3.73,18.91,2.36,0,3.34,5.47,4.47,11.8.89,4.98,1.99,11.18,3.73,11.18,2.23,0,3.33,1.38,4.39,2.72,1,1.25,1.94,2.44,3.8,2.44,1.73-.7,2.83-22.57,3.72-40.14,1.44-28.41,2.29-40.85,4.47-40.85,1.98,0,2.94-.38,3.96-.79,1.04-.41,2.12-.84,4.24-.84s3.04,13.39,4.47,43.94c.89,18.89,1.99,42.39,3.75,43.22,1.92,0,2.88-.56,3.88-1.15,1.05-.61,2.14-1.24,4.29-1.24,1.73-.6,2.83-21.34,3.72-38.01,1.44-26.92,2.3-38.72,4.47-38.72,2.32,0,3.41,3.33,4.45,6.55.97,2.97,1.96,6.04,3.74,6.04,2.29,0,3.39,2.51,4.44,4.93,1,2.31,1.95,4.48,3.75,4.48s2.8-1.32,3.79-2.71c1.06-1.49,2.16-3.03,4.4-3.03s3.03,9.76,4.47,32.04c.81,12.48,2.03,31.34,3.72,31.34s2.87-15.42,3.73-26.68c1.41-18.6,2.31-27.37,4.47-27.37,1.73,0,2.84-7.12,3.73-12.84,1.31-8.38,2.26-13.48,4.47-13.48s3.06,8.75,4.47,27.34c.85,11.24,2.02,26.64,3.72,26.64,2.21,0,3.16,5.01,4.47,13.26.89,5.63,2,12.63,3.73,12.63s2.83-7.98,3.73-14.4c1.3-9.36,2.25-15.04,4.47-15.04,1.7,0,2.92-17.76,3.73-29.51,1.41-20.54,2.31-30.21,4.47-30.21,2.37,0,3.34,5.71,4.47,12.32.89,5.21,2,11.69,3.73,11.69,2.18,0,3.03,11.07,4.47,36.34.85,14.85,2,35.19,3.73,35.64,1.71,0,2.87-11.24,3.72-19.45,1.29-12.47,2.2-20.12,4.47-20.12,1.72,0,2.83-8.71,3.73-15.71,1.3-10.19,2.25-16.37,4.47-16.37s3.17,5.87,4.47,15.54c.89,6.63,2.01,14.89,3.73,14.89s2.84-5.94,3.73-10.72c1.13-6.08,2.11-11.33,4.47-11.33,1.75,0,2.8-4.96,3.73-9.33,1.09-5.1,2.11-9.92,4.47-9.92,2.18,0,3.03,10.51,4.47,34.5.85,14.15,2.01,33.53,3.73,33.79,2.06,0,3.08,0,4.1.01,1.02,0,2.05.01,4.1.01,1.72-.55,2.88-21.69,3.72-37.13,1.44-26.31,2.3-37.85,4.47-37.85,1.98,0,2.95-.36,3.97-.75,1.04-.39,2.11-.8,4.23-.8s3.04,11.95,4.47,39.22c.89,16.88,2,37.88,3.74,38.51h0c2.27,0,3.36,2.24,4.42,4.4,1,2.05,1.95,3.98,3.76,3.98,1.7,0,2.87-15.5,3.72-26.82,1.41-18.7,2.31-27.52,4.47-27.52,1.74,0,2.8-5.11,3.73-9.61,1.08-5.25,2.11-10.21,4.46-10.21,2.22,0,3.17,5.94,4.47,15.73.89,6.72,2,15.08,3.72,15.08,2.04,0,3.06-.03,4.09-.06,1.03-.03,2.05-.06,4.11-.06,1.76,0,2.81-4.29,3.74-8.07,1.09-4.44,2.12-8.64,4.46-8.64,1.72,0,2.83-7.79,3.73-14.05,1.3-9.14,2.26-14.69,4.47-14.69s3.06,8.66,4.47,27.03c.85,11.11,2.02,26.33,3.72,26.33s2.92-17.59,3.72-29.23c1.41-20.34,2.31-29.93,4.47-29.93s3.2.46,4.24.9c1.02.43,1.98.84,3.95.84,2.18,0,3.03,9.91,4.48,32.51.81,12.67,2.03,31.81,3.73,31.81s2.87-15.64,3.72-27.07c1.41-18.87,2.31-27.76,4.47-27.76,2.04,0,3.07-.07,4.07-.15,1.01-.07,2.06-.15,4.12-.15s3.14.19,4.17.38c1.04.19,2.02.36,4.03.36,2.16,0,3.07,9.84,4.48,30.72.81,11.96,2.03,30.02,3.73,30.02s2.77-3.66,3.74-7.2c1.09-3.98,2.12-7.75,4.46-7.75s3.18,6.54,4.47,17.22c.85,6.99,2.01,16.56,3.73,16.56,2.16,0,3.25.69,4.3,1.36,1.01.64,1.96,1.25,3.9,1.25,1.81,0,2.76-2.08,3.76-4.28,1.06-2.32,2.15-4.72,4.44-4.72,1.76,0,2.81-3.93,3.74-7.39,1.09-4.09,2.12-7.95,4.46-7.95,1.72,0,2.83-8.83,3.73-15.93,1.3-10.32,2.25-16.59,4.47-16.59,1.73,0,2.84-7.84,3.73-14.15,1.3-9.2,2.26-14.79,4.47-14.79s3.18,7.7,4.47,20.27c.85,8.27,2.02,19.6,3.73,19.6,2.3,0,3.39,2.66,4.45,5.24,1.01,2.46,1.96,4.77,3.75,4.77,2.21,0,3.17,5.3,4.47,14.02.89,5.96,2,13.38,3.73,13.38s2.92-18.69,3.73-31.06c1.44-22.09,2.3-31.77,4.48-31.77,1.86,0,2.8-1.34,3.8-2.75,1.06-1.51,2.16-3.07,4.41-3.07s3.36,1.82,4.42,3.58c1,1.66,1.94,3.22,3.78,3.22,2.29,0,3.38,2.34,4.44,4.61,1,2.15,1.95,4.17,3.76,4.17s2.8-5.5,3.73-10.36c1.13-5.88,2.11-10.96,4.47-10.96s3.37,2.13,4.43,4.19c1,1.94,1.94,3.78,3.77,3.78,2.18,0,3.04,11.02,4.48,36.17.85,14.78,2.01,35.03,3.73,35.46,1.92,0,2.87-.73,3.87-1.51,1.06-.82,2.15-1.67,4.33-1.67,2.33,0,3.37,3.43,4.46,7.06.97,3.21,1.97,6.53,3.74,6.53s2.84-7.2,3.73-12.99c1.31-8.48,2.26-13.62,4.47-13.62,1.72,0,2.84-8.8,3.73-15.88,1.3-10.29,2.25-16.53,4.48-16.53s3.18,7.9,4.48,20.8c.85,8.49,2.02,20.13,3.73,20.13,1.94,0,2.89-.62,3.9-1.28,1.06-.69,2.15-1.4,4.31-1.4,1.73-.66,2.84-22.09,3.73-39.31,1.44-27.82,2.3-40.02,4.48-40.02s3.06,7.41,4.48,23.14c.85,9.48,2.02,22.46,3.73,22.46.21,0,.38.17.38.38s-.17.38-.38.38c-2.16,0-3.06-7.41-4.48-23.14-.85-9.48-2.02-22.46-3.74-22.46-1.73.66-2.84,22.09-3.73,39.31-1.44,27.83-2.3,40.02-4.48,40.02-1.94,0-2.89.62-3.9,1.28-1.06.69-2.15,1.4-4.31,1.4-2.28,0-3.18-7.9-4.48-20.8-.85-8.49-2.02-20.12-3.73-20.12s-2.84,8.8-3.73,15.88c-1.3,10.29-2.25,16.53-4.48,16.53-1.73,0-2.84,7.2-3.73,12.99-1.31,8.48-2.26,13.62-4.47,13.62Z"/>
</svg>