<?xml version="1.0" encoding="UTF-8"?>
<svg id="uuid-7bf1ba4b-7ec0-4f90-980f-deb28ef6cddc" data-name="uuid-6623818f-7643-41dc-8de9-56485a6dc990" xmlns="http://www.w3.org/2000/svg" viewBox="0 0 1923 325.02">
  <defs>
    <style>
      .uuid-30e0c5f7-d063-4e43-93e0-8e19f72519a2 {
        fill: #fff;
        stroke-width: 0px;
      }

            .st0{fill:#FFFFFF;}
	.st1{fill:#FFFFFF;}
	.st2{fill:#FFFFFF;}
    </style>
  </defs>
  <g>
    <polygon class="st2" points="531.57 211.89 513.69 211.89 568.89 119.36 586.77 119.36 531.57 211.89"/>
    <polygon class="st2" points="579.68 211.89 561.8 211.89 617 119.36 634.88 119.36 579.68 211.89"/>
    <polygon class="st2" points="627.78 211.89 609.91 211.89 665.11 119.36 682.99 119.36 627.78 211.89"/>
    <polygon class="st2" points="675.89 211.89 658.01 211.89 713.22 119.36 731.09 119.36 675.89 211.89"/>
    <polygon class="st2" points="724 211.89 706.12 211.89 761.32 119.36 779.2 119.36 724 211.89"/>
    <polygon class="st2" points="772.11 211.89 754.23 211.89 809.43 119.36 827.31 119.36 772.11 211.89"/>
  </g>
  <polygon class="uuid-30e0c5f7-d063-4e43-93e0-8e19f72519a2" points="43 6.5 43 13 14.68 13 14.68 41.32 8.18 41.32 8.18 6.5 43 6.5"/>
  <polygon class="uuid-30e0c5f7-d063-4e43-93e0-8e19f72519a2" points="1881.65 7.5 1881.65 14 1909.97 14 1909.97 42.32 1916.47 42.32 1916.47 7.5 1881.65 7.5"/>
  <polygon class="uuid-30e0c5f7-d063-4e43-93e0-8e19f72519a2" points="42.33 319.44 42.33 312.95 14.01 312.95 14.01 284.62 7.51 284.62 7.51 319.44 42.33 319.44"/>
  <polygon class="uuid-30e0c5f7-d063-4e43-93e0-8e19f72519a2" points="1881.65 318.44 1881.65 311.95 1909.97 311.95 1909.97 283.62 1916.47 283.62 1916.47 318.44 1881.65 318.44"/>
  <g>
    <rect class="uuid-30e0c5f7-d063-4e43-93e0-8e19f72519a2" x="1680.87" y="73.09" width="2.15" height="50.44"/>
    <rect class="uuid-30e0c5f7-d063-4e43-93e0-8e19f72519a2" x="1685.17" y="73.09" width="2.15" height="50.44"/>
    <rect class="uuid-30e0c5f7-d063-4e43-93e0-8e19f72519a2" x="1689.48" y="73.09" width="4.3" height="50.44"/>
    <rect class="uuid-30e0c5f7-d063-4e43-93e0-8e19f72519a2" x="1700.23" y="73.09" width="2.15" height="50.44"/>
    <rect class="uuid-30e0c5f7-d063-4e43-93e0-8e19f72519a2" x="1704.53" y="73.09" width="2.15" height="50.44"/>
    <rect class="uuid-30e0c5f7-d063-4e43-93e0-8e19f72519a2" x="1715.28" y="73.09" width="2.15" height="50.44"/>
    <rect class="uuid-30e0c5f7-d063-4e43-93e0-8e19f72519a2" x="1719.58" y="73.09" width="8.6" height="50.44"/>
    <rect class="uuid-30e0c5f7-d063-4e43-93e0-8e19f72519a2" x="1730.34" y="73.09" width="2.15" height="50.44"/>
    <rect class="uuid-30e0c5f7-d063-4e43-93e0-8e19f72519a2" x="1734.64" y="73.09" width="2.15" height="50.44"/>
    <rect class="uuid-30e0c5f7-d063-4e43-93e0-8e19f72519a2" x="1743.24" y="73.09" width="4.3" height="50.44"/>
    <rect class="uuid-30e0c5f7-d063-4e43-93e0-8e19f72519a2" x="1749.69" y="73.09" width="6.45" height="50.44"/>
    <rect class="uuid-30e0c5f7-d063-4e43-93e0-8e19f72519a2" x="1760.44" y="73.09" width="2.15" height="50.44"/>
    <rect class="uuid-30e0c5f7-d063-4e43-93e0-8e19f72519a2" x="1764.74" y="73.09" width="2.15" height="50.44"/>
    <rect class="uuid-30e0c5f7-d063-4e43-93e0-8e19f72519a2" x="1775.5" y="73.09" width="2.15" height="50.44"/>
    <rect class="uuid-30e0c5f7-d063-4e43-93e0-8e19f72519a2" x="1779.8" y="73.09" width="2.15" height="50.44"/>
    <rect class="uuid-30e0c5f7-d063-4e43-93e0-8e19f72519a2" x="1784.1" y="73.09" width="2.15" height="50.44"/>
    <rect class="uuid-30e0c5f7-d063-4e43-93e0-8e19f72519a2" x="1788.4" y="73.09" width="2.15" height="50.44"/>
    <rect class="uuid-30e0c5f7-d063-4e43-93e0-8e19f72519a2" x="1792.7" y="73.09" width="6.45" height="50.44"/>
    <rect class="uuid-30e0c5f7-d063-4e43-93e0-8e19f72519a2" x="1803.45" y="73.09" width="2.15" height="50.44"/>
    <rect class="uuid-30e0c5f7-d063-4e43-93e0-8e19f72519a2" x="1809.91" y="73.09" width="6.45" height="50.44"/>
    <rect class="uuid-30e0c5f7-d063-4e43-93e0-8e19f72519a2" x="1818.51" y="73.09" width="4.3" height="50.44"/>
    <rect class="uuid-30e0c5f7-d063-4e43-93e0-8e19f72519a2" x="1824.96" y="73.09" width="4.3" height="50.44"/>
    <rect class="uuid-30e0c5f7-d063-4e43-93e0-8e19f72519a2" x="1833.56" y="73.09" width="2.15" height="50.44"/>
    <rect class="uuid-30e0c5f7-d063-4e43-93e0-8e19f72519a2" x="1840.01" y="73.09" width="6.45" height="50.44"/>
    <rect class="uuid-30e0c5f7-d063-4e43-93e0-8e19f72519a2" x="1848.62" y="73.09" width="2.15" height="50.44"/>
    <rect class="uuid-30e0c5f7-d063-4e43-93e0-8e19f72519a2" x="1859.37" y="73.09" width="2.15" height="50.44"/>
    <rect class="uuid-30e0c5f7-d063-4e43-93e0-8e19f72519a2" x="1863.67" y="73.09" width="6.45" height="50.44"/>
    <rect class="uuid-30e0c5f7-d063-4e43-93e0-8e19f72519a2" x="1874.42" y="73.09" width="2.15" height="50.44"/>
    <rect class="uuid-30e0c5f7-d063-4e43-93e0-8e19f72519a2" x="1878.72" y="73.09" width="2.15" height="50.44"/>
    <rect class="uuid-30e0c5f7-d063-4e43-93e0-8e19f72519a2" x="1883.03" y="73.09" width="2.15" height="50.44"/>
  </g>
  <g>
    <path class="st1" d="m41.91,86.9h21.83l7.12,30.24h.14l7.12-30.24h21.8v51.4h-14.48v-32.98h-.17l-8.63,32.98h-11.45l-8.66-32.98h-.14v32.98h-14.48v-51.4Z"/>
    <path class="st1" d="m123.72,86.9h14.99l18.15,51.4h-15.91l-2.08-7.34h-15.84l-2.25,7.34h-15.39l18.32-51.4Zm12.06,33.09l-4.46-15.89h-.14l-4.8,15.89h9.4Z"/>
    <path class="st1" d="m193.28,106.04c-.05-.54-.18-1.25-.41-2.12-.27-.82-.69-1.63-1.26-2.43-.54-.92-1.34-1.67-2.38-2.26-1.02-.52-2.34-.78-3.95-.78-3.49.09-5.96,1.59-7.39,4.48-1.45,2.82-2.16,6.04-2.11,9.66-.05,3.62.66,6.84,2.11,9.66,1.43,2.94,3.89,4.43,7.39,4.48,2.54,0,4.45-.83,5.72-2.5,1.2-1.6,1.99-3.62,2.35-6.06h15.09c-.05,5.41-2,10.25-5.86,14.51-3.86,4.43-9.49,6.71-16.89,6.85-8.04-.09-14.25-2.71-18.63-7.84-4.4-4.99-6.61-11.36-6.61-19.09.04-8.25,2.34-14.78,6.88-19.58,4.47-4.85,10.59-7.3,18.36-7.35,13.67.37,21.18,7.17,22.54,20.37h-14.96Z"/>
    <path class="st1" d="m215.57,86.9h15.33v17.86h15.37v-17.86h15.32v51.4h-15.32v-20.39h-15.37v20.39h-15.33v-51.4Z"/>
    <path class="st1" d="m271.19,86.9h15.32v51.4h-15.32v-51.4Z"/>
    <path class="st1" d="m295.24,86.9h15.7l14.47,27.5h.17v-27.5h14.48v51.4h-14.95l-15.26-28.09h-.14v28.09h-14.48v-51.4Z"/>
    <path class="st1" d="m349.8,86.9h41.19v13.15h-25.87v6.44h23.49v12.23h-23.49v6.44h26.65v13.15h-41.98v-51.4Z"/>
    <path class="st1" d="m40.98,158.9h15.33v17.86h15.37v-17.86h15.32v51.4h-15.32v-20.39h-15.37v20.39h-15.33v-51.4Z"/>
    <path class="st1" d="m96.61,158.9h41.19v13.15h-25.87v6.44h23.49v12.23h-23.49v6.44h26.65v13.15h-41.98v-51.4Z"/>
    <path class="st1" d="m161.09,158.9h14.99l18.15,51.4h-15.91l-2.08-7.34h-15.84l-2.25,7.34h-15.39l18.32-51.4Zm12.06,33.08l-4.46-15.89h-.14l-4.8,15.89h9.4Z"/>
    <path class="st1" d="m199.3,158.9h25.18c8.22.14,14.06,2.78,17.51,7.91,3.34,5.09,4.99,10.99,4.94,17.72.12,16.85-8.37,25.44-25.45,25.77h-22.18v-51.4Zm15.32,38.25h6c2.43,0,4.37-.46,5.8-1.38,1.46-.92,2.56-2.02,3.31-3.31.73-1.34,1.24-2.74,1.53-4.2.23-1.48.34-2.8.34-3.95,0-.92-.07-2.06-.21-3.42-.23-1.34-.76-2.68-1.6-4.02-.8-1.36-2.01-2.53-3.65-3.49-1.64-.89-3.84-1.34-6.62-1.34h-4.91v25.11Z"/>
  </g>
  <g>
    <path class="uuid-30e0c5f7-d063-4e43-93e0-8e19f72519a2" d="m1550.6,147.06c-.03-.32-.11-.73-.24-1.23-.16-.48-.4-.95-.74-1.42-.32-.53-.78-.97-1.39-1.32-.6-.3-1.37-.45-2.31-.45-2.04.06-3.47.93-4.31,2.61-.85,1.65-1.26,3.52-1.23,5.63-.03,2.11.38,3.99,1.23,5.63.83,1.71,2.27,2.58,4.31,2.61,1.48,0,2.6-.49,3.34-1.46.7-.93,1.16-2.11,1.37-3.54h8.8c-.03,3.16-1.17,5.98-3.42,8.46-2.25,2.58-5.54,3.91-9.85,4-4.69-.05-8.31-1.58-10.87-4.57-2.57-2.91-3.85-6.62-3.85-11.14.03-4.81,1.36-8.62,4.01-11.42,2.61-2.83,6.18-4.26,10.71-4.29,7.97.22,12.36,4.18,13.15,11.88h-8.72Z"/>
    <path class="uuid-30e0c5f7-d063-4e43-93e0-8e19f72519a2" d="m1573.23,149.04h-6.63v-6.03c2.14.08,4.03-.37,5.69-1.36,1.63-.97,2.54-2.64,2.73-5h6.66v29.22h-8.45v-16.84Z"/>
    <path class="uuid-30e0c5f7-d063-4e43-93e0-8e19f72519a2" d="m1599.3,158.21c.19.67.61,1.19,1.27,1.56.7.31,1.35.45,1.95.41.95,0,1.73-.21,2.32-.62.62-.37,1.11-.85,1.45-1.44.36-.62.66-1.26.89-1.94.2-.67.34-1.3.42-1.89l-.08-.08c-1.81,1.56-3.93,2.32-6.35,2.3-2.82,0-5.11-.81-6.87-2.42-1.79-1.57-2.69-3.86-2.72-6.85.05-3.58,1.24-6.3,3.57-8.16,2.25-1.85,5.03-2.77,8.34-2.77,4.14.05,7.18,1.44,9.11,4.16,1.87,2.69,2.8,5.94,2.8,9.74,0,4.7-1.06,8.52-3.18,11.46-2.14,2.97-5.38,4.48-9.71,4.53-2.66,0-4.96-.63-6.91-1.88-1.99-1.25-3.24-3.29-3.75-6.11h7.44Zm3.92-15.26c-1.09.03-2.05.4-2.88,1.13-.84.73-1.27,1.69-1.3,2.89,0,1.15.42,2.09,1.26,2.83.8.75,1.74,1.13,2.83,1.13,1.14,0,2.11-.36,2.9-1.09.76-.7,1.15-1.63,1.18-2.81-.03-1.22-.39-2.2-1.1-2.95-.76-.72-1.72-1.1-2.89-1.13Z"/>
    <path class="uuid-30e0c5f7-d063-4e43-93e0-8e19f72519a2" d="m1550.6,187.06c-.03-.31-.11-.73-.24-1.23-.16-.48-.4-.95-.74-1.42-.32-.53-.78-.97-1.39-1.32-.6-.3-1.37-.45-2.31-.45-2.04.05-3.47.93-4.31,2.61-.85,1.65-1.26,3.52-1.23,5.63-.03,2.11.38,3.99,1.23,5.63.83,1.71,2.27,2.58,4.31,2.61,1.48,0,2.6-.49,3.34-1.46.7-.93,1.16-2.11,1.37-3.54h8.8c-.03,3.16-1.17,5.98-3.42,8.46-2.25,2.58-5.54,3.91-9.85,4-4.69-.05-8.31-1.58-10.87-4.57-2.57-2.91-3.85-6.62-3.85-11.14.03-4.81,1.36-8.62,4.01-11.42,2.61-2.83,6.18-4.26,10.71-4.29,7.97.22,12.36,4.18,13.15,11.88h-8.72Z"/>
    <path class="uuid-30e0c5f7-d063-4e43-93e0-8e19f72519a2" d="m1585.11,201.02c0,.82.05,1.65.16,2.51.11.84.38,1.63.82,2.35h-8.48c-.22-.7-.31-1.38-.29-2.05h-.08c-.9.97-1.94,1.64-3.11,2.01-1.23.4-2.53.59-3.89.59-2.09,0-3.82-.53-5.19-1.6-1.47-1.09-2.21-2.76-2.24-5,0-1.71.45-3.03,1.35-3.97.86-.96,1.93-1.65,3.22-2.07,1.35-.45,2.71-.76,4.08-.92,1.37-.16,2.58-.31,3.65-.45.31-.1.61-.18.88-.27.26-.08.5-.18.72-.29.45-.27.68-.74.68-1.39-.03-.75-.31-1.28-.84-1.58-.54-.29-1.17-.43-1.89-.43-1.25.03-2.08.26-2.49.71-.43.5-.64,1-.64,1.5h-7.75c.11-1.54.5-2.79,1.18-3.75.66-.94,1.52-1.65,2.58-2.13,1.07-.51,2.26-.85,3.57-1.05,1.27-.14,2.53-.21,3.77-.21,2.54,0,4.54.23,5.98.7,1.43.48,2.44,1.13,3.02,1.95.61.81.99,1.72,1.14,2.73.05,1.03.08,2.07.08,3.14v8.96Zm-7.71-4.91c-1.09.48-2.23.83-3.44,1.05-1.96.25-2.94,1.03-2.94,2.36,0,.54.26.99.79,1.38.49.42,1.13.64,1.93.64,1.02,0,1.87-.29,2.56-.88.67-.56,1.04-1.4,1.1-2.53v-2.01Z"/>
    <path class="uuid-30e0c5f7-d063-4e43-93e0-8e19f72519a2" d="m1589.25,184.08h8.02v2.89h.08c1.71-2.35,4.09-3.49,7.14-3.42,1.2,0,2.35.27,3.44.82,1.09.6,1.91,1.46,2.44,2.56.08-.11.26-.33.53-.66.29-.37.72-.77,1.31-1.19.59-.41,1.33-.77,2.21-1.09.93-.3,2.05-.45,3.36-.45,2.68.05,4.57.83,5.68,2.34.57.72.97,1.51,1.21,2.36.22.89.34,1.78.34,2.69v14.95h-8.04v-11.78c.03-1.09-.1-2.01-.39-2.74-.36-.75-1.19-1.14-2.48-1.17-1.09,0-1.84.35-2.25,1.04-.47.74-.71,1.69-.71,2.87v11.78h-8.04v-11.78c.03-1.09-.1-2.01-.39-2.74-.36-.75-1.19-1.14-2.48-1.17-1.09,0-1.84.35-2.25,1.04-.47.74-.71,1.69-.71,2.87v11.78h-8.04v-21.8Z"/>
    <path class="uuid-30e0c5f7-d063-4e43-93e0-8e19f72519a2" d="m1629.67,184.08h7.77v2.4h.08c.26-.4.56-.76.89-1.09.32-.37.7-.68,1.13-.92.87-.59,2.26-.9,4.15-.92,1.52.03,2.85.36,3.99,1,1.09.67,1.99,1.57,2.72,2.69,1.44,2.35,2.17,4.97,2.17,7.85,0,1.29-.13,2.58-.38,3.9-.27,1.31-.74,2.53-1.43,3.65-1.32,2.43-3.72,3.7-7.19,3.79-2.53-.03-4.46-1.01-5.78-2.94h-.08v9.44h-8.04v-28.85Zm7.76,10.94c0,.62.06,1.25.17,1.89s.3,1.22.58,1.73c.54,1.15,1.55,1.74,3.05,1.77.78,0,1.43-.18,1.96-.55.5-.3.87-.71,1.13-1.21.47-1.1.7-2.3.7-3.62,0-1.38-.23-2.64-.7-3.76-.25-.51-.63-.91-1.13-1.21-.53-.32-1.18-.47-1.96-.47-1.49.03-2.51.59-3.05,1.69-.27.51-.46,1.08-.58,1.73-.11.67-.17,1.35-.17,2.03Z"/>
    <path class="uuid-30e0c5f7-d063-4e43-93e0-8e19f72519a2" d="m1678.42,201.02c0,.82.05,1.65.16,2.51.11.84.38,1.63.82,2.35h-8.48c-.22-.7-.31-1.38-.29-2.05h-.08c-.9.97-1.94,1.64-3.11,2.01-1.23.4-2.53.59-3.89.59-2.09,0-3.82-.53-5.19-1.6-1.47-1.09-2.21-2.76-2.24-5,0-1.71.45-3.03,1.35-3.97.86-.96,1.93-1.65,3.22-2.07,1.35-.45,2.71-.76,4.08-.92,1.37-.16,2.58-.31,3.65-.45.31-.1.61-.18.88-.27.26-.08.5-.18.72-.29.45-.27.68-.74.68-1.39-.03-.75-.31-1.28-.84-1.58-.54-.29-1.17-.43-1.89-.43-1.25.03-2.08.26-2.49.71-.43.5-.64,1-.64,1.5h-7.75c.11-1.54.5-2.79,1.18-3.75.66-.94,1.52-1.65,2.58-2.13,1.07-.51,2.26-.85,3.57-1.05,1.27-.14,2.53-.21,3.77-.21,2.54,0,4.54.23,5.98.7,1.43.48,2.44,1.13,3.02,1.95.61.81.99,1.72,1.14,2.73.05,1.03.08,2.07.08,3.14v8.96Zm-7.71-4.91c-1.09.48-2.23.83-3.44,1.05-1.96.25-2.94,1.03-2.94,2.36,0,.54.26.99.79,1.38.49.42,1.13.64,1.93.64,1.02,0,1.87-.29,2.56-.88.67-.56,1.04-1.4,1.1-2.53v-2.01Z"/>
    <path class="uuid-30e0c5f7-d063-4e43-93e0-8e19f72519a2" d="m1691.23,181.72h-8.04v-5.82h8.04v5.82Zm-8.04,2.36h8.04v21.8h-8.04v-21.8Z"/>
    <path class="uuid-30e0c5f7-d063-4e43-93e0-8e19f72519a2" d="m1718.24,203.09c0,1.06-.09,2.2-.28,3.4-.22,1.2-.71,2.33-1.47,3.4-.7,1.02-1.8,1.86-3.3,2.5-1.5.71-3.47,1.08-5.94,1.11-2.58.03-4.94-.46-7.07-1.47-2.17-.98-3.49-2.91-3.95-5.79h7.97c.12.23.27.48.46.75.26.39.6.74,1.01,1.04.41.34.86.52,1.35.55.65-.03,1.19-.21,1.63-.55.4-.36.72-.79.97-1.29.37-1.12.56-2.17.56-3.16v-2.01h-.08c-1.37,1.98-3.31,2.99-5.82,3.04-3.17-.04-5.51-1.09-7.01-3.16-1.54-2.02-2.32-4.52-2.32-7.49s.81-5.39,2.44-7.34c1.57-1.98,3.91-3,7.01-3.06,1.26,0,2.41.23,3.45.7,1.04.53,1.79,1.36,2.26,2.48h.08v-2.65h8.04v19.01Zm-15.24-9.18c0,.59.07,1.21.21,1.85.11.66.31,1.23.6,1.73.55,1.15,1.58,1.74,3.07,1.77.81,0,1.45-.18,1.92-.53.5-.32.85-.74,1.04-1.27.41-1.08.6-2.28.58-3.58,0-1.26-.31-2.28-.92-3.06-.61-.79-1.56-1.21-2.84-1.23-1.22.03-2.14.45-2.75,1.27-.61.84-.92,1.86-.92,3.06Z"/>
    <path class="uuid-30e0c5f7-d063-4e43-93e0-8e19f72519a2" d="m1722.71,184.08h8v2.77h.08c1.47-2.2,3.83-3.3,7.08-3.3,1.97,0,3.67.6,5.08,1.8,1.4,1.2,2.12,3.06,2.14,5.58v14.95h-8.04v-11.44c.03-1.29-.12-2.33-.45-3.12-.34-.78-1.14-1.17-2.4-1.17-.79-.03-1.54.23-2.25.76-.34.27-.64.69-.88,1.25-.23.59-.34,1.32-.34,2.2v11.52h-8.04v-21.8Z"/>
    <path class="uuid-30e0c5f7-d063-4e43-93e0-8e19f72519a2" d="m1532.32,215.89h15.27c2.03,0,3.75.32,5.15.96,1.39.64,2.5,1.48,3.33,2.52,1.64,2.21,2.44,4.47,2.41,6.77-.03,3.58-1.12,6.25-3.28,8.02s-4.99,2.65-8.49,2.65h-5.46v9.06h-8.94v-29.98Zm8.94,13.78h3.69c1.3.03,2.46-.13,3.48-.47.5-.22.9-.56,1.21-1.01.27-.42.4-1,.4-1.73-.03-1.34-.48-2.17-1.36-2.49-.89-.3-1.94-.44-3.16-.41h-4.26v6.11Z"/>
    <path class="uuid-30e0c5f7-d063-4e43-93e0-8e19f72519a2" d="m1561.77,215.89h8.04v10.54h.08c.72-.88,1.63-1.58,2.74-2.11,1.08-.52,2.51-.78,4.31-.78,1.97,0,3.67.6,5.08,1.8,1.4,1.2,2.12,3.06,2.14,5.58v14.95h-8.04v-11.41c.03-1.28-.12-2.32-.45-3.11-.34-.78-1.14-1.17-2.4-1.17-.79-.03-1.54.23-2.25.76-.34.27-.64.69-.88,1.25-.23.59-.34,1.32-.34,2.19v11.49h-8.04v-29.98Z"/>
    <path class="uuid-30e0c5f7-d063-4e43-93e0-8e19f72519a2" d="m1611.11,234.98c0,3.1-.95,5.76-2.84,7.97-1.88,2.27-4.85,3.43-8.92,3.48-4.02-.05-6.98-1.22-8.88-3.49-1.95-2.21-2.9-4.87-2.86-7.98-.04-3.14.91-5.81,2.86-8,1.91-2.23,4.87-3.37,8.88-3.42,4.07.05,7.04,1.2,8.92,3.43,1.89,2.19,2.84,4.86,2.84,8Zm-8.04,0c0-.59-.03-1.21-.08-1.87-.09-.64-.26-1.22-.53-1.73-.26-.55-.62-.99-1.09-1.34-.53-.32-1.2-.47-2.01-.47s-1.41.16-1.88.47c-.53.34-.92.79-1.17,1.34-.47,1.12-.69,2.32-.66,3.6,0,.56.06,1.15.17,1.77.08.62.25,1.21.49,1.77.26.56.65,1.01,1.17,1.34.47.37,1.09.55,1.88.55s1.48-.18,2.01-.55c.47-.33.83-.77,1.09-1.34.44-1.15.65-2.33.62-3.54Z"/>
    <path class="uuid-30e0c5f7-d063-4e43-93e0-8e19f72519a2" d="m1625.11,224.08h4.32v5.12h-4.32v7.63c-.03,1,.14,1.73.5,2.18.34.48,1.01.72,1.99.72.62,0,1.23-.04,1.83-.12v6.27c-1.68.05-3.4.14-5.16.25-.87,0-1.71-.07-2.52-.2-.83-.16-1.61-.44-2.32-.84-.7-.45-1.26-1.1-1.67-1.96-.46-.87-.69-2.03-.69-3.47v-10.44h-3.6v-5.12h3.6v-6.62h8.04v6.62Z"/>
    <path class="uuid-30e0c5f7-d063-4e43-93e0-8e19f72519a2" d="m1654.64,234.98c0,3.1-.95,5.76-2.84,7.97-1.88,2.27-4.85,3.43-8.92,3.48-4.02-.05-6.98-1.22-8.88-3.49-1.95-2.21-2.9-4.87-2.86-7.98-.04-3.14.91-5.81,2.86-8,1.91-2.23,4.87-3.37,8.88-3.42,4.07.05,7.04,1.2,8.92,3.43,1.89,2.19,2.84,4.86,2.84,8Zm-8.04,0c0-.59-.03-1.21-.08-1.87-.09-.64-.26-1.22-.53-1.73-.26-.55-.62-.99-1.09-1.34-.53-.32-1.2-.47-2.01-.47s-1.41.16-1.88.47c-.53.34-.92.79-1.17,1.34-.47,1.12-.69,2.32-.66,3.6,0,.56.06,1.15.17,1.77.08.62.25,1.21.49,1.77.26.56.65,1.01,1.17,1.34.47.37,1.09.55,1.88.55s1.48-.18,2.01-.55c.47-.33.83-.77,1.09-1.34.44-1.15.65-2.33.62-3.54Z"/>
    <path class="uuid-30e0c5f7-d063-4e43-93e0-8e19f72519a2" d="m1680.96,243.09c0,1.06-.09,2.2-.28,3.4-.22,1.2-.71,2.33-1.47,3.4-.7,1.02-1.8,1.86-3.3,2.5-1.5.71-3.47,1.08-5.94,1.11-2.58.03-4.94-.46-7.07-1.47-2.17-.98-3.49-2.91-3.95-5.79h7.97c.12.23.27.48.46.75.26.39.6.74,1.01,1.04.41.34.86.52,1.35.55.65-.03,1.19-.21,1.63-.55.4-.36.72-.79.97-1.29.37-1.12.56-2.17.56-3.16v-2.01h-.08c-1.37,1.98-3.31,2.99-5.82,3.04-3.17-.04-5.51-1.09-7.01-3.16-1.54-2.02-2.32-4.52-2.32-7.49s.81-5.39,2.44-7.34c1.57-1.98,3.91-3,7.01-3.06,1.26,0,2.41.23,3.45.7,1.04.53,1.79,1.36,2.26,2.48h.08v-2.65h8.04v19.01Zm-15.24-9.18c0,.59.07,1.21.21,1.85.11.66.31,1.23.6,1.73.55,1.15,1.58,1.74,3.07,1.77.81,0,1.45-.18,1.92-.53.5-.32.85-.74,1.04-1.27.41-1.08.6-2.28.58-3.58,0-1.26-.31-2.28-.92-3.06-.61-.79-1.56-1.21-2.84-1.23-1.22.03-2.14.45-2.75,1.27-.61.84-.92,1.86-.92,3.06Z"/>
    <path class="uuid-30e0c5f7-d063-4e43-93e0-8e19f72519a2" d="m1685.43,224.08h7.72v3.49h.08c.65-1.31,1.45-2.32,2.4-3.01.91-.67,2.09-1,3.53-1,.81,0,1.6.11,2.36.33v7.34c-.38-.16-.81-.3-1.27-.41-.46-.08-1.1-.12-1.91-.12-3.23-.05-4.86,2.14-4.89,6.58v8.61h-8.04v-21.8Z"/>
    <path class="uuid-30e0c5f7-d063-4e43-93e0-8e19f72519a2" d="m1725.11,241.02c0,.82.05,1.65.16,2.51.11.84.38,1.63.82,2.35h-8.48c-.22-.7-.31-1.38-.29-2.05h-.08c-.9.97-1.94,1.64-3.11,2.01-1.23.4-2.53.59-3.89.59-2.09,0-3.82-.53-5.19-1.6-1.47-1.09-2.21-2.76-2.24-5,0-1.71.45-3.03,1.35-3.97.86-.96,1.93-1.65,3.22-2.07,1.35-.45,2.71-.76,4.08-.92,1.37-.16,2.58-.31,3.65-.45.31-.1.61-.18.88-.27.26-.08.5-.18.72-.29.45-.27.68-.74.68-1.39-.03-.75-.31-1.28-.84-1.58-.54-.29-1.17-.43-1.89-.43-1.25.03-2.08.26-2.49.71-.43.5-.64,1-.64,1.5h-7.75c.11-1.54.5-2.79,1.18-3.75.66-.94,1.52-1.65,2.58-2.13,1.07-.51,2.26-.85,3.57-1.05,1.27-.14,2.53-.21,3.77-.21,2.54,0,4.54.23,5.98.7,1.43.48,2.44,1.13,3.02,1.95.61.81.99,1.72,1.14,2.73.05,1.03.08,2.07.08,3.14v8.96Zm-7.71-4.91c-1.09.48-2.23.83-3.44,1.05-1.96.25-2.94,1.03-2.94,2.36,0,.54.26.99.79,1.38.49.42,1.13.64,1.93.64,1.02,0,1.87-.29,2.56-.88.67-.56,1.04-1.4,1.1-2.53v-2.01Z"/>
    <path class="uuid-30e0c5f7-d063-4e43-93e0-8e19f72519a2" d="m1729.23,224.08h7.77v2.4h.08c.26-.4.56-.76.89-1.09.32-.37.7-.68,1.13-.92.87-.59,2.26-.9,4.15-.92,1.52.03,2.85.36,3.99,1,1.09.67,1.99,1.57,2.72,2.69,1.44,2.35,2.17,4.97,2.17,7.85,0,1.29-.13,2.58-.38,3.9-.27,1.31-.74,2.53-1.43,3.65-1.32,2.43-3.72,3.7-7.19,3.79-2.53-.03-4.46-1.01-5.78-2.94h-.08v9.44h-8.04v-28.85Zm7.76,10.94c0,.62.06,1.25.17,1.89s.3,1.22.58,1.73c.54,1.15,1.55,1.74,3.05,1.77.78,0,1.43-.18,1.96-.55.5-.3.87-.71,1.13-1.21.47-1.1.7-2.3.7-3.62,0-1.38-.23-2.64-.7-3.76-.25-.51-.63-.91-1.13-1.21-.53-.32-1.18-.47-1.96-.47-1.49.03-2.51.59-3.05,1.69-.27.51-.46,1.08-.58,1.73-.11.67-.17,1.35-.17,2.03Z"/>
    <path class="uuid-30e0c5f7-d063-4e43-93e0-8e19f72519a2" d="m1756.94,215.89h8.04v10.54h.08c.72-.88,1.63-1.58,2.74-2.11,1.08-.52,2.51-.78,4.31-.78,1.97,0,3.67.6,5.08,1.8,1.4,1.2,2.12,3.06,2.14,5.58v14.95h-8.04v-11.41c.03-1.28-.12-2.32-.45-3.11-.34-.78-1.14-1.17-2.4-1.17-.79-.03-1.54.23-2.25.76-.34.27-.64.69-.88,1.25-.23.59-.34,1.32-.34,2.19v11.49h-8.04v-29.98Z"/>
    <path class="uuid-30e0c5f7-d063-4e43-93e0-8e19f72519a2" d="m1798.18,244.2c-.29.98-.64,2.02-1.05,3.12-.44,1.08-.97,2.06-1.59,2.93-1.08,1.29-2.38,2.07-3.87,2.36-1.48.25-3.02.36-4.63.33h-3.65v-6.64h1.93c.45,0,.91-.01,1.37-.04.45,0,.83-.05,1.15-.16.25-.11.45-.3.62-.57.12-.26.18-.62.18-1.07,0-.33-.16-.97-.47-1.93-.33-.94-.72-2-1.17-3.18-.96-2.56-1.63-4.29-2.03-5.21l-3.62-10.05h8.62l3.38,12.5h.08l3.44-12.5h8.32l-6.99,20.12Z"/>
  </g>
  <g>
    <path class="uuid-30e0c5f7-d063-4e43-93e0-8e19f72519a2" d="m1555.82,106.2h6.14v4.86h-6.14v11.39h-5.38v-11.39h-22.85v-5.18l22.4-28.99h5.82v29.31Zm-5.38,0v-22.27l-17.22,22.27h17.22Z"/>
    <path class="uuid-30e0c5f7-d063-4e43-93e0-8e19f72519a2" d="m1571.63,117.59h24.06v4.86h-30.08l.13-2.5c.26-3.75,1.11-6.98,2.56-9.66,1.45-2.69,3.9-5.03,7.36-7.04l5.76-3.33c2.9-1.71,4.96-3.37,6.18-4.99,1.22-1.62,1.82-3.58,1.82-5.89,0-2.52-.8-4.53-2.4-6.05-1.6-1.51-3.81-2.27-6.62-2.27-6.36,0-9.54,3.26-9.54,9.79h-5.31c-.04-4.65,1.26-8.26,3.9-10.82s6.34-3.84,11.07-3.84c4.31,0,7.81,1.22,10.5,3.65,2.69,2.52,4.03,5.7,4.03,9.54,0,5.89-3.46,10.84-10.37,14.85l-4.86,2.82c-2.82,1.71-4.84,3.36-6.08,4.96-1.24,1.6-1.94,3.57-2.11,5.92Z"/>
    <path class="uuid-30e0c5f7-d063-4e43-93e0-8e19f72519a2" d="m1597.04,81.75v-4.86h29.25v4.22c-10.5,11.78-15.96,25.56-16.38,41.34h-5.57c.21-7.89,1.59-15.11,4.13-21.66,2.54-6.55,6.41-12.9,11.62-19.04h-23.04Z"/>
    <path class="uuid-30e0c5f7-d063-4e43-93e0-8e19f72519a2" d="m1649.71,106.2h6.14v4.86h-6.14v11.39h-5.38v-11.39h-22.85v-5.18l22.4-28.99h5.82v29.31Zm-5.38,0v-22.27l-17.22,22.27h17.22Z"/>
  </g>
  <g>
    <path class="uuid-30e0c5f7-d063-4e43-93e0-8e19f72519a2" d="m990.92,114.54c4.18,1.6,6.27,4.49,6.27,8.67,0,3.16-1.03,5.65-3.09,7.47-2.06,1.82-4.96,2.73-8.7,2.73h-15.86v-36.31h15.1c3.5,0,6.22.88,8.16,2.63,1.94,1.75,2.91,4.04,2.91,6.86,0,3.64-1.6,6.29-4.79,7.96Zm-6.58-13.57h-10.51v11.98h10.51c2.35,0,4.13-.54,5.35-1.63,1.22-1.09,1.84-2.62,1.84-4.59,0-1.8-.62-3.21-1.86-4.23-1.24-1.02-3.02-1.53-5.33-1.53Zm-10.51,28.56h11.37c2.52,0,4.43-.54,5.74-1.63,1.31-1.09,1.96-2.65,1.96-4.69,0-4.28-2.58-6.43-7.75-6.43h-11.32v12.75Z"/>
    <path class="uuid-30e0c5f7-d063-4e43-93e0-8e19f72519a2" d="m1013.87,106.68c.68,0,1.14.02,1.38.05v3.93h-1.02c-2.72,0-4.84.67-6.35,2.01-1.51,1.34-2.27,3.26-2.27,5.74v14.99h-4.08v-26.32h3.88v4.64c1.77-3.37,4.59-5.05,8.47-5.05Z"/>
    <path class="uuid-30e0c5f7-d063-4e43-93e0-8e19f72519a2" d="m1038.81,130.09h1.48v3.31c-.68.1-1.43.15-2.24.15-2.75,0-4.23-1.26-4.44-3.77-1.84,2.82-4.69,4.23-8.57,4.23-2.89,0-5.16-.67-6.81-2.01-1.65-1.34-2.47-3.24-2.47-5.69,0-4.76,3.25-7.48,9.74-8.16l3.77-.41c2.75-.31,4.13-1.51,4.13-3.62,0-1.46-.45-2.52-1.35-3.16-.9-.65-2.42-.97-4.56-.97-2.28,0-3.92.38-4.92,1.15-1,.77-1.57,2.12-1.71,4.05h-4.08c.34-5.81,3.91-8.72,10.71-8.72s9.89,2.55,9.89,7.65v14.69c0,.85.48,1.27,1.43,1.27Zm-13.57.46c2.18,0,4.08-.66,5.71-1.99,1.63-1.29,2.45-3.14,2.45-5.56v-3.11c-.75.58-1.9.95-3.47,1.12l-3.83.46c-2.21.27-3.78.78-4.72,1.53-.94.75-1.4,1.82-1.4,3.21s.44,2.42,1.33,3.19c.88.77,2.19,1.15,3.93,1.15Z"/>
    <path class="uuid-30e0c5f7-d063-4e43-93e0-8e19f72519a2" d="m1055.99,106.48c2.92,0,5.2.8,6.83,2.4s2.45,3.84,2.45,6.73v17.8h-4.08v-17.39c0-3.91-2.01-5.86-6.02-5.86-1.9,0-3.59.71-5.05,2.14-1.46,1.43-2.19,3.5-2.19,6.22v14.89h-4.08v-26.32h3.88v3.93c2.01-3.03,4.76-4.54,8.26-4.54Z"/>
    <path class="uuid-30e0c5f7-d063-4e43-93e0-8e19f72519a2" d="m1091.18,110.87v-13.77h4.08v36.31h-3.88v-4.08c-2.11,3.13-5.12,4.69-9.03,4.69-3.71,0-6.67-1.26-8.87-3.77-2.24-2.52-3.37-5.85-3.37-10s1.12-7.56,3.37-10.05c2.17-2.48,5.13-3.72,8.87-3.72s6.71,1.46,8.82,4.39Zm-14.48,16.88c1.53,1.73,3.59,2.6,6.17,2.6s4.64-.9,6.17-2.7c1.53-1.77,2.29-4.23,2.29-7.4s-.76-5.59-2.29-7.4c-1.53-1.8-3.59-2.7-6.17-2.7s-4.6.93-6.15,2.78c-1.55,1.85-2.32,4.36-2.32,7.52s.76,5.56,2.29,7.29Z"/>
    <path class="uuid-30e0c5f7-d063-4e43-93e0-8e19f72519a2" d="m1124.64,134.22c-4.73,0-8.42-1.07-11.07-3.21-2.65-2.14-4-5.34-4.03-9.59h4.44c.1,5.95,3.65,8.92,10.66,8.92,2.96,0,5.23-.58,6.81-1.73,1.58-1.16,2.37-2.84,2.37-5.05,0-1.73-.65-3.09-1.96-4.05-1.31-.97-3.6-1.81-6.86-2.52l-3.21-.71c-3.67-.85-6.43-2.08-8.26-3.7-1.84-1.61-2.75-3.88-2.75-6.81s1.12-5.19,3.37-6.91c2.24-1.72,5.25-2.58,9.03-2.58,2.55,0,4.77.31,6.66.92,1.89.61,3.36,1.47,4.41,2.58,1.05,1.1,1.83,2.3,2.32,3.6.49,1.29.76,2.72.79,4.28h-4.39c-.2-2.58-1.05-4.48-2.53-5.69-1.48-1.21-3.9-1.81-7.27-1.81-2.55,0-4.51.49-5.89,1.48-1.38.99-2.07,2.36-2.07,4.13s.59,3.15,1.78,4.13c1.16.99,3.4,1.85,6.73,2.6l3.21.71c4.01.88,6.9,2.15,8.67,3.8,1.77,1.65,2.65,3.83,2.65,6.55,0,3.3-1.21,5.9-3.62,7.8-2.42,1.9-5.75,2.86-10,2.86Z"/>
    <path class="uuid-30e0c5f7-d063-4e43-93e0-8e19f72519a2" d="m1153.61,107.09v3.57h-5.41v17.08c0,1.5,1,2.24,3.01,2.24h2.4v3.42c-1.12.1-2.09.15-2.91.15-4.39,0-6.58-1.82-6.58-5.46v-17.44h-4.33v-3.57h4.33v-7.45h4.08v7.45h5.41Z"/>
    <path class="uuid-30e0c5f7-d063-4e43-93e0-8e19f72519a2" d="m1170.28,106.68c.68,0,1.14.02,1.38.05v3.93h-1.02c-2.72,0-4.84.67-6.35,2.01-1.51,1.34-2.27,3.26-2.27,5.74v14.99h-4.08v-26.32h3.88v4.64c1.77-3.37,4.59-5.05,8.47-5.05Z"/>
    <path class="uuid-30e0c5f7-d063-4e43-93e0-8e19f72519a2" d="m1195.22,130.09h1.48v3.31c-.68.1-1.43.15-2.24.15-2.75,0-4.23-1.26-4.44-3.77-1.84,2.82-4.69,4.23-8.57,4.23-2.89,0-5.16-.67-6.81-2.01-1.65-1.34-2.47-3.24-2.47-5.69,0-4.76,3.25-7.48,9.74-8.16l3.77-.41c2.75-.31,4.13-1.51,4.13-3.62,0-1.46-.45-2.52-1.35-3.16-.9-.65-2.42-.97-4.56-.97-2.28,0-3.92.38-4.92,1.15-1,.77-1.57,2.12-1.71,4.05h-4.08c.34-5.81,3.91-8.72,10.71-8.72s9.89,2.55,9.89,7.65v14.69c0,.85.48,1.27,1.43,1.27Zm-13.57.46c2.18,0,4.08-.66,5.71-1.99,1.63-1.29,2.45-3.14,2.45-5.56v-3.11c-.75.58-1.9.95-3.47,1.12l-3.83.46c-2.21.27-3.78.78-4.72,1.53-.94.75-1.4,1.82-1.4,3.21s.44,2.42,1.33,3.19c.88.77,2.19,1.15,3.93,1.15Z"/>
    <path class="uuid-30e0c5f7-d063-4e43-93e0-8e19f72519a2" d="m1210.78,107.09v3.57h-5.41v17.08c0,1.5,1,2.24,3.01,2.24h2.4v3.42c-1.12.1-2.09.15-2.91.15-4.39,0-6.58-1.82-6.58-5.46v-17.44h-4.33v-3.57h4.33v-7.45h4.08v7.45h5.41Z"/>
    <path class="uuid-30e0c5f7-d063-4e43-93e0-8e19f72519a2" d="m1237.55,120.25v1.43h-19.99c.2,2.86,1,5.01,2.4,6.45,1.39,1.45,3.3,2.17,5.71,2.17,3.64,0,5.97-1.63,6.99-4.9h4.23c-.71,2.65-2.04,4.75-3.98,6.3-1.94,1.55-4.39,2.32-7.34,2.32-3.64,0-6.58-1.24-8.82-3.72-2.28-2.48-3.42-5.83-3.42-10.05s1.12-7.48,3.37-10c2.21-2.52,5.13-3.77,8.77-3.77s6.73,1.31,8.87,3.93c2.14,2.62,3.21,5.9,3.21,9.84Zm-12.09-10.05c-2.14,0-3.89.67-5.25,2.01-1.36,1.34-2.21,3.27-2.55,5.79h15.5c-.2-2.31-.99-4.19-2.35-5.64-1.36-1.44-3.15-2.17-5.36-2.17Z"/>
    <path class="uuid-30e0c5f7-d063-4e43-93e0-8e19f72519a2" d="m1262.39,110.92v-3.82h3.88v25.3c0,3.6-1.05,6.44-3.16,8.52-2.11,2.07-5.13,3.11-9.08,3.11-3.26,0-5.88-.75-7.85-2.24-1.97-1.5-3.09-3.57-3.37-6.22h4.08c.51,3.33,2.89,5,7.14,5,5.44,0,8.16-2.72,8.16-8.16v-2.55c-2.07,2.79-5.02,4.18-8.82,4.18s-6.67-1.26-8.87-3.77c-2.24-2.52-3.37-5.85-3.37-10s1.12-7.56,3.37-10.05c2.17-2.48,5.13-3.72,8.87-3.72s6.92,1.48,9.03,4.44Zm-8.52,19.43c2.58,0,4.64-.9,6.17-2.7,1.53-1.8,2.29-4.27,2.29-7.4s-.76-5.59-2.29-7.4c-1.53-1.8-3.59-2.7-6.17-2.7s-4.6.92-6.15,2.75c-1.55,1.84-2.32,4.28-2.32,7.34s.77,5.51,2.32,7.34c1.55,1.84,3.6,2.75,6.15,2.75Z"/>
    <path class="uuid-30e0c5f7-d063-4e43-93e0-8e19f72519a2" d="m1285.08,118.01l3.72-10.91h4.44l-11.12,30.45c-.78,2.21-1.85,3.77-3.21,4.67-1.36.9-3.15,1.35-5.35,1.35-.75,0-1.56-.05-2.45-.15v-3.42h2.4c2.35,0,3.94-1.09,4.79-3.26l.92-2.45-9.89-27.18h4.49l3.72,10.96c1.33,3.88,2.58,7.67,3.77,11.37.99-3.16,2.24-6.97,3.77-11.42Z"/>
    <path class="uuid-30e0c5f7-d063-4e43-93e0-8e19f72519a2" d="m1329.71,125.55l7.04,7.85h-5.51l-3.83-4.28c-2.89,3.4-6.8,5.1-11.73,5.1-3.33,0-5.98-.99-7.96-2.96-2.01-1.94-3.01-4.32-3.01-7.14,0-2.38.65-4.39,1.96-6.02,1.31-1.63,3.48-3.3,6.5-5-1.56-1.77-2.68-3.33-3.34-4.69-.66-1.36-.99-2.74-.99-4.13,0-2.21.82-4.11,2.45-5.71,1.6-1.53,3.76-2.29,6.48-2.29,2.41,0,4.5.7,6.27,2.09,1.73,1.39,2.6,3.31,2.6,5.76,0,3.6-2.48,6.83-7.45,9.69l7.55,8.42c.68-1.97,1.02-4.1,1.02-6.38h4.13c-.1,3.64-.83,6.87-2.19,9.69Zm-13.77,4.79c3.77,0,6.7-1.43,8.77-4.28l-9.13-10.25c-2.35,1.26-4.02,2.48-5.02,3.67-1,1.19-1.5,2.67-1.5,4.44s.63,3.32,1.89,4.56c1.26,1.24,2.92,1.86,5,1.86Zm1.79-30.4c-1.36,0-2.47.4-3.32,1.2-.85.8-1.27,1.84-1.27,3.14,0,1.8,1.22,4.08,3.67,6.83,1.94-1.05,3.35-2.12,4.23-3.21.88-1.09,1.33-2.29,1.33-3.62,0-1.26-.44-2.29-1.33-3.11s-1.99-1.22-3.31-1.22Z"/>
    <path class="uuid-30e0c5f7-d063-4e43-93e0-8e19f72519a2" d="m1354.04,133.41h-4.28v-36.31h4.28v36.31Z"/>
    <path class="uuid-30e0c5f7-d063-4e43-93e0-8e19f72519a2" d="m1380.2,110.87v-13.77h4.08v36.31h-3.88v-4.08c-2.11,3.13-5.12,4.69-9.03,4.69-3.71,0-6.67-1.26-8.87-3.77-2.24-2.52-3.37-5.85-3.37-10s1.12-7.56,3.37-10.05c2.17-2.48,5.13-3.72,8.87-3.72s6.71,1.46,8.82,4.39Zm-14.48,16.88c1.53,1.73,3.59,2.6,6.17,2.6s4.64-.9,6.17-2.7c1.53-1.77,2.29-4.23,2.29-7.4s-.76-5.59-2.29-7.4c-1.53-1.8-3.59-2.7-6.17-2.7s-4.6.93-6.15,2.78c-1.55,1.85-2.32,4.36-2.32,7.52s.76,5.56,2.29,7.29Z"/>
    <path class="uuid-30e0c5f7-d063-4e43-93e0-8e19f72519a2" d="m1413.35,120.25v1.43h-19.99c.2,2.86,1,5.01,2.4,6.45,1.39,1.45,3.3,2.17,5.71,2.17,3.64,0,5.97-1.63,6.99-4.9h4.23c-.71,2.65-2.04,4.75-3.98,6.3-1.94,1.55-4.39,2.32-7.34,2.32-3.64,0-6.58-1.24-8.82-3.72-2.28-2.48-3.42-5.83-3.42-10.05s1.12-7.48,3.37-10c2.21-2.52,5.13-3.77,8.77-3.77s6.73,1.31,8.87,3.93c2.14,2.62,3.21,5.9,3.21,9.84Zm-12.09-10.05c-2.14,0-3.89.67-5.25,2.01-1.36,1.34-2.21,3.27-2.55,5.79h15.5c-.2-2.31-.99-4.19-2.35-5.64-1.36-1.44-3.15-2.17-5.36-2.17Z"/>
    <path class="uuid-30e0c5f7-d063-4e43-93e0-8e19f72519a2" d="m1430.33,106.48c2.92,0,5.2.8,6.83,2.4s2.45,3.84,2.45,6.73v17.8h-4.08v-17.39c0-3.91-2.01-5.86-6.02-5.86-1.9,0-3.59.71-5.05,2.14-1.46,1.43-2.19,3.5-2.19,6.22v14.89h-4.08v-26.32h3.88v3.93c2.01-3.03,4.76-4.54,8.26-4.54Z"/>
    <path class="uuid-30e0c5f7-d063-4e43-93e0-8e19f72519a2" d="m1456.24,107.09v3.57h-5.41v17.08c0,1.5,1,2.24,3.01,2.24h2.4v3.42c-1.12.1-2.09.15-2.91.15-4.39,0-6.58-1.82-6.58-5.46v-17.44h-4.33v-3.57h4.33v-7.45h4.08v7.45h5.41Z"/>
    <path class="uuid-30e0c5f7-d063-4e43-93e0-8e19f72519a2" d="m1464.76,103.11h-4.33v-5h4.33v5Zm-.1,30.29h-4.08v-26.32h4.08v26.32Z"/>
    <path class="uuid-30e0c5f7-d063-4e43-93e0-8e19f72519a2" d="m1482.3,107.09v3.57h-5.41v17.08c0,1.5,1,2.24,3.01,2.24h2.4v3.42c-1.12.1-2.09.15-2.91.15-4.39,0-6.58-1.82-6.58-5.46v-17.44h-4.33v-3.57h4.33v-7.45h4.08v7.45h5.41Z"/>
    <path class="uuid-30e0c5f7-d063-4e43-93e0-8e19f72519a2" d="m1499.59,118.01l3.72-10.91h4.44l-11.12,30.45c-.78,2.21-1.85,3.77-3.21,4.67-1.36.9-3.15,1.35-5.35,1.35-.75,0-1.56-.05-2.45-.15v-3.42h2.4c2.35,0,3.94-1.09,4.79-3.26l.92-2.45-9.89-27.18h4.49l3.72,10.96c1.33,3.88,2.58,7.67,3.77,11.37.99-3.16,2.24-6.97,3.77-11.42Z"/>
    <path class="uuid-30e0c5f7-d063-4e43-93e0-8e19f72519a2" d="m1227.4,152.1h15.1c3.84,0,6.81,1,8.9,3.01,2.09,2.01,3.14,4.73,3.14,8.16s-1.05,6.15-3.14,8.16c-2.09,2.01-5.06,3.01-8.9,3.01h-10.81v13.97h-4.28v-36.31Zm4.28,18.46h10.81c2.52,0,4.41-.62,5.69-1.86,1.27-1.24,1.91-3.05,1.91-5.43s-.64-4.19-1.91-5.43c-1.28-1.24-3.17-1.86-5.69-1.86h-10.81v14.59Z"/>
    <path class="uuid-30e0c5f7-d063-4e43-93e0-8e19f72519a2" d="m1270.7,161.48c2.92,0,5.2.8,6.83,2.4,1.63,1.6,2.45,3.84,2.45,6.73v17.8h-4.08v-17.39c0-3.91-2.01-5.86-6.02-5.86-1.9,0-3.59.71-5.05,2.14s-2.19,3.5-2.19,6.22v14.89h-4.08v-36.31h4.08v13.62c2.01-2.82,4.69-4.23,8.06-4.23Z"/>
    <path class="uuid-30e0c5f7-d063-4e43-93e0-8e19f72519a2" d="m1306.76,185.25c-2.41,2.52-5.47,3.77-9.18,3.77s-6.77-1.26-9.18-3.77c-2.38-2.48-3.57-5.81-3.57-10s1.19-7.51,3.57-10c2.41-2.52,5.47-3.77,9.18-3.77s6.77,1.26,9.18,3.77c2.38,2.48,3.57,5.81,3.57,10s-1.19,7.51-3.57,10Zm-15.35-2.6c1.53,1.8,3.59,2.7,6.17,2.7s4.64-.9,6.17-2.7c1.53-1.77,2.29-4.23,2.29-7.39s-.76-5.68-2.29-7.45c-1.53-1.77-3.59-2.65-6.17-2.65s-4.64.88-6.17,2.65c-1.53,1.77-2.29,4.25-2.29,7.45s.76,5.63,2.29,7.39Z"/>
    <path class="uuid-30e0c5f7-d063-4e43-93e0-8e19f72519a2" d="m1325.17,162.09v3.57h-5.41v17.08c0,1.5,1,2.24,3.01,2.24h2.4v3.42c-1.12.1-2.09.15-2.91.15-4.39,0-6.58-1.82-6.58-5.46v-17.44h-4.33v-3.57h4.33v-7.45h4.08v7.45h5.41Z"/>
    <path class="uuid-30e0c5f7-d063-4e43-93e0-8e19f72519a2" d="m1349.65,185.25c-2.41,2.52-5.47,3.77-9.18,3.77s-6.77-1.26-9.18-3.77c-2.38-2.48-3.57-5.81-3.57-10s1.19-7.51,3.57-10c2.41-2.52,5.47-3.77,9.18-3.77s6.77,1.26,9.18,3.77c2.38,2.48,3.57,5.81,3.57,10s-1.19,7.51-3.57,10Zm-15.35-2.6c1.53,1.8,3.59,2.7,6.17,2.7s4.64-.9,6.17-2.7c1.53-1.77,2.29-4.23,2.29-7.39s-.76-5.68-2.29-7.45c-1.53-1.77-3.59-2.65-6.17-2.65s-4.64.88-6.17,2.65c-1.53,1.77-2.29,4.25-2.29,7.45s.76,5.63,2.29,7.39Z"/>
    <path class="uuid-30e0c5f7-d063-4e43-93e0-8e19f72519a2" d="m1378.05,165.92v-3.83h3.88v25.3c0,3.6-1.05,6.44-3.16,8.52-2.11,2.07-5.13,3.11-9.08,3.11-3.26,0-5.88-.75-7.85-2.24-1.97-1.5-3.09-3.57-3.37-6.22h4.08c.51,3.33,2.89,5,7.14,5,5.44,0,8.16-2.72,8.16-8.16v-2.55c-2.07,2.79-5.02,4.18-8.82,4.18s-6.67-1.26-8.87-3.77c-2.24-2.52-3.37-5.85-3.37-10s1.12-7.56,3.37-10.05c2.17-2.48,5.13-3.72,8.87-3.72s6.92,1.48,9.03,4.44Zm-8.52,19.43c2.58,0,4.64-.9,6.17-2.7,1.53-1.8,2.29-4.27,2.29-7.39s-.76-5.59-2.29-7.4c-1.53-1.8-3.59-2.7-6.17-2.7s-4.6.92-6.15,2.75c-1.55,1.84-2.32,4.28-2.32,7.34s.77,5.51,2.32,7.34c1.55,1.84,3.6,2.75,6.15,2.75Z"/>
    <path class="uuid-30e0c5f7-d063-4e43-93e0-8e19f72519a2" d="m1400.39,161.68c.68,0,1.14.02,1.38.05v3.93h-1.02c-2.72,0-4.84.67-6.35,2.01s-2.27,3.26-2.27,5.74v14.99h-4.08v-26.32h3.88v4.64c1.77-3.37,4.59-5.05,8.47-5.05Z"/>
    <path class="uuid-30e0c5f7-d063-4e43-93e0-8e19f72519a2" d="m1425.33,185.09h1.48v3.32c-.68.1-1.43.15-2.24.15-2.75,0-4.23-1.26-4.44-3.77-1.84,2.82-4.69,4.23-8.57,4.23-2.89,0-5.16-.67-6.81-2.01-1.65-1.34-2.47-3.24-2.47-5.69,0-4.76,3.25-7.48,9.74-8.16l3.77-.41c2.75-.31,4.13-1.51,4.13-3.62,0-1.46-.45-2.52-1.35-3.16-.9-.65-2.42-.97-4.56-.97-2.28,0-3.92.38-4.92,1.15-1,.76-1.57,2.12-1.71,4.05h-4.08c.34-5.81,3.91-8.72,10.71-8.72s9.89,2.55,9.89,7.65v14.69c0,.85.48,1.27,1.43,1.27Zm-13.57.46c2.18,0,4.08-.66,5.71-1.99,1.63-1.29,2.45-3.14,2.45-5.56v-3.11c-.75.58-1.9.95-3.47,1.12l-3.83.46c-2.21.27-3.78.78-4.72,1.53-.94.75-1.4,1.82-1.4,3.21s.44,2.42,1.33,3.19c.88.77,2.19,1.15,3.93,1.15Z"/>
    <path class="uuid-30e0c5f7-d063-4e43-93e0-8e19f72519a2" d="m1443.28,161.48c3.71,0,6.68,1.24,8.92,3.72,2.21,2.52,3.32,5.87,3.32,10.05s-1.11,7.48-3.32,10c-2.24,2.52-5.22,3.77-8.92,3.77s-6.71-1.46-8.82-4.39v13.77h-4.08v-36.31h3.88v4.08c2.11-3.13,5.12-4.69,9.03-4.69Zm-.51,23.87c2.55,0,4.6-.93,6.15-2.78,1.55-1.85,2.32-4.36,2.32-7.52s-.76-5.52-2.27-7.27c-1.51-1.75-3.58-2.63-6.2-2.63s-4.64.88-6.17,2.65c-1.53,1.77-2.29,4.25-2.29,7.45s.76,5.63,2.29,7.39c1.53,1.8,3.59,2.7,6.17,2.7Z"/>
    <path class="uuid-30e0c5f7-d063-4e43-93e0-8e19f72519a2" d="m1472.5,161.48c2.92,0,5.2.8,6.83,2.4,1.63,1.6,2.45,3.84,2.45,6.73v17.8h-4.08v-17.39c0-3.91-2.01-5.86-6.02-5.86-1.9,0-3.59.71-5.05,2.14s-2.19,3.5-2.19,6.22v14.89h-4.08v-36.31h4.08v13.62c2.01-2.82,4.69-4.23,8.06-4.23Z"/>
    <path class="uuid-30e0c5f7-d063-4e43-93e0-8e19f72519a2" d="m1499.59,173.01l3.72-10.91h4.44l-11.12,30.45c-.78,2.21-1.85,3.76-3.21,4.67-1.36.9-3.15,1.35-5.35,1.35-.75,0-1.56-.05-2.45-.15v-3.42h2.4c2.35,0,3.94-1.09,4.79-3.26l.92-2.45-9.89-27.18h4.49l3.72,10.96c1.33,3.88,2.58,7.67,3.77,11.37.99-3.16,2.24-6.97,3.77-11.42Z"/>
    <path class="uuid-30e0c5f7-d063-4e43-93e0-8e19f72519a2" d="m1375.91,244.22c-4.73,0-8.42-1.07-11.07-3.21-2.65-2.14-4-5.34-4.03-9.59h4.44c.1,5.95,3.65,8.93,10.66,8.93,2.96,0,5.23-.58,6.81-1.73,1.58-1.16,2.37-2.84,2.37-5.05,0-1.73-.65-3.09-1.96-4.05-1.31-.97-3.6-1.81-6.86-2.52l-3.21-.71c-3.67-.85-6.43-2.08-8.26-3.7-1.84-1.61-2.75-3.88-2.75-6.81s1.12-5.19,3.37-6.91,5.25-2.58,9.03-2.58c2.55,0,4.77.31,6.66.92,1.89.61,3.36,1.47,4.41,2.58,1.05,1.11,1.83,2.3,2.32,3.6.49,1.29.76,2.72.79,4.28h-4.39c-.2-2.58-1.05-4.48-2.53-5.69-1.48-1.21-3.9-1.81-7.27-1.81-2.55,0-4.51.49-5.89,1.48-1.38.99-2.07,2.36-2.07,4.13s.59,3.14,1.78,4.13c1.16.99,3.4,1.85,6.73,2.6l3.21.71c4.01.88,6.9,2.15,8.67,3.8,1.77,1.65,2.65,3.83,2.65,6.55,0,3.3-1.21,5.9-3.62,7.8-2.42,1.9-5.75,2.86-10,2.86Z"/>
    <path class="uuid-30e0c5f7-d063-4e43-93e0-8e19f72519a2" d="m1404.88,217.09v3.57h-5.41v17.08c0,1.5,1,2.24,3.01,2.24h2.4v3.42c-1.12.1-2.09.15-2.91.15-4.39,0-6.58-1.82-6.58-5.46v-17.44h-4.33v-3.57h4.33v-7.45h4.08v7.45h5.41Z"/>
    <path class="uuid-30e0c5f7-d063-4e43-93e0-8e19f72519a2" d="m1422.17,228.01l3.72-10.91h4.44l-11.12,30.45c-.78,2.21-1.85,3.77-3.21,4.67-1.36.9-3.15,1.35-5.35,1.35-.75,0-1.56-.05-2.45-.15v-3.42h2.4c2.35,0,3.94-1.09,4.79-3.26l.92-2.45-9.89-27.18h4.49l3.72,10.97c1.33,3.88,2.58,7.67,3.77,11.37.99-3.16,2.24-6.97,3.77-11.42Z"/>
    <path class="uuid-30e0c5f7-d063-4e43-93e0-8e19f72519a2" d="m1437.21,243.41h-4.08v-36.31h4.08v36.31Z"/>
    <path class="uuid-30e0c5f7-d063-4e43-93e0-8e19f72519a2" d="m1447.51,213.11h-4.33v-5h4.33v5Zm-.1,30.29h-4.08v-26.32h4.08v26.32Z"/>
    <path class="uuid-30e0c5f7-d063-4e43-93e0-8e19f72519a2" d="m1465.67,216.48c2.92,0,5.2.8,6.83,2.4,1.63,1.6,2.45,3.84,2.45,6.73v17.8h-4.08v-17.39c0-3.91-2.01-5.87-6.02-5.87-1.9,0-3.59.71-5.05,2.14-1.46,1.43-2.19,3.5-2.19,6.22v14.89h-4.08v-26.32h3.88v3.93c2.01-3.03,4.76-4.54,8.26-4.54Z"/>
    <path class="uuid-30e0c5f7-d063-4e43-93e0-8e19f72519a2" d="m1501.06,220.92v-3.83h3.88v25.3c0,3.6-1.05,6.44-3.16,8.52-2.11,2.07-5.13,3.11-9.08,3.11-3.26,0-5.88-.75-7.85-2.24-1.97-1.5-3.09-3.57-3.37-6.22h4.08c.51,3.33,2.89,5,7.14,5,5.44,0,8.16-2.72,8.16-8.16v-2.55c-2.07,2.79-5.02,4.18-8.82,4.18s-6.67-1.26-8.87-3.77c-2.24-2.52-3.37-5.85-3.37-10s1.12-7.56,3.37-10.05c2.17-2.48,5.13-3.72,8.87-3.72s6.92,1.48,9.03,4.44Zm-8.52,19.43c2.58,0,4.64-.9,6.17-2.7s2.29-4.27,2.29-7.4-.76-5.59-2.29-7.39c-1.53-1.8-3.59-2.7-6.17-2.7s-4.6.92-6.15,2.75c-1.55,1.84-2.32,4.28-2.32,7.34s.77,5.51,2.32,7.34c1.55,1.84,3.6,2.75,6.15,2.75Z"/>
  </g>
  <g>
    <path class="uuid-30e0c5f7-d063-4e43-93e0-8e19f72519a2" d="m1885.68,140.32v2.04h-21.36v-2.52h15.93v-4.86h1.98l.03.48c.1,1.52.4,2.65.9,3.39.5.74,1.34,1.23,2.52,1.47Z"/>
    <path class="uuid-30e0c5f7-d063-4e43-93e0-8e19f72519a2" d="m1884.42,157.72c-.94,1.16-2.18,1.98-3.73,2.46-1.55.48-3.5.72-5.83.72-3.52,0-6.28-.67-8.27-2.02-1.99-1.35-2.98-3.28-2.98-5.78,0-1.92.51-3.51,1.53-4.77,1.02-1.26,2.43-2.05,4.23-2.37v2.46c-1.12.24-1.98.76-2.58,1.57-.6.81-.9,1.85-.9,3.11,0,3.46,2.85,5.22,8.55,5.28-.86-.58-1.56-1.38-2.1-2.39s-.81-2.02-.81-3.04c0-2.24.68-4.01,2.04-5.31,1.36-1.32,3.08-1.98,5.16-1.98s3.82.67,5.16,2.01c1.36,1.32,2.04,3.1,2.04,5.34,0,1.86-.5,3.43-1.5,4.71Zm-9.24-8.1c-.92.86-1.38,1.99-1.38,3.39s.46,2.52,1.38,3.42c.9.9,2.08,1.35,3.54,1.35s2.63-.45,3.57-1.35c.9-.9,1.35-2.04,1.35-3.42s-.46-2.53-1.38-3.39c-.94-.88-2.12-1.32-3.54-1.32s-2.6.44-3.54,1.32Z"/>
    <path class="uuid-30e0c5f7-d063-4e43-93e0-8e19f72519a2" d="m1871.7,172.27v-8.67h2.16v8.67h-2.16Z"/>
    <path class="uuid-30e0c5f7-d063-4e43-93e0-8e19f72519a2" d="m1866.72,188.5c-1.92-1.3-2.88-3.23-2.88-5.79s.96-4.51,2.88-5.79c1.94-1.3,4.7-1.95,8.28-1.95s6.34.65,8.28,1.95c1.92,1.28,2.88,3.21,2.88,5.79s-.96,4.49-2.88,5.79c-1.94,1.3-4.7,1.95-8.28,1.95s-6.34-.65-8.28-1.95Zm17.16-5.79c0-3.4-2.96-5.1-8.88-5.1s-8.88,1.7-8.88,5.1,2.96,5.1,8.88,5.1,8.88-1.7,8.88-5.1Z"/>
    <path class="uuid-30e0c5f7-d063-4e43-93e0-8e19f72519a2" d="m1875.78,204.37c-.48,1.24-1.18,2.21-2.12,2.91-.93.7-2.02,1.05-3.29,1.05-2,0-3.59-.71-4.77-2.13-1.18-1.42-1.77-3.29-1.77-5.61s.59-4.19,1.77-5.61c1.18-1.42,2.77-2.13,4.77-2.13,1.26,0,2.36.35,3.29,1.05.93.7,1.64,1.67,2.12,2.91.9-2.06,2.41-3.09,4.53-3.09,1.82,0,3.26.65,4.32,1.95,1.02,1.3,1.53,2.94,1.53,4.92s-.51,3.62-1.53,4.92c-1.06,1.3-2.5,1.95-4.32,1.95-2.12,0-3.63-1.03-4.53-3.09Zm-8.52-7.5c-.76.94-1.14,2.18-1.14,3.72s.38,2.78,1.14,3.72c.74.92,1.78,1.38,3.12,1.38s2.41-.46,3.15-1.38c.74-.92,1.11-2.16,1.11-3.72s-.37-2.8-1.11-3.72c-.74-.92-1.79-1.38-3.15-1.38s-2.38.46-3.12,1.38Zm15.69,6.87c.62-.8.93-1.85.93-3.15s-.31-2.35-.93-3.15c-.64-.82-1.52-1.23-2.64-1.23s-2,.41-2.64,1.23c-.62.8-.93,1.85-.93,3.15s.31,2.35.93,3.15c.64.82,1.52,1.23,2.64,1.23s2-.41,2.64-1.23Z"/>
    <path class="uuid-30e0c5f7-d063-4e43-93e0-8e19f72519a2" d="m1871.7,219.25v-8.67h2.16v8.67h-2.16Z"/>
    <path class="uuid-30e0c5f7-d063-4e43-93e0-8e19f72519a2" d="m1866.72,235.48c-1.92-1.3-2.88-3.23-2.88-5.79s.96-4.51,2.88-5.79c1.94-1.3,4.7-1.95,8.28-1.95s6.34.65,8.28,1.95c1.92,1.28,2.88,3.21,2.88,5.79s-.96,4.49-2.88,5.79c-1.94,1.3-4.7,1.95-8.28,1.95s-6.34-.65-8.28-1.95Zm17.16-5.79c0-3.4-2.96-5.1-8.88-5.1s-8.88,1.7-8.88,5.1,2.96,5.1,8.88,5.1,8.88-1.7,8.88-5.1Z"/>
    <path class="uuid-30e0c5f7-d063-4e43-93e0-8e19f72519a2" d="m1883.4,237.88h2.28v13.71h-1.98c-5.52-4.92-11.98-7.48-19.38-7.68v-2.61c3.7.1,7.08.75,10.16,1.94,3.07,1.19,6.04,3,8.92,5.45v-10.8Z"/>
  </g>
</svg>