<?xml version="1.0" encoding="utf-8"?>
<!-- Generator: Adobe Illustrator 28.1.0, SVG Export Plug-In . SVG Version: 6.00 Build 0)  -->
<svg version="1.1" id="a" xmlns="http://www.w3.org/2000/svg" xmlns:xlink="http://www.w3.org/1999/xlink" x="0px" y="0px"
	 viewBox="0 0 350 350" style="enable-background:new 0 0 350 350;" xml:space="preserve">
<path d="M296.4,278.7c4.9,4.9,4.9,12.7,0,17.6c-2.4,2.4-5.6,3.6-8.8,3.6s-6.4-1.2-8.8-3.6L175,192.6L71.3,296.4
	c-2.4,2.4-5.6,3.6-8.8,3.6c-3.2,0-6.4-1.2-8.8-3.6c-4.9-4.9-4.9-12.8,0-17.6L157.4,175L53.6,71.3c-4.9-4.9-4.9-12.8,0-17.6
	c4.9-4.9,12.7-4.9,17.6,0L175,157.4L278.7,53.6c4.9-4.9,12.7-4.9,17.6,0c4.9,4.9,4.9,12.7,0,17.6L192.6,175L296.4,278.7L296.4,278.7
	z"/>
</svg>
