<?xml version="1.0" encoding="UTF-8"?>
<svg id="a" data-name="Layer 1" xmlns="http://www.w3.org/2000/svg" viewBox="0 0 629.71 629.71">
  <path d="M314.86,29.36c76.08,0,147.6,29.69,201.4,83.6,53.82,53.93,83.45,125.63,83.45,201.9s-29.64,147.97-83.45,201.9c-53.8,53.91-125.33,83.6-201.4,83.6s-147.6-29.69-201.4-83.6c-53.82-53.93-83.45-125.63-83.45-201.9s29.64-147.97,83.45-201.9c53.8-53.91,125.33-83.6,201.4-83.6M314.86-.64c-84.1,0-163.17,32.82-222.64,92.41C32.75,151.35,0,230.58,0,314.86s32.75,163.5,92.22,223.09c59.47,59.59,138.54,92.41,222.64,92.41s163.17-32.82,222.64-92.41c59.47-59.59,92.22-138.82,92.22-223.09s-32.75-163.5-92.22-223.09C478.02,32.17,398.96-.64,314.86-.64h0Z" style="stroke-width: 0px;"/>
  <g>
    <path d="M422.33,251.5h-214.94c-13.25,0-24-10.75-24-24s10.75-24,24-24h214.94c13.25,0,24,10.75,24,24s-10.75,24-24,24Z" style="stroke-width: 0px;"/>
    <path d="M422.33,338.86h-214.94c-13.25,0-24-10.75-24-24s10.75-24,24-24h214.94c13.25,0,24,10.75,24,24s-10.75,24-24,24Z" style="stroke-width: 0px;"/>
    <path d="M422.33,426.21h-214.94c-13.25,0-24-10.74-24-24s10.75-24,24-24h214.94c13.25,0,24,10.75,24,24s-10.75,24-24,24Z" style="stroke-width: 0px;"/>
  </g>
</svg>