<?xml version="1.0" encoding="UTF-8"?>
<svg id="Layer_1" data-name="Layer 1" xmlns="http://www.w3.org/2000/svg" viewBox="0 0 446.24 613.43">
  <defs>
    <style>
      .cls-1 {
        opacity: .85;
      }

      .cls-2 {
        opacity: .5;
      }

      .cls-3 {
        opacity: .9;
      }

      .cls-4 {
        opacity: .2;
      }

      .cls-5 {
        opacity: .65;
      }

      .cls-6 {
        opacity: .05;
      }

      .cls-7 {
        opacity: .35;
      }

      .cls-8 {
        opacity: .8;
      }

      .cls-9 {
        opacity: .15;
      }

      .cls-10 {
        opacity: .45;
      }

      .cls-11 {
        opacity: .4;
      }

      .cls-12 {
        opacity: .75;
      }

      .cls-13 {
        opacity: .7;
      }

      .cls-14 {
        opacity: .55;
      }

      .cls-15 {
        fill: #231f20;
        stroke-width: 0px;
      }

      .cls-16 {
        opacity: .1;
      }

      .cls-17 {
        opacity: .6;
      }

      .cls-18 {
        opacity: .25;
      }

      .cls-19 {
        opacity: .3;
      }
    </style>
  </defs>
  <g class="cls-3">
    <path class="cls-15" d="m130.51,562.35l24.24-59.91h16.77v108.55h-12.5v-34.76c0-22.87.15-41.31.46-55.34-2.44,6.71-5.64,14.94-9.6,24.7l-26.83,65.4h-10.98l-26.98-65.4c-3.96-9.76-7.17-17.99-9.6-24.7.3,14.03.46,32.47.46,55.34v34.76h-12.5v-108.55h16.77l25.15,61.74c3.76,9.25,7.88,19.67,12.35,31.25,6.2-16.46,10.47-27.49,12.81-33.08Z"/>
    <path class="cls-15" d="m244.54,527.75l15.86-25.31h14.48l-41.47,64.95v43.6h-12.81v-43.6l-41.47-64.95h14.64l16.01,25.46c6.91,10.77,12.7,20.12,17.38,28.05,6.5-10.98,12.3-20.38,17.38-28.2Z"/>
    <path class="cls-15" d="m295.31,502.44v96.96h54.58v11.59h-67.38v-108.55h12.81Z"/>
    <path class="cls-15" d="m400.04,566.77v-11.59h46.19v55.8h-10.52l-2.74-14.64c-8.03,11.38-19.87,17.08-35.52,17.08s-27.95-5.23-37.2-15.7c-9.45-10.37-14.18-24.04-14.18-41.01s4.67-30.59,14.03-41.16c9.25-10.37,21.75-15.55,37.5-15.55,12.91,0,23.58,3.46,32.02,10.37,8.43,6.91,13.57,16.11,15.4,27.59h-13.26c-1.32-8.03-5.18-14.43-11.59-19.21-6.2-4.67-13.72-7.01-22.56-7.01-11.59,0-20.84,4.07-27.75,12.2-6.91,8.13-10.37,19.06-10.37,32.78s3.45,24.65,10.37,32.78c6.91,8.13,16.16,12.2,27.75,12.2,10.26,0,19-3.3,26.22-9.91,7.21-6.61,10.82-14.94,10.82-25h-34.61Z"/>
  </g>
  <g class="cls-1">
    <path class="cls-15" d="m130.51,522.35l24.24-59.91h16.77v108.55h-12.5v-34.76c0-22.87.15-41.31.46-55.34-2.44,6.71-5.64,14.94-9.6,24.7l-26.83,65.4h-10.98l-26.98-65.4c-3.96-9.76-7.17-17.99-9.6-24.7.3,14.03.46,32.47.46,55.34v34.76h-12.5v-108.55h16.77l25.15,61.74c3.76,9.25,7.88,19.67,12.35,31.25,6.2-16.46,10.47-27.49,12.81-33.08Z"/>
    <path class="cls-15" d="m244.54,487.75l15.86-25.31h14.48l-41.47,64.95v43.6h-12.81v-43.6l-41.47-64.95h14.64l16.01,25.46c6.91,10.77,12.7,20.12,17.38,28.05,6.5-10.98,12.3-20.38,17.38-28.2Z"/>
    <path class="cls-15" d="m295.31,462.44v96.96h54.58v11.59h-67.38v-108.55h12.81Z"/>
    <path class="cls-15" d="m400.04,526.77v-11.59h46.19v55.8h-10.52l-2.74-14.64c-8.03,11.38-19.87,17.08-35.52,17.08s-27.95-5.23-37.2-15.7c-9.45-10.37-14.18-24.04-14.18-41.01s4.67-30.59,14.03-41.16c9.25-10.37,21.75-15.55,37.5-15.55,12.91,0,23.58,3.46,32.02,10.37,8.43,6.91,13.57,16.11,15.4,27.59h-13.26c-1.32-8.03-5.18-14.43-11.59-19.21-6.2-4.67-13.72-7.01-22.56-7.01-11.59,0-20.84,4.07-27.75,12.2-6.91,8.13-10.37,19.06-10.37,32.78s3.45,24.65,10.37,32.78c6.91,8.13,16.16,12.2,27.75,12.2,10.26,0,19-3.3,26.22-9.91,7.21-6.61,10.82-14.94,10.82-25h-34.61Z"/>
  </g>
  <g class="cls-8">
    <path class="cls-15" d="m130.51,482.35l24.24-59.91h16.77v108.55h-12.5v-34.76c0-22.87.15-41.31.46-55.34-2.44,6.71-5.64,14.94-9.6,24.7l-26.83,65.4h-10.98l-26.98-65.4c-3.96-9.76-7.17-17.99-9.6-24.7.3,14.03.46,32.47.46,55.34v34.76h-12.5v-108.55h16.77l25.15,61.74c3.76,9.25,7.88,19.67,12.35,31.25,6.2-16.46,10.47-27.49,12.81-33.08Z"/>
    <path class="cls-15" d="m244.54,447.75l15.86-25.31h14.48l-41.47,64.95v43.6h-12.81v-43.6l-41.47-64.95h14.64l16.01,25.46c6.91,10.77,12.7,20.12,17.38,28.05,6.5-10.98,12.3-20.38,17.38-28.2Z"/>
    <path class="cls-15" d="m295.31,422.44v96.96h54.58v11.59h-67.38v-108.55h12.81Z"/>
    <path class="cls-15" d="m400.04,486.77v-11.59h46.19v55.8h-10.52l-2.74-14.64c-8.03,11.38-19.87,17.08-35.52,17.08s-27.95-5.23-37.2-15.7c-9.45-10.37-14.18-24.04-14.18-41.01s4.67-30.59,14.03-41.16c9.25-10.37,21.75-15.55,37.5-15.55,12.91,0,23.58,3.46,32.02,10.37,8.43,6.91,13.57,16.11,15.4,27.59h-13.26c-1.32-8.03-5.18-14.43-11.59-19.21-6.2-4.67-13.72-7.01-22.56-7.01-11.59,0-20.84,4.07-27.75,12.2-6.91,8.13-10.37,19.06-10.37,32.78s3.45,24.65,10.37,32.78c6.91,8.13,16.16,12.2,27.75,12.2,10.26,0,19-3.3,26.22-9.91,7.21-6.61,10.82-14.94,10.82-25h-34.61Z"/>
  </g>
  <g class="cls-12">
    <path class="cls-15" d="m130.51,442.35l24.24-59.91h16.77v108.55h-12.5v-34.76c0-22.87.15-41.31.46-55.34-2.44,6.71-5.64,14.94-9.6,24.7l-26.83,65.4h-10.98l-26.98-65.4c-3.96-9.76-7.17-17.99-9.6-24.7.3,14.03.46,32.47.46,55.34v34.76h-12.5v-108.55h16.77l25.15,61.74c3.76,9.25,7.88,19.67,12.35,31.25,6.2-16.46,10.47-27.49,12.81-33.08Z"/>
    <path class="cls-15" d="m244.54,407.75l15.86-25.31h14.48l-41.47,64.95v43.6h-12.81v-43.6l-41.47-64.95h14.64l16.01,25.46c6.91,10.77,12.7,20.12,17.38,28.05,6.5-10.98,12.3-20.38,17.38-28.2Z"/>
    <path class="cls-15" d="m295.31,382.44v96.96h54.58v11.59h-67.38v-108.55h12.81Z"/>
    <path class="cls-15" d="m400.04,446.77v-11.59h46.19v55.8h-10.52l-2.74-14.64c-8.03,11.38-19.87,17.08-35.52,17.08s-27.95-5.23-37.2-15.7c-9.45-10.37-14.18-24.04-14.18-41.01s4.67-30.59,14.03-41.16c9.25-10.37,21.75-15.55,37.5-15.55,12.91,0,23.58,3.46,32.02,10.37,8.43,6.91,13.57,16.11,15.4,27.59h-13.26c-1.32-8.03-5.18-14.43-11.59-19.21-6.2-4.67-13.72-7.01-22.56-7.01-11.59,0-20.84,4.07-27.75,12.2-6.91,8.13-10.37,19.06-10.37,32.78s3.45,24.65,10.37,32.78c6.91,8.13,16.16,12.2,27.75,12.2,10.26,0,19-3.3,26.22-9.91,7.21-6.61,10.82-14.94,10.82-25h-34.61Z"/>
  </g>
  <g class="cls-13">
    <path class="cls-15" d="m130.51,412.35l24.24-59.91h16.77v108.55h-12.5v-34.76c0-22.87.15-41.31.46-55.34-2.44,6.71-5.64,14.94-9.6,24.7l-26.83,65.4h-10.98l-26.98-65.4c-3.96-9.76-7.17-17.99-9.6-24.7.3,14.03.46,32.47.46,55.34v34.76h-12.5v-108.55h16.77l25.15,61.74c3.76,9.25,7.88,19.67,12.35,31.25,6.2-16.46,10.47-27.49,12.81-33.08Z"/>
    <path class="cls-15" d="m244.54,377.75l15.86-25.31h14.48l-41.47,64.95v43.6h-12.81v-43.6l-41.47-64.95h14.64l16.01,25.46c6.91,10.77,12.7,20.12,17.38,28.05,6.5-10.98,12.3-20.38,17.38-28.2Z"/>
    <path class="cls-15" d="m295.31,352.44v96.96h54.58v11.59h-67.38v-108.55h12.81Z"/>
    <path class="cls-15" d="m400.04,416.77v-11.59h46.19v55.8h-10.52l-2.74-14.64c-8.03,11.38-19.87,17.08-35.52,17.08s-27.95-5.23-37.2-15.7c-9.45-10.37-14.18-24.04-14.18-41.01s4.67-30.59,14.03-41.16c9.25-10.37,21.75-15.55,37.5-15.55,12.91,0,23.58,3.46,32.02,10.37,8.43,6.91,13.57,16.11,15.4,27.59h-13.26c-1.32-8.03-5.18-14.43-11.59-19.21-6.2-4.67-13.72-7.01-22.56-7.01-11.59,0-20.84,4.07-27.75,12.2-6.91,8.13-10.37,19.06-10.37,32.78s3.45,24.65,10.37,32.78c6.91,8.13,16.16,12.2,27.75,12.2,10.26,0,19-3.3,26.22-9.91,7.21-6.61,10.82-14.94,10.82-25h-34.61Z"/>
  </g>
  <g class="cls-5">
    <path class="cls-15" d="m130.51,382.35l24.24-59.91h16.77v108.55h-12.5v-34.76c0-22.87.15-41.31.46-55.34-2.44,6.71-5.64,14.94-9.6,24.7l-26.83,65.4h-10.98l-26.98-65.4c-3.96-9.76-7.17-17.99-9.6-24.7.3,14.03.46,32.47.46,55.34v34.76h-12.5v-108.55h16.77l25.15,61.74c3.76,9.25,7.88,19.67,12.35,31.25,6.2-16.46,10.47-27.49,12.81-33.08Z"/>
    <path class="cls-15" d="m244.54,347.75l15.86-25.31h14.48l-41.47,64.95v43.6h-12.81v-43.6l-41.47-64.95h14.64l16.01,25.46c6.91,10.77,12.7,20.12,17.38,28.05,6.5-10.98,12.3-20.38,17.38-28.2Z"/>
    <path class="cls-15" d="m295.31,322.44v96.96h54.58v11.59h-67.38v-108.55h12.81Z"/>
    <path class="cls-15" d="m400.04,386.77v-11.59h46.19v55.8h-10.52l-2.74-14.64c-8.03,11.38-19.87,17.08-35.52,17.08s-27.95-5.23-37.2-15.7c-9.45-10.37-14.18-24.04-14.18-41.01s4.67-30.59,14.03-41.16c9.25-10.37,21.75-15.55,37.5-15.55,12.91,0,23.58,3.46,32.02,10.37,8.43,6.91,13.57,16.11,15.4,27.59h-13.26c-1.32-8.03-5.18-14.43-11.59-19.21-6.2-4.67-13.72-7.01-22.56-7.01-11.59,0-20.84,4.07-27.75,12.2-6.91,8.13-10.37,19.06-10.37,32.78s3.45,24.65,10.37,32.78c6.91,8.13,16.16,12.2,27.75,12.2,10.26,0,19-3.3,26.22-9.91,7.21-6.61,10.82-14.94,10.82-25h-34.61Z"/>
  </g>
  <g class="cls-17">
    <path class="cls-15" d="m130.51,362.35l24.24-59.91h16.77v108.55h-12.5v-34.76c0-22.87.15-41.31.46-55.34-2.44,6.71-5.64,14.94-9.6,24.7l-26.83,65.4h-10.98l-26.98-65.4c-3.96-9.76-7.17-17.99-9.6-24.7.3,14.03.46,32.47.46,55.34v34.76h-12.5v-108.55h16.77l25.15,61.74c3.76,9.25,7.88,19.67,12.35,31.25,6.2-16.46,10.47-27.49,12.81-33.08Z"/>
    <path class="cls-15" d="m244.54,327.75l15.86-25.31h14.48l-41.47,64.95v43.6h-12.81v-43.6l-41.47-64.95h14.64l16.01,25.46c6.91,10.77,12.7,20.12,17.38,28.05,6.5-10.98,12.3-20.38,17.38-28.2Z"/>
    <path class="cls-15" d="m295.31,302.44v96.96h54.58v11.59h-67.38v-108.55h12.81Z"/>
    <path class="cls-15" d="m400.04,366.77v-11.59h46.19v55.8h-10.52l-2.74-14.64c-8.03,11.38-19.87,17.08-35.52,17.08s-27.95-5.23-37.2-15.7c-9.45-10.37-14.18-24.04-14.18-41.01s4.67-30.59,14.03-41.16c9.25-10.37,21.75-15.55,37.5-15.55,12.91,0,23.58,3.46,32.02,10.37,8.43,6.91,13.57,16.11,15.4,27.59h-13.26c-1.32-8.03-5.18-14.43-11.59-19.21-6.2-4.67-13.72-7.01-22.56-7.01-11.59,0-20.84,4.07-27.75,12.2-6.91,8.13-10.37,19.06-10.37,32.78s3.45,24.65,10.37,32.78c6.91,8.13,16.16,12.2,27.75,12.2,10.26,0,19-3.3,26.22-9.91,7.21-6.61,10.82-14.94,10.82-25h-34.61Z"/>
  </g>
  <g class="cls-14">
    <path class="cls-15" d="m130.51,342.35l24.24-59.91h16.77v108.55h-12.5v-34.76c0-22.87.15-41.31.46-55.34-2.44,6.71-5.64,14.94-9.6,24.7l-26.83,65.4h-10.98l-26.98-65.4c-3.96-9.76-7.17-17.99-9.6-24.7.3,14.03.46,32.47.46,55.34v34.76h-12.5v-108.55h16.77l25.15,61.74c3.76,9.25,7.88,19.67,12.35,31.25,6.2-16.46,10.47-27.49,12.81-33.08Z"/>
    <path class="cls-15" d="m244.54,307.75l15.86-25.31h14.48l-41.47,64.95v43.6h-12.81v-43.6l-41.47-64.95h14.64l16.01,25.46c6.91,10.77,12.7,20.12,17.38,28.05,6.5-10.98,12.3-20.38,17.38-28.2Z"/>
    <path class="cls-15" d="m295.31,282.44v96.96h54.58v11.59h-67.38v-108.55h12.81Z"/>
    <path class="cls-15" d="m400.04,346.77v-11.59h46.19v55.8h-10.52l-2.74-14.64c-8.03,11.38-19.87,17.08-35.52,17.08s-27.95-5.23-37.2-15.7c-9.45-10.37-14.18-24.04-14.18-41.01s4.67-30.59,14.03-41.16c9.25-10.37,21.75-15.55,37.5-15.55,12.91,0,23.58,3.46,32.02,10.37,8.43,6.91,13.57,16.11,15.4,27.59h-13.26c-1.32-8.03-5.18-14.43-11.59-19.21-6.2-4.67-13.72-7.01-22.56-7.01-11.59,0-20.84,4.07-27.75,12.2-6.91,8.13-10.37,19.06-10.37,32.78s3.45,24.65,10.37,32.78c6.91,8.13,16.16,12.2,27.75,12.2,10.26,0,19-3.3,26.22-9.91,7.21-6.61,10.82-14.94,10.82-25h-34.61Z"/>
  </g>
  <g class="cls-2">
    <path class="cls-15" d="m130.51,322.35l24.24-59.91h16.77v108.55h-12.5v-34.76c0-22.87.15-41.31.46-55.34-2.44,6.71-5.64,14.94-9.6,24.7l-26.83,65.4h-10.98l-26.98-65.4c-3.96-9.76-7.17-17.99-9.6-24.7.3,14.03.46,32.47.46,55.34v34.76h-12.5v-108.55h16.77l25.15,61.74c3.76,9.25,7.88,19.67,12.35,31.25,6.2-16.46,10.47-27.49,12.81-33.08Z"/>
    <path class="cls-15" d="m244.54,287.75l15.86-25.31h14.48l-41.47,64.95v43.6h-12.81v-43.6l-41.47-64.95h14.64l16.01,25.46c6.91,10.77,12.7,20.12,17.38,28.05,6.5-10.98,12.3-20.38,17.38-28.2Z"/>
    <path class="cls-15" d="m295.31,262.44v96.96h54.58v11.59h-67.38v-108.55h12.81Z"/>
    <path class="cls-15" d="m400.04,326.77v-11.59h46.19v55.8h-10.52l-2.74-14.64c-8.03,11.38-19.87,17.08-35.52,17.08s-27.95-5.23-37.2-15.7c-9.45-10.37-14.18-24.04-14.18-41.01s4.67-30.59,14.03-41.16c9.25-10.37,21.75-15.55,37.5-15.55,12.91,0,23.58,3.46,32.02,10.37,8.43,6.91,13.57,16.11,15.4,27.59h-13.26c-1.32-8.03-5.18-14.43-11.59-19.21-6.2-4.67-13.72-7.01-22.56-7.01-11.59,0-20.84,4.07-27.75,12.2-6.91,8.13-10.37,19.06-10.37,32.78s3.45,24.65,10.37,32.78c6.91,8.13,16.16,12.2,27.75,12.2,10.26,0,19-3.3,26.22-9.91,7.21-6.61,10.82-14.94,10.82-25h-34.61Z"/>
  </g>
  <g class="cls-10">
    <path class="cls-15" d="m130.51,302.35l24.24-59.91h16.77v108.55h-12.5v-34.76c0-22.87.15-41.31.46-55.34-2.44,6.71-5.64,14.94-9.6,24.7l-26.83,65.4h-10.98l-26.98-65.4c-3.96-9.76-7.17-17.99-9.6-24.7.3,14.03.46,32.47.46,55.34v34.76h-12.5v-108.55h16.77l25.15,61.74c3.76,9.25,7.88,19.67,12.35,31.25,6.2-16.46,10.47-27.49,12.81-33.08Z"/>
    <path class="cls-15" d="m244.54,267.75l15.86-25.31h14.48l-41.47,64.95v43.6h-12.81v-43.6l-41.47-64.95h14.64l16.01,25.46c6.91,10.77,12.7,20.12,17.38,28.05,6.5-10.98,12.3-20.38,17.38-28.2Z"/>
    <path class="cls-15" d="m295.31,242.44v96.96h54.58v11.59h-67.38v-108.55h12.81Z"/>
    <path class="cls-15" d="m400.04,306.77v-11.59h46.19v55.8h-10.52l-2.74-14.64c-8.03,11.38-19.87,17.08-35.52,17.08s-27.95-5.23-37.2-15.7c-9.45-10.37-14.18-24.04-14.18-41.01s4.67-30.59,14.03-41.16c9.25-10.37,21.75-15.55,37.5-15.55,12.91,0,23.58,3.46,32.02,10.37,8.43,6.91,13.57,16.11,15.4,27.59h-13.26c-1.32-8.03-5.18-14.43-11.59-19.21-6.2-4.67-13.72-7.01-22.56-7.01-11.59,0-20.84,4.07-27.75,12.2-6.91,8.13-10.37,19.06-10.37,32.78s3.45,24.65,10.37,32.78c6.91,8.13,16.16,12.2,27.75,12.2,10.26,0,19-3.3,26.22-9.91,7.21-6.61,10.82-14.94,10.82-25h-34.61Z"/>
  </g>
  <g class="cls-11">
    <path class="cls-15" d="m130.51,282.35l24.24-59.91h16.77v108.55h-12.5v-34.76c0-22.87.15-41.31.46-55.34-2.44,6.71-5.64,14.94-9.6,24.7l-26.83,65.4h-10.98l-26.98-65.4c-3.96-9.76-7.17-17.99-9.6-24.7.3,14.03.46,32.47.46,55.34v34.76h-12.5v-108.55h16.77l25.15,61.74c3.76,9.25,7.88,19.67,12.35,31.25,6.2-16.46,10.47-27.49,12.81-33.08Z"/>
    <path class="cls-15" d="m244.54,247.75l15.86-25.31h14.48l-41.47,64.95v43.6h-12.81v-43.6l-41.47-64.95h14.64l16.01,25.46c6.91,10.77,12.7,20.12,17.38,28.05,6.5-10.98,12.3-20.38,17.38-28.2Z"/>
    <path class="cls-15" d="m295.31,222.44v96.96h54.58v11.59h-67.38v-108.55h12.81Z"/>
    <path class="cls-15" d="m400.04,286.77v-11.59h46.19v55.8h-10.52l-2.74-14.64c-8.03,11.38-19.87,17.08-35.52,17.08s-27.95-5.23-37.2-15.7c-9.45-10.37-14.18-24.04-14.18-41.01s4.67-30.59,14.03-41.16c9.25-10.37,21.75-15.55,37.5-15.55,12.91,0,23.58,3.46,32.02,10.37,8.43,6.91,13.57,16.11,15.4,27.59h-13.26c-1.32-8.03-5.18-14.43-11.59-19.21-6.2-4.67-13.72-7.01-22.56-7.01-11.59,0-20.84,4.07-27.75,12.2-6.91,8.13-10.37,19.06-10.37,32.78s3.45,24.65,10.37,32.78c6.91,8.13,16.16,12.2,27.75,12.2,10.26,0,19-3.3,26.22-9.91,7.21-6.61,10.82-14.94,10.82-25h-34.61Z"/>
  </g>
  <g class="cls-7">
    <path class="cls-15" d="m130.51,262.35l24.24-59.91h16.77v108.55h-12.5v-34.76c0-22.87.15-41.31.46-55.34-2.44,6.71-5.64,14.94-9.6,24.7l-26.83,65.4h-10.98l-26.98-65.4c-3.96-9.76-7.17-17.99-9.6-24.7.3,14.03.46,32.47.46,55.34v34.76h-12.5v-108.55h16.77l25.15,61.74c3.76,9.25,7.88,19.67,12.35,31.25,6.2-16.46,10.47-27.49,12.81-33.08Z"/>
    <path class="cls-15" d="m244.54,227.75l15.86-25.31h14.48l-41.47,64.95v43.6h-12.81v-43.6l-41.47-64.95h14.64l16.01,25.46c6.91,10.77,12.7,20.12,17.38,28.05,6.5-10.98,12.3-20.38,17.38-28.2Z"/>
    <path class="cls-15" d="m295.31,202.44v96.96h54.58v11.59h-67.38v-108.55h12.81Z"/>
    <path class="cls-15" d="m400.04,266.77v-11.59h46.19v55.8h-10.52l-2.74-14.64c-8.03,11.38-19.87,17.08-35.52,17.08s-27.95-5.23-37.2-15.7c-9.45-10.37-14.18-24.04-14.18-41.01s4.67-30.59,14.03-41.16c9.25-10.37,21.75-15.55,37.5-15.55,12.91,0,23.58,3.46,32.02,10.37,8.43,6.91,13.57,16.11,15.4,27.59h-13.26c-1.32-8.03-5.18-14.43-11.59-19.21-6.2-4.67-13.72-7.01-22.56-7.01-11.59,0-20.84,4.07-27.75,12.2-6.91,8.13-10.37,19.06-10.37,32.78s3.45,24.65,10.37,32.78c6.91,8.13,16.16,12.2,27.75,12.2,10.26,0,19-3.3,26.22-9.91,7.21-6.61,10.82-14.94,10.82-25h-34.61Z"/>
  </g>
  <g class="cls-19">
    <path class="cls-15" d="m130.51,242.35l24.24-59.91h16.77v108.55h-12.5v-34.76c0-22.87.15-41.31.46-55.34-2.44,6.71-5.64,14.94-9.6,24.7l-26.83,65.4h-10.98l-26.98-65.4c-3.96-9.76-7.17-17.99-9.6-24.7.3,14.03.46,32.47.46,55.34v34.76h-12.5v-108.55h16.77l25.15,61.74c3.76,9.25,7.88,19.67,12.35,31.25,6.2-16.46,10.47-27.49,12.81-33.08Z"/>
    <path class="cls-15" d="m244.54,207.75l15.86-25.31h14.48l-41.47,64.95v43.6h-12.81v-43.6l-41.47-64.95h14.64l16.01,25.46c6.91,10.77,12.7,20.12,17.38,28.05,6.5-10.98,12.3-20.38,17.38-28.2Z"/>
    <path class="cls-15" d="m295.31,182.44v96.96h54.58v11.59h-67.38v-108.55h12.81Z"/>
    <path class="cls-15" d="m400.04,246.77v-11.59h46.19v55.8h-10.52l-2.74-14.64c-8.03,11.38-19.87,17.08-35.52,17.08s-27.95-5.23-37.2-15.7c-9.45-10.37-14.18-24.04-14.18-41.01s4.67-30.59,14.03-41.16c9.25-10.37,21.75-15.55,37.5-15.55,12.91,0,23.58,3.46,32.02,10.37,8.43,6.91,13.57,16.11,15.4,27.59h-13.26c-1.32-8.03-5.18-14.43-11.59-19.21-6.2-4.67-13.72-7.01-22.56-7.01-11.59,0-20.84,4.07-27.75,12.2-6.91,8.13-10.37,19.06-10.37,32.78s3.45,24.65,10.37,32.78c6.91,8.13,16.16,12.2,27.75,12.2,10.26,0,19-3.3,26.22-9.91,7.21-6.61,10.82-14.94,10.82-25h-34.61Z"/>
  </g>
  <g class="cls-18">
    <path class="cls-15" d="m130.51,222.35l24.24-59.91h16.77v108.55h-12.5v-34.76c0-22.87.15-41.31.46-55.34-2.44,6.71-5.64,14.94-9.6,24.7l-26.83,65.4h-10.98l-26.98-65.4c-3.96-9.76-7.17-17.99-9.6-24.7.3,14.03.46,32.47.46,55.34v34.76h-12.5v-108.55h16.77l25.15,61.74c3.76,9.25,7.88,19.67,12.35,31.25,6.2-16.46,10.47-27.49,12.81-33.08Z"/>
    <path class="cls-15" d="m244.54,187.75l15.86-25.31h14.48l-41.47,64.95v43.6h-12.81v-43.6l-41.47-64.95h14.64l16.01,25.46c6.91,10.77,12.7,20.12,17.38,28.05,6.5-10.98,12.3-20.38,17.38-28.2Z"/>
    <path class="cls-15" d="m295.31,162.44v96.96h54.58v11.59h-67.38v-108.55h12.81Z"/>
    <path class="cls-15" d="m400.04,226.77v-11.59h46.19v55.8h-10.52l-2.74-14.64c-8.03,11.38-19.87,17.08-35.52,17.08s-27.95-5.23-37.2-15.7c-9.45-10.37-14.18-24.04-14.18-41.01s4.67-30.59,14.03-41.16c9.25-10.37,21.75-15.55,37.5-15.55,12.91,0,23.58,3.46,32.02,10.37,8.43,6.91,13.57,16.11,15.4,27.59h-13.26c-1.32-8.03-5.18-14.43-11.59-19.21-6.2-4.67-13.72-7.01-22.56-7.01-11.59,0-20.84,4.07-27.75,12.2-6.91,8.13-10.37,19.06-10.37,32.78s3.45,24.65,10.37,32.78c6.91,8.13,16.16,12.2,27.75,12.2,10.26,0,19-3.3,26.22-9.91,7.21-6.61,10.82-14.94,10.82-25h-34.61Z"/>
  </g>
  <g class="cls-4">
    <path class="cls-15" d="m130.51,202.35l24.24-59.91h16.77v108.55h-12.5v-34.76c0-22.87.15-41.31.46-55.34-2.44,6.71-5.64,14.94-9.6,24.7l-26.83,65.4h-10.98l-26.98-65.4c-3.96-9.76-7.17-17.99-9.6-24.7.3,14.03.46,32.47.46,55.34v34.76h-12.5v-108.55h16.77l25.15,61.74c3.76,9.25,7.88,19.67,12.35,31.25,6.2-16.46,10.47-27.49,12.81-33.08Z"/>
    <path class="cls-15" d="m244.54,167.75l15.86-25.31h14.48l-41.47,64.95v43.6h-12.81v-43.6l-41.47-64.95h14.64l16.01,25.46c6.91,10.77,12.7,20.12,17.38,28.05,6.5-10.98,12.3-20.38,17.38-28.2Z"/>
    <path class="cls-15" d="m295.31,142.44v96.96h54.58v11.59h-67.38v-108.55h12.81Z"/>
    <path class="cls-15" d="m400.04,206.77v-11.59h46.19v55.8h-10.52l-2.74-14.64c-8.03,11.38-19.87,17.08-35.52,17.08s-27.95-5.23-37.2-15.7c-9.45-10.37-14.18-24.04-14.18-41.01s4.67-30.59,14.03-41.16c9.25-10.37,21.75-15.55,37.5-15.55,12.91,0,23.58,3.46,32.02,10.37,8.43,6.91,13.57,16.11,15.4,27.59h-13.26c-1.32-8.03-5.18-14.43-11.59-19.21-6.2-4.67-13.72-7.01-22.56-7.01-11.59,0-20.84,4.07-27.75,12.2-6.91,8.13-10.37,19.06-10.37,32.78s3.45,24.65,10.37,32.78c6.91,8.13,16.16,12.2,27.75,12.2,10.26,0,19-3.3,26.22-9.91,7.21-6.61,10.82-14.94,10.82-25h-34.61Z"/>
  </g>
  <g class="cls-9">
    <path class="cls-15" d="m130.51,182.35l24.24-59.91h16.77v108.55h-12.5v-34.76c0-22.87.15-41.31.46-55.34-2.44,6.71-5.64,14.94-9.6,24.7l-26.83,65.4h-10.98l-26.98-65.4c-3.96-9.76-7.17-17.99-9.6-24.7.3,14.03.46,32.47.46,55.34v34.76h-12.5v-108.55h16.77l25.15,61.74c3.76,9.25,7.88,19.67,12.35,31.25,6.2-16.46,10.47-27.49,12.81-33.08Z"/>
    <path class="cls-15" d="m244.54,147.75l15.86-25.31h14.48l-41.47,64.95v43.6h-12.81v-43.6l-41.47-64.95h14.64l16.01,25.46c6.91,10.77,12.7,20.12,17.38,28.05,6.5-10.98,12.3-20.38,17.38-28.2Z"/>
    <path class="cls-15" d="m295.31,122.44v96.96h54.58v11.59h-67.38v-108.55h12.81Z"/>
    <path class="cls-15" d="m400.04,186.77v-11.59h46.19v55.8h-10.52l-2.74-14.64c-8.03,11.38-19.87,17.08-35.52,17.08s-27.95-5.23-37.2-15.7c-9.45-10.37-14.18-24.04-14.18-41.01s4.67-30.59,14.03-41.16c9.25-10.37,21.75-15.55,37.5-15.55,12.91,0,23.58,3.46,32.02,10.37,8.43,6.91,13.57,16.11,15.4,27.59h-13.26c-1.32-8.03-5.18-14.43-11.59-19.21-6.2-4.67-13.72-7.01-22.56-7.01-11.59,0-20.84,4.07-27.75,12.2-6.91,8.13-10.37,19.06-10.37,32.78s3.45,24.65,10.37,32.78c6.91,8.13,16.16,12.2,27.75,12.2,10.26,0,19-3.3,26.22-9.91,7.21-6.61,10.82-14.94,10.82-25h-34.61Z"/>
  </g>
  <g class="cls-16">
    <path class="cls-15" d="m130.51,162.35l24.24-59.91h16.77v108.55h-12.5v-34.76c0-22.87.15-41.31.46-55.34-2.44,6.71-5.64,14.94-9.6,24.7l-26.83,65.4h-10.98l-26.98-65.4c-3.96-9.76-7.17-17.99-9.6-24.7.3,14.03.46,32.47.46,55.34v34.76h-12.5v-108.55h16.77l25.15,61.74c3.76,9.25,7.88,19.67,12.35,31.25,6.2-16.46,10.47-27.49,12.81-33.08Z"/>
    <path class="cls-15" d="m244.54,127.75l15.86-25.31h14.48l-41.47,64.95v43.6h-12.81v-43.6l-41.47-64.95h14.64l16.01,25.46c6.91,10.77,12.7,20.12,17.38,28.05,6.5-10.98,12.3-20.38,17.38-28.2Z"/>
    <path class="cls-15" d="m295.31,102.44v96.96h54.58v11.59h-67.38v-108.55h12.81Z"/>
    <path class="cls-15" d="m400.04,166.77v-11.59h46.19v55.8h-10.52l-2.74-14.64c-8.03,11.38-19.87,17.08-35.52,17.08s-27.95-5.23-37.2-15.7c-9.45-10.37-14.18-24.04-14.18-41.01s4.67-30.59,14.03-41.16c9.25-10.37,21.75-15.55,37.5-15.55,12.91,0,23.58,3.46,32.02,10.37,8.43,6.91,13.57,16.11,15.4,27.59h-13.26c-1.32-8.03-5.18-14.43-11.59-19.21-6.2-4.67-13.72-7.01-22.56-7.01-11.59,0-20.84,4.07-27.75,12.2-6.91,8.13-10.37,19.06-10.37,32.78s3.45,24.65,10.37,32.78c6.91,8.13,16.16,12.2,27.75,12.2,10.26,0,19-3.3,26.22-9.91,7.21-6.61,10.82-14.94,10.82-25h-34.61Z"/>
  </g>
  <g class="cls-6">
    <path class="cls-15" d="m130.51,142.35l24.24-59.91h16.77v108.55h-12.5v-34.76c0-22.87.15-41.31.46-55.34-2.44,6.71-5.64,14.94-9.6,24.7l-26.83,65.4h-10.98l-26.98-65.4c-3.96-9.76-7.17-17.99-9.6-24.7.3,14.03.46,32.47.46,55.34v34.76h-12.5v-108.55h16.77l25.15,61.74c3.76,9.25,7.88,19.67,12.35,31.25,6.2-16.46,10.47-27.49,12.81-33.08Z"/>
    <path class="cls-15" d="m244.54,107.75l15.86-25.31h14.48l-41.47,64.95v43.6h-12.81v-43.6l-41.47-64.95h14.64l16.01,25.46c6.91,10.77,12.7,20.12,17.38,28.05,6.5-10.98,12.3-20.38,17.38-28.2Z"/>
    <path class="cls-15" d="m295.31,82.44v96.96h54.58v11.59h-67.38v-108.55h12.81Z"/>
    <path class="cls-15" d="m400.04,146.77v-11.59h46.19v55.8h-10.52l-2.74-14.64c-8.03,11.38-19.87,17.08-35.52,17.08s-27.95-5.23-37.2-15.7c-9.45-10.37-14.18-24.04-14.18-41.01s4.67-30.59,14.03-41.16c9.25-10.37,21.75-15.55,37.5-15.55,12.91,0,23.58,3.46,32.02,10.37,8.43,6.91,13.57,16.11,15.4,27.59h-13.26c-1.32-8.03-5.18-14.43-11.59-19.21-6.2-4.67-13.72-7.01-22.56-7.01-11.59,0-20.84,4.07-27.75,12.2-6.91,8.13-10.37,19.06-10.37,32.78s3.45,24.65,10.37,32.78c6.91,8.13,16.16,12.2,27.75,12.2,10.26,0,19-3.3,26.22-9.91,7.21-6.61,10.82-14.94,10.82-25h-34.61Z"/>
  </g>
  <g>
    <path class="cls-15" d="m130.51,122.35l24.24-59.91h16.77v108.55h-12.5v-34.76c0-22.87.15-41.31.46-55.34-2.44,6.71-5.64,14.94-9.6,24.7l-26.83,65.4h-10.98l-26.98-65.4c-3.96-9.76-7.17-17.99-9.6-24.7.3,14.03.46,32.47.46,55.34v34.76h-12.5V62.44h16.77l25.15,61.74c3.76,9.25,7.88,19.67,12.35,31.25,6.2-16.46,10.47-27.49,12.81-33.08Z"/>
    <path class="cls-15" d="m244.54,87.75l15.86-25.31h14.48l-41.47,64.95v43.6h-12.81v-43.6l-41.47-64.95h14.64l16.01,25.46c6.91,10.77,12.7,20.12,17.38,28.05,6.5-10.98,12.3-20.38,17.38-28.2Z"/>
    <path class="cls-15" d="m295.31,62.44v96.96h54.58v11.59h-67.38V62.44h12.81Z"/>
    <path class="cls-15" d="m400.04,126.77v-11.59h46.19v55.8h-10.52l-2.74-14.64c-8.03,11.38-19.87,17.08-35.52,17.08s-27.95-5.23-37.2-15.7c-9.45-10.37-14.18-24.04-14.18-41.01s4.67-30.59,14.03-41.16c9.25-10.37,21.75-15.55,37.5-15.55,12.91,0,23.58,3.46,32.02,10.37,8.43,6.91,13.57,16.11,15.4,27.59h-13.26c-1.32-8.03-5.18-14.43-11.59-19.21-6.2-4.67-13.72-7.01-22.56-7.01-11.59,0-20.84,4.07-27.75,12.2-6.91,8.13-10.37,19.06-10.37,32.78s3.45,24.65,10.37,32.78c6.91,8.13,16.16,12.2,27.75,12.2,10.26,0,19-3.3,26.22-9.91,7.21-6.61,10.82-14.94,10.82-25h-34.61Z"/>
  </g>
  <g class="cls-6">
    <path class="cls-15" d="m130.51,102.35l24.24-59.91h16.77v108.55h-12.5v-34.76c0-22.87.15-41.31.46-55.34-2.44,6.71-5.64,14.94-9.6,24.7l-26.83,65.4h-10.98l-26.98-65.4c-3.96-9.76-7.17-17.99-9.6-24.7.3,14.03.46,32.47.46,55.34v34.76h-12.5V42.44h16.77l25.15,61.74c3.76,9.25,7.88,19.67,12.35,31.25,6.2-16.46,10.47-27.49,12.81-33.08Z"/>
    <path class="cls-15" d="m244.54,67.75l15.86-25.31h14.48l-41.47,64.95v43.6h-12.81v-43.6l-41.47-64.95h14.64l16.01,25.46c6.91,10.77,12.7,20.12,17.38,28.05,6.5-10.98,12.3-20.38,17.38-28.2Z"/>
    <path class="cls-15" d="m295.31,42.44v96.96h54.58v11.59h-67.38V42.44h12.81Z"/>
    <path class="cls-15" d="m400.04,106.77v-11.59h46.19v55.8h-10.52l-2.74-14.64c-8.03,11.38-19.87,17.08-35.52,17.08s-27.95-5.23-37.2-15.7c-9.45-10.37-14.18-24.04-14.18-41.01s4.67-30.59,14.03-41.16c9.25-10.37,21.75-15.55,37.5-15.55,12.91,0,23.58,3.46,32.02,10.37,8.43,6.91,13.57,16.11,15.4,27.59h-13.26c-1.32-8.03-5.18-14.43-11.59-19.21-6.2-4.67-13.72-7.01-22.56-7.01-11.59,0-20.84,4.07-27.75,12.2-6.91,8.13-10.37,19.06-10.37,32.78s3.45,24.65,10.37,32.78c6.91,8.13,16.16,12.2,27.75,12.2,10.26,0,19-3.3,26.22-9.91,7.21-6.61,10.82-14.94,10.82-25h-34.61Z"/>
  </g>
</svg>