<?xml version="1.0" encoding="UTF-8"?>
<svg id="uuid-626164fc-aa32-4ace-9631-84a99aed1369" data-name="Layer 1" xmlns="http://www.w3.org/2000/svg" viewBox="0 0 1920 1800">
  <defs>
    <style>
      .uuid-6a5d94aa-1a96-4d8c-9fd4-71e18cfad1f1 {
        fill: #0c0c0c;
        stroke-width: 0px;
      }
    </style>
  </defs>
  <path class="uuid-6a5d94aa-1a96-4d8c-9fd4-71e18cfad1f1" d="m130.69,243.98l-52.18,71.96-27.47-21.97,52.73-73.06-83.5-26.92,11.54-32.96,81.3,26.37v-86.79h35.16v86.79l81.3-26.37,11.54,32.96-83.5,26.92,52.73,73.06-27.47,21.97-52.19-71.96Z"/>
  <path class="uuid-6a5d94aa-1a96-4d8c-9fd4-71e18cfad1f1" d="m515.75,316.49l87.34-215.88h60.42v391.11h-45.04v-125.24c0-82.4.55-148.86,1.65-199.4-8.79,24.17-20.32,53.83-34.61,88.99l-96.68,235.66h-39.55l-97.23-235.66c-14.28-35.16-25.82-64.82-34.61-88.99,1.1,50.54,1.65,117,1.65,199.4v125.24h-45.04V100.6h60.42l90.64,222.47c13.54,33.33,28.38,70.86,44.49,112.61,22.33-59.33,37.71-99.06,46.14-119.2Z"/>
  <path class="uuid-6a5d94aa-1a96-4d8c-9fd4-71e18cfad1f1" d="m901.92,191.79l57.13-91.19h52.19l-149.41,234.01v157.1h-46.14v-157.1l-149.41-234.01h52.73l57.68,91.74c24.9,38.82,45.77,72.51,62.62,101.07,23.43-39.55,44.31-73.42,62.62-101.62Z"/>
  <path class="uuid-6a5d94aa-1a96-4d8c-9fd4-71e18cfad1f1" d="m1060.11,100.6v349.36h196.66v41.75h-242.8V100.6h46.14Z"/>
  <path class="uuid-6a5d94aa-1a96-4d8c-9fd4-71e18cfad1f1" d="m1412.78,332.41v-41.75h166.44v201.05h-37.9l-9.89-52.73c-28.93,41.02-71.6,61.52-127.99,61.52s-100.71-18.86-134.03-56.58c-34.06-37.35-51.09-86.6-51.09-147.77s16.84-110.22,50.54-148.32c33.32-37.35,78.36-56.03,135.13-56.03,46.5,0,84.96,12.45,115.36,37.35,30.39,24.91,48.89,58.05,55.48,99.43h-47.79c-4.76-28.92-18.68-52-41.75-69.21-22.34-16.84-49.44-25.27-81.3-25.27-41.75,0-75.08,14.65-99.98,43.95-24.91,29.3-37.35,68.66-37.35,118.1s12.45,88.81,37.35,118.1c24.9,29.3,58.23,43.95,99.98,43.95,36.98,0,68.48-11.9,94.48-35.71,26-23.8,39-53.83,39-90.09h-124.69Z"/>
  <path class="uuid-6a5d94aa-1a96-4d8c-9fd4-71e18cfad1f1" d="m1664.91,491.72h-55.48v-54.93h55.48v54.93Zm-14.28-102.17h-28.56l-7.69-181.27v-107.67h46.14v107.67l-9.89,181.27Z"/>
  <path class="uuid-6a5d94aa-1a96-4d8c-9fd4-71e18cfad1f1" d="m1797.29,243.98l-52.18,71.96-27.47-21.97,52.73-73.06-83.5-26.92,11.54-32.96,81.3,26.37v-86.79h35.16v86.79l81.3-26.37,11.54,32.96-83.5,26.92,52.73,73.06-27.47,21.97-52.19-71.96Z"/>
</svg>