<?xml version="1.0" encoding="UTF-8"?>
<svg id="Layer_1_copy" data-name="Layer 1 copy" xmlns="http://www.w3.org/2000/svg" viewBox="0 0 1920 1800">
  <defs>
    <style>
      .cls-1 {
        opacity: .04;
      }

      .cls-2 {
        opacity: .18;
      }

      .cls-3 {
        opacity: .28;
      }

      .cls-4 {
        opacity: .24;
      }

      .cls-5 {
        opacity: .06;
      }

      .cls-6 {
        opacity: .33;
      }

      .cls-7 {
        opacity: 0;
      }

      .cls-8 {
        opacity: .14;
      }

      .cls-9 {
        opacity: .17;
      }

      .cls-10 {
        opacity: .23;
      }

      .cls-11 {
        opacity: .26;
      }

      .cls-12 {
        opacity: .15;
      }

      .cls-13 {
        fill: #0c0c0c;
        stroke-width: 0px;
      }

      .cls-14 {
        opacity: .32;
      }

      .cls-15 {
        opacity: .01;
      }

      .cls-16 {
        opacity: .03;
      }

      .cls-17 {
        opacity: .34;
      }

      .cls-18 {
        opacity: .12;
      }

      .cls-19 {
        opacity: .2;
      }

      .cls-20 {
        opacity: .21;
      }

      .cls-21 {
        opacity: .07;
      }

      .cls-22 {
        opacity: .1;
      }

      .cls-23 {
        opacity: .36;
      }

      .cls-24 {
        opacity: .38;
      }

      .cls-25 {
        opacity: .09;
      }

      .cls-26 {
        opacity: .3;
      }

      .cls-27 {
        opacity: .27;
      }
    </style>
  </defs>
  <g class="cls-7">
    <path class="cls-13" d="m130.69,1498.47l-52.18,71.96-27.47-21.97,52.73-73.06-83.5-26.92,11.54-32.96,81.3,26.37v-86.79h35.16v86.79l81.3-26.37,11.54,32.96-83.5,26.92,52.73,73.06-27.47,21.97-52.19-71.96Z"/>
    <path class="cls-13" d="m515.75,1570.98l87.34-215.88h60.42v391.11h-45.04v-125.25c0-82.4.55-148.86,1.65-199.4-8.79,24.17-20.32,53.83-34.61,88.99l-96.68,235.66h-39.55l-97.23-235.66c-14.28-35.16-25.82-64.82-34.61-88.99,1.1,50.54,1.65,117,1.65,199.4v125.25h-45.04v-391.11h60.42l90.64,222.47c13.54,33.33,28.38,70.86,44.49,112.61,22.33-59.33,37.71-99.06,46.14-119.2Z"/>
    <path class="cls-13" d="m901.92,1446.28l57.13-91.19h52.18l-149.41,234.01v157.1h-46.14v-157.1l-149.41-234.01h52.73l57.68,91.74c24.9,38.82,45.77,72.51,62.62,101.07,23.43-39.55,44.31-73.42,62.62-101.62Z"/>
    <path class="cls-13" d="m1060.11,1355.1v349.36h196.66v41.75h-242.8v-391.11h46.14Z"/>
    <path class="cls-13" d="m1412.78,1586.91v-41.75h166.44v201.05h-37.9l-9.89-52.73c-28.93,41.02-71.6,61.52-127.99,61.52s-100.71-18.86-134.03-56.58c-34.06-37.35-51.09-86.6-51.09-147.77s16.84-110.22,50.54-148.32c33.32-37.35,78.36-56.03,135.13-56.03,46.5,0,84.96,12.45,115.36,37.35,30.39,24.91,48.89,58.05,55.48,99.43h-47.79c-4.76-28.92-18.68-52-41.75-69.21-22.34-16.84-49.44-25.27-81.3-25.27-41.75,0-75.08,14.65-99.98,43.95-24.91,29.3-37.35,68.66-37.35,118.1s12.44,88.81,37.35,118.1c24.9,29.3,58.23,43.94,99.98,43.94,36.99,0,68.48-11.9,94.48-35.71,26-23.8,39-53.83,39-90.09h-124.69Z"/>
    <path class="cls-13" d="m1664.91,1746.21h-55.48v-54.93h55.48v54.93Zm-14.28-102.17h-28.57l-7.69-181.27v-107.67h46.14v107.67l-9.89,181.27Z"/>
    <path class="cls-13" d="m1797.29,1498.47l-52.18,71.96-27.47-21.97,52.73-73.06-83.5-26.92,11.54-32.96,81.3,26.37v-86.79h35.16v86.79l81.3-26.37,11.54,32.96-83.5,26.92,52.73,73.06-27.47,21.97-52.18-71.96Z"/>
  </g>
  <g class="cls-15">
    <path class="cls-13" d="m130.69,1471.78l-52.18,71.96-27.47-21.97,52.73-73.06-83.5-26.92,11.54-32.96,81.3,26.37v-86.79h35.16v86.79l81.3-26.37,11.54,32.96-83.5,26.92,52.73,73.06-27.47,21.97-52.19-71.96Z"/>
    <path class="cls-13" d="m515.75,1544.29l87.34-215.88h60.42v391.11h-45.04v-125.25c0-82.4.55-148.86,1.65-199.4-8.79,24.17-20.32,53.83-34.61,88.99l-96.68,235.66h-39.55l-97.23-235.66c-14.28-35.16-25.82-64.82-34.61-88.99,1.1,50.54,1.65,117,1.65,199.4v125.25h-45.04v-391.11h60.42l90.64,222.47c13.54,33.33,28.38,70.86,44.49,112.61,22.33-59.33,37.71-99.06,46.14-119.2Z"/>
    <path class="cls-13" d="m901.92,1419.59l57.13-91.19h52.18l-149.41,234.01v157.1h-46.14v-157.1l-149.41-234.01h52.73l57.68,91.74c24.9,38.82,45.77,72.51,62.62,101.07,23.43-39.55,44.31-73.42,62.62-101.62Z"/>
    <path class="cls-13" d="m1060.11,1328.41v349.36h196.66v41.75h-242.8v-391.11h46.14Z"/>
    <path class="cls-13" d="m1412.78,1560.22v-41.75h166.44v201.05h-37.9l-9.89-52.73c-28.93,41.02-71.6,61.52-127.99,61.52s-100.71-18.86-134.03-56.58c-34.06-37.35-51.09-86.6-51.09-147.77s16.84-110.22,50.54-148.32c33.32-37.35,78.36-56.03,135.13-56.03,46.5,0,84.96,12.45,115.36,37.35,30.39,24.91,48.89,58.05,55.48,99.43h-47.79c-4.76-28.92-18.68-52-41.75-69.21-22.34-16.84-49.44-25.27-81.3-25.27-41.75,0-75.08,14.65-99.98,43.95-24.91,29.3-37.35,68.66-37.35,118.1s12.44,88.81,37.35,118.1c24.9,29.3,58.23,43.94,99.98,43.94,36.99,0,68.48-11.9,94.48-35.71,26-23.8,39-53.83,39-90.09h-124.69Z"/>
    <path class="cls-13" d="m1664.91,1719.52h-55.48v-54.93h55.48v54.93Zm-14.28-102.17h-28.57l-7.69-181.27v-107.67h46.14v107.67l-9.89,181.27Z"/>
    <path class="cls-13" d="m1797.29,1471.78l-52.18,71.96-27.47-21.97,52.73-73.06-83.5-26.92,11.54-32.96,81.3,26.37v-86.79h35.16v86.79l81.3-26.37,11.54,32.96-83.5,26.92,52.73,73.06-27.47,21.97-52.18-71.96Z"/>
  </g>
  <g class="cls-16">
    <path class="cls-13" d="m130.69,1445.09l-52.18,71.96-27.47-21.97,52.73-73.06-83.5-26.92,11.54-32.96,81.3,26.37v-86.79h35.16v86.79l81.3-26.37,11.54,32.96-83.5,26.92,52.73,73.06-27.47,21.97-52.19-71.96Z"/>
    <path class="cls-13" d="m515.75,1517.6l87.34-215.88h60.42v391.11h-45.04v-125.25c0-82.4.55-148.86,1.65-199.4-8.79,24.17-20.32,53.83-34.61,88.99l-96.68,235.66h-39.55l-97.23-235.66c-14.28-35.16-25.82-64.82-34.61-88.99,1.1,50.54,1.65,117,1.65,199.4v125.25h-45.04v-391.11h60.42l90.64,222.47c13.54,33.33,28.38,70.86,44.49,112.61,22.33-59.33,37.71-99.06,46.14-119.2Z"/>
    <path class="cls-13" d="m901.92,1392.9l57.13-91.19h52.18l-149.41,234.01v157.1h-46.14v-157.1l-149.41-234.01h52.73l57.68,91.74c24.9,38.82,45.77,72.51,62.62,101.07,23.43-39.55,44.31-73.42,62.62-101.62Z"/>
    <path class="cls-13" d="m1060.11,1301.72v349.36h196.66v41.75h-242.8v-391.11h46.14Z"/>
    <path class="cls-13" d="m1412.78,1533.53v-41.75h166.44v201.05h-37.9l-9.89-52.73c-28.93,41.02-71.6,61.52-127.99,61.52s-100.71-18.86-134.03-56.58c-34.06-37.35-51.09-86.6-51.09-147.77s16.84-110.22,50.54-148.32c33.32-37.35,78.36-56.03,135.13-56.03,46.5,0,84.96,12.45,115.36,37.35,30.39,24.91,48.89,58.05,55.48,99.43h-47.79c-4.76-28.92-18.68-52-41.75-69.21-22.34-16.84-49.44-25.27-81.3-25.27-41.75,0-75.08,14.65-99.98,43.95-24.91,29.3-37.35,68.66-37.35,118.1s12.44,88.81,37.35,118.1c24.9,29.3,58.23,43.94,99.98,43.94,36.99,0,68.48-11.9,94.48-35.71,26-23.8,39-53.83,39-90.09h-124.69Z"/>
    <path class="cls-13" d="m1664.91,1692.83h-55.48v-54.93h55.48v54.93Zm-14.28-102.17h-28.57l-7.69-181.27v-107.67h46.14v107.67l-9.89,181.27Z"/>
    <path class="cls-13" d="m1797.29,1445.09l-52.18,71.96-27.47-21.97,52.73-73.06-83.5-26.92,11.54-32.96,81.3,26.37v-86.79h35.16v86.79l81.3-26.37,11.54,32.96-83.5,26.92,52.73,73.06-27.47,21.97-52.18-71.96Z"/>
  </g>
  <g class="cls-1">
    <path class="cls-13" d="m130.69,1418.4l-52.18,71.96-27.47-21.97,52.73-73.06-83.5-26.92,11.54-32.96,81.3,26.37v-86.79h35.16v86.79l81.3-26.37,11.54,32.96-83.5,26.92,52.73,73.06-27.47,21.97-52.19-71.96Z"/>
    <path class="cls-13" d="m515.75,1490.91l87.34-215.88h60.42v391.11h-45.04v-125.25c0-82.4.55-148.86,1.65-199.4-8.79,24.17-20.32,53.83-34.61,88.99l-96.68,235.66h-39.55l-97.23-235.66c-14.28-35.16-25.82-64.82-34.61-88.99,1.1,50.54,1.65,117,1.65,199.4v125.25h-45.04v-391.11h60.42l90.64,222.47c13.54,33.33,28.38,70.86,44.49,112.61,22.33-59.33,37.71-99.06,46.14-119.2Z"/>
    <path class="cls-13" d="m901.92,1366.21l57.13-91.19h52.18l-149.41,234.01v157.1h-46.14v-157.1l-149.41-234.01h52.73l57.68,91.74c24.9,38.82,45.77,72.51,62.62,101.07,23.43-39.55,44.31-73.42,62.62-101.62Z"/>
    <path class="cls-13" d="m1060.11,1275.03v349.36h196.66v41.75h-242.8v-391.11h46.14Z"/>
    <path class="cls-13" d="m1412.78,1506.84v-41.75h166.44v201.05h-37.9l-9.89-52.73c-28.93,41.02-71.6,61.52-127.99,61.52s-100.71-18.86-134.03-56.58c-34.06-37.35-51.09-86.6-51.09-147.77s16.84-110.22,50.54-148.32c33.32-37.35,78.36-56.03,135.13-56.03,46.5,0,84.96,12.45,115.36,37.35,30.39,24.91,48.89,58.05,55.48,99.43h-47.79c-4.76-28.92-18.68-52-41.75-69.21-22.34-16.84-49.44-25.27-81.3-25.27-41.75,0-75.08,14.65-99.98,43.95-24.91,29.3-37.35,68.66-37.35,118.1s12.44,88.81,37.35,118.1c24.9,29.3,58.23,43.94,99.98,43.94,36.99,0,68.48-11.9,94.48-35.71,26-23.8,39-53.83,39-90.09h-124.69Z"/>
    <path class="cls-13" d="m1664.91,1666.14h-55.48v-54.93h55.48v54.93Zm-14.28-102.17h-28.57l-7.69-181.27v-107.67h46.14v107.67l-9.89,181.27Z"/>
    <path class="cls-13" d="m1797.29,1418.4l-52.18,71.96-27.47-21.97,52.73-73.06-83.5-26.92,11.54-32.96,81.3,26.37v-86.79h35.16v86.79l81.3-26.37,11.54,32.96-83.5,26.92,52.73,73.06-27.47,21.97-52.18-71.96Z"/>
  </g>
  <g class="cls-5">
    <path class="cls-13" d="m130.69,1391.71l-52.18,71.96-27.47-21.97,52.73-73.06-83.5-26.92,11.54-32.96,81.3,26.37v-86.79h35.16v86.79l81.3-26.37,11.54,32.96-83.5,26.92,52.73,73.06-27.47,21.97-52.19-71.96Z"/>
    <path class="cls-13" d="m515.75,1464.22l87.34-215.88h60.42v391.11h-45.04v-125.25c0-82.4.55-148.86,1.65-199.4-8.79,24.17-20.32,53.83-34.61,88.99l-96.68,235.66h-39.55l-97.23-235.66c-14.28-35.16-25.82-64.82-34.61-88.99,1.1,50.54,1.65,117,1.65,199.4v125.25h-45.04v-391.11h60.42l90.64,222.47c13.54,33.33,28.38,70.86,44.49,112.61,22.33-59.33,37.71-99.06,46.14-119.2Z"/>
    <path class="cls-13" d="m901.92,1339.52l57.13-91.19h52.18l-149.41,234.01v157.1h-46.14v-157.1l-149.41-234.01h52.73l57.68,91.74c24.9,38.82,45.77,72.51,62.62,101.07,23.43-39.55,44.31-73.42,62.62-101.62Z"/>
    <path class="cls-13" d="m1060.11,1248.34v349.36h196.66v41.75h-242.8v-391.11h46.14Z"/>
    <path class="cls-13" d="m1412.78,1480.15v-41.75h166.44v201.05h-37.9l-9.89-52.73c-28.93,41.02-71.6,61.52-127.99,61.52s-100.71-18.86-134.03-56.58c-34.06-37.35-51.09-86.6-51.09-147.77s16.84-110.22,50.54-148.32c33.32-37.35,78.36-56.03,135.13-56.03,46.5,0,84.96,12.45,115.36,37.35,30.39,24.91,48.89,58.05,55.48,99.43h-47.79c-4.76-28.92-18.68-52-41.75-69.21-22.34-16.84-49.44-25.27-81.3-25.27-41.75,0-75.08,14.65-99.98,43.95-24.91,29.3-37.35,68.66-37.35,118.1s12.44,88.81,37.35,118.1c24.9,29.3,58.23,43.94,99.98,43.94,36.99,0,68.48-11.9,94.48-35.71,26-23.8,39-53.83,39-90.09h-124.69Z"/>
    <path class="cls-13" d="m1664.91,1639.45h-55.48v-54.93h55.48v54.93Zm-14.28-102.17h-28.57l-7.69-181.27v-107.67h46.14v107.67l-9.89,181.27Z"/>
    <path class="cls-13" d="m1797.29,1391.71l-52.18,71.96-27.47-21.97,52.73-73.06-83.5-26.92,11.54-32.96,81.3,26.37v-86.79h35.16v86.79l81.3-26.37,11.54,32.96-83.5,26.92,52.73,73.06-27.47,21.97-52.18-71.96Z"/>
  </g>
  <g class="cls-21">
    <path class="cls-13" d="m130.69,1365.02l-52.18,71.96-27.47-21.97,52.73-73.06-83.5-26.92,11.54-32.96,81.3,26.37v-86.79h35.16v86.79l81.3-26.37,11.54,32.96-83.5,26.92,52.73,73.06-27.47,21.97-52.19-71.96Z"/>
    <path class="cls-13" d="m515.75,1437.53l87.34-215.88h60.42v391.11h-45.04v-125.25c0-82.4.55-148.86,1.65-199.4-8.79,24.17-20.32,53.83-34.61,88.99l-96.68,235.66h-39.55l-97.23-235.66c-14.28-35.16-25.82-64.82-34.61-88.99,1.1,50.54,1.65,117,1.65,199.4v125.25h-45.04v-391.11h60.42l90.64,222.47c13.54,33.33,28.38,70.86,44.49,112.61,22.33-59.33,37.71-99.06,46.14-119.2Z"/>
    <path class="cls-13" d="m901.92,1312.83l57.13-91.19h52.18l-149.41,234.01v157.1h-46.14v-157.1l-149.41-234.01h52.73l57.68,91.74c24.9,38.82,45.77,72.51,62.62,101.07,23.43-39.55,44.31-73.42,62.62-101.62Z"/>
    <path class="cls-13" d="m1060.11,1221.65v349.36h196.66v41.75h-242.8v-391.11h46.14Z"/>
    <path class="cls-13" d="m1412.78,1453.46v-41.75h166.44v201.05h-37.9l-9.89-52.73c-28.93,41.02-71.6,61.52-127.99,61.52s-100.71-18.86-134.03-56.58c-34.06-37.35-51.09-86.6-51.09-147.77s16.84-110.22,50.54-148.32c33.32-37.35,78.36-56.03,135.13-56.03,46.5,0,84.96,12.45,115.36,37.35,30.39,24.91,48.89,58.05,55.48,99.43h-47.79c-4.76-28.92-18.68-52-41.75-69.21-22.34-16.84-49.44-25.27-81.3-25.27-41.75,0-75.08,14.65-99.98,43.95-24.91,29.3-37.35,68.66-37.35,118.1s12.44,88.81,37.35,118.1c24.9,29.3,58.23,43.94,99.98,43.94,36.99,0,68.48-11.9,94.48-35.71,26-23.8,39-53.83,39-90.09h-124.69Z"/>
    <path class="cls-13" d="m1664.91,1612.76h-55.48v-54.93h55.48v54.93Zm-14.28-102.17h-28.57l-7.69-181.27v-107.67h46.14v107.67l-9.89,181.27Z"/>
    <path class="cls-13" d="m1797.29,1365.02l-52.18,71.96-27.47-21.97,52.73-73.06-83.5-26.92,11.54-32.96,81.3,26.37v-86.79h35.16v86.79l81.3-26.37,11.54,32.96-83.5,26.92,52.73,73.06-27.47,21.97-52.18-71.96Z"/>
  </g>
  <g class="cls-25">
    <path class="cls-13" d="m130.69,1338.33l-52.18,71.96-27.47-21.97,52.73-73.06-83.5-26.92,11.54-32.96,81.3,26.37v-86.79h35.16v86.79l81.3-26.37,11.54,32.96-83.5,26.92,52.73,73.06-27.47,21.97-52.19-71.96Z"/>
    <path class="cls-13" d="m515.75,1410.84l87.34-215.88h60.42v391.11h-45.04v-125.25c0-82.4.55-148.86,1.65-199.4-8.79,24.17-20.32,53.83-34.61,88.99l-96.68,235.66h-39.55l-97.23-235.66c-14.28-35.16-25.82-64.82-34.61-88.99,1.1,50.54,1.65,117,1.65,199.4v125.25h-45.04v-391.11h60.42l90.64,222.47c13.54,33.33,28.38,70.86,44.49,112.61,22.33-59.33,37.71-99.06,46.14-119.2Z"/>
    <path class="cls-13" d="m901.92,1286.14l57.13-91.19h52.18l-149.41,234.01v157.1h-46.14v-157.1l-149.41-234.01h52.73l57.68,91.74c24.9,38.82,45.77,72.51,62.62,101.07,23.43-39.55,44.31-73.42,62.62-101.62Z"/>
    <path class="cls-13" d="m1060.11,1194.96v349.36h196.66v41.75h-242.8v-391.11h46.14Z"/>
    <path class="cls-13" d="m1412.78,1426.77v-41.75h166.44v201.05h-37.9l-9.89-52.73c-28.93,41.02-71.6,61.52-127.99,61.52s-100.71-18.86-134.03-56.58c-34.06-37.35-51.09-86.6-51.09-147.77s16.84-110.22,50.54-148.32c33.32-37.35,78.36-56.03,135.13-56.03,46.5,0,84.96,12.45,115.36,37.35,30.39,24.91,48.89,58.05,55.48,99.43h-47.79c-4.76-28.92-18.68-52-41.75-69.21-22.34-16.84-49.44-25.27-81.3-25.27-41.75,0-75.08,14.65-99.98,43.95-24.91,29.3-37.35,68.66-37.35,118.1s12.44,88.81,37.35,118.1c24.9,29.3,58.23,43.94,99.98,43.94,36.99,0,68.48-11.9,94.48-35.71,26-23.8,39-53.83,39-90.09h-124.69Z"/>
    <path class="cls-13" d="m1664.91,1586.07h-55.48v-54.93h55.48v54.93Zm-14.28-102.17h-28.57l-7.69-181.27v-107.67h46.14v107.67l-9.89,181.27Z"/>
    <path class="cls-13" d="m1797.29,1338.33l-52.18,71.96-27.47-21.97,52.73-73.06-83.5-26.92,11.54-32.96,81.3,26.37v-86.79h35.16v86.79l81.3-26.37,11.54,32.96-83.5,26.92,52.73,73.06-27.47,21.97-52.18-71.96Z"/>
  </g>
  <g class="cls-22">
    <path class="cls-13" d="m130.69,1311.64l-52.18,71.96-27.47-21.97,52.73-73.06-83.5-26.92,11.54-32.96,81.3,26.37v-86.79h35.16v86.79l81.3-26.37,11.54,32.96-83.5,26.92,52.73,73.06-27.47,21.97-52.19-71.96Z"/>
    <path class="cls-13" d="m515.75,1384.15l87.34-215.88h60.42v391.11h-45.04v-125.25c0-82.4.55-148.86,1.65-199.4-8.79,24.17-20.32,53.83-34.61,88.99l-96.68,235.66h-39.55l-97.23-235.66c-14.28-35.16-25.82-64.82-34.61-88.99,1.1,50.54,1.65,117,1.65,199.4v125.25h-45.04v-391.11h60.42l90.64,222.47c13.54,33.33,28.38,70.86,44.49,112.61,22.33-59.33,37.71-99.06,46.14-119.2Z"/>
    <path class="cls-13" d="m901.92,1259.45l57.13-91.19h52.18l-149.41,234.01v157.1h-46.14v-157.1l-149.41-234.01h52.73l57.68,91.74c24.9,38.82,45.77,72.51,62.62,101.07,23.43-39.55,44.31-73.42,62.62-101.62Z"/>
    <path class="cls-13" d="m1060.11,1168.27v349.36h196.66v41.75h-242.8v-391.11h46.14Z"/>
    <path class="cls-13" d="m1412.78,1400.08v-41.75h166.44v201.05h-37.9l-9.89-52.73c-28.93,41.02-71.6,61.52-127.99,61.52s-100.71-18.86-134.03-56.58c-34.06-37.35-51.09-86.6-51.09-147.77s16.84-110.22,50.54-148.32c33.32-37.35,78.36-56.03,135.13-56.03,46.5,0,84.96,12.45,115.36,37.35,30.39,24.91,48.89,58.05,55.48,99.43h-47.79c-4.76-28.92-18.68-52-41.75-69.21-22.34-16.84-49.44-25.27-81.3-25.27-41.75,0-75.08,14.65-99.98,43.95-24.91,29.3-37.35,68.66-37.35,118.1s12.44,88.81,37.35,118.1c24.9,29.3,58.23,43.94,99.98,43.94,36.99,0,68.48-11.9,94.48-35.71,26-23.8,39-53.83,39-90.09h-124.69Z"/>
    <path class="cls-13" d="m1664.91,1559.38h-55.48v-54.93h55.48v54.93Zm-14.28-102.17h-28.57l-7.69-181.27v-107.67h46.14v107.67l-9.89,181.27Z"/>
    <path class="cls-13" d="m1797.29,1311.64l-52.18,71.96-27.47-21.97,52.73-73.06-83.5-26.92,11.54-32.96,81.3,26.37v-86.79h35.16v86.79l81.3-26.37,11.54,32.96-83.5,26.92,52.73,73.06-27.47,21.97-52.18-71.96Z"/>
  </g>
  <g class="cls-18">
    <path class="cls-13" d="m130.69,1284.95l-52.18,71.96-27.47-21.97,52.73-73.06-83.5-26.92,11.54-32.96,81.3,26.37v-86.79h35.16v86.79l81.3-26.37,11.54,32.96-83.5,26.92,52.73,73.06-27.47,21.97-52.19-71.96Z"/>
    <path class="cls-13" d="m515.75,1357.46l87.34-215.88h60.42v391.11h-45.04v-125.25c0-82.4.55-148.86,1.65-199.4-8.79,24.17-20.32,53.83-34.61,88.99l-96.68,235.66h-39.55l-97.23-235.66c-14.28-35.16-25.82-64.82-34.61-88.99,1.1,50.54,1.65,117,1.65,199.4v125.25h-45.04v-391.11h60.42l90.64,222.47c13.54,33.33,28.38,70.86,44.49,112.61,22.33-59.33,37.71-99.06,46.14-119.2Z"/>
    <path class="cls-13" d="m901.92,1232.76l57.13-91.19h52.18l-149.41,234.01v157.1h-46.14v-157.1l-149.41-234.01h52.73l57.68,91.74c24.9,38.82,45.77,72.51,62.62,101.07,23.43-39.55,44.31-73.42,62.62-101.62Z"/>
    <path class="cls-13" d="m1060.11,1141.58v349.36h196.66v41.75h-242.8v-391.11h46.14Z"/>
    <path class="cls-13" d="m1412.78,1373.39v-41.75h166.44v201.05h-37.9l-9.89-52.73c-28.93,41.02-71.6,61.52-127.99,61.52s-100.71-18.86-134.03-56.58c-34.06-37.35-51.09-86.6-51.09-147.77s16.84-110.22,50.54-148.32c33.32-37.35,78.36-56.03,135.13-56.03,46.5,0,84.96,12.45,115.36,37.35,30.39,24.91,48.89,58.05,55.48,99.43h-47.79c-4.76-28.92-18.68-52-41.75-69.21-22.34-16.84-49.44-25.27-81.3-25.27-41.75,0-75.08,14.65-99.98,43.95-24.91,29.3-37.35,68.66-37.35,118.1s12.44,88.81,37.35,118.1c24.9,29.3,58.23,43.94,99.98,43.94,36.99,0,68.48-11.9,94.48-35.71,26-23.8,39-53.83,39-90.09h-124.69Z"/>
    <path class="cls-13" d="m1664.91,1532.69h-55.48v-54.93h55.48v54.93Zm-14.28-102.17h-28.57l-7.69-181.27v-107.67h46.14v107.67l-9.89,181.27Z"/>
    <path class="cls-13" d="m1797.29,1284.95l-52.18,71.96-27.47-21.97,52.73-73.06-83.5-26.92,11.54-32.96,81.3,26.37v-86.79h35.16v86.79l81.3-26.37,11.54,32.96-83.5,26.92,52.73,73.06-27.47,21.97-52.18-71.96Z"/>
  </g>
  <g class="cls-8">
    <path class="cls-13" d="m130.69,1258.26l-52.18,71.96-27.47-21.97,52.73-73.06-83.5-26.92,11.54-32.96,81.3,26.37v-86.79h35.16v86.79l81.3-26.37,11.54,32.96-83.5,26.92,52.73,73.06-27.47,21.97-52.19-71.96Z"/>
    <path class="cls-13" d="m515.75,1330.77l87.34-215.88h60.42v391.11h-45.04v-125.25c0-82.4.55-148.86,1.65-199.4-8.79,24.17-20.32,53.83-34.61,88.99l-96.68,235.66h-39.55l-97.23-235.66c-14.28-35.16-25.82-64.82-34.61-88.99,1.1,50.54,1.65,117,1.65,199.4v125.25h-45.04v-391.11h60.42l90.64,222.47c13.54,33.33,28.38,70.86,44.49,112.61,22.33-59.33,37.71-99.06,46.14-119.2Z"/>
    <path class="cls-13" d="m901.92,1206.07l57.13-91.19h52.18l-149.41,234.01v157.1h-46.14v-157.1l-149.41-234.01h52.73l57.68,91.74c24.9,38.82,45.77,72.51,62.62,101.07,23.43-39.55,44.31-73.42,62.62-101.62Z"/>
    <path class="cls-13" d="m1060.11,1114.89v349.36h196.66v41.75h-242.8v-391.11h46.14Z"/>
    <path class="cls-13" d="m1412.78,1346.7v-41.75h166.44v201.05h-37.9l-9.89-52.73c-28.93,41.02-71.6,61.52-127.99,61.52s-100.71-18.86-134.03-56.58c-34.06-37.35-51.09-86.6-51.09-147.77s16.84-110.22,50.54-148.32c33.32-37.35,78.36-56.03,135.13-56.03,46.5,0,84.96,12.45,115.36,37.35,30.39,24.91,48.89,58.05,55.48,99.43h-47.79c-4.76-28.92-18.68-52-41.75-69.21-22.34-16.84-49.44-25.27-81.3-25.27-41.75,0-75.08,14.65-99.98,43.95-24.91,29.3-37.35,68.66-37.35,118.1s12.44,88.81,37.35,118.1c24.9,29.3,58.23,43.94,99.98,43.94,36.99,0,68.48-11.9,94.48-35.71,26-23.8,39-53.83,39-90.09h-124.69Z"/>
    <path class="cls-13" d="m1664.91,1506h-55.48v-54.93h55.48v54.93Zm-14.28-102.17h-28.57l-7.69-181.27v-107.67h46.14v107.67l-9.89,181.27Z"/>
    <path class="cls-13" d="m1797.29,1258.26l-52.18,71.96-27.47-21.97,52.73-73.06-83.5-26.92,11.54-32.96,81.3,26.37v-86.79h35.16v86.79l81.3-26.37,11.54,32.96-83.5,26.92,52.73,73.06-27.47,21.97-52.18-71.96Z"/>
  </g>
  <g class="cls-12">
    <path class="cls-13" d="m130.69,1231.57l-52.18,71.96-27.47-21.97,52.73-73.06-83.5-26.92,11.54-32.96,81.3,26.37v-86.79h35.16v86.79l81.3-26.37,11.54,32.96-83.5,26.92,52.73,73.06-27.47,21.97-52.19-71.96Z"/>
    <path class="cls-13" d="m515.75,1304.08l87.34-215.88h60.42v391.11h-45.04v-125.25c0-82.4.55-148.86,1.65-199.4-8.79,24.17-20.32,53.83-34.61,88.99l-96.68,235.66h-39.55l-97.23-235.66c-14.28-35.16-25.82-64.82-34.61-88.99,1.1,50.54,1.65,117,1.65,199.4v125.25h-45.04v-391.11h60.42l90.64,222.47c13.54,33.33,28.38,70.86,44.49,112.61,22.33-59.33,37.71-99.06,46.14-119.2Z"/>
    <path class="cls-13" d="m901.92,1179.38l57.13-91.19h52.18l-149.41,234.01v157.1h-46.14v-157.1l-149.41-234.01h52.73l57.68,91.74c24.9,38.82,45.77,72.51,62.62,101.07,23.43-39.55,44.31-73.42,62.62-101.62Z"/>
    <path class="cls-13" d="m1060.11,1088.2v349.36h196.66v41.75h-242.8v-391.11h46.14Z"/>
    <path class="cls-13" d="m1412.78,1320.01v-41.75h166.44v201.05h-37.9l-9.89-52.73c-28.93,41.02-71.6,61.52-127.99,61.52s-100.71-18.86-134.03-56.58c-34.06-37.35-51.09-86.6-51.09-147.77s16.84-110.22,50.54-148.32c33.32-37.35,78.36-56.03,135.13-56.03,46.5,0,84.96,12.45,115.36,37.35,30.39,24.91,48.89,58.05,55.48,99.43h-47.79c-4.76-28.92-18.68-52-41.75-69.21-22.34-16.84-49.44-25.27-81.3-25.27-41.75,0-75.08,14.65-99.98,43.95-24.91,29.3-37.35,68.66-37.35,118.1s12.44,88.81,37.35,118.1c24.9,29.3,58.23,43.94,99.98,43.94,36.99,0,68.48-11.9,94.48-35.71,26-23.8,39-53.83,39-90.09h-124.69Z"/>
    <path class="cls-13" d="m1664.91,1479.31h-55.48v-54.93h55.48v54.93Zm-14.28-102.17h-28.57l-7.69-181.27v-107.67h46.14v107.67l-9.89,181.27Z"/>
    <path class="cls-13" d="m1797.29,1231.57l-52.18,71.96-27.47-21.97,52.73-73.06-83.5-26.92,11.54-32.96,81.3,26.37v-86.79h35.16v86.79l81.3-26.37,11.54,32.96-83.5,26.92,52.73,73.06-27.47,21.97-52.18-71.96Z"/>
  </g>
  <g class="cls-9">
    <path class="cls-13" d="m130.69,1204.88l-52.18,71.96-27.47-21.97,52.73-73.06-83.5-26.92,11.54-32.96,81.3,26.37v-86.79h35.16v86.79l81.3-26.37,11.54,32.96-83.5,26.92,52.73,73.06-27.47,21.97-52.19-71.96Z"/>
    <path class="cls-13" d="m515.75,1277.39l87.34-215.88h60.42v391.11h-45.04v-125.25c0-82.4.55-148.86,1.65-199.4-8.79,24.17-20.32,53.83-34.61,88.99l-96.68,235.66h-39.55l-97.23-235.66c-14.28-35.16-25.82-64.82-34.61-88.99,1.1,50.54,1.65,117,1.65,199.4v125.25h-45.04v-391.11h60.42l90.64,222.47c13.54,33.33,28.38,70.86,44.49,112.61,22.33-59.33,37.71-99.06,46.14-119.2Z"/>
    <path class="cls-13" d="m901.92,1152.69l57.13-91.19h52.18l-149.41,234.01v157.1h-46.14v-157.1l-149.41-234.01h52.73l57.68,91.74c24.9,38.82,45.77,72.51,62.62,101.07,23.43-39.55,44.31-73.42,62.62-101.62Z"/>
    <path class="cls-13" d="m1060.11,1061.51v349.36h196.66v41.75h-242.8v-391.11h46.14Z"/>
    <path class="cls-13" d="m1412.78,1293.32v-41.75h166.44v201.05h-37.9l-9.89-52.73c-28.93,41.02-71.6,61.52-127.99,61.52s-100.71-18.86-134.03-56.58c-34.06-37.35-51.09-86.6-51.09-147.77s16.84-110.22,50.54-148.32c33.32-37.35,78.36-56.03,135.13-56.03,46.5,0,84.96,12.45,115.36,37.35,30.39,24.91,48.89,58.05,55.48,99.43h-47.79c-4.76-28.92-18.68-52-41.75-69.21-22.34-16.84-49.44-25.27-81.3-25.27-41.75,0-75.08,14.65-99.98,43.95-24.91,29.3-37.35,68.66-37.35,118.1s12.44,88.81,37.35,118.1c24.9,29.3,58.23,43.94,99.98,43.94,36.99,0,68.48-11.9,94.48-35.71,26-23.8,39-53.83,39-90.09h-124.69Z"/>
    <path class="cls-13" d="m1664.91,1452.62h-55.48v-54.93h55.48v54.93Zm-14.28-102.17h-28.57l-7.69-181.27v-107.67h46.14v107.67l-9.89,181.27Z"/>
    <path class="cls-13" d="m1797.29,1204.88l-52.18,71.96-27.47-21.97,52.73-73.06-83.5-26.92,11.54-32.96,81.3,26.37v-86.79h35.16v86.79l81.3-26.37,11.54,32.96-83.5,26.92,52.73,73.06-27.47,21.97-52.18-71.96Z"/>
  </g>
  <g class="cls-2">
    <path class="cls-13" d="m130.69,1178.19l-52.18,71.96-27.47-21.97,52.73-73.06-83.5-26.92,11.54-32.96,81.3,26.37v-86.79h35.16v86.79l81.3-26.37,11.54,32.96-83.5,26.92,52.73,73.06-27.47,21.97-52.19-71.96Z"/>
    <path class="cls-13" d="m515.75,1250.7l87.34-215.88h60.42v391.11h-45.04v-125.25c0-82.4.55-148.86,1.65-199.4-8.79,24.17-20.32,53.83-34.61,88.99l-96.68,235.66h-39.55l-97.23-235.66c-14.28-35.16-25.82-64.82-34.61-88.99,1.1,50.54,1.65,117,1.65,199.4v125.25h-45.04v-391.11h60.42l90.64,222.47c13.54,33.33,28.38,70.86,44.49,112.61,22.33-59.33,37.71-99.06,46.14-119.2Z"/>
    <path class="cls-13" d="m901.92,1126.01l57.13-91.19h52.18l-149.41,234.01v157.1h-46.14v-157.1l-149.41-234.01h52.73l57.68,91.74c24.9,38.82,45.77,72.51,62.62,101.07,23.43-39.55,44.31-73.42,62.62-101.62Z"/>
    <path class="cls-13" d="m1060.11,1034.82v349.36h196.66v41.75h-242.8v-391.11h46.14Z"/>
    <path class="cls-13" d="m1412.78,1266.63v-41.75h166.44v201.05h-37.9l-9.89-52.73c-28.93,41.02-71.6,61.52-127.99,61.52s-100.71-18.86-134.03-56.58c-34.06-37.35-51.09-86.6-51.09-147.77s16.84-110.22,50.54-148.32c33.32-37.35,78.36-56.03,135.13-56.03,46.5,0,84.96,12.45,115.36,37.35,30.39,24.91,48.89,58.05,55.48,99.43h-47.79c-4.76-28.92-18.68-52-41.75-69.21-22.34-16.84-49.44-25.27-81.3-25.27-41.75,0-75.08,14.65-99.98,43.95-24.91,29.3-37.35,68.66-37.35,118.1s12.44,88.81,37.35,118.1c24.9,29.3,58.23,43.94,99.98,43.94,36.99,0,68.48-11.9,94.48-35.71,26-23.8,39-53.83,39-90.09h-124.69Z"/>
    <path class="cls-13" d="m1664.91,1425.93h-55.48v-54.93h55.48v54.93Zm-14.28-102.17h-28.57l-7.69-181.27v-107.67h46.14v107.67l-9.89,181.27Z"/>
    <path class="cls-13" d="m1797.29,1178.19l-52.18,71.96-27.47-21.97,52.73-73.06-83.5-26.92,11.54-32.96,81.3,26.37v-86.79h35.16v86.79l81.3-26.37,11.54,32.96-83.5,26.92,52.73,73.06-27.47,21.97-52.18-71.96Z"/>
  </g>
  <g class="cls-19">
    <path class="cls-13" d="m130.69,1151.5l-52.18,71.96-27.47-21.97,52.73-73.06-83.5-26.92,11.54-32.96,81.3,26.37v-86.79h35.16v86.79l81.3-26.37,11.54,32.96-83.5,26.92,52.73,73.06-27.47,21.97-52.19-71.96Z"/>
    <path class="cls-13" d="m515.75,1224.01l87.34-215.88h60.42v391.11h-45.04v-125.25c0-82.4.55-148.86,1.65-199.4-8.79,24.17-20.32,53.83-34.61,88.99l-96.68,235.66h-39.55l-97.23-235.66c-14.28-35.16-25.82-64.82-34.61-88.99,1.1,50.54,1.65,117,1.65,199.4v125.25h-45.04v-391.11h60.42l90.64,222.47c13.54,33.33,28.38,70.86,44.49,112.61,22.33-59.33,37.71-99.06,46.14-119.2Z"/>
    <path class="cls-13" d="m901.92,1099.32l57.13-91.19h52.18l-149.41,234.01v157.1h-46.14v-157.1l-149.41-234.01h52.73l57.68,91.74c24.9,38.82,45.77,72.51,62.62,101.07,23.43-39.55,44.31-73.42,62.62-101.62Z"/>
    <path class="cls-13" d="m1060.11,1008.13v349.36h196.66v41.75h-242.8v-391.11h46.14Z"/>
    <path class="cls-13" d="m1412.78,1239.94v-41.75h166.44v201.05h-37.9l-9.89-52.73c-28.93,41.02-71.6,61.52-127.99,61.52s-100.71-18.86-134.03-56.58c-34.06-37.35-51.09-86.6-51.09-147.77s16.84-110.22,50.54-148.32c33.32-37.35,78.36-56.03,135.13-56.03,46.5,0,84.96,12.45,115.36,37.35,30.39,24.91,48.89,58.05,55.48,99.43h-47.79c-4.76-28.92-18.68-52-41.75-69.21-22.34-16.84-49.44-25.27-81.3-25.27-41.75,0-75.08,14.65-99.98,43.95-24.91,29.3-37.35,68.66-37.35,118.1s12.44,88.81,37.35,118.1c24.9,29.3,58.23,43.94,99.98,43.94,36.99,0,68.48-11.9,94.48-35.71,26-23.8,39-53.83,39-90.09h-124.69Z"/>
    <path class="cls-13" d="m1664.91,1399.24h-55.48v-54.93h55.48v54.93Zm-14.28-102.17h-28.57l-7.69-181.27v-107.67h46.14v107.67l-9.89,181.27Z"/>
    <path class="cls-13" d="m1797.29,1151.5l-52.18,71.96-27.47-21.97,52.73-73.06-83.5-26.92,11.54-32.96,81.3,26.37v-86.79h35.16v86.79l81.3-26.37,11.54,32.96-83.5,26.92,52.73,73.06-27.47,21.97-52.18-71.96Z"/>
  </g>
  <g class="cls-20">
    <path class="cls-13" d="m130.69,1124.81l-52.18,71.96-27.47-21.97,52.73-73.06-83.5-26.92,11.54-32.96,81.3,26.37v-86.79h35.16v86.79l81.3-26.37,11.54,32.96-83.5,26.92,52.73,73.06-27.47,21.97-52.19-71.96Z"/>
    <path class="cls-13" d="m515.75,1197.32l87.34-215.88h60.42v391.11h-45.04v-125.25c0-82.4.55-148.86,1.65-199.4-8.79,24.17-20.32,53.83-34.61,88.99l-96.68,235.66h-39.55l-97.23-235.66c-14.28-35.16-25.82-64.82-34.61-88.99,1.1,50.54,1.65,117,1.65,199.4v125.25h-45.04v-391.11h60.42l90.64,222.47c13.54,33.33,28.38,70.86,44.49,112.61,22.33-59.33,37.71-99.06,46.14-119.2Z"/>
    <path class="cls-13" d="m901.92,1072.63l57.13-91.19h52.18l-149.41,234.01v157.1h-46.14v-157.1l-149.41-234.01h52.73l57.68,91.74c24.9,38.82,45.77,72.51,62.62,101.07,23.43-39.55,44.31-73.42,62.62-101.62Z"/>
    <path class="cls-13" d="m1060.11,981.44v349.36h196.66v41.75h-242.8v-391.11h46.14Z"/>
    <path class="cls-13" d="m1412.78,1213.25v-41.75h166.44v201.05h-37.9l-9.89-52.73c-28.93,41.02-71.6,61.52-127.99,61.52s-100.71-18.86-134.03-56.58c-34.06-37.35-51.09-86.6-51.09-147.77s16.84-110.22,50.54-148.32c33.32-37.35,78.36-56.03,135.13-56.03,46.5,0,84.96,12.45,115.36,37.35,30.39,24.91,48.89,58.05,55.48,99.43h-47.79c-4.76-28.92-18.68-52-41.75-69.21-22.34-16.84-49.44-25.27-81.3-25.27-41.75,0-75.08,14.65-99.98,43.95-24.91,29.3-37.35,68.66-37.35,118.1s12.44,88.81,37.35,118.1c24.9,29.3,58.23,43.94,99.98,43.94,36.99,0,68.48-11.9,94.48-35.71,26-23.8,39-53.83,39-90.09h-124.69Z"/>
    <path class="cls-13" d="m1664.91,1372.55h-55.48v-54.93h55.48v54.93Zm-14.28-102.17h-28.57l-7.69-181.27v-107.67h46.14v107.67l-9.89,181.27Z"/>
    <path class="cls-13" d="m1797.29,1124.81l-52.18,71.96-27.47-21.97,52.73-73.06-83.5-26.92,11.54-32.96,81.3,26.37v-86.79h35.16v86.79l81.3-26.37,11.54,32.96-83.5,26.92,52.73,73.06-27.47,21.97-52.18-71.96Z"/>
  </g>
  <g class="cls-10">
    <path class="cls-13" d="m130.69,1098.12l-52.18,71.96-27.47-21.97,52.73-73.06-83.5-26.92,11.54-32.96,81.3,26.37v-86.79h35.16v86.79l81.3-26.37,11.54,32.96-83.5,26.92,52.73,73.06-27.47,21.97-52.19-71.96Z"/>
    <path class="cls-13" d="m515.75,1170.63l87.34-215.88h60.42v391.11h-45.04v-125.25c0-82.4.55-148.86,1.65-199.4-8.79,24.17-20.32,53.83-34.61,88.99l-96.68,235.66h-39.55l-97.23-235.66c-14.28-35.16-25.82-64.82-34.61-88.99,1.1,50.54,1.65,117,1.65,199.4v125.25h-45.04v-391.11h60.42l90.64,222.47c13.54,33.33,28.38,70.86,44.49,112.61,22.33-59.33,37.71-99.06,46.14-119.2Z"/>
    <path class="cls-13" d="m901.92,1045.94l57.13-91.19h52.18l-149.41,234.01v157.1h-46.14v-157.1l-149.41-234.01h52.73l57.68,91.74c24.9,38.82,45.77,72.51,62.62,101.07,23.43-39.55,44.31-73.42,62.62-101.62Z"/>
    <path class="cls-13" d="m1060.11,954.75v349.36h196.66v41.75h-242.8v-391.11h46.14Z"/>
    <path class="cls-13" d="m1412.78,1186.56v-41.75h166.44v201.05h-37.9l-9.89-52.73c-28.93,41.02-71.6,61.52-127.99,61.52s-100.71-18.86-134.03-56.58c-34.06-37.35-51.09-86.6-51.09-147.77s16.84-110.22,50.54-148.32c33.32-37.35,78.36-56.03,135.13-56.03,46.5,0,84.96,12.45,115.36,37.35,30.39,24.91,48.89,58.05,55.48,99.43h-47.79c-4.76-28.92-18.68-52-41.75-69.21-22.34-16.84-49.44-25.27-81.3-25.27-41.75,0-75.08,14.65-99.98,43.95-24.91,29.3-37.35,68.66-37.35,118.1s12.44,88.81,37.35,118.1c24.9,29.3,58.23,43.94,99.98,43.94,36.99,0,68.48-11.9,94.48-35.71,26-23.8,39-53.83,39-90.09h-124.69Z"/>
    <path class="cls-13" d="m1664.91,1345.86h-55.48v-54.93h55.48v54.93Zm-14.28-102.17h-28.57l-7.69-181.27v-107.67h46.14v107.67l-9.89,181.27Z"/>
    <path class="cls-13" d="m1797.29,1098.12l-52.18,71.96-27.47-21.97,52.73-73.06-83.5-26.92,11.54-32.96,81.3,26.37v-86.79h35.16v86.79l81.3-26.37,11.54,32.96-83.5,26.92,52.73,73.06-27.47,21.97-52.18-71.96Z"/>
  </g>
  <g class="cls-4">
    <path class="cls-13" d="m130.69,1071.43l-52.18,71.96-27.47-21.97,52.73-73.06-83.5-26.92,11.54-32.96,81.3,26.37v-86.79h35.16v86.79l81.3-26.37,11.54,32.96-83.5,26.92,52.73,73.06-27.47,21.97-52.19-71.96Z"/>
    <path class="cls-13" d="m515.75,1143.94l87.34-215.88h60.42v391.11h-45.04v-125.25c0-82.4.55-148.86,1.65-199.4-8.79,24.17-20.32,53.83-34.61,88.99l-96.68,235.66h-39.55l-97.23-235.66c-14.28-35.16-25.82-64.82-34.61-88.99,1.1,50.54,1.65,117,1.65,199.4v125.25h-45.04v-391.11h60.42l90.64,222.47c13.54,33.33,28.38,70.86,44.49,112.61,22.33-59.33,37.71-99.06,46.14-119.2Z"/>
    <path class="cls-13" d="m901.92,1019.25l57.13-91.19h52.18l-149.41,234.01v157.1h-46.14v-157.1l-149.41-234.01h52.73l57.68,91.74c24.9,38.82,45.77,72.51,62.62,101.07,23.43-39.55,44.31-73.42,62.62-101.62Z"/>
    <path class="cls-13" d="m1060.11,928.06v349.36h196.66v41.75h-242.8v-391.11h46.14Z"/>
    <path class="cls-13" d="m1412.78,1159.87v-41.75h166.44v201.05h-37.9l-9.89-52.73c-28.93,41.02-71.6,61.52-127.99,61.52s-100.71-18.86-134.03-56.58c-34.06-37.35-51.09-86.6-51.09-147.77s16.84-110.22,50.54-148.32c33.32-37.35,78.36-56.03,135.13-56.03,46.5,0,84.96,12.45,115.36,37.35,30.39,24.91,48.89,58.05,55.48,99.43h-47.79c-4.76-28.92-18.68-52-41.75-69.21-22.34-16.84-49.44-25.27-81.3-25.27-41.75,0-75.08,14.65-99.98,43.95-24.91,29.3-37.35,68.66-37.35,118.1s12.44,88.81,37.35,118.1c24.9,29.3,58.23,43.94,99.98,43.94,36.99,0,68.48-11.9,94.48-35.71,26-23.8,39-53.83,39-90.09h-124.69Z"/>
    <path class="cls-13" d="m1664.91,1319.17h-55.48v-54.93h55.48v54.93Zm-14.28-102.17h-28.57l-7.69-181.27v-107.67h46.14v107.67l-9.89,181.27Z"/>
    <path class="cls-13" d="m1797.29,1071.43l-52.18,71.96-27.47-21.97,52.73-73.06-83.5-26.92,11.54-32.96,81.3,26.37v-86.79h35.16v86.79l81.3-26.37,11.54,32.96-83.5,26.92,52.73,73.06-27.47,21.97-52.18-71.96Z"/>
  </g>
  <g class="cls-11">
    <path class="cls-13" d="m130.69,1044.74l-52.18,71.96-27.47-21.97,52.73-73.06-83.5-26.92,11.54-32.96,81.3,26.37v-86.79h35.16v86.79l81.3-26.37,11.54,32.96-83.5,26.92,52.73,73.06-27.47,21.97-52.19-71.96Z"/>
    <path class="cls-13" d="m515.75,1117.25l87.34-215.88h60.42v391.11h-45.04v-125.25c0-82.4.55-148.86,1.65-199.4-8.79,24.17-20.32,53.83-34.61,88.99l-96.68,235.66h-39.55l-97.23-235.66c-14.28-35.16-25.82-64.82-34.61-88.99,1.1,50.54,1.65,117,1.65,199.4v125.25h-45.04v-391.11h60.42l90.64,222.47c13.54,33.33,28.38,70.86,44.49,112.61,22.33-59.33,37.71-99.06,46.14-119.2Z"/>
    <path class="cls-13" d="m901.92,992.56l57.13-91.19h52.18l-149.41,234.01v157.1h-46.14v-157.1l-149.41-234.01h52.73l57.68,91.74c24.9,38.82,45.77,72.51,62.62,101.07,23.43-39.55,44.31-73.42,62.62-101.62Z"/>
    <path class="cls-13" d="m1060.11,901.37v349.36h196.66v41.75h-242.8v-391.11h46.14Z"/>
    <path class="cls-13" d="m1412.78,1133.18v-41.75h166.44v201.05h-37.9l-9.89-52.73c-28.93,41.02-71.6,61.52-127.99,61.52s-100.71-18.86-134.03-56.58c-34.06-37.35-51.09-86.6-51.09-147.77s16.84-110.22,50.54-148.32c33.32-37.35,78.36-56.03,135.13-56.03,46.5,0,84.96,12.45,115.36,37.35,30.39,24.91,48.89,58.05,55.48,99.43h-47.79c-4.76-28.92-18.68-52-41.75-69.21-22.34-16.84-49.44-25.27-81.3-25.27-41.75,0-75.08,14.65-99.98,43.95-24.91,29.3-37.35,68.66-37.35,118.1s12.44,88.81,37.35,118.1c24.9,29.3,58.23,43.94,99.98,43.94,36.99,0,68.48-11.9,94.48-35.71,26-23.8,39-53.83,39-90.09h-124.69Z"/>
    <path class="cls-13" d="m1664.91,1292.48h-55.48v-54.93h55.48v54.93Zm-14.28-102.17h-28.57l-7.69-181.27v-107.67h46.14v107.67l-9.89,181.27Z"/>
    <path class="cls-13" d="m1797.29,1044.74l-52.18,71.96-27.47-21.97,52.73-73.06-83.5-26.92,11.54-32.96,81.3,26.37v-86.79h35.16v86.79l81.3-26.37,11.54,32.96-83.5,26.92,52.73,73.06-27.47,21.97-52.18-71.96Z"/>
  </g>
  <g class="cls-27">
    <path class="cls-13" d="m130.69,1018.05l-52.18,71.96-27.47-21.97,52.73-73.06-83.5-26.92,11.54-32.96,81.3,26.37v-86.79h35.16v86.79l81.3-26.37,11.54,32.96-83.5,26.92,52.73,73.06-27.47,21.97-52.19-71.96Z"/>
    <path class="cls-13" d="m515.75,1090.56l87.34-215.88h60.42v391.11h-45.04v-125.25c0-82.4.55-148.86,1.65-199.4-8.79,24.17-20.32,53.83-34.61,88.99l-96.68,235.66h-39.55l-97.23-235.66c-14.28-35.16-25.82-64.82-34.61-88.99,1.1,50.54,1.65,117,1.65,199.4v125.25h-45.04v-391.11h60.42l90.64,222.47c13.54,33.33,28.38,70.86,44.49,112.61,22.33-59.33,37.71-99.06,46.14-119.2Z"/>
    <path class="cls-13" d="m901.92,965.87l57.13-91.19h52.18l-149.41,234.01v157.1h-46.14v-157.1l-149.41-234.01h52.73l57.68,91.74c24.9,38.82,45.77,72.51,62.62,101.07,23.43-39.55,44.31-73.42,62.62-101.62Z"/>
    <path class="cls-13" d="m1060.11,874.68v349.36h196.66v41.75h-242.8v-391.11h46.14Z"/>
    <path class="cls-13" d="m1412.78,1106.49v-41.75h166.44v201.05h-37.9l-9.89-52.73c-28.93,41.02-71.6,61.52-127.99,61.52s-100.71-18.86-134.03-56.58c-34.06-37.35-51.09-86.6-51.09-147.77s16.84-110.22,50.54-148.32c33.32-37.35,78.36-56.03,135.13-56.03,46.5,0,84.96,12.45,115.36,37.35,30.39,24.91,48.89,58.05,55.48,99.43h-47.79c-4.76-28.92-18.68-52-41.75-69.21-22.34-16.84-49.44-25.27-81.3-25.27-41.75,0-75.08,14.65-99.98,43.95-24.91,29.3-37.35,68.66-37.35,118.1s12.44,88.81,37.35,118.1c24.9,29.3,58.23,43.94,99.98,43.94,36.99,0,68.48-11.9,94.48-35.71,26-23.8,39-53.83,39-90.09h-124.69Z"/>
    <path class="cls-13" d="m1664.91,1265.79h-55.48v-54.93h55.48v54.93Zm-14.28-102.17h-28.57l-7.69-181.27v-107.67h46.14v107.67l-9.89,181.27Z"/>
    <path class="cls-13" d="m1797.29,1018.05l-52.18,71.96-27.47-21.97,52.73-73.06-83.5-26.92,11.54-32.96,81.3,26.37v-86.79h35.16v86.79l81.3-26.37,11.54,32.96-83.5,26.92,52.73,73.06-27.47,21.97-52.18-71.96Z"/>
  </g>
  <g class="cls-3">
    <path class="cls-13" d="m130.69,991.36l-52.18,71.96-27.47-21.97,52.73-73.06-83.5-26.92,11.54-32.96,81.3,26.37v-86.79h35.16v86.79l81.3-26.37,11.54,32.96-83.5,26.92,52.73,73.06-27.47,21.97-52.19-71.96Z"/>
    <path class="cls-13" d="m515.75,1063.87l87.34-215.88h60.42v391.11h-45.04v-125.25c0-82.4.55-148.86,1.65-199.4-8.79,24.17-20.32,53.83-34.61,88.99l-96.68,235.66h-39.55l-97.23-235.66c-14.28-35.16-25.82-64.82-34.61-88.99,1.1,50.54,1.65,117,1.65,199.4v125.25h-45.04v-391.11h60.42l90.64,222.47c13.54,33.33,28.38,70.86,44.49,112.61,22.33-59.33,37.71-99.06,46.14-119.2Z"/>
    <path class="cls-13" d="m901.92,939.18l57.13-91.19h52.18l-149.41,234.01v157.1h-46.14v-157.1l-149.41-234.01h52.73l57.68,91.74c24.9,38.82,45.77,72.51,62.62,101.07,23.43-39.55,44.31-73.42,62.62-101.62Z"/>
    <path class="cls-13" d="m1060.11,847.99v349.36h196.66v41.75h-242.8v-391.11h46.14Z"/>
    <path class="cls-13" d="m1412.78,1079.8v-41.75h166.44v201.05h-37.9l-9.89-52.73c-28.93,41.02-71.6,61.52-127.99,61.52s-100.71-18.86-134.03-56.58c-34.06-37.35-51.09-86.6-51.09-147.77s16.84-110.22,50.54-148.32c33.32-37.35,78.36-56.03,135.13-56.03,46.5,0,84.96,12.45,115.36,37.35,30.39,24.91,48.89,58.05,55.48,99.43h-47.79c-4.76-28.92-18.68-52-41.75-69.21-22.34-16.84-49.44-25.27-81.3-25.27-41.75,0-75.08,14.65-99.98,43.95-24.91,29.3-37.35,68.66-37.35,118.1s12.44,88.81,37.35,118.1c24.9,29.3,58.23,43.94,99.98,43.94,36.99,0,68.48-11.9,94.48-35.71,26-23.8,39-53.83,39-90.09h-124.69Z"/>
    <path class="cls-13" d="m1664.91,1239.1h-55.48v-54.93h55.48v54.93Zm-14.28-102.17h-28.57l-7.69-181.27v-107.67h46.14v107.67l-9.89,181.27Z"/>
    <path class="cls-13" d="m1797.29,991.36l-52.18,71.96-27.47-21.97,52.73-73.06-83.5-26.92,11.54-32.96,81.3,26.37v-86.79h35.16v86.79l81.3-26.37,11.54,32.96-83.5,26.92,52.73,73.06-27.47,21.97-52.18-71.96Z"/>
  </g>
  <g class="cls-26">
    <path class="cls-13" d="m130.69,964.67l-52.18,71.96-27.47-21.97,52.73-73.06-83.5-26.92,11.54-32.96,81.3,26.37v-86.79h35.16v86.79l81.3-26.37,11.54,32.96-83.5,26.92,52.73,73.06-27.47,21.97-52.19-71.96Z"/>
    <path class="cls-13" d="m515.75,1037.18l87.34-215.88h60.42v391.11h-45.04v-125.25c0-82.4.55-148.86,1.65-199.4-8.79,24.17-20.32,53.83-34.61,88.99l-96.68,235.66h-39.55l-97.23-235.66c-14.28-35.16-25.82-64.82-34.61-88.99,1.1,50.54,1.65,117,1.65,199.4v125.25h-45.04v-391.11h60.42l90.64,222.47c13.54,33.33,28.38,70.86,44.49,112.61,22.33-59.33,37.71-99.06,46.14-119.2Z"/>
    <path class="cls-13" d="m901.92,912.49l57.13-91.19h52.18l-149.41,234.01v157.1h-46.14v-157.1l-149.41-234.01h52.73l57.68,91.74c24.9,38.82,45.77,72.51,62.62,101.07,23.43-39.55,44.31-73.42,62.62-101.62Z"/>
    <path class="cls-13" d="m1060.11,821.3v349.36h196.66v41.75h-242.8v-391.11h46.14Z"/>
    <path class="cls-13" d="m1412.78,1053.11v-41.75h166.44v201.05h-37.9l-9.89-52.73c-28.93,41.02-71.6,61.52-127.99,61.52s-100.71-18.86-134.03-56.58c-34.06-37.35-51.09-86.6-51.09-147.77s16.84-110.22,50.54-148.32c33.32-37.35,78.36-56.03,135.13-56.03,46.5,0,84.96,12.45,115.36,37.35,30.39,24.91,48.89,58.05,55.48,99.43h-47.79c-4.76-28.92-18.68-52-41.75-69.21-22.34-16.84-49.44-25.27-81.3-25.27-41.75,0-75.08,14.65-99.98,43.95-24.91,29.3-37.35,68.66-37.35,118.1s12.44,88.81,37.35,118.1c24.9,29.3,58.23,43.94,99.98,43.94,36.99,0,68.48-11.9,94.48-35.71,26-23.8,39-53.83,39-90.09h-124.69Z"/>
    <path class="cls-13" d="m1664.91,1212.41h-55.48v-54.93h55.48v54.93Zm-14.28-102.17h-28.57l-7.69-181.27v-107.67h46.14v107.67l-9.89,181.27Z"/>
    <path class="cls-13" d="m1797.29,964.67l-52.18,71.96-27.47-21.97,52.73-73.06-83.5-26.92,11.54-32.96,81.3,26.37v-86.79h35.16v86.79l81.3-26.37,11.54,32.96-83.5,26.92,52.73,73.06-27.47,21.97-52.18-71.96Z"/>
  </g>
  <g class="cls-14">
    <path class="cls-13" d="m130.69,937.98l-52.18,71.96-27.47-21.97,52.73-73.06-83.5-26.92,11.54-32.96,81.3,26.37v-86.79h35.16v86.79l81.3-26.37,11.54,32.96-83.5,26.92,52.73,73.06-27.47,21.97-52.19-71.96Z"/>
    <path class="cls-13" d="m515.75,1010.49l87.34-215.88h60.42v391.11h-45.04v-125.25c0-82.4.55-148.86,1.65-199.4-8.79,24.17-20.32,53.83-34.61,88.99l-96.68,235.66h-39.55l-97.23-235.66c-14.28-35.16-25.82-64.82-34.61-88.99,1.1,50.54,1.65,117,1.65,199.4v125.25h-45.04v-391.11h60.42l90.64,222.47c13.54,33.33,28.38,70.86,44.49,112.61,22.33-59.33,37.71-99.06,46.14-119.2Z"/>
    <path class="cls-13" d="m901.92,885.8l57.13-91.19h52.18l-149.41,234.01v157.1h-46.14v-157.1l-149.41-234.01h52.73l57.68,91.74c24.9,38.82,45.77,72.51,62.62,101.07,23.43-39.55,44.31-73.42,62.62-101.62Z"/>
    <path class="cls-13" d="m1060.11,794.61v349.36h196.66v41.75h-242.8v-391.11h46.14Z"/>
    <path class="cls-13" d="m1412.78,1026.42v-41.75h166.44v201.05h-37.9l-9.89-52.73c-28.93,41.02-71.6,61.52-127.99,61.52s-100.71-18.86-134.03-56.58c-34.06-37.35-51.09-86.6-51.09-147.77s16.84-110.22,50.54-148.32c33.32-37.35,78.36-56.03,135.13-56.03,46.5,0,84.96,12.45,115.36,37.35,30.39,24.91,48.89,58.05,55.48,99.43h-47.79c-4.76-28.92-18.68-52-41.75-69.21-22.34-16.84-49.44-25.27-81.3-25.27-41.75,0-75.08,14.65-99.98,43.95-24.91,29.3-37.35,68.66-37.35,118.1s12.44,88.81,37.35,118.1c24.9,29.3,58.23,43.94,99.98,43.94,36.99,0,68.48-11.9,94.48-35.71,26-23.8,39-53.83,39-90.09h-124.69Z"/>
    <path class="cls-13" d="m1664.91,1185.72h-55.48v-54.93h55.48v54.93Zm-14.28-102.17h-28.57l-7.69-181.27v-107.67h46.14v107.67l-9.89,181.27Z"/>
    <path class="cls-13" d="m1797.29,937.98l-52.18,71.96-27.47-21.97,52.73-73.06-83.5-26.92,11.54-32.96,81.3,26.37v-86.79h35.16v86.79l81.3-26.37,11.54,32.96-83.5,26.92,52.73,73.06-27.47,21.97-52.18-71.96Z"/>
  </g>
  <g class="cls-6">
    <path class="cls-13" d="m130.69,911.29l-52.18,71.96-27.47-21.97,52.73-73.06-83.5-26.92,11.54-32.96,81.3,26.37v-86.79h35.16v86.79l81.3-26.37,11.54,32.96-83.5,26.92,52.73,73.06-27.47,21.97-52.19-71.96Z"/>
    <path class="cls-13" d="m515.75,983.8l87.34-215.88h60.42v391.11h-45.04v-125.25c0-82.4.55-148.86,1.65-199.4-8.79,24.17-20.32,53.83-34.61,88.99l-96.68,235.66h-39.55l-97.23-235.66c-14.28-35.16-25.82-64.82-34.61-88.99,1.1,50.54,1.65,117,1.65,199.4v125.25h-45.04v-391.11h60.42l90.64,222.47c13.54,33.33,28.38,70.86,44.49,112.61,22.33-59.33,37.71-99.06,46.14-119.2Z"/>
    <path class="cls-13" d="m901.92,859.11l57.13-91.19h52.18l-149.41,234.01v157.1h-46.14v-157.1l-149.41-234.01h52.73l57.68,91.74c24.9,38.82,45.77,72.51,62.62,101.07,23.43-39.55,44.31-73.42,62.62-101.62Z"/>
    <path class="cls-13" d="m1060.11,767.92v349.36h196.66v41.75h-242.8v-391.11h46.14Z"/>
    <path class="cls-13" d="m1412.78,999.73v-41.75h166.44v201.05h-37.9l-9.89-52.73c-28.93,41.02-71.6,61.52-127.99,61.52s-100.71-18.86-134.03-56.58c-34.06-37.35-51.09-86.6-51.09-147.77s16.84-110.22,50.54-148.32c33.32-37.35,78.36-56.03,135.13-56.03,46.5,0,84.96,12.45,115.36,37.35,30.39,24.91,48.89,58.05,55.48,99.43h-47.79c-4.76-28.92-18.68-52-41.75-69.21-22.34-16.84-49.44-25.27-81.3-25.27-41.75,0-75.08,14.65-99.98,43.95-24.91,29.3-37.35,68.66-37.35,118.1s12.44,88.81,37.35,118.1c24.9,29.3,58.23,43.94,99.98,43.94,36.99,0,68.48-11.9,94.48-35.71,26-23.8,39-53.83,39-90.09h-124.69Z"/>
    <path class="cls-13" d="m1664.91,1159.03h-55.48v-54.93h55.48v54.93Zm-14.28-102.17h-28.57l-7.69-181.27v-107.67h46.14v107.67l-9.89,181.27Z"/>
    <path class="cls-13" d="m1797.29,911.29l-52.18,71.96-27.47-21.97,52.73-73.06-83.5-26.92,11.54-32.96,81.3,26.37v-86.79h35.16v86.79l81.3-26.37,11.54,32.96-83.5,26.92,52.73,73.06-27.47,21.97-52.18-71.96Z"/>
  </g>
  <g class="cls-17">
    <path class="cls-13" d="m130.69,884.6l-52.18,71.96-27.47-21.97,52.73-73.06-83.5-26.92,11.54-32.96,81.3,26.37v-86.79h35.16v86.79l81.3-26.37,11.54,32.96-83.5,26.92,52.73,73.06-27.47,21.97-52.19-71.96Z"/>
    <path class="cls-13" d="m515.75,957.11l87.34-215.88h60.42v391.11h-45.04v-125.25c0-82.4.55-148.86,1.65-199.4-8.79,24.17-20.32,53.83-34.61,88.99l-96.68,235.66h-39.55l-97.23-235.66c-14.28-35.16-25.82-64.82-34.61-88.99,1.1,50.54,1.65,117,1.65,199.4v125.25h-45.04v-391.11h60.42l90.64,222.47c13.54,33.33,28.38,70.86,44.49,112.61,22.33-59.33,37.71-99.06,46.14-119.2Z"/>
    <path class="cls-13" d="m901.92,832.42l57.13-91.19h52.18l-149.41,234.01v157.1h-46.14v-157.1l-149.41-234.01h52.73l57.68,91.74c24.9,38.82,45.77,72.51,62.62,101.07,23.43-39.55,44.31-73.42,62.62-101.62Z"/>
    <path class="cls-13" d="m1060.11,741.23v349.36h196.66v41.75h-242.8v-391.11h46.14Z"/>
    <path class="cls-13" d="m1412.78,973.04v-41.75h166.44v201.05h-37.9l-9.89-52.73c-28.93,41.02-71.6,61.52-127.99,61.52s-100.71-18.86-134.03-56.58c-34.06-37.35-51.09-86.6-51.09-147.77s16.84-110.22,50.54-148.32c33.32-37.35,78.36-56.03,135.13-56.03,46.5,0,84.96,12.45,115.36,37.35,30.39,24.91,48.89,58.05,55.48,99.43h-47.79c-4.76-28.92-18.68-52-41.75-69.21-22.34-16.84-49.44-25.27-81.3-25.27-41.75,0-75.08,14.65-99.98,43.95-24.91,29.3-37.35,68.66-37.35,118.1s12.44,88.81,37.35,118.1c24.9,29.3,58.23,43.94,99.98,43.94,36.99,0,68.48-11.9,94.48-35.71,26-23.8,39-53.83,39-90.09h-124.69Z"/>
    <path class="cls-13" d="m1664.91,1132.34h-55.48v-54.93h55.48v54.93Zm-14.28-102.17h-28.57l-7.69-181.27v-107.67h46.14v107.67l-9.89,181.27Z"/>
    <path class="cls-13" d="m1797.29,884.6l-52.18,71.96-27.47-21.97,52.73-73.06-83.5-26.92,11.54-32.96,81.3,26.37v-86.79h35.16v86.79l81.3-26.37,11.54,32.96-83.5,26.92,52.73,73.06-27.47,21.97-52.18-71.96Z"/>
  </g>
  <g id="_25" data-name="25" class="cls-23">
    <path class="cls-13" d="m130.69,857.91l-52.18,71.96-27.47-21.97,52.73-73.06-83.5-26.92,11.54-32.96,81.3,26.37v-86.79h35.16v86.79l81.3-26.37,11.54,32.96-83.5,26.92,52.73,73.06-27.47,21.97-52.19-71.96Z"/>
    <path class="cls-13" d="m515.75,930.42l87.34-215.88h60.42v391.11h-45.04v-125.25c0-82.4.55-148.86,1.65-199.4-8.79,24.17-20.32,53.83-34.61,88.99l-96.68,235.66h-39.55l-97.23-235.66c-14.28-35.16-25.82-64.82-34.61-88.99,1.1,50.54,1.65,117,1.65,199.4v125.25h-45.04v-391.11h60.42l90.64,222.47c13.54,33.33,28.38,70.86,44.49,112.61,22.33-59.33,37.71-99.06,46.14-119.2Z"/>
    <path class="cls-13" d="m901.92,805.73l57.13-91.19h52.18l-149.41,234.01v157.1h-46.14v-157.1l-149.41-234.01h52.73l57.68,91.74c24.9,38.82,45.77,72.51,62.62,101.07,23.43-39.55,44.31-73.42,62.62-101.62Z"/>
    <path class="cls-13" d="m1060.11,714.54v349.36h196.66v41.75h-242.8v-391.11h46.14Z"/>
    <path class="cls-13" d="m1412.78,946.35v-41.75h166.44v201.05h-37.9l-9.89-52.73c-28.93,41.02-71.6,61.52-127.99,61.52s-100.71-18.86-134.03-56.58c-34.06-37.35-51.09-86.6-51.09-147.77s16.84-110.22,50.54-148.32c33.32-37.35,78.36-56.03,135.13-56.03,46.5,0,84.96,12.45,115.36,37.35,30.39,24.91,48.89,58.05,55.48,99.43h-47.79c-4.76-28.92-18.68-52-41.75-69.21-22.34-16.84-49.44-25.27-81.3-25.27-41.75,0-75.08,14.65-99.98,43.95-24.91,29.3-37.35,68.66-37.35,118.1s12.44,88.81,37.35,118.1c24.9,29.3,58.23,43.94,99.98,43.94,36.99,0,68.48-11.9,94.48-35.71,26-23.8,39-53.83,39-90.09h-124.69Z"/>
    <path class="cls-13" d="m1664.91,1105.65h-55.48v-54.93h55.48v54.93Zm-14.28-102.17h-28.57l-7.69-181.27v-107.67h46.14v107.67l-9.89,181.27Z"/>
    <path class="cls-13" d="m1797.29,857.91l-52.18,71.96-27.47-21.97,52.73-73.06-83.5-26.92,11.54-32.96,81.3,26.37v-86.79h35.16v86.79l81.3-26.37,11.54,32.96-83.5,26.92,52.73,73.06-27.47,21.97-52.18-71.96Z"/>
  </g>
  <g class="cls-24">
    <path class="cls-13" d="m130.69,831.22l-52.18,71.96-27.47-21.97,52.73-73.06-83.5-26.92,11.54-32.96,81.3,26.37v-86.79h35.16v86.79l81.3-26.37,11.54,32.96-83.5,26.92,52.73,73.06-27.47,21.97-52.19-71.96Z"/>
    <path class="cls-13" d="m515.75,903.73l87.34-215.88h60.42v391.11h-45.04v-125.25c0-82.4.55-148.86,1.65-199.4-8.79,24.17-20.32,53.83-34.61,88.99l-96.68,235.66h-39.55l-97.23-235.66c-14.28-35.16-25.82-64.82-34.61-88.99,1.1,50.54,1.65,117,1.65,199.4v125.25h-45.04v-391.11h60.42l90.64,222.47c13.54,33.33,28.38,70.86,44.49,112.61,22.33-59.33,37.71-99.06,46.14-119.2Z"/>
    <path class="cls-13" d="m901.92,779.04l57.13-91.19h52.18l-149.41,234.01v157.1h-46.14v-157.1l-149.41-234.01h52.73l57.68,91.74c24.9,38.82,45.77,72.51,62.62,101.07,23.43-39.55,44.31-73.42,62.62-101.62Z"/>
    <path class="cls-13" d="m1060.11,687.85v349.36h196.66v41.75h-242.8v-391.11h46.14Z"/>
    <path class="cls-13" d="m1412.78,919.66v-41.75h166.44v201.05h-37.9l-9.89-52.73c-28.93,41.02-71.6,61.52-127.99,61.52s-100.71-18.86-134.03-56.58c-34.06-37.35-51.09-86.6-51.09-147.77s16.84-110.22,50.54-148.32c33.32-37.35,78.36-56.03,135.13-56.03,46.5,0,84.96,12.45,115.36,37.35,30.39,24.91,48.89,58.05,55.48,99.43h-47.79c-4.76-28.92-18.68-52-41.75-69.21-22.34-16.84-49.44-25.27-81.3-25.27-41.75,0-75.08,14.65-99.98,43.95-24.91,29.3-37.35,68.66-37.35,118.1s12.44,88.81,37.35,118.1c24.9,29.3,58.23,43.94,99.98,43.94,36.99,0,68.48-11.9,94.48-35.71,26-23.8,39-53.83,39-90.09h-124.69Z"/>
    <path class="cls-13" d="m1664.91,1078.96h-55.48v-54.93h55.48v54.93Zm-14.28-102.17h-28.57l-7.69-181.27v-107.67h46.14v107.67l-9.89,181.27Z"/>
    <path class="cls-13" d="m1797.29,831.22l-52.18,71.96-27.47-21.97,52.73-73.06-83.5-26.92,11.54-32.96,81.3,26.37v-86.79h35.16v86.79l81.3-26.37,11.54,32.96-83.5,26.92,52.73,73.06-27.47,21.97-52.18-71.96Z"/>
  </g>
  <g class="cls-23">
    <path class="cls-13" d="m130.69,804.53l-52.18,71.96-27.47-21.97,52.73-73.06-83.5-26.92,11.54-32.96,81.3,26.37v-86.79h35.16v86.79l81.3-26.37,11.54,32.96-83.5,26.92,52.73,73.06-27.47,21.97-52.19-71.96Z"/>
    <path class="cls-13" d="m515.75,877.04l87.34-215.88h60.42v391.11h-45.04v-125.25c0-82.4.55-148.86,1.65-199.4-8.79,24.17-20.32,53.83-34.61,88.99l-96.68,235.66h-39.55l-97.23-235.66c-14.28-35.16-25.82-64.82-34.61-88.99,1.1,50.54,1.65,117,1.65,199.4v125.25h-45.04v-391.11h60.42l90.64,222.47c13.54,33.33,28.38,70.86,44.49,112.61,22.33-59.33,37.71-99.06,46.14-119.2Z"/>
    <path class="cls-13" d="m901.92,752.35l57.13-91.19h52.18l-149.41,234.01v157.1h-46.14v-157.1l-149.41-234.01h52.73l57.68,91.74c24.9,38.82,45.77,72.51,62.62,101.07,23.43-39.55,44.31-73.42,62.62-101.62Z"/>
    <path class="cls-13" d="m1060.11,661.16v349.36h196.66v41.75h-242.8v-391.11h46.14Z"/>
    <path class="cls-13" d="m1412.78,892.97v-41.75h166.44v201.05h-37.9l-9.89-52.73c-28.93,41.02-71.6,61.52-127.99,61.52s-100.71-18.86-134.03-56.58c-34.06-37.35-51.09-86.6-51.09-147.77s16.84-110.22,50.54-148.32c33.32-37.35,78.36-56.03,135.13-56.03,46.5,0,84.96,12.45,115.36,37.35,30.39,24.91,48.89,58.05,55.48,99.43h-47.79c-4.76-28.92-18.68-52-41.75-69.21-22.34-16.84-49.44-25.27-81.3-25.27-41.75,0-75.08,14.65-99.98,43.95-24.91,29.3-37.35,68.66-37.35,118.1s12.44,88.81,37.35,118.1c24.9,29.3,58.23,43.94,99.98,43.94,36.99,0,68.48-11.9,94.48-35.71,26-23.8,39-53.83,39-90.09h-124.69Z"/>
    <path class="cls-13" d="m1664.91,1052.27h-55.48v-54.93h55.48v54.93Zm-14.28-102.17h-28.57l-7.69-181.27v-107.67h46.14v107.67l-9.89,181.27Z"/>
    <path class="cls-13" d="m1797.29,804.53l-52.18,71.96-27.47-21.97,52.73-73.06-83.5-26.92,11.54-32.96,81.3,26.37v-86.79h35.16v86.79l81.3-26.37,11.54,32.96-83.5,26.92,52.73,73.06-27.47,21.97-52.18-71.96Z"/>
  </g>
  <g class="cls-17">
    <path class="cls-13" d="m130.69,777.84l-52.18,71.96-27.47-21.97,52.73-73.06-83.5-26.92,11.54-32.96,81.3,26.37v-86.79h35.16v86.79l81.3-26.37,11.54,32.96-83.5,26.92,52.73,73.06-27.47,21.97-52.19-71.96Z"/>
    <path class="cls-13" d="m515.75,850.35l87.34-215.88h60.42v391.11h-45.04v-125.25c0-82.4.55-148.86,1.65-199.4-8.79,24.17-20.32,53.83-34.61,88.99l-96.68,235.66h-39.55l-97.23-235.66c-14.28-35.16-25.82-64.82-34.61-88.99,1.1,50.54,1.65,117,1.65,199.4v125.25h-45.04v-391.11h60.42l90.64,222.47c13.54,33.33,28.38,70.86,44.49,112.61,22.33-59.33,37.71-99.06,46.14-119.2Z"/>
    <path class="cls-13" d="m901.92,725.66l57.13-91.19h52.18l-149.41,234.01v157.1h-46.14v-157.1l-149.41-234.01h52.73l57.68,91.74c24.9,38.82,45.77,72.51,62.62,101.07,23.43-39.55,44.31-73.42,62.62-101.62Z"/>
    <path class="cls-13" d="m1060.11,634.47v349.36h196.66v41.75h-242.8v-391.11h46.14Z"/>
    <path class="cls-13" d="m1412.78,866.28v-41.75h166.44v201.05h-37.9l-9.89-52.73c-28.93,41.02-71.6,61.52-127.99,61.52s-100.71-18.86-134.03-56.58c-34.06-37.35-51.09-86.6-51.09-147.77s16.84-110.22,50.54-148.32c33.32-37.35,78.36-56.03,135.13-56.03,46.5,0,84.96,12.45,115.36,37.35,30.39,24.91,48.89,58.05,55.48,99.43h-47.79c-4.76-28.92-18.68-52-41.75-69.21-22.34-16.84-49.44-25.27-81.3-25.27-41.75,0-75.08,14.65-99.98,43.95-24.91,29.3-37.35,68.66-37.35,118.1s12.44,88.81,37.35,118.1c24.9,29.3,58.23,43.94,99.98,43.94,36.99,0,68.48-11.9,94.48-35.71,26-23.8,39-53.83,39-90.09h-124.69Z"/>
    <path class="cls-13" d="m1664.91,1025.58h-55.48v-54.93h55.48v54.93Zm-14.28-102.17h-28.57l-7.69-181.27v-107.67h46.14v107.67l-9.89,181.27Z"/>
    <path class="cls-13" d="m1797.29,777.84l-52.18,71.96-27.47-21.97,52.73-73.06-83.5-26.92,11.54-32.96,81.3,26.37v-86.79h35.16v86.79l81.3-26.37,11.54,32.96-83.5,26.92,52.73,73.06-27.47,21.97-52.18-71.96Z"/>
  </g>
  <g class="cls-6">
    <path class="cls-13" d="m130.69,751.15l-52.18,71.96-27.47-21.97,52.73-73.06-83.5-26.92,11.54-32.96,81.3,26.37v-86.79h35.16v86.79l81.3-26.37,11.54,32.96-83.5,26.92,52.73,73.06-27.47,21.97-52.19-71.96Z"/>
    <path class="cls-13" d="m515.75,823.66l87.34-215.88h60.42v391.11h-45.04v-125.25c0-82.4.55-148.86,1.65-199.4-8.79,24.17-20.32,53.83-34.61,88.99l-96.68,235.66h-39.55l-97.23-235.66c-14.28-35.16-25.82-64.82-34.61-88.99,1.1,50.54,1.65,117,1.65,199.4v125.25h-45.04v-391.11h60.42l90.64,222.47c13.54,33.33,28.38,70.86,44.49,112.61,22.33-59.33,37.71-99.06,46.14-119.2Z"/>
    <path class="cls-13" d="m901.92,698.97l57.13-91.19h52.18l-149.41,234.01v157.1h-46.14v-157.1l-149.41-234.01h52.73l57.68,91.74c24.9,38.82,45.77,72.51,62.62,101.07,23.43-39.55,44.31-73.42,62.62-101.62Z"/>
    <path class="cls-13" d="m1060.11,607.78v349.36h196.66v41.75h-242.8v-391.11h46.14Z"/>
    <path class="cls-13" d="m1412.78,839.59v-41.75h166.44v201.05h-37.9l-9.89-52.73c-28.93,41.02-71.6,61.52-127.99,61.52s-100.71-18.86-134.03-56.58c-34.06-37.35-51.09-86.6-51.09-147.77s16.84-110.22,50.54-148.32c33.32-37.35,78.36-56.03,135.13-56.03,46.5,0,84.96,12.45,115.36,37.35,30.39,24.91,48.89,58.05,55.48,99.43h-47.79c-4.76-28.92-18.68-52-41.75-69.21-22.34-16.84-49.44-25.27-81.3-25.27-41.75,0-75.08,14.65-99.98,43.95-24.91,29.3-37.35,68.66-37.35,118.1s12.44,88.81,37.35,118.1c24.9,29.3,58.23,43.94,99.98,43.94,36.99,0,68.48-11.9,94.48-35.71,26-23.8,39-53.83,39-90.09h-124.69Z"/>
    <path class="cls-13" d="m1664.91,998.89h-55.48v-54.93h55.48v54.93Zm-14.28-102.17h-28.57l-7.69-181.27v-107.67h46.14v107.67l-9.89,181.27Z"/>
    <path class="cls-13" d="m1797.29,751.15l-52.18,71.96-27.47-21.97,52.73-73.06-83.5-26.92,11.54-32.96,81.3,26.37v-86.79h35.16v86.79l81.3-26.37,11.54,32.96-83.5,26.92,52.73,73.06-27.47,21.97-52.18-71.96Z"/>
  </g>
  <g class="cls-14">
    <path class="cls-13" d="m130.69,724.46l-52.18,71.96-27.47-21.97,52.73-73.06-83.5-26.92,11.54-32.96,81.3,26.37v-86.79h35.16v86.79l81.3-26.37,11.54,32.96-83.5,26.92,52.73,73.06-27.47,21.97-52.19-71.96Z"/>
    <path class="cls-13" d="m515.75,796.97l87.34-215.88h60.42v391.11h-45.04v-125.25c0-82.4.55-148.86,1.65-199.4-8.79,24.17-20.32,53.83-34.61,88.99l-96.68,235.66h-39.55l-97.23-235.66c-14.28-35.16-25.82-64.82-34.61-88.99,1.1,50.54,1.65,117,1.65,199.4v125.25h-45.04v-391.11h60.42l90.64,222.47c13.54,33.33,28.38,70.86,44.49,112.61,22.33-59.33,37.71-99.06,46.14-119.2Z"/>
    <path class="cls-13" d="m901.92,672.28l57.13-91.19h52.18l-149.41,234.01v157.1h-46.14v-157.1l-149.41-234.01h52.73l57.68,91.74c24.9,38.82,45.77,72.51,62.62,101.07,23.43-39.55,44.31-73.42,62.62-101.62Z"/>
    <path class="cls-13" d="m1060.11,581.09v349.36h196.66v41.75h-242.8v-391.11h46.14Z"/>
    <path class="cls-13" d="m1412.78,812.9v-41.75h166.44v201.05h-37.9l-9.89-52.73c-28.93,41.02-71.6,61.52-127.99,61.52s-100.71-18.86-134.03-56.58c-34.06-37.35-51.09-86.6-51.09-147.77s16.84-110.22,50.54-148.32c33.32-37.35,78.36-56.03,135.13-56.03,46.5,0,84.96,12.45,115.36,37.35,30.39,24.91,48.89,58.05,55.48,99.43h-47.79c-4.76-28.92-18.68-52-41.75-69.21-22.34-16.84-49.44-25.27-81.3-25.27-41.75,0-75.08,14.65-99.98,43.95-24.91,29.3-37.35,68.66-37.35,118.1s12.44,88.81,37.35,118.1c24.9,29.3,58.23,43.94,99.98,43.94,36.99,0,68.48-11.9,94.48-35.71,26-23.8,39-53.83,39-90.09h-124.69Z"/>
    <path class="cls-13" d="m1664.91,972.2h-55.48v-54.93h55.48v54.93Zm-14.28-102.17h-28.57l-7.69-181.27v-107.67h46.14v107.67l-9.89,181.27Z"/>
    <path class="cls-13" d="m1797.29,724.46l-52.18,71.96-27.47-21.97,52.73-73.06-83.5-26.92,11.54-32.96,81.3,26.37v-86.79h35.16v86.79l81.3-26.37,11.54,32.96-83.5,26.92,52.73,73.06-27.47,21.97-52.18-71.96Z"/>
  </g>
  <g class="cls-26">
    <path class="cls-13" d="m130.69,697.77l-52.18,71.96-27.47-21.97,52.73-73.06-83.5-26.92,11.54-32.96,81.3,26.37v-86.79h35.16v86.79l81.3-26.37,11.54,32.96-83.5,26.92,52.73,73.06-27.47,21.97-52.19-71.96Z"/>
    <path class="cls-13" d="m515.75,770.28l87.34-215.88h60.42v391.11h-45.04v-125.25c0-82.4.55-148.86,1.65-199.4-8.79,24.17-20.32,53.83-34.61,88.99l-96.68,235.66h-39.55l-97.23-235.66c-14.28-35.16-25.82-64.82-34.61-88.99,1.1,50.54,1.65,117,1.65,199.4v125.25h-45.04v-391.11h60.42l90.64,222.47c13.54,33.33,28.38,70.86,44.49,112.61,22.33-59.33,37.71-99.06,46.14-119.2Z"/>
    <path class="cls-13" d="m901.92,645.59l57.13-91.19h52.18l-149.41,234.01v157.1h-46.14v-157.1l-149.41-234.01h52.73l57.68,91.74c24.9,38.82,45.77,72.51,62.62,101.07,23.43-39.55,44.31-73.42,62.62-101.62Z"/>
    <path class="cls-13" d="m1060.11,554.4v349.36h196.66v41.75h-242.8v-391.11h46.14Z"/>
    <path class="cls-13" d="m1412.78,786.21v-41.75h166.44v201.05h-37.9l-9.89-52.73c-28.93,41.02-71.6,61.52-127.99,61.52s-100.71-18.86-134.03-56.58c-34.06-37.35-51.09-86.6-51.09-147.77s16.84-110.22,50.54-148.32c33.32-37.35,78.36-56.03,135.13-56.03,46.5,0,84.96,12.45,115.36,37.35,30.39,24.91,48.89,58.05,55.48,99.43h-47.79c-4.76-28.92-18.68-52-41.75-69.21-22.34-16.84-49.44-25.27-81.3-25.27-41.75,0-75.08,14.65-99.98,43.95-24.91,29.3-37.35,68.66-37.35,118.1s12.44,88.81,37.35,118.1c24.9,29.3,58.23,43.94,99.98,43.94,36.99,0,68.48-11.9,94.48-35.71,26-23.8,39-53.83,39-90.09h-124.69Z"/>
    <path class="cls-13" d="m1664.91,945.51h-55.48v-54.93h55.48v54.93Zm-14.28-102.17h-28.57l-7.69-181.27v-107.67h46.14v107.67l-9.89,181.27Z"/>
    <path class="cls-13" d="m1797.29,697.77l-52.18,71.96-27.47-21.97,52.73-73.06-83.5-26.92,11.54-32.96,81.3,26.37v-86.79h35.16v86.79l81.3-26.37,11.54,32.96-83.5,26.92,52.73,73.06-27.47,21.97-52.18-71.96Z"/>
  </g>
  <g class="cls-3">
    <path class="cls-13" d="m130.69,671.08l-52.18,71.96-27.47-21.97,52.73-73.06-83.5-26.92,11.54-32.96,81.3,26.37v-86.79h35.16v86.79l81.3-26.37,11.54,32.96-83.5,26.92,52.73,73.06-27.47,21.97-52.19-71.96Z"/>
    <path class="cls-13" d="m515.75,743.59l87.34-215.88h60.42v391.11h-45.04v-125.25c0-82.4.55-148.86,1.65-199.4-8.79,24.17-20.32,53.83-34.61,88.99l-96.68,235.66h-39.55l-97.23-235.66c-14.28-35.16-25.82-64.82-34.61-88.99,1.1,50.54,1.65,117,1.65,199.4v125.25h-45.04v-391.11h60.42l90.64,222.47c13.54,33.33,28.38,70.86,44.49,112.61,22.33-59.33,37.71-99.06,46.14-119.2Z"/>
    <path class="cls-13" d="m901.92,618.9l57.13-91.19h52.18l-149.41,234.01v157.1h-46.14v-157.1l-149.41-234.01h52.73l57.68,91.74c24.9,38.82,45.77,72.51,62.62,101.07,23.43-39.55,44.31-73.42,62.62-101.62Z"/>
    <path class="cls-13" d="m1060.11,527.71v349.36h196.66v41.75h-242.8v-391.11h46.14Z"/>
    <path class="cls-13" d="m1412.78,759.52v-41.75h166.44v201.05h-37.9l-9.89-52.73c-28.93,41.02-71.6,61.52-127.99,61.52s-100.71-18.86-134.03-56.58c-34.06-37.35-51.09-86.6-51.09-147.77s16.84-110.22,50.54-148.32c33.32-37.35,78.36-56.03,135.13-56.03,46.5,0,84.96,12.45,115.36,37.35,30.39,24.91,48.89,58.05,55.48,99.43h-47.79c-4.76-28.92-18.68-52-41.75-69.21-22.34-16.84-49.44-25.27-81.3-25.27-41.75,0-75.08,14.65-99.98,43.95-24.91,29.3-37.35,68.66-37.35,118.1s12.44,88.81,37.35,118.1c24.9,29.3,58.23,43.94,99.98,43.94,36.99,0,68.48-11.9,94.48-35.71,26-23.8,39-53.83,39-90.09h-124.69Z"/>
    <path class="cls-13" d="m1664.91,918.82h-55.48v-54.93h55.48v54.93Zm-14.28-102.17h-28.57l-7.69-181.27v-107.67h46.14v107.67l-9.89,181.27Z"/>
    <path class="cls-13" d="m1797.29,671.08l-52.18,71.96-27.47-21.97,52.73-73.06-83.5-26.92,11.54-32.96,81.3,26.37v-86.79h35.16v86.79l81.3-26.37,11.54,32.96-83.5,26.92,52.73,73.06-27.47,21.97-52.18-71.96Z"/>
  </g>
  <g class="cls-27">
    <path class="cls-13" d="m130.69,644.39l-52.18,71.96-27.47-21.97,52.73-73.06-83.5-26.92,11.54-32.96,81.3,26.37v-86.79h35.16v86.79l81.3-26.37,11.54,32.96-83.5,26.92,52.73,73.06-27.47,21.97-52.19-71.96Z"/>
    <path class="cls-13" d="m515.75,716.9l87.34-215.88h60.42v391.11h-45.04v-125.25c0-82.4.55-148.86,1.65-199.4-8.79,24.17-20.32,53.83-34.61,88.99l-96.68,235.66h-39.55l-97.23-235.66c-14.28-35.16-25.82-64.82-34.61-88.99,1.1,50.54,1.65,117,1.65,199.4v125.25h-45.04v-391.11h60.42l90.64,222.47c13.54,33.33,28.38,70.86,44.49,112.61,22.33-59.33,37.71-99.06,46.14-119.2Z"/>
    <path class="cls-13" d="m901.92,592.21l57.13-91.19h52.18l-149.41,234.01v157.1h-46.14v-157.1l-149.41-234.01h52.73l57.68,91.74c24.9,38.82,45.77,72.51,62.62,101.07,23.43-39.55,44.31-73.42,62.62-101.62Z"/>
    <path class="cls-13" d="m1060.11,501.02v349.36h196.66v41.75h-242.8v-391.11h46.14Z"/>
    <path class="cls-13" d="m1412.78,732.83v-41.75h166.44v201.05h-37.9l-9.89-52.73c-28.93,41.02-71.6,61.52-127.99,61.52s-100.71-18.86-134.03-56.58c-34.06-37.35-51.09-86.6-51.09-147.77s16.84-110.22,50.54-148.32c33.32-37.35,78.36-56.03,135.13-56.03,46.5,0,84.96,12.45,115.36,37.35,30.39,24.91,48.89,58.05,55.48,99.43h-47.79c-4.76-28.92-18.68-52-41.75-69.21-22.34-16.84-49.44-25.27-81.3-25.27-41.75,0-75.08,14.65-99.98,43.95-24.91,29.3-37.35,68.66-37.35,118.1s12.44,88.81,37.35,118.1c24.9,29.3,58.23,43.94,99.98,43.94,36.99,0,68.48-11.9,94.48-35.71,26-23.8,39-53.83,39-90.09h-124.69Z"/>
    <path class="cls-13" d="m1664.91,892.13h-55.48v-54.93h55.48v54.93Zm-14.28-102.17h-28.57l-7.69-181.27v-107.67h46.14v107.67l-9.89,181.27Z"/>
    <path class="cls-13" d="m1797.29,644.39l-52.18,71.96-27.47-21.97,52.73-73.06-83.5-26.92,11.54-32.96,81.3,26.37v-86.79h35.16v86.79l81.3-26.37,11.54,32.96-83.5,26.92,52.73,73.06-27.47,21.97-52.18-71.96Z"/>
  </g>
  <g class="cls-11">
    <path class="cls-13" d="m130.69,617.7l-52.18,71.96-27.47-21.97,52.73-73.06-83.5-26.92,11.54-32.96,81.3,26.37v-86.79h35.16v86.79l81.3-26.37,11.54,32.96-83.5,26.92,52.73,73.06-27.47,21.97-52.19-71.96Z"/>
    <path class="cls-13" d="m515.75,690.21l87.34-215.88h60.42v391.11h-45.04v-125.25c0-82.4.55-148.86,1.65-199.4-8.79,24.17-20.32,53.83-34.61,88.99l-96.68,235.66h-39.55l-97.23-235.66c-14.28-35.16-25.82-64.82-34.61-88.99,1.1,50.54,1.65,117,1.65,199.4v125.25h-45.04v-391.11h60.42l90.64,222.47c13.54,33.33,28.38,70.86,44.49,112.61,22.33-59.33,37.71-99.06,46.14-119.2Z"/>
    <path class="cls-13" d="m901.92,565.52l57.13-91.19h52.18l-149.41,234.01v157.1h-46.14v-157.1l-149.41-234.01h52.73l57.68,91.74c24.9,38.82,45.77,72.51,62.62,101.07,23.43-39.55,44.31-73.42,62.62-101.62Z"/>
    <path class="cls-13" d="m1060.11,474.33v349.36h196.66v41.75h-242.8v-391.11h46.14Z"/>
    <path class="cls-13" d="m1412.78,706.14v-41.75h166.44v201.05h-37.9l-9.89-52.73c-28.93,41.02-71.6,61.52-127.99,61.52s-100.71-18.86-134.03-56.58c-34.06-37.35-51.09-86.6-51.09-147.77s16.84-110.22,50.54-148.32c33.32-37.35,78.36-56.03,135.13-56.03,46.5,0,84.96,12.45,115.36,37.35,30.39,24.91,48.89,58.05,55.48,99.43h-47.79c-4.76-28.92-18.68-52-41.75-69.21-22.34-16.84-49.44-25.27-81.3-25.27-41.75,0-75.08,14.65-99.98,43.95-24.91,29.3-37.35,68.66-37.35,118.1s12.44,88.81,37.35,118.1c24.9,29.3,58.23,43.94,99.98,43.94,36.99,0,68.48-11.9,94.48-35.71,26-23.8,39-53.83,39-90.09h-124.69Z"/>
    <path class="cls-13" d="m1664.91,865.44h-55.48v-54.93h55.48v54.93Zm-14.28-102.17h-28.57l-7.69-181.27v-107.67h46.14v107.67l-9.89,181.27Z"/>
    <path class="cls-13" d="m1797.29,617.7l-52.18,71.96-27.47-21.97,52.73-73.06-83.5-26.92,11.54-32.96,81.3,26.37v-86.79h35.16v86.79l81.3-26.37,11.54,32.96-83.5,26.92,52.73,73.06-27.47,21.97-52.18-71.96Z"/>
  </g>
  <g class="cls-4">
    <path class="cls-13" d="m130.69,591.01l-52.18,71.96-27.47-21.97,52.73-73.06-83.5-26.92,11.54-32.96,81.3,26.37v-86.79h35.16v86.79l81.3-26.37,11.54,32.96-83.5,26.92,52.73,73.06-27.47,21.97-52.19-71.96Z"/>
    <path class="cls-13" d="m515.75,663.52l87.34-215.88h60.42v391.11h-45.04v-125.25c0-82.4.55-148.86,1.65-199.4-8.79,24.17-20.32,53.83-34.61,88.99l-96.68,235.66h-39.55l-97.23-235.66c-14.28-35.16-25.82-64.82-34.61-88.99,1.1,50.54,1.65,117,1.65,199.4v125.25h-45.04v-391.11h60.42l90.64,222.47c13.54,33.33,28.38,70.86,44.49,112.61,22.33-59.33,37.71-99.06,46.14-119.2Z"/>
    <path class="cls-13" d="m901.92,538.83l57.13-91.19h52.18l-149.41,234.01v157.1h-46.14v-157.1l-149.41-234.01h52.73l57.68,91.74c24.9,38.82,45.77,72.51,62.62,101.07,23.43-39.55,44.31-73.42,62.62-101.62Z"/>
    <path class="cls-13" d="m1060.11,447.64v349.36h196.66v41.75h-242.8v-391.11h46.14Z"/>
    <path class="cls-13" d="m1412.78,679.45v-41.75h166.44v201.05h-37.9l-9.89-52.73c-28.93,41.02-71.6,61.52-127.99,61.52s-100.71-18.86-134.03-56.58c-34.06-37.35-51.09-86.6-51.09-147.77s16.84-110.22,50.54-148.32c33.32-37.35,78.36-56.03,135.13-56.03,46.5,0,84.96,12.45,115.36,37.35,30.39,24.91,48.89,58.05,55.48,99.43h-47.79c-4.76-28.92-18.68-52-41.75-69.21-22.34-16.84-49.44-25.27-81.3-25.27-41.75,0-75.08,14.65-99.98,43.95-24.91,29.3-37.35,68.66-37.35,118.1s12.44,88.81,37.35,118.1c24.9,29.3,58.23,43.94,99.98,43.94,36.99,0,68.48-11.9,94.48-35.71,26-23.8,39-53.83,39-90.09h-124.69Z"/>
    <path class="cls-13" d="m1664.91,838.75h-55.48v-54.93h55.48v54.93Zm-14.28-102.17h-28.57l-7.69-181.27v-107.67h46.14v107.67l-9.89,181.27Z"/>
    <path class="cls-13" d="m1797.29,591.01l-52.18,71.96-27.47-21.97,52.73-73.06-83.5-26.92,11.54-32.96,81.3,26.37v-86.79h35.16v86.79l81.3-26.37,11.54,32.96-83.5,26.92,52.73,73.06-27.47,21.97-52.18-71.96Z"/>
  </g>
  <g class="cls-10">
    <path class="cls-13" d="m130.69,564.32l-52.18,71.96-27.47-21.97,52.73-73.06-83.5-26.92,11.54-32.96,81.3,26.37v-86.79h35.16v86.79l81.3-26.37,11.54,32.96-83.5,26.92,52.73,73.06-27.47,21.97-52.19-71.96Z"/>
    <path class="cls-13" d="m515.75,636.83l87.34-215.88h60.42v391.11h-45.04v-125.25c0-82.4.55-148.86,1.65-199.4-8.79,24.17-20.32,53.83-34.61,88.99l-96.68,235.66h-39.55l-97.23-235.66c-14.28-35.16-25.82-64.82-34.61-88.99,1.1,50.54,1.65,117,1.65,199.4v125.25h-45.04v-391.11h60.42l90.64,222.47c13.54,33.33,28.38,70.86,44.49,112.61,22.33-59.33,37.71-99.06,46.14-119.2Z"/>
    <path class="cls-13" d="m901.92,512.14l57.13-91.19h52.18l-149.41,234.01v157.1h-46.14v-157.1l-149.41-234.01h52.73l57.68,91.74c24.9,38.82,45.77,72.51,62.62,101.07,23.43-39.55,44.31-73.42,62.62-101.62Z"/>
    <path class="cls-13" d="m1060.11,420.95v349.36h196.66v41.75h-242.8v-391.11h46.14Z"/>
    <path class="cls-13" d="m1412.78,652.76v-41.75h166.44v201.05h-37.9l-9.89-52.73c-28.93,41.02-71.6,61.52-127.99,61.52s-100.71-18.86-134.03-56.58c-34.06-37.35-51.09-86.6-51.09-147.77s16.84-110.22,50.54-148.32c33.32-37.35,78.36-56.03,135.13-56.03,46.5,0,84.96,12.45,115.36,37.35,30.39,24.91,48.89,58.05,55.48,99.43h-47.79c-4.76-28.92-18.68-52-41.75-69.21-22.34-16.84-49.44-25.27-81.3-25.27-41.75,0-75.08,14.65-99.98,43.95-24.91,29.3-37.35,68.66-37.35,118.1s12.44,88.81,37.35,118.1c24.9,29.3,58.23,43.94,99.98,43.94,36.99,0,68.48-11.9,94.48-35.71,26-23.8,39-53.83,39-90.09h-124.69Z"/>
    <path class="cls-13" d="m1664.91,812.06h-55.48v-54.93h55.48v54.93Zm-14.28-102.17h-28.57l-7.69-181.27v-107.67h46.14v107.67l-9.89,181.27Z"/>
    <path class="cls-13" d="m1797.29,564.32l-52.18,71.96-27.47-21.97,52.73-73.06-83.5-26.92,11.54-32.96,81.3,26.37v-86.79h35.16v86.79l81.3-26.37,11.54,32.96-83.5,26.92,52.73,73.06-27.47,21.97-52.18-71.96Z"/>
  </g>
  <g class="cls-20">
    <path class="cls-13" d="m130.69,537.63l-52.18,71.96-27.47-21.97,52.73-73.06-83.5-26.92,11.54-32.96,81.3,26.37v-86.79h35.16v86.79l81.3-26.37,11.54,32.96-83.5,26.92,52.73,73.06-27.47,21.97-52.19-71.96Z"/>
    <path class="cls-13" d="m515.75,610.14l87.34-215.88h60.42v391.11h-45.04v-125.25c0-82.4.55-148.86,1.65-199.4-8.79,24.17-20.32,53.83-34.61,88.99l-96.68,235.66h-39.55l-97.23-235.66c-14.28-35.16-25.82-64.82-34.61-88.99,1.1,50.54,1.65,117,1.65,199.4v125.25h-45.04v-391.11h60.42l90.64,222.47c13.54,33.33,28.38,70.86,44.49,112.61,22.33-59.33,37.71-99.06,46.14-119.2Z"/>
    <path class="cls-13" d="m901.92,485.45l57.13-91.19h52.18l-149.41,234.01v157.1h-46.14v-157.1l-149.41-234.01h52.73l57.68,91.74c24.9,38.82,45.77,72.51,62.62,101.07,23.43-39.55,44.31-73.42,62.62-101.62Z"/>
    <path class="cls-13" d="m1060.11,394.26v349.36h196.66v41.75h-242.8v-391.11h46.14Z"/>
    <path class="cls-13" d="m1412.78,626.07v-41.75h166.44v201.05h-37.9l-9.89-52.73c-28.93,41.02-71.6,61.52-127.99,61.52s-100.71-18.86-134.03-56.58c-34.06-37.35-51.09-86.6-51.09-147.77s16.84-110.22,50.54-148.32c33.32-37.35,78.36-56.03,135.13-56.03,46.5,0,84.96,12.45,115.36,37.35,30.39,24.91,48.89,58.05,55.48,99.43h-47.79c-4.76-28.92-18.68-52-41.75-69.21-22.34-16.84-49.44-25.27-81.3-25.27-41.75,0-75.08,14.65-99.98,43.95-24.91,29.3-37.35,68.66-37.35,118.1s12.44,88.81,37.35,118.1c24.9,29.3,58.23,43.94,99.98,43.94,36.99,0,68.48-11.9,94.48-35.71,26-23.8,39-53.83,39-90.09h-124.69Z"/>
    <path class="cls-13" d="m1664.91,785.37h-55.48v-54.93h55.48v54.93Zm-14.28-102.17h-28.57l-7.69-181.27v-107.67h46.14v107.67l-9.89,181.27Z"/>
    <path class="cls-13" d="m1797.29,537.63l-52.18,71.96-27.47-21.97,52.73-73.06-83.5-26.92,11.54-32.96,81.3,26.37v-86.79h35.16v86.79l81.3-26.37,11.54,32.96-83.5,26.92,52.73,73.06-27.47,21.97-52.18-71.96Z"/>
  </g>
  <g class="cls-19">
    <path class="cls-13" d="m130.69,510.94l-52.18,71.96-27.47-21.97,52.73-73.06-83.5-26.92,11.54-32.96,81.3,26.37v-86.79h35.16v86.79l81.3-26.37,11.54,32.96-83.5,26.92,52.73,73.06-27.47,21.97-52.19-71.96Z"/>
    <path class="cls-13" d="m515.75,583.45l87.34-215.88h60.42v391.11h-45.04v-125.25c0-82.4.55-148.86,1.65-199.4-8.79,24.17-20.32,53.83-34.61,88.99l-96.68,235.66h-39.55l-97.23-235.66c-14.28-35.16-25.82-64.82-34.61-88.99,1.1,50.54,1.65,117,1.65,199.4v125.25h-45.04v-391.11h60.42l90.64,222.47c13.54,33.33,28.38,70.86,44.49,112.61,22.33-59.33,37.71-99.06,46.14-119.2Z"/>
    <path class="cls-13" d="m901.92,458.76l57.13-91.19h52.18l-149.41,234.01v157.1h-46.14v-157.1l-149.41-234.01h52.73l57.68,91.74c24.9,38.82,45.77,72.51,62.62,101.07,23.43-39.55,44.31-73.42,62.62-101.62Z"/>
    <path class="cls-13" d="m1060.11,367.57v349.36h196.66v41.75h-242.8v-391.11h46.14Z"/>
    <path class="cls-13" d="m1412.78,599.38v-41.75h166.44v201.05h-37.9l-9.89-52.73c-28.93,41.02-71.6,61.52-127.99,61.52s-100.71-18.86-134.03-56.58c-34.06-37.35-51.09-86.6-51.09-147.77s16.84-110.22,50.54-148.32c33.32-37.35,78.36-56.03,135.13-56.03,46.5,0,84.96,12.45,115.36,37.35,30.39,24.91,48.89,58.05,55.48,99.43h-47.79c-4.76-28.92-18.68-52-41.75-69.21-22.34-16.84-49.44-25.27-81.3-25.27-41.75,0-75.08,14.65-99.98,43.95-24.91,29.3-37.35,68.66-37.35,118.1s12.44,88.81,37.35,118.1c24.9,29.3,58.23,43.94,99.98,43.94,36.99,0,68.48-11.9,94.48-35.71,26-23.8,39-53.83,39-90.09h-124.69Z"/>
    <path class="cls-13" d="m1664.91,758.68h-55.48v-54.93h55.48v54.93Zm-14.28-102.17h-28.57l-7.69-181.27v-107.67h46.14v107.67l-9.89,181.27Z"/>
    <path class="cls-13" d="m1797.29,510.94l-52.18,71.96-27.47-21.97,52.73-73.06-83.5-26.92,11.54-32.96,81.3,26.37v-86.79h35.16v86.79l81.3-26.37,11.54,32.96-83.5,26.92,52.73,73.06-27.47,21.97-52.18-71.96Z"/>
  </g>
  <g class="cls-2">
    <path class="cls-13" d="m130.69,484.25l-52.18,71.96-27.47-21.97,52.73-73.06-83.5-26.92,11.54-32.96,81.3,26.37v-86.79h35.16v86.79l81.3-26.37,11.54,32.96-83.5,26.92,52.73,73.06-27.47,21.97-52.19-71.96Z"/>
    <path class="cls-13" d="m515.75,556.76l87.34-215.88h60.42v391.11h-45.04v-125.25c0-82.4.55-148.86,1.65-199.4-8.79,24.17-20.32,53.83-34.61,88.99l-96.68,235.66h-39.55l-97.23-235.66c-14.28-35.16-25.82-64.82-34.61-88.99,1.1,50.54,1.65,117,1.65,199.4v125.25h-45.04v-391.11h60.42l90.64,222.47c13.54,33.33,28.38,70.86,44.49,112.61,22.33-59.33,37.71-99.06,46.14-119.2Z"/>
    <path class="cls-13" d="m901.92,432.07l57.13-91.19h52.18l-149.41,234.01v157.1h-46.14v-157.1l-149.41-234.01h52.73l57.68,91.74c24.9,38.82,45.77,72.51,62.62,101.07,23.43-39.55,44.31-73.42,62.62-101.62Z"/>
    <path class="cls-13" d="m1060.11,340.88v349.36h196.66v41.75h-242.8v-391.11h46.14Z"/>
    <path class="cls-13" d="m1412.78,572.69v-41.75h166.44v201.05h-37.9l-9.89-52.73c-28.93,41.02-71.6,61.52-127.99,61.52s-100.71-18.86-134.03-56.58c-34.06-37.35-51.09-86.6-51.09-147.77s16.84-110.22,50.54-148.32c33.32-37.35,78.36-56.03,135.13-56.03,46.5,0,84.96,12.45,115.36,37.35,30.39,24.91,48.89,58.05,55.48,99.43h-47.79c-4.76-28.92-18.68-52-41.75-69.21-22.34-16.84-49.44-25.27-81.3-25.27-41.75,0-75.08,14.65-99.98,43.95-24.91,29.3-37.35,68.66-37.35,118.1s12.44,88.81,37.35,118.1c24.9,29.3,58.23,43.94,99.98,43.94,36.99,0,68.48-11.9,94.48-35.71,26-23.8,39-53.83,39-90.09h-124.69Z"/>
    <path class="cls-13" d="m1664.91,731.99h-55.48v-54.93h55.48v54.93Zm-14.28-102.17h-28.57l-7.69-181.27v-107.67h46.14v107.67l-9.89,181.27Z"/>
    <path class="cls-13" d="m1797.29,484.25l-52.18,71.96-27.47-21.97,52.73-73.06-83.5-26.92,11.54-32.96,81.3,26.37v-86.79h35.16v86.79l81.3-26.37,11.54,32.96-83.5,26.92,52.73,73.06-27.47,21.97-52.18-71.96Z"/>
  </g>
  <g class="cls-9">
    <path class="cls-13" d="m130.69,457.56l-52.18,71.96-27.47-21.97,52.73-73.06-83.5-26.92,11.54-32.96,81.3,26.37v-86.79h35.16v86.79l81.3-26.37,11.54,32.96-83.5,26.92,52.73,73.06-27.47,21.97-52.19-71.96Z"/>
    <path class="cls-13" d="m515.75,530.07l87.34-215.88h60.42v391.11h-45.04v-125.25c0-82.4.55-148.86,1.65-199.4-8.79,24.17-20.32,53.83-34.61,88.99l-96.68,235.66h-39.55l-97.23-235.66c-14.28-35.16-25.82-64.82-34.61-88.99,1.1,50.54,1.65,117,1.65,199.4v125.25h-45.04v-391.11h60.42l90.64,222.47c13.54,33.33,28.38,70.86,44.49,112.61,22.33-59.33,37.71-99.06,46.14-119.2Z"/>
    <path class="cls-13" d="m901.92,405.38l57.13-91.19h52.18l-149.41,234.01v157.1h-46.14v-157.1l-149.41-234.01h52.73l57.68,91.74c24.9,38.82,45.77,72.51,62.62,101.07,23.43-39.55,44.31-73.42,62.62-101.62Z"/>
    <path class="cls-13" d="m1060.11,314.19v349.36h196.66v41.75h-242.8v-391.11h46.14Z"/>
    <path class="cls-13" d="m1412.78,546v-41.75h166.44v201.05h-37.9l-9.89-52.73c-28.93,41.02-71.6,61.52-127.99,61.52s-100.71-18.86-134.03-56.58c-34.06-37.35-51.09-86.6-51.09-147.77s16.84-110.22,50.54-148.32c33.32-37.35,78.36-56.03,135.13-56.03,46.5,0,84.96,12.45,115.36,37.35,30.39,24.91,48.89,58.05,55.48,99.43h-47.79c-4.76-28.92-18.68-52-41.75-69.21-22.34-16.84-49.44-25.27-81.3-25.27-41.75,0-75.08,14.65-99.98,43.95-24.91,29.3-37.35,68.66-37.35,118.1s12.44,88.81,37.35,118.1c24.9,29.3,58.23,43.94,99.98,43.94,36.99,0,68.48-11.9,94.48-35.71,26-23.8,39-53.83,39-90.09h-124.69Z"/>
    <path class="cls-13" d="m1664.91,705.3h-55.48v-54.93h55.48v54.93Zm-14.28-102.17h-28.57l-7.69-181.27v-107.67h46.14v107.67l-9.89,181.27Z"/>
    <path class="cls-13" d="m1797.29,457.56l-52.18,71.96-27.47-21.97,52.73-73.06-83.5-26.92,11.54-32.96,81.3,26.37v-86.79h35.16v86.79l81.3-26.37,11.54,32.96-83.5,26.92,52.73,73.06-27.47,21.97-52.18-71.96Z"/>
  </g>
  <g class="cls-12">
    <path class="cls-13" d="m130.69,430.87l-52.18,71.96-27.47-21.97,52.73-73.06-83.5-26.92,11.54-32.96,81.3,26.37v-86.79h35.16v86.79l81.3-26.37,11.54,32.96-83.5,26.92,52.73,73.06-27.47,21.97-52.19-71.96Z"/>
    <path class="cls-13" d="m515.75,503.38l87.34-215.88h60.42v391.11h-45.04v-125.25c0-82.4.55-148.86,1.65-199.4-8.79,24.17-20.32,53.83-34.61,88.99l-96.68,235.66h-39.55l-97.23-235.66c-14.28-35.16-25.82-64.82-34.61-88.99,1.1,50.54,1.65,117,1.65,199.4v125.25h-45.04v-391.11h60.42l90.64,222.47c13.54,33.33,28.38,70.86,44.49,112.61,22.33-59.33,37.71-99.06,46.14-119.2Z"/>
    <path class="cls-13" d="m901.92,378.69l57.13-91.19h52.18l-149.41,234.01v157.1h-46.14v-157.1l-149.41-234.01h52.73l57.68,91.74c24.9,38.82,45.77,72.51,62.62,101.07,23.43-39.55,44.31-73.42,62.62-101.62Z"/>
    <path class="cls-13" d="m1060.11,287.5v349.36h196.66v41.75h-242.8v-391.11h46.14Z"/>
    <path class="cls-13" d="m1412.78,519.31v-41.75h166.44v201.05h-37.9l-9.89-52.73c-28.93,41.02-71.6,61.52-127.99,61.52s-100.71-18.86-134.03-56.58c-34.06-37.35-51.09-86.6-51.09-147.77s16.84-110.22,50.54-148.32c33.32-37.35,78.36-56.03,135.13-56.03,46.5,0,84.96,12.45,115.36,37.35,30.39,24.91,48.89,58.05,55.48,99.43h-47.79c-4.76-28.92-18.68-52-41.75-69.21-22.34-16.84-49.44-25.27-81.3-25.27-41.75,0-75.08,14.65-99.98,43.95-24.91,29.3-37.35,68.66-37.35,118.1s12.44,88.81,37.35,118.1c24.9,29.3,58.23,43.94,99.98,43.94,36.99,0,68.48-11.9,94.48-35.71,26-23.8,39-53.83,39-90.09h-124.69Z"/>
    <path class="cls-13" d="m1664.91,678.61h-55.48v-54.93h55.48v54.93Zm-14.28-102.17h-28.57l-7.69-181.27v-107.67h46.14v107.67l-9.89,181.27Z"/>
    <path class="cls-13" d="m1797.29,430.87l-52.18,71.96-27.47-21.97,52.73-73.06-83.5-26.92,11.54-32.96,81.3,26.37v-86.79h35.16v86.79l81.3-26.37,11.54,32.96-83.5,26.92,52.73,73.06-27.47,21.97-52.18-71.96Z"/>
  </g>
  <g class="cls-8">
    <path class="cls-13" d="m130.69,404.18l-52.18,71.96-27.47-21.97,52.73-73.06-83.5-26.92,11.54-32.96,81.3,26.37v-86.79h35.16v86.79l81.3-26.37,11.54,32.96-83.5,26.92,52.73,73.06-27.47,21.97-52.19-71.96Z"/>
    <path class="cls-13" d="m515.75,476.69l87.34-215.88h60.42v391.11h-45.04v-125.25c0-82.4.55-148.86,1.65-199.4-8.79,24.17-20.32,53.83-34.61,88.99l-96.68,235.66h-39.55l-97.23-235.66c-14.28-35.16-25.82-64.82-34.61-88.99,1.1,50.54,1.65,117,1.65,199.4v125.25h-45.04v-391.11h60.42l90.64,222.47c13.54,33.33,28.38,70.86,44.49,112.61,22.33-59.33,37.71-99.06,46.14-119.2Z"/>
    <path class="cls-13" d="m901.92,352l57.13-91.19h52.18l-149.41,234.01v157.1h-46.14v-157.1l-149.41-234.01h52.73l57.68,91.74c24.9,38.82,45.77,72.51,62.62,101.07,23.43-39.55,44.31-73.42,62.62-101.62Z"/>
    <path class="cls-13" d="m1060.11,260.81v349.36h196.66v41.75h-242.8v-391.11h46.14Z"/>
    <path class="cls-13" d="m1412.78,492.62v-41.75h166.44v201.05h-37.9l-9.89-52.73c-28.93,41.02-71.6,61.52-127.99,61.52s-100.71-18.86-134.03-56.58c-34.06-37.35-51.09-86.6-51.09-147.77s16.84-110.22,50.54-148.32c33.32-37.35,78.36-56.03,135.13-56.03,46.5,0,84.96,12.45,115.36,37.35,30.39,24.91,48.89,58.05,55.48,99.43h-47.79c-4.76-28.92-18.68-52-41.75-69.21-22.34-16.84-49.44-25.27-81.3-25.27-41.75,0-75.08,14.65-99.98,43.95-24.91,29.3-37.35,68.66-37.35,118.1s12.44,88.81,37.35,118.1c24.9,29.3,58.23,43.94,99.98,43.94,36.99,0,68.48-11.9,94.48-35.71,26-23.8,39-53.83,39-90.09h-124.69Z"/>
    <path class="cls-13" d="m1664.91,651.93h-55.48v-54.93h55.48v54.93Zm-14.28-102.17h-28.57l-7.69-181.27v-107.67h46.14v107.67l-9.89,181.27Z"/>
    <path class="cls-13" d="m1797.29,404.18l-52.18,71.96-27.47-21.97,52.73-73.06-83.5-26.92,11.54-32.96,81.3,26.37v-86.79h35.16v86.79l81.3-26.37,11.54,32.96-83.5,26.92,52.73,73.06-27.47,21.97-52.18-71.96Z"/>
  </g>
  <g class="cls-18">
    <path class="cls-13" d="m130.69,377.49l-52.18,71.96-27.47-21.97,52.73-73.06-83.5-26.92,11.54-32.96,81.3,26.37v-86.79h35.16v86.79l81.3-26.37,11.54,32.96-83.5,26.92,52.73,73.06-27.47,21.97-52.19-71.96Z"/>
    <path class="cls-13" d="m515.75,450l87.34-215.88h60.42v391.11h-45.04v-125.25c0-82.4.55-148.86,1.65-199.4-8.79,24.17-20.32,53.83-34.61,88.99l-96.68,235.66h-39.55l-97.23-235.66c-14.28-35.16-25.82-64.82-34.61-88.99,1.1,50.54,1.65,117,1.65,199.4v125.25h-45.04V234.12h60.42l90.64,222.47c13.54,33.33,28.38,70.86,44.49,112.61,22.33-59.33,37.71-99.06,46.14-119.2Z"/>
    <path class="cls-13" d="m901.92,325.31l57.13-91.19h52.18l-149.41,234.01v157.1h-46.14v-157.1l-149.41-234.01h52.73l57.68,91.74c24.9,38.82,45.77,72.51,62.62,101.07,23.43-39.55,44.31-73.42,62.62-101.62Z"/>
    <path class="cls-13" d="m1060.11,234.12v349.36h196.66v41.75h-242.8V234.12h46.14Z"/>
    <path class="cls-13" d="m1412.78,465.93v-41.75h166.44v201.05h-37.9l-9.89-52.73c-28.93,41.02-71.6,61.52-127.99,61.52s-100.71-18.86-134.03-56.58c-34.06-37.35-51.09-86.6-51.09-147.77s16.84-110.22,50.54-148.32c33.32-37.35,78.36-56.03,135.13-56.03,46.5,0,84.96,12.45,115.36,37.35,30.39,24.91,48.89,58.05,55.48,99.43h-47.79c-4.76-28.92-18.68-52-41.75-69.21-22.34-16.84-49.44-25.27-81.3-25.27-41.75,0-75.08,14.65-99.98,43.95-24.91,29.3-37.35,68.66-37.35,118.1s12.44,88.81,37.35,118.1c24.9,29.3,58.23,43.94,99.98,43.94,36.99,0,68.48-11.9,94.48-35.71,26-23.8,39-53.83,39-90.09h-124.69Z"/>
    <path class="cls-13" d="m1664.91,625.24h-55.48v-54.93h55.48v54.93Zm-14.28-102.17h-28.57l-7.69-181.27v-107.67h46.14v107.67l-9.89,181.27Z"/>
    <path class="cls-13" d="m1797.29,377.49l-52.18,71.96-27.47-21.97,52.73-73.06-83.5-26.92,11.54-32.96,81.3,26.37v-86.79h35.16v86.79l81.3-26.37,11.54,32.96-83.5,26.92,52.73,73.06-27.47,21.97-52.18-71.96Z"/>
  </g>
  <g class="cls-22">
    <path class="cls-13" d="m130.69,350.8l-52.18,71.96-27.47-21.97,52.73-73.06-83.5-26.92,11.54-32.96,81.3,26.37v-86.79h35.16v86.79l81.3-26.37,11.54,32.96-83.5,26.92,52.73,73.06-27.47,21.97-52.19-71.96Z"/>
    <path class="cls-13" d="m515.75,423.31l87.34-215.88h60.42v391.11h-45.04v-125.25c0-82.4.55-148.86,1.65-199.4-8.79,24.17-20.32,53.83-34.61,88.99l-96.68,235.66h-39.55l-97.23-235.66c-14.28-35.16-25.82-64.82-34.61-88.99,1.1,50.54,1.65,117,1.65,199.4v125.25h-45.04V207.43h60.42l90.64,222.47c13.54,33.33,28.38,70.86,44.49,112.61,22.33-59.33,37.71-99.06,46.14-119.2Z"/>
    <path class="cls-13" d="m901.92,298.62l57.13-91.19h52.18l-149.41,234.01v157.1h-46.14v-157.1l-149.41-234.01h52.73l57.68,91.74c24.9,38.82,45.77,72.51,62.62,101.07,23.43-39.55,44.31-73.42,62.62-101.62Z"/>
    <path class="cls-13" d="m1060.11,207.43v349.36h196.66v41.75h-242.8V207.43h46.14Z"/>
    <path class="cls-13" d="m1412.78,439.24v-41.75h166.44v201.05h-37.9l-9.89-52.73c-28.93,41.02-71.6,61.52-127.99,61.52s-100.71-18.86-134.03-56.58c-34.06-37.35-51.09-86.6-51.09-147.77s16.84-110.22,50.54-148.32c33.32-37.35,78.36-56.03,135.13-56.03,46.5,0,84.96,12.45,115.36,37.35,30.39,24.91,48.89,58.05,55.48,99.43h-47.79c-4.76-28.92-18.68-52-41.75-69.21-22.34-16.84-49.44-25.27-81.3-25.27-41.75,0-75.08,14.65-99.98,43.95-24.91,29.3-37.35,68.66-37.35,118.1s12.44,88.81,37.35,118.1c24.9,29.3,58.23,43.94,99.98,43.94,36.99,0,68.48-11.9,94.48-35.71,26-23.8,39-53.83,39-90.09h-124.69Z"/>
    <path class="cls-13" d="m1664.91,598.55h-55.48v-54.93h55.48v54.93Zm-14.28-102.17h-28.57l-7.69-181.27v-107.67h46.14v107.67l-9.89,181.27Z"/>
    <path class="cls-13" d="m1797.29,350.8l-52.18,71.96-27.47-21.97,52.73-73.06-83.5-26.92,11.54-32.96,81.3,26.37v-86.79h35.16v86.79l81.3-26.37,11.54,32.96-83.5,26.92,52.73,73.06-27.47,21.97-52.18-71.96Z"/>
  </g>
  <g class="cls-25">
    <path class="cls-13" d="m130.69,324.11l-52.18,71.96-27.47-21.97,52.73-73.06-83.5-26.92,11.54-32.96,81.3,26.37v-86.79h35.16v86.79l81.3-26.37,11.54,32.96-83.5,26.92,52.73,73.06-27.47,21.97-52.19-71.96Z"/>
    <path class="cls-13" d="m515.75,396.62l87.34-215.88h60.42v391.11h-45.04v-125.25c0-82.4.55-148.86,1.65-199.4-8.79,24.17-20.32,53.83-34.61,88.99l-96.68,235.66h-39.55l-97.23-235.66c-14.28-35.16-25.82-64.82-34.61-88.99,1.1,50.54,1.65,117,1.65,199.4v125.25h-45.04V180.74h60.42l90.64,222.47c13.54,33.33,28.38,70.86,44.49,112.61,22.33-59.33,37.71-99.06,46.14-119.2Z"/>
    <path class="cls-13" d="m901.92,271.93l57.13-91.19h52.18l-149.41,234.01v157.1h-46.14v-157.1l-149.41-234.01h52.73l57.68,91.74c24.9,38.82,45.77,72.51,62.62,101.07,23.43-39.55,44.31-73.42,62.62-101.62Z"/>
    <path class="cls-13" d="m1060.11,180.74v349.36h196.66v41.75h-242.8V180.74h46.14Z"/>
    <path class="cls-13" d="m1412.78,412.55v-41.75h166.44v201.05h-37.9l-9.89-52.73c-28.93,41.02-71.6,61.52-127.99,61.52s-100.71-18.86-134.03-56.58c-34.06-37.35-51.09-86.6-51.09-147.77s16.84-110.22,50.54-148.32c33.32-37.35,78.36-56.03,135.13-56.03,46.5,0,84.96,12.45,115.36,37.35,30.39,24.91,48.89,58.05,55.48,99.43h-47.79c-4.76-28.92-18.68-52-41.75-69.21-22.34-16.84-49.44-25.27-81.3-25.27-41.75,0-75.08,14.65-99.98,43.95-24.91,29.3-37.35,68.66-37.35,118.1s12.44,88.81,37.35,118.1c24.9,29.3,58.23,43.94,99.98,43.94,36.99,0,68.48-11.9,94.48-35.71,26-23.8,39-53.83,39-90.09h-124.69Z"/>
    <path class="cls-13" d="m1664.91,571.86h-55.48v-54.93h55.48v54.93Zm-14.28-102.17h-28.57l-7.69-181.27v-107.67h46.14v107.67l-9.89,181.27Z"/>
    <path class="cls-13" d="m1797.29,324.11l-52.18,71.96-27.47-21.97,52.73-73.06-83.5-26.92,11.54-32.96,81.3,26.37v-86.79h35.16v86.79l81.3-26.37,11.54,32.96-83.5,26.92,52.73,73.06-27.47,21.97-52.18-71.96Z"/>
  </g>
  <g class="cls-21">
    <path class="cls-13" d="m130.69,297.42l-52.18,71.96-27.47-21.97,52.73-73.06-83.5-26.92,11.54-32.96,81.3,26.37v-86.79h35.16v86.79l81.3-26.37,11.54,32.96-83.5,26.92,52.73,73.06-27.47,21.97-52.19-71.96Z"/>
    <path class="cls-13" d="m515.75,369.93l87.34-215.88h60.42v391.11h-45.04v-125.25c0-82.4.55-148.86,1.65-199.4-8.79,24.17-20.32,53.83-34.61,88.99l-96.68,235.66h-39.55l-97.23-235.66c-14.28-35.16-25.82-64.82-34.61-88.99,1.1,50.54,1.65,117,1.65,199.4v125.25h-45.04V154.05h60.42l90.64,222.47c13.54,33.33,28.38,70.86,44.49,112.61,22.33-59.33,37.71-99.06,46.14-119.2Z"/>
    <path class="cls-13" d="m901.92,245.24l57.13-91.19h52.18l-149.41,234.01v157.1h-46.14v-157.1l-149.41-234.01h52.73l57.68,91.74c24.9,38.82,45.77,72.51,62.62,101.07,23.43-39.55,44.31-73.42,62.62-101.62Z"/>
    <path class="cls-13" d="m1060.11,154.05v349.36h196.66v41.75h-242.8V154.05h46.14Z"/>
    <path class="cls-13" d="m1412.78,385.86v-41.75h166.44v201.05h-37.9l-9.89-52.73c-28.93,41.02-71.6,61.52-127.99,61.52s-100.71-18.86-134.03-56.58c-34.06-37.35-51.09-86.6-51.09-147.77s16.84-110.22,50.54-148.32c33.32-37.35,78.36-56.03,135.13-56.03,46.5,0,84.96,12.45,115.36,37.35,30.39,24.91,48.89,58.05,55.48,99.43h-47.79c-4.76-28.92-18.68-52-41.75-69.21-22.34-16.84-49.44-25.27-81.3-25.27-41.75,0-75.08,14.65-99.98,43.95-24.91,29.3-37.35,68.66-37.35,118.1s12.44,88.81,37.35,118.1c24.9,29.3,58.23,43.94,99.98,43.94,36.99,0,68.48-11.9,94.48-35.71,26-23.8,39-53.83,39-90.09h-124.69Z"/>
    <path class="cls-13" d="m1664.91,545.17h-55.48v-54.93h55.48v54.93Zm-14.28-102.17h-28.57l-7.69-181.27v-107.67h46.14v107.67l-9.89,181.27Z"/>
    <path class="cls-13" d="m1797.29,297.42l-52.18,71.96-27.47-21.97,52.73-73.06-83.5-26.92,11.54-32.96,81.3,26.37v-86.79h35.16v86.79l81.3-26.37,11.54,32.96-83.5,26.92,52.73,73.06-27.47,21.97-52.18-71.96Z"/>
  </g>
  <g class="cls-5">
    <path class="cls-13" d="m130.69,270.73l-52.18,71.96-27.47-21.97,52.73-73.06-83.5-26.92,11.54-32.96,81.3,26.37v-86.79h35.16v86.79l81.3-26.37,11.54,32.96-83.5,26.92,52.73,73.06-27.47,21.97-52.19-71.96Z"/>
    <path class="cls-13" d="m515.75,343.24l87.34-215.88h60.42v391.11h-45.04v-125.25c0-82.4.55-148.86,1.65-199.4-8.79,24.17-20.32,53.83-34.61,88.99l-96.68,235.66h-39.55l-97.23-235.66c-14.28-35.16-25.82-64.82-34.61-88.99,1.1,50.54,1.65,117,1.65,199.4v125.25h-45.04V127.36h60.42l90.64,222.47c13.54,33.33,28.38,70.86,44.49,112.61,22.33-59.33,37.71-99.06,46.14-119.2Z"/>
    <path class="cls-13" d="m901.92,218.55l57.13-91.19h52.18l-149.41,234.01v157.1h-46.14v-157.1l-149.41-234.01h52.73l57.68,91.74c24.9,38.82,45.77,72.51,62.62,101.07,23.43-39.55,44.31-73.42,62.62-101.62Z"/>
    <path class="cls-13" d="m1060.11,127.36v349.36h196.66v41.75h-242.8V127.36h46.14Z"/>
    <path class="cls-13" d="m1412.78,359.17v-41.75h166.44v201.05h-37.9l-9.89-52.73c-28.93,41.02-71.6,61.52-127.99,61.52s-100.71-18.86-134.03-56.58c-34.06-37.35-51.09-86.6-51.09-147.77s16.84-110.22,50.54-148.32c33.32-37.35,78.36-56.03,135.13-56.03,46.5,0,84.96,12.45,115.36,37.35,30.39,24.91,48.89,58.05,55.48,99.43h-47.79c-4.76-28.92-18.68-52-41.75-69.21-22.34-16.84-49.44-25.27-81.3-25.27-41.75,0-75.08,14.65-99.98,43.95-24.91,29.3-37.35,68.66-37.35,118.1s12.44,88.81,37.35,118.1c24.9,29.3,58.23,43.94,99.98,43.94,36.99,0,68.48-11.9,94.48-35.71,26-23.8,39-53.83,39-90.09h-124.69Z"/>
    <path class="cls-13" d="m1664.91,518.48h-55.48v-54.93h55.48v54.93Zm-14.28-102.17h-28.57l-7.69-181.27v-107.67h46.14v107.67l-9.89,181.27Z"/>
    <path class="cls-13" d="m1797.29,270.73l-52.18,71.96-27.47-21.97,52.73-73.06-83.5-26.92,11.54-32.96,81.3,26.37v-86.79h35.16v86.79l81.3-26.37,11.54,32.96-83.5,26.92,52.73,73.06-27.47,21.97-52.18-71.96Z"/>
  </g>
  <g class="cls-1">
    <path class="cls-13" d="m130.69,244.04l-52.18,71.96-27.47-21.97,52.73-73.06-83.5-26.92,11.54-32.96,81.3,26.37v-86.79h35.16v86.79l81.3-26.37,11.54,32.96-83.5,26.92,52.73,73.06-27.47,21.97-52.19-71.96Z"/>
    <path class="cls-13" d="m515.75,316.55l87.34-215.88h60.42v391.11h-45.04v-125.25c0-82.4.55-148.86,1.65-199.4-8.79,24.17-20.32,53.83-34.61,88.99l-96.68,235.66h-39.55l-97.23-235.66c-14.28-35.16-25.82-64.82-34.61-88.99,1.1,50.54,1.65,117,1.65,199.4v125.25h-45.04V100.67h60.42l90.64,222.47c13.54,33.33,28.38,70.86,44.49,112.61,22.33-59.33,37.71-99.06,46.14-119.2Z"/>
    <path class="cls-13" d="m901.92,191.86l57.13-91.19h52.18l-149.41,234.01v157.1h-46.14v-157.1l-149.41-234.01h52.73l57.68,91.74c24.9,38.82,45.77,72.51,62.62,101.07,23.43-39.55,44.31-73.42,62.62-101.62Z"/>
    <path class="cls-13" d="m1060.11,100.67v349.36h196.66v41.75h-242.8V100.67h46.14Z"/>
    <path class="cls-13" d="m1412.78,332.48v-41.75h166.44v201.05h-37.9l-9.89-52.73c-28.93,41.02-71.6,61.52-127.99,61.52s-100.71-18.86-134.03-56.58c-34.06-37.35-51.09-86.6-51.09-147.77s16.84-110.22,50.54-148.32c33.32-37.35,78.36-56.03,135.13-56.03,46.5,0,84.96,12.45,115.36,37.35,30.39,24.91,48.89,58.05,55.48,99.43h-47.79c-4.76-28.92-18.68-52-41.75-69.21-22.34-16.84-49.44-25.27-81.3-25.27-41.75,0-75.08,14.65-99.98,43.95-24.91,29.3-37.35,68.66-37.35,118.1s12.44,88.81,37.35,118.1c24.9,29.3,58.23,43.94,99.98,43.94,36.99,0,68.48-11.9,94.48-35.71,26-23.8,39-53.83,39-90.09h-124.69Z"/>
    <path class="cls-13" d="m1664.91,491.79h-55.48v-54.93h55.48v54.93Zm-14.28-102.17h-28.57l-7.69-181.27v-107.67h46.14v107.67l-9.89,181.27Z"/>
    <path class="cls-13" d="m1797.29,244.04l-52.18,71.96-27.47-21.97,52.73-73.06-83.5-26.92,11.54-32.96,81.3,26.37v-86.79h35.16v86.79l81.3-26.37,11.54,32.96-83.5,26.92,52.73,73.06-27.47,21.97-52.18-71.96Z"/>
  </g>
  <g class="cls-16">
    <path class="cls-13" d="m130.69,217.35l-52.18,71.96-27.47-21.97,52.73-73.06-83.5-26.92,11.54-32.96,81.3,26.37v-86.79h35.16v86.79l81.3-26.37,11.54,32.96-83.5,26.92,52.73,73.06-27.47,21.97-52.19-71.96Z"/>
    <path class="cls-13" d="m515.75,289.86l87.34-215.88h60.42v391.11h-45.04v-125.25c0-82.4.55-148.86,1.65-199.4-8.79,24.17-20.32,53.83-34.61,88.99l-96.68,235.66h-39.55l-97.23-235.66c-14.28-35.16-25.82-64.82-34.61-88.99,1.1,50.54,1.65,117,1.65,199.4v125.25h-45.04V73.98h60.42l90.64,222.47c13.54,33.33,28.38,70.86,44.49,112.61,22.33-59.33,37.71-99.06,46.14-119.2Z"/>
    <path class="cls-13" d="m901.92,165.17l57.13-91.19h52.18l-149.41,234.01v157.1h-46.14v-157.1l-149.41-234.01h52.73l57.68,91.74c24.9,38.82,45.77,72.51,62.62,101.07,23.43-39.55,44.31-73.42,62.62-101.62Z"/>
    <path class="cls-13" d="m1060.11,73.98v349.36h196.66v41.75h-242.8V73.98h46.14Z"/>
    <path class="cls-13" d="m1412.78,305.79v-41.75h166.44v201.05h-37.9l-9.89-52.73c-28.93,41.02-71.6,61.52-127.99,61.52s-100.71-18.86-134.03-56.58c-34.06-37.35-51.09-86.6-51.09-147.77s16.84-110.22,50.54-148.32c33.32-37.35,78.36-56.03,135.13-56.03,46.5,0,84.96,12.45,115.36,37.35,30.39,24.91,48.89,58.05,55.48,99.43h-47.79c-4.76-28.92-18.68-52-41.75-69.21-22.34-16.84-49.44-25.27-81.3-25.27-41.75,0-75.08,14.65-99.98,43.95-24.91,29.3-37.35,68.66-37.35,118.1s12.44,88.81,37.35,118.1c24.9,29.3,58.23,43.94,99.98,43.94,36.99,0,68.48-11.9,94.48-35.71,26-23.8,39-53.83,39-90.09h-124.69Z"/>
    <path class="cls-13" d="m1664.91,465.1h-55.48v-54.93h55.48v54.93Zm-14.28-102.17h-28.57l-7.69-181.27v-107.67h46.14v107.67l-9.89,181.27Z"/>
    <path class="cls-13" d="m1797.29,217.35l-52.18,71.96-27.47-21.97,52.73-73.06-83.5-26.92,11.54-32.96,81.3,26.37v-86.79h35.16v86.79l81.3-26.37,11.54,32.96-83.5,26.92,52.73,73.06-27.47,21.97-52.18-71.96Z"/>
  </g>
  <g class="cls-16">
    <path class="cls-13" d="m130.69,190.66l-52.18,71.96-27.47-21.97,52.73-73.06-83.5-26.92,11.54-32.96,81.3,26.37V47.29h35.16v86.79l81.3-26.37,11.54,32.96-83.5,26.92,52.73,73.06-27.47,21.97-52.19-71.96Z"/>
    <path class="cls-13" d="m515.75,263.17l87.34-215.88h60.42v391.11h-45.04v-125.25c0-82.4.55-148.86,1.65-199.4-8.79,24.17-20.32,53.83-34.61,88.99l-96.68,235.66h-39.55l-97.23-235.66c-14.28-35.16-25.82-64.82-34.61-88.99,1.1,50.54,1.65,117,1.65,199.4v125.25h-45.04V47.29h60.42l90.64,222.47c13.54,33.33,28.38,70.86,44.49,112.61,22.33-59.33,37.71-99.06,46.14-119.2Z"/>
    <path class="cls-13" d="m901.92,138.48l57.13-91.19h52.18l-149.41,234.01v157.1h-46.14v-157.1l-149.41-234.01h52.73l57.68,91.74c24.9,38.82,45.77,72.51,62.62,101.07,23.43-39.55,44.31-73.42,62.62-101.62Z"/>
    <path class="cls-13" d="m1060.11,47.29v349.36h196.66v41.75h-242.8V47.29h46.14Z"/>
    <path class="cls-13" d="m1412.78,279.1v-41.75h166.44v201.05h-37.9l-9.89-52.73c-28.93,41.02-71.6,61.52-127.99,61.52s-100.71-18.86-134.03-56.58c-34.06-37.35-51.09-86.6-51.09-147.77s16.84-110.22,50.54-148.32c33.32-37.35,78.36-56.03,135.13-56.03,46.5,0,84.96,12.45,115.36,37.35,30.39,24.91,48.89,58.05,55.48,99.43h-47.79c-4.76-28.92-18.68-52-41.75-69.21-22.34-16.84-49.44-25.27-81.3-25.27-41.75,0-75.08,14.65-99.98,43.95-24.91,29.3-37.35,68.66-37.35,118.1s12.44,88.81,37.35,118.1c24.9,29.3,58.23,43.94,99.98,43.94,36.99,0,68.48-11.9,94.48-35.71,26-23.8,39-53.83,39-90.09h-124.69Z"/>
    <path class="cls-13" d="m1664.91,438.41h-55.48v-54.93h55.48v54.93Zm-14.28-102.17h-28.57l-7.69-181.27V47.29h46.14v107.67l-9.89,181.27Z"/>
    <path class="cls-13" d="m1797.29,190.66l-52.18,71.96-27.47-21.97,52.73-73.06-83.5-26.92,11.54-32.96,81.3,26.37V47.29h35.16v86.79l81.3-26.37,11.54,32.96-83.5,26.92,52.73,73.06-27.47,21.97-52.18-71.96Z"/>
  </g>
</svg>