<?xml version="1.0" encoding="UTF-8"?>
<svg id="Layer_1" data-name="Layer 1" xmlns="http://www.w3.org/2000/svg" viewBox="0 0 1920 1250">
  <defs>
    <style>

 .cls-all {
        fill: #0c0c0c;
        stroke-width: 0px;
      }


     .cls-1 {
          opacity: 0.25;
        }

        .cls-2 {
          opacity: 0.24;
        }

        .cls-3 {
          opacity: 0.23;
        }

        .cls-4 {
          opacity: 0.22;
        }

        .cls-5 {
          opacity: 0.21;
        }

        .cls-6 {
          opacity: 0.20;
        }

        .cls-7 {
          opacity: 0.19;
        }

        .cls-8 {
          opacity: 0.18;
        }

        .cls-9 {
          opacity: 0.17;
        }

        .cls-10 {
          opacity: 0.16;
        }

        .cls-50 {
          opacity: 0.15;
        }

        .cls-12 {
          opacity: 0.14;
        }

        .cls-13 {
          opacity: 0.13;
        }

        .cls-14 {
          opacity: 0.12;
        }

        .cls-15 {
          opacity: 0.11;
        }

        .cls-16 {
          opacity: 0.10;
        }

        .cls-17 {
          opacity: 0.09;
        }

        .cls-18 {
          opacity: 0.08;
        }

        .cls-19 {
          opacity: 0.07;
        }

        .cls-20 {
          opacity: 0.06;
        }

        .cls-21 {
          opacity: 0.05;
        }

        .cls-22 {
          opacity: 0.04;
        }

        .cls-23 {
          opacity: 1;
        }

        .cls-24 {
          opacity: 0.15;
        }

        .cls-25 {
          opacity: 0.10;
        }
      
    </style>
  </defs>
    <g class="cls-25">
    <path class="cls-all" d="m129.68,152.82l-52.18,71.96-27.47-21.97,52.73-73.06-83.5-26.92,11.54-32.96,81.3,26.37V9.45h35.16v86.79l81.3-26.37,11.54,32.96-83.5,26.92,52.73,73.06-27.47,21.97-52.19-71.96Z"/>
    <path class="cls-all" d="m514.75,225.33L602.09,9.45h60.42v391.11h-45.04v-125.24c0-82.4.55-148.86,1.65-199.4-8.79,24.17-20.32,53.83-34.61,88.99l-96.68,235.66h-39.55l-97.23-235.66c-14.28-35.16-25.82-64.82-34.61-88.99,1.1,50.54,1.65,117,1.65,199.4v125.24h-45.04V9.45h60.42l90.64,222.47c13.54,33.33,28.38,70.86,44.49,112.61,22.33-59.33,37.71-99.06,46.14-119.2Z"/>
    <path class="cls-all" d="m900.91,100.63l57.13-91.19h52.19l-149.41,234.01v157.1h-46.14v-157.1L665.26,9.45h52.73l57.68,91.74c24.9,38.82,45.77,72.51,62.62,101.07,23.43-39.55,44.31-73.42,62.62-101.62Z"/>
    <path class="cls-all" d="m1059.11,9.45v349.36h196.66v41.75h-242.8V9.45h46.14Z"/>
    <path class="cls-all" d="m1411.78,241.26v-41.75h166.44v201.05h-37.9l-9.89-52.73c-28.93,41.02-71.6,61.52-127.99,61.52s-100.71-18.86-134.03-56.58c-34.06-37.35-51.09-86.6-51.09-147.77s16.84-110.22,50.54-148.32C1301.17,19.33,1346.22.66,1402.99.66c46.5,0,84.96,12.45,115.36,37.35,30.39,24.91,48.89,58.05,55.48,99.43h-47.79c-4.76-28.92-18.68-52-41.75-69.21-22.34-16.84-49.44-25.27-81.3-25.27-41.75,0-75.08,14.65-99.98,43.95-24.91,29.3-37.35,68.66-37.35,118.1s12.45,88.81,37.35,118.1c24.9,29.3,58.23,43.95,99.98,43.95,36.98,0,68.48-11.9,94.48-35.71,26-23.8,39-53.83,39-90.09h-124.69Z"/>
    <path class="cls-all" d="m1663.91,400.56h-55.48v-54.93h55.48v54.93Zm-14.28-102.17h-28.56l-7.69-181.27V9.45h46.14v107.67l-9.89,181.27Z"/>
    <path class="cls-all" d="m1796.29,152.82l-52.18,71.96-27.47-21.97,52.73-73.06-83.5-26.92,11.54-32.96,81.3,26.37V9.45h35.16v86.79l81.3-26.37,11.54,32.96-83.5,26.92,52.73,73.06-27.47,21.97-52.19-71.96Z"/>
  </g>
    <g class="cls-24">
    <path class="cls-all" d="m129.68,187.82l-52.18,71.96-27.47-21.97,52.73-73.06-83.5-26.92,11.54-32.96,81.3,26.37V44.45h35.16v86.79l81.3-26.37,11.54,32.96-83.5,26.92,52.73,73.06-27.47,21.97-52.19-71.96Z"/>
    <path class="cls-all" d="m514.75,260.33l87.34-215.88h60.42v391.11h-45.04v-125.24c0-82.4.55-148.86,1.65-199.4-8.79,24.17-20.32,53.83-34.61,88.99l-96.68,235.66h-39.55l-97.23-235.66c-14.28-35.16-25.82-64.82-34.61-88.99,1.1,50.54,1.65,117,1.65,199.4v125.24h-45.04V44.45h60.42l90.64,222.47c13.54,33.33,28.38,70.86,44.49,112.61,22.33-59.33,37.71-99.06,46.14-119.2Z"/>
    <path class="cls-all" d="m900.91,135.63l57.13-91.19h52.19l-149.41,234.01v157.1h-46.14v-157.1l-149.41-234.01h52.73l57.68,91.74c24.9,38.82,45.77,72.51,62.62,101.07,23.43-39.55,44.31-73.42,62.62-101.62Z"/>
    <path class="cls-all" d="m1059.11,44.45v349.36h196.66v41.75h-242.8V44.45h46.14Z"/>
    <path class="cls-all" d="m1411.78,276.26v-41.75h166.44v201.05h-37.9l-9.89-52.73c-28.93,41.02-71.6,61.52-127.99,61.52s-100.71-18.86-134.03-56.58c-34.06-37.35-51.09-86.6-51.09-147.77s16.84-110.22,50.54-148.32c33.32-37.35,78.36-56.03,135.13-56.03,46.5,0,84.96,12.45,115.36,37.35,30.39,24.91,48.89,58.05,55.48,99.43h-47.79c-4.76-28.92-18.68-52-41.75-69.21-22.34-16.84-49.44-25.27-81.3-25.27-41.75,0-75.08,14.65-99.98,43.95-24.91,29.3-37.35,68.66-37.35,118.1s12.45,88.81,37.35,118.1c24.9,29.3,58.23,43.95,99.98,43.95,36.98,0,68.48-11.9,94.48-35.71,26-23.8,39-53.83,39-90.09h-124.69Z"/>
    <path class="cls-all" d="m1663.91,435.56h-55.48v-54.93h55.48v54.93Zm-14.28-102.17h-28.56l-7.69-181.27V44.45h46.14v107.67l-9.89,181.27Z"/>
    <path class="cls-all" d="m1796.29,187.82l-52.18,71.96-27.47-21.97,52.73-73.06-83.5-26.92,11.54-32.96,81.3,26.37V44.45h35.16v86.79l81.3-26.37,11.54,32.96-83.5,26.92,52.73,73.06-27.47,21.97-52.19-71.96Z"/>
  </g>

   <g class="cls-23">
    <path class="cls-all" d="m129.68,222.82l-52.18,71.96-27.47-21.97,52.73-73.06-83.5-26.92,11.54-32.96,81.3,26.37v-86.79h35.16v86.79l81.3-26.37,11.54,32.96-83.5,26.92,52.73,73.06-27.47,21.97-52.19-71.96Z"/>
    <path class="cls-all" d="m514.75,295.33l87.34-215.88h60.42v391.11h-45.04v-125.24c0-82.4.55-148.86,1.65-199.4-8.79,24.17-20.32,53.83-34.61,88.99l-96.68,235.66h-39.55l-97.23-235.66c-14.28-35.16-25.82-64.82-34.61-88.99,1.1,50.54,1.65,117,1.65,199.4v125.24h-45.04V79.45h60.42l90.64,222.47c13.54,33.33,28.38,70.86,44.49,112.61,22.33-59.33,37.71-99.06,46.14-119.2Z"/>
    <path class="cls-all" d="m900.91,170.63l57.13-91.19h52.19l-149.41,234.01v157.1h-46.14v-157.1l-149.41-234.01h52.73l57.68,91.74c24.9,38.82,45.77,72.51,62.62,101.07,23.43-39.55,44.31-73.42,62.62-101.62Z"/>
    <path class="cls-all" d="m1059.11,79.45v349.36h196.66v41.75h-242.8V79.45h46.14Z"/>
    <path class="cls-all" d="m1411.78,311.26v-41.75h166.44v201.05h-37.9l-9.89-52.73c-28.93,41.02-71.6,61.52-127.99,61.52s-100.71-18.86-134.03-56.58c-34.06-37.35-51.09-86.6-51.09-147.77s16.84-110.22,50.54-148.32c33.32-37.35,78.36-56.03,135.13-56.03,46.5,0,84.96,12.45,115.36,37.35,30.39,24.91,48.89,58.05,55.48,99.43h-47.79c-4.76-28.92-18.68-52-41.75-69.21-22.34-16.84-49.44-25.27-81.3-25.27-41.75,0-75.08,14.65-99.98,43.95-24.91,29.3-37.35,68.66-37.35,118.1s12.45,88.81,37.35,118.1c24.9,29.3,58.23,43.95,99.98,43.95,36.98,0,68.48-11.9,94.48-35.71,26-23.8,39-53.83,39-90.09h-124.69Z"/>
    <path class="cls-all" d="m1663.91,470.56h-55.48v-54.93h55.48v54.93Zm-14.28-102.17h-28.56l-7.69-181.27v-107.67h46.14v107.67l-9.89,181.27Z"/>
    <path class="cls-all" d="m1796.29,222.82l-52.18,71.96-27.47-21.97,52.73-73.06-83.5-26.92,11.54-32.96,81.3,26.37v-86.79h35.16v86.79l81.3-26.37,11.54,32.96-83.5,26.92,52.73,73.06-27.47,21.97-52.19-71.96Z"/>
  </g>
 <g class="cls-22">
    <path class="cls-all" d="m129.68,257.82l-52.18,71.96-27.47-21.97,52.73-73.06-83.5-26.92,11.54-32.96,81.3,26.37v-86.79h35.16v86.79l81.3-26.37,11.54,32.96-83.5,26.92,52.73,73.06-27.47,21.97-52.19-71.96Z"/>
    <path class="cls-all" d="m514.75,330.33l87.34-215.88h60.42v391.11h-45.04v-125.24c0-82.4.55-148.86,1.65-199.4-8.79,24.17-20.32,53.83-34.61,88.99l-96.68,235.66h-39.55l-97.23-235.66c-14.28-35.16-25.82-64.82-34.61-88.99,1.1,50.54,1.65,117,1.65,199.4v125.24h-45.04V114.45h60.42l90.64,222.47c13.54,33.33,28.38,70.86,44.49,112.61,22.33-59.33,37.71-99.06,46.14-119.2Z"/>
    <path class="cls-all" d="m900.91,205.63l57.13-91.19h52.19l-149.41,234.01v157.1h-46.14v-157.1l-149.41-234.01h52.73l57.68,91.74c24.9,38.82,45.77,72.51,62.62,101.07,23.43-39.55,44.31-73.42,62.62-101.62Z"/>
    <path class="cls-all" d="m1059.11,114.45v349.36h196.66v41.75h-242.8V114.45h46.14Z"/>
    <path class="cls-all" d="m1411.78,346.26v-41.75h166.44v201.05h-37.9l-9.89-52.73c-28.93,41.02-71.6,61.52-127.99,61.52s-100.71-18.86-134.03-56.58c-34.06-37.35-51.09-86.6-51.09-147.77s16.84-110.22,50.54-148.32c33.32-37.35,78.36-56.03,135.13-56.03,46.5,0,84.96,12.45,115.36,37.35,30.39,24.91,48.89,58.05,55.48,99.43h-47.79c-4.76-28.92-18.68-52-41.75-69.21-22.34-16.84-49.44-25.27-81.3-25.27-41.75,0-75.08,14.65-99.98,43.95-24.91,29.3-37.35,68.66-37.35,118.1s12.45,88.81,37.35,118.1c24.9,29.3,58.23,43.95,99.98,43.95,36.98,0,68.48-11.9,94.48-35.71,26-23.8,39-53.83,39-90.09h-124.69Z"/>
    <path class="cls-all" d="m1663.91,505.56h-55.48v-54.93h55.48v54.93Zm-14.28-102.17h-28.56l-7.69-181.27v-107.67h46.14v107.67l-9.89,181.27Z"/>
    <path class="cls-all" d="m1796.29,257.82l-52.18,71.96-27.47-21.97,52.73-73.06-83.5-26.92,11.54-32.96,81.3,26.37v-86.79h35.16v86.79l81.3-26.37,11.54,32.96-83.5,26.92,52.73,73.06-27.47,21.97-52.19-71.96Z"/>
  </g>
  <g class="cls-21">
    <path class="cls-all" d="m129.68,292.82l-52.18,71.96-27.47-21.97,52.73-73.06-83.5-26.92,11.54-32.96,81.3,26.37v-86.79h35.16v86.79l81.3-26.37,11.54,32.96-83.5,26.92,52.73,73.06-27.47,21.97-52.19-71.96Z"/>
    <path class="cls-all" d="m514.75,365.33l87.34-215.88h60.42v391.11h-45.04v-125.24c0-82.4.55-148.86,1.65-199.4-8.79,24.17-20.32,53.83-34.61,88.99l-96.68,235.66h-39.55l-97.23-235.66c-14.28-35.16-25.82-64.82-34.61-88.99,1.1,50.54,1.65,117,1.65,199.4v125.24h-45.04V149.45h60.42l90.64,222.47c13.54,33.33,28.38,70.86,44.49,112.61,22.33-59.33,37.71-99.06,46.14-119.2Z"/>
    <path class="cls-all" d="m900.91,240.63l57.13-91.19h52.19l-149.41,234.01v157.1h-46.14v-157.1l-149.41-234.01h52.73l57.68,91.74c24.9,38.82,45.77,72.51,62.62,101.07,23.43-39.55,44.31-73.42,62.62-101.62Z"/>
    <path class="cls-all" d="m1059.11,149.45v349.36h196.66v41.75h-242.8V149.45h46.14Z"/>
    <path class="cls-all" d="m1411.78,381.26v-41.75h166.44v201.05h-37.9l-9.89-52.73c-28.93,41.02-71.6,61.52-127.99,61.52s-100.71-18.86-134.03-56.58c-34.06-37.35-51.09-86.6-51.09-147.77s16.84-110.22,50.54-148.32c33.32-37.35,78.36-56.03,135.13-56.03,46.5,0,84.96,12.45,115.36,37.35,30.39,24.91,48.89,58.05,55.48,99.43h-47.79c-4.76-28.92-18.68-52-41.75-69.21-22.34-16.84-49.44-25.27-81.3-25.27-41.75,0-75.08,14.65-99.98,43.95-24.91,29.3-37.35,68.66-37.35,118.1s12.45,88.81,37.35,118.1c24.9,29.3,58.23,43.95,99.98,43.95,36.98,0,68.48-11.9,94.48-35.71,26-23.8,39-53.83,39-90.09h-124.69Z"/>
    <path class="cls-all" d="m1663.91,540.56h-55.48v-54.93h55.48v54.93Zm-14.28-102.17h-28.56l-7.69-181.27v-107.67h46.14v107.67l-9.89,181.27Z"/>
    <path class="cls-all" d="m1796.29,292.82l-52.18,71.96-27.47-21.97,52.73-73.06-83.5-26.92,11.54-32.96,81.3,26.37v-86.79h35.16v86.79l81.3-26.37,11.54,32.96-83.5,26.92,52.73,73.06-27.47,21.97-52.19-71.96Z"/>
  </g>
  <g class="cls-20">
    <path class="cls-all" d="m129.68,327.82l-52.18,71.96-27.47-21.97,52.73-73.06-83.5-26.92,11.54-32.96,81.3,26.37v-86.79h35.16v86.79l81.3-26.37,11.54,32.96-83.5,26.92,52.73,73.06-27.47,21.97-52.19-71.96Z"/>
    <path class="cls-all" d="m514.75,400.33l87.34-215.88h60.42v391.11h-45.04v-125.24c0-82.4.55-148.86,1.65-199.4-8.79,24.17-20.32,53.83-34.61,88.99l-96.68,235.66h-39.55l-97.23-235.66c-14.28-35.16-25.82-64.82-34.61-88.99,1.1,50.54,1.65,117,1.65,199.4v125.24h-45.04V184.45h60.42l90.64,222.47c13.54,33.33,28.38,70.86,44.49,112.61,22.33-59.33,37.71-99.06,46.14-119.2Z"/>
    <path class="cls-all" d="m900.91,275.63l57.13-91.19h52.19l-149.41,234.01v157.1h-46.14v-157.1l-149.41-234.01h52.73l57.68,91.74c24.9,38.82,45.77,72.51,62.62,101.07,23.43-39.55,44.31-73.42,62.62-101.62Z"/>
    <path class="cls-all" d="m1059.11,184.45v349.36h196.66v41.75h-242.8V184.45h46.14Z"/>
    <path class="cls-all" d="m1411.78,416.26v-41.75h166.44v201.05h-37.9l-9.89-52.73c-28.93,41.02-71.6,61.52-127.99,61.52s-100.71-18.86-134.03-56.58c-34.06-37.35-51.09-86.6-51.09-147.77s16.84-110.22,50.54-148.32c33.32-37.35,78.36-56.03,135.13-56.03,46.5,0,84.96,12.45,115.36,37.35,30.39,24.91,48.89,58.05,55.48,99.43h-47.79c-4.76-28.92-18.68-52-41.75-69.21-22.34-16.84-49.44-25.27-81.3-25.27-41.75,0-75.08,14.65-99.98,43.95-24.91,29.3-37.35,68.66-37.35,118.1s12.45,88.81,37.35,118.1c24.9,29.3,58.23,43.95,99.98,43.95,36.98,0,68.48-11.9,94.48-35.71,26-23.8,39-53.83,39-90.09h-124.69Z"/>
    <path class="cls-all" d="m1663.91,575.56h-55.48v-54.93h55.48v54.93Zm-14.28-102.17h-28.56l-7.69-181.27v-107.67h46.14v107.67l-9.89,181.27Z"/>
    <path class="cls-all" d="m1796.29,327.82l-52.18,71.96-27.47-21.97,52.73-73.06-83.5-26.92,11.54-32.96,81.3,26.37v-86.79h35.16v86.79l81.3-26.37,11.54,32.96-83.5,26.92,52.73,73.06-27.47,21.97-52.19-71.96Z"/>
  </g>

   <g class="cls-19">
    <path class="cls-all" d="m129.68,362.82l-52.18,71.96-27.47-21.97,52.73-73.06-83.5-26.92,11.54-32.96,81.3,26.37v-86.79h35.16v86.79l81.3-26.37,11.54,32.96-83.5,26.92,52.73,73.06-27.47,21.97-52.19-71.96Z"/>
    <path class="cls-all" d="m514.75,435.33l87.34-215.88h60.42v391.11h-45.04v-125.24c0-82.4.55-148.86,1.65-199.4-8.79,24.17-20.32,53.83-34.61,88.99l-96.68,235.66h-39.55l-97.23-235.66c-14.28-35.16-25.82-64.82-34.61-88.99,1.1,50.54,1.65,117,1.65,199.4v125.24h-45.04V219.45h60.42l90.64,222.47c13.54,33.33,28.38,70.86,44.49,112.61,22.33-59.33,37.71-99.06,46.14-119.2Z"/>
    <path class="cls-all" d="m900.91,310.63l57.13-91.19h52.19l-149.41,234.01v157.1h-46.14v-157.1l-149.41-234.01h52.73l57.68,91.74c24.9,38.82,45.77,72.51,62.62,101.07,23.43-39.55,44.31-73.42,62.62-101.62Z"/>
    <path class="cls-all" d="m1059.11,219.45v349.36h196.66v41.75h-242.8V219.45h46.14Z"/>
    <path class="cls-all" d="m1411.78,451.26v-41.75h166.44v201.05h-37.9l-9.89-52.73c-28.93,41.02-71.6,61.52-127.99,61.52s-100.71-18.86-134.03-56.58c-34.06-37.35-51.09-86.6-51.09-147.77s16.84-110.22,50.54-148.32c33.32-37.35,78.36-56.03,135.13-56.03,46.5,0,84.96,12.45,115.36,37.35,30.39,24.91,48.89,58.05,55.48,99.43h-47.79c-4.76-28.92-18.68-52-41.75-69.21-22.34-16.84-49.44-25.27-81.3-25.27-41.75,0-75.08,14.65-99.98,43.95-24.91,29.3-37.35,68.66-37.35,118.1s12.45,88.81,37.35,118.1c24.9,29.3,58.23,43.95,99.98,43.95,36.98,0,68.48-11.9,94.48-35.71,26-23.8,39-53.83,39-90.09h-124.69Z"/>
    <path class="cls-all" d="m1663.91,610.56h-55.48v-54.93h55.48v54.93Zm-14.28-102.17h-28.56l-7.69-181.27v-107.67h46.14v107.67l-9.89,181.27Z"/>
    <path class="cls-all" d="m1796.29,362.82l-52.18,71.96-27.47-21.97,52.73-73.06-83.5-26.92,11.54-32.96,81.3,26.37v-86.79h35.16v86.79l81.3-26.37,11.54,32.96-83.5,26.92,52.73,73.06-27.47,21.97-52.19-71.96Z"/>
  </g>

  
  <g class="cls-18">
    <path class="cls-all" d="m129.68,397.82l-52.18,71.96-27.47-21.97,52.73-73.06-83.5-26.92,11.54-32.96,81.3,26.37v-86.79h35.16v86.79l81.3-26.37,11.54,32.96-83.5,26.92,52.73,73.06-27.47,21.97-52.19-71.96Z"/>
    <path class="cls-all" d="m514.75,470.33l87.34-215.88h60.42v391.11h-45.04v-125.24c0-82.4.55-148.86,1.65-199.4-8.79,24.17-20.32,53.83-34.61,88.99l-96.68,235.66h-39.55l-97.23-235.66c-14.28-35.16-25.82-64.82-34.61-88.99,1.1,50.54,1.65,117,1.65,199.4v125.24h-45.04V254.45h60.42l90.64,222.47c13.54,33.33,28.38,70.86,44.49,112.61,22.33-59.33,37.71-99.06,46.14-119.2Z"/>
    <path class="cls-all" d="m900.91,345.63l57.13-91.19h52.19l-149.41,234.01v157.1h-46.14v-157.1l-149.41-234.01h52.73l57.68,91.74c24.9,38.82,45.77,72.51,62.62,101.07,23.43-39.55,44.31-73.42,62.62-101.62Z"/>
    <path class="cls-all" d="m1059.11,254.45v349.36h196.66v41.75h-242.8V254.45h46.14Z"/>
    <path class="cls-all" d="m1411.78,486.26v-41.75h166.44v201.05h-37.9l-9.89-52.73c-28.93,41.02-71.6,61.52-127.99,61.52s-100.71-18.86-134.03-56.58c-34.06-37.35-51.09-86.6-51.09-147.77s16.84-110.22,50.54-148.32c33.32-37.35,78.36-56.03,135.13-56.03,46.5,0,84.96,12.45,115.36,37.35,30.39,24.91,48.89,58.05,55.48,99.43h-47.79c-4.76-28.92-18.68-52-41.75-69.21-22.34-16.84-49.44-25.27-81.3-25.27-41.75,0-75.08,14.65-99.98,43.95-24.91,29.3-37.35,68.66-37.35,118.1s12.45,88.81,37.35,118.1c24.9,29.3,58.23,43.95,99.98,43.95,36.98,0,68.48-11.9,94.48-35.71,26-23.8,39-53.83,39-90.09h-124.69Z"/>
    <path class="cls-all" d="m1663.91,645.56h-55.48v-54.93h55.48v54.93Zm-14.28-102.17h-28.56l-7.69-181.27v-107.67h46.14v107.67l-9.89,181.27Z"/>
    <path class="cls-all" d="m1796.29,397.82l-52.18,71.96-27.47-21.97,52.73-73.06-83.5-26.92,11.54-32.96,81.3,26.37v-86.79h35.16v86.79l81.3-26.37,11.54,32.96-83.5,26.92,52.73,73.06-27.47,21.97-52.19-71.96Z"/>
  </g>
  
  <g class="cls-17">
    <path class="cls-all" d="m129.68,432.82l-52.18,71.96-27.47-21.97,52.73-73.06-83.5-26.92,11.54-32.96,81.3,26.37v-86.79h35.16v86.79l81.3-26.37,11.54,32.96-83.5,26.92,52.73,73.06-27.47,21.97-52.19-71.96Z"/>
    <path class="cls-all" d="m514.75,505.33l87.34-215.88h60.42v391.11h-45.04v-125.24c0-82.4.55-148.86,1.65-199.4-8.79,24.17-20.32,53.83-34.61,88.99l-96.68,235.66h-39.55l-97.23-235.66c-14.28-35.16-25.82-64.82-34.61-88.99,1.1,50.54,1.65,117,1.65,199.4v125.24h-45.04v-391.11h60.42l90.64,222.47c13.54,33.33,28.38,70.86,44.49,112.61,22.33-59.33,37.71-99.06,46.14-119.2Z"/>
    <path class="cls-all" d="m900.91,380.63l57.13-91.19h52.19l-149.41,234.01v157.1h-46.14v-157.1l-149.41-234.01h52.73l57.68,91.74c24.9,38.82,45.77,72.51,62.62,101.07,23.43-39.55,44.31-73.42,62.62-101.62Z"/>
    <path class="cls-all" d="m1059.11,289.45v349.36h196.66v41.75h-242.8v-391.11h46.14Z"/>
    <path class="cls-all" d="m1411.78,521.26v-41.75h166.44v201.05h-37.9l-9.89-52.73c-28.93,41.02-71.6,61.52-127.99,61.52s-100.71-18.86-134.03-56.58c-34.06-37.35-51.09-86.6-51.09-147.77s16.84-110.22,50.54-148.32c33.32-37.35,78.36-56.03,135.13-56.03,46.5,0,84.96,12.45,115.36,37.35,30.39,24.91,48.89,58.05,55.48,99.43h-47.79c-4.76-28.92-18.68-52-41.75-69.21-22.34-16.84-49.44-25.27-81.3-25.27-41.75,0-75.08,14.65-99.98,43.95-24.91,29.3-37.35,68.66-37.35,118.1s12.45,88.81,37.35,118.1c24.9,29.3,58.23,43.95,99.98,43.95,36.98,0,68.48-11.9,94.48-35.71,26-23.8,39-53.83,39-90.09h-124.69Z"/>
    <path class="cls-all" d="m1663.91,680.56h-55.48v-54.93h55.48v54.93Zm-14.28-102.17h-28.56l-7.69-181.27v-107.67h46.14v107.67l-9.89,181.27Z"/>
    <path class="cls-all" d="m1796.29,432.82l-52.18,71.96-27.47-21.97,52.73-73.06-83.5-26.92,11.54-32.96,81.3,26.37v-86.79h35.16v86.79l81.3-26.37,11.54,32.96-83.5,26.92,52.73,73.06-27.47,21.97-52.19-71.96Z"/>
  </g>
   <g class="cls-16">
    <path class="cls-all" d="m129.68,467.82l-52.18,71.96-27.47-21.97,52.73-73.06-83.5-26.92,11.54-32.96,81.3,26.37v-86.79h35.16v86.79l81.3-26.37,11.54,32.96-83.5,26.92,52.73,73.06-27.47,21.97-52.19-71.96Z"/>
    <path class="cls-all" d="m514.75,540.33l87.34-215.88h60.42v391.11h-45.04v-125.24c0-82.4.55-148.86,1.65-199.4-8.79,24.17-20.32,53.83-34.61,88.99l-96.68,235.66h-39.55l-97.23-235.66c-14.28-35.16-25.82-64.82-34.61-88.99,1.1,50.54,1.65,117,1.65,199.4v125.24h-45.04v-391.11h60.42l90.64,222.47c13.54,33.33,28.38,70.86,44.49,112.61,22.33-59.33,37.71-99.06,46.14-119.2Z"/>
    <path class="cls-all" d="m900.91,415.63l57.13-91.19h52.19l-149.41,234.01v157.1h-46.14v-157.1l-149.41-234.01h52.73l57.68,91.74c24.9,38.82,45.77,72.51,62.62,101.07,23.43-39.55,44.31-73.42,62.62-101.62Z"/>
    <path class="cls-all" d="m1059.11,324.45v349.36h196.66v41.75h-242.8v-391.11h46.14Z"/>
    <path class="cls-all" d="m1411.78,556.26v-41.75h166.44v201.05h-37.9l-9.89-52.73c-28.93,41.02-71.6,61.52-127.99,61.52s-100.71-18.86-134.03-56.58c-34.06-37.35-51.09-86.6-51.09-147.77s16.84-110.22,50.54-148.32c33.32-37.35,78.36-56.03,135.13-56.03,46.5,0,84.96,12.45,115.36,37.35,30.39,24.91,48.89,58.05,55.48,99.43h-47.79c-4.76-28.92-18.68-52-41.75-69.21-22.34-16.84-49.44-25.27-81.3-25.27-41.75,0-75.08,14.65-99.98,43.95-24.91,29.3-37.35,68.66-37.35,118.1s12.45,88.81,37.35,118.1c24.9,29.3,58.23,43.95,99.98,43.95,36.98,0,68.48-11.9,94.48-35.71,26-23.8,39-53.83,39-90.09h-124.69Z"/>
    <path class="cls-all" d="m1663.91,715.56h-55.48v-54.93h55.48v54.93Zm-14.28-102.17h-28.56l-7.69-181.27v-107.67h46.14v107.67l-9.89,181.27Z"/>
    <path class="cls-all" d="m1796.29,467.82l-52.18,71.96-27.47-21.97,52.73-73.06-83.5-26.92,11.54-32.96,81.3,26.37v-86.79h35.16v86.79l81.3-26.37,11.54,32.96-83.5,26.92,52.73,73.06-27.47,21.97-52.19-71.96Z"/>
  </g>
 <g class="cls-15">
    <path class="cls-all" d="m129.68,502.82l-52.18,71.96-27.47-21.97,52.73-73.06-83.5-26.92,11.54-32.96,81.3,26.37v-86.79h35.16v86.79l81.3-26.37,11.54,32.96-83.5,26.92,52.73,73.06-27.47,21.97-52.19-71.96Z"/>
    <path class="cls-all" d="m514.75,575.33l87.34-215.88h60.42v391.11h-45.04v-125.24c0-82.4.55-148.86,1.65-199.4-8.79,24.17-20.32,53.83-34.61,88.99l-96.68,235.66h-39.55l-97.23-235.66c-14.28-35.16-25.82-64.82-34.61-88.99,1.1,50.54,1.65,117,1.65,199.4v125.24h-45.04v-391.11h60.42l90.64,222.47c13.54,33.33,28.38,70.86,44.49,112.61,22.33-59.33,37.71-99.06,46.14-119.2Z"/>
    <path class="cls-all" d="m900.91,450.63l57.13-91.19h52.19l-149.41,234.01v157.1h-46.14v-157.1l-149.41-234.01h52.73l57.68,91.74c24.9,38.82,45.77,72.51,62.62,101.07,23.43-39.55,44.31-73.42,62.62-101.62Z"/>
    <path class="cls-all" d="m1059.11,359.45v349.36h196.66v41.75h-242.8v-391.11h46.14Z"/>
    <path class="cls-all" d="m1411.78,591.26v-41.75h166.44v201.05h-37.9l-9.89-52.73c-28.93,41.02-71.6,61.52-127.99,61.52s-100.71-18.86-134.03-56.58c-34.06-37.35-51.09-86.6-51.09-147.77s16.84-110.22,50.54-148.32c33.32-37.35,78.36-56.03,135.13-56.03,46.5,0,84.96,12.45,115.36,37.35,30.39,24.91,48.89,58.05,55.48,99.43h-47.79c-4.76-28.92-18.68-52-41.75-69.21-22.34-16.84-49.44-25.27-81.3-25.27-41.75,0-75.08,14.65-99.98,43.95-24.91,29.3-37.35,68.66-37.35,118.1s12.45,88.81,37.35,118.1c24.9,29.3,58.23,43.95,99.98,43.95,36.98,0,68.48-11.9,94.48-35.71,26-23.8,39-53.83,39-90.09h-124.69Z"/>
    <path class="cls-all" d="m1663.91,750.56h-55.48v-54.93h55.48v54.93Zm-14.28-102.17h-28.56l-7.69-181.27v-107.67h46.14v107.67l-9.89,181.27Z"/>
    <path class="cls-all" d="m1796.29,502.82l-52.18,71.96-27.47-21.97,52.73-73.06-83.5-26.92,11.54-32.96,81.3,26.37v-86.79h35.16v86.79l81.3-26.37,11.54,32.96-83.5,26.92,52.73,73.06-27.47,21.97-52.19-71.96Z"/>
  </g>
  
 <g class="cls-14">
    <path class="cls-all" d="m129.68,537.82l-52.18,71.96-27.47-21.97,52.73-73.06-83.5-26.92,11.54-32.96,81.3,26.37v-86.79h35.16v86.79l81.3-26.37,11.54,32.96-83.5,26.92,52.73,73.06-27.47,21.97-52.19-71.96Z"/>
    <path class="cls-all" d="m514.75,610.33l87.34-215.88h60.42v391.11h-45.04v-125.24c0-82.4.55-148.86,1.65-199.4-8.79,24.17-20.32,53.83-34.61,88.99l-96.68,235.66h-39.55l-97.23-235.66c-14.28-35.16-25.82-64.82-34.61-88.99,1.1,50.54,1.65,117,1.65,199.4v125.24h-45.04v-391.11h60.42l90.64,222.47c13.54,33.33,28.38,70.86,44.49,112.61,22.33-59.33,37.71-99.06,46.14-119.2Z"/>
    <path class="cls-all" d="m900.91,485.63l57.13-91.19h52.19l-149.41,234.01v157.1h-46.14v-157.1l-149.41-234.01h52.73l57.68,91.74c24.9,38.82,45.77,72.51,62.62,101.07,23.43-39.55,44.31-73.42,62.62-101.62Z"/>
    <path class="cls-all" d="m1059.11,394.45v349.36h196.66v41.75h-242.8v-391.11h46.14Z"/>
    <path class="cls-all" d="m1411.78,626.26v-41.75h166.44v201.05h-37.9l-9.89-52.73c-28.93,41.02-71.6,61.52-127.99,61.52s-100.71-18.86-134.03-56.58c-34.06-37.35-51.09-86.6-51.09-147.77s16.84-110.22,50.54-148.32c33.32-37.35,78.36-56.03,135.13-56.03,46.5,0,84.96,12.45,115.36,37.35,30.39,24.91,48.89,58.05,55.48,99.43h-47.79c-4.76-28.92-18.68-52-41.75-69.21-22.34-16.84-49.44-25.27-81.3-25.27-41.75,0-75.08,14.65-99.98,43.95-24.91,29.3-37.35,68.66-37.35,118.1s12.45,88.81,37.35,118.1c24.9,29.3,58.23,43.95,99.98,43.95,36.98,0,68.48-11.9,94.48-35.71,26-23.8,39-53.83,39-90.09h-124.69Z"/>
    <path class="cls-all" d="m1663.91,785.56h-55.48v-54.93h55.48v54.93Zm-14.28-102.17h-28.56l-7.69-181.27v-107.67h46.14v107.67l-9.89,181.27Z"/>
    <path class="cls-all" d="m1796.29,537.82l-52.18,71.96-27.47-21.97,52.73-73.06-83.5-26.92,11.54-32.96,81.3,26.37v-86.79h35.16v86.79l81.3-26.37,11.54,32.96-83.5,26.92,52.73,73.06-27.47,21.97-52.19-71.96Z"/>
  </g>
 
  <g class="cls-13">
    <path class="cls-all" d="m129.68,572.82l-52.18,71.96-27.47-21.97,52.73-73.06-83.5-26.92,11.54-32.96,81.3,26.37v-86.79h35.16v86.79l81.3-26.37,11.54,32.96-83.5,26.92,52.73,73.06-27.47,21.97-52.19-71.96Z"/>
    <path class="cls-all" d="m514.75,645.33l87.34-215.88h60.42v391.11h-45.04v-125.24c0-82.4.55-148.86,1.65-199.4-8.79,24.17-20.32,53.83-34.61,88.99l-96.68,235.66h-39.55l-97.23-235.66c-14.28-35.16-25.82-64.82-34.61-88.99,1.1,50.54,1.65,117,1.65,199.4v125.24h-45.04v-391.11h60.42l90.64,222.47c13.54,33.33,28.38,70.86,44.49,112.61,22.33-59.33,37.71-99.06,46.14-119.2Z"/>
    <path class="cls-all" d="m900.91,520.63l57.13-91.19h52.19l-149.41,234.01v157.1h-46.14v-157.1l-149.41-234.01h52.73l57.68,91.74c24.9,38.82,45.77,72.51,62.62,101.07,23.43-39.55,44.31-73.42,62.62-101.62Z"/>
    <path class="cls-all" d="m1059.11,429.45v349.36h196.66v41.75h-242.8v-391.11h46.14Z"/>
    <path class="cls-all" d="m1411.78,661.26v-41.75h166.44v201.05h-37.9l-9.89-52.73c-28.93,41.02-71.6,61.52-127.99,61.52s-100.71-18.86-134.03-56.58c-34.06-37.35-51.09-86.6-51.09-147.77s16.84-110.22,50.54-148.32c33.32-37.35,78.36-56.03,135.13-56.03,46.5,0,84.96,12.45,115.36,37.35,30.39,24.91,48.89,58.05,55.48,99.43h-47.79c-4.76-28.92-18.68-52-41.75-69.21-22.34-16.84-49.44-25.27-81.3-25.27-41.75,0-75.08,14.65-99.98,43.95-24.91,29.3-37.35,68.66-37.35,118.1s12.45,88.81,37.35,118.1c24.9,29.3,58.23,43.95,99.98,43.95,36.98,0,68.48-11.9,94.48-35.71,26-23.8,39-53.83,39-90.09h-124.69Z"/>
    <path class="cls-all" d="m1663.91,820.56h-55.48v-54.93h55.48v54.93Zm-14.28-102.17h-28.56l-7.69-181.27v-107.67h46.14v107.67l-9.89,181.27Z"/>
    <path class="cls-all" d="m1796.29,572.82l-52.18,71.96-27.47-21.97,52.73-73.06-83.5-26.92,11.54-32.96,81.3,26.37v-86.79h35.16v86.79l81.3-26.37,11.54,32.96-83.5,26.92,52.73,73.06-27.47,21.97-52.19-71.96Z"/>
  </g>
 
  <g class="cls-12">
    <path class="cls-all" d="m129.68,607.82l-52.18,71.96-27.47-21.97,52.73-73.06-83.5-26.92,11.54-32.96,81.3,26.37v-86.79h35.16v86.79l81.3-26.37,11.54,32.96-83.5,26.92,52.73,73.06-27.47,21.97-52.19-71.96Z"/>
    <path class="cls-all" d="m514.75,680.33l87.34-215.88h60.42v391.11h-45.04v-125.24c0-82.4.55-148.86,1.65-199.4-8.79,24.17-20.32,53.83-34.61,88.99l-96.68,235.66h-39.55l-97.23-235.66c-14.28-35.16-25.82-64.82-34.61-88.99,1.1,50.54,1.65,117,1.65,199.4v125.24h-45.04v-391.11h60.42l90.64,222.47c13.54,33.33,28.38,70.86,44.49,112.61,22.33-59.33,37.71-99.06,46.14-119.2Z"/>
    <path class="cls-all" d="m900.91,555.63l57.13-91.19h52.19l-149.41,234.01v157.1h-46.14v-157.1l-149.41-234.01h52.73l57.68,91.74c24.9,38.82,45.77,72.51,62.62,101.07,23.43-39.55,44.31-73.42,62.62-101.62Z"/>
    <path class="cls-all" d="m1059.11,464.45v349.36h196.66v41.75h-242.8v-391.11h46.14Z"/>
    <path class="cls-all" d="m1411.78,696.26v-41.75h166.44v201.05h-37.9l-9.89-52.73c-28.93,41.02-71.6,61.52-127.99,61.52s-100.71-18.86-134.03-56.58c-34.06-37.35-51.09-86.6-51.09-147.77s16.84-110.22,50.54-148.32c33.32-37.35,78.36-56.03,135.13-56.03,46.5,0,84.96,12.45,115.36,37.35,30.39,24.91,48.89,58.05,55.48,99.43h-47.79c-4.76-28.92-18.68-52-41.75-69.21-22.34-16.84-49.44-25.27-81.3-25.27-41.75,0-75.08,14.65-99.98,43.95-24.91,29.3-37.35,68.66-37.35,118.1s12.45,88.81,37.35,118.1c24.9,29.3,58.23,43.95,99.98,43.95,36.98,0,68.48-11.9,94.48-35.71,26-23.8,39-53.83,39-90.09h-124.69Z"/>
    <path class="cls-all" d="m1663.91,855.56h-55.48v-54.93h55.48v54.93Zm-14.28-102.17h-28.56l-7.69-181.27v-107.67h46.14v107.67l-9.89,181.27Z"/>
    <path class="cls-all" d="m1796.29,607.82l-52.18,71.96-27.47-21.97,52.73-73.06-83.5-26.92,11.54-32.96,81.3,26.37v-86.79h35.16v86.79l81.3-26.37,11.54,32.96-83.5,26.92,52.73,73.06-27.47,21.97-52.19-71.96Z"/>
  </g>

    <g class="cls-50">
    <path class="cls-all" d="m129.68,642.82l-52.18,71.96-27.47-21.97,52.73-73.06-83.5-26.92,11.54-32.96,81.3,26.37v-86.79h35.16v86.79l81.3-26.37,11.54,32.96-83.5,26.92,52.73,73.06-27.47,21.97-52.19-71.96Z"/>
    <path class="cls-all" d="m514.75,715.33l87.34-215.88h60.42v391.11h-45.04v-125.24c0-82.4.55-148.86,1.65-199.4-8.79,24.17-20.32,53.83-34.61,88.99l-96.68,235.66h-39.55l-97.23-235.66c-14.28-35.16-25.82-64.82-34.61-88.99,1.1,50.54,1.65,117,1.65,199.4v125.24h-45.04v-391.11h60.42l90.64,222.47c13.54,33.33,28.38,70.86,44.49,112.61,22.33-59.33,37.71-99.06,46.14-119.2Z"/>
    <path class="cls-all" d="m900.91,590.63l57.13-91.19h52.19l-149.41,234.01v157.1h-46.14v-157.1l-149.41-234.01h52.73l57.68,91.74c24.9,38.82,45.77,72.51,62.62,101.07,23.43-39.55,44.31-73.42,62.62-101.62Z"/>
    <path class="cls-all" d="m1059.11,499.45v349.36h196.66v41.75h-242.8v-391.11h46.14Z"/>
    <path class="cls-all" d="m1411.78,731.26v-41.75h166.44v201.05h-37.9l-9.89-52.73c-28.93,41.02-71.6,61.52-127.99,61.52s-100.71-18.86-134.03-56.58c-34.06-37.35-51.09-86.6-51.09-147.77s16.84-110.22,50.54-148.32c33.32-37.35,78.36-56.03,135.13-56.03,46.5,0,84.96,12.45,115.36,37.35,30.39,24.91,48.89,58.05,55.48,99.43h-47.79c-4.76-28.92-18.68-52-41.75-69.21-22.34-16.84-49.44-25.27-81.3-25.27-41.75,0-75.08,14.65-99.98,43.95-24.91,29.3-37.35,68.66-37.35,118.1s12.45,88.81,37.35,118.1c24.9,29.3,58.23,43.95,99.98,43.95,36.98,0,68.48-11.9,94.48-35.71,26-23.8,39-53.83,39-90.09h-124.69Z"/>
    <path class="cls-all" d="m1663.91,890.56h-55.48v-54.93h55.48v54.93Zm-14.28-102.17h-28.56l-7.69-181.27v-107.67h46.14v107.67l-9.89,181.27Z"/>
    <path class="cls-all" d="m1796.29,642.82l-52.18,71.96-27.47-21.97,52.73-73.06-83.5-26.92,11.54-32.96,81.3,26.37v-86.79h35.16v86.79l81.3-26.37,11.54,32.96-83.5,26.92,52.73,73.06-27.47,21.97-52.19-71.96Z"/>
  </g>

  <g class="cls-10">
    <path class="cls-all" d="m129.68,677.82l-52.18,71.96-27.47-21.97,52.73-73.06-83.5-26.92,11.54-32.96,81.3,26.37v-86.79h35.16v86.79l81.3-26.37,11.54,32.96-83.5,26.92,52.73,73.06-27.47,21.97-52.19-71.96Z"/>
    <path class="cls-all" d="m514.75,750.33l87.34-215.88h60.42v391.11h-45.04v-125.24c0-82.4.55-148.86,1.65-199.4-8.79,24.17-20.32,53.83-34.61,88.99l-96.68,235.66h-39.55l-97.23-235.66c-14.28-35.16-25.82-64.82-34.61-88.99,1.1,50.54,1.65,117,1.65,199.4v125.24h-45.04v-391.11h60.42l90.64,222.47c13.54,33.33,28.38,70.86,44.49,112.61,22.33-59.33,37.71-99.06,46.14-119.2Z"/>
    <path class="cls-all" d="m900.91,625.63l57.13-91.19h52.19l-149.41,234.01v157.1h-46.14v-157.1l-149.41-234.01h52.73l57.68,91.74c24.9,38.82,45.77,72.51,62.62,101.07,23.43-39.55,44.31-73.42,62.62-101.62Z"/>
    <path class="cls-all" d="m1059.11,534.45v349.36h196.66v41.75h-242.8v-391.11h46.14Z"/>
    <path class="cls-all" d="m1411.78,766.26v-41.75h166.44v201.05h-37.9l-9.89-52.73c-28.93,41.02-71.6,61.52-127.99,61.52s-100.71-18.86-134.03-56.58c-34.06-37.35-51.09-86.6-51.09-147.77s16.84-110.22,50.54-148.32c33.32-37.35,78.36-56.03,135.13-56.03,46.5,0,84.96,12.45,115.36,37.35,30.39,24.91,48.89,58.05,55.48,99.43h-47.79c-4.76-28.92-18.68-52-41.75-69.21-22.34-16.84-49.44-25.27-81.3-25.27-41.75,0-75.08,14.65-99.98,43.95-24.91,29.3-37.35,68.66-37.35,118.1s12.45,88.81,37.35,118.1c24.9,29.3,58.23,43.95,99.98,43.95,36.98,0,68.48-11.9,94.48-35.71,26-23.8,39-53.83,39-90.09h-124.69Z"/>
    <path class="cls-all" d="m1663.91,925.56h-55.48v-54.93h55.48v54.93Zm-14.28-102.17h-28.56l-7.69-181.27v-107.67h46.14v107.67l-9.89,181.27Z"/>
    <path class="cls-all" d="m1796.29,677.82l-52.18,71.96-27.47-21.97,52.73-73.06-83.5-26.92,11.54-32.96,81.3,26.37v-86.79h35.16v86.79l81.3-26.37,11.54,32.96-83.5,26.92,52.73,73.06-27.47,21.97-52.19-71.96Z"/>
  </g>
 
  <g class="cls-9">
    <path class="cls-all" d="m129.68,712.82l-52.18,71.96-27.47-21.97,52.73-73.06-83.5-26.92,11.54-32.96,81.3,26.37v-86.79h35.16v86.79l81.3-26.37,11.54,32.96-83.5,26.92,52.73,73.06-27.47,21.97-52.19-71.96Z"/>
    <path class="cls-all" d="m514.75,785.33l87.34-215.88h60.42v391.11h-45.04v-125.24c0-82.4.55-148.86,1.65-199.4-8.79,24.17-20.32,53.83-34.61,88.99l-96.68,235.66h-39.55l-97.23-235.66c-14.28-35.16-25.82-64.82-34.61-88.99,1.1,50.54,1.65,117,1.65,199.4v125.24h-45.04v-391.11h60.42l90.64,222.47c13.54,33.33,28.38,70.86,44.49,112.61,22.33-59.33,37.71-99.06,46.14-119.2Z"/>
    <path class="cls-all" d="m900.91,660.63l57.13-91.19h52.19l-149.41,234.01v157.1h-46.14v-157.1l-149.41-234.01h52.73l57.68,91.74c24.9,38.82,45.77,72.51,62.62,101.07,23.43-39.55,44.31-73.42,62.62-101.62Z"/>
    <path class="cls-all" d="m1059.11,569.45v349.36h196.66v41.75h-242.8v-391.11h46.14Z"/>
    <path class="cls-all" d="m1411.78,801.26v-41.75h166.44v201.05h-37.9l-9.89-52.73c-28.93,41.02-71.6,61.52-127.99,61.52s-100.71-18.86-134.03-56.58c-34.06-37.35-51.09-86.6-51.09-147.77s16.84-110.22,50.54-148.32c33.32-37.35,78.36-56.03,135.13-56.03,46.5,0,84.96,12.45,115.36,37.35,30.39,24.91,48.89,58.05,55.48,99.43h-47.79c-4.76-28.92-18.68-52-41.75-69.21-22.34-16.84-49.44-25.27-81.3-25.27-41.75,0-75.08,14.65-99.98,43.95-24.91,29.3-37.35,68.66-37.35,118.1s12.45,88.81,37.35,118.1c24.9,29.3,58.23,43.95,99.98,43.95,36.98,0,68.48-11.9,94.48-35.71,26-23.8,39-53.83,39-90.09h-124.69Z"/>
    <path class="cls-all" d="m1663.91,960.56h-55.48v-54.93h55.48v54.93Zm-14.28-102.17h-28.56l-7.69-181.27v-107.67h46.14v107.67l-9.89,181.27Z"/>
    <path class="cls-all" d="m1796.29,712.82l-52.18,71.96-27.47-21.97,52.73-73.06-83.5-26.92,11.54-32.96,81.3,26.37v-86.79h35.16v86.79l81.3-26.37,11.54,32.96-83.5,26.92,52.73,73.06-27.47,21.97-52.19-71.96Z"/>
  </g>

   <g class="cls-8">
    <path class="cls-all" d="m129.68,747.82l-52.18,71.96-27.47-21.97,52.73-73.06-83.5-26.92,11.54-32.96,81.3,26.37v-86.79h35.16v86.79l81.3-26.37,11.54,32.96-83.5,26.92,52.73,73.06-27.47,21.97-52.19-71.96Z"/>
    <path class="cls-all" d="m514.75,820.33l87.34-215.88h60.42v391.11h-45.04v-125.24c0-82.4.55-148.86,1.65-199.4-8.79,24.17-20.32,53.83-34.61,88.99l-96.68,235.66h-39.55l-97.23-235.66c-14.28-35.16-25.82-64.82-34.61-88.99,1.1,50.54,1.65,117,1.65,199.4v125.24h-45.04v-391.11h60.42l90.64,222.47c13.54,33.33,28.38,70.86,44.49,112.61,22.33-59.33,37.71-99.06,46.14-119.2Z"/>
    <path class="cls-all" d="m900.91,695.63l57.13-91.19h52.19l-149.41,234.01v157.1h-46.14v-157.1l-149.41-234.01h52.73l57.68,91.74c24.9,38.82,45.77,72.51,62.62,101.07,23.43-39.55,44.31-73.42,62.62-101.62Z"/>
    <path class="cls-all" d="m1059.11,604.45v349.36h196.66v41.75h-242.8v-391.11h46.14Z"/>
    <path class="cls-all" d="m1411.78,836.26v-41.75h166.44v201.05h-37.9l-9.89-52.73c-28.93,41.02-71.6,61.52-127.99,61.52s-100.71-18.86-134.03-56.58c-34.06-37.35-51.09-86.6-51.09-147.77s16.84-110.22,50.54-148.32c33.32-37.35,78.36-56.03,135.13-56.03,46.5,0,84.96,12.45,115.36,37.35,30.39,24.91,48.89,58.05,55.48,99.43h-47.79c-4.76-28.92-18.68-52-41.75-69.21-22.34-16.84-49.44-25.27-81.3-25.27-41.75,0-75.08,14.65-99.98,43.95-24.91,29.3-37.35,68.66-37.35,118.1s12.45,88.81,37.35,118.1c24.9,29.3,58.23,43.95,99.98,43.95,36.98,0,68.48-11.9,94.48-35.71,26-23.8,39-53.83,39-90.09h-124.69Z"/>
    <path class="cls-all" d="m1663.91,995.56h-55.48v-54.93h55.48v54.93Zm-14.28-102.17h-28.56l-7.69-181.27v-107.67h46.14v107.67l-9.89,181.27Z"/>
    <path class="cls-all" d="m1796.29,747.82l-52.18,71.96-27.47-21.97,52.73-73.06-83.5-26.92,11.54-32.96,81.3,26.37v-86.79h35.16v86.79l81.3-26.37,11.54,32.96-83.5,26.92,52.73,73.06-27.47,21.97-52.19-71.96Z"/>
  </g>
 
  <g class="cls-7">
    <path class="cls-all" d="m129.68,782.82l-52.18,71.96-27.47-21.97,52.73-73.06-83.5-26.92,11.54-32.96,81.3,26.37v-86.79h35.16v86.79l81.3-26.37,11.54,32.96-83.5,26.92,52.73,73.06-27.47,21.97-52.19-71.96Z"/>
    <path class="cls-all" d="m514.75,855.33l87.34-215.88h60.42v391.11h-45.04v-125.24c0-82.4.55-148.86,1.65-199.4-8.79,24.17-20.32,53.83-34.61,88.99l-96.68,235.66h-39.55l-97.23-235.66c-14.28-35.16-25.82-64.82-34.61-88.99,1.1,50.54,1.65,117,1.65,199.4v125.24h-45.04v-391.11h60.42l90.64,222.47c13.54,33.33,28.38,70.86,44.49,112.61,22.33-59.33,37.71-99.06,46.14-119.2Z"/>
    <path class="cls-all" d="m900.91,730.63l57.13-91.19h52.19l-149.41,234.01v157.1h-46.14v-157.1l-149.41-234.01h52.73l57.68,91.74c24.9,38.82,45.77,72.51,62.62,101.07,23.43-39.55,44.31-73.42,62.62-101.62Z"/>
    <path class="cls-all" d="m1059.11,639.45v349.36h196.66v41.75h-242.8v-391.11h46.14Z"/>
    <path class="cls-all" d="m1411.78,871.26v-41.75h166.44v201.05h-37.9l-9.89-52.73c-28.93,41.02-71.6,61.52-127.99,61.52s-100.71-18.86-134.03-56.58c-34.06-37.35-51.09-86.6-51.09-147.77s16.84-110.22,50.54-148.32c33.32-37.35,78.36-56.03,135.13-56.03,46.5,0,84.96,12.45,115.36,37.35,30.39,24.91,48.89,58.05,55.48,99.43h-47.79c-4.76-28.92-18.68-52-41.75-69.21-22.34-16.84-49.44-25.27-81.3-25.27-41.75,0-75.08,14.65-99.98,43.95-24.91,29.3-37.35,68.66-37.35,118.1s12.45,88.81,37.35,118.1c24.9,29.3,58.23,43.95,99.98,43.95,36.98,0,68.48-11.9,94.48-35.71,26-23.8,39-53.83,39-90.09h-124.69Z"/>
    <path class="cls-all" d="m1663.91,1030.56h-55.48v-54.93h55.48v54.93Zm-14.28-102.17h-28.56l-7.69-181.27v-107.67h46.14v107.67l-9.89,181.27Z"/>
    <path class="cls-all" d="m1796.29,782.82l-52.18,71.96-27.47-21.97,52.73-73.06-83.5-26.92,11.54-32.96,81.3,26.37v-86.79h35.16v86.79l81.3-26.37,11.54,32.96-83.5,26.92,52.73,73.06-27.47,21.97-52.19-71.96Z"/>
  </g>
  
   <g class="cls-6">
    <path class="cls-all" d="m129.68,817.82l-52.18,71.96-27.47-21.97,52.73-73.06-83.5-26.92,11.54-32.96,81.3,26.37v-86.79h35.16v86.79l81.3-26.37,11.54,32.96-83.5,26.92,52.73,73.06-27.47,21.97-52.19-71.96Z"/>
    <path class="cls-all" d="m514.75,890.33l87.34-215.88h60.42v391.11h-45.04v-125.24c0-82.4.55-148.86,1.65-199.4-8.79,24.17-20.32,53.83-34.61,88.99l-96.68,235.66h-39.55l-97.23-235.66c-14.28-35.16-25.82-64.82-34.61-88.99,1.1,50.54,1.65,117,1.65,199.4v125.24h-45.04v-391.11h60.42l90.64,222.47c13.54,33.33,28.38,70.86,44.49,112.61,22.33-59.33,37.71-99.06,46.14-119.2Z"/>
    <path class="cls-all" d="m900.91,765.63l57.13-91.19h52.19l-149.41,234.01v157.1h-46.14v-157.1l-149.41-234.01h52.73l57.68,91.74c24.9,38.82,45.77,72.51,62.62,101.07,23.43-39.55,44.31-73.42,62.62-101.62Z"/>
    <path class="cls-all" d="m1059.11,674.45v349.36h196.66v41.75h-242.8v-391.11h46.14Z"/>
    <path class="cls-all" d="m1411.78,906.26v-41.75h166.44v201.05h-37.9l-9.89-52.73c-28.93,41.02-71.6,61.52-127.99,61.52s-100.71-18.86-134.03-56.58c-34.06-37.35-51.09-86.6-51.09-147.77s16.84-110.22,50.54-148.32c33.32-37.35,78.36-56.03,135.13-56.03,46.5,0,84.96,12.45,115.36,37.35,30.39,24.91,48.89,58.05,55.48,99.43h-47.79c-4.76-28.92-18.68-52-41.75-69.21-22.34-16.84-49.44-25.27-81.3-25.27-41.75,0-75.08,14.65-99.98,43.95-24.91,29.3-37.35,68.66-37.35,118.1s12.45,88.81,37.35,118.1c24.9,29.3,58.23,43.95,99.98,43.95,36.98,0,68.48-11.9,94.48-35.71,26-23.8,39-53.83,39-90.09h-124.69Z"/>
    <path class="cls-all" d="m1663.91,1065.56h-55.48v-54.93h55.48v54.93Zm-14.28-102.17h-28.56l-7.69-181.27v-107.67h46.14v107.67l-9.89,181.27Z"/>
    <path class="cls-all" d="m1796.29,817.82l-52.18,71.96-27.47-21.97,52.73-73.06-83.5-26.92,11.54-32.96,81.3,26.37v-86.79h35.16v86.79l81.3-26.37,11.54,32.96-83.5,26.92,52.73,73.06-27.47,21.97-52.19-71.96Z"/>
  </g>
  
  <g class="cls-5">
    <path class="cls-all" d="m129.68,852.82l-52.18,71.96-27.47-21.97,52.73-73.06-83.5-26.92,11.54-32.96,81.3,26.37v-86.79h35.16v86.79l81.3-26.37,11.54,32.96-83.5,26.92,52.73,73.06-27.47,21.97-52.19-71.96Z"/>
    <path class="cls-all" d="m514.75,925.33l87.34-215.88h60.42v391.11h-45.04v-125.24c0-82.4.55-148.86,1.65-199.4-8.79,24.17-20.32,53.83-34.61,88.99l-96.68,235.66h-39.55l-97.23-235.66c-14.28-35.16-25.82-64.82-34.61-88.99,1.1,50.54,1.65,117,1.65,199.4v125.24h-45.04v-391.11h60.42l90.64,222.47c13.54,33.33,28.38,70.86,44.49,112.61,22.33-59.33,37.71-99.06,46.14-119.2Z"/>
    <path class="cls-all" d="m900.91,800.63l57.13-91.19h52.19l-149.41,234.01v157.1h-46.14v-157.1l-149.41-234.01h52.73l57.68,91.74c24.9,38.82,45.77,72.51,62.62,101.07,23.43-39.55,44.31-73.42,62.62-101.62Z"/>
    <path class="cls-all" d="m1059.11,709.45v349.36h196.66v41.75h-242.8v-391.11h46.14Z"/>
    <path class="cls-all" d="m1411.78,941.26v-41.75h166.44v201.05h-37.9l-9.89-52.73c-28.93,41.02-71.6,61.52-127.99,61.52s-100.71-18.86-134.03-56.58c-34.06-37.35-51.09-86.6-51.09-147.77s16.84-110.22,50.54-148.32c33.32-37.35,78.36-56.03,135.13-56.03,46.5,0,84.96,12.45,115.36,37.35,30.39,24.91,48.89,58.05,55.48,99.43h-47.79c-4.76-28.92-18.68-52-41.75-69.21-22.34-16.84-49.44-25.27-81.3-25.27-41.75,0-75.08,14.65-99.98,43.95-24.91,29.3-37.35,68.66-37.35,118.1s12.45,88.81,37.35,118.1c24.9,29.3,58.23,43.95,99.98,43.95,36.98,0,68.48-11.9,94.48-35.71,26-23.8,39-53.83,39-90.09h-124.69Z"/>
    <path class="cls-all" d="m1663.91,1100.56h-55.48v-54.93h55.48v54.93Zm-14.28-102.17h-28.56l-7.69-181.27v-107.67h46.14v107.67l-9.89,181.27Z"/>
    <path class="cls-all" d="m1796.29,852.82l-52.18,71.96-27.47-21.97,52.73-73.06-83.5-26.92,11.54-32.96,81.3,26.37v-86.79h35.16v86.79l81.3-26.37,11.54,32.96-83.5,26.92,52.73,73.06-27.47,21.97-52.19-71.96Z"/>
  </g>
  
   <g class="cls-4">
    <path class="cls-all" d="m129.68,887.82l-52.18,71.96-27.47-21.97,52.73-73.06-83.5-26.92,11.54-32.96,81.3,26.37v-86.79h35.16v86.79l81.3-26.37,11.54,32.96-83.5,26.92,52.73,73.06-27.47,21.97-52.19-71.96Z"/>
    <path class="cls-all" d="m514.75,960.33l87.34-215.88h60.42v391.11h-45.04v-125.24c0-82.4.55-148.86,1.65-199.4-8.79,24.17-20.32,53.83-34.61,88.99l-96.68,235.66h-39.55l-97.23-235.66c-14.28-35.16-25.82-64.82-34.61-88.99,1.1,50.54,1.65,117,1.65,199.4v125.24h-45.04v-391.11h60.42l90.64,222.47c13.54,33.33,28.38,70.86,44.49,112.61,22.33-59.33,37.71-99.06,46.14-119.2Z"/>
    <path class="cls-all" d="m900.91,835.63l57.13-91.19h52.19l-149.41,234.01v157.1h-46.14v-157.1l-149.41-234.01h52.73l57.68,91.74c24.9,38.82,45.77,72.51,62.62,101.07,23.43-39.55,44.31-73.42,62.62-101.62Z"/>
    <path class="cls-all" d="m1059.11,744.45v349.36h196.66v41.75h-242.8v-391.11h46.14Z"/>
    <path class="cls-all" d="m1411.78,976.26v-41.75h166.44v201.05h-37.9l-9.89-52.73c-28.93,41.02-71.6,61.52-127.99,61.52s-100.71-18.86-134.03-56.58c-34.06-37.35-51.09-86.6-51.09-147.77s16.84-110.22,50.54-148.32c33.32-37.35,78.36-56.03,135.13-56.03,46.5,0,84.96,12.45,115.36,37.35,30.39,24.91,48.89,58.05,55.48,99.43h-47.79c-4.76-28.92-18.68-52-41.75-69.21-22.34-16.84-49.44-25.27-81.3-25.27-41.75,0-75.08,14.65-99.98,43.95-24.91,29.3-37.35,68.66-37.35,118.1s12.45,88.81,37.35,118.1c24.9,29.3,58.23,43.95,99.98,43.95,36.98,0,68.48-11.9,94.48-35.71,26-23.8,39-53.83,39-90.09h-124.69Z"/>
    <path class="cls-all" d="m1663.91,1135.56h-55.48v-54.93h55.48v54.93Zm-14.28-102.17h-28.56l-7.69-181.27v-107.67h46.14v107.67l-9.89,181.27Z"/>
    <path class="cls-all" d="m1796.29,887.82l-52.18,71.96-27.47-21.97,52.73-73.06-83.5-26.92,11.54-32.96,81.3,26.37v-86.79h35.16v86.79l81.3-26.37,11.54,32.96-83.5,26.92,52.73,73.06-27.47,21.97-52.19-71.96Z"/>
  </g>
  <g class="cls-3">
    <path class="cls-all" d="m129.68,922.82l-52.18,71.96-27.47-21.97,52.73-73.06-83.5-26.92,11.54-32.96,81.3,26.37v-86.79h35.16v86.79l81.3-26.37,11.54,32.96-83.5,26.92,52.73,73.06-27.47,21.97-52.19-71.96Z"/>
    <path class="cls-all" d="m514.75,995.33l87.34-215.88h60.42v391.11h-45.04v-125.24c0-82.4.55-148.86,1.65-199.4-8.79,24.17-20.32,53.83-34.61,88.99l-96.68,235.66h-39.55l-97.23-235.66c-14.28-35.16-25.82-64.82-34.61-88.99,1.1,50.54,1.65,117,1.65,199.4v125.24h-45.04v-391.11h60.42l90.64,222.47c13.54,33.33,28.38,70.86,44.49,112.61,22.33-59.33,37.71-99.06,46.14-119.2Z"/>
    <path class="cls-all" d="m900.91,870.63l57.13-91.19h52.19l-149.41,234.01v157.1h-46.14v-157.1l-149.41-234.01h52.73l57.68,91.74c24.9,38.82,45.77,72.51,62.62,101.07,23.43-39.55,44.31-73.42,62.62-101.62Z"/>
    <path class="cls-all" d="m1059.11,779.45v349.36h196.66v41.75h-242.8v-391.11h46.14Z"/>
    <path class="cls-all" d="m1411.78,1011.26v-41.75h166.44v201.05h-37.9l-9.89-52.73c-28.93,41.02-71.6,61.52-127.99,61.52s-100.71-18.86-134.03-56.58c-34.06-37.35-51.09-86.6-51.09-147.77s16.84-110.22,50.54-148.32c33.32-37.35,78.36-56.03,135.13-56.03,46.5,0,84.96,12.45,115.36,37.35,30.39,24.91,48.89,58.05,55.48,99.43h-47.79c-4.76-28.92-18.68-52-41.75-69.21-22.34-16.84-49.44-25.27-81.3-25.27-41.75,0-75.08,14.65-99.98,43.95-24.91,29.3-37.35,68.66-37.35,118.1s12.45,88.81,37.35,118.1c24.9,29.3,58.23,43.95,99.98,43.95,36.98,0,68.48-11.9,94.48-35.71,26-23.8,39-53.83,39-90.09h-124.69Z"/>
    <path class="cls-all" d="m1663.91,1170.56h-55.48v-54.93h55.48v54.93Zm-14.28-102.17h-28.56l-7.69-181.27v-107.67h46.14v107.67l-9.89,181.27Z"/>
    <path class="cls-all" d="m1796.29,922.82l-52.18,71.96-27.47-21.97,52.73-73.06-83.5-26.92,11.54-32.96,81.3,26.37v-86.79h35.16v86.79l81.3-26.37,11.54,32.96-83.5,26.92,52.73,73.06-27.47,21.97-52.19-71.96Z"/>
  </g>

  <g class="cls-2">
    <path class="cls-all" d="m129.68,957.82l-52.18,71.96-27.47-21.97,52.73-73.06-83.5-26.92,11.54-32.96,81.3,26.37v-86.79h35.16v86.79l81.3-26.37,11.54,32.96-83.5,26.92,52.73,73.06-27.47,21.97-52.19-71.96Z"/>
    <path class="cls-all" d="m514.75,1030.33l87.34-215.88h60.42v391.11h-45.04v-125.24c0-82.4.55-148.86,1.65-199.4-8.79,24.17-20.32,53.83-34.61,88.99l-96.68,235.66h-39.55l-97.23-235.66c-14.28-35.16-25.82-64.82-34.61-88.99,1.1,50.54,1.65,117,1.65,199.4v125.24h-45.04v-391.11h60.42l90.64,222.47c13.54,33.33,28.38,70.86,44.49,112.61,22.33-59.33,37.71-99.06,46.14-119.2Z"/>
    <path class="cls-all" d="m900.91,905.63l57.13-91.19h52.19l-149.41,234.01v157.1h-46.14v-157.1l-149.41-234.01h52.73l57.68,91.74c24.9,38.82,45.77,72.51,62.62,101.07,23.43-39.55,44.31-73.42,62.62-101.62Z"/>
    <path class="cls-all" d="m1059.11,814.45v349.36h196.66v41.75h-242.8v-391.11h46.14Z"/>
    <path class="cls-all" d="m1411.78,1046.26v-41.75h166.44v201.05h-37.9l-9.89-52.73c-28.93,41.02-71.6,61.52-127.99,61.52s-100.71-18.86-134.03-56.58c-34.06-37.35-51.09-86.6-51.09-147.77s16.84-110.22,50.54-148.32c33.32-37.35,78.36-56.03,135.13-56.03,46.5,0,84.96,12.45,115.36,37.35,30.39,24.91,48.89,58.05,55.48,99.43h-47.79c-4.76-28.92-18.68-52-41.75-69.21-22.34-16.84-49.44-25.27-81.3-25.27-41.75,0-75.08,14.65-99.98,43.95-24.91,29.3-37.35,68.66-37.35,118.1s12.45,88.81,37.35,118.1c24.9,29.3,58.23,43.95,99.98,43.95,36.98,0,68.48-11.9,94.48-35.71,26-23.8,39-53.83,39-90.09h-124.69Z"/>
    <path class="cls-all" d="m1663.91,1205.56h-55.48v-54.93h55.48v54.93Zm-14.28-102.17h-28.56l-7.69-181.27v-107.67h46.14v107.67l-9.89,181.27Z"/>
    <path class="cls-all" d="m1796.29,957.82l-52.18,71.96-27.47-21.97,52.73-73.06-83.5-26.92,11.54-32.96,81.3,26.37v-86.79h35.16v86.79l81.3-26.37,11.54,32.96-83.5,26.92,52.73,73.06-27.47,21.97-52.19-71.96Z"/>
  </g>

 <g class="cls-1">
    <path class="cls-all" d="m129.68,992.82l-52.18,71.96-27.47-21.97,52.73-73.06-83.5-26.92,11.54-32.96,81.3,26.37v-86.79h35.16v86.79l81.3-26.37,11.54,32.96-83.5,26.92,52.73,73.06-27.47,21.97-52.19-71.96Z"/>
    <path class="cls-all" d="m514.75,1065.33l87.34-215.88h60.42v391.11h-45.04v-125.24c0-82.4.55-148.86,1.65-199.4-8.79,24.17-20.32,53.83-34.61,88.99l-96.68,235.66h-39.55l-97.23-235.66c-14.28-35.16-25.82-64.82-34.61-88.99,1.1,50.54,1.65,117,1.65,199.4v125.24h-45.04v-391.11h60.42l90.64,222.47c13.54,33.33,28.38,70.86,44.49,112.61,22.33-59.33,37.71-99.06,46.14-119.2Z"/>
    <path class="cls-all" d="m900.91,940.63l57.13-91.19h52.19l-149.41,234.01v157.1h-46.14v-157.1l-149.41-234.01h52.73l57.68,91.74c24.9,38.82,45.77,72.51,62.62,101.07,23.43-39.55,44.31-73.42,62.62-101.62Z"/>
    <path class="cls-all" d="m1059.11,849.45v349.36h196.66v41.75h-242.8v-391.11h46.14Z"/>
    <path class="cls-all" d="m1411.78,1081.26v-41.75h166.44v201.05h-37.9l-9.89-52.73c-28.93,41.02-71.6,61.52-127.99,61.52s-100.71-18.86-134.03-56.58c-34.06-37.35-51.09-86.6-51.09-147.77s16.84-110.22,50.54-148.32c33.32-37.35,78.36-56.03,135.13-56.03,46.5,0,84.96,12.45,115.36,37.35,30.39,24.91,48.89,58.05,55.48,99.43h-47.79c-4.76-28.92-18.68-52-41.75-69.21-22.34-16.84-49.44-25.27-81.3-25.27-41.75,0-75.08,14.65-99.98,43.95-24.91,29.3-37.35,68.66-37.35,118.1s12.45,88.81,37.35,118.1c24.9,29.3,58.23,43.95,99.98,43.95,36.98,0,68.48-11.9,94.48-35.71,26-23.8,39-53.83,39-90.09h-124.69Z"/>
    <path class="cls-all" d="m1663.91,1240.56h-55.48v-54.93h55.48v54.93Zm-14.28-102.17h-28.56l-7.69-181.27v-107.67h46.14v107.67l-9.89,181.27Z"/>
    <path class="cls-all" d="m1796.29,992.82l-52.18,71.96-27.47-21.97,52.73-73.06-83.5-26.92,11.54-32.96,81.3,26.37v-86.79h35.16v86.79l81.3-26.37,11.54,32.96-83.5,26.92,52.73,73.06-27.47,21.97-52.19-71.96Z"/>
  </g>







  
</svg>