<?xml version="1.0" encoding="UTF-8"?>
<svg id="uuid-8bd84877-36ef-4555-8af8-ce48331ba034" data-name="Layer 1" xmlns="http://www.w3.org/2000/svg" viewBox="0 0 1920 950">
  <defs>
    <style>
      .uuid-bb041dfb-49cd-47ec-bd4d-bbd562a93ce6 {
        isolation: isolate;
      }

      .uuid-15b93112-0a1e-483d-913e-d7227f930ae5 {
        fill: #fff;
        stroke-width: 0px;
      }
    </style>
  </defs>
  <g id="uuid-9e01a561-05ff-4cbe-b808-cb7440a44ebb" data-name=" Not just any design studio a symphony of creative Ingenuity" class="uuid-bb041dfb-49cd-47ec-bd4d-bbd562a93ce6">
    <g class="uuid-bb041dfb-49cd-47ec-bd4d-bbd562a93ce6">
      <path class="uuid-15b93112-0a1e-483d-913e-d7227f930ae5" d="m665.86,299.87v-101.65h13.8l53.39,79.81v-79.81h12.9v101.65h-13.8l-53.39-79.88v79.88h-12.9Z"/>
      <path class="uuid-15b93112-0a1e-483d-913e-d7227f930ae5" d="m755.2,263.06c0-13.64,3.79-23.74,11.37-30.3,6.33-5.45,14.05-8.18,23.16-8.18,10.12,0,18.4,3.32,24.82,9.95,6.42,6.63,9.64,15.8,9.64,27.49,0,9.48-1.42,16.93-4.26,22.36s-6.98,9.65-12.41,12.65c-5.43,3-11.36,4.51-17.79,4.51-10.31,0-18.64-3.3-25-9.92-6.36-6.61-9.53-16.13-9.53-28.57Zm12.83,0c0,9.43,2.06,16.49,6.17,21.18s9.29,7.04,15.53,7.04,11.35-2.36,15.46-7.07,6.17-11.9,6.17-21.56c0-9.11-2.07-16-6.21-20.7-4.14-4.69-9.28-7.04-15.43-7.04s-11.42,2.33-15.53,7c-4.11,4.67-6.17,11.72-6.17,21.15Z"/>
      <path class="uuid-15b93112-0a1e-483d-913e-d7227f930ae5" d="m858.97,288.71l1.8,11.02c-3.51.74-6.66,1.11-9.43,1.11-4.53,0-8.04-.72-10.54-2.15s-4.25-3.32-5.27-5.65c-1.02-2.33-1.53-7.25-1.53-14.73v-42.36h-9.15v-9.71h9.15v-18.24l12.41-7.49v25.72h12.55v9.71h-12.55v43.06c0,3.56.22,5.85.66,6.86.44,1.02,1.16,1.83,2.15,2.43.99.6,2.42.9,4.26.9,1.39,0,3.21-.16,5.48-.49Z"/>
      <path class="uuid-15b93112-0a1e-483d-913e-d7227f930ae5" d="m880.55,328.44l2.36-10.61c2.5.65,4.46.97,5.89.97,2.54,0,4.44-.84,5.69-2.53,1.25-1.69,1.87-5.91,1.87-12.65v-77.38h12.48v77.66c0,9.06-1.18,15.37-3.54,18.93-3.01,4.62-8,6.93-14.98,6.93-3.37,0-6.63-.44-9.78-1.32Zm15.81-115.72v-14.49h12.48v14.49h-12.48Z"/>
      <path class="uuid-15b93112-0a1e-483d-913e-d7227f930ae5" d="m969.13,299.87v-10.82c-5.73,8.32-13.52,12.48-23.37,12.48-4.35,0-8.4-.83-12.17-2.5s-6.56-3.75-8.39-6.28c-1.83-2.52-3.11-5.6-3.85-9.26-.51-2.45-.76-6.33-.76-11.65v-45.62h12.48v40.84c0,6.52.25,10.91.76,13.17.79,3.28,2.45,5.86,4.99,7.73,2.54,1.87,5.69,2.81,9.43,2.81s7.26-.96,10.54-2.88c3.28-1.92,5.6-4.53,6.97-7.83s2.05-8.1,2.05-14.39v-39.45h12.48v73.63h-11.16Z"/>
      <path class="uuid-15b93112-0a1e-483d-913e-d7227f930ae5" d="m987.75,277.89l12.34-1.94c.69,4.95,2.62,8.74,5.79,11.37,3.17,2.63,7.59,3.95,13.28,3.95s9.98-1.17,12.76-3.5c2.77-2.33,4.16-5.07,4.16-8.22,0-2.82-1.22-5.04-3.67-6.66-1.71-1.11-5.96-2.52-12.76-4.23-9.15-2.31-15.5-4.31-19.03-6-3.54-1.69-6.22-4.02-8.04-7-1.83-2.98-2.74-6.28-2.74-9.88,0-3.28.75-6.32,2.25-9.12,1.5-2.8,3.55-5.12,6.14-6.97,1.94-1.43,4.59-2.65,7.94-3.64,3.35-.99,6.94-1.49,10.78-1.49,5.78,0,10.85.83,15.22,2.5s7.59,3.92,9.67,6.76c2.08,2.84,3.51,6.65,4.3,11.41l-12.2,1.66c-.55-3.79-2.16-6.75-4.82-8.88-2.66-2.13-6.41-3.19-11.27-3.19-5.73,0-9.82.95-12.27,2.84-2.45,1.9-3.67,4.11-3.67,6.66,0,1.62.51,3.07,1.53,4.37,1.02,1.34,2.61,2.45,4.78,3.33,1.25.46,4.92,1.53,11.02,3.19,8.83,2.36,14.99,4.29,18.48,5.79,3.49,1.5,6.23,3.69,8.22,6.55,1.99,2.87,2.98,6.43,2.98,10.68s-1.21,8.08-3.64,11.75c-2.43,3.68-5.93,6.52-10.5,8.53-4.58,2.01-9.75,3.02-15.53,3.02-9.57,0-16.86-1.99-21.88-5.96-5.02-3.97-8.22-9.87-9.6-17.68Z"/>
      <path class="uuid-15b93112-0a1e-483d-913e-d7227f930ae5" d="m1083.9,288.71l1.8,11.02c-3.51.74-6.66,1.11-9.43,1.11-4.53,0-8.04-.72-10.54-2.15s-4.25-3.32-5.27-5.65c-1.02-2.33-1.53-7.25-1.53-14.73v-42.36h-9.15v-9.71h9.15v-18.24l12.41-7.49v25.72h12.55v9.71h-12.55v43.06c0,3.56.22,5.85.66,6.86.44,1.02,1.16,1.83,2.15,2.43.99.6,2.42.9,4.26.9,1.39,0,3.21-.16,5.48-.49Z"/>
    </g>
    <g class="uuid-bb041dfb-49cd-47ec-bd4d-bbd562a93ce6">
      <path class="uuid-15b93112-0a1e-483d-913e-d7227f930ae5" d="m453.63,432.79c-4.62,3.93-9.07,6.7-13.35,8.32s-8.86,2.43-13.76,2.43c-8.09,0-14.31-1.98-18.65-5.93-4.35-3.95-6.52-9-6.52-15.15,0-3.61.82-6.9,2.46-9.88,1.64-2.98,3.79-5.37,6.45-7.18s5.65-3.17,8.98-4.09c2.45-.65,6.15-1.27,11.09-1.87,10.08-1.2,17.5-2.63,22.26-4.3.04-1.71.07-2.8.07-3.26,0-5.08-1.18-8.67-3.54-10.75-3.19-2.82-7.93-4.23-14.21-4.23-5.87,0-10.2,1.03-13,3.08-2.8,2.06-4.87,5.7-6.21,10.92l-12.2-1.66c1.11-5.22,2.93-9.44,5.48-12.65,2.54-3.21,6.22-5.69,11.02-7.42,4.81-1.73,10.38-2.6,16.71-2.6s11.39.74,15.32,2.22c3.93,1.48,6.82,3.34,8.67,5.58,1.85,2.24,3.14,5.07,3.88,8.49.42,2.13.62,5.96.62,11.51v16.64c0,11.6.27,18.94.8,22.01s1.58,6.02,3.16,8.84h-13.04c-1.29-2.59-2.13-5.62-2.5-9.08Zm-1.04-27.87c-4.53,1.85-11.33,3.42-20.38,4.71-5.13.74-8.76,1.57-10.89,2.5-2.13.92-3.77,2.28-4.92,4.06-1.16,1.78-1.73,3.76-1.73,5.93,0,3.33,1.26,6.1,3.78,8.32s6.21,3.33,11.06,3.33,9.08-1.05,12.83-3.16c3.74-2.1,6.49-4.98,8.25-8.63,1.34-2.82,2.01-6.98,2.01-12.48v-4.58Z"/>
      <path class="uuid-15b93112-0a1e-483d-913e-d7227f930ae5" d="m477.46,441.87v-73.63h11.23v10.47c5.41-8.09,13.22-12.13,23.44-12.13,4.44,0,8.52.8,12.24,2.39,3.72,1.59,6.51,3.69,8.35,6.27,1.85,2.59,3.14,5.66,3.88,9.22.46,2.31.69,6.36.69,12.13v45.28h-12.48v-44.79c0-5.08-.49-8.89-1.46-11.41-.97-2.52-2.69-4.53-5.17-6.03-2.47-1.5-5.37-2.25-8.7-2.25-5.32,0-9.9,1.69-13.76,5.06-3.86,3.38-5.79,9.78-5.79,19.21v40.21h-12.48Z"/>
      <path class="uuid-15b93112-0a1e-483d-913e-d7227f930ae5" d="m548.77,470.23l-1.39-11.72c2.73.74,5.11,1.11,7.14,1.11,2.77,0,4.99-.46,6.66-1.39,1.66-.92,3.03-2.22,4.09-3.88.79-1.25,2.06-4.35,3.81-9.29.23-.69.6-1.71,1.11-3.05l-27.94-73.77h13.45l15.32,42.64c1.99,5.41,3.77,11.09,5.34,17.06,1.43-5.73,3.14-11.32,5.13-16.78l15.74-42.92h12.48l-28.01,74.88c-3.01,8.09-5.34,13.66-7,16.71-2.22,4.11-4.76,7.13-7.63,9.05-2.87,1.92-6.29,2.88-10.26,2.88-2.4,0-5.09-.51-8.04-1.53Z"/>
      <path class="uuid-15b93112-0a1e-483d-913e-d7227f930ae5" d="m693.35,441.87v-9.29c-4.67,7.3-11.53,10.96-20.59,10.96-5.87,0-11.27-1.62-16.19-4.85s-8.74-7.75-11.44-13.55-4.06-12.47-4.06-20,1.22-14.02,3.67-20c2.45-5.99,6.12-10.57,11.02-13.76s10.38-4.78,16.43-4.78c4.44,0,8.39.94,11.86,2.81,3.47,1.87,6.29,4.31,8.46,7.31v-36.47h12.41v101.65h-11.58Zm-39.45-36.75c0,9.43,1.99,16.48,5.96,21.15,3.98,4.67,8.67,7,14.08,7s10.09-2.23,13.9-6.69c3.81-4.46,5.72-11.27,5.72-20.42,0-10.08-1.94-17.47-5.82-22.19s-8.67-7.07-14.35-7.07-10.18,2.27-13.9,6.79c-3.72,4.53-5.58,11.67-5.58,21.42Z"/>
      <path class="uuid-15b93112-0a1e-483d-913e-d7227f930ae5" d="m767.86,418.16l12.9,1.59c-2.04,7.54-5.8,13.38-11.3,17.54-5.5,4.16-12.53,6.24-21.08,6.24-10.77,0-19.31-3.32-25.62-9.95s-9.46-15.94-9.46-27.91,3.19-22,9.57-28.84c6.38-6.84,14.65-10.26,24.82-10.26s17.89,3.35,24.13,10.05c6.24,6.7,9.36,16.13,9.36,28.29,0,.74-.02,1.85-.07,3.33h-54.91c.46,8.09,2.75,14.28,6.86,18.58,4.11,4.3,9.24,6.45,15.39,6.45,4.58,0,8.48-1.2,11.72-3.61,3.23-2.4,5.8-6.24,7.7-11.51Zm-40.98-20.18h41.12c-.55-6.19-2.13-10.84-4.71-13.94-3.98-4.81-9.13-7.21-15.46-7.21-5.73,0-10.55,1.92-14.46,5.75-3.91,3.84-6.07,8.97-6.48,15.39Z"/>
      <path class="uuid-15b93112-0a1e-483d-913e-d7227f930ae5" d="m784.34,419.89l12.34-1.94c.69,4.95,2.62,8.74,5.79,11.37,3.17,2.63,7.59,3.95,13.28,3.95s9.98-1.17,12.76-3.5c2.77-2.33,4.16-5.07,4.16-8.22,0-2.82-1.22-5.04-3.67-6.66-1.71-1.11-5.96-2.52-12.76-4.23-9.15-2.31-15.5-4.31-19.03-6-3.54-1.69-6.22-4.02-8.04-7-1.83-2.98-2.74-6.28-2.74-9.88,0-3.28.75-6.32,2.25-9.12,1.5-2.8,3.55-5.12,6.14-6.97,1.94-1.43,4.59-2.65,7.94-3.64,3.35-.99,6.94-1.49,10.78-1.49,5.78,0,10.85.83,15.22,2.5s7.59,3.92,9.67,6.76c2.08,2.84,3.51,6.65,4.3,11.41l-12.2,1.66c-.55-3.79-2.16-6.75-4.82-8.88-2.66-2.13-6.41-3.19-11.27-3.19-5.73,0-9.82.95-12.27,2.84-2.45,1.9-3.67,4.11-3.67,6.66,0,1.62.51,3.07,1.53,4.37,1.02,1.34,2.61,2.45,4.78,3.33,1.25.46,4.92,1.53,11.02,3.19,8.83,2.36,14.99,4.29,18.48,5.79,3.49,1.5,6.23,3.69,8.22,6.55,1.99,2.87,2.98,6.43,2.98,10.68s-1.21,8.08-3.64,11.75c-2.43,3.68-5.93,6.52-10.5,8.53-4.58,2.01-9.75,3.02-15.53,3.02-9.57,0-16.86-1.99-21.88-5.96-5.02-3.97-8.22-9.87-9.6-17.68Z"/>
      <path class="uuid-15b93112-0a1e-483d-913e-d7227f930ae5" d="m853.3,354.58v-14.35h12.48v14.35h-12.48Zm0,87.29v-73.63h12.48v73.63h-12.48Z"/>
      <path class="uuid-15b93112-0a1e-483d-913e-d7227f930ae5" d="m875.39,447.98l12.13,1.8c.51,3.74,1.92,6.47,4.23,8.18,3.1,2.31,7.33,3.47,12.69,3.47,5.78,0,10.24-1.16,13.38-3.47,3.14-2.31,5.27-5.55,6.38-9.71.65-2.54.95-7.88.9-16.02-5.46,6.43-12.25,9.64-20.38,9.64-10.12,0-17.96-3.65-23.5-10.96-5.55-7.3-8.32-16.06-8.32-26.28,0-7.03,1.27-13.51,3.81-19.45,2.54-5.94,6.23-10.53,11.06-13.76,4.83-3.24,10.5-4.85,17.02-4.85,8.69,0,15.85,3.51,21.49,10.54v-8.88h11.51v63.65c0,11.46-1.17,19.59-3.5,24.37-2.33,4.79-6.03,8.56-11.09,11.34s-11.29,4.16-18.69,4.16c-8.78,0-15.88-1.98-21.29-5.93-5.41-3.95-8.02-9.9-7.83-17.85Zm10.33-44.24c0,9.66,1.92,16.71,5.75,21.15,3.84,4.44,8.64,6.66,14.42,6.66s10.54-2.21,14.42-6.62c3.88-4.41,5.82-11.34,5.82-20.77s-2-15.81-6-20.38-8.82-6.86-14.46-6.86-10.26,2.25-14.14,6.76c-3.88,4.51-5.82,11.2-5.82,20.07Z"/>
      <path class="uuid-15b93112-0a1e-483d-913e-d7227f930ae5" d="m949.55,441.87v-73.63h11.23v10.47c5.41-8.09,13.22-12.13,23.44-12.13,4.44,0,8.52.8,12.24,2.39,3.72,1.59,6.51,3.69,8.35,6.27,1.85,2.59,3.14,5.66,3.88,9.22.46,2.31.69,6.36.69,12.13v45.28h-12.48v-44.79c0-5.08-.49-8.89-1.46-11.41-.97-2.52-2.69-4.53-5.17-6.03-2.47-1.5-5.37-2.25-8.7-2.25-5.32,0-9.9,1.69-13.76,5.06-3.86,3.38-5.79,9.78-5.79,19.21v40.21h-12.48Z"/>
      <path class="uuid-15b93112-0a1e-483d-913e-d7227f930ae5" d="m1048.78,419.89l12.34-1.94c.69,4.95,2.62,8.74,5.79,11.37,3.17,2.63,7.59,3.95,13.28,3.95s9.98-1.17,12.76-3.5c2.77-2.33,4.16-5.07,4.16-8.22,0-2.82-1.22-5.04-3.67-6.66-1.71-1.11-5.96-2.52-12.76-4.23-9.15-2.31-15.5-4.31-19.03-6-3.54-1.69-6.22-4.02-8.04-7-1.83-2.98-2.74-6.28-2.74-9.88,0-3.28.75-6.32,2.25-9.12,1.5-2.8,3.55-5.12,6.14-6.97,1.94-1.43,4.59-2.65,7.94-3.64,3.35-.99,6.94-1.49,10.78-1.49,5.78,0,10.85.83,15.22,2.5s7.59,3.92,9.67,6.76c2.08,2.84,3.51,6.65,4.3,11.41l-12.2,1.66c-.55-3.79-2.16-6.75-4.82-8.88-2.66-2.13-6.41-3.19-11.27-3.19-5.73,0-9.82.95-12.27,2.84-2.45,1.9-3.67,4.11-3.67,6.66,0,1.62.51,3.07,1.53,4.37,1.02,1.34,2.61,2.45,4.78,3.33,1.25.46,4.92,1.53,11.02,3.19,8.83,2.36,14.99,4.29,18.48,5.79,3.49,1.5,6.23,3.69,8.22,6.55,1.99,2.87,2.98,6.43,2.98,10.68s-1.21,8.08-3.64,11.75c-2.43,3.68-5.93,6.52-10.5,8.53-4.58,2.01-9.75,3.02-15.53,3.02-9.57,0-16.86-1.99-21.88-5.96-5.02-3.97-8.22-9.87-9.6-17.68Z"/>
      <path class="uuid-15b93112-0a1e-483d-913e-d7227f930ae5" d="m1144.92,430.71l1.8,11.02c-3.51.74-6.66,1.11-9.43,1.11-4.53,0-8.04-.72-10.54-2.15s-4.25-3.32-5.27-5.65c-1.02-2.33-1.53-7.25-1.53-14.73v-42.36h-9.15v-9.71h9.15v-18.24l12.41-7.49v25.72h12.55v9.71h-12.55v43.06c0,3.56.22,5.85.66,6.86.44,1.02,1.16,1.83,2.15,2.43.99.6,2.42.9,4.26.9,1.39,0,3.21-.16,5.48-.49Z"/>
      <path class="uuid-15b93112-0a1e-483d-913e-d7227f930ae5" d="m1198.29,441.87v-10.82c-5.73,8.32-13.52,12.48-23.37,12.48-4.35,0-8.4-.83-12.17-2.5s-6.56-3.75-8.39-6.28c-1.83-2.52-3.11-5.6-3.85-9.26-.51-2.45-.76-6.33-.76-11.65v-45.62h12.48v40.84c0,6.52.25,10.91.76,13.17.79,3.28,2.45,5.86,4.99,7.73,2.54,1.87,5.69,2.81,9.43,2.81s7.26-.96,10.54-2.88c3.28-1.92,5.6-4.53,6.97-7.83s2.05-8.1,2.05-14.39v-39.45h12.48v73.63h-11.16Z"/>
      <path class="uuid-15b93112-0a1e-483d-913e-d7227f930ae5" d="m1269.67,441.87v-9.29c-4.67,7.3-11.53,10.96-20.59,10.96-5.87,0-11.27-1.62-16.19-4.85s-8.74-7.75-11.44-13.55-4.06-12.47-4.06-20,1.22-14.02,3.67-20c2.45-5.99,6.12-10.57,11.02-13.76s10.38-4.78,16.43-4.78c4.44,0,8.39.94,11.86,2.81,3.47,1.87,6.29,4.31,8.46,7.31v-36.47h12.41v101.65h-11.58Zm-39.45-36.75c0,9.43,1.99,16.48,5.96,21.15,3.98,4.67,8.67,7,14.08,7s10.09-2.23,13.9-6.69c3.81-4.46,5.72-11.27,5.72-20.42,0-10.08-1.94-17.47-5.82-22.19s-8.67-7.07-14.35-7.07-10.18,2.27-13.9,6.79c-3.72,4.53-5.58,11.67-5.58,21.42Z"/>
      <path class="uuid-15b93112-0a1e-483d-913e-d7227f930ae5" d="m1293.84,354.58v-14.35h12.48v14.35h-12.48Zm0,87.29v-73.63h12.48v73.63h-12.48Z"/>
      <path class="uuid-15b93112-0a1e-483d-913e-d7227f930ae5" d="m1313.58,405.06c0-13.64,3.79-23.74,11.37-30.3,6.33-5.45,14.05-8.18,23.16-8.18,10.12,0,18.4,3.32,24.82,9.95,6.43,6.63,9.64,15.8,9.64,27.49,0,9.48-1.42,16.93-4.27,22.36-2.84,5.43-6.98,9.65-12.41,12.65s-11.36,4.51-17.79,4.51c-10.31,0-18.64-3.3-25-9.92-6.36-6.61-9.53-16.13-9.53-28.57Zm12.83,0c0,9.43,2.06,16.49,6.17,21.18s9.29,7.04,15.53,7.04,11.35-2.36,15.46-7.07c4.11-4.71,6.17-11.9,6.17-21.56,0-9.11-2.07-16-6.21-20.7s-9.28-7.04-15.43-7.04-11.42,2.33-15.53,7c-4.11,4.67-6.17,11.72-6.17,21.15Z"/>
      <path class="uuid-15b93112-0a1e-483d-913e-d7227f930ae5" d="m1393.36,441.87v-14.21h14.21v14.21c0,5.22-.92,9.44-2.77,12.65-1.85,3.21-4.78,5.7-8.81,7.45l-3.47-5.34c2.63-1.16,4.58-2.85,5.82-5.1s1.94-5.47,2.08-9.67h-7.07Zm0-59.42v-14.21h14.21v14.21h-14.21Z"/>
    </g>
    <g class="uuid-bb041dfb-49cd-47ec-bd4d-bbd562a93ce6">
      <path class="uuid-15b93112-0a1e-483d-913e-d7227f930ae5" d="m615.39,574.79c-4.62,3.93-9.07,6.7-13.35,8.32s-8.86,2.43-13.76,2.43c-8.09,0-14.31-1.98-18.65-5.93-4.35-3.95-6.52-9-6.52-15.15,0-3.61.82-6.9,2.46-9.88,1.64-2.98,3.79-5.37,6.45-7.18s5.65-3.17,8.98-4.09c2.45-.65,6.15-1.27,11.09-1.87,10.08-1.2,17.5-2.63,22.26-4.3.04-1.71.07-2.8.07-3.26,0-5.08-1.18-8.67-3.54-10.75-3.19-2.82-7.93-4.23-14.21-4.23-5.87,0-10.2,1.03-13,3.08-2.8,2.06-4.87,5.7-6.21,10.92l-12.2-1.66c1.11-5.22,2.93-9.44,5.48-12.65,2.54-3.21,6.22-5.69,11.02-7.42,4.81-1.73,10.38-2.6,16.71-2.6s11.39.74,15.32,2.22c3.93,1.48,6.82,3.34,8.67,5.58,1.85,2.24,3.14,5.07,3.88,8.49.42,2.13.62,5.96.62,11.51v16.64c0,11.6.27,18.94.8,22.01s1.58,6.02,3.16,8.84h-13.04c-1.29-2.59-2.13-5.62-2.5-9.08Zm-1.04-27.87c-4.53,1.85-11.33,3.42-20.38,4.71-5.13.74-8.76,1.57-10.89,2.5-2.13.92-3.77,2.28-4.92,4.06-1.16,1.78-1.73,3.76-1.73,5.93,0,3.33,1.26,6.1,3.78,8.32s6.21,3.33,11.06,3.33,9.08-1.05,12.83-3.16c3.74-2.1,6.49-4.98,8.25-8.63,1.34-2.82,2.01-6.98,2.01-12.48v-4.58Z"/>
      <path class="uuid-15b93112-0a1e-483d-913e-d7227f930ae5" d="m666.58,561.89l12.34-1.94c.69,4.95,2.62,8.74,5.79,11.37s7.59,3.95,13.28,3.95,9.98-1.17,12.76-3.5c2.77-2.33,4.16-5.07,4.16-8.22,0-2.82-1.23-5.04-3.67-6.66-1.71-1.11-5.96-2.52-12.76-4.23-9.15-2.31-15.5-4.31-19.03-6-3.54-1.69-6.22-4.02-8.04-7-1.83-2.98-2.74-6.28-2.74-9.88,0-3.28.75-6.32,2.25-9.12s3.55-5.12,6.14-6.97c1.94-1.43,4.59-2.65,7.94-3.64,3.35-.99,6.94-1.49,10.78-1.49,5.78,0,10.85.83,15.22,2.5s7.59,3.92,9.67,6.76c2.08,2.84,3.51,6.65,4.3,11.41l-12.2,1.66c-.55-3.79-2.16-6.75-4.82-8.88-2.66-2.13-6.41-3.19-11.27-3.19-5.73,0-9.82.95-12.27,2.84-2.45,1.9-3.67,4.11-3.67,6.66,0,1.62.51,3.07,1.53,4.37,1.02,1.34,2.61,2.45,4.78,3.33,1.25.46,4.92,1.53,11.02,3.19,8.83,2.36,14.99,4.29,18.48,5.79,3.49,1.5,6.23,3.69,8.22,6.55,1.99,2.87,2.98,6.43,2.98,10.68s-1.21,8.08-3.64,11.75c-2.43,3.68-5.93,6.52-10.5,8.53-4.58,2.01-9.75,3.02-15.53,3.02-9.57,0-16.86-1.99-21.88-5.96-5.02-3.97-8.22-9.87-9.6-17.68Z"/>
      <path class="uuid-15b93112-0a1e-483d-913e-d7227f930ae5" d="m734.91,612.23l-1.39-11.72c2.73.74,5.11,1.11,7.14,1.11,2.77,0,4.99-.46,6.66-1.39,1.66-.92,3.03-2.22,4.09-3.88.79-1.25,2.06-4.35,3.81-9.29.23-.69.6-1.71,1.11-3.05l-27.94-73.77h13.45l15.32,42.64c1.99,5.41,3.77,11.09,5.34,17.06,1.43-5.73,3.14-11.32,5.13-16.78l15.74-42.92h12.48l-28.01,74.88c-3.01,8.09-5.34,13.66-7,16.71-2.22,4.11-4.76,7.13-7.63,9.05-2.87,1.92-6.29,2.88-10.26,2.88-2.4,0-5.09-.51-8.04-1.53Z"/>
      <path class="uuid-15b93112-0a1e-483d-913e-d7227f930ae5" d="m799.37,583.87v-73.63h11.16v10.33c2.31-3.61,5.38-6.51,9.22-8.7,3.84-2.19,8.21-3.29,13.1-3.29,5.45,0,9.93,1.13,13.42,3.4,3.49,2.27,5.95,5.43,7.38,9.5,5.82-8.6,13.41-12.9,22.74-12.9,7.3,0,12.92,2.02,16.85,6.07,3.93,4.05,5.89,10.27,5.89,18.69v50.55h-12.41v-46.39c0-4.99-.41-8.59-1.21-10.78-.81-2.19-2.28-3.96-4.4-5.3-2.13-1.34-4.62-2.01-7.49-2.01-5.18,0-9.48,1.72-12.9,5.17s-5.13,8.96-5.13,16.54v42.78h-12.48v-47.84c0-5.55-1.02-9.71-3.05-12.48s-5.36-4.16-9.98-4.16c-3.51,0-6.76.92-9.74,2.77-2.98,1.85-5.14,4.55-6.48,8.11-1.34,3.56-2.01,8.69-2.01,15.39v38.2h-12.48Z"/>
      <path class="uuid-15b93112-0a1e-483d-913e-d7227f930ae5" d="m910.56,612.09v-101.85h11.37v9.57c2.68-3.74,5.71-6.55,9.08-8.42,3.37-1.87,7.46-2.81,12.27-2.81,6.29,0,11.83,1.62,16.64,4.85,4.81,3.24,8.43,7.8,10.89,13.69,2.45,5.89,3.67,12.35,3.67,19.38,0,7.54-1.35,14.32-4.06,20.35-2.7,6.03-6.63,10.65-11.79,13.87-5.15,3.21-10.57,4.82-16.26,4.82-4.16,0-7.89-.88-11.2-2.63s-6.02-3.97-8.15-6.66v35.85h-12.48Zm11.3-64.62c0,9.48,1.92,16.48,5.75,21.01,3.84,4.53,8.48,6.79,13.94,6.79s10.3-2.35,14.25-7.04,5.93-11.96,5.93-21.81-1.93-16.41-5.79-21.08c-3.86-4.67-8.47-7-13.83-7s-10.02,2.49-14.11,7.45-6.14,12.19-6.14,21.67Z"/>
      <path class="uuid-15b93112-0a1e-483d-913e-d7227f930ae5" d="m982.43,583.87v-101.65h12.48v36.47c5.82-6.75,13.17-10.12,22.05-10.12,5.45,0,10.19,1.07,14.21,3.22,4.02,2.15,6.9,5.12,8.63,8.91,1.73,3.79,2.6,9.29,2.6,16.5v46.66h-12.48v-46.66c0-6.24-1.35-10.78-4.06-13.62-2.7-2.84-6.53-4.26-11.48-4.26-3.7,0-7.18.96-10.43,2.88s-5.58,4.52-6.97,7.8c-1.39,3.28-2.08,7.81-2.08,13.59v40.28h-12.48Z"/>
      <path class="uuid-15b93112-0a1e-483d-913e-d7227f930ae5" d="m1049.66,547.06c0-13.64,3.79-23.74,11.37-30.3,6.33-5.45,14.05-8.18,23.16-8.18,10.12,0,18.4,3.32,24.82,9.95,6.42,6.63,9.64,15.8,9.64,27.49,0,9.48-1.42,16.93-4.26,22.36s-6.98,9.65-12.41,12.65-11.36,4.51-17.78,4.51c-10.31,0-18.64-3.3-25-9.92-6.36-6.61-9.53-16.13-9.53-28.57Zm12.83,0c0,9.43,2.06,16.49,6.17,21.18,4.11,4.69,9.29,7.04,15.53,7.04s11.35-2.36,15.46-7.07c4.11-4.71,6.17-11.9,6.17-21.56,0-9.11-2.07-16-6.21-20.7s-9.28-7.04-15.43-7.04-11.42,2.33-15.53,7c-4.12,4.67-6.17,11.72-6.17,21.15Z"/>
      <path class="uuid-15b93112-0a1e-483d-913e-d7227f930ae5" d="m1126.18,583.87v-73.63h11.23v10.47c5.41-8.09,13.22-12.13,23.44-12.13,4.44,0,8.52.8,12.24,2.39,3.72,1.59,6.51,3.69,8.36,6.27,1.85,2.59,3.14,5.66,3.88,9.22.46,2.31.69,6.36.69,12.13v45.28h-12.48v-44.79c0-5.08-.49-8.89-1.46-11.41-.97-2.52-2.69-4.53-5.17-6.03s-5.37-2.25-8.7-2.25c-5.32,0-9.9,1.69-13.76,5.06-3.86,3.38-5.79,9.78-5.79,19.21v40.21h-12.48Z"/>
      <path class="uuid-15b93112-0a1e-483d-913e-d7227f930ae5" d="m1197.5,612.23l-1.39-11.72c2.73.74,5.11,1.11,7.14,1.11,2.77,0,4.99-.46,6.66-1.39,1.66-.92,3.03-2.22,4.09-3.88.79-1.25,2.06-4.35,3.81-9.29.23-.69.6-1.71,1.11-3.05l-27.94-73.77h13.45l15.32,42.64c1.99,5.41,3.77,11.09,5.34,17.06,1.43-5.73,3.14-11.32,5.13-16.78l15.74-42.92h12.48l-28.01,74.88c-3,8.09-5.34,13.66-7,16.71-2.22,4.11-4.76,7.13-7.63,9.05s-6.29,2.88-10.26,2.88c-2.4,0-5.08-.51-8.04-1.53Z"/>
    </g>
    <g class="uuid-bb041dfb-49cd-47ec-bd4d-bbd562a93ce6">
      <path class="uuid-15b93112-0a1e-483d-913e-d7227f930ae5" d="m400.94,689.06c0-13.64,3.79-23.74,11.37-30.3,6.33-5.45,14.05-8.18,23.16-8.18,10.12,0,18.4,3.32,24.82,9.95,6.42,6.63,9.64,15.8,9.64,27.49,0,9.48-1.42,16.93-4.26,22.36s-6.98,9.65-12.41,12.65-11.36,4.51-17.78,4.51c-10.31,0-18.64-3.3-25-9.92-6.36-6.61-9.53-16.13-9.53-28.57Zm12.83,0c0,9.43,2.06,16.49,6.17,21.18,4.11,4.69,9.29,7.04,15.53,7.04s11.35-2.36,15.46-7.07c4.11-4.71,6.17-11.9,6.17-21.56,0-9.11-2.07-16-6.21-20.7s-9.28-7.04-15.43-7.04-11.42,2.33-15.53,7c-4.12,4.67-6.17,11.72-6.17,21.15Z"/>
      <path class="uuid-15b93112-0a1e-483d-913e-d7227f930ae5" d="m480.44,725.87v-63.93h-11.02v-9.71h11.02v-7.83c0-4.95.44-8.62,1.32-11.02,1.2-3.24,3.32-5.86,6.34-7.87,3.03-2.01,7.27-3.02,12.72-3.02,3.51,0,7.4.42,11.65,1.25l-1.87,10.89c-2.59-.46-5.04-.69-7.35-.69-3.79,0-6.47.81-8.04,2.43-1.57,1.62-2.36,4.65-2.36,9.08v6.79h14.35v9.71h-14.35v63.93h-12.41Z"/>
      <path class="uuid-15b93112-0a1e-483d-913e-d7227f930ae5" d="m590.21,698.9l12.27,1.59c-1.34,8.46-4.77,15.08-10.3,19.87-5.52,4.78-12.31,7.18-20.35,7.18-10.08,0-18.18-3.29-24.3-9.88-6.12-6.59-9.19-16.03-9.19-28.32,0-7.95,1.32-14.91,3.95-20.87s6.64-10.44,12.03-13.42c5.38-2.98,11.24-4.47,17.58-4.47,8,0,14.54,2.02,19.62,6.07,5.08,4.05,8.34,9.79,9.78,17.23l-12.13,1.87c-1.16-4.95-3.2-8.67-6.14-11.16s-6.48-3.74-10.64-3.74c-6.29,0-11.4,2.25-15.32,6.76-3.93,4.51-5.89,11.64-5.89,21.39s1.89,17.08,5.69,21.56c3.79,4.48,8.74,6.73,14.84,6.73,4.9,0,8.99-1.5,12.27-4.51,3.28-3,5.36-7.63,6.24-13.87Z"/>
      <path class="uuid-15b93112-0a1e-483d-913e-d7227f930ae5" d="m605.92,725.87v-73.63h11.23v11.16c2.87-5.22,5.51-8.67,7.94-10.33s5.1-2.5,8.01-2.5c4.21,0,8.48,1.34,12.83,4.02l-4.3,11.58c-3.05-1.8-6.1-2.7-9.15-2.7-2.73,0-5.18.82-7.35,2.46-2.17,1.64-3.72,3.92-4.65,6.83-1.39,4.44-2.08,9.29-2.08,14.56v38.55h-12.48Z"/>
      <path class="uuid-15b93112-0a1e-483d-913e-d7227f930ae5" d="m696.65,702.16l12.9,1.59c-2.04,7.54-5.8,13.38-11.3,17.54-5.5,4.16-12.53,6.24-21.08,6.24-10.77,0-19.31-3.32-25.62-9.95s-9.46-15.94-9.46-27.91,3.19-22,9.57-28.84c6.38-6.84,14.65-10.26,24.82-10.26s17.89,3.35,24.13,10.05c6.24,6.7,9.36,16.13,9.36,28.29,0,.74-.02,1.85-.07,3.33h-54.91c.46,8.09,2.75,14.28,6.86,18.58,4.11,4.3,9.24,6.45,15.39,6.45,4.58,0,8.48-1.2,11.72-3.61,3.23-2.4,5.8-6.24,7.7-11.51Zm-40.98-20.18h41.12c-.55-6.19-2.13-10.84-4.71-13.94-3.98-4.81-9.13-7.21-15.46-7.21-5.73,0-10.55,1.92-14.46,5.75-3.91,3.84-6.07,8.97-6.48,15.39Z"/>
      <path class="uuid-15b93112-0a1e-483d-913e-d7227f930ae5" d="m766.17,716.79c-4.62,3.93-9.07,6.7-13.35,8.32-4.28,1.62-8.86,2.43-13.76,2.43-8.09,0-14.31-1.98-18.65-5.93-4.34-3.95-6.52-9-6.52-15.15,0-3.61.82-6.9,2.46-9.88,1.64-2.98,3.79-5.37,6.45-7.18,2.66-1.8,5.65-3.17,8.98-4.09,2.45-.65,6.15-1.27,11.09-1.87,10.08-1.2,17.5-2.63,22.26-4.3.05-1.71.07-2.8.07-3.26,0-5.08-1.18-8.67-3.54-10.75-3.19-2.82-7.93-4.23-14.21-4.23-5.87,0-10.2,1.03-13,3.08-2.8,2.06-4.87,5.7-6.21,10.92l-12.2-1.66c1.11-5.22,2.94-9.44,5.48-12.65s6.22-5.69,11.02-7.42c4.81-1.73,10.38-2.6,16.71-2.6s11.39.74,15.32,2.22c3.93,1.48,6.82,3.34,8.67,5.58s3.14,5.07,3.88,8.49c.42,2.13.62,5.96.62,11.51v16.64c0,11.6.27,18.94.8,22.01.53,3.07,1.58,6.02,3.15,8.84h-13.04c-1.29-2.59-2.13-5.62-2.5-9.08Zm-1.04-27.87c-4.53,1.85-11.33,3.42-20.38,4.71-5.13.74-8.76,1.57-10.89,2.5-2.13.92-3.77,2.28-4.92,4.06-1.16,1.78-1.73,3.76-1.73,5.93,0,3.33,1.26,6.1,3.78,8.32,2.52,2.22,6.21,3.33,11.06,3.33s9.08-1.05,12.83-3.16c3.74-2.1,6.49-4.98,8.25-8.63,1.34-2.82,2.01-6.98,2.01-12.48v-4.58Z"/>
      <path class="uuid-15b93112-0a1e-483d-913e-d7227f930ae5" d="m817.24,714.71l1.8,11.02c-3.51.74-6.66,1.11-9.43,1.11-4.53,0-8.04-.72-10.54-2.15s-4.25-3.32-5.27-5.65c-1.02-2.33-1.53-7.25-1.53-14.73v-42.36h-9.15v-9.71h9.15v-18.24l12.41-7.49v25.72h12.55v9.71h-12.55v43.06c0,3.56.22,5.85.66,6.86.44,1.02,1.16,1.83,2.15,2.43.99.6,2.42.9,4.26.9,1.39,0,3.21-.16,5.48-.49Z"/>
      <path class="uuid-15b93112-0a1e-483d-913e-d7227f930ae5" d="m822.42,638.58v-14.35h12.48v14.35h-12.48Zm0,87.29v-73.63h12.48v73.63h-12.48Z"/>
      <path class="uuid-15b93112-0a1e-483d-913e-d7227f930ae5" d="m867.25,725.87l-28.01-73.63h13.17l15.81,44.1c1.71,4.76,3.28,9.71,4.71,14.84,1.11-3.88,2.66-8.55,4.65-14.01l16.36-44.93h12.83l-27.87,73.63h-11.65Z"/>
      <path class="uuid-15b93112-0a1e-483d-913e-d7227f930ae5" d="m961.1,702.16l12.9,1.59c-2.04,7.54-5.8,13.38-11.3,17.54-5.5,4.16-12.53,6.24-21.08,6.24-10.77,0-19.31-3.32-25.62-9.95s-9.46-15.94-9.46-27.91,3.19-22,9.57-28.84c6.38-6.84,14.65-10.26,24.82-10.26s17.89,3.35,24.13,10.05c6.24,6.7,9.36,16.13,9.36,28.29,0,.74-.02,1.85-.07,3.33h-54.91c.46,8.09,2.75,14.28,6.86,18.58,4.11,4.3,9.24,6.45,15.39,6.45,4.58,0,8.48-1.2,11.72-3.61,3.23-2.4,5.8-6.24,7.7-11.51Zm-40.98-20.18h41.12c-.55-6.19-2.13-10.84-4.71-13.94-3.98-4.81-9.13-7.21-15.46-7.21-5.73,0-10.55,1.92-14.46,5.75-3.91,3.84-6.07,8.97-6.48,15.39Z"/>
      <path class="uuid-15b93112-0a1e-483d-913e-d7227f930ae5" d="m1018.8,725.87v-101.65h13.45v101.65h-13.45Z"/>
      <path class="uuid-15b93112-0a1e-483d-913e-d7227f930ae5" d="m1047.27,725.87v-73.63h11.23v10.47c5.41-8.09,13.22-12.13,23.44-12.13,4.44,0,8.52.8,12.24,2.39,3.72,1.59,6.51,3.69,8.36,6.27,1.85,2.59,3.14,5.66,3.88,9.22.46,2.31.69,6.36.69,12.13v45.28h-12.48v-44.79c0-5.08-.49-8.89-1.46-11.41-.97-2.52-2.69-4.53-5.17-6.03s-5.37-2.25-8.7-2.25c-5.32,0-9.9,1.69-13.76,5.06-3.86,3.38-5.79,9.78-5.79,19.21v40.21h-12.48Z"/>
      <path class="uuid-15b93112-0a1e-483d-913e-d7227f930ae5" d="m1116.86,731.98l12.13,1.8c.51,3.74,1.92,6.47,4.23,8.18,3.1,2.31,7.33,3.47,12.69,3.47,5.78,0,10.24-1.16,13.38-3.47,3.14-2.31,5.27-5.55,6.38-9.71.65-2.54.95-7.88.9-16.02-5.45,6.43-12.25,9.64-20.38,9.64-10.12,0-17.96-3.65-23.5-10.96-5.55-7.3-8.32-16.06-8.32-26.28,0-7.03,1.27-13.51,3.81-19.45s6.23-10.53,11.06-13.76c4.83-3.24,10.5-4.85,17.02-4.85,8.69,0,15.85,3.51,21.49,10.54v-8.88h11.51v63.65c0,11.46-1.17,19.59-3.5,24.37-2.33,4.79-6.03,8.56-11.09,11.34s-11.29,4.16-18.69,4.16c-8.78,0-15.88-1.98-21.29-5.93-5.41-3.95-8.02-9.9-7.83-17.85Zm10.33-44.24c0,9.66,1.92,16.71,5.75,21.15s8.64,6.66,14.42,6.66,10.54-2.21,14.42-6.62c3.88-4.41,5.82-11.34,5.82-20.77s-2-15.81-6-20.38c-4-4.58-8.82-6.86-14.46-6.86s-10.26,2.25-14.14,6.76c-3.88,4.51-5.82,11.2-5.82,20.07Z"/>
      <path class="uuid-15b93112-0a1e-483d-913e-d7227f930ae5" d="m1241.43,702.16l12.9,1.59c-2.04,7.54-5.8,13.38-11.3,17.54-5.5,4.16-12.53,6.24-21.08,6.24-10.77,0-19.31-3.32-25.62-9.95s-9.46-15.94-9.46-27.91,3.19-22,9.57-28.84c6.38-6.84,14.65-10.26,24.82-10.26s17.89,3.35,24.13,10.05c6.24,6.7,9.36,16.13,9.36,28.29,0,.74-.02,1.85-.07,3.33h-54.91c.46,8.09,2.75,14.28,6.86,18.58,4.11,4.3,9.24,6.45,15.39,6.45,4.58,0,8.48-1.2,11.72-3.61,3.23-2.4,5.8-6.24,7.7-11.51Zm-40.98-20.18h41.12c-.55-6.19-2.13-10.84-4.71-13.94-3.98-4.81-9.13-7.21-15.46-7.21-5.73,0-10.55,1.92-14.46,5.75-3.91,3.84-6.07,8.97-6.48,15.39Z"/>
      <path class="uuid-15b93112-0a1e-483d-913e-d7227f930ae5" d="m1262.89,725.87v-73.63h11.23v10.47c5.41-8.09,13.22-12.13,23.44-12.13,4.44,0,8.52.8,12.24,2.39,3.72,1.59,6.51,3.69,8.35,6.27,1.85,2.59,3.14,5.66,3.88,9.22.46,2.31.69,6.36.69,12.13v45.28h-12.48v-44.79c0-5.08-.49-8.89-1.46-11.41-.97-2.52-2.69-4.53-5.17-6.03-2.47-1.5-5.37-2.25-8.7-2.25-5.32,0-9.9,1.69-13.76,5.06-3.86,3.38-5.79,9.78-5.79,19.21v40.21h-12.48Z"/>
      <path class="uuid-15b93112-0a1e-483d-913e-d7227f930ae5" d="m1383.02,725.87v-10.82c-5.73,8.32-13.52,12.48-23.37,12.48-4.35,0-8.4-.83-12.17-2.5s-6.56-3.75-8.39-6.28c-1.83-2.52-3.11-5.6-3.85-9.26-.51-2.45-.76-6.33-.76-11.65v-45.62h12.48v40.84c0,6.52.25,10.91.76,13.17.79,3.28,2.45,5.86,4.99,7.73,2.54,1.87,5.69,2.81,9.43,2.81s7.26-.96,10.54-2.88c3.28-1.92,5.6-4.53,6.97-7.83,1.36-3.3,2.04-8.1,2.04-14.39v-39.45h12.48v73.63h-11.16Z"/>
      <path class="uuid-15b93112-0a1e-483d-913e-d7227f930ae5" d="m1406.71,638.58v-14.35h12.48v14.35h-12.48Zm0,87.29v-73.63h12.48v73.63h-12.48Z"/>
      <path class="uuid-15b93112-0a1e-483d-913e-d7227f930ae5" d="m1458.34,714.71l1.8,11.02c-3.51.74-6.66,1.11-9.43,1.11-4.53,0-8.04-.72-10.54-2.15s-4.25-3.32-5.27-5.65c-1.02-2.33-1.53-7.25-1.53-14.73v-42.36h-9.15v-9.71h9.15v-18.24l12.41-7.49v25.72h12.55v9.71h-12.55v43.06c0,3.56.22,5.85.66,6.86.44,1.02,1.15,1.83,2.15,2.43.99.6,2.42.9,4.26.9,1.39,0,3.21-.16,5.48-.49Z"/>
      <path class="uuid-15b93112-0a1e-483d-913e-d7227f930ae5" d="m1462.89,754.23l-1.39-11.72c2.73.74,5.11,1.11,7.14,1.11,2.77,0,4.99-.46,6.66-1.39,1.66-.92,3.03-2.22,4.09-3.88.79-1.25,2.06-4.35,3.81-9.29.23-.69.6-1.71,1.11-3.05l-27.94-73.77h13.45l15.32,42.64c1.99,5.41,3.77,11.09,5.34,17.06,1.43-5.73,3.14-11.32,5.13-16.78l15.74-42.92h12.48l-28.01,74.88c-3,8.09-5.34,13.66-7,16.71-2.22,4.11-4.76,7.13-7.63,9.05-2.87,1.92-6.29,2.88-10.26,2.88-2.4,0-5.08-.51-8.04-1.53Z"/>
    </g>
  </g>
  <g id="uuid-d4f281ba-5593-42d0-a425-6644d9c8ebda" data-name="Group 443">
    <path id="uuid-c45a67ac-94a3-4752-b86c-9a1b6b2d6718" data-name="Path 2476" class="uuid-15b93112-0a1e-483d-913e-d7227f930ae5" d="m1319.2,583.94h-.39l-.32-30.89-30.89-.32v-.39l30.89-.32.32-30.89h.39l.32,30.89,30.89.32v.39l-30.89.32-.32,30.89Zm-12.61-31.41l12.29.13.13,12.29.13-12.29,12.29-.13-12.29-.13-.13-12.29-.13,12.29-12.29.13Z"/>
    <path id="uuid-9babc13e-46eb-4396-99ea-01c78b75dbab" data-name="Path 2477" class="uuid-15b93112-0a1e-483d-913e-d7227f930ae5" d="m1330.45,564.27l-11.45-11.22-11.45,11.22-.28-.29,11.2-11.45-11.2-11.45.28-.28,11.45,11.22,11.45-11.22.28.28-11.2,11.45,11.2,11.45-.28.29Z"/>
    <path id="uuid-4c8c5045-4718-45c9-ac6e-336b8f558f91" data-name="Path 2478" class="uuid-15b93112-0a1e-483d-913e-d7227f930ae5" d="m1286.92,527.16h-.39l-.04-5.91-3.81-.06v-.39l3.81-.07.04-5.91h.39l.04,5.91,3.81.07v.39l-3.81.06-.04,5.91Z"/>
    <path id="uuid-41f9af74-ea63-402c-90c1-c924be27596b" data-name="Path 2479" class="uuid-15b93112-0a1e-483d-913e-d7227f930ae5" d="m1351.47,527.16h-.39l-.04-5.91-3.82-.06v-.39l3.82-.07.04-5.91h.39l.04,5.91,3.81.07v.39l-3.81.06-.04,5.91Z"/>
    <path id="uuid-168f9f9d-e2cd-46f9-9186-0564b453e316" data-name="Path 2480" class="uuid-15b93112-0a1e-483d-913e-d7227f930ae5" d="m1286.92,590.26h-.39l-.04-5.93-3.81-.06v-.39l3.81-.06.04-5.93h.39l.04,5.93,3.81.06v.39l-3.81.06-.04,5.93Z"/>
    <path id="uuid-75965f62-71b5-44b0-88af-dbaf53fc9ee0" data-name="Path 2481" class="uuid-15b93112-0a1e-483d-913e-d7227f930ae5" d="m1351.47,590.26h-.39l-.04-5.93-3.82-.06v-.39l3.82-.06.04-5.93h.39l.04,5.93,3.81.06v.39l-3.81.06-.04,5.93Z"/>
  </g>
  <g id="uuid-dd705f2d-5d29-457e-ab15-6951430c3dc7" data-name="Group 443">
    <path id="uuid-8baddc9d-3884-44f3-9da1-1c25630cea0f" data-name="Path 2476" class="uuid-15b93112-0a1e-483d-913e-d7227f930ae5" d="m590.25,278.33h-.39l-.32-30.89-30.89-.32v-.39l30.89-.32.32-30.89h.39l.32,30.89,30.89.32v.39l-30.89.32-.32,30.89Zm-12.61-31.41l12.29.13.13,12.29.13-12.29,12.29-.13-12.29-.13-.13-12.29-.13,12.29-12.29.13Z"/>
    <path id="uuid-181bd033-0593-445d-a98a-44ac14a151fc" data-name="Path 2477" class="uuid-15b93112-0a1e-483d-913e-d7227f930ae5" d="m601.5,258.66l-11.45-11.22-11.45,11.22-.28-.29,11.2-11.45-11.2-11.45.28-.28,11.45,11.22,11.45-11.22.28.28-11.2,11.45,11.2,11.45-.28.29Z"/>
    <path id="uuid-58d00550-77db-4937-8a4f-1dcc03def182" data-name="Path 2478" class="uuid-15b93112-0a1e-483d-913e-d7227f930ae5" d="m557.97,221.55h-.39l-.04-5.91-3.81-.06v-.39l3.81-.07.04-5.91h.39l.04,5.91,3.81.07v.39l-3.81.06-.04,5.91Z"/>
    <path id="uuid-2d214de0-5bb0-4d3a-a435-58b502a8f9a1" data-name="Path 2479" class="uuid-15b93112-0a1e-483d-913e-d7227f930ae5" d="m622.52,221.55h-.39l-.04-5.91-3.82-.06v-.39l3.82-.07.04-5.91h.39l.04,5.91,3.81.07v.39l-3.81.06-.04,5.91Z"/>
    <path id="uuid-f2be83cd-e43f-4371-afcc-83ac1be751bb" data-name="Path 2480" class="uuid-15b93112-0a1e-483d-913e-d7227f930ae5" d="m557.97,284.65h-.39l-.04-5.93-3.81-.06v-.39l3.81-.06.04-5.93h.39l.04,5.93,3.81.06v.39l-3.81.06-.04,5.93Z"/>
    <path id="uuid-bbc740c2-24ff-4874-92b9-cf187490c94b" data-name="Path 2481" class="uuid-15b93112-0a1e-483d-913e-d7227f930ae5" d="m622.52,284.65h-.39l-.04-5.93-3.82-.06v-.39l3.82-.06.04-5.93h.39l.04,5.93,3.81.06v.39l-3.81.06-.04,5.93Z"/>
  </g>
</svg>