<?xml version="1.0" encoding="utf-8"?>
<!-- Generator: Adobe Illustrator 28.0.0, SVG Export Plug-In . SVG Version: 6.00 Build 0)  -->
<svg version="1.1" id="uuid-8bd84877-36ef-4555-8af8-ce48331ba034"
	 xmlns="http://www.w3.org/2000/svg" xmlns:xlink="http://www.w3.org/1999/xlink" x="0px" y="0px" viewBox="0 0 4677.83 3057.99"
	 style="enable-background:new 0 0 4677.83 3057.99;" xml:space="preserve">
<style type="text/css">
	.st0{fill:#FFFFFF;}
	.st1{fill:none;stroke:#FFF3F3;stroke-width:22.2019;stroke-miterlimit:10;}
	.st2{fill:none;stroke:#FFF3F3;stroke-width:10.3215;stroke-miterlimit:10;}
	.st3{fill:none;stroke:#FFF3F3;stroke-width:11.4684;stroke-miterlimit:10;}
	.st4{fill:none;stroke:#FFF3F3;stroke-width:12.7427;stroke-miterlimit:10;}
	.st5{fill:none;stroke:#FFF3F3;stroke-width:14.1585;stroke-miterlimit:10;}
	.st6{fill:none;stroke:#FFF3F3;stroke-width:15.7317;stroke-miterlimit:10;}
	.st7{fill:none;stroke:#FFF3F3;stroke-width:17.4796;stroke-miterlimit:10;}
	.st8{fill:none;stroke:#FFF3F3;stroke-width:19.4218;stroke-miterlimit:10;}
	.st9{fill:none;stroke:#FFF3F3;stroke-width:21.5798;stroke-miterlimit:10;}
	.st10{fill:none;stroke:#FFF3F3;stroke-width:23.9776;stroke-miterlimit:10;}
</style>
<g id="uuid-9e01a561-05ff-4cbe-b808-cb7440a44ebb">
	<g>
		<path class="st0" d="M2024.7,1571.85v-108.92h14.79l57.21,85.52v-85.52h13.82v108.92h-14.79l-57.21-85.6v85.6H2024.7z"/>
		<path class="st0" d="M2120.43,1532.4c0-14.62,4.06-25.44,12.18-32.47c6.78-5.84,15.06-8.77,24.82-8.77
			c10.84,0,19.72,3.56,26.6,10.66s10.33,16.93,10.33,29.46c0,10.16-1.52,18.14-4.56,23.96s-7.48,10.34-13.3,13.56
			c-5.82,3.21-12.17,4.83-19.06,4.83c-11.05,0-19.97-3.54-26.79-10.63c-6.81-7.08-10.21-17.28-10.21-30.61V1532.4z M2134.18,1532.4
			c0,10.1,2.21,17.67,6.61,22.7c4.4,5.03,9.95,7.54,16.64,7.54s12.16-2.53,16.57-7.58c4.4-5.05,6.61-12.75,6.61-23.1
			c0-9.76-2.22-17.14-6.65-22.18c-4.44-5.03-9.94-7.54-16.53-7.54c-6.59,0-12.24,2.5-16.64,7.5c-4.4,5-6.61,12.56-6.61,22.66
			H2134.18z"/>
		<path class="st0" d="M2231.62,1559.89l1.93,11.81c-3.76,0.79-7.14,1.19-10.1,1.19c-4.85,0-8.62-0.77-11.29-2.3
			c-2.68-1.53-4.55-3.56-5.65-6.05s-1.64-7.77-1.64-15.78v-45.39h-9.8v-10.4h9.8v-19.55l13.3-8.03v27.56h13.45v10.4h-13.45v46.14
			c0,3.81,0.24,6.27,0.71,7.35c0.47,1.09,1.24,1.96,2.3,2.6s2.59,0.96,4.56,0.96c1.49,0,3.44-0.17,5.87-0.53L2231.62,1559.89z"/>
		<path class="st0" d="M2254.75,1602.46l2.53-11.37c2.68,0.7,4.78,1.04,6.31,1.04c2.72,0,4.76-0.9,6.1-2.71
			c1.34-1.81,2-6.33,2-13.56v-82.92h13.37v83.22c0,9.71-1.26,16.47-3.79,20.28c-3.23,4.95-8.57,7.43-16.05,7.43
			c-3.61,0-7.1-0.47-10.48-1.41H2254.75z M2271.69,1478.46v-15.53h13.37v15.53H2271.69z"/>
		<path class="st0" d="M2349.66,1571.85v-11.59c-6.14,8.92-14.49,13.37-25.04,13.37c-4.66,0-9-0.89-13.04-2.68
			c-4.04-1.79-7.03-4.02-8.99-6.73c-1.96-2.7-3.33-6-4.13-9.92c-0.55-2.63-0.81-6.78-0.81-12.48v-48.88h13.37v43.76
			c0,6.99,0.27,11.69,0.81,14.11c0.85,3.51,2.63,6.28,5.35,8.28s6.1,3.01,10.1,3.01s7.78-1.03,11.29-3.09s6-4.85,7.47-8.39
			c1.47-3.54,2.2-8.68,2.2-15.42v-42.27h13.37v78.9h-11.96L2349.66,1571.85z"/>
		<path class="st0" d="M2369.62,1548.29l13.22-2.08c0.74,5.3,2.81,9.37,6.2,12.18c3.4,2.82,8.13,4.23,14.23,4.23
			c6.1,0,10.69-1.25,13.67-3.75c2.97-2.5,4.46-5.43,4.46-8.81c0-3.02-1.31-5.4-3.93-7.14c-1.83-1.19-6.39-2.7-13.67-4.53
			c-9.8-2.48-16.61-4.62-20.39-6.43c-3.79-1.81-6.67-4.31-8.62-7.5c-1.96-3.19-2.94-6.73-2.94-10.59c0-3.51,0.8-6.77,2.41-9.77
			c1.61-3,3.8-5.49,6.58-7.47c2.08-1.53,4.92-2.84,8.51-3.9c3.59-1.06,7.44-1.6,11.55-1.6c6.19,0,11.63,0.89,16.31,2.68
			c4.68,1.79,8.13,4.2,10.36,7.24c2.23,3.04,3.76,7.13,4.61,12.23l-13.07,1.78c-0.59-4.06-2.31-7.23-5.16-9.52
			c-2.85-2.28-6.87-3.42-12.08-3.42c-6.14,0-10.52,1.02-13.15,3.04c-2.63,2.04-3.93,4.4-3.93,7.14c0,1.74,0.55,3.29,1.64,4.68
			c1.09,1.44,2.8,2.63,5.12,3.57c1.34,0.49,5.27,1.64,11.81,3.42c9.46,2.53,16.06,4.6,19.8,6.2c3.74,1.61,6.68,3.95,8.81,7.02
			c2.13,3.08,3.19,6.89,3.19,11.44s-1.3,8.66-3.9,12.59c-2.6,3.94-6.35,6.99-11.25,9.14c-4.91,2.15-10.45,3.24-16.64,3.24
			c-10.25,0-18.07-2.13-23.45-6.39s-8.81-10.58-10.29-18.94H2369.62z"/>
		<path class="st0" d="M2472.65,1559.89l1.93,11.81c-3.76,0.79-7.14,1.19-10.1,1.19c-4.85,0-8.62-0.77-11.29-2.3
			c-2.68-1.53-4.55-3.56-5.65-6.05s-1.64-7.77-1.64-15.78v-45.39h-9.8v-10.4h9.8v-19.55l13.3-8.03v27.56h13.45v10.4h-13.45v46.14
			c0,3.81,0.24,6.27,0.71,7.35c0.47,1.09,1.24,1.96,2.3,2.6s2.59,0.96,4.56,0.96c1.49,0,3.44-0.17,5.87-0.53L2472.65,1559.89z"/>
	</g>
	<g>
		<path class="st0" d="M1797.28,1714.28c-4.95,4.21-9.72,7.18-14.31,8.92c-4.59,1.74-9.49,2.6-14.74,2.6
			c-8.67,0-15.33-2.12-19.98-6.35c-4.66-4.23-6.99-9.64-6.99-16.23c0-3.87,0.88-7.39,2.64-10.59s4.06-5.75,6.91-7.69
			c2.85-1.94,6.05-3.4,9.62-4.38c2.63-0.7,6.59-1.36,11.88-2c10.8-1.29,18.75-2.82,23.85-4.61c0.04-1.83,0.07-3,0.07-3.49
			c0-5.44-1.26-9.29-3.79-11.52c-3.42-3.02-8.5-4.53-15.23-4.53c-6.29,0-10.93,1.1-13.93,3.3c-3,2.21-5.22,6.11-6.65,11.7
			l-13.07-1.78c1.19-5.59,3.14-10.12,5.87-13.56c2.72-3.44,6.67-6.1,11.81-7.95c5.15-1.85,11.12-2.79,17.91-2.79
			s12.2,0.79,16.42,2.38s7.31,3.58,9.29,5.98c1.98,2.4,3.36,5.43,4.16,9.1c0.45,2.28,0.66,6.39,0.66,12.33v17.83
			c0,12.43,0.29,20.3,0.86,23.58c0.57,3.29,1.69,6.45,3.39,9.47h-13.97c-1.38-2.78-2.28-6.02-2.68-9.73L1797.28,1714.28z
			 M1796.17,1684.41c-4.85,1.98-12.14,3.66-21.84,5.05c-5.5,0.79-9.39,1.68-11.67,2.68c-2.28,0.99-4.04,2.44-5.27,4.35
			c-1.24,1.91-1.85,4.03-1.85,6.35c0,3.57,1.35,6.54,4.05,8.92c2.7,2.38,6.65,3.57,11.85,3.57s9.73-1.13,13.75-3.39
			c4.01-2.25,6.95-5.34,8.84-9.25c1.44-3.02,2.15-7.48,2.15-13.37v-4.91H1796.17z"/>
		<path class="st0" d="M1822.82,1724v-78.9h12.03v11.22c5.8-8.67,14.17-13,25.12-13c4.76,0,9.13,0.86,13.12,2.56
			c3.99,1.7,6.98,3.95,8.95,6.72c1.98,2.78,3.36,6.06,4.16,9.88c0.49,2.48,0.74,6.82,0.74,13V1724h-13.37v-47.99
			c0-5.44-0.53-9.53-1.56-12.23c-1.04-2.7-2.88-4.85-5.54-6.46c-2.65-1.61-5.75-2.41-9.32-2.41c-5.7,0-10.61,1.81-14.74,5.42
			c-4.14,3.62-6.2,10.48-6.2,20.58V1724h-13.37L1822.82,1724z"/>
		<path class="st0" d="M1899.23,1754.39l-1.49-12.56c2.93,0.79,5.48,1.19,7.65,1.19c2.97,0,5.35-0.49,7.14-1.49
			c1.78-0.99,3.25-2.38,4.38-4.16c0.85-1.34,2.21-4.66,4.08-9.95c0.25-0.74,0.64-1.83,1.19-3.27l-29.94-79.05h14.41l16.42,45.69
			c2.13,5.8,4.04,11.88,5.72,18.28c1.53-6.14,3.36-12.13,5.5-17.98l16.87-45.99h13.37l-30.01,80.24c-3.23,8.67-5.72,14.64-7.5,17.91
			c-2.38,4.4-5.1,7.64-8.18,9.7s-6.74,3.09-10.99,3.09C1905.27,1756.03,1902.39,1755.49,1899.23,1754.39L1899.23,1754.39z"/>
		<path class="st0" d="M2054.15,1724v-9.95c-5,7.82-12.35,11.74-22.06,11.74c-6.29,0-12.08-1.74-17.35-5.2
			c-5.27-3.46-9.37-8.3-12.26-14.52s-4.35-13.36-4.35-21.43c0-8.07,1.31-15.02,3.93-21.43c2.63-6.42,6.56-11.33,11.81-14.74
			s11.12-5.12,17.61-5.12c4.76,0,8.99,1.01,12.71,3.01s6.74,4.62,9.07,7.83v-39.08h13.3v108.92h-12.41L2054.15,1724z
			 M2011.88,1684.63c0,10.1,2.13,17.66,6.39,22.66c4.26,5,9.29,7.5,15.09,7.5s10.81-2.39,14.89-7.17
			c4.08-4.78,6.13-12.08,6.13-21.88c0-10.8-2.08-18.72-6.24-23.78c-4.16-5.06-9.29-7.58-15.38-7.58s-10.91,2.43-14.89,7.28
			c-3.99,4.85-5.98,12.5-5.98,22.95L2011.88,1684.63z"/>
		<path class="st0" d="M2133.99,1698.6l13.82,1.7c-2.19,8.08-6.22,14.34-12.11,18.79c-5.89,4.46-13.43,6.69-22.59,6.69
			c-11.54,0-20.69-3.56-27.45-10.66s-10.14-17.08-10.14-29.91s3.42-23.57,10.25-30.9s15.7-10.99,26.6-10.99
			c10.9,0,19.17,3.59,25.86,10.77c6.69,7.18,10.03,17.28,10.03,30.31c0,0.79-0.02,1.98-0.07,3.57h-58.84
			c0.49,8.67,2.95,15.3,7.35,19.91c4.4,4.61,9.9,6.91,16.49,6.91c4.91,0,9.09-1.29,12.56-3.87c3.46-2.57,6.21-6.69,8.25-12.33
			L2133.99,1698.6z M2090.08,1676.97h44.06c-0.59-6.63-2.28-11.62-5.05-14.94c-4.26-5.15-9.78-7.73-16.57-7.73
			c-6.14,0-11.3,2.06-15.49,6.16c-4.19,4.11-6.5,9.61-6.94,16.49L2090.08,1676.97z"/>
		<path class="st0" d="M2151.65,1700.45l13.22-2.08c0.74,5.3,2.81,9.37,6.2,12.18c3.4,2.82,8.13,4.23,14.23,4.23
			s10.69-1.25,13.67-3.75c2.97-2.5,4.46-5.43,4.46-8.81c0-3.02-1.31-5.4-3.93-7.14c-1.83-1.19-6.39-2.7-13.67-4.53
			c-9.8-2.48-16.61-4.62-20.39-6.43c-3.79-1.81-6.67-4.31-8.62-7.5c-1.96-3.19-2.94-6.73-2.94-10.59c0-3.51,0.8-6.77,2.41-9.77
			c1.61-3,3.8-5.49,6.58-7.47c2.08-1.53,4.92-2.84,8.51-3.9c3.59-1.06,7.44-1.6,11.55-1.6c6.19,0,11.63,0.89,16.31,2.68
			s8.13,4.2,10.36,7.24s3.76,7.13,4.61,12.23l-13.07,1.78c-0.59-4.06-2.31-7.23-5.16-9.52c-2.85-2.28-6.87-3.42-12.08-3.42
			c-6.14,0-10.52,1.02-13.15,3.04c-2.63,2.04-3.93,4.4-3.93,7.14c0,1.74,0.55,3.29,1.64,4.68c1.09,1.44,2.8,2.63,5.12,3.57
			c1.34,0.49,5.27,1.64,11.81,3.42c9.46,2.53,16.06,4.6,19.8,6.2c3.74,1.61,6.68,3.95,8.81,7.02c2.13,3.08,3.19,6.89,3.19,11.44
			s-1.3,8.66-3.9,12.59c-2.6,3.94-6.35,6.99-11.25,9.14c-4.91,2.15-10.45,3.24-16.64,3.24c-10.25,0-18.07-2.13-23.45-6.39
			s-8.81-10.58-10.29-18.94H2151.65z"/>
		<path class="st0" d="M2225.55,1630.47v-15.38h13.37v15.38H2225.55z M2225.55,1724v-78.9h13.37v78.9H2225.55z"/>
		<path class="st0" d="M2249.22,1730.55l13,1.93c0.55,4.01,2.06,6.93,4.53,8.77c3.32,2.48,7.85,3.72,13.6,3.72
			c6.19,0,10.97-1.24,14.34-3.72c3.36-2.48,5.65-5.95,6.84-10.4c0.7-2.72,1.02-8.44,0.96-17.17c-5.85,6.89-13.13,10.33-21.84,10.33
			c-10.84,0-19.25-3.91-25.18-11.74c-5.95-7.82-8.92-17.21-8.92-28.16c0-7.53,1.36-14.48,4.08-20.84
			c2.72-6.36,6.68-11.28,11.85-14.74c5.18-3.47,11.25-5.2,18.24-5.2c9.31,0,16.98,3.76,23.03,11.29v-9.52h12.33v68.2
			c0,12.28-1.25,20.99-3.75,26.11c-2.5,5.13-6.46,9.17-11.88,12.15c-5.42,2.98-12.1,4.46-20.03,4.46c-9.41,0-17.02-2.12-22.81-6.35
			c-5.8-4.23-8.59-10.61-8.39-19.13V1730.55z M2260.29,1683.15c0,10.35,2.06,17.91,6.16,22.66c4.11,4.76,9.26,7.14,15.45,7.14
			c6.19,0,11.29-2.37,15.45-7.09c4.16-4.73,6.24-12.15,6.24-22.26c0-10.1-2.14-16.94-6.43-21.84s-9.45-7.35-15.49-7.35
			s-10.99,2.41-15.15,7.24c-4.16,4.83-6.24,12-6.24,21.51L2260.29,1683.15z"/>
		<path class="st0" d="M2328.68,1724v-78.9h12.03v11.22c5.8-8.67,14.17-13,25.12-13c4.76,0,9.13,0.86,13.12,2.56
			c3.99,1.7,6.98,3.95,8.95,6.72c1.98,2.78,3.36,6.06,4.16,9.88c0.49,2.48,0.74,6.82,0.74,13V1724h-13.37v-47.99
			c0-5.44-0.53-9.53-1.56-12.23c-1.04-2.7-2.88-4.85-5.54-6.46c-2.65-1.61-5.75-2.41-9.32-2.41c-5.7,0-10.61,1.81-14.74,5.42
			c-4.14,3.62-6.2,10.48-6.2,20.58V1724h-13.37L2328.68,1724z"/>
		<path class="st0" d="M2435.01,1700.45l13.22-2.08c0.74,5.3,2.81,9.37,6.2,12.18c3.4,2.82,8.13,4.23,14.23,4.23
			s10.69-1.25,13.67-3.75c2.97-2.5,4.46-5.43,4.46-8.81c0-3.02-1.31-5.4-3.93-7.14c-1.83-1.19-6.39-2.7-13.67-4.53
			c-9.8-2.48-16.61-4.62-20.39-6.43c-3.79-1.81-6.67-4.31-8.62-7.5c-1.96-3.19-2.94-6.73-2.94-10.59c0-3.51,0.8-6.77,2.41-9.77
			c1.61-3,3.8-5.49,6.58-7.47c2.08-1.53,4.92-2.84,8.51-3.9c3.59-1.06,7.44-1.6,11.55-1.6c6.19,0,11.63,0.89,16.31,2.68
			s8.13,4.2,10.36,7.24s3.76,7.13,4.61,12.23l-13.07,1.78c-0.59-4.06-2.31-7.23-5.16-9.52c-2.85-2.28-6.87-3.42-12.08-3.42
			c-6.14,0-10.52,1.02-13.15,3.04c-2.63,2.04-3.93,4.4-3.93,7.14c0,1.74,0.55,3.29,1.64,4.68c1.09,1.44,2.8,2.63,5.12,3.57
			c1.34,0.49,5.27,1.64,11.81,3.42c9.46,2.53,16.06,4.6,19.8,6.2c3.74,1.61,6.68,3.95,8.81,7.02c2.13,3.08,3.19,6.89,3.19,11.44
			s-1.3,8.66-3.9,12.59c-2.6,3.94-6.35,6.99-11.25,9.14c-4.91,2.15-10.45,3.24-16.64,3.24c-10.25,0-18.07-2.13-23.45-6.39
			s-8.81-10.58-10.29-18.94H2435.01z"/>
		<path class="st0" d="M2538.03,1712.05l1.93,11.81c-3.76,0.79-7.14,1.19-10.1,1.19c-4.85,0-8.62-0.77-11.29-2.3
			c-2.68-1.53-4.55-3.56-5.65-6.05s-1.64-7.77-1.64-15.78v-45.39h-9.8v-10.4h9.8v-19.55l13.3-8.03v27.56h13.45v10.4h-13.45v46.14
			c0,3.81,0.24,6.27,0.71,7.35c0.47,1.09,1.24,1.96,2.3,2.6s2.59,0.96,4.56,0.96c1.49,0,3.44-0.17,5.87-0.53L2538.03,1712.05z"/>
		<path class="st0" d="M2595.22,1724v-11.59c-6.14,8.92-14.49,13.37-25.04,13.37c-4.66,0-9-0.89-13.04-2.68
			c-4.04-1.79-7.03-4.02-8.99-6.73c-1.96-2.7-3.33-6-4.13-9.92c-0.55-2.63-0.81-6.78-0.81-12.48v-48.88h13.37v43.76
			c0,6.99,0.27,11.69,0.81,14.11c0.85,3.51,2.63,6.28,5.35,8.28c2.72,2,6.1,3.01,10.1,3.01s7.78-1.03,11.29-3.09s6-4.85,7.47-8.39
			c1.47-3.54,2.2-8.68,2.2-15.42v-42.27h13.37v78.9h-11.96V1724z"/>
		<path class="st0" d="M2671.71,1724v-9.95c-5,7.82-12.35,11.74-22.06,11.74c-6.29,0-12.08-1.74-17.35-5.2
			c-5.27-3.46-9.37-8.3-12.26-14.52s-4.35-13.36-4.35-21.43c0-8.07,1.31-15.02,3.93-21.43c2.63-6.42,6.56-11.33,11.81-14.74
			c5.25-3.42,11.12-5.12,17.61-5.12c4.76,0,8.99,1.01,12.71,3.01s6.74,4.62,9.07,7.83v-39.08h13.3v108.92h-12.41L2671.71,1724z
			 M2629.44,1684.63c0,10.1,2.13,17.66,6.39,22.66c4.26,5,9.29,7.5,15.09,7.5c5.8,0,10.81-2.39,14.89-7.17
			c4.08-4.78,6.13-12.08,6.13-21.88c0-10.8-2.08-18.72-6.24-23.78c-4.16-5.06-9.29-7.58-15.38-7.58c-6.09,0-10.91,2.43-14.89,7.28
			c-3.99,4.85-5.98,12.5-5.98,22.95L2629.44,1684.63z"/>
		<path class="st0" d="M2697.61,1630.47v-15.38h13.37v15.38H2697.61z M2697.61,1724v-78.9h13.37v78.9H2697.61z"/>
		<path class="st0" d="M2718.76,1684.56c0-14.62,4.06-25.44,12.18-32.47c6.78-5.84,15.06-8.77,24.82-8.77
			c10.84,0,19.72,3.56,26.6,10.66c6.89,7.1,10.33,16.93,10.33,29.46c0,10.16-1.52,18.14-4.58,23.96
			c-3.04,5.82-7.48,10.34-13.3,13.56s-12.17,4.83-19.06,4.83c-11.05,0-19.97-3.54-26.79-10.63c-6.81-7.08-10.21-17.28-10.21-30.61
			L2718.76,1684.56z M2732.51,1684.56c0,10.1,2.21,17.67,6.61,22.7c4.4,5.03,9.95,7.54,16.64,7.54c6.69,0,12.16-2.53,16.57-7.58
			c4.4-5.05,6.61-12.75,6.61-23.1c0-9.76-2.22-17.14-6.65-22.18c-4.44-5.04-9.94-7.54-16.53-7.54s-12.24,2.5-16.64,7.5
			s-6.61,12.56-6.61,22.66H2732.51z"/>
		<path class="st0" d="M2804.25,1724v-15.23h15.23V1724c0,5.59-0.99,10.12-2.97,13.56c-1.98,3.44-5.12,6.11-9.44,7.98l-3.72-5.72
			c2.82-1.24,4.91-3.05,6.24-5.46c1.33-2.41,2.08-5.86,2.23-10.36h-7.58L2804.25,1724z M2804.25,1660.33v-15.23h15.23v15.23H2804.25
			z"/>
	</g>
	<g>
		<path class="st0" d="M1970.62,1866.43c-4.95,4.21-9.72,7.18-14.31,8.92c-4.59,1.74-9.49,2.6-14.74,2.6
			c-8.67,0-15.33-2.12-19.98-6.35c-4.66-4.23-6.99-9.64-6.99-16.23c0-3.87,0.88-7.39,2.64-10.59s4.06-5.75,6.91-7.69
			c2.85-1.94,6.05-3.4,9.62-4.38c2.63-0.7,6.59-1.36,11.88-2c10.8-1.29,18.75-2.82,23.85-4.61c0.04-1.83,0.08-3,0.08-3.49
			c0-5.44-1.26-9.29-3.79-11.52c-3.42-3.02-8.5-4.53-15.23-4.53c-6.29,0-10.93,1.1-13.93,3.3c-3,2.21-5.22,6.11-6.65,11.7
			l-13.07-1.78c1.19-5.59,3.14-10.12,5.87-13.56c2.72-3.44,6.67-6.1,11.81-7.95c5.15-1.85,11.12-2.79,17.91-2.79
			c6.78,0,12.2,0.79,16.42,2.38c4.21,1.59,7.31,3.58,9.29,5.98c1.98,2.4,3.36,5.43,4.16,9.1c0.45,2.28,0.66,6.39,0.66,12.33v17.83
			c0,12.43,0.29,20.3,0.86,23.58s1.69,6.45,3.39,9.47h-13.97c-1.38-2.78-2.28-6.02-2.68-9.73L1970.62,1866.43z M1969.5,1836.57
			c-4.85,1.98-12.14,3.66-21.84,5.05c-5.5,0.79-9.39,1.68-11.67,2.68c-2.28,0.99-4.04,2.44-5.27,4.35
			c-1.24,1.91-1.85,4.03-1.85,6.35c0,3.57,1.35,6.54,4.05,8.92c2.7,2.38,6.65,3.57,11.85,3.57c5.2,0,9.73-1.13,13.75-3.39
			c4.01-2.25,6.95-5.34,8.84-9.25c1.44-3.02,2.15-7.48,2.15-13.37v-4.91H1969.5z"/>
		<path class="st0" d="M2025.47,1852.61l13.22-2.08c0.74,5.3,2.81,9.37,6.2,12.18c3.4,2.82,8.13,4.23,14.23,4.23
			c6.1,0,10.69-1.25,13.67-3.75c2.97-2.5,4.46-5.43,4.46-8.81c0-3.02-1.32-5.4-3.93-7.14c-1.83-1.19-6.39-2.7-13.67-4.53
			c-9.8-2.48-16.61-4.62-20.39-6.43c-3.79-1.81-6.66-4.31-8.62-7.5c-1.96-3.19-2.94-6.73-2.94-10.59c0-3.51,0.8-6.77,2.41-9.77
			c1.61-3,3.8-5.49,6.58-7.47c2.08-1.53,4.92-2.84,8.51-3.9c3.59-1.06,7.44-1.6,11.55-1.6c6.19,0,11.63,0.89,16.31,2.68
			c4.68,1.79,8.13,4.2,10.36,7.24c2.23,3.04,3.76,7.13,4.61,12.23l-13.07,1.78c-0.59-4.06-2.31-7.23-5.17-9.52
			c-2.85-2.28-6.87-3.42-12.08-3.42c-6.14,0-10.52,1.02-13.15,3.04c-2.63,2.04-3.93,4.4-3.93,7.14c0,1.74,0.55,3.29,1.64,4.68
			c1.09,1.44,2.8,2.63,5.12,3.57c1.34,0.49,5.27,1.64,11.81,3.42c9.46,2.53,16.06,4.6,19.8,6.2c3.74,1.61,6.68,3.95,8.81,7.02
			c2.13,3.08,3.19,6.89,3.19,11.44s-1.3,8.66-3.9,12.59c-2.6,3.94-6.35,6.99-11.25,9.14c-4.91,2.15-10.45,3.24-16.64,3.24
			c-10.25,0-18.07-2.13-23.45-6.39c-5.38-4.25-8.81-10.58-10.29-18.94H2025.47z"/>
		<path class="st0" d="M2098.69,1906.55l-1.49-12.56c2.93,0.79,5.48,1.19,7.65,1.19c2.97,0,5.35-0.49,7.14-1.49
			c1.78-0.99,3.25-2.38,4.38-4.16c0.85-1.34,2.21-4.66,4.08-9.95c0.25-0.74,0.64-1.83,1.19-3.27l-29.94-79.05h14.41l16.42,45.69
			c2.13,5.8,4.04,11.88,5.72,18.28c1.53-6.14,3.36-12.13,5.5-17.98l16.87-45.99h13.37l-30.01,80.24c-3.23,8.67-5.72,14.64-7.5,17.91
			c-2.38,4.4-5.1,7.64-8.18,9.7c-3.08,2.06-6.74,3.09-10.99,3.09C2104.73,1908.19,2101.85,1907.65,2098.69,1906.55z"/>
		<path class="st0" d="M2167.76,1876.16v-78.9h11.96v11.07c2.48-3.87,5.76-6.98,9.88-9.32s8.8-3.53,14.04-3.53
			c5.84,0,10.64,1.21,14.38,3.64c3.74,2.43,6.38,5.82,7.91,10.18c6.24-9.22,14.37-13.82,24.37-13.82c7.82,0,13.84,2.16,18.06,6.5
			s6.31,11,6.31,20.03v54.17h-13.3v-49.71c0-5.35-0.44-9.2-1.3-11.55c-0.87-2.35-2.44-4.24-4.71-5.68
			c-2.28-1.44-4.95-2.15-8.03-2.15c-5.55,0-10.16,1.84-13.82,5.54s-5.5,9.6-5.5,17.72v45.84h-13.37v-51.26
			c0-5.95-1.09-10.4-3.27-13.37c-2.18-2.97-5.74-4.46-10.69-4.46c-3.76,0-7.24,0.99-10.44,2.97c-3.19,1.98-5.51,4.88-6.94,8.69
			s-2.15,9.31-2.15,16.49v40.93h-13.37V1876.16z"/>
		<path class="st0" d="M2286.9,1906.4v-109.14h12.18v10.25c2.87-4.01,6.12-7.02,9.73-9.02c3.61-2,7.99-3.01,13.15-3.01
			c6.74,0,12.68,1.74,17.83,5.2c5.15,3.47,9.03,8.36,11.67,14.67c2.63,6.31,3.93,13.23,3.93,20.77c0,8.08-1.45,15.34-4.35,21.81
			c-2.89,6.46-7.1,11.41-12.63,14.86c-5.52,3.44-11.33,5.16-17.42,5.16c-4.46,0-8.45-0.94-12-2.82c-3.55-1.88-6.45-4.25-8.73-7.14
			v38.42h-13.37L2286.9,1906.4z M2299.01,1837.16c0,10.16,2.06,17.66,6.16,22.51c4.11,4.85,9.09,7.28,14.94,7.28
			c5.85,0,11.04-2.52,15.27-7.54c4.23-5.03,6.35-12.82,6.35-23.37c0-10.55-2.07-17.58-6.2-22.59s-9.08-7.5-14.82-7.5
			c-5.74,0-10.74,2.67-15.12,7.98c-4.38,5.31-6.58,13.06-6.58,23.22V1837.16z"/>
		<path class="st0" d="M2363.92,1876.16v-108.92h13.37v39.08c6.24-7.23,14.11-10.84,23.63-10.84c5.84,0,10.92,1.15,15.23,3.45
			c4.31,2.3,7.39,5.49,9.25,9.55s2.79,9.95,2.79,17.68v50h-13.37v-50c0-6.69-1.45-11.55-4.35-14.59c-2.89-3.04-7-4.56-12.3-4.56
			c-3.96,0-7.69,1.03-11.18,3.09c-3.48,2.06-5.98,4.84-7.47,8.36c-1.49,3.51-2.23,8.37-2.23,14.56v43.16h-13.37H2363.92z"/>
		<path class="st0" d="M2435.96,1836.72c0-14.62,4.06-25.44,12.18-32.47c6.78-5.84,15.06-8.77,24.82-8.77
			c10.84,0,19.72,3.56,26.6,10.66c6.88,7.1,10.33,16.93,10.33,29.46c0,10.16-1.52,18.14-4.56,23.96
			c-3.04,5.82-7.48,10.34-13.3,13.56s-12.17,4.83-19.05,4.83c-11.05,0-19.97-3.54-26.79-10.63c-6.81-7.08-10.21-17.28-10.21-30.61
			L2435.96,1836.72z M2449.7,1836.72c0,10.1,2.21,17.67,6.61,22.7c4.4,5.03,9.95,7.54,16.64,7.54s12.16-2.53,16.57-7.58
			s6.61-12.75,6.61-23.1c0-9.76-2.22-17.14-6.65-22.18c-4.44-5.04-9.94-7.54-16.53-7.54s-12.24,2.5-16.64,7.5
			c-4.41,5-6.61,12.56-6.61,22.66H2449.7z"/>
		<path class="st0" d="M2517.95,1876.16v-78.9h12.03v11.22c5.8-8.67,14.17-13,25.12-13c4.76,0,9.13,0.86,13.12,2.56
			c3.99,1.7,6.98,3.95,8.96,6.72c1.98,2.78,3.36,6.06,4.16,9.88c0.49,2.48,0.74,6.82,0.74,13v48.52h-13.37v-47.99
			c0-5.44-0.53-9.53-1.56-12.23c-1.04-2.7-2.88-4.85-5.54-6.46c-2.66-1.61-5.75-2.41-9.32-2.41c-5.7,0-10.61,1.81-14.74,5.42
			c-4.14,3.62-6.2,10.48-6.2,20.58v43.09L2517.95,1876.16L2517.95,1876.16z"/>
		<path class="st0" d="M2594.37,1906.55l-1.49-12.56c2.93,0.79,5.48,1.19,7.65,1.19c2.97,0,5.35-0.49,7.14-1.49
			c1.78-0.99,3.25-2.38,4.38-4.16c0.85-1.34,2.21-4.66,4.08-9.95c0.25-0.74,0.64-1.83,1.19-3.27l-29.94-79.05h14.41l16.42,45.69
			c2.13,5.8,4.04,11.88,5.72,18.28c1.53-6.14,3.36-12.13,5.5-17.98l16.87-45.99h13.37l-30.01,80.24c-3.21,8.67-5.72,14.64-7.5,17.91
			c-2.38,4.4-5.1,7.64-8.18,9.7c-3.08,2.06-6.74,3.09-10.99,3.09C2600.42,1908.19,2597.55,1907.65,2594.37,1906.55L2594.37,1906.55z
			"/>
	</g>
	<g>
		<path class="st0" d="M1740.82,1988.88c0-14.62,4.06-25.44,12.18-32.47c6.78-5.84,15.06-8.77,24.82-8.77
			c10.84,0,19.72,3.56,26.6,10.66s10.33,16.93,10.33,29.46c0,10.16-1.52,18.14-4.56,23.96s-7.48,10.34-13.3,13.56
			c-5.82,3.21-12.17,4.83-19.05,4.83c-11.05,0-19.97-3.54-26.79-10.63c-6.82-7.08-10.21-17.28-10.21-30.61L1740.82,1988.88z
			 M1754.57,1988.88c0,10.1,2.21,17.67,6.61,22.7c4.4,5.03,9.95,7.54,16.64,7.54s12.16-2.53,16.57-7.58
			c4.4-5.05,6.61-12.75,6.61-23.1c0-9.76-2.22-17.14-6.65-22.18c-4.44-5.04-9.94-7.54-16.53-7.54c-6.59,0-12.24,2.5-16.64,7.5
			c-4.41,5-6.61,12.56-6.61,22.66H1754.57z"/>
		<path class="st0" d="M1826.01,2028.32v-68.5h-11.81v-10.4h11.81v-8.39c0-5.3,0.47-9.24,1.41-11.81c1.29-3.47,3.56-6.28,6.79-8.43
			c3.25-2.15,7.79-3.24,13.63-3.24c3.76,0,7.93,0.45,12.48,1.34l-2,11.67c-2.78-0.49-5.4-0.74-7.88-0.74c-4.06,0-6.93,0.87-8.62,2.6
			c-1.68,1.74-2.53,4.98-2.53,9.73v7.28h15.38v10.4h-15.38v68.5h-13.3V2028.32z"/>
		<path class="st0" d="M1943.63,1999.42l13.15,1.7c-1.44,9.07-5.11,16.16-11.04,21.29c-5.91,5.12-13.19,7.69-21.81,7.69
			c-10.8,0-19.48-3.53-26.04-10.59s-9.85-17.18-9.85-30.35c0-8.52,1.41-15.98,4.23-22.36c2.82-6.39,7.12-11.19,12.89-14.38
			c5.77-3.19,12.04-4.79,18.84-4.79c8.57,0,15.58,2.16,21.02,6.5c5.44,4.34,8.94,10.49,10.48,18.46l-13,2
			c-1.24-5.3-3.43-9.29-6.58-11.96c-3.15-2.67-6.94-4.01-11.4-4.01c-6.74,0-12.22,2.41-16.42,7.24c-4.21,4.83-6.31,12.47-6.31,22.92
			c0,10.45,2.03,18.3,6.1,23.1c4.06,4.8,9.37,7.21,15.9,7.21c5.25,0,9.63-1.61,13.15-4.83c3.51-3.21,5.74-8.18,6.69-14.86
			L1943.63,1999.42z"/>
		<path class="st0" d="M1960.47,2028.32v-78.9h12.03v11.96c3.08-5.59,5.9-9.29,8.51-11.07c2.6-1.78,5.46-2.68,8.58-2.68
			c4.51,0,9.09,1.44,13.75,4.31l-4.61,12.41c-3.27-1.93-6.54-2.89-9.8-2.89c-2.93,0-5.55,0.88-7.88,2.64
			c-2.33,1.76-3.99,4.2-4.98,7.32c-1.49,4.76-2.23,9.95-2.23,15.6v41.31H1960.47z"/>
		<path class="st0" d="M2057.69,2002.92l13.82,1.7c-2.19,8.08-6.22,14.34-12.11,18.79c-5.89,4.46-13.43,6.69-22.59,6.69
			c-11.54,0-20.69-3.56-27.45-10.66s-10.14-17.08-10.14-29.91s3.42-23.57,10.25-30.9c6.84-7.33,15.7-10.99,26.6-10.99
			c10.9,0,19.17,3.59,25.86,10.77c6.69,7.18,10.03,17.28,10.03,30.31c0,0.79-0.02,1.98-0.07,3.57h-58.84
			c0.49,8.67,2.95,15.3,7.35,19.91s9.9,6.91,16.49,6.91c4.91,0,9.09-1.29,12.56-3.87c3.46-2.57,6.22-6.69,8.25-12.33
			L2057.69,2002.92z M2013.78,1981.29h44.06c-0.59-6.63-2.28-11.62-5.05-14.94c-4.26-5.15-9.78-7.73-16.57-7.73
			c-6.14,0-11.3,2.06-15.49,6.16c-4.19,4.11-6.5,9.61-6.94,16.49L2013.78,1981.29z"/>
		<path class="st0" d="M2132.18,2018.59c-4.95,4.21-9.72,7.18-14.31,8.92c-4.59,1.74-9.49,2.6-14.74,2.6
			c-8.67,0-15.33-2.12-19.98-6.35c-4.65-4.23-6.99-9.64-6.99-16.23c0-3.87,0.88-7.39,2.64-10.59c1.76-3.19,4.06-5.75,6.91-7.69
			c2.85-1.93,6.05-3.4,9.62-4.38c2.63-0.7,6.59-1.36,11.88-2c10.8-1.29,18.75-2.82,23.85-4.61c0.05-1.83,0.07-3,0.07-3.49
			c0-5.44-1.26-9.29-3.79-11.52c-3.42-3.02-8.5-4.53-15.23-4.53c-6.29,0-10.93,1.1-13.93,3.3c-3,2.21-5.22,6.11-6.65,11.7
			l-13.07-1.78c1.19-5.59,3.15-10.12,5.87-13.56c2.72-3.44,6.66-6.1,11.81-7.95c5.15-1.85,11.12-2.79,17.91-2.79
			c6.78,0,12.21,0.79,16.42,2.38c4.21,1.59,7.31,3.58,9.29,5.98s3.36,5.43,4.16,9.1c0.45,2.28,0.66,6.39,0.66,12.33v17.83
			c0,12.43,0.29,20.3,0.86,23.58s1.69,6.45,3.38,9.47h-13.97c-1.38-2.78-2.28-6.02-2.68-9.73L2132.18,2018.59z M2131.07,1988.73
			c-4.85,1.98-12.14,3.66-21.84,5.05c-5.5,0.79-9.39,1.68-11.67,2.68c-2.28,0.99-4.04,2.44-5.27,4.35
			c-1.24,1.91-1.85,4.03-1.85,6.35c0,3.57,1.35,6.54,4.05,8.92c2.7,2.38,6.65,3.57,11.85,3.57c5.2,0,9.73-1.13,13.75-3.39
			c4.01-2.25,6.95-5.34,8.84-9.25c1.44-3.02,2.15-7.48,2.15-13.37v-4.91H2131.07z"/>
		<path class="st0" d="M2186.91,2016.37l1.93,11.81c-3.76,0.79-7.14,1.19-10.1,1.19c-4.85,0-8.62-0.77-11.29-2.3
			c-2.68-1.53-4.55-3.56-5.65-6.05c-1.09-2.5-1.64-7.77-1.64-15.78v-45.39h-9.8v-10.4h9.8v-19.54l13.3-8.03v27.56h13.45v10.4h-13.45
			v46.14c0,3.81,0.24,6.27,0.71,7.35c0.47,1.09,1.24,1.96,2.3,2.6c1.06,0.64,2.59,0.96,4.56,0.96c1.49,0,3.44-0.17,5.87-0.53
			L2186.91,2016.37z"/>
		<path class="st0" d="M2192.46,1934.79v-15.38h13.37v15.38H2192.46z M2192.46,2028.32v-78.9h13.37v78.9H2192.46z"/>
		<path class="st0" d="M2240.5,2028.32l-30.01-78.9h14.11l16.94,47.26c1.83,5.1,3.51,10.4,5.05,15.9c1.19-4.16,2.85-9.16,4.98-15.01
			l17.53-48.14h13.75l-29.86,78.9H2240.5z"/>
		<path class="st0" d="M2341.06,2002.92l13.82,1.7c-2.19,8.08-6.21,14.34-12.11,18.79c-5.89,4.46-13.43,6.69-22.59,6.69
			c-11.54,0-20.69-3.56-27.45-10.66s-10.14-17.08-10.14-29.91s3.42-23.57,10.25-30.9c6.84-7.33,15.7-10.99,26.6-10.99
			c10.9,0,19.17,3.59,25.86,10.77c6.69,7.18,10.03,17.28,10.03,30.31c0,0.79-0.02,1.98-0.08,3.57h-58.84
			c0.49,8.67,2.95,15.3,7.35,19.91s9.9,6.91,16.49,6.91c4.91,0,9.09-1.29,12.56-3.87c3.46-2.57,6.21-6.69,8.25-12.33
			L2341.06,2002.92z M2297.15,1981.29h44.06c-0.59-6.63-2.28-11.62-5.05-14.94c-4.26-5.15-9.78-7.73-16.57-7.73
			c-6.14,0-11.3,2.06-15.49,6.16c-4.19,4.11-6.5,9.61-6.94,16.49L2297.15,1981.29z"/>
		<path class="st0" d="M2402.89,2028.32V1919.4h14.41v108.92H2402.89z"/>
		<path class="st0" d="M2433.4,2028.32v-78.9h12.03v11.22c5.8-8.67,14.17-13,25.12-13c4.76,0,9.13,0.86,13.12,2.56
			c3.99,1.7,6.98,3.95,8.96,6.72c1.98,2.78,3.36,6.06,4.16,9.88c0.49,2.48,0.74,6.82,0.74,13v48.52h-13.37v-47.99
			c0-5.44-0.53-9.53-1.56-12.23s-2.88-4.85-5.54-6.46c-2.66-1.61-5.75-2.41-9.32-2.41c-5.7,0-10.61,1.81-14.74,5.42
			c-4.14,3.62-6.2,10.48-6.2,20.58v43.09L2433.4,2028.32L2433.4,2028.32z"/>
		<path class="st0" d="M2507.96,2034.87l13,1.93c0.55,4.01,2.06,6.93,4.53,8.77c3.32,2.48,7.85,3.72,13.6,3.72
			c6.19,0,10.97-1.24,14.34-3.72c3.36-2.48,5.65-5.95,6.84-10.4c0.7-2.72,1.02-8.44,0.96-17.17c-5.84,6.89-13.13,10.33-21.84,10.33
			c-10.84,0-19.24-3.91-25.18-11.74c-5.95-7.82-8.92-17.21-8.92-28.16c0-7.53,1.36-14.48,4.08-20.84
			c2.72-6.36,6.68-11.28,11.85-14.74c5.18-3.47,11.25-5.2,18.24-5.2c9.31,0,16.98,3.76,23.03,11.29v-9.52h12.33v68.2
			c0,12.28-1.25,20.99-3.75,26.11c-2.5,5.13-6.46,9.17-11.88,12.15s-12.1,4.46-20.03,4.46c-9.41,0-17.02-2.12-22.81-6.35
			c-5.8-4.23-8.59-10.61-8.39-19.13L2507.96,2034.87z M2519.03,1987.47c0,10.35,2.06,17.91,6.16,22.66s9.26,7.14,15.45,7.14
			c6.19,0,11.29-2.37,15.45-7.09s6.24-12.15,6.24-22.26c0-10.1-2.14-16.94-6.43-21.84c-4.29-4.91-9.45-7.35-15.49-7.35
			c-6.04,0-10.99,2.41-15.15,7.24c-4.16,4.83-6.24,12-6.24,21.51L2519.03,1987.47z"/>
		<path class="st0" d="M2641.45,2002.92l13.82,1.7c-2.19,8.08-6.22,14.34-12.11,18.79c-5.89,4.46-13.43,6.69-22.59,6.69
			c-11.54,0-20.69-3.56-27.45-10.66c-6.76-7.1-10.14-17.08-10.14-29.91s3.42-23.57,10.25-30.9c6.84-7.33,15.7-10.99,26.6-10.99
			c10.9,0,19.17,3.59,25.86,10.77c6.69,7.18,10.03,17.28,10.03,30.31c0,0.79-0.02,1.98-0.07,3.57h-58.84
			c0.49,8.67,2.95,15.3,7.35,19.91s9.9,6.91,16.49,6.91c4.91,0,9.09-1.29,12.56-3.87c3.46-2.57,6.21-6.69,8.25-12.33
			L2641.45,2002.92z M2597.53,1981.29h44.06c-0.59-6.63-2.28-11.62-5.05-14.94c-4.26-5.15-9.78-7.73-16.57-7.73
			c-6.14,0-11.3,2.06-15.49,6.16c-4.19,4.11-6.5,9.61-6.94,16.49L2597.53,1981.29z"/>
		<path class="st0" d="M2664.44,2028.32v-78.9h12.03v11.22c5.8-8.67,14.17-13,25.12-13c4.76,0,9.13,0.86,13.12,2.56
			c3.99,1.7,6.98,3.95,8.95,6.72c1.98,2.78,3.36,6.06,4.16,9.88c0.49,2.48,0.74,6.82,0.74,13v48.52h-13.37v-47.99
			c0-5.44-0.53-9.53-1.56-12.23s-2.88-4.85-5.54-6.46c-2.65-1.61-5.75-2.41-9.32-2.41c-5.7,0-10.61,1.81-14.74,5.42
			c-4.14,3.62-6.2,10.48-6.2,20.58v43.09h-13.37L2664.44,2028.32z"/>
		<path class="st0" d="M2793.17,2028.32v-11.59c-6.14,8.92-14.49,13.37-25.04,13.37c-4.66,0-9-0.89-13.04-2.68
			c-4.04-1.79-7.03-4.02-8.99-6.73c-1.96-2.7-3.33-6-4.13-9.92c-0.55-2.63-0.81-6.78-0.81-12.48v-48.88h13.37v43.76
			c0,6.99,0.27,11.69,0.81,14.11c0.85,3.51,2.63,6.28,5.35,8.28c2.72,2,6.1,3.01,10.1,3.01c4.01,0,7.78-1.03,11.29-3.09
			c3.51-2.06,6-4.85,7.47-8.39c1.46-3.54,2.19-8.68,2.19-15.42v-42.27h13.37v78.9h-11.96L2793.17,2028.32z"/>
		<path class="st0" d="M2818.55,1934.79v-15.38h13.37v15.38H2818.55z M2818.55,2028.32v-78.9h13.37v78.9H2818.55z"/>
		<path class="st0" d="M2873.88,2016.37l1.93,11.81c-3.76,0.79-7.14,1.19-10.1,1.19c-4.85,0-8.62-0.77-11.29-2.3
			c-2.68-1.53-4.55-3.56-5.65-6.05c-1.09-2.5-1.64-7.77-1.64-15.78v-45.39h-9.8v-10.4h9.8v-19.54l13.3-8.03v27.56h13.45v10.4h-13.45
			v46.14c0,3.81,0.24,6.27,0.71,7.35c0.47,1.09,1.23,1.96,2.3,2.6c1.06,0.64,2.59,0.96,4.56,0.96c1.49,0,3.44-0.17,5.87-0.53
			L2873.88,2016.37z"/>
		<path class="st0" d="M2878.75,2058.71l-1.49-12.56c2.93,0.79,5.48,1.19,7.65,1.19c2.97,0,5.35-0.49,7.14-1.49
			c1.78-0.99,3.25-2.38,4.38-4.16c0.85-1.34,2.21-4.66,4.08-9.95c0.25-0.74,0.64-1.83,1.19-3.27l-29.94-79.05h14.41l16.42,45.69
			c2.13,5.8,4.04,11.88,5.72,18.28c1.53-6.14,3.36-12.13,5.5-17.98l16.87-45.99h13.37l-30.01,80.24c-3.21,8.67-5.72,14.64-7.5,17.91
			c-2.38,4.4-5.1,7.64-8.18,9.7s-6.74,3.09-10.99,3.09C2884.8,2060.35,2881.92,2059.81,2878.75,2058.71L2878.75,2058.71z"/>
	</g>
</g>
<g id="uuid-d4f281ba-5593-42d0-a425-6644d9c8ebda">
	<path id="uuid-c45a67ac-94a3-4752-b86c-9a1b6b2d6718" class="st0" d="M2721.7,1863.05h-0.39l-0.32-30.89l-30.89-0.32v-0.39
		l30.89-0.32l0.32-30.89h0.39l0.32,30.89l30.89,0.32v0.39l-30.89,0.32L2721.7,1863.05z M2709.09,1831.64l12.29,0.13l0.13,12.29
		l0.13-12.29l12.29-0.13l-12.29-0.13l-0.13-12.29l-0.13,12.29L2709.09,1831.64z"/>
	<path id="uuid-9babc13e-46eb-4396-99ea-01c78b75dbab" class="st0" d="M2732.95,1843.38l-11.45-11.22l-11.45,11.22l-0.28-0.29
		l11.2-11.45l-11.2-11.45l0.28-0.28l11.45,11.22l11.45-11.22l0.28,0.28l-11.2,11.45l11.2,11.45L2732.95,1843.38z"/>
	<path id="uuid-4c8c5045-4718-45c9-ac6e-336b8f558f91" class="st0" d="M2689.42,1806.27h-0.39l-0.04-5.91l-3.81-0.06v-0.39
		l3.81-0.07l0.04-5.91h0.39l0.04,5.91l3.81,0.07v0.39l-3.81,0.06L2689.42,1806.27z"/>
	<path id="uuid-41f9af74-ea63-402c-90c1-c924be27596b" class="st0" d="M2753.97,1806.27h-0.39l-0.04-5.91l-3.82-0.06v-0.39
		l3.82-0.07l0.04-5.91h0.39l0.04,5.91l3.81,0.07v0.39l-3.81,0.06L2753.97,1806.27z"/>
	<path id="uuid-168f9f9d-e2cd-46f9-9186-0564b453e316" class="st0" d="M2689.42,1869.37h-0.39l-0.04-5.93l-3.81-0.06v-0.39
		l3.81-0.06l0.04-5.93h0.39l0.04,5.93l3.81,0.06v0.39l-3.81,0.06L2689.42,1869.37z"/>
	<path id="uuid-75965f62-71b5-44b0-88af-dbaf53fc9ee0" class="st0" d="M2753.97,1869.37h-0.39l-0.04-5.93l-3.82-0.06v-0.39
		l3.82-0.06l0.04-5.93h0.39l0.04,5.93l3.81,0.06v0.39l-3.81,0.06L2753.97,1869.37z"/>
</g>
<g id="uuid-dd705f2d-5d29-457e-ab15-6951430c3dc7">
	<path id="uuid-8baddc9d-3884-44f3-9da1-1c25630cea0f" class="st0" d="M1962.75,1547.44h-0.39l-0.32-30.89l-30.89-0.32v-0.39
		l30.89-0.32l0.32-30.89h0.39l0.32,30.89l30.89,0.32v0.39l-30.89,0.32L1962.75,1547.44z M1950.14,1516.03l12.29,0.13l0.13,12.29
		l0.13-12.29l12.29-0.13l-12.29-0.13l-0.13-12.29l-0.13,12.29L1950.14,1516.03L1950.14,1516.03z"/>
	<path id="uuid-181bd033-0593-445d-a98a-44ac14a151fc" class="st0" d="M1974,1527.77l-11.45-11.22l-11.45,11.22l-0.28-0.29
		l11.2-11.45l-11.2-11.45l0.28-0.28l11.45,11.22l11.45-11.22l0.28,0.28l-11.2,11.45l11.2,11.45L1974,1527.77z"/>
	<path id="uuid-58d00550-77db-4937-8a4f-1dcc03def182" class="st0" d="M1930.47,1490.66h-0.39l-0.04-5.91l-3.81-0.06v-0.39
		l3.81-0.07l0.04-5.91h0.39l0.04,5.91l3.81,0.07v0.39l-3.81,0.06L1930.47,1490.66z"/>
	<path id="uuid-2d214de0-5bb0-4d3a-a435-58b502a8f9a1" class="st0" d="M1995.02,1490.66h-0.39l-0.04-5.91l-3.82-0.06v-0.39
		l3.82-0.07l0.04-5.91h0.39l0.04,5.91l3.81,0.07v0.39l-3.81,0.06L1995.02,1490.66z"/>
	<path id="uuid-f2be83cd-e43f-4371-afcc-83ac1be751bb" class="st0" d="M1930.47,1553.76h-0.39l-0.04-5.93l-3.81-0.06v-0.39
		l3.81-0.06l0.04-5.93h0.39l0.04,5.93l3.81,0.06v0.39l-3.81,0.06L1930.47,1553.76z"/>
	<path id="uuid-bbc740c2-24ff-4874-92b9-cf187490c94b" class="st0" d="M1995.02,1553.76h-0.39l-0.04-5.93l-3.82-0.06v-0.39
		l3.82-0.06l0.04-5.93h0.39l0.04,5.93l3.81,0.06v0.39l-3.81,0.06L1995.02,1553.76z"/>
</g>
<path class="st1" d="M-1709.5,886"/>
<path class="st1" d="M-2700.17,1114.67"/>
<g>
	<g>
		<path class="st2" d="M2342.44,1342.25c-557.26-557.26-1253.67,139.14-696.41,696.41l696.41,696.41l696.41-696.41
			C3596.11,1481.39,2899.7,784.98,2342.44,1342.25z"/>
	</g>
	<g>
		<path class="st3" d="M2342.44,1276.13c-619.18-619.18-1392.97,154.6-773.79,773.79l773.79,773.79l773.79-773.79
			C3735.41,1430.74,2961.62,656.95,2342.44,1276.13z"/>
	</g>
	<g>
		<path class="st4" d="M2342.44,1202.67c-687.98-687.98-1547.74,171.78-859.76,859.76l859.76,859.76l859.76-859.76
			C3890.18,1374.45,3030.42,514.69,2342.44,1202.67z"/>
	</g>
	<g>
		<path class="st5" d="M2342.44,1121.05c-764.42-764.42-1719.72,190.87-955.29,955.29l955.29,955.29l955.29-955.29
			C4062.15,1311.92,3106.86,356.63,2342.44,1121.05z"/>
	</g>
	<g>
		<path class="st6" d="M2342.44,1030.36C1493.08,181,431.64,1242.44,1281,2091.79l1061.44,1061.44l1061.44-1061.44
			C4253.23,1242.44,3191.8,181,2342.44,1030.36z"/>
	</g>
	<g>
		<path class="st7" d="M2342.44,929.59C1398.7-14.14,219.33,1165.23,1163.06,2108.96l1179.37,1179.37l1179.37-1179.37
			C4465.54,1165.23,3286.17-14.14,2342.44,929.59z"/>
	</g>
	<g>
		<path class="st8" d="M2342.44,817.62C1293.85-230.97-16.57,1079.45,1032.02,2128.04l1310.42,1310.42l1310.42-1310.42
			C4701.44,1079.45,3391.03-230.97,2342.44,817.62z"/>
	</g>
	<g>
		<path class="st9" d="M2342.44,693.22C1177.34-471.88-278.68,984.14,886.42,2149.24l1456.02,1456.02l1456.02-1456.02
			C4963.56,984.14,3507.54-471.88,2342.44,693.22z"/>
	</g>
	<g>
		<path class="st10" d="M2342.44,554.99C1047.88-739.57-569.92,878.23,724.64,2172.79l1617.8,1617.8l1617.8-1617.8
			C5254.79,878.23,3636.99-739.57,2342.44,554.99z"/>
	</g>
</g>
</svg>
