<?xml version="1.0" encoding="utf-8"?>
<!-- Generator: Adobe Illustrator 28.0.0, SVG Export Plug-In . SVG Version: 6.00 Build 0)  -->
<svg version="1.1" id="uuid-8bd84877-36ef-4555-8af8-ce48331ba034"
	 xmlns="http://www.w3.org/2000/svg" xmlns:xlink="http://www.w3.org/1999/xlink" x="0px" y="0px" viewBox="0 0 3606.47 2153.18"
	 style="enable-background:new 0 0 3606.47 2153.18;" xml:space="preserve">
<style type="text/css">
	.st0{fill:#FFFFFF;}
	.st1{fill:none;stroke:#FFF3F3;stroke-width:8.9658;stroke-miterlimit:10;}
	.st2{fill:none;stroke:#FFF3F3;stroke-width:9.9621;stroke-miterlimit:10;}
	.st3{fill:none;stroke:#FFF3F3;stroke-width:11.0689;stroke-miterlimit:10;}
	.st4{fill:none;stroke:#FFF3F3;stroke-width:12.2988;stroke-miterlimit:10;}
	.st5{fill:none;stroke:#FFF3F3;stroke-width:13.6654;stroke-miterlimit:10;}
	.st6{fill:none;stroke:#FFF3F3;stroke-width:15.1837;stroke-miterlimit:10;}
	.st7{fill:none;stroke:#FFF3F3;stroke-width:16.8708;stroke-miterlimit:10;}
	.st8{fill:none;stroke:#FFF3F3;stroke-width:18.7454;stroke-miterlimit:10;}
	.st9{fill:none;stroke:#FFF3F3;stroke-width:20.8282;stroke-miterlimit:10;}
</style>
<g id="uuid-9e01a561-05ff-4cbe-b808-cb7440a44ebb">
	<g>
		<path class="st0" d="M1523.65,886.44V777.51h14.79l57.21,85.52v-85.52h13.82v108.92h-14.79l-57.21-85.6v85.6H1523.65z"/>
		<path class="st0" d="M1619.38,846.99c0-14.62,4.06-25.44,12.18-32.47c6.78-5.84,15.06-8.77,24.82-8.77
			c10.84,0,19.72,3.56,26.6,10.66c6.88,7.1,10.33,16.93,10.33,29.46c0,10.16-1.52,18.14-4.56,23.96
			c-3.04,5.82-7.48,10.34-13.3,13.56c-5.82,3.21-12.17,4.83-19.06,4.83c-11.05,0-19.97-3.54-26.79-10.63
			c-6.82-7.08-10.21-17.28-10.21-30.61V846.99z M1633.13,846.99c0,10.1,2.21,17.67,6.61,22.7c4.4,5.03,9.95,7.54,16.64,7.54
			s12.16-2.53,16.57-7.58c4.4-5.05,6.61-12.75,6.61-23.1c0-9.76-2.22-17.14-6.65-22.18c-4.44-5.03-9.94-7.54-16.53-7.54
			s-12.24,2.5-16.64,7.5c-4.4,5-6.61,12.56-6.61,22.66H1633.13z"/>
		<path class="st0" d="M1730.57,874.48l1.93,11.81c-3.76,0.79-7.14,1.19-10.1,1.19c-4.85,0-8.62-0.77-11.29-2.3
			c-2.68-1.53-4.55-3.56-5.65-6.05s-1.64-7.77-1.64-15.78v-45.39h-9.8v-10.4h9.8v-19.55l13.3-8.03v27.56h13.45v10.4h-13.45v46.14
			c0,3.81,0.24,6.27,0.71,7.35c0.47,1.09,1.24,1.96,2.3,2.6c1.06,0.64,2.59,0.96,4.56,0.96c1.49,0,3.44-0.17,5.87-0.53
			L1730.57,874.48z"/>
		<path class="st0" d="M1753.7,917.05l2.53-11.37c2.68,0.7,4.78,1.04,6.31,1.04c2.72,0,4.76-0.9,6.1-2.71s2-6.33,2-13.56v-82.92
			h13.37v83.22c0,9.71-1.26,16.47-3.79,20.28c-3.23,4.95-8.57,7.43-16.05,7.43c-3.61,0-7.1-0.47-10.48-1.41H1753.7z M1770.64,793.05
			v-15.53h13.37v15.53H1770.64z"/>
		<path class="st0" d="M1848.62,886.44v-11.59c-6.14,8.92-14.49,13.37-25.04,13.37c-4.66,0-9-0.89-13.04-2.68s-7.03-4.02-8.99-6.73
			c-1.96-2.7-3.33-6-4.13-9.92c-0.55-2.63-0.81-6.78-0.81-12.48v-48.88h13.37v43.76c0,6.99,0.27,11.69,0.81,14.11
			c0.85,3.51,2.63,6.28,5.35,8.28s6.1,3.01,10.1,3.01s7.78-1.03,11.29-3.09s6-4.85,7.47-8.39s2.2-8.68,2.2-15.42v-42.27h13.37v78.9
			h-11.96L1848.62,886.44z"/>
		<path class="st0" d="M1868.57,862.88l13.22-2.08c0.74,5.3,2.81,9.37,6.2,12.18c3.4,2.82,8.13,4.23,14.23,4.23
			c6.1,0,10.69-1.25,13.67-3.75c2.97-2.5,4.46-5.43,4.46-8.81c0-3.02-1.31-5.4-3.93-7.14c-1.83-1.19-6.39-2.7-13.67-4.53
			c-9.8-2.48-16.61-4.62-20.39-6.43c-3.79-1.81-6.67-4.31-8.62-7.5c-1.96-3.19-2.94-6.73-2.94-10.59c0-3.51,0.8-6.77,2.41-9.77
			c1.61-3,3.8-5.49,6.58-7.47c2.08-1.53,4.92-2.84,8.51-3.9c3.59-1.06,7.44-1.6,11.55-1.6c6.19,0,11.63,0.89,16.31,2.68
			c4.68,1.79,8.13,4.2,10.36,7.24c2.23,3.04,3.76,7.13,4.61,12.23l-13.07,1.78c-0.59-4.06-2.31-7.23-5.16-9.52
			c-2.85-2.28-6.87-3.42-12.08-3.42c-6.14,0-10.52,1.02-13.15,3.04c-2.63,2.04-3.93,4.4-3.93,7.14c0,1.74,0.55,3.29,1.64,4.68
			c1.09,1.44,2.8,2.63,5.12,3.57c1.34,0.49,5.27,1.64,11.81,3.42c9.46,2.53,16.06,4.6,19.8,6.2c3.74,1.61,6.68,3.95,8.81,7.02
			c2.13,3.08,3.19,6.89,3.19,11.44s-1.3,8.66-3.9,12.59c-2.6,3.94-6.35,6.99-11.25,9.14c-4.91,2.15-10.45,3.24-16.64,3.24
			c-10.25,0-18.07-2.13-23.45-6.39c-5.38-4.25-8.81-10.58-10.29-18.94L1868.57,862.88z"/>
		<path class="st0" d="M1971.6,874.48l1.93,11.81c-3.76,0.79-7.14,1.19-10.1,1.19c-4.85,0-8.62-0.77-11.29-2.3
			c-2.68-1.53-4.55-3.56-5.65-6.05s-1.64-7.77-1.64-15.78v-45.39h-9.8v-10.4h9.8v-19.55l13.3-8.03v27.56h13.45v10.4h-13.45v46.14
			c0,3.81,0.24,6.27,0.71,7.35c0.47,1.09,1.24,1.96,2.3,2.6c1.06,0.64,2.59,0.96,4.56,0.96c1.49,0,3.44-0.17,5.87-0.53
			L1971.6,874.48z"/>
	</g>
	<g>
		<path class="st0" d="M1296.23,1028.87c-4.95,4.21-9.72,7.18-14.31,8.92c-4.59,1.74-9.49,2.6-14.74,2.6
			c-8.67,0-15.33-2.12-19.98-6.35c-4.66-4.23-6.99-9.64-6.99-16.23c0-3.87,0.88-7.39,2.64-10.59s4.06-5.75,6.91-7.69
			c2.85-1.94,6.05-3.4,9.62-4.38c2.63-0.7,6.59-1.36,11.88-2c10.8-1.29,18.75-2.82,23.85-4.61c0.04-1.83,0.07-3,0.07-3.49
			c0-5.44-1.26-9.29-3.79-11.52c-3.42-3.02-8.5-4.53-15.23-4.53c-6.29,0-10.93,1.1-13.93,3.3c-3,2.21-5.22,6.11-6.65,11.7
			l-13.07-1.78c1.19-5.59,3.14-10.12,5.87-13.56c2.72-3.44,6.67-6.1,11.81-7.95c5.15-1.85,11.12-2.79,17.91-2.79
			c6.78,0,12.2,0.79,16.42,2.38c4.21,1.59,7.31,3.58,9.29,5.98c1.98,2.4,3.36,5.43,4.16,9.1c0.45,2.28,0.66,6.39,0.66,12.33v17.83
			c0,12.43,0.29,20.3,0.86,23.58c0.57,3.29,1.69,6.45,3.39,9.47h-13.97c-1.38-2.78-2.28-6.02-2.68-9.73L1296.23,1028.87z
			 M1295.12,999c-4.85,1.98-12.14,3.66-21.84,5.05c-5.5,0.79-9.39,1.68-11.67,2.68c-2.28,0.99-4.04,2.44-5.27,4.35
			c-1.24,1.91-1.85,4.03-1.85,6.35c0,3.57,1.35,6.54,4.05,8.92c2.7,2.38,6.65,3.57,11.85,3.57s9.73-1.13,13.75-3.39
			c4.01-2.25,6.95-5.34,8.84-9.25c1.44-3.02,2.15-7.48,2.15-13.37V999H1295.12z"/>
		<path class="st0" d="M1321.77,1038.6v-78.9h12.03v11.22c5.8-8.67,14.17-13,25.12-13c4.76,0,9.13,0.86,13.12,2.56
			c3.99,1.7,6.98,3.95,8.95,6.72c1.98,2.78,3.36,6.06,4.16,9.88c0.49,2.48,0.74,6.82,0.74,13v48.52h-13.37V990.6
			c0-5.44-0.53-9.53-1.56-12.23c-1.04-2.7-2.88-4.85-5.54-6.46c-2.65-1.61-5.75-2.41-9.32-2.41c-5.7,0-10.61,1.81-14.74,5.42
			c-4.14,3.62-6.2,10.48-6.2,20.58v43.09h-13.37H1321.77z"/>
		<path class="st0" d="M1398.18,1068.98l-1.49-12.56c2.93,0.79,5.48,1.19,7.65,1.19c2.97,0,5.35-0.49,7.14-1.49
			c1.78-0.99,3.25-2.38,4.38-4.16c0.85-1.34,2.21-4.66,4.08-9.95c0.25-0.74,0.64-1.83,1.19-3.27l-29.94-79.05h14.41l16.42,45.69
			c2.13,5.8,4.04,11.88,5.72,18.28c1.53-6.14,3.36-12.13,5.5-17.98l16.87-45.99h13.37l-30.01,80.24c-3.23,8.67-5.72,14.64-7.5,17.91
			c-2.38,4.4-5.1,7.64-8.18,9.7s-6.74,3.09-10.99,3.09C1404.22,1070.62,1401.34,1070.08,1398.18,1068.98L1398.18,1068.98z"/>
		<path class="st0" d="M1553.1,1038.6v-9.95c-5,7.82-12.35,11.74-22.06,11.74c-6.29,0-12.08-1.74-17.35-5.2
			c-5.27-3.46-9.37-8.3-12.26-14.52c-2.89-6.21-4.35-13.36-4.35-21.43c0-8.07,1.31-15.02,3.93-21.43
			c2.63-6.42,6.56-11.33,11.81-14.74c5.25-3.42,11.12-5.12,17.61-5.12c4.76,0,8.99,1.01,12.71,3.01s6.74,4.62,9.07,7.83V929.7h13.3
			v108.92h-12.41L1553.1,1038.6z M1510.83,999.22c0,10.1,2.13,17.66,6.39,22.66c4.26,5,9.29,7.5,15.09,7.5s10.81-2.39,14.89-7.17
			c4.08-4.78,6.13-12.08,6.13-21.88c0-10.8-2.08-18.72-6.24-23.78c-4.16-5.06-9.29-7.58-15.38-7.58c-6.09,0-10.91,2.43-14.89,7.28
			c-3.99,4.85-5.98,12.5-5.98,22.95L1510.83,999.22z"/>
		<path class="st0" d="M1632.94,1013.19l13.82,1.7c-2.19,8.08-6.21,14.34-12.11,18.79c-5.89,4.46-13.43,6.69-22.59,6.69
			c-11.54,0-20.69-3.56-27.45-10.66s-10.14-17.08-10.14-29.91s3.42-23.57,10.25-30.9c6.84-7.33,15.7-10.99,26.6-10.99
			c10.9,0,19.17,3.59,25.86,10.77c6.69,7.18,10.03,17.28,10.03,30.31c0,0.79-0.02,1.98-0.07,3.57h-58.84
			c0.49,8.67,2.95,15.3,7.35,19.91c4.4,4.61,9.9,6.91,16.49,6.91c4.91,0,9.09-1.29,12.56-3.87c3.46-2.57,6.21-6.69,8.25-12.33
			L1632.94,1013.19z M1589.03,991.57h44.06c-0.59-6.63-2.28-11.62-5.05-14.94c-4.26-5.15-9.78-7.73-16.57-7.73
			c-6.14,0-11.3,2.06-15.49,6.16c-4.19,4.11-6.5,9.61-6.94,16.49L1589.03,991.57z"/>
		<path class="st0" d="M1650.6,1015.04l13.22-2.08c0.74,5.3,2.81,9.37,6.2,12.18c3.4,2.82,8.13,4.23,14.23,4.23
			c6.1,0,10.69-1.25,13.67-3.75c2.97-2.5,4.46-5.43,4.46-8.81c0-3.02-1.31-5.4-3.93-7.14c-1.83-1.19-6.39-2.7-13.67-4.53
			c-9.8-2.48-16.61-4.62-20.39-6.43c-3.79-1.81-6.67-4.31-8.62-7.5c-1.96-3.19-2.94-6.73-2.94-10.59c0-3.51,0.8-6.77,2.41-9.77
			c1.61-3,3.8-5.49,6.58-7.47c2.08-1.53,4.92-2.84,8.51-3.9c3.59-1.06,7.44-1.6,11.55-1.6c6.19,0,11.63,0.89,16.31,2.68
			c4.68,1.79,8.13,4.2,10.36,7.24c2.23,3.04,3.76,7.13,4.61,12.23l-13.07,1.78c-0.59-4.06-2.31-7.23-5.16-9.52
			c-2.85-2.28-6.87-3.42-12.08-3.42c-6.14,0-10.52,1.02-13.15,3.04c-2.63,2.04-3.93,4.4-3.93,7.14c0,1.74,0.55,3.29,1.64,4.68
			c1.09,1.44,2.8,2.63,5.12,3.57c1.34,0.49,5.27,1.64,11.81,3.42c9.46,2.53,16.06,4.6,19.8,6.2c3.74,1.61,6.68,3.95,8.81,7.02
			c2.13,3.08,3.19,6.89,3.19,11.44s-1.3,8.66-3.9,12.59c-2.6,3.94-6.35,6.99-11.25,9.14c-4.91,2.15-10.45,3.24-16.64,3.24
			c-10.25,0-18.07-2.13-23.45-6.39c-5.38-4.25-8.81-10.58-10.29-18.94H1650.6z"/>
		<path class="st0" d="M1724.5,945.06v-15.38h13.37v15.38H1724.5z M1724.5,1038.6v-78.9h13.37v78.9H1724.5z"/>
		<path class="st0" d="M1748.17,1045.14l13,1.93c0.55,4.01,2.06,6.93,4.53,8.77c3.32,2.48,7.85,3.72,13.6,3.72
			c6.19,0,10.97-1.24,14.34-3.72c3.36-2.48,5.65-5.95,6.84-10.4c0.7-2.72,1.02-8.44,0.96-17.17c-5.85,6.89-13.13,10.33-21.84,10.33
			c-10.84,0-19.24-3.91-25.18-11.74c-5.95-7.82-8.92-17.21-8.92-28.16c0-7.53,1.36-14.48,4.08-20.84
			c2.72-6.36,6.68-11.28,11.85-14.74c5.18-3.47,11.25-5.2,18.24-5.2c9.31,0,16.98,3.76,23.03,11.29v-9.52h12.33v68.2
			c0,12.28-1.25,20.99-3.75,26.11c-2.5,5.13-6.46,9.17-11.88,12.15s-12.1,4.46-20.03,4.46c-9.41,0-17.02-2.12-22.81-6.35
			c-5.8-4.23-8.59-10.61-8.39-19.13V1045.14z M1759.24,997.74c0,10.35,2.06,17.91,6.16,22.66c4.11,4.76,9.26,7.14,15.45,7.14
			c6.19,0,11.29-2.37,15.45-7.09s6.24-12.15,6.24-22.26s-2.14-16.94-6.43-21.84c-4.29-4.9-9.45-7.35-15.49-7.35
			c-6.04,0-10.99,2.41-15.15,7.24c-4.16,4.83-6.24,12-6.24,21.51L1759.24,997.74z"/>
		<path class="st0" d="M1827.63,1038.6v-78.9h12.03v11.22c5.8-8.67,14.17-13,25.12-13c4.76,0,9.13,0.86,13.12,2.56
			c3.99,1.7,6.98,3.95,8.95,6.72c1.98,2.78,3.36,6.06,4.16,9.88c0.49,2.48,0.74,6.82,0.74,13v48.52h-13.37V990.6
			c0-5.44-0.53-9.53-1.56-12.23c-1.04-2.7-2.88-4.85-5.54-6.46c-2.65-1.61-5.75-2.41-9.32-2.41c-5.7,0-10.61,1.81-14.74,5.42
			c-4.14,3.62-6.2,10.48-6.2,20.58v43.09h-13.37H1827.63z"/>
		<path class="st0" d="M1933.96,1015.04l13.22-2.08c0.74,5.3,2.81,9.37,6.2,12.18c3.4,2.82,8.13,4.23,14.23,4.23
			s10.69-1.25,13.67-3.75c2.97-2.5,4.46-5.43,4.46-8.81c0-3.02-1.31-5.4-3.93-7.14c-1.83-1.19-6.39-2.7-13.67-4.53
			c-9.8-2.48-16.61-4.62-20.39-6.43c-3.79-1.81-6.66-4.31-8.62-7.5c-1.96-3.19-2.94-6.73-2.94-10.59c0-3.51,0.8-6.77,2.41-9.77
			c1.61-3,3.8-5.49,6.58-7.47c2.08-1.53,4.92-2.84,8.51-3.9c3.59-1.06,7.44-1.6,11.55-1.6c6.19,0,11.63,0.89,16.31,2.68
			c4.68,1.79,8.13,4.2,10.36,7.24c2.23,3.04,3.76,7.13,4.61,12.23l-13.07,1.78c-0.59-4.06-2.31-7.23-5.16-9.52
			c-2.85-2.28-6.87-3.42-12.08-3.42c-6.14,0-10.52,1.02-13.15,3.04c-2.63,2.04-3.93,4.4-3.93,7.14c0,1.74,0.55,3.29,1.64,4.68
			c1.09,1.44,2.8,2.63,5.12,3.57c1.34,0.49,5.27,1.64,11.81,3.42c9.46,2.53,16.06,4.6,19.8,6.2c3.74,1.61,6.68,3.95,8.81,7.02
			c2.13,3.08,3.19,6.89,3.19,11.44s-1.3,8.66-3.9,12.59c-2.6,3.94-6.35,6.99-11.25,9.14c-4.91,2.15-10.45,3.24-16.64,3.24
			c-10.25,0-18.07-2.13-23.45-6.39c-5.38-4.25-8.81-10.58-10.29-18.94H1933.96z"/>
		<path class="st0" d="M2036.98,1026.64l1.93,11.81c-3.76,0.79-7.14,1.19-10.1,1.19c-4.85,0-8.62-0.77-11.29-2.3
			c-2.68-1.53-4.55-3.56-5.65-6.05s-1.64-7.77-1.64-15.78V970.1h-9.8v-10.4h9.8v-19.55l13.3-8.03v27.56h13.45v10.4h-13.45v46.14
			c0,3.81,0.24,6.27,0.71,7.35c0.47,1.09,1.24,1.96,2.3,2.6c1.06,0.64,2.59,0.96,4.56,0.96c1.49,0,3.44-0.17,5.87-0.53
			L2036.98,1026.64z"/>
		<path class="st0" d="M2094.17,1038.6V1027c-6.14,8.92-14.49,13.37-25.04,13.37c-4.66,0-9-0.89-13.04-2.68
			c-4.04-1.79-7.03-4.02-8.99-6.73c-1.96-2.7-3.33-6-4.13-9.92c-0.55-2.63-0.81-6.78-0.81-12.48v-48.88h13.37v43.76
			c0,6.99,0.27,11.69,0.81,14.11c0.85,3.51,2.63,6.28,5.35,8.28c2.72,2,6.1,3.01,10.1,3.01c4.01,0,7.78-1.03,11.29-3.09
			c3.51-2.06,6-4.85,7.47-8.39c1.47-3.54,2.2-8.68,2.2-15.42v-42.27h13.37v78.9h-11.96V1038.6z"/>
		<path class="st0" d="M2170.66,1038.6v-9.95c-5,7.82-12.35,11.74-22.06,11.74c-6.29,0-12.08-1.74-17.35-5.2
			c-5.27-3.46-9.37-8.3-12.26-14.52c-2.89-6.21-4.35-13.36-4.35-21.43c0-8.07,1.31-15.02,3.93-21.43
			c2.63-6.42,6.56-11.33,11.81-14.74c5.25-3.42,11.12-5.12,17.61-5.12c4.76,0,8.99,1.01,12.71,3.01s6.74,4.62,9.07,7.83V929.7h13.3
			v108.92h-12.41L2170.66,1038.6z M2128.39,999.22c0,10.1,2.13,17.66,6.39,22.66c4.26,5,9.29,7.5,15.09,7.5
			c5.8,0,10.81-2.39,14.89-7.17c4.08-4.78,6.13-12.08,6.13-21.88c0-10.8-2.08-18.72-6.24-23.78c-4.16-5.06-9.29-7.58-15.38-7.58
			c-6.09,0-10.91,2.43-14.89,7.28c-3.99,4.85-5.98,12.5-5.98,22.95L2128.39,999.22z"/>
		<path class="st0" d="M2196.56,945.06v-15.38h13.37v15.38H2196.56z M2196.56,1038.6v-78.9h13.37v78.9H2196.56z"/>
		<path class="st0" d="M2217.71,999.15c0-14.62,4.06-25.44,12.18-32.47c6.78-5.84,15.06-8.77,24.82-8.77
			c10.84,0,19.72,3.56,26.6,10.66c6.89,7.1,10.33,16.93,10.33,29.46c0,10.16-1.52,18.14-4.58,23.96
			c-3.04,5.82-7.48,10.34-13.3,13.56c-5.82,3.21-12.17,4.83-19.06,4.83c-11.05,0-19.97-3.54-26.79-10.63
			c-6.81-7.08-10.21-17.28-10.21-30.61L2217.71,999.15z M2231.46,999.15c0,10.1,2.21,17.67,6.61,22.7s9.95,7.54,16.64,7.54
			s12.16-2.53,16.57-7.58s6.61-12.75,6.61-23.1c0-9.76-2.22-17.14-6.65-22.18c-4.44-5.04-9.94-7.54-16.53-7.54s-12.24,2.5-16.64,7.5
			s-6.61,12.56-6.61,22.66L2231.46,999.15z"/>
		<path class="st0" d="M2303.2,1038.6v-15.23h15.23v15.23c0,5.59-0.99,10.12-2.97,13.56c-1.98,3.44-5.12,6.11-9.44,7.98l-3.72-5.72
			c2.82-1.24,4.91-3.05,6.24-5.46c1.33-2.41,2.08-5.86,2.23-10.36h-7.58L2303.2,1038.6z M2303.2,974.92V959.7h15.23v15.23H2303.2z"
			/>
	</g>
	<g>
		<path class="st0" d="M1469.57,1181.03c-4.95,4.21-9.72,7.18-14.31,8.92c-4.59,1.74-9.49,2.6-14.74,2.6
			c-8.67,0-15.33-2.12-19.98-6.35c-4.66-4.23-6.99-9.64-6.99-16.23c0-3.87,0.88-7.39,2.64-10.59c1.76-3.19,4.06-5.75,6.91-7.69
			c2.85-1.94,6.05-3.4,9.62-4.38c2.63-0.7,6.59-1.36,11.88-2c10.8-1.29,18.75-2.82,23.85-4.61c0.04-1.83,0.08-3,0.08-3.49
			c0-5.44-1.26-9.29-3.79-11.52c-3.42-3.02-8.5-4.53-15.23-4.53c-6.29,0-10.93,1.1-13.93,3.3c-3,2.21-5.22,6.11-6.65,11.7
			l-13.07-1.78c1.19-5.59,3.14-10.12,5.87-13.56c2.72-3.44,6.67-6.1,11.81-7.95c5.15-1.85,11.12-2.79,17.91-2.79
			c6.78,0,12.2,0.79,16.42,2.38s7.31,3.58,9.29,5.98s3.36,5.43,4.16,9.1c0.45,2.28,0.66,6.39,0.66,12.33v17.83
			c0,12.43,0.29,20.3,0.86,23.58c0.57,3.29,1.69,6.45,3.39,9.47h-13.97c-1.38-2.78-2.28-6.02-2.68-9.73L1469.57,1181.03z
			 M1468.45,1151.16c-4.85,1.98-12.14,3.66-21.84,5.05c-5.5,0.79-9.39,1.68-11.67,2.68c-2.28,0.99-4.04,2.44-5.27,4.35
			c-1.24,1.91-1.85,4.03-1.85,6.35c0,3.57,1.35,6.54,4.05,8.92c2.7,2.38,6.65,3.57,11.85,3.57c5.2,0,9.73-1.13,13.75-3.39
			c4.01-2.25,6.95-5.34,8.84-9.25c1.44-3.02,2.15-7.48,2.15-13.37v-4.91H1468.45z"/>
		<path class="st0" d="M1524.42,1167.2l13.22-2.08c0.74,5.3,2.81,9.37,6.2,12.18c3.4,2.82,8.13,4.23,14.23,4.23
			c6.1,0,10.69-1.25,13.67-3.75c2.97-2.5,4.46-5.43,4.46-8.81c0-3.02-1.32-5.4-3.93-7.14c-1.83-1.19-6.39-2.7-13.67-4.53
			c-9.8-2.48-16.61-4.62-20.39-6.43c-3.79-1.81-6.67-4.31-8.62-7.5c-1.96-3.19-2.94-6.73-2.94-10.59c0-3.51,0.8-6.77,2.41-9.77
			c1.61-3,3.8-5.49,6.58-7.47c2.08-1.53,4.92-2.84,8.51-3.9c3.59-1.06,7.44-1.6,11.55-1.6c6.19,0,11.63,0.89,16.31,2.68
			c4.68,1.79,8.13,4.2,10.36,7.24c2.23,3.04,3.76,7.13,4.61,12.23l-13.07,1.78c-0.59-4.06-2.31-7.23-5.16-9.52
			c-2.85-2.28-6.87-3.42-12.08-3.42c-6.14,0-10.52,1.02-13.15,3.04c-2.63,2.04-3.93,4.4-3.93,7.14c0,1.74,0.55,3.29,1.64,4.68
			c1.09,1.44,2.8,2.63,5.12,3.57c1.34,0.49,5.27,1.64,11.81,3.42c9.46,2.53,16.06,4.6,19.8,6.2c3.74,1.61,6.68,3.95,8.81,7.02
			c2.13,3.08,3.19,6.89,3.19,11.44s-1.3,8.66-3.9,12.59c-2.6,3.94-6.35,6.99-11.25,9.14c-4.91,2.15-10.45,3.24-16.64,3.24
			c-10.25,0-18.07-2.13-23.45-6.39c-5.38-4.25-8.81-10.58-10.29-18.94L1524.42,1167.2z"/>
		<path class="st0" d="M1597.64,1221.14l-1.49-12.56c2.93,0.79,5.48,1.19,7.65,1.19c2.97,0,5.35-0.49,7.14-1.49
			c1.78-0.99,3.25-2.38,4.38-4.16c0.85-1.34,2.21-4.66,4.08-9.95c0.25-0.74,0.64-1.83,1.19-3.27l-29.94-79.05h14.41l16.42,45.69
			c2.13,5.8,4.04,11.88,5.72,18.28c1.53-6.14,3.36-12.13,5.5-17.98l16.87-45.99h13.37l-30.01,80.24c-3.23,8.67-5.72,14.64-7.5,17.91
			c-2.38,4.4-5.1,7.64-8.18,9.7s-6.74,3.09-10.99,3.09C1603.68,1222.78,1600.8,1222.24,1597.64,1221.14z"/>
		<path class="st0" d="M1666.71,1190.76v-78.9h11.96v11.07c2.48-3.87,5.76-6.98,9.88-9.32s8.8-3.53,14.04-3.53
			c5.84,0,10.64,1.21,14.38,3.64c3.74,2.43,6.38,5.82,7.91,10.18c6.24-9.22,14.37-13.82,24.37-13.82c7.82,0,13.84,2.16,18.06,6.5
			c4.21,4.34,6.31,11,6.31,20.03v54.17h-13.3v-49.71c0-5.35-0.44-9.2-1.3-11.55c-0.87-2.35-2.44-4.24-4.71-5.68
			c-2.28-1.44-4.95-2.15-8.03-2.15c-5.55,0-10.16,1.84-13.82,5.54c-3.66,3.7-5.5,9.6-5.5,17.72v45.84h-13.37v-51.26
			c0-5.95-1.09-10.4-3.27-13.37s-5.74-4.46-10.69-4.46c-3.76,0-7.24,0.99-10.44,2.97c-3.19,1.98-5.51,4.88-6.94,8.69
			c-1.44,3.81-2.15,9.31-2.15,16.49v40.93h-13.37V1190.76z"/>
		<path class="st0" d="M1785.85,1220.99v-109.14h12.18v10.25c2.87-4.01,6.12-7.02,9.73-9.02s7.99-3.01,13.15-3.01
			c6.74,0,12.68,1.74,17.83,5.2c5.15,3.47,9.03,8.36,11.67,14.67c2.63,6.31,3.93,13.23,3.93,20.77c0,8.08-1.45,15.34-4.35,21.81
			c-2.89,6.46-7.1,11.41-12.63,14.86c-5.52,3.44-11.33,5.16-17.42,5.16c-4.46,0-8.45-0.94-12-2.82c-3.55-1.88-6.45-4.25-8.73-7.14
			v38.41h-13.37L1785.85,1220.99z M1797.96,1151.75c0,10.16,2.06,17.66,6.16,22.51c4.11,4.85,9.09,7.28,14.94,7.28
			s11.04-2.52,15.27-7.54c4.23-5.03,6.35-12.82,6.35-23.37s-2.07-17.58-6.2-22.59c-4.14-5-9.08-7.5-14.82-7.5
			s-10.74,2.67-15.12,7.98c-4.38,5.31-6.58,13.06-6.58,23.22V1151.75z"/>
		<path class="st0" d="M1862.87,1190.76v-108.92h13.37v39.08c6.24-7.23,14.11-10.84,23.63-10.84c5.84,0,10.92,1.15,15.23,3.45
			c4.31,2.3,7.39,5.49,9.25,9.55s2.79,9.95,2.79,17.68v50h-13.37v-50c0-6.69-1.45-11.55-4.35-14.59c-2.89-3.04-7-4.56-12.3-4.56
			c-3.96,0-7.69,1.03-11.18,3.09s-5.98,4.84-7.47,8.36c-1.49,3.51-2.23,8.37-2.23,14.56v43.16h-13.37H1862.87z"/>
		<path class="st0" d="M1934.91,1151.31c0-14.62,4.06-25.44,12.18-32.47c6.78-5.84,15.06-8.77,24.82-8.77
			c10.84,0,19.72,3.56,26.6,10.66c6.88,7.1,10.33,16.93,10.33,29.46c0,10.16-1.52,18.14-4.56,23.96
			c-3.04,5.82-7.48,10.34-13.3,13.56c-5.82,3.21-12.17,4.83-19.05,4.83c-11.05,0-19.97-3.54-26.79-10.63
			c-6.81-7.08-10.21-17.28-10.21-30.61L1934.91,1151.31z M1948.65,1151.31c0,10.1,2.21,17.67,6.61,22.7
			c4.4,5.03,9.95,7.54,16.64,7.54c6.69,0,12.16-2.53,16.57-7.58c4.4-5.05,6.61-12.75,6.61-23.1c0-9.76-2.22-17.14-6.65-22.18
			c-4.44-5.04-9.94-7.54-16.53-7.54c-6.59,0-12.24,2.5-16.64,7.5c-4.41,5-6.61,12.56-6.61,22.66H1948.65z"/>
		<path class="st0" d="M2016.9,1190.76v-78.9h12.03v11.22c5.8-8.67,14.17-13,25.12-13c4.76,0,9.13,0.86,13.12,2.56
			c3.99,1.7,6.98,3.95,8.96,6.72c1.98,2.78,3.36,6.06,4.16,9.88c0.49,2.48,0.74,6.82,0.74,13v48.52h-13.37v-47.99
			c0-5.44-0.53-9.53-1.56-12.23c-1.04-2.7-2.88-4.85-5.54-6.46s-5.75-2.41-9.32-2.41c-5.7,0-10.61,1.81-14.74,5.42
			c-4.14,3.62-6.2,10.48-6.2,20.58v43.09L2016.9,1190.76L2016.9,1190.76z"/>
		<path class="st0" d="M2093.32,1221.14l-1.49-12.56c2.93,0.79,5.48,1.19,7.65,1.19c2.97,0,5.35-0.49,7.14-1.49
			c1.78-0.99,3.25-2.38,4.38-4.16c0.85-1.34,2.21-4.66,4.08-9.95c0.25-0.74,0.64-1.83,1.19-3.27l-29.94-79.05h14.41l16.42,45.69
			c2.13,5.8,4.04,11.88,5.72,18.28c1.53-6.14,3.36-12.13,5.5-17.98l16.87-45.99h13.37l-30.01,80.24c-3.21,8.67-5.72,14.64-7.5,17.91
			c-2.38,4.4-5.1,7.64-8.18,9.7c-3.08,2.06-6.74,3.09-10.99,3.09C2099.37,1222.78,2096.5,1222.24,2093.32,1221.14L2093.32,1221.14z"
			/>
	</g>
	<g>
		<path class="st0" d="M1239.77,1303.47c0-14.62,4.06-25.44,12.18-32.47c6.78-5.84,15.06-8.77,24.82-8.77
			c10.84,0,19.72,3.56,26.6,10.66c6.88,7.1,10.33,16.93,10.33,29.46c0,10.16-1.52,18.14-4.56,23.96
			c-3.04,5.82-7.48,10.34-13.3,13.56c-5.82,3.21-12.17,4.83-19.05,4.83c-11.05,0-19.97-3.54-26.79-10.63
			c-6.81-7.08-10.21-17.28-10.21-30.61L1239.77,1303.47z M1253.52,1303.47c0,10.1,2.21,17.67,6.61,22.7s9.95,7.54,16.64,7.54
			c6.69,0,12.16-2.53,16.57-7.58s6.61-12.75,6.61-23.1c0-9.76-2.22-17.14-6.65-22.18s-9.94-7.54-16.53-7.54
			c-6.59,0-12.24,2.5-16.64,7.5c-4.41,5-6.61,12.56-6.61,22.66H1253.52z"/>
		<path class="st0" d="M1324.96,1342.92v-68.5h-11.81v-10.4h11.81v-8.39c0-5.3,0.47-9.24,1.41-11.81c1.29-3.47,3.56-6.28,6.79-8.43
			c3.25-2.15,7.79-3.24,13.63-3.24c3.76,0,7.93,0.45,12.48,1.34l-2,11.67c-2.78-0.49-5.4-0.74-7.88-0.74c-4.06,0-6.93,0.87-8.62,2.6
			c-1.68,1.74-2.53,4.98-2.53,9.73v7.28h15.38v10.4h-15.38v68.5h-13.3L1324.96,1342.92z"/>
		<path class="st0" d="M1442.58,1314.02l13.15,1.7c-1.44,9.07-5.11,16.16-11.04,21.29c-5.92,5.12-13.19,7.69-21.81,7.69
			c-10.8,0-19.48-3.53-26.04-10.59s-9.85-17.18-9.85-30.35c0-8.52,1.41-15.98,4.23-22.36c2.82-6.39,7.12-11.19,12.89-14.38
			c5.76-3.19,12.04-4.79,18.84-4.79c8.57,0,15.58,2.16,21.02,6.5c5.44,4.34,8.94,10.49,10.48,18.46l-13,2
			c-1.24-5.3-3.43-9.29-6.58-11.96c-3.15-2.67-6.94-4.01-11.4-4.01c-6.74,0-12.22,2.41-16.42,7.24c-4.21,4.83-6.31,12.47-6.31,22.92
			s2.03,18.3,6.1,23.1c4.06,4.8,9.37,7.21,15.9,7.21c5.25,0,9.63-1.61,13.15-4.83c3.51-3.21,5.74-8.18,6.69-14.86L1442.58,1314.02z"
			/>
		<path class="st0" d="M1459.42,1342.92v-78.9h12.03v11.96c3.08-5.59,5.9-9.29,8.51-11.07s5.46-2.68,8.58-2.68
			c4.51,0,9.09,1.44,13.75,4.31l-4.61,12.41c-3.27-1.93-6.54-2.89-9.8-2.89c-2.93,0-5.55,0.88-7.88,2.64
			c-2.33,1.76-3.99,4.2-4.98,7.32c-1.49,4.76-2.23,9.95-2.23,15.6v41.31H1459.42z"/>
		<path class="st0" d="M1556.64,1317.51l13.82,1.7c-2.19,8.08-6.21,14.34-12.11,18.79c-5.89,4.46-13.43,6.69-22.59,6.69
			c-11.54,0-20.69-3.56-27.45-10.66c-6.76-7.1-10.14-17.08-10.14-29.91s3.42-23.57,10.25-30.9c6.84-7.33,15.7-10.99,26.6-10.99
			s19.17,3.59,25.86,10.77c6.69,7.18,10.03,17.28,10.03,30.31c0,0.79-0.02,1.98-0.08,3.57H1512c0.49,8.67,2.95,15.3,7.35,19.91
			s9.9,6.91,16.49,6.91c4.91,0,9.09-1.29,12.56-3.87c3.46-2.57,6.21-6.69,8.25-12.33L1556.64,1317.51z M1512.73,1295.88h44.06
			c-0.59-6.63-2.28-11.62-5.05-14.94c-4.26-5.15-9.78-7.73-16.57-7.73c-6.14,0-11.3,2.06-15.49,6.16c-4.19,4.11-6.5,9.61-6.94,16.49
			L1512.73,1295.88z"/>
		<path class="st0" d="M1631.13,1333.19c-4.95,4.21-9.72,7.18-14.31,8.92c-4.59,1.74-9.49,2.6-14.74,2.6
			c-8.67,0-15.33-2.12-19.98-6.35s-6.99-9.64-6.99-16.23c0-3.87,0.88-7.39,2.64-10.59c1.76-3.19,4.06-5.75,6.91-7.69
			c2.85-1.93,6.05-3.4,9.62-4.38c2.63-0.7,6.59-1.36,11.88-2c10.8-1.29,18.75-2.82,23.85-4.61c0.05-1.83,0.07-3,0.07-3.49
			c0-5.44-1.26-9.29-3.79-11.52c-3.42-3.02-8.5-4.53-15.23-4.53c-6.29,0-10.93,1.1-13.93,3.3c-3,2.21-5.22,6.11-6.65,11.7
			l-13.07-1.78c1.19-5.59,3.15-10.12,5.87-13.56c2.72-3.44,6.66-6.1,11.81-7.95c5.15-1.85,11.12-2.79,17.91-2.79
			c6.78,0,12.2,0.79,16.42,2.38s7.31,3.58,9.29,5.98s3.36,5.43,4.16,9.1c0.45,2.28,0.66,6.39,0.66,12.33v17.83
			c0,12.43,0.29,20.3,0.86,23.58c0.57,3.29,1.69,6.45,3.38,9.47h-13.97c-1.38-2.78-2.28-6.02-2.68-9.73L1631.13,1333.19z
			 M1630.02,1303.32c-4.85,1.98-12.14,3.66-21.84,5.05c-5.5,0.79-9.39,1.68-11.67,2.68c-2.28,0.99-4.04,2.44-5.27,4.35
			c-1.24,1.91-1.85,4.03-1.85,6.35c0,3.57,1.35,6.54,4.05,8.92c2.7,2.38,6.65,3.57,11.85,3.57c5.2,0,9.73-1.12,13.75-3.39
			c4.01-2.25,6.95-5.34,8.84-9.25c1.44-3.02,2.15-7.48,2.15-13.37v-4.91L1630.02,1303.32z"/>
		<path class="st0" d="M1685.86,1330.96l1.93,11.81c-3.76,0.79-7.14,1.19-10.1,1.19c-4.85,0-8.62-0.77-11.29-2.3
			s-4.55-3.56-5.65-6.05s-1.64-7.77-1.64-15.78v-45.39h-9.8v-10.4h9.8v-19.55l13.3-8.03v27.56h13.45v10.4h-13.45v46.14
			c0,3.81,0.24,6.27,0.71,7.35c0.47,1.09,1.24,1.96,2.3,2.6c1.06,0.64,2.59,0.96,4.56,0.96c1.49,0,3.44-0.17,5.87-0.53
			L1685.86,1330.96z"/>
		<path class="st0" d="M1691.41,1249.38V1234h13.37v15.38H1691.41z M1691.41,1342.92v-78.9h13.37v78.9H1691.41z"/>
		<path class="st0" d="M1739.45,1342.92l-30.01-78.9h14.11l16.94,47.26c1.83,5.1,3.51,10.4,5.05,15.9
			c1.19-4.16,2.85-9.16,4.98-15.01l17.53-48.14h13.75l-29.86,78.9H1739.45z"/>
		<path class="st0" d="M1840.01,1317.51l13.82,1.7c-2.19,8.08-6.21,14.34-12.11,18.79c-5.89,4.46-13.43,6.69-22.59,6.69
			c-11.54,0-20.69-3.56-27.45-10.66s-10.14-17.08-10.14-29.91s3.42-23.57,10.25-30.9c6.84-7.33,15.7-10.99,26.6-10.99
			c10.9,0,19.17,3.59,25.86,10.77c6.69,7.18,10.03,17.28,10.03,30.31c0,0.79-0.02,1.98-0.08,3.57h-58.84
			c0.49,8.67,2.95,15.3,7.35,19.91s9.9,6.91,16.49,6.91c4.91,0,9.09-1.29,12.56-3.87c3.46-2.57,6.21-6.69,8.25-12.33
			L1840.01,1317.51z M1796.1,1295.88h44.06c-0.59-6.63-2.28-11.62-5.05-14.94c-4.26-5.15-9.78-7.73-16.57-7.73
			c-6.14,0-11.3,2.06-15.49,6.16c-4.19,4.11-6.5,9.61-6.94,16.49L1796.1,1295.88z"/>
		<path class="st0" d="M1901.84,1342.92v-108.92h14.41v108.92H1901.84z"/>
		<path class="st0" d="M1932.35,1342.92v-78.9h12.03v11.22c5.8-8.67,14.17-13,25.12-13c4.76,0,9.13,0.86,13.12,2.56
			c3.99,1.7,6.98,3.95,8.96,6.72c1.98,2.78,3.36,6.06,4.16,9.88c0.49,2.48,0.74,6.82,0.74,13v48.52h-13.37v-47.99
			c0-5.44-0.53-9.53-1.56-12.23c-1.04-2.7-2.88-4.85-5.54-6.46c-2.66-1.61-5.75-2.41-9.32-2.41c-5.7,0-10.61,1.81-14.74,5.42
			c-4.14,3.62-6.2,10.48-6.2,20.58v43.09L1932.35,1342.92L1932.35,1342.92z"/>
		<path class="st0" d="M2006.91,1349.46l13,1.93c0.55,4.01,2.06,6.93,4.53,8.77c3.32,2.48,7.85,3.72,13.6,3.72
			c6.19,0,10.97-1.24,14.34-3.72c3.36-2.48,5.65-5.95,6.84-10.4c0.7-2.72,1.02-8.44,0.96-17.17c-5.84,6.89-13.13,10.33-21.84,10.33
			c-10.84,0-19.24-3.91-25.18-11.74c-5.95-7.82-8.92-17.21-8.92-28.16c0-7.53,1.36-14.48,4.08-20.84
			c2.72-6.36,6.68-11.28,11.85-14.74c5.18-3.47,11.25-5.2,18.24-5.2c9.31,0,16.98,3.76,23.03,11.29v-9.52h12.33v68.2
			c0,12.28-1.25,20.99-3.75,26.11c-2.5,5.13-6.46,9.17-11.88,12.15c-5.42,2.98-12.1,4.46-20.03,4.46c-9.41,0-17.02-2.12-22.81-6.35
			c-5.8-4.23-8.59-10.61-8.39-19.13L2006.91,1349.46z M2017.98,1302.06c0,10.35,2.06,17.91,6.16,22.66s9.26,7.14,15.45,7.14
			c6.19,0,11.29-2.37,15.45-7.09c4.16-4.73,6.24-12.15,6.24-22.26s-2.14-16.94-6.43-21.84c-4.29-4.91-9.45-7.35-15.49-7.35
			c-6.04,0-10.99,2.41-15.15,7.24c-4.16,4.83-6.24,12-6.24,21.51L2017.98,1302.06z"/>
		<path class="st0" d="M2140.4,1317.51l13.82,1.7c-2.19,8.08-6.21,14.34-12.11,18.79s-13.43,6.69-22.59,6.69
			c-11.54,0-20.69-3.56-27.45-10.66s-10.14-17.08-10.14-29.91s3.42-23.57,10.25-30.9c6.84-7.33,15.7-10.99,26.6-10.99
			c10.9,0,19.17,3.59,25.86,10.77c6.69,7.18,10.03,17.28,10.03,30.31c0,0.79-0.02,1.98-0.07,3.57h-58.84
			c0.49,8.67,2.95,15.3,7.35,19.91s9.9,6.91,16.49,6.91c4.91,0,9.09-1.29,12.56-3.87c3.46-2.57,6.22-6.69,8.25-12.33L2140.4,1317.51
			z M2096.49,1295.88h44.06c-0.59-6.63-2.28-11.62-5.05-14.94c-4.26-5.15-9.78-7.73-16.57-7.73c-6.14,0-11.3,2.06-15.49,6.16
			c-4.19,4.11-6.5,9.61-6.94,16.49L2096.49,1295.88z"/>
		<path class="st0" d="M2163.39,1342.92v-78.9h12.03v11.22c5.8-8.67,14.17-13,25.12-13c4.76,0,9.13,0.86,13.12,2.56
			s6.98,3.95,8.95,6.72c1.98,2.78,3.36,6.06,4.16,9.88c0.49,2.48,0.74,6.82,0.74,13v48.52h-13.37v-47.99
			c0-5.44-0.53-9.53-1.56-12.23s-2.88-4.85-5.54-6.46c-2.65-1.61-5.75-2.41-9.32-2.41c-5.7,0-10.61,1.81-14.74,5.42
			c-4.14,3.62-6.2,10.48-6.2,20.58v43.09h-13.37L2163.39,1342.92z"/>
		<path class="st0" d="M2292.12,1342.92v-11.59c-6.14,8.92-14.49,13.37-25.04,13.37c-4.66,0-9-0.89-13.04-2.68s-7.03-4.02-8.99-6.73
			c-1.96-2.7-3.33-6-4.13-9.92c-0.55-2.63-0.81-6.78-0.81-12.48V1264h13.37v43.76c0,6.99,0.27,11.69,0.81,14.11
			c0.85,3.51,2.63,6.28,5.35,8.28c2.72,2,6.1,3.01,10.1,3.01c4.01,0,7.78-1.03,11.29-3.09c3.51-2.06,6-4.85,7.47-8.39
			c1.46-3.54,2.19-8.68,2.19-15.42V1264h13.37v78.9h-11.96L2292.12,1342.92z"/>
		<path class="st0" d="M2317.5,1249.38V1234h13.37v15.38H2317.5z M2317.5,1342.92v-78.9h13.37v78.9H2317.5z"/>
		<path class="st0" d="M2372.83,1330.96l1.93,11.81c-3.76,0.79-7.14,1.19-10.1,1.19c-4.85,0-8.62-0.77-11.29-2.3
			c-2.68-1.53-4.55-3.56-5.65-6.05s-1.64-7.77-1.64-15.78v-45.39h-9.8v-10.4h9.8v-19.55l13.3-8.03v27.56h13.45v10.4h-13.45v46.14
			c0,3.81,0.24,6.27,0.71,7.35c0.47,1.09,1.23,1.96,2.3,2.6c1.06,0.64,2.59,0.96,4.56,0.96c1.49,0,3.44-0.17,5.87-0.53
			L2372.83,1330.96z"/>
		<path class="st0" d="M2377.7,1373.3l-1.49-12.56c2.93,0.79,5.48,1.19,7.65,1.19c2.97,0,5.35-0.49,7.14-1.49
			c1.78-0.99,3.25-2.38,4.38-4.16c0.85-1.34,2.21-4.66,4.08-9.95c0.25-0.74,0.64-1.83,1.19-3.27l-29.94-79.05h14.41l16.42,45.69
			c2.13,5.8,4.04,11.88,5.72,18.28c1.53-6.14,3.36-12.13,5.5-17.98l16.87-45.99H2443l-30.01,80.24c-3.21,8.67-5.72,14.64-7.5,17.91
			c-2.38,4.4-5.1,7.64-8.18,9.7c-3.08,2.06-6.74,3.09-10.99,3.09C2383.75,1374.94,2380.87,1374.4,2377.7,1373.3L2377.7,1373.3z"/>
	</g>
</g>
<g id="uuid-d4f281ba-5593-42d0-a425-6644d9c8ebda">
	<path id="uuid-c45a67ac-94a3-4752-b86c-9a1b6b2d6718" class="st0" d="M2221,1177.64h-0.39l-0.32-30.89l-30.89-0.32v-0.39
		l30.89-0.32l0.32-30.89h0.39l0.32,30.89l30.89,0.32v0.39l-30.89,0.32L2221,1177.64z M2208.39,1146.23l12.29,0.13l0.13,12.29
		l0.13-12.29l12.29-0.13l-12.29-0.13l-0.13-12.29l-0.13,12.29L2208.39,1146.23z"/>
	<path id="uuid-9babc13e-46eb-4396-99ea-01c78b75dbab" class="st0" d="M2232.25,1157.97l-11.45-11.22l-11.45,11.22l-0.28-0.29
		l11.2-11.45l-11.2-11.45l0.28-0.28l11.45,11.22l11.45-11.22l0.28,0.28l-11.2,11.45l11.2,11.45L2232.25,1157.97z"/>
	<path id="uuid-4c8c5045-4718-45c9-ac6e-336b8f558f91" class="st0" d="M2188.72,1120.86h-0.39l-0.04-5.91l-3.81-0.06v-0.39
		l3.81-0.07l0.04-5.91h0.39l0.04,5.91l3.81,0.07v0.39l-3.81,0.06L2188.72,1120.86z"/>
	<path id="uuid-41f9af74-ea63-402c-90c1-c924be27596b" class="st0" d="M2253.27,1120.86h-0.39l-0.04-5.91l-3.82-0.06v-0.39
		l3.82-0.07l0.04-5.91h0.39l0.04,5.91l3.81,0.07v0.39l-3.81,0.06L2253.27,1120.86z"/>
	<path id="uuid-168f9f9d-e2cd-46f9-9186-0564b453e316" class="st0" d="M2188.72,1183.96h-0.39l-0.04-5.93l-3.81-0.06v-0.39
		l3.81-0.06l0.04-5.93h0.39l0.04,5.93l3.81,0.06v0.39l-3.81,0.06L2188.72,1183.96z"/>
	<path id="uuid-75965f62-71b5-44b0-88af-dbaf53fc9ee0" class="st0" d="M2253.27,1183.96h-0.39l-0.04-5.93l-3.82-0.06v-0.39
		l3.82-0.06l0.04-5.93h0.39l0.04,5.93l3.81,0.06v0.39l-3.81,0.06L2253.27,1183.96z"/>
</g>
<g id="uuid-dd705f2d-5d29-457e-ab15-6951430c3dc7">
	<path id="uuid-8baddc9d-3884-44f3-9da1-1c25630cea0f" class="st0" d="M1462.05,862.03h-0.39l-0.32-30.89l-30.89-0.32v-0.39
		l30.89-0.32l0.32-30.89h0.39l0.32,30.89l30.89,0.32v0.39l-30.89,0.32L1462.05,862.03z M1449.44,830.62l12.29,0.13l0.13,12.29
		l0.13-12.29l12.29-0.13l-12.29-0.13l-0.13-12.29l-0.13,12.29L1449.44,830.62L1449.44,830.62z"/>
	<path id="uuid-181bd033-0593-445d-a98a-44ac14a151fc" class="st0" d="M1473.3,842.36l-11.45-11.22l-11.45,11.22l-0.28-0.29
		l11.2-11.45l-11.2-11.45l0.28-0.28l11.45,11.22l11.45-11.22l0.28,0.28l-11.2,11.45l11.2,11.45L1473.3,842.36z"/>
	<path id="uuid-58d00550-77db-4937-8a4f-1dcc03def182" class="st0" d="M1429.77,805.25h-0.39l-0.04-5.91l-3.81-0.06v-0.39l3.81-0.07
		l0.04-5.91h0.39l0.04,5.91l3.81,0.07v0.39l-3.81,0.06L1429.77,805.25z"/>
	<path id="uuid-2d214de0-5bb0-4d3a-a435-58b502a8f9a1" class="st0" d="M1494.32,805.25h-0.39l-0.04-5.91l-3.82-0.06v-0.39l3.82-0.07
		l0.04-5.91h0.39l0.04,5.91l3.81,0.07v0.39l-3.81,0.06L1494.32,805.25z"/>
	<path id="uuid-f2be83cd-e43f-4371-afcc-83ac1be751bb" class="st0" d="M1429.77,868.35h-0.39l-0.04-5.93l-3.81-0.06v-0.39l3.81-0.06
		l0.04-5.93h0.39l0.04,5.93l3.81,0.06v0.39l-3.81,0.06L1429.77,868.35z"/>
	<path id="uuid-bbc740c2-24ff-4874-92b9-cf187490c94b" class="st0" d="M1494.32,868.35h-0.39l-0.04-5.93l-3.82-0.06v-0.39l3.82-0.06
		l0.04-5.93h0.39l0.04,5.93l3.81,0.06v0.39l-3.81,0.06L1494.32,868.35z"/>
</g>
<g>
	<g>
		<path class="st1" d="M1109.79,1001.04c-10.75-56.08,16.41-124.18,69.74-136.87c49.24-11.72,103.17,25.49,149.31,3.94
			c69.07-32.25,47.12-154.35,108.6-200.5c25.21-18.93,59.06-19.91,89.44-13.59c30.38,6.32,59.26,19.08,89.65,25.32
			c101.19,20.78,202.49-32.27,305.5-38.54c53.54-3.26,118.56,16.06,131.78,70.43c4.32,17.78,2.18,36.87,7.24,54.43
			c8.29,28.78,34.91,48.37,62.71,55.85c27.81,7.48,57.07,4.98,85.73,2.86c51.06-3.76,104.2-5.76,151.35,14.96
			c47.14,20.72,86.4,70.6,80.03,123.78c-5.71,47.68-45.61,88.62-40.06,136.29c4.02,34.56,31.18,60.9,59.08,79.77
			c27.9,18.87,59.07,34.3,80.02,61.29c43.12,55.56,25.05,145.08-26.05,192.92c-51.1,47.84-125,60.15-193.08,52.74
			s-133.13-32.06-199.46-49.65c-66.32-17.59-137.15-28.01-202.65-6.99c-51.55,16.55-103.37,52.36-154.89,35.97
			c-26.84-8.54-47.79-30.09-72.02-44.89c-51-31.17-114.67-30.99-172.32-17.14c-57.65,13.85-111.85,40.13-168.2,58.99
			c-56.35,18.87-117.5,30.22-174.34,13.37c-56.84-16.85-107.46-68.17-109.69-130.01c-1.01-28.11,8.08-56.53,25.08-78.37
			c26.55-34.11,69.5-50.98,92.93-87.98c25.67-40.52-26.74-75.99-46.43-107.62C1125.35,1050.19,1114.67,1026.48,1109.79,1001.04z"/>
	</g>
	<g>
		<path class="st2" d="M1031.36,994.02c-11.95-62.32,18.24-137.98,77.49-152.08c54.72-13.02,114.64,28.32,165.9,4.38
			c76.74-35.83,52.36-171.5,120.67-222.78c28.01-21.03,65.62-22.13,99.37-15.1c33.75,7.02,65.84,21.2,99.61,28.13
			c112.44,23.09,224.99-35.85,339.45-42.82c59.49-3.62,131.73,17.84,146.42,78.26c4.81,19.76,2.42,40.97,8.04,60.48
			c9.21,31.97,38.78,53.75,69.68,62.06c30.9,8.31,63.41,5.53,95.26,3.18c56.73-4.18,115.78-6.4,168.16,16.62
			c52.38,23.02,96,78.45,88.93,137.54c-6.34,52.98-50.68,98.46-44.51,151.43c4.47,38.39,34.65,67.67,65.65,88.64
			c31,20.97,65.64,38.11,88.91,68.1c47.91,61.73,27.83,161.2-28.95,214.35s-138.89,66.83-214.53,58.6
			c-75.64-8.24-147.93-35.62-221.62-55.17c-73.69-19.54-152.39-31.12-225.17-7.76c-57.28,18.38-114.85,58.17-172.1,39.96
			c-29.83-9.49-53.11-33.43-80.02-49.88c-56.67-34.63-127.41-34.43-191.46-19.04c-64.06,15.39-124.27,44.59-186.89,65.55
			c-62.61,20.96-130.56,33.58-193.72,14.85c-63.16-18.72-119.4-75.74-121.88-144.46c-1.13-31.24,8.98-62.81,27.86-87.07
			c29.5-37.9,77.22-56.65,103.26-97.75c28.52-45.02-29.71-84.43-51.59-119.57C1048.65,1048.62,1036.78,1022.28,1031.36,994.02z"/>
	</g>
	<g>
		<path class="st3" d="M944.22,986.21c-13.27-69.24,20.26-153.31,86.1-168.98c60.8-14.47,127.37,31.47,184.34,4.87
			c85.27-39.81,58.18-190.55,134.07-247.54c31.13-23.37,72.91-24.58,110.42-16.78s73.16,23.55,110.68,31.26
			c124.93,25.65,249.99-39.84,377.17-47.57c66.09-4.02,146.37,19.83,162.69,86.95c5.34,21.95,2.69,45.52,8.94,67.2
			c10.24,35.53,43.09,59.72,77.42,68.95c34.33,9.23,70.45,6.14,105.84,3.54c63.03-4.64,128.65-7.11,186.85,18.47
			c58.2,25.58,106.66,87.16,98.81,152.82c-7.05,58.86-56.31,109.4-49.46,168.25c4.97,42.66,38.49,75.18,72.94,98.48
			s72.93,42.34,98.79,75.66c53.24,68.59,30.93,179.11-32.16,238.17c-63.09,59.06-154.32,74.26-238.37,65.11
			c-84.04-9.15-164.36-39.58-246.24-61.3c-81.88-21.72-169.32-34.58-250.19-8.63c-63.65,20.43-127.62,64.64-191.22,44.4
			c-33.14-10.54-59.01-37.15-88.91-55.42c-62.96-38.48-141.56-38.26-212.74-21.16c-71.18,17.1-138.08,49.54-207.65,72.83
			c-69.57,23.29-145.06,37.31-215.24,16.5c-70.18-20.8-132.67-84.15-135.42-160.51c-1.25-34.71,9.97-69.79,30.96-96.75
			c32.77-42.11,85.8-62.94,114.73-108.61c31.69-50.03-33.01-93.81-57.32-132.86C963.43,1046.88,950.24,1017.61,944.22,986.21z"/>
	</g>
	<g>
		<path class="st4" d="M847.4,977.53c-14.75-76.93,22.52-170.34,95.67-187.75c67.55-16.08,141.52,34.96,204.82,5.41
			c94.75-44.24,64.64-211.73,148.97-275.04c34.59-25.97,81.01-27.32,122.68-18.65c41.67,8.67,81.29,26.17,122.98,34.73
			c138.81,28.5,277.77-44.26,419.07-52.86c73.44-4.47,162.63,22.03,180.77,96.61c5.93,24.39,2.99,50.57,9.93,74.67
			c11.37,39.47,47.88,66.36,86.03,76.62s78.28,6.82,117.6,3.93c70.04-5.16,142.94-7.9,207.61,20.52
			c64.67,28.42,118.52,96.85,109.78,169.8c-7.83,65.4-62.57,121.56-54.95,186.95c5.52,47.4,42.77,83.54,81.05,109.43
			s81.03,47.05,109.77,84.07c59.15,76.21,34.36,199.01-35.74,264.63s-171.47,82.51-264.85,72.34
			c-93.38-10.17-182.62-43.98-273.6-68.11c-90.98-24.13-188.13-38.42-277.98-9.58c-70.72,22.7-141.79,71.82-212.46,49.34
			c-36.82-11.72-65.56-41.27-98.79-61.58c-69.96-42.76-157.29-42.51-236.38-23.51c-79.08,19-153.43,55.05-230.73,80.93
			c-77.3,25.88-161.18,41.45-239.16,18.34s-147.41-93.5-150.47-178.35c-1.39-38.56,11.08-77.54,34.4-107.5
			c36.41-46.79,95.33-69.93,127.48-120.68c35.21-55.59-36.68-104.23-63.69-147.62C868.74,1044.95,854.09,1012.43,847.4,977.53z"/>
	</g>
	<g>
		<path class="st5" d="M739.82,967.89c-16.39-85.48,25.02-189.27,106.3-208.61c75.06-17.86,157.25,38.85,227.58,6.01
			c105.27-49.15,71.82-235.25,165.52-305.6c38.43-28.85,90.02-30.35,136.32-20.72c46.3,9.63,90.32,29.08,136.64,38.59
			c154.24,31.67,308.63-49.18,465.64-58.73c81.6-4.97,180.7,24.48,200.86,107.35c6.59,27.1,3.32,56.19,11.04,82.97
			c12.64,43.86,53.2,73.73,95.58,85.13c42.38,11.4,86.98,7.58,130.67,4.37c77.82-5.73,158.82-8.78,230.67,22.8
			c71.85,31.58,131.69,107.61,121.98,188.67c-8.7,72.67-69.52,135.07-61.06,207.72c6.13,52.67,47.52,92.82,90.05,121.59
			s90.04,52.28,121.96,93.41c65.73,84.68,38.18,221.12-39.71,294.03c-77.89,72.91-190.52,91.68-294.28,80.38
			c-103.76-11.3-202.92-48.87-304-75.68c-101.09-26.81-209.04-42.69-308.87-10.65c-78.58,25.22-157.55,79.8-236.07,54.82
			c-40.91-13.02-72.85-45.86-109.76-68.42c-77.73-47.51-174.77-47.23-262.64-26.12c-87.87,21.11-170.47,61.16-256.36,89.92
			c-85.89,28.75-179.09,46.06-265.73,20.38c-86.64-25.68-163.79-103.89-167.19-198.16c-1.54-42.85,12.31-86.16,38.22-119.44
			c40.46-51.99,105.93-77.7,141.65-134.09c39.12-61.76-40.75-115.82-70.77-164.02C763.53,1042.8,747.25,1006.66,739.82,967.89z"/>
	</g>
	<g>
		<path class="st6" d="M620.28,957.18c-18.21-94.98,27.8-210.3,118.11-231.79c83.4-19.85,174.72,43.16,252.86,6.68
			c116.97-54.62,79.8-261.39,183.91-339.55c42.7-32.06,100.02-33.72,151.46-23.02c51.44,10.7,100.36,32.31,151.83,42.88
			c171.37,35.19,342.92-54.64,517.38-65.26c90.66-5.52,200.78,27.2,223.17,119.27c7.32,30.11,3.69,62.44,12.26,92.18
			c14.04,48.73,59.11,81.92,106.2,94.59c47.09,12.67,96.65,8.43,145.18,4.85c86.46-6.37,176.47-9.75,256.3,25.34
			c79.83,35.09,146.32,119.57,135.54,209.63c-9.67,80.75-77.24,150.07-67.84,230.8c6.82,58.52,52.8,103.13,100.06,135.1
			c47.25,31.96,100.04,58.08,135.52,103.79c73.03,94.09,42.42,245.69-44.12,326.7c-86.54,81.01-211.69,101.87-326.98,89.31
			s-225.46-54.3-337.78-84.08c-112.32-29.79-232.26-47.44-343.19-11.83c-87.31,28.02-175.06,88.67-262.3,60.91
			c-45.46-14.46-80.94-50.96-121.96-76.03c-86.37-52.79-194.19-52.48-291.82-29.02c-97.64,23.46-189.41,67.96-284.85,99.91
			c-95.43,31.95-198.99,51.17-295.25,22.64s-181.99-115.44-185.76-220.18c-1.72-47.61,13.68-95.73,42.47-132.71
			c44.96-57.76,117.7-86.34,157.39-148.99c43.47-68.62-45.28-128.68-78.63-182.25C646.63,1040.41,628.54,1000.26,620.28,957.18z"/>
	</g>
	<g>
		<path class="st7" d="M487.46,945.28c-20.23-105.53,30.89-233.66,131.24-257.55c92.66-22.05,194.14,47.96,280.96,7.42
			c129.97-60.68,88.67-290.43,204.35-377.28c47.44-35.62,111.13-37.47,168.29-25.58c57.16,11.89,111.51,35.9,168.69,47.64
			c190.41,39.1,381.02-60.72,574.86-72.51c100.74-6.13,223.09,30.22,247.97,132.53c8.14,33.46,4.1,69.38,13.62,102.43
			c15.6,54.15,65.68,91.02,118,105.1c52.32,14.07,107.38,9.36,161.32,5.39c96.07-7.07,196.08-10.84,284.78,28.15
			c88.7,38.99,162.57,132.85,150.6,232.92c-10.74,89.72-85.83,166.75-75.38,256.45c7.57,65.02,58.67,114.59,111.17,150.11
			c52.5,35.51,111.15,64.54,150.57,115.32c81.14,104.54,47.14,272.99-49.02,363.01c-96.16,90.01-235.21,113.18-363.31,99.24
			c-128.1-13.95-250.51-60.33-375.31-93.43s-258.07-52.71-381.32-13.15c-97.01,31.13-194.51,98.52-291.45,67.68
			c-50.51-16.07-89.93-56.62-135.51-84.47c-95.96-58.65-215.76-58.31-324.25-32.25c-108.48,26.07-210.46,75.51-316.5,111.01
			c-106.04,35.5-221.1,56.86-328.06,25.15c-106.96-31.71-202.21-128.26-206.4-244.64c-1.91-52.9,15.2-106.37,47.18-147.46
			c49.95-64.18,130.77-95.93,174.87-165.55c48.3-76.25-50.31-142.98-87.37-202.5C516.74,1037.76,496.64,993.15,487.46,945.28z"/>
	</g>
	<g>
		<path class="st8" d="M339.88,932.06C317.4,814.8,374.2,672.43,485.7,645.89c102.96-24.5,215.71,53.29,312.18,8.24
			c144.41-67.43,98.52-322.71,227.05-419.2c52.71-39.58,123.48-41.63,186.99-28.42c63.51,13.21,123.9,39.89,187.44,52.93
			c211.57,43.44,423.36-67.46,638.73-80.57c111.93-6.81,247.87,33.58,275.52,147.25c9.04,37.18,4.56,77.08,15.14,113.81
			c17.34,60.16,72.98,101.14,131.12,116.78s119.32,10.4,179.24,5.99c106.75-7.86,217.86-12.04,316.43,31.28
			c98.56,43.32,180.64,147.61,167.33,258.8c-11.93,99.69-95.36,185.27-83.76,284.94c8.41,72.25,65.19,127.32,123.53,166.78
			c58.34,39.46,123.51,71.71,167.3,128.14c90.16,116.16,52.38,303.32-54.47,403.34c-106.85,100.01-261.35,125.76-403.68,110.26
			c-142.33-15.5-278.35-67.03-417.01-103.81c-138.67-36.78-286.74-58.56-423.69-14.61c-107.79,34.59-216.12,109.47-323.83,75.2
			c-56.12-17.86-99.93-62.91-150.57-93.86c-106.63-65.17-239.74-64.79-360.27-35.83c-120.54,28.96-233.84,83.9-351.66,123.34
			c-117.82,39.44-245.66,63.18-364.51,27.95c-118.85-35.23-224.68-142.52-229.34-271.83c-2.12-58.78,16.89-118.19,52.43-163.85
			c55.5-71.31,145.3-106.59,194.3-183.94c53.67-84.72-55.9-158.87-97.07-225C372.42,1034.81,350.08,985.24,339.88,932.06z"/>
	</g>
	<g>
		<path class="st9" d="M175.91,917.37c-24.98-130.29,38.13-288.47,162.02-317.96c114.4-27.23,239.67,59.21,346.86,9.16
			c160.45-74.92,109.47-358.56,252.28-465.78c58.57-43.97,137.2-46.26,207.77-31.58c70.57,14.68,137.66,44.32,208.27,58.81
			c235.08,48.27,470.4-74.96,709.71-89.52c124.37-7.57,275.42,37.31,306.14,163.61c10.05,41.31,5.06,85.65,16.82,126.45
			c19.26,66.85,81.09,112.37,145.68,129.75s132.57,11.56,199.16,6.66c118.61-8.73,242.07-13.38,351.58,34.76
			c109.51,48.13,200.71,164.01,185.92,287.56c-13.26,110.76-105.96,205.86-93.06,316.6c9.35,80.27,72.43,141.47,137.25,185.32
			c64.82,43.85,137.23,79.68,185.89,142.37c100.18,129.06,58.2,337.03-60.52,448.15s-290.39,139.73-448.53,122.51
			s-309.28-74.48-463.35-115.34c-154.07-40.86-318.6-65.07-470.77-16.23c-119.76,38.44-240.13,121.63-359.81,83.55
			c-62.36-19.84-111.03-69.9-167.3-104.29c-118.47-72.41-266.37-71.99-400.31-39.81s-259.83,93.22-390.74,137.05
			s-272.96,70.2-405.01,31.06S82.22,1861.88,77.05,1718.2c-2.35-65.31,18.77-131.32,58.25-182.05
			c61.67-79.24,161.45-118.43,215.89-204.38c59.63-94.13-62.12-176.52-107.86-250C212.06,1031.54,187.24,976.46,175.91,917.37z"/>
	</g>
</g>
</svg>
