<?xml version="1.0" encoding="utf-8"?>
<!-- Generator: Adobe Illustrator 28.0.0, SVG Export Plug-In . SVG Version: 6.00 Build 0)  -->
<svg version="1.1" id="uuid-8bd84877-36ef-4555-8af8-ce48331ba034"
	 xmlns="http://www.w3.org/2000/svg" xmlns:xlink="http://www.w3.org/1999/xlink" x="0px" y="0px" viewBox="0 0 4677.83 4817.99"
	 style="enable-background:new 0 0 4677.83 4817.99;" xml:space="preserve">
<style type="text/css">
	.st0{fill:url(#SVGID_1_);stroke:url(#SVGID_00000150796605277591357360000011784463684275780227_);stroke-miterlimit:10;}
	.st1{fill:#FFFFFF;}
	.st2{fill:none;stroke:#FFF3F3;stroke-width:22.2019;stroke-miterlimit:10;}
	.st3{fill:none;stroke:#FFF3F3;stroke-width:10.3215;stroke-miterlimit:10;}
	.st4{fill:none;stroke:#FFF3F3;stroke-width:11.4684;stroke-miterlimit:10;}
	.st5{fill:none;stroke:#FFF3F3;stroke-width:12.7427;stroke-miterlimit:10;}
	.st6{fill:none;stroke:#FFF3F3;stroke-width:14.1585;stroke-miterlimit:10;}
	.st7{fill:none;stroke:#FFF3F3;stroke-width:15.7317;stroke-miterlimit:10;}
	.st8{fill:none;stroke:#FFF3F3;stroke-width:17.4796;stroke-miterlimit:10;}
	.st9{fill:none;stroke:#FFF3F3;stroke-width:19.4218;stroke-miterlimit:10;}
	.st10{fill:none;stroke:#FFF3F3;stroke-width:21.5798;stroke-miterlimit:10;}
	.st11{fill:none;stroke:#FFF3F3;stroke-width:23.9776;stroke-miterlimit:10;}
	.st12{opacity:0.1;}
	.cls-all{fill:#0C0C0C;}
	.st14{opacity:0.15;}
	.st15{opacity:0.04;}
	.st16{opacity:0.05;}
	.st17{opacity:0.06;}
	.st18{opacity:0.07;}
	.st19{opacity:0.08;}
	.st20{opacity:0.09;}
</style>
<linearGradient id="SVGID_1_" gradientUnits="userSpaceOnUse" x1="2338.9167" y1="4818.2397" x2="2338.9167" y2="-0.2501">
	<stop  offset="0.6332" style="stop-color:#0C0C0C"/>
	<stop  offset="0.6944" style="stop-color:#2E1217"/>
	<stop  offset="0.8302" style="stop-color:#852032"/>
	<stop  offset="1" style="stop-color:#FA3356"/>
</linearGradient>
<linearGradient id="SVGID_00000095308132333237700070000001689882490304373164_" gradientUnits="userSpaceOnUse" x1="-0.5" y1="2408.9949" x2="4678.3335" y2="2408.9949">
	<stop  offset="0.5779" style="stop-color:#0C0C0C"/>
	<stop  offset="1" style="stop-color:#FA3356"/>
</linearGradient>
<rect y="-0.25" style="fill:url(#SVGID_1_);stroke:url(#SVGID_00000095308132333237700070000001689882490304373164_);stroke-miterlimit:10;" width="4677.83" height="4818.49"/>
<g id="uuid-9e01a561-05ff-4cbe-b808-cb7440a44ebb">
	<g>
		<path class="st1" d="M2024.7,3331.84v-108.92h14.79l57.21,85.52v-85.52h13.82v108.92h-14.79l-57.21-85.6v85.6H2024.7z"/>
		<path class="st1" d="M2120.43,3292.4c0-14.62,4.06-25.44,12.18-32.47c6.78-5.84,15.06-8.77,24.82-8.77
			c10.84,0,19.72,3.56,26.6,10.66c6.88,7.1,10.33,16.93,10.33,29.46c0,10.16-1.52,18.14-4.56,23.96s-7.48,10.34-13.3,13.56
			c-5.82,3.21-12.17,4.83-19.06,4.83c-11.05,0-19.97-3.54-26.79-10.63c-6.81-7.08-10.21-17.28-10.21-30.61V3292.4z M2134.18,3292.4
			c0,10.1,2.21,17.67,6.61,22.7c4.4,5.03,9.95,7.54,16.64,7.54s12.16-2.53,16.57-7.58c4.4-5.05,6.61-12.75,6.61-23.1
			c0-9.76-2.22-17.14-6.65-22.18c-4.44-5.03-9.94-7.54-16.53-7.54c-6.59,0-12.24,2.5-16.64,7.5s-6.61,12.56-6.61,22.66H2134.18z"/>
		<path class="st1" d="M2231.62,3319.89l1.93,11.81c-3.76,0.79-7.14,1.19-10.1,1.19c-4.85,0-8.62-0.77-11.29-2.3
			c-2.68-1.53-4.55-3.56-5.65-6.05c-1.09-2.5-1.64-7.77-1.64-15.78v-45.39h-9.8v-10.4h9.8v-19.55l13.3-8.03v27.56h13.45v10.4h-13.45
			v46.14c0,3.81,0.24,6.27,0.71,7.35c0.47,1.09,1.24,1.96,2.3,2.6s2.59,0.96,4.56,0.96c1.49,0,3.44-0.17,5.87-0.52L2231.62,3319.89z
			"/>
		<path class="st1" d="M2254.75,3362.46l2.53-11.37c2.68,0.7,4.78,1.04,6.31,1.04c2.72,0,4.76-0.9,6.1-2.71
			c1.34-1.81,2-6.33,2-13.55v-82.92h13.37v83.22c0,9.71-1.26,16.47-3.79,20.28c-3.23,4.95-8.57,7.43-16.05,7.43
			c-3.61,0-7.1-0.47-10.48-1.41H2254.75z M2271.69,3238.46v-15.53h13.37v15.53H2271.69z"/>
		<path class="st1" d="M2349.66,3331.84v-11.59c-6.14,8.92-14.49,13.37-25.04,13.37c-4.66,0-9-0.89-13.04-2.68
			c-4.04-1.79-7.03-4.02-8.99-6.73c-1.96-2.7-3.33-6-4.13-9.92c-0.55-2.63-0.81-6.78-0.81-12.48v-48.88h13.37v43.76
			c0,6.99,0.27,11.69,0.81,14.11c0.85,3.51,2.63,6.28,5.35,8.28c2.72,2,6.1,3.01,10.1,3.01s7.78-1.03,11.29-3.09s6-4.85,7.47-8.39
			c1.47-3.54,2.2-8.68,2.2-15.42v-42.27h13.37v78.9h-11.96L2349.66,3331.84z"/>
		<path class="st1" d="M2369.62,3308.29l13.22-2.08c0.74,5.3,2.81,9.37,6.2,12.18c3.4,2.82,8.13,4.23,14.23,4.23
			c6.1,0,10.69-1.25,13.67-3.75c2.97-2.5,4.46-5.43,4.46-8.81c0-3.02-1.31-5.4-3.93-7.14c-1.83-1.19-6.39-2.7-13.67-4.53
			c-9.8-2.48-16.61-4.62-20.39-6.43c-3.79-1.81-6.67-4.31-8.62-7.5c-1.96-3.19-2.94-6.73-2.94-10.59c0-3.51,0.8-6.77,2.41-9.77
			c1.61-3,3.8-5.49,6.58-7.47c2.08-1.53,4.92-2.84,8.51-3.9c3.59-1.06,7.44-1.6,11.55-1.6c6.19,0,11.63,0.89,16.31,2.68
			s8.13,4.2,10.36,7.24c2.23,3.04,3.76,7.13,4.61,12.23l-13.07,1.78c-0.59-4.06-2.31-7.23-5.16-9.52
			c-2.85-2.28-6.87-3.42-12.08-3.42c-6.14,0-10.52,1.02-13.15,3.04c-2.63,2.04-3.93,4.4-3.93,7.14c0,1.74,0.55,3.29,1.64,4.68
			c1.09,1.44,2.8,2.63,5.12,3.57c1.34,0.49,5.27,1.64,11.81,3.42c9.46,2.53,16.06,4.6,19.8,6.2c3.74,1.61,6.68,3.95,8.81,7.02
			c2.13,3.08,3.19,6.89,3.19,11.44c0,4.55-1.3,8.66-3.9,12.59c-2.6,3.94-6.35,6.99-11.25,9.14c-4.91,2.15-10.45,3.24-16.64,3.24
			c-10.25,0-18.07-2.13-23.45-6.39c-5.38-4.25-8.81-10.58-10.29-18.94H2369.62z"/>
		<path class="st1" d="M2472.65,3319.89l1.93,11.81c-3.76,0.79-7.14,1.19-10.1,1.19c-4.85,0-8.62-0.77-11.29-2.3
			c-2.68-1.53-4.55-3.56-5.65-6.05c-1.09-2.5-1.64-7.77-1.64-15.78v-45.39h-9.8v-10.4h9.8v-19.55l13.3-8.03v27.56h13.45v10.4h-13.45
			v46.14c0,3.81,0.24,6.27,0.71,7.35c0.47,1.09,1.24,1.96,2.3,2.6s2.59,0.96,4.56,0.96c1.49,0,3.44-0.17,5.87-0.52L2472.65,3319.89z
			"/>
	</g>
	<g>
		<path class="st1" d="M1797.28,3474.28c-4.95,4.21-9.72,7.18-14.31,8.92c-4.59,1.74-9.49,2.6-14.74,2.6
			c-8.67,0-15.33-2.12-19.98-6.35c-4.66-4.23-6.99-9.64-6.99-16.23c0-3.87,0.88-7.39,2.64-10.59c1.76-3.19,4.06-5.75,6.91-7.69
			c2.85-1.94,6.05-3.4,9.62-4.38c2.63-0.7,6.59-1.36,11.88-2c10.8-1.29,18.75-2.82,23.85-4.61c0.04-1.83,0.07-3,0.07-3.49
			c0-5.44-1.26-9.29-3.79-11.52c-3.42-3.02-8.5-4.53-15.23-4.53c-6.29,0-10.93,1.1-13.93,3.3c-3,2.21-5.22,6.11-6.65,11.7
			l-13.07-1.78c1.19-5.59,3.14-10.12,5.87-13.56c2.72-3.44,6.67-6.1,11.81-7.95c5.15-1.85,11.12-2.79,17.91-2.79
			s12.2,0.79,16.42,2.38c4.21,1.59,7.31,3.58,9.29,5.98c1.98,2.4,3.36,5.43,4.16,9.1c0.45,2.28,0.66,6.39,0.66,12.33v17.83
			c0,12.43,0.29,20.29,0.86,23.58c0.57,3.29,1.69,6.45,3.39,9.47h-13.97c-1.38-2.78-2.28-6.02-2.68-9.73L1797.28,3474.28z
			 M1796.17,3444.41c-4.85,1.98-12.14,3.66-21.84,5.05c-5.5,0.79-9.39,1.68-11.67,2.68c-2.28,0.99-4.04,2.44-5.27,4.35
			c-1.24,1.91-1.85,4.03-1.85,6.35c0,3.57,1.35,6.54,4.05,8.92s6.65,3.57,11.85,3.57s9.73-1.12,13.75-3.39
			c4.01-2.25,6.95-5.34,8.84-9.25c1.44-3.02,2.15-7.48,2.15-13.37v-4.91H1796.17z"/>
		<path class="st1" d="M1822.82,3484v-78.9h12.03v11.22c5.8-8.67,14.17-13,25.12-13c4.76,0,9.13,0.86,13.12,2.56
			c3.99,1.7,6.98,3.95,8.95,6.72c1.98,2.78,3.36,6.06,4.16,9.88c0.49,2.48,0.74,6.81,0.74,13V3484h-13.37v-47.99
			c0-5.44-0.53-9.53-1.56-12.23c-1.04-2.7-2.88-4.85-5.54-6.46c-2.65-1.61-5.75-2.41-9.32-2.41c-5.7,0-10.61,1.81-14.74,5.42
			c-4.14,3.62-6.2,10.48-6.2,20.58V3484h-13.37H1822.82z"/>
		<path class="st1" d="M1899.23,3514.39l-1.49-12.56c2.93,0.79,5.48,1.19,7.65,1.19c2.97,0,5.35-0.49,7.14-1.49
			c1.78-0.99,3.25-2.38,4.38-4.16c0.85-1.34,2.21-4.66,4.08-9.95c0.25-0.74,0.64-1.83,1.19-3.27l-29.94-79.05h14.41l16.42,45.69
			c2.13,5.8,4.04,11.88,5.72,18.28c1.53-6.14,3.36-12.13,5.5-17.98l16.87-45.99h13.37l-30.01,80.24c-3.23,8.67-5.72,14.64-7.5,17.91
			c-2.38,4.4-5.1,7.64-8.18,9.7s-6.74,3.09-10.99,3.09C1905.27,3516.03,1902.39,3515.49,1899.23,3514.39L1899.23,3514.39z"/>
		<path class="st1" d="M2054.15,3484v-9.95c-5,7.82-12.35,11.74-22.06,11.74c-6.29,0-12.08-1.74-17.35-5.2
			c-5.27-3.46-9.37-8.3-12.26-14.52c-2.89-6.22-4.35-13.36-4.35-21.43c0-8.07,1.31-15.02,3.93-21.43
			c2.63-6.42,6.56-11.33,11.81-14.74s11.12-5.12,17.61-5.12c4.76,0,8.99,1.01,12.71,3.01c3.72,2,6.74,4.62,9.07,7.83v-39.08h13.3
			v108.92h-12.41L2054.15,3484z M2011.88,3444.63c0,10.1,2.13,17.66,6.39,22.66c4.26,5,9.29,7.5,15.09,7.5s10.81-2.39,14.89-7.17
			c4.08-4.78,6.13-12.08,6.13-21.88c0-10.8-2.08-18.72-6.24-23.78c-4.16-5.06-9.29-7.58-15.38-7.58s-10.91,2.43-14.89,7.28
			c-3.99,4.85-5.98,12.51-5.98,22.95L2011.88,3444.63z"/>
		<path class="st1" d="M2133.99,3458.6l13.82,1.7c-2.19,8.08-6.22,14.34-12.11,18.79c-5.89,4.46-13.43,6.69-22.59,6.69
			c-11.54,0-20.69-3.56-27.45-10.66c-6.76-7.1-10.14-17.08-10.14-29.91s3.42-23.57,10.25-30.9c6.84-7.33,15.7-10.99,26.6-10.99
			c10.9,0,19.17,3.59,25.86,10.77c6.69,7.18,10.03,17.28,10.03,30.31c0,0.79-0.02,1.98-0.07,3.57h-58.84
			c0.49,8.67,2.95,15.3,7.35,19.91c4.4,4.61,9.9,6.91,16.49,6.91c4.91,0,9.09-1.29,12.56-3.87c3.46-2.57,6.21-6.69,8.25-12.33
			L2133.99,3458.6z M2090.08,3436.97h44.06c-0.59-6.63-2.28-11.62-5.05-14.94c-4.26-5.15-9.78-7.73-16.57-7.73
			c-6.14,0-11.3,2.06-15.49,6.16c-4.19,4.11-6.5,9.61-6.94,16.49L2090.08,3436.97z"/>
		<path class="st1" d="M2151.65,3460.45l13.22-2.08c0.74,5.3,2.81,9.37,6.2,12.18s8.13,4.23,14.23,4.23s10.69-1.25,13.67-3.75
			c2.97-2.5,4.46-5.43,4.46-8.81c0-3.02-1.31-5.4-3.93-7.14c-1.83-1.19-6.39-2.7-13.67-4.53c-9.8-2.48-16.61-4.62-20.39-6.43
			c-3.79-1.81-6.67-4.31-8.62-7.5c-1.96-3.19-2.94-6.73-2.94-10.59c0-3.51,0.8-6.77,2.41-9.77c1.61-3,3.8-5.49,6.58-7.47
			c2.08-1.53,4.92-2.84,8.51-3.9c3.59-1.06,7.44-1.6,11.55-1.6c6.19,0,11.63,0.89,16.31,2.68c4.68,1.79,8.13,4.2,10.36,7.24
			c2.23,3.04,3.76,7.13,4.61,12.23l-13.07,1.78c-0.59-4.06-2.31-7.23-5.16-9.52c-2.85-2.28-6.87-3.42-12.08-3.42
			c-6.14,0-10.52,1.02-13.15,3.04c-2.63,2.04-3.93,4.4-3.93,7.14c0,1.74,0.55,3.29,1.64,4.68c1.09,1.44,2.8,2.63,5.12,3.57
			c1.34,0.49,5.27,1.64,11.81,3.42c9.46,2.53,16.06,4.6,19.8,6.2c3.74,1.61,6.68,3.95,8.81,7.02c2.13,3.08,3.19,6.89,3.19,11.44
			c0,4.55-1.3,8.66-3.9,12.59c-2.6,3.94-6.35,6.99-11.25,9.14c-4.91,2.15-10.45,3.24-16.64,3.24c-10.25,0-18.07-2.13-23.45-6.39
			c-5.38-4.25-8.81-10.58-10.29-18.95H2151.65z"/>
		<path class="st1" d="M2225.55,3390.47v-15.38h13.37v15.38H2225.55z M2225.55,3484v-78.9h13.37v78.9H2225.55z"/>
		<path class="st1" d="M2249.22,3490.55l13,1.93c0.55,4.01,2.06,6.93,4.53,8.77c3.32,2.48,7.85,3.72,13.6,3.72
			c6.19,0,10.97-1.24,14.34-3.72s5.65-5.95,6.84-10.4c0.7-2.72,1.02-8.44,0.96-17.17c-5.85,6.89-13.13,10.33-21.84,10.33
			c-10.84,0-19.25-3.91-25.18-11.74c-5.95-7.82-8.92-17.21-8.92-28.16c0-7.53,1.36-14.48,4.08-20.84s6.68-11.28,11.85-14.74
			c5.18-3.47,11.25-5.2,18.24-5.2c9.31,0,16.98,3.76,23.03,11.29v-9.52h12.33v68.2c0,12.28-1.25,20.99-3.75,26.11
			c-2.5,5.13-6.46,9.17-11.88,12.15c-5.42,2.98-12.1,4.46-20.03,4.46c-9.41,0-17.02-2.12-22.81-6.35
			c-5.8-4.23-8.59-10.61-8.39-19.13V3490.55z M2260.29,3443.15c0,10.35,2.06,17.91,6.16,22.66c4.11,4.76,9.26,7.14,15.45,7.14
			c6.19,0,11.29-2.37,15.45-7.09c4.16-4.73,6.24-12.15,6.24-22.26c0-10.1-2.14-16.94-6.43-21.84s-9.45-7.35-15.49-7.35
			s-10.99,2.41-15.15,7.24c-4.16,4.83-6.24,12-6.24,21.51L2260.29,3443.15z"/>
		<path class="st1" d="M2328.68,3484v-78.9h12.03v11.22c5.8-8.67,14.17-13,25.12-13c4.76,0,9.13,0.86,13.12,2.56
			c3.99,1.7,6.98,3.95,8.95,6.72c1.98,2.78,3.36,6.06,4.16,9.88c0.49,2.48,0.74,6.81,0.74,13V3484h-13.37v-47.99
			c0-5.44-0.53-9.53-1.56-12.23c-1.04-2.7-2.88-4.85-5.54-6.46c-2.65-1.61-5.75-2.41-9.32-2.41c-5.7,0-10.61,1.81-14.74,5.42
			c-4.14,3.62-6.2,10.48-6.2,20.58V3484h-13.37H2328.68z"/>
		<path class="st1" d="M2435.01,3460.45l13.22-2.08c0.74,5.3,2.81,9.37,6.2,12.18c3.4,2.82,8.13,4.23,14.23,4.23
			s10.69-1.25,13.67-3.75c2.97-2.5,4.46-5.43,4.46-8.81c0-3.02-1.31-5.4-3.93-7.14c-1.83-1.19-6.39-2.7-13.67-4.53
			c-9.8-2.48-16.61-4.62-20.39-6.43c-3.79-1.81-6.67-4.31-8.62-7.5c-1.96-3.19-2.94-6.73-2.94-10.59c0-3.51,0.8-6.77,2.41-9.77
			c1.61-3,3.8-5.49,6.58-7.47c2.08-1.53,4.92-2.84,8.51-3.9c3.59-1.06,7.44-1.6,11.55-1.6c6.19,0,11.63,0.89,16.31,2.68
			c4.68,1.79,8.13,4.2,10.36,7.24c2.23,3.04,3.76,7.13,4.61,12.23l-13.07,1.78c-0.59-4.06-2.31-7.23-5.16-9.52
			c-2.85-2.28-6.87-3.42-12.08-3.42c-6.14,0-10.52,1.02-13.15,3.04c-2.63,2.04-3.93,4.4-3.93,7.14c0,1.74,0.55,3.29,1.64,4.68
			c1.09,1.44,2.8,2.63,5.12,3.57c1.34,0.49,5.27,1.64,11.81,3.42c9.46,2.53,16.06,4.6,19.8,6.2c3.74,1.61,6.68,3.95,8.81,7.02
			c2.13,3.08,3.19,6.89,3.19,11.44c0,4.55-1.3,8.66-3.9,12.59c-2.6,3.94-6.35,6.99-11.25,9.14c-4.91,2.15-10.45,3.24-16.64,3.24
			c-10.25,0-18.07-2.13-23.45-6.39c-5.38-4.25-8.81-10.58-10.29-18.95H2435.01z"/>
		<path class="st1" d="M2538.03,3472.05l1.93,11.81c-3.76,0.79-7.14,1.19-10.1,1.19c-4.85,0-8.62-0.77-11.29-2.3
			c-2.68-1.53-4.55-3.56-5.65-6.05c-1.09-2.5-1.64-7.77-1.64-15.78v-45.39h-9.8v-10.4h9.8v-19.54l13.3-8.03v27.56h13.45v10.4h-13.45
			v46.14c0,3.81,0.24,6.27,0.71,7.35c0.47,1.09,1.24,1.96,2.3,2.6c1.06,0.64,2.59,0.96,4.56,0.96c1.49,0,3.44-0.17,5.87-0.52
			L2538.03,3472.05z"/>
		<path class="st1" d="M2595.22,3484v-11.59c-6.14,8.92-14.49,13.37-25.04,13.37c-4.66,0-9-0.89-13.04-2.68s-7.03-4.02-8.99-6.73
			c-1.96-2.7-3.33-6-4.13-9.92c-0.55-2.63-0.81-6.78-0.81-12.48v-48.88h13.37v43.76c0,6.99,0.27,11.69,0.81,14.11
			c0.85,3.51,2.63,6.28,5.35,8.28c2.72,2,6.1,3.01,10.1,3.01s7.78-1.03,11.29-3.09s6-4.85,7.47-8.39c1.47-3.54,2.2-8.68,2.2-15.42
			v-42.27h13.37v78.9h-11.96V3484z"/>
		<path class="st1" d="M2671.71,3484v-9.95c-5,7.82-12.35,11.74-22.06,11.74c-6.29,0-12.08-1.74-17.35-5.2
			c-5.27-3.46-9.37-8.3-12.26-14.52c-2.89-6.22-4.35-13.36-4.35-21.43c0-8.07,1.31-15.02,3.93-21.43
			c2.63-6.42,6.56-11.33,11.81-14.74c5.25-3.42,11.12-5.12,17.61-5.12c4.76,0,8.99,1.01,12.71,3.01c3.72,2,6.74,4.62,9.07,7.83
			v-39.08h13.3v108.92h-12.41L2671.71,3484z M2629.44,3444.63c0,10.1,2.13,17.66,6.39,22.66c4.26,5,9.29,7.5,15.09,7.5
			c5.8,0,10.81-2.39,14.89-7.17c4.08-4.78,6.13-12.08,6.13-21.88c0-10.8-2.08-18.72-6.24-23.78c-4.16-5.06-9.29-7.58-15.38-7.58
			c-6.09,0-10.91,2.43-14.89,7.28c-3.99,4.85-5.98,12.51-5.98,22.95L2629.44,3444.63z"/>
		<path class="st1" d="M2697.61,3390.47v-15.38h13.37v15.38H2697.61z M2697.61,3484v-78.9h13.37v78.9H2697.61z"/>
		<path class="st1" d="M2718.76,3444.56c0-14.62,4.06-25.44,12.18-32.47c6.78-5.84,15.06-8.77,24.82-8.77
			c10.84,0,19.72,3.56,26.6,10.66c6.89,7.1,10.33,16.93,10.33,29.46c0,10.16-1.52,18.14-4.58,23.96
			c-3.04,5.82-7.48,10.34-13.3,13.56s-12.17,4.83-19.06,4.83c-11.05,0-19.97-3.54-26.79-10.63c-6.81-7.08-10.21-17.28-10.21-30.61
			L2718.76,3444.56z M2732.51,3444.56c0,10.1,2.21,17.67,6.61,22.7s9.95,7.54,16.64,7.54c6.69,0,12.16-2.53,16.57-7.58
			c4.4-5.05,6.61-12.75,6.61-23.1c0-9.76-2.22-17.14-6.65-22.18c-4.44-5.04-9.94-7.54-16.53-7.54s-12.24,2.5-16.64,7.5
			s-6.61,12.56-6.61,22.66L2732.51,3444.56z"/>
		<path class="st1" d="M2804.25,3484v-15.23h15.23V3484c0,5.59-0.99,10.12-2.97,13.55c-1.98,3.44-5.12,6.11-9.44,7.98l-3.72-5.72
			c2.82-1.24,4.91-3.05,6.24-5.46c1.33-2.41,2.08-5.86,2.23-10.36h-7.58L2804.25,3484z M2804.25,3420.33v-15.23h15.23v15.23H2804.25
			z"/>
	</g>
	<g>
		<path class="st1" d="M1970.62,3626.44c-4.95,4.21-9.72,7.18-14.31,8.92c-4.59,1.74-9.49,2.6-14.74,2.6
			c-8.67,0-15.33-2.12-19.98-6.35c-4.66-4.23-6.99-9.64-6.99-16.23c0-3.87,0.88-7.39,2.64-10.59c1.76-3.19,4.06-5.75,6.91-7.69
			s6.05-3.4,9.62-4.38c2.63-0.7,6.59-1.36,11.88-2c10.8-1.29,18.75-2.82,23.85-4.61c0.04-1.83,0.08-3,0.08-3.49
			c0-5.44-1.26-9.29-3.79-11.52c-3.42-3.02-8.5-4.53-15.23-4.53c-6.29,0-10.93,1.1-13.93,3.3c-3,2.21-5.22,6.11-6.65,11.7
			l-13.07-1.78c1.19-5.59,3.14-10.12,5.87-13.56c2.72-3.44,6.67-6.1,11.81-7.95c5.15-1.85,11.12-2.79,17.91-2.79
			c6.78,0,12.2,0.79,16.42,2.38c4.21,1.59,7.31,3.58,9.29,5.98c1.98,2.4,3.36,5.43,4.16,9.1c0.45,2.28,0.66,6.39,0.66,12.33v17.83
			c0,12.43,0.29,20.29,0.86,23.58c0.57,3.29,1.69,6.45,3.39,9.47h-13.97c-1.38-2.78-2.28-6.02-2.68-9.73L1970.62,3626.44z
			 M1969.5,3596.57c-4.85,1.98-12.14,3.66-21.84,5.05c-5.5,0.79-9.39,1.68-11.67,2.68c-2.28,0.99-4.04,2.44-5.27,4.35
			c-1.24,1.91-1.85,4.03-1.85,6.35c0,3.57,1.35,6.54,4.05,8.92s6.65,3.57,11.85,3.57c5.2,0,9.73-1.12,13.75-3.39
			c4.01-2.25,6.95-5.34,8.84-9.25c1.44-3.02,2.15-7.48,2.15-13.37v-4.91L1969.5,3596.57z"/>
		<path class="st1" d="M2025.47,3612.61l13.22-2.08c0.74,5.3,2.81,9.37,6.2,12.18c3.4,2.82,8.13,4.23,14.23,4.23
			c6.1,0,10.69-1.25,13.67-3.75c2.97-2.5,4.46-5.43,4.46-8.81c0-3.02-1.32-5.4-3.93-7.14c-1.83-1.19-6.39-2.7-13.67-4.53
			c-9.8-2.48-16.61-4.62-20.39-6.43c-3.79-1.81-6.66-4.31-8.62-7.5c-1.96-3.19-2.94-6.73-2.94-10.59c0-3.51,0.8-6.77,2.41-9.77
			c1.61-3,3.8-5.49,6.58-7.47c2.08-1.53,4.92-2.84,8.51-3.9c3.59-1.06,7.44-1.6,11.55-1.6c6.19,0,11.63,0.89,16.31,2.68
			c4.68,1.79,8.13,4.2,10.36,7.24c2.23,3.04,3.76,7.13,4.61,12.23l-13.07,1.78c-0.59-4.06-2.31-7.23-5.17-9.52
			c-2.85-2.28-6.87-3.42-12.08-3.42c-6.14,0-10.52,1.02-13.15,3.04c-2.63,2.04-3.93,4.4-3.93,7.14c0,1.74,0.55,3.29,1.64,4.68
			c1.09,1.44,2.8,2.63,5.12,3.57c1.34,0.49,5.27,1.64,11.81,3.42c9.46,2.53,16.06,4.6,19.8,6.2c3.74,1.61,6.68,3.95,8.81,7.02
			c2.13,3.08,3.19,6.89,3.19,11.44c0,4.55-1.3,8.66-3.9,12.59c-2.6,3.94-6.35,6.99-11.25,9.14c-4.91,2.15-10.45,3.24-16.64,3.24
			c-10.25,0-18.07-2.13-23.45-6.39c-5.38-4.25-8.81-10.58-10.29-18.95H2025.47z"/>
		<path class="st1" d="M2098.69,3666.55l-1.49-12.56c2.93,0.79,5.48,1.19,7.65,1.19c2.97,0,5.35-0.49,7.14-1.49
			c1.78-0.99,3.25-2.38,4.38-4.16c0.85-1.34,2.21-4.66,4.08-9.95c0.25-0.74,0.64-1.83,1.19-3.27l-29.94-79.05h14.41l16.42,45.69
			c2.13,5.8,4.04,11.88,5.72,18.28c1.53-6.14,3.36-12.13,5.5-17.98l16.87-45.99h13.37l-30.01,80.24c-3.23,8.67-5.72,14.64-7.5,17.91
			c-2.38,4.4-5.1,7.64-8.18,9.7c-3.08,2.06-6.74,3.09-10.99,3.09C2104.73,3668.19,2101.85,3667.65,2098.69,3666.55z"/>
		<path class="st1" d="M2167.76,3636.16v-78.9h11.96v11.07c2.48-3.87,5.76-6.98,9.88-9.32s8.8-3.53,14.04-3.53
			c5.84,0,10.64,1.21,14.38,3.64c3.74,2.43,6.38,5.82,7.91,10.18c6.24-9.22,14.37-13.82,24.37-13.82c7.82,0,13.84,2.16,18.06,6.5
			c4.21,4.34,6.31,11,6.31,20.03v54.17h-13.3v-49.71c0-5.35-0.44-9.2-1.3-11.55c-0.87-2.35-2.44-4.24-4.71-5.68
			c-2.28-1.44-4.95-2.15-8.03-2.15c-5.55,0-10.16,1.84-13.82,5.54c-3.66,3.7-5.5,9.6-5.5,17.72v45.84h-13.37v-51.26
			c0-5.95-1.09-10.4-3.27-13.37c-2.18-2.97-5.74-4.46-10.69-4.46c-3.76,0-7.24,0.99-10.44,2.97s-5.51,4.88-6.94,8.69
			s-2.15,9.31-2.15,16.49v40.93h-13.37V3636.16z"/>
		<path class="st1" d="M2286.9,3666.4v-109.14h12.18v10.25c2.87-4.01,6.12-7.02,9.73-9.02c3.61-2,7.99-3.01,13.15-3.01
			c6.74,0,12.68,1.74,17.83,5.2c5.15,3.47,9.03,8.36,11.67,14.67c2.63,6.31,3.93,13.23,3.93,20.77c0,8.08-1.45,15.34-4.35,21.81
			c-2.89,6.46-7.1,11.41-12.63,14.86c-5.52,3.44-11.33,5.16-17.42,5.16c-4.46,0-8.45-0.94-12-2.82s-6.45-4.25-8.73-7.14v38.41
			h-13.37L2286.9,3666.4z M2299.01,3597.16c0,10.16,2.06,17.66,6.16,22.51c4.11,4.85,9.09,7.28,14.94,7.28
			c5.85,0,11.04-2.52,15.27-7.54c4.23-5.03,6.35-12.82,6.35-23.37s-2.07-17.58-6.2-22.59s-9.08-7.5-14.82-7.5
			c-5.74,0-10.74,2.67-15.12,7.98s-6.58,13.06-6.58,23.22V3597.16z"/>
		<path class="st1" d="M2363.92,3636.16v-108.92h13.37v39.08c6.24-7.23,14.11-10.84,23.63-10.84c5.84,0,10.92,1.15,15.23,3.45
			c4.31,2.3,7.39,5.49,9.25,9.55c1.85,4.06,2.79,9.95,2.79,17.68v50h-13.37v-50c0-6.69-1.45-11.55-4.35-14.59
			c-2.89-3.04-7-4.56-12.3-4.56c-3.96,0-7.69,1.03-11.18,3.09c-3.48,2.06-5.98,4.84-7.47,8.36c-1.49,3.51-2.23,8.37-2.23,14.56
			v43.16h-13.37H2363.92z"/>
		<path class="st1" d="M2435.96,3596.72c0-14.62,4.06-25.44,12.18-32.47c6.78-5.84,15.06-8.77,24.82-8.77
			c10.84,0,19.72,3.56,26.6,10.66c6.88,7.1,10.33,16.93,10.33,29.46c0,10.16-1.52,18.14-4.56,23.96
			c-3.04,5.82-7.48,10.34-13.3,13.55c-5.82,3.21-12.17,4.83-19.05,4.83c-11.05,0-19.97-3.54-26.79-10.63
			c-6.81-7.08-10.21-17.28-10.21-30.61L2435.96,3596.72z M2449.7,3596.72c0,10.1,2.21,17.67,6.61,22.7
			c4.4,5.03,9.95,7.54,16.64,7.54s12.16-2.53,16.57-7.58c4.4-5.05,6.61-12.75,6.61-23.1c0-9.76-2.22-17.14-6.65-22.18
			c-4.44-5.04-9.94-7.54-16.53-7.54s-12.24,2.5-16.64,7.5c-4.41,5-6.61,12.56-6.61,22.66H2449.7z"/>
		<path class="st1" d="M2517.95,3636.16v-78.9h12.03v11.22c5.8-8.67,14.17-13,25.12-13c4.76,0,9.13,0.86,13.12,2.56
			c3.99,1.7,6.98,3.95,8.96,6.72c1.98,2.78,3.36,6.06,4.16,9.88c0.49,2.48,0.74,6.82,0.74,13v48.52h-13.37v-47.99
			c0-5.44-0.53-9.53-1.56-12.23c-1.04-2.7-2.88-4.85-5.54-6.46c-2.66-1.61-5.75-2.41-9.32-2.41c-5.7,0-10.61,1.81-14.74,5.42
			c-4.14,3.62-6.2,10.48-6.2,20.58v43.09L2517.95,3636.16L2517.95,3636.16z"/>
		<path class="st1" d="M2594.37,3666.55l-1.49-12.56c2.93,0.79,5.48,1.19,7.65,1.19c2.97,0,5.35-0.49,7.14-1.49
			c1.78-0.99,3.25-2.38,4.38-4.16c0.85-1.34,2.21-4.66,4.08-9.95c0.25-0.74,0.64-1.83,1.19-3.27l-29.94-79.05h14.41l16.42,45.69
			c2.13,5.8,4.04,11.88,5.72,18.28c1.53-6.14,3.36-12.13,5.5-17.98l16.87-45.99h13.37l-30.01,80.24c-3.21,8.67-5.72,14.64-7.5,17.91
			c-2.38,4.4-5.1,7.64-8.18,9.7c-3.08,2.06-6.74,3.09-10.99,3.09C2600.42,3668.19,2597.55,3667.65,2594.37,3666.55L2594.37,3666.55z
			"/>
	</g>
	<g>
		<path class="st1" d="M1740.82,3748.88c0-14.62,4.06-25.44,12.18-32.47c6.78-5.84,15.06-8.77,24.82-8.77
			c10.84,0,19.72,3.56,26.6,10.66c6.88,7.1,10.33,16.93,10.33,29.46c0,10.16-1.52,18.14-4.56,23.96
			c-3.04,5.82-7.48,10.34-13.3,13.56s-12.17,4.83-19.05,4.83c-11.05,0-19.97-3.54-26.79-10.63c-6.82-7.08-10.21-17.28-10.21-30.61
			L1740.82,3748.88z M1754.57,3748.88c0,10.1,2.21,17.67,6.61,22.7c4.4,5.03,9.95,7.54,16.64,7.54s12.16-2.53,16.57-7.58
			c4.4-5.05,6.61-12.75,6.61-23.1c0-9.76-2.22-17.14-6.65-22.18c-4.44-5.04-9.94-7.54-16.53-7.54c-6.59,0-12.24,2.5-16.64,7.5
			c-4.41,5-6.61,12.56-6.61,22.66H1754.57z"/>
		<path class="st1" d="M1826.01,3788.32v-68.5h-11.81v-10.4h11.81v-8.39c0-5.3,0.47-9.24,1.41-11.81c1.29-3.47,3.56-6.28,6.79-8.43
			c3.25-2.15,7.79-3.24,13.63-3.24c3.76,0,7.93,0.45,12.48,1.34l-2,11.67c-2.78-0.49-5.4-0.74-7.88-0.74c-4.06,0-6.93,0.87-8.62,2.6
			c-1.68,1.74-2.53,4.98-2.53,9.73v7.28h15.38v10.4h-15.38v68.5h-13.3V3788.32z"/>
		<path class="st1" d="M1943.63,3759.42l13.15,1.7c-1.44,9.07-5.11,16.16-11.04,21.29c-5.91,5.12-13.19,7.69-21.81,7.69
			c-10.8,0-19.48-3.53-26.04-10.59s-9.85-17.18-9.85-30.35c0-8.52,1.41-15.98,4.23-22.36c2.82-6.39,7.12-11.19,12.89-14.38
			c5.77-3.19,12.04-4.79,18.84-4.79c8.57,0,15.58,2.16,21.02,6.5c5.44,4.34,8.94,10.49,10.48,18.46l-13,2
			c-1.24-5.3-3.43-9.29-6.58-11.96c-3.15-2.67-6.94-4.01-11.4-4.01c-6.74,0-12.22,2.41-16.42,7.24c-4.21,4.83-6.31,12.47-6.31,22.92
			c0,10.45,2.03,18.3,6.1,23.1c4.06,4.8,9.37,7.21,15.9,7.21c5.25,0,9.63-1.61,13.15-4.83c3.51-3.21,5.74-8.18,6.69-14.86
			L1943.63,3759.42z"/>
		<path class="st1" d="M1960.47,3788.32v-78.9h12.03v11.96c3.08-5.59,5.9-9.29,8.51-11.07c2.6-1.78,5.46-2.68,8.58-2.68
			c4.51,0,9.09,1.44,13.75,4.31l-4.61,12.41c-3.27-1.93-6.54-2.89-9.8-2.89c-2.93,0-5.55,0.88-7.88,2.64
			c-2.33,1.76-3.99,4.2-4.98,7.32c-1.49,4.76-2.23,9.95-2.23,15.6v41.31H1960.47z"/>
		<path class="st1" d="M2057.69,3762.92l13.82,1.7c-2.19,8.08-6.22,14.34-12.11,18.79c-5.89,4.46-13.43,6.69-22.59,6.69
			c-11.54,0-20.69-3.56-27.45-10.66c-6.76-7.1-10.14-17.08-10.14-29.91s3.42-23.57,10.25-30.9c6.84-7.33,15.7-10.99,26.6-10.99
			c10.9,0,19.17,3.59,25.86,10.77c6.69,7.18,10.03,17.28,10.03,30.31c0,0.79-0.02,1.98-0.07,3.57h-58.84
			c0.49,8.67,2.95,15.3,7.35,19.91s9.9,6.91,16.49,6.91c4.91,0,9.09-1.29,12.56-3.87c3.46-2.57,6.22-6.69,8.25-12.33
			L2057.69,3762.92z M2013.78,3741.29h44.06c-0.59-6.63-2.28-11.62-5.05-14.94c-4.26-5.15-9.78-7.73-16.57-7.73
			c-6.14,0-11.3,2.06-15.49,6.16c-4.19,4.11-6.5,9.61-6.94,16.49L2013.78,3741.29z"/>
		<path class="st1" d="M2132.18,3778.59c-4.95,4.21-9.72,7.18-14.31,8.92s-9.49,2.6-14.74,2.6c-8.67,0-15.33-2.12-19.98-6.35
			c-4.65-4.23-6.99-9.64-6.99-16.23c0-3.87,0.88-7.39,2.64-10.59s4.06-5.75,6.91-7.69c2.85-1.93,6.05-3.4,9.62-4.38
			c2.63-0.7,6.59-1.36,11.88-2c10.8-1.29,18.75-2.82,23.85-4.61c0.05-1.83,0.07-3,0.07-3.49c0-5.44-1.26-9.29-3.79-11.52
			c-3.42-3.02-8.5-4.53-15.23-4.53c-6.29,0-10.93,1.1-13.93,3.3c-3,2.21-5.22,6.11-6.65,11.7l-13.07-1.78
			c1.19-5.59,3.15-10.12,5.87-13.55c2.72-3.44,6.66-6.1,11.81-7.95c5.15-1.85,11.12-2.79,17.91-2.79c6.78,0,12.21,0.79,16.42,2.38
			s7.31,3.58,9.29,5.98c1.98,2.4,3.36,5.43,4.16,9.1c0.45,2.28,0.66,6.39,0.66,12.33v17.83c0,12.43,0.29,20.3,0.86,23.58
			c0.57,3.29,1.69,6.45,3.38,9.47h-13.97c-1.38-2.78-2.28-6.02-2.68-9.73L2132.18,3778.59z M2131.07,3748.73
			c-4.85,1.98-12.14,3.66-21.84,5.05c-5.5,0.79-9.39,1.68-11.67,2.68c-2.28,0.99-4.04,2.44-5.27,4.35
			c-1.24,1.91-1.85,4.03-1.85,6.35c0,3.57,1.35,6.54,4.05,8.92c2.7,2.38,6.65,3.57,11.85,3.57c5.2,0,9.73-1.12,13.75-3.39
			c4.01-2.25,6.95-5.34,8.84-9.25c1.44-3.02,2.15-7.48,2.15-13.37v-4.91H2131.07z"/>
		<path class="st1" d="M2186.91,3776.37l1.93,11.81c-3.76,0.79-7.14,1.19-10.1,1.19c-4.85,0-8.62-0.77-11.29-2.3
			c-2.68-1.53-4.55-3.56-5.65-6.05c-1.09-2.5-1.64-7.77-1.64-15.78v-45.39h-9.8v-10.4h9.8v-19.54l13.3-8.03v27.56h13.45v10.4h-13.45
			v46.14c0,3.81,0.24,6.27,0.71,7.35c0.47,1.09,1.24,1.96,2.3,2.6c1.06,0.64,2.59,0.96,4.56,0.96c1.49,0,3.44-0.17,5.87-0.53
			L2186.91,3776.37z"/>
		<path class="st1" d="M2192.46,3694.79v-15.38h13.37v15.38H2192.46z M2192.46,3788.32v-78.9h13.37v78.9H2192.46z"/>
		<path class="st1" d="M2240.5,3788.32l-30.01-78.9h14.11l16.94,47.26c1.83,5.1,3.51,10.4,5.05,15.9c1.19-4.16,2.85-9.16,4.98-15.01
			l17.53-48.14h13.75l-29.86,78.9H2240.5z"/>
		<path class="st1" d="M2341.06,3762.92l13.82,1.7c-2.19,8.08-6.21,14.34-12.11,18.79c-5.89,4.46-13.43,6.69-22.59,6.69
			c-11.54,0-20.69-3.56-27.45-10.66c-6.76-7.1-10.14-17.08-10.14-29.91s3.42-23.57,10.25-30.9c6.84-7.33,15.7-10.99,26.6-10.99
			c10.9,0,19.17,3.59,25.86,10.77c6.69,7.18,10.03,17.28,10.03,30.31c0,0.79-0.02,1.98-0.08,3.57h-58.84
			c0.49,8.67,2.95,15.3,7.35,19.91s9.9,6.91,16.49,6.91c4.91,0,9.09-1.29,12.56-3.87c3.46-2.57,6.21-6.69,8.25-12.33
			L2341.06,3762.92z M2297.15,3741.29h44.06c-0.59-6.63-2.28-11.62-5.05-14.94c-4.26-5.15-9.78-7.73-16.57-7.73
			c-6.14,0-11.3,2.06-15.49,6.16c-4.19,4.11-6.5,9.61-6.94,16.49L2297.15,3741.29z"/>
		<path class="st1" d="M2402.89,3788.32V3679.4h14.41v108.92H2402.89z"/>
		<path class="st1" d="M2433.4,3788.32v-78.9h12.03v11.22c5.8-8.67,14.17-13,25.12-13c4.76,0,9.13,0.86,13.12,2.56
			s6.98,3.95,8.96,6.72c1.98,2.78,3.36,6.06,4.16,9.88c0.49,2.48,0.74,6.81,0.74,13v48.52h-13.37v-47.99
			c0-5.44-0.53-9.53-1.56-12.23c-1.04-2.7-2.88-4.85-5.54-6.46c-2.66-1.61-5.75-2.41-9.32-2.41c-5.7,0-10.61,1.81-14.74,5.42
			c-4.14,3.62-6.2,10.48-6.2,20.58v43.09H2433.4L2433.4,3788.32z"/>
		<path class="st1" d="M2507.96,3794.87l13,1.93c0.55,4.01,2.06,6.93,4.53,8.77c3.32,2.48,7.85,3.72,13.6,3.72
			c6.19,0,10.97-1.24,14.34-3.72c3.36-2.48,5.65-5.95,6.84-10.4c0.7-2.72,1.02-8.44,0.96-17.17c-5.84,6.89-13.13,10.33-21.84,10.33
			c-10.84,0-19.24-3.91-25.18-11.74c-5.95-7.82-8.92-17.21-8.92-28.16c0-7.53,1.36-14.48,4.08-20.84
			c2.72-6.36,6.68-11.28,11.85-14.74c5.18-3.47,11.25-5.2,18.24-5.2c9.31,0,16.98,3.76,23.03,11.29v-9.52h12.33v68.2
			c0,12.28-1.25,20.99-3.75,26.11c-2.5,5.13-6.46,9.17-11.88,12.15s-12.1,4.46-20.03,4.46c-9.41,0-17.02-2.12-22.81-6.35
			c-5.8-4.23-8.59-10.61-8.39-19.13L2507.96,3794.87z M2519.03,3747.47c0,10.35,2.06,17.91,6.16,22.66
			c4.1,4.76,9.26,7.14,15.45,7.14c6.19,0,11.29-2.37,15.45-7.09s6.24-12.15,6.24-22.26s-2.14-16.94-6.43-21.84
			c-4.29-4.91-9.45-7.35-15.49-7.35c-6.04,0-10.99,2.41-15.15,7.24c-4.16,4.83-6.24,12-6.24,21.51L2519.03,3747.47z"/>
		<path class="st1" d="M2641.45,3762.92l13.82,1.7c-2.19,8.08-6.22,14.34-12.11,18.79c-5.89,4.46-13.43,6.69-22.59,6.69
			c-11.54,0-20.69-3.56-27.45-10.66c-6.76-7.1-10.14-17.08-10.14-29.91s3.42-23.57,10.25-30.9s15.7-10.99,26.6-10.99
			c10.9,0,19.17,3.59,25.86,10.77c6.69,7.18,10.03,17.28,10.03,30.31c0,0.79-0.02,1.98-0.07,3.57h-58.84
			c0.49,8.67,2.95,15.3,7.35,19.91s9.9,6.91,16.49,6.91c4.91,0,9.09-1.29,12.56-3.87c3.46-2.57,6.21-6.69,8.25-12.33
			L2641.45,3762.92z M2597.53,3741.29h44.06c-0.59-6.63-2.28-11.62-5.05-14.94c-4.26-5.15-9.78-7.73-16.57-7.73
			c-6.14,0-11.3,2.06-15.49,6.16c-4.19,4.11-6.5,9.61-6.94,16.49L2597.53,3741.29z"/>
		<path class="st1" d="M2664.44,3788.32v-78.9h12.03v11.22c5.8-8.67,14.17-13,25.12-13c4.76,0,9.13,0.86,13.12,2.56
			s6.98,3.95,8.95,6.72c1.98,2.78,3.36,6.06,4.16,9.88c0.49,2.48,0.74,6.81,0.74,13v48.52h-13.37v-47.99
			c0-5.44-0.53-9.53-1.56-12.23c-1.04-2.7-2.88-4.85-5.54-6.46c-2.65-1.61-5.75-2.41-9.32-2.41c-5.7,0-10.61,1.81-14.74,5.42
			c-4.14,3.62-6.2,10.48-6.2,20.58v43.09h-13.37H2664.44z"/>
		<path class="st1" d="M2793.17,3788.32v-11.59c-6.14,8.92-14.49,13.37-25.04,13.37c-4.66,0-9-0.89-13.04-2.68
			c-4.04-1.79-7.03-4.02-8.99-6.73c-1.96-2.7-3.33-6-4.13-9.92c-0.55-2.63-0.81-6.78-0.81-12.48v-48.88h13.37v43.76
			c0,6.99,0.27,11.69,0.81,14.11c0.85,3.51,2.63,6.28,5.35,8.28c2.72,2,6.1,3.01,10.1,3.01c4.01,0,7.78-1.03,11.29-3.09
			c3.51-2.06,6-4.85,7.47-8.39c1.46-3.54,2.19-8.68,2.19-15.42v-42.27h13.37v78.9h-11.96L2793.17,3788.32z"/>
		<path class="st1" d="M2818.55,3694.79v-15.38h13.37v15.38H2818.55z M2818.55,3788.32v-78.9h13.37v78.9H2818.55z"/>
		<path class="st1" d="M2873.88,3776.37l1.93,11.81c-3.76,0.79-7.14,1.19-10.1,1.19c-4.85,0-8.62-0.77-11.29-2.3
			c-2.68-1.53-4.55-3.56-5.65-6.05c-1.09-2.5-1.64-7.77-1.64-15.78v-45.39h-9.8v-10.4h9.8v-19.54l13.3-8.03v27.56h13.45v10.4h-13.45
			v46.14c0,3.81,0.24,6.27,0.71,7.35c0.47,1.09,1.23,1.96,2.3,2.6c1.06,0.64,2.59,0.96,4.56,0.96c1.49,0,3.44-0.17,5.87-0.53
			L2873.88,3776.37z"/>
		<path class="st1" d="M2878.75,3818.71l-1.49-12.56c2.93,0.79,5.48,1.19,7.65,1.19c2.97,0,5.35-0.49,7.14-1.49
			c1.78-0.99,3.25-2.38,4.38-4.16c0.85-1.34,2.21-4.66,4.08-9.95c0.25-0.74,0.64-1.83,1.19-3.27l-29.94-79.05h14.41l16.42,45.69
			c2.13,5.8,4.04,11.88,5.72,18.28c1.53-6.14,3.36-12.13,5.5-17.98l16.87-45.99h13.37l-30.01,80.24c-3.21,8.67-5.72,14.64-7.5,17.91
			c-2.38,4.4-5.1,7.64-8.18,9.7s-6.74,3.09-10.99,3.09C2884.8,3820.35,2881.92,3819.81,2878.75,3818.71L2878.75,3818.71z"/>
	</g>

	<g>
		<path class="st3" d="M2342.44,3102.25c-557.26-557.26-1253.67,139.14-696.41,696.41l696.41,696.41l696.41-696.41
			C3596.11,3241.39,2899.7,2544.98,2342.44,3102.25z"/>
	</g>
	<g>
		<path class="st4" d="M2342.44,3036.13c-619.18-619.18-1392.97,154.6-773.79,773.79l773.79,773.79l773.79-773.79
			C3735.41,3190.74,2961.62,2416.95,2342.44,3036.13z"/>
	</g>
	<g>
		<path class="st5" d="M2342.44,2962.67c-687.98-687.98-1547.74,171.78-859.76,859.76l859.76,859.76l859.76-859.76
			C3890.18,3134.45,3030.42,2274.69,2342.44,2962.67z"/>
	</g>
	<g>
		<path class="st6" d="M2342.44,2881.05c-764.42-764.42-1719.72,190.87-955.29,955.29l955.29,955.29l955.29-955.29
			C4062.15,3071.92,3106.86,2116.63,2342.44,2881.05z"/>
	</g>
	<g>
		<path class="st7" d="M3403.87,3851.79l-967.19,967.2H2248.2l-967.2-967.2C431.64,3002.44,1493.08,1941,2342.44,2790.36
			C3191.8,1941,4253.23,3002.44,3403.87,3851.79z"/>
	</g>
	<g>
		<path class="st8" d="M3521.81,3868.96l-950.02,950.03h-458.7l-950.03-950.03c-943.73-943.73,235.64-2123.1,1179.38-1179.37
			C3286.17,1745.86,4465.54,2925.23,3521.81,3868.96z"/>
	</g>
	<g>
		<path class="st9" d="M3652.85,3888.04l-930.94,930.95h-758.94l-930.95-930.95C-16.57,2839.45,1293.85,1529.03,2342.44,2577.62
			C3391.03,1529.03,4701.44,2839.45,3652.85,3888.04z"/>
	</g>
	<g>
		<path class="st10" d="M3798.45,3909.24l-909.75,909.75H1796.18l-909.76-909.75c-1165.1-1165.1,290.92-2621.12,1456.02-1456.02
			C3507.54,1288.12,4963.56,2744.14,3798.45,3909.24z"/>
	</g>
	<g>
		<path class="st11" d="M3960.23,3932.79l-886.2,886.2H1796.18l-186.34-1l-885.2-885.2
			c-1294.56-1294.56,323.24-2912.36,1617.8-1617.8C3636.99,1020.43,5254.79,2638.23,3960.23,3932.79z"/>
	</g>
</g>
<polyline class="st11" points="1609.84,4817.99 1796.18,4818.99 3074.03,4818.99 "/>
<g>
	<g class="st12">
		<path class="cls-all" d="M375.38,543.55l-123.1,169.77l-64.81-51.83l124.4-172.36l-196.99-63.51l27.23-77.76l191.8,62.21V205.31
			h82.95v204.76l191.8-62.21l27.23,77.76l-196.99,63.51l124.4,172.36l-64.81,51.83L375.36,543.55H375.38z"/>
		<path class="cls-all" d="M1283.85,714.62l206.05-509.31h142.54v922.71h-106.26V832.56c0-194.4,1.3-351.19,3.89-470.43
			c-20.74,57.02-47.94,127-81.65,209.95l-228.09,555.97h-93.31L897.64,572.07c-33.69-82.95-60.92-152.92-81.65-209.95
			c2.6,119.23,3.89,276.03,3.89,470.43v295.47H713.62V205.31h142.54l213.84,524.86c31.94,78.63,66.95,167.17,104.96,265.67
			c52.68-139.97,88.97-233.7,108.85-281.22H1283.85z"/>
		<path class="cls-all" d="M2194.88,420.42l134.78-215.14h123.13L2100.3,757.37V1128h-108.85V757.37l-352.51-552.06h124.4
			l136.08,216.43c58.74,91.58,107.98,171.07,147.73,238.45c55.28-93.31,104.54-173.21,147.73-239.74V420.42z"/>
		<path class="cls-all" d="M2568.11,205.31v824.22h463.96v98.5h-572.82V205.31H2568.11z"/>
		<path class="cls-all" d="M3400.14,752.2v-98.5h392.67v474.32h-89.41l-23.33-124.4c-68.25,96.78-168.92,145.14-301.96,145.14
			s-237.6-44.49-316.21-133.48c-80.36-88.12-120.53-204.31-120.53-348.62s39.73-260.03,119.24-349.92
			c78.59-88.12,184.87-132.16,318.8-132.16c109.7,0,200.44,29.37,272.16,88.12c71.7,58.77,115.34,136.95,130.89,234.58H3669.7
			c-11.23-68.23-44.07-122.68-98.5-163.28c-52.7-39.73-116.64-59.62-191.8-59.62c-98.5,0-177.13,34.56-235.87,103.69
			c-58.77,69.13-88.12,161.98-88.12,278.62s29.37,209.52,88.12,278.62c58.74,69.13,137.38,103.69,235.87,103.69
			c87.24,0,161.56-28.07,222.9-84.25c61.34-56.15,92.01-127,92.01-212.54L3400.14,752.2L3400.14,752.2z"/>
		<path class="cls-all" d="M3994.97,1128.02h-130.89V998.43h130.89V1128.02z M3961.28,886.98h-67.38l-18.14-427.66V205.31h108.85
			v254.02L3961.28,886.98z"/>
		<path class="cls-all" d="M4307.28,543.55l-123.1,169.77l-64.81-51.83l124.4-172.36l-196.99-63.51l27.23-77.76l191.8,62.21V205.31
			h82.95v204.76l191.8-62.21l27.23,77.76l-196.99,63.51l124.4,172.36l-64.81,51.83l-123.13-169.77H4307.28z"/>
	</g>
	<g class="st14">
		<path class="cls-all" d="M375.38,626.12l-123.1,169.77l-64.81-51.83l124.4-172.36l-196.99-63.51l27.23-77.76l191.8,62.21V287.88
			h82.95v204.76l191.8-62.21l27.23,77.76L438.89,571.7l124.4,172.36l-64.81,51.83L375.36,626.12H375.38z"/>
		<path class="cls-all" d="M1283.85,797.19l206.05-509.31h142.54v922.71h-106.26V915.13c0-194.4,1.3-351.19,3.89-470.43
			c-20.74,57.02-47.94,127-81.65,209.95l-228.09,555.97h-93.31L897.64,654.65c-33.69-82.95-60.92-152.92-81.65-209.95
			c2.6,119.23,3.89,276.03,3.89,470.43v295.47H713.62V287.88h142.54l213.84,524.86c31.94,78.63,66.95,167.17,104.96,265.67
			c52.68-139.97,88.97-233.7,108.85-281.22L1283.85,797.19z"/>
		<path class="cls-all" d="M2194.88,503l134.78-215.14h123.13L2100.3,839.94v370.63h-108.85V839.94l-352.49-552.08h124.4l136.08,216.43
			c58.74,91.58,107.98,171.07,147.73,238.45c55.28-93.31,104.54-173.21,147.73-239.74L2194.88,503z"/>
		<path class="cls-all" d="M2568.11,287.88v824.22h463.96v98.5h-572.82V287.88H2568.11z"/>
		<path class="cls-all" d="M3400.14,834.77v-98.5h392.67v474.32h-89.41l-23.33-124.4c-68.25,96.78-168.92,145.14-301.96,145.14
			s-237.6-44.49-316.21-133.48c-80.36-88.12-120.53-204.31-120.53-348.62s39.73-260.03,119.24-349.92
			c78.61-88.12,184.87-132.19,318.8-132.19c109.7,0,200.44,29.37,272.16,88.12c71.7,58.77,115.34,136.95,130.89,234.58H3669.7
			c-11.23-68.23-44.07-122.68-98.5-163.28c-52.7-39.73-116.64-59.62-191.8-59.62c-98.5,0-177.13,34.56-235.87,103.69
			c-58.77,69.13-88.12,161.98-88.12,278.62s29.37,209.52,88.12,278.62c58.74,69.13,137.38,103.69,235.87,103.69
			c87.24,0,161.56-28.07,222.9-84.25c61.34-56.15,92.01-127,92.01-212.54h-294.17L3400.14,834.77z"/>
		<path class="cls-all" d="M3994.97,1210.6h-130.89v-129.59h130.89V1210.6z M3961.28,969.56h-67.38l-18.14-427.66V287.88h108.85V541.9
			L3961.28,969.56z"/>
		<path class="cls-all" d="M4307.28,626.12l-123.1,169.77l-64.81-51.83l124.4-172.36l-196.99-63.51l27.23-77.76l191.8,62.21V287.88
			h82.95v204.76l191.8-62.21l27.23,77.76l-196.99,63.51l124.4,172.36l-64.81,51.83l-123.13-169.77H4307.28z"/>
	</g>
	<g>
		<path class="cls-all" d="M375.38,708.7l-123.1,169.77l-64.81-51.83l124.4-172.36l-196.99-63.51L142.1,513l191.8,62.21V370.46h82.95
			v204.76L608.66,513l27.23,77.76l-196.99,63.51l124.4,172.36l-64.81,51.83L375.36,708.7H375.38z"/>
		<path class="cls-all" d="M1283.85,879.76l206.05-509.31h142.54v922.71h-106.26V997.7c0-194.4,1.3-351.19,3.89-470.43
			c-20.74,57.02-47.94,127-81.65,209.95l-228.09,555.97h-93.31L897.64,737.22c-33.69-82.95-60.92-152.92-81.65-209.95
			c2.6,119.23,3.89,276.03,3.89,470.43v295.47H713.62V370.46h142.54l213.84,524.86c31.94,78.63,66.95,167.17,104.96,265.67
			c52.68-139.97,88.97-233.7,108.85-281.22L1283.85,879.76z"/>
		<path class="cls-all" d="M2194.88,585.57l134.78-215.14h123.13L2100.3,922.51v370.63h-108.85V922.51l-352.49-552.08h124.4
			l136.08,216.43c58.74,91.58,107.98,171.07,147.73,238.45c55.28-93.31,104.54-173.21,147.73-239.74L2194.88,585.57z"/>
		<path class="cls-all" d="M2568.11,370.46v824.22h463.96v98.5h-572.82V370.46H2568.11z"/>
		<path class="cls-all" d="M3400.14,917.35v-98.5h392.67v474.32h-89.41l-23.33-124.4c-68.25,96.78-168.92,145.14-301.96,145.14
			s-237.6-44.49-316.21-133.48c-80.36-88.12-120.53-204.31-120.53-348.62s39.73-260.03,119.24-349.92
			c78.61-88.12,184.87-132.19,318.8-132.19c109.7,0,200.44,29.37,272.16,88.12c71.7,58.77,115.34,136.95,130.89,234.58H3669.7
			c-11.23-68.23-44.07-122.68-98.5-163.28c-52.7-39.73-116.64-59.62-191.8-59.62c-98.5,0-177.13,34.56-235.87,103.69
			c-58.77,69.13-88.12,161.98-88.12,278.62s29.37,209.52,88.12,278.62c58.74,69.12,137.38,103.69,235.87,103.69
			c87.24,0,161.56-28.07,222.9-84.25c61.34-56.15,92.01-127,92.01-212.54h-294.17L3400.14,917.35z"/>
		<path class="cls-all" d="M3994.97,1293.17h-130.89v-129.59h130.89V1293.17z M3961.28,1052.13h-67.38l-18.14-427.66V370.46h108.85
			v254.02L3961.28,1052.13z"/>
		<path class="cls-all" d="M4307.28,708.7l-123.1,169.77l-64.81-51.83l124.4-172.36l-196.99-63.51L4074,513l191.8,62.21V370.46h82.95
			v204.76l191.8-62.21l27.23,77.76l-196.99,63.51l124.4,172.36l-64.81,51.83L4307.26,708.7H4307.28z"/>
	</g>
	<g class="st15">
		<path class="cls-all" d="M375.38,791.27l-123.1,169.77l-64.81-51.83l124.4-172.36l-196.99-63.51l27.23-77.76l191.8,62.21V453.03
			h82.95v204.76l191.8-62.21l27.23,77.76l-196.99,63.51l124.4,172.36l-64.81,51.83L375.36,791.27H375.38z"/>
		<path class="cls-all" d="M1283.85,962.34l206.05-509.31h142.54v922.71h-106.26v-295.47c0-194.4,1.3-351.19,3.89-470.43
			c-20.74,57.02-47.94,127-81.65,209.95l-228.09,555.97h-93.31L897.64,819.79c-33.69-82.95-60.92-152.92-81.65-209.95
			c2.6,119.23,3.89,276.03,3.89,470.43v295.47H713.62V453.03h142.54l213.84,524.86c31.94,78.63,66.95,167.17,104.96,265.67
			c52.68-139.97,88.97-233.7,108.85-281.22L1283.85,962.34z"/>
		<path class="cls-all" d="M2194.88,668.14l134.78-215.14h123.13l-352.49,552.08v370.63h-108.85v-370.63l-352.49-552.08h124.4
			l136.08,216.43c58.74,91.58,107.98,171.07,147.73,238.45c55.28-93.31,104.54-173.21,147.73-239.74L2194.88,668.14z"/>
		<path class="cls-all" d="M2568.11,453.03v824.22h463.96v98.5h-572.82V453.03H2568.11z"/>
		<path class="cls-all" d="M3400.14,999.92v-98.5h392.67v474.32h-89.41l-23.33-124.4c-68.25,96.78-168.92,145.14-301.96,145.14
			s-237.6-44.49-316.21-133.48c-80.36-88.12-120.53-204.31-120.53-348.62s39.73-260.03,119.24-349.92
			c78.61-88.12,184.87-132.19,318.8-132.19c109.7,0,200.44,29.37,272.16,88.12c71.7,58.77,115.34,136.95,130.89,234.58H3669.7
			c-11.23-68.23-44.07-122.68-98.5-163.28c-52.7-39.73-116.64-59.62-191.8-59.62c-98.5,0-177.13,34.56-235.87,103.69
			c-58.77,69.13-88.12,161.98-88.12,278.62s29.37,209.52,88.12,278.62c58.74,69.12,137.38,103.69,235.87,103.69
			c87.24,0,161.56-28.07,222.9-84.25c61.34-56.15,92.01-127,92.01-212.54h-294.17L3400.14,999.92z"/>
		<path class="cls-all" d="M3994.97,1375.74h-130.89v-129.59h130.89V1375.74z M3961.28,1134.7h-67.38l-18.14-427.66V453.03h108.85
			v254.02L3961.28,1134.7z"/>
		<path class="cls-all" d="M4307.28,791.27l-123.1,169.77l-64.81-51.83l124.4-172.36l-196.99-63.51l27.23-77.76l191.8,62.21V453.03
			h82.95v204.76l191.8-62.21l27.23,77.76l-196.99,63.51l124.4,172.36l-64.81,51.83l-123.13-169.77H4307.28z"/>
	</g>
	<g class="st16">
		<path class="cls-all" d="M375.38,873.84l-123.1,169.77l-64.81-51.83l124.4-172.36l-196.99-63.51l27.23-77.76l191.8,62.21V535.6h82.95
			v204.76l191.8-62.21l27.23,77.76l-196.99,63.51l124.4,172.36l-64.81,51.83L375.36,873.84H375.38z"/>
		<path class="cls-all" d="M1283.85,1044.91L1489.9,535.6h142.54v922.71h-106.26v-295.47c0-194.4,1.3-351.19,3.89-470.43
			c-20.74,57.02-47.94,127-81.65,209.95l-228.09,555.97h-93.31L897.64,902.37c-33.69-82.95-60.92-152.92-81.65-209.95
			c2.6,119.23,3.89,276.03,3.89,470.43v295.47H713.62V535.6h142.54l213.84,524.86c31.94,78.63,66.95,167.17,104.96,265.67
			c52.68-139.97,88.97-233.7,108.85-281.22H1283.85z"/>
		<path class="cls-all" d="M2194.88,750.71l134.78-215.14h123.13l-352.49,552.08v370.63h-108.85v-370.63l-352.49-552.08h124.4
			l136.08,216.43c58.74,91.58,107.98,171.07,147.73,238.45c55.28-93.31,104.54-173.21,147.73-239.74L2194.88,750.71z"/>
		<path class="cls-all" d="M2568.11,535.6v824.22h463.96v98.5h-572.82V535.6H2568.11z"/>
		<path class="cls-all" d="M3400.14,1082.49v-98.5h392.67v474.32h-89.41l-23.33-124.4c-68.25,96.78-168.92,145.14-301.96,145.14
			s-237.6-44.49-316.21-133.48c-80.36-88.12-120.53-204.31-120.53-348.62s39.73-260.03,119.24-349.92
			c78.61-88.12,184.87-132.19,318.8-132.19c109.7,0,200.44,29.37,272.16,88.12c71.7,58.77,115.34,136.95,130.89,234.58H3669.7
			c-11.23-68.23-44.07-122.68-98.5-163.28c-52.7-39.73-116.64-59.62-191.8-59.62c-98.5,0-177.13,34.56-235.87,103.69
			c-58.77,69.13-88.12,161.98-88.12,278.62s29.37,209.52,88.12,278.62c58.74,69.13,137.38,103.69,235.87,103.69
			c87.24,0,161.56-28.07,222.9-84.25c61.34-56.15,92.01-127,92.01-212.54h-294.17L3400.14,1082.49z"/>
		<path class="cls-all" d="M3994.97,1458.32h-130.89v-129.59h130.89V1458.32z M3961.28,1217.27h-67.38l-18.14-427.66V535.6h108.85
			v254.02L3961.28,1217.27z"/>
		<path class="cls-all" d="M4307.28,873.84l-123.1,169.77l-64.81-51.83l124.4-172.36l-196.99-63.51l27.23-77.76l191.8,62.21V535.6
			h82.95v204.76l191.8-62.21l27.23,77.76l-196.99,63.51l124.4,172.36l-64.81,51.83l-123.13-169.77H4307.28z"/>
	</g>
	<g class="st17">
		<path class="cls-all" d="M375.38,956.42l-123.1,169.77l-64.81-51.83l124.4-172.36l-196.99-63.51l27.23-77.76l191.8,62.21V618.17
			h82.95v204.76l191.8-62.21l27.23,77.76l-196.99,63.51l124.4,172.36l-64.81,51.83L375.36,956.42H375.38z"/>
		<path class="cls-all" d="M1283.85,1127.48l206.05-509.31h142.54v922.71h-106.26v-295.47c0-194.4,1.3-351.19,3.89-470.43
			c-20.74,57.02-47.94,127-81.65,209.95l-228.09,555.97h-93.31L897.64,984.94c-33.69-82.95-60.92-152.92-81.65-209.95
			c2.6,119.23,3.89,276.03,3.89,470.43v295.47H713.62V618.17h142.54l213.84,524.86c31.94,78.63,66.95,167.17,104.96,265.67
			c52.68-139.97,88.97-233.7,108.85-281.22L1283.85,1127.48z"/>
		<path class="cls-all" d="M2194.88,833.29l134.78-215.14h123.13l-352.49,552.08v370.63h-108.85v-370.63l-352.49-552.08h124.4
			l136.08,216.43c58.74,91.58,107.98,171.07,147.73,238.45c55.28-93.31,104.54-173.21,147.73-239.74L2194.88,833.29z"/>
		<path class="cls-all" d="M2568.11,618.17v824.22h463.96v98.5h-572.82V618.17H2568.11z"/>
		<path class="cls-all" d="M3400.14,1165.06v-98.5h392.67v474.32h-89.41l-23.33-124.4c-68.25,96.78-168.92,145.14-301.96,145.14
			s-237.6-44.49-316.21-133.48c-80.36-88.12-120.53-204.31-120.53-348.62s39.73-260.03,119.24-349.92
			c78.61-88.12,184.87-132.19,318.8-132.19c109.7,0,200.44,29.37,272.16,88.12c71.7,58.77,115.34,136.95,130.89,234.58H3669.7
			c-11.23-68.23-44.07-122.68-98.5-163.28c-52.7-39.73-116.64-59.62-191.8-59.62c-98.5,0-177.13,34.56-235.87,103.69
			c-58.77,69.13-88.12,161.98-88.12,278.62s29.37,209.52,88.12,278.62c58.74,69.13,137.38,103.69,235.87,103.69
			c87.24,0,161.56-28.07,222.9-84.25c61.34-56.15,92.01-127,92.01-212.54h-294.17L3400.14,1165.06z"/>
		<path class="cls-all" d="M3994.97,1540.89h-130.89V1411.3h130.89V1540.89z M3961.28,1299.85h-67.38l-18.14-427.66V618.17h108.85
			v254.02L3961.28,1299.85z"/>
		<path class="cls-all" d="M4307.28,956.42l-123.1,169.77l-64.81-51.83l124.4-172.36l-196.99-63.51l27.23-77.76l191.8,62.21V618.17
			h82.95v204.76l191.8-62.21l27.23,77.76l-196.99,63.51l124.4,172.36l-64.81,51.83l-123.13-169.77H4307.28z"/>
	</g>
	<g class="st18">
		<path class="cls-all" d="M375.38,1038.99l-123.1,169.77l-64.81-51.83l124.4-172.36l-196.99-63.51l27.23-77.76l191.8,62.21V700.75
			h82.95V905.5l191.8-62.21l27.23,77.76l-196.99,63.51l124.4,172.36l-64.81,51.83l-123.13-169.77H375.38z"/>
		<path class="cls-all" d="M1283.85,1210.05l206.05-509.31h142.54v922.71h-106.26v-295.47c0-194.4,1.3-351.19,3.89-470.43
			c-20.74,57.02-47.94,127-81.65,209.95l-228.09,555.97h-93.31l-229.39-555.97c-33.69-82.95-60.92-152.92-81.65-209.95
			c2.6,119.23,3.89,276.03,3.89,470.43v295.47H713.62V700.75h142.54l213.84,524.86c31.94,78.63,66.95,167.17,104.96,265.67
			c52.68-139.97,88.97-233.7,108.85-281.22L1283.85,1210.05z"/>
		<path class="cls-all" d="M2194.88,915.86l134.78-215.14h123.13L2100.3,1252.8v370.63h-108.85V1252.8l-352.49-552.08h124.4
			l136.08,216.43c58.74,91.58,107.98,171.07,147.73,238.45c55.28-93.31,104.54-173.21,147.73-239.74L2194.88,915.86z"/>
		<path class="cls-all" d="M2568.11,700.75v824.22h463.96v98.5h-572.82V700.75H2568.11z"/>
		<path class="cls-all" d="M3400.14,1247.64v-98.5h392.67v474.32h-89.41l-23.33-124.4c-68.25,96.78-168.92,145.14-301.96,145.14
			s-237.6-44.49-316.21-133.48c-80.36-88.12-120.53-204.31-120.53-348.62s39.73-260.03,119.24-349.92
			c78.61-88.12,184.87-132.19,318.8-132.19c109.7,0,200.44,29.37,272.16,88.12c71.7,58.77,115.34,136.95,130.89,234.58H3669.7
			c-11.23-68.23-44.07-122.68-98.5-163.28c-52.7-39.73-116.64-59.62-191.8-59.62c-98.5,0-177.13,34.56-235.87,103.69
			c-58.77,69.13-88.12,161.98-88.12,278.62s29.37,209.52,88.12,278.62c58.74,69.13,137.38,103.69,235.87,103.69
			c87.24,0,161.56-28.07,222.9-84.25c61.34-56.15,92.01-127,92.01-212.54h-294.17L3400.14,1247.64z"/>
		<path class="cls-all" d="M3994.97,1623.46h-130.89v-129.59h130.89V1623.46z M3961.28,1382.42h-67.38l-18.14-427.66V700.75h108.85
			v254.02L3961.28,1382.42z"/>
		<path class="cls-all" d="M4307.28,1038.99l-123.1,169.77l-64.81-51.83l124.4-172.36l-196.99-63.51l27.23-77.76l191.8,62.21V700.75
			h82.95V905.5l191.8-62.21l27.23,77.76l-196.99,63.51l124.4,172.36l-64.81,51.83l-123.13-169.77H4307.28z"/>
	</g>
	<g class="st19">
		<path class="cls-all" d="M375.38,1121.56l-123.1,169.77l-64.81-51.83l124.4-172.36l-196.99-63.51l27.23-77.76l191.8,62.21V783.32
			h82.95v204.76l191.8-62.21l27.23,77.76l-196.99,63.51l124.4,172.36l-64.81,51.83l-123.13-169.77H375.38z"/>
		<path class="cls-all" d="M1283.85,1292.63l206.05-509.31h142.54v922.71h-106.26v-295.47c0-194.4,1.3-351.19,3.89-470.43
			c-20.74,57.02-47.94,127-81.65,209.95l-228.09,555.97h-93.31l-229.39-555.97c-33.69-82.95-60.92-152.92-81.65-209.95
			c2.6,119.23,3.89,276.03,3.89,470.43v295.47H713.62V783.32h142.54l213.84,524.86c31.94,78.63,66.95,167.17,104.96,265.67
			c52.68-139.97,88.97-233.7,108.85-281.22L1283.85,1292.63z"/>
		<path class="cls-all" d="M2194.88,998.43l134.78-215.14h123.13l-352.49,552.08v370.63h-108.85v-370.63L1638.95,783.3h124.4
			l136.08,216.43c58.74,91.58,107.98,171.07,147.73,238.45c55.28-93.31,104.54-173.21,147.73-239.74L2194.88,998.43z"/>
		<path class="cls-all" d="M2568.11,783.32v824.22h463.96v98.5h-572.82V783.32H2568.11z"/>
		<path class="cls-all" d="M3400.14,1330.21v-98.5h392.67v474.32h-89.41l-23.33-124.4c-68.25,96.78-168.92,145.14-301.96,145.14
			s-237.6-44.49-316.21-133.48c-80.36-88.12-120.53-204.31-120.53-348.62s39.73-260.03,119.24-349.92
			c78.61-88.12,184.87-132.19,318.8-132.19c109.7,0,200.44,29.37,272.16,88.12c71.7,58.77,115.34,136.95,130.89,234.58H3669.7
			c-11.23-68.23-44.07-122.68-98.5-163.28c-52.7-39.73-116.64-59.62-191.8-59.62c-98.5,0-177.13,34.56-235.87,103.69
			c-58.77,69.12-88.12,161.98-88.12,278.62c0,116.64,29.37,209.52,88.12,278.62c58.74,69.13,137.38,103.69,235.87,103.69
			c87.24,0,161.56-28.07,222.9-84.25c61.34-56.15,92.01-127,92.01-212.54h-294.17L3400.14,1330.21z"/>
		<path class="cls-all" d="M3994.97,1706.03h-130.89v-129.59h130.89V1706.03z M3961.28,1464.99h-67.38l-18.14-427.66V783.32h108.85
			v254.02L3961.28,1464.99z"/>
		<path class="cls-all" d="M4307.28,1121.56l-123.1,169.77l-64.81-51.83l124.4-172.36l-196.99-63.51l27.23-77.76l191.8,62.21V783.32
			h82.95v204.76l191.8-62.21l27.23,77.76l-196.99,63.51l124.4,172.36l-64.81,51.83l-123.13-169.77H4307.28z"/>
	</g>
	<g class="st20">
		<path class="cls-all" d="M375.38,1204.13l-123.1,169.77l-64.81-51.83l124.4-172.36l-196.99-63.51l27.23-77.76l191.8,62.21V865.89
			h82.95v204.76l191.8-62.21l27.23,77.76l-196.99,63.51l124.4,172.36l-64.81,51.83l-123.13-169.77H375.38z"/>
		<path class="cls-all" d="M1283.85,1375.2l206.05-509.31h142.54v922.71h-106.26v-295.47c0-194.4,1.3-351.19,3.89-470.43
			c-20.74,57.02-47.94,127-81.65,209.95l-228.09,555.97h-93.31l-229.39-555.97c-33.69-82.95-60.92-152.92-81.65-209.95
			c2.6,119.23,3.89,276.03,3.89,470.43v295.47H713.62V865.89h142.54l213.84,524.86c31.94,78.63,66.95,167.17,104.96,265.67
			c52.68-139.97,88.97-233.7,108.85-281.22H1283.85z"/>
		<path class="cls-all" d="M2194.88,1081.01l134.78-215.14h123.13l-352.49,552.08v370.63h-108.85v-370.63l-352.49-552.08h124.4
			l136.08,216.43c58.74,91.58,107.98,171.07,147.73,238.45c55.28-93.31,104.54-173.21,147.73-239.74L2194.88,1081.01z"/>
		<path class="cls-all" d="M2568.11,865.89v824.22h463.96v98.5h-572.82V865.89H2568.11z"/>
		<path class="cls-all" d="M3400.14,1412.78v-98.5h392.67v474.32h-89.41l-23.33-124.4c-68.25,96.78-168.92,145.14-301.96,145.14
			s-237.6-44.49-316.21-133.48c-80.36-88.12-120.53-204.31-120.53-348.62s39.73-260.03,119.24-349.92
			c78.61-88.12,184.87-132.19,318.8-132.19c109.7,0,200.44,29.37,272.16,88.12c71.7,58.77,115.34,136.95,130.89,234.58H3669.7
			c-11.23-68.23-44.07-122.68-98.5-163.28c-52.7-39.73-116.64-59.62-191.8-59.62c-98.5,0-177.13,34.56-235.87,103.69
			c-58.77,69.13-88.12,161.98-88.12,278.62s29.37,209.52,88.12,278.62c58.74,69.12,137.38,103.69,235.87,103.69
			c87.24,0,161.56-28.07,222.9-84.25c61.34-56.15,92.01-127,92.01-212.54h-294.17L3400.14,1412.78z"/>
		<path class="cls-all" d="M3994.97,1788.61h-130.89v-129.59h130.89V1788.61z M3961.28,1547.56h-67.38l-18.14-427.66V865.89h108.85
			v254.02L3961.28,1547.56z"/>
		<path class="cls-all" d="M4307.28,1204.13l-123.1,169.77l-64.81-51.83l124.4-172.36l-196.99-63.51l27.23-77.76l191.8,62.21V865.89
			h82.95v204.76l191.8-62.21l27.23,77.76l-196.99,63.51l124.4,172.36l-64.81,51.83l-123.13-169.77H4307.28z"/>
	</g>
</g>
</svg>
