<?xml version="1.0" encoding="UTF-8"?>
<svg id="Layer_1" data-name="Layer 1" xmlns="http://www.w3.org/2000/svg" viewBox="0 0 50 51.93">
  <defs>
    <style>
      .cls-1 {
        fill: #fff;
      }
    </style>
  </defs>
  <g>
    <path class="cls-1" d="m25.14,47.58h-.27l-.22-21.26-21.26-.22v-.27l21.26-.22.22-21.26h.27l.22,21.26,21.26.22v.27l-21.26.22-.22,21.26Zm-8.68-21.62l8.46.09.09,8.46.09-8.46,8.46-.09-8.46-.09-.09-8.46-.09,8.46-8.46.09Z"/>
    <polygon class="cls-1" points="32.88 34.04 25 26.32 17.12 34.04 16.93 33.84 24.64 25.96 16.93 18.08 17.12 17.89 25 25.61 32.88 17.89 33.07 18.08 25.36 25.96 33.07 33.84 32.88 34.04"/>
  </g>
  <polygon class="cls-1" points="2.92 8.5 2.65 8.5 2.62 4.43 0 4.39 0 4.12 2.62 4.07 2.65 0 2.92 0 2.95 4.07 5.57 4.12 5.57 4.39 2.95 4.43 2.92 8.5"/>
  <polygon class="cls-1" points="47.35 8.5 47.08 8.5 47.05 4.43 44.42 4.39 44.42 4.12 47.05 4.07 47.08 0 47.35 0 47.38 4.07 50 4.12 50 4.39 47.38 4.43 47.35 8.5"/>
  <polygon class="cls-1" points="2.92 51.93 2.65 51.93 2.62 47.85 0 47.81 0 47.54 2.62 47.5 2.65 43.42 2.92 43.42 2.95 47.5 5.57 47.54 5.57 47.81 2.95 47.85 2.92 51.93"/>
  <polygon class="cls-1" points="47.35 51.93 47.08 51.93 47.05 47.85 44.42 47.81 44.42 47.54 47.05 47.5 47.08 43.42 47.35 43.42 47.38 47.5 50 47.54 50 47.81 47.38 47.85 47.35 51.93"/>
</svg>