<?xml version="1.0" encoding="UTF-8"?>
<svg id="Layer_1" data-name="Layer 1" xmlns="http://www.w3.org/2000/svg" viewBox="0 0 80.61 170.24">
  <defs>
    <style>
      .cls-1 {
        fill: #fff;
      }
    </style>
  </defs>
  <g>
    <path class="cls-1" d="m45.7,170.24l.68-.31c-1.29-2.84-2.78-5.72-4.36-8.77-3.56-6.86-7.24-13.96-8.6-20.86-1.3-6.63-2.2-10.31-6.87-14.95l-9.13-9.05-13.04-10.93c-2.99-2.5-4.28-6.56-3.31-10.33l5.48-21.18c.6-2.33,1.79-4.5,3.44-6.26l2.2-1.93-.49-.56-2.22,1.95c-1.76,1.88-3.01,4.16-3.64,6.61L.34,94.85c-1.05,4.05.35,8.4,3.55,11.09l13.02,10.91,9.11,9.03c4.53,4.49,5.36,7.9,6.67,14.56,1.37,7.01,5.08,14.15,8.67,21.06,1.58,3.04,3.07,5.92,4.35,8.74Z"/>
    <path class="cls-1" d="m8.13,101.89l.61-.43c-2.16-3.07-2.47-7.08-.82-10.45l.97-2.06c0-.21.39-20.8,6.67-31.3l-.64-.38c-6.18,10.33-6.74,30.12-6.77,31.59l-.9,1.83c-1.77,3.62-1.43,7.91.88,11.21Z"/>
    <path class="cls-1" d="m79.97,164.63l.64-.39-9.03-14.67c-.91-1.47-1.89-2.97-2.85-4.42-3.69-5.62-7.51-11.42-8.43-18-.52-3.77-.53-7.71-.53-11.52,0-1.78,0-3.62-.06-5.42-.2-6.49-1.72-13.33-4.66-20.93-.09-.24-.11-.37-.11-.42-.07-1.44-3.66-10.33-4.07-11.34,0-.07-2.81-13.05-3.39-16.22-.54-2.99-2.47-9.77-2.73-10.67,1.88-7.34.31-12.1.24-12.3-.03-.07-.45-1.04-1.52-1.1-1.64-.08-3.8,2.12-6.35,6.6-4.68,8.21-2.23,19.72-1.37,23.05.15.59.21,1.15.19,1.69-.12,2.15.36,6.62.79,10,.21,1.67-.29,3.36-1.36,4.63-1.29,1.54-2.6,3.5-3.37,4.72-.14-2.87-1.24-6.07-2.22-8.39-1.04-2.48-1.56-5.21-1.49-7.91.14-5.24-.46-11.24-.47-11.3-.03-.14-2.06-9.76-2.15-20.72-.08-9.33-2.83-15.77-5.36-17.81-.79-.63-1.6-.89-2.34-.73-2.37.49-2.39,6.24-2.42,13.52-.01,3.42-.03,6.96-.29,10.27-.75,9.6.32,33.98.45,36.72-1.85,5.26-1.98,10.8-.37,16.08l.72-.22c-1.55-5.13-1.43-10.51.36-15.56.04-.11.06-.23.05-.34-.12-2.74-1.19-27.07-.45-36.63.26-3.33.27-6.89.29-10.32.02-6.1.05-12.42,1.82-12.79.53-.11,1.11.09,1.72.58,2.47,2,5.01,8.55,5.08,17.23.09,11.04,2.13,20.73,2.16,20.83,0,.02.6,5.97.46,11.16-.08,2.8.46,5.64,1.54,8.22,1.11,2.62,2.38,6.39,2.15,9.41l-.12,1.59.82-1.37s2.03-3.41,4.01-5.76c1.21-1.43,1.76-3.33,1.53-5.21-.34-2.74-.9-7.66-.78-9.86.03-.61-.04-1.25-.21-1.92-.84-3.26-3.25-14.52,1.29-22.49,3.15-5.52,4.91-6.3,5.65-6.22.61.04.86.61.86.62,0,.02,1.57,4.78-.29,11.94l-.03.1.03.1c.02.08,2.16,7.54,2.74,10.7.58,3.18,3.38,16.17,3.41,16.3,1.61,3.98,3.99,10.16,4.04,11.16,0,.18.06.39.16.65,2.9,7.51,4.41,14.28,4.61,20.68.06,1.78.06,3.62.06,5.39,0,3.84.01,7.8.54,11.63.93,6.75,4.8,12.63,8.54,18.31.95,1.45,1.93,2.94,2.83,4.4l9.03,14.67Z"/>
    <path class="cls-1" d="m27.26,57.47c2.54-2.65,9.98-15.63,12.57-21.54,2.39-5.47,1.31-8.49,1.02-9.12.1-.71.2-2.15-.47-2.56-.21-.13-.57-.21-1.08.16-1.44,1.02-7.24,8.29-7.49,8.6l-6.73,9.34.61.44,6.72-9.33c2.05-2.58,6.24-7.68,7.32-8.44.18-.13.27-.13.27-.13.15.11.23.99.09,1.92l-.02.12.06.11s1.49,2.9-.99,8.58c-2.57,5.86-9.92,18.71-12.42,21.32l.54.52Z"/>
    <path class="cls-1" d="m27.69,60.64c.24-.2,5.81-4.87,7.88-10.36l-.7-.26c-2,5.3-7.6,10-7.66,10.04l.48.58Z"/>
    <path class="cls-1" d="m44.42,37.88c.03-.06.72-1.53-.62-3.29-.52-.68-1.13-1.02-1.8-.99-1.51.05-2.76,1.89-2.81,1.97l.62.42c.3-.45,1.28-1.61,2.22-1.64.39-.02.82.21,1.18.69,1.05,1.38.56,2.46.54,2.51l.67.33Z"/>
    <path class="cls-1" d="m44.08,50.95h.01s-.02-.75-.02-.75c-.13-.01-2.78.01-3.1-3.07-.35-3.33,2.78-8.96,2.82-9.02l-.65-.37c-.13.24-3.28,5.9-2.91,9.47.39,3.66,3.61,3.74,3.85,3.74Z"/>
    <path class="cls-1" d="m17.45,33.21c1.11,0,2.36-.44,2.97-1.96,1.04-2.61,1.09-7.89,1.1-8.11h-.75s-.05,5.35-1.04,7.83c-.88,2.2-3.39,1.32-3.5,1.28l-.26.7c.38.14.91.26,1.48.26Z"/>
    <path class="cls-1" d="m32.6,33.26c.14-.02,3.45-.49,4.99-2.65,1.41-1.98,3.12-3.28,3.13-3.3l-.45-.6c-.07.06-1.81,1.38-3.29,3.46-1.35,1.89-4.45,2.34-4.48,2.34l.1.74Z"/>
  </g>
  <g>
    <g>
      <rect class="cls-1" x="35.91" y="0" width=".75" height="16.17"/>
      <rect class="cls-1" x="21.55" y="23.88" width="6.65" height=".75"/>
      <rect class="cls-1" x="44.37" y="23.88" width="16.17" height=".75"/>
    </g>
    <g>
      <rect class="cls-1" x="23.42" y="6.56" width=".75" height="10.41" transform="translate(-1.35 20.27) rotate(-45.01)"/>
      <rect class="cls-1" x="48.23" y="31.12" width=".75" height="10.91" transform="translate(-11.63 45.07) rotate(-44.99)"/>
      <rect class="cls-1" x="43.4" y="11.47" width="10.62" height=".75" transform="translate(5.89 37.91) rotate(-45)"/>
    </g>
  </g>
</svg>