<?xml version="1.0" encoding="UTF-8"?>
<svg id="uuid-cd5ed92e-2394-4ceb-98f0-f7677194bdf3" data-name="uuid-6623818f-7643-41dc-8de9-56485a6dc990" xmlns="http://www.w3.org/2000/svg" viewBox="0 0 1923 325.02">
  <defs>
    <style>
      .uuid-6fee2eda-2661-4088-8889-91db207767cc {
        fill: #fff;
        stroke-width: 0px;
      }

                  .st0{fill:#FFFFFF;}
	.st1{fill:#FFFFFF;}
	.st2{fill:#FFFFFF;}
    </style>
  </defs>
  <g>
    <polygon class="st2" points="531.57 211.89 513.69 211.89 568.89 119.36 586.77 119.36 531.57 211.89"/>
    <polygon class="st2" points="579.68 211.89 561.8 211.89 617 119.36 634.88 119.36 579.68 211.89"/>
    <polygon class="st2" points="627.78 211.89 609.91 211.89 665.11 119.36 682.99 119.36 627.78 211.89"/>
    <polygon class="st2" points="675.89 211.89 658.01 211.89 713.22 119.36 731.09 119.36 675.89 211.89"/>
    <polygon class="st2" points="724 211.89 706.12 211.89 761.32 119.36 779.2 119.36 724 211.89"/>
    <polygon class="st2" points="772.11 211.89 754.23 211.89 809.43 119.36 827.31 119.36 772.11 211.89"/>
  </g>
  <polygon class="uuid-6fee2eda-2661-4088-8889-91db207767cc" points="43 6.5 43 13 14.68 13 14.68 41.32 8.18 41.32 8.18 6.5 43 6.5"/>
  <polygon class="uuid-6fee2eda-2661-4088-8889-91db207767cc" points="1881.65 7.5 1881.65 14 1909.97 14 1909.97 42.32 1916.47 42.32 1916.47 7.5 1881.65 7.5"/>
  <polygon class="uuid-6fee2eda-2661-4088-8889-91db207767cc" points="42.33 319.44 42.33 312.95 14.01 312.95 14.01 284.62 7.51 284.62 7.51 319.44 42.33 319.44"/>
  <polygon class="uuid-6fee2eda-2661-4088-8889-91db207767cc" points="1881.65 318.44 1881.65 311.95 1909.97 311.95 1909.97 283.62 1916.47 283.62 1916.47 318.44 1881.65 318.44"/>
  <g>
    <rect class="uuid-6fee2eda-2661-4088-8889-91db207767cc" x="1680.87" y="73.09" width="2.15" height="50.44"/>
    <rect class="uuid-6fee2eda-2661-4088-8889-91db207767cc" x="1685.17" y="73.09" width="2.15" height="50.44"/>
    <rect class="uuid-6fee2eda-2661-4088-8889-91db207767cc" x="1689.48" y="73.09" width="4.3" height="50.44"/>
    <rect class="uuid-6fee2eda-2661-4088-8889-91db207767cc" x="1700.23" y="73.09" width="2.15" height="50.44"/>
    <rect class="uuid-6fee2eda-2661-4088-8889-91db207767cc" x="1704.53" y="73.09" width="2.15" height="50.44"/>
    <rect class="uuid-6fee2eda-2661-4088-8889-91db207767cc" x="1715.28" y="73.09" width="2.15" height="50.44"/>
    <rect class="uuid-6fee2eda-2661-4088-8889-91db207767cc" x="1719.58" y="73.09" width="8.6" height="50.44"/>
    <rect class="uuid-6fee2eda-2661-4088-8889-91db207767cc" x="1730.34" y="73.09" width="2.15" height="50.44"/>
    <rect class="uuid-6fee2eda-2661-4088-8889-91db207767cc" x="1734.64" y="73.09" width="2.15" height="50.44"/>
    <rect class="uuid-6fee2eda-2661-4088-8889-91db207767cc" x="1743.24" y="73.09" width="4.3" height="50.44"/>
    <rect class="uuid-6fee2eda-2661-4088-8889-91db207767cc" x="1749.69" y="73.09" width="6.45" height="50.44"/>
    <rect class="uuid-6fee2eda-2661-4088-8889-91db207767cc" x="1760.44" y="73.09" width="2.15" height="50.44"/>
    <rect class="uuid-6fee2eda-2661-4088-8889-91db207767cc" x="1764.74" y="73.09" width="2.15" height="50.44"/>
    <rect class="uuid-6fee2eda-2661-4088-8889-91db207767cc" x="1775.5" y="73.09" width="2.15" height="50.44"/>
    <rect class="uuid-6fee2eda-2661-4088-8889-91db207767cc" x="1779.8" y="73.09" width="2.15" height="50.44"/>
    <rect class="uuid-6fee2eda-2661-4088-8889-91db207767cc" x="1784.1" y="73.09" width="2.15" height="50.44"/>
    <rect class="uuid-6fee2eda-2661-4088-8889-91db207767cc" x="1788.4" y="73.09" width="2.15" height="50.44"/>
    <rect class="uuid-6fee2eda-2661-4088-8889-91db207767cc" x="1792.7" y="73.09" width="6.45" height="50.44"/>
    <rect class="uuid-6fee2eda-2661-4088-8889-91db207767cc" x="1803.45" y="73.09" width="2.15" height="50.44"/>
    <rect class="uuid-6fee2eda-2661-4088-8889-91db207767cc" x="1809.91" y="73.09" width="6.45" height="50.44"/>
    <rect class="uuid-6fee2eda-2661-4088-8889-91db207767cc" x="1818.51" y="73.09" width="4.3" height="50.44"/>
    <rect class="uuid-6fee2eda-2661-4088-8889-91db207767cc" x="1824.96" y="73.09" width="4.3" height="50.44"/>
    <rect class="uuid-6fee2eda-2661-4088-8889-91db207767cc" x="1833.56" y="73.09" width="2.15" height="50.44"/>
    <rect class="uuid-6fee2eda-2661-4088-8889-91db207767cc" x="1840.01" y="73.09" width="6.45" height="50.44"/>
    <rect class="uuid-6fee2eda-2661-4088-8889-91db207767cc" x="1848.62" y="73.09" width="2.15" height="50.44"/>
    <rect class="uuid-6fee2eda-2661-4088-8889-91db207767cc" x="1859.37" y="73.09" width="2.15" height="50.44"/>
    <rect class="uuid-6fee2eda-2661-4088-8889-91db207767cc" x="1863.67" y="73.09" width="6.45" height="50.44"/>
    <rect class="uuid-6fee2eda-2661-4088-8889-91db207767cc" x="1874.42" y="73.09" width="2.15" height="50.44"/>
    <rect class="uuid-6fee2eda-2661-4088-8889-91db207767cc" x="1878.72" y="73.09" width="2.15" height="50.44"/>
    <rect class="uuid-6fee2eda-2661-4088-8889-91db207767cc" x="1883.03" y="73.09" width="2.15" height="50.44"/>
  </g>
  <g>
    <path class="st1" d="m58.14,167.03c0,1.29.18,2.42.54,3.38.65,1.48,1.76,2.46,3.31,2.96,1.48.52,2.99.77,4.54.77,1.43.05,2.91-.26,4.43-.91,1.5-.68,2.28-1.93,2.33-3.76.05-1.29-.68-2.32-2.18-3.09-1.57-.73-4.55-1.66-8.93-2.81-2.06-.56-4.08-1.18-6.05-1.86-2.06-.68-3.92-1.55-5.59-2.6-1.69-1.05-3.06-2.45-4.11-4.18-1.1-1.62-1.65-3.7-1.65-6.26.09-5.95,2.18-10.29,6.26-13.01,3.9-2.65,8.51-3.97,13.82-3.97,5.56-.05,10.35,1.15,14.37,3.58,3.9,2.6,6.04,6.98,6.4,13.15h-14.52c.18-1.91-.42-3.27-1.81-4.09-1.36-.84-2.87-1.26-4.53-1.26-1.14,0-2.31.21-3.51.63-.55.23-1.01.57-1.4,1.02-.41.47-.61,1.07-.61,1.79.09.87.58,1.58,1.47,2.15.84.63,1.93,1.18,3.27,1.65,2.84.87,6.08,1.76,9.71,2.67,1.93.49,3.78,1.09,5.55,1.79,1.74.68,3.32,1.59,4.75,2.74,1.45,1.15,2.6,2.54,3.44,4.18.77,1.73,1.16,3.77,1.16,6.12-.14,6.59-2.6,11.19-7.4,13.82-4.72,2.65-10.07,3.95-16.04,3.9-1.48,0-3.43-.22-5.83-.67-2.43-.42-4.9-1.25-7.4-2.5-2.48-1.27-4.57-3.14-6.28-5.63-1.74-2.39-2.67-5.63-2.81-9.71h15.28Z"/>
    <path class="st1" d="m92.52,158.6c.04-8.02,2.4-14.47,7.05-19.37,4.5-4.94,10.56-7.46,18.19-7.56,7.72.09,13.84,2.61,18.36,7.56,4.54,4.9,6.83,11.36,6.88,19.37-.05,7.97-2.34,14.4-6.88,19.3-4.52,4.99-10.64,7.54-18.36,7.63-7.63-.09-13.69-2.64-18.19-7.63-4.65-4.9-7.01-11.33-7.05-19.3Zm15.32,0c0,2.8.35,5.11,1.06,6.94.66,1.86,1.5,3.31,2.52,4.37,2.14,1.93,4.25,2.87,6.34,2.82.98,0,2.07-.21,3.27-.63,1.16-.45,2.23-1.17,3.2-2.19,1.04-1.06,1.89-2.51,2.52-4.37.61-1.83.92-4.15.92-6.94s-.31-5.28-.92-7.16c-.64-1.88-1.48-3.3-2.52-4.27-2.18-1.88-4.34-2.78-6.48-2.71-.98,0-2.02.17-3.14.49-1.11.42-2.18,1.16-3.2,2.22-.48.49-.92,1.08-1.33,1.76-.43.71-.83,1.54-1.19,2.5-.7,1.88-1.06,4.27-1.06,7.16Z"/>
    <path class="st1" d="m151.3,132.9h15.32v38.25h22.02v13.15h-37.34v-51.4Z"/>
    <path class="st1" d="m195.18,158.6c.04-8.02,2.4-14.47,7.05-19.37,4.5-4.94,10.56-7.46,18.19-7.56,7.72.09,13.84,2.61,18.36,7.56,4.54,4.9,6.83,11.36,6.88,19.37-.05,7.97-2.34,14.4-6.88,19.3-4.52,4.99-10.64,7.54-18.36,7.63-7.63-.09-13.69-2.64-18.19-7.63-4.65-4.9-7.01-11.33-7.05-19.3Zm15.32,0c0,2.8.35,5.11,1.06,6.94.66,1.86,1.5,3.31,2.52,4.37,2.14,1.93,4.25,2.87,6.34,2.82.98,0,2.07-.21,3.27-.63,1.16-.45,2.23-1.17,3.2-2.19,1.04-1.06,1.89-2.51,2.52-4.37.61-1.83.92-4.15.92-6.94s-.31-5.28-.92-7.16c-.64-1.88-1.48-3.3-2.52-4.27-2.18-1.88-4.34-2.78-6.48-2.71-.98,0-2.02.17-3.14.49-1.11.42-2.18,1.16-3.2,2.22-.48.49-.92,1.08-1.33,1.76-.43.71-.83,1.54-1.19,2.5-.7,1.88-1.06,4.27-1.06,7.16Z"/>
    <path class="st1" d="m253.26,159.16h21.79v11.81h-21.79v-11.81Z"/>
    <path class="st1" d="m318.71,165.8c0,13.39-6.35,19.96-19.05,19.73-12.56-.28-18.77-6.45-18.63-18.5v-4.33h13.77v2.96c-.05,2.02.15,3.77.6,5.24.45,1.55,1.75,2.35,3.9,2.39,2.1-.09,3.33-1.03,3.71-2.81.3-1.69.42-3.18.37-4.46v-33.12h15.33v32.9Z"/>
  </g>
  <g>
    <path class="uuid-6fee2eda-2661-4088-8889-91db207767cc" d="m1531.74,135.89h16.22c1.95,0,3.56.24,4.83.72,1.22.46,2.17,1.08,2.86,1.85.69.75,1.18,1.57,1.46,2.44.22.86.32,1.7.32,2.5,0,1.49-.32,2.68-.96,3.57-.67.93-1.58,1.7-2.73,2.32,1.41.45,2.61,1.25,3.61,2.4,1.04,1.18,1.57,2.87,1.6,5.09-.05,2.99-1.12,5.24-3.21,6.75-2.04,1.57-4.44,2.36-7.18,2.36h-16.82v-29.98Zm8.94,11.69h5.06c1.01,0,1.8-.18,2.38-.54.58-.37.87-1.02.87-1.96,0-.76-.29-1.31-.87-1.65-.58-.27-1.37-.41-2.38-.41h-5.06v4.55Zm0,11.16h5.59c1.04,0,1.93-.2,2.65-.6.69-.38,1.06-1.13,1.1-2.26,0-1.79-1.12-2.7-3.34-2.73h-5.99v5.58Z"/>
    <path class="uuid-6fee2eda-2661-4088-8889-91db207767cc" d="m1584.35,161.02c0,.82.05,1.65.16,2.51.11.84.38,1.63.82,2.35h-8.48c-.22-.7-.31-1.38-.29-2.05h-.08c-.9.97-1.94,1.64-3.11,2.01-1.23.4-2.53.59-3.89.59-2.09,0-3.82-.53-5.19-1.6-1.47-1.09-2.21-2.76-2.24-5,0-1.71.45-3.03,1.35-3.97.86-.96,1.93-1.65,3.22-2.07,1.35-.45,2.71-.76,4.08-.92,1.37-.16,2.58-.31,3.65-.45.31-.1.61-.18.88-.27.26-.08.5-.18.72-.29.45-.27.68-.74.68-1.39-.03-.75-.31-1.28-.84-1.58-.54-.29-1.17-.43-1.89-.43-1.25.03-2.08.26-2.49.71-.43.5-.64,1-.64,1.5h-7.75c.11-1.54.5-2.79,1.18-3.75.66-.94,1.52-1.65,2.58-2.13,1.07-.51,2.26-.85,3.57-1.05,1.27-.14,2.53-.21,3.77-.21,2.54,0,4.54.23,5.98.7,1.43.48,2.44,1.13,3.02,1.95.61.81.99,1.72,1.14,2.73.05,1.03.08,2.07.08,3.14v8.96Zm-7.71-4.91c-1.09.48-2.23.83-3.44,1.05-1.96.25-2.94,1.03-2.94,2.36,0,.53.26.99.79,1.38.49.43,1.13.64,1.93.64,1.02,0,1.87-.29,2.56-.88.67-.56,1.04-1.4,1.1-2.53v-2.01Z"/>
    <path class="uuid-6fee2eda-2661-4088-8889-91db207767cc" d="m1588.96,144.08h7.72v3.49h.08c.65-1.31,1.45-2.32,2.4-3.01.91-.67,2.09-1,3.53-1,.81,0,1.6.11,2.36.33v7.34c-.38-.16-.81-.3-1.27-.41-.46-.08-1.1-.12-1.91-.12-3.23-.05-4.86,2.14-4.89,6.58v8.61h-8.04v-21.8Z"/>
    <path class="uuid-6fee2eda-2661-4088-8889-91db207767cc" d="m1613.12,156.85c.14,1.23.55,2.24,1.25,3.02.67.82,1.66,1.23,2.98,1.23.71,0,1.39-.14,2.03-.43.64-.25,1.13-.62,1.46-1.13h7.78c-.88,2.35-2.32,4.09-4.32,5.21-1.99,1.12-4.25,1.68-6.78,1.68-3.52-.03-6.38-1.03-8.58-2.99-2.3-1.96-3.46-4.75-3.49-8.39.03-3.28,1.08-6.02,3.14-8.2,2.05-2.15,4.8-3.25,8.23-3.3,8.25.11,12.33,4.55,12.25,13.31h-15.95Zm8.25-4.31c-.03-1.05-.38-1.92-1.04-2.62-.68-.7-1.59-1.05-2.74-1.05-2.56.03-4.04,1.25-4.43,3.67h8.21Z"/>
    <path class="uuid-6fee2eda-2661-4088-8889-91db207767cc" d="m1532.36,175.89h9.16l8.44,16.04h.1v-16.04h8.45v29.98h-8.72l-8.9-16.39h-.08v16.39h-8.45v-29.98Z"/>
    <path class="uuid-6fee2eda-2661-4088-8889-91db207767cc" d="m1586.19,194.98c0,3.1-.95,5.76-2.84,7.97-1.88,2.27-4.85,3.43-8.92,3.48-4.02-.05-6.98-1.22-8.88-3.49-1.95-2.21-2.9-4.87-2.86-7.98-.04-3.14.91-5.81,2.86-8,1.91-2.23,4.87-3.37,8.88-3.42,4.07.05,7.04,1.2,8.92,3.43,1.89,2.19,2.84,4.86,2.84,8Zm-8.04,0c0-.59-.03-1.21-.08-1.87-.09-.64-.26-1.22-.53-1.73-.26-.55-.62-.99-1.09-1.34-.53-.32-1.2-.47-2.01-.47s-1.41.16-1.88.47c-.53.34-.92.79-1.17,1.34-.47,1.12-.69,2.32-.66,3.6,0,.56.06,1.15.17,1.77.08.62.25,1.21.49,1.77.26.56.65,1.01,1.17,1.34.47.37,1.09.55,1.88.55s1.48-.18,2.01-.55c.47-.33.83-.77,1.09-1.34.44-1.15.65-2.33.62-3.54Z"/>
    <path class="uuid-6fee2eda-2661-4088-8889-91db207767cc" d="m1600.2,184.08h4.32v5.12h-4.32v7.63c-.03,1,.14,1.73.5,2.18.34.48,1.01.72,1.99.72.62,0,1.23-.04,1.83-.12v6.27c-1.68.05-3.4.14-5.16.25-.87,0-1.71-.07-2.52-.2-.83-.16-1.61-.44-2.32-.84-.7-.45-1.26-1.1-1.67-1.96-.46-.87-.69-2.03-.69-3.47v-10.44h-3.6v-5.12h3.6v-6.62h8.04v6.62Z"/>
    <path class="uuid-6fee2eda-2661-4088-8889-91db207767cc" d="m1613.88,196.85c.14,1.23.55,2.24,1.25,3.02.67.82,1.66,1.23,2.98,1.23.71,0,1.39-.14,2.03-.43.64-.25,1.13-.62,1.46-1.13h7.78c-.88,2.35-2.32,4.09-4.32,5.21-1.99,1.12-4.25,1.68-6.78,1.68-3.52-.03-6.38-1.03-8.58-2.99-2.3-1.96-3.46-4.75-3.49-8.39.03-3.28,1.08-6.02,3.14-8.2,2.05-2.15,4.8-3.25,8.23-3.3,8.25.11,12.33,4.55,12.25,13.31h-15.95Zm8.25-4.31c-.03-1.04-.38-1.92-1.04-2.62-.68-.7-1.59-1.05-2.74-1.05-2.56.03-4.04,1.25-4.43,3.67h8.21Z"/>
    <path class="uuid-6fee2eda-2661-4088-8889-91db207767cc" d="m1646.68,190.43c-.05-.74-.36-1.29-.93-1.65-.57-.43-1.23-.65-1.98-.65-.66,0-1.26.1-1.8.29-.6.23-.9.7-.9,1.4,0,.28.11.5.33.66.21.21.43.36.65.47.41.14.88.25,1.42.33.56.12,1.16.24,1.8.35,1.37.22,2.78.56,4.23,1.01,1.39.4,2.56,1.07,3.53,2.02.49.45.87,1.02,1.15,1.69.24.67.36,1.48.36,2.41,0,1.5-.32,2.73-.95,3.68-.63,1.01-1.48,1.81-2.53,2.39-2.24,1.09-4.72,1.62-7.45,1.59-2.66,0-5.07-.59-7.22-1.76-2.15-1.17-3.32-3.14-3.52-5.91h7.92c.05.75.39,1.38,1,1.91.45.42,1.19.63,2.23.63.59,0,1.2-.13,1.84-.39.61-.25.93-.68.96-1.29s-.24-1.08-.8-1.39c-.62-.3-1.87-.61-3.77-.92-3.13-.53-5.4-1.36-6.81-2.48-1.39-1.08-2.09-2.54-2.09-4.37,0-1.37.33-2.51.99-3.43.63-.93,1.47-1.63,2.49-2.11,1.03-.53,2.13-.9,3.32-1.09,1.13-.19,2.25-.29,3.34-.29,2.47-.04,4.78.39,6.93,1.3,1.03.48,1.86,1.18,2.49,2.1.64.9.99,2.07,1.05,3.5h-7.31Z"/>
    <path class="uuid-6fee2eda-2661-4088-8889-91db207767cc" d="m1539.41,235.8c0,.75.11,1.41.32,1.97.38.86,1.02,1.44,1.93,1.73.86.3,1.74.45,2.65.45.83.03,1.7-.15,2.59-.53.88-.4,1.33-1.13,1.36-2.19.03-.75-.4-1.35-1.27-1.8-.92-.42-2.65-.97-5.21-1.64-1.2-.33-2.38-.69-3.53-1.09-1.2-.4-2.29-.9-3.26-1.52-.98-.62-1.78-1.43-2.4-2.44-.64-.94-.96-2.16-.96-3.65.05-3.47,1.27-6,3.65-7.59,2.28-1.54,4.96-2.32,8.06-2.32,3.24-.03,6.04.67,8.38,2.09,2.28,1.51,3.52,4.07,3.73,7.67h-8.47c.11-1.11-.25-1.91-1.05-2.38-.79-.49-1.68-.73-2.64-.73-.66,0-1.35.12-2.05.37-.32.14-.59.33-.81.59-.24.27-.36.62-.36,1.05.05.51.34.92.85,1.25.49.37,1.13.69,1.91.96,1.66.51,3.55,1.03,5.67,1.56,1.13.29,2.21.64,3.24,1.05,1.02.4,1.94.93,2.77,1.6.85.67,1.52,1.48,2.01,2.44.45,1.01.68,2.2.68,3.57-.08,3.84-1.52,6.53-4.31,8.06-2.75,1.54-5.87,2.3-9.36,2.28-.86,0-2-.13-3.4-.39-1.42-.25-2.86-.73-4.31-1.46-1.44-.74-2.67-1.83-3.67-3.28-1.01-1.4-1.56-3.28-1.64-5.66h8.91Z"/>
    <path class="uuid-6fee2eda-2661-4088-8889-91db207767cc" d="m1566.48,236.85c.14,1.23.55,2.24,1.25,3.02.67.82,1.66,1.23,2.98,1.23.71,0,1.39-.14,2.03-.43.64-.25,1.13-.62,1.46-1.13h7.78c-.88,2.35-2.32,4.09-4.32,5.21-1.99,1.12-4.25,1.68-6.78,1.68-3.52-.03-6.38-1.03-8.58-2.99-2.3-1.96-3.46-4.75-3.49-8.39.03-3.28,1.08-6.02,3.14-8.2,2.05-2.15,4.8-3.25,8.23-3.3,8.25.11,12.33,4.55,12.25,13.31h-15.95Zm8.25-4.31c-.03-1.04-.38-1.92-1.04-2.62-.68-.7-1.59-1.05-2.74-1.05-2.56.03-4.04,1.25-4.43,3.67h8.21Z"/>
    <path class="uuid-6fee2eda-2661-4088-8889-91db207767cc" d="m1599.29,230.43c-.05-.74-.36-1.29-.93-1.65-.57-.43-1.23-.65-1.98-.65-.66,0-1.26.1-1.8.29-.6.23-.9.7-.9,1.4,0,.28.11.5.33.66.21.21.43.36.65.47.41.14.88.25,1.42.33.56.12,1.16.24,1.8.35,1.37.22,2.78.56,4.23,1.01,1.39.4,2.56,1.07,3.53,2.02.49.45.87,1.02,1.15,1.69.24.67.36,1.48.36,2.41,0,1.5-.32,2.73-.95,3.68-.63,1.01-1.48,1.81-2.53,2.39-2.24,1.09-4.72,1.62-7.45,1.59-2.66,0-5.07-.59-7.22-1.76-2.15-1.17-3.32-3.14-3.52-5.91h7.92c.05.75.39,1.38,1,1.91.45.42,1.19.63,2.23.63.59,0,1.2-.13,1.84-.39.61-.25.93-.68.96-1.29s-.24-1.08-.8-1.39c-.62-.3-1.87-.61-3.77-.92-3.13-.53-5.4-1.36-6.81-2.48-1.39-1.08-2.09-2.54-2.09-4.37,0-1.37.33-2.51.99-3.43.63-.93,1.47-1.63,2.49-2.11,1.03-.53,2.13-.9,3.32-1.09,1.13-.19,2.25-.29,3.34-.29,2.47-.04,4.78.39,6.93,1.3,1.03.48,1.86,1.18,2.49,2.1.64.9.99,2.07,1.05,3.5h-7.31Z"/>
    <path class="uuid-6fee2eda-2661-4088-8889-91db207767cc" d="m1623.38,230.43c-.05-.74-.36-1.29-.93-1.65-.57-.43-1.23-.65-1.98-.65-.66,0-1.26.1-1.8.29-.6.23-.9.7-.9,1.4,0,.28.11.5.33.66.21.21.43.36.65.47.41.14.88.25,1.42.33.56.12,1.16.24,1.8.35,1.37.22,2.78.56,4.23,1.01,1.39.4,2.56,1.07,3.53,2.02.49.45.87,1.02,1.15,1.69.24.67.36,1.48.36,2.41,0,1.5-.32,2.73-.95,3.68-.63,1.01-1.48,1.81-2.53,2.39-2.24,1.09-4.72,1.62-7.45,1.59-2.66,0-5.07-.59-7.22-1.76-2.15-1.17-3.32-3.14-3.52-5.91h7.92c.05.75.39,1.38,1,1.91.45.42,1.19.63,2.23.63.59,0,1.2-.13,1.84-.39.61-.25.93-.68.96-1.29s-.24-1.08-.8-1.39c-.62-.3-1.87-.61-3.77-.92-3.13-.53-5.4-1.36-6.81-2.48-1.39-1.08-2.09-2.54-2.09-4.37,0-1.37.33-2.51.99-3.43.63-.93,1.47-1.63,2.49-2.11,1.03-.53,2.13-.9,3.32-1.09,1.13-.19,2.25-.29,3.34-.29,2.47-.04,4.78.39,6.93,1.3,1.03.48,1.86,1.18,2.49,2.1.64.9.99,2.07,1.05,3.5h-7.31Z"/>
    <path class="uuid-6fee2eda-2661-4088-8889-91db207767cc" d="m1643.06,221.72h-8.04v-5.82h8.04v5.82Zm-8.04,2.36h8.04v21.8h-8.04v-21.8Z"/>
    <path class="uuid-6fee2eda-2661-4088-8889-91db207767cc" d="m1670.21,234.98c0,3.1-.95,5.76-2.84,7.97-1.88,2.27-4.85,3.43-8.92,3.48-4.02-.05-6.98-1.22-8.88-3.49-1.95-2.21-2.9-4.87-2.86-7.98-.04-3.14.91-5.81,2.86-8,1.91-2.23,4.87-3.37,8.88-3.42,4.07.05,7.04,1.2,8.92,3.43,1.89,2.19,2.84,4.86,2.84,8Zm-8.04,0c0-.59-.03-1.21-.08-1.87-.09-.64-.26-1.22-.53-1.73-.26-.55-.62-.99-1.09-1.34-.53-.32-1.2-.47-2.01-.47s-1.41.16-1.88.47c-.53.34-.92.79-1.17,1.34-.47,1.12-.69,2.32-.66,3.6,0,.56.06,1.15.17,1.77.08.62.25,1.21.49,1.77.26.56.65,1.01,1.17,1.34.47.37,1.09.55,1.88.55s1.48-.18,2.01-.55c.47-.33.83-.77,1.09-1.34.44-1.15.65-2.33.62-3.54Z"/>
    <path class="uuid-6fee2eda-2661-4088-8889-91db207767cc" d="m1674.54,224.08h8v2.77h.08c1.47-2.2,3.83-3.3,7.08-3.3,1.97,0,3.67.6,5.08,1.8,1.4,1.2,2.12,3.06,2.14,5.58v14.95h-8.04v-11.44c.03-1.29-.12-2.33-.45-3.12-.34-.78-1.14-1.17-2.4-1.17-.79-.03-1.54.23-2.25.76-.34.27-.64.69-.88,1.25-.23.59-.34,1.32-.34,2.2v11.52h-8.04v-21.8Z"/>
    <path class="uuid-6fee2eda-2661-4088-8889-91db207767cc" d="m1714.38,230.43c-.05-.74-.36-1.29-.93-1.65-.57-.43-1.23-.65-1.98-.65-.66,0-1.26.1-1.8.29-.6.23-.9.7-.9,1.4,0,.28.11.5.33.66.21.21.43.36.65.47.41.14.88.25,1.42.33.56.12,1.16.24,1.8.35,1.37.22,2.78.56,4.23,1.01,1.39.4,2.56,1.07,3.53,2.02.49.45.87,1.02,1.15,1.69.24.67.36,1.48.36,2.41,0,1.5-.32,2.73-.95,3.68-.63,1.01-1.48,1.81-2.53,2.39-2.24,1.09-4.72,1.62-7.45,1.59-2.66,0-5.07-.59-7.22-1.76-2.15-1.17-3.32-3.14-3.52-5.91h7.92c.05.75.39,1.38,1,1.91.45.42,1.19.63,2.23.63.59,0,1.2-.13,1.84-.39.61-.25.93-.68.96-1.29s-.24-1.08-.8-1.39c-.62-.3-1.87-.61-3.77-.92-3.13-.53-5.4-1.36-6.81-2.48-1.39-1.08-2.09-2.54-2.09-4.37,0-1.37.33-2.51.99-3.43.63-.93,1.47-1.63,2.49-2.11,1.03-.53,2.13-.9,3.32-1.09,1.13-.19,2.25-.29,3.34-.29,2.47-.04,4.78.39,6.93,1.3,1.03.48,1.86,1.18,2.49,2.1.64.9.99,2.07,1.05,3.5h-7.31Z"/>
  </g>
  <g>
    <path class="uuid-6fee2eda-2661-4088-8889-91db207767cc" d="m1555.82,106.2h6.14v4.86h-6.14v11.39h-5.38v-11.39h-22.85v-5.18l22.4-28.99h5.82v29.31Zm-5.38,0v-22.27l-17.22,22.27h17.22Z"/>
    <path class="uuid-6fee2eda-2661-4088-8889-91db207767cc" d="m1571.63,117.59h24.06v4.86h-30.08l.13-2.5c.26-3.75,1.11-6.98,2.56-9.66,1.45-2.69,3.9-5.03,7.36-7.04l5.76-3.33c2.9-1.71,4.96-3.37,6.18-4.99,1.22-1.62,1.82-3.58,1.82-5.89,0-2.52-.8-4.53-2.4-6.05-1.6-1.51-3.81-2.27-6.62-2.27-6.36,0-9.54,3.26-9.54,9.79h-5.31c-.04-4.65,1.26-8.26,3.9-10.82s6.34-3.84,11.07-3.84c4.31,0,7.81,1.22,10.5,3.65,2.69,2.52,4.03,5.7,4.03,9.54,0,5.89-3.46,10.84-10.37,14.85l-4.86,2.82c-2.82,1.71-4.84,3.36-6.08,4.96-1.24,1.6-1.94,3.57-2.11,5.92Z"/>
    <path class="uuid-6fee2eda-2661-4088-8889-91db207767cc" d="m1624.5,98.01c2.64,1.02,4.71,2.53,6.21,4.51,1.49,1.98,2.24,4.32,2.24,7.01,0,4.27-1.51,7.66-4.54,10.18-3.03,2.52-7.02,3.78-11.97,3.78s-8.94-1.26-11.97-3.78c-3.03-2.52-4.54-5.91-4.54-10.18,0-2.69.75-5.02,2.24-7.01,1.49-1.98,3.56-3.49,6.21-4.51-4.4-1.92-6.59-5.14-6.59-9.66,0-3.88,1.39-6.95,4.16-9.22,2.77-2.18,6.27-3.26,10.5-3.26s7.72,1.09,10.5,3.26c2.77,2.26,4.16,5.33,4.16,9.22,0,4.52-2.2,7.74-6.59,9.66Zm-16,18.18c2,1.62,4.65,2.43,7.94,2.43s5.93-.81,7.94-2.43c1.96-1.58,2.94-3.8,2.94-6.66s-.98-5.14-2.94-6.72c-1.96-1.58-4.61-2.37-7.94-2.37s-5.97.79-7.94,2.37c-1.96,1.58-2.94,3.82-2.94,6.72s.98,5.08,2.94,6.66Zm14.66-33.47c-1.71-1.32-3.95-1.98-6.72-1.98s-5.01.66-6.72,1.98c-1.75,1.37-2.62,3.24-2.62,5.63s.87,4.27,2.62,5.63c1.71,1.32,3.95,1.98,6.72,1.98s5.01-.66,6.72-1.98c1.75-1.37,2.62-3.24,2.62-5.63s-.88-4.27-2.62-5.63Z"/>
    <path class="uuid-6fee2eda-2661-4088-8889-91db207767cc" d="m1665.01,106.2h6.14v4.86h-6.14v11.39h-5.38v-11.39h-22.85v-5.18l22.4-28.99h5.82v29.31Zm-5.38,0v-22.27l-17.22,22.27h17.22Z"/>
  </g>
  <g>
    <path class="uuid-6fee2eda-2661-4088-8889-91db207767cc" d="m990.92,114.54c4.18,1.6,6.27,4.49,6.27,8.67,0,3.16-1.03,5.65-3.09,7.47-2.06,1.82-4.96,2.73-8.7,2.73h-15.86v-36.31h15.1c3.5,0,6.22.88,8.16,2.63,1.94,1.75,2.91,4.04,2.91,6.86,0,3.64-1.6,6.29-4.79,7.96Zm-6.58-13.57h-10.51v11.98h10.51c2.35,0,4.13-.54,5.35-1.63,1.22-1.09,1.84-2.62,1.84-4.59,0-1.8-.62-3.21-1.86-4.23-1.24-1.02-3.02-1.53-5.33-1.53Zm-10.51,28.56h11.37c2.52,0,4.43-.54,5.74-1.63,1.31-1.09,1.96-2.65,1.96-4.69,0-4.28-2.58-6.43-7.75-6.43h-11.32v12.75Z"/>
    <path class="uuid-6fee2eda-2661-4088-8889-91db207767cc" d="m1013.87,106.68c.68,0,1.14.02,1.38.05v3.93h-1.02c-2.72,0-4.84.67-6.35,2.01-1.51,1.34-2.27,3.26-2.27,5.74v14.99h-4.08v-26.32h3.88v4.64c1.77-3.37,4.59-5.05,8.47-5.05Z"/>
    <path class="uuid-6fee2eda-2661-4088-8889-91db207767cc" d="m1038.81,130.09h1.48v3.31c-.68.1-1.43.15-2.24.15-2.75,0-4.23-1.26-4.44-3.77-1.84,2.82-4.69,4.23-8.57,4.23-2.89,0-5.16-.67-6.81-2.01-1.65-1.34-2.47-3.24-2.47-5.69,0-4.76,3.25-7.48,9.74-8.16l3.77-.41c2.75-.31,4.13-1.51,4.13-3.62,0-1.46-.45-2.52-1.35-3.16-.9-.65-2.42-.97-4.56-.97-2.28,0-3.92.38-4.92,1.15-1,.77-1.57,2.12-1.71,4.05h-4.08c.34-5.81,3.91-8.72,10.71-8.72s9.89,2.55,9.89,7.65v14.69c0,.85.48,1.27,1.43,1.27Zm-13.57.46c2.18,0,4.08-.66,5.71-1.99,1.63-1.29,2.45-3.14,2.45-5.56v-3.11c-.75.58-1.9.95-3.47,1.12l-3.83.46c-2.21.27-3.78.78-4.72,1.53-.94.75-1.4,1.82-1.4,3.21s.44,2.42,1.33,3.19c.88.77,2.19,1.15,3.93,1.15Z"/>
    <path class="uuid-6fee2eda-2661-4088-8889-91db207767cc" d="m1055.99,106.48c2.92,0,5.2.8,6.83,2.4s2.45,3.84,2.45,6.73v17.8h-4.08v-17.39c0-3.91-2.01-5.86-6.02-5.86-1.9,0-3.59.71-5.05,2.14-1.46,1.43-2.19,3.5-2.19,6.22v14.89h-4.08v-26.32h3.88v3.93c2.01-3.03,4.76-4.54,8.26-4.54Z"/>
    <path class="uuid-6fee2eda-2661-4088-8889-91db207767cc" d="m1091.18,110.87v-13.77h4.08v36.31h-3.88v-4.08c-2.11,3.13-5.12,4.69-9.03,4.69-3.71,0-6.67-1.26-8.87-3.77-2.24-2.52-3.37-5.85-3.37-10s1.12-7.56,3.37-10.05c2.17-2.48,5.13-3.72,8.87-3.72s6.71,1.46,8.82,4.39Zm-14.48,16.88c1.53,1.73,3.59,2.6,6.17,2.6s4.64-.9,6.17-2.7c1.53-1.77,2.29-4.23,2.29-7.4s-.76-5.59-2.29-7.4c-1.53-1.8-3.59-2.7-6.17-2.7s-4.6.93-6.15,2.78c-1.55,1.85-2.32,4.36-2.32,7.52s.76,5.56,2.29,7.29Z"/>
    <path class="uuid-6fee2eda-2661-4088-8889-91db207767cc" d="m1124.64,134.22c-4.73,0-8.42-1.07-11.07-3.21-2.65-2.14-4-5.34-4.03-9.59h4.44c.1,5.95,3.65,8.92,10.66,8.92,2.96,0,5.23-.58,6.81-1.73,1.58-1.16,2.37-2.84,2.37-5.05,0-1.73-.65-3.09-1.96-4.05-1.31-.97-3.6-1.81-6.86-2.52l-3.21-.71c-3.67-.85-6.43-2.08-8.26-3.7-1.84-1.61-2.75-3.88-2.75-6.81s1.12-5.19,3.37-6.91c2.24-1.72,5.25-2.58,9.03-2.58,2.55,0,4.77.31,6.66.92,1.89.61,3.36,1.47,4.41,2.58,1.05,1.1,1.83,2.3,2.32,3.6.49,1.29.76,2.72.79,4.28h-4.39c-.2-2.58-1.05-4.48-2.53-5.69-1.48-1.21-3.9-1.81-7.27-1.81-2.55,0-4.51.49-5.89,1.48-1.38.99-2.07,2.36-2.07,4.13s.59,3.15,1.78,4.13c1.16.99,3.4,1.85,6.73,2.6l3.21.71c4.01.88,6.9,2.15,8.67,3.8,1.77,1.65,2.65,3.83,2.65,6.55,0,3.3-1.21,5.9-3.62,7.8-2.42,1.9-5.75,2.86-10,2.86Z"/>
    <path class="uuid-6fee2eda-2661-4088-8889-91db207767cc" d="m1153.61,107.09v3.57h-5.41v17.08c0,1.5,1,2.24,3.01,2.24h2.4v3.42c-1.12.1-2.09.15-2.91.15-4.39,0-6.58-1.82-6.58-5.46v-17.44h-4.33v-3.57h4.33v-7.45h4.08v7.45h5.41Z"/>
    <path class="uuid-6fee2eda-2661-4088-8889-91db207767cc" d="m1170.28,106.68c.68,0,1.14.02,1.38.05v3.93h-1.02c-2.72,0-4.84.67-6.35,2.01-1.51,1.34-2.27,3.26-2.27,5.74v14.99h-4.08v-26.32h3.88v4.64c1.77-3.37,4.59-5.05,8.47-5.05Z"/>
    <path class="uuid-6fee2eda-2661-4088-8889-91db207767cc" d="m1195.22,130.09h1.48v3.31c-.68.1-1.43.15-2.24.15-2.75,0-4.23-1.26-4.44-3.77-1.84,2.82-4.69,4.23-8.57,4.23-2.89,0-5.16-.67-6.81-2.01-1.65-1.34-2.47-3.24-2.47-5.69,0-4.76,3.25-7.48,9.74-8.16l3.77-.41c2.75-.31,4.13-1.51,4.13-3.62,0-1.46-.45-2.52-1.35-3.16-.9-.65-2.42-.97-4.56-.97-2.28,0-3.92.38-4.92,1.15-1,.77-1.57,2.12-1.71,4.05h-4.08c.34-5.81,3.91-8.72,10.71-8.72s9.89,2.55,9.89,7.65v14.69c0,.85.48,1.27,1.43,1.27Zm-13.57.46c2.18,0,4.08-.66,5.71-1.99,1.63-1.29,2.45-3.14,2.45-5.56v-3.11c-.75.58-1.9.95-3.47,1.12l-3.83.46c-2.21.27-3.78.78-4.72,1.53-.94.75-1.4,1.82-1.4,3.21s.44,2.42,1.33,3.19c.88.77,2.19,1.15,3.93,1.15Z"/>
    <path class="uuid-6fee2eda-2661-4088-8889-91db207767cc" d="m1210.78,107.09v3.57h-5.41v17.08c0,1.5,1,2.24,3.01,2.24h2.4v3.42c-1.12.1-2.09.15-2.91.15-4.39,0-6.58-1.82-6.58-5.46v-17.44h-4.33v-3.57h4.33v-7.45h4.08v7.45h5.41Z"/>
    <path class="uuid-6fee2eda-2661-4088-8889-91db207767cc" d="m1237.55,120.25v1.43h-19.99c.2,2.86,1,5.01,2.4,6.45,1.39,1.45,3.3,2.17,5.71,2.17,3.64,0,5.97-1.63,6.99-4.9h4.23c-.71,2.65-2.04,4.75-3.98,6.3-1.94,1.55-4.39,2.32-7.34,2.32-3.64,0-6.58-1.24-8.82-3.72-2.28-2.48-3.42-5.83-3.42-10.05s1.12-7.48,3.37-10c2.21-2.52,5.13-3.77,8.77-3.77s6.73,1.31,8.87,3.93c2.14,2.62,3.21,5.9,3.21,9.84Zm-12.09-10.05c-2.14,0-3.89.67-5.25,2.01-1.36,1.34-2.21,3.27-2.55,5.79h15.5c-.2-2.31-.99-4.19-2.35-5.64-1.36-1.44-3.15-2.17-5.36-2.17Z"/>
    <path class="uuid-6fee2eda-2661-4088-8889-91db207767cc" d="m1262.39,110.92v-3.82h3.88v25.3c0,3.6-1.05,6.44-3.16,8.52-2.11,2.07-5.13,3.11-9.08,3.11-3.26,0-5.88-.75-7.85-2.24-1.97-1.5-3.09-3.57-3.37-6.22h4.08c.51,3.33,2.89,5,7.14,5,5.44,0,8.16-2.72,8.16-8.16v-2.55c-2.07,2.79-5.02,4.18-8.82,4.18s-6.67-1.26-8.87-3.77c-2.24-2.52-3.37-5.85-3.37-10s1.12-7.56,3.37-10.05c2.17-2.48,5.13-3.72,8.87-3.72s6.92,1.48,9.03,4.44Zm-8.52,19.43c2.58,0,4.64-.9,6.17-2.7,1.53-1.8,2.29-4.27,2.29-7.4s-.76-5.59-2.29-7.4c-1.53-1.8-3.59-2.7-6.17-2.7s-4.6.92-6.15,2.75c-1.55,1.84-2.32,4.28-2.32,7.34s.77,5.51,2.32,7.34c1.55,1.84,3.6,2.75,6.15,2.75Z"/>
    <path class="uuid-6fee2eda-2661-4088-8889-91db207767cc" d="m1285.08,118.01l3.72-10.91h4.44l-11.12,30.45c-.78,2.21-1.85,3.77-3.21,4.67-1.36.9-3.15,1.35-5.35,1.35-.75,0-1.56-.05-2.45-.15v-3.42h2.4c2.35,0,3.94-1.09,4.79-3.26l.92-2.45-9.89-27.18h4.49l3.72,10.96c1.33,3.88,2.58,7.67,3.77,11.37.99-3.16,2.24-6.97,3.77-11.42Z"/>
    <path class="uuid-6fee2eda-2661-4088-8889-91db207767cc" d="m1329.71,125.55l7.04,7.85h-5.51l-3.83-4.28c-2.89,3.4-6.8,5.1-11.73,5.1-3.33,0-5.98-.99-7.96-2.96-2.01-1.94-3.01-4.32-3.01-7.14,0-2.38.65-4.39,1.96-6.02,1.31-1.63,3.48-3.3,6.5-5-1.56-1.77-2.68-3.33-3.34-4.69-.66-1.36-.99-2.74-.99-4.13,0-2.21.82-4.11,2.45-5.71,1.6-1.53,3.76-2.29,6.48-2.29,2.41,0,4.5.7,6.27,2.09,1.73,1.39,2.6,3.31,2.6,5.76,0,3.6-2.48,6.83-7.45,9.69l7.55,8.42c.68-1.97,1.02-4.1,1.02-6.38h4.13c-.1,3.64-.83,6.87-2.19,9.69Zm-13.77,4.79c3.77,0,6.7-1.43,8.77-4.28l-9.13-10.25c-2.35,1.26-4.02,2.48-5.02,3.67-1,1.19-1.5,2.67-1.5,4.44s.63,3.32,1.89,4.56c1.26,1.24,2.92,1.86,5,1.86Zm1.79-30.4c-1.36,0-2.47.4-3.32,1.2-.85.8-1.27,1.84-1.27,3.14,0,1.8,1.22,4.08,3.67,6.83,1.94-1.05,3.35-2.12,4.23-3.21.88-1.09,1.33-2.29,1.33-3.62,0-1.26-.44-2.29-1.33-3.11s-1.99-1.22-3.31-1.22Z"/>
    <path class="uuid-6fee2eda-2661-4088-8889-91db207767cc" d="m1354.04,133.41h-4.28v-36.31h4.28v36.31Z"/>
    <path class="uuid-6fee2eda-2661-4088-8889-91db207767cc" d="m1380.2,110.87v-13.77h4.08v36.31h-3.88v-4.08c-2.11,3.13-5.12,4.69-9.03,4.69-3.71,0-6.67-1.26-8.87-3.77-2.24-2.52-3.37-5.85-3.37-10s1.12-7.56,3.37-10.05c2.17-2.48,5.13-3.72,8.87-3.72s6.71,1.46,8.82,4.39Zm-14.48,16.88c1.53,1.73,3.59,2.6,6.17,2.6s4.64-.9,6.17-2.7c1.53-1.77,2.29-4.23,2.29-7.4s-.76-5.59-2.29-7.4c-1.53-1.8-3.59-2.7-6.17-2.7s-4.6.93-6.15,2.78c-1.55,1.85-2.32,4.36-2.32,7.52s.76,5.56,2.29,7.29Z"/>
    <path class="uuid-6fee2eda-2661-4088-8889-91db207767cc" d="m1413.35,120.25v1.43h-19.99c.2,2.86,1,5.01,2.4,6.45,1.39,1.45,3.3,2.17,5.71,2.17,3.64,0,5.97-1.63,6.99-4.9h4.23c-.71,2.65-2.04,4.75-3.98,6.3-1.94,1.55-4.39,2.32-7.34,2.32-3.64,0-6.58-1.24-8.82-3.72-2.28-2.48-3.42-5.83-3.42-10.05s1.12-7.48,3.37-10c2.21-2.52,5.13-3.77,8.77-3.77s6.73,1.31,8.87,3.93c2.14,2.62,3.21,5.9,3.21,9.84Zm-12.09-10.05c-2.14,0-3.89.67-5.25,2.01-1.36,1.34-2.21,3.27-2.55,5.79h15.5c-.2-2.31-.99-4.19-2.35-5.64-1.36-1.44-3.15-2.17-5.36-2.17Z"/>
    <path class="uuid-6fee2eda-2661-4088-8889-91db207767cc" d="m1430.33,106.48c2.92,0,5.2.8,6.83,2.4s2.45,3.84,2.45,6.73v17.8h-4.08v-17.39c0-3.91-2.01-5.86-6.02-5.86-1.9,0-3.59.71-5.05,2.14-1.46,1.43-2.19,3.5-2.19,6.22v14.89h-4.08v-26.32h3.88v3.93c2.01-3.03,4.76-4.54,8.26-4.54Z"/>
    <path class="uuid-6fee2eda-2661-4088-8889-91db207767cc" d="m1456.24,107.09v3.57h-5.41v17.08c0,1.5,1,2.24,3.01,2.24h2.4v3.42c-1.12.1-2.09.15-2.91.15-4.39,0-6.58-1.82-6.58-5.46v-17.44h-4.33v-3.57h4.33v-7.45h4.08v7.45h5.41Z"/>
    <path class="uuid-6fee2eda-2661-4088-8889-91db207767cc" d="m1464.76,103.11h-4.33v-5h4.33v5Zm-.1,30.29h-4.08v-26.32h4.08v26.32Z"/>
    <path class="uuid-6fee2eda-2661-4088-8889-91db207767cc" d="m1482.3,107.09v3.57h-5.41v17.08c0,1.5,1,2.24,3.01,2.24h2.4v3.42c-1.12.1-2.09.15-2.91.15-4.39,0-6.58-1.82-6.58-5.46v-17.44h-4.33v-3.57h4.33v-7.45h4.08v7.45h5.41Z"/>
    <path class="uuid-6fee2eda-2661-4088-8889-91db207767cc" d="m1499.59,118.01l3.72-10.91h4.44l-11.12,30.45c-.78,2.21-1.85,3.77-3.21,4.67-1.36.9-3.15,1.35-5.35,1.35-.75,0-1.56-.05-2.45-.15v-3.42h2.4c2.35,0,3.94-1.09,4.79-3.26l.92-2.45-9.89-27.18h4.49l3.72,10.96c1.33,3.88,2.58,7.67,3.77,11.37.99-3.16,2.24-6.97,3.77-11.42Z"/>
    <path class="uuid-6fee2eda-2661-4088-8889-91db207767cc" d="m1227.4,152.1h15.1c3.84,0,6.81,1,8.9,3.01,2.09,2.01,3.14,4.73,3.14,8.16s-1.05,6.15-3.14,8.16c-2.09,2.01-5.06,3.01-8.9,3.01h-10.81v13.97h-4.28v-36.31Zm4.28,18.46h10.81c2.52,0,4.41-.62,5.69-1.86,1.27-1.24,1.91-3.05,1.91-5.43s-.64-4.19-1.91-5.43c-1.28-1.24-3.17-1.86-5.69-1.86h-10.81v14.59Z"/>
    <path class="uuid-6fee2eda-2661-4088-8889-91db207767cc" d="m1270.7,161.48c2.92,0,5.2.8,6.83,2.4,1.63,1.6,2.45,3.84,2.45,6.73v17.8h-4.08v-17.39c0-3.91-2.01-5.86-6.02-5.86-1.9,0-3.59.71-5.05,2.14s-2.19,3.5-2.19,6.22v14.89h-4.08v-36.31h4.08v13.62c2.01-2.82,4.69-4.23,8.06-4.23Z"/>
    <path class="uuid-6fee2eda-2661-4088-8889-91db207767cc" d="m1306.76,185.25c-2.41,2.52-5.47,3.77-9.18,3.77s-6.77-1.26-9.18-3.77c-2.38-2.48-3.57-5.81-3.57-10s1.19-7.51,3.57-10c2.41-2.52,5.47-3.77,9.18-3.77s6.77,1.26,9.18,3.77c2.38,2.48,3.57,5.81,3.57,10s-1.19,7.51-3.57,10Zm-15.35-2.6c1.53,1.8,3.59,2.7,6.17,2.7s4.64-.9,6.17-2.7c1.53-1.77,2.29-4.23,2.29-7.39s-.76-5.68-2.29-7.45c-1.53-1.77-3.59-2.65-6.17-2.65s-4.64.88-6.17,2.65c-1.53,1.77-2.29,4.25-2.29,7.45s.76,5.63,2.29,7.39Z"/>
    <path class="uuid-6fee2eda-2661-4088-8889-91db207767cc" d="m1325.17,162.09v3.57h-5.41v17.08c0,1.5,1,2.24,3.01,2.24h2.4v3.42c-1.12.1-2.09.15-2.91.15-4.39,0-6.58-1.82-6.58-5.46v-17.44h-4.33v-3.57h4.33v-7.45h4.08v7.45h5.41Z"/>
    <path class="uuid-6fee2eda-2661-4088-8889-91db207767cc" d="m1349.65,185.25c-2.41,2.52-5.47,3.77-9.18,3.77s-6.77-1.26-9.18-3.77c-2.38-2.48-3.57-5.81-3.57-10s1.19-7.51,3.57-10c2.41-2.52,5.47-3.77,9.18-3.77s6.77,1.26,9.18,3.77c2.38,2.48,3.57,5.81,3.57,10s-1.19,7.51-3.57,10Zm-15.35-2.6c1.53,1.8,3.59,2.7,6.17,2.7s4.64-.9,6.17-2.7c1.53-1.77,2.29-4.23,2.29-7.39s-.76-5.68-2.29-7.45c-1.53-1.77-3.59-2.65-6.17-2.65s-4.64.88-6.17,2.65c-1.53,1.77-2.29,4.25-2.29,7.45s.76,5.63,2.29,7.39Z"/>
    <path class="uuid-6fee2eda-2661-4088-8889-91db207767cc" d="m1378.05,165.92v-3.83h3.88v25.3c0,3.6-1.05,6.44-3.16,8.52-2.11,2.07-5.13,3.11-9.08,3.11-3.26,0-5.88-.75-7.85-2.24-1.97-1.5-3.09-3.57-3.37-6.22h4.08c.51,3.33,2.89,5,7.14,5,5.44,0,8.16-2.72,8.16-8.16v-2.55c-2.07,2.79-5.02,4.18-8.82,4.18s-6.67-1.26-8.87-3.77c-2.24-2.52-3.37-5.85-3.37-10s1.12-7.56,3.37-10.05c2.17-2.48,5.13-3.72,8.87-3.72s6.92,1.48,9.03,4.44Zm-8.52,19.43c2.58,0,4.64-.9,6.17-2.7,1.53-1.8,2.29-4.27,2.29-7.39s-.76-5.59-2.29-7.4c-1.53-1.8-3.59-2.7-6.17-2.7s-4.6.92-6.15,2.75c-1.55,1.84-2.32,4.28-2.32,7.34s.77,5.51,2.32,7.34c1.55,1.84,3.6,2.75,6.15,2.75Z"/>
    <path class="uuid-6fee2eda-2661-4088-8889-91db207767cc" d="m1400.39,161.68c.68,0,1.14.02,1.38.05v3.93h-1.02c-2.72,0-4.84.67-6.35,2.01s-2.27,3.26-2.27,5.74v14.99h-4.08v-26.32h3.88v4.64c1.77-3.37,4.59-5.05,8.47-5.05Z"/>
    <path class="uuid-6fee2eda-2661-4088-8889-91db207767cc" d="m1425.33,185.09h1.48v3.32c-.68.1-1.43.15-2.24.15-2.75,0-4.23-1.26-4.44-3.77-1.84,2.82-4.69,4.23-8.57,4.23-2.89,0-5.16-.67-6.81-2.01-1.65-1.34-2.47-3.24-2.47-5.69,0-4.76,3.25-7.48,9.74-8.16l3.77-.41c2.75-.31,4.13-1.51,4.13-3.62,0-1.46-.45-2.52-1.35-3.16-.9-.65-2.42-.97-4.56-.97-2.28,0-3.92.38-4.92,1.15-1,.76-1.57,2.12-1.71,4.05h-4.08c.34-5.81,3.91-8.72,10.71-8.72s9.89,2.55,9.89,7.65v14.69c0,.85.48,1.27,1.43,1.27Zm-13.57.46c2.18,0,4.08-.66,5.71-1.99,1.63-1.29,2.45-3.14,2.45-5.56v-3.11c-.75.58-1.9.95-3.47,1.12l-3.83.46c-2.21.27-3.78.78-4.72,1.53-.94.75-1.4,1.82-1.4,3.21s.44,2.42,1.33,3.19c.88.77,2.19,1.15,3.93,1.15Z"/>
    <path class="uuid-6fee2eda-2661-4088-8889-91db207767cc" d="m1443.28,161.48c3.71,0,6.68,1.24,8.92,3.72,2.21,2.52,3.32,5.87,3.32,10.05s-1.11,7.48-3.32,10c-2.24,2.52-5.22,3.77-8.92,3.77s-6.71-1.46-8.82-4.39v13.77h-4.08v-36.31h3.88v4.08c2.11-3.13,5.12-4.69,9.03-4.69Zm-.51,23.87c2.55,0,4.6-.93,6.15-2.78,1.55-1.85,2.32-4.36,2.32-7.52s-.76-5.52-2.27-7.27c-1.51-1.75-3.58-2.63-6.2-2.63s-4.64.88-6.17,2.65c-1.53,1.77-2.29,4.25-2.29,7.45s.76,5.63,2.29,7.39c1.53,1.8,3.59,2.7,6.17,2.7Z"/>
    <path class="uuid-6fee2eda-2661-4088-8889-91db207767cc" d="m1472.5,161.48c2.92,0,5.2.8,6.83,2.4,1.63,1.6,2.45,3.84,2.45,6.73v17.8h-4.08v-17.39c0-3.91-2.01-5.86-6.02-5.86-1.9,0-3.59.71-5.05,2.14s-2.19,3.5-2.19,6.22v14.89h-4.08v-36.31h4.08v13.62c2.01-2.82,4.69-4.23,8.06-4.23Z"/>
    <path class="uuid-6fee2eda-2661-4088-8889-91db207767cc" d="m1499.59,173.01l3.72-10.91h4.44l-11.12,30.45c-.78,2.21-1.85,3.76-3.21,4.67-1.36.9-3.15,1.35-5.35,1.35-.75,0-1.56-.05-2.45-.15v-3.42h2.4c2.35,0,3.94-1.09,4.79-3.26l.92-2.45-9.89-27.18h4.49l3.72,10.96c1.33,3.88,2.58,7.67,3.77,11.37.99-3.16,2.24-6.97,3.77-11.42Z"/>
    <path class="uuid-6fee2eda-2661-4088-8889-91db207767cc" d="m1375.91,244.22c-4.73,0-8.42-1.07-11.07-3.21-2.65-2.14-4-5.34-4.03-9.59h4.44c.1,5.95,3.65,8.93,10.66,8.93,2.96,0,5.23-.58,6.81-1.73,1.58-1.16,2.37-2.84,2.37-5.05,0-1.73-.65-3.09-1.96-4.05-1.31-.97-3.6-1.81-6.86-2.52l-3.21-.71c-3.67-.85-6.43-2.08-8.26-3.7-1.84-1.61-2.75-3.88-2.75-6.81s1.12-5.19,3.37-6.91,5.25-2.58,9.03-2.58c2.55,0,4.77.31,6.66.92,1.89.61,3.36,1.47,4.41,2.58,1.05,1.11,1.83,2.3,2.32,3.6.49,1.29.76,2.72.79,4.28h-4.39c-.2-2.58-1.05-4.48-2.53-5.69-1.48-1.21-3.9-1.81-7.27-1.81-2.55,0-4.51.49-5.89,1.48-1.38.99-2.07,2.36-2.07,4.13s.59,3.14,1.78,4.13c1.16.99,3.4,1.85,6.73,2.6l3.21.71c4.01.88,6.9,2.15,8.67,3.8,1.77,1.65,2.65,3.83,2.65,6.55,0,3.3-1.21,5.9-3.62,7.8-2.42,1.9-5.75,2.86-10,2.86Z"/>
    <path class="uuid-6fee2eda-2661-4088-8889-91db207767cc" d="m1404.88,217.09v3.57h-5.41v17.08c0,1.5,1,2.24,3.01,2.24h2.4v3.42c-1.12.1-2.09.15-2.91.15-4.39,0-6.58-1.82-6.58-5.46v-17.44h-4.33v-3.57h4.33v-7.45h4.08v7.45h5.41Z"/>
    <path class="uuid-6fee2eda-2661-4088-8889-91db207767cc" d="m1422.17,228.01l3.72-10.91h4.44l-11.12,30.45c-.78,2.21-1.85,3.77-3.21,4.67-1.36.9-3.15,1.35-5.35,1.35-.75,0-1.56-.05-2.45-.15v-3.42h2.4c2.35,0,3.94-1.09,4.79-3.26l.92-2.45-9.89-27.18h4.49l3.72,10.97c1.33,3.88,2.58,7.67,3.77,11.37.99-3.16,2.24-6.97,3.77-11.42Z"/>
    <path class="uuid-6fee2eda-2661-4088-8889-91db207767cc" d="m1437.21,243.41h-4.08v-36.31h4.08v36.31Z"/>
    <path class="uuid-6fee2eda-2661-4088-8889-91db207767cc" d="m1447.51,213.11h-4.33v-5h4.33v5Zm-.1,30.29h-4.08v-26.32h4.08v26.32Z"/>
    <path class="uuid-6fee2eda-2661-4088-8889-91db207767cc" d="m1465.67,216.48c2.92,0,5.2.8,6.83,2.4,1.63,1.6,2.45,3.84,2.45,6.73v17.8h-4.08v-17.39c0-3.91-2.01-5.87-6.02-5.87-1.9,0-3.59.71-5.05,2.14-1.46,1.43-2.19,3.5-2.19,6.22v14.89h-4.08v-26.32h3.88v3.93c2.01-3.03,4.76-4.54,8.26-4.54Z"/>
    <path class="uuid-6fee2eda-2661-4088-8889-91db207767cc" d="m1501.06,220.92v-3.83h3.88v25.3c0,3.6-1.05,6.44-3.16,8.52-2.11,2.07-5.13,3.11-9.08,3.11-3.26,0-5.88-.75-7.85-2.24-1.97-1.5-3.09-3.57-3.37-6.22h4.08c.51,3.33,2.89,5,7.14,5,5.44,0,8.16-2.72,8.16-8.16v-2.55c-2.07,2.79-5.02,4.18-8.82,4.18s-6.67-1.26-8.87-3.77c-2.24-2.52-3.37-5.85-3.37-10s1.12-7.56,3.37-10.05c2.17-2.48,5.13-3.72,8.87-3.72s6.92,1.48,9.03,4.44Zm-8.52,19.43c2.58,0,4.64-.9,6.17-2.7s2.29-4.27,2.29-7.4-.76-5.59-2.29-7.39c-1.53-1.8-3.59-2.7-6.17-2.7s-4.6.92-6.15,2.75c-1.55,1.84-2.32,4.28-2.32,7.34s.77,5.51,2.32,7.34c1.55,1.84,3.6,2.75,6.15,2.75Z"/>
  </g>
  <g>
    <path class="uuid-6fee2eda-2661-4088-8889-91db207767cc" d="m1885.68,147.04v2.04h-21.36v-2.52h15.93v-4.86h1.98l.03.48c.1,1.52.4,2.65.9,3.39.5.74,1.34,1.23,2.52,1.47Z"/>
    <path class="uuid-6fee2eda-2661-4088-8889-91db207767cc" d="m1884.42,164.44c-.94,1.16-2.18,1.98-3.73,2.46-1.55.48-3.5.72-5.83.72-3.52,0-6.28-.67-8.27-2.02-1.99-1.35-2.98-3.28-2.98-5.78,0-1.92.51-3.51,1.53-4.77,1.02-1.26,2.43-2.05,4.23-2.37v2.46c-1.12.24-1.98.76-2.58,1.57-.6.81-.9,1.85-.9,3.11,0,3.46,2.85,5.22,8.55,5.28-.86-.58-1.56-1.38-2.1-2.39s-.81-2.02-.81-3.04c0-2.24.68-4.01,2.04-5.31,1.36-1.32,3.08-1.98,5.16-1.98s3.82.67,5.16,2.01c1.36,1.32,2.04,3.1,2.04,5.34,0,1.86-.5,3.43-1.5,4.71Zm-9.24-8.1c-.92.86-1.38,1.99-1.38,3.39s.46,2.52,1.38,3.42c.9.9,2.08,1.35,3.54,1.35s2.63-.45,3.57-1.35c.9-.9,1.35-2.04,1.35-3.42s-.46-2.53-1.38-3.39c-.94-.88-2.12-1.32-3.54-1.32s-2.6.44-3.54,1.32Z"/>
    <path class="uuid-6fee2eda-2661-4088-8889-91db207767cc" d="m1871.7,178.99v-8.67h2.16v8.67h-2.16Z"/>
    <path class="uuid-6fee2eda-2661-4088-8889-91db207767cc" d="m1866.72,195.22c-1.92-1.3-2.88-3.23-2.88-5.79s.96-4.51,2.88-5.79c1.94-1.3,4.7-1.95,8.28-1.95s6.34.65,8.28,1.95c1.92,1.28,2.88,3.21,2.88,5.79s-.96,4.49-2.88,5.79c-1.94,1.3-4.7,1.95-8.28,1.95s-6.34-.65-8.28-1.95Zm17.16-5.79c0-3.4-2.96-5.1-8.88-5.1s-8.88,1.7-8.88,5.1,2.96,5.1,8.88,5.1,8.88-1.7,8.88-5.1Z"/>
    <path class="uuid-6fee2eda-2661-4088-8889-91db207767cc" d="m1878.24,206.98c0,2.28-.67,4.06-2.01,5.34-1.34,1.28-3.07,1.92-5.19,1.92s-3.82-.67-5.16-2.01-2.04-3.16-2.04-5.4c0-2.04.59-3.73,1.77-5.07,1.16-1.34,2.71-2.07,4.65-2.19v2.52c-1.28.12-2.29.62-3.03,1.5-.74.88-1.11,1.96-1.11,3.24,0,1.4.46,2.54,1.37,3.44.91.89,2.09,1.33,3.55,1.33s2.64-.45,3.56-1.33c.91-.89,1.36-2.04,1.36-3.44,0-2.1-.86-3.56-2.58-4.38v-2.34l12.3,1.8v11.04h-2.28v-9l-6.72-1.02c1.04,1.16,1.56,2.51,1.56,4.05Z"/>
    <path class="uuid-6fee2eda-2661-4088-8889-91db207767cc" d="m1871.7,225.31v-8.67h2.16v8.67h-2.16Z"/>
    <path class="uuid-6fee2eda-2661-4088-8889-91db207767cc" d="m1885.68,230.83v2.04h-21.36v-2.52h15.93v-4.86h1.98l.03.48c.1,1.52.4,2.65.9,3.39.5.74,1.34,1.23,2.52,1.47Z"/>
    <path class="uuid-6fee2eda-2661-4088-8889-91db207767cc" d="m1878.24,243.73c0,2.28-.67,4.06-2.01,5.34-1.34,1.28-3.07,1.92-5.19,1.92s-3.82-.67-5.16-2.01-2.04-3.16-2.04-5.4c0-2.04.59-3.73,1.77-5.07,1.16-1.34,2.71-2.07,4.65-2.19v2.52c-1.28.12-2.29.62-3.03,1.5-.74.88-1.11,1.96-1.11,3.24,0,1.4.46,2.54,1.37,3.44.91.89,2.09,1.33,3.55,1.33s2.64-.45,3.56-1.33c.91-.89,1.36-2.04,1.36-3.44,0-2.1-.86-3.56-2.58-4.38v-2.34l12.3,1.8v11.04h-2.28v-9l-6.72-1.02c1.04,1.16,1.56,2.51,1.56,4.05Z"/>
  </g>
</svg>