<?xml version="1.0" encoding="UTF-8"?>
<svg id="uuid-b702021f-83a0-4cb3-ab4e-6b4a234c7a8f" data-name="Layer 1" xmlns="http://www.w3.org/2000/svg" viewBox="0 0 1913 310.62">
  <defs>
    <style>
      .uuid-66427b3d-aabb-420f-a8e7-bf006193f4f4 {
        fill: #0d0d0d;
        stroke-width: 0px;
      }
    </style>
  </defs>
  <path class="uuid-66427b3d-aabb-420f-a8e7-bf006193f4f4" d="m63.55,106.79l-25.05,34.54-13.18-10.55,25.31-35.07-40.08-12.92,5.54-15.82,39.03,12.66v-41.66h16.88v41.66l39.02-12.66,5.54,15.82-40.08,12.92,25.31,35.07-13.18,10.55-25.05-34.54Z"/>
  <path class="uuid-66427b3d-aabb-420f-a8e7-bf006193f4f4" d="m201.19,229.93c-24.44,0-43.51-5.54-57.22-16.61-13.71-11.07-20.66-27.6-20.83-49.57h22.94c.53,30.76,18.89,46.14,55.11,46.14,15.29,0,27.03-2.99,35.2-8.96,8.17-5.97,12.26-14.68,12.26-26.1,0-8.96-3.39-15.95-10.15-20.96-6.77-5.01-18.59-9.36-35.47-13.05l-16.61-3.69c-18.99-4.39-33.22-10.77-42.72-19.12-9.49-8.35-14.24-20.08-14.24-35.2s5.8-26.85,17.4-35.73c11.6-8.87,27.16-13.32,46.67-13.32,13.18,0,24.65,1.58,34.41,4.75,9.76,3.16,17.36,7.61,22.81,13.32,5.45,5.71,9.45,11.91,12,18.59,2.55,6.68,3.91,14.07,4.09,22.15h-22.68c-1.05-13.36-5.41-23.16-13.05-29.4-7.65-6.24-20.17-9.36-37.57-9.36-13.18,0-23.34,2.55-30.46,7.65-7.12,5.1-10.68,12.22-10.68,21.36s3.07,16.26,9.23,21.36c5.97,5.1,17.58,9.58,34.81,13.45l16.61,3.69c20.74,4.57,35.68,11.12,44.83,19.64,9.14,8.53,13.71,19.82,13.71,33.88,0,17.05-6.24,30.5-18.72,40.34-12.48,9.85-29.71,14.77-51.68,14.77Z"/>
  <path class="uuid-66427b3d-aabb-420f-a8e7-bf006193f4f4" d="m344.37,89.65v18.46h-27.95v88.33c0,7.74,5.18,11.6,15.56,11.6h12.39v17.67c-5.8.53-10.81.79-15.03.79-22.68,0-34.02-9.4-34.02-28.21v-90.18h-22.41v-18.46h22.41v-38.5h21.09v38.5h27.95Z"/>
  <path class="uuid-66427b3d-aabb-420f-a8e7-bf006193f4f4" d="m449.84,166.65v-77h21.09v136.06h-20.04v-20.3c-10.37,15.65-24.61,23.47-42.72,23.47-15.12,0-26.9-4.13-35.33-12.39-8.44-8.26-12.66-19.86-12.66-34.81v-92.02h21.09v89.92c0,20.22,10.37,30.32,31.11,30.32,9.84,0,18.54-3.69,26.1-11.07,7.56-7.38,11.34-18.1,11.34-32.17Z"/>
  <path class="uuid-66427b3d-aabb-420f-a8e7-bf006193f4f4" d="m598.29,109.17V37.97h21.09v187.74h-20.04v-21.09c-10.9,16.18-26.46,24.26-46.67,24.26-19.16,0-34.46-6.5-45.88-19.51-11.6-13.01-17.4-30.23-17.4-51.68s5.8-39.11,17.4-51.95c11.25-12.83,26.54-19.25,45.88-19.25s34.72,7.56,45.62,22.68Zm-74.89,87.28c7.91,8.96,18.54,13.45,31.91,13.45s24-4.66,31.91-13.97c7.91-9.14,11.87-21.89,11.87-38.23s-3.96-28.91-11.87-38.23c-7.91-9.32-18.55-13.98-31.91-13.98s-23.78,4.79-31.77,14.37c-8,9.58-12,22.55-12,38.89s3.96,28.74,11.87,37.71Z"/>
  <path class="uuid-66427b3d-aabb-420f-a8e7-bf006193f4f4" d="m666.06,69.09h-22.41v-25.84h22.41v25.84Zm-.53,156.63h-21.09V89.65h21.09v136.06Z"/>
  <path class="uuid-66427b3d-aabb-420f-a8e7-bf006193f4f4" d="m797.37,209.36c-12.48,13.01-28.3,19.51-47.46,19.51s-34.98-6.5-47.46-19.51c-12.31-12.83-18.46-30.06-18.46-51.68s6.15-38.85,18.46-51.68c12.48-13.01,28.3-19.51,47.46-19.51s34.98,6.51,47.46,19.51c12.3,12.83,18.46,30.06,18.46,51.68s-6.16,38.85-18.46,51.68Zm-79.37-13.45c7.91,9.32,18.54,13.97,31.91,13.97s24-4.66,31.91-13.97c7.91-9.14,11.87-21.89,11.87-38.23s-3.96-29.35-11.87-38.5c-7.91-9.14-18.55-13.71-31.91-13.71s-24,4.57-31.91,13.71c-7.91,9.14-11.87,21.98-11.87,38.5s3.96,29.1,11.87,38.23Z"/>
  <path class="uuid-66427b3d-aabb-420f-a8e7-bf006193f4f4" d="m947.93,229.93c-24.44,0-43.51-5.54-57.22-16.61-13.71-11.07-20.66-27.6-20.83-49.57h22.94c.53,30.76,18.89,46.14,55.11,46.14,15.29,0,27.03-2.99,35.2-8.96,8.17-5.97,12.26-14.68,12.26-26.1,0-8.96-3.39-15.95-10.15-20.96-6.77-5.01-18.59-9.36-35.46-13.05l-16.61-3.69c-18.99-4.39-33.22-10.77-42.72-19.12-9.49-8.35-14.24-20.08-14.24-35.2s5.8-26.85,17.4-35.73c11.6-8.87,27.16-13.32,46.67-13.32,13.18,0,24.65,1.58,34.41,4.75,9.76,3.16,17.36,7.61,22.81,13.32,5.45,5.71,9.45,11.91,12,18.59,2.55,6.68,3.91,14.07,4.09,22.15h-22.68c-1.05-13.36-5.41-23.16-13.05-29.4-7.65-6.24-20.17-9.36-37.57-9.36-13.18,0-23.34,2.55-30.46,7.65-7.12,5.1-10.68,12.22-10.68,21.36s3.07,16.26,9.23,21.36c5.97,5.1,17.58,9.58,34.81,13.45l16.61,3.69c20.74,4.57,35.68,11.12,44.83,19.64,9.14,8.53,13.71,19.82,13.71,33.88,0,17.05-6.24,30.5-18.72,40.34-12.48,9.85-29.71,14.77-51.68,14.77Z"/>
  <path class="uuid-66427b3d-aabb-420f-a8e7-bf006193f4f4" d="m1156.77,157.68v7.38h-103.36c1.05,14.77,5.18,25.89,12.39,33.36,7.21,7.47,17.05,11.21,29.53,11.21,18.81,0,30.85-8.44,36.12-25.31h21.88c-3.69,13.71-10.55,24.57-20.57,32.57-10.02,8-22.68,12-37.97,12-18.81,0-34.01-6.42-45.62-19.25-11.78-12.83-17.67-30.15-17.67-51.95s5.8-38.67,17.4-51.68c11.42-13.01,26.54-19.51,45.35-19.51s34.81,6.77,45.88,20.3c11.07,13.54,16.61,30.5,16.61,50.89Zm-62.49-51.95c-11.07,0-20.13,3.47-27.16,10.42-7.03,6.95-11.43,16.92-13.18,29.93h80.16c-1.05-11.95-5.1-21.66-12.13-29.14-7.03-7.47-16.26-11.21-27.69-11.21Z"/>
  <path class="uuid-66427b3d-aabb-420f-a8e7-bf006193f4f4" d="m1239.03,87.54c3.51,0,5.89.09,7.12.26v20.3h-5.27c-14.07,0-25.01,3.47-32.83,10.42-7.82,6.95-11.73,16.83-11.73,29.66v77.52h-21.09V89.65h20.04v24c9.14-17.4,23.73-26.1,43.77-26.1Z"/>
  <path class="uuid-66427b3d-aabb-420f-a8e7-bf006193f4f4" d="m1332.64,150.04l22.41-60.38h22.68l-53.53,136.06h-22.15l-53.26-136.06h22.94l22.41,60.65c11.07,29.71,17.49,47.29,19.25,52.74,3.16-9.32,9.58-26.98,19.25-53Z"/>
  <path class="uuid-66427b3d-aabb-420f-a8e7-bf006193f4f4" d="m1408.58,69.09h-22.41v-25.84h22.41v25.84Zm-.53,156.63h-21.09V89.65h21.09v136.06Z"/>
  <path class="uuid-66427b3d-aabb-420f-a8e7-bf006193f4f4" d="m1489.53,228.88c-18.81,0-34.01-6.5-45.62-19.51-11.6-13.01-17.4-30.23-17.4-51.68s5.8-39.11,17.4-51.95c11.25-12.83,26.46-19.25,45.62-19.25,16.17,0,29.44,4.4,39.82,13.18,10.37,8.79,16.61,20.83,18.72,36.12h-21.88c-1.58-9.67-5.76-17.14-12.53-22.41-6.77-5.27-14.81-7.91-24.13-7.91-12.48,0-22.41,4.53-29.8,13.58-7.38,9.06-11.08,21.93-11.08,38.63s3.73,29.36,11.21,38.5c7.47,9.14,17.36,13.71,29.66,13.71,9.32,0,17.4-2.72,24.26-8.17,6.86-5.45,11.07-13.01,12.66-22.68h21.62c-2.29,15.29-8.75,27.42-19.38,36.39-10.64,8.96-23.69,13.45-39.16,13.45Z"/>
  <path class="uuid-66427b3d-aabb-420f-a8e7-bf006193f4f4" d="m1682.54,157.68v7.38h-103.36c1.05,14.77,5.18,25.89,12.39,33.36,7.21,7.47,17.05,11.21,29.53,11.21,18.81,0,30.85-8.44,36.12-25.31h21.88c-3.69,13.71-10.55,24.57-20.57,32.57-10.02,8-22.68,12-37.97,12-18.81,0-34.01-6.42-45.62-19.25-11.78-12.83-17.67-30.15-17.67-51.95s5.8-38.67,17.4-51.68c11.42-13.01,26.54-19.51,45.35-19.51s34.81,6.77,45.88,20.3c11.07,13.54,16.61,30.5,16.61,50.89Zm-62.49-51.95c-11.07,0-20.13,3.47-27.16,10.42-7.03,6.95-11.43,16.92-13.18,29.93h80.16c-1.05-11.95-5.1-21.66-12.13-29.14-7.03-7.47-16.26-11.21-27.69-11.21Z"/>
  <path class="uuid-66427b3d-aabb-420f-a8e7-bf006193f4f4" d="m1747.67,228.88c-36.39,0-55.64-15.47-57.75-46.41h21.36c1.23,10.2,4.61,17.45,10.15,21.75,5.54,4.31,14.28,6.46,26.24,6.46,21.79,0,32.7-7.03,32.7-21.09,0-6.15-2.24-10.81-6.72-13.97s-12.62-5.89-24.39-8.17l-12.66-2.37c-28.3-5.27-42.45-18.63-42.45-40.08,0-11.78,4.44-21.14,13.32-28.08,8.88-6.94,20.96-10.42,36.26-10.42,36.03,0,54.49,15.03,55.37,45.09h-21.09c-.53-9.84-3.52-16.79-8.96-20.83-5.45-4.04-13.89-6.06-25.31-6.06-9.14,0-16.17,1.76-21.09,5.27-4.92,3.52-7.38,8.44-7.38,14.77,0,5.98,2.11,10.46,6.33,13.45,4.22,2.99,11.25,5.54,21.09,7.65l12.13,2.37c16.7,3.34,28.7,8.09,35.99,14.24,7.29,6.16,10.94,14.77,10.94,25.84,0,12.83-4.79,22.81-14.37,29.93-9.58,7.12-22.81,10.68-39.68,10.68Z"/>
  <path class="uuid-66427b3d-aabb-420f-a8e7-bf006193f4f4" d="m1856.05,106.79l-25.05,34.54-13.18-10.55,25.31-35.07-40.08-12.92,5.54-15.82,39.02,12.66v-41.66h16.88v41.66l39.03-12.66,5.54,15.82-40.08,12.92,25.31,35.07-13.18,10.55-25.05-34.54Z"/>
</svg>