<?xml version="1.0" encoding="UTF-8"?>
<svg id="uuid-6ef2d920-9f67-4464-98c1-93154bc5c4ba" data-name="Layer 1" xmlns="http://www.w3.org/2000/svg" viewBox="0 0 1923 204.91">
  <defs>
    <style>
      .uuid-2b1ad886-90c5-4925-800c-903affb5eed0 {
        fill: #231f20;
        stroke-width: 0px;
      }
    </style>
  </defs>
  <g>
    <path class="uuid-2b1ad886-90c5-4925-800c-903affb5eed0" d="m87.23,70.84v3.16h-17.08v9.43h15.42v3.16h-15.42v10.68h16.91v3.16h-20.41v-29.59h20.57Z"/>
    <path class="uuid-2b1ad886-90c5-4925-800c-903affb5eed0" d="m97.49,100.93c-5.73,0-8.77-2.44-9.1-7.31h3.37c.19,1.61.73,2.75,1.6,3.43.87.68,2.25,1.02,4.14,1.02,3.44,0,5.15-1.11,5.15-3.32,0-.97-.35-1.7-1.06-2.2-.71-.5-1.99-.93-3.84-1.29l-2-.37c-4.46-.83-6.69-2.94-6.69-6.32,0-1.86.7-3.33,2.1-4.43,1.4-1.09,3.3-1.64,5.71-1.64,5.68,0,8.59,2.37,8.73,7.11h-3.32c-.08-1.55-.55-2.65-1.41-3.28-.86-.64-2.19-.96-3.99-.96-1.44,0-2.55.28-3.32.83-.78.55-1.16,1.33-1.16,2.33,0,.94.33,1.65,1,2.12.67.47,1.77.87,3.32,1.21l1.91.37c2.63.53,4.52,1.27,5.67,2.24,1.15.97,1.72,2.33,1.72,4.07,0,2.02-.76,3.59-2.27,4.72-1.51,1.12-3.59,1.68-6.25,1.68Z"/>
    <path class="uuid-2b1ad886-90c5-4925-800c-903affb5eed0" d="m117.28,78.99v2.91h-4.41v13.92c0,1.22.82,1.83,2.45,1.83h1.95v2.78c-.91.08-1.7.12-2.37.12-3.57,0-5.36-1.48-5.36-4.45v-14.21h-3.53v-2.91h3.53v-6.07h3.32v6.07h4.41Z"/>
    <path class="uuid-2b1ad886-90c5-4925-800c-903affb5eed0" d="m123.34,100.43h-4.2v-4.16h4.2v4.16Z"/>
    <path class="uuid-2b1ad886-90c5-4925-800c-903affb5eed0" d="m136.89,97.27h15.63v3.16h-19.53l.08-1.62c.17-2.44.72-4.53,1.66-6.28.94-1.75,2.54-3.27,4.78-4.57l3.74-2.16c1.88-1.11,3.22-2.19,4.01-3.24.79-1.05,1.18-2.33,1.18-3.82,0-1.63-.52-2.94-1.56-3.93s-2.47-1.48-4.3-1.48c-4.13,0-6.19,2.12-6.19,6.36h-3.45c-.03-3.02.82-5.36,2.54-7.02,1.72-1.66,4.11-2.49,7.19-2.49,2.8,0,5.07.79,6.82,2.37,1.75,1.64,2.62,3.7,2.62,6.19,0,3.82-2.24,7.04-6.73,9.64l-3.16,1.83c-1.83,1.11-3.15,2.18-3.95,3.22-.8,1.04-1.26,2.32-1.37,3.84Z"/>
    <path class="uuid-2b1ad886-90c5-4925-800c-903affb5eed0" d="m172.96,97.11c-1.8,2.66-4.47,3.99-8.02,3.99s-6.25-1.33-8.02-3.99c-1.8-2.69-2.7-6.51-2.7-11.47s.9-8.78,2.7-11.47c1.77-2.66,4.45-3.99,8.02-3.99s6.22,1.33,8.02,3.99c1.8,2.69,2.7,6.51,2.7,11.47s-.9,8.78-2.7,11.47Zm-8.02-23.77c-4.71,0-7.06,4.1-7.06,12.3s2.35,12.3,7.06,12.3,7.06-4.1,7.06-12.3-2.35-12.3-7.06-12.3Z"/>
    <path class="uuid-2b1ad886-90c5-4925-800c-903affb5eed0" d="m184.76,70.84h2.83v29.59h-3.49v-22.07h-6.73v-2.74l.67-.04c2.1-.14,3.67-.55,4.7-1.25,1.02-.69,1.7-1.86,2.04-3.49Z"/>
    <path class="uuid-2b1ad886-90c5-4925-800c-903affb5eed0" d="m201.6,81.15c3.16,0,5.62.93,7.4,2.78,1.77,1.86,2.66,4.25,2.66,7.19s-.93,5.29-2.78,7.15c-1.88,1.88-4.38,2.83-7.48,2.83-2.83,0-5.17-.82-7.02-2.45-1.86-1.61-2.87-3.75-3.03-6.44h3.49c.17,1.77.86,3.17,2.08,4.2,1.22,1.03,2.71,1.54,4.49,1.54,1.94,0,3.52-.63,4.76-1.89,1.23-1.26,1.85-2.9,1.85-4.92s-.62-3.66-1.85-4.92c-1.23-1.26-2.82-1.89-4.76-1.89-2.91,0-4.93,1.19-6.07,3.57h-3.24l2.49-17.04h15.29v3.16h-12.47l-1.41,9.31c1.61-1.44,3.48-2.16,5.61-2.16Z"/>
    <path class="uuid-2b1ad886-90c5-4925-800c-903affb5eed0" d="m70.15,120.71v26.43h14.88v3.16h-18.37v-29.59h3.49Z"/>
    <path class="uuid-2b1ad886-90c5-4925-800c-903affb5eed0" d="m102.9,147.72c-1.97,2.05-4.46,3.08-7.48,3.08s-5.51-1.03-7.48-3.08c-1.94-2.02-2.91-4.74-2.91-8.15s.97-6.12,2.91-8.15c1.97-2.05,4.46-3.08,7.48-3.08s5.51,1.02,7.48,3.08c1.94,2.02,2.91,4.74,2.91,8.15s-.97,6.12-2.91,8.15Zm-12.51-2.12c1.25,1.47,2.92,2.2,5.03,2.2s3.78-.73,5.03-2.2c1.25-1.44,1.87-3.45,1.87-6.03s-.62-4.63-1.87-6.07c-1.25-1.44-2.92-2.16-5.03-2.16s-3.78.72-5.03,2.16c-1.25,1.44-1.87,3.46-1.87,6.07s.62,4.58,1.87,6.03Z"/>
    <path class="uuid-2b1ad886-90c5-4925-800c-903affb5eed0" d="m115.86,150.8c-5.73,0-8.77-2.44-9.1-7.31h3.37c.19,1.61.73,2.75,1.6,3.43.87.68,2.25,1.02,4.14,1.02,3.44,0,5.15-1.11,5.15-3.32,0-.97-.35-1.7-1.06-2.2-.71-.5-1.99-.93-3.84-1.29l-2-.37c-4.46-.83-6.69-2.94-6.69-6.32,0-1.86.7-3.33,2.1-4.43,1.4-1.09,3.3-1.64,5.71-1.64,5.68,0,8.59,2.37,8.73,7.11h-3.32c-.08-1.55-.55-2.65-1.41-3.28-.86-.64-2.19-.96-3.99-.96-1.44,0-2.55.28-3.32.83-.78.55-1.16,1.33-1.16,2.33,0,.94.33,1.65,1,2.12.67.47,1.77.87,3.32,1.21l1.91.37c2.63.53,4.52,1.27,5.67,2.24,1.15.97,1.72,2.33,1.72,4.07,0,2.02-.76,3.59-2.27,4.72-1.51,1.12-3.59,1.68-6.25,1.68Z"/>
    <path class="uuid-2b1ad886-90c5-4925-800c-903affb5eed0" d="m159.33,150.3h-3.7l-3.45-8.6h-13.46l-3.41,8.6h-3.66l11.8-29.59h3.91l11.97,29.59Zm-19.24-12.09l-.12.33h10.97l-.17-.37c-.69-1.69-2.49-6.25-5.4-13.67-1.97,5.26-3.73,9.84-5.28,13.71Z"/>
    <path class="uuid-2b1ad886-90c5-4925-800c-903affb5eed0" d="m170.89,128.36c2.38,0,4.24.65,5.57,1.95,1.33,1.3,2,3.13,2,5.49v14.5h-3.32v-14.17c0-3.19-1.64-4.78-4.9-4.78-1.55,0-2.92.58-4.11,1.75-1.19,1.16-1.79,2.85-1.79,5.07v12.13h-3.32v-21.44h3.16v3.2c1.63-2.47,3.88-3.7,6.73-3.7Z"/>
    <path class="uuid-2b1ad886-90c5-4925-800c-903affb5eed0" d="m198.69,131.97v-3.12h3.16v20.61c0,2.94-.86,5.25-2.58,6.94-1.72,1.69-4.18,2.54-7.4,2.54-2.66,0-4.79-.61-6.4-1.83-1.61-1.22-2.52-2.91-2.74-5.07h3.32c.42,2.71,2.35,4.07,5.82,4.07,4.43,0,6.65-2.22,6.65-6.65v-2.08c-1.69,2.27-4.09,3.41-7.19,3.41s-5.43-1.03-7.23-3.08c-1.83-2.05-2.74-4.77-2.74-8.15s.91-6.17,2.74-8.19c1.77-2.02,4.18-3.03,7.23-3.03s5.64,1.21,7.36,3.62Zm-6.94,15.83c2.1,0,3.78-.73,5.03-2.2,1.25-1.47,1.87-3.48,1.87-6.03s-.62-4.56-1.87-6.03c-1.25-1.47-2.92-2.2-5.03-2.2s-3.75.75-5.01,2.24c-1.26,1.5-1.89,3.49-1.89,5.98s.63,4.49,1.89,5.98c1.26,1.5,2.93,2.24,5.01,2.24Z"/>
    <path class="uuid-2b1ad886-90c5-4925-800c-903affb5eed0" d="m224.5,139.58v1.16h-16.29c.17,2.33.82,4.08,1.95,5.26,1.14,1.18,2.69,1.77,4.65,1.77,2.96,0,4.86-1.33,5.69-3.99h3.45c-.58,2.16-1.66,3.87-3.24,5.13-1.58,1.26-3.57,1.89-5.98,1.89-2.96,0-5.36-1.01-7.19-3.03-1.86-2.02-2.78-4.75-2.78-8.19s.91-6.09,2.74-8.15c1.8-2.05,4.18-3.08,7.15-3.08s5.49,1.07,7.23,3.2c1.75,2.13,2.62,4.81,2.62,8.02Zm-9.85-8.19c-1.75,0-3.17.55-4.28,1.64-1.11,1.09-1.8,2.67-2.08,4.72h12.63c-.17-1.88-.8-3.41-1.91-4.59-1.11-1.18-2.56-1.77-4.36-1.77Z"/>
    <path class="uuid-2b1ad886-90c5-4925-800c-903affb5eed0" d="m230.73,150.3h-3.32v-29.59h3.32v29.59Z"/>
    <path class="uuid-2b1ad886-90c5-4925-800c-903affb5eed0" d="m253.38,139.58v1.16h-16.29c.17,2.33.82,4.08,1.95,5.26,1.14,1.18,2.69,1.77,4.65,1.77,2.96,0,4.86-1.33,5.69-3.99h3.45c-.58,2.16-1.66,3.87-3.24,5.13-1.58,1.26-3.57,1.89-5.98,1.89-2.96,0-5.36-1.01-7.19-3.03-1.86-2.02-2.78-4.75-2.78-8.19s.91-6.09,2.74-8.15c1.8-2.05,4.18-3.08,7.15-3.08s5.49,1.07,7.23,3.2c1.75,2.13,2.62,4.81,2.62,8.02Zm-9.85-8.19c-1.75,0-3.17.55-4.28,1.64-1.11,1.09-1.8,2.67-2.08,4.72h12.63c-.17-1.88-.8-3.41-1.91-4.59-1.11-1.18-2.56-1.77-4.36-1.77Z"/>
    <path class="uuid-2b1ad886-90c5-4925-800c-903affb5eed0" d="m263.64,150.8c-5.73,0-8.77-2.44-9.1-7.31h3.37c.19,1.61.73,2.75,1.6,3.43.87.68,2.25,1.02,4.14,1.02,3.44,0,5.15-1.11,5.15-3.32,0-.97-.35-1.7-1.06-2.2-.71-.5-1.99-.93-3.84-1.29l-2-.37c-4.46-.83-6.69-2.94-6.69-6.32,0-1.86.7-3.33,2.1-4.43,1.4-1.09,3.3-1.64,5.71-1.64,5.68,0,8.59,2.37,8.73,7.11h-3.32c-.08-1.55-.55-2.65-1.41-3.28-.86-.64-2.19-.96-3.99-.96-1.44,0-2.55.28-3.32.83-.78.55-1.16,1.33-1.16,2.33,0,.94.33,1.65,1,2.12.67.47,1.77.87,3.32,1.21l1.91.37c2.63.53,4.52,1.27,5.67,2.24,1.15.97,1.72,2.33,1.72,4.07,0,2.02-.76,3.59-2.27,4.72-1.51,1.12-3.59,1.68-6.25,1.68Z"/>
  </g>
  <g>
    <path class="uuid-2b1ad886-90c5-4925-800c-903affb5eed0" d="m1649.45,87.17l6.61-16.33h4.57v29.59h-3.41v-9.48c0-6.23.04-11.26.12-15.09-.67,1.83-1.54,4.07-2.62,6.73l-7.31,17.83h-2.99l-7.36-17.83c-1.08-2.66-1.95-4.9-2.62-6.73.08,3.82.12,8.85.12,15.09v9.48h-3.41v-29.59h4.57l6.86,16.83c1.03,2.52,2.15,5.36,3.37,8.52,1.69-4.49,2.85-7.49,3.49-9.02Z"/>
    <path class="uuid-2b1ad886-90c5-4925-800c-903affb5eed0" d="m1682.12,97.73h1.21v2.7c-.55.08-1.16.12-1.83.12-2.24,0-3.45-1.02-3.62-3.08-1.5,2.3-3.82,3.45-6.98,3.45-2.36,0-4.21-.55-5.55-1.64-1.34-1.09-2.02-2.64-2.02-4.63,0-3.88,2.65-6.09,7.94-6.65l3.08-.33c2.24-.25,3.37-1.23,3.37-2.95,0-1.19-.37-2.05-1.1-2.58-.73-.53-1.97-.79-3.72-.79-1.86,0-3.19.31-4.01.94-.82.62-1.28,1.72-1.39,3.3h-3.32c.28-4.74,3.19-7.11,8.73-7.11s8.06,2.08,8.06,6.23v11.97c0,.69.39,1.04,1.16,1.04Zm-11.05.37c1.77,0,3.32-.54,4.65-1.62,1.33-1.05,2-2.56,2-4.53v-2.54c-.61.47-1.55.78-2.83.91l-3.12.37c-1.8.22-3.08.64-3.84,1.25-.76.61-1.14,1.48-1.14,2.62s.36,1.97,1.08,2.6c.72.62,1.79.94,3.2.94Z"/>
    <path class="uuid-2b1ad886-90c5-4925-800c-903affb5eed0" d="m1701.11,82.06v-11.22h3.33v29.59h-3.16v-3.32c-1.72,2.55-4.17,3.82-7.36,3.82-3.02,0-5.43-1.02-7.23-3.08-1.83-2.05-2.74-4.77-2.74-8.15s.91-6.16,2.74-8.19c1.77-2.02,4.18-3.03,7.23-3.03s5.47,1.19,7.19,3.57Zm-11.8,13.76c1.25,1.41,2.92,2.12,5.03,2.12s3.78-.73,5.03-2.2c1.25-1.44,1.87-3.45,1.87-6.03s-.62-4.56-1.87-6.03c-1.25-1.47-2.92-2.2-5.03-2.2s-3.75.76-5.01,2.27c-1.26,1.51-1.89,3.55-1.89,6.13s.62,4.53,1.87,5.94Z"/>
    <path class="uuid-2b1ad886-90c5-4925-800c-903affb5eed0" d="m1727.08,89.71v1.16h-16.29c.17,2.33.82,4.08,1.95,5.26,1.14,1.18,2.69,1.77,4.66,1.77,2.96,0,4.86-1.33,5.69-3.99h3.45c-.58,2.16-1.66,3.87-3.24,5.13s-3.57,1.89-5.98,1.89c-2.96,0-5.36-1.01-7.19-3.03-1.86-2.02-2.78-4.75-2.78-8.19s.91-6.09,2.74-8.15c1.8-2.05,4.18-3.08,7.15-3.08s5.49,1.07,7.23,3.2c1.75,2.13,2.62,4.81,2.62,8.02Zm-9.85-8.19c-1.75,0-3.17.55-4.28,1.64-1.11,1.09-1.8,2.67-2.08,4.72h12.63c-.17-1.88-.8-3.41-1.91-4.59-1.11-1.18-2.56-1.77-4.36-1.77Z"/>
    <path class="uuid-2b1ad886-90c5-4925-800c-903affb5eed0" d="m1740.26,75.74h-3.53v-4.07h3.53v4.07Zm-.08,24.69h-3.32v-21.44h3.32v21.44Z"/>
    <path class="uuid-2b1ad886-90c5-4925-800c-903affb5eed0" d="m1754.01,78.49c2.38,0,4.24.65,5.57,1.95,1.33,1.3,2,3.13,2,5.49v14.5h-3.32v-14.17c0-3.19-1.64-4.78-4.9-4.78-1.55,0-2.92.58-4.11,1.75-1.19,1.16-1.79,2.85-1.79,5.07v12.14h-3.32v-21.44h3.16v3.2c1.63-2.47,3.88-3.7,6.73-3.7Z"/>
    <path class="uuid-2b1ad886-90c5-4925-800c-903affb5eed0" d="m1772.59,70.84h12.3c3.13,0,5.55.82,7.25,2.45,1.7,1.64,2.56,3.85,2.56,6.65s-.85,5.02-2.56,6.65c-1.7,1.63-4.12,2.45-7.25,2.45h-8.81v11.39h-3.49v-29.59Zm3.49,15.04h8.81c2.05,0,3.59-.51,4.63-1.52,1.04-1.01,1.56-2.49,1.56-4.43s-.52-3.41-1.56-4.43-2.58-1.52-4.63-1.52h-8.81v11.89Z"/>
    <path class="uuid-2b1ad886-90c5-4925-800c-903affb5eed0" d="m1813.44,97.73h1.21v2.7c-.55.08-1.16.12-1.83.12-2.24,0-3.45-1.02-3.62-3.08-1.5,2.3-3.82,3.45-6.98,3.45-2.36,0-4.2-.55-5.55-1.64-1.34-1.09-2.02-2.64-2.02-4.63,0-3.88,2.65-6.09,7.94-6.65l3.08-.33c2.24-.25,3.37-1.23,3.37-2.95,0-1.19-.37-2.05-1.1-2.58-.74-.53-1.97-.79-3.72-.79-1.86,0-3.19.31-4.01.94-.82.62-1.28,1.72-1.39,3.3h-3.33c.28-4.74,3.19-7.11,8.73-7.11s8.06,2.08,8.06,6.23v11.97c0,.69.39,1.04,1.16,1.04Zm-11.05.37c1.77,0,3.33-.54,4.66-1.62,1.33-1.05,1.99-2.56,1.99-4.53v-2.54c-.61.47-1.55.78-2.83.91l-3.12.37c-1.8.22-3.08.64-3.84,1.25-.76.61-1.14,1.48-1.14,2.62s.36,1.97,1.08,2.6c.72.62,1.79.94,3.2.94Z"/>
    <path class="uuid-2b1ad886-90c5-4925-800c-903affb5eed0" d="m1826.57,78.65c.55,0,.93.01,1.12.04v3.2h-.83c-2.22,0-3.94.55-5.17,1.64-1.23,1.09-1.85,2.65-1.85,4.68v12.22h-3.33v-21.44h3.16v3.78c1.44-2.74,3.74-4.11,6.9-4.11Z"/>
    <path class="uuid-2b1ad886-90c5-4925-800c-903affb5eed0" d="m1833.18,75.74h-3.53v-4.07h3.53v4.07Zm-.08,24.69h-3.33v-21.44h3.33v21.44Z"/>
    <path class="uuid-2b1ad886-90c5-4925-800c-903affb5eed0" d="m1844.61,100.93c-5.73,0-8.77-2.44-9.1-7.31h3.37c.19,1.61.73,2.75,1.6,3.43.87.68,2.25,1.02,4.13,1.02,3.44,0,5.15-1.11,5.15-3.32,0-.97-.35-1.7-1.06-2.2-.71-.5-1.99-.93-3.84-1.29l-2-.37c-4.46-.83-6.69-2.94-6.69-6.32,0-1.86.7-3.33,2.1-4.43,1.4-1.09,3.3-1.64,5.71-1.64,5.68,0,8.59,2.37,8.73,7.11h-3.33c-.08-1.55-.55-2.65-1.41-3.28-.86-.64-2.19-.96-3.99-.96-1.44,0-2.55.28-3.33.83-.78.55-1.16,1.33-1.16,2.33,0,.94.33,1.65,1,2.12.67.47,1.77.87,3.33,1.21l1.91.37c2.63.53,4.52,1.27,5.67,2.24,1.15.97,1.72,2.33,1.72,4.07,0,2.02-.75,3.59-2.26,4.72-1.51,1.12-3.59,1.68-6.25,1.68Z"/>
    <path class="uuid-2b1ad886-90c5-4925-800c-903affb5eed0" d="m1637.78,120.71h2.83v29.59h-3.49v-22.07h-6.73v-2.74l.67-.04c2.1-.14,3.67-.55,4.7-1.25,1.02-.69,1.7-1.86,2.04-3.49Z"/>
    <path class="uuid-2b1ad886-90c5-4925-800c-903affb5eed0" d="m1663.25,137.04l6.61-16.33h4.57v29.59h-3.41v-9.48c0-6.23.04-11.26.12-15.09-.67,1.83-1.54,4.07-2.62,6.73l-7.31,17.83h-2.99l-7.36-17.83c-1.08-2.66-1.95-4.9-2.62-6.73.08,3.82.12,8.85.12,15.09v9.48h-3.41v-29.59h4.57l6.86,16.83c1.02,2.52,2.15,5.36,3.37,8.52,1.69-4.49,2.85-7.49,3.49-9.02Z"/>
    <path class="uuid-2b1ad886-90c5-4925-800c-903affb5eed0" d="m1682.28,150.3h-3.49v-29.59h3.49v29.59Z"/>
    <path class="uuid-2b1ad886-90c5-4925-800c-903affb5eed0" d="m1690.14,120.71v26.43h14.88v3.16h-18.37v-29.59h3.49Z"/>
    <path class="uuid-2b1ad886-90c5-4925-800c-903affb5eed0" d="m1715.53,150.3h-3.24l10.6-29.59h3.24l-10.6,29.59Z"/>
    <path class="uuid-2b1ad886-90c5-4925-800c-903affb5eed0" d="m1755.34,120.71h3.95l-9.48,14.84h5.44v2.87h-7.27v3.12h7.27v2.83h-7.27v5.94h-3.49v-5.94h-7.27v-2.83h7.27v-3.12h-7.27v-2.87h5.44l-9.48-14.84h3.99l4.36,6.94c1.88,2.94,3.46,5.49,4.74,7.65,1.77-2.99,3.35-5.55,4.74-7.69l4.32-6.9Z"/>
    <path class="uuid-2b1ad886-90c5-4925-800c-903affb5eed0" d="m1782.52,140.37h3.45c-.5,3.41-1.8,6.01-3.91,7.81-2.11,1.83-4.63,2.74-7.56,2.74-3.24,0-5.94-1.02-8.1-3.05-2.16-2.04-3.53-4.84-4.11-8.42h-3.41v-2.83h3.12c-.03-.19-.04-.6-.04-1.21,0-.17.03-.8.08-1.91h-3.16v-2.87h3.53c.67-3.35,2.04-5.96,4.12-7.81,2.08-1.86,4.7-2.79,7.85-2.79s5.59.85,7.54,2.54c1.95,1.69,3.28,4.03,3.97,7.02h-3.7c-1.25-4.27-3.87-6.4-7.85-6.4-2.19,0-3.98.64-5.38,1.91-1.4,1.27-2.36,3.12-2.89,5.53h9.43v2.87h-9.81c-.06,1.11-.08,1.75-.08,1.91,0,.64.01,1.04.04,1.21h9.85v2.83h-9.56c.47,2.69,1.43,4.75,2.89,6.17,1.46,1.43,3.35,2.14,5.67,2.14,4.57,0,7.25-2.47,8.02-7.4Z"/>
    <path class="uuid-2b1ad886-90c5-4925-800c-903affb5eed0" d="m1810.82,142.28c0,2.55-.89,4.59-2.66,6.13-1.77,1.54-4.25,2.38-7.44,2.51v4.2h-2.91v-4.24c-3.27-.25-5.81-1.25-7.63-2.99-1.81-1.75-2.74-4.2-2.76-7.36h3.62c.08,4.32,2.34,6.71,6.77,7.15v-11.26l-.42-.08c-2.99-.69-5.24-1.7-6.73-3.01-1.5-1.32-2.24-3.17-2.24-5.55,0-2.24.84-4.06,2.51-5.44,1.68-1.38,3.97-2.15,6.88-2.29v-4.16h2.91v4.28c6.04.58,9.16,3.63,9.35,9.14h-3.57c-.14-1.8-.66-3.19-1.56-4.16-.9-.97-2.31-1.58-4.22-1.83v10.31l.87.21c3.27.72,5.62,1.75,7.06,3.1,1.44,1.34,2.16,3.12,2.16,5.34Zm-18.78-14.5c0,1.39.42,2.46,1.25,3.22s2.34,1.42,4.53,1.97v-9.77c-1.88.11-3.32.56-4.3,1.35-.98.79-1.48,1.86-1.48,3.22Zm8.69,9.31v10.68c4.32-.3,6.48-2.13,6.48-5.49,0-1.33-.49-2.39-1.48-3.18-.98-.79-2.65-1.46-5.01-2.02Z"/>
  </g>
  <g>
    <path class="uuid-2b1ad886-90c5-4925-800c-903affb5eed0" d="m809.06,97.27h15.63v3.16h-19.53l.08-1.62c.17-2.44.72-4.53,1.66-6.28.94-1.75,2.54-3.27,4.78-4.57l3.74-2.16c1.88-1.11,3.22-2.19,4.01-3.24.79-1.05,1.18-2.33,1.18-3.82,0-1.63-.52-2.94-1.56-3.93s-2.47-1.48-4.3-1.48c-4.13,0-6.19,2.12-6.19,6.36h-3.45c-.03-3.02.82-5.36,2.54-7.02,1.72-1.66,4.11-2.49,7.19-2.49,2.8,0,5.07.79,6.82,2.37,1.75,1.64,2.62,3.7,2.62,6.19,0,3.82-2.24,7.04-6.73,9.64l-3.16,1.83c-1.83,1.11-3.15,2.18-3.95,3.22-.8,1.04-1.26,2.32-1.37,3.84Z"/>
    <path class="uuid-2b1ad886-90c5-4925-800c-903affb5eed0" d="m845.13,97.11c-1.8,2.66-4.47,3.99-8.02,3.99s-6.25-1.33-8.02-3.99c-1.8-2.69-2.7-6.51-2.7-11.47s.9-8.78,2.7-11.47c1.77-2.66,4.45-3.99,8.02-3.99s6.22,1.33,8.02,3.99c1.8,2.69,2.7,6.51,2.7,11.47s-.9,8.78-2.7,11.47Zm-8.02-23.77c-4.71,0-7.06,4.1-7.06,12.3s2.35,12.3,7.06,12.3,7.06-4.1,7.06-12.3-2.35-12.3-7.06-12.3Z"/>
    <path class="uuid-2b1ad886-90c5-4925-800c-903affb5eed0" d="m853.7,97.27h15.63v3.16h-19.53l.08-1.62c.17-2.44.72-4.53,1.66-6.28.94-1.75,2.54-3.27,4.78-4.57l3.74-2.16c1.88-1.11,3.22-2.19,4.01-3.24.79-1.05,1.18-2.33,1.18-3.82,0-1.63-.52-2.94-1.56-3.93s-2.47-1.48-4.3-1.48c-4.13,0-6.19,2.12-6.19,6.36h-3.45c-.03-3.02.82-5.36,2.54-7.02,1.72-1.66,4.11-2.49,7.19-2.49,2.8,0,5.07.79,6.82,2.37,1.75,1.64,2.62,3.7,2.62,6.19,0,3.82-2.24,7.04-6.73,9.64l-3.16,1.83c-1.83,1.11-3.15,2.18-3.95,3.22-.8,1.04-1.26,2.32-1.37,3.84Z"/>
    <path class="uuid-2b1ad886-90c5-4925-800c-903affb5eed0" d="m886.19,84.68c3.3,1.72,4.95,4.2,4.95,7.44,0,2.69-.94,4.85-2.83,6.48-1.86,1.66-4.31,2.49-7.36,2.49-3.3,0-5.85-.86-7.67-2.58-1.81-1.72-2.71-4.06-2.68-7.02h3.45c.06,2.11.68,3.71,1.87,4.8,1.19,1.1,2.87,1.64,5.03,1.64,1.99,0,3.58-.53,4.76-1.58,1.18-1.05,1.77-2.47,1.77-4.24s-.6-3.23-1.81-4.3c-1.21-1.07-2.85-1.6-4.92-1.6h-2.2v-2.91h2c1.97,0,3.48-.44,4.55-1.33,1.07-.89,1.6-2.12,1.6-3.7s-.53-2.76-1.6-3.64c-1.07-.87-2.51-1.31-4.34-1.31s-3.33.48-4.43,1.43c-1.09.96-1.68,2.36-1.77,4.22h-3.49c.03-2.69.91-4.83,2.64-6.42,1.73-1.59,4.08-2.39,7.04-2.39s5.15.71,6.88,2.14c1.73,1.43,2.6,3.39,2.6,5.88,0,2.83-1.34,4.99-4.03,6.48Z"/>
    <path class="uuid-2b1ad886-90c5-4925-800c-903affb5eed0" d="m901.11,70.84h12.3c3.13,0,5.55.82,7.25,2.45,1.7,1.64,2.56,3.85,2.56,6.65s-.85,5.02-2.56,6.65c-1.7,1.63-4.12,2.45-7.25,2.45h-8.81v11.39h-3.49v-29.59Zm3.49,15.04h8.81c2.05,0,3.59-.51,4.63-1.52,1.04-1.01,1.56-2.49,1.56-4.43s-.52-3.41-1.56-4.43-2.58-1.52-4.63-1.52h-8.81v11.89Z"/>
    <path class="uuid-2b1ad886-90c5-4925-800c-903affb5eed0" d="m935.52,78.65c.55,0,.93.01,1.12.04v3.2h-.83c-2.22,0-3.94.55-5.17,1.64-1.23,1.09-1.85,2.65-1.85,4.68v12.22h-3.32v-21.44h3.16v3.78c1.44-2.74,3.74-4.11,6.9-4.11Z"/>
    <path class="uuid-2b1ad886-90c5-4925-800c-903affb5eed0" d="m956.18,89.71v1.16h-16.29c.17,2.33.82,4.08,1.95,5.26,1.14,1.18,2.69,1.77,4.65,1.77,2.96,0,4.86-1.33,5.69-3.99h3.45c-.58,2.16-1.66,3.87-3.24,5.13s-3.57,1.89-5.98,1.89c-2.96,0-5.36-1.01-7.19-3.03-1.86-2.02-2.78-4.75-2.78-8.19s.91-6.09,2.74-8.15c1.8-2.05,4.18-3.08,7.15-3.08s5.49,1.07,7.23,3.2c1.75,2.13,2.62,4.81,2.62,8.02Zm-9.85-8.19c-1.75,0-3.17.55-4.28,1.64-1.11,1.09-1.8,2.67-2.08,4.72h12.63c-.17-1.88-.8-3.41-1.91-4.59-1.11-1.18-2.56-1.77-4.36-1.77Z"/>
    <path class="uuid-2b1ad886-90c5-4925-800c-903affb5eed0" d="m981.65,78.49c2.33,0,4.13.67,5.42,2.02,1.29,1.34,1.93,3.14,1.93,5.38v14.55h-3.32v-14.21c0-3.16-1.5-4.74-4.49-4.74-1.58,0-2.89.63-3.93,1.89s-1.56,3.04-1.56,5.34v11.72h-3.32v-14.21c0-3.16-1.5-4.74-4.49-4.74-1.55,0-2.85.63-3.91,1.89-1.05,1.26-1.58,3.04-1.58,5.34v11.72h-3.33v-21.44h3.16v3.16c1.41-2.44,3.48-3.66,6.19-3.66,3.21,0,5.42,1.34,6.61,4.03,1.5-2.69,3.7-4.03,6.61-4.03Z"/>
    <path class="uuid-2b1ad886-90c5-4925-800c-903affb5eed0" d="m996.37,75.74h-3.53v-4.07h3.53v4.07Zm-.08,24.69h-3.33v-21.44h3.33v21.44Z"/>
    <path class="uuid-2b1ad886-90c5-4925-800c-903affb5eed0" d="m1018.93,89.71v1.16h-16.29c.17,2.33.82,4.08,1.95,5.26,1.14,1.18,2.69,1.77,4.66,1.77,2.96,0,4.86-1.33,5.69-3.99h3.45c-.58,2.16-1.66,3.87-3.24,5.13s-3.57,1.89-5.98,1.89c-2.96,0-5.36-1.01-7.19-3.03-1.86-2.02-2.78-4.75-2.78-8.19s.91-6.09,2.74-8.15c1.8-2.05,4.18-3.08,7.15-3.08s5.49,1.07,7.23,3.2c1.75,2.13,2.62,4.81,2.62,8.02Zm-9.85-8.19c-1.75,0-3.17.55-4.28,1.64-1.11,1.09-1.8,2.67-2.08,4.72h12.63c-.17-1.88-.8-3.41-1.91-4.59-1.11-1.18-2.56-1.77-4.36-1.77Z"/>
    <path class="uuid-2b1ad886-90c5-4925-800c-903affb5eed0" d="m1031.9,78.65c.55,0,.93.01,1.12.04v3.2h-.83c-2.22,0-3.94.55-5.17,1.64-1.23,1.09-1.85,2.65-1.85,4.68v12.22h-3.33v-21.44h3.16v3.78c1.44-2.74,3.74-4.11,6.9-4.11Z"/>
    <path class="uuid-2b1ad886-90c5-4925-800c-903affb5eed0" d="m805.9,120.71h9.97c4.49,0,8.03,1.3,10.64,3.91,2.58,2.61,3.86,6.23,3.86,10.89s-1.29,8.21-3.86,10.85c-2.63,2.63-6.18,3.95-10.64,3.95h-9.97v-29.59Zm3.49,26.43h6.48c3.49,0,6.17-1.03,8.04-3.08,1.87-2.05,2.81-4.9,2.81-8.56s-.94-6.51-2.81-8.56c-1.87-2.05-4.55-3.08-8.04-3.08h-6.48v23.27Z"/>
    <path class="uuid-2b1ad886-90c5-4925-800c-903affb5eed0" d="m852.2,139.58v1.16h-16.29c.17,2.33.82,4.08,1.95,5.26,1.14,1.18,2.69,1.77,4.65,1.77,2.96,0,4.86-1.33,5.69-3.99h3.45c-.58,2.16-1.66,3.87-3.24,5.13-1.58,1.26-3.57,1.89-5.98,1.89-2.96,0-5.36-1.01-7.19-3.03-1.86-2.02-2.78-4.75-2.78-8.19s.91-6.09,2.74-8.15c1.8-2.05,4.18-3.08,7.15-3.08s5.49,1.07,7.23,3.2c1.75,2.13,2.62,4.81,2.62,8.02Zm-9.85-8.19c-1.75,0-3.17.55-4.28,1.64-1.11,1.09-1.8,2.67-2.08,4.72h12.63c-.17-1.88-.8-3.41-1.91-4.59-1.11-1.18-2.56-1.77-4.36-1.77Z"/>
    <path class="uuid-2b1ad886-90c5-4925-800c-903affb5eed0" d="m862.46,150.8c-5.73,0-8.77-2.44-9.1-7.31h3.37c.19,1.61.73,2.75,1.6,3.43.87.68,2.25,1.02,4.14,1.02,3.44,0,5.15-1.11,5.15-3.32,0-.97-.35-1.7-1.06-2.2-.71-.5-1.99-.93-3.84-1.29l-2-.37c-4.46-.83-6.69-2.94-6.69-6.32,0-1.86.7-3.33,2.1-4.43,1.4-1.09,3.3-1.64,5.71-1.64,5.68,0,8.59,2.37,8.73,7.11h-3.32c-.08-1.55-.55-2.65-1.41-3.28-.86-.64-2.19-.96-3.99-.96-1.44,0-2.55.28-3.32.83-.78.55-1.16,1.33-1.16,2.33,0,.94.33,1.65,1,2.12.67.47,1.77.87,3.32,1.21l1.91.37c2.63.53,4.52,1.27,5.67,2.24,1.15.97,1.72,2.33,1.72,4.07,0,2.02-.76,3.59-2.27,4.72-1.51,1.12-3.59,1.68-6.25,1.68Z"/>
    <path class="uuid-2b1ad886-90c5-4925-800c-903affb5eed0" d="m876.68,125.62h-3.53v-4.07h3.53v4.07Zm-.08,24.69h-3.32v-21.44h3.32v21.44Z"/>
    <path class="uuid-2b1ad886-90c5-4925-800c-903affb5eed0" d="m896.83,131.97v-3.12h3.16v20.61c0,2.94-.86,5.25-2.58,6.94-1.72,1.69-4.18,2.54-7.4,2.54-2.66,0-4.79-.61-6.4-1.83-1.61-1.22-2.52-2.91-2.74-5.07h3.32c.42,2.71,2.35,4.07,5.82,4.07,4.43,0,6.65-2.22,6.65-6.65v-2.08c-1.69,2.27-4.09,3.41-7.19,3.41s-5.43-1.03-7.23-3.08c-1.83-2.05-2.74-4.77-2.74-8.15s.91-6.17,2.74-8.19c1.77-2.02,4.18-3.03,7.23-3.03s5.64,1.21,7.36,3.62Zm-6.94,15.83c2.1,0,3.78-.73,5.03-2.2,1.25-1.47,1.87-3.48,1.87-6.03s-.62-4.56-1.87-6.03c-1.25-1.47-2.92-2.2-5.03-2.2s-3.75.75-5.01,2.24c-1.26,1.5-1.89,3.49-1.89,5.98s.63,4.49,1.89,5.98c1.26,1.5,2.93,2.24,5.01,2.24Z"/>
    <path class="uuid-2b1ad886-90c5-4925-800c-903affb5eed0" d="m913.83,128.36c2.38,0,4.24.65,5.57,1.95,1.33,1.3,2,3.13,2,5.49v14.5h-3.32v-14.17c0-3.19-1.64-4.78-4.9-4.78-1.55,0-2.92.58-4.11,1.75-1.19,1.16-1.79,2.85-1.79,5.07v12.13h-3.32v-21.44h3.16v3.2c1.63-2.47,3.88-3.7,6.73-3.7Z"/>
    <path class="uuid-2b1ad886-90c5-4925-800c-903affb5eed0" d="m930.54,120.71h23.73v3.16h-10.06v26.43h-3.62v-26.43h-10.06v-3.16Z"/>
    <path class="uuid-2b1ad886-90c5-4925-800c-903affb5eed0" d="m970.27,139.58v1.16h-16.29c.17,2.33.82,4.08,1.95,5.26,1.14,1.18,2.69,1.77,4.65,1.77,2.96,0,4.86-1.33,5.69-3.99h3.45c-.58,2.16-1.66,3.87-3.24,5.13-1.58,1.26-3.57,1.89-5.98,1.89-2.96,0-5.36-1.01-7.19-3.03-1.86-2.02-2.78-4.75-2.78-8.19s.91-6.09,2.74-8.15c1.8-2.05,4.18-3.08,7.15-3.08s5.49,1.07,7.23,3.2c1.75,2.13,2.62,4.81,2.62,8.02Zm-9.85-8.19c-1.75,0-3.17.55-4.28,1.64-1.11,1.09-1.8,2.67-2.08,4.72h12.63c-.17-1.88-.8-3.41-1.91-4.59s-2.56-1.77-4.36-1.77Z"/>
    <path class="uuid-2b1ad886-90c5-4925-800c-903affb5eed0" d="m990.51,147.6h1.21v2.7c-.55.08-1.16.12-1.83.12-2.24,0-3.45-1.03-3.62-3.08-1.5,2.3-3.82,3.45-6.98,3.45-2.36,0-4.21-.55-5.55-1.64s-2.02-2.64-2.02-4.63c0-3.88,2.65-6.09,7.94-6.65l3.08-.33c2.24-.25,3.37-1.23,3.37-2.95,0-1.19-.37-2.05-1.1-2.58-.73-.53-1.97-.79-3.72-.79-1.86,0-3.19.31-4.01.93-.82.62-1.28,1.72-1.39,3.3h-3.32c.28-4.74,3.19-7.11,8.73-7.11s8.06,2.08,8.06,6.23v11.97c0,.69.39,1.04,1.16,1.04Zm-11.05.37c1.77,0,3.32-.54,4.65-1.62,1.33-1.05,2-2.56,2-4.53v-2.54c-.61.47-1.55.78-2.83.91l-3.12.37c-1.8.22-3.08.64-3.84,1.25-.76.61-1.14,1.48-1.14,2.62s.36,1.97,1.08,2.6c.72.62,1.79.94,3.2.94Z"/>
    <path class="uuid-2b1ad886-90c5-4925-800c-903affb5eed0" d="m1016.15,128.36c2.33,0,4.14.67,5.42,2.01,1.29,1.34,1.93,3.14,1.93,5.38v14.55h-3.33v-14.21c0-3.16-1.5-4.74-4.49-4.74-1.58,0-2.89.63-3.93,1.89s-1.56,3.04-1.56,5.34v11.72h-3.33v-14.21c0-3.16-1.5-4.74-4.49-4.74-1.55,0-2.85.63-3.91,1.89s-1.58,3.04-1.58,5.34v11.72h-3.32v-21.44h3.16v3.16c1.41-2.44,3.48-3.66,6.19-3.66,3.21,0,5.42,1.34,6.61,4.03,1.5-2.69,3.7-4.03,6.61-4.03Z"/>
  </g>
</svg>