<?xml version="1.0" encoding="utf-8"?>
<!-- Generator: Adobe Illustrator 28.0.0, SVG Export Plug-In . SVG Version: 6.00 Build 0)  -->
<svg version="1.1" id="Layer_1" xmlns="http://www.w3.org/2000/svg" xmlns:xlink="http://www.w3.org/1999/xlink" x="0px" y="0px"
	 viewBox="0 0 147.8 151.5" style="enable-background:new 0 0 147.8 151.5;" xml:space="preserve">
<style type="text/css">
	.st0{fill:#FFFFFF;}
	.st1{font-family:'HelveticaNowDisplay-Regular';}
	.st2{font-size:32.7733px;}
</style>
<g>
	<path class="st0" d="M107.1,7.7l-0.7-0.3c-6.2,12.9-11.5,23.7-16,32.8c0.3,0.2,0.7,0.3,1,0.5C95.8,31.5,100.9,20.5,107.1,7.7z"/>
	<path class="st0" d="M109.1,32.3l-0.6-0.5c-3.7,4.7-7.2,9-10.4,12.9c0.2,0.2,0.5,0.4,0.7,0.6C101.9,41.3,105.4,36.9,109.1,32.3z"/>
	<path class="st0" d="M74.5,36.5C74.4,26.4,74.3,14.3,74.3,0h-0.8c0,14.3-0.1,26.4-0.2,36.5c0.2,0,0.3,0,0.5,0
		C74.1,36.4,74.3,36.5,74.5,36.5z"/>
	<path class="st0" d="M61.9,21.2C61.9,21.2,61.9,21.2,61.9,21.2l-0.8,0.1c1.3,5.8,2.5,11.2,3.6,16.2c0.3-0.1,0.6-0.1,0.9-0.2
		C64.5,32.4,63.2,27,61.9,21.2z"/>
	<path class="st0" d="M86.7,21.4C86.7,21.4,86.7,21.4,86.7,21.4L86,21.2c-1.3,5.8-2.6,11.2-3.8,16.2c0.3,0.1,0.6,0.1,0.9,0.2
		C84.2,32.6,85.4,27.2,86.7,21.4z"/>
	<path class="st0" d="M41.4,7.3l-0.7,0.3c0,0,0.1,0.1,0.1,0.1c6.1,12.8,11.3,23.7,15.6,32.7c0.3-0.2,0.7-0.3,1-0.5
		C52.9,31,47.6,20.2,41.4,7.3z"/>
	<path class="st0" d="M133.4,28.8l-0.5-0.6c-11.1,8.9-20.6,16.3-28.6,22.5c0.2,0.3,0.5,0.6,0.7,0.9
		C112.8,45.3,122.2,37.7,133.4,28.8z"/>
	<path class="st0" d="M147.8,59.3l-0.2-0.7c-13.8,3.2-25.6,5.8-35.4,7.9c0.1,0.4,0.2,0.7,0.2,1.1C122.3,65.2,134,62.4,147.8,59.3z"
		/>
	<path class="st0" d="M124.5,51.8l-0.3-0.7c-5.4,2.6-10.3,4.9-14.9,7.1c0.1,0.3,0.3,0.6,0.4,0.8C114.2,56.8,119.1,54.4,124.5,51.8z"
		/>
	<path class="st0" d="M34.4,75.3c-5,0.1-10.5,0.1-16.3,0.1v0.8c5.9,0,11.3,0,16.3,0.1c0-0.1,0-0.1,0-0.2
		C34.3,75.8,34.3,75.5,34.4,75.3z"/>
	<path class="st0" d="M23.7,51.1l-0.3,0.7c0,0,0.1,0,0.1,0c5.3,2.6,10.2,4.9,14.7,7.2c0.1-0.3,0.3-0.6,0.4-0.8
		C34,56,29.1,53.7,23.7,51.1z"/>
	<path class="st0" d="M113.4,76.2c5-0.1,10.5-0.1,16.4-0.1v-0.8c-5.9,0-11.4,0-16.4-0.1c0,0.2,0,0.5,0,0.7
		C113.4,76.1,113.4,76.1,113.4,76.2z"/>
	<path class="st0" d="M23.4,99.6l0.3,0.7c0,0,0,0,0.1,0c5.2-2.5,10.1-4.8,14.6-6.9c-0.1-0.3-0.3-0.6-0.4-0.8
		C33.5,94.8,28.7,97.1,23.4,99.6z"/>
	<path class="st0" d="M124.1,100.3l0.3-0.7c-5.3-2.5-10.1-4.9-14.6-7.1c-0.1,0.3-0.3,0.6-0.4,0.8C114,95.5,118.8,97.8,124.1,100.3z"
		/>
	<path class="st0" d="M86,130.3l0.7-0.2c0,0,0,0,0,0c-1.3-5.6-2.4-10.8-3.5-15.7c-0.3,0.1-0.6,0.1-0.9,0.2
		C83.5,119.5,84.7,124.7,86,130.3z"/>
	<path class="st0" d="M61.1,130.1l0.7,0.2c0,0,0,0,0-0.1c1.3-5.6,2.5-10.8,3.6-15.6c-0.3-0.1-0.6-0.1-0.9-0.2
		C63.6,119.3,62.4,124.5,61.1,130.1z"/>
	<path class="st0" d="M106.4,144.1l0.7-0.3c0,0,0-0.1,0-0.1c-6.1-12.6-11.2-23.4-15.4-32.4c-0.3,0.2-0.7,0.3-1,0.5
		C95.1,120.8,100.3,131.5,106.4,144.1z"/>
	<path class="st0" d="M73.4,115.5c0.1,10,0.2,21.9,0.2,35.9h0.8c0-14,0.1-26,0.2-35.9c-0.2,0-0.4,0-0.6,0
		C73.7,115.6,73.5,115.5,73.4,115.5z"/>
	<path class="st0" d="M108.5,119.7l0.6-0.5c0,0,0,0,0-0.1c-3.6-4.5-6.9-8.7-10-12.6c-0.2,0.2-0.5,0.4-0.7,0.6
		C101.5,111,104.9,115.1,108.5,119.7z"/>
	<path class="st0" d="M112.4,85.1c9.8,2.1,21.5,4.7,35.3,7.9l0.2-0.7c-13.8-3.1-25.5-5.9-35.2-8.2C112.6,84.4,112.5,84.7,112.4,85.1
		z"/>
	<path class="st0" d="M132.8,123.2C132.9,123.2,132.9,123.2,132.8,123.2l0.5-0.5c-11-8.8-20.3-16.3-28.1-22.6
		c-0.2,0.3-0.5,0.6-0.7,0.9C112.5,107.1,121.9,114.5,132.8,123.2z"/>
	<path class="st0" d="M0,92.2l0.2,0.7c13.7-3.1,25.5-5.7,35.2-7.9c-0.1-0.4-0.2-0.7-0.2-1.1C25.4,86.3,13.8,89.1,0,92.2z"/>
	<path class="st0" d="M0.2,58.5L0,59.3c13.8,3.1,25.5,5.9,35.3,8.2c0.1-0.4,0.2-0.7,0.2-1.1C25.7,64.3,14,61.7,0.2,58.5z"/>
	<path class="st0" d="M39.4,31.8l-0.6,0.5c3.7,4.7,7.1,9,10.2,13c0.2-0.2,0.5-0.4,0.7-0.6C46.5,40.7,43.1,36.5,39.4,31.8z"/>
	<path class="st0" d="M14.9,28.2l-0.5,0.6C25.6,37.7,35,45.3,42.8,51.6c0.2-0.3,0.5-0.6,0.7-0.9C35.5,44.5,26.1,37.1,14.9,28.2z"/>
	<path class="st0" d="M14.5,122.7l0.5,0.6c11-8.8,20.4-16.2,28.3-22.3c-0.2-0.3-0.5-0.6-0.7-0.9C34.8,106.4,25.5,113.9,14.5,122.7z"
		/>
	<path class="st0" d="M38.8,119.2l0.6,0.5c3.6-4.5,7-8.7,10.1-12.6c-0.2-0.2-0.5-0.4-0.7-0.6C45.7,110.5,42.4,114.7,38.8,119.2z"/>
	<path class="st0" d="M40.7,143.8l0.7,0.3c6.1-12.6,11.3-23.3,15.7-32.3c-0.3-0.2-0.7-0.3-1-0.5C51.9,120.4,46.8,131.2,40.7,143.8z"
		/>
</g>
<text transform="matrix(1 0 0 1 49.165 88.1673)" class="st0 st1 st2">100</text>
</svg>
