<?xml version="1.0" encoding="utf-8"?>
<!-- Generator: Adobe Illustrator 28.0.0, SVG Export Plug-In . SVG Version: 6.00 Build 0)  -->
<svg version="1.1" id="uuid-6623818f-7643-41dc-8de9-56485a6dc990"
	 xmlns="http://www.w3.org/2000/svg" xmlns:xlink="http://www.w3.org/1999/xlink" x="0px" y="0px" viewBox="0 0 1923 325"
	 style="enable-background:new 0 0 1923 325;" xml:space="preserve">
<style type="text/css">
	.st0{fill:#FFFFFF;}
  .st1{fill:#FFFFFF;}
  .st2{fill:#FFFFFF;}
</style>
<g>
	<path class="st1" d="M43,83H29V69.8h43.2V83h-14v38.2H43C43,121.2,43,83,43,83z"/>
	<path class="st1" d="M78.4,69.8h15.3v17.9h15.4V69.8h15.3v51.4h-15.3v-20.4H93.7v20.4H78.4V69.8z"/>
	<path class="st1" d="M134,69.8h41.2V83h-25.9v6.4h23.5v12.2h-23.5v6.4H176v13.2h-42L134,69.8L134,69.8z"/>
	<path class="st1" d="M67.8,188c-0.8,1.1-1.8,2-2.8,2.8c-1.1,0.8-2.2,1.5-3.5,2.1c-1.2,0.5-2.4,0.9-3.8,1.2
		c-1.4,0.3-2.7,0.4-4.1,0.4c-7.4-0.1-13.2-2.7-17.4-7.8c-4.2-4.9-6.4-11.2-6.4-18.7c0.1-9.7,2.8-16.8,8.1-21.1
		c5.1-4.3,10.6-6.4,16.5-6.3c12.9,0.2,20.5,6.6,22.9,19.2H62.6c-0.3-1.9-1.1-3.5-2.4-4.7c-1.4-1.1-3-1.7-4.8-1.7
		c-2.5,0.1-4.5,0.6-5.9,1.7c-1.4,1.2-2.5,2.7-3.1,4.4c-0.6,1.7-1,3.3-1.1,5c-0.1,1.6-0.1,2.9-0.1,3.9c0,1.2,0.2,2.6,0.5,4.1
		c0.3,1.5,0.9,2.9,1.7,4.3c0.8,1.4,2,2.5,3.4,3.4c1.5,1,3.4,1.4,5.6,1.4c1.9,0,3.6-0.5,5.1-1.4c1.5-1,2.4-2.4,2.9-4.2l-6.7,0v-11
		h20.4v28.2h-9.7L67.8,188L67.8,188z"/>
	<path class="st1" d="M85.8,167.5c0-8,2.4-14.5,7.1-19.4c4.5-4.9,10.6-7.5,18.2-7.6c7.7,0.1,13.8,2.6,18.4,7.6
		c4.5,4.9,6.8,11.4,6.9,19.4c-0.1,8-2.3,14.4-6.9,19.3c-4.5,5-10.6,7.5-18.4,7.6c-7.6-0.1-13.7-2.6-18.2-7.6
		C88.2,181.9,85.9,175.5,85.8,167.5z M101.2,167.5c0,2.8,0.3,5.1,1.1,6.9c0.7,1.9,1.5,3.3,2.5,4.4c2.1,1.9,4.2,2.9,6.3,2.8
		c1,0,2.1-0.2,3.3-0.6c1.2-0.4,2.2-1.2,3.2-2.2c1-1.1,1.9-2.5,2.5-4.4c0.6-1.8,0.9-4.1,0.9-6.9s-0.3-5.3-0.9-7.2
		c-0.6-1.9-1.5-3.3-2.5-4.3c-2.2-1.9-4.3-2.8-6.5-2.7c-1,0-2,0.2-3.1,0.5c-1.1,0.4-2.2,1.2-3.2,2.2c-0.5,0.5-0.9,1.1-1.3,1.8
		c-0.4,0.7-0.8,1.5-1.2,2.5C101.5,162.2,101.1,164.6,101.2,167.5L101.2,167.5z"/>
	<path class="st1" d="M144.6,141.8h15.3v38.2h22v13.1h-37.3L144.6,141.8L144.6,141.8z"/>
	<path class="st1" d="M190,141.8h25.2c8.2,0.1,14.1,2.8,17.5,7.9c3.3,5.1,5,11,4.9,17.7c0.1,16.9-8.4,25.4-25.4,25.8H190V141.8z
		 M205.3,180.1h6c2.4,0,4.4-0.5,5.8-1.4c1.5-0.9,2.6-2,3.3-3.3c0.7-1.3,1.2-2.7,1.5-4.2c0.2-1.5,0.3-2.8,0.3-3.9
		c0-0.9-0.1-2.1-0.2-3.4c-0.2-1.3-0.8-2.7-1.6-4c-0.8-1.4-2-2.5-3.6-3.5c-1.6-0.9-3.8-1.3-6.6-1.3h-4.9L205.3,180.1L205.3,180.1z"/>
	<path class="st1" d="M31.3,213.8h26.2c3.5,0,6.4,0.6,8.8,1.6c2.4,1.1,4.3,2.5,5.7,4.3c2.8,3.8,4.2,7.7,4.1,11.6
		c-0.1,6.1-1.9,10.7-5.6,13.8c-3.7,3-8.6,4.5-14.6,4.5h-9.3v15.5H31.3C31.3,265.2,31.3,213.8,31.3,213.8z M46.6,237.4H53
		c2.2,0.1,4.2-0.2,6-0.8c0.8-0.4,1.5-0.9,2.1-1.7c0.5-0.7,0.7-1.7,0.7-3c-0.1-2.3-0.8-3.7-2.3-4.3c-1.5-0.5-3.3-0.8-5.4-0.7h-7.3
		L46.6,237.4L46.6,237.4z"/>
	<path class="st1" d="M81,213.8h29.8c4.6,0,8.5,1.2,11.7,3.7c3.2,2.5,4.8,6.1,4.9,11c0,2.7-0.6,5.3-1.8,7.7
		c-1.3,2.3-3.3,4.1-5.9,5.2c4.4,1.9,6.9,6.1,7.6,12.8c0.1,0.6,0.2,1.4,0.2,2.4c0.1,1,0.2,2,0.2,3.1c0.2,2.3,0.6,4.2,1.3,5.5h-15.3
		c-0.7-2.6-1.1-5.2-1.2-7.9c-0.1-1.3-0.2-2.5-0.4-3.8c-0.2-1.1-0.5-2.2-1-3.2c-0.5-1-1.2-1.7-2.1-2.3c-0.9-0.5-2.2-0.8-3.8-0.8h-8.7
		v18H81L81,213.8L81,213.8z M96.3,236.3h8.6c1.7,0.1,3.3-0.2,4.8-0.9c1.6-0.6,2.4-2,2.4-4.2c0-1.7-0.6-2.9-1.6-3.8
		c-1.2-0.9-3.4-1.3-6.5-1.3h-7.7L96.3,236.3L96.3,236.3z"/>
	<path class="st1" d="M135.3,213.8h15.3v51.4h-15.3V213.8z"/>
	<path class="st1" d="M159.4,213.8h15.7l14.5,27.5h0.2v-27.5h14.5v51.4h-14.9L174,237.1h-0.1v28.1h-14.5L159.4,213.8L159.4,213.8z"
		/>
	<path class="st1" d="M245.3,233c-0.1-0.5-0.2-1.2-0.4-2.1c-0.3-0.8-0.7-1.6-1.3-2.4c-0.5-0.9-1.3-1.7-2.4-2.3
		c-1-0.5-2.3-0.8-3.9-0.8c-3.5,0.1-6,1.6-7.4,4.5c-1.4,2.8-2.2,6-2.1,9.7c-0.1,3.6,0.7,6.8,2.1,9.7c1.4,2.9,3.9,4.4,7.4,4.5
		c2.5,0,4.4-0.8,5.7-2.5c1.2-1.6,2-3.6,2.4-6.1h15.1c0,5.4-2,10.2-5.9,14.5c-3.9,4.4-9.5,6.7-16.9,6.9c-8-0.1-14.2-2.7-18.6-7.8
		c-4.4-5-6.6-11.4-6.6-19.1c0-8.2,2.3-14.8,6.9-19.6c4.5-4.9,10.6-7.3,18.4-7.4c13.7,0.4,21.2,7.2,22.5,20.4L245.3,233L245.3,233z"
		/>
	<path class="st1" d="M268.6,213.8h41.2V227h-25.9v6.4h23.5v12.2h-23.5v6.4h26.6v13.2h-42L268.6,213.8L268.6,213.8z"/>
	<path class="st1" d="M331.4,247.9c0,1.3,0.2,2.4,0.5,3.4c0.6,1.5,1.8,2.5,3.3,3c1.5,0.5,3,0.8,4.5,0.8c1.4,0.1,2.9-0.3,4.4-0.9
		c1.5-0.7,2.3-1.9,2.3-3.8c0-1.3-0.7-2.3-2.2-3.1c-1.6-0.7-4.5-1.7-8.9-2.8c-2.1-0.6-4.1-1.2-6-1.9c-2.1-0.7-3.9-1.6-5.6-2.6
		c-1.7-1.1-3.1-2.4-4.1-4.2c-1.1-1.6-1.6-3.7-1.6-6.3c0.1-5.9,2.2-10.3,6.3-13c3.9-2.6,8.5-4,13.8-4c5.6-0.1,10.4,1.1,14.4,3.6
		c3.9,2.6,6,7,6.4,13.1h-14.5c0.2-1.9-0.4-3.3-1.8-4.1c-1.4-0.8-2.9-1.3-4.5-1.3c-1.1,0-2.3,0.2-3.5,0.6c-0.5,0.2-1,0.6-1.4,1
		c-0.4,0.5-0.6,1.1-0.6,1.8c0.1,0.9,0.6,1.6,1.5,2.1c0.8,0.6,1.9,1.2,3.3,1.6c2.8,0.9,6.1,1.8,9.7,2.7c1.9,0.5,3.8,1.1,5.5,1.8
		c1.7,0.7,3.3,1.6,4.8,2.7c1.5,1.1,2.6,2.5,3.4,4.2c0.8,1.7,1.2,3.8,1.2,6.1c-0.1,6.6-2.6,11.2-7.4,13.8c-4.7,2.6-10.1,4-16,3.9
		c-1.5,0-3.4-0.2-5.8-0.7c-2.4-0.4-4.9-1.2-7.4-2.5c-2.5-1.3-4.6-3.1-6.3-5.6c-1.7-2.4-2.7-5.6-2.8-9.7L331.4,247.9L331.4,247.9z"/>
	<path class="st1" d="M379.5,247.9c0,1.3,0.2,2.4,0.5,3.4c0.6,1.5,1.8,2.5,3.3,3c1.5,0.5,3,0.8,4.5,0.8c1.4,0.1,2.9-0.3,4.4-0.9
		c1.5-0.7,2.3-1.9,2.3-3.8c0-1.3-0.7-2.3-2.2-3.1c-1.6-0.7-4.5-1.7-8.9-2.8c-2.1-0.6-4.1-1.2-6-1.9c-2.1-0.7-3.9-1.6-5.6-2.6
		c-1.7-1.1-3.1-2.4-4.1-4.2c-1.1-1.6-1.6-3.7-1.6-6.3c0.1-5.9,2.2-10.3,6.3-13c3.9-2.6,8.5-4,13.8-4c5.6-0.1,10.4,1.1,14.4,3.6
		c3.9,2.6,6,7,6.4,13.1h-14.5c0.2-1.9-0.4-3.3-1.8-4.1c-1.4-0.8-2.9-1.3-4.5-1.3c-1.1,0-2.3,0.2-3.5,0.6c-0.5,0.2-1,0.6-1.4,1
		c-0.4,0.5-0.6,1.1-0.6,1.8c0.1,0.9,0.6,1.6,1.5,2.1c0.8,0.6,1.9,1.2,3.3,1.6c2.8,0.9,6.1,1.8,9.7,2.7c1.9,0.5,3.8,1.1,5.5,1.8
		c1.7,0.7,3.3,1.6,4.8,2.7c1.5,1.1,2.6,2.5,3.4,4.2c0.8,1.7,1.2,3.8,1.2,6.1c-0.1,6.6-2.6,11.2-7.4,13.8c-4.7,2.6-10.1,4-16,3.9
		c-1.5,0-3.4-0.2-5.8-0.7c-2.4-0.4-4.9-1.2-7.4-2.5c-2.5-1.3-4.6-3.1-6.3-5.6c-1.7-2.4-2.7-5.6-2.8-9.7L379.5,247.9L379.5,247.9z"/>
</g>
<g>
	<polygon class="st2" points="531.6,199.4 513.7,199.4 568.9,106.9 586.8,106.9 	"/>
	<polygon class="st2" points="579.7,199.4 561.8,199.4 617,106.9 634.9,106.9 	"/>
	<polygon class="st2" points="627.8,199.4 609.9,199.4 665.1,106.9 683,106.9 	"/>
	<polygon class="st2" points="675.9,199.4 658,199.4 713.2,106.9 731.1,106.9 	"/>
	<polygon class="st2" points="724,199.4 706.1,199.4 761.3,106.9 779.2,106.9 	"/>
	<polygon class="st2" points="772.1,199.4 754.2,199.4 809.4,106.9 827.3,106.9 	"/>
</g>
<polygon class="st0" points="43,6.5 43,13 14.7,13 14.7,41.3 8.2,41.3 8.2,6.5 "/>
<polygon class="st0" points="1881.7,7.5 1881.7,14 1910,14 1910,42.3 1916.5,42.3 1916.5,7.5 "/>
<polygon class="st0" points="42.3,319.4 42.3,313 14,313 14,284.6 7.5,284.6 7.5,319.4 "/>
<polygon class="st0" points="1881.7,318.4 1881.7,312 1910,312 1910,283.6 1916.5,283.6 1916.5,318.4 "/>
<g>
	<g>
		<path class="st0" d="M1524.8,124.7h32.8c5,0,9.3,1.3,12.8,4c3.5,2.7,5.3,6.7,5.4,12.1c0,3-0.7,5.8-2,8.5c-1.4,2.6-3.6,4.5-6.5,5.7
			c4.8,2.1,7.6,6.8,8.3,14.1c0.1,0.7,0.2,1.5,0.2,2.6c0.1,1.1,0.2,2.2,0.2,3.4c0.2,2.6,0.7,4.6,1.4,6.1h-16.9
			c-0.8-2.9-1.2-5.8-1.3-8.7c-0.1-1.4-0.2-2.8-0.4-4.1c-0.2-1.3-0.6-2.4-1.1-3.5c-0.5-1.1-1.3-1.9-2.3-2.5c-1-0.6-2.4-0.9-4.2-0.9
			h-9.6v19.7h-16.8L1524.8,124.7L1524.8,124.7z M1541.6,149.4h9.4c1.8,0.1,3.6-0.3,5.2-1c1.7-0.7,2.6-2.2,2.7-4.7
			c0-1.8-0.6-3.2-1.8-4.2c-1.4-0.9-3.7-1.4-7.1-1.4h-8.4V149.4L1541.6,149.4z"/>
		<path class="st0" d="M1582.8,152.9c0.1-8.8,2.6-15.9,7.7-21.3c4.9-5.4,11.6-8.2,20-8.3c8.5,0.1,15.2,2.9,20.2,8.3
			c5,5.4,7.5,12.5,7.6,21.3c-0.1,8.8-2.6,15.8-7.6,21.2c-5,5.5-11.7,8.3-20.2,8.4c-8.4-0.1-15-2.9-20-8.4
			C1585.4,168.8,1582.9,161.7,1582.8,152.9z M1599.6,152.9c0,3.1,0.4,5.6,1.2,7.6c0.7,2,1.7,3.6,2.8,4.8c2.3,2.1,4.7,3.1,7,3.1
			c1.1,0,2.3-0.2,3.6-0.7c1.3-0.5,2.4-1.3,3.5-2.4c1.2-1.2,2.1-2.8,2.8-4.8c0.7-2,1-4.6,1-7.6s-0.3-5.8-1-7.9
			c-0.7-2.1-1.6-3.6-2.8-4.7c-2.4-2.1-4.8-3.1-7.1-3c-1.1,0-2.2,0.2-3.4,0.5c-1.2,0.5-2.4,1.3-3.5,2.4c-0.5,0.5-1,1.2-1.5,1.9
			c-0.5,0.8-0.9,1.7-1.3,2.8C1600,147.2,1599.6,149.8,1599.6,152.9L1599.6,152.9z"/>
		<path class="st0" d="M1659.9,160.4l-19.2-35.6h18.6l9.1,20.8l9.5-20.8h18.4l-19.6,35.6v20.8h-16.8L1659.9,160.4L1659.9,160.4z"/>
		<path class="st0" d="M1709.4,124.7h16.5l19.9,56.5h-17.5l-2.3-8.1h-17.4l-2.5,8.1h-16.9L1709.4,124.7L1709.4,124.7z M1722.7,161.1
			l-4.9-17.5h-0.2l-5.3,17.5L1722.7,161.1L1722.7,161.1z"/>
		<path class="st0" d="M1751.4,124.7h16.8v42h24.2v14.4h-41L1751.4,124.7L1751.4,124.7z"/>
		<path class="st0" d="M1541,203.8h16.5l19.9,56.5h-17.5l-2.3-8.1h-17.4l-2.5,8.1h-16.9L1541,203.8L1541,203.8z M1554.2,240.1
			l-4.9-17.5h-0.2l-5.3,17.5L1554.2,240.1L1554.2,240.1z"/>
		<path class="st0" d="M1583,203.8h16.8v42h24.2v14.4h-41L1583,203.8L1583,203.8z"/>
		<path class="st0" d="M1632.8,203.8h16.8v42h24.2v14.4h-41L1632.8,203.8L1632.8,203.8z"/>
		<path class="st0" d="M1732.2,238.5c0,15.5-8.5,23.2-25.4,23.2c-17,0-25.5-7.7-25.5-23.2v-34.6h16.8v30.8c0,1.4,0.1,2.9,0.2,4.4
			c0.1,1.5,0.4,2.9,1,4.3c0.5,1.3,1.4,2.3,2.6,3.1c1.2,0.8,2.9,1.2,5,1.2s3.8-0.4,5-1.2c1.2-0.8,2-1.8,2.5-3.1
			c0.5-1.3,0.8-2.8,1-4.3c0.1-1.5,0.1-2.9,0.1-4.4v-30.8h16.8L1732.2,238.5L1732.2,238.5z"/>
		<path class="st0" d="M1741.5,203.8h32.8c5,0,9.3,1.3,12.8,4c3.5,2.7,5.3,6.7,5.4,12.1c0,3-0.7,5.8-2,8.5c-1.4,2.6-3.6,4.5-6.5,5.7
			c4.8,2.1,7.6,6.8,8.3,14.1c0.1,0.7,0.2,1.5,0.2,2.6c0.1,1.1,0.2,2.2,0.2,3.4c0.2,2.6,0.7,4.6,1.4,6.1h-16.9
			c-0.8-2.9-1.2-5.8-1.3-8.7c-0.1-1.4-0.2-2.8-0.4-4.1c-0.2-1.3-0.6-2.4-1.1-3.5c-0.5-1.1-1.3-1.9-2.3-2.5c-1-0.6-2.4-0.9-4.2-0.9
			h-9.6v19.7h-16.8L1741.5,203.8L1741.5,203.8z M1758.4,228.5h9.4c1.8,0.1,3.6-0.3,5.2-1c1.7-0.7,2.6-2.2,2.7-4.7
			c0-1.8-0.6-3.2-1.8-4.2c-1.4-0.9-3.7-1.4-7.1-1.4h-8.4V228.5L1758.4,228.5z"/>
		<path class="st0" d="M1801.2,203.8h45.2v14.4H1818v7.1h25.8v13.4H1818v7.1h29.3v14.4h-46.1L1801.2,203.8L1801.2,203.8z"/>
	</g>
	<g>
		<path class="st0" d="M1219.4,63.9h14.1c3.6,0,6.3,0.9,8.3,2.8c1.9,1.9,2.9,4.4,2.9,7.6s-1,5.7-2.9,7.6c-1.9,1.9-4.7,2.8-8.3,2.8
			h-10.1v13h-4C1219.4,97.6,1219.4,63.9,1219.4,63.9z M1223.4,81.1h10.1c2.3,0,4.1-0.6,5.3-1.7c1.2-1.2,1.8-2.8,1.8-5.1
			s-0.6-3.9-1.8-5.1c-1.2-1.2-2.9-1.7-5.3-1.7h-10.1V81.1L1223.4,81.1z"/>
		<path class="st0" d="M1259.7,72.6c2.7,0,4.8,0.7,6.4,2.2c1.5,1.5,2.3,3.6,2.3,6.3v16.6h-3.8V81.5c0-3.6-1.9-5.5-5.6-5.5
			c-1.8,0-3.3,0.7-4.7,2c-1.4,1.3-2,3.3-2,5.8v13.9h-3.8V63.9h3.8v12.7C1254.1,73.9,1256.6,72.6,1259.7,72.6z"/>
		<path class="st0" d="M1293.3,94.7c-2.2,2.3-5.1,3.5-8.5,3.5s-6.3-1.2-8.5-3.5c-2.2-2.3-3.3-5.4-3.3-9.3s1.1-7,3.3-9.3
			c2.2-2.3,5.1-3.5,8.5-3.5s6.3,1.2,8.5,3.5c2.2,2.3,3.3,5.4,3.3,9.3S1295.5,92.4,1293.3,94.7z M1279,92.3c1.4,1.7,3.3,2.5,5.7,2.5
			s4.3-0.8,5.7-2.5c1.4-1.6,2.1-3.9,2.1-6.9s-0.7-5.3-2.1-6.9c-1.4-1.6-3.3-2.5-5.7-2.5s-4.3,0.8-5.7,2.5s-2.1,3.9-2.1,6.9
			S1277.6,90.7,1279,92.3z"/>
		<path class="st0" d="M1310.4,73.2v3.3h-5v15.9c0,1.4,0.9,2.1,2.8,2.1h2.2v3.2c-1,0.1-1.9,0.1-2.7,0.1c-4.1,0-6.1-1.7-6.1-5.1V76.5
			h-4v-3.3h4v-6.9h3.8v6.9L1310.4,73.2L1310.4,73.2z"/>
		<path class="st0" d="M1333.2,94.7c-2.2,2.3-5.1,3.5-8.5,3.5s-6.3-1.2-8.5-3.5c-2.2-2.3-3.3-5.4-3.3-9.3s1.1-7,3.3-9.3
			c2.2-2.3,5.1-3.5,8.5-3.5s6.3,1.2,8.5,3.5c2.2,2.3,3.3,5.4,3.3,9.3S1335.4,92.4,1333.2,94.7z M1318.9,92.3
			c1.4,1.7,3.3,2.5,5.7,2.5s4.3-0.8,5.7-2.5c1.4-1.6,2.1-3.9,2.1-6.9s-0.7-5.3-2.1-6.9c-1.4-1.6-3.3-2.5-5.7-2.5s-4.3,0.8-5.7,2.5
			s-2.1,3.9-2.1,6.9S1317.5,90.7,1318.9,92.3z"/>
		<path class="st0" d="M1359.6,76.7v-3.6h3.6v23.5c0,3.3-1,6-2.9,7.9s-4.8,2.9-8.4,2.9c-3,0-5.5-0.7-7.3-2.1
			c-1.8-1.4-2.9-3.3-3.1-5.8h3.8c0.5,3.1,2.7,4.7,6.6,4.7c5.1,0,7.6-2.5,7.6-7.6v-2.4c-1.9,2.6-4.7,3.9-8.2,3.9s-6.2-1.2-8.3-3.5
			c-2.1-2.3-3.1-5.4-3.1-9.3s1-7,3.1-9.3c2-2.3,4.8-3.5,8.3-3.5S1357.7,74,1359.6,76.7L1359.6,76.7z M1351.7,94.8
			c2.4,0,4.3-0.8,5.7-2.5c1.4-1.7,2.1-4,2.1-6.9s-0.7-5.2-2.1-6.9s-3.3-2.5-5.7-2.5s-4.3,0.8-5.7,2.6s-2.2,4-2.2,6.8
			s0.7,5.1,2.2,6.8S1349.3,94.8,1351.7,94.8L1351.7,94.8z"/>
		<path class="st0" d="M1380.4,72.8c0.6,0,1.1,0,1.3,0.1v3.7h-0.9c-2.5,0-4.5,0.6-5.9,1.9s-2.1,3-2.1,5.3v13.9h-3.8V73.2h3.6v4.3
			C1374.2,74.4,1376.8,72.8,1380.4,72.8L1380.4,72.8z"/>
		<path class="st0" d="M1403.6,94.6h1.4v3.1c-0.6,0.1-1.3,0.1-2.1,0.1c-2.6,0-3.9-1.2-4.1-3.5c-1.7,2.6-4.4,3.9-8,3.9
			c-2.7,0-4.8-0.6-6.3-1.9c-1.5-1.2-2.3-3-2.3-5.3c0-4.4,3-7,9.1-7.6l3.5-0.4c2.6-0.3,3.8-1.4,3.8-3.4c0-1.4-0.4-2.3-1.3-2.9
			c-0.8-0.6-2.2-0.9-4.2-0.9c-2.1,0-3.7,0.4-4.6,1.1s-1.5,2-1.6,3.8h-3.8c0.3-5.4,3.6-8.1,10-8.1s9.2,2.4,9.2,7.1v13.7
			C1402.3,94.2,1402.7,94.6,1403.6,94.6L1403.6,94.6z M1391,95c2,0,3.8-0.6,5.3-1.8c1.5-1.2,2.3-2.9,2.3-5.2v-2.9
			c-0.7,0.5-1.8,0.9-3.2,1l-3.6,0.4c-2.1,0.2-3.5,0.7-4.4,1.4c-0.9,0.7-1.3,1.7-1.3,3s0.4,2.2,1.2,3S1389.4,95,1391,95L1391,95z"/>
		<path class="st0" d="M1420.3,72.6c3.4,0,6.2,1.2,8.3,3.5c2.1,2.3,3.1,5.5,3.1,9.3s-1,7-3.1,9.3c-2.1,2.3-4.9,3.5-8.3,3.5
			s-6.2-1.4-8.2-4.1v12.8h-3.8V73.2h3.6V77C1413.9,74,1416.7,72.6,1420.3,72.6L1420.3,72.6z M1419.8,94.8c2.4,0,4.3-0.9,5.7-2.6
			c1.4-1.7,2.2-4.1,2.2-7s-0.7-5.1-2.1-6.8c-1.4-1.6-3.3-2.4-5.8-2.4s-4.3,0.8-5.7,2.5s-2.1,3.9-2.1,6.9s0.7,5.2,2.1,6.9
			C1415.5,94,1417.4,94.8,1419.8,94.8z"/>
		<path class="st0" d="M1447.5,72.6c2.7,0,4.8,0.7,6.4,2.2c1.5,1.5,2.3,3.6,2.3,6.3v16.6h-3.8V81.5c0-3.6-1.9-5.5-5.6-5.5
			c-1.8,0-3.3,0.7-4.7,2c-1.4,1.3-2,3.3-2,5.8v13.9h-3.8V63.9h3.8v12.7C1441.9,73.9,1444.4,72.6,1447.5,72.6z"/>
		<path class="st0" d="M1472.7,83.3l3.5-10.2h4.1l-10.3,28.3c-0.7,2.1-1.7,3.5-3,4.3c-1.3,0.8-2.9,1.3-5,1.3c-0.7,0-1.5-0.1-2.3-0.1
			v-3.2h2.2c2.2,0,3.7-1,4.5-3l0.8-2.3l-9.2-25.3h4.2l3.5,10.2c1.2,3.6,2.4,7.1,3.5,10.6C1470.1,91,1471.2,87.5,1472.7,83.3
			L1472.7,83.3z"/>
		<path class="st0" d="M999.4,132.8c3.9,1.5,5.8,4.2,5.8,8.1c0,2.9-1,5.3-2.9,6.9s-4.6,2.5-8.1,2.5h-14.8v-33.8h14
			c3.3,0,5.8,0.8,7.6,2.4c1.8,1.6,2.7,3.8,2.7,6.4C1003.9,128.8,1002.4,131.3,999.4,132.8L999.4,132.8z M993.3,120.2h-9.8v11.2h9.8
			c2.2,0,3.8-0.5,5-1.5c1.1-1,1.7-2.4,1.7-4.3c0-1.7-0.6-3-1.7-3.9C997.1,120.7,995.5,120.2,993.3,120.2z M983.5,146.8h10.6
			c2.3,0,4.1-0.5,5.3-1.5c1.2-1,1.8-2.5,1.8-4.4c0-4-2.4-6-7.2-6h-10.5L983.5,146.8L983.5,146.8z"/>
		<path class="st0" d="M1020.8,125.5c0.6,0,1.1,0,1.3,0.1v3.7h-1c-2.5,0-4.5,0.6-5.9,1.9s-2.1,3-2.1,5.3v13.9h-3.8v-24.5h3.6v4.3
			C1014.5,127.1,1017.2,125.5,1020.8,125.5L1020.8,125.5z"/>
		<path class="st0" d="M1044,147.3h1.4v3.1c-0.6,0.1-1.3,0.1-2.1,0.1c-2.6,0-3.9-1.2-4.1-3.5c-1.7,2.6-4.4,3.9-8,3.9
			c-2.7,0-4.8-0.6-6.3-1.9c-1.5-1.2-2.3-3-2.3-5.3c0-4.4,3-7,9.1-7.6l3.5-0.4c2.6-0.3,3.8-1.4,3.8-3.4c0-1.4-0.4-2.3-1.3-2.9
			s-2.2-0.9-4.2-0.9c-2.1,0-3.7,0.4-4.6,1.1s-1.5,2-1.6,3.8h-3.8c0.3-5.4,3.6-8.1,10-8.1s9.2,2.4,9.2,7.1v13.7
			C1042.6,146.9,1043.1,147.3,1044,147.3L1044,147.3z M1031.4,147.7c2,0,3.8-0.6,5.3-1.9c1.5-1.2,2.3-2.9,2.3-5.2v-2.9
			c-0.7,0.5-1.8,0.9-3.2,1l-3.6,0.4c-2.1,0.2-3.5,0.7-4.4,1.4c-0.9,0.7-1.3,1.7-1.3,3s0.4,2.2,1.2,3S1029.7,147.7,1031.4,147.7
			L1031.4,147.7z"/>
		<path class="st0" d="M1060,125.3c2.7,0,4.8,0.7,6.4,2.2c1.5,1.5,2.3,3.6,2.3,6.3v16.6h-3.8v-16.2c0-3.6-1.9-5.5-5.6-5.5
			c-1.8,0-3.3,0.7-4.7,2s-2,3.3-2,5.8v13.9h-3.8v-24.5h3.6v3.6C1054.1,126.7,1056.7,125.3,1060,125.3L1060,125.3z"/>
		<path class="st0" d="M1092.7,129.4v-12.8h3.8v33.8h-3.6v-3.8c-2,2.9-4.8,4.4-8.4,4.4c-3.4,0-6.2-1.2-8.3-3.5
			c-2.1-2.3-3.1-5.4-3.1-9.3s1-7,3.1-9.4c2-2.3,4.8-3.5,8.3-3.5S1090.8,126.7,1092.7,129.4L1092.7,129.4z M1079.2,145.1
			c1.4,1.6,3.3,2.4,5.7,2.4s4.3-0.8,5.7-2.5c1.4-1.6,2.1-3.9,2.1-6.9s-0.7-5.2-2.1-6.9s-3.3-2.5-5.7-2.5s-4.3,0.9-5.7,2.6
			c-1.4,1.7-2.2,4.1-2.2,7S1077.8,143.5,1079.2,145.1L1079.2,145.1z"/>
		<path class="st0" d="M1123.8,151.1c-4.4,0-7.8-1-10.3-3c-2.5-2-3.7-5-3.8-8.9h4.1c0.1,5.5,3.4,8.3,9.9,8.3c2.8,0,4.9-0.5,6.3-1.6
			s2.2-2.6,2.2-4.7c0-1.6-0.6-2.9-1.8-3.8s-3.3-1.7-6.4-2.4l-3-0.7c-3.4-0.8-6-1.9-7.7-3.4s-2.6-3.6-2.6-6.3s1-4.8,3.1-6.4
			s4.9-2.4,8.4-2.4c2.4,0,4.4,0.3,6.2,0.8s3.1,1.4,4.1,2.4s1.7,2.1,2.2,3.3c0.5,1.2,0.7,2.5,0.7,4h-4.1c-0.2-2.4-1-4.2-2.3-5.3
			s-3.6-1.7-6.8-1.7c-2.4,0-4.2,0.5-5.5,1.4s-1.9,2.2-1.9,3.8s0.6,2.9,1.7,3.8c1.1,0.9,3.2,1.7,6.3,2.4l3,0.7c3.7,0.8,6.4,2,8.1,3.5
			c1.7,1.5,2.5,3.6,2.5,6.1c0,3.1-1.1,5.5-3.4,7.3C1130.9,150.3,1127.8,151.1,1123.8,151.1L1123.8,151.1z"/>
		<path class="st0" d="M1150.8,125.9v3.3h-5v15.9c0,1.4,0.9,2.1,2.8,2.1h2.2v3.2c-1,0.1-1.9,0.1-2.7,0.1c-4.1,0-6.1-1.7-6.1-5.1
			v-16.2h-4v-3.3h4V119h3.8v6.9L1150.8,125.9L1150.8,125.9z"/>
		<path class="st0" d="M1166.3,125.5c0.6,0,1.1,0,1.3,0.1v3.7h-0.9c-2.5,0-4.5,0.6-5.9,1.9s-2.1,3-2.1,5.3v13.9h-3.8v-24.5h3.6v4.3
			C1160.1,127.1,1162.7,125.5,1166.3,125.5z"/>
		<path class="st0" d="M1189.5,147.3h1.4v3.1c-0.6,0.1-1.3,0.1-2.1,0.1c-2.6,0-3.9-1.2-4.1-3.5c-1.7,2.6-4.4,3.9-8,3.9
			c-2.7,0-4.8-0.6-6.3-1.9c-1.5-1.2-2.3-3-2.3-5.3c0-4.4,3-7,9.1-7.6l3.5-0.4c2.6-0.3,3.8-1.4,3.8-3.4c0-1.4-0.4-2.3-1.3-2.9
			s-2.2-0.9-4.2-0.9c-2.1,0-3.7,0.4-4.6,1.1s-1.5,2-1.6,3.8h-3.8c0.3-5.4,3.6-8.1,10-8.1s9.2,2.4,9.2,7.1v13.7
			C1188.2,146.9,1188.6,147.3,1189.5,147.3L1189.5,147.3z M1176.9,147.7c2,0,3.8-0.6,5.3-1.9c1.5-1.2,2.3-2.9,2.3-5.2v-2.9
			c-0.7,0.5-1.8,0.9-3.2,1l-3.6,0.4c-2.1,0.2-3.5,0.7-4.4,1.4c-0.9,0.7-1.3,1.7-1.3,3s0.4,2.2,1.2,3S1175.3,147.7,1176.9,147.7
			L1176.9,147.7z"/>
		<path class="st0" d="M1204,125.9v3.3h-5v15.9c0,1.4,0.9,2.1,2.8,2.1h2.2v3.2c-1,0.1-1.9,0.1-2.7,0.1c-4.1,0-6.1-1.7-6.1-5.1v-16.2
			h-4v-3.3h4V119h3.8v6.9L1204,125.9L1204,125.9z"/>
		<path class="st0" d="M1228.9,138.1v1.3h-18.6c0.2,2.7,0.9,4.7,2.2,6c1.3,1.4,3.1,2,5.3,2c3.4,0,5.6-1.5,6.5-4.6h3.9
			c-0.7,2.5-1.9,4.4-3.7,5.9c-1.8,1.4-4.1,2.2-6.8,2.2c-3.4,0-6.1-1.1-8.2-3.5c-2.1-2.3-3.2-5.4-3.2-9.4s1-7,3.1-9.3
			c2.1-2.3,4.8-3.5,8.2-3.5s6.3,1.2,8.3,3.7C1227.9,131.4,1228.9,134.5,1228.9,138.1L1228.9,138.1z M1217.6,128.8
			c-2,0-3.6,0.6-4.9,1.9s-2.1,3-2.4,5.4h14.4c-0.2-2.1-0.9-3.9-2.2-5.2C1221.3,129.5,1219.7,128.8,1217.6,128.8L1217.6,128.8z"/>
		<path class="st0" d="M1252,129.5v-3.6h3.6v23.5c0,3.4-1,6-2.9,7.9s-4.8,2.9-8.4,2.9c-3,0-5.5-0.7-7.3-2.1
			c-1.8-1.4-2.9-3.3-3.1-5.8h3.8c0.5,3.1,2.7,4.6,6.6,4.6c5.1,0,7.6-2.5,7.6-7.6v-2.4c-1.9,2.6-4.7,3.9-8.2,3.9s-6.2-1.2-8.3-3.5
			c-2.1-2.3-3.1-5.4-3.1-9.3s1-7,3.1-9.4c2-2.3,4.8-3.5,8.3-3.5S1250,126.7,1252,129.5L1252,129.5z M1244.1,147.5
			c2.4,0,4.3-0.8,5.7-2.5c1.4-1.7,2.1-4,2.1-6.9s-0.7-5.2-2.1-6.9s-3.3-2.5-5.7-2.5s-4.3,0.9-5.7,2.6c-1.4,1.7-2.2,4-2.2,6.8
			s0.7,5.1,2.2,6.8S1241.7,147.5,1244.1,147.5L1244.1,147.5z"/>
		<path class="st0" d="M1273.1,136.1l3.5-10.2h4.1l-10.3,28.3c-0.7,2.1-1.7,3.5-3,4.3s-2.9,1.3-5,1.3c-0.7,0-1.5-0.1-2.3-0.1v-3.2
			h2.2c2.2,0,3.7-1,4.5-3l0.8-2.3l-9.2-25.3h4.2l3.5,10.2c1.2,3.6,2.4,7.1,3.5,10.6C1270.5,143.7,1271.7,140.2,1273.1,136.1
			L1273.1,136.1z"/>
		<path class="st0" d="M1314.6,143.1l6.6,7.3h-5.1l-3.6-4c-2.7,3.2-6.3,4.8-10.9,4.8c-3.1,0-5.6-0.9-7.4-2.8c-1.9-1.8-2.8-4-2.8-6.6
			c0-2.2,0.6-4.1,1.8-5.6s3.2-3.1,6.1-4.6c-1.4-1.6-2.5-3.1-3.1-4.4c-0.6-1.3-0.9-2.6-0.9-3.8c0-2.1,0.8-3.8,2.3-5.3
			c1.5-1.4,3.5-2.1,6-2.1c2.2,0,4.2,0.7,5.8,1.9c1.6,1.3,2.4,3.1,2.4,5.4c0,3.3-2.3,6.4-6.9,9l7,7.8c0.6-1.8,0.9-3.8,0.9-5.9h3.8
			C1316.6,137.5,1315.9,140.5,1314.6,143.1L1314.6,143.1z M1301.8,147.5c3.5,0,6.2-1.3,8.2-4l-8.5-9.5c-2.2,1.2-3.7,2.3-4.7,3.4
			s-1.4,2.5-1.4,4.1s0.6,3.1,1.8,4.2S1299.9,147.5,1301.8,147.5L1301.8,147.5z M1303.5,119.3c-1.3,0-2.3,0.4-3.1,1.1
			c-0.8,0.7-1.2,1.7-1.2,2.9c0,1.7,1.1,3.8,3.4,6.4c1.8-1,3.1-2,3.9-3c0.8-1,1.2-2.1,1.2-3.4c0-1.2-0.4-2.1-1.2-2.9
			S1304.7,119.3,1303.5,119.3L1303.5,119.3z"/>
		<path class="st0" d="M1337.3,150.4h-4v-33.8h4V150.4z"/>
		<path class="st0" d="M1361.6,129.4v-12.8h3.8v33.8h-3.6v-3.8c-2,2.9-4.8,4.4-8.4,4.4c-3.4,0-6.2-1.2-8.3-3.5
			c-2.1-2.3-3.1-5.4-3.1-9.3s1-7,3.1-9.4c2-2.3,4.8-3.5,8.3-3.5S1359.7,126.7,1361.6,129.4L1361.6,129.4z M1348.1,145.1
			c1.4,1.6,3.3,2.4,5.7,2.4s4.3-0.8,5.7-2.5c1.4-1.6,2.1-3.9,2.1-6.9s-0.7-5.2-2.1-6.9s-3.3-2.5-5.7-2.5s-4.3,0.9-5.7,2.6
			c-1.4,1.7-2.2,4.1-2.2,7S1346.7,143.5,1348.1,145.1L1348.1,145.1z"/>
		<path class="st0" d="M1392.5,138.1v1.3h-18.6c0.2,2.7,0.9,4.7,2.2,6c1.3,1.4,3.1,2,5.3,2c3.4,0,5.6-1.5,6.5-4.6h3.9
			c-0.7,2.5-1.9,4.4-3.7,5.9c-1.8,1.4-4.1,2.2-6.8,2.2c-3.4,0-6.1-1.1-8.2-3.5c-2.1-2.3-3.2-5.4-3.2-9.4s1-7,3.1-9.3
			c2.1-2.3,4.8-3.5,8.2-3.5s6.3,1.2,8.3,3.7C1391.5,131.4,1392.5,134.5,1392.5,138.1L1392.5,138.1z M1381.2,128.8
			c-2,0-3.6,0.6-4.9,1.9s-2.1,3-2.4,5.4h14.4c-0.2-2.1-0.9-3.9-2.2-5.2C1384.9,129.5,1383.3,128.8,1381.2,128.8L1381.2,128.8z"/>
		<path class="st0" d="M1408.3,125.3c2.7,0,4.8,0.7,6.4,2.2c1.5,1.5,2.3,3.6,2.3,6.3v16.6h-3.8v-16.2c0-3.6-1.9-5.5-5.6-5.5
			c-1.8,0-3.3,0.7-4.7,2s-2,3.3-2,5.8v13.9h-3.8v-24.5h3.6v3.6C1402.4,126.7,1405,125.3,1408.3,125.3L1408.3,125.3z"/>
		<path class="st0" d="M1432.4,125.9v3.3h-5v15.9c0,1.4,0.9,2.1,2.8,2.1h2.2v3.2c-1,0.1-1.9,0.1-2.7,0.1c-4.1,0-6.1-1.7-6.1-5.1
			v-16.2h-4v-3.3h4V119h3.8v6.9L1432.4,125.9L1432.4,125.9z"/>
		<path class="st0" d="M1440.3,122.2h-4v-4.7h4V122.2z M1440.2,150.4h-3.8v-24.5h3.8V150.4z"/>
		<path class="st0" d="M1456.6,125.9v3.3h-5v15.9c0,1.4,0.9,2.1,2.8,2.1h2.2v3.2c-1,0.1-1.9,0.1-2.7,0.1c-4.1,0-6.1-1.7-6.1-5.1
			v-16.2h-4v-3.3h4V119h3.8v6.9L1456.6,125.9L1456.6,125.9z"/>
		<path class="st0" d="M1472.7,136.1l3.5-10.2h4.1l-10.3,28.3c-0.7,2.1-1.7,3.5-3,4.3s-2.9,1.3-5,1.3c-0.7,0-1.5-0.1-2.3-0.1v-3.2
			h2.2c2.2,0,3.7-1,4.5-3l0.8-2.3l-9.2-25.3h4.2l3.5,10.2c1.2,3.6,2.4,7.1,3.5,10.6C1470.1,143.7,1471.2,140.2,1472.7,136.1
			L1472.7,136.1z"/>
		<path class="st0" d="M1339.5,188l7.6-18.6h5.2v33.8h-3.9v-10.8c0-7.1,0.1-12.9,0.1-17.2c-0.8,2.1-1.8,4.6-3,7.7l-8.3,20.4h-3.4
			l-8.4-20.4c-1.2-3-2.2-5.6-3-7.7c0.1,4.4,0.1,10.1,0.1,17.2v10.8h-3.9v-33.8h5.2l7.8,19.2c1.2,2.9,2.4,6.1,3.8,9.7
			C1337.4,193.2,1338.8,189.7,1339.5,188L1339.5,188z"/>
		<path class="st0" d="M1378,200h1.4v3.1c-0.6,0.1-1.3,0.1-2.1,0.1c-2.6,0-3.9-1.2-4.1-3.5c-1.7,2.6-4.4,3.9-8,3.9
			c-2.7,0-4.8-0.6-6.3-1.9c-1.5-1.2-2.3-3-2.3-5.3c0-4.4,3-7,9.1-7.6l3.5-0.4c2.6-0.3,3.8-1.4,3.8-3.4c0-1.4-0.4-2.3-1.3-2.9
			s-2.2-0.9-4.2-0.9c-2.1,0-3.7,0.4-4.6,1.1s-1.5,2-1.6,3.8h-3.8c0.3-5.4,3.6-8.1,10-8.1s9.2,2.4,9.2,7.1v13.7
			C1376.6,199.6,1377.1,200,1378,200L1378,200z M1365.4,200.4c2,0,3.8-0.6,5.3-1.9c1.5-1.2,2.3-2.9,2.3-5.2v-2.9
			c-0.7,0.5-1.8,0.9-3.2,1l-3.6,0.4c-2.1,0.2-3.5,0.7-4.4,1.4s-1.3,1.7-1.3,3s0.4,2.2,1.2,3S1363.7,200.5,1365.4,200.4L1365.4,200.4
			z"/>
		<path class="st0" d="M1403.3,203.1h-4.4l-8.3-13.1l-4.4,4.1v9.1h-3.8v-33.8h3.8v20.3l11.3-11h5l-9.3,8.8L1403.3,203.1
			L1403.3,203.1z"/>
		<path class="st0" d="M1426.1,190.9v1.3h-18.6c0.2,2.7,0.9,4.7,2.2,6c1.3,1.3,3.1,2,5.3,2c3.4,0,5.6-1.5,6.5-4.6h3.9
			c-0.7,2.5-1.9,4.4-3.7,5.9c-1.8,1.4-4.1,2.2-6.8,2.2c-3.4,0-6.1-1.1-8.2-3.5c-2.1-2.3-3.2-5.4-3.2-9.4s1-7,3.1-9.3
			c2.1-2.3,4.8-3.5,8.2-3.5s6.3,1.2,8.3,3.6C1425.1,184.1,1426.1,187.2,1426.1,190.9L1426.1,190.9z M1414.8,181.5
			c-2,0-3.6,0.6-4.9,1.9s-2.1,3.1-2.4,5.4h14.4c-0.2-2.1-0.9-3.9-2.2-5.2C1418.5,182.2,1416.8,181.5,1414.8,181.5L1414.8,181.5z"/>
		<path class="st0" d="M1446,192.5v-13.9h3.8v24.5h-3.6v-3.6c-1.9,2.8-4.4,4.2-7.7,4.2c-2.7,0-4.8-0.7-6.4-2.2
			c-1.5-1.5-2.3-3.6-2.3-6.3v-16.6h3.8v16.2c0,3.6,1.9,5.5,5.6,5.5c1.8,0,3.3-0.7,4.7-2S1446,195,1446,192.5L1446,192.5z"/>
		<path class="st0" d="M1467.5,178.1c3.4,0,6.2,1.1,8.3,3.5c2.1,2.3,3.1,5.5,3.1,9.4s-1,7-3.1,9.3c-2.1,2.3-4.9,3.5-8.3,3.5
			s-6.2-1.4-8.2-4.1v12.8h-3.8v-33.8h3.6v3.8C1461,179.5,1463.8,178.1,1467.5,178.1L1467.5,178.1z M1467,200.3
			c2.4,0,4.3-0.9,5.7-2.6c1.4-1.7,2.2-4.1,2.2-7s-0.7-5.1-2.1-6.8c-1.4-1.6-3.3-2.4-5.8-2.4s-4.3,0.8-5.7,2.5s-2.1,3.9-2.1,6.9
			s0.7,5.2,2.1,6.9C1462.7,199.4,1464.6,200.3,1467,200.3L1467,200.3z"/>
		<path class="st0" d="M1357.6,256.6c-4.4,0-7.8-1-10.3-3c-2.5-2-3.7-5-3.8-8.9h4.1c0.1,5.5,3.4,8.3,9.9,8.3c2.8,0,4.9-0.5,6.3-1.6
			s2.2-2.6,2.2-4.7c0-1.6-0.6-2.9-1.8-3.8c-1.2-0.9-3.3-1.7-6.4-2.4l-3-0.7c-3.4-0.8-6-1.9-7.7-3.4s-2.6-3.6-2.6-6.3s1-4.8,3.1-6.4
			s4.9-2.4,8.4-2.4c2.4,0,4.4,0.3,6.2,0.9c1.8,0.6,3.1,1.4,4.1,2.4s1.7,2.1,2.2,3.4s0.7,2.5,0.7,4h-4.1c-0.2-2.4-1-4.2-2.3-5.3
			s-3.6-1.7-6.8-1.7c-2.4,0-4.2,0.5-5.5,1.4s-1.9,2.2-1.9,3.8s0.6,2.9,1.7,3.8c1.1,0.9,3.2,1.7,6.3,2.4l3,0.7c3.7,0.8,6.4,2,8.1,3.5
			c1.7,1.5,2.5,3.6,2.5,6.1c0,3.1-1.1,5.5-3.4,7.3C1364.7,255.7,1361.6,256.6,1357.6,256.6L1357.6,256.6z"/>
		<path class="st0" d="M1384.6,231.3v3.3h-5v15.9c0,1.4,0.9,2.1,2.8,2.1h2.2v3.2c-1,0.1-1.9,0.1-2.7,0.1c-4.1,0-6.1-1.7-6.1-5.1
			v-16.2h-4v-3.3h4v-6.9h3.8v6.9L1384.6,231.3L1384.6,231.3z"/>
		<path class="st0" d="M1400.7,241.5l3.5-10.1h4.1l-10.3,28.3c-0.7,2.1-1.7,3.5-3,4.3s-2.9,1.3-5,1.3c-0.7,0-1.5,0-2.3-0.1V262h2.2
			c2.2,0,3.7-1,4.5-3l0.8-2.3l-9.2-25.3h4.2l3.5,10.2c1.2,3.6,2.4,7.1,3.5,10.6C1398.1,249.2,1399.2,245.6,1400.7,241.5
			L1400.7,241.5z"/>
		<path class="st0" d="M1414.7,255.8h-3.8v-33.8h3.8V255.8z"/>
		<path class="st0" d="M1424.2,227.6h-4V223h4V227.6z M1424.2,255.8h-3.8v-24.5h3.8V255.8z"/>
		<path class="st0" d="M1441.1,230.8c2.7,0,4.8,0.7,6.4,2.2c1.5,1.5,2.3,3.6,2.3,6.3v16.6h-3.8v-16.2c0-3.6-1.9-5.5-5.6-5.5
			c-1.8,0-3.3,0.7-4.7,2s-2,3.3-2,5.8v13.9h-3.8v-24.5h3.6v3.6C1435.3,232.2,1437.9,230.8,1441.1,230.8L1441.1,230.8z"/>
		<path class="st0" d="M1474.1,234.9v-3.6h3.6v23.5c0,3.4-1,6-2.9,7.9c-2,1.9-4.8,2.9-8.4,2.9c-3,0-5.5-0.7-7.3-2.1
			c-1.8-1.4-2.9-3.3-3.1-5.8h3.8c0.5,3.1,2.7,4.6,6.6,4.6c5.1,0,7.6-2.5,7.6-7.6v-2.4c-1.9,2.6-4.7,3.9-8.2,3.9s-6.2-1.2-8.3-3.5
			c-2.1-2.3-3.1-5.4-3.1-9.3s1-7,3.1-9.4c2-2.3,4.8-3.5,8.3-3.5S1472.1,232.2,1474.1,234.9L1474.1,234.9z M1466.1,253
			c2.4,0,4.3-0.8,5.7-2.5c1.4-1.7,2.1-4,2.1-6.9s-0.7-5.2-2.1-6.9s-3.3-2.5-5.7-2.5s-4.3,0.9-5.7,2.6s-2.2,4-2.2,6.8
			s0.7,5.1,2.2,6.8C1461.9,252.1,1463.8,253,1466.1,253L1466.1,253z"/>
	</g>
	<g>
		<path class="st0" d="M1885.4,145.1v2.7h-28v-3.3h20.9v-6.4h2.6l0,0.6c0.1,2,0.5,3.5,1.2,4.4
			C1882.7,144.2,1883.8,144.8,1885.4,145.1L1885.4,145.1z"/>
		<path class="st0" d="M1882.4,151.1h3v18h-2.6c-7.2-6.4-15.7-9.8-25.4-10.1v-3.4c4.8,0.1,9.3,1,13.3,2.5c4,1.6,7.9,3.9,11.7,7.1
			L1882.4,151.1L1882.4,151.1z"/>
		<path class="st0" d="M1867,179.3v-11.4h2.8v11.4H1867z"/>
		<path class="st0" d="M1885.4,186.6v2.7h-28v-3.3h20.9v-6.4h2.6l0,0.6c0.1,2,0.5,3.5,1.2,4.4
			C1882.7,185.6,1883.8,186.2,1885.4,186.6L1885.4,186.6z"/>
		<path class="st0" d="M1860.3,197.3v14.8h-3v-18.5l1.5,0.1c2.3,0.2,4.3,0.7,5.9,1.6c1.7,0.9,3.1,2.4,4.3,4.5l2.1,3.5
			c1.1,1.8,2.1,3.1,3.1,3.8s2.2,1.1,3.6,1.1c1.6,0,2.8-0.5,3.7-1.5c0.9-1,1.4-2.3,1.4-4.1c0-3.9-2-5.9-6-5.9v-3.3
			c2.9,0,5.1,0.8,6.7,2.4c1.6,1.6,2.4,3.9,2.4,6.8c0,2.6-0.8,4.8-2.2,6.4c-1.6,1.6-3.5,2.5-5.9,2.5c-3.6,0-6.7-2.1-9.1-6.4l-1.7-3
			c-1.1-1.7-2.1-3-3.1-3.7C1863,197.9,1861.8,197.4,1860.3,197.3L1860.3,197.3z"/>
		<path class="st0" d="M1867,225.5v-11.4h2.8v11.4H1867z"/>
		<path class="st0" d="M1860.5,246.8c-2.5-1.7-3.8-4.2-3.8-7.6s1.3-5.9,3.8-7.6c2.5-1.7,6.2-2.6,10.9-2.6s8.3,0.9,10.9,2.6
			c2.5,1.7,3.8,4.2,3.8,7.6s-1.3,5.9-3.8,7.6c-2.5,1.7-6.2,2.6-10.9,2.6S1863.1,248.5,1860.5,246.8z M1883,239.2
			c0-4.5-3.9-6.7-11.7-6.7s-11.6,2.2-11.6,6.7s3.9,6.7,11.6,6.7S1883,243.7,1883,239.2z"/>
		<path class="st0" d="M1885.4,258.9v2.7h-28v-3.3h20.9v-6.4h2.6l0,0.6c0.1,2,0.5,3.5,1.2,4.5S1883.8,258.6,1885.4,258.9
			L1885.4,258.9z"/>
	</g>
	<g>
		<path class="st0" d="M1553.3,96.5h6.6v5.2h-6.6v12.2h-5.8v-12.2h-24.5v-5.6l24-31.1h6.2C1553.3,65.1,1553.3,96.5,1553.3,96.5z
			 M1547.6,96.5V72.7l-18.4,23.8H1547.6z"/>
		<path class="st0" d="M1570.3,108.7h25.8v5.2h-32.2l0.1-2.7c0.3-4,1.2-7.5,2.7-10.3s4.2-5.4,7.9-7.5l6.2-3.6
			c3.1-1.8,5.3-3.6,6.6-5.3c1.3-1.7,1.9-3.8,1.9-6.3c0-2.7-0.9-4.8-2.6-6.5c-1.7-1.6-4.1-2.4-7.1-2.4c-6.8,0-10.2,3.5-10.2,10.5
			h-5.7c-0.1-5,1.3-8.8,4.2-11.6c2.8-2.7,6.8-4.1,11.9-4.1c4.6,0,8.4,1.3,11.2,3.9c2.9,2.7,4.3,6.1,4.3,10.2
			c0,6.3-3.7,11.6-11.1,15.9l-5.2,3c-3,1.8-5.2,3.6-6.5,5.3C1571.2,104.1,1570.5,106.2,1570.3,108.7L1570.3,108.7z"/>
		<path class="st0" d="M1626.9,87.8c2.8,1.1,5.1,2.7,6.7,4.8c1.6,2.1,2.4,4.6,2.4,7.5c0,4.6-1.6,8.2-4.9,10.9c-3.2,2.7-7.5,4-12.8,4
			s-9.6-1.3-12.8-4c-3.2-2.7-4.9-6.3-4.9-10.9c0-2.9,0.8-5.4,2.4-7.5c1.6-2.1,3.8-3.7,6.7-4.8c-4.7-2.1-7.1-5.5-7.1-10.3
			c0-4.2,1.5-7.4,4.4-9.9c3-2.3,6.7-3.5,11.2-3.5s8.3,1.2,11.2,3.5c3,2.4,4.4,5.7,4.4,9.9C1633.9,82.3,1631.6,85.7,1626.9,87.8
			L1626.9,87.8z M1609.7,107.2c2.2,1.7,5,2.6,8.5,2.6s6.3-0.9,8.5-2.6c2.1-1.7,3.2-4.1,3.2-7.1s-1.1-5.5-3.2-7.2
			c-2.1-1.7-4.9-2.5-8.5-2.5s-6.4,0.8-8.5,2.5s-3.2,4.1-3.2,7.2S1607.6,105.5,1609.7,107.2z M1625.4,71.4c-1.8-1.4-4.2-2.1-7.2-2.1
			s-5.4,0.7-7.2,2.1c-1.9,1.5-2.8,3.5-2.8,6s0.9,4.6,2.8,6c1.8,1.4,4.2,2.1,7.2,2.1s5.4-0.7,7.2-2.1c1.9-1.5,2.8-3.5,2.8-6
			S1627.3,72.8,1625.4,71.4z"/>
		<path class="st0" d="M1636.6,70.4v-5.2h31.3v4.5c-11.2,12.6-17.1,27.4-17.6,44.3h-6c0.2-8.4,1.7-16.2,4.4-23.2
			c2.7-7,6.9-13.8,12.4-20.4H1636.6L1636.6,70.4z"/>
	</g>
	<g>
		<rect x="1680.9" y="63.1" class="st0" width="2.2" height="50.4"/>
		<rect x="1685.2" y="63.1" class="st0" width="2.2" height="50.4"/>
		<rect x="1689.5" y="63.1" class="st0" width="4.3" height="50.4"/>
		<rect x="1700.2" y="63.1" class="st0" width="2.2" height="50.4"/>
		<rect x="1704.5" y="63.1" class="st0" width="2.2" height="50.4"/>
		<rect x="1715.3" y="63.1" class="st0" width="2.2" height="50.4"/>
		<rect x="1719.6" y="63.1" class="st0" width="8.6" height="50.4"/>
		<rect x="1730.3" y="63.1" class="st0" width="2.2" height="50.4"/>
		<rect x="1734.6" y="63.1" class="st0" width="2.2" height="50.4"/>
		<rect x="1743.2" y="63.1" class="st0" width="4.3" height="50.4"/>
		<rect x="1749.7" y="63.1" class="st0" width="6.4" height="50.4"/>
		<rect x="1760.4" y="63.1" class="st0" width="2.2" height="50.4"/>
		<rect x="1764.7" y="63.1" class="st0" width="2.2" height="50.4"/>
		<rect x="1775.5" y="63.1" class="st0" width="2.2" height="50.4"/>
		<rect x="1779.8" y="63.1" class="st0" width="2.2" height="50.4"/>
		<rect x="1784.1" y="63.1" class="st0" width="2.2" height="50.4"/>
		<rect x="1788.4" y="63.1" class="st0" width="2.2" height="50.4"/>
		<rect x="1792.7" y="63.1" class="st0" width="6.4" height="50.4"/>
		<rect x="1803.4" y="63.1" class="st0" width="2.2" height="50.4"/>
		<rect x="1809.9" y="63.1" class="st0" width="6.4" height="50.4"/>
		<rect x="1818.5" y="63.1" class="st0" width="4.3" height="50.4"/>
		<rect x="1825" y="63.1" class="st0" width="4.3" height="50.4"/>
		<rect x="1833.6" y="63.1" class="st0" width="2.2" height="50.4"/>
		<rect x="1840" y="63.1" class="st0" width="6.4" height="50.4"/>
		<rect x="1848.6" y="63.1" class="st0" width="2.2" height="50.4"/>
		<rect x="1859.4" y="63.1" class="st0" width="2.2" height="50.4"/>
		<rect x="1863.7" y="63.1" class="st0" width="6.4" height="50.4"/>
		<rect x="1874.4" y="63.1" class="st0" width="2.2" height="50.4"/>
		<rect x="1878.7" y="63.1" class="st0" width="2.2" height="50.4"/>
		<rect x="1883" y="63.1" class="st0" width="2.2" height="50.4"/>
	</g>
</g>
</svg>
