<?xml version="1.0" encoding="UTF-8"?>
<svg id="uuid-0d3dac1d-1b38-417b-9523-5b84ab19996c" data-name="Layer 1" xmlns="http://www.w3.org/2000/svg" viewBox="0 0 1923 325.02">
  <defs>
    <style>
      .uuid-2c8a380d-d2a8-44f0-8be0-161693e211a9 {
        fill: #fff;
        stroke-width: 0px;
      }
      .st4{fill:#FFFFFF;}
	.st3{fill:#FFFFFF;}
    </style>
  </defs>
  <g>
    <polygon class="st3" points="558.57 204.42 540.69 204.42 595.89 111.89 613.77 111.89 558.57 204.42"/>
    <polygon class="st3" points="606.68 204.42 588.8 204.42 644 111.89 661.88 111.89 606.68 204.42"/>
    <polygon class="st3" points="654.78 204.42 636.91 204.42 692.11 111.89 709.99 111.89 654.78 204.42"/>
    <polygon class="st3" points="702.89 204.42 685.01 204.42 740.22 111.89 758.09 111.89 702.89 204.42"/>
    <polygon class="st3" points="751 204.42 733.12 204.42 788.32 111.89 806.2 111.89 751 204.42"/>
    <polygon class="st3" points="799.11 204.42 781.23 204.42 836.43 111.89 854.31 111.89 799.11 204.42"/>
  </g>
  <polygon class="uuid-2c8a380d-d2a8-44f0-8be0-161693e211a9" points="43 6.5 43 13 14.68 13 14.68 41.32 8.18 41.32 8.18 6.5 43 6.5"/>
  <polygon class="uuid-2c8a380d-d2a8-44f0-8be0-161693e211a9" points="1881.65 7.5 1881.65 14 1909.97 14 1909.97 42.32 1916.47 42.32 1916.47 7.5 1881.65 7.5"/>
  <polygon class="uuid-2c8a380d-d2a8-44f0-8be0-161693e211a9" points="42.33 319.44 42.33 312.95 14.01 312.95 14.01 284.62 7.51 284.62 7.51 319.44 42.33 319.44"/>
  <polygon class="uuid-2c8a380d-d2a8-44f0-8be0-161693e211a9" points="1881.65 318.44 1881.65 311.95 1909.97 311.95 1909.97 283.62 1916.47 283.62 1916.47 318.44 1881.65 318.44"/>
  <g>
    <rect class="uuid-2c8a380d-d2a8-44f0-8be0-161693e211a9" x="1680.87" y="73.09" width="2.15" height="50.44"/>
    <rect class="uuid-2c8a380d-d2a8-44f0-8be0-161693e211a9" x="1689.48" y="73.09" width="4.3" height="50.44"/>
    <rect class="uuid-2c8a380d-d2a8-44f0-8be0-161693e211a9" x="1700.23" y="73.09" width="2.15" height="50.44"/>
    <rect class="uuid-2c8a380d-d2a8-44f0-8be0-161693e211a9" x="1704.53" y="73.09" width="2.15" height="50.44"/>
    <rect class="uuid-2c8a380d-d2a8-44f0-8be0-161693e211a9" x="1715.28" y="73.09" width="2.15" height="50.44"/>
    <rect class="uuid-2c8a380d-d2a8-44f0-8be0-161693e211a9" x="1719.58" y="73.09" width="8.6" height="50.44"/>
    <rect class="uuid-2c8a380d-d2a8-44f0-8be0-161693e211a9" x="1730.34" y="73.09" width="2.15" height="50.44"/>
    <rect class="uuid-2c8a380d-d2a8-44f0-8be0-161693e211a9" x="1734.64" y="73.09" width="2.15" height="50.44"/>
    <rect class="uuid-2c8a380d-d2a8-44f0-8be0-161693e211a9" x="1743.24" y="73.09" width="4.3" height="50.44"/>
    <rect class="uuid-2c8a380d-d2a8-44f0-8be0-161693e211a9" x="1749.69" y="73.09" width="6.45" height="50.44"/>
    <rect class="uuid-2c8a380d-d2a8-44f0-8be0-161693e211a9" x="1760.44" y="73.09" width="2.15" height="50.44"/>
    <rect class="uuid-2c8a380d-d2a8-44f0-8be0-161693e211a9" x="1764.74" y="73.09" width="2.15" height="50.44"/>
    <rect class="uuid-2c8a380d-d2a8-44f0-8be0-161693e211a9" x="1775.5" y="73.09" width="2.15" height="50.44"/>
    <rect class="uuid-2c8a380d-d2a8-44f0-8be0-161693e211a9" x="1779.8" y="73.09" width="2.15" height="50.44"/>
    <rect class="uuid-2c8a380d-d2a8-44f0-8be0-161693e211a9" x="1784.1" y="73.09" width="2.15" height="50.44"/>
    <rect class="uuid-2c8a380d-d2a8-44f0-8be0-161693e211a9" x="1788.4" y="73.09" width="2.15" height="50.44"/>
    <rect class="uuid-2c8a380d-d2a8-44f0-8be0-161693e211a9" x="1792.7" y="73.09" width="6.45" height="50.44"/>
    <rect class="uuid-2c8a380d-d2a8-44f0-8be0-161693e211a9" x="1803.45" y="73.09" width="2.15" height="50.44"/>
    <rect class="uuid-2c8a380d-d2a8-44f0-8be0-161693e211a9" x="1809.91" y="73.09" width="6.45" height="50.44"/>
    <rect class="uuid-2c8a380d-d2a8-44f0-8be0-161693e211a9" x="1818.51" y="73.09" width="4.3" height="50.44"/>
    <rect class="uuid-2c8a380d-d2a8-44f0-8be0-161693e211a9" x="1824.96" y="73.09" width="4.3" height="50.44"/>
    <rect class="uuid-2c8a380d-d2a8-44f0-8be0-161693e211a9" x="1833.56" y="73.09" width="2.15" height="50.44"/>
    <rect class="uuid-2c8a380d-d2a8-44f0-8be0-161693e211a9" x="1840.01" y="73.09" width="6.45" height="50.44"/>
    <rect class="uuid-2c8a380d-d2a8-44f0-8be0-161693e211a9" x="1848.62" y="73.09" width="2.15" height="50.44"/>
    <rect class="uuid-2c8a380d-d2a8-44f0-8be0-161693e211a9" x="1859.37" y="73.09" width="2.15" height="50.44"/>
    <rect class="uuid-2c8a380d-d2a8-44f0-8be0-161693e211a9" x="1863.67" y="73.09" width="6.45" height="50.44"/>
    <rect class="uuid-2c8a380d-d2a8-44f0-8be0-161693e211a9" x="1874.42" y="73.09" width="2.15" height="50.44"/>
    <rect class="uuid-2c8a380d-d2a8-44f0-8be0-161693e211a9" x="1878.72" y="73.09" width="2.15" height="50.44"/>
    <rect class="uuid-2c8a380d-d2a8-44f0-8be0-161693e211a9" x="1883.03" y="73.09" width="2.15" height="50.44"/>
  </g>
  <g>
    <path class="st4" d="M116.44,111.08c-.84,1.05-1.77,1.97-2.79,2.77-1.07.82-2.24,1.52-3.51,2.1-1.16.47-2.41.85-3.75,1.16-1.36.28-2.74.42-4.12.42-7.4-.09-13.19-2.68-17.37-7.77-4.22-4.94-6.36-11.17-6.4-18.67.14-9.73,2.83-16.76,8.07-21.09,5.06-4.27,10.56-6.38,16.48-6.33,12.87.19,20.51,6.59,22.92,19.21h-14.72c-.32-1.93-1.12-3.49-2.42-4.69-1.36-1.1-2.98-1.68-4.84-1.73-2.54.05-4.52.62-5.93,1.73-1.43,1.2-2.45,2.67-3.07,4.41-.61,1.67-.97,3.33-1.06,4.97-.09,1.64-.14,2.94-.14,3.88,0,1.22.17,2.57.51,4.05.32,1.5.87,2.95,1.67,4.34.84,1.39,1.98,2.54,3.41,3.46,1.5.96,3.38,1.45,5.65,1.45,1.86,0,3.55-.48,5.08-1.45,1.5-.96,2.45-2.37,2.86-4.23l-6.74-.02v-10.97h20.37v28.23h-9.7l-.48-5.22Z"/>
    <path class="st4" d="M135.77,64.9h13.79v18.07h.14c1.24-1.5,2.8-2.71,4.69-3.62,1.84-.89,4.31-1.34,7.39-1.34,3.38,0,6.28,1.03,8.71,3.09,2.4,2.06,3.63,5.25,3.68,9.56v25.63h-13.78v-19.56c.05-2.2-.21-3.98-.77-5.34-.59-1.33-1.96-2-4.11-2-1.35-.05-2.63.39-3.86,1.3-.59.47-1.09,1.18-1.51,2.14-.39,1.01-.59,2.26-.59,3.76v19.7h-13.77v-51.4Z"/>
    <path class="st4" d="M220.35,97.61c0,5.32-1.62,9.87-4.87,13.66-3.22,3.89-8.32,5.88-15.3,5.97-6.88-.09-11.96-2.09-15.23-5.98-3.34-3.8-4.97-8.35-4.9-13.68-.07-5.39,1.56-9.96,4.9-13.71,3.27-3.82,8.34-5.78,15.23-5.87,6.98.09,12.07,2.05,15.3,5.88,3.24,3.75,4.87,8.33,4.87,13.72ZM206.57,97.61c0-1.01-.05-2.08-.15-3.21-.15-1.1-.45-2.09-.92-2.96-.44-.94-1.06-1.7-1.87-2.29-.9-.54-2.05-.81-3.44-.81s-2.42.27-3.22.81c-.9.59-1.57,1.35-2.01,2.29-.8,1.93-1.18,3.98-1.13,6.17,0,.96.1,1.97.29,3.03.15,1.06.43,2.07.84,3.03.44.96,1.11,1.73,2.01,2.29.8.63,1.88.95,3.22.95s2.54-.32,3.44-.95c.8-.56,1.43-1.33,1.87-2.29.75-1.97,1.11-3.99,1.06-6.06Z"/>
    <path class="st4" d="M249.41,89.82c-.09-1.26-.62-2.21-1.6-2.83-.98-.74-2.11-1.11-3.39-1.11-1.13,0-2.16.17-3.09.49-1.03.4-1.54,1.2-1.54,2.4,0,.47.19.85.57,1.13.36.35.73.62,1.11.81.69.24,1.51.42,2.44.56.96.21,1.99.41,3.09.6,2.35.38,4.76.95,7.25,1.73,2.38.68,4.4,1.84,6.05,3.46.84.78,1.5,1.74,1.97,2.9.41,1.15.61,2.53.61,4.13,0,2.57-.54,4.67-1.63,6.31-1.09,1.73-2.53,3.1-4.34,4.1-3.84,1.87-8.09,2.78-12.76,2.73-4.56,0-8.68-1-12.38-3.01-3.68-2.01-5.69-5.39-6.03-10.13h13.58c.09,1.28.67,2.37,1.72,3.28.77.72,2.05,1.08,3.82,1.08,1.01,0,2.06-.22,3.16-.67,1.05-.42,1.6-1.16,1.65-2.22.05-1.05-.41-1.85-1.37-2.39-1.05-.52-3.21-1.04-6.47-1.58-5.37-.91-9.26-2.33-11.67-4.25-2.39-1.85-3.59-4.35-3.59-7.49,0-2.34.57-4.3,1.7-5.87,1.09-1.59,2.51-2.8,4.27-3.62,1.76-.91,3.66-1.53,5.7-1.86,1.95-.33,3.86-.49,5.73-.49,4.24-.07,8.2.67,11.88,2.22,1.76.82,3.18,2.02,4.27,3.6,1.09,1.55,1.69,3.55,1.81,5.99h-12.53Z"/>
    <path class="st4" d="M285.67,78.93h7.41v8.79h-7.41v13.07c-.05,1.71.24,2.96.85,3.74.59.82,1.73,1.23,3.41,1.23,1.07,0,2.12-.07,3.14-.21v10.76c-2.88.09-5.83.23-8.84.42-1.5,0-2.94-.12-4.32-.35-1.43-.28-2.75-.76-3.98-1.44-1.2-.77-2.15-1.89-2.86-3.36-.79-1.49-1.19-3.48-1.19-5.96v-17.9h-6.17v-8.79h6.17v-11.36h13.77v11.36Z"/>
    <path class="st4" d="M111.32,156.04c-.05-.54-.18-1.25-.41-2.12-.27-.82-.69-1.63-1.26-2.43-.54-.92-1.34-1.67-2.38-2.26-1.02-.52-2.34-.78-3.95-.78-3.49.09-5.96,1.59-7.39,4.48-1.45,2.82-2.16,6.04-2.11,9.66-.05,3.62.66,6.84,2.11,9.66,1.43,2.94,3.89,4.43,7.39,4.48,2.54,0,4.45-.83,5.72-2.5,1.2-1.6,1.99-3.62,2.35-6.06h15.09c-.05,5.41-2,10.25-5.86,14.51-3.86,4.43-9.49,6.71-16.89,6.85-8.04-.09-14.25-2.71-18.63-7.84-4.4-4.99-6.61-11.36-6.61-19.09.04-8.25,2.34-14.78,6.88-19.58,4.47-4.85,10.59-7.3,18.36-7.35,13.67.38,21.18,7.17,22.54,20.37h-14.96Z"/>
    <path class="st4" d="M148.45,146.88h-13.77v-9.98h13.77v9.98ZM134.68,150.93h13.77v37.37h-13.77v-37.37Z"/>
    <path class="st4" d="M157.07,150.93h13.24v5.98h.14c1.11-2.25,2.48-3.97,4.12-5.17,1.57-1.15,3.59-1.72,6.06-1.72,1.38,0,2.73.19,4.05.56v12.58c-.66-.28-1.39-.52-2.18-.7-.79-.14-1.88-.21-3.27-.21-5.54-.09-8.33,3.67-8.38,11.29v14.77h-13.77v-37.37Z"/>
    <path class="st4" d="M212.38,165.13c-.16-1.55-.67-2.73-1.53-3.55-.84-.82-2.01-1.23-3.51-1.23-1.3,0-2.32.27-3.07.81-.84.52-1.47,1.21-1.88,2.08-.43.87-.72,1.86-.85,2.96-.18,1.15-.27,2.31-.27,3.49,0,1.1.09,2.21.27,3.31.14,1.1.42,2.09.85,2.96.41.87,1.03,1.56,1.88,2.08.75.59,1.77.88,3.07.88,1.55,0,2.81-.55,3.78-1.66.93-1.06,1.47-2.34,1.6-3.84h13.19c-.7,5.09-2.77,8.97-6.2,11.66-3.45,2.74-7.66,4.13-12.64,4.17-5.59-.05-10.18-1.85-13.79-5.41-3.81-3.45-5.74-8.17-5.79-14.17.04-6,1.98-10.78,5.79-14.34,3.61-3.49,8.21-5.26,13.79-5.31,4.88,0,9.05,1.2,12.5,3.59,3.38,2.48,5.36,6.33,5.93,11.53h-13.12Z"/>
    <path class="st4" d="M271.4,188.3h-13.58v-4.75h-.14c-2.5,3.75-6.51,5.65-12.02,5.7-3.36,0-6.28-1.05-8.75-3.16-2.55-2.13-3.85-5.31-3.89-9.53v-25.63h13.77v19.61c-.05,2.16.23,3.92.85,5.28.59,1.38,1.93,2.08,4.04,2.08,1.35.05,2.68-.43,4-1.44.59-.47,1.09-1.21,1.51-2.22.29-.92.44-2.1.44-3.56v-19.75h13.78v37.37Z"/>
    <path class="st4" d="M301.3,161.82c-.09-1.26-.62-2.21-1.6-2.83-.98-.74-2.11-1.11-3.39-1.11-1.13,0-2.16.17-3.09.49-1.03.4-1.54,1.2-1.54,2.4,0,.47.19.85.57,1.13.36.35.73.62,1.11.81.69.24,1.51.42,2.44.56.96.21,1.99.41,3.09.6,2.35.38,4.76.95,7.25,1.73,2.38.68,4.4,1.84,6.05,3.46.84.78,1.5,1.74,1.97,2.9.41,1.15.61,2.53.61,4.13,0,2.57-.54,4.67-1.63,6.31-1.09,1.73-2.53,3.1-4.34,4.1-3.84,1.87-8.09,2.78-12.76,2.73-4.56,0-8.68-1-12.38-3.01-3.68-2.01-5.69-5.39-6.03-10.13h13.58c.09,1.28.67,2.37,1.72,3.28.77.72,2.05,1.08,3.82,1.08,1.01,0,2.06-.22,3.16-.67,1.05-.42,1.6-1.16,1.65-2.22.05-1.05-.41-1.85-1.37-2.39-1.05-.52-3.21-1.04-6.47-1.58-5.37-.91-9.26-2.33-11.67-4.25-2.39-1.85-3.59-4.35-3.59-7.49,0-2.34.57-4.3,1.7-5.87,1.09-1.59,2.51-2.8,4.27-3.62,1.76-.91,3.66-1.53,5.7-1.86,1.95-.33,3.86-.49,5.73-.49,4.24-.07,8.2.67,11.88,2.22,1.76.82,3.18,2.02,4.27,3.6,1.09,1.55,1.69,3.55,1.81,5.99h-12.53Z"/>
    <path class="st4" d="M93.76,208.9h14.99l18.15,51.4h-15.91l-2.08-7.34h-15.84l-2.25,7.34h-15.39l18.32-51.4ZM105.82,241.98l-4.46-15.89h-.14l-4.8,15.89h9.4Z"/>
    <path class="st4" d="M130.91,222.93h13.31v4.11h.14c.45-.68.96-1.3,1.53-1.86.54-.63,1.19-1.16,1.94-1.58,1.5-1.01,3.87-1.53,7.12-1.58,2.61.05,4.89.62,6.84,1.72,1.86,1.15,3.42,2.68,4.67,4.61,2.47,4.03,3.71,8.52,3.71,13.46,0,2.2-.22,4.43-.65,6.68-.45,2.25-1.27,4.34-2.45,6.26-2.27,4.17-6.38,6.34-12.33,6.5-4.34-.05-7.64-1.73-9.91-5.04h-.14v16.19h-13.78v-49.46ZM144.22,241.68c0,1.06.1,2.14.29,3.24.19,1.1.52,2.09.99,2.96.92,1.97,2.67,2.98,5.22,3.03,1.34,0,2.46-.32,3.36-.95.85-.52,1.5-1.21,1.94-2.08.8-1.88,1.2-3.95,1.2-6.2,0-2.37-.4-4.52-1.2-6.45-.44-.87-1.08-1.56-1.94-2.08-.9-.54-2.02-.81-3.36-.81-2.56.05-4.3,1.01-5.22,2.89-.46.87-.79,1.86-.99,2.96-.19,1.15-.29,2.31-.29,3.49Z"/>
    <path class="st4" d="M177.56,222.93h13.31v4.11h.14c.45-.68.96-1.3,1.53-1.86.54-.63,1.19-1.16,1.94-1.58,1.5-1.01,3.87-1.53,7.12-1.58,2.61.05,4.89.62,6.84,1.72,1.86,1.15,3.42,2.68,4.67,4.61,2.47,4.03,3.71,8.52,3.71,13.46,0,2.2-.22,4.43-.65,6.68-.45,2.25-1.27,4.34-2.45,6.26-2.27,4.17-6.38,6.34-12.33,6.5-4.34-.05-7.64-1.73-9.91-5.04h-.14v16.19h-13.78v-49.46ZM190.87,241.68c0,1.06.1,2.14.29,3.24.19,1.1.52,2.09.99,2.96.92,1.97,2.67,2.98,5.22,3.03,1.34,0,2.46-.32,3.36-.95.85-.52,1.5-1.21,1.94-2.08.8-1.88,1.2-3.95,1.2-6.2,0-2.37-.4-4.52-1.2-6.45-.44-.87-1.08-1.56-1.94-2.08-.9-.54-2.02-.81-3.36-.81-2.56.05-4.3,1.01-5.22,2.89-.46.87-.79,1.86-.99,2.96-.19,1.15-.29,2.31-.29,3.49Z"/>
    <path class="st4" d="M261.14,251.97c0,1.4.09,2.83.27,4.3.18,1.45.65,2.79,1.41,4.02h-14.53c-.37-1.2-.54-2.37-.49-3.52h-.14c-1.54,1.67-3.32,2.81-5.33,3.45-2.11.68-4.33,1.02-6.67,1.02-3.58,0-6.54-.91-8.9-2.74-2.51-1.87-3.79-4.73-3.84-8.57,0-2.93.77-5.2,2.32-6.81,1.48-1.64,3.32-2.82,5.52-3.55,2.32-.77,4.65-1.3,7-1.58,2.34-.28,4.43-.54,6.26-.77.54-.16,1.04-.32,1.51-.46.44-.14.85-.3,1.23-.49.77-.47,1.16-1.26,1.16-2.39-.05-1.29-.53-2.19-1.45-2.7-.92-.49-2-.74-3.24-.74-2.14.05-3.56.45-4.26,1.22-.73.86-1.09,1.72-1.09,2.58h-13.29c.19-2.65.86-4.79,2.02-6.43,1.14-1.62,2.61-2.84,4.42-3.66,1.83-.87,3.87-1.46,6.12-1.79,2.18-.23,4.34-.35,6.47-.35,4.36,0,7.78.4,10.26,1.2,2.46.82,4.18,1.93,5.18,3.34,1.04,1.38,1.69,2.94,1.95,4.68.09,1.76.14,3.55.14,5.38v15.37ZM247.92,243.54c-1.87.82-3.83,1.42-5.89,1.8-3.36.42-5.05,1.77-5.05,4.05,0,.92.45,1.7,1.36,2.36.83.73,1.94,1.09,3.32,1.09,1.74,0,3.2-.5,4.38-1.52,1.15-.96,1.78-2.41,1.88-4.33v-3.45Z"/>
    <path class="st4" d="M269.05,222.93h13.24v5.98h.14c1.11-2.25,2.48-3.97,4.12-5.17,1.57-1.15,3.59-1.72,6.06-1.72,1.38,0,2.73.19,4.05.56v12.58c-.66-.28-1.39-.52-2.18-.7-.79-.14-1.88-.21-3.27-.21-5.54-.09-8.33,3.67-8.38,11.29v14.77h-13.77v-37.37Z"/>
    <path class="st4" d="M310.46,244.83c.23,2.11.95,3.83,2.15,5.17,1.15,1.41,2.85,2.11,5.1,2.11,1.22,0,2.38-.25,3.48-.74,1.1-.42,1.93-1.07,2.5-1.93h13.34c-1.51,4.03-3.98,7.01-7.41,8.93-3.41,1.92-7.28,2.88-11.62,2.88-6.03-.05-10.93-1.76-14.71-5.13-3.94-3.35-5.94-8.14-5.98-14.38.05-5.62,1.84-10.31,5.39-14.06,3.52-3.68,8.23-5.57,14.11-5.66,14.14.19,21.14,7.79,21,22.82h-27.35ZM324.59,237.45c-.05-1.79-.64-3.29-1.78-4.49-1.16-1.2-2.73-1.8-4.69-1.8-4.39.05-6.92,2.15-7.6,6.3h14.07Z"/>
    <path class="st4" d="M345.34,208.9h13.77v51.4h-13.77v-51.4Z"/>
  </g>
  <g>
    <path class="uuid-2c8a380d-d2a8-44f0-8be0-161693e211a9" d="M1527.91,172.9h9.79v11.41h9.82v-11.41h9.79v32.84h-9.79v-13.03h-9.82v13.03h-9.79v-32.84Z"/>
    <path class="uuid-2c8a380d-d2a8-44f0-8be0-161693e211a9" d="M1587.54,193.8c0,3.4-1.04,6.31-3.11,8.73-2.06,2.48-5.32,3.75-9.77,3.81-4.4-.06-7.64-1.33-9.73-3.82-2.13-2.43-3.18-5.34-3.13-8.74-.04-3.44,1-6.36,3.13-8.76,2.09-2.44,5.33-3.69,9.73-3.75,4.46.06,7.71,1.31,9.77,3.75,2.07,2.4,3.11,5.32,3.11,8.77ZM1578.74,193.8c0-.65-.03-1.33-.09-2.05-.09-.71-.29-1.34-.58-1.89-.28-.6-.68-1.09-1.19-1.46-.58-.34-1.31-.52-2.2-.52s-1.54.17-2.06.52c-.58.38-1,.86-1.29,1.46-.51,1.23-.75,2.54-.72,3.94,0,.62.06,1.26.19,1.94.09.68.27,1.32.54,1.94.28.62.71,1.1,1.29,1.46.51.41,1.2.61,2.06.61s1.62-.2,2.2-.61c.51-.36.91-.85,1.19-1.46.48-1.26.71-2.55.68-3.87Z"/>
    <path class="uuid-2c8a380d-d2a8-44f0-8be0-161693e211a9" d="M1592.46,172.9h8.8v32.84h-8.8v-32.84Z"/>
    <path class="uuid-2c8a380d-d2a8-44f0-8be0-161693e211a9" d="M1606.95,172.9h8.8v32.84h-8.8v-32.84Z"/>
    <path class="uuid-2c8a380d-d2a8-44f0-8be0-161693e211a9" d="M1636.62,203.89c-.32,1.08-.7,2.22-1.15,3.41-.48,1.18-1.06,2.25-1.74,3.21-1.19,1.41-2.6,2.27-4.24,2.58-1.62.27-3.31.39-5.07.36h-4v-7.28h2.11c.49,0,1-.01,1.5-.04.49,0,.91-.06,1.26-.18.27-.12.49-.33.67-.63.13-.28.2-.67.2-1.17,0-.36-.17-1.06-.52-2.11-.36-1.03-.79-2.19-1.28-3.48-1.05-2.8-1.79-4.7-2.22-5.71l-3.97-11.01h9.44l3.7,13.69h.09l3.76-13.69h9.11l-7.65,22.03Z"/>
    <path class="uuid-2c8a380d-d2a8-44f0-8be0-161693e211a9" d="M1675.97,205.73h-9.34l-3.44-14.67h-.09l-3.55,14.67h-9.34l-7.43-23.88h9.46l3.55,14.8h.09l3.03-14.8h8.51l3.19,14.8h.18l3.3-14.8h9.48l-7.59,23.88Z"/>
    <path class="uuid-2c8a380d-d2a8-44f0-8be0-161693e211a9" d="M1711.1,193.8c0,3.4-1.04,6.31-3.11,8.73-2.06,2.48-5.32,3.75-9.77,3.81-4.4-.06-7.64-1.33-9.73-3.82-2.13-2.43-3.18-5.34-3.13-8.74-.04-3.44,1-6.36,3.13-8.76,2.09-2.44,5.33-3.69,9.73-3.75,4.46.06,7.71,1.31,9.77,3.75,2.07,2.4,3.11,5.32,3.11,8.77ZM1702.3,193.8c0-.65-.03-1.33-.09-2.05-.09-.71-.29-1.34-.58-1.89-.28-.6-.68-1.09-1.19-1.46-.58-.34-1.31-.52-2.2-.52s-1.54.17-2.06.52c-.58.38-1,.86-1.29,1.46-.51,1.23-.75,2.54-.72,3.94,0,.62.06,1.26.19,1.94.09.68.27,1.32.54,1.94.28.62.71,1.1,1.29,1.46.51.41,1.2.61,2.06.61s1.62-.2,2.2-.61c.51-.36.91-.85,1.19-1.46.48-1.26.71-2.55.68-3.87Z"/>
    <path class="uuid-2c8a380d-d2a8-44f0-8be0-161693e211a9" d="M1740.07,193.8c0,3.4-1.04,6.31-3.11,8.73-2.06,2.48-5.32,3.75-9.77,3.81-4.4-.06-7.64-1.33-9.73-3.82-2.13-2.43-3.18-5.34-3.13-8.74-.04-3.44,1-6.36,3.13-8.76,2.09-2.44,5.33-3.69,9.73-3.75,4.46.06,7.71,1.31,9.77,3.75,2.07,2.4,3.11,5.32,3.11,8.77ZM1731.27,193.8c0-.65-.03-1.33-.09-2.05-.09-.71-.29-1.34-.58-1.89-.28-.6-.68-1.09-1.19-1.46-.58-.34-1.31-.52-2.2-.52s-1.54.17-2.06.52c-.58.38-1,.86-1.29,1.46-.51,1.23-.75,2.54-.72,3.94,0,.62.06,1.26.19,1.94.09.68.27,1.32.54,1.94.28.62.71,1.1,1.29,1.46.51.41,1.2.61,2.06.61s1.62-.2,2.2-.61c.51-.36.91-.85,1.19-1.46.48-1.26.71-2.55.68-3.87Z"/>
    <path class="uuid-2c8a380d-d2a8-44f0-8be0-161693e211a9" d="M1769.41,205.73h-8.68v-2.63h-.09c-.24.37-.54.73-.91,1.06-.36.37-.78.73-1.27,1.06-.49.34-1.12.61-1.91.79-.75.19-1.7.31-2.82.34-3.3-.1-5.77-1.49-7.42-4.16-1.67-2.55-2.51-5.38-2.51-8.51,0-1.44.17-2.88.52-4.31.3-1.44.84-2.77,1.62-4,.76-1.23,1.8-2.22,3.12-2.99,1.32-.7,2.96-1.07,4.92-1.1,2.86.03,5.04,1.1,6.54,3.21h.09v-11.59h8.8v32.84ZM1760.91,193.78c0-1.51-.25-2.87-.75-4.07-.29-.55-.71-1-1.26-1.33-.58-.34-1.29-.52-2.15-.52-1.62.03-2.73.65-3.34,1.85-.3.56-.51,1.19-.63,1.89-.12.71-.19,1.43-.19,2.18,0,.71.06,1.41.19,2.12.12.71.33,1.34.63,1.89.61,1.26,1.72,1.91,3.34,1.94.85,0,1.57-.2,2.15-.61.54-.33.96-.77,1.26-1.33.5-1.17.75-2.51.75-4.01h0Z"/>
    <path class="uuid-2c8a380d-d2a8-44f0-8be0-161693e211a9" d="M1775.03,196.66h9.25v7.2c0,2.2-.4,4.17-1.19,5.92-.84,1.75-2.25,2.99-4.23,3.72-.8.28-1.5.44-2.13.47-.68.06-1.25.09-1.69.09v-4c1.13-.12,2.06-.59,2.8-1.42.71-.8,1.09-1.77,1.15-2.91h-3.95v-9.07Z"/>
    <path class="uuid-2c8a380d-d2a8-44f0-8be0-161693e211a9" d="M1548.57,223.13c-.03-.35-.12-.8-.26-1.35-.17-.53-.44-1.04-.81-1.55-.35-.58-.86-1.07-1.52-1.44-.65-.33-1.5-.5-2.53-.5-2.23.06-3.8,1.01-4.72,2.86-.93,1.8-1.38,3.86-1.35,6.17-.03,2.31.42,4.37,1.35,6.17.91,1.88,2.49,2.83,4.72,2.86,1.62,0,2.84-.53,3.66-1.6.77-1.02,1.27-2.31,1.5-3.87h9.64c-.03,3.46-1.28,6.55-3.74,9.27-2.47,2.83-6.06,4.29-10.79,4.38-5.13-.06-9.1-1.73-11.9-5.01-2.81-3.19-4.22-7.25-4.22-12.2.03-5.27,1.49-9.44,4.4-12.51,2.86-3.1,6.77-4.66,11.73-4.69,8.73.24,13.53,4.58,14.4,13.02h-9.55Z"/>
    <path class="uuid-2c8a380d-d2a8-44f0-8be0-161693e211a9" d="M1586.35,238.41c0,.89.06,1.81.18,2.75.12.92.42,1.78.9,2.57h-9.28c-.24-.76-.34-1.51-.31-2.25h-.09c-.99,1.06-2.12,1.8-3.41,2.2-1.35.43-2.77.65-4.26.65-2.29,0-4.18-.58-5.68-1.75-1.61-1.2-2.42-3.02-2.45-5.47,0-1.87.49-3.32,1.48-4.35.94-1.05,2.12-1.8,3.53-2.27,1.48-.49,2.97-.83,4.47-1.01s2.83-.34,4-.49c.34-.1.67-.2.97-.29.28-.09.55-.2.79-.31.49-.3.74-.81.74-1.53-.03-.82-.34-1.4-.92-1.73-.59-.31-1.28-.47-2.07-.47-1.37.03-2.27.29-2.73.78-.46.55-.7,1.1-.7,1.65h-8.49c.12-1.69.55-3.06,1.29-4.11.73-1.03,1.67-1.81,2.82-2.33,1.17-.55,2.47-.94,3.91-1.15,1.39-.15,2.77-.22,4.13-.22,2.79,0,4.97.25,6.55.76,1.57.52,2.67,1.24,3.31,2.13.67.88,1.08,1.88,1.24,2.99.06,1.12.09,2.27.09,3.44v9.82ZM1577.91,233.03c-1.19.53-2.45.91-3.77,1.15-2.15.27-3.22,1.13-3.22,2.59,0,.59.29,1.09.87,1.51.53.46,1.24.7,2.12.7,1.11,0,2.05-.32,2.8-.97.74-.62,1.14-1.54,1.2-2.77v-2.21Z"/>
    <path class="uuid-2c8a380d-d2a8-44f0-8be0-161693e211a9" d="M1591.59,210.9h8.8v32.84h-8.8v-32.84Z"/>
    <path class="uuid-2c8a380d-d2a8-44f0-8be0-161693e211a9" d="M1614.88,217.27h-8.8v-6.38h8.8v6.38ZM1606.08,219.86h8.8v23.88h-8.8v-23.88Z"/>
    <path class="uuid-2c8a380d-d2a8-44f0-8be0-161693e211a9" d="M1621.87,225.47h-3.62v-5.61h3.62c-.06-1.23.03-2.44.26-3.64.25-1.15.77-2.18,1.56-3.08.96-.97,2.04-1.6,3.26-1.89,1.21-.24,2.69-.36,4.43-.36,1.35.03,2.67.09,3.97.18v6.26c-.36-.07-.72-.16-1.08-.25-.38-.06-.75-.09-1.12-.09-1.09,0-1.84.19-2.25.56-.43.42-.62,1.18-.56,2.29h4.78v5.61h-4.45v18.26h-8.8v-18.26Z"/>
    <path class="uuid-2c8a380d-d2a8-44f0-8be0-161693e211a9" d="M1662.52,231.8c0,3.4-1.04,6.31-3.11,8.73-2.06,2.48-5.32,3.75-9.77,3.81-4.4-.06-7.64-1.33-9.73-3.82-2.13-2.43-3.18-5.34-3.13-8.74-.04-3.44,1-6.36,3.13-8.76,2.09-2.44,5.33-3.69,9.73-3.75,4.46.06,7.71,1.31,9.77,3.75,2.07,2.4,3.11,5.32,3.11,8.77ZM1653.71,231.8c0-.65-.03-1.33-.09-2.05-.09-.71-.29-1.34-.58-1.89-.28-.6-.68-1.09-1.19-1.46-.58-.34-1.31-.52-2.2-.52s-1.54.17-2.06.52c-.58.38-1,.86-1.29,1.46-.51,1.23-.75,2.54-.72,3.94,0,.62.06,1.26.19,1.94.09.68.27,1.32.54,1.94.28.62.71,1.1,1.29,1.46.51.41,1.2.61,2.06.61s1.62-.2,2.2-.61c.51-.36.91-.85,1.19-1.46.48-1.26.71-2.55.68-3.87Z"/>
    <path class="uuid-2c8a380d-d2a8-44f0-8be0-161693e211a9" d="M1667.26,219.86h8.46v3.82h.09c.71-1.44,1.59-2.54,2.63-3.3,1-.73,2.29-1.1,3.87-1.1.88,0,1.75.12,2.59.36v8.04c-.42-.18-.89-.33-1.39-.45-.51-.09-1.2-.13-2.09-.13-3.54-.06-5.33,2.34-5.35,7.21v9.43h-8.8v-23.88Z"/>
    <path class="uuid-2c8a380d-d2a8-44f0-8be0-161693e211a9" d="M1688.51,219.86h8.77v3.03h.09c1.61-2.41,4.2-3.62,7.76-3.62,2.16,0,4.01.66,5.57,1.98,1.54,1.32,2.32,3.35,2.35,6.11v16.37h-8.8v-12.53c.03-1.41-.13-2.55-.49-3.42-.38-.85-1.25-1.28-2.63-1.28-.86-.03-1.68.25-2.46.83-.38.3-.7.76-.96,1.37-.25.65-.38,1.45-.38,2.41v12.62h-8.8v-23.88Z"/>
    <path class="uuid-2c8a380d-d2a8-44f0-8be0-161693e211a9" d="M1727.29,217.27h-8.8v-6.38h8.8v6.38ZM1718.49,219.86h8.8v23.88h-8.8v-23.88Z"/>
    <path class="uuid-2c8a380d-d2a8-44f0-8be0-161693e211a9" d="M1755.84,238.41c0,.89.06,1.81.18,2.75.12.92.42,1.78.9,2.57h-9.28c-.24-.76-.34-1.51-.31-2.25h-.09c-.99,1.06-2.12,1.8-3.41,2.2-1.35.43-2.77.65-4.26.65-2.29,0-4.18-.58-5.68-1.75-1.61-1.2-2.42-3.02-2.45-5.47,0-1.87.49-3.32,1.48-4.35.94-1.05,2.12-1.8,3.53-2.27,1.48-.49,2.97-.83,4.47-1.01s2.83-.34,4-.49c.34-.1.67-.2.97-.29.28-.09.55-.2.79-.31.49-.3.74-.81.74-1.53-.03-.82-.34-1.4-.92-1.73-.59-.31-1.28-.47-2.07-.47-1.37.03-2.27.29-2.73.78-.46.55-.7,1.1-.7,1.65h-8.49c.12-1.69.55-3.06,1.29-4.11.73-1.03,1.67-1.81,2.82-2.33,1.17-.55,2.47-.94,3.91-1.15,1.39-.15,2.77-.22,4.13-.22,2.79,0,4.97.25,6.55.76,1.57.52,2.67,1.24,3.31,2.13.67.88,1.08,1.88,1.24,2.99.06,1.12.09,2.27.09,3.44v9.82ZM1747.4,233.03c-1.19.53-2.45.91-3.77,1.15-2.15.27-3.22,1.13-3.22,2.59,0,.59.29,1.09.87,1.51.53.46,1.24.7,2.12.7,1.11,0,2.05-.32,2.8-.97.74-.62,1.14-1.54,1.2-2.77v-2.21Z"/>
  </g>
  <g>
    <path class="uuid-2c8a380d-d2a8-44f0-8be0-161693e211a9" d="M1550.49,103.91h5.66v4.48h-5.66v10.5h-4.96v-10.5h-21.06v-4.78l20.65-26.73h5.37v27.02ZM1545.54,103.91v-20.53l-15.87,20.53h15.87Z"/>
    <path class="uuid-2c8a380d-d2a8-44f0-8be0-161693e211a9" d="M1565.07,114.41h22.18v4.48h-27.73l.12-2.3c.24-3.46,1.02-6.43,2.36-8.91,1.34-2.48,3.6-4.64,6.79-6.49l5.31-3.07c2.67-1.57,4.57-3.11,5.69-4.6,1.12-1.49,1.68-3.3,1.68-5.43,0-2.32-.74-4.18-2.21-5.58-1.48-1.4-3.51-2.09-6.11-2.09-5.86,0-8.79,3.01-8.79,9.03h-4.9c-.04-4.29,1.16-7.61,3.6-9.97,2.44-2.36,5.84-3.54,10.21-3.54,3.97,0,7.2,1.12,9.68,3.36,2.48,2.32,3.72,5.25,3.72,8.79,0,5.43-3.19,9.99-9.56,13.69l-4.48,2.6c-2.6,1.57-4.46,3.1-5.61,4.57-1.14,1.47-1.79,3.29-1.95,5.46Z"/>
    <path class="uuid-2c8a380d-d2a8-44f0-8be0-161693e211a9" d="M1606.78,91.52c4.4,0,7.91,1.34,10.5,4.01,2.56,2.68,3.83,6.06,3.83,10.15s-1.3,7.47-3.89,10.15c-2.68,2.68-6.2,4.01-10.56,4.01-3.66,0-6.75-.98-9.26-2.95-2.28-1.85-3.89-4.3-4.84-7.35-.94-3.05-1.42-6.87-1.42-11.48,0-6.96,1.35-12.39,4.04-16.28,2.69-3.89,6.56-5.84,11.59-5.84,3.66,0,6.71,1,9.15,3.01,2.44,2.01,3.97,4.78,4.6,8.32h-4.84c-.47-2.2-1.49-3.89-3.04-5.07s-3.51-1.77-5.87-1.77c-7,0-10.56,5.6-10.68,16.81,1.14-1.69,2.7-3.07,4.69-4.13,1.99-1.06,3.98-1.59,5.99-1.59ZM1599.93,112.64c1.77,1.81,4.01,2.71,6.73,2.71s4.98-.9,6.67-2.71c1.73-1.85,2.6-4.17,2.6-6.96s-.87-5.11-2.6-6.96c-1.69-1.81-3.91-2.71-6.67-2.71s-4.96.89-6.73,2.66c-1.77,1.85-2.66,4.19-2.66,7.02s.88,5.19,2.66,6.96Z"/>
    <path class="uuid-2c8a380d-d2a8-44f0-8be0-161693e211a9" d="M1639.52,91.52c4.48,0,7.98,1.32,10.5,3.95,2.52,2.63,3.78,6.04,3.78,10.21s-1.32,7.51-3.95,10.15c-2.67,2.68-6.21,4.01-10.62,4.01-4.01,0-7.34-1.16-9.97-3.48-2.64-2.28-4.07-5.33-4.31-9.15h4.96c.24,2.52,1.22,4.5,2.95,5.96,1.73,1.46,3.85,2.18,6.37,2.18,2.75,0,5-.89,6.76-2.68,1.75-1.79,2.63-4.12,2.63-6.99s-.88-5.2-2.63-6.99c-1.75-1.79-4-2.68-6.76-2.68-4.13,0-7,1.69-8.61,5.07h-4.6l3.54-24.19h21.71v4.48h-17.7l-2.01,13.22c2.28-2.04,4.94-3.07,7.97-3.07Z"/>
  </g>
  <g>
    <path class="uuid-2c8a380d-d2a8-44f0-8be0-161693e211a9" d="M1229.34,114.54c4.18,1.6,6.27,4.49,6.27,8.67,0,3.16-1.03,5.65-3.09,7.47-2.06,1.82-4.96,2.73-8.7,2.73h-15.86v-36.31h15.1c3.5,0,6.22.88,8.16,2.63,1.94,1.75,2.91,4.04,2.91,6.86,0,3.64-1.6,6.29-4.79,7.96ZM1222.76,100.97h-10.51v11.99h10.51c2.35,0,4.13-.54,5.35-1.63s1.84-2.62,1.84-4.59c0-1.8-.62-3.21-1.86-4.23-1.24-1.02-3.02-1.53-5.33-1.53ZM1212.25,129.53h11.37c2.52,0,4.43-.54,5.74-1.63,1.31-1.09,1.96-2.65,1.96-4.69,0-4.28-2.58-6.43-7.75-6.43h-11.32v12.75Z"/>
    <path class="uuid-2c8a380d-d2a8-44f0-8be0-161693e211a9" d="M1252.29,106.68c.68,0,1.14.02,1.38.05v3.93h-1.02c-2.72,0-4.84.67-6.35,2.01s-2.27,3.26-2.27,5.74v14.99h-4.08v-26.32h3.88v4.64c1.77-3.37,4.59-5.05,8.47-5.05Z"/>
    <path class="uuid-2c8a380d-d2a8-44f0-8be0-161693e211a9" d="M1277.23,130.09h1.48v3.32c-.68.1-1.43.15-2.24.15-2.75,0-4.23-1.26-4.44-3.77-1.84,2.82-4.69,4.23-8.57,4.23-2.89,0-5.16-.67-6.81-2.01-1.65-1.34-2.47-3.24-2.47-5.69,0-4.76,3.25-7.48,9.74-8.16l3.77-.41c2.75-.31,4.13-1.51,4.13-3.62,0-1.46-.45-2.52-1.35-3.16-.9-.65-2.42-.97-4.56-.97-2.28,0-3.92.38-4.92,1.15-1,.76-1.57,2.12-1.71,4.05h-4.08c.34-5.81,3.91-8.72,10.71-8.72s9.89,2.55,9.89,7.65v14.69c0,.85.48,1.27,1.43,1.27ZM1263.66,130.55c2.18,0,4.08-.66,5.71-1.99,1.63-1.29,2.45-3.14,2.45-5.56v-3.11c-.75.58-1.9.95-3.47,1.12l-3.83.46c-2.21.27-3.78.78-4.72,1.53-.94.75-1.4,1.82-1.4,3.21s.44,2.42,1.33,3.19c.88.77,2.19,1.15,3.93,1.15Z"/>
    <path class="uuid-2c8a380d-d2a8-44f0-8be0-161693e211a9" d="M1294.42,106.48c2.92,0,5.2.8,6.83,2.4,1.63,1.6,2.45,3.84,2.45,6.73v17.8h-4.08v-17.39c0-3.91-2.01-5.86-6.02-5.86-1.9,0-3.59.71-5.05,2.14s-2.19,3.5-2.19,6.22v14.89h-4.08v-26.32h3.88v3.93c2.01-3.03,4.76-4.54,8.26-4.54Z"/>
    <path class="uuid-2c8a380d-d2a8-44f0-8be0-161693e211a9" d="M1329.6,110.87v-13.77h4.08v36.31h-3.88v-4.08c-2.11,3.13-5.12,4.69-9.03,4.69-3.71,0-6.67-1.26-8.87-3.77-2.24-2.52-3.37-5.85-3.37-10s1.12-7.56,3.37-10.05c2.17-2.48,5.13-3.72,8.87-3.72s6.71,1.46,8.82,4.39ZM1315.12,127.75c1.53,1.73,3.59,2.6,6.17,2.6s4.64-.9,6.17-2.7c1.53-1.77,2.29-4.23,2.29-7.39s-.76-5.59-2.29-7.4c-1.53-1.8-3.59-2.7-6.17-2.7s-4.6.93-6.15,2.78c-1.55,1.85-2.32,4.36-2.32,7.52s.76,5.56,2.29,7.29Z"/>
    <path class="uuid-2c8a380d-d2a8-44f0-8be0-161693e211a9" d="M1354.03,133.41h-4.28v-36.31h4.28v36.31Z"/>
    <path class="uuid-2c8a380d-d2a8-44f0-8be0-161693e211a9" d="M1380.2,110.87v-13.77h4.08v36.31h-3.88v-4.08c-2.11,3.13-5.12,4.69-9.03,4.69-3.71,0-6.67-1.26-8.87-3.77-2.24-2.52-3.37-5.85-3.37-10s1.12-7.56,3.37-10.05c2.17-2.48,5.13-3.72,8.87-3.72s6.71,1.46,8.82,4.39ZM1365.71,127.75c1.53,1.73,3.59,2.6,6.17,2.6s4.64-.9,6.17-2.7c1.53-1.77,2.29-4.23,2.29-7.39s-.76-5.59-2.29-7.4c-1.53-1.8-3.59-2.7-6.17-2.7s-4.6.93-6.15,2.78c-1.55,1.85-2.32,4.36-2.32,7.52s.76,5.56,2.29,7.29Z"/>
    <path class="uuid-2c8a380d-d2a8-44f0-8be0-161693e211a9" d="M1413.35,120.25v1.43h-19.99c.2,2.86,1,5.01,2.4,6.45,1.39,1.45,3.3,2.17,5.71,2.17,3.64,0,5.97-1.63,6.99-4.9h4.23c-.71,2.65-2.04,4.75-3.98,6.3-1.94,1.55-4.39,2.32-7.34,2.32-3.64,0-6.58-1.24-8.82-3.72-2.28-2.48-3.42-5.83-3.42-10.05s1.12-7.48,3.37-10c2.21-2.52,5.13-3.77,8.77-3.77s6.73,1.31,8.87,3.93c2.14,2.62,3.21,5.9,3.21,9.84ZM1401.26,110.2c-2.14,0-3.89.67-5.25,2.01-1.36,1.34-2.21,3.27-2.55,5.79h15.5c-.2-2.31-.99-4.19-2.35-5.64-1.36-1.44-3.15-2.17-5.36-2.17Z"/>
    <path class="uuid-2c8a380d-d2a8-44f0-8be0-161693e211a9" d="M1430.33,106.48c2.92,0,5.2.8,6.83,2.4,1.63,1.6,2.45,3.84,2.45,6.73v17.8h-4.08v-17.39c0-3.91-2.01-5.86-6.02-5.86-1.9,0-3.59.71-5.05,2.14s-2.19,3.5-2.19,6.22v14.89h-4.08v-26.32h3.88v3.93c2.01-3.03,4.76-4.54,8.26-4.54Z"/>
    <path class="uuid-2c8a380d-d2a8-44f0-8be0-161693e211a9" d="M1456.24,107.09v3.57h-5.41v17.08c0,1.5,1,2.24,3.01,2.24h2.4v3.42c-1.12.1-2.09.15-2.91.15-4.39,0-6.58-1.82-6.58-5.46v-17.44h-4.33v-3.57h4.33v-7.45h4.08v7.45h5.41Z"/>
    <path class="uuid-2c8a380d-d2a8-44f0-8be0-161693e211a9" d="M1464.75,103.11h-4.33v-5h4.33v5ZM1464.65,133.41h-4.08v-26.32h4.08v26.32Z"/>
    <path class="uuid-2c8a380d-d2a8-44f0-8be0-161693e211a9" d="M1482.3,107.09v3.57h-5.41v17.08c0,1.5,1,2.24,3.01,2.24h2.4v3.42c-1.12.1-2.09.15-2.91.15-4.39,0-6.58-1.82-6.58-5.46v-17.44h-4.33v-3.57h4.33v-7.45h4.08v7.45h5.41Z"/>
    <path class="uuid-2c8a380d-d2a8-44f0-8be0-161693e211a9" d="M1499.59,118.01l3.72-10.91h4.44l-11.12,30.45c-.78,2.21-1.85,3.76-3.21,4.67-1.36.9-3.15,1.35-5.35,1.35-.75,0-1.56-.05-2.45-.15v-3.42h2.4c2.35,0,3.94-1.09,4.79-3.26l.92-2.45-9.89-27.18h4.49l3.72,10.96c1.33,3.88,2.58,7.67,3.77,11.37.99-3.16,2.24-6.97,3.77-11.42Z"/>
    <path class="uuid-2c8a380d-d2a8-44f0-8be0-161693e211a9" d="M1305.99,169.08c4.05,2.11,6.07,5.15,6.07,9.13,0,3.3-1.16,5.95-3.47,7.96-2.28,2.04-5.29,3.06-9.03,3.06-4.05,0-7.18-1.05-9.41-3.16-2.23-2.11-3.32-4.98-3.29-8.62h4.23c.07,2.58.83,4.55,2.29,5.89,1.46,1.34,3.52,2.01,6.17,2.01,2.45,0,4.39-.65,5.84-1.94,1.44-1.29,2.17-3.03,2.17-5.2s-.74-3.97-2.22-5.28c-1.48-1.31-3.49-1.96-6.04-1.96h-2.7v-3.57h2.45c2.41,0,4.27-.54,5.58-1.63,1.31-1.09,1.96-2.6,1.96-4.54s-.66-3.39-1.96-4.46c-1.31-1.07-3.08-1.61-5.33-1.61s-4.09.59-5.43,1.76c-1.34,1.17-2.07,2.9-2.17,5.18h-4.28c.03-3.3,1.11-5.92,3.24-7.88,2.12-1.96,5.01-2.93,8.64-2.93s6.32.88,8.44,2.63c2.12,1.75,3.19,4.16,3.19,7.22,0,3.47-1.65,6.12-4.95,7.96Z"/>
    <path class="uuid-2c8a380d-d2a8-44f0-8be0-161693e211a9" d="M1336.69,165.87v-13.77h4.08v36.31h-3.88v-4.08c-2.11,3.13-5.12,4.69-9.03,4.69-3.71,0-6.67-1.26-8.87-3.77-2.24-2.52-3.37-5.85-3.37-10s1.12-7.56,3.37-10.05c2.17-2.48,5.13-3.72,8.87-3.72s6.71,1.46,8.82,4.39ZM1322.21,182.75c1.53,1.73,3.59,2.6,6.17,2.6s4.64-.9,6.17-2.7c1.53-1.77,2.29-4.23,2.29-7.39s-.76-5.59-2.29-7.4c-1.53-1.8-3.59-2.7-6.17-2.7s-4.6.93-6.15,2.78c-1.55,1.85-2.32,4.36-2.32,7.52s.76,5.56,2.29,7.29Z"/>
    <path class="uuid-2c8a380d-d2a8-44f0-8be0-161693e211a9" d="M1356.84,152.1h12.24c5.51,0,9.86,1.6,13.06,4.79,3.16,3.2,4.74,7.65,4.74,13.36s-1.58,10.08-4.74,13.31c-3.23,3.23-7.58,4.85-13.06,4.85h-12.24v-36.31ZM1361.12,184.53h7.96c4.28,0,7.57-1.26,9.87-3.77,2.29-2.52,3.44-6.02,3.44-10.51s-1.15-7.99-3.44-10.51c-2.29-2.52-5.58-3.77-9.87-3.77h-7.96v28.56Z"/>
    <path class="uuid-2c8a380d-d2a8-44f0-8be0-161693e211a9" d="M1414.93,175.25v1.43h-19.99c.2,2.86,1,5.01,2.4,6.45,1.39,1.45,3.3,2.17,5.71,2.17,3.64,0,5.97-1.63,6.99-4.9h4.23c-.71,2.65-2.04,4.75-3.98,6.3-1.94,1.55-4.39,2.32-7.34,2.32-3.64,0-6.58-1.24-8.82-3.72-2.28-2.48-3.42-5.83-3.42-10.05s1.12-7.48,3.37-10c2.21-2.52,5.13-3.77,8.77-3.77s6.73,1.31,8.87,3.93c2.14,2.62,3.21,5.9,3.21,9.84ZM1402.84,165.2c-2.14,0-3.89.67-5.25,2.01-1.36,1.34-2.21,3.27-2.55,5.79h15.5c-.2-2.31-.99-4.19-2.35-5.64-1.36-1.44-3.15-2.17-5.36-2.17Z"/>
    <path class="uuid-2c8a380d-d2a8-44f0-8be0-161693e211a9" d="M1428.8,189.02c-7.04,0-10.76-2.99-11.17-8.98h4.13c.24,1.97.89,3.38,1.96,4.21,1.07.83,2.76,1.25,5.07,1.25,4.22,0,6.32-1.36,6.32-4.08,0-1.19-.43-2.09-1.3-2.7-.87-.61-2.44-1.14-4.72-1.58l-2.45-.46c-5.47-1.02-8.21-3.6-8.21-7.75,0-2.28.86-4.09,2.58-5.43,1.72-1.34,4.05-2.01,7.01-2.01,6.97,0,10.54,2.91,10.71,8.72h-4.08c-.1-1.9-.68-3.25-1.73-4.03-1.05-.78-2.69-1.17-4.9-1.17-1.77,0-3.13.34-4.08,1.02-.95.68-1.43,1.63-1.43,2.86,0,1.16.41,2.02,1.22,2.6.82.58,2.18,1.07,4.08,1.48l2.35.46c3.23.65,5.55,1.56,6.96,2.75,1.41,1.19,2.12,2.86,2.12,5,0,2.48-.93,4.41-2.78,5.79-1.85,1.38-4.41,2.07-7.68,2.07Z"/>
    <path class="uuid-2c8a380d-d2a8-44f0-8be0-161693e211a9" d="M1447.51,158.11h-4.33v-5h4.33v5ZM1447.41,188.41h-4.08v-26.32h4.08v26.32Z"/>
    <path class="uuid-2c8a380d-d2a8-44f0-8be0-161693e211a9" d="M1473.52,165.92v-3.83h3.88v25.3c0,3.6-1.05,6.44-3.16,8.52-2.11,2.07-5.13,3.11-9.08,3.11-3.26,0-5.88-.75-7.85-2.24-1.97-1.5-3.09-3.57-3.37-6.22h4.08c.51,3.33,2.89,5,7.14,5,5.44,0,8.16-2.72,8.16-8.16v-2.55c-2.07,2.79-5.02,4.18-8.82,4.18s-6.67-1.26-8.87-3.77c-2.24-2.52-3.37-5.85-3.37-10s1.12-7.56,3.37-10.05c2.17-2.48,5.13-3.72,8.87-3.72s6.92,1.48,9.03,4.44ZM1465.01,185.35c2.58,0,4.64-.9,6.17-2.7,1.53-1.8,2.29-4.27,2.29-7.39s-.76-5.59-2.29-7.4c-1.53-1.8-3.59-2.7-6.17-2.7s-4.6.92-6.15,2.75c-1.55,1.84-2.32,4.28-2.32,7.34s.77,5.51,2.32,7.34c1.55,1.84,3.6,2.75,6.15,2.75Z"/>
    <path class="uuid-2c8a380d-d2a8-44f0-8be0-161693e211a9" d="M1495.66,161.48c2.92,0,5.2.8,6.83,2.4,1.63,1.6,2.45,3.84,2.45,6.73v17.8h-4.08v-17.39c0-3.91-2.01-5.86-6.02-5.86-1.9,0-3.59.71-5.05,2.14s-2.19,3.5-2.19,6.22v14.89h-4.08v-26.32h3.88v3.93c2.01-3.03,4.76-4.54,8.26-4.54Z"/>
    <path class="uuid-2c8a380d-d2a8-44f0-8be0-161693e211a9" d="M1091.49,207.1h12.24c5.51,0,9.86,1.6,13.06,4.79,3.16,3.2,4.74,7.65,4.74,13.36s-1.58,10.08-4.74,13.31c-3.23,3.23-7.58,4.84-13.06,4.84h-12.24v-36.31ZM1095.77,239.53h7.96c4.28,0,7.57-1.26,9.87-3.77,2.29-2.52,3.44-6.02,3.44-10.51s-1.15-7.99-3.44-10.51c-2.29-2.52-5.58-3.77-9.87-3.77h-7.96v28.56Z"/>
    <path class="uuid-2c8a380d-d2a8-44f0-8be0-161693e211a9" d="M1149.58,230.25v1.43h-19.99c.2,2.86,1,5.01,2.4,6.45,1.39,1.45,3.3,2.17,5.71,2.17,3.64,0,5.97-1.63,6.99-4.9h4.23c-.71,2.65-2.04,4.75-3.98,6.3-1.94,1.55-4.39,2.32-7.34,2.32-3.64,0-6.58-1.24-8.82-3.72-2.28-2.48-3.42-5.83-3.42-10.05s1.12-7.48,3.37-10c2.21-2.52,5.13-3.77,8.77-3.77s6.73,1.31,8.87,3.93c2.14,2.62,3.21,5.9,3.21,9.84ZM1137.49,220.2c-2.14,0-3.89.67-5.25,2.01-1.36,1.34-2.21,3.27-2.55,5.79h15.5c-.2-2.31-.99-4.19-2.35-5.63-1.36-1.45-3.15-2.17-5.36-2.17Z"/>
    <path class="uuid-2c8a380d-d2a8-44f0-8be0-161693e211a9" d="M1163.45,244.02c-7.04,0-10.76-2.99-11.17-8.98h4.13c.24,1.97.89,3.38,1.96,4.21s2.76,1.25,5.07,1.25c4.22,0,6.32-1.36,6.32-4.08,0-1.19-.43-2.09-1.3-2.7-.87-.61-2.44-1.14-4.72-1.58l-2.45-.46c-5.47-1.02-8.21-3.6-8.21-7.75,0-2.28.86-4.09,2.58-5.43s4.05-2.01,7.01-2.01c6.97,0,10.54,2.91,10.71,8.72h-4.08c-.1-1.9-.68-3.25-1.73-4.03-1.05-.78-2.69-1.17-4.9-1.17-1.77,0-3.13.34-4.08,1.02-.95.68-1.43,1.63-1.43,2.86,0,1.16.41,2.02,1.22,2.6s2.18,1.07,4.08,1.48l2.35.46c3.23.65,5.55,1.56,6.96,2.75,1.41,1.19,2.12,2.86,2.12,5,0,2.48-.93,4.41-2.78,5.79-1.85,1.38-4.41,2.07-7.68,2.07Z"/>
    <path class="uuid-2c8a380d-d2a8-44f0-8be0-161693e211a9" d="M1182.17,213.11h-4.33v-5h4.33v5ZM1182.06,243.41h-4.08v-26.32h4.08v26.32Z"/>
    <path class="uuid-2c8a380d-d2a8-44f0-8be0-161693e211a9" d="M1208.17,220.92v-3.83h3.88v25.3c0,3.6-1.05,6.44-3.16,8.52-2.11,2.07-5.13,3.11-9.08,3.11-3.26,0-5.88-.75-7.85-2.24-1.97-1.5-3.09-3.57-3.37-6.22h4.08c.51,3.33,2.89,5,7.14,5,5.44,0,8.16-2.72,8.16-8.16v-2.55c-2.07,2.79-5.02,4.18-8.82,4.18s-6.67-1.26-8.87-3.77c-2.24-2.52-3.37-5.85-3.37-10s1.12-7.56,3.37-10.05c2.17-2.48,5.13-3.72,8.87-3.72s6.92,1.48,9.03,4.44ZM1199.66,240.35c2.58,0,4.64-.9,6.17-2.7s2.29-4.27,2.29-7.4-.76-5.59-2.29-7.39c-1.53-1.8-3.59-2.7-6.17-2.7s-4.6.92-6.15,2.75c-1.55,1.84-2.32,4.28-2.32,7.34s.77,5.51,2.32,7.34c1.55,1.84,3.6,2.75,6.15,2.75Z"/>
    <path class="uuid-2c8a380d-d2a8-44f0-8be0-161693e211a9" d="M1230.31,216.48c2.92,0,5.2.8,6.83,2.4,1.63,1.6,2.45,3.84,2.45,6.73v17.8h-4.08v-17.39c0-3.91-2.01-5.87-6.02-5.87-1.9,0-3.59.71-5.05,2.14-1.46,1.43-2.19,3.5-2.19,6.22v14.89h-4.08v-26.32h3.88v3.93c2.01-3.03,4.76-4.54,8.26-4.54Z"/>
    <path class="uuid-2c8a380d-d2a8-44f0-8be0-161693e211a9" d="M1268.3,216.48c3.71,0,6.68,1.24,8.92,3.72,2.21,2.52,3.32,5.87,3.32,10.05s-1.11,7.48-3.32,10c-2.24,2.52-5.22,3.77-8.92,3.77-3.91,0-6.92-1.56-9.03-4.69v4.08h-3.88v-36.31h4.08v13.77c2.11-2.92,5.05-4.39,8.82-4.39ZM1267.79,240.35c2.55,0,4.6-.93,6.15-2.78,1.55-1.85,2.32-4.36,2.32-7.52s-.76-5.52-2.27-7.27c-1.51-1.75-3.58-2.63-6.2-2.63s-4.64.88-6.17,2.65c-1.53,1.77-2.29,4.25-2.29,7.45s.76,5.63,2.29,7.4c1.53,1.8,3.59,2.7,6.17,2.7Z"/>
    <path class="uuid-2c8a380d-d2a8-44f0-8be0-161693e211a9" d="M1296.81,228.01l3.72-10.91h4.44l-11.12,30.45c-.78,2.21-1.85,3.77-3.21,4.67-1.36.9-3.15,1.35-5.35,1.35-.75,0-1.56-.05-2.45-.15v-3.42h2.4c2.35,0,3.94-1.09,4.79-3.26l.92-2.45-9.89-27.18h4.49l3.72,10.97c1.33,3.88,2.58,7.67,3.77,11.37.99-3.16,2.24-6.97,3.77-11.42Z"/>
    <path class="uuid-2c8a380d-d2a8-44f0-8be0-161693e211a9" d="M1327.21,220.41l-4.84,6.68-2.55-2.04,4.9-6.78-7.75-2.5,1.07-3.06,7.55,2.45v-8.06h3.26v8.06l7.55-2.45,1.07,3.06-7.75,2.5,4.9,6.78-2.55,2.04-4.84-6.68Z"/>
    <path class="uuid-2c8a380d-d2a8-44f0-8be0-161693e211a9" d="M1365.25,227.14l8.11-20.04h5.61v36.31h-4.18v-11.63c0-7.65.05-13.82.15-18.51-.82,2.24-1.89,5-3.21,8.26l-8.98,21.88h-3.67l-9.03-21.88c-1.33-3.26-2.4-6.02-3.21-8.26.1,4.69.15,10.86.15,18.51v11.63h-4.18v-36.31h5.61l8.42,20.66c1.26,3.09,2.63,6.58,4.13,10.46,2.07-5.51,3.5-9.2,4.28-11.07Z"/>
    <path class="uuid-2c8a380d-d2a8-44f0-8be0-161693e211a9" d="M1403.4,215.56l5.3-8.47h4.84l-13.87,21.73v14.59h-4.28v-14.59l-13.87-21.73h4.9l5.35,8.52c2.31,3.6,4.25,6.73,5.81,9.38,2.18-3.67,4.11-6.82,5.81-9.43Z"/>
    <path class="uuid-2c8a380d-d2a8-44f0-8be0-161693e211a9" d="M1420.38,207.1v32.44h18.26v3.88h-22.54v-36.31h4.28Z"/>
    <path class="uuid-2c8a380d-d2a8-44f0-8be0-161693e211a9" d="M1455.42,228.62v-3.88h15.45v18.67h-3.52l-.92-4.9c-2.69,3.81-6.65,5.71-11.88,5.71s-9.35-1.75-12.44-5.25c-3.16-3.47-4.74-8.04-4.74-13.72s1.56-10.23,4.69-13.77c3.09-3.47,7.28-5.2,12.55-5.2,4.32,0,7.89,1.16,10.71,3.47,2.82,2.31,4.54,5.39,5.15,9.23h-4.44c-.44-2.69-1.73-4.83-3.88-6.43-2.07-1.56-4.59-2.35-7.55-2.35-3.88,0-6.97,1.36-9.28,4.08-2.31,2.72-3.47,6.38-3.47,10.96s1.16,8.25,3.47,10.96c2.31,2.72,5.41,4.08,9.28,4.08,3.43,0,6.36-1.1,8.77-3.31s3.62-5,3.62-8.36h-11.58Z"/>
    <path class="uuid-2c8a380d-d2a8-44f0-8be0-161693e211a9" d="M1481.13,243.41h-5.15v-5.1h5.15v5.1ZM1479.8,233.92h-2.65l-.71-16.83v-10h4.28v10l-.92,16.83Z"/>
    <path class="uuid-2c8a380d-d2a8-44f0-8be0-161693e211a9" d="M1495.71,220.41l-4.84,6.68-2.55-2.04,4.9-6.78-7.75-2.5,1.07-3.06,7.55,2.45v-8.06h3.26v8.06l7.55-2.45,1.07,3.06-7.75,2.5,4.9,6.78-2.55,2.04-4.84-6.68Z"/>
  </g>
  <g>
    <path class="uuid-2c8a380d-d2a8-44f0-8be0-161693e211a9" d="M1885.68,149.92v2.04h-21.36v-2.52h15.93v-4.86h1.98l.03.48c.1,1.52.4,2.65.9,3.39.5.74,1.34,1.23,2.52,1.47Z"/>
    <path class="uuid-2c8a380d-d2a8-44f0-8be0-161693e211a9" d="M1884.42,167.32c-.94,1.16-2.18,1.98-3.73,2.46-1.55.48-3.5.72-5.83.72-3.52,0-6.28-.67-8.27-2.02-1.99-1.35-2.98-3.28-2.98-5.78,0-1.92.51-3.51,1.53-4.77,1.02-1.26,2.43-2.05,4.23-2.37v2.46c-1.12.24-1.98.76-2.58,1.57-.6.81-.9,1.85-.9,3.11,0,3.46,2.85,5.22,8.55,5.28-.86-.58-1.56-1.38-2.1-2.39s-.81-2.02-.81-3.04c0-2.24.68-4.01,2.04-5.31,1.36-1.32,3.08-1.98,5.16-1.98s3.82.67,5.16,2.01c1.36,1.32,2.04,3.1,2.04,5.34,0,1.86-.5,3.43-1.5,4.71ZM1875.18,159.22c-.92.86-1.38,1.99-1.38,3.39s.46,2.52,1.38,3.42c.9.9,2.08,1.35,3.54,1.35s2.63-.45,3.57-1.35c.9-.9,1.35-2.04,1.35-3.42s-.46-2.53-1.38-3.39c-.94-.88-2.12-1.32-3.54-1.32s-2.6.44-3.54,1.32Z"/>
    <path class="uuid-2c8a380d-d2a8-44f0-8be0-161693e211a9" d="M1871.7,181.87v-8.67h2.16v8.67h-2.16Z"/>
    <path class="uuid-2c8a380d-d2a8-44f0-8be0-161693e211a9" d="M1866.72,198.1c-1.92-1.3-2.88-3.23-2.88-5.79s.96-4.51,2.88-5.79c1.94-1.3,4.7-1.95,8.28-1.95s6.34.65,8.28,1.95c1.92,1.28,2.88,3.21,2.88,5.79s-.96,4.49-2.88,5.79c-1.94,1.3-4.7,1.95-8.28,1.95s-6.34-.65-8.28-1.95ZM1883.88,192.31c0-3.4-2.96-5.1-8.88-5.1s-8.88,1.7-8.88,5.1,2.96,5.1,8.88,5.1,8.88-1.7,8.88-5.1Z"/>
    <path class="uuid-2c8a380d-d2a8-44f0-8be0-161693e211a9" d="M1866.6,205.03v11.28h-2.28v-14.1l1.17.06c1.76.12,3.27.52,4.53,1.2s2.36,1.83,3.3,3.45l1.56,2.7c.8,1.36,1.58,2.32,2.34,2.89.76.57,1.68.86,2.76.86,1.18,0,2.12-.38,2.83-1.12s1.06-1.79,1.06-3.11c0-2.98-1.53-4.47-4.59-4.47v-2.49c2.18-.02,3.87.59,5.07,1.83s1.8,2.97,1.8,5.19c0,2.02-.57,3.66-1.71,4.92-1.18,1.26-2.67,1.89-4.47,1.89-2.76,0-5.08-1.62-6.96-4.86l-1.32-2.28c-.8-1.32-1.58-2.27-2.33-2.85s-1.67-.91-2.77-.99Z"/>
    <path class="uuid-2c8a380d-d2a8-44f0-8be0-161693e211a9" d="M1871.7,226.51v-8.67h2.16v8.67h-2.16Z"/>
    <path class="uuid-2c8a380d-d2a8-44f0-8be0-161693e211a9" d="M1866.72,242.74c-1.92-1.3-2.88-3.23-2.88-5.79s.96-4.51,2.88-5.79c1.94-1.3,4.7-1.95,8.28-1.95s6.34.65,8.28,1.95c1.92,1.28,2.88,3.21,2.88,5.79s-.96,4.49-2.88,5.79c-1.94,1.3-4.7,1.95-8.28,1.95s-6.34-.65-8.28-1.95ZM1883.88,236.95c0-3.4-2.96-5.1-8.88-5.1s-8.88,1.7-8.88,5.1,2.96,5.1,8.88,5.1,8.88-1.7,8.88-5.1Z"/>
    <path class="uuid-2c8a380d-d2a8-44f0-8be0-161693e211a9" d="M1885.68,252.01v2.04h-21.36v-2.52h15.93v-4.86h1.98l.03.48c.1,1.52.4,2.65.9,3.39.5.74,1.34,1.23,2.52,1.47Z"/>
  </g>
</svg>