<?xml version="1.0" encoding="UTF-8"?>
<svg id="uuid-90f7cdd7-33fb-42ce-b486-e5e738dddad1" data-name="Layer 1" xmlns="http://www.w3.org/2000/svg" viewBox="0 0 1920 573">
  <defs>
    <style>
      .uuid-74d3041a-0f59-49ff-ac1d-4a5293c2a4ab {
        isolation: isolate;
      }

      .uuid-d4fa289a-7b81-4152-a256-4d64b550b4e4 {
        fill: #f4f4f4;
        stroke-width: 0px;
      }
    </style>
  </defs>
  <g id="uuid-d7fd1681-6d17-4c78-b8f6-46ed6a032910" data-name=" .SHOP" class="uuid-74d3041a-0f59-49ff-ac1d-4a5293c2a4ab">
    <g class="uuid-74d3041a-0f59-49ff-ac1d-4a5293c2a4ab">
      <path class="uuid-d4fa289a-7b81-4152-a256-4d64b550b4e4" d="M105.28,422.76h-10.1v-10h10.1v10Z"/>
      <path class="uuid-d4fa289a-7b81-4152-a256-4d64b550b4e4" d="M142.38,424.36c-9.27,0-16.5-2.1-21.7-6.3-5.2-4.2-7.83-10.47-7.9-18.8h8.7c.2,11.67,7.17,17.5,20.9,17.5,5.8,0,10.25-1.13,13.35-3.4,3.1-2.27,4.65-5.57,4.65-9.9,0-3.4-1.28-6.05-3.85-7.95-2.57-1.9-7.05-3.55-13.45-4.95l-6.3-1.4c-7.2-1.67-12.6-4.08-16.2-7.25-3.6-3.17-5.4-7.62-5.4-13.35s2.2-10.18,6.6-13.55c4.4-3.37,10.3-5.05,17.7-5.05,5,0,9.35.6,13.05,1.8s6.58,2.88,8.65,5.05c2.07,2.17,3.58,4.52,4.55,7.05.97,2.54,1.48,5.33,1.55,8.4h-8.6c-.4-5.07-2.05-8.78-4.95-11.15-2.9-2.37-7.65-3.55-14.25-3.55-5,0-8.85.97-11.55,2.9-2.7,1.93-4.05,4.63-4.05,8.1s1.17,6.17,3.5,8.1c2.27,1.93,6.67,3.63,13.2,5.1l6.3,1.4c7.87,1.73,13.53,4.22,17,7.45,3.47,3.23,5.2,7.52,5.2,12.85,0,6.47-2.37,11.57-7.1,15.3-4.73,3.73-11.27,5.6-19.6,5.6Z"/>
      <path class="uuid-d4fa289a-7b81-4152-a256-4d64b550b4e4" d="M226.18,382.16v-30.6h8.4v71.2h-8.4v-32.8h-39.7v32.8h-8.4v-71.2h8.4v30.6h39.7Z"/>
      <path class="uuid-d4fa289a-7b81-4152-a256-4d64b550b4e4" d="M303.47,414.06c-6.27,6.87-14.53,10.3-24.8,10.3s-18.5-3.43-24.7-10.3c-6.27-6.73-9.4-15.7-9.4-26.9s3.13-20.13,9.4-27c6.2-6.8,14.43-10.2,24.7-10.2s18.53,3.4,24.8,10.2c6.2,6.93,9.3,15.93,9.3,27s-3.1,20.1-9.3,26.9ZM260.27,408.66c4.6,5.33,10.73,8,18.4,8s13.8-2.67,18.4-8c4.6-5.27,6.9-12.43,6.9-21.5s-2.3-16.23-6.9-21.5c-4.6-5.33-10.73-8-18.4-8s-13.8,2.67-18.4,8c-4.6,5.27-6.9,12.43-6.9,21.5s2.3,16.23,6.9,21.5Z"/>
      <path class="uuid-d4fa289a-7b81-4152-a256-4d64b550b4e4" d="M322.77,351.56h29.6c7.53,0,13.35,1.97,17.45,5.9,4.1,3.93,6.15,9.27,6.15,16s-2.05,12.07-6.15,16c-4.1,3.93-9.92,5.9-17.45,5.9h-21.2v27.4h-8.4v-71.2ZM331.17,387.76h21.2c4.93,0,8.65-1.22,11.15-3.65,2.5-2.43,3.75-5.98,3.75-10.65s-1.25-8.22-3.75-10.65c-2.5-2.43-6.22-3.65-11.15-3.65h-21.2v28.6Z"/>
    </g>
  </g>
  <g id="uuid-8103eda5-c85c-416b-8a5e-eb9dfc920abe" data-name=" ." class="uuid-74d3041a-0f59-49ff-ac1d-4a5293c2a4ab">
    <g class="uuid-74d3041a-0f59-49ff-ac1d-4a5293c2a4ab">
      <path class="uuid-d4fa289a-7b81-4152-a256-4d64b550b4e4" d="M109.68,283.16v10.1h-10v-10.1h10Z"/>
      <path class="uuid-d4fa289a-7b81-4152-a256-4d64b550b4e4" d="M109.68,264.06v10.1h-10v-10.1h10Z"/>
      <path class="uuid-d4fa289a-7b81-4152-a256-4d64b550b4e4" d="M109.68,244.96v10.1h-10v-10.1h10Z"/>
      <path class="uuid-d4fa289a-7b81-4152-a256-4d64b550b4e4" d="M109.68,225.86v10.1h-10v-10.1h10Z"/>
      <path class="uuid-d4fa289a-7b81-4152-a256-4d64b550b4e4" d="M109.68,206.76v10.1h-10v-10.1h10Z"/>
      <path class="uuid-d4fa289a-7b81-4152-a256-4d64b550b4e4" d="M109.68,187.66v10.1h-10v-10.1h10Z"/>
      <path class="uuid-d4fa289a-7b81-4152-a256-4d64b550b4e4" d="M109.68,168.56v10.1h-10v-10.1h10Z"/>
    </g>
  </g>
</svg>