<?xml version="1.0" encoding="utf-8"?>
<!-- Generator: Adobe Illustrator 28.1.0, SVG Export Plug-In . SVG Version: 6.00 Build 0)  -->
<svg version="1.1" id="uuid-115d56ff-8370-4fe6-8093-9d22d5433f63"
	 xmlns="http://www.w3.org/2000/svg" xmlns:xlink="http://www.w3.org/1999/xlink" x="0px" y="0px" viewBox="0 0 1920 421"
	 style="enable-background:new 0 0 1920 421;" xml:space="preserve">
<style type="text/css">
	.st0{fill:#F4F4F4;}
</style>
<g id="uuid-e1069770-083c-4a26-b84a-08a42a60dec0">
	<g>
		<path class="st0" d="M1511,273.5h29.6c7.5,0,13.3,2,17.4,5.9s6.2,9.3,6.2,16s-2.1,12.1-6.2,16s-9.9,5.9-17.4,5.9h-21.2v27.4h-8.4
			V273.5L1511,273.5z M1519.4,309.7h21.2c4.9,0,8.7-1.2,11.2-3.6s3.8-6,3.8-10.6s-1.2-8.2-3.8-10.6s-6.2-3.6-11.2-3.6h-21.2V309.7
			L1519.4,309.7z"/>
		<path class="st0" d="M1625.9,324.1l0.7,11.5c0.3,4,1.2,7,2.6,9.1h-8.7c-1.5-2.1-2.2-5.3-2.3-9.5l-0.3-7.6
			c-0.2-4.8-1.3-8.2-3.2-10.2c-1.9-2-5.1-3-9.5-3H1582v30.4h-8.4v-71.2h30.1c7.3,0,13.2,1.7,17.6,5.1s6.6,8.2,6.6,14.3
			c0,4.3-1.1,8-3.2,11s-4.9,5-8.6,6.2C1622.1,311.9,1625.4,316.6,1625.9,324.1L1625.9,324.1z M1582,306.7h22.7c4.5,0,8-1.1,10.6-3.5
			c2.6-2.3,3.8-5.6,3.8-9.9s-1.3-7.1-4.1-9.2c-2.7-2.1-6.5-3.1-11.3-3.1H1582V306.7L1582,306.7z"/>
		<path class="st0" d="M1687.7,273.5v7.6h-41.1v22.7h37.1v7.6h-37.1v25.7h40.7v7.6h-49.1v-71.2L1687.7,273.5L1687.7,273.5z"/>
		<path class="st0" d="M1722.3,346.3c-9.3,0-16.5-2.1-21.7-6.3c-5.2-4.2-7.8-10.5-7.9-18.8h8.7c0.2,11.7,7.2,17.5,20.9,17.5
			c5.8,0,10.2-1.1,13.3-3.4s4.7-5.6,4.7-9.9c0-3.4-1.3-6-3.8-8c-2.6-1.9-7.1-3.5-13.4-5l-6.3-1.4c-7.2-1.7-12.6-4.1-16.2-7.2
			s-5.4-7.6-5.4-13.4s2.2-10.2,6.6-13.5s10.3-5,17.7-5c5,0,9.3,0.6,13.1,1.8s6.6,2.9,8.7,5c2.1,2.2,3.6,4.5,4.6,7s1.5,5.3,1.6,8.4
			h-8.6c-0.4-5.1-2.1-8.8-4.9-11.1c-2.9-2.4-7.7-3.5-14.2-3.5c-5,0-8.8,1-11.6,2.9c-2.7,1.9-4.1,4.6-4.1,8.1s1.2,6.2,3.5,8.1
			s6.7,3.6,13.2,5.1l6.3,1.4c7.9,1.7,13.5,4.2,17,7.5s5.2,7.5,5.2,12.9c0,6.5-2.4,11.6-7.1,15.3
			C1737.2,344.4,1730.7,346.3,1722.3,346.3L1722.3,346.3z"/>
		<path class="st0" d="M1784.6,346.3c-9.3,0-16.5-2.1-21.7-6.3s-7.8-10.5-7.9-18.8h8.7c0.2,11.7,7.2,17.5,20.9,17.5
			c5.8,0,10.2-1.1,13.3-3.4s4.7-5.6,4.7-9.9c0-3.4-1.3-6-3.8-8c-2.6-1.9-7.1-3.5-13.4-5l-6.3-1.4c-7.2-1.7-12.6-4.1-16.2-7.2
			s-5.4-7.6-5.4-13.4s2.2-10.2,6.6-13.5s10.3-5,17.7-5c5,0,9.3,0.6,13.1,1.8c3.7,1.2,6.6,2.9,8.7,5c2.1,2.2,3.6,4.5,4.6,7
			s1.5,5.3,1.6,8.4h-8.6c-0.4-5.1-2.1-8.8-4.9-11.1c-2.9-2.4-7.7-3.5-14.2-3.5c-5,0-8.8,1-11.6,2.9c-2.7,1.9-4.1,4.6-4.1,8.1
			s1.2,6.2,3.5,8.1s6.7,3.6,13.2,5.1l6.3,1.4c7.9,1.7,13.5,4.2,17,7.5c3.5,3.2,5.2,7.5,5.2,12.9c0,6.5-2.4,11.6-7.1,15.3
			C1799.5,344.4,1793,346.3,1784.6,346.3L1784.6,346.3z"/>
		<path class="st0" d="M1828.4,344.7h-10.1v-10h10.1V344.7z"/>
	</g>
</g>
<g id="uuid-eb52303d-4d51-487f-a534-05f5aa87a4a2">
	<g>
		<path class="st0" d="M1826,202.2v10.1h-10v-10.1H1826z"/>
		<path class="st0" d="M1826,183.1v10.1h-10v-10.1H1826z"/>
		<path class="st0" d="M1826,164.1v10.1h-10V164L1826,164.1L1826,164.1z"/>
		<path class="st0" d="M1826,144.9V155h-10v-10.1H1826z"/>
		<path class="st0" d="M1826,125.9V136h-10v-10.1H1826z"/>
		<path class="st0" d="M1826,106.8v10.1h-10v-10.1H1826z"/>
		<path class="st0" d="M1826,87.6v10.1h-10V87.6H1826z"/>
	</g>
</g>
</svg>
