<?xml version="1.0" encoding="utf-8"?>
<!-- Generator: Adobe Illustrator 28.1.0, SVG Export Plug-In . SVG Version: 6.00 Build 0)  -->
<svg version="1.1" id="uuid-115d56ff-8370-4fe6-8093-9d22d5433f63"
	 xmlns="http://www.w3.org/2000/svg" xmlns:xlink="http://www.w3.org/1999/xlink" x="0px" y="0px" viewBox="0 0 1920 503"
	 style="enable-background:new 0 0 1920 503;" xml:space="preserve">
<style type="text/css">
	.st0{fill:#F4F4F4;}
</style>
<g id="uuid-e1069770-083c-4a26-b84a-08a42a60dec0">
	<g>
		<path class="st0" d="M1591,355.5h29.6c7.5,0,13.3,2,17.4,5.9s6.2,9.3,6.2,16s-2.1,12.1-6.2,16s-9.9,5.9-17.4,5.9h-21.2v27.4h-8.4
			V355.5L1591,355.5z M1599.4,391.7h21.2c4.9,0,8.7-1.2,11.2-3.6s3.8-6,3.8-10.6s-1.2-8.2-3.8-10.6s-6.2-3.6-11.2-3.6h-21.2V391.7
			L1599.4,391.7z"/>
		<path class="st0" d="M1705.9,406.1l0.7,11.5c0.3,4,1.2,7,2.6,9.1h-8.7c-1.5-2.1-2.2-5.3-2.3-9.5l-0.3-7.6
			c-0.2-4.8-1.3-8.2-3.2-10.2c-1.9-2-5.1-3-9.5-3H1662v30.4h-8.4v-71.2h30.1c7.3,0,13.2,1.7,17.6,5.1s6.6,8.2,6.6,14.3
			c0,4.3-1.1,8-3.2,11s-4.9,5-8.6,6.2C1702.1,393.9,1705.4,398.6,1705.9,406.1L1705.9,406.1z M1662,388.7h22.7c4.5,0,8-1.1,10.6-3.5
			c2.6-2.3,3.8-5.6,3.8-9.9s-1.3-7.1-4.1-9.2c-2.7-2.1-6.5-3.1-11.3-3.1H1662V388.7L1662,388.7z"/>
		<path class="st0" d="M1767.7,355.5v7.6h-41.1v22.7h37.1v7.6h-37.1v25.7h40.7v7.6h-49.1v-71.2L1767.7,355.5L1767.7,355.5z"/>
		<path class="st0" d="M1802.3,428.3c-9.3,0-16.5-2.1-21.7-6.3c-5.2-4.2-7.8-10.5-7.9-18.8h8.7c0.2,11.7,7.2,17.5,20.9,17.5
			c5.8,0,10.2-1.1,13.3-3.4s4.7-5.6,4.7-9.9c0-3.4-1.3-6-3.8-8c-2.6-1.9-7.1-3.5-13.4-5l-6.3-1.4c-7.2-1.7-12.6-4.1-16.2-7.2
			s-5.4-7.6-5.4-13.4s2.2-10.2,6.6-13.5s10.3-5,17.7-5c5,0,9.3,0.6,13.1,1.8s6.6,2.9,8.7,5c2.1,2.2,3.6,4.5,4.6,7
			c1,2.5,1.5,5.3,1.6,8.4h-8.6c-0.4-5.1-2.1-8.8-4.9-11.1c-2.9-2.4-7.7-3.5-14.2-3.5c-5,0-8.8,1-11.6,2.9c-2.7,1.9-4.1,4.6-4.1,8.1
			s1.2,6.2,3.5,8.1c2.3,1.9,6.7,3.6,13.2,5.1l6.3,1.4c7.9,1.7,13.5,4.2,17,7.5s5.2,7.5,5.2,12.9c0,6.5-2.4,11.6-7.1,15.3
			C1817.2,426.4,1810.7,428.3,1802.3,428.3L1802.3,428.3z"/>
		<path class="st0" d="M1864.6,428.3c-9.3,0-16.5-2.1-21.7-6.3s-7.8-10.5-7.9-18.8h8.7c0.2,11.7,7.2,17.5,20.9,17.5
			c5.8,0,10.2-1.1,13.3-3.4s4.7-5.6,4.7-9.9c0-3.4-1.3-6-3.8-8c-2.6-1.9-7.1-3.5-13.4-5l-6.3-1.4c-7.2-1.7-12.6-4.1-16.2-7.2
			s-5.4-7.6-5.4-13.4s2.2-10.2,6.6-13.5s10.3-5,17.7-5c5,0,9.3,0.6,13.1,1.8c3.7,1.2,6.6,2.9,8.7,5c2.1,2.2,3.6,4.5,4.6,7
			c1,2.5,1.5,5.3,1.6,8.4h-8.6c-0.4-5.1-2.1-8.8-4.9-11.1c-2.9-2.4-7.7-3.5-14.2-3.5c-5,0-8.8,1-11.6,2.9c-2.7,1.9-4.1,4.6-4.1,8.1
			s1.2,6.2,3.5,8.1c2.3,1.9,6.7,3.6,13.2,5.1l6.3,1.4c7.9,1.7,13.5,4.2,17,7.5c3.5,3.2,5.2,7.5,5.2,12.9c0,6.5-2.4,11.6-7.1,15.3
			C1879.5,426.4,1873,428.3,1864.6,428.3L1864.6,428.3z"/>
		<path class="st0" d="M1908.4,426.7h-10.1v-10h10.1V426.7z"/>
	</g>
</g>
<g id="uuid-eb52303d-4d51-487f-a534-05f5aa87a4a2">
	<g>
		<path class="st0" d="M1906,284.2v10.1h-10v-10.1H1906z"/>
		<path class="st0" d="M1906,265.1v10.1h-10v-10.1H1906z"/>
		<path class="st0" d="M1906,246.1v10.1h-10V246L1906,246.1L1906,246.1z"/>
		<path class="st0" d="M1906,226.9v10.1h-10v-10.1H1906z"/>
		<path class="st0" d="M1906,207.9V218h-10v-10.1H1906z"/>
		<path class="st0" d="M1906,188.8v10.1h-10v-10.1H1906z"/>
		<path class="st0" d="M1906,169.6v10.1h-10v-10.1H1906z"/>
	</g>
</g>
</svg>
