<?xml version="1.0" encoding="UTF-8"?>
<svg id="uuid-5c36af71-429f-40a1-aef9-021fb1f76c23" data-name="Layer 1" xmlns="http://www.w3.org/2000/svg" viewBox="0 0 1920 518">
  <defs>
    <style>
      .uuid-0e5290f9-340f-41db-9603-333a95d27f86 {
        isolation: isolate;
      }

      .uuid-c1d7b197-57ce-4c2c-886a-de11b5516da5 {
        fill: #f4f4f4;
        stroke-width: 0px;
      }
    </style>
  </defs>
  <g id="uuid-1d126954-19c6-4d4f-b234-36349a6fbe5e" data-name=" .PHOTOGRAPHY" class="uuid-0e5290f9-340f-41db-9603-333a95d27f86">
    <g class="uuid-0e5290f9-340f-41db-9603-333a95d27f86">
      <path class="uuid-c1d7b197-57ce-4c2c-886a-de11b5516da5" d="M102.12,365.26h-10.1v-10h10.1v10Z"/>
      <path class="uuid-c1d7b197-57ce-4c2c-886a-de11b5516da5" d="M113.12,294.06h29.6c7.53,0,13.35,1.97,17.45,5.9,4.1,3.93,6.15,9.27,6.15,16s-2.05,12.07-6.15,16c-4.1,3.93-9.92,5.9-17.45,5.9h-21.2v27.4h-8.4v-71.2ZM121.52,330.26h21.2c4.93,0,8.65-1.22,11.15-3.65,2.5-2.43,3.75-5.98,3.75-10.65s-1.25-8.22-3.75-10.65c-2.5-2.43-6.22-3.65-11.15-3.65h-21.2v28.6Z"/>
      <path class="uuid-c1d7b197-57ce-4c2c-886a-de11b5516da5" d="M223.83,324.66v-30.6h8.4v71.2h-8.4v-32.8h-39.7v32.8h-8.4v-71.2h8.4v30.6h39.7Z"/>
      <path class="uuid-c1d7b197-57ce-4c2c-886a-de11b5516da5" d="M301.12,356.56c-6.27,6.87-14.53,10.3-24.8,10.3s-18.5-3.43-24.7-10.3c-6.27-6.73-9.4-15.7-9.4-26.9s3.13-20.13,9.4-27c6.2-6.8,14.43-10.2,24.7-10.2s18.53,3.4,24.8,10.2c6.2,6.93,9.3,15.93,9.3,27s-3.1,20.1-9.3,26.9ZM257.92,351.16c4.6,5.33,10.73,8,18.4,8s13.8-2.67,18.4-8c4.6-5.27,6.9-12.43,6.9-21.5s-2.3-16.23-6.9-21.5c-4.6-5.33-10.73-8-18.4-8s-13.8,2.67-18.4,8c-4.6,5.27-6.9,12.43-6.9,21.5s2.3,16.23,6.9,21.5Z"/>
      <path class="uuid-c1d7b197-57ce-4c2c-886a-de11b5516da5" d="M308.92,294.06h57.1v7.6h-24.2v63.6h-8.7v-63.6h-24.2v-7.6Z"/>
      <path class="uuid-c1d7b197-57ce-4c2c-886a-de11b5516da5" d="M423.42,356.56c-6.27,6.87-14.53,10.3-24.8,10.3s-18.5-3.43-24.7-10.3c-6.27-6.73-9.4-15.7-9.4-26.9s3.13-20.13,9.4-27c6.2-6.8,14.43-10.2,24.7-10.2s18.53,3.4,24.8,10.2c6.2,6.93,9.3,15.93,9.3,27s-3.1,20.1-9.3,26.9ZM380.23,351.16c4.6,5.33,10.73,8,18.4,8s13.8-2.67,18.4-8c4.6-5.27,6.9-12.43,6.9-21.5s-2.3-16.23-6.9-21.5c-4.6-5.33-10.73-8-18.4-8s-13.8,2.67-18.4,8c-4.6,5.27-6.9,12.43-6.9,21.5s2.3,16.23,6.9,21.5Z"/>
      <path class="uuid-c1d7b197-57ce-4c2c-886a-de11b5516da5" d="M475.12,336.26v-7.6h30.3v36.6h-6.9l-1.8-9.6c-5.27,7.47-13.03,11.2-23.3,11.2s-18.33-3.43-24.4-10.3c-6.2-6.8-9.3-15.77-9.3-26.9s3.07-20.07,9.2-27c6.07-6.8,14.27-10.2,24.6-10.2,8.47,0,15.47,2.27,21,6.8,5.53,4.53,8.9,10.57,10.1,18.1h-8.7c-.87-5.27-3.4-9.46-7.6-12.6-4.07-3.07-9-4.6-14.8-4.6-7.6,0-13.67,2.67-18.2,8-4.53,5.33-6.8,12.5-6.8,21.5s2.27,16.17,6.8,21.5c4.53,5.33,10.6,8,18.2,8,6.73,0,12.47-2.17,17.2-6.5,4.73-4.33,7.1-9.8,7.1-16.4h-22.7Z"/>
      <path class="uuid-c1d7b197-57ce-4c2c-886a-de11b5516da5" d="M569.72,344.66l.7,11.5c.33,4,1.2,7.03,2.6,9.1h-8.7c-1.47-2.13-2.23-5.3-2.3-9.5l-.3-7.6c-.2-4.8-1.27-8.22-3.2-10.25-1.93-2.03-5.1-3.05-9.5-3.05h-23.2v30.4h-8.4v-71.2h30.1c7.33,0,13.18,1.7,17.55,5.1,4.37,3.4,6.55,8.17,6.55,14.3,0,4.33-1.05,7.98-3.15,10.95-2.1,2.97-4.95,5.05-8.55,6.25,6,1.87,9.27,6.53,9.8,14ZM525.82,327.26h22.7c4.47,0,7.98-1.15,10.55-3.45,2.57-2.3,3.85-5.58,3.85-9.85s-1.35-7.13-4.05-9.2c-2.7-2.07-6.48-3.1-11.35-3.1h-21.7v25.6Z"/>
      <path class="uuid-c1d7b197-57ce-4c2c-886a-de11b5516da5" d="M641.12,365.26h-8.9l-8.3-20.7h-32.4l-8.2,20.7h-8.8l28.4-71.2h9.4l28.8,71.2ZM594.82,336.16l-.3.8h26.4l-.4-.9c-1.67-4.07-6-15.03-13-32.9-4.73,12.67-8.97,23.67-12.7,33Z"/>
      <path class="uuid-c1d7b197-57ce-4c2c-886a-de11b5516da5" d="M647.13,294.06h29.6c7.53,0,13.35,1.97,17.45,5.9,4.1,3.93,6.15,9.27,6.15,16s-2.05,12.07-6.15,16c-4.1,3.93-9.92,5.9-17.45,5.9h-21.2v27.4h-8.4v-71.2ZM655.53,330.26h21.2c4.93,0,8.65-1.22,11.15-3.65,2.5-2.43,3.75-5.98,3.75-10.65s-1.25-8.22-3.75-10.65c-2.5-2.43-6.22-3.65-11.15-3.65h-21.2v28.6Z"/>
      <path class="uuid-c1d7b197-57ce-4c2c-886a-de11b5516da5" d="M757.83,324.66v-30.6h8.4v71.2h-8.4v-32.8h-39.7v32.8h-8.4v-71.2h8.4v30.6h39.7Z"/>
      <path class="uuid-c1d7b197-57ce-4c2c-886a-de11b5516da5" d="M814.13,310.66l10.4-16.6h9.5l-27.2,42.6v28.6h-8.4v-28.6l-27.2-42.6h9.6l10.5,16.7c4.53,7.07,8.33,13.2,11.4,18.4,4.27-7.2,8.07-13.37,11.4-18.5Z"/>
    </g>
  </g>
  <g id="uuid-5aa3c85b-72fb-43cd-97e1-ae984482c0bf" data-name=" ." class="uuid-0e5290f9-340f-41db-9603-333a95d27f86">
    <g class="uuid-0e5290f9-340f-41db-9603-333a95d27f86">
      <path class="uuid-c1d7b197-57ce-4c2c-886a-de11b5516da5" d="M101.52,263.66v10.1h-10v-10.1h10Z"/>
      <path class="uuid-c1d7b197-57ce-4c2c-886a-de11b5516da5" d="M101.52,244.56v10.1h-10v-10.1h10Z"/>
      <path class="uuid-c1d7b197-57ce-4c2c-886a-de11b5516da5" d="M101.52,225.46v10.1h-10v-10.1h10Z"/>
      <path class="uuid-c1d7b197-57ce-4c2c-886a-de11b5516da5" d="M101.52,206.36v10.1h-10v-10.1h10Z"/>
      <path class="uuid-c1d7b197-57ce-4c2c-886a-de11b5516da5" d="M101.52,187.26v10.1h-10v-10.1h10Z"/>
      <path class="uuid-c1d7b197-57ce-4c2c-886a-de11b5516da5" d="M101.52,168.16v10.1h-10v-10.1h10Z"/>
    </g>
  </g>
</svg>