<?xml version="1.0" encoding="utf-8"?>
<!-- Generator: Adobe Illustrator 28.1.0, SVG Export Plug-In . SVG Version: 6.00 Build 0)  -->
<svg version="1.1" id="uuid-72595669-e374-4c27-8906-8e23e14b2603"
	 xmlns="http://www.w3.org/2000/svg" xmlns:xlink="http://www.w3.org/1999/xlink" x="0px" y="0px" viewBox="0 0 1920 423"
	 style="enable-background:new 0 0 1920 423;" xml:space="preserve">
<style type="text/css">
	.st0{fill:#F4F4F4;}
</style>
<g id="uuid-f9f0a454-1e28-432d-b226-1170f7b13800">
	<g>
		<path class="st0" d="M1826,204.2v10.1h-10v-10.1H1826z"/>
		<path class="st0" d="M1826,185.1v10.1h-10v-10.1H1826z"/>
		<path class="st0" d="M1826,166.1v10.1h-10V166L1826,166.1L1826,166.1L1826,166.1z"/>
		<path class="st0" d="M1826,146.9V157h-10v-10.1H1826z"/>
		<path class="st0" d="M1826,127.9V138h-10v-10.1H1826z"/>
		<path class="st0" d="M1826,108.8v10.1h-10v-10.1H1826z"/>
		<path class="st0" d="M1826,89.6v10.1h-10V89.6H1826z"/>
	</g>
</g>
<g id="uuid-d4fe88a1-82c8-4ea1-87e7-34bf20ac2749">
	<g>
		<path class="st0" d="M1393.4,348.9c-9.7,0-17.6-3.4-23.7-10.1s-9.2-15.8-9.2-27.1s3.1-20.4,9.2-27.1s14-10.1,23.7-10.1
			c7.7,0,14.2,2.1,19.6,6.2s9,10.2,10.7,18.2h-8.5c-3-11.2-10.3-16.8-21.8-16.8c-7.3,0-13.1,2.6-17.5,7.8
			c-4.4,5.3-6.6,12.5-6.6,21.7s2.2,16.4,6.6,21.6c4.4,5.3,10.2,7.9,17.5,7.9c5.5,0,10.3-1.7,14.6-5.1c4.2-3.3,6.8-8.2,7.7-14.7h8.4
			c-0.9,8.9-4.3,15.6-10.1,20.3C1408.1,346.5,1401.3,348.9,1393.4,348.9L1393.4,348.9z"/>
		<path class="st0" d="M1489.5,338.6c-6.3,6.9-14.5,10.3-24.8,10.3s-18.5-3.4-24.7-10.3c-6.3-6.7-9.4-15.7-9.4-26.9s3.1-20.1,9.4-27
			c6.2-6.8,14.4-10.2,24.7-10.2s18.5,3.4,24.8,10.2c6.2,6.9,9.3,15.9,9.3,27S1495.7,331.8,1489.5,338.6z M1446.3,333.2
			c4.6,5.3,10.7,8,18.4,8s13.8-2.7,18.4-8c4.6-5.3,6.9-12.4,6.9-21.5s-2.3-16.2-6.9-21.5c-4.6-5.3-10.7-8-18.4-8s-13.8,2.7-18.4,8
			c-4.6,5.3-6.9,12.4-6.9,21.5S1441.7,327.9,1446.3,333.2z"/>
		<path class="st0" d="M1557.1,300.1v-24h8.3v71.2h-10.2l-23.6-36.7c-6.8-10.8-11.7-18.8-14.8-24.1c0.2,9.3,0.3,21.6,0.3,36.8v24
			h-8.3v-71.2h10.2l23.6,36.7c6.8,10.8,11.7,18.8,14.8,24.1C1557.2,327.6,1557.1,315.3,1557.1,300.1z"/>
		<path class="st0" d="M1626.7,300.1v-24h8.3v71.2h-10.2l-23.6-36.7c-6.8-10.8-11.7-18.8-14.8-24.1c0.2,9.3,0.3,21.6,0.3,36.8v24
			h-8.3v-71.2h10.2l23.6,36.7c6.8,10.8,11.7,18.8,14.8,24.1C1626.8,327.6,1626.7,315.3,1626.7,300.1z"/>
		<path class="st0" d="M1697.5,276.1v7.6h-41.1v22.7h37.1v7.6h-37.1v25.7h40.7v7.6H1648v-71.2L1697.5,276.1L1697.5,276.1z"/>
		<path class="st0" d="M1735.4,348.9c-9.7,0-17.6-3.4-23.7-10.1s-9.2-15.8-9.2-27.1s3.1-20.4,9.2-27.1s14-10.1,23.7-10.1
			c7.7,0,14.2,2.1,19.6,6.2s9,10.2,10.7,18.2h-8.5c-3-11.2-10.3-16.8-21.8-16.8c-7.3,0-13.1,2.6-17.5,7.8
			c-4.4,5.3-6.6,12.5-6.6,21.7s2.2,16.4,6.6,21.6c4.4,5.3,10.2,7.9,17.5,7.9c5.5,0,10.3-1.7,14.6-5.1c4.2-3.3,6.8-8.2,7.7-14.7h8.4
			c-0.9,8.9-4.3,15.6-10.1,20.3C1750.1,346.5,1743.3,348.9,1735.4,348.9L1735.4,348.9z"/>
		<path class="st0" d="M1764.1,276.1h57.1v7.6H1797v63.6h-8.7v-63.6h-24.2L1764.1,276.1L1764.1,276.1z"/>
		<path class="st0" d="M1827.8,347.3h-10.1v-10h10.1V347.3z"/>
	</g>
</g>
</svg>
