<?xml version="1.0" encoding="UTF-8"?>
<svg id="uuid-72595669-e374-4c27-8906-8e23e14b2603" data-name="uuid-115d56ff-8370-4fe6-8093-9d22d5433f63" xmlns="http://www.w3.org/2000/svg" viewBox="0 0 1920 503">
  <defs>
    <style>
      .uuid-e7af8725-8cca-4237-9a07-44c75e5729ec {
        isolation: isolate;
      }

      .uuid-d10dd0a6-b4b6-41ee-863f-c722bd8ba141 {
        fill: #f4f4f4;
        stroke-width: 0px;
      }
    </style>
  </defs>
  <g id="uuid-f9f0a454-1e28-432d-b226-1170f7b13800" data-name="uuid-eb52303d-4d51-487f-a534-05f5aa87a4a2">
    <g>
      <path class="uuid-d10dd0a6-b4b6-41ee-863f-c722bd8ba141" d="M1906,284.2v10.1h-10v-10.1h10Z"/>
      <path class="uuid-d10dd0a6-b4b6-41ee-863f-c722bd8ba141" d="M1906,265.1v10.1h-10v-10.1h10Z"/>
      <path class="uuid-d10dd0a6-b4b6-41ee-863f-c722bd8ba141" d="M1906,246.1v10.1h-10v-10.2l10,.1h0Z"/>
      <path class="uuid-d10dd0a6-b4b6-41ee-863f-c722bd8ba141" d="M1906,226.9v10.1h-10v-10.1h10Z"/>
      <path class="uuid-d10dd0a6-b4b6-41ee-863f-c722bd8ba141" d="M1906,207.9v10.1h-10v-10.1h10Z"/>
      <path class="uuid-d10dd0a6-b4b6-41ee-863f-c722bd8ba141" d="M1906,188.8v10.1h-10v-10.1h10Z"/>
      <path class="uuid-d10dd0a6-b4b6-41ee-863f-c722bd8ba141" d="M1906,169.6v10.1h-10v-10.1h10Z"/>
    </g>
  </g>
  <g id="uuid-d4fe88a1-82c8-4ea1-87e7-34bf20ac2749" data-name=" .PHOTOGRAPHY" class="uuid-e7af8725-8cca-4237-9a07-44c75e5729ec">
    <g class="uuid-e7af8725-8cca-4237-9a07-44c75e5729ec">
      <path class="uuid-d10dd0a6-b4b6-41ee-863f-c722bd8ba141" d="M1473.4,428.9c-9.67,0-17.57-3.37-23.7-10.1-6.13-6.73-9.2-15.77-9.2-27.1s3.07-20.37,9.2-27.1c6.13-6.73,14.03-10.1,23.7-10.1,7.67,0,14.2,2.08,19.6,6.25,5.4,4.17,8.97,10.25,10.7,18.25h-8.5c-3-11.2-10.27-16.8-21.8-16.8-7.27,0-13.1,2.6-17.5,7.8-4.4,5.27-6.6,12.5-6.6,21.7s2.2,16.4,6.6,21.6c4.4,5.27,10.23,7.9,17.5,7.9,5.47,0,10.33-1.7,14.6-5.1,4.2-3.27,6.77-8.17,7.7-14.7h8.4c-.93,8.87-4.3,15.63-10.1,20.3-5.87,4.8-12.73,7.2-20.6,7.2Z"/>
      <path class="uuid-d10dd0a6-b4b6-41ee-863f-c722bd8ba141" d="M1569.5,418.6c-6.27,6.87-14.53,10.3-24.8,10.3s-18.5-3.43-24.7-10.3c-6.27-6.73-9.4-15.7-9.4-26.9s3.13-20.13,9.4-27c6.2-6.8,14.43-10.2,24.7-10.2s18.53,3.4,24.8,10.2c6.2,6.93,9.3,15.93,9.3,27s-3.1,20.1-9.3,26.9ZM1526.3,413.2c4.6,5.33,10.73,8,18.4,8s13.8-2.67,18.4-8c4.6-5.27,6.9-12.43,6.9-21.5s-2.3-16.23-6.9-21.5c-4.6-5.33-10.73-8-18.4-8s-13.8,2.67-18.4,8c-4.6,5.27-6.9,12.43-6.9,21.5s2.3,16.23,6.9,21.5Z"/>
      <path class="uuid-d10dd0a6-b4b6-41ee-863f-c722bd8ba141" d="M1637.1,380.1v-24h8.3v71.2h-10.2l-23.6-36.7c-6.8-10.8-11.73-18.83-14.8-24.1.2,9.33.3,21.6.3,36.8v24h-8.3v-71.2h10.2l23.6,36.7c6.8,10.8,11.73,18.83,14.8,24.1-.2-9.33-.3-21.6-.3-36.8Z"/>
      <path class="uuid-d10dd0a6-b4b6-41ee-863f-c722bd8ba141" d="M1706.7,380.1v-24h8.3v71.2h-10.2l-23.6-36.7c-6.8-10.8-11.73-18.83-14.8-24.1.2,9.33.3,21.6.3,36.8v24h-8.3v-71.2h10.2l23.6,36.7c6.8,10.8,11.73,18.83,14.8,24.1-.2-9.33-.3-21.6-.3-36.8Z"/>
      <path class="uuid-d10dd0a6-b4b6-41ee-863f-c722bd8ba141" d="M1777.5,356.1v7.6h-41.1v22.7h37.1v7.6h-37.1v25.7h40.7v7.6h-49.1v-71.2h49.5Z"/>
      <path class="uuid-d10dd0a6-b4b6-41ee-863f-c722bd8ba141" d="M1815.4,428.9c-9.67,0-17.57-3.37-23.7-10.1-6.13-6.73-9.2-15.77-9.2-27.1s3.07-20.37,9.2-27.1c6.13-6.73,14.03-10.1,23.7-10.1,7.67,0,14.2,2.08,19.6,6.25,5.4,4.17,8.97,10.25,10.7,18.25h-8.5c-3-11.2-10.27-16.8-21.8-16.8-7.27,0-13.1,2.6-17.5,7.8-4.4,5.27-6.6,12.5-6.6,21.7s2.2,16.4,6.6,21.6c4.4,5.27,10.23,7.9,17.5,7.9,5.47,0,10.33-1.7,14.6-5.1,4.2-3.27,6.77-8.17,7.7-14.7h8.4c-.93,8.87-4.3,15.63-10.1,20.3-5.87,4.8-12.73,7.2-20.6,7.2Z"/>
      <path class="uuid-d10dd0a6-b4b6-41ee-863f-c722bd8ba141" d="M1844.1,356.1h57.1v7.6h-24.2v63.6h-8.7v-63.6h-24.2v-7.6Z"/>
      <path class="uuid-d10dd0a6-b4b6-41ee-863f-c722bd8ba141" d="M1907.8,427.3h-10.1v-10h10.1v10Z"/>
    </g>
  </g>
</svg>