<?xml version="1.0" encoding="UTF-8"?>
<svg id="uuid-6b26f88f-4ae6-4a0f-80b6-b587d3b0c85d" data-name="Layer 1" xmlns="http://www.w3.org/2000/svg" xmlns:xlink="http://www.w3.org/1999/xlink" viewBox="0 0 1920 768">
  <defs>
    <style>
      .uuid-4736a65f-4991-4340-bc25-756859262d61 {
        fill: none;
      }

      .uuid-4736a65f-4991-4340-bc25-756859262d61, .uuid-48d9c5f0-c58f-4ee8-b862-9906869bae34 {
        stroke-width: 0px;
      }

      .uuid-48d9c5f0-c58f-4ee8-b862-9906869bae34 {
        fill: #fff;
      }

      .uuid-892b7a6c-b567-4e4e-9d3c-683e6ea29acf {
        clip-path: url(#uuid-3d8ac611-49ef-4ef7-b415-f4c331cbe17f);
      }
    </style>
    <clipPath id="uuid-3d8ac611-49ef-4ef7-b415-f4c331cbe17f">
      <rect class="uuid-4736a65f-4991-4340-bc25-756859262d61" x="623.95" y="111.38" width="672.1" height="545.24"/>
    </clipPath>
  </defs>
  <g class="uuid-892b7a6c-b567-4e4e-9d3c-683e6ea29acf">
    <g id="uuid-93a8a924-4e20-4edc-9015-be7f65c5a0a6" data-name="Group 838">
      <path id="uuid-09c406c8-7358-49c9-a45e-70a42f5c84d1" data-name="Path 3646" class="uuid-48d9c5f0-c58f-4ee8-b862-9906869bae34" d="M787.94,177.65l41.64-7.19c32.72-5.65,110.77-17.47,234.16-35.48,4.08-.02,6.27.85,6.58,2.61l.6,3.47-20.89,6.16c-.19-1.1-1.67-2.09-4.43-2.98-105.76,14.96-180.56,26.23-224.41,33.8l-23.8,4.11c-58.28,10.06-115.07,21.5-170.37,34.33l-3.08-3.04c2.34-2.57,5.42-4.35,8.82-5.1,62.36-13.37,114.08-23.6,155.17-30.69M796.17,189.84l4.79-.83c1.24-.33,2.51.4,2.84,1.64.04.13.06.27.07.41.34,1.98-5.95,24.68-18.88,68.09-26.61,96.26-52.06,218.64-76.35,367.13l2.35,5.72c-3.46,15.46-6.18,23.36-8.17,23.7l-4.96.86c-1.54.27-2.46-.43-2.74-2.08,5.24-40.61,15.5-104.1,30.77-190.46,19.57-95.61,42.35-186.5,68.32-272.66l1.95-1.53Z"/>
      <path id="uuid-524175da-f2be-4f3d-b81c-311d868f3abd" data-name="Path 3647" class="uuid-48d9c5f0-c58f-4ee8-b862-9906869bae34" d="M799.36,254.64c3.66.84,5.91,2.04,6.75,3.6l.4,2.31c-.07,4.89-9.36,50.62-27.88,137.2-.06,1.68-.23,3.36-.5,5.02,6.85-17.52,14.68-27.04,23.5-28.56l3.47-.6c1.76-.3,3.32,1.47,4.66,5.32-1.97,8.7-3.34,17.52-4.12,26.4,4.65-3.97,12.11-12.98,22.4-27.01l4.79-.83c1.08-.28,2.19.37,2.46,1.46.03.1.05.21.06.32l.43,2.48c-10.77,16.49-19.18,26.91-25.24,31.24l-10.58,1.82c-1.21.21-2.57-.75-4.07-2.87l-.83-4.79c-.65-3.75.24-10.42,2.67-20.03l-1.32.23c-7.75,20.85-14.43,31.76-20.05,32.73l-2.31.4c-4.3.74-6.86,0-7.71-2.24l-.2-1.16c1.77-18,11.72-69.18,29.83-153.54l-2.18-5.75c1.56-1.51,3.48-2.61,5.58-3.17"/>
      <path id="uuid-0e4d5193-6c79-48f1-89c5-d09d25a82445" data-name="Path 3648" class="uuid-48d9c5f0-c58f-4ee8-b862-9906869bae34" d="M846.62,361.85l2.15-.37c6.61-.46,10.35,1.79,11.21,6.75.74,4.3-7.21,10.49-23.85,18.58-2.48,9.28-3.5,15.19-3.06,17.72l1.16-.2c9.47-2.32,21.22-12.12,35.25-29.4l3.8-.66c1.26-.16,2.41.74,2.56,2,0,.04,0,.07.01.11l.4,2.31c-13.13,18.6-25.64,28.93-37.54,30.98l-6.94,1.2c-5.62.97-8.83-.86-9.63-5.49-.74-4.3.42-9.43,3.47-15.4l-1.58-2.28-.4-2.31c1.65-.29,6.65-6.82,14.99-19.61l8-3.93ZM843.88,374.58l.99-.17,4.13-5.65c-3.37,2.17-5.08,4.11-5.12,5.82"/>
      <path id="uuid-06df22c8-ae9f-4af5-83f2-3c1a875bd838" data-name="Path 3649" class="uuid-48d9c5f0-c58f-4ee8-b862-9906869bae34" d="M902.56,150.55l76.01-13.12c31.4-5.42,73.55-12.29,126.45-20.63l2.71.89,6.88-2.55,18.84-3.25c4.91-.69,9.89-.69,14.8,0l.83,4.79c-1.2.35-2.31.95-3.27,1.75-33.22,4.71-54.84,7.59-64.87,8.64-3.15.71-6.22,1.69-9.19,2.95-38.93,5.81-69.58,10.65-91.94,14.51l-30.74,5.31c-6.33,1.21-12.6,2.74-18.77,4.6-.62.2-1.29-.14-1.49-.76-.03-.11-.05-.22-.06-.33-5.8,1.76-11.68,3.23-17.62,4.4l-35.69,6.16c-32.5,5.61-60.88,11.7-85.16,18.27l-9.42,1.62c-1.65.29-2.61-.34-2.88-1.88l-.2-1.16c-.69-3.96,25.19-10.47,77.63-19.52-.23-1.32,15.49-4.89,47.16-10.69M1020.68,153.64l5.95-1.02c1.67-.18,2.62.4,2.85,1.72-30.07,171.5-64.93,282.12-104.56,331.84-29.25,39.53-55.89,64.95-79.93,76.25-9.36,4.91-16.64,7.8-21.81,8.7l-11.9,2.05c-18.18,3.14-28.57-2.84-31.17-17.93-.77.14-1.3-.63-1.58-2.28-2.47-22.83,9.35-55.9,35.46-99.2,29.5-38.78,62.12-67.67,97.87-86.66,24.52-12.4,42.84-19.65,54.96-21.74l3.64-.63,1.02,5.95-1.15.2c-36.74,9.97-74.93,32.9-114.57,68.78-29.66,31.89-48.93,62.22-57.81,90.98-6.85,16.16-9.21,30.4-7.09,42.75,3.9,10.78,11.97,15.12,24.2,13.01l1.16-.2c28.97-5,63.51-34.61,103.62-88.84,23.09-39.72,38.12-72.95,45.08-99.67,17.34-53.36,35.16-127.57,53.47-222.62l2.3-1.42Z"/>
      <path id="uuid-75e96e5f-a998-4d36-b12c-e96c206a32a4" data-name="Path 3650" class="uuid-48d9c5f0-c58f-4ee8-b862-9906869bae34" d="M1019.97,331.94l2.15-.37c6.61-.46,10.35,1.79,11.21,6.75.74,4.3-7.21,10.49-23.85,18.58-2.48,9.28-3.5,15.18-3.06,17.72l1.16-.2c9.47-2.32,21.22-12.12,35.26-29.4l3.8-.66c1.26-.16,2.41.74,2.56,2,0,.04,0,.07.01.11l.4,2.31c-13.13,18.6-25.64,28.93-37.54,30.98l-6.94,1.2c-5.62.97-8.83-.86-9.62-5.49-.74-4.3.41-9.43,3.47-15.4l-1.58-2.28-.4-2.31c1.65-.29,6.65-6.82,15-19.61l8-3.93ZM1017.23,344.66l.99-.17,4.13-5.65c-3.37,2.17-5.08,4.11-5.12,5.82"/>
      <path id="uuid-fb012c9d-0ba8-41ff-999c-89fd5e0384f1" data-name="Path 3651" class="uuid-48d9c5f0-c58f-4ee8-b862-9906869bae34" d="M1076.61,214.44l6.12-.03.43,2.48c.82,4.74-3.64,19.35-13.37,43.83l-25.55,107.36,1.16-.2c7.93-4.66,18.07-14.58,30.43-29.75l2.48-.43c1.71.05,2.68.73,2.91,2.04l.43,2.48c-13.54,20.15-26.75,31.33-39.64,33.56l-.49,5.02,5.99,19.9c4.07,23.57-.2,55.34-12.82,95.3-5.15,15.52-10.7,23.8-16.65,24.82-4.92.4-7.75-1.55-8.5-5.85-2.78-16.09,4.3-60.53,21.23-133.33-6.16-6.77-9.41-11.14-9.75-13.12l5.72-2.35,1.32-.23,5.28,3,1.32-.23c16.89-73.71,30.1-124.66,39.65-152.85l2.31-1.41ZM1036.49,400.05c-10.25,35.76-16.23,72.61-17.81,109.77l.2,1.15.99-.17c16.61-45.75,22.55-82.34,17.81-109.77l-.2-1.15-.99.17Z"/>
      <path id="uuid-6479c8b7-a86f-430f-9fa0-a91e42810ba8" data-name="Path 3652" class="uuid-48d9c5f0-c58f-4ee8-b862-9906869bae34" d="M1110.65,208.57l6.12-.03.43,2.48c.82,4.74-3.64,19.35-13.37,43.83l-25.55,107.36,1.16-.2c7.93-4.66,18.07-14.58,30.43-29.75l2.48-.43c1.71.05,2.68.73,2.91,2.05l.43,2.48c-13.54,20.15-26.75,31.33-39.64,33.56l-.49,5.02,5.99,19.9c4.07,23.57-.21,55.34-12.82,95.29-5.15,15.52-10.7,23.8-16.65,24.83-4.92.4-7.76-1.55-8.5-5.85-2.78-16.09,4.3-60.53,21.23-133.33-6.16-6.77-9.41-11.14-9.75-13.12l5.72-2.35,1.32-.23,5.28,3,1.32-.23c16.89-73.71,30.11-124.66,39.65-152.85l2.31-1.42ZM1070.53,394.17c-10.25,35.76-16.23,72.61-17.81,109.77l.2,1.15.99-.17c16.61-45.75,22.55-82.34,17.81-109.77l-.2-1.16-.99.18Z"/>
      <path id="uuid-a25a3eb4-25b8-415a-b790-54ea5253ef41" data-name="Path 3653" class="uuid-48d9c5f0-c58f-4ee8-b862-9906869bae34" d="M1113.99,300.91l1.16-.2c7.16-1.24,11.42,2.11,12.79,10.04-1.4,5.69-1.93,9.52-1.59,11.51,5.16,2.29,8.23,3.34,9.23,3.17l.83,4.79c.29,1.65-.3,5.84-1.75,12.55l1.32-.23c13.94-13.87,22.07-21,24.39-21.4l1.16-.2c1.69-.06,2.65.56,2.88,1.89l.43,2.48c-11.14,14.97-20.79,23.16-28.94,24.57l-2.15.37c-5.62.97-8.84-.91-9.65-5.65,1-8,1.4-12.61,1.19-13.82l-2.51-.76c-10.46,28.81-17.71,50.87-21.76,66.21l-7.11,1.23c-1.54.27-2.44-.32-2.68-1.75,4.25-18.77,11.55-42.5,21.92-71.17-2.31.4-4.92-2.89-7.83-9.88l-.83-4.79c2.04-5.23,5.21-8.22,9.51-8.96M1114.89,311.98l2.32.62-.6-3.47c-1.19.19-2,1.31-1.81,2.51.02.12.05.23.08.34"/>
      <path id="uuid-d7a48734-e701-4246-8530-89ddd48ad73b" data-name="Path 3654" class="uuid-48d9c5f0-c58f-4ee8-b862-9906869bae34" d="M1162.63,302.72l4.63-.8c1.21-.21,2.57.75,4.07,2.87l.2,1.16c.46,2.64-1.66,14.06-6.34,34.28l1.02,5.95c10.93-8.75,21.24-18.26,30.82-28.46l.99-.17c1.68.4,3.43.44,5.13.14l.63,3.64c-11.93,15.67-24.31,26.77-37.14,33.3l-3.64.63c-4.85.84-7.67-1.06-8.47-5.69-.97-5.62,1.24-19.1,6.63-40.45-.85-.94-1.5-2.04-1.92-3.24l3.37-3.13ZM1181.59,242.96l7.27-1.25,1.26,7.27c-7.2,3.62-11.79,5.61-13.78,5.95l-3.47.6c-1.65.28-2.61-.34-2.88-1.89-.19-1.1,3.68-4.66,11.6-10.68"/>
      <path id="uuid-ae2495ba-05d8-415e-980f-122b542d1fa1" data-name="Path 3655" class="uuid-48d9c5f0-c58f-4ee8-b862-9906869bae34" d="M1215.79,298.14l2.15-.37c6.61-.46,10.35,1.79,11.2,6.75.74,4.3-7.21,10.49-23.85,18.58-2.48,9.28-3.5,15.18-3.06,17.72l1.16-.2c9.47-2.32,21.22-12.12,35.26-29.4l3.8-.66c1.26-.16,2.41.74,2.56,2,0,.04,0,.07.01.11l.4,2.31c-13.13,18.6-25.64,28.93-37.53,30.98l-6.94,1.2c-5.62.97-8.83-.86-9.63-5.49-.74-4.3.41-9.43,3.47-15.4l-1.59-2.27-.4-2.31c1.65-.29,6.65-6.82,15-19.61l8-3.94ZM1213.05,310.87l.99-.17,4.13-5.65c-3.37,2.17-5.08,4.11-5.12,5.82"/>
      <path id="uuid-67c88860-4bc4-424b-a5f4-052073e00273" data-name="Path 3656" class="uuid-48d9c5f0-c58f-4ee8-b862-9906869bae34" d="M1243.95,286.82l4.63-.8c5.62-.97,8.9,1.3,9.85,6.81.46,2.64-3.75,9.16-12.63,19.54,3.16,2.52,6.61,8.39,10.36,17.61,5.62-.97,16.29-10.13,32.01-27.48l4.79-.83c1.24-.33,2.51.41,2.84,1.65.03.13.06.26.07.4l.17.99c-11.55,15.27-24.74,26.56-39.59,33.89-1.23,6.68-5.43,10.64-12.58,11.88l-7.11,1.23-.83-4.79c1.96-4.42,5.7-8.7,11.23-12.83-.74-4.3-5.84-12.78-15.28-25.44l-.66-3.8c.66-10.66,4.9-16.67,12.71-18.02M1240.89,304.53c4.44-3.83,6.97-7.95,7.56-12.37l-.99.17c-5.22,3.28-7.41,7.35-6.57,12.2"/>
    </g>
  </g>
</svg>