<?xml version="1.0" encoding="UTF-8"?>
<svg id="uuid-7db67e93-dbff-4be0-89f2-60ce5eb3b87b" data-name="uuid-9d76b9ee-b301-4498-a538-244598310ea7" xmlns="http://www.w3.org/2000/svg" viewBox="0 0 1920 576">
  <defs>
    <style>
      .uuid-963bca96-d886-4311-8058-99cd6bbca70b {
        fill: #fff;
        stroke-width: 0px;
      }
    </style>
  </defs>
  <path class="uuid-963bca96-d886-4311-8058-99cd6bbca70b" d="M178.53,475.34c-.27.4-.8.87-1.6,1.4-.8.53-1.4.8-1.8.8-.67.93-1.5,1.47-2.5,1.6-1,.13-1.7.67-2.1,1.6-.13,0-.2-.03-.2-.1,0-.07-.13-.1-.4-.1-.8.4-1.83,1.07-3.1,2-1.27.93-2.57,1.83-3.9,2.7-1.33.87-2.57,1.67-3.7,2.4-1.13.73-1.9,1.1-2.3,1.1-.27.53-.73.93-1.4,1.2-.67.27-1.27.53-1.8.8-.93.53-1.87,1.1-2.8,1.7-.93.6-1.93,1.1-3,1.5-1.33,1.2-2.87,2.07-4.6,2.6-13.87,8.8-26.03,14.27-36.5,16.4-10.47,2.13-18.77,1.37-24.9-2.3-6.13-3.67-9.97-10.04-11.5-19.1-1.53-9.07-.37-20.47,3.5-34.2,0-.4-.07-.6-.2-.6.4-.4.57-.87.5-1.4-.07-.53.17-.93.7-1.2-.27-.67-.2-1.17.2-1.5.4-.33.6-.83.6-1.5.13-.13.43-.67.9-1.6.47-.93.9-1.97,1.3-3.1.4-1.13.8-2.2,1.2-3.2s.6-1.63.6-1.9c1.47-1.87,2.67-3.9,3.6-6.1.93-2.2,2-4.1,3.2-5.7v-.8c.93-2.8,2.87-6.63,5.8-11.5,2.93-4.87,6.6-10.2,11-16,4.4-5.8,9.37-11.83,14.9-18.1,5.53-6.27,11.3-12.23,17.3-17.9,6-5.67,12.03-10.77,18.1-15.3,6.07-4.53,11.9-8,17.5-10.4,5.6-2.4,10.77-3.43,15.5-3.1,4.73.33,8.77,2.5,12.1,6.5.93.8,1.73,1.93,2.4,3.4.67,1.47,1.23,3.07,1.7,4.8.47,1.73.77,3.43.9,5.1.13,1.67.13,3.1,0,4.3,0,.67-.2,1.63-.6,2.9-.4,1.27-.73,2.23-1,2.9-.27.8-.6,1.57-1,2.3-.4.73-.73,1.43-1,2.1-.93,2.27-1.67,3.87-2.2,4.8-.27.27-.6.43-1,.5-.4.07-.47.23-.2.5-.67,0-1.1.13-1.3.4-.2.27-.43.47-.7.6-.53.13-1,.13-1.4,0-.4-.13-.8-.13-1.2,0-2.67-1.07-4.47-2.73-5.4-5-.67-1.6-.57-3,.3-4.2.87-1.2,1.57-2.33,2.1-3.4.27-.67.43-1.27.5-1.8.07-.53.23-1.13.5-1.8.67-1.73,1.2-3.46,1.6-5.2.4-1.73.53-3.33.4-4.8,0-1.46-.63-2.57-1.9-3.3-1.27-.73-2.83-.9-4.7-.5-1.87.4-3.6.93-5.2,1.6-1.6.67-3.17,1.4-4.7,2.2-1.53.8-3.03,1.6-4.5,2.4-1.47.8-3.07,1.53-4.8,2.2-.4.8-.93,1.33-1.6,1.6-.67.27-1.33.67-2,1.2-.67.27-1.37.73-2.1,1.4-.73.67-1.5,1.2-2.3,1.6-.27.27-.57.43-.9.5-.33.07-.63.23-.9.5-2.27,2-4.67,4-7.2,6-.67.67-1.4,1.23-2.2,1.7-.8.47-1.53,1.03-2.2,1.7-.53.8-1.23,1.53-2.1,2.2-.87.67-1.63,1.33-2.3,2-.4.27-.67.6-.8,1-.13.4-.27.73-.4,1-1.2,1.07-2.4,2.13-3.6,3.2-1.2,1.07-2.33,2.2-3.4,3.4-.53.4-1,.87-1.4,1.4-.4.54-.73,1.07-1,1.6l-.8.4c-.13.27-.17.47-.1.6.07.13.03.27-.1.4-.8.8-2.1,2.33-3.9,4.6-1.8,2.27-3.7,4.63-5.7,7.1-2,2.47-3.87,4.87-5.6,7.2-1.73,2.33-2.93,4.03-3.6,5.1-.27.54-.5,1.04-.7,1.5-.2.47-.5.83-.9,1.1-2.27,3.33-4.4,6.73-6.4,10.2-2,3.47-3.93,7-5.8,10.6-.8.93-1.37,1.9-1.7,2.9-.33,1-.83,1.83-1.5,2.5h.4c-.27.13-.43.33-.5.6-.07.27-.23.33-.5.2.27.67.2,1.1-.2,1.3-.4.2-.47.57-.2,1.1-1.07,1.47-1.83,2.93-2.3,4.4-.47,1.47-1.23,3.07-2.3,4.8-.4,2-1.03,3.9-1.9,5.7-.87,1.8-1.43,3.83-1.7,6.1-.4.53-.6,1.07-.6,1.6s-.13,1.13-.4,1.8c-.67,2.93-1.23,5.83-1.7,8.7-.47,2.87-.57,6.1-.3,9.7,0,2.67.7,5.37,2.1,8.1,1.4,2.73,3.03,4.7,4.9,5.9,1.6,1.07,3.83,1.46,6.7,1.2,2.87-.27,5.23-.67,7.1-1.2,1.6-.54,3.3-.97,5.1-1.3,1.8-.33,3.5-.77,5.1-1.3,3.73-1.47,7.37-3.13,10.9-5,3.53-1.87,7.03-3.6,10.5-5.2.8-.53,1.73-1.03,2.8-1.5,1.07-.47,2.13-.97,3.2-1.5.67-.67,1.63-1.2,2.9-1.6,1.27-.4,2.23-1.07,2.9-2h.4l40-23.4c7.6-4.4,14.57-8.33,20.9-11.8,6.33-3.47,11.73-6.27,16.2-8.4,4.47-2.13,7.73-3.47,9.8-4,2.07-.53,2.63-.13,1.7,1.2-.93,1.33-3.6,3.67-8,7-4.4,3.33-10.87,7.87-19.4,13.6,0,.4-.67,1-2,1.8-1.33.8-2.47,1.47-3.4,2,.13,0,.23-.03.3-.1.07-.07.17-.1.3-.1-1.47.8-3.3,1.93-5.5,3.4-2.2,1.47-4.43,2.97-6.7,4.5-2.27,1.53-4.43,2.93-6.5,4.2-2.07,1.27-3.63,2.17-4.7,2.7Z"/>
  <path class="uuid-963bca96-d886-4311-8058-99cd6bbca70b" d="M269.92,427.75c.13.93.07,1.97-.2,3.1-.27,1.13-.67,2.04-1.2,2.7-.27.67-.6,1.53-1,2.6-.4,1.07-.87,2-1.4,2.8-1.07.93-2.03,2.3-2.9,4.1-.87,1.8-1.83,3.03-2.9,3.7-2.67,2.8-4.93,4.97-6.8,6.5-1.87,1.53-3.83,2.9-5.9,4.1-2.07,1.2-3.83,1.67-5.3,1.4-2.13.8-4.2,1.1-6.2.9-2-.2-3.8-.73-5.4-1.6-1.6-.87-2.93-2.07-4-3.6-1.07-1.53-1.73-3.3-2-5.3-.13-.27-.2-.77-.2-1.5s.2-1.23.6-1.5c-.4-.93-.37-1.93.1-3,.47-1.07.7-2,.7-2.8l3.6-10.2c.4-.13.63-.37.7-.7.07-.33.23-.5.5-.5.8-1.87,1.9-3.73,3.3-5.6,1.4-1.87,2.83-3.6,4.3-5.2.8-1.07,1.7-2.2,2.7-3.4s2.07-2.27,3.2-3.2c1.13-.93,2.3-1.53,3.5-1.8,1.2-.27,2.33.07,3.4,1,1.33.27,2.47.67,3.4,1.2.13.27.3.27.5,0,.2-.27.43-.33.7-.2.27-.13.77-.13,1.5,0,.73.13,1.5.33,2.3.6.8.27,1.53.54,2.2.8.67.27,1.13.53,1.4.8l2,2.8c1.6-.4,4.1-.87,7.5-1.4,3.4-.53,6.97-.96,10.7-1.3,3.73-.33,7.2-.47,10.4-.4,3.2.07,5.53.57,7,1.5.13.13.3.2.5.2s.37.07.5.2c.13.13.27.2.4.2.8-.13,1.23-.07,1.3.2.07.27.37.4.9.4.67.54.8,1.1.4,1.7-.4.6-.87,1.03-1.4,1.3-1.47.13-2.37.33-2.7.6-.33.27-.67.5-1,.7-.33.2-.9.33-1.7.4-.8.07-2.33.1-4.6.1-1.87,0-3.83.13-5.9.4-2.07.27-4.17.67-6.3,1.2-2.13.53-4.17,1.03-6.1,1.5-1.93.47-3.57.9-4.9,1.3-.13.53-.2.97-.2,1.3v.9ZM255.52,418.15c-.67-.27-1.33-.4-2-.4s-1.27-.27-1.8-.8l-.6.6c-.8.67-1.43,1.47-1.9,2.4-.47.93-1.03,1.93-1.7,3-.67.8-1.53,2-2.6,3.6-1.07,1.6-2.13,3.3-3.2,5.1-1.07,1.8-2.03,3.53-2.9,5.2-.87,1.67-1.37,2.97-1.5,3.9-.4,1.73-.93,3.6-1.6,5.6-.67,2-.53,3.93.4,5.8,2.93-1.07,5.5-2.4,7.7-4,2.2-1.6,4.23-3.4,6.1-5.4l1.2-1.4c.53-.93,1.53-2.67,3-5.2,1.47-2.53,2.7-5.13,3.7-7.8,1-2.67,1.47-5.03,1.4-7.1-.07-2.07-1.3-3.1-3.7-3.1Z"/>
  <path class="uuid-963bca96-d886-4311-8058-99cd6bbca70b" d="M301.32,437.34c.93-.13,1.73-.57,2.4-1.3.67-.73,1.4-1.37,2.2-1.9,3.47-3.07,6.8-6.13,10-9.2,3.2-3.07,6.93-5.87,11.2-8.4,1.47-.93,3.13-1.93,5-3,1.87-1.07,3.73-1.67,5.6-1.8,1.33,0,2.77.5,4.3,1.5,1.53,1,2.37,2.1,2.5,3.3.13,1.47-.03,3-.5,4.6-.47,1.6-.9,3.13-1.3,4.6-.13,1.07-.43,2.8-.9,5.2-.47,2.4-.93,4.93-1.4,7.6-.47,2.67-.83,5.2-1.1,7.6-.27,2.4-.33,4.13-.2,5.2,1.2-.53,2.27-1,3.2-1.4.93-.4,2.07-.93,3.4-1.6,1.47-.67,2.37-1.07,2.7-1.2.33-.13.57-.23.7-.3.13-.07.33-.2.6-.4.27-.2,1.13-.7,2.6-1.5.93-.8,1.87-1.57,2.8-2.3.93-.73,1.87-1.3,2.8-1.7.53-.27,1.27-.4,2.2-.4,1.07-.67,2.1-1.27,3.1-1.8,1-.53,1.83-1.13,2.5-1.8,1.2.53,1.8,1.03,1.8,1.5s-.13,1.03-.4,1.7c-.93,1.2-2.27,2.27-4,3.2-.8.93-1.47,1.67-2,2.2-.53.53-1.27,1-2.2,1.4-1.47,1.2-2.4,1.97-2.8,2.3-.4.33-.7.6-.9.8-.2.2-.53.43-1,.7-.47.27-1.5.93-3.1,2-1.47.8-3.1,1.83-4.9,3.1-1.8,1.27-3.5,2.17-5.1,2.7-1.33.27-2.57.47-3.7.6-1.13.13-2.17.2-3.1.2-1.47.27-2.77-.5-3.9-2.3-1.13-1.8-1.7-3.43-1.7-4.9,0-.67.2-2.03.6-4.1.4-2.07.83-4.27,1.3-6.6.47-2.33.93-4.57,1.4-6.7.47-2.13.77-3.6.9-4.4.13-1.87.4-3.53.8-5,.4-1.46.73-2.93,1-4.4-1.07.27-2,.73-2.8,1.4-.8.67-1.6,1.33-2.4,2-2.4,1.87-4.73,3.73-7,5.6-2.27,1.87-4.53,3.93-6.8,6.2-1.33,1.2-2.8,2.4-4.4,3.6-1.6,1.2-3.13,2.53-4.6,4-4.53,4.8-8.2,8.8-11,12-2.8,3.2-4.87,4.93-6.2,5.2-1.07.27-2.3,0-3.7-.8-1.4-.8-2.23-1.73-2.5-2.8-.13-.53-.03-1.33.3-2.4.33-1.07.7-2.07,1.1-3,1.2-5.6,2.87-10.63,5-15.1,2.13-4.46,4.13-9.1,6-13.9.27-.67.67-1.4,1.2-2.2.53-.8.93-1.53,1.2-2.2.27-.93.47-1.83.6-2.7.13-.87.27-1.63.4-2.3.27-.27.57-.63.9-1.1.33-.47.7-.83,1.1-1.1,1.47-1.07,3.1-1.33,4.9-.8,1.8.53,2.83,1.47,3.1,2.8.67,1.6.67,3,0,4.2-.67,1.2-1.33,2.33-2,3.4-.27.8-.4,1.6-.4,2.4s-.13,1.54-.4,2.2c-.8,1.87-1.63,3.73-2.5,5.6-.87,1.87-1.7,3.93-2.5,6.2Z"/>
  <path class="uuid-963bca96-d886-4311-8058-99cd6bbca70b" d="M395.92,444.95c2.8-1.07,4.9-1.87,6.3-2.4,1.4-.53,2.47-.93,3.2-1.2.73-.27,1.27-.5,1.6-.7.33-.2.77-.4,1.3-.6.53-.2,1.37-.47,2.5-.8,1.13-.33,2.9-.9,5.3-1.7,1.07-.67,2.23-1.3,3.5-1.9,1.27-.6,2.57-1.1,3.9-1.5.13-.13.47-.2,1-.2h1.2c1.47-.53,2.33-.67,2.6-.4.53.27.67.47.4.6-.27.13-.4.33-.4.6s.03.47.1.6c.07.13-.3.4-1.1.8-.13.4-.37.67-.7.8-.33.13-.83.33-1.5.6-.93,0-1.53.47-1.8,1.4-.53.27-1.2.67-2,1.2-.8.53-1.63,1.13-2.5,1.8-.87.67-1.7,1.27-2.5,1.8-.8.53-1.47.87-2,1-5.6,2.67-11.03,5.07-16.3,7.2-5.27,2.13-10.7,4.13-16.3,6-.8.27-1.53.5-2.2.7-.67.2-1.53.57-2.6,1.1-.4,0-.9.13-1.5.4-.6.27-1.03.33-1.3.2-.27.13-.43.17-.5.1-.07-.07-.23-.1-.5-.1-1.73.67-3.1.87-4.1.6-1-.27-2.5-.27-4.5,0-1.2,0-2.27-.2-3.2-.6-.93-.4-1.73-.87-2.4-1.4-1.87-1.47-3.13-3.2-3.8-5.2-.67-2-.07-4.93,1.8-8.8.93-1.87,2.03-3.63,3.3-5.3,1.27-1.67,2.77-3.23,4.5-4.7,1.47-1.73,2.67-2.97,3.6-3.7.93-.73,2.27-1.9,4-3.5,1.47-1.2,3.03-2.57,4.7-4.1,1.67-1.53,3.3-3.1,4.9-4.7,1.07-.67,1.87-1.3,2.4-1.9.53-.6,1.47-1.3,2.8-2.1.67-.27,1.17-.47,1.5-.6.33-.13.83-.33,1.5-.6.67-.27,1.2-.67,1.6-1.2.4-.53,1.07-.8,2-.8,1.07-.13,2.87.27,5.4,1.2.53.53.93,1.3,1.2,2.3.27,1,.37,2,.3,3-.07,1-.23,1.93-.5,2.8-.27.87-.67,1.43-1.2,1.7-1.33.67-2.3,1.13-2.9,1.4-.6.27-1.37.87-2.3,1.8-.27,0-.67.1-1.2.3-.53.2-.93.5-1.2.9-.4,0-.9-.03-1.5-.1-.6-.07-1.03.03-1.3.3-.27.4-.7.67-1.3.8-.6.13-1.23.53-1.9,1.2l-3.2,2.6-4.4,3.4c-1.07,1.07-2.13,2.07-3.2,3-1.07.93-1.93,1.93-2.6,3-1.07.93-2,2.13-2.8,3.6-.8,1.47-1.47,2.87-2,4.2-.8,2-.13,3.03,2,3.1,2.13.07,4.83-.33,8.1-1.2,3.27-.87,6.7-1.93,10.3-3.2,3.6-1.27,6.4-2.23,8.4-2.9Z"/>
  <path class="uuid-963bca96-d886-4311-8058-99cd6bbca70b" d="M441.32,453.54c-1.07.67-2.23,1.17-3.5,1.5-1.27.33-2.5.7-3.7,1.1-1.6.4-3.4.8-5.4,1.2-2,.4-4,.57-6,.5-2-.07-3.9-.46-5.7-1.2-1.8-.73-3.3-1.97-4.5-3.7-.93-1.2-1.47-2.67-1.6-4.4-.13-1.73,0-3.5.4-5.3.4-1.8.97-3.6,1.7-5.4.73-1.8,1.5-3.43,2.3-4.9.67-.53,1.2-1.2,1.6-2,.4-.8.67-1.47.8-2,2.8-3.33,5.7-6.53,8.7-9.6,3-3.07,6.1-5.46,9.3-7.2,1.47-.93,3-1.73,4.6-2.4,1.6-.67,3.07-1.33,4.4-2,.53-.27.97-.53,1.3-.8.33-.27.83-.4,1.5-.4,4.8,0,7.93.83,9.4,2.5,1.47,1.67,2.2,3.3,2.2,4.9-.13.53-.6,1.13-1.4,1.8-.8.67-1.4,1.33-1.8,2-.67.67-1.27,1.3-1.8,1.9-.53.6-.93,1.17-1.2,1.7-5.33,4.67-10.67,8.8-16,12.4-1.33,1.07-3.1,1.8-5.3,2.2-2.2.4-4.43.47-6.7.2-.8.8-1.6,1.83-2.4,3.1-.8,1.27-1.43,2.6-1.9,4-.47,1.4-.67,2.8-.6,4.2.07,1.4.63,2.57,1.7,3.5,2.67.27,5,0,7-.8,2-.8,3.93-1.47,5.8-2,1.47-.4,3-.87,4.6-1.4,1.6-.53,3-1.07,4.2-1.6,2.8-1.33,5.1-2.4,6.9-3.2,1.8-.8,3.5-1.53,5.1-2.2,1.6-.67,3.27-1.4,5-2.2,1.73-.8,3.93-1.93,6.6-3.4,2.13-1.07,4.3-2.17,6.5-3.3,2.2-1.13,4.3-2.23,6.3-3.3.4-.27.57-.43.5-.5-.07-.07-.17-.07-.3,0-.13.07-.2.13-.2.2s.27.03.8-.1c.13,0,.3-.07.5-.2.2-.13.37-.2.5-.2,1.2,0,2,.1,2.4.3.4.2.57.53.5,1-.07.47-.33,1-.8,1.6-.47.6-.97,1.3-1.5,2.1.13,0-.03.17-.5.5-.47.33-1,.67-1.6,1-.6.33-1.37.83-2.3,1.5-1.47,1.07-3.27,2.2-5.4,3.4-2.13,1.2-4.27,2.37-6.4,3.5-2.13,1.13-4.13,2.17-6,3.1-1.87.93-3.27,1.6-4.2,2l-14.4,6.8ZM426.92,432.95c1.2,0,2.37-.33,3.5-1,1.13-.67,2.23-1.33,3.3-2,2.67-2.13,5.4-4.5,8.2-7.1,2.8-2.6,5.33-5.23,7.6-7.9.27,0,.4-.2.4-.6-4.8,1.73-9.03,4.27-12.7,7.6-3.67,3.33-7.1,7-10.3,11Z"/>
  <path class="uuid-963bca96-d886-4311-8058-99cd6bbca70b" d="M485.72,426.54c3.2-3.07,6.43-6.2,9.7-9.4,3.27-3.2,7.03-5.8,11.3-7.8,1.47-.67,2.97-1.27,4.5-1.8,1.53-.53,3.1-.67,4.7-.4.67,0,1.23.13,1.7.4.47.27.83.47,1.1.6h1.1c.47,0,.77.13.9.4.4.4.67.83.8,1.3.13.47.4,1.04.8,1.7.4.27.73.8,1,1.6.53,1.33.23,3.43-.9,6.3-1.13,2.87-2.57,5.87-4.3,9-1.73,3.13-3.47,6.1-5.2,8.9-1.73,2.8-3,4.67-3.8,5.6-1.2,1.47-2.3,2.77-3.3,3.9-1,1.13-2.23,2.3-3.7,3.5-1.33,1.07-2.57,2.04-3.7,2.9-1.13.87-2.43,1.7-3.9,2.5l-7.2,1.6c-.4-.4-.9-.67-1.5-.8-.6-.13-.83-.53-.7-1.2.4-2,1.63-3.53,3.7-4.6,2.07-1.07,3.77-2.4,5.1-4,2.93-2.67,5.9-5.67,8.9-9,3-3.33,5.37-6.87,7.1-10.6,1.2-1.87,2.07-3.73,2.6-5.6.53-1.87.63-3.27.3-4.2-.33-.93-1.2-1.2-2.6-.8-1.4.4-3.37,1.87-5.9,4.4-3.47,2.4-6.73,5-9.8,7.8-3.07,2.8-5.93,5.8-8.6,9-.67.93-1.3,1.67-1.9,2.2-.6.53-1.03,1.07-1.3,1.6-.27.67-.43,1.37-.5,2.1-.07.73-.23,1.43-.5,2.1-1.07,3.2-2.1,6.43-3.1,9.7-1,3.27-2.1,6.43-3.3,9.5-.27,1.47-.63,2.83-1.1,4.1-.47,1.27-.9,2.57-1.3,3.9-.27.53-.57,1.07-.9,1.6-.33.53-.5,1.13-.5,1.8-2.4,6.8-4.63,13.63-6.7,20.5-2.07,6.87-4.5,13.7-7.3,20.5-1.07,2.27-2.1,4.6-3.1,7-1,2.4-2.23,4.53-3.7,6.4-.27.53-.57,1.03-.9,1.5-.33.47-.83.83-1.5,1.1-.27.27-.53.37-.8.3-.27-.07-.6.03-1,.3-.67.67-1.2,1.07-1.6,1.2-.93.53-2.03.63-3.3.3-1.27-.33-2.17-.77-2.7-1.3-.67-.67-1.1-1.63-1.3-2.9-.2-1.27-.3-2.6-.3-4s.1-2.73.3-4c.2-1.27.37-2.3.5-3.1.67-6.4,1.9-12.47,3.7-18.2,1.8-5.73,3.83-11.27,6.1-16.6,1.47-3.47,2.93-6.57,4.4-9.3,1.47-2.73,3-5.33,4.6-7.8,1.6-2.47,3.27-4.97,5-7.5,1.73-2.53,3.6-5.33,5.6-8.4.4-1.73.93-3.8,1.6-6.2.67-2.4,1.3-4.97,1.9-7.7.6-2.73,1.13-5.4,1.6-8,.47-2.6.77-4.97.9-7.1.27-1.07.4-2.53.4-4.4s.33-3.07,1-3.6c.27-.4,1.13-.8,2.6-1.2,1.47-.4,2.73-.4,3.8,0,.93.13,2.13.63,3.6,1.5,1.47.87,2.27,1.83,2.4,2.9.27,1.2.13,2.53-.4,4-.53,1.47-.93,2.8-1.2,4ZM465.52,465.75c-1.07,2.93-2.43,5.9-4.1,8.9-1.67,3-3.17,6.23-4.5,9.7-1.07,2.27-2,4.67-2.8,7.2-.8,2.53-1.67,5-2.6,7.4-.53,1.07-1.03,2.2-1.5,3.4-.47,1.2-.57,2.4-.3,3.6-.27,0-.4.2-.4.6-.8,2.67-1.5,5.37-2.1,8.1-.6,2.73-1.23,5.5-1.9,8.3l.2.2c8.67-18,15.33-37.13,20-57.4Z"/>
  <path class="uuid-963bca96-d886-4311-8058-99cd6bbca70b" d="M525.92,468.34h-.2c-1.07-.53-1.67-1.13-1.8-1.8-.13-.67-.2-1.33-.2-2,.27-4.93.83-9.73,1.7-14.4.87-4.67,1.83-9.13,2.9-13.4,1.33-5.2,2.87-10.27,4.6-15.2,1.73-4.93,3.33-9.93,4.8-15,.67-2,1.3-3.97,1.9-5.9.6-1.93,1.23-3.83,1.9-5.7-1.73.27-3.37.63-4.9,1.1-1.53.47-3.43,1.23-5.7,2.3-.8.27-1.7.57-2.7.9-1,.33-1.97.63-2.9.9-.4.27-.83.6-1.3,1-.47.4-.97.67-1.5.8-.67.13-1.23.23-1.7.3-.47.07-.77-.03-.9-.3-.67-.4-1-1-1-1.8s.13-1.73.4-2.8c.27-.67.57-1.33.9-2,.33-.67.63-1.27.9-1.8l2.4-1c.93-.27,2.23-.57,3.9-.9,1.67-.33,3.37-.7,5.1-1.1,1.73-.4,3.33-.73,4.8-1,1.47-.27,2.4-.4,2.8-.4.67-.13,1.3-.27,1.9-.4.6-.13,1.23-.33,1.9-.6,1.47-4.13,3.03-8.2,4.7-12.2,1.67-4,3.43-8.07,5.3-12.2.93-1.73,1.77-3.5,2.5-5.3.73-1.8,1.43-3.57,2.1-5.3.67-1.07,1.13-2.07,1.4-3,.27-.4.4-.8.4-1.2s.13-.73.4-1c.13-.67.4-1.3.8-1.9.4-.6.73-1.37,1-2.3.27-.67.5-1.4.7-2.2s.5-1.4.9-1.8c.27-.4,1.13-.87,2.6-1.4,1.47-.53,2.73-.8,3.8-.8,1.33,0,2.67.3,4,.9,1.33.6,2.13,1.43,2.4,2.5.27.53.23,1.1-.1,1.7-.33.6-.77,1.23-1.3,1.9-.27.53-.43,1.07-.5,1.6-.07.53-.23,1.13-.5,1.8-1.47,3.2-2.87,6.47-4.2,9.8-1.33,3.33-2.87,6.53-4.6,9.6-1.33,2.93-2.7,5.8-4.1,8.6s-2.77,5.67-4.1,8.6h.2c1.6-.4,3.2-.7,4.8-.9,1.6-.2,3.13-.43,4.6-.7,2.13-.27,3.6-.43,4.4-.5.8-.07,1.47-.07,2,0,.53.07,1.23.07,2.1,0,.87-.07,2.43-.23,4.7-.5,1.47-.13,2.97-.23,4.5-.3,1.53-.07,3.17.23,4.9.9-.27.27-.33.5-.2.7.13.2.27.43.4.7.13,0,.2-.07.2-.2,0-.27.07-.4.2-.4-.27.27-.4.67-.4,1.2s-.07.87-.2,1c-.67.4-1.27.6-1.8.6s-1,.13-1.4.4l-.2.4c-4.8.67-10.03,1.33-15.7,2-5.67.67-11.03,1.6-16.1,2.8l-.6,2c-2.27,7.07-4.6,14.13-7,21.2-2.4,7.07-4.6,14.13-6.6,21.2-.27,1.07-.67,2.13-1.2,3.2-.53,1.07-.93,2.2-1.2,3.4-.67,1.07-1.1,2.27-1.3,3.6-.2,1.33-.57,2.54-1.1,3.6-.13.27-.37.6-.7,1-.33.4-.5.8-.5,1.2-.27.67-.47,1.33-.6,2-.13.67-.27,1.33-.4,2-.13.67-.2,1.4-.2,2.2s-.07,1.4-.2,1.8l-1.2,2c-.27.67-.4,1.33-.4,2s-.07,1.33-.2,2c-.67.27-.93.5-.8.7.13.2-.13.37-.8.5-.4.27-.97.43-1.7.5-.73.07-1.37.23-1.9.5Z"/>
</svg>