<?xml version="1.0" encoding="UTF-8"?>
<svg id="uuid-5ca0ca43-f2dc-4334-bce0-f5fa3abbfa0b" data-name="uuid-3842cd3b-b91a-4c5f-95fc-ff8648bb1c30" xmlns="http://www.w3.org/2000/svg" viewBox="0 0 1920 576">
  <defs>
    <style>
      .uuid-0688ac64-c8f6-4563-af39-3f8b97c7bc74 {
        isolation: isolate;
      }

      .uuid-d376b297-6c7d-4e90-9755-91f547372e34 {
        fill: #fff;
        stroke-width: 0px;
      }
    </style>
  </defs>
  <g id="uuid-e1fd7c0e-081c-49df-8626-f07e8c7aeb64" data-name="Interior Design" class="uuid-0688ac64-c8f6-4563-af39-3f8b97c7bc74">
    <g class="uuid-0688ac64-c8f6-4563-af39-3f8b97c7bc74">
      <path class="uuid-d376b297-6c7d-4e90-9755-91f547372e34" d="M90.57,450.68c.13-4.27.67-8.5,1.6-12.7.93-4.2,1.87-8.1,2.8-11.7.93-2.67,1.73-5.43,2.4-8.3.67-2.87,1.33-5.43,2-7.7,2.27-8,4.53-16,6.8-24,2.27-8,4.67-16,7.2-24l3.6-12c1.07-2.93,2-5.83,2.8-8.7.8-2.87,1.67-6.03,2.6-9.5.67-1.73,1.27-3.47,1.8-5.2.53-1.73,1.13-3.93,1.8-6.6.4-1.73.7-3.17.9-4.3.2-1.13.5-2.17.9-3.1,1.07-.4,2.07-.97,3-1.7.93-.73,2-.57,3.2.5.27.27.63.33,1.1.2.47-.13.77.27.9,1.2l.4.2c.27.27.47.57.6.9.13.33.33.9.6,1.7.4.8.7,2.73.9,5.8.2,3.07-.03,6.67-.7,10.8-.53,1.07-1.13,2.2-1.8,3.4-.67,1.2-1.2,2.33-1.6,3.4,0,.67-.27,1.67-.8,3-.8,1.73-1.53,3.33-2.2,4.8-.67,1.47-1.33,3.13-2,5-.67,1.87-1.3,3.83-1.9,5.9-.6,2.07-1.3,3.97-2.1,5.7,0,.27-.03.53-.1.8-.07.27-.1.6-.1,1-.67,1.47-1.33,3.23-2,5.3-.67,2.07-1.33,4.04-2,5.9-.67,2.53-1.37,4.9-2.1,7.1-.73,2.2-1.43,4.43-2.1,6.7-.8,2.4-1.5,4.53-2.1,6.4-.6,1.87-1.3,3.73-2.1,5.6-1.47,3.87-2.77,7.9-3.9,12.1-1.13,4.2-2.43,7.97-3.9,11.3l-7.2,22c-.67,1.73-1.27,3.5-1.8,5.3-.53,1.8-1.13,3.3-1.8,4.5-.67.27-1.4.4-2.2.4s-1.27-.67-1.4-2c-.13-.93-.1-1.87.1-2.8.2-.93.17-1.8-.1-2.6Z"/>
      <path class="uuid-d376b297-6c7d-4e90-9755-91f547372e34" d="M139.77,414.28c.93-.13,1.73-.57,2.4-1.3.67-.73,1.4-1.37,2.2-1.9,3.47-3.07,6.8-6.13,10-9.2,3.2-3.07,6.93-5.87,11.2-8.4,1.47-.93,3.13-1.93,5-3,1.87-1.07,3.73-1.67,5.6-1.8,1.33,0,2.77.5,4.3,1.5,1.53,1,2.37,2.1,2.5,3.3.13,1.47-.03,3-.5,4.6-.47,1.6-.9,3.13-1.3,4.6-.13,1.07-.43,2.8-.9,5.2-.47,2.4-.93,4.93-1.4,7.6-.47,2.67-.83,5.2-1.1,7.6-.27,2.4-.33,4.13-.2,5.2,1.2-.53,2.27-1,3.2-1.4.93-.4,2.07-.93,3.4-1.6,1.47-.67,2.37-1.07,2.7-1.2.33-.13.57-.23.7-.3.13-.07.33-.2.6-.4.27-.2,1.13-.7,2.6-1.5.93-.8,1.87-1.57,2.8-2.3.93-.73,1.87-1.3,2.8-1.7.53-.27,1.27-.4,2.2-.4,1.07-.67,2.1-1.27,3.1-1.8,1-.53,1.83-1.13,2.5-1.8,1.2.53,1.8,1.03,1.8,1.5s-.13,1.03-.4,1.7c-.93,1.2-2.27,2.27-4,3.2-.8.93-1.47,1.67-2,2.2-.53.53-1.27,1-2.2,1.4-1.47,1.2-2.4,1.97-2.8,2.3-.4.33-.7.6-.9.8-.2.2-.53.43-1,.7-.47.27-1.5.93-3.1,2-1.47.8-3.1,1.83-4.9,3.1-1.8,1.27-3.5,2.17-5.1,2.7-1.33.27-2.57.47-3.7.6-1.13.13-2.17.2-3.1.2-1.47.27-2.77-.5-3.9-2.3-1.13-1.8-1.7-3.43-1.7-4.9,0-.67.2-2.03.6-4.1.4-2.07.83-4.27,1.3-6.6.47-2.33.93-4.57,1.4-6.7.47-2.13.77-3.6.9-4.4.13-1.87.4-3.53.8-5,.4-1.46.73-2.93,1-4.4-1.07.27-2,.73-2.8,1.4-.8.67-1.6,1.33-2.4,2-2.4,1.87-4.73,3.73-7,5.6-2.27,1.87-4.53,3.93-6.8,6.2-1.33,1.2-2.8,2.4-4.4,3.6-1.6,1.2-3.13,2.53-4.6,4-4.53,4.8-8.2,8.8-11,12-2.8,3.2-4.87,4.93-6.2,5.2-1.07.27-2.3,0-3.7-.8-1.4-.8-2.23-1.73-2.5-2.8-.13-.53-.03-1.33.3-2.4.33-1.07.7-2.07,1.1-3,1.2-5.6,2.87-10.63,5-15.1,2.13-4.46,4.13-9.1,6-13.9.27-.67.67-1.4,1.2-2.2.53-.8.93-1.53,1.2-2.2.27-.93.47-1.83.6-2.7.13-.87.27-1.63.4-2.3.27-.27.57-.63.9-1.1.33-.47.7-.83,1.1-1.1,1.47-1.07,3.1-1.33,4.9-.8,1.8.53,2.83,1.47,3.1,2.8.67,1.6.67,3,0,4.2-.67,1.2-1.33,2.33-2,3.4-.27.8-.4,1.6-.4,2.4s-.13,1.54-.4,2.2c-.8,1.87-1.63,3.73-2.5,5.6-.87,1.87-1.7,3.93-2.5,6.2Z"/>
      <path class="uuid-d376b297-6c7d-4e90-9755-91f547372e34" d="M200.37,445.28h-.2c-1.07-.53-1.67-1.13-1.8-1.8-.13-.67-.2-1.33-.2-2,.27-4.93.83-9.73,1.7-14.4.87-4.67,1.83-9.13,2.9-13.4,1.33-5.2,2.87-10.27,4.6-15.2,1.73-4.93,3.33-9.93,4.8-15,.67-2,1.3-3.97,1.9-5.9.6-1.93,1.23-3.83,1.9-5.7-1.73.27-3.37.63-4.9,1.1-1.53.47-3.43,1.23-5.7,2.3-.8.27-1.7.57-2.7.9-1,.33-1.97.63-2.9.9-.4.27-.83.6-1.3,1-.47.4-.97.67-1.5.8-.67.13-1.23.23-1.7.3-.47.07-.77-.03-.9-.3-.67-.4-1-1-1-1.8s.13-1.73.4-2.8c.27-.67.57-1.33.9-2,.33-.67.63-1.27.9-1.8l2.4-1c.93-.27,2.23-.57,3.9-.9,1.67-.33,3.37-.7,5.1-1.1,1.73-.4,3.33-.73,4.8-1,1.47-.27,2.4-.4,2.8-.4.67-.13,1.3-.27,1.9-.4.6-.13,1.23-.33,1.9-.6,1.47-4.13,3.03-8.2,4.7-12.2,1.67-4,3.43-8.07,5.3-12.2.93-1.73,1.77-3.5,2.5-5.3.73-1.8,1.43-3.57,2.1-5.3.67-1.07,1.13-2.07,1.4-3,.27-.4.4-.8.4-1.2s.13-.73.4-1c.13-.67.4-1.3.8-1.9.4-.6.73-1.37,1-2.3.27-.67.5-1.4.7-2.2s.5-1.4.9-1.8c.27-.4,1.13-.87,2.6-1.4,1.47-.53,2.73-.8,3.8-.8,1.33,0,2.67.3,4,.9,1.33.6,2.13,1.43,2.4,2.5.27.53.23,1.1-.1,1.7-.33.6-.77,1.23-1.3,1.9-.27.53-.43,1.07-.5,1.6-.07.53-.23,1.13-.5,1.8-1.47,3.2-2.87,6.47-4.2,9.8-1.33,3.33-2.87,6.53-4.6,9.6-1.33,2.93-2.7,5.8-4.1,8.6s-2.77,5.67-4.1,8.6h.2c1.6-.4,3.2-.7,4.8-.9,1.6-.2,3.13-.43,4.6-.7,2.13-.27,3.6-.43,4.4-.5.8-.07,1.47-.07,2,0,.53.07,1.23.07,2.1,0,.87-.07,2.43-.23,4.7-.5,1.47-.13,2.97-.23,4.5-.3,1.53-.07,3.17.23,4.9.9-.27.27-.33.5-.2.7.13.2.27.43.4.7.13,0,.2-.07.2-.2,0-.27.07-.4.2-.4-.27.27-.4.67-.4,1.2s-.07.87-.2,1c-.67.4-1.27.6-1.8.6s-1,.13-1.4.4l-.2.4c-4.8.67-10.03,1.33-15.7,2-5.67.67-11.03,1.6-16.1,2.8l-.6,2c-2.27,7.07-4.6,14.13-7,21.2-2.4,7.07-4.6,14.13-6.6,21.2-.27,1.07-.67,2.13-1.2,3.2-.53,1.07-.93,2.2-1.2,3.4-.67,1.07-1.1,2.27-1.3,3.6-.2,1.33-.57,2.54-1.1,3.6-.13.27-.37.6-.7,1-.33.4-.5.8-.5,1.2-.27.67-.47,1.33-.6,2-.13.67-.27,1.33-.4,2-.13.67-.2,1.4-.2,2.2s-.07,1.4-.2,1.8l-1.2,2c-.27.67-.4,1.33-.4,2s-.07,1.33-.2,2c-.67.27-.93.5-.8.7.13.2-.13.37-.8.5-.4.27-.97.43-1.7.5-.73.07-1.37.23-1.9.5Z"/>
      <path class="uuid-d376b297-6c7d-4e90-9755-91f547372e34" d="M256.97,430.48c-1.07.67-2.23,1.17-3.5,1.5-1.27.33-2.5.7-3.7,1.1-1.6.4-3.4.8-5.4,1.2-2,.4-4,.57-6,.5-2-.07-3.9-.46-5.7-1.2-1.8-.73-3.3-1.97-4.5-3.7-.93-1.2-1.47-2.67-1.6-4.4-.13-1.73,0-3.5.4-5.3.4-1.8.97-3.6,1.7-5.4.73-1.8,1.5-3.43,2.3-4.9.67-.53,1.2-1.2,1.6-2,.4-.8.67-1.47.8-2,2.8-3.33,5.7-6.53,8.7-9.6,3-3.07,6.1-5.46,9.3-7.2,1.47-.93,3-1.73,4.6-2.4,1.6-.67,3.07-1.33,4.4-2,.53-.27.97-.53,1.3-.8.33-.27.83-.4,1.5-.4,4.8,0,7.93.83,9.4,2.5,1.47,1.67,2.2,3.3,2.2,4.9-.13.53-.6,1.13-1.4,1.8-.8.67-1.4,1.33-1.8,2-.67.67-1.27,1.3-1.8,1.9-.53.6-.93,1.17-1.2,1.7-5.33,4.67-10.67,8.8-16,12.4-1.33,1.07-3.1,1.8-5.3,2.2-2.2.4-4.43.47-6.7.2-.8.8-1.6,1.83-2.4,3.1-.8,1.27-1.43,2.6-1.9,4-.47,1.4-.67,2.8-.6,4.2.07,1.4.63,2.57,1.7,3.5,2.67.27,5,0,7-.8,2-.8,3.93-1.47,5.8-2,1.47-.4,3-.87,4.6-1.4,1.6-.53,3-1.07,4.2-1.6,2.8-1.33,5.1-2.4,6.9-3.2,1.8-.8,3.5-1.53,5.1-2.2,1.6-.67,3.27-1.4,5-2.2,1.73-.8,3.93-1.93,6.6-3.4,2.13-1.07,4.3-2.17,6.5-3.3,2.2-1.13,4.3-2.23,6.3-3.3.4-.27.57-.43.5-.5-.07-.07-.17-.07-.3,0-.13.07-.2.13-.2.2s.27.03.8-.1c.13,0,.3-.07.5-.2.2-.13.37-.2.5-.2,1.2,0,2,.1,2.4.3.4.2.57.53.5,1-.07.47-.33,1-.8,1.6-.47.6-.97,1.3-1.5,2.1.13,0-.03.17-.5.5-.47.33-1,.67-1.6,1-.6.33-1.37.83-2.3,1.5-1.47,1.07-3.27,2.2-5.4,3.4-2.13,1.2-4.27,2.37-6.4,3.5-2.13,1.13-4.13,2.17-6,3.1-1.87.93-3.27,1.6-4.2,2l-14.4,6.8ZM242.57,409.88c1.2,0,2.37-.33,3.5-1,1.13-.67,2.23-1.33,3.3-2,2.67-2.13,5.4-4.5,8.2-7.1,2.8-2.6,5.33-5.23,7.6-7.9.27,0,.4-.2.4-.6-4.8,1.73-9.03,4.27-12.7,7.6-3.67,3.33-7.1,7-10.3,11Z"/>
      <path class="uuid-d376b297-6c7d-4e90-9755-91f547372e34" d="M338.57,389.48c-.27.4-.37.73-.3,1,.07.27-.17.53-.7.8,0,.27-.2.4-.6.4-.27.67-.77,1.07-1.5,1.2-.73.13-1.37.53-1.9,1.2-2.67.8-5.47,1.8-8.4,3-2.93,1.2-5.77,2.5-8.5,3.9-2.73,1.4-5.23,2.83-7.5,4.3-2.27,1.47-4,2.93-5.2,4.4-1.07,1.07-2.2,2.2-3.4,3.4-1.2,1.2-2.27,2.53-3.2,4-.4,1.07-.83,2.4-1.3,4-.47,1.6-.9,3.17-1.3,4.7-.4,1.54-.83,2.9-1.3,4.1-.47,1.2-.9,1.93-1.3,2.2-.27.53-.8,1.27-1.6,2.2-.8.93-1.47,1.33-2,1.2-2,.93-3.7.8-5.1-.4-1.4-1.2-1.9-2.87-1.5-5,.27-1.33.87-3.33,1.8-6,.93-2.67,1.53-4.73,1.8-6.2v-.2c.13-.4.2-.8.2-1.2,1.07-1.87,1.93-3.8,2.6-5.8.67-2,1.47-3.93,2.4-5.8,0-.13.1-.23.3-.3.2-.07.3-.17.3-.3.67-2.67,1.5-5.3,2.5-7.9,1-2.6,1.9-5.1,2.7-7.5.13-.53.33-.93.6-1.2s.53-.6.8-1c.67-.27,1.23-.53,1.7-.8.47-.27.97-.4,1.5-.4.27-.27.6-.4,1-.4.27,0,.57.03.9.1.33.07.63.1.9.1,1.2.13,2.07.6,2.6,1.4,1.6,2.13,1.47,4.13-.4,6-.13,1.07-.37,2.13-.7,3.2-.33,1.07-.57,2-.7,2.8,4.67-3.47,9.27-5.87,13.8-7.2,4.53-1.33,8.73-2.13,12.6-2.4,1.07-.13,2.3-.27,3.7-.4,1.4-.13,2.63.13,3.7.8Z"/>
      <path class="uuid-d376b297-6c7d-4e90-9755-91f547372e34" d="M344.37,424.48c.4.4,1.53.23,3.4-.5,1.87-.73,4.17-1.73,6.9-3,2.73-1.27,5.77-2.7,9.1-4.3,3.33-1.6,6.67-3,10-4.2.93-.27,2.03-.67,3.3-1.2,1.27-.53,2.23-1,2.9-1.4,1.07-.67,2.13-1.33,3.2-2,1.07-.67,2.33-1.13,3.8-1.4.53-.13.8-.37.8-.7s.07-.23.2.3c.27.13.47.17.6.1.13-.07.27-.03.4.1,0,.54-.33,1.27-1,2.2l-1.4,1.2c-1.07.93-2.2,1.83-3.4,2.7-1.2.87-2.53,1.63-4,2.3-1.2,1.07-2.63,2.07-4.3,3-1.67.93-3.3,1.8-4.9,2.6-1.47.54-3.57,1.73-6.3,3.6-2.73,1.87-5.6,3.8-8.6,5.8s-5.77,3.77-8.3,5.3c-2.53,1.53-4.27,2.1-5.2,1.7-.4.4-.67.57-.8.5-.13-.07-.4-.1-.8-.1-2.13,0-3.97-.23-5.5-.7-1.53-.47-2.83-1.43-3.9-2.9-.4-1.6-.4-3.2,0-4.8.4-1.6.93-3.4,1.6-5.4.4-1.07.83-2.07,1.3-3,.47-.93.83-1.93,1.1-3,.53-1.07,1.07-2.2,1.6-3.4.53-1.2,1-2.33,1.4-3.4,1.47-3.07,3-6.17,4.6-9.3,1.6-3.13,3.33-6.03,5.2-8.7,1.07-.67,2.07-1.07,3-1.2.53-.27,1.1-.23,1.7.1.6.33,1.1.37,1.5.1.4.53.83,1,1.3,1.4.47.4.77.93.9,1.6.13.93.23,1.67.3,2.2.07.53-.03,1.13-.3,1.8.13.93-.13,1.93-.8,3-.27.4-.47.83-.6,1.3-.13.47-.33.97-.6,1.5-.13.13-.23.17-.3.1-.07-.07-.17-.03-.3.1-.27.13-.4.33-.4.6s-.13.47-.4.6c-.93,1.87-1.93,3.8-3,5.8-1.07,2-2.07,3.9-3,5.7-.93,1.8-1.6,3.37-2,4.7-.4,1.33-.4,2.2,0,2.6ZM352.57,375.68c-.13-.4.2-1.13,1-2.2.8-1.07,1.73-2.07,2.8-3,1.07-.93,2.13-1.6,3.2-2,1.07-.4,1.93-.2,2.6.6.27,0,.5.07.7.2.2.13.37.2.5.2.93,1.07,1.23,2.37.9,3.9-.33,1.53-1.03,2.57-2.1,3.1.13.27.13.43,0,.5-.13.07-.2.23-.2.5-.4-.27-.57-.13-.5.4.07.53-.17.67-.7.4.13.4-.03.8-.5,1.2-.47.4-.7.8-.7,1.2-.27-.13-.4-.17-.4-.1s-.13.1-.4.1c-.27.67-.83,1.17-1.7,1.5-.87.33-1.5.77-1.9,1.3-.27,0-.5.07-.7.2-.2.13-.57.07-1.1-.2-.8-.27-1.33-.7-1.6-1.3-.27-.6-.37-1.3-.3-2.1.07-.8.23-1.6.5-2.4.27-.8.47-1.47.6-2Z"/>
      <path class="uuid-d376b297-6c7d-4e90-9755-91f547372e34" d="M422.77,404.68c.13.93.07,1.97-.2,3.1-.27,1.13-.67,2.04-1.2,2.7-.27.67-.6,1.53-1,2.6-.4,1.07-.87,2-1.4,2.8-1.07.93-2.03,2.3-2.9,4.1-.87,1.8-1.83,3.03-2.9,3.7-2.67,2.8-4.93,4.97-6.8,6.5-1.87,1.53-3.83,2.9-5.9,4.1-2.07,1.2-3.83,1.67-5.3,1.4-2.13.8-4.2,1.1-6.2.9-2-.2-3.8-.73-5.4-1.6-1.6-.87-2.93-2.07-4-3.6-1.07-1.53-1.73-3.3-2-5.3-.13-.27-.2-.77-.2-1.5s.2-1.23.6-1.5c-.4-.93-.37-1.93.1-3,.47-1.07.7-2,.7-2.8l3.6-10.2c.4-.13.63-.37.7-.7.07-.33.23-.5.5-.5.8-1.87,1.9-3.73,3.3-5.6,1.4-1.87,2.83-3.6,4.3-5.2.8-1.07,1.7-2.2,2.7-3.4s2.07-2.27,3.2-3.2c1.13-.93,2.3-1.53,3.5-1.8,1.2-.27,2.33.07,3.4,1,1.33.27,2.47.67,3.4,1.2.13.27.3.27.5,0,.2-.27.43-.33.7-.2.27-.13.77-.13,1.5,0,.73.13,1.5.33,2.3.6.8.27,1.53.54,2.2.8.67.27,1.13.53,1.4.8l2,2.8c1.6-.4,4.1-.87,7.5-1.4,3.4-.53,6.97-.96,10.7-1.3,3.73-.33,7.2-.47,10.4-.4,3.2.07,5.53.57,7,1.5.13.13.3.2.5.2s.37.07.5.2c.13.13.27.2.4.2.8-.13,1.23-.07,1.3.2.07.27.37.4.9.4.67.54.8,1.1.4,1.7-.4.6-.87,1.03-1.4,1.3-1.47.13-2.37.33-2.7.6-.33.27-.67.5-1,.7-.33.2-.9.33-1.7.4-.8.07-2.33.1-4.6.1-1.87,0-3.83.13-5.9.4-2.07.27-4.17.67-6.3,1.2-2.13.53-4.17,1.03-6.1,1.5-1.93.47-3.57.9-4.9,1.3-.13.53-.2.97-.2,1.3v.9ZM408.37,395.08c-.67-.27-1.33-.4-2-.4s-1.27-.27-1.8-.8l-.6.6c-.8.67-1.43,1.47-1.9,2.4-.47.93-1.03,1.93-1.7,3-.67.8-1.53,2-2.6,3.6-1.07,1.6-2.13,3.3-3.2,5.1-1.07,1.8-2.03,3.53-2.9,5.2-.87,1.67-1.37,2.97-1.5,3.9-.4,1.73-.93,3.6-1.6,5.6-.67,2-.53,3.93.4,5.8,2.93-1.07,5.5-2.4,7.7-4,2.2-1.6,4.23-3.4,6.1-5.4l1.2-1.4c.53-.93,1.53-2.67,3-5.2,1.47-2.53,2.7-5.13,3.7-7.8,1-2.67,1.47-5.03,1.4-7.1-.07-2.07-1.3-3.1-3.7-3.1Z"/>
      <path class="uuid-d376b297-6c7d-4e90-9755-91f547372e34" d="M493.16,389.48c-.27.4-.37.73-.3,1,.07.27-.17.53-.7.8,0,.27-.2.4-.6.4-.27.67-.77,1.07-1.5,1.2-.73.13-1.37.53-1.9,1.2-2.67.8-5.47,1.8-8.4,3-2.93,1.2-5.77,2.5-8.5,3.9-2.73,1.4-5.23,2.83-7.5,4.3-2.27,1.47-4,2.93-5.2,4.4-1.07,1.07-2.2,2.2-3.4,3.4-1.2,1.2-2.27,2.53-3.2,4-.4,1.07-.83,2.4-1.3,4-.47,1.6-.9,3.17-1.3,4.7-.4,1.54-.83,2.9-1.3,4.1-.47,1.2-.9,1.93-1.3,2.2-.27.53-.8,1.27-1.6,2.2-.8.93-1.47,1.33-2,1.2-2,.93-3.7.8-5.1-.4-1.4-1.2-1.9-2.87-1.5-5,.27-1.33.87-3.33,1.8-6,.93-2.67,1.53-4.73,1.8-6.2v-.2c.13-.4.2-.8.2-1.2,1.07-1.87,1.93-3.8,2.6-5.8.67-2,1.47-3.93,2.4-5.8,0-.13.1-.23.3-.3.2-.07.3-.17.3-.3.67-2.67,1.5-5.3,2.5-7.9,1-2.6,1.9-5.1,2.7-7.5.13-.53.33-.93.6-1.2s.53-.6.8-1c.67-.27,1.23-.53,1.7-.8.47-.27.97-.4,1.5-.4.27-.27.6-.4,1-.4.27,0,.57.03.9.1.33.07.63.1.9.1,1.2.13,2.07.6,2.6,1.4,1.6,2.13,1.47,4.13-.4,6-.13,1.07-.37,2.13-.7,3.2-.33,1.07-.57,2-.7,2.8,4.67-3.47,9.27-5.87,13.8-7.2,4.53-1.33,8.73-2.13,12.6-2.4,1.07-.13,2.3-.27,3.7-.4,1.4-.13,2.63.13,3.7.8Z"/>
      <path class="uuid-d376b297-6c7d-4e90-9755-91f547372e34" d="M742.36,402.68c-.27.8-.87,1.17-1.8,1.1-.93-.07-1.6.04-2,.3.13.13-.2.37-1,.7-.8.33-1.6.67-2.4,1-.8.33-1.37.6-1.7.8-.33.2.1.1,1.3-.3.13.4-.9.9-3.1,1.5-2.2.6-4.67,1.17-7.4,1.7-2.73.53-5.33,1-7.8,1.4-2.47.4-3.9.6-4.3.6-1.6.13-3.87.47-6.8,1-2.93.53-6,1.17-9.2,1.9-3.2.73-6.3,1.4-9.3,2-3,.6-5.37,1.03-7.1,1.3l-.4.4v-.2c-.93.67-1.87,1.4-2.8,2.2-.93.8-2.27,1.93-4,3.4-1.47,1.47-2.97,2.9-4.5,4.3-1.53,1.4-3.1,2.63-4.7,3.7-.8.93-1.6,1.73-2.4,2.4-.8.67-1.73,1.33-2.8,2-.67.93-1.43,1.63-2.3,2.1-.87.47-1.77,1.1-2.7,1.9-.8.67-1.67,1.33-2.6,2-.93.67-1.87,1.33-2.8,2-2.67,1.87-5.33,3.83-8,5.9-2.67,2.07-5.33,4.03-8,5.9-3.2,1.73-6.2,3.67-9,5.8-2.8,2.13-5.87,3.93-9.2,5.4-.67.4-1.33.87-2,1.4-.67.53-1.53.8-2.6.8-1.87,1.2-3.87,2.43-6,3.7-2.13,1.27-4.4,2.3-6.8,3.1-1.73.93-3.47,1.7-5.2,2.3-1.73.6-3.53,1.3-5.4,2.1-.27-.13-.27-.1,0,.1.27.2.27.3,0,.3-.93.27-1.73.57-2.4.9-.67.33-1.33.63-2,.9-.93.4-1.93.83-3,1.3-1.07.47-2.07,1.03-3,1.7-.53-.27-.9-.27-1.1,0-.2.27-.57.4-1.1.4-1.2,1.07-2.67,1.87-4.4,2.4-1.73.53-3.33,1.2-4.8,2h-.8c-3.47,1.6-6.9,3.07-10.3,4.4-3.4,1.33-7.03,2.47-10.9,3.4-.27.13-.43.3-.5.5-.07.2-.3.37-.7.5-1.87.53-3.57,1.07-5.1,1.6-1.53.53-3.43.87-5.7,1-.27,0-.37.13-.3.4.07.27-.03.4-.3.4-1.07,0-1.97.17-2.7.5-.73.33-1.5.5-2.3.5-5.07.93-10.53,1.6-16.4,2-5.87.4-11.53-.13-17-1.6l-1.8-.8c-.8-.27-1.57-.43-2.3-.5-.73-.07-1.57-.3-2.5-.7-1.6-.8-3.03-1.9-4.3-3.3-1.27-1.4-1.57-3.5-.9-6.3.53-.8,1.03-1.63,1.5-2.5.47-.87.83-1.63,1.1-2.3.93-2.13,2.2-4.07,3.8-5.8,1.6-1.73,3.13-3.27,4.6-4.6.53-.93,1.23-1.7,2.1-2.3.87-.6,1.63-1.3,2.3-2.1,5.2-4.13,10.33-7.7,15.4-10.7,5.07-3,10.2-5.7,15.4-8.1,5.2-2.4,10.53-4.73,16-7,5.47-2.27,11.27-4.8,17.4-7.6.8-2.67,1.8-5.77,3-9.3,1.2-3.53,2.47-7.1,3.8-10.7,1.33-3.6,2.63-7.1,3.9-10.5,1.27-3.4,2.3-6.43,3.1-9.1.27-1.33.67-2.33,1.2-3,.13-1.07.27-1.93.4-2.6.13-.67.4-1.27.8-1.8,2.53-7.07,5-13.96,7.4-20.7,2.4-6.73,5.07-13.3,8-19.7l2.4-6.2c.27-.67.6-1.17,1-1.5.4-.33.6-.97.6-1.9-.4-.67-.8-.83-1.2-.5-.4.33-.87.63-1.4.9-6.53,2.4-11.83,4.33-15.9,5.8-4.07,1.47-7.63,2.8-10.7,4-3.07,1.2-6.07,2.5-9,3.9-2.93,1.4-6.47,3.3-10.6,5.7-1.07.67-2.13,1.43-3.2,2.3-1.07.87-2.27,1.5-3.6,1.9-1.2.67-2.47,1.23-3.8,1.7-1.33.47-2.4,1.1-3.2,1.9-1.2.8-2.33,1.63-3.4,2.5-1.07.87-2.53,1.17-4.4.9-.27,0-.57-.1-.9-.3-.33-.2-.7-.43-1.1-.7-.93-.27-1.73-.46-2.4-.6-.67-.13-1.33-.53-2-1.2-.4-.4-.93-.9-1.6-1.5-.67-.6-1-1.1-1-1.5,0-.67.6-1.43,1.8-2.3,1.2-.87,1.93-1.43,2.2-1.7.67-.27,1.4-.57,2.2-.9.8-.33,1.6-.77,2.4-1.3,1.87-1.07,3.87-2.13,6-3.2,2.13-1.07,4.2-2.2,6.2-3.4,3.07-1.47,6.07-2.83,9-4.1,2.93-1.27,6-2.57,9.2-3.9,7.07-2.93,14.4-5.87,22-8.8,7.6-2.93,15.4-5.33,23.4-7.2.4-.67.73-1.37,1-2.1.27-.73.67-1.37,1.2-1.9v-1.4c.4-.8.83-1.57,1.3-2.3.47-.73,1.23-1.17,2.3-1.3.13,0,.2-.07.2-.2v-.4c.67-.27,1.23-.53,1.7-.8.47-.27.9-.53,1.3-.8,2.67.4,4.7,1.23,6.1,2.5,1.4,1.27,2.63,2.77,3.7,4.5,2.93-.13,5.9-.4,8.9-.8s6.1-.67,9.3-.8c4.53-.27,9.57-.43,15.1-.5,5.53-.07,11.03.2,16.5.8,5.47.6,10.7,1.6,15.7,3s9.23,3.5,12.7,6.3c1.87,1.47,3.6,3.2,5.2,5.2s3,3.93,4.2,5.8c1.2,2,2.3,4.17,3.3,6.5,1,2.33,1.7,4.83,2.1,7.5.4,3.47-.3,7.6-2.1,12.4-1.8,4.8-4.03,9.6-6.7,14.4-2.67,4.8-5.47,9.27-8.4,13.4-2.93,4.13-5.33,7.2-7.2,9.2,1.87-.13,4.03-.47,6.5-1,2.47-.53,4.93-1.1,7.4-1.7,2.47-.6,4.93-1.13,7.4-1.6,2.47-.47,4.63-.83,6.5-1.1,1.33-.27,2.67-.43,4-.5,1.33-.07,2.73-.1,4.2-.1,2.13-.4,3.93-.7,5.4-.9,1.47-.2,2.73-.37,3.8-.5,1.07-.13,2.1-.23,3.1-.3,1-.07,2.23-.23,3.7-.5.4,0,.97.07,1.7.2.73.13,1.1.33,1.1.6.53.67.67.97.4.9-.27-.07-.07.03.6.3ZM648.16,421.48c-10.8,2.93-19.57,5.37-26.3,7.3-6.73,1.93-12.03,3.5-15.9,4.7-3.87,1.2-6.6,2.07-8.2,2.6-1.6.53-2.67.87-3.2,1-.4.67-.67.93-.8.8-4.4,1.2-8.7,2.93-12.9,5.2-4.2,2.27-7.7,3.87-10.5,4.8-1.07,4-2.23,7.63-3.5,10.9-1.27,3.27-2.63,6.43-4.1,9.5-.13,0-.23.07-.3.2-.07.13-.23.2-.5.2-.4,1.33-.93,2.23-1.6,2.7-.67.47-1.37.7-2.1.7s-1.57-.1-2.5-.3c-.93-.2-1.87-.3-2.8-.3-.4-.67-.63-1.47-.7-2.4-.07-.93-.03-1.87.1-2.8.13-1.07.37-2.6.7-4.6.33-2,.7-3.93,1.1-5.8.53-2.27,1-4.53,1.4-6.8-1.33.27-2.7.83-4.1,1.7-1.4.87-2.83,1.63-4.3,2.3-.67.27-1.4.46-2.2.6-.8.13-1.53.53-2.2,1.2-5.07,1.87-9.6,3.6-13.6,5.2-4,1.6-8.27,3.87-12.8,6.8-3.07,2.13-5.97,4-8.7,5.6-2.73,1.6-5.63,3.6-8.7,6,0,.27.03.43.1.5.07.07.03.23-.1.5-.53.8-1.1,1.4-1.7,1.8-.6.4-1.2.77-1.8,1.1-.6.33-1.17.73-1.7,1.2-.53.46-1.07,1.1-1.6,1.9.13.27.37.33.7.2.33-.13.57-.13.7,0-.67,1.2-1.43,2.4-2.3,3.6-.87,1.2-1.37,2.73-1.5,4.6,1.07.8,2.27,1.3,3.6,1.5,1.33.2,2.7.3,4.1.3s2.8-.07,4.2-.2c1.4-.13,2.7-.13,3.9,0,1.07-.27,1.97-.5,2.7-.7.73-.2,1.43-.23,2.1-.1.53-.13,1.03-.27,1.5-.4.47-.13.83-.2,1.1-.2,6-1.07,11.6-2.43,16.8-4.1,5.2-1.67,10.4-3.3,15.6-4.9.4-.4.87-.77,1.4-1.1.53-.33,1.13-.5,1.8-.5.53-.27,1.1-.57,1.7-.9.6-.33,1.3-.57,2.1-.7,6-2.67,11.87-5.4,17.6-8.2,5.73-2.8,11.4-5.8,17-9,.27.27.43.3.5.1.07-.2.23-.3.5-.3.27-.27.63-.53,1.1-.8.47-.27.9-.53,1.3-.8.93,0,1.77-.37,2.5-1.1.73-.73,1.43-1.17,2.1-1.3,1.6-.4,3.73-1.27,6.4-2.6,2.67-1.33,5.57-2.9,8.7-4.7,3.13-1.8,6.33-3.73,9.6-5.8,3.27-2.07,6.3-4.03,9.1-5.9,2.8-1.87,5.2-3.57,7.2-5.1s3.33-2.57,4-3.1c.93-.4,2.13-1.13,3.6-2.2,1.47-1.07,3.03-2.3,4.7-3.7,1.67-1.4,3.43-2.87,5.3-4.4,1.87-1.53,3.67-2.9,5.4-4.1-1.07.13-2.73.47-5,1-2.27.53-3.67.93-4.2,1.2-.27,0-.47.13-.6.4-.13.27-.47.27-1,0ZM601.16,428.08c6-1.73,11.8-3.43,17.4-5.1,5.6-1.67,11.2-3.23,16.8-4.7,5.6-1.46,11.3-2.83,17.1-4.1,5.8-1.27,11.83-2.43,18.1-3.5,1.2-1.2,2.63-2.8,4.3-4.8,1.67-2,3.37-4.07,5.1-6.2,1.73-2.13,3.37-4.2,4.9-6.2,1.53-2,2.83-3.6,3.9-4.8,1.2-1.73,2.4-3.73,3.6-6,1.2-2.27,2.3-4.6,3.3-7s1.87-4.83,2.6-7.3c.73-2.47,1.17-4.77,1.3-6.9.27-4.27-.73-8.47-3-12.6-2.27-4.13-5.33-6.93-9.2-8.4-7.73-2.93-15.1-4.83-22.1-5.7-7-.87-13.6-1.13-19.8-.8-6.2.33-11.97.97-17.3,1.9-5.33.93-10.27,1.67-14.8,2.2-1.2,2.4-2.1,4.23-2.7,5.5-.6,1.27-1.37,2.7-2.3,4.3-1.2,2.27-2.07,4.33-2.6,6.2-.67.67-1.07,1.33-1.2,2,0,.4-.27,1.27-.8,2.6l-1.5,3c-.47.93-.83,2-1.1,3.2-.67,1.2-1.23,2.33-1.7,3.4-.47,1.07-.9,2.13-1.3,3.2,0,.4-.03.87-.1,1.4-.07.53-.17,1.13-.3,1.8l-3.6,7.2c-1.07,2-1.97,4.17-2.7,6.5-.73,2.33-1.43,4.5-2.1,6.5-.67,2.27-1.57,4.5-2.7,6.7-1.13,2.2-2.1,4.43-2.9,6.7-.4,1.2-1.13,3.1-2.2,5.7-1.07,2.6-2.13,5.4-3.2,8.4-1.07,3-2.1,5.9-3.1,8.7-1,2.8-1.63,4.93-1.9,6.4,2-.53,4.17-1.23,6.5-2.1,2.33-.87,4.77-1.73,7.3-2.6,2.53-.87,5-1.73,7.4-2.6,2.4-.87,4.6-1.57,6.6-2.1Z"/>
      <path class="uuid-d376b297-6c7d-4e90-9755-91f547372e34" d="M749.16,430.48c-1.07.67-2.23,1.17-3.5,1.5-1.27.33-2.5.7-3.7,1.1-1.6.4-3.4.8-5.4,1.2-2,.4-4,.57-6,.5-2-.07-3.9-.46-5.7-1.2-1.8-.73-3.3-1.97-4.5-3.7-.93-1.2-1.47-2.67-1.6-4.4-.13-1.73,0-3.5.4-5.3.4-1.8.97-3.6,1.7-5.4.73-1.8,1.5-3.43,2.3-4.9.67-.53,1.2-1.2,1.6-2,.4-.8.67-1.47.8-2,2.8-3.33,5.7-6.53,8.7-9.6,3-3.07,6.1-5.46,9.3-7.2,1.47-.93,3-1.73,4.6-2.4,1.6-.67,3.07-1.33,4.4-2,.53-.27.97-.53,1.3-.8.33-.27.83-.4,1.5-.4,4.8,0,7.93.83,9.4,2.5,1.47,1.67,2.2,3.3,2.2,4.9-.13.53-.6,1.13-1.4,1.8-.8.67-1.4,1.33-1.8,2-.67.67-1.27,1.3-1.8,1.9-.53.6-.93,1.17-1.2,1.7-5.33,4.67-10.67,8.8-16,12.4-1.33,1.07-3.1,1.8-5.3,2.2-2.2.4-4.43.47-6.7.2-.8.8-1.6,1.83-2.4,3.1-.8,1.27-1.43,2.6-1.9,4-.47,1.4-.67,2.8-.6,4.2.07,1.4.63,2.57,1.7,3.5,2.67.27,5,0,7-.8,2-.8,3.93-1.47,5.8-2,1.47-.4,3-.87,4.6-1.4,1.6-.53,3-1.07,4.2-1.6,2.8-1.33,5.1-2.4,6.9-3.2,1.8-.8,3.5-1.53,5.1-2.2,1.6-.67,3.27-1.4,5-2.2,1.73-.8,3.93-1.93,6.6-3.4,2.13-1.07,4.3-2.17,6.5-3.3,2.2-1.13,4.3-2.23,6.3-3.3.4-.27.57-.43.5-.5-.07-.07-.17-.07-.3,0-.13.07-.2.13-.2.2s.27.03.8-.1c.13,0,.3-.07.5-.2.2-.13.37-.2.5-.2,1.2,0,2,.1,2.4.3.4.2.57.53.5,1-.07.47-.33,1-.8,1.6-.47.6-.97,1.3-1.5,2.1.13,0-.03.17-.5.5-.47.33-1,.67-1.6,1-.6.33-1.37.83-2.3,1.5-1.47,1.07-3.27,2.2-5.4,3.4-2.13,1.2-4.27,2.37-6.4,3.5-2.13,1.13-4.13,2.17-6,3.1-1.87.93-3.27,1.6-4.2,2l-14.4,6.8ZM734.76,409.88c1.2,0,2.37-.33,3.5-1,1.13-.67,2.23-1.33,3.3-2,2.67-2.13,5.4-4.5,8.2-7.1,2.8-2.6,5.33-5.23,7.6-7.9.27,0,.4-.2.4-.6-4.8,1.73-9.03,4.27-12.7,7.6-3.67,3.33-7.1,7-10.3,11Z"/>
      <path class="uuid-d376b297-6c7d-4e90-9755-91f547372e34" d="M833.56,408.08c.27,0,.6-.03,1-.1.4-.07.87-.23,1.4-.5h1.2l.6-.2h2c2.13,1.33,2.9,2.5,2.3,3.5s-1.63,1.63-3.1,1.9c-1.33.67-3.1,1.4-5.3,2.2-2.2.8-4.4,1.57-6.6,2.3-2.2.73-4.17,1.37-5.9,1.9-1.73.53-2.73.8-3,.8-.13,0-.23.03-.3.1-.07.07-.23.1-.5.1-.27.13-.47.2-.6.2-1.87,3.73-3.3,6.3-4.3,7.7-1,1.4-1.9,2.5-2.7,3.3l-1.2,1c-3.07,2.54-5.73,4.67-8,6.4-2.27,1.73-4.23,3.2-5.9,4.4-1.67,1.2-3.1,2.17-4.3,2.9-1.2.73-2.27,1.3-3.2,1.7v-.2c-2.67,1.47-5.03,2.47-7.1,3-2.07.53-3.63.8-4.7.8-2.67,0-4.5-.57-5.5-1.7-1-1.13-1.5-2.57-1.5-4.3,0-2.53,1.17-5.07,3.5-7.6,2.33-2.53,5.13-4.93,8.4-7.2,3.27-2.27,6.77-4.3,10.5-6.1,3.73-1.8,7-3.33,9.8-4.6,2.8-1.27,4.83-2.2,6.1-2.8,1.27-.6,1.1-.7-.5-.3l-.8-.2c-1.73,0-4.07.1-7,.3-2.93.2-5.73.63-8.4,1.3-1.33.27-2.6.5-3.8.7-1.2.2-2.73.17-4.6-.1h.2c-.13,0-.23-.03-.3-.1-.07-.07-.17-.1-.3-.1-.27,0-.63-.1-1.1-.3-.47-.2-.77-.37-.9-.5h.2c-1.07-.93-1.8-1.87-2.2-2.8-.4-.93-.6-1.8-.6-2.6s.17-1.5.5-2.1c.33-.6.63-1.1.9-1.5.67-1.07,1.6-2.13,2.8-3.2,1.2-1.07,2.67-2.53,4.4-4.4l.6-.6c1.6-1.07,3.27-2.27,5-3.6,1.73-1.33,3.53-2.57,5.4-3.7,1.87-1.13,3.77-2.13,5.7-3,1.93-.87,3.83-1.37,5.7-1.5l1.4-.4c.8,0,1.67.17,2.6.5.93.33,1.73.63,2.4.9.67,1.2.9,2.13.7,2.8-.2.67-.57,1.13-1.1,1.4l-2.2,1.2-.4.2c-.4.4-1,.73-1.8,1,.27-.27.03-.17-.7.3-.73.47-1.43.83-2.1,1.1-1.07,1.07-2.53,1.87-4.4,2.4-1.87.53-3.4,1.2-4.6,2l-2,1.2-3,2.4-1.8,1.4c-1.73,1.07-3.27,2.4-4.6,4,2.13-.27,4.07-.6,5.8-1,1.87-.27,3.97-.5,6.3-.7,2.33-.2,4.63-.23,6.9-.1,1.2.13,2.53.33,4,.6,1.47.27,2.73.73,3.8,1.4h-.2c1.47.8,2.23,1.27,2.3,1.4.07.13.17.2.3.2l.2.4c.13-.13.27-.2.4-.2s.3-.03.5-.1c.2-.07.37-.1.5-.1l1-.4,14.2-4.2c.4,0,.93-.07,1.6-.2ZM785.96,434.48c-.27.27-1.07,1-2.4,2.2-1.33,1.2-2.2,2.07-2.6,2.6-1.07.67-1.97,1.4-2.7,2.2-.73.8-1.23,1.4-1.5,1.8-.4.67-.2.97.6.9.8-.07,1.8-.33,3-.8,1.2-.47,2.43-1,3.7-1.6,1.27-.6,2.1-1.03,2.5-1.3h-.2l5-2.8c3.87-2.67,6.73-4.9,8.6-6.7,1.87-1.8,3.53-3.77,5-5.9l-2.4.8c-4,1.87-6.93,3.23-8.8,4.1-1.87.87-3.4,1.63-4.6,2.3l-2.6,2-.6.2Z"/>
      <path class="uuid-d376b297-6c7d-4e90-9755-91f547372e34" d="M843.95,424.48c.4.4,1.53.23,3.4-.5,1.87-.73,4.17-1.73,6.9-3,2.73-1.27,5.77-2.7,9.1-4.3,3.33-1.6,6.67-3,10-4.2.93-.27,2.03-.67,3.3-1.2,1.27-.53,2.23-1,2.9-1.4,1.07-.67,2.13-1.33,3.2-2,1.07-.67,2.33-1.13,3.8-1.4.53-.13.8-.37.8-.7s.07-.23.2.3c.27.13.47.17.6.1.13-.07.27-.03.4.1,0,.54-.33,1.27-1,2.2l-1.4,1.2c-1.07.93-2.2,1.83-3.4,2.7-1.2.87-2.53,1.63-4,2.3-1.2,1.07-2.63,2.07-4.3,3-1.67.93-3.3,1.8-4.9,2.6-1.47.54-3.57,1.73-6.3,3.6-2.73,1.87-5.6,3.8-8.6,5.8s-5.77,3.77-8.3,5.3c-2.53,1.53-4.27,2.1-5.2,1.7-.4.4-.67.57-.8.5-.13-.07-.4-.1-.8-.1-2.13,0-3.97-.23-5.5-.7-1.53-.47-2.83-1.43-3.9-2.9-.4-1.6-.4-3.2,0-4.8.4-1.6.93-3.4,1.6-5.4.4-1.07.83-2.07,1.3-3,.47-.93.83-1.93,1.1-3,.53-1.07,1.07-2.2,1.6-3.4.53-1.2,1-2.33,1.4-3.4,1.47-3.07,3-6.17,4.6-9.3,1.6-3.13,3.33-6.03,5.2-8.7,1.07-.67,2.07-1.07,3-1.2.53-.27,1.1-.23,1.7.1.6.33,1.1.37,1.5.1.4.53.83,1,1.3,1.4.47.4.77.93.9,1.6.13.93.23,1.67.3,2.2.07.53-.03,1.13-.3,1.8.13.93-.13,1.93-.8,3-.27.4-.47.83-.6,1.3-.13.47-.33.97-.6,1.5-.13.13-.23.17-.3.1-.07-.07-.17-.03-.3.1-.27.13-.4.33-.4.6s-.13.47-.4.6c-.93,1.87-1.93,3.8-3,5.8-1.07,2-2.07,3.9-3,5.7-.93,1.8-1.6,3.37-2,4.7-.4,1.33-.4,2.2,0,2.6ZM852.15,375.68c-.13-.4.2-1.13,1-2.2.8-1.07,1.73-2.07,2.8-3,1.07-.93,2.13-1.6,3.2-2,1.07-.4,1.93-.2,2.6.6.27,0,.5.07.7.2.2.13.37.2.5.2.93,1.07,1.23,2.37.9,3.9-.33,1.53-1.03,2.57-2.1,3.1.13.27.13.43,0,.5-.13.07-.2.23-.2.5-.4-.27-.57-.13-.5.4.07.53-.17.67-.7.4.13.4-.03.8-.5,1.2-.47.4-.7.8-.7,1.2-.27-.13-.4-.17-.4-.1s-.13.1-.4.1c-.27.67-.83,1.17-1.7,1.5-.87.33-1.5.77-1.9,1.3-.27,0-.5.07-.7.2-.2.13-.57.07-1.1-.2-.8-.27-1.33-.7-1.6-1.3-.27-.6-.37-1.3-.3-2.1.07-.8.23-1.6.5-2.4.27-.8.47-1.47.6-2Z"/>
      <path class="uuid-d376b297-6c7d-4e90-9755-91f547372e34" d="M844.55,528.68c-1.47-1.07-2.63-2.3-3.5-3.7-.87-1.4-1.1-2.17-.7-2.3-.27-6.93,1.4-14.2,5-21.8,3.6-7.6,8.27-15.1,14-22.5,5.73-7.4,12-14.47,18.8-21.2,6.8-6.73,13.27-12.83,19.4-18.3.93-.67,2.13-1.7,3.6-3.1,1.47-1.4,2.6-2.37,3.4-2.9,1.33-.67,2.23-1.17,2.7-1.5.47-.33.77-.57.9-.7.13,0,.43-.6.9-1.8.47-1.2.57-1.8.3-1.8.53-.93.93-1.63,1.2-2.1.27-.47.5-.9.7-1.3.2-.4.37-.83.5-1.3.13-.47.4-1.23.8-2.3.27-.67.5-1.33.7-2,.2-.67.17-1.4-.1-2.2-.27,0-.53.4-.8,1.2-.4,0-.6.07-.6.2-.27.27-.53.54-.8.8l-.8.8c-.67.27-1.13.6-1.4,1-1.2,1.2-2.43,2.23-3.7,3.1-1.27.87-2.43,1.83-3.5,2.9-.4.4-1.13.9-2.2,1.5-1.07.6-2.2,1.2-3.4,1.8-1.2.6-2.37,1.13-3.5,1.6-1.13.47-2.03.77-2.7.9-.27.13-1.03.2-2.3.2s-2.6-.07-4-.2c-1.4-.13-2.73-.27-4-.4-1.27-.13-2.03-.33-2.3-.6h.4c-.27-.13-.47-.33-.6-.6-.13-.27-.47-.4-1-.4-.53-.8-.87-1.73-1-2.8-.13-1.07-.13-2.2,0-3.4.13-1.2.33-2.33.6-3.4.27-1.07.53-2,.8-2.8.4-.67.77-1.37,1.1-2.1.33-.73.63-1.43.9-2.1.27,0,.4-.07.4-.2s.13-.2.4-.2c.4-1.07,1.43-2.63,3.1-4.7,1.67-2.07,3.57-4.2,5.7-6.4,2.13-2.2,4.17-4.27,6.1-6.2,1.93-1.93,3.3-3.3,4.1-4.1.13-.13.47-.4,1-.8.53-.4,1.13-.8,1.8-1.2.67-.4,1.27-.8,1.8-1.2.53-.4.93-.6,1.2-.6,1.47-.8,2.93-1.7,4.4-2.7,1.47-1,2.93-1.77,4.4-2.3.53-.27,1.07-.43,1.6-.5.53-.07.93-.1,1.2-.1,2.13.13,3.1.6,2.9,1.4-.2.8-.9,1.7-2.1,2.7-1.2,1-2.6,2.07-4.2,3.2-1.6,1.13-2.73,2.1-3.4,2.9-.93.67-1.8,1.33-2.6,2-.8.67-1.47,1.53-2,2.6-.67.67-1.4,1.27-2.2,1.8-.8.53-1.33,1.33-1.6,2.4-.8.67-1.57,1.4-2.3,2.2-.73.8-1.37,1.6-1.9,2.4-1.33.67-2.37,1.67-3.1,3-.73,1.33-1.63,2.47-2.7,3.4-1.07,1.6-2.1,3.27-3.1,5-1,1.73-1.83,3.67-2.5,5.8,0,.4-.1.8-.3,1.2s-.3.73-.3,1c.53.27.97.33,1.3.2.33-.13.63-.27.9-.4,1.07-.67,2.03-1.3,2.9-1.9.87-.6,1.9-1.23,3.1-1.9.67-.53,1.2-.93,1.6-1.2.4-.27.93-.53,1.6-.8,2.67-1.87,5.4-3.93,8.2-6.2,2.8-2.27,5.53-4.53,8.2-6.8.67-.4,1.37-1,2.1-1.8.73-.8,1.43-1.53,2.1-2.2.67-.53,1.4-1.03,2.2-1.5.8-.47,1.2-1.03,1.2-1.7.27-.67.37-1.07.3-1.2-.07-.13.23-.53.9-1.2.4-.4.83-.9,1.3-1.5.47-.6,1.23-.9,2.3-.9.4,0,.77.1,1.1.3.33.2.77.23,1.3.1.13.27.4.37.8.3.4-.07.73.03,1,.3,1.07,1.07,1.7,2,1.9,2.8.2.8.17,1.8-.1,3-.4,1.07-.7,2.23-.9,3.5-.2,1.27-.57,2.43-1.1,3.5-.27,2-.77,3.9-1.5,5.7-.73,1.8-1.3,3.63-1.7,5.5.8-1.33,2.2-2.67,4.2-4,2-1.33,4.1-2.6,6.3-3.8,2.2-1.2,4.3-2.27,6.3-3.2,2-.93,3.4-1.73,4.2-2.4h.6c.27-.27.57-.53.9-.8.33-.27.63-.4.9-.4.67-.53,1.4-1.03,2.2-1.5.8-.46,1.73-.77,2.8-.9,0-.13-.07-.2-.2-.2,2.67-1.47,5.33-2.87,8-4.2,2.67-1.33,5.53-2.4,8.6-3.2,0,.13-.07.2-.2.2s-.2.07-.2.2c-.13.13-.3.17-.5.1-.2-.07-.43-.03-.7.1.27.27.4.33.4.2s.13-.2.4-.2c0,.13-.03.2-.1.2-.07,0-.1.13-.1.4.53.13.83.1.9-.1.07-.2.23-.3.5-.3-.27.53-.63.83-1.1.9-.47.07-.9.37-1.3.9,0,.27.13.27.4,0-.27.53-.6.83-1,.9-.4.07-.73.23-1,.5.13.13.6.07,1.4-.2-1.33.8-2.7,1.43-4.1,1.9-1.4.47-2.63,1.23-3.7,2.3-.13.27,0,.4.4.4-.67.67-1.93,1.7-3.8,3.1-1.87,1.4-3.9,2.87-6.1,4.4-2.2,1.53-4.33,3-6.4,4.4-2.07,1.4-3.63,2.5-4.7,3.3-1.2.8-2.4,1.6-3.6,2.4-1.2.8-2.33,1.73-3.4,2.8-.8.27-1.5.6-2.1,1-.6.4-1.23.87-1.9,1.4l-1.6,1.2c-.93.67-1.77,1.23-2.5,1.7-.73.47-1.3,1.17-1.7,2.1-1.2.8-2.03,2-2.5,3.6-.47,1.6-1.03,3.13-1.7,4.6-3.6,8.13-7.3,16.73-11.1,25.8-3.8,9.07-8.17,17.77-13.1,26.1-4.93,8.33-10.63,15.83-17.1,22.5-6.47,6.67-14.03,11.73-22.7,15.2-1.6.53-3.23.9-4.9,1.1-1.67.2-3.3-.03-4.9-.7ZM900.95,446.68c-3.2,3.07-6.47,6.23-9.8,9.5-3.33,3.27-6.4,6.3-9.2,9.1-2.8,2.8-5.2,5.3-7.2,7.5-2,2.2-3.4,3.77-4.2,4.7-2.13,2.67-4.4,5.4-6.8,8.2s-4.7,5.77-6.9,8.9c-2.2,3.13-4.1,6.43-5.7,9.9-1.6,3.47-2.67,7.2-3.2,11.2.4.27.53.83.4,1.7-.13.87.13,1.63.8,2.3,4.4-.67,8.63-2.5,12.7-5.5,4.07-3,7.93-6.73,11.6-11.2,3.67-4.47,7.13-9.33,10.4-14.6,3.27-5.27,6.23-10.53,8.9-15.8,2.67-5.27,5.07-10.23,7.2-14.9,2.13-4.67,3.87-8.53,5.2-11.6-.27-.54-.23-.93.1-1.2.33-.27.43-.6.3-1-.67.67-1.53,1.13-2.6,1.4-1.07.27-1.73.73-2,1.4Z"/>
      <path class="uuid-d376b297-6c7d-4e90-9755-91f547372e34" d="M967.15,414.28c.93-.13,1.73-.57,2.4-1.3.67-.73,1.4-1.37,2.2-1.9,3.47-3.07,6.8-6.13,10-9.2,3.2-3.07,6.93-5.87,11.2-8.4,1.46-.93,3.13-1.93,5-3,1.87-1.07,3.73-1.67,5.6-1.8,1.33,0,2.77.5,4.3,1.5,1.53,1,2.37,2.1,2.5,3.3.13,1.47-.03,3-.5,4.6-.47,1.6-.9,3.13-1.3,4.6-.13,1.07-.43,2.8-.9,5.2-.47,2.4-.93,4.93-1.4,7.6-.47,2.67-.83,5.2-1.1,7.6-.27,2.4-.33,4.13-.2,5.2,1.2-.53,2.27-1,3.2-1.4.93-.4,2.07-.93,3.4-1.6,1.47-.67,2.37-1.07,2.7-1.2.33-.13.57-.23.7-.3.13-.07.33-.2.6-.4.27-.2,1.13-.7,2.6-1.5.93-.8,1.87-1.57,2.8-2.3.93-.73,1.87-1.3,2.8-1.7.53-.27,1.27-.4,2.2-.4,1.07-.67,2.1-1.27,3.1-1.8,1-.53,1.83-1.13,2.5-1.8,1.2.53,1.8,1.03,1.8,1.5s-.13,1.03-.4,1.7c-.93,1.2-2.27,2.27-4,3.2-.8.93-1.47,1.67-2,2.2-.54.53-1.27,1-2.2,1.4-1.47,1.2-2.4,1.97-2.8,2.3-.4.33-.7.6-.9.8s-.53.43-1,.7c-.47.27-1.5.93-3.1,2-1.47.8-3.1,1.83-4.9,3.1-1.8,1.27-3.5,2.17-5.1,2.7-1.33.27-2.57.47-3.7.6-1.13.13-2.17.2-3.1.2-1.47.27-2.77-.5-3.9-2.3-1.13-1.8-1.7-3.43-1.7-4.9,0-.67.2-2.03.6-4.1.4-2.07.83-4.27,1.3-6.6.46-2.33.93-4.57,1.4-6.7.47-2.13.77-3.6.9-4.4.13-1.87.4-3.53.8-5,.4-1.46.73-2.93,1-4.4-1.07.27-2,.73-2.8,1.4-.8.67-1.6,1.33-2.4,2-2.4,1.87-4.73,3.73-7,5.6-2.27,1.87-4.53,3.93-6.8,6.2-1.33,1.2-2.8,2.4-4.4,3.6-1.6,1.2-3.13,2.53-4.6,4-4.53,4.8-8.2,8.8-11,12-2.8,3.2-4.87,4.93-6.2,5.2-1.07.27-2.3,0-3.7-.8-1.4-.8-2.23-1.73-2.5-2.8-.13-.53-.03-1.33.3-2.4.33-1.07.7-2.07,1.1-3,1.2-5.6,2.87-10.63,5-15.1,2.13-4.46,4.13-9.1,6-13.9.27-.67.67-1.4,1.2-2.2.53-.8.93-1.53,1.2-2.2.27-.93.46-1.83.6-2.7.13-.87.27-1.63.4-2.3.27-.27.57-.63.9-1.1.33-.47.7-.83,1.1-1.1,1.46-1.07,3.1-1.33,4.9-.8,1.8.53,2.83,1.47,3.1,2.8.67,1.6.67,3,0,4.2-.67,1.2-1.33,2.33-2,3.4-.27.8-.4,1.6-.4,2.4s-.13,1.54-.4,2.2c-.8,1.87-1.63,3.73-2.5,5.6-.87,1.87-1.7,3.93-2.5,6.2Z"/>
    </g>
  </g>
</svg>