<?xml version="1.0" encoding="UTF-8"?>
<svg id="uuid-1dea233d-9098-40f7-88d7-3200b7c71862" data-name="Layer 1" xmlns="http://www.w3.org/2000/svg" viewBox="0 0 1920 640">
  <defs>
    <style>
      .uuid-6a5ecf2c-7eea-4dbf-9aa3-a777646558d5 {
        fill: #fff;
        stroke-width: 0px;
      }
    </style>
  </defs>
  <path class="uuid-6a5ecf2c-7eea-4dbf-9aa3-a777646558d5" d="M463,408.68c5.31-13.37,9.95-31.49,13.11-51.3,8.42-49.45,17.12-100,25.85-150.24h12.17c17.46,38.42,35.71,77.92,54.25,117.43l2.27,4.85,2.34-4.82c18.68-38.46,37.66-76.89,58.03-117.46h10.66c6.47,47.58,12.94,94.94,19.41,142.09,2.1,16.1,6.5,33.09,12.12,46.92-17.27.73-34.82,1.55-52.22,2.44,1.12-12.13-2.03-32.75-5.36-54.54l-.05-.31c-.95-6.17-1.9-12.39-2.75-18.47l-1.14-8.1-3.67,7.31c-13.56,27.01-26.93,53.98-39.76,80.18l-5.4.33c-13.33-26.1-26.54-52.27-39.29-77.8l-3.51-7.03-1.81,10.78c-4.82,28.72-8.99,53.57-8.63,74.34-15.39,1.07-31.06,2.21-46.63,3.4Z"/>
  <path class="uuid-6a5ecf2c-7eea-4dbf-9aa3-a777646558d5" d="M839.34,393.7c-8.08,0-14.64-.93-20.97-1.82-6.01-.85-11.67-1.65-18.24-1.65-1,0-1.99.02-2.98.06l-2.59-47.41c12.54,10.1,31.93,15.54,44.55,15.54h.94c10.45-.22,16.66-5.75,16.63-14.8-.04-14.51-12.31-23.34-25.3-32.68-14.87-10.69-31.73-22.81-33.14-45.82-.99-16.06,3.28-29.69,12.34-39.39,10.51-11.26,27.33-17.29,48.64-17.46h.44c5.17,0,10.08.74,14.83,1.45,4.83.73,9.39,1.41,14.24,1.41,2.38,0,4.63-.17,6.83-.51l2.31,43.38c-9.18-8.27-20.38-12.31-34.11-12.31-.59,0-1.19,0-1.8.02-5.6.15-10.08,1.87-12.95,4.98-2.37,2.57-3.51,5.94-3.3,9.74.49,8.86,9.29,14.78,20.45,22.27,17.01,11.43,38.17,25.65,39.91,56.84.82,14.86-3.64,28.02-12.91,38.05-11.48,12.43-29.68,19.55-51.24,20.06-.87.02-1.73.03-2.56.03Z"/>
  <path class="uuid-6a5ecf2c-7eea-4dbf-9aa3-a777646558d5" d="M1033.18,391.42c-17.2-.27-34.45-.48-51.31-.61,1.88-11.45,2.79-26.49,2.79-45.92v-58.77c-.01-12.37-.31-25.38-.8-34.8l-.13-2.42-8.65-.02c-12.98,0-27.92,1.5-37.81,2.49-2.21.22-4.18.42-5.84.57v-42.41c1.49.13,3.38.3,5.58.5,15.77,1.42,48.07,4.32,69.01,4.32,0,0,1.67,0,2.47-.01,20.22-.24,53.91-3.03,70.1-4.38l4.99-.41.02,42.88c-1.59-.16-3.47-.36-5.57-.58-10.15-1.08-25.49-2.72-38.86-2.77l-8.44-.03-.07,2.5c-.26,10.24-.25,23.88-.25,34.85l.02,58.96c0,14.09.49,33.3,2.74,46.08Z"/>
  <path class="uuid-6a5ecf2c-7eea-4dbf-9aa3-a777646558d5" d="M1258.8,399.19c-17.18-.91-34.16-1.73-50.51-2.46,2.2-13.79,2.52-35.51,2.51-47.45l-.06-91.34c-.02-19.14-.79-32.98-2.68-47.33,17.45.65,34.9,1.31,52.35,1.98h1.04c14.18,0,40.8-.55,53.36-2.6l.02,42.44c-10.98-1.94-25.94-3.12-42.34-3.33l-15.98-.2-.28,2.46.02,41.51,11.53.27c3.11.07,6.1.11,8.97.11,11.81,0,22.11-.62,30.62-1.85l.02,42.14c-9.69-2.47-22.83-3.38-39.43-3.96l-11.68-.4v21.94c.02,16.15.24,34.42,2.52,48.07Z"/>
  <path class="uuid-6a5ecf2c-7eea-4dbf-9aa3-a777646558d5" d="M1405.72,408.72c-17.68-1.36-35.62-2.66-53.35-3.87,4.13-13.63,4.12-24.36,4.11-49.19l-.04-95.47c0-17.98-2.23-38.49-4.41-49.56l54.02.07c-1.92,9.83-4.38,31.68-4.38,50.5v96.91c.01,23.03.67,38.16,4.05,50.61Z"/>
  <path class="uuid-6a5ecf2c-7eea-4dbf-9aa3-a777646558d5" d="M1169.78,395.13c-17.68-.68-35.61-1.29-53.33-1.81,4.04-12.88,4.04-22.99,4.02-46.27l-.06-90.03c-.01-16.82-2.22-36.09-4.39-46.58l53.94.03c-1.84,8.98-4.32,28.86-4.31,47.03l.07,90.57c.01,21.45.68,35.54,4.04,47.08Z"/>
  <path class="uuid-6a5ecf2c-7eea-4dbf-9aa3-a777646558d5" d="M704.91,394.89c4.02-13.18,4.02-23.34,4.04-46.7l.06-90.76c.01-16.91-2.17-36.36-4.34-46.96l53.94-.03c-1.85,8.89-4.35,28.56-4.36,46.53l-.06,89.67c-.01,21.33.64,35.28,4.02,46.49-17.84.51-35.76,1.1-53.32,1.76Z"/>
  <g>
    <path class="uuid-6a5ecf2c-7eea-4dbf-9aa3-a777646558d5" d="M1438.08,210.64v2.42h-5.89v14.38h-2.42v-14.38h-5.89v-2.42h14.2Z"/>
    <path class="uuid-6a5ecf2c-7eea-4dbf-9aa3-a777646558d5" d="M1443.16,215.68h-.04v11.76h-2.42v-16.8h2.42l5.73,10.44,5.73-10.44h2.42v16.8h-2.42v-11.76h-.04l-5.69,10.32-5.69-10.32Z"/>
  </g>
  <g>
    <path class="uuid-6a5ecf2c-7eea-4dbf-9aa3-a777646558d5" d="M565.1,442.31c.09,1.43.17,2.85.26,4.28-2.63.16-5.26.32-7.89.48.35,5.68.69,11.35,1.04,17.03-1.43.09-2.86.18-4.28.26-.35-5.68-.7-11.35-1.05-17.03-2.63.16-5.26.33-7.88.49-.09-1.43-.18-2.85-.27-4.28,6.69-.42,13.39-.83,20.08-1.23Z"/>
    <path class="uuid-6a5ecf2c-7eea-4dbf-9aa3-a777646558d5" d="M578.4,441.53c.15,2.69.31,5.38.46,8.06,3.82-.22,7.65-.44,11.47-.65-.15-2.69-.3-5.38-.45-8.07,1.43-.08,2.87-.16,4.3-.24.39,7.11.78,14.21,1.17,21.32-1.43.08-2.86.16-4.29.24-.17-2.99-.33-5.98-.5-8.97-3.82.21-7.64.43-11.46.65.17,2.99.35,5.98.52,8.97-1.43.08-2.86.16-4.28.25-.41-7.1-.83-14.21-1.24-21.31,1.43-.08,2.87-.17,4.3-.25Z"/>
    <path class="uuid-6a5ecf2c-7eea-4dbf-9aa3-a777646558d5" d="M625.05,439.02c.07,1.43.14,2.85.22,4.28-4.9.25-9.81.5-14.71.76.07,1.29.14,2.58.2,3.87,2.59-.14,5.17-.27,7.76-.4.07,1.43.15,2.85.22,4.28-2.59.13-5.17.27-7.76.4.08,1.54.16,3.07.24,4.61,5.06-.27,10.12-.53,15.17-.78.07,1.43.14,2.85.22,4.28-6.48.33-12.97.66-19.45,1.01-.38-7.11-.76-14.21-1.14-21.32,6.34-.34,12.68-.67,19.02-.98Z"/>
    <path class="uuid-6a5ecf2c-7eea-4dbf-9aa3-a777646558d5" d="M649.38,437.84c1.84,5.14,3.68,10.28,5.51,15.43.03,0,.05,0,.08,0,1.21-5.28,2.42-10.56,3.63-15.84,1.85-.08,3.69-.17,5.54-.25,1.64,5.15,3.27,10.31,4.9,15.47.03,0,.05,0,.08,0,1.41-5.29,2.82-10.57,4.24-15.86,1.49-.06,2.98-.13,4.47-.19-1.92,7.2-3.84,14.41-5.74,21.61-1.91.08-3.82.16-5.73.25-1.59-5.16-3.18-10.31-4.78-15.47h-.08c-1.13,5.28-2.26,10.56-3.38,15.84-1.88.09-3.77.17-5.65.26-2.51-7.01-5.03-14.02-7.56-21.02,1.49-.07,2.98-.14,4.47-.21Z"/>
    <path class="uuid-6a5ecf2c-7eea-4dbf-9aa3-a777646558d5" d="M683.09,447.05c-.25-5.97,4.24-11.52,12.69-11.85,8.48-.33,13.35,4.82,13.57,10.83.22,5.97-4.33,11.5-12.69,11.83-8.37.33-13.33-4.83-13.57-10.8ZM705.05,446.19c-.14-3.71-3.77-6.91-9.11-6.71-5.34.21-8.71,3.73-8.56,7.4.15,3.71,3.79,6.9,9.11,6.69,5.32-.21,8.7-3.68,8.56-7.38Z"/>
    <path class="uuid-6a5ecf2c-7eea-4dbf-9aa3-a777646558d5" d="M719.32,434.99c1.43-.05,2.87-.1,4.3-.15,4.08,4.67,8.16,9.34,12.22,14.02.03,0,.05,0,.08,0-.16-4.81-.31-9.61-.47-14.42,1.43-.05,2.87-.09,4.3-.14.23,7.11.46,14.23.68,21.34-1.43.05-2.86.09-4.29.14-4.06-4.68-8.13-9.35-12.21-14.02-.03,0-.05,0-.08,0,.17,4.81.33,9.61.5,14.42-1.43.05-2.86.1-4.29.15-.25-7.11-.5-14.23-.75-21.34Z"/>
    <path class="uuid-6a5ecf2c-7eea-4dbf-9aa3-a777646558d5" d="M762.99,433.59c4.92-.14,10.91,2.09,11.12,10.04.19,7.05-4.12,11.12-10.51,11.3-3.86.11-7.72.22-11.58.34-.22-7.11-.43-14.23-.65-21.34,3.88-.12,7.75-.23,11.62-.34ZM756.17,450.86c2.44-.07,4.87-.14,7.31-.21,3.75-.11,6.46-2.32,6.34-6.65-.14-5.03-3.36-6.22-6.7-6.12-2.44.07-4.88.14-7.32.21.13,4.26.25,8.51.38,12.77Z"/>
    <path class="uuid-6a5ecf2c-7eea-4dbf-9aa3-a777646558d5" d="M797.32,432.74c3.98-.09,7.77,1.31,7.88,6.13.09,4.08-2.64,5.62-4.65,6.41,1.87,2.87,3.74,5.74,5.6,8.62-1.8.04-3.6.08-5.41.12-1.87-2.86-3.73-5.71-5.6-8.57-2.29.05-4.57.11-6.86.17.07,2.9.14,5.8.21,8.7-1.43.04-2.86.07-4.29.11-.18-7.11-.36-14.23-.54-21.34,4.55-.12,9.1-.23,13.66-.33ZM788.07,437.25c.03,1.36.07,2.72.1,4.08,3.11-.08,6.23-.15,9.34-.22,1.28-.03,3.43-.25,3.38-2.14-.04-1.98-1.99-1.98-3.48-1.94-3.12.07-6.23.15-9.35.22Z"/>
    <path class="uuid-6a5ecf2c-7eea-4dbf-9aa3-a777646558d5" d="M813.23,443.08c-.13-5.97,4.47-11.44,12.93-11.59,8.49-.16,13.25,5.09,13.35,11.1.1,5.98-4.56,11.41-12.92,11.57-8.37.16-13.22-5.1-13.35-11.07ZM835.21,442.66c-.06-3.71-3.63-6.99-8.97-6.89-5.34.1-8.78,3.55-8.71,7.22.07,3.71,3.65,6.98,8.97,6.88,5.32-.1,8.77-3.5,8.7-7.21Z"/>
    <path class="uuid-6a5ecf2c-7eea-4dbf-9aa3-a777646558d5" d="M852.06,431.69c.06,4.33.12,8.65.19,12.98.04,2.56.73,4.73,6.09,4.66,5.7-.08,6-2.51,5.97-4.82-.05-4.33-.11-8.66-.16-12.98,1.43-.02,2.87-.04,4.3-.05.05,4.33.1,8.66.15,12.98.05,4.5-2.04,9.05-10.24,9.16-7.42.1-10.33-3.81-10.4-8.88-.07-4.33-.13-8.65-.2-12.98,1.43-.02,2.87-.04,4.3-.06Z"/>
    <path class="uuid-6a5ecf2c-7eea-4dbf-9aa3-a777646558d5" d="M879.22,445.83c3.74,2.35,7.29,3.19,11.05,3.15,2.14-.02,5.78-.58,5.76-2.97-.02-1.73-1.92-2.17-3.24-2.2-2.13-.05-4.27-.1-6.4-.15-5.25-.08-7.84-3.1-7.88-6.4-.03-3.17,2.29-6.58,9.99-6.65,5.63-.05,9.08,2.07,10.37,2.72-.64,1.27-1.28,2.54-1.92,3.8-1.7-.85-4.81-2.27-9.08-2.24-2.27.02-5.08.54-5.06,2.44.02,1.65,2.38,2.04,3.82,2.03,1.86.05,3.72.11,5.58.16,4.92.08,8.08,2.17,8.11,6.66.02,3.83-2.96,7.03-10.02,7.09-5.77.05-10.04-1.35-13.03-3.59.65-1.28,1.3-2.57,1.95-3.85Z"/>
    <path class="uuid-6a5ecf2c-7eea-4dbf-9aa3-a777646558d5" d="M937.19,431.04c4.18,0,7.74,1.81,7.74,6.76,0,4.78-3.31,6.88-7.72,6.89-2.85,0-5.7,0-8.55.01,0,2.57.01,5.14.02,7.71-1.43,0-2.86,0-4.29.01-.02-7.12-.04-14.23-.06-21.35,4.29-.01,8.58-.02,12.87-.03ZM928.64,440.41c2.85,0,5.7-.01,8.56-.01,1.65,0,3.43-.21,3.43-2.6,0-2.27-1.91-2.47-3.43-2.47-2.85,0-5.71,0-8.56.01,0,1.69,0,3.38.01,5.07Z"/>
    <path class="uuid-6a5ecf2c-7eea-4dbf-9aa3-a777646558d5" d="M951.35,441.72c0-5.98,4.73-11.33,13.17-11.31,8.49.03,13.14,5.38,13.1,11.39-.03,5.98-4.81,11.31-13.18,11.28-8.36-.03-13.1-5.39-13.1-11.37ZM973.33,441.78c.02-3.71-3.48-7.07-8.82-7.09-5.33-.02-8.85,3.36-8.86,7.03,0,3.71,3.49,7.05,8.81,7.07,5.33.02,8.85-3.3,8.87-7.01Z"/>
    <path class="uuid-6a5ecf2c-7eea-4dbf-9aa3-a777646558d5" d="M986.98,431.19c1.56,5.23,3.12,10.47,4.68,15.7.03,0,.05,0,.08,0,1.49-5.21,2.97-10.42,4.47-15.63,1.85.02,3.7.03,5.55.05,1.36,5.23,2.72,10.47,4.07,15.7.03,0,.05,0,.08,0,1.69-5.2,3.38-10.41,5.08-15.61,1.49.02,2.98.03,4.47.05-2.3,7.09-4.6,14.18-6.89,21.28-1.91-.02-3.82-.04-5.73-.06-1.31-5.23-2.63-10.47-3.95-15.7-.03,0-.05,0-.08,0-1.41,5.21-2.82,10.42-4.22,15.63-1.88-.02-3.77-.03-5.65-.04-2.13-7.13-4.27-14.26-6.42-21.4,1.49,0,2.98.02,4.47.03Z"/>
    <path class="uuid-6a5ecf2c-7eea-4dbf-9aa3-a777646558d5" d="M1040.72,431.79c-.02,1.43-.04,2.86-.07,4.29-4.91-.08-9.81-.15-14.72-.21-.02,1.29-.03,2.58-.05,3.87,2.59.03,5.18.07,7.77.11-.02,1.43-.04,2.86-.06,4.29-2.59-.04-5.17-.07-7.76-.11-.02,1.54-.04,3.08-.06,4.62,5.06.07,10.12.14,15.19.22-.02,1.43-.04,2.86-.07,4.29-6.49-.1-12.98-.19-19.47-.27.09-7.12.18-14.23.26-21.35,6.35.08,12.69.17,19.04.26Z"/>
    <path class="uuid-6a5ecf2c-7eea-4dbf-9aa3-a777646558d5" d="M1063.38,432.18c3.98.07,7.71,1.63,7.61,6.46-.08,4.08-2.88,5.51-4.92,6.21,1.75,2.95,3.49,5.9,5.23,8.84-1.8-.04-3.6-.07-5.41-.11-1.74-2.93-3.49-5.87-5.24-8.8-2.29-.04-4.57-.08-6.86-.12-.05,2.9-.1,5.8-.15,8.7-1.43-.03-2.86-.05-4.29-.07.12-7.12.24-14.23.36-21.35,4.55.08,9.1.16,13.66.24ZM1053.95,436.29c-.02,1.36-.05,2.72-.07,4.08,3.11.05,6.23.11,9.34.17,1.29.02,3.43-.1,3.47-1.99.04-1.98-1.9-2.06-3.39-2.09-3.12-.06-6.23-.12-9.35-.17Z"/>
    <path class="uuid-6a5ecf2c-7eea-4dbf-9aa3-a777646558d5" d="M1093.52,443.5c.14-5.97,4.98-11.22,13.42-11.01,8.49.22,13.01,5.67,12.84,11.69-.17,5.98-5.06,11.2-13.43,10.98-8.36-.21-12.98-5.68-12.84-11.66ZM1115.49,444.06c.1-3.71-3.32-7.14-8.66-7.28-5.33-.14-8.93,3.16-9.02,6.82-.09,3.71,3.33,7.13,8.65,7.27,5.33.14,8.92-3.1,9.02-6.81Z"/>
    <path class="uuid-6a5ecf2c-7eea-4dbf-9aa3-a777646558d5" d="M1134.11,455.27c-1.43-.04-2.86-.09-4.29-.13.21-7.11.42-14.23.63-21.34,6.34.19,12.69.38,19.03.59-.05,1.43-.09,2.86-.14,4.29-4.91-.16-9.81-.31-14.72-.46-.04,1.29-.08,2.58-.12,3.87,2.59.08,5.18.16,7.77.24-.05,1.43-.09,2.86-.14,4.29-2.59-.08-5.17-.16-7.76-.24-.09,2.97-.18,5.93-.27,8.9Z"/>
    <path class="uuid-6a5ecf2c-7eea-4dbf-9aa3-a777646558d5" d="M1173.32,435.22c1.43.05,2.87.1,4.3.16,3.74,4.95,7.47,9.9,11.19,14.86.03,0,.05,0,.08,0,.19-4.81.37-9.61.56-14.42,1.43.06,2.87.11,4.3.17-.28,7.11-.56,14.22-.84,21.33-1.43-.06-2.86-.11-4.29-.17-3.72-4.96-7.44-9.91-11.17-14.86-.03,0-.05,0-.08,0-.18,4.81-.36,9.61-.53,14.42-1.43-.05-2.86-.11-4.29-.16.26-7.11.52-14.23.78-21.34Z"/>
    <path class="uuid-6a5ecf2c-7eea-4dbf-9aa3-a777646558d5" d="M1211.19,436.71c1.9.08,3.8.16,5.7.24,3.2,7.26,6.38,14.53,9.55,21.79-1.62-.07-3.24-.14-4.86-.22-.65-1.53-1.3-3.05-1.95-4.58-4.17-.18-8.33-.36-12.5-.53-.78,1.47-1.55,2.93-2.33,4.4-1.62-.07-3.24-.13-4.86-.2,3.74-6.97,7.49-13.94,11.25-20.9ZM1209.42,449.21c2.75.12,5.5.23,8.25.35-1.25-2.86-2.51-5.72-3.77-8.58-1.5,2.74-2.99,5.48-4.49,8.23Z"/>
    <path class="uuid-6a5ecf2c-7eea-4dbf-9aa3-a777646558d5" d="M1250.91,438.51c-.07,1.43-.14,2.85-.21,4.28-2.63-.13-5.26-.25-7.89-.38-.27,5.68-.54,11.36-.81,17.04-1.43-.07-2.86-.14-4.29-.2.27-5.68.53-11.36.8-17.05-2.63-.12-5.26-.24-7.89-.36.07-1.43.13-2.86.19-4.28,6.7.3,13.4.62,20.09.94Z"/>
    <path class="uuid-6a5ecf2c-7eea-4dbf-9aa3-a777646558d5" d="M1263.92,439.16c-.22,4.32-.44,8.64-.66,12.97-.13,2.55.42,4.77,5.78,5.04,5.69.3,6.15-2.12,6.27-4.42.23-4.32.45-8.64.68-12.97,1.43.08,2.86.15,4.29.23-.23,4.32-.46,8.64-.69,12.96-.24,4.49-2.62,8.9-10.82,8.47-7.42-.38-10.06-4.48-9.81-9.54.22-4.32.43-8.64.65-12.97,1.43.07,2.87.14,4.3.22Z"/>
    <path class="uuid-6a5ecf2c-7eea-4dbf-9aa3-a777646558d5" d="M1305.21,441.38c3.97.23,7.64,1.93,7.36,6.74-.24,4.07-3.09,5.39-5.15,6.02,1.63,3.01,3.27,6.02,4.9,9.04-1.8-.11-3.6-.21-5.4-.31-1.63-3-3.26-6-4.9-8.99-2.28-.13-4.57-.26-6.85-.39-.16,2.89-.32,5.79-.48,8.68-1.43-.08-2.86-.16-4.29-.24.39-7.11.78-14.21,1.17-21.32,4.55.25,9.1.51,13.64.77ZM1295.63,445.14c-.08,1.36-.15,2.72-.23,4.07,3.11.17,6.22.35,9.33.53,1.28.07,3.43.03,3.54-1.86.11-1.98-1.83-2.13-3.31-2.21-3.11-.18-6.22-.35-9.34-.53Z"/>
    <path class="uuid-6a5ecf2c-7eea-4dbf-9aa3-a777646558d5" d="M1340.69,443.51c-.09,1.43-.18,2.85-.27,4.28-4.9-.31-9.8-.61-14.7-.91-.08,1.29-.16,2.58-.23,3.87,2.59.16,5.17.31,7.76.47-.09,1.43-.18,2.85-.26,4.28-2.58-.16-5.17-.32-7.75-.47-.09,1.54-.19,3.07-.28,4.61,5.05.31,10.11.62,15.17.94-.09,1.43-.18,2.85-.27,4.28-6.48-.41-12.96-.81-19.44-1.19.42-7.1.85-14.21,1.27-21.31,6.34.38,12.67.77,19.01,1.17Z"/>
  </g>
</svg>