<?xml version="1.0" encoding="UTF-8"?>
<svg id="uuid-adc7e99f-5a88-4003-985a-519db2f43512" data-name="Layer 1" xmlns="http://www.w3.org/2000/svg" viewBox="0 0 1920 417.33">
  <defs>
    <style>
      .uuid-c36a3837-fe90-4500-8c1d-3c31fe093674 {
        isolation: isolate;
      }

      .uuid-ecad2327-c723-4f6c-8d16-e566a6bb447a {
        fill: #fff;
        stroke-width: 0px;
      }
    </style>
  </defs>
  <g id="uuid-a3fa8d3c-dfce-4bec-8b39-b0f64d2b0be7" data-name="RETAIL DISPLAY " class="uuid-c36a3837-fe90-4500-8c1d-3c31fe093674">
    <g class="uuid-c36a3837-fe90-4500-8c1d-3c31fe093674">
      <path class="uuid-ecad2327-c723-4f6c-8d16-e566a6bb447a" d="M1427.38,224.87l.98,16.1c.47,5.6,1.68,9.85,3.64,12.74h-12.18c-2.05-2.99-3.13-7.42-3.22-13.3l-.42-10.64c-.28-6.72-1.77-11.5-4.48-14.35-2.71-2.85-7.14-4.27-13.3-4.27h-32.48v42.56h-11.76v-99.68h42.14c10.27,0,18.46,2.38,24.57,7.14,6.11,4.76,9.17,11.43,9.17,20.02,0,6.07-1.47,11.18-4.41,15.33-2.94,4.15-6.93,7.07-11.97,8.75,8.4,2.61,12.97,9.15,13.72,19.6ZM1365.92,200.51h31.78c6.25,0,11.18-1.61,14.77-4.83,3.59-3.22,5.39-7.82,5.39-13.79s-1.89-9.99-5.67-12.88c-3.78-2.89-9.08-4.34-15.89-4.34h-30.38v35.84Z"/>
      <path class="uuid-ecad2327-c723-4f6c-8d16-e566a6bb447a" d="M1513.9,154.03v10.64h-57.54v31.78h51.94v10.64h-51.94v35.98h56.98v10.64h-68.74v-99.68h69.3Z"/>
      <path class="uuid-ecad2327-c723-4f6c-8d16-e566a6bb447a" d="M1519.5,154.03h79.94v10.64h-33.88v89.04h-12.18v-89.04h-33.88v-10.64Z"/>
      <path class="uuid-ecad2327-c723-4f6c-8d16-e566a6bb447a" d="M1677.28,253.71h-12.46l-11.62-28.98h-45.36l-11.48,28.98h-12.32l39.76-99.68h13.16l40.32,99.68ZM1612.46,212.97l-.42,1.12h36.96l-.56-1.26c-2.33-5.69-8.4-21.05-18.2-46.06-6.63,17.73-12.55,33.13-17.78,46.2Z"/>
      <path class="uuid-ecad2327-c723-4f6c-8d16-e566a6bb447a" d="M1697.44,253.71h-11.76v-99.68h11.76v99.68Z"/>
      <path class="uuid-ecad2327-c723-4f6c-8d16-e566a6bb447a" d="M1727.4,154.03v89.04h50.12v10.64h-61.88v-99.68h11.76Z"/>
    </g>
    <g class="uuid-c36a3837-fe90-4500-8c1d-3c31fe093674">
      <path class="uuid-ecad2327-c723-4f6c-8d16-e566a6bb447a" d="M1354.16,264.03h33.6c15.12,0,27.07,4.39,35.84,13.16,8.68,8.77,13.02,21,13.02,36.68s-4.34,27.67-13.02,36.54c-8.87,8.87-20.81,13.3-35.84,13.3h-33.6v-99.68ZM1365.92,353.07h21.84c11.76,0,20.79-3.45,27.09-10.36,6.3-6.91,9.45-16.52,9.45-28.84s-3.15-21.93-9.45-28.84c-6.3-6.91-15.33-10.36-27.09-10.36h-21.84v78.4Z"/>
      <path class="uuid-ecad2327-c723-4f6c-8d16-e566a6bb447a" d="M1462.38,363.71h-11.76v-99.68h11.76v99.68Z"/>
      <path class="uuid-ecad2327-c723-4f6c-8d16-e566a6bb447a" d="M1517.12,365.95c-12.97,0-23.1-2.94-30.38-8.82s-10.97-14.65-11.06-26.32h12.18c.28,16.33,10.03,24.5,29.26,24.5,8.12,0,14.35-1.59,18.69-4.76,4.34-3.17,6.51-7.79,6.51-13.86,0-4.76-1.8-8.47-5.39-11.13-3.59-2.66-9.87-4.97-18.83-6.93l-8.82-1.96c-10.08-2.33-17.64-5.72-22.68-10.15-5.04-4.43-7.56-10.66-7.56-18.69s3.08-14.26,9.24-18.97c6.16-4.71,14.42-7.07,24.78-7.07,7,0,13.09.84,18.27,2.52,5.18,1.68,9.21,4.04,12.11,7.07,2.89,3.03,5.02,6.32,6.37,9.87,1.35,3.55,2.08,7.47,2.17,11.76h-12.04c-.56-7.09-2.87-12.3-6.93-15.61-4.06-3.31-10.71-4.97-19.95-4.97-7,0-12.39,1.35-16.17,4.06-3.78,2.71-5.67,6.49-5.67,11.34s1.63,8.63,4.9,11.34c3.17,2.71,9.33,5.09,18.48,7.14l8.82,1.96c11.01,2.43,18.95,5.9,23.8,10.43,4.85,4.53,7.28,10.52,7.28,17.99,0,9.05-3.31,16.19-9.94,21.42-6.63,5.23-15.77,7.84-27.44,7.84Z"/>
      <path class="uuid-ecad2327-c723-4f6c-8d16-e566a6bb447a" d="M1567.1,264.03h41.44c10.55,0,18.69,2.75,24.43,8.26,5.74,5.51,8.61,12.97,8.61,22.4s-2.87,16.89-8.61,22.4c-5.74,5.51-13.88,8.26-24.43,8.26h-29.68v38.36h-11.76v-99.68ZM1578.86,314.71h29.68c6.91,0,12.11-1.7,15.61-5.11,3.5-3.41,5.25-8.38,5.25-14.91s-1.75-11.5-5.25-14.91c-3.5-3.41-8.7-5.11-15.61-5.11h-29.68v40.04Z"/>
      <path class="uuid-ecad2327-c723-4f6c-8d16-e566a6bb447a" d="M1666.5,264.03v89.04h50.12v10.64h-61.88v-99.68h11.76Z"/>
      <path class="uuid-ecad2327-c723-4f6c-8d16-e566a6bb447a" d="M1813.36,363.71h-12.46l-11.62-28.98h-45.36l-11.48,28.98h-12.32l39.76-99.68h13.16l40.32,99.68ZM1748.54,322.97l-.42,1.12h36.96l-.56-1.26c-2.33-5.69-8.4-21.05-18.2-46.06-6.63,17.73-12.55,33.13-17.78,46.2Z"/>
      <path class="uuid-ecad2327-c723-4f6c-8d16-e566a6bb447a" d="M1856.62,287.27l14.56-23.24h13.3l-38.08,59.64v40.04h-11.76v-40.04l-38.08-59.64h13.44l14.7,23.38c6.35,9.89,11.67,18.48,15.96,25.76,5.97-10.08,11.29-18.71,15.96-25.9Z"/>
    </g>
  </g>
</svg>