<?xml version="1.0" encoding="UTF-8"?>
<svg id="uuid-708b3da0-8cb6-471b-91eb-69faf6d58044" data-name="Layer 1" xmlns="http://www.w3.org/2000/svg" viewBox="0 0 1920 417.33">
  <defs>
    <style>
      .uuid-58341bc4-8f61-4189-a342-8eabca6171b5 {
        isolation: isolate;
      }

      .uuid-56f58631-b60d-46bd-8821-9676770e91b5 {
        fill: #fff;
        stroke-width: 0px;
      }
    </style>
  </defs>
  <g id="uuid-fe7ee3d9-bbd5-4f38-973b-78c2d46be0e0" data-name="TRADE SHOW " class="uuid-58341bc4-8f61-4189-a342-8eabca6171b5">
    <g class="uuid-58341bc4-8f61-4189-a342-8eabca6171b5">
      <path class="uuid-56f58631-b60d-46bd-8821-9676770e91b5" d="M1453.97,154.23h79.94v10.64h-33.88v89.04h-12.18v-89.04h-33.88v-10.64Z"/>
      <path class="uuid-56f58631-b60d-46bd-8821-9676770e91b5" d="M1617.63,225.07l.98,16.1c.47,5.6,1.68,9.85,3.64,12.74h-12.18c-2.05-2.99-3.13-7.42-3.22-13.3l-.42-10.64c-.28-6.72-1.77-11.5-4.48-14.35-2.71-2.85-7.14-4.27-13.3-4.27h-32.48v42.56h-11.76v-99.68h42.14c10.27,0,18.46,2.38,24.57,7.14,6.11,4.76,9.17,11.43,9.17,20.02,0,6.07-1.47,11.18-4.41,15.33-2.94,4.15-6.93,7.07-11.97,8.75,8.4,2.61,12.97,9.15,13.72,19.6ZM1556.17,200.71h31.78c6.25,0,11.18-1.61,14.77-4.83,3.59-3.22,5.39-7.82,5.39-13.79s-1.89-9.99-5.67-12.88c-3.78-2.89-9.08-4.34-15.89-4.34h-30.38v35.84Z"/>
      <path class="uuid-56f58631-b60d-46bd-8821-9676770e91b5" d="M1717.59,253.91h-12.46l-11.62-28.98h-45.36l-11.48,28.98h-12.32l39.76-99.68h13.16l40.32,99.68ZM1652.77,213.17l-.42,1.12h36.96l-.56-1.26c-2.33-5.69-8.4-21.05-18.2-46.06-6.63,17.73-12.55,33.13-17.78,46.2Z"/>
      <path class="uuid-56f58631-b60d-46bd-8821-9676770e91b5" d="M1725.99,154.23h33.6c15.12,0,27.07,4.39,35.84,13.16,8.68,8.77,13.02,21,13.02,36.68s-4.34,27.67-13.02,36.54c-8.87,8.87-20.81,13.3-35.84,13.3h-33.6v-99.68ZM1737.75,243.27h21.84c11.76,0,20.79-3.45,27.09-10.36,6.3-6.91,9.45-16.52,9.45-28.84s-3.15-21.93-9.45-28.84c-6.3-6.91-15.33-10.36-27.09-10.36h-21.84v78.4Z"/>
      <path class="uuid-56f58631-b60d-46bd-8821-9676770e91b5" d="M1891.75,154.23v10.64h-57.54v31.78h51.94v10.64h-51.94v35.98h56.98v10.64h-68.74v-99.68h69.3Z"/>
    </g>
    <g class="uuid-58341bc4-8f61-4189-a342-8eabca6171b5">
      <path class="uuid-56f58631-b60d-46bd-8821-9676770e91b5" d="M1496.81,366.15c-12.97,0-23.1-2.94-30.38-8.82-7.28-5.88-10.97-14.65-11.06-26.32h12.18c.28,16.33,10.03,24.5,29.26,24.5,8.12,0,14.35-1.59,18.69-4.76,4.34-3.17,6.51-7.79,6.51-13.86,0-4.76-1.8-8.47-5.39-11.13-3.59-2.66-9.87-4.97-18.83-6.93l-8.82-1.96c-10.08-2.33-17.64-5.72-22.68-10.15-5.04-4.43-7.56-10.66-7.56-18.69s3.08-14.26,9.24-18.97c6.16-4.71,14.42-7.07,24.78-7.07,7,0,13.09.84,18.27,2.52,5.18,1.68,9.22,4.04,12.11,7.07,2.89,3.03,5.02,6.32,6.37,9.87,1.35,3.55,2.08,7.47,2.17,11.76h-12.04c-.56-7.09-2.87-12.3-6.93-15.61-4.06-3.31-10.71-4.97-19.95-4.97-7,0-12.39,1.35-16.17,4.06-3.78,2.71-5.67,6.49-5.67,11.34s1.63,8.63,4.9,11.34c3.17,2.71,9.33,5.09,18.48,7.14l8.82,1.96c11.01,2.43,18.95,5.9,23.8,10.43,4.85,4.53,7.28,10.52,7.28,17.99,0,9.05-3.31,16.19-9.94,21.42-6.63,5.23-15.77,7.84-27.44,7.84Z"/>
      <path class="uuid-56f58631-b60d-46bd-8821-9676770e91b5" d="M1614.13,307.07v-42.84h11.76v99.68h-11.76v-45.92h-55.58v45.92h-11.76v-99.68h11.76v42.84h55.58Z"/>
      <path class="uuid-56f58631-b60d-46bd-8821-9676770e91b5" d="M1722.35,351.73c-8.77,9.61-20.35,14.42-34.72,14.42s-25.9-4.81-34.58-14.42c-8.77-9.43-13.16-21.98-13.16-37.66s4.39-28.19,13.16-37.8c8.68-9.52,20.21-14.28,34.58-14.28s25.95,4.76,34.72,14.28c8.68,9.71,13.02,22.31,13.02,37.8s-4.34,28.14-13.02,37.66ZM1661.87,344.17c6.44,7.47,15.03,11.2,25.76,11.2s19.32-3.73,25.76-11.2c6.44-7.37,9.66-17.41,9.66-30.1s-3.22-22.73-9.66-30.1c-6.44-7.47-15.03-11.2-25.76-11.2s-19.32,3.73-25.76,11.2c-6.44,7.37-9.66,17.41-9.66,30.1s3.22,22.73,9.66,30.1Z"/>
      <path class="uuid-56f58631-b60d-46bd-8821-9676770e91b5" d="M1842.05,313.37l13.58-49.14h12.18l-28.28,99.68h-13.16l-14.28-50.82c-4.01-14.37-7.05-25.62-9.1-33.74-2.05,8.12-5.09,19.37-9.1,33.74l-14.28,50.82h-13.16l-28.28-99.68h12.18l13.58,49.14c4.29,15.21,7.42,27.11,9.38,35.7,3.27-12.51,6.44-24.5,9.52-35.98l13.58-48.86h13.16l13.58,48.86c3.17,11.48,6.35,23.47,9.52,35.98,1.96-8.59,5.09-20.49,9.38-35.7Z"/>
    </g>
  </g>
  <g id="uuid-2feacadf-2094-466a-8c5a-2ba9fe15a154" data-name=" 3D" class="uuid-58341bc4-8f61-4189-a342-8eabca6171b5">
    <g class="uuid-58341bc4-8f61-4189-a342-8eabca6171b5">
      <path class="uuid-56f58631-b60d-46bd-8821-9676770e91b5" d="M1185.5,250.68c23.8,12.4,35.7,30.3,35.7,53.7,0,19.4-6.8,35-20.4,46.8-13.4,12-31.1,18-53.1,18-23.8,0-42.25-6.2-55.35-18.6-13.1-12.4-19.55-29.3-19.35-50.7h24.9c.4,15.2,4.9,26.75,13.5,34.65,8.6,7.9,20.7,11.85,36.3,11.85,14.4,0,25.85-3.8,34.35-11.4,8.5-7.6,12.75-17.8,12.75-30.6s-4.35-23.35-13.05-31.05c-8.7-7.7-20.55-11.55-35.55-11.55h-15.9v-21h14.4c14.2,0,25.15-3.2,32.85-9.6,7.7-6.4,11.55-15.3,11.55-26.7s-3.85-19.95-11.55-26.25c-7.7-6.3-18.15-9.45-31.35-9.45s-24.05,3.45-31.95,10.35c-7.9,6.9-12.15,17.05-12.75,30.45h-25.2c.2-19.4,6.55-34.85,19.05-46.35,12.5-11.5,29.45-17.25,50.85-17.25s37.15,5.15,49.65,15.45c12.5,10.3,18.75,24.45,18.75,42.45,0,20.4-9.7,36-29.1,46.8Z"/>
      <path class="uuid-56f58631-b60d-46bd-8821-9676770e91b5" d="M1251.2,150.79h72c32.4,0,58,9.4,76.8,28.2,18.6,18.8,27.9,45,27.9,78.6s-9.3,59.3-27.9,78.3c-19,19-44.6,28.5-76.8,28.5h-72v-213.6ZM1276.4,341.59h46.8c25.2,0,44.55-7.4,58.05-22.2,13.5-14.8,20.25-35.4,20.25-61.8s-6.75-47-20.25-61.8c-13.5-14.8-32.85-22.2-58.05-22.2h-46.8v168Z"/>
    </g>
  </g>
</svg>