<?xml version="1.0" encoding="UTF-8"?>
<svg id="uuid-5896390d-b37e-4eb4-9b3f-b94e67d5e088" data-name="Layer 1" xmlns="http://www.w3.org/2000/svg" viewBox="0 0 1923 325.02">
  <defs>
    <style>
      .uuid-edbba3f6-aaf7-409c-af91-ddcdc2a1fcbf {
        fill: #fff;
        stroke-width: 0px;
      }

                  .st4{fill:#FFFFFF;}
	.st3{fill:#FFFFFF;}
    </style>
  </defs>
  <g>
    <polygon class="st4" points="558.57 212.42 540.69 212.42 595.89 119.89 613.77 119.89 558.57 212.42"/>
    <polygon class="st4" points="606.68 212.42 588.8 212.42 644 119.89 661.88 119.89 606.68 212.42"/>
    <polygon class="st4" points="654.78 212.42 636.91 212.42 692.11 119.89 709.99 119.89 654.78 212.42"/>
    <polygon class="st4" points="702.89 212.42 685.01 212.42 740.22 119.89 758.09 119.89 702.89 212.42"/>
    <polygon class="st4" points="751 212.42 733.12 212.42 788.32 119.89 806.2 119.89 751 212.42"/>
    <polygon class="st4" points="799.11 212.42 781.23 212.42 836.43 119.89 854.31 119.89 799.11 212.42"/>
  </g>
  <polygon class="uuid-edbba3f6-aaf7-409c-af91-ddcdc2a1fcbf" points="43 6.5 43 13 14.68 13 14.68 41.32 8.18 41.32 8.18 6.5 43 6.5"/>
  <polygon class="uuid-edbba3f6-aaf7-409c-af91-ddcdc2a1fcbf" points="1881.65 7.5 1881.65 14 1909.97 14 1909.97 42.32 1916.47 42.32 1916.47 7.5 1881.65 7.5"/>
  <polygon class="uuid-edbba3f6-aaf7-409c-af91-ddcdc2a1fcbf" points="42.33 319.44 42.33 312.95 14.01 312.95 14.01 284.62 7.51 284.62 7.51 319.44 42.33 319.44"/>
  <polygon class="uuid-edbba3f6-aaf7-409c-af91-ddcdc2a1fcbf" points="1881.65 318.44 1881.65 311.95 1909.97 311.95 1909.97 283.62 1916.47 283.62 1916.47 318.44 1881.65 318.44"/>
  <g>
    <rect class="uuid-edbba3f6-aaf7-409c-af91-ddcdc2a1fcbf" x="1680.87" y="73.09" width="2.15" height="50.44"/>
    <rect class="uuid-edbba3f6-aaf7-409c-af91-ddcdc2a1fcbf" x="1689.48" y="73.09" width="4.3" height="50.44"/>
    <rect class="uuid-edbba3f6-aaf7-409c-af91-ddcdc2a1fcbf" x="1700.23" y="73.09" width="2.15" height="50.44"/>
    <rect class="uuid-edbba3f6-aaf7-409c-af91-ddcdc2a1fcbf" x="1704.53" y="73.09" width="2.15" height="50.44"/>
    <rect class="uuid-edbba3f6-aaf7-409c-af91-ddcdc2a1fcbf" x="1715.28" y="73.09" width="2.15" height="50.44"/>
    <rect class="uuid-edbba3f6-aaf7-409c-af91-ddcdc2a1fcbf" x="1719.58" y="73.09" width="8.6" height="50.44"/>
    <rect class="uuid-edbba3f6-aaf7-409c-af91-ddcdc2a1fcbf" x="1730.34" y="73.09" width="2.15" height="50.44"/>
    <rect class="uuid-edbba3f6-aaf7-409c-af91-ddcdc2a1fcbf" x="1734.64" y="73.09" width="2.15" height="50.44"/>
    <rect class="uuid-edbba3f6-aaf7-409c-af91-ddcdc2a1fcbf" x="1743.24" y="73.09" width="4.3" height="50.44"/>
    <rect class="uuid-edbba3f6-aaf7-409c-af91-ddcdc2a1fcbf" x="1749.69" y="73.09" width="6.45" height="50.44"/>
    <rect class="uuid-edbba3f6-aaf7-409c-af91-ddcdc2a1fcbf" x="1760.44" y="73.09" width="2.15" height="50.44"/>
    <rect class="uuid-edbba3f6-aaf7-409c-af91-ddcdc2a1fcbf" x="1764.74" y="73.09" width="2.15" height="50.44"/>
    <rect class="uuid-edbba3f6-aaf7-409c-af91-ddcdc2a1fcbf" x="1775.5" y="73.09" width="2.15" height="50.44"/>
    <rect class="uuid-edbba3f6-aaf7-409c-af91-ddcdc2a1fcbf" x="1779.8" y="73.09" width="2.15" height="50.44"/>
    <rect class="uuid-edbba3f6-aaf7-409c-af91-ddcdc2a1fcbf" x="1784.1" y="73.09" width="2.15" height="50.44"/>
    <rect class="uuid-edbba3f6-aaf7-409c-af91-ddcdc2a1fcbf" x="1788.4" y="73.09" width="2.15" height="50.44"/>
    <rect class="uuid-edbba3f6-aaf7-409c-af91-ddcdc2a1fcbf" x="1792.7" y="73.09" width="6.45" height="50.44"/>
    <rect class="uuid-edbba3f6-aaf7-409c-af91-ddcdc2a1fcbf" x="1803.45" y="73.09" width="2.15" height="50.44"/>
    <rect class="uuid-edbba3f6-aaf7-409c-af91-ddcdc2a1fcbf" x="1809.91" y="73.09" width="6.45" height="50.44"/>
    <rect class="uuid-edbba3f6-aaf7-409c-af91-ddcdc2a1fcbf" x="1818.51" y="73.09" width="4.3" height="50.44"/>
    <rect class="uuid-edbba3f6-aaf7-409c-af91-ddcdc2a1fcbf" x="1824.96" y="73.09" width="4.3" height="50.44"/>
    <rect class="uuid-edbba3f6-aaf7-409c-af91-ddcdc2a1fcbf" x="1833.56" y="73.09" width="2.15" height="50.44"/>
    <rect class="uuid-edbba3f6-aaf7-409c-af91-ddcdc2a1fcbf" x="1840.01" y="73.09" width="6.45" height="50.44"/>
    <rect class="uuid-edbba3f6-aaf7-409c-af91-ddcdc2a1fcbf" x="1848.62" y="73.09" width="2.15" height="50.44"/>
    <rect class="uuid-edbba3f6-aaf7-409c-af91-ddcdc2a1fcbf" x="1859.37" y="73.09" width="2.15" height="50.44"/>
    <rect class="uuid-edbba3f6-aaf7-409c-af91-ddcdc2a1fcbf" x="1863.67" y="73.09" width="6.45" height="50.44"/>
    <rect class="uuid-edbba3f6-aaf7-409c-af91-ddcdc2a1fcbf" x="1874.42" y="73.09" width="2.15" height="50.44"/>
    <rect class="uuid-edbba3f6-aaf7-409c-af91-ddcdc2a1fcbf" x="1878.72" y="73.09" width="2.15" height="50.44"/>
    <rect class="uuid-edbba3f6-aaf7-409c-af91-ddcdc2a1fcbf" x="1883.03" y="73.09" width="2.15" height="50.44"/>
  </g>
  <g>
    <path class="st3" d="M31.97,101.46h13.83v16h.12l12.33-16h17.07l-16.3,18.09,18.94,28.31h-17.25l-11.1-18.06-3.81,4.35v13.71h-13.83v-46.4Z"/>
    <path class="st3" d="M91.67,133.9c.21,1.91.86,3.46,1.94,4.67,1.04,1.27,2.57,1.91,4.61,1.91,1.1,0,2.15-.22,3.15-.67,1-.38,1.75-.96,2.26-1.75h12.04c-1.36,3.64-3.59,6.33-6.69,8.06-3.08,1.73-6.57,2.6-10.49,2.6-5.44-.04-9.87-1.59-13.28-4.63-3.56-3.03-5.36-7.35-5.4-12.98.04-5.08,1.66-9.31,4.86-12.7,3.18-3.32,7.43-5.02,12.74-5.11,12.76.17,19.08,7.04,18.96,20.6h-24.69ZM104.43,127.23c-.04-1.62-.58-2.97-1.61-4.06-1.05-1.09-2.46-1.63-4.23-1.63-3.96.04-6.25,1.94-6.86,5.68h12.7Z"/>
    <path class="st3" d="M144.61,145.26c-.45,1.52-.99,3.13-1.63,4.82-.68,1.67-1.5,3.18-2.46,4.54-1.68,1.99-3.68,3.21-5.99,3.65-2.29.38-4.68.55-7.16.51h-5.65v-10.28h2.98c.7,0,1.41-.02,2.13-.06.7,0,1.29-.08,1.78-.25.38-.17.7-.47.95-.89.19-.4.29-.95.29-1.65,0-.51-.24-1.5-.73-2.98-.51-1.46-1.11-3.1-1.81-4.92-1.48-3.96-2.53-6.64-3.14-8.06l-5.61-15.55h13.34l5.22,19.35h.12l5.32-19.35h12.88l-10.82,31.13Z"/>
    <path class="st3" d="M178.59,123.96c-.08-1.14-.56-1.99-1.45-2.55-.88-.67-1.9-1-3.06-1-1.02,0-1.95.15-2.79.45-.93.36-1.39,1.08-1.39,2.17,0,.43.17.77.52,1.02.32.32.66.56,1.01.73.63.21,1.36.38,2.2.51.86.19,1.79.37,2.79.54,2.12.34,4.3.86,6.55,1.56,2.15.62,3.97,1.66,5.46,3.12.76.7,1.35,1.57,1.78,2.61.37,1.04.55,2.28.55,3.73,0,2.32-.49,4.22-1.47,5.7-.98,1.56-2.29,2.8-3.91,3.7-3.47,1.69-7.31,2.51-11.52,2.47-4.11,0-7.84-.91-11.18-2.72-3.32-1.81-5.14-4.86-5.45-9.15h12.26c.08,1.15.6,2.14,1.55,2.96.7.65,1.85.98,3.45.98.91,0,1.86-.2,2.85-.6.95-.38,1.45-1.05,1.49-2,.04-.95-.37-1.67-1.24-2.16-.95-.47-2.9-.94-5.84-1.43-4.85-.83-8.36-2.11-10.54-3.84-2.16-1.67-3.24-3.93-3.24-6.76,0-2.12.51-3.88,1.54-5.3.98-1.44,2.27-2.53,3.86-3.27,1.59-.83,3.3-1.39,5.14-1.68,1.76-.3,3.48-.44,5.17-.44,3.83-.06,7.4.6,10.73,2,1.59.74,2.87,1.83,3.86,3.25.98,1.4,1.53,3.2,1.63,5.41h-11.31Z"/>
    <path class="st3" d="M42.57,204.27c0,1.17.16,2.18.49,3.05.59,1.34,1.59,2.23,2.99,2.67,1.33.47,2.7.7,4.1.7,1.29.04,2.62-.23,4-.83,1.36-.61,2.06-1.75,2.1-3.4.04-1.16-.61-2.09-1.97-2.79-1.42-.66-4.1-1.5-8.06-2.54-1.86-.51-3.68-1.07-5.46-1.68-1.86-.61-3.54-1.4-5.04-2.35-1.52-.95-2.76-2.21-3.71-3.78-.99-1.46-1.49-3.34-1.49-5.65.08-5.37,1.97-9.29,5.66-11.74,3.52-2.39,7.68-3.59,12.48-3.59,5.02-.04,9.34,1.03,12.97,3.23,3.52,2.34,5.45,6.3,5.78,11.87h-13.11c.16-1.72-.38-2.95-1.63-3.69-1.23-.76-2.59-1.14-4.09-1.14-1.03,0-2.08.19-3.17.57-.49.21-.91.52-1.26.92-.37.42-.55.96-.55,1.62.08.78.52,1.43,1.32,1.94.76.57,1.74,1.07,2.95,1.49,2.56.78,5.49,1.59,8.77,2.41,1.75.44,3.42.98,5.01,1.62,1.57.61,3,1.44,4.29,2.48,1.31,1.04,2.35,2.3,3.11,3.78.7,1.57,1.05,3.41,1.05,5.52-.13,5.95-2.35,10.1-6.68,12.47-4.26,2.39-9.09,3.57-14.48,3.52-1.34,0-3.09-.2-5.27-.6-2.19-.38-4.42-1.13-6.68-2.25-2.24-1.14-4.13-2.84-5.67-5.08-1.57-2.16-2.41-5.08-2.54-8.76h13.8Z"/>
    <path class="st3" d="M108.99,203c0,4.8-1.46,8.91-4.39,12.34-2.91,3.51-7.51,5.31-13.81,5.39-6.21-.08-10.8-1.88-13.75-5.4-3.01-3.43-4.49-7.54-4.42-12.35-.06-4.87,1.41-8.99,4.42-12.38,2.95-3.45,7.53-5.22,13.75-5.3,6.3.08,10.9,1.85,13.81,5.31,2.93,3.39,4.39,7.52,4.39,12.39ZM96.56,203c0-.91-.04-1.88-.13-2.89-.13-1-.41-1.89-.83-2.67-.4-.85-.96-1.54-1.68-2.07-.81-.49-1.85-.73-3.1-.73s-2.18.24-2.91.73c-.81.53-1.42,1.22-1.82,2.07-.73,1.74-1.07,3.59-1.02,5.57,0,.87.09,1.78.26,2.74.13.95.39,1.87.76,2.74.4.87,1,1.56,1.82,2.07.73.57,1.7.86,2.91.86s2.29-.29,3.1-.86c.73-.51,1.29-1.2,1.68-2.07.68-1.78,1-3.6.96-5.47Z"/>
    <path class="st3" d="M150.35,219.86h-12.26v-4.28h-.13c-2.26,3.39-5.88,5.1-10.85,5.14-3.03,0-5.67-.95-7.9-2.86-2.3-1.93-3.47-4.79-3.51-8.6v-23.14h12.44v17.7c-.04,1.95.21,3.54.76,4.77.53,1.25,1.75,1.88,3.65,1.88,1.22.04,2.42-.39,3.61-1.3.53-.42.98-1.09,1.36-2,.26-.83.4-1.9.4-3.21v-17.83h12.44v33.74Z"/>
    <path class="st3" d="M158.07,173.46h12.44v46.4h-12.44v-46.4Z"/>
    <path class="st3" d="M199.36,198.95c-.14-1.4-.6-2.46-1.38-3.21-.76-.74-1.82-1.11-3.17-1.11-1.17,0-2.1.24-2.77.73-.76.47-1.33,1.09-1.7,1.88-.39.78-.65,1.68-.77,2.67-.17,1.04-.25,2.09-.25,3.15,0,1,.08,1.99.25,2.99.12,1,.38,1.89.77,2.67.37.78.93,1.41,1.69,1.88.68.53,1.6.8,2.77.8,1.4,0,2.53-.5,3.42-1.5.84-.95,1.32-2.11,1.45-3.47h11.91c-.64,4.59-2.5,8.1-5.6,10.52-3.12,2.47-6.92,3.73-11.41,3.77-5.04-.04-9.19-1.67-12.45-4.89-3.44-3.11-5.19-7.37-5.23-12.79.04-5.42,1.78-9.73,5.23-12.95,3.26-3.15,7.41-4.75,12.45-4.79,4.41,0,8.17,1.08,11.28,3.24,3.05,2.24,4.84,5.71,5.35,10.41h-11.84Z"/>
    <path class="st3" d="M250.55,212.35c0,1.26.08,2.56.25,3.89.17,1.31.59,2.52,1.27,3.63h-13.12c-.34-1.08-.49-2.14-.44-3.17h-.13c-1.39,1.5-3,2.54-4.82,3.11-1.9.61-3.91.92-6.02.92-3.23,0-5.91-.82-8.03-2.47-2.27-1.69-3.42-4.27-3.46-7.74,0-2.64.7-4.69,2.09-6.15,1.33-1.48,2.99-2.55,4.98-3.2,2.09-.7,4.2-1.17,6.32-1.43,2.12-.25,4-.49,5.65-.7.49-.15.94-.29,1.36-.41.4-.13.77-.27,1.11-.44.7-.42,1.05-1.14,1.05-2.16-.04-1.16-.48-1.98-1.3-2.44-.83-.44-1.8-.67-2.93-.67-1.93.04-3.21.41-3.85,1.1-.66.78-.99,1.55-.99,2.33h-12c.17-2.39.77-4.33,1.82-5.81,1.03-1.46,2.35-2.56,3.99-3.3,1.65-.78,3.5-1.32,5.53-1.62,1.97-.21,3.91-.32,5.84-.32,3.93,0,7.02.36,9.26,1.08,2.22.74,3.78,1.75,4.68,3.02.94,1.25,1.53,2.66,1.76,4.22.08,1.59.13,3.21.13,4.86v13.87ZM238.62,204.74c-1.69.74-3.46,1.28-5.32,1.62-3.04.38-4.56,1.6-4.56,3.66,0,.83.41,1.54,1.23,2.13.75.66,1.75.99,2.99.99,1.57,0,2.89-.46,3.96-1.37,1.04-.87,1.61-2.17,1.7-3.91v-3.12Z"/>
    <path class="st3" d="M257.69,186.13h11.95v5.4h.12c1-2.03,2.24-3.59,3.72-4.67,1.41-1.04,3.24-1.56,5.47-1.56,1.25,0,2.47.17,3.66.51v11.36c-.59-.25-1.25-.47-1.97-.63-.72-.13-1.7-.19-2.95-.19-5-.08-7.52,3.31-7.57,10.19v13.33h-12.44v-33.74Z"/>
    <path class="st3" d="M295.08,205.9c.21,1.91.86,3.46,1.94,4.67,1.04,1.27,2.57,1.91,4.61,1.91,1.1,0,2.15-.22,3.15-.67,1-.38,1.75-.96,2.26-1.75h12.04c-1.36,3.64-3.59,6.33-6.69,8.06-3.08,1.73-6.57,2.6-10.49,2.6-5.44-.04-9.87-1.59-13.28-4.63-3.56-3.03-5.36-7.35-5.4-12.98.04-5.08,1.66-9.31,4.86-12.7,3.18-3.32,7.43-5.02,12.74-5.11,12.76.17,19.08,7.04,18.96,20.6h-24.69ZM307.84,199.23c-.04-1.62-.58-2.97-1.61-4.06-1.05-1.09-2.46-1.63-4.23-1.63-3.96.04-6.25,1.94-6.86,5.68h12.7Z"/>
  </g>
  <g>
    <path class="uuid-edbba3f6-aaf7-409c-af91-ddcdc2a1fcbf" d="M1538.35,125.01h9.57l11.6,32.84h-10.16l-1.33-4.69h-10.12l-1.44,4.69h-9.84l11.71-32.84ZM1546.05,146.14l-2.85-10.15h-.09l-3.07,10.15h6Z"/>
    <path class="uuid-edbba3f6-aaf7-409c-af91-ddcdc2a1fcbf" d="M1562.62,133.97h8.46v3.82h.09c.71-1.44,1.59-2.54,2.63-3.3,1-.73,2.29-1.1,3.87-1.1.88,0,1.75.12,2.59.36v8.04c-.42-.18-.89-.33-1.39-.45-.51-.09-1.2-.13-2.09-.13-3.54-.06-5.33,2.34-5.35,7.21v9.43h-8.8v-23.88Z"/>
    <path class="uuid-edbba3f6-aaf7-409c-af91-ddcdc2a1fcbf" d="M1593.64,133.97h4.73v5.61h-4.73v8.35c-.03,1.1.15,1.89.54,2.39.38.53,1.11.79,2.18.79.68,0,1.35-.04,2.01-.13v6.87c-1.84.06-3.72.15-5.65.27-.96,0-1.88-.08-2.76-.22-.91-.18-1.76-.49-2.54-.92-.77-.49-1.38-1.21-1.82-2.15-.51-.95-.76-2.22-.76-3.8v-11.44h-3.94v-5.61h3.94v-7.25h8.8v7.25Z"/>
    <path class="uuid-edbba3f6-aaf7-409c-af91-ddcdc2a1fcbf" d="M1528.91,169.01h17.77c2.13,0,3.89.26,5.29.79,1.33.51,2.38,1.18,3.13,2.02.76.82,1.29,1.71,1.6,2.67.24.94.36,1.86.36,2.74,0,1.63-.35,2.93-1.06,3.91-.73,1.02-1.73,1.86-2.99,2.54,1.54.49,2.86,1.37,3.95,2.63,1.14,1.29,1.72,3.14,1.75,5.57-.06,3.28-1.23,5.74-3.51,7.39-2.24,1.72-4.86,2.58-7.87,2.58h-18.43v-32.84ZM1538.7,181.81h5.54c1.1,0,1.97-.2,2.61-.59.64-.41.95-1.12.95-2.14,0-.83-.32-1.43-.95-1.81-.64-.3-1.5-.45-2.61-.45h-5.54v4.99ZM1538.7,194.03h6.12c1.14,0,2.11-.22,2.9-.65.76-.42,1.16-1.24,1.21-2.47,0-1.96-1.22-2.96-3.66-2.99h-6.56v6.11Z"/>
    <path class="uuid-edbba3f6-aaf7-409c-af91-ddcdc2a1fcbf" d="M1586.52,196.52c0,.89.06,1.81.18,2.75.12.92.42,1.78.9,2.57h-9.28c-.24-.76-.34-1.51-.31-2.25h-.09c-.99,1.06-2.12,1.8-3.41,2.2-1.35.43-2.77.65-4.26.65-2.29,0-4.18-.58-5.68-1.75-1.61-1.2-2.42-3.02-2.45-5.47,0-1.87.49-3.32,1.48-4.35.94-1.05,2.12-1.8,3.53-2.27,1.48-.49,2.97-.83,4.47-1.01s2.83-.34,4-.49c.34-.1.67-.2.97-.29.28-.09.55-.2.79-.31.49-.3.74-.81.74-1.53-.03-.82-.34-1.4-.92-1.73-.59-.31-1.28-.47-2.07-.47-1.37.03-2.27.29-2.73.78-.46.55-.7,1.1-.7,1.65h-8.49c.12-1.69.55-3.06,1.29-4.11.73-1.03,1.67-1.81,2.82-2.33,1.17-.55,2.47-.94,3.91-1.15,1.39-.15,2.77-.22,4.13-.22,2.79,0,4.97.25,6.55.76,1.57.52,2.67,1.24,3.31,2.13.67.88,1.08,1.88,1.24,2.99.06,1.12.09,2.27.09,3.44v9.82ZM1578.08,191.14c-1.19.53-2.45.91-3.77,1.15-2.15.27-3.22,1.13-3.22,2.59,0,.59.29,1.09.87,1.51.53.46,1.24.7,2.12.7,1.11,0,2.05-.32,2.8-.97.74-.62,1.14-1.54,1.2-2.77v-2.21Z"/>
    <path class="uuid-edbba3f6-aaf7-409c-af91-ddcdc2a1fcbf" d="M1605.4,184.93c-.06-.81-.4-1.41-1.02-1.81-.63-.47-1.35-.71-2.17-.71-.72,0-1.38.11-1.97.32-.66.26-.99.77-.99,1.53,0,.3.12.54.37.72.23.23.47.4.71.52.44.15.96.27,1.56.36.61.14,1.27.26,1.97.38,1.5.24,3.04.61,4.63,1.11,1.52.44,2.81,1.17,3.86,2.21.54.5.96,1.11,1.26,1.85.26.74.39,1.62.39,2.64,0,1.64-.35,2.99-1.04,4.03-.69,1.11-1.62,1.98-2.77,2.62-2.45,1.19-5.17,1.78-8.15,1.75-2.91,0-5.55-.64-7.91-1.93-2.35-1.28-3.63-3.44-3.86-6.47h8.67c.06.82.43,1.52,1.1,2.09.49.46,1.31.69,2.44.69.64,0,1.31-.14,2.02-.43.67-.27,1.02-.74,1.05-1.42s-.26-1.18-.88-1.53c-.67-.33-2.05-.67-4.13-1.01-3.43-.58-5.92-1.49-7.46-2.72-1.53-1.18-2.29-2.78-2.29-4.78,0-1.5.36-2.75,1.09-3.75.7-1.02,1.61-1.79,2.73-2.31,1.12-.58,2.34-.98,3.64-1.19,1.24-.21,2.46-.31,3.66-.31,2.71-.04,5.24.43,7.59,1.42,1.12.53,2.03,1.29,2.73,2.3.7.99,1.08,2.27,1.15,3.83h-8.01Z"/>
    <path class="uuid-edbba3f6-aaf7-409c-af91-ddcdc2a1fcbf" d="M1624.84,191.96c.15,1.35.61,2.45,1.37,3.3.73.9,1.82,1.35,3.26,1.35.78,0,1.52-.16,2.23-.47.7-.27,1.24-.68,1.6-1.24h8.52c-.96,2.58-2.54,4.48-4.73,5.7-2.18,1.23-4.65,1.84-7.42,1.84-3.85-.03-6.99-1.12-9.4-3.28-2.52-2.14-3.79-5.2-3.82-9.19.03-3.59,1.18-6.59,3.44-8.98,2.25-2.35,5.26-3.56,9.02-3.62,9.03.12,13.5,4.98,13.42,14.58h-17.47ZM1633.87,187.24c-.03-1.14-.41-2.1-1.14-2.87-.74-.77-1.74-1.15-3-1.15-2.8.03-4.42,1.37-4.85,4.02h8.99Z"/>
    <path class="uuid-edbba3f6-aaf7-409c-af91-ddcdc2a1fcbf" d="M1647.12,169.01h8.8v32.84h-8.8v-32.84Z"/>
    <path class="uuid-edbba3f6-aaf7-409c-af91-ddcdc2a1fcbf" d="M1529.5,213.01h13.95l4.55,19.32h.09l4.55-19.32h13.93v32.84h-9.25v-21.07h-.11l-5.51,21.07h-7.32l-5.53-21.07h-.09v21.07h-9.25v-32.84Z"/>
    <path class="uuid-edbba3f6-aaf7-409c-af91-ddcdc2a1fcbf" d="M1581.8,219.38h-8.8v-6.38h8.8v6.38ZM1573,221.97h8.8v23.88h-8.8v-23.88Z"/>
    <path class="uuid-edbba3f6-aaf7-409c-af91-ddcdc2a1fcbf" d="M1610.35,240.52c0,.89.06,1.81.18,2.75.12.92.42,1.78.9,2.57h-9.28c-.24-.76-.34-1.51-.31-2.25h-.09c-.99,1.06-2.12,1.8-3.41,2.2-1.35.43-2.77.65-4.26.65-2.29,0-4.18-.58-5.68-1.75-1.61-1.2-2.42-3.02-2.45-5.47,0-1.87.49-3.32,1.48-4.35.94-1.05,2.12-1.8,3.53-2.27,1.48-.49,2.97-.83,4.47-1.01s2.83-.34,4-.49c.34-.1.67-.2.97-.29.28-.09.55-.2.79-.31.49-.3.74-.81.74-1.53-.03-.82-.34-1.4-.92-1.73-.59-.31-1.28-.47-2.07-.47-1.37.03-2.27.29-2.73.78-.46.55-.7,1.1-.7,1.65h-8.49c.12-1.69.55-3.06,1.29-4.11.73-1.03,1.67-1.81,2.82-2.33,1.17-.55,2.47-.94,3.91-1.15,1.39-.15,2.77-.22,4.13-.22,2.79,0,4.97.25,6.55.76,1.57.52,2.67,1.24,3.31,2.13.67.88,1.08,1.88,1.24,2.99.06,1.12.09,2.27.09,3.44v9.82ZM1601.91,235.14c-1.19.53-2.45.91-3.77,1.15-2.15.27-3.22,1.13-3.22,2.59,0,.59.29,1.09.87,1.51.53.46,1.24.7,2.12.7,1.11,0,2.05-.32,2.8-.97.74-.62,1.14-1.54,1.2-2.77v-2.21Z"/>
    <path class="uuid-edbba3f6-aaf7-409c-af91-ddcdc2a1fcbf" d="M1614.89,221.97h8.78v3.17h.09c1.87-2.58,4.48-3.83,7.82-3.75,1.32,0,2.58.3,3.77.9,1.2.66,2.09,1.59,2.67,2.81.09-.12.28-.36.58-.72.31-.4.79-.84,1.44-1.3.64-.45,1.45-.85,2.43-1.19,1.02-.33,2.25-.49,3.68-.49,2.93.06,5.01.91,6.22,2.56.62.79,1.06,1.65,1.32,2.58.25.97.37,1.95.37,2.94v16.37h-8.8v-12.9c.03-1.2-.11-2.2-.43-3.01-.39-.82-1.3-1.25-2.72-1.28-1.2,0-2.02.38-2.46,1.14-.52.81-.78,1.86-.78,3.14v12.9h-8.8v-12.9c.03-1.2-.11-2.2-.43-3.01-.39-.82-1.3-1.25-2.72-1.28-1.2,0-2.02.38-2.46,1.14-.52.81-.78,1.86-.78,3.14v12.9h-8.8v-23.88Z"/>
    <path class="uuid-edbba3f6-aaf7-409c-af91-ddcdc2a1fcbf" d="M1668.68,219.38h-8.8v-6.38h8.8v6.38ZM1659.88,221.97h8.8v23.88h-8.8v-23.88Z"/>
  </g>
  <g>
    <path class="uuid-edbba3f6-aaf7-409c-af91-ddcdc2a1fcbf" d="M1550.49,103.91h5.66v4.48h-5.66v10.5h-4.96v-10.5h-21.06v-4.78l20.65-26.73h5.37v27.02ZM1545.54,103.91v-20.53l-15.87,20.53h15.87Z"/>
    <path class="uuid-edbba3f6-aaf7-409c-af91-ddcdc2a1fcbf" d="M1565.07,114.41h22.18v4.48h-27.73l.12-2.3c.24-3.46,1.02-6.43,2.36-8.91,1.34-2.48,3.6-4.64,6.79-6.49l5.31-3.07c2.67-1.57,4.57-3.11,5.69-4.6,1.12-1.49,1.68-3.3,1.68-5.43,0-2.32-.74-4.18-2.21-5.58-1.48-1.4-3.51-2.09-6.11-2.09-5.86,0-8.79,3.01-8.79,9.03h-4.9c-.04-4.29,1.16-7.61,3.6-9.97,2.44-2.36,5.84-3.54,10.21-3.54,3.97,0,7.2,1.12,9.68,3.36,2.48,2.32,3.72,5.25,3.72,8.79,0,5.43-3.19,9.99-9.56,13.69l-4.48,2.6c-2.6,1.57-4.46,3.1-5.61,4.57-1.14,1.47-1.79,3.29-1.95,5.46Z"/>
    <path class="uuid-edbba3f6-aaf7-409c-af91-ddcdc2a1fcbf" d="M1588.49,81.37v-4.48h26.96v3.89c-9.68,10.86-14.71,23.56-15.1,38.11h-5.13c.2-7.28,1.46-13.93,3.81-19.97,2.34-6.04,5.91-11.89,10.71-17.55h-21.24Z"/>
    <path class="uuid-edbba3f6-aaf7-409c-af91-ddcdc2a1fcbf" d="M1622.89,114.41h22.18v4.48h-27.73l.12-2.3c.24-3.46,1.02-6.43,2.36-8.91,1.34-2.48,3.6-4.64,6.79-6.49l5.31-3.07c2.67-1.57,4.57-3.11,5.69-4.6,1.12-1.49,1.68-3.3,1.68-5.43,0-2.32-.74-4.18-2.21-5.58-1.48-1.4-3.51-2.09-6.11-2.09-5.86,0-8.79,3.01-8.79,9.03h-4.9c-.04-4.29,1.16-7.61,3.6-9.97,2.44-2.36,5.84-3.54,10.21-3.54,3.97,0,7.2,1.12,9.68,3.36,2.48,2.32,3.72,5.25,3.72,8.79,0,5.43-3.19,9.99-9.56,13.69l-4.48,2.6c-2.6,1.57-4.46,3.1-5.61,4.57-1.14,1.47-1.79,3.29-1.95,5.46Z"/>
  </g>
  <g>
    <path class="uuid-edbba3f6-aaf7-409c-af91-ddcdc2a1fcbf" d="M1152.91,98.98c5.08,2.65,7.62,6.46,7.62,11.46,0,4.14-1.45,7.47-4.35,9.98-2.86,2.56-6.63,3.84-11.33,3.84-5.08,0-9.01-1.32-11.81-3.97-2.79-2.64-4.17-6.25-4.13-10.82h5.31c.08,3.24,1.04,5.71,2.88,7.39,1.83,1.69,4.42,2.53,7.74,2.53,3.07,0,5.51-.81,7.33-2.43,1.81-1.62,2.72-3.8,2.72-6.53s-.93-4.98-2.78-6.62c-1.86-1.64-4.38-2.46-7.58-2.46h-3.39v-4.48h3.07c3.03,0,5.37-.68,7.01-2.05,1.64-1.37,2.46-3.26,2.46-5.7s-.82-4.26-2.46-5.6c-1.64-1.34-3.87-2.02-6.69-2.02s-5.13.74-6.82,2.21c-1.69,1.47-2.59,3.64-2.72,6.5h-5.38c.04-4.14,1.4-7.43,4.06-9.89,2.67-2.45,6.28-3.68,10.85-3.68s7.92,1.1,10.59,3.3c2.67,2.2,4,5.22,4,9.06,0,4.35-2.07,7.68-6.21,9.98Z"/>
    <path class="uuid-edbba3f6-aaf7-409c-af91-ddcdc2a1fcbf" d="M1166.92,77.67h15.36c6.91,0,12.37,2.01,16.38,6.02,3.97,4.01,5.95,9.6,5.95,16.77s-1.98,12.65-5.95,16.7c-4.05,4.05-9.52,6.08-16.38,6.08h-15.36v-45.57ZM1172.3,118.37h9.98c5.38,0,9.5-1.58,12.38-4.74,2.88-3.16,4.32-7.55,4.32-13.18s-1.44-10.03-4.32-13.18-7.01-4.74-12.38-4.74h-9.98v35.84Z"/>
    <path class="uuid-edbba3f6-aaf7-409c-af91-ddcdc2a1fcbf" d="M1256.65,110.05l.45,7.36c.21,2.56.77,4.5,1.66,5.82h-5.57c-.94-1.37-1.43-3.39-1.47-6.08l-.19-4.86c-.13-3.07-.81-5.26-2.05-6.56-1.24-1.3-3.26-1.95-6.08-1.95h-14.85v19.46h-5.38v-45.57h19.26c4.69,0,8.44,1.09,11.23,3.26,2.79,2.18,4.19,5.23,4.19,9.15,0,2.77-.67,5.11-2.02,7.01-1.34,1.9-3.17,3.23-5.47,4,3.84,1.2,5.93,4.18,6.27,8.96ZM1228.55,98.91h14.53c2.86,0,5.11-.74,6.75-2.21,1.64-1.47,2.46-3.57,2.46-6.3s-.86-4.57-2.59-5.89c-1.73-1.32-4.15-1.98-7.26-1.98h-13.89v16.38Z"/>
    <path class="uuid-edbba3f6-aaf7-409c-af91-ddcdc2a1fcbf" d="M1292.68,106.72v1.79h-25.09c.26,3.58,1.26,6.28,3.01,8.1,1.75,1.81,4.14,2.72,7.17,2.72,4.57,0,7.49-2.05,8.77-6.14h5.31c-.9,3.33-2.56,5.96-4.99,7.9-2.43,1.94-5.5,2.91-9.22,2.91-4.57,0-8.26-1.56-11.07-4.67-2.86-3.11-4.29-7.32-4.29-12.61s1.41-9.39,4.22-12.54c2.77-3.16,6.44-4.74,11.01-4.74s8.45,1.64,11.14,4.93c2.69,3.29,4.03,7.4,4.03,12.35ZM1277.51,94.11c-2.69,0-4.89.84-6.59,2.53-1.71,1.69-2.77,4.11-3.2,7.26h19.46c-.26-2.9-1.24-5.26-2.94-7.07-1.71-1.81-3.95-2.72-6.72-2.72Z"/>
    <path class="uuid-edbba3f6-aaf7-409c-af91-ddcdc2a1fcbf" d="M1313.99,89.44c3.67,0,6.53,1,8.58,3.01,2.05,2.01,3.07,4.82,3.07,8.45v22.34h-5.12v-21.82c0-4.91-2.52-7.36-7.55-7.36-2.39,0-4.5.9-6.34,2.69-1.83,1.79-2.75,4.39-2.75,7.81v18.69h-5.12v-33.02h4.86v4.93c2.52-3.8,5.97-5.7,10.37-5.7Z"/>
    <path class="uuid-edbba3f6-aaf7-409c-af91-ddcdc2a1fcbf" d="M1358.15,94.95v-17.28h5.12v45.57h-4.86v-5.12c-2.65,3.93-6.42,5.89-11.33,5.89-4.65,0-8.36-1.58-11.14-4.74-2.82-3.16-4.22-7.34-4.22-12.54s1.41-9.49,4.22-12.61c2.73-3.11,6.44-4.67,11.14-4.67s8.43,1.83,11.07,5.5ZM1339.98,116.13c1.92,2.18,4.5,3.26,7.74,3.26s5.82-1.13,7.74-3.39c1.92-2.22,2.88-5.31,2.88-9.28s-.96-7.02-2.88-9.28-4.5-3.39-7.74-3.39-5.77,1.16-7.71,3.49c-1.94,2.33-2.91,5.47-2.91,9.44s.96,6.98,2.88,9.15Z"/>
    <path class="uuid-edbba3f6-aaf7-409c-af91-ddcdc2a1fcbf" d="M1399.75,106.72v1.79h-25.09c.26,3.58,1.26,6.28,3.01,8.1,1.75,1.81,4.14,2.72,7.17,2.72,4.57,0,7.49-2.05,8.77-6.14h5.31c-.9,3.33-2.56,5.96-4.99,7.9-2.43,1.94-5.5,2.91-9.22,2.91-4.57,0-8.26-1.56-11.07-4.67-2.86-3.11-4.29-7.32-4.29-12.61s1.41-9.39,4.22-12.54c2.77-3.16,6.44-4.74,11.01-4.74s8.45,1.64,11.14,4.93c2.69,3.29,4.03,7.4,4.03,12.35ZM1384.58,94.11c-2.69,0-4.89.84-6.59,2.53-1.71,1.69-2.77,4.11-3.2,7.26h19.46c-.26-2.9-1.24-5.26-2.94-7.07-1.71-1.81-3.95-2.72-6.72-2.72Z"/>
    <path class="uuid-edbba3f6-aaf7-409c-af91-ddcdc2a1fcbf" d="M1421.32,89.7c.85,0,1.43.02,1.73.06v4.93h-1.28c-3.41,0-6.07.84-7.97,2.53-1.9,1.69-2.85,4.09-2.85,7.2v18.82h-5.12v-33.02h4.86v5.82c2.22-4.22,5.76-6.34,10.62-6.34Z"/>
    <path class="uuid-edbba3f6-aaf7-409c-af91-ddcdc2a1fcbf" d="M1433.1,85.22h-5.44v-6.27h5.44v6.27ZM1432.97,123.23h-5.12v-33.02h5.12v33.02Z"/>
    <path class="uuid-edbba3f6-aaf7-409c-af91-ddcdc2a1fcbf" d="M1455.88,89.44c3.67,0,6.53,1,8.58,3.01,2.05,2.01,3.07,4.82,3.07,8.45v22.34h-5.12v-21.82c0-4.91-2.52-7.36-7.55-7.36-2.39,0-4.5.9-6.34,2.69-1.83,1.79-2.75,4.39-2.75,7.81v18.69h-5.12v-33.02h4.86v4.93c2.52-3.8,5.97-5.7,10.37-5.7Z"/>
    <path class="uuid-edbba3f6-aaf7-409c-af91-ddcdc2a1fcbf" d="M1500.3,95.01v-4.8h4.86v31.74c0,4.52-1.32,8.08-3.97,10.69-2.65,2.6-6.44,3.9-11.39,3.9-4.1,0-7.38-.94-9.86-2.82-2.48-1.88-3.88-4.48-4.22-7.81h5.12c.64,4.18,3.63,6.27,8.96,6.27,6.83,0,10.24-3.41,10.24-10.24v-3.2c-2.6,3.5-6.29,5.25-11.07,5.25s-8.36-1.58-11.14-4.74c-2.82-3.16-4.22-7.34-4.22-12.54s1.41-9.49,4.22-12.61c2.73-3.11,6.44-4.67,11.14-4.67s8.68,1.86,11.33,5.57ZM1489.61,119.39c3.24,0,5.82-1.13,7.74-3.39,1.92-2.26,2.88-5.35,2.88-9.28s-.96-7.02-2.88-9.28-4.5-3.39-7.74-3.39-5.77,1.15-7.71,3.46c-1.94,2.3-2.91,5.38-2.91,9.22s.97,6.91,2.91,9.22c1.94,2.3,4.51,3.46,7.71,3.46Z"/>
    <path class="uuid-edbba3f6-aaf7-409c-af91-ddcdc2a1fcbf" d="M1049.55,184.23h-5.38v-45.57h5.38v45.57Z"/>
    <path class="uuid-edbba3f6-aaf7-409c-af91-ddcdc2a1fcbf" d="M1092.3,150.44c3.58,0,6.37,1.04,8.35,3.1,1.98,2.07,2.98,4.83,2.98,8.29v22.4h-5.12v-21.89c0-4.86-2.3-7.3-6.91-7.3-2.43,0-4.45.97-6.05,2.91-1.6,1.94-2.4,4.68-2.4,8.22v18.05h-5.12v-21.89c0-4.86-2.3-7.3-6.91-7.3-2.39,0-4.4.97-6.02,2.91-1.62,1.94-2.43,4.68-2.43,8.22v18.05h-5.12v-33.02h4.86v4.86c2.18-3.75,5.35-5.63,9.54-5.63,4.95,0,8.34,2.07,10.18,6.21,2.3-4.14,5.7-6.21,10.18-6.21Z"/>
    <path class="uuid-edbba3f6-aaf7-409c-af91-ddcdc2a1fcbf" d="M1146.06,150.44c3.58,0,6.37,1.04,8.35,3.1,1.98,2.07,2.98,4.83,2.98,8.29v22.4h-5.12v-21.89c0-4.86-2.3-7.3-6.91-7.3-2.43,0-4.45.97-6.05,2.91-1.6,1.94-2.4,4.68-2.4,8.22v18.05h-5.12v-21.89c0-4.86-2.3-7.3-6.91-7.3-2.39,0-4.4.97-6.02,2.91-1.62,1.94-2.43,4.68-2.43,8.22v18.05h-5.12v-33.02h4.86v4.86c2.18-3.75,5.35-5.63,9.54-5.63,4.95,0,8.34,2.07,10.18,6.21,2.3-4.14,5.7-6.21,10.18-6.21Z"/>
    <path class="uuid-edbba3f6-aaf7-409c-af91-ddcdc2a1fcbf" d="M1193.87,167.72v1.79h-25.09c.26,3.58,1.26,6.28,3.01,8.1,1.75,1.81,4.14,2.72,7.17,2.72,4.57,0,7.49-2.05,8.77-6.14h5.31c-.9,3.33-2.56,5.96-4.99,7.9-2.43,1.94-5.5,2.91-9.22,2.91-4.57,0-8.26-1.56-11.07-4.67-2.86-3.11-4.29-7.32-4.29-12.61s1.41-9.39,4.22-12.54c2.77-3.16,6.44-4.74,11.01-4.74s8.45,1.64,11.14,4.93c2.69,3.29,4.03,7.4,4.03,12.35ZM1178.7,155.11c-2.69,0-4.89.84-6.59,2.53-1.71,1.69-2.77,4.11-3.2,7.26h19.46c-.26-2.9-1.24-5.26-2.94-7.07-1.71-1.81-3.95-2.72-6.72-2.72Z"/>
    <path class="uuid-edbba3f6-aaf7-409c-af91-ddcdc2a1fcbf" d="M1215.43,150.7c.85,0,1.43.02,1.73.06v4.93h-1.28c-3.41,0-6.07.84-7.97,2.53-1.9,1.69-2.85,4.09-2.85,7.2v18.82h-5.12v-33.02h4.86v5.82c2.22-4.22,5.76-6.34,10.62-6.34Z"/>
    <path class="uuid-edbba3f6-aaf7-409c-af91-ddcdc2a1fcbf" d="M1232.33,185c-8.83,0-13.5-3.75-14.02-11.26h5.18c.3,2.47,1.12,4.23,2.46,5.28s3.47,1.57,6.37,1.57c5.29,0,7.94-1.71,7.94-5.12,0-1.49-.54-2.62-1.63-3.39-1.09-.77-3.06-1.43-5.92-1.98l-3.07-.58c-6.87-1.28-10.3-4.52-10.3-9.73,0-2.86,1.08-5.13,3.23-6.82,2.15-1.68,5.09-2.53,8.8-2.53,8.75,0,13.23,3.65,13.44,10.94h-5.12c-.13-2.39-.85-4.07-2.18-5.06-1.32-.98-3.37-1.47-6.14-1.47-2.22,0-3.93.43-5.12,1.28-1.2.85-1.79,2.05-1.79,3.58,0,1.45.51,2.54,1.54,3.26,1.02.73,2.73,1.34,5.12,1.86l2.94.58c4.05.81,6.96,1.96,8.74,3.46,1.77,1.49,2.66,3.58,2.66,6.27,0,3.11-1.16,5.54-3.49,7.26-2.33,1.73-5.54,2.59-9.63,2.59Z"/>
    <path class="uuid-edbba3f6-aaf7-409c-af91-ddcdc2a1fcbf" d="M1255.82,146.22h-5.44v-6.27h5.44v6.27ZM1255.69,184.23h-5.12v-33.02h5.12v33.02Z"/>
    <path class="uuid-edbba3f6-aaf7-409c-af91-ddcdc2a1fcbf" d="M1279.88,165.87l5.44-14.66h5.5l-12.99,33.02h-5.38l-12.93-33.02h5.57l5.44,14.72c2.69,7.21,4.25,11.48,4.67,12.8.77-2.26,2.33-6.55,4.67-12.86Z"/>
    <path class="uuid-edbba3f6-aaf7-409c-af91-ddcdc2a1fcbf" d="M1321.87,167.72v1.79h-25.09c.26,3.58,1.26,6.28,3.01,8.1,1.75,1.81,4.14,2.72,7.17,2.72,4.57,0,7.49-2.05,8.77-6.14h5.31c-.9,3.33-2.56,5.96-4.99,7.9-2.43,1.94-5.5,2.91-9.22,2.91-4.57,0-8.26-1.56-11.07-4.67-2.86-3.11-4.29-7.32-4.29-12.61s1.41-9.39,4.22-12.54c2.77-3.16,6.44-4.74,11.01-4.74s8.45,1.64,11.14,4.93c2.69,3.29,4.03,7.4,4.03,12.35ZM1306.7,155.11c-2.69,0-4.89.84-6.59,2.53-1.71,1.69-2.77,4.11-3.2,7.26h19.46c-.26-2.9-1.24-5.26-2.94-7.07-1.71-1.81-3.95-2.72-6.72-2.72Z"/>
    <path class="uuid-edbba3f6-aaf7-409c-af91-ddcdc2a1fcbf" d="M1340.42,138.67h15.36c6.91,0,12.37,2.01,16.38,6.02,3.97,4.01,5.95,9.6,5.95,16.77s-1.98,12.65-5.95,16.7c-4.05,4.05-9.52,6.08-16.38,6.08h-15.36v-45.57ZM1345.8,179.37h9.98c5.38,0,9.5-1.58,12.38-4.74,2.88-3.16,4.32-7.55,4.32-13.18s-1.44-10.03-4.32-13.18-7.01-4.74-12.38-4.74h-9.98v35.84Z"/>
    <path class="uuid-edbba3f6-aaf7-409c-af91-ddcdc2a1fcbf" d="M1389.45,146.22h-5.44v-6.27h5.44v6.27ZM1389.32,184.23h-5.12v-33.02h5.12v33.02Z"/>
    <path class="uuid-edbba3f6-aaf7-409c-af91-ddcdc2a1fcbf" d="M1422.09,156.01v-4.8h4.86v31.74c0,4.52-1.32,8.08-3.97,10.69-2.65,2.6-6.44,3.9-11.39,3.9-4.1,0-7.38-.94-9.86-2.82-2.48-1.88-3.88-4.48-4.22-7.81h5.12c.64,4.18,3.63,6.27,8.96,6.27,6.83,0,10.24-3.41,10.24-10.24v-3.2c-2.6,3.5-6.29,5.25-11.07,5.25s-8.36-1.58-11.14-4.74c-2.82-3.16-4.22-7.34-4.22-12.54s1.41-9.49,4.22-12.61c2.73-3.11,6.44-4.67,11.14-4.67s8.68,1.86,11.33,5.57ZM1411.4,180.39c3.24,0,5.82-1.13,7.74-3.39,1.92-2.26,2.88-5.35,2.88-9.28s-.96-7.02-2.88-9.28-4.5-3.39-7.74-3.39-5.77,1.15-7.71,3.46c-1.94,2.3-2.91,5.38-2.91,9.22s.97,6.91,2.91,9.22c1.94,2.3,4.51,3.46,7.71,3.46Z"/>
    <path class="uuid-edbba3f6-aaf7-409c-af91-ddcdc2a1fcbf" d="M1439.88,146.22h-5.44v-6.27h5.44v6.27ZM1439.75,184.23h-5.12v-33.02h5.12v33.02Z"/>
    <path class="uuid-edbba3f6-aaf7-409c-af91-ddcdc2a1fcbf" d="M1461.9,151.21v4.48h-6.78v21.44c0,1.88,1.26,2.82,3.78,2.82h3.01v4.29c-1.41.13-2.62.19-3.65.19-5.5,0-8.26-2.28-8.26-6.85v-21.89h-5.44v-4.48h5.44v-9.34h5.12v9.34h6.78Z"/>
    <path class="uuid-edbba3f6-aaf7-409c-af91-ddcdc2a1fcbf" d="M1494.02,180.07h1.86v4.16c-.85.13-1.79.19-2.82.19-3.46,0-5.31-1.58-5.57-4.74-2.3,3.54-5.89,5.31-10.75,5.31-3.63,0-6.48-.84-8.54-2.53-2.07-1.69-3.1-4.06-3.1-7.14,0-5.97,4.07-9.39,12.22-10.24l4.74-.51c3.46-.38,5.18-1.9,5.18-4.54,0-1.83-.57-3.16-1.7-3.97-1.13-.81-3.04-1.22-5.73-1.22-2.86,0-4.92.48-6.18,1.44-1.26.96-1.97,2.66-2.14,5.09h-5.12c.43-7.3,4.91-10.94,13.44-10.94s12.42,3.2,12.42,9.6v18.43c0,1.07.6,1.6,1.79,1.6ZM1477,180.65c2.73,0,5.12-.83,7.17-2.5,2.05-1.62,3.07-3.95,3.07-6.98v-3.9c-.94.73-2.39,1.19-4.35,1.41l-4.8.58c-2.77.34-4.75.98-5.92,1.92-1.17.94-1.76,2.28-1.76,4.03s.55,3.04,1.66,4c1.11.96,2.75,1.44,4.93,1.44Z"/>
    <path class="uuid-edbba3f6-aaf7-409c-af91-ddcdc2a1fcbf" d="M1505.16,184.23h-5.12v-45.57h5.12v45.57Z"/>
    <path class="uuid-edbba3f6-aaf7-409c-af91-ddcdc2a1fcbf" d="M957.65,199.67h15.36c6.91,0,12.37,2.01,16.38,6.02,3.97,4.01,5.95,9.6,5.95,16.77s-1.98,12.65-5.95,16.7c-4.05,4.05-9.52,6.08-16.38,6.08h-15.36v-45.57ZM963.02,240.37h9.98c5.38,0,9.5-1.58,12.38-4.74s4.32-7.55,4.32-13.18-1.44-10.03-4.32-13.18-7.01-4.74-12.38-4.74h-9.98v35.84Z"/>
    <path class="uuid-edbba3f6-aaf7-409c-af91-ddcdc2a1fcbf" d="M1030.54,228.72v1.79h-25.09c.26,3.58,1.26,6.28,3.01,8.1,1.75,1.81,4.14,2.72,7.17,2.72,4.57,0,7.49-2.05,8.77-6.14h5.31c-.9,3.33-2.56,5.96-4.99,7.9-2.43,1.94-5.5,2.91-9.22,2.91-4.57,0-8.26-1.56-11.07-4.67-2.86-3.11-4.29-7.32-4.29-12.61s1.41-9.39,4.22-12.54c2.77-3.16,6.44-4.74,11.01-4.74s8.45,1.64,11.14,4.93c2.69,3.29,4.03,7.4,4.03,12.35ZM1015.37,216.11c-2.69,0-4.89.84-6.59,2.53-1.71,1.69-2.77,4.11-3.2,7.26h19.46c-.26-2.9-1.24-5.26-2.94-7.07-1.71-1.81-3.95-2.72-6.72-2.72Z"/>
    <path class="uuid-edbba3f6-aaf7-409c-af91-ddcdc2a1fcbf" d="M1047.95,246c-8.83,0-13.5-3.75-14.02-11.26h5.18c.3,2.47,1.12,4.24,2.46,5.28,1.34,1.05,3.47,1.57,6.37,1.57,5.29,0,7.94-1.71,7.94-5.12,0-1.49-.54-2.62-1.63-3.39-1.09-.77-3.06-1.43-5.92-1.98l-3.07-.58c-6.87-1.28-10.3-4.52-10.3-9.73,0-2.86,1.08-5.13,3.23-6.82,2.15-1.68,5.09-2.53,8.8-2.53,8.75,0,13.23,3.65,13.44,10.94h-5.12c-.13-2.39-.85-4.07-2.18-5.06-1.32-.98-3.37-1.47-6.14-1.47-2.22,0-3.93.43-5.12,1.28-1.2.85-1.79,2.05-1.79,3.58,0,1.45.51,2.54,1.54,3.26,1.02.73,2.73,1.34,5.12,1.86l2.94.58c4.05.81,6.96,1.96,8.74,3.46,1.77,1.49,2.66,3.58,2.66,6.27,0,3.12-1.16,5.54-3.49,7.26-2.33,1.73-5.54,2.59-9.63,2.59Z"/>
    <path class="uuid-edbba3f6-aaf7-409c-af91-ddcdc2a1fcbf" d="M1071.44,207.22h-5.44v-6.27h5.44v6.27ZM1071.31,245.23h-5.12v-33.02h5.12v33.02Z"/>
    <path class="uuid-edbba3f6-aaf7-409c-af91-ddcdc2a1fcbf" d="M1104.08,217.01v-4.8h4.86v31.74c0,4.52-1.32,8.08-3.97,10.69-2.65,2.6-6.44,3.9-11.39,3.9-4.1,0-7.38-.94-9.86-2.82-2.48-1.88-3.88-4.48-4.22-7.81h5.12c.64,4.18,3.63,6.27,8.96,6.27,6.83,0,10.24-3.41,10.24-10.24v-3.2c-2.6,3.5-6.29,5.25-11.07,5.25s-8.36-1.58-11.14-4.74c-2.82-3.16-4.22-7.34-4.22-12.54s1.41-9.49,4.22-12.61c2.73-3.11,6.44-4.67,11.14-4.67s8.68,1.86,11.33,5.57ZM1093.39,241.39c3.24,0,5.82-1.13,7.74-3.39,1.92-2.26,2.88-5.35,2.88-9.28s-.96-7.02-2.88-9.28-4.5-3.39-7.74-3.39-5.77,1.15-7.71,3.46c-1.94,2.3-2.91,5.38-2.91,9.22s.97,6.91,2.91,9.22c1.94,2.3,4.51,3.46,7.71,3.46Z"/>
    <path class="uuid-edbba3f6-aaf7-409c-af91-ddcdc2a1fcbf" d="M1131.85,211.44c3.67,0,6.53,1,8.58,3.01,2.05,2.01,3.07,4.82,3.07,8.45v22.34h-5.12v-21.82c0-4.91-2.52-7.36-7.55-7.36-2.39,0-4.5.9-6.34,2.69-1.83,1.79-2.75,4.39-2.75,7.81v18.69h-5.12v-33.02h4.86v4.93c2.52-3.8,5.97-5.7,10.37-5.7Z"/>
    <path class="uuid-edbba3f6-aaf7-409c-af91-ddcdc2a1fcbf" d="M1179.53,211.44c4.65,0,8.38,1.56,11.2,4.67,2.77,3.16,4.16,7.36,4.16,12.61s-1.39,9.39-4.16,12.54c-2.82,3.16-6.55,4.74-11.2,4.74-4.91,0-8.68-1.96-11.33-5.89v5.12h-4.86v-45.57h5.12v17.28c2.65-3.67,6.34-5.5,11.07-5.5ZM1178.89,241.39c3.2,0,5.77-1.16,7.71-3.49,1.94-2.33,2.91-5.47,2.91-9.44s-.95-6.92-2.85-9.12c-1.9-2.2-4.49-3.3-7.78-3.3s-5.82,1.11-7.74,3.33c-1.92,2.22-2.88,5.33-2.88,9.34s.96,7.06,2.88,9.28c1.92,2.26,4.5,3.39,7.74,3.39Z"/>
    <path class="uuid-edbba3f6-aaf7-409c-af91-ddcdc2a1fcbf" d="M1215.31,225.91l4.67-13.7h5.57l-13.95,38.21c-.98,2.77-2.33,4.73-4.03,5.86-1.71,1.13-3.95,1.7-6.72,1.7-.94,0-1.96-.06-3.07-.19v-4.29h3.01c2.94,0,4.95-1.37,6.02-4.1l1.15-3.07-12.42-34.11h5.63l4.67,13.76c1.66,4.87,3.24,9.62,4.74,14.27,1.24-3.97,2.82-8.75,4.74-14.34Z"/>
    <path class="uuid-edbba3f6-aaf7-409c-af91-ddcdc2a1fcbf" d="M1270.35,224.82l10.18-25.15h7.04v45.57h-5.25v-14.59c0-9.6.06-17.34.19-23.23-1.02,2.82-2.37,6.27-4.03,10.37l-11.26,27.46h-4.61l-11.33-27.46c-1.66-4.1-3.01-7.55-4.03-10.37.13,5.89.19,13.63.19,23.23v14.59h-5.25v-45.57h7.04l10.56,25.92c1.58,3.88,3.31,8.26,5.18,13.12,2.6-6.91,4.39-11.54,5.38-13.89Z"/>
    <path class="uuid-edbba3f6-aaf7-409c-af91-ddcdc2a1fcbf" d="M1321.48,241.27c-3.03,3.16-6.87,4.74-11.52,4.74s-8.49-1.58-11.52-4.74c-2.99-3.11-4.48-7.3-4.48-12.54s1.49-9.43,4.48-12.54c3.03-3.16,6.87-4.74,11.52-4.74s8.49,1.58,11.52,4.74c2.99,3.12,4.48,7.3,4.48,12.54s-1.49,9.43-4.48,12.54ZM1302.22,238c1.92,2.26,4.5,3.39,7.74,3.39s5.82-1.13,7.74-3.39c1.92-2.22,2.88-5.31,2.88-9.28s-.96-7.12-2.88-9.34c-1.92-2.22-4.5-3.33-7.74-3.33s-5.82,1.11-7.74,3.33c-1.92,2.22-2.88,5.33-2.88,9.34s.96,7.06,2.88,9.28Z"/>
    <path class="uuid-edbba3f6-aaf7-409c-af91-ddcdc2a1fcbf" d="M1360.14,245.23h-5.95l-11.14-17.73-5.89,5.5v12.22h-5.12v-45.57h5.12v27.33l15.3-14.78h6.78l-12.54,11.9,13.44,21.12Z"/>
    <path class="uuid-edbba3f6-aaf7-409c-af91-ddcdc2a1fcbf" d="M1368.9,207.22h-5.44v-6.27h5.44v6.27ZM1368.78,245.23h-5.12v-33.02h5.12v33.02Z"/>
    <path class="uuid-edbba3f6-aaf7-409c-af91-ddcdc2a1fcbf" d="M1392.65,211.44c4.65,0,8.38,1.56,11.2,4.67,2.77,3.16,4.16,7.36,4.16,12.61s-1.39,9.39-4.16,12.54c-2.82,3.16-6.55,4.74-11.2,4.74-4.91,0-8.68-1.96-11.33-5.89v5.12h-4.86v-45.57h5.12v17.28c2.65-3.67,6.34-5.5,11.07-5.5ZM1392.01,241.39c3.2,0,5.77-1.16,7.71-3.49,1.94-2.33,2.91-5.47,2.91-9.44s-.95-6.92-2.85-9.12c-1.9-2.2-4.49-3.3-7.78-3.3s-5.82,1.11-7.74,3.33c-1.92,2.22-2.88,5.33-2.88,9.34s.96,7.06,2.88,9.28c1.92,2.26,4.5,3.39,7.74,3.39Z"/>
    <path class="uuid-edbba3f6-aaf7-409c-af91-ddcdc2a1fcbf" d="M1440.46,241.07h1.86v4.16c-.85.13-1.79.19-2.82.19-3.46,0-5.31-1.58-5.57-4.74-2.3,3.54-5.89,5.31-10.75,5.31-3.63,0-6.48-.84-8.54-2.53-2.07-1.69-3.1-4.06-3.1-7.14,0-5.97,4.07-9.39,12.22-10.24l4.74-.51c3.46-.38,5.18-1.9,5.18-4.54,0-1.83-.57-3.16-1.7-3.97-1.13-.81-3.04-1.22-5.73-1.22-2.86,0-4.92.48-6.18,1.44-1.26.96-1.97,2.66-2.14,5.09h-5.12c.43-7.3,4.91-10.94,13.44-10.94s12.42,3.2,12.42,9.6v18.43c0,1.07.6,1.6,1.79,1.6ZM1423.43,241.65c2.73,0,5.12-.83,7.17-2.5,2.05-1.62,3.07-3.95,3.07-6.98v-3.9c-.94.73-2.39,1.19-4.35,1.41l-4.8.58c-2.77.34-4.75.98-5.92,1.92-1.17.94-1.76,2.28-1.76,4.03s.55,3.04,1.66,4c1.11.96,2.75,1.44,4.93,1.44Z"/>
    <path class="uuid-edbba3f6-aaf7-409c-af91-ddcdc2a1fcbf" d="M1462.67,211.44c4.65,0,8.38,1.56,11.2,4.67,2.77,3.16,4.16,7.36,4.16,12.61s-1.39,9.39-4.16,12.54c-2.82,3.16-6.55,4.74-11.2,4.74-4.91,0-8.68-1.96-11.33-5.89v5.12h-4.86v-45.57h5.12v17.28c2.65-3.67,6.34-5.5,11.07-5.5ZM1462.02,241.39c3.2,0,5.77-1.16,7.71-3.49,1.94-2.33,2.91-5.47,2.91-9.44s-.95-6.92-2.85-9.12c-1.9-2.2-4.49-3.3-7.78-3.3s-5.82,1.11-7.74,3.33c-1.92,2.22-2.88,5.33-2.88,9.34s.96,7.06,2.88,9.28c1.92,2.26,4.5,3.39,7.74,3.39Z"/>
    <path class="uuid-edbba3f6-aaf7-409c-af91-ddcdc2a1fcbf" d="M1498.44,225.91l4.67-13.7h5.57l-13.95,38.21c-.98,2.77-2.33,4.73-4.03,5.86-1.71,1.13-3.95,1.7-6.72,1.7-.94,0-1.96-.06-3.07-.19v-4.29h3.01c2.94,0,4.95-1.37,6.02-4.1l1.15-3.07-12.42-34.11h5.63l4.67,13.76c1.66,4.87,3.24,9.62,4.74,14.27,1.24-3.97,2.82-8.75,4.74-14.34Z"/>
  </g>
  <g>
    <path class="uuid-edbba3f6-aaf7-409c-af91-ddcdc2a1fcbf" d="M1866.6,147.87v11.28h-2.28v-14.1l1.17.06c1.76.12,3.27.52,4.53,1.2s2.36,1.83,3.3,3.45l1.56,2.7c.8,1.36,1.58,2.32,2.34,2.89.76.57,1.68.86,2.76.86,1.18,0,2.12-.38,2.83-1.12s1.06-1.79,1.06-3.11c0-2.98-1.53-4.47-4.59-4.47v-2.49c2.18-.02,3.87.59,5.07,1.83s1.8,2.97,1.8,5.19c0,2.02-.57,3.66-1.71,4.92-1.18,1.26-2.67,1.89-4.47,1.89-2.76,0-5.08-1.62-6.96-4.86l-1.32-2.28c-.8-1.32-1.58-2.27-2.33-2.85s-1.67-.91-2.77-.99Z"/>
    <path class="uuid-edbba3f6-aaf7-409c-af91-ddcdc2a1fcbf" d="M1866.6,164.31v11.28h-2.28v-14.1l1.17.06c1.76.12,3.27.52,4.53,1.2s2.36,1.83,3.3,3.45l1.56,2.7c.8,1.36,1.58,2.32,2.34,2.89.76.57,1.68.86,2.76.86,1.18,0,2.12-.38,2.83-1.12s1.06-1.79,1.06-3.11c0-2.98-1.53-4.47-4.59-4.47v-2.49c2.18-.02,3.87.59,5.07,1.83s1.8,2.97,1.8,5.19c0,2.02-.57,3.66-1.71,4.92-1.18,1.26-2.67,1.89-4.47,1.89-2.76,0-5.08-1.62-6.96-4.86l-1.32-2.28c-.8-1.32-1.58-2.27-2.33-2.85s-1.67-.91-2.77-.99Z"/>
    <path class="uuid-edbba3f6-aaf7-409c-af91-ddcdc2a1fcbf" d="M1871.7,185.79v-8.67h2.16v8.67h-2.16Z"/>
    <path class="uuid-edbba3f6-aaf7-409c-af91-ddcdc2a1fcbf" d="M1885.68,191.31v2.04h-21.36v-2.52h15.93v-4.86h1.98l.03.48c.1,1.52.4,2.65.9,3.39.5.74,1.34,1.23,2.52,1.47Z"/>
    <path class="uuid-edbba3f6-aaf7-409c-af91-ddcdc2a1fcbf" d="M1866.6,199.53v11.28h-2.28v-14.1l1.17.06c1.76.12,3.27.52,4.53,1.2s2.36,1.83,3.3,3.45l1.56,2.7c.8,1.36,1.58,2.32,2.34,2.89.76.57,1.68.86,2.76.86,1.18,0,2.12-.38,2.83-1.12s1.06-1.79,1.06-3.11c0-2.98-1.53-4.47-4.59-4.47v-2.49c2.18-.02,3.87.59,5.07,1.83s1.8,2.97,1.8,5.19c0,2.02-.57,3.66-1.71,4.92-1.18,1.26-2.67,1.89-4.47,1.89-2.76,0-5.08-1.62-6.96-4.86l-1.32-2.28c-.8-1.32-1.58-2.27-2.33-2.85s-1.67-.91-2.77-.99Z"/>
    <path class="uuid-edbba3f6-aaf7-409c-af91-ddcdc2a1fcbf" d="M1871.7,221.01v-8.67h2.16v8.67h-2.16Z"/>
    <path class="uuid-edbba3f6-aaf7-409c-af91-ddcdc2a1fcbf" d="M1885.68,226.53v2.04h-21.36v-2.52h15.93v-4.86h1.98l.03.48c.1,1.52.4,2.65.9,3.39.5.74,1.34,1.23,2.52,1.47Z"/>
    <path class="uuid-edbba3f6-aaf7-409c-af91-ddcdc2a1fcbf" d="M1866.72,245.55c-1.92-1.3-2.88-3.23-2.88-5.79s.96-4.51,2.88-5.79c1.94-1.3,4.7-1.95,8.28-1.95s6.34.65,8.28,1.95c1.92,1.28,2.88,3.21,2.88,5.79s-.96,4.49-2.88,5.79c-1.94,1.3-4.7,1.95-8.28,1.95s-6.34-.65-8.28-1.95ZM1883.88,239.76c0-3.4-2.96-5.1-8.88-5.1s-8.88,1.7-8.88,5.1,2.96,5.1,8.88,5.1,8.88-1.7,8.88-5.1Z"/>
  </g>
</svg>