<?xml version="1.0" encoding="UTF-8"?>
<svg id="uuid-788cf315-1be5-4123-bc36-7b9a9824872e" data-name="Layer 1" xmlns="http://www.w3.org/2000/svg" xmlns:xlink="http://www.w3.org/1999/xlink" viewBox="0 0 1920 768">
  <defs>
    <style>
      .uuid-7673eda5-1df0-476f-8414-c22220353739 {
        fill: none;
      }

      .uuid-7673eda5-1df0-476f-8414-c22220353739, .uuid-9187df0d-75ed-4b3b-8030-f77aa359a2d6 {
        stroke-width: 0px;
      }

      .uuid-9187df0d-75ed-4b3b-8030-f77aa359a2d6 {
        fill: #fff;
      }

      .uuid-720e9ed0-9156-4dcf-a6d7-af2d93c440b8 {
        clip-path: url(#uuid-c2c71fdd-74b1-42e8-b6ad-a452eccb73a3);
      }
    </style>
    <clipPath id="uuid-c2c71fdd-74b1-42e8-b6ad-a452eccb73a3">
      <rect class="uuid-7673eda5-1df0-476f-8414-c22220353739" x="791.89" y="136.49" width="336.22" height="495.02"/>
    </clipPath>
  </defs>
  <g class="uuid-720e9ed0-9156-4dcf-a6d7-af2d93c440b8">
    <g id="uuid-3e980dc5-c5f4-4a81-8b43-289b93bfce5f" data-name="Group 801">
      <path id="uuid-0248264b-9697-4fc5-b3e6-1aebd747f138" data-name="Path 3584" class="uuid-9187df0d-75ed-4b3b-8030-f77aa359a2d6" d="M1092.63,626.53v-9.62h16.45v-4.23h-16.45v-8.63h18.84v-4.23h-23.4v30.94h23.95v-4.23h-17.97l-1.41.02ZM1059.95,603.99c5.32,0,7.82,1.85,7.82,5.16s-2.5,5.05-7.82,5.05h-7.44v-10.21h7.44ZM1052.52,618.43h6.78l8.85,12.32h5.48l-9.24-12.72.72-.15c4.78-1.14,7.33-4.13,7.33-8.74,0-6.02-4.4-9.34-12.37-9.34h-12.11v30.94h4.55v-12.32ZM1014.32,617.72l.31-.87,4.23-11.18h1.47l4.23,11.13.39.92h-10.63ZM1029.83,630.75h4.94l-12.21-30.94h-5.81l-12.27,30.94h4.88l3.42-9.07h13.62l3.42,9.07ZM971.53,615.27c0-6.51,3.2-11.78,9.44-11.78,3.75,0,6.19,2.33,8.47,6.02l3.74-2.88c-2.93-4.99-6.62-7.6-12.16-7.6-8.14,0-14.28,6.73-14.28,16.23s6.13,16.23,14.28,16.23c5.54,0,9.23-2.61,12.16-7.6l-3.74-2.88c-2.28,3.69-4.72,5.97-8.47,5.97-6.24,0-9.44-5.27-9.44-11.72M936.96,626.5v-26.69h-4.55v30.94h22.31v-4.23h-16.35l-1.4-.02ZM902.82,627.22c-4.19.11-7.67-3.2-7.78-7.39,0-.23,0-.46.01-.69v-19.33h-4.55v19.92c0,7.11,5.48,11.78,12.32,11.78s12.32-4.67,12.32-11.78v-19.92h-4.55v19.32c.27,4.18-2.89,7.79-7.07,8.07-.23.02-.46.02-.69.01M872.2,615.27c0,6.57-3.09,11.89-9.23,11.89s-9.17-5.32-9.17-11.89,3.04-11.94,9.17-11.94,9.23,5.37,9.23,11.94M876.98,615.27c0-9.12-5.43-16.23-14-16.23s-13.96,7.11-13.96,16.23,5.43,16.23,13.96,16.23,14-7.16,14-16.23M823.57,627.21c-4.34,0-8.53-1.62-11.72-4.55l-2.71,3.91c3.37,3.15,8.79,4.94,14.44,4.94,7.27,0,12.43-3.91,12.43-9.61,0-4.67-3.37-7.17-7.92-8.31l-7.6-1.95c-2.94-.71-4.94-1.57-4.94-3.97,0-2.77,2.72-4.4,6.89-4.4,3.79.03,7.43,1.49,10.2,4.07l2.88-3.58c-3.55-3.06-8.07-4.73-12.76-4.72-6.95,0-11.78,3.69-11.78,8.9,0,4.83,3.47,6.89,8.58,8.09l7.6,1.85c2.39.6,4.29,1.68,4.29,4.34,0,3.26-3.53,4.99-7.87,4.99"/>
      <path id="uuid-9d88cb9b-be89-427f-981e-e17933946604" data-name="Path 3585" class="uuid-9187df0d-75ed-4b3b-8030-f77aa359a2d6" d="M932.53,137.17h-45.91c7.31,10.59,4.85,19.87-.15,28.06-3.13,5.21-6.86,10.03-11.11,14.37-15.14,15.25-30.62,30.17-45.98,45.21-.45.37-.92.71-1.41,1.02v-49.23c.02-13.22-.15-26.48,3.9-39.48h-31.52c2.45,10.12,2.71,20.31,2.72,30.51.04,34.61.06,69.22.06,103.83,0,7.82-.24,15.64-.7,23.45-.27,4.6-1.21,9.16-1.85,13.77h30.77c-.95-6.37-2.51-12.68-2.72-19.03-.54-16-.48-32.02-.61-48.03,0-.89.29-1.76.85-2.46,3.25-3.64,6.61-7.19,10.12-10.98l85.76,85.01c5.98-5.9,11.72-11.56,17.13-16.89-28-28.31-56.1-56.73-84.31-85.26l74.97-73.86"/>
      <path id="uuid-22612088-74d3-42fe-8c00-7dc005ecc0ad" data-name="Path 3586" class="uuid-9187df0d-75ed-4b3b-8030-f77aa359a2d6" d="M1104.29,290.59c-6.18,1.92-12.48,3.41-18.86,4.49-22.48,3.72-21.84,2.93-44.5,2.86-1.48,0-2.17-.44-2.33-1.96-.32-3.12-.75-6.24-1.14-9.36-.44-15-.41-30.01-.53-45.01l-.03-13.62h72.65v-10.35h-72.66v-41.04c0-7.43-.04-14.86.63-22.25.21-1.58.42-3.17.59-4.75s.91-1.94,2.35-1.95c20.08-.17,16.85-.46,36.74,2.84,16.17,2.69,43.45,20.2,43.45,20.2,0,0-2.53-21.34-4.07-30.3-.8-4.65-.46-3.85-4.59-3.83l-86.97.56h-15.76c2.45,10.11,2.71,20.3,2.72,30.51.04,34.61.06,69.22.06,103.83-.01,7.82-.24,15.64-.7,23.45-.27,4.6-1.21,9.17-1.85,13.77h30.4l44.54.18c19.99.1,16.64.13,36.63.21,1.31,0,2.31-.1,2.59-1.73,1.72-10.07,4.77-31.75,4.43-32.87-9.45,9.94-13.61,12.99-23.79,16.12"/>
      <path id="uuid-a7fe086f-ca28-4f89-8928-2269dadf81f1" data-name="Path 3587" class="uuid-9187df0d-75ed-4b3b-8030-f77aa359a2d6" d="M1107.94,457.07c-8.4-9.03-19.13-15.6-30.03-21.99-10-5.86-20.48-11.17-29.04-18.75-7.16-6.33-11.34-13.68-10.86-22.93.85-16.19,17.87-26.1,35.66-21.77,8.46,2.06,11.76,7.38,15.14,14.19,2.6,5.25,4.28,10.86,6.63,16.98,1.1-.6,2.11-1.36,2.98-2.26,3.22-4.63,6.25-9.35,9.36-14.04,2.94-4.43,4.77-6.63,7.87-11.29-1.5-.78-2.72-1.47-3.98-2.07-8.04-3.87-15.49-8.77-24.46-10.35-15.93-2.81-29.55-3.24-45.11,1.87-20.48,6.73-32.03,22.41-30.58,41.46,1.04,13.73,8.26,24.64,20.25,32.96,8.93,6.2,18.57,11.61,28,17.23,8.77,5.22,17.54,10.44,24.27,17.77,10.04,10.93,13.66,23.39,9.8,37-3.57,12.57-13.41,19.62-28,21.23-14.41,1.59-30.79-2.92-37.69-16.99-7.27-14.81-5.15-29.25,3.75-43.12.48-.97.86-1.99,1.11-3.04-1.32-.02-2.63.12-3.91.41-7.14,2.62-14.21,5.39-21.33,8.05q-10,3.73-11.34,13.39c-2.64,19.23,7.31,35.98,27.06,44.57,17.92,7.8,36.76,8.78,55.96,4.29,12.82-3,23.55-9,31.59-18.42,15.53-18.22,14.17-45.84-3.08-64.37"/>
      <path id="uuid-c3035846-bd4c-4dec-8d3f-3418dd42bc56" data-name="Path 3588" class="uuid-9187df0d-75ed-4b3b-8030-f77aa359a2d6" d="M951.47,369.64c.86-1.14,1.7-2.29,2.8-3.76h-41.21c5.5,9.26,4.7,16.72,3.43,22.89-1.37,6.7-4.09,13.05-8.01,18.66-8.61,12.3-17.49,24.4-26.27,36.58-1.16,1.62-2.36,3.19-3.69,4.98-.76-1.03-1.32-1.72-1.84-2.46-17.98-26.2-35.94-52.41-53.89-78.63-.87-1.51-2.55-2.37-4.28-2.2-7.86.11-15.73.04-23.59.05-.88,0-1.77.07-3.02.13.67,1.03,1.13,1.79,1.65,2.51,21.87,30.46,43.72,60.93,65.56,91.4.92,1.32,1.44,2.88,1.5,4.49.13,10.49.16,20.98.04,31.47-.15,13.96.08,27.97-3.51,41.64h31.87c-2.33-8.96-3.46-18.19-3.34-27.45-.26-16.65-.17-33.31-.31-49.97-.08-2.1.6-4.16,1.91-5.8,21.44-28.15,42.84-56.32,64.2-84.53"/>
    </g>
  </g>
</svg>