<?xml version="1.0" encoding="UTF-8"?>
<svg id="uuid-c352eb86-f426-4f50-b029-bea66bd50248" data-name="Layer 1" xmlns="http://www.w3.org/2000/svg" viewBox="0 0 1920 417.33">
  <defs>
    <style>
      .uuid-cfb4b68c-fc71-4582-b3b0-6ef9178c436f {
        isolation: isolate;
      }

      .uuid-cf50da19-bb6b-476a-b3bd-8b5af9adf783 {
        fill: #fff;
        stroke-width: 0px;
      }
    </style>
  </defs>
  <g id="uuid-9046909b-fdd8-4b9a-9609-fb38b5a6eace" data-name="COLOR STORY MOOD " class="uuid-cfb4b68c-fc71-4582-b3b0-6ef9178c436f">
    <g class="uuid-cfb4b68c-fc71-4582-b3b0-6ef9178c436f">
      <path class="uuid-cf50da19-bb6b-476a-b3bd-8b5af9adf783" d="M80.25,207.63c-9.67,0-17.57-3.37-23.7-10.1-6.13-6.73-9.2-15.77-9.2-27.1s3.07-20.37,9.2-27.1c6.13-6.73,14.03-10.1,23.7-10.1,7.67,0,14.2,2.08,19.6,6.25,5.4,4.17,8.97,10.25,10.7,18.25h-8.5c-3-11.2-10.27-16.8-21.8-16.8-7.27,0-13.1,2.6-17.5,7.8-4.4,5.27-6.6,12.5-6.6,21.7s2.2,16.4,6.6,21.6c4.4,5.27,10.23,7.9,17.5,7.9,5.47,0,10.33-1.7,14.6-5.1,4.2-3.27,6.77-8.17,7.7-14.7h8.4c-.93,8.87-4.3,15.63-10.1,20.3-5.87,4.8-12.73,7.2-20.6,7.2Z"/>
      <path class="uuid-cf50da19-bb6b-476a-b3bd-8b5af9adf783" d="M176.35,197.33c-6.27,6.87-14.53,10.3-24.8,10.3s-18.5-3.43-24.7-10.3c-6.27-6.73-9.4-15.7-9.4-26.9s3.13-20.13,9.4-27c6.2-6.8,14.43-10.2,24.7-10.2s18.53,3.4,24.8,10.2c6.2,6.93,9.3,15.93,9.3,27s-3.1,20.1-9.3,26.9ZM133.15,191.93c4.6,5.33,10.73,8,18.4,8s13.8-2.67,18.4-8c4.6-5.27,6.9-12.43,6.9-21.5s-2.3-16.23-6.9-21.5c-4.6-5.33-10.73-8-18.4-8s-13.8,2.67-18.4,8c-4.6,5.27-6.9,12.43-6.9,21.5s2.3,16.23,6.9,21.5Z"/>
      <path class="uuid-cf50da19-bb6b-476a-b3bd-8b5af9adf783" d="M204.05,134.83v63.6h35.8v7.6h-44.2v-71.2h8.4Z"/>
      <path class="uuid-cf50da19-bb6b-476a-b3bd-8b5af9adf783" d="M296.25,197.33c-6.27,6.87-14.53,10.3-24.8,10.3s-18.5-3.43-24.7-10.3c-6.27-6.73-9.4-15.7-9.4-26.9s3.13-20.13,9.4-27c6.2-6.8,14.43-10.2,24.7-10.2s18.53,3.4,24.8,10.2c6.2,6.93,9.3,15.93,9.3,27s-3.1,20.1-9.3,26.9ZM253.05,191.93c4.6,5.33,10.73,8,18.4,8s13.8-2.67,18.4-8c4.6-5.27,6.9-12.43,6.9-21.5s-2.3-16.23-6.9-21.5c-4.6-5.33-10.73-8-18.4-8s-13.8,2.67-18.4,8c-4.6,5.27-6.9,12.43-6.9,21.5s2.3,16.23,6.9,21.5Z"/>
      <path class="uuid-cf50da19-bb6b-476a-b3bd-8b5af9adf783" d="M367.85,185.43l.7,11.5c.33,4,1.2,7.03,2.6,9.1h-8.7c-1.47-2.13-2.23-5.3-2.3-9.5l-.3-7.6c-.2-4.8-1.27-8.22-3.2-10.25-1.93-2.03-5.1-3.05-9.5-3.05h-23.2v30.4h-8.4v-71.2h30.1c7.33,0,13.18,1.7,17.55,5.1,4.37,3.4,6.55,8.17,6.55,14.3,0,4.33-1.05,7.98-3.15,10.95-2.1,2.97-4.95,5.05-8.55,6.25,6,1.87,9.27,6.53,9.8,14ZM323.95,168.03h22.7c4.47,0,7.98-1.15,10.55-3.45,2.57-2.3,3.85-5.58,3.85-9.85s-1.35-7.13-4.05-9.2c-2.7-2.07-6.48-3.1-11.35-3.1h-21.7v25.6Z"/>
    </g>
    <g class="uuid-cfb4b68c-fc71-4582-b3b0-6ef9178c436f">
      <path class="uuid-cf50da19-bb6b-476a-b3bd-8b5af9adf783" d="M76.45,287.63c-9.27,0-16.5-2.1-21.7-6.3-5.2-4.2-7.83-10.47-7.9-18.8h8.7c.2,11.67,7.17,17.5,20.9,17.5,5.8,0,10.25-1.13,13.35-3.4,3.1-2.27,4.65-5.57,4.65-9.9,0-3.4-1.28-6.05-3.85-7.95-2.57-1.9-7.05-3.55-13.45-4.95l-6.3-1.4c-7.2-1.67-12.6-4.08-16.2-7.25-3.6-3.17-5.4-7.62-5.4-13.35s2.2-10.18,6.6-13.55c4.4-3.37,10.3-5.05,17.7-5.05,5,0,9.35.6,13.05,1.8s6.58,2.88,8.65,5.05c2.07,2.17,3.58,4.52,4.55,7.05.97,2.54,1.48,5.33,1.55,8.4h-8.6c-.4-5.07-2.05-8.78-4.95-11.15-2.9-2.37-7.65-3.55-14.25-3.55-5,0-8.85.97-11.55,2.9-2.7,1.93-4.05,4.63-4.05,8.1s1.17,6.17,3.5,8.1c2.27,1.93,6.67,3.63,13.2,5.1l6.3,1.4c7.87,1.73,13.53,4.22,17,7.45,3.47,3.23,5.2,7.52,5.2,12.85,0,6.47-2.37,11.57-7.1,15.3-4.73,3.73-11.27,5.6-19.6,5.6Z"/>
      <path class="uuid-cf50da19-bb6b-476a-b3bd-8b5af9adf783" d="M102.65,214.83h57.1v7.6h-24.2v63.6h-8.7v-63.6h-24.2v-7.6Z"/>
      <path class="uuid-cf50da19-bb6b-476a-b3bd-8b5af9adf783" d="M217.15,277.33c-6.27,6.87-14.53,10.3-24.8,10.3s-18.5-3.43-24.7-10.3c-6.27-6.73-9.4-15.7-9.4-26.9s3.13-20.13,9.4-27c6.2-6.8,14.43-10.2,24.7-10.2s18.53,3.4,24.8,10.2c6.2,6.93,9.3,15.93,9.3,27s-3.1,20.1-9.3,26.9ZM173.95,271.93c4.6,5.33,10.73,8,18.4,8s13.8-2.67,18.4-8c4.6-5.27,6.9-12.43,6.9-21.5s-2.3-16.23-6.9-21.5c-4.6-5.33-10.73-8-18.4-8s-13.8,2.67-18.4,8c-4.6,5.27-6.9,12.43-6.9,21.5s2.3,16.23,6.9,21.5Z"/>
      <path class="uuid-cf50da19-bb6b-476a-b3bd-8b5af9adf783" d="M288.75,265.43l.7,11.5c.33,4,1.2,7.03,2.6,9.1h-8.7c-1.47-2.13-2.23-5.3-2.3-9.5l-.3-7.6c-.2-4.8-1.27-8.22-3.2-10.25-1.93-2.03-5.1-3.05-9.5-3.05h-23.2v30.4h-8.4v-71.2h30.1c7.33,0,13.18,1.7,17.55,5.1,4.37,3.4,6.55,8.17,6.55,14.3,0,4.33-1.05,7.98-3.15,10.95-2.1,2.97-4.95,5.05-8.55,6.25,6,1.87,9.27,6.53,9.8,14ZM244.85,248.03h22.7c4.47,0,7.98-1.15,10.55-3.45,2.57-2.3,3.85-5.58,3.85-9.85s-1.35-7.13-4.05-9.2c-2.7-2.07-6.48-3.1-11.35-3.1h-21.7v25.6Z"/>
      <path class="uuid-cf50da19-bb6b-476a-b3bd-8b5af9adf783" d="M332.45,231.43l10.4-16.6h9.5l-27.2,42.6v28.6h-8.4v-28.6l-27.2-42.6h9.6l10.5,16.7c4.53,7.07,8.33,13.2,11.4,18.4,4.27-7.2,8.07-13.37,11.4-18.5Z"/>
      <path class="uuid-cf50da19-bb6b-476a-b3bd-8b5af9adf783" d="M403.25,246.83h18.5v7.2h-18.5v18.5h-7.8v-18.5h-18.6v-7.2h18.6v-18.5h7.8v18.5Z"/>
    </g>
    <g class="uuid-cfb4b68c-fc71-4582-b3b0-6ef9178c436f">
      <path class="uuid-cf50da19-bb6b-476a-b3bd-8b5af9adf783" d="M94.35,334.13l15.9-39.3h11v71.2h-8.2v-22.8c0-15,.1-27.1.3-36.3-1.6,4.4-3.7,9.8-6.3,16.2l-17.6,42.9h-7.2l-17.7-42.9c-2.6-6.4-4.7-11.8-6.3-16.2.2,9.2.3,21.3.3,36.3v22.8h-8.2v-71.2h11l16.5,40.5c2.47,6.07,5.17,12.9,8.1,20.5,4.07-10.8,6.87-18.03,8.4-21.7Z"/>
      <path class="uuid-cf50da19-bb6b-476a-b3bd-8b5af9adf783" d="M190.15,357.33c-6.27,6.87-14.53,10.3-24.8,10.3s-18.5-3.43-24.7-10.3c-6.27-6.73-9.4-15.7-9.4-26.9s3.13-20.13,9.4-27c6.2-6.8,14.43-10.2,24.7-10.2s18.53,3.4,24.8,10.2c6.2,6.93,9.3,15.93,9.3,27s-3.1,20.1-9.3,26.9ZM146.95,351.93c4.6,5.33,10.73,8,18.4,8s13.8-2.67,18.4-8c4.6-5.27,6.9-12.43,6.9-21.5s-2.3-16.23-6.9-21.5c-4.6-5.33-10.73-8-18.4-8s-13.8,2.67-18.4,8c-4.6,5.27-6.9,12.43-6.9,21.5s2.3,16.23,6.9,21.5Z"/>
      <path class="uuid-cf50da19-bb6b-476a-b3bd-8b5af9adf783" d="M265.35,357.33c-6.27,6.87-14.53,10.3-24.8,10.3s-18.5-3.43-24.7-10.3c-6.27-6.73-9.4-15.7-9.4-26.9s3.13-20.13,9.4-27c6.2-6.8,14.43-10.2,24.7-10.2s18.53,3.4,24.8,10.2c6.2,6.93,9.3,15.93,9.3,27s-3.1,20.1-9.3,26.9ZM222.15,351.93c4.6,5.33,10.73,8,18.4,8s13.8-2.67,18.4-8c4.6-5.27,6.9-12.43,6.9-21.5s-2.3-16.23-6.9-21.5c-4.6-5.33-10.73-8-18.4-8s-13.8,2.67-18.4,8c-4.6,5.27-6.9,12.43-6.9,21.5s2.3,16.23,6.9,21.5Z"/>
      <path class="uuid-cf50da19-bb6b-476a-b3bd-8b5af9adf783" d="M284.65,294.83h24c10.8,0,19.33,3.13,25.6,9.4,6.2,6.27,9.3,15,9.3,26.2s-3.1,19.77-9.3,26.1c-6.33,6.33-14.87,9.5-25.6,9.5h-24v-71.2ZM293.05,358.43h15.6c8.4,0,14.85-2.47,19.35-7.4,4.5-4.93,6.75-11.8,6.75-20.6s-2.25-15.67-6.75-20.6c-4.5-4.93-10.95-7.4-19.35-7.4h-15.6v56Z"/>
    </g>
  </g>
</svg>