<?xml version="1.0" encoding="UTF-8"?>
<svg id="uuid-0e6b8e0b-ba80-4242-a523-d7ad0fe33ef6" data-name="Layer 1" xmlns="http://www.w3.org/2000/svg" viewBox="0 0 1920 417.33">
  <defs>
    <style>
      .uuid-2fcdfbd7-c5cc-4df7-bb92-d07fbd7fcca4 {
        isolation: isolate;
      }

      .uuid-25f44795-6d97-44ca-adc4-4fae029aa5b3 {
        fill: #fff;
        stroke-width: 0px;
      }
    </style>
  </defs>
  <g id="uuid-94a8c51e-ae8f-4dea-9590-727a567bab08" data-name="NYLON HOUSE KEYS " class="uuid-2fcdfbd7-c5cc-4df7-bb92-d07fbd7fcca4">
    <g class="uuid-2fcdfbd7-c5cc-4df7-bb92-d07fbd7fcca4">
      <path class="uuid-25f44795-6d97-44ca-adc4-4fae029aa5b3" d="M1611.1,166.83v-24h8.3v71.2h-10.2l-23.6-36.7c-6.8-10.8-11.73-18.83-14.8-24.1.2,9.33.3,21.6.3,36.8v24h-8.3v-71.2h10.2l23.6,36.7c6.8,10.8,11.73,18.83,14.8,24.1-.2-9.33-.3-21.6-.3-36.8Z"/>
      <path class="uuid-25f44795-6d97-44ca-adc4-4fae029aa5b3" d="M1667.3,159.43l10.4-16.6h9.5l-27.2,42.6v28.6h-8.4v-28.6l-27.2-42.6h9.6l10.5,16.7c4.53,7.07,8.33,13.2,11.4,18.4,4.27-7.2,8.07-13.37,11.4-18.5Z"/>
      <path class="uuid-25f44795-6d97-44ca-adc4-4fae029aa5b3" d="M1700.6,142.83v63.6h35.8v7.6h-44.2v-71.2h8.4Z"/>
      <path class="uuid-25f44795-6d97-44ca-adc4-4fae029aa5b3" d="M1792.8,205.33c-6.27,6.87-14.53,10.3-24.8,10.3s-18.5-3.43-24.7-10.3c-6.27-6.73-9.4-15.7-9.4-26.9s3.13-20.13,9.4-27c6.2-6.8,14.43-10.2,24.7-10.2s18.53,3.4,24.8,10.2c6.2,6.93,9.3,15.93,9.3,27s-3.1,20.1-9.3,26.9ZM1749.6,199.93c4.6,5.33,10.73,8,18.4,8s13.8-2.67,18.4-8c4.6-5.27,6.9-12.43,6.9-21.5s-2.3-16.23-6.9-21.5c-4.6-5.33-10.73-8-18.4-8s-13.8,2.67-18.4,8c-4.6,5.27-6.9,12.43-6.9,21.5s2.3,16.23,6.9,21.5Z"/>
      <path class="uuid-25f44795-6d97-44ca-adc4-4fae029aa5b3" d="M1860.4,166.83v-24h8.3v71.2h-10.2l-23.6-36.7c-6.8-10.8-11.73-18.83-14.8-24.1.2,9.33.3,21.6.3,36.8v24h-8.3v-71.2h10.2l23.6,36.7c6.8,10.8,11.73,18.83,14.8,24.1-.2-9.33-.3-21.6-.3-36.8Z"/>
    </g>
    <g class="uuid-2fcdfbd7-c5cc-4df7-bb92-d07fbd7fcca4">
      <path class="uuid-25f44795-6d97-44ca-adc4-4fae029aa5b3" d="M1610.9,253.43v-30.6h8.4v71.2h-8.4v-32.8h-39.7v32.8h-8.4v-71.2h8.4v30.6h39.7Z"/>
      <path class="uuid-25f44795-6d97-44ca-adc4-4fae029aa5b3" d="M1688.2,285.33c-6.27,6.87-14.53,10.3-24.8,10.3s-18.5-3.43-24.7-10.3c-6.27-6.73-9.4-15.7-9.4-26.9s3.13-20.13,9.4-27c6.2-6.8,14.43-10.2,24.7-10.2s18.53,3.4,24.8,10.2c6.2,6.93,9.3,15.93,9.3,27s-3.1,20.1-9.3,26.9ZM1645,279.93c4.6,5.33,10.73,8,18.4,8s13.8-2.67,18.4-8c4.6-5.27,6.9-12.43,6.9-21.5s-2.3-16.23-6.9-21.5c-4.6-5.33-10.73-8-18.4-8s-13.8,2.67-18.4,8c-4.6,5.27-6.9,12.43-6.9,21.5s2.3,16.23,6.9,21.5Z"/>
      <path class="uuid-25f44795-6d97-44ca-adc4-4fae029aa5b3" d="M1755.2,288.23c-4.87,4.87-11.77,7.3-20.7,7.3s-15.83-2.43-20.7-7.3c-4.87-4.87-7.3-11.73-7.3-20.6v-44.8h8.4v44.8c0,13.54,6.53,20.3,19.6,20.3s19.6-6.77,19.6-20.3v-44.8h8.4v44.8c0,8.87-2.43,15.73-7.3,20.6Z"/>
      <path class="uuid-25f44795-6d97-44ca-adc4-4fae029aa5b3" d="M1800.6,295.63c-9.27,0-16.5-2.1-21.7-6.3-5.2-4.2-7.83-10.47-7.9-18.8h8.7c.2,11.67,7.17,17.5,20.9,17.5,5.8,0,10.25-1.13,13.35-3.4,3.1-2.27,4.65-5.57,4.65-9.9,0-3.4-1.28-6.05-3.85-7.95-2.57-1.9-7.05-3.55-13.45-4.95l-6.3-1.4c-7.2-1.67-12.6-4.08-16.2-7.25-3.6-3.17-5.4-7.62-5.4-13.35s2.2-10.18,6.6-13.55c4.4-3.37,10.3-5.05,17.7-5.05,5,0,9.35.6,13.05,1.8s6.58,2.88,8.65,5.05c2.07,2.17,3.58,4.52,4.55,7.05.97,2.54,1.48,5.33,1.55,8.4h-8.6c-.4-5.07-2.05-8.78-4.95-11.15-2.9-2.37-7.65-3.55-14.25-3.55-5,0-8.85.97-11.55,2.9-2.7,1.93-4.05,4.63-4.05,8.1s1.17,6.17,3.5,8.1c2.27,1.93,6.67,3.63,13.2,5.1l6.3,1.4c7.87,1.73,13.53,4.22,17,7.45,3.47,3.23,5.2,7.52,5.2,12.85,0,6.47-2.37,11.57-7.1,15.3-4.73,3.73-11.27,5.6-19.6,5.6Z"/>
      <path class="uuid-25f44795-6d97-44ca-adc4-4fae029aa5b3" d="M1885.8,222.83v7.6h-41.1v22.7h37.1v7.6h-37.1v25.7h40.7v7.6h-49.1v-71.2h49.5Z"/>
    </g>
    <g class="uuid-2fcdfbd7-c5cc-4df7-bb92-d07fbd7fcca4">
      <path class="uuid-25f44795-6d97-44ca-adc4-4fae029aa5b3" d="M1610.1,302.83h11.1l-30.4,29,30.4,42.2h-10.3l-26.2-36.6-13.5,12.9v23.7h-8.4v-71.2h8.4v37.4l38.9-37.4Z"/>
      <path class="uuid-25f44795-6d97-44ca-adc4-4fae029aa5b3" d="M1677.2,302.83v7.6h-41.1v22.7h37.1v7.6h-37.1v25.7h40.7v7.6h-49.1v-71.2h49.5Z"/>
      <path class="uuid-25f44795-6d97-44ca-adc4-4fae029aa5b3" d="M1722.1,319.43l10.4-16.6h9.5l-27.2,42.6v28.6h-8.4v-28.6l-27.2-42.6h9.6l10.5,16.7c4.53,7.07,8.33,13.2,11.4,18.4,4.27-7.2,8.07-13.37,11.4-18.5Z"/>
      <path class="uuid-25f44795-6d97-44ca-adc4-4fae029aa5b3" d="M1769.1,375.63c-9.27,0-16.5-2.1-21.7-6.3-5.2-4.2-7.83-10.47-7.9-18.8h8.7c.2,11.67,7.17,17.5,20.9,17.5,5.8,0,10.25-1.13,13.35-3.4,3.1-2.27,4.65-5.57,4.65-9.9,0-3.4-1.28-6.05-3.85-7.95-2.57-1.9-7.05-3.55-13.45-4.95l-6.3-1.4c-7.2-1.67-12.6-4.08-16.2-7.25-3.6-3.17-5.4-7.62-5.4-13.35s2.2-10.18,6.6-13.55c4.4-3.37,10.3-5.05,17.7-5.05,5,0,9.35.6,13.05,1.8s6.58,2.88,8.65,5.05c2.07,2.17,3.58,4.52,4.55,7.05.97,2.54,1.48,5.33,1.55,8.4h-8.6c-.4-5.07-2.05-8.78-4.95-11.15-2.9-2.37-7.65-3.55-14.25-3.55-5,0-8.85.97-11.55,2.9-2.7,1.93-4.05,4.63-4.05,8.1s1.17,6.17,3.5,8.1c2.27,1.93,6.67,3.63,13.2,5.1l6.3,1.4c7.87,1.73,13.53,4.22,17,7.45,3.47,3.23,5.2,7.52,5.2,12.85,0,6.47-2.37,11.57-7.1,15.3-4.73,3.73-11.27,5.6-19.6,5.6Z"/>
    </g>
  </g>
</svg>