<?xml version="1.0" encoding="UTF-8"?>
<svg id="uuid-e8eae262-cf65-423c-9836-f7c1d04b7363" data-name="Layer 1" xmlns="http://www.w3.org/2000/svg" xmlns:xlink="http://www.w3.org/1999/xlink" viewBox="0 0 1920 918">
  <defs>
    <style>
      .uuid-0c601594-8b23-4a7c-a423-9d1647340523 {
        isolation: isolate;
      }

      .uuid-30490fe1-7073-4677-bc32-eab806cc37a3 {
        fill: #fff;
        stroke-width: 0px;
      }
    </style>
  </defs>
  <image width="700" height="700" transform="translate(651.43 33.96)" xlink:href="https://mylgcontent.s3.us-west-1.amazonaws.com/43-NB/00.png"/>
  <g id="uuid-c035b8c1-2049-452b-b67e-c52a88440a5d" data-name="ROLL WITH ME " class="uuid-0c601594-8b23-4a7c-a423-9d1647340523">
    <g class="uuid-0c601594-8b23-4a7c-a423-9d1647340523">
      <path class="uuid-30490fe1-7073-4677-bc32-eab806cc37a3" d="M203.4,482.6l.7,11.5c.33,4,1.2,7.03,2.6,9.1h-8.7c-1.47-2.13-2.23-5.3-2.3-9.5l-.3-7.6c-.2-4.8-1.27-8.22-3.2-10.25-1.93-2.03-5.1-3.05-9.5-3.05h-23.2v30.4h-8.4v-71.2h30.1c7.33,0,13.18,1.7,17.55,5.1,4.37,3.4,6.55,8.17,6.55,14.3,0,4.33-1.05,7.98-3.15,10.95-2.1,2.97-4.95,5.05-8.55,6.25,6,1.87,9.27,6.53,9.8,14ZM159.5,465.2h22.7c4.47,0,7.98-1.15,10.55-3.45,2.57-2.3,3.85-5.58,3.85-9.85s-1.35-7.13-4.05-9.2c-2.7-2.07-6.48-3.1-11.35-3.1h-21.7v25.6Z"/>
      <path class="uuid-30490fe1-7073-4677-bc32-eab806cc37a3" d="M271.6,494.5c-6.27,6.87-14.53,10.3-24.8,10.3s-18.5-3.43-24.7-10.3c-6.27-6.73-9.4-15.7-9.4-26.9s3.13-20.13,9.4-27c6.2-6.8,14.43-10.2,24.7-10.2s18.53,3.4,24.8,10.2c6.2,6.93,9.3,15.93,9.3,27s-3.1,20.1-9.3,26.9ZM228.4,489.1c4.6,5.33,10.73,8,18.4,8s13.8-2.67,18.4-8c4.6-5.27,6.9-12.43,6.9-21.5s-2.3-16.23-6.9-21.5c-4.6-5.33-10.73-8-18.4-8s-13.8,2.67-18.4,8c-4.6,5.27-6.9,12.43-6.9,21.5s2.3,16.23,6.9,21.5Z"/>
      <path class="uuid-30490fe1-7073-4677-bc32-eab806cc37a3" d="M299.3,432v63.6h35.8v7.6h-44.2v-71.2h8.4Z"/>
      <path class="uuid-30490fe1-7073-4677-bc32-eab806cc37a3" d="M352,432v63.6h35.8v7.6h-44.2v-71.2h8.4Z"/>
      <path class="uuid-30490fe1-7073-4677-bc32-eab806cc37a3" d="M484.5,467.1l9.7-35.1h8.7l-20.2,71.2h-9.4l-10.2-36.3c-2.87-10.27-5.03-18.3-6.5-24.1-1.47,5.8-3.63,13.83-6.5,24.1l-10.2,36.3h-9.4l-20.2-71.2h8.7l9.7,35.1c3.07,10.87,5.3,19.37,6.7,25.5,2.33-8.93,4.6-17.5,6.8-25.7l9.7-34.9h9.4l9.7,34.9c2.27,8.2,4.53,16.77,6.8,25.7,1.4-6.13,3.63-14.63,6.7-25.5Z"/>
      <path class="uuid-30490fe1-7073-4677-bc32-eab806cc37a3" d="M519.3,503.2h-8.4v-71.2h8.4v71.2Z"/>
      <path class="uuid-30490fe1-7073-4677-bc32-eab806cc37a3" d="M526.8,432h57.1v7.6h-24.2v63.6h-8.7v-63.6h-24.2v-7.6Z"/>
      <path class="uuid-30490fe1-7073-4677-bc32-eab806cc37a3" d="M639.5,462.6v-30.6h8.4v71.2h-8.4v-32.8h-39.7v32.8h-8.4v-71.2h8.4v30.6h39.7Z"/>
      <path class="uuid-30490fe1-7073-4677-bc32-eab806cc37a3" d="M723.9,471.3l15.9-39.3h11v71.2h-8.2v-22.8c0-15,.1-27.1.3-36.3-1.6,4.4-3.7,9.8-6.3,16.2l-17.6,42.9h-7.2l-17.7-42.9c-2.6-6.4-4.7-11.8-6.3-16.2.2,9.2.3,21.3.3,36.3v22.8h-8.2v-71.2h11l16.5,40.5c2.47,6.07,5.17,12.9,8.1,20.5,4.07-10.8,6.87-18.03,8.4-21.7Z"/>
      <path class="uuid-30490fe1-7073-4677-bc32-eab806cc37a3" d="M813.29,432v7.6h-41.1v22.7h37.1v7.6h-37.1v25.7h40.7v7.6h-49.1v-71.2h49.5Z"/>
    </g>
  </g>
  <g id="uuid-54571b91-023b-4f9b-939f-7ce4fc06ef5e" data-name=" 2019 TOUR" class="uuid-0c601594-8b23-4a7c-a423-9d1647340523">
    <g class="uuid-0c601594-8b23-4a7c-a423-9d1647340523">
      <path class="uuid-30490fe1-7073-4677-bc32-eab806cc37a3" d="M1268.37,338.71h37.6v7.6h-47l.2-3.9c.4-5.87,1.73-10.9,4-15.1,2.27-4.2,6.1-7.87,11.5-11l9-5.2c4.53-2.67,7.75-5.27,9.65-7.8,1.9-2.53,2.85-5.6,2.85-9.2,0-3.93-1.25-7.08-3.75-9.45-2.5-2.37-5.95-3.55-10.35-3.55-9.93,0-14.9,5.1-14.9,15.3h-8.3c-.07-7.27,1.97-12.9,6.1-16.9,4.13-4,9.9-6,17.3-6,6.73,0,12.2,1.9,16.4,5.7,4.2,3.93,6.3,8.9,6.3,14.9,0,9.2-5.4,16.93-16.2,23.2l-7.6,4.4c-4.4,2.67-7.57,5.25-9.5,7.75s-3.03,5.58-3.3,9.25Z"/>
      <path class="uuid-30490fe1-7073-4677-bc32-eab806cc37a3" d="M1357.67,338.31c-4.33,6.4-10.77,9.6-19.3,9.6s-15.03-3.2-19.3-9.6c-4.33-6.47-6.5-15.67-6.5-27.6s2.17-21.13,6.5-27.6c4.27-6.4,10.7-9.6,19.3-9.6s14.97,3.2,19.3,9.6c4.33,6.47,6.5,15.67,6.5,27.6s-2.17,21.13-6.5,27.6ZM1338.37,281.11c-11.33,0-17,9.87-17,29.6s5.67,29.6,17,29.6,17-9.87,17-29.6-5.67-29.6-17-29.6Z"/>
      <path class="uuid-30490fe1-7073-4677-bc32-eab806cc37a3" d="M1388.57,275.11h6.8v71.2h-8.4v-53.1h-16.2v-6.6l1.6-.1c5.07-.33,8.83-1.33,11.3-3,2.47-1.67,4.1-4.47,4.9-8.4Z"/>
      <path class="uuid-30490fe1-7073-4677-bc32-eab806cc37a3" d="M1446.57,279.31c3.87,3.13,6.6,7.28,8.2,12.45,1.6,5.17,2.4,11.65,2.4,19.45,0,11.73-2.25,20.92-6.75,27.55-4.5,6.63-10.92,9.95-19.25,9.95-6.4,0-11.7-1.7-15.9-5.1-4.2-3.4-6.83-8.1-7.9-14.1h8.2c.8,3.73,2.55,6.6,5.25,8.6s6.15,3,10.35,3c11.53,0,17.4-9.5,17.6-28.5-1.93,2.87-4.58,5.2-7.95,7-3.37,1.8-6.75,2.7-10.15,2.7-7.47,0-13.37-2.27-17.7-6.8-4.4-4.53-6.6-10.27-6.6-17.2s2.23-12.73,6.7-17.2c4.4-4.53,10.33-6.8,17.8-6.8,6.2,0,11.43,1.67,15.7,5ZM1419.57,310.11c2.87,3.07,6.63,4.6,11.3,4.6s8.4-1.53,11.4-4.6c3-3,4.5-6.93,4.5-11.8s-1.5-8.77-4.5-11.9c-3-3-6.8-4.5-11.4-4.5s-8.43,1.54-11.3,4.6c-2.93,3.13-4.4,7.07-4.4,11.8s1.47,8.67,4.4,11.8Z"/>
      <path class="uuid-30490fe1-7073-4677-bc32-eab806cc37a3" d="M1483.17,275.11h57.1v7.6h-24.2v63.6h-8.7v-63.6h-24.2v-7.6Z"/>
      <path class="uuid-30490fe1-7073-4677-bc32-eab806cc37a3" d="M1597.67,337.61c-6.27,6.87-14.53,10.3-24.8,10.3s-18.5-3.43-24.7-10.3c-6.27-6.73-9.4-15.7-9.4-26.9s3.13-20.13,9.4-27c6.2-6.8,14.43-10.2,24.7-10.2s18.53,3.4,24.8,10.2c6.2,6.93,9.3,15.93,9.3,27s-3.1,20.1-9.3,26.9ZM1554.46,332.21c4.6,5.33,10.73,8,18.4,8s13.8-2.67,18.4-8c4.6-5.27,6.9-12.43,6.9-21.5s-2.3-16.23-6.9-21.5c-4.6-5.33-10.73-8-18.4-8s-13.8,2.67-18.4,8c-4.6,5.27-6.9,12.43-6.9,21.5s2.3,16.23,6.9,21.5Z"/>
      <path class="uuid-30490fe1-7073-4677-bc32-eab806cc37a3" d="M1664.67,340.51c-4.87,4.87-11.77,7.3-20.7,7.3s-15.83-2.43-20.7-7.3c-4.87-4.87-7.3-11.73-7.3-20.6v-44.8h8.4v44.8c0,13.54,6.53,20.3,19.6,20.3s19.6-6.77,19.6-20.3v-44.8h8.4v44.8c0,8.87-2.43,15.73-7.3,20.6Z"/>
      <path class="uuid-30490fe1-7073-4677-bc32-eab806cc37a3" d="M1736.26,325.71l.7,11.5c.33,4,1.2,7.03,2.6,9.1h-8.7c-1.47-2.13-2.23-5.3-2.3-9.5l-.3-7.6c-.2-4.8-1.27-8.22-3.2-10.25-1.93-2.03-5.1-3.05-9.5-3.05h-23.2v30.4h-8.4v-71.2h30.1c7.33,0,13.18,1.7,17.55,5.1,4.37,3.4,6.55,8.17,6.55,14.3,0,4.33-1.05,7.98-3.15,10.95-2.1,2.97-4.95,5.05-8.55,6.25,6,1.87,9.27,6.53,9.8,14ZM1692.36,308.31h22.7c4.47,0,7.98-1.15,10.55-3.45s3.85-5.58,3.85-9.85-1.35-7.13-4.05-9.2c-2.7-2.07-6.48-3.1-11.35-3.1h-21.7v25.6Z"/>
    </g>
  </g>
</svg>