<?xml version="1.0" encoding="UTF-8"?>
<svg id="uuid-1f18cbe0-a337-4e10-b754-375fb5c61841" data-name="uuid-72595669-e374-4c27-8906-8e23e14b2603" xmlns="http://www.w3.org/2000/svg" viewBox="0 0 1920 423">
  <defs>
    <style>
      .uuid-6855f8e5-9c29-49bc-8c8e-691b456e47c1 {
        isolation: isolate;
      }

      .uuid-65abf5a9-61a9-4380-a2c1-7047e153e256 {
        fill: #fff;
        stroke-width: 0px;
      }
    </style>
  </defs>
  <g id="uuid-2a1d8eae-3a60-4d08-92b8-069624eafb2c" data-name="STAGE CONCEPT " class="uuid-6855f8e5-9c29-49bc-8c8e-691b456e47c1">
    <g class="uuid-6855f8e5-9c29-49bc-8c8e-691b456e47c1">
      <path class="uuid-65abf5a9-61a9-4380-a2c1-7047e153e256" d="M98.55,278.3c-9.27,0-16.5-2.1-21.7-6.3-5.2-4.2-7.83-10.47-7.9-18.8h8.7c.2,11.67,7.17,17.5,20.9,17.5,5.8,0,10.25-1.13,13.35-3.4,3.1-2.27,4.65-5.57,4.65-9.9,0-3.4-1.28-6.05-3.85-7.95-2.57-1.9-7.05-3.55-13.45-4.95l-6.3-1.4c-7.2-1.67-12.6-4.08-16.2-7.25-3.6-3.17-5.4-7.62-5.4-13.35s2.2-10.18,6.6-13.55c4.4-3.37,10.3-5.05,17.7-5.05,5,0,9.35.6,13.05,1.8s6.58,2.88,8.65,5.05c2.07,2.17,3.58,4.52,4.55,7.05.97,2.54,1.48,5.33,1.55,8.4h-8.6c-.4-5.07-2.05-8.78-4.95-11.15-2.9-2.37-7.65-3.55-14.25-3.55-5,0-8.85.97-11.55,2.9-2.7,1.93-4.05,4.63-4.05,8.1s1.17,6.17,3.5,8.1c2.27,1.93,6.67,3.63,13.2,5.1l6.3,1.4c7.87,1.73,13.53,4.22,17,7.45,3.47,3.23,5.2,7.52,5.2,12.85,0,6.47-2.37,11.57-7.1,15.3-4.73,3.73-11.27,5.6-19.6,5.6Z"/>
      <path class="uuid-65abf5a9-61a9-4380-a2c1-7047e153e256" d="M124.75,205.5h57.1v7.6h-24.2v63.6h-8.7v-63.6h-24.2v-7.6Z"/>
      <path class="uuid-65abf5a9-61a9-4380-a2c1-7047e153e256" d="M237.45,276.7h-8.9l-8.3-20.7h-32.4l-8.2,20.7h-8.8l28.4-71.2h9.4l28.8,71.2ZM191.15,247.6l-.3.8h26.4l-.4-.9c-1.67-4.07-6-15.03-13-32.9-4.73,12.67-8.97,23.67-12.7,33Z"/>
      <path class="uuid-65abf5a9-61a9-4380-a2c1-7047e153e256" d="M271.85,247.7v-7.6h30.3v36.6h-6.9l-1.8-9.6c-5.27,7.47-13.03,11.2-23.3,11.2s-18.33-3.43-24.4-10.3c-6.2-6.8-9.3-15.77-9.3-26.9s3.07-20.07,9.2-27c6.07-6.8,14.27-10.2,24.6-10.2,8.47,0,15.47,2.27,21,6.8,5.53,4.53,8.9,10.57,10.1,18.1h-8.7c-.87-5.27-3.4-9.46-7.6-12.6-4.07-3.07-9-4.6-14.8-4.6-7.6,0-13.67,2.67-18.2,8-4.53,5.33-6.8,12.5-6.8,21.5s2.27,16.17,6.8,21.5c4.53,5.33,10.6,8,18.2,8,6.73,0,12.47-2.17,17.2-6.5,4.73-4.33,7.1-9.8,7.1-16.4h-22.7Z"/>
      <path class="uuid-65abf5a9-61a9-4380-a2c1-7047e153e256" d="M363.65,205.5v7.6h-41.1v22.7h37.1v7.6h-37.1v25.7h40.7v7.6h-49.1v-71.2h49.5Z"/>
    </g>
    <g class="uuid-6855f8e5-9c29-49bc-8c8e-691b456e47c1">
      <path class="uuid-65abf5a9-61a9-4380-a2c1-7047e153e256" d="M102.35,358.3c-9.67,0-17.57-3.37-23.7-10.1-6.13-6.73-9.2-15.77-9.2-27.1s3.07-20.37,9.2-27.1c6.13-6.73,14.03-10.1,23.7-10.1,7.67,0,14.2,2.08,19.6,6.25,5.4,4.17,8.97,10.25,10.7,18.25h-8.5c-3-11.2-10.27-16.8-21.8-16.8-7.27,0-13.1,2.6-17.5,7.8-4.4,5.27-6.6,12.5-6.6,21.7s2.2,16.4,6.6,21.6c4.4,5.27,10.23,7.9,17.5,7.9,5.47,0,10.33-1.7,14.6-5.1,4.2-3.27,6.77-8.17,7.7-14.7h8.4c-.93,8.87-4.3,15.63-10.1,20.3-5.87,4.8-12.73,7.2-20.6,7.2Z"/>
      <path class="uuid-65abf5a9-61a9-4380-a2c1-7047e153e256" d="M198.45,348c-6.27,6.87-14.53,10.3-24.8,10.3s-18.5-3.43-24.7-10.3c-6.27-6.73-9.4-15.7-9.4-26.9s3.13-20.13,9.4-27c6.2-6.8,14.43-10.2,24.7-10.2s18.53,3.4,24.8,10.2c6.2,6.93,9.3,15.93,9.3,27s-3.1,20.1-9.3,26.9ZM155.25,342.6c4.6,5.33,10.73,8,18.4,8s13.8-2.67,18.4-8c4.6-5.27,6.9-12.43,6.9-21.5s-2.3-16.23-6.9-21.5c-4.6-5.33-10.73-8-18.4-8s-13.8,2.67-18.4,8c-4.6,5.27-6.9,12.43-6.9,21.5s2.3,16.23,6.9,21.5Z"/>
      <path class="uuid-65abf5a9-61a9-4380-a2c1-7047e153e256" d="M266.05,309.5v-24h8.3v71.2h-10.2l-23.6-36.7c-6.8-10.8-11.73-18.83-14.8-24.1.2,9.33.3,21.6.3,36.8v24h-8.3v-71.2h10.2l23.6,36.7c6.8,10.8,11.73,18.83,14.8,24.1-.2-9.33-.3-21.6-.3-36.8Z"/>
      <path class="uuid-65abf5a9-61a9-4380-a2c1-7047e153e256" d="M317.25,358.3c-9.67,0-17.57-3.37-23.7-10.1-6.13-6.73-9.2-15.77-9.2-27.1s3.07-20.37,9.2-27.1c6.13-6.73,14.03-10.1,23.7-10.1,7.67,0,14.2,2.08,19.6,6.25,5.4,4.17,8.97,10.25,10.7,18.25h-8.5c-3-11.2-10.27-16.8-21.8-16.8-7.27,0-13.1,2.6-17.5,7.8-4.4,5.27-6.6,12.5-6.6,21.7s2.2,16.4,6.6,21.6c4.4,5.27,10.23,7.9,17.5,7.9,5.47,0,10.33-1.7,14.6-5.1,4.2-3.27,6.77-8.17,7.7-14.7h8.4c-.93,8.87-4.3,15.63-10.1,20.3-5.87,4.8-12.73,7.2-20.6,7.2Z"/>
      <path class="uuid-65abf5a9-61a9-4380-a2c1-7047e153e256" d="M406.95,285.5v7.6h-41.1v22.7h37.1v7.6h-37.1v25.7h40.7v7.6h-49.1v-71.2h49.5Z"/>
      <path class="uuid-65abf5a9-61a9-4380-a2c1-7047e153e256" d="M415.95,285.5h29.6c7.53,0,13.35,1.97,17.45,5.9,4.1,3.93,6.15,9.27,6.15,16s-2.05,12.07-6.15,16c-4.1,3.93-9.92,5.9-17.45,5.9h-21.2v27.4h-8.4v-71.2ZM424.35,321.7h21.2c4.93,0,8.65-1.22,11.15-3.65,2.5-2.43,3.75-5.98,3.75-10.65s-1.25-8.22-3.75-10.65c-2.5-2.43-6.22-3.65-11.15-3.65h-21.2v28.6Z"/>
      <path class="uuid-65abf5a9-61a9-4380-a2c1-7047e153e256" d="M469.55,285.5h57.1v7.6h-24.2v63.6h-8.7v-63.6h-24.2v-7.6Z"/>
    </g>
  </g>
</svg>