<?xml version="1.0" encoding="UTF-8"?>
<svg id="uuid-1fec328c-2232-4cc4-abef-12486f826f2e" data-name="uuid-72595669-e374-4c27-8906-8e23e14b2603" xmlns="http://www.w3.org/2000/svg" viewBox="0 0 1920 423">
  <defs>
    <style>
      .uuid-0f0676a2-b95c-4b8c-a424-5b9c88ae29d4 {
        isolation: isolate;
      }

      .uuid-26131f97-eaf5-4269-bfc9-fc5c63a0813f {
        fill: #fff;
        stroke-width: 0px;
      }
    </style>
  </defs>
  <g id="uuid-ece8c134-7ffd-4374-898a-427446da81a1" data-name="CREATIVE DETAILS" class="uuid-0f0676a2-b95c-4b8c-a424-5b9c88ae29d4">
    <g class="uuid-0f0676a2-b95c-4b8c-a424-5b9c88ae29d4">
      <path class="uuid-26131f97-eaf5-4269-bfc9-fc5c63a0813f" d="M1438.83,276.97c-9.67,0-17.57-3.37-23.7-10.1-6.13-6.73-9.2-15.77-9.2-27.1s3.07-20.37,9.2-27.1c6.13-6.73,14.03-10.1,23.7-10.1,7.67,0,14.2,2.08,19.6,6.25,5.4,4.17,8.97,10.25,10.7,18.25h-8.5c-3-11.2-10.27-16.8-21.8-16.8-7.27,0-13.1,2.6-17.5,7.8-4.4,5.27-6.6,12.5-6.6,21.7s2.2,16.4,6.6,21.6c4.4,5.27,10.23,7.9,17.5,7.9,5.47,0,10.33-1.7,14.6-5.1,4.2-3.27,6.77-8.17,7.7-14.7h8.4c-.93,8.87-4.3,15.63-10.1,20.3-5.87,4.8-12.73,7.2-20.6,7.2Z"/>
      <path class="uuid-26131f97-eaf5-4269-bfc9-fc5c63a0813f" d="M1531.33,254.77l.7,11.5c.33,4,1.2,7.03,2.6,9.1h-8.7c-1.47-2.13-2.23-5.3-2.3-9.5l-.3-7.6c-.2-4.8-1.27-8.22-3.2-10.25-1.93-2.03-5.1-3.05-9.5-3.05h-23.2v30.4h-8.4v-71.2h30.1c7.33,0,13.18,1.7,17.55,5.1,4.37,3.4,6.55,8.17,6.55,14.3,0,4.33-1.05,7.98-3.15,10.95-2.1,2.97-4.95,5.05-8.55,6.25,6,1.87,9.27,6.53,9.8,14ZM1487.43,237.37h22.7c4.46,0,7.98-1.15,10.55-3.45,2.57-2.3,3.85-5.58,3.85-9.85s-1.35-7.13-4.05-9.2c-2.7-2.07-6.48-3.1-11.35-3.1h-21.7v25.6Z"/>
      <path class="uuid-26131f97-eaf5-4269-bfc9-fc5c63a0813f" d="M1593.13,204.17v7.6h-41.1v22.7h37.1v7.6h-37.1v25.7h40.7v7.6h-49.1v-71.2h49.5Z"/>
      <path class="uuid-26131f97-eaf5-4269-bfc9-fc5c63a0813f" d="M1662.23,275.37h-8.9l-8.3-20.7h-32.4l-8.2,20.7h-8.8l28.4-71.2h9.4l28.8,71.2ZM1615.93,246.27l-.3.8h26.4l-.4-.9c-1.67-4.07-6-15.03-13-32.9-4.73,12.67-8.97,23.67-12.7,33Z"/>
      <path class="uuid-26131f97-eaf5-4269-bfc9-fc5c63a0813f" d="M1651.23,204.17h57.1v7.6h-24.2v63.6h-8.7v-63.6h-24.2v-7.6Z"/>
      <path class="uuid-26131f97-eaf5-4269-bfc9-fc5c63a0813f" d="M1724.23,275.37h-8.4v-71.2h8.4v71.2Z"/>
      <path class="uuid-26131f97-eaf5-4269-bfc9-fc5c63a0813f" d="M1768.83,249.27l16.2-45.1h8.8l-26.4,71.2h-9.4l-26.8-71.2h8.9l16.5,45.1c3,8.47,5.03,14.37,6.1,17.7,1-3.33,3.03-9.23,6.1-17.7Z"/>
      <path class="uuid-26131f97-eaf5-4269-bfc9-fc5c63a0813f" d="M1850.33,204.17v7.6h-41.1v22.7h37.1v7.6h-37.1v25.7h40.7v7.6h-49.1v-71.2h49.5Z"/>
    </g>
    <g class="uuid-0f0676a2-b95c-4b8c-a424-5b9c88ae29d4">
      <path class="uuid-26131f97-eaf5-4269-bfc9-fc5c63a0813f" d="M1408.93,284.17h24c10.8,0,19.33,3.13,25.6,9.4,6.2,6.27,9.3,15,9.3,26.2s-3.1,19.77-9.3,26.1c-6.33,6.33-14.87,9.5-25.6,9.5h-24v-71.2ZM1417.33,347.77h15.6c8.4,0,14.85-2.47,19.35-7.4,4.5-4.93,6.75-11.8,6.75-20.6s-2.25-15.67-6.75-20.6c-4.5-4.93-10.95-7.4-19.35-7.4h-15.6v56Z"/>
      <path class="uuid-26131f97-eaf5-4269-bfc9-fc5c63a0813f" d="M1527.33,284.17v7.6h-41.1v22.7h37.1v7.6h-37.1v25.7h40.7v7.6h-49.1v-71.2h49.5Z"/>
      <path class="uuid-26131f97-eaf5-4269-bfc9-fc5c63a0813f" d="M1531.33,284.17h57.1v7.6h-24.2v63.6h-8.7v-63.6h-24.2v-7.6Z"/>
      <path class="uuid-26131f97-eaf5-4269-bfc9-fc5c63a0813f" d="M1644.04,355.37h-8.9l-8.3-20.7h-32.4l-8.2,20.7h-8.8l28.4-71.2h9.4l28.8,71.2ZM1597.73,326.27l-.3.8h26.4l-.4-.9c-1.67-4.07-6-15.03-13-32.9-4.73,12.67-8.97,23.67-12.7,33Z"/>
      <path class="uuid-26131f97-eaf5-4269-bfc9-fc5c63a0813f" d="M1658.44,355.37h-8.4v-71.2h8.4v71.2Z"/>
      <path class="uuid-26131f97-eaf5-4269-bfc9-fc5c63a0813f" d="M1679.83,284.17v63.6h35.8v7.6h-44.2v-71.2h8.4Z"/>
      <path class="uuid-26131f97-eaf5-4269-bfc9-fc5c63a0813f" d="M1746.24,356.97c-9.27,0-16.5-2.1-21.7-6.3s-7.83-10.47-7.9-18.8h8.7c.2,11.67,7.17,17.5,20.9,17.5,5.8,0,10.25-1.13,13.35-3.4,3.1-2.27,4.65-5.57,4.65-9.9,0-3.4-1.29-6.05-3.85-7.95-2.57-1.9-7.05-3.55-13.45-4.95l-6.3-1.4c-7.2-1.67-12.6-4.08-16.2-7.25-3.6-3.17-5.4-7.62-5.4-13.35s2.2-10.18,6.6-13.55c4.4-3.37,10.3-5.05,17.7-5.05,5,0,9.35.6,13.05,1.8s6.58,2.88,8.65,5.05c2.07,2.17,3.58,4.52,4.55,7.05.97,2.54,1.48,5.33,1.55,8.4h-8.6c-.4-5.07-2.05-8.78-4.95-11.15-2.9-2.37-7.65-3.55-14.25-3.55-5,0-8.85.97-11.55,2.9-2.7,1.93-4.05,4.63-4.05,8.1s1.17,6.17,3.5,8.1c2.27,1.93,6.67,3.63,13.2,5.1l6.3,1.4c7.87,1.73,13.53,4.22,17,7.45,3.46,3.23,5.2,7.52,5.2,12.85,0,6.47-2.37,11.57-7.1,15.3-4.73,3.73-11.27,5.6-19.6,5.6Z"/>
    </g>
  </g>
</svg>