<?xml version="1.0" encoding="UTF-8"?>
<svg id="uuid-c2258de2-4ffd-4943-9711-42bc5e330933" data-name="Layer 1" xmlns="http://www.w3.org/2000/svg" viewBox="0 0 1923 325.02">
  <defs>
    <style>
      .uuid-817cf4ed-3841-4614-a261-f9022c495484 {
        fill: #fff;
        stroke-width: 0px;
      }

           .st4{fill:#FFFFFF;}
	.st3{fill:#FFFFFF;}
    </style>
  </defs>
  <g>
    <polygon class="st4" points="558.57 204.42 540.69 204.42 595.89 111.89 613.77 111.89 558.57 204.42"/>
    <polygon class="st4" points="606.68 204.42 588.8 204.42 644 111.89 661.88 111.89 606.68 204.42"/>
    <polygon class="st4" points="654.78 204.42 636.91 204.42 692.11 111.89 709.99 111.89 654.78 204.42"/>
    <polygon class="st4" points="702.89 204.42 685.01 204.42 740.22 111.89 758.09 111.89 702.89 204.42"/>
    <polygon class="st4" points="751 204.42 733.12 204.42 788.32 111.89 806.2 111.89 751 204.42"/>
    <polygon class="st4" points="799.11 204.42 781.23 204.42 836.43 111.89 854.31 111.89 799.11 204.42"/>
  </g>
  <polygon class="uuid-817cf4ed-3841-4614-a261-f9022c495484" points="43 6.5 43 13 14.68 13 14.68 41.32 8.18 41.32 8.18 6.5 43 6.5"/>
  <polygon class="uuid-817cf4ed-3841-4614-a261-f9022c495484" points="1881.65 7.5 1881.65 14 1909.97 14 1909.97 42.32 1916.47 42.32 1916.47 7.5 1881.65 7.5"/>
  <polygon class="uuid-817cf4ed-3841-4614-a261-f9022c495484" points="42.33 319.44 42.33 312.95 14.01 312.95 14.01 284.62 7.51 284.62 7.51 319.44 42.33 319.44"/>
  <polygon class="uuid-817cf4ed-3841-4614-a261-f9022c495484" points="1881.65 318.44 1881.65 311.95 1909.97 311.95 1909.97 283.62 1916.47 283.62 1916.47 318.44 1881.65 318.44"/>
  <g>
    <rect class="uuid-817cf4ed-3841-4614-a261-f9022c495484" x="1680.87" y="73.09" width="2.15" height="50.44"/>
    <rect class="uuid-817cf4ed-3841-4614-a261-f9022c495484" x="1689.48" y="73.09" width="4.3" height="50.44"/>
    <rect class="uuid-817cf4ed-3841-4614-a261-f9022c495484" x="1700.23" y="73.09" width="2.15" height="50.44"/>
    <rect class="uuid-817cf4ed-3841-4614-a261-f9022c495484" x="1704.53" y="73.09" width="2.15" height="50.44"/>
    <rect class="uuid-817cf4ed-3841-4614-a261-f9022c495484" x="1715.28" y="73.09" width="2.15" height="50.44"/>
    <rect class="uuid-817cf4ed-3841-4614-a261-f9022c495484" x="1719.58" y="73.09" width="8.6" height="50.44"/>
    <rect class="uuid-817cf4ed-3841-4614-a261-f9022c495484" x="1730.34" y="73.09" width="2.15" height="50.44"/>
    <rect class="uuid-817cf4ed-3841-4614-a261-f9022c495484" x="1734.64" y="73.09" width="2.15" height="50.44"/>
    <rect class="uuid-817cf4ed-3841-4614-a261-f9022c495484" x="1743.24" y="73.09" width="4.3" height="50.44"/>
    <rect class="uuid-817cf4ed-3841-4614-a261-f9022c495484" x="1749.69" y="73.09" width="6.45" height="50.44"/>
    <rect class="uuid-817cf4ed-3841-4614-a261-f9022c495484" x="1760.44" y="73.09" width="2.15" height="50.44"/>
    <rect class="uuid-817cf4ed-3841-4614-a261-f9022c495484" x="1764.74" y="73.09" width="2.15" height="50.44"/>
    <rect class="uuid-817cf4ed-3841-4614-a261-f9022c495484" x="1775.5" y="73.09" width="2.15" height="50.44"/>
    <rect class="uuid-817cf4ed-3841-4614-a261-f9022c495484" x="1779.8" y="73.09" width="2.15" height="50.44"/>
    <rect class="uuid-817cf4ed-3841-4614-a261-f9022c495484" x="1784.1" y="73.09" width="2.15" height="50.44"/>
    <rect class="uuid-817cf4ed-3841-4614-a261-f9022c495484" x="1788.4" y="73.09" width="2.15" height="50.44"/>
    <rect class="uuid-817cf4ed-3841-4614-a261-f9022c495484" x="1792.7" y="73.09" width="6.45" height="50.44"/>
    <rect class="uuid-817cf4ed-3841-4614-a261-f9022c495484" x="1803.45" y="73.09" width="2.15" height="50.44"/>
    <rect class="uuid-817cf4ed-3841-4614-a261-f9022c495484" x="1809.91" y="73.09" width="6.45" height="50.44"/>
    <rect class="uuid-817cf4ed-3841-4614-a261-f9022c495484" x="1818.51" y="73.09" width="4.3" height="50.44"/>
    <rect class="uuid-817cf4ed-3841-4614-a261-f9022c495484" x="1824.96" y="73.09" width="4.3" height="50.44"/>
    <rect class="uuid-817cf4ed-3841-4614-a261-f9022c495484" x="1833.56" y="73.09" width="2.15" height="50.44"/>
    <rect class="uuid-817cf4ed-3841-4614-a261-f9022c495484" x="1840.01" y="73.09" width="6.45" height="50.44"/>
    <rect class="uuid-817cf4ed-3841-4614-a261-f9022c495484" x="1848.62" y="73.09" width="2.15" height="50.44"/>
    <rect class="uuid-817cf4ed-3841-4614-a261-f9022c495484" x="1859.37" y="73.09" width="2.15" height="50.44"/>
    <rect class="uuid-817cf4ed-3841-4614-a261-f9022c495484" x="1863.67" y="73.09" width="6.45" height="50.44"/>
    <rect class="uuid-817cf4ed-3841-4614-a261-f9022c495484" x="1874.42" y="73.09" width="2.15" height="50.44"/>
    <rect class="uuid-817cf4ed-3841-4614-a261-f9022c495484" x="1878.72" y="73.09" width="2.15" height="50.44"/>
    <rect class="uuid-817cf4ed-3841-4614-a261-f9022c495484" x="1883.03" y="73.09" width="2.15" height="50.44"/>
  </g>
  <g>
    <path class="st3" d="M43.97,64.9h13.83v16h.12l12.33-16h17.07l-16.3,18.09,18.94,28.31h-17.25l-11.1-18.06-3.81,4.35v13.71h-13.83v-46.4Z"/>
    <path class="st3" d="M94.53,98.48h13.07v12.82h-13.07v-12.82Z"/>
    <path class="st3" d="M115.79,64.9h19.71l6.43,27.3h.12l6.43-27.3h19.68v46.4h-13.07v-29.77h-.15l-7.79,29.77h-10.34l-7.82-29.77h-.12v29.77h-13.07v-46.4Z"/>
    <path class="st3" d="M177.21,64.9h13.83v46.4h-13.83v-46.4Z"/>
    <path class="st3" d="M227.15,82.18c-.04-.49-.16-1.12-.37-1.91-.25-.74-.63-1.47-1.14-2.2-.49-.83-1.21-1.51-2.15-2.04-.92-.47-2.11-.7-3.57-.7-3.15.08-5.38,1.43-6.67,4.04-1.31,2.55-1.95,5.45-1.91,8.72-.04,3.27.59,6.17,1.91,8.72,1.29,2.65,3.52,4,6.67,4.04,2.3,0,4.02-.75,5.17-2.26,1.09-1.44,1.79-3.27,2.12-5.47h13.62c-.04,4.88-1.8,9.25-5.29,13.1-3.48,4-8.57,6.06-15.25,6.18-7.26-.08-12.86-2.44-16.82-7.08-3.98-4.51-5.96-10.25-5.96-17.23.04-7.45,2.11-13.34,6.21-17.68,4.04-4.38,9.56-6.59,16.57-6.63,12.34.34,19.12,6.47,20.35,18.39h-13.5Z"/>
    <path class="st3" d="M247.28,64.9h13.84v16.13h13.88v-16.13h13.83v46.4h-13.83v-18.41h-13.88v18.41h-13.84v-46.4Z"/>
    <path class="st3" d="M297.5,64.9h37.19v11.87h-23.35v5.81h21.2v11.04h-21.2v5.81h24.06v11.87h-37.89v-46.4Z"/>
    <path class="st3" d="M343.26,64.9h13.83v34.53h19.88v11.87h-33.71v-46.4Z"/>
    <path class="st3" d="M384.2,64.9h13.83v34.53h19.88v11.87h-33.71v-46.4Z"/>
    <path class="st3" d="M425.15,64.9h37.19v11.87h-23.35v5.81h21.2v11.04h-21.2v5.81h24.06v11.87h-37.89v-46.4Z"/>
    <path class="st3" d="M42.26,160.1c.04-7.24,2.16-13.07,6.37-17.49,4.06-4.46,9.53-6.74,16.42-6.82,6.97.08,12.49,2.36,16.57,6.82,4.1,4.42,6.17,10.25,6.21,17.49-.04,7.19-2.11,13-6.21,17.42-4.08,4.51-9.6,6.8-16.57,6.89-6.89-.08-12.36-2.38-16.42-6.89-4.2-4.42-6.32-10.23-6.37-17.42ZM56.09,160.1c0,2.53.32,4.61.95,6.27.59,1.68,1.35,2.99,2.28,3.95,1.93,1.74,3.84,2.59,5.72,2.55.88,0,1.87-.19,2.95-.57,1.05-.4,2.01-1.06,2.89-1.97.94-.96,1.7-2.27,2.28-3.95.55-1.66.83-3.74.83-6.27s-.28-4.76-.83-6.46c-.57-1.7-1.33-2.98-2.28-3.85-1.97-1.7-3.92-2.51-5.85-2.45-.88,0-1.83.15-2.83.45-1.01.38-1.97,1.05-2.89,2-.43.45-.83.98-1.2,1.59-.39.64-.75,1.39-1.08,2.26-.64,1.7-.95,3.85-.95,6.46Z"/>
    <path class="st3" d="M95.7,170.48h13.07v12.82h-13.07v-12.82Z"/>
    <path class="st3" d="M128.01,167.71c0,1.17.16,2.18.49,3.05.59,1.34,1.59,2.23,2.99,2.67,1.33.47,2.7.7,4.1.7,1.29.04,2.62-.23,4-.83,1.36-.61,2.06-1.75,2.1-3.4.04-1.16-.61-2.09-1.97-2.79-1.42-.66-4.1-1.5-8.06-2.54-1.86-.51-3.68-1.07-5.46-1.68-1.86-.61-3.54-1.4-5.04-2.35-1.52-.95-2.76-2.21-3.71-3.78-.99-1.46-1.49-3.34-1.49-5.65.08-5.37,1.97-9.29,5.66-11.74,3.52-2.39,7.68-3.59,12.48-3.59,5.02-.04,9.34,1.03,12.97,3.23,3.52,2.34,5.45,6.3,5.78,11.88h-13.11c.16-1.72-.38-2.95-1.63-3.69-1.23-.76-2.59-1.13-4.09-1.13-1.03,0-2.08.19-3.17.57-.49.21-.91.52-1.26.92-.37.42-.55.96-.55,1.62.08.78.52,1.43,1.32,1.94.76.57,1.74,1.07,2.95,1.49,2.56.78,5.49,1.59,8.77,2.41,1.75.44,3.42.98,5.01,1.62,1.57.61,3,1.44,4.29,2.48,1.31,1.04,2.35,2.3,3.11,3.78.7,1.57,1.05,3.41,1.05,5.52-.13,5.95-2.35,10.1-6.68,12.47-4.26,2.39-9.09,3.57-14.48,3.52-1.34,0-3.09-.2-5.27-.6-2.19-.38-4.42-1.13-6.68-2.25-2.24-1.14-4.13-2.84-5.67-5.08-1.57-2.16-2.41-5.08-2.54-8.76h13.8Z"/>
    <path class="st3" d="M160.77,170.48h13.07v12.82h-13.07v-12.82Z"/>
    <path class="st3" d="M182.1,136.9h22.73c7.42.13,12.69,2.51,15.81,7.14,3.02,4.59,4.5,9.92,4.46,16,.11,15.21-7.55,22.97-22.98,23.26h-20.02v-46.4ZM195.93,171.43h5.42c2.2,0,3.94-.41,5.23-1.24,1.31-.83,2.31-1.83,2.99-2.99.66-1.21,1.12-2.47,1.39-3.79.21-1.34.31-2.53.31-3.57,0-.83-.06-1.86-.19-3.09-.21-1.21-.69-2.42-1.45-3.63-.72-1.23-1.82-2.28-3.29-3.15-1.48-.81-3.47-1.21-5.97-1.21h-4.43v22.67Z"/>
    <path class="st3" d="M54.09,220.76h-12.58v-11.87h39.02v11.87h-12.6v34.53h-13.83v-34.53Z"/>
    <path class="st3" d="M85.67,232.1c.04-7.24,2.16-13.07,6.37-17.49,4.06-4.46,9.53-6.74,16.42-6.82,6.97.08,12.49,2.36,16.57,6.82,4.1,4.42,6.17,10.25,6.21,17.49-.04,7.19-2.11,13-6.21,17.42-4.08,4.51-9.6,6.8-16.57,6.89-6.89-.08-12.36-2.38-16.42-6.89-4.2-4.42-6.32-10.23-6.37-17.42ZM99.51,232.1c0,2.53.32,4.61.95,6.27.59,1.68,1.35,2.99,2.28,3.95,1.93,1.74,3.84,2.59,5.72,2.55.88,0,1.87-.19,2.95-.57,1.05-.4,2.01-1.06,2.89-1.97.94-.96,1.7-2.27,2.28-3.95.55-1.66.83-3.74.83-6.27s-.28-4.76-.83-6.46c-.57-1.7-1.33-2.98-2.28-3.85-1.97-1.7-3.92-2.51-5.85-2.45-.88,0-1.83.15-2.83.45-1.01.38-1.97,1.05-2.89,2-.43.45-.83.98-1.2,1.59-.39.64-.75,1.39-1.08,2.26-.64,1.7-.95,3.85-.95,6.46Z"/>
    <path class="st3" d="M179.52,237.39c0,12.72-6.97,19.07-20.92,19.02-13.96.04-20.95-6.31-20.95-19.04v-28.47h13.84v25.29c0,1.19.04,2.38.13,3.59.09,1.25.36,2.43.82,3.53.44,1.04,1.15,1.88,2.14,2.54.99.68,2.35,1.02,4.11,1.02s3.12-.34,4.11-1.02c.94-.66,1.62-1.5,2.04-2.54.44-1.1.7-2.28.79-3.53.04-1.21.07-2.4.07-3.59v-25.29h13.83v28.49Z"/>
    <path class="st3" d="M187.17,208.9h26.95c4.15,0,7.66,1.1,10.55,3.3,2.87,2.22,4.34,5.54,4.43,9.97,0,2.46-.54,4.77-1.62,6.95-1.19,2.12-2.96,3.67-5.33,4.67,3.98,1.69,6.25,5.55,6.82,11.58.08.55.14,1.26.19,2.13.08.87.14,1.8.19,2.79.16,2.09.54,3.77,1.14,5.01h-13.86c-.61-2.35-.98-4.74-1.11-7.15-.04-1.15-.16-2.28-.36-3.4-.17-1.04-.48-1.99-.92-2.86-.42-.87-1.05-1.56-1.9-2.07-.85-.49-2.01-.73-3.47-.73h-7.86v16.22h-13.84v-46.4ZM201.01,229.18h7.75c1.51.04,2.94-.22,4.3-.79,1.42-.55,2.16-1.83,2.2-3.84,0-1.5-.49-2.64-1.48-3.43-1.12-.78-3.06-1.17-5.84-1.17h-6.93v9.24Z"/>
  </g>
  <g>
    <path class="uuid-817cf4ed-3841-4614-a261-f9022c495484" d="M1528.54,132.01h9.79v24.44h14.07v8.4h-23.86v-32.84Z"/>
    <path class="uuid-817cf4ed-3841-4614-a261-f9022c495484" d="M1581.61,152.91c0,3.4-1.04,6.31-3.11,8.73-2.06,2.48-5.32,3.75-9.77,3.81-4.4-.06-7.64-1.33-9.73-3.82-2.13-2.43-3.18-5.34-3.13-8.74-.04-3.44,1-6.36,3.13-8.76,2.09-2.44,5.33-3.69,9.73-3.75,4.46.06,7.71,1.31,9.77,3.75,2.07,2.4,3.11,5.32,3.11,8.77ZM1572.81,152.91c0-.65-.03-1.33-.09-2.05-.09-.71-.29-1.34-.58-1.89-.28-.6-.68-1.09-1.19-1.46-.58-.34-1.31-.52-2.2-.52s-1.54.17-2.06.52c-.58.38-1,.86-1.29,1.46-.51,1.23-.75,2.54-.72,3.94,0,.62.06,1.26.19,1.94.09.67.27,1.32.54,1.94.28.62.71,1.1,1.29,1.46.51.41,1.2.61,2.06.61s1.62-.2,2.2-.61c.51-.36.91-.85,1.19-1.46.48-1.26.71-2.55.68-3.87Z"/>
    <path class="uuid-817cf4ed-3841-4614-a261-f9022c495484" d="M1600.18,147.93c-.06-.81-.4-1.41-1.02-1.81-.63-.47-1.35-.71-2.17-.71-.72,0-1.38.11-1.97.32-.66.25-.99.77-.99,1.53,0,.3.12.54.37.72.23.23.47.4.71.52.44.15.96.27,1.56.36.61.14,1.27.26,1.97.38,1.5.24,3.04.61,4.63,1.1,1.52.44,2.81,1.17,3.86,2.21.54.5.96,1.11,1.26,1.85.26.74.39,1.62.39,2.64,0,1.64-.35,2.99-1.04,4.03-.69,1.11-1.62,1.98-2.77,2.62-2.45,1.19-5.17,1.78-8.15,1.75-2.91,0-5.55-.64-7.91-1.93-2.35-1.28-3.63-3.44-3.86-6.47h8.67c.06.82.43,1.52,1.1,2.09.49.46,1.31.69,2.44.69.64,0,1.31-.14,2.02-.43.67-.27,1.02-.74,1.05-1.42s-.26-1.18-.88-1.53c-.67-.33-2.05-.67-4.13-1.01-3.43-.58-5.92-1.49-7.46-2.72-1.53-1.18-2.29-2.78-2.29-4.79,0-1.5.36-2.75,1.09-3.75.7-1.02,1.61-1.79,2.73-2.31,1.12-.58,2.34-.98,3.64-1.19,1.24-.21,2.46-.31,3.66-.31,2.71-.04,5.24.43,7.59,1.42,1.12.53,2.03,1.29,2.73,2.3.7.99,1.08,2.27,1.15,3.83h-8.01Z"/>
    <path class="uuid-817cf4ed-3841-4614-a261-f9022c495484" d="M1537.35,176.01h9.57l11.6,32.84h-10.16l-1.33-4.69h-10.12l-1.44,4.69h-9.84l11.71-32.84ZM1545.05,197.14l-2.85-10.15h-.09l-3.07,10.15h6Z"/>
    <path class="uuid-817cf4ed-3841-4614-a261-f9022c495484" d="M1561.62,184.97h8.77v3.03h.09c1.61-2.41,4.2-3.62,7.76-3.62,2.16,0,4.01.66,5.57,1.98,1.54,1.32,2.32,3.35,2.35,6.11v16.37h-8.8v-12.53c.03-1.41-.13-2.55-.49-3.42-.38-.85-1.25-1.28-2.63-1.28-.86-.03-1.68.25-2.46.83-.38.3-.7.76-.96,1.37-.25.65-.38,1.45-.38,2.41v12.62h-8.8v-23.88Z"/>
    <path class="uuid-817cf4ed-3841-4614-a261-f9022c495484" d="M1615.51,205.79c0,1.17-.1,2.41-.3,3.72-.25,1.31-.78,2.55-1.61,3.72-.77,1.12-1.97,2.03-3.61,2.73-1.64.78-3.8,1.18-6.5,1.21-2.83.03-5.41-.51-7.74-1.61-2.38-1.08-3.82-3.19-4.33-6.34h8.73c.13.25.3.53.5.82.29.43.66.81,1.11,1.14.45.37.94.57,1.48.6.71-.03,1.31-.23,1.79-.61.44-.39.79-.86,1.07-1.42.41-1.23.61-2.38.61-3.46v-2.2h-.09c-1.5,2.17-3.62,3.28-6.38,3.32-3.47-.04-6.03-1.2-7.68-3.46-1.69-2.22-2.54-4.95-2.54-8.2s.89-5.9,2.67-8.04c1.72-2.17,4.28-3.29,7.68-3.35,1.38,0,2.64.25,3.77.76,1.14.58,1.96,1.49,2.47,2.72h.09v-2.9h8.8v20.82ZM1598.82,195.74c0,.65.08,1.32.23,2.03.12.72.34,1.35.65,1.89.61,1.26,1.73,1.91,3.36,1.94.89,0,1.59-.2,2.1-.58.54-.35.93-.81,1.14-1.4.45-1.19.66-2.49.63-3.92,0-1.38-.33-2.5-1-3.35-.67-.87-1.7-1.32-3.11-1.35-1.34.03-2.34.5-3.01,1.4-.67.92-1,2.03-1,3.35Z"/>
    <path class="uuid-817cf4ed-3841-4614-a261-f9022c495484" d="M1627.28,198.96c.15,1.35.61,2.45,1.37,3.3.73.9,1.82,1.35,3.26,1.35.78,0,1.52-.16,2.23-.47.7-.27,1.24-.68,1.6-1.24h8.52c-.96,2.58-2.54,4.48-4.73,5.7-2.18,1.23-4.65,1.84-7.42,1.84-3.85-.03-6.99-1.12-9.4-3.28-2.52-2.14-3.79-5.2-3.82-9.19.03-3.59,1.18-6.59,3.44-8.98,2.25-2.35,5.26-3.56,9.02-3.62,9.03.12,13.5,4.98,13.42,14.58h-17.47ZM1636.31,194.24c-.03-1.14-.41-2.1-1.14-2.87-.74-.77-1.74-1.15-3-1.15-2.8.03-4.42,1.37-4.85,4.02h8.99Z"/>
    <path class="uuid-817cf4ed-3841-4614-a261-f9022c495484" d="M1649.56,176.01h8.8v32.84h-8.8v-32.84Z"/>
    <path class="uuid-817cf4ed-3841-4614-a261-f9022c495484" d="M1670.74,198.96c.15,1.35.61,2.45,1.37,3.3.73.9,1.82,1.35,3.26,1.35.78,0,1.52-.16,2.23-.47.7-.27,1.24-.68,1.6-1.24h8.52c-.96,2.58-2.54,4.48-4.73,5.7-2.18,1.23-4.65,1.84-7.42,1.84-3.85-.03-6.99-1.12-9.4-3.28-2.52-2.14-3.79-5.2-3.82-9.19.03-3.59,1.18-6.59,3.44-8.98,2.25-2.35,5.26-3.56,9.02-3.62,9.03.12,13.5,4.98,13.42,14.58h-17.47ZM1679.77,194.24c-.03-1.14-.41-2.1-1.14-2.87-.74-.77-1.74-1.15-3-1.15-2.8.03-4.42,1.37-4.85,4.02h8.99Z"/>
    <path class="uuid-817cf4ed-3841-4614-a261-f9022c495484" d="M1706.67,191.93c-.06-.81-.4-1.41-1.02-1.81-.63-.47-1.35-.71-2.17-.71-.72,0-1.38.11-1.97.32-.66.26-.99.77-.99,1.53,0,.3.12.54.37.72.23.23.47.4.71.52.44.15.96.27,1.56.36.61.14,1.27.26,1.97.38,1.5.24,3.04.61,4.63,1.11,1.52.44,2.81,1.17,3.86,2.21.54.5.96,1.11,1.26,1.85.26.74.39,1.62.39,2.64,0,1.64-.35,2.99-1.04,4.03-.69,1.11-1.62,1.98-2.77,2.62-2.45,1.19-5.17,1.78-8.15,1.75-2.91,0-5.55-.64-7.91-1.93-2.35-1.28-3.63-3.44-3.86-6.47h8.67c.06.82.43,1.52,1.1,2.09.49.46,1.31.69,2.44.69.64,0,1.31-.14,2.02-.43.67-.27,1.02-.74,1.05-1.42s-.26-1.18-.88-1.53c-.67-.33-2.05-.67-4.13-1.01-3.43-.58-5.92-1.49-7.46-2.72-1.53-1.18-2.29-2.78-2.29-4.78,0-1.5.36-2.75,1.09-3.75.7-1.02,1.61-1.79,2.73-2.31,1.12-.58,2.34-.98,3.64-1.19,1.24-.21,2.46-.31,3.66-.31,2.71-.04,5.24.43,7.59,1.42,1.12.53,2.03,1.29,2.73,2.3.7.99,1.08,2.27,1.15,3.83h-8.01Z"/>
    <path class="uuid-817cf4ed-3841-4614-a261-f9022c495484" d="M1719.64,199.77h9.25v7.2c0,2.2-.4,4.17-1.19,5.92-.84,1.75-2.25,2.99-4.23,3.72-.8.28-1.5.44-2.13.47-.68.06-1.25.09-1.69.09v-4c1.13-.12,2.06-.59,2.8-1.42.71-.8,1.09-1.77,1.15-2.91h-3.95v-9.07Z"/>
    <path class="uuid-817cf4ed-3841-4614-a261-f9022c495484" d="M1548.57,232.24c-.03-.35-.12-.8-.26-1.35-.17-.53-.44-1.04-.81-1.55-.35-.58-.86-1.07-1.52-1.44-.65-.33-1.5-.5-2.53-.5-2.23.06-3.8,1.01-4.72,2.86-.93,1.8-1.38,3.86-1.35,6.17-.03,2.31.42,4.37,1.35,6.17.91,1.88,2.49,2.83,4.72,2.86,1.62,0,2.84-.53,3.66-1.6.77-1.02,1.27-2.31,1.5-3.87h9.64c-.03,3.46-1.28,6.55-3.74,9.27-2.47,2.83-6.06,4.29-10.79,4.38-5.13-.06-9.1-1.73-11.9-5.01-2.81-3.19-4.22-7.25-4.22-12.2.03-5.27,1.49-9.44,4.4-12.51,2.86-3.1,6.77-4.66,11.73-4.69,8.73.24,13.53,4.58,14.4,13.02h-9.55Z"/>
    <path class="uuid-817cf4ed-3841-4614-a261-f9022c495484" d="M1586.35,247.52c0,.89.06,1.81.18,2.75.12.92.42,1.78.9,2.57h-9.28c-.24-.76-.34-1.51-.31-2.25h-.09c-.99,1.06-2.12,1.8-3.41,2.2-1.35.43-2.77.65-4.26.65-2.29,0-4.18-.58-5.68-1.75-1.61-1.2-2.42-3.02-2.45-5.47,0-1.87.49-3.32,1.48-4.35.94-1.05,2.12-1.8,3.53-2.27,1.48-.49,2.97-.83,4.47-1.01s2.83-.34,4-.49c.34-.1.67-.2.97-.29.28-.09.55-.2.79-.31.49-.3.74-.81.74-1.53-.03-.82-.34-1.4-.92-1.73-.59-.31-1.28-.47-2.07-.47-1.37.03-2.27.29-2.73.78-.46.55-.7,1.1-.7,1.65h-8.49c.12-1.69.55-3.06,1.29-4.11.73-1.03,1.67-1.81,2.82-2.33,1.17-.55,2.47-.94,3.91-1.15,1.39-.15,2.77-.22,4.13-.22,2.79,0,4.97.25,6.55.76,1.57.52,2.67,1.24,3.31,2.13.67.88,1.08,1.88,1.24,2.99.06,1.12.09,2.27.09,3.44v9.82ZM1577.91,242.14c-1.19.53-2.45.91-3.77,1.15-2.15.27-3.22,1.13-3.22,2.59,0,.59.29,1.09.87,1.51.53.46,1.24.7,2.12.7,1.11,0,2.05-.32,2.8-.97.74-.62,1.14-1.54,1.2-2.77v-2.21Z"/>
    <path class="uuid-817cf4ed-3841-4614-a261-f9022c495484" d="M1591.59,220.01h8.8v32.84h-8.8v-32.84Z"/>
    <path class="uuid-817cf4ed-3841-4614-a261-f9022c495484" d="M1614.88,226.38h-8.8v-6.38h8.8v6.38ZM1606.08,228.97h8.8v23.88h-8.8v-23.88Z"/>
    <path class="uuid-817cf4ed-3841-4614-a261-f9022c495484" d="M1621.87,234.58h-3.62v-5.61h3.62c-.06-1.23.03-2.44.26-3.64.25-1.15.77-2.18,1.56-3.08.96-.97,2.04-1.6,3.26-1.89,1.21-.24,2.69-.36,4.43-.36,1.35.03,2.67.09,3.97.18v6.26c-.36-.07-.72-.16-1.08-.25-.38-.06-.75-.09-1.12-.09-1.09,0-1.84.19-2.25.56-.43.42-.62,1.18-.56,2.29h4.78v5.61h-4.45v18.26h-8.8v-18.26Z"/>
    <path class="uuid-817cf4ed-3841-4614-a261-f9022c495484" d="M1662.52,240.91c0,3.4-1.04,6.31-3.11,8.73-2.06,2.48-5.32,3.75-9.77,3.81-4.4-.06-7.64-1.33-9.73-3.82-2.13-2.43-3.18-5.34-3.13-8.74-.04-3.44,1-6.36,3.13-8.76,2.09-2.44,5.33-3.69,9.73-3.75,4.46.06,7.71,1.31,9.77,3.75,2.07,2.4,3.11,5.32,3.11,8.77ZM1653.71,240.91c0-.65-.03-1.33-.09-2.05-.09-.71-.29-1.34-.58-1.89-.28-.6-.68-1.09-1.19-1.46-.58-.34-1.31-.52-2.2-.52s-1.54.17-2.06.52c-.58.38-1,.86-1.29,1.46-.51,1.23-.75,2.54-.72,3.94,0,.62.06,1.26.19,1.94.09.68.27,1.32.54,1.94.28.62.71,1.1,1.29,1.46.51.41,1.2.61,2.06.61s1.62-.2,2.2-.61c.51-.36.91-.85,1.19-1.46.48-1.26.71-2.55.68-3.87Z"/>
    <path class="uuid-817cf4ed-3841-4614-a261-f9022c495484" d="M1667.26,228.97h8.46v3.82h.09c.71-1.44,1.59-2.54,2.63-3.3,1-.73,2.29-1.1,3.87-1.1.88,0,1.75.12,2.59.36v8.04c-.42-.18-.89-.33-1.39-.45-.51-.09-1.2-.13-2.09-.13-3.54-.06-5.33,2.34-5.35,7.21v9.43h-8.8v-23.88Z"/>
    <path class="uuid-817cf4ed-3841-4614-a261-f9022c495484" d="M1688.51,228.97h8.77v3.03h.09c1.61-2.41,4.2-3.62,7.76-3.62,2.16,0,4.01.66,5.57,1.98,1.54,1.32,2.32,3.35,2.35,6.11v16.37h-8.8v-12.53c.03-1.41-.13-2.55-.49-3.42-.38-.85-1.25-1.28-2.63-1.28-.86-.03-1.68.25-2.46.83-.38.3-.7.76-.96,1.37-.25.65-.38,1.45-.38,2.41v12.62h-8.8v-23.88Z"/>
    <path class="uuid-817cf4ed-3841-4614-a261-f9022c495484" d="M1727.29,226.38h-8.8v-6.38h8.8v6.38ZM1718.49,228.97h8.8v23.88h-8.8v-23.88Z"/>
    <path class="uuid-817cf4ed-3841-4614-a261-f9022c495484" d="M1755.84,247.52c0,.89.06,1.81.18,2.75.12.92.42,1.78.9,2.57h-9.28c-.24-.76-.34-1.51-.31-2.25h-.09c-.99,1.06-2.12,1.8-3.41,2.2-1.35.43-2.77.65-4.26.65-2.29,0-4.18-.58-5.68-1.75-1.61-1.2-2.42-3.02-2.45-5.47,0-1.87.49-3.32,1.48-4.35.94-1.05,2.12-1.8,3.53-2.27,1.48-.49,2.97-.83,4.47-1.01s2.83-.34,4-.49c.34-.1.67-.2.97-.29.28-.09.55-.2.79-.31.49-.3.74-.81.74-1.53-.03-.82-.34-1.4-.92-1.73-.59-.31-1.28-.47-2.07-.47-1.37.03-2.27.29-2.73.78-.46.55-.7,1.1-.7,1.65h-8.49c.12-1.69.55-3.06,1.29-4.11.73-1.03,1.67-1.81,2.82-2.33,1.17-.55,2.47-.94,3.91-1.15,1.39-.15,2.77-.22,4.13-.22,2.79,0,4.97.25,6.55.76,1.57.52,2.67,1.24,3.31,2.13.67.88,1.08,1.88,1.24,2.99.06,1.12.09,2.27.09,3.44v9.82ZM1747.4,242.14c-1.19.53-2.45.91-3.77,1.15-2.15.27-3.22,1.13-3.22,2.59,0,.59.29,1.09.87,1.51.53.46,1.24.7,2.12.7,1.11,0,2.05-.32,2.8-.97.74-.62,1.14-1.54,1.2-2.77v-2.21Z"/>
  </g>
  <g>
    <path class="uuid-817cf4ed-3841-4614-a261-f9022c495484" d="M1550.49,103.91h5.66v4.48h-5.66v10.5h-4.96v-10.5h-21.06v-4.78l20.65-26.73h5.37v27.02ZM1545.54,103.91v-20.53l-15.87,20.53h15.87Z"/>
    <path class="uuid-817cf4ed-3841-4614-a261-f9022c495484" d="M1565.07,114.41h22.18v4.48h-27.73l.12-2.3c.24-3.46,1.02-6.43,2.36-8.91,1.34-2.48,3.6-4.64,6.79-6.49l5.31-3.07c2.67-1.57,4.57-3.11,5.69-4.6,1.12-1.49,1.68-3.3,1.68-5.43,0-2.32-.74-4.18-2.21-5.58-1.48-1.4-3.51-2.09-6.11-2.09-5.86,0-8.79,3.01-8.79,9.03h-4.9c-.04-4.29,1.16-7.61,3.6-9.97,2.44-2.36,5.84-3.54,10.21-3.54,3.97,0,7.2,1.12,9.68,3.36,2.48,2.32,3.72,5.25,3.72,8.79,0,5.43-3.19,9.99-9.56,13.69l-4.48,2.6c-2.6,1.57-4.46,3.1-5.61,4.57-1.14,1.47-1.79,3.29-1.95,5.46Z"/>
    <path class="uuid-817cf4ed-3841-4614-a261-f9022c495484" d="M1615.45,79.37c2.28,1.85,3.89,4.3,4.84,7.35.94,3.05,1.42,6.87,1.42,11.48,0,6.92-1.33,12.34-3.98,16.25-2.66,3.92-6.44,5.87-11.36,5.87-3.78,0-6.9-1-9.38-3.01-2.48-2.01-4.03-4.78-4.66-8.32h4.84c.47,2.2,1.5,3.89,3.1,5.07,1.59,1.18,3.63,1.77,6.11,1.77,6.8,0,10.27-5.6,10.38-16.81-1.14,1.69-2.71,3.07-4.69,4.13-1.99,1.06-3.98,1.59-5.99,1.59-4.41,0-7.89-1.34-10.44-4.01-2.6-2.67-3.89-6.06-3.89-10.15s1.32-7.51,3.95-10.15c2.6-2.67,6.1-4.01,10.5-4.01,3.66,0,6.75.98,9.26,2.95ZM1599.52,97.54c1.69,1.81,3.91,2.71,6.67,2.71s4.96-.9,6.73-2.71c1.77-1.77,2.66-4.09,2.66-6.96s-.88-5.17-2.66-7.02c-1.77-1.77-4.01-2.66-6.73-2.66s-4.98.91-6.67,2.71c-1.73,1.85-2.6,4.17-2.6,6.96s.87,5.11,2.6,6.96Z"/>
    <path class="uuid-817cf4ed-3841-4614-a261-f9022c495484" d="M1631.5,114.41h22.18v4.48h-27.73l.12-2.3c.24-3.46,1.02-6.43,2.36-8.91,1.34-2.48,3.6-4.64,6.79-6.49l5.31-3.07c2.67-1.57,4.57-3.11,5.69-4.6,1.12-1.49,1.68-3.3,1.68-5.43,0-2.32-.74-4.18-2.21-5.58-1.48-1.4-3.51-2.09-6.11-2.09-5.86,0-8.79,3.01-8.79,9.03h-4.9c-.04-4.29,1.16-7.61,3.6-9.97,2.44-2.36,5.84-3.54,10.21-3.54,3.97,0,7.2,1.12,9.68,3.36,2.48,2.32,3.72,5.25,3.72,8.79,0,5.43-3.19,9.99-9.56,13.69l-4.48,2.6c-2.6,1.57-4.46,3.1-5.61,4.57-1.14,1.47-1.79,3.29-1.95,5.46Z"/>
  </g>
  <g>
    <path class="uuid-817cf4ed-3841-4614-a261-f9022c495484" d="M1206.6,129.23h-5.7l-5.31-13.25h-20.74l-5.25,13.25h-5.63l18.18-45.57h6.02l18.43,45.57ZM1176.97,110.61l-.19.51h16.9l-.26-.58c-1.07-2.6-3.84-9.62-8.32-21.06-3.03,8.11-5.74,15.15-8.13,21.12Z"/>
    <path class="uuid-817cf4ed-3841-4614-a261-f9022c495484" d="M1226.25,95.7c.85,0,1.43.02,1.73.06v4.93h-1.28c-3.41,0-6.07.84-7.97,2.53-1.9,1.69-2.85,4.09-2.85,7.2v18.82h-5.12v-33.02h4.86v5.82c2.22-4.22,5.76-6.34,10.62-6.34Z"/>
    <path class="uuid-817cf4ed-3841-4614-a261-f9022c495484" d="M1247.56,96.21v4.48h-6.78v21.44c0,1.88,1.26,2.82,3.78,2.82h3.01v4.29c-1.41.13-2.62.19-3.65.19-5.5,0-8.26-2.28-8.26-6.85v-21.89h-5.44v-4.48h5.44v-9.34h5.12v9.34h6.78Z"/>
    <path class="uuid-817cf4ed-3841-4614-a261-f9022c495484" d="M1265.48,83.67h15.36c6.91,0,12.37,2.01,16.38,6.02,3.97,4.01,5.95,9.6,5.95,16.77s-1.98,12.65-5.95,16.7c-4.05,4.05-9.52,6.08-16.38,6.08h-15.36v-45.57ZM1270.86,124.37h9.98c5.38,0,9.5-1.58,12.38-4.74,2.88-3.16,4.32-7.55,4.32-13.18s-1.44-10.03-4.32-13.18-7.01-4.74-12.38-4.74h-9.98v35.84Z"/>
    <path class="uuid-817cf4ed-3841-4614-a261-f9022c495484" d="M1314.51,91.22h-5.44v-6.27h5.44v6.27ZM1314.38,129.23h-5.12v-33.02h5.12v33.02Z"/>
    <path class="uuid-817cf4ed-3841-4614-a261-f9022c495484" d="M1337.55,95.7c.85,0,1.43.02,1.73.06v4.93h-1.28c-3.41,0-6.07.84-7.97,2.53-1.9,1.69-2.85,4.09-2.85,7.2v18.82h-5.12v-33.02h4.86v5.82c2.22-4.22,5.76-6.34,10.62-6.34Z"/>
    <path class="uuid-817cf4ed-3841-4614-a261-f9022c495484" d="M1370.95,112.72v1.79h-25.09c.26,3.58,1.26,6.28,3.01,8.1,1.75,1.81,4.14,2.72,7.17,2.72,4.57,0,7.49-2.05,8.77-6.14h5.31c-.9,3.33-2.56,5.96-4.99,7.9-2.43,1.94-5.5,2.91-9.22,2.91-4.57,0-8.26-1.56-11.07-4.67-2.86-3.11-4.29-7.32-4.29-12.61s1.41-9.39,4.22-12.54c2.77-3.16,6.44-4.74,11.01-4.74s8.45,1.64,11.14,4.93c2.69,3.29,4.03,7.4,4.03,12.35ZM1355.79,100.11c-2.69,0-4.89.84-6.59,2.53-1.71,1.69-2.77,4.11-3.2,7.26h19.46c-.26-2.9-1.24-5.26-2.94-7.07-1.71-1.81-3.95-2.72-6.72-2.72Z"/>
    <path class="uuid-817cf4ed-3841-4614-a261-f9022c495484" d="M1390.73,130c-4.57,0-8.26-1.58-11.07-4.74-2.82-3.16-4.22-7.34-4.22-12.54s1.41-9.49,4.22-12.61c2.73-3.11,6.42-4.67,11.07-4.67,3.92,0,7.15,1.07,9.66,3.2,2.52,2.13,4.03,5.06,4.54,8.77h-5.31c-.38-2.35-1.4-4.16-3.04-5.44-1.64-1.28-3.59-1.92-5.86-1.92-3.03,0-5.44,1.1-7.23,3.3-1.79,2.2-2.69,5.32-2.69,9.38s.91,7.13,2.72,9.34,4.21,3.33,7.2,3.33c2.26,0,4.22-.66,5.89-1.98,1.66-1.32,2.69-3.16,3.07-5.5h5.25c-.55,3.71-2.12,6.66-4.7,8.83-2.58,2.18-5.75,3.26-9.5,3.26Z"/>
    <path class="uuid-817cf4ed-3841-4614-a261-f9022c495484" d="M1423.56,96.21v4.48h-6.78v21.44c0,1.88,1.26,2.82,3.78,2.82h3.01v4.29c-1.41.13-2.62.19-3.65.19-5.5,0-8.26-2.28-8.26-6.85v-21.89h-5.44v-4.48h5.44v-9.34h5.12v9.34h6.78Z"/>
    <path class="uuid-817cf4ed-3841-4614-a261-f9022c495484" d="M1434.25,91.22h-5.44v-6.27h5.44v6.27ZM1434.12,129.23h-5.12v-33.02h5.12v33.02Z"/>
    <path class="uuid-817cf4ed-3841-4614-a261-f9022c495484" d="M1467.72,125.27c-3.03,3.16-6.87,4.74-11.52,4.74s-8.49-1.58-11.52-4.74c-2.99-3.11-4.48-7.3-4.48-12.54s1.49-9.43,4.48-12.54c3.03-3.16,6.87-4.74,11.52-4.74s8.49,1.58,11.52,4.74c2.99,3.12,4.48,7.3,4.48,12.54s-1.49,9.43-4.48,12.54ZM1448.46,122c1.92,2.26,4.5,3.39,7.74,3.39s5.82-1.13,7.74-3.39c1.92-2.22,2.88-5.31,2.88-9.28s-.96-7.12-2.88-9.34c-1.92-2.22-4.5-3.33-7.74-3.33s-5.82,1.11-7.74,3.33c-1.92,2.22-2.88,5.33-2.88,9.34s.96,7.06,2.88,9.28Z"/>
    <path class="uuid-817cf4ed-3841-4614-a261-f9022c495484" d="M1493.51,95.44c3.67,0,6.53,1,8.58,3.01,2.05,2.01,3.07,4.82,3.07,8.45v22.34h-5.12v-21.82c0-4.91-2.52-7.36-7.55-7.36-2.39,0-4.5.9-6.34,2.69-1.83,1.79-2.75,4.39-2.75,7.81v18.69h-5.12v-33.02h4.86v4.93c2.52-3.8,5.97-5.7,10.37-5.7Z"/>
    <path class="uuid-817cf4ed-3841-4614-a261-f9022c495484" d="M1180.87,184.67c-4.01,4.4-9.3,6.59-15.87,6.59s-11.84-2.2-15.81-6.59c-4.01-4.31-6.02-10.05-6.02-17.22s2-12.88,6.02-17.28c3.97-4.35,9.24-6.53,15.81-6.53s11.86,2.18,15.87,6.53c3.97,4.44,5.95,10.2,5.95,17.28s-1.98,12.86-5.95,17.22ZM1153.23,181.21c2.94,3.41,6.87,5.12,11.78,5.12s8.83-1.71,11.78-5.12c2.94-3.37,4.42-7.96,4.42-13.76s-1.47-10.39-4.42-13.76c-2.94-3.41-6.87-5.12-11.78-5.12s-8.83,1.71-11.78,5.12c-2.94,3.37-4.42,7.96-4.42,13.76s1.47,10.39,4.42,13.76Z"/>
    <path class="uuid-817cf4ed-3841-4614-a261-f9022c495484" d="M1195.21,190.23h-6.46v-6.4h6.46v6.4Z"/>
    <path class="uuid-817cf4ed-3841-4614-a261-f9022c495484" d="M1218.96,191.26c-5.93,0-10.56-1.34-13.89-4.03-3.33-2.69-5.01-6.7-5.06-12.03h5.57c.13,7.47,4.59,11.2,13.38,11.2,3.71,0,6.56-.73,8.54-2.18,1.98-1.45,2.98-3.56,2.98-6.34,0-2.18-.82-3.87-2.46-5.09-1.64-1.22-4.51-2.27-8.61-3.17l-4.03-.9c-4.61-1.07-8.06-2.61-10.37-4.64-2.3-2.03-3.46-4.87-3.46-8.54s1.41-6.52,4.22-8.67c2.82-2.15,6.59-3.23,11.33-3.23,3.2,0,5.98.38,8.35,1.15,2.37.77,4.21,1.85,5.54,3.23,1.32,1.39,2.29,2.89,2.91,4.51.62,1.62.95,3.41.99,5.38h-5.5c-.26-3.24-1.31-5.62-3.17-7.14-1.86-1.51-4.9-2.27-9.12-2.27-3.2,0-5.66.62-7.39,1.86-1.73,1.24-2.59,2.97-2.59,5.18s.75,3.95,2.24,5.18c1.45,1.24,4.27,2.33,8.45,3.26l4.03.9c5.03,1.11,8.66,2.7,10.88,4.77,2.22,2.07,3.33,4.81,3.33,8.22,0,4.14-1.52,7.4-4.54,9.79-3.03,2.39-7.21,3.58-12.54,3.58Z"/>
    <path class="uuid-817cf4ed-3841-4614-a261-f9022c495484" d="M1246.99,190.23h-6.46v-6.4h6.46v6.4Z"/>
    <path class="uuid-817cf4ed-3841-4614-a261-f9022c495484" d="M1254.03,144.67h15.36c6.91,0,12.37,2.01,16.38,6.02,3.97,4.01,5.95,9.6,5.95,16.77s-1.98,12.65-5.95,16.7c-4.05,4.05-9.52,6.08-16.38,6.08h-15.36v-45.57ZM1259.4,185.37h9.98c5.38,0,9.5-1.58,12.38-4.74,2.88-3.16,4.32-7.55,4.32-13.18s-1.44-10.03-4.32-13.18-7.01-4.74-12.38-4.74h-9.98v35.84Z"/>
    <path class="uuid-817cf4ed-3841-4614-a261-f9022c495484" d="M1300.11,190.23h-6.46v-6.4h6.46v6.4Z"/>
    <path class="uuid-817cf4ed-3841-4614-a261-f9022c495484" d="M1319.31,144.67h15.36c6.91,0,12.37,2.01,16.38,6.02,3.97,4.01,5.95,9.6,5.95,16.77s-1.98,12.65-5.95,16.7c-4.05,4.05-9.52,6.08-16.38,6.08h-15.36v-45.57ZM1324.68,185.37h9.98c5.38,0,9.5-1.58,12.38-4.74,2.88-3.16,4.32-7.55,4.32-13.18s-1.44-10.03-4.32-13.18-7.01-4.74-12.38-4.74h-9.98v35.84Z"/>
    <path class="uuid-817cf4ed-3841-4614-a261-f9022c495484" d="M1392.2,173.72v1.79h-25.09c.26,3.58,1.26,6.28,3.01,8.1,1.75,1.81,4.14,2.72,7.17,2.72,4.57,0,7.49-2.05,8.77-6.14h5.31c-.9,3.33-2.56,5.96-4.99,7.9-2.43,1.94-5.5,2.91-9.22,2.91-4.57,0-8.26-1.56-11.07-4.67-2.86-3.11-4.29-7.32-4.29-12.61s1.41-9.39,4.22-12.54c2.77-3.16,6.44-4.74,11.01-4.74s8.45,1.64,11.14,4.93c2.69,3.29,4.03,7.4,4.03,12.35ZM1377.03,161.11c-2.69,0-4.89.84-6.59,2.53-1.71,1.69-2.77,4.11-3.2,7.26h19.46c-.26-2.9-1.24-5.26-2.94-7.07-1.71-1.81-3.95-2.72-6.72-2.72Z"/>
    <path class="uuid-817cf4ed-3841-4614-a261-f9022c495484" d="M1409.61,191c-8.83,0-13.5-3.75-14.02-11.26h5.18c.3,2.47,1.12,4.23,2.46,5.28s3.47,1.57,6.37,1.57c5.29,0,7.94-1.71,7.94-5.12,0-1.49-.54-2.62-1.63-3.39-1.09-.77-3.06-1.43-5.92-1.98l-3.07-.58c-6.87-1.28-10.3-4.52-10.3-9.73,0-2.86,1.08-5.13,3.23-6.82,2.15-1.68,5.09-2.53,8.8-2.53,8.75,0,13.23,3.65,13.44,10.94h-5.12c-.13-2.39-.85-4.07-2.18-5.06-1.32-.98-3.37-1.47-6.14-1.47-2.22,0-3.93.43-5.12,1.28-1.2.85-1.79,2.05-1.79,3.58,0,1.45.51,2.54,1.54,3.26,1.02.73,2.73,1.34,5.12,1.86l2.94.58c4.05.81,6.96,1.96,8.74,3.46,1.77,1.49,2.66,3.58,2.66,6.27,0,3.11-1.16,5.54-3.49,7.26-2.33,1.73-5.54,2.59-9.63,2.59Z"/>
    <path class="uuid-817cf4ed-3841-4614-a261-f9022c495484" d="M1433.1,152.22h-5.44v-6.27h5.44v6.27ZM1432.97,190.23h-5.12v-33.02h5.12v33.02Z"/>
    <path class="uuid-817cf4ed-3841-4614-a261-f9022c495484" d="M1465.74,162.01v-4.8h4.86v31.74c0,4.52-1.32,8.08-3.97,10.69-2.65,2.6-6.44,3.9-11.39,3.9-4.1,0-7.38-.94-9.86-2.82-2.48-1.88-3.88-4.48-4.22-7.81h5.12c.64,4.18,3.63,6.27,8.96,6.27,6.83,0,10.24-3.41,10.24-10.24v-3.2c-2.6,3.5-6.29,5.25-11.07,5.25s-8.36-1.58-11.14-4.74c-2.82-3.16-4.22-7.34-4.22-12.54s1.41-9.49,4.22-12.61c2.73-3.11,6.44-4.67,11.14-4.67s8.68,1.86,11.33,5.57ZM1455.05,186.39c3.24,0,5.82-1.13,7.74-3.39,1.92-2.26,2.88-5.35,2.88-9.28s-.96-7.02-2.88-9.28-4.5-3.39-7.74-3.39-5.77,1.15-7.71,3.46c-1.94,2.3-2.91,5.38-2.91,9.22s.97,6.91,2.91,9.22c1.94,2.3,4.51,3.46,7.71,3.46Z"/>
    <path class="uuid-817cf4ed-3841-4614-a261-f9022c495484" d="M1493.51,156.44c3.67,0,6.53,1,8.58,3.01,2.05,2.01,3.07,4.82,3.07,8.45v22.34h-5.12v-21.82c0-4.91-2.52-7.36-7.55-7.36-2.39,0-4.5.9-6.34,2.69-1.83,1.79-2.75,4.39-2.75,7.81v18.69h-5.12v-33.02h4.86v4.93c2.52-3.8,5.97-5.7,10.37-5.7Z"/>
    <path class="uuid-817cf4ed-3841-4614-a261-f9022c495484" d="M986.32,205.67h15.36c6.91,0,12.37,2.01,16.38,6.02,3.97,4.01,5.95,9.6,5.95,16.77s-1.98,12.65-5.95,16.7c-4.05,4.05-9.52,6.08-16.38,6.08h-15.36v-45.57ZM991.69,246.37h9.98c5.38,0,9.5-1.58,12.38-4.74s4.32-7.55,4.32-13.18-1.44-10.03-4.32-13.18-7.01-4.74-12.38-4.74h-9.98v35.84Z"/>
    <path class="uuid-817cf4ed-3841-4614-a261-f9022c495484" d="M1059.21,234.72v1.79h-25.09c.26,3.58,1.26,6.28,3.01,8.1,1.75,1.81,4.14,2.72,7.17,2.72,4.57,0,7.49-2.05,8.77-6.14h5.31c-.9,3.33-2.56,5.96-4.99,7.9-2.43,1.94-5.5,2.91-9.22,2.91-4.57,0-8.26-1.56-11.07-4.67-2.86-3.11-4.29-7.32-4.29-12.61s1.41-9.39,4.22-12.54c2.77-3.16,6.44-4.74,11.01-4.74s8.45,1.64,11.14,4.93c2.69,3.29,4.03,7.4,4.03,12.35ZM1044.04,222.11c-2.69,0-4.89.84-6.59,2.53-1.71,1.69-2.77,4.11-3.2,7.26h19.46c-.26-2.9-1.24-5.26-2.94-7.07-1.71-1.81-3.95-2.72-6.72-2.72Z"/>
    <path class="uuid-817cf4ed-3841-4614-a261-f9022c495484" d="M1076.62,252c-8.83,0-13.5-3.75-14.02-11.26h5.18c.3,2.47,1.12,4.24,2.46,5.28,1.34,1.05,3.47,1.57,6.37,1.57,5.29,0,7.94-1.71,7.94-5.12,0-1.49-.54-2.62-1.63-3.39-1.09-.77-3.06-1.43-5.92-1.98l-3.07-.58c-6.87-1.28-10.3-4.52-10.3-9.73,0-2.86,1.08-5.13,3.23-6.82,2.15-1.68,5.09-2.53,8.8-2.53,8.75,0,13.23,3.65,13.44,10.94h-5.12c-.13-2.39-.85-4.07-2.18-5.06-1.32-.98-3.37-1.47-6.14-1.47-2.22,0-3.93.43-5.12,1.28-1.2.85-1.79,2.05-1.79,3.58,0,1.45.51,2.54,1.54,3.26,1.02.73,2.73,1.34,5.12,1.86l2.94.58c4.05.81,6.96,1.96,8.74,3.46,1.77,1.49,2.66,3.58,2.66,6.27,0,3.12-1.16,5.54-3.49,7.26-2.33,1.73-5.54,2.59-9.63,2.59Z"/>
    <path class="uuid-817cf4ed-3841-4614-a261-f9022c495484" d="M1100.11,213.22h-5.44v-6.27h5.44v6.27ZM1099.98,251.23h-5.12v-33.02h5.12v33.02Z"/>
    <path class="uuid-817cf4ed-3841-4614-a261-f9022c495484" d="M1132.75,223.01v-4.8h4.86v31.74c0,4.52-1.32,8.08-3.97,10.69-2.65,2.6-6.44,3.9-11.39,3.9-4.1,0-7.38-.94-9.86-2.82-2.48-1.88-3.88-4.48-4.22-7.81h5.12c.64,4.18,3.63,6.27,8.96,6.27,6.83,0,10.24-3.41,10.24-10.24v-3.2c-2.6,3.5-6.29,5.25-11.07,5.25s-8.36-1.58-11.14-4.74c-2.82-3.16-4.22-7.34-4.22-12.54s1.41-9.49,4.22-12.61c2.73-3.11,6.44-4.67,11.14-4.67s8.68,1.86,11.33,5.57ZM1122.06,247.39c3.24,0,5.82-1.13,7.74-3.39,1.92-2.26,2.88-5.35,2.88-9.28s-.96-7.02-2.88-9.28-4.5-3.39-7.74-3.39-5.77,1.15-7.71,3.46c-1.94,2.3-2.91,5.38-2.91,9.22s.97,6.91,2.91,9.22c1.94,2.3,4.51,3.46,7.71,3.46Z"/>
    <path class="uuid-817cf4ed-3841-4614-a261-f9022c495484" d="M1160.53,217.44c3.67,0,6.53,1,8.58,3.01,2.05,2.01,3.07,4.82,3.07,8.45v22.34h-5.12v-21.82c0-4.91-2.52-7.36-7.55-7.36-2.39,0-4.5.9-6.34,2.69-1.83,1.79-2.75,4.39-2.75,7.81v18.69h-5.12v-33.02h4.86v4.93c2.52-3.8,5.97-5.7,10.37-5.7Z"/>
    <path class="uuid-817cf4ed-3841-4614-a261-f9022c495484" d="M1208.2,217.44c4.65,0,8.38,1.56,11.2,4.67,2.77,3.16,4.16,7.36,4.16,12.61s-1.39,9.39-4.16,12.54c-2.82,3.16-6.55,4.74-11.2,4.74-4.91,0-8.68-1.96-11.33-5.89v5.12h-4.86v-45.57h5.12v17.28c2.65-3.67,6.34-5.5,11.07-5.5ZM1207.56,247.39c3.2,0,5.77-1.16,7.71-3.49,1.94-2.33,2.91-5.47,2.91-9.44s-.95-6.92-2.85-9.12c-1.9-2.2-4.49-3.3-7.78-3.3s-5.82,1.11-7.74,3.33c-1.92,2.22-2.88,5.33-2.88,9.34s.96,7.06,2.88,9.28c1.92,2.26,4.5,3.39,7.74,3.39Z"/>
    <path class="uuid-817cf4ed-3841-4614-a261-f9022c495484" d="M1243.98,231.91l4.67-13.7h5.57l-13.95,38.21c-.98,2.77-2.33,4.73-4.03,5.86-1.71,1.13-3.95,1.7-6.72,1.7-.94,0-1.96-.06-3.07-.19v-4.29h3.01c2.94,0,4.95-1.37,6.02-4.1l1.15-3.07-12.42-34.11h5.63l4.67,13.76c1.66,4.87,3.24,9.62,4.74,14.27,1.24-3.97,2.82-8.75,4.74-14.34Z"/>
    <path class="uuid-817cf4ed-3841-4614-a261-f9022c495484" d="M1282.12,222.37l-6.08,8.38-3.2-2.56,6.14-8.51-9.73-3.14,1.34-3.84,9.47,3.07v-10.11h4.1v10.11l9.47-3.07,1.34,3.84-9.73,3.14,6.14,8.51-3.2,2.56-6.08-8.38Z"/>
    <path class="uuid-817cf4ed-3841-4614-a261-f9022c495484" d="M1329.87,230.82l10.18-25.15h7.04v45.57h-5.25v-14.59c0-9.6.06-17.34.19-23.23-1.02,2.82-2.37,6.27-4.03,10.37l-11.26,27.46h-4.61l-11.33-27.46c-1.66-4.1-3.01-7.55-4.03-10.37.13,5.89.19,13.63.19,23.23v14.59h-5.25v-45.57h7.04l10.56,25.92c1.58,3.88,3.31,8.26,5.18,13.12,2.6-6.91,4.39-11.54,5.38-13.89Z"/>
    <path class="uuid-817cf4ed-3841-4614-a261-f9022c495484" d="M1377.74,216.29l6.66-10.62h6.08l-17.41,27.26v18.3h-5.38v-18.3l-17.41-27.26h6.14l6.72,10.69c2.9,4.52,5.33,8.45,7.3,11.78,2.73-4.61,5.16-8.55,7.3-11.84Z"/>
    <path class="uuid-817cf4ed-3841-4614-a261-f9022c495484" d="M1399.05,205.67v40.7h22.91v4.86h-28.29v-45.57h5.38Z"/>
    <path class="uuid-817cf4ed-3841-4614-a261-f9022c495484" d="M1443.02,232.67v-4.86h19.39v23.42h-4.42l-1.15-6.14c-3.37,4.78-8.34,7.17-14.91,7.17s-11.73-2.2-15.62-6.59c-3.97-4.35-5.95-10.09-5.95-17.22s1.96-12.84,5.89-17.28c3.88-4.35,9.13-6.53,15.74-6.53,5.42,0,9.9,1.45,13.44,4.35,3.54,2.9,5.7,6.76,6.46,11.58h-5.57c-.55-3.37-2.18-6.06-4.86-8.06-2.6-1.96-5.76-2.94-9.47-2.94-4.86,0-8.75,1.71-11.65,5.12-2.9,3.41-4.35,8-4.35,13.76s1.45,10.35,4.35,13.76c2.9,3.41,6.78,5.12,11.65,5.12,4.31,0,7.98-1.39,11.01-4.16,3.03-2.77,4.54-6.27,4.54-10.5h-14.53Z"/>
    <path class="uuid-817cf4ed-3841-4614-a261-f9022c495484" d="M1475.27,251.23h-6.46v-6.4h6.46v6.4ZM1473.61,239.33h-3.33l-.9-21.12v-12.54h5.38v12.54l-1.15,21.12Z"/>
    <path class="uuid-817cf4ed-3841-4614-a261-f9022c495484" d="M1493.58,222.37l-6.08,8.38-3.2-2.56,6.14-8.51-9.73-3.14,1.34-3.84,9.47,3.07v-10.11h4.1v10.11l9.47-3.07,1.34,3.84-9.73,3.14,6.14,8.51-3.2,2.56-6.08-8.38Z"/>
  </g>
  <g>
    <path class="uuid-817cf4ed-3841-4614-a261-f9022c495484" d="M1866.92,133.53v11.28h-2.28v-14.1l1.17.06c1.76.12,3.27.52,4.53,1.2s2.36,1.83,3.3,3.45l1.56,2.7c.8,1.36,1.58,2.32,2.34,2.89.76.57,1.68.86,2.76.86,1.18,0,2.12-.38,2.83-1.12s1.06-1.79,1.06-3.11c0-2.98-1.53-4.47-4.59-4.47v-2.49c2.18-.02,3.87.59,5.07,1.83s1.8,2.97,1.8,5.19c0,2.02-.57,3.66-1.71,4.92-1.18,1.26-2.67,1.89-4.47,1.89-2.76,0-5.08-1.62-6.96-4.86l-1.32-2.28c-.8-1.32-1.58-2.27-2.33-2.85s-1.67-.91-2.77-.99Z"/>
    <path class="uuid-817cf4ed-3841-4614-a261-f9022c495484" d="M1866.92,149.96v11.28h-2.28v-14.1l1.17.06c1.76.12,3.27.52,4.53,1.2s2.36,1.83,3.3,3.45l1.56,2.7c.8,1.36,1.58,2.32,2.34,2.89.76.57,1.68.86,2.76.86,1.18,0,2.12-.38,2.83-1.12s1.06-1.79,1.06-3.11c0-2.98-1.53-4.47-4.59-4.47v-2.49c2.18-.02,3.87.59,5.07,1.83s1.8,2.97,1.8,5.19c0,2.02-.57,3.66-1.71,4.92-1.18,1.26-2.67,1.89-4.47,1.89-2.76,0-5.08-1.62-6.96-4.86l-1.32-2.28c-.8-1.32-1.58-2.27-2.33-2.85s-1.67-.91-2.77-.99Z"/>
    <path class="uuid-817cf4ed-3841-4614-a261-f9022c495484" d="M1872.02,171.44v-8.67h2.16v8.67h-2.16Z"/>
    <path class="uuid-817cf4ed-3841-4614-a261-f9022c495484" d="M1867.04,187.67c-1.92-1.3-2.88-3.23-2.88-5.79s.96-4.51,2.88-5.79c1.94-1.3,4.7-1.95,8.28-1.95s6.34.65,8.28,1.95c1.92,1.28,2.88,3.21,2.88,5.79s-.96,4.49-2.88,5.79c-1.94,1.3-4.7,1.95-8.28,1.95s-6.34-.65-8.28-1.95ZM1884.2,181.88c0-3.4-2.96-5.1-8.88-5.1s-8.88,1.7-8.88,5.1,2.96,5.1,8.88,5.1,8.88-1.7,8.88-5.1Z"/>
    <path class="uuid-817cf4ed-3841-4614-a261-f9022c495484" d="M1878.56,200.27c0,2.24-.68,4.02-2.04,5.34-1.36,1.3-3.08,1.95-5.16,1.95s-3.8-.66-5.16-1.98c-1.36-1.36-2.04-3.15-2.04-5.37,0-1.86.5-3.43,1.5-4.71.94-1.16,2.19-1.98,3.74-2.46,1.55-.48,3.5-.72,5.83-.72,3.54,0,6.3.68,8.28,2.05,1.98,1.37,2.97,3.33,2.97,5.9,0,1.86-.51,3.41-1.53,4.65-1.02,1.24-2.43,2.02-4.23,2.34v-2.46c1.12-.24,1.98-.76,2.58-1.55.6-.79.9-1.78.9-2.98,0-3.56-2.85-5.37-8.55-5.43.86.58,1.56,1.38,2.1,2.39.54,1.01.81,2.02.81,3.04ZM1867.82,196.79c-.92.9-1.38,2.04-1.38,3.42s.46,2.53,1.38,3.39c.94.88,2.12,1.32,3.54,1.32s2.6-.44,3.54-1.32c.92-.86,1.38-1.99,1.38-3.39s-.45-2.52-1.35-3.42c-.94-.9-2.13-1.35-3.57-1.35s-2.64.45-3.54,1.35Z"/>
    <path class="uuid-817cf4ed-3841-4614-a261-f9022c495484" d="M1872.02,218.18v-8.67h2.16v8.67h-2.16Z"/>
    <path class="uuid-817cf4ed-3841-4614-a261-f9022c495484" d="M1866.92,223.61v11.28h-2.28v-14.1l1.17.06c1.76.12,3.27.52,4.53,1.2s2.36,1.83,3.3,3.45l1.56,2.7c.8,1.36,1.58,2.32,2.34,2.89.76.57,1.68.86,2.76.86,1.18,0,2.12-.38,2.83-1.12s1.06-1.79,1.06-3.11c0-2.98-1.53-4.47-4.59-4.47v-2.49c2.18-.02,3.87.59,5.07,1.83s1.8,2.97,1.8,5.19c0,2.02-.57,3.66-1.71,4.92-1.18,1.26-2.67,1.89-4.47,1.89-2.76,0-5.08-1.62-6.96-4.86l-1.32-2.28c-.8-1.32-1.58-2.27-2.33-2.85s-1.67-.91-2.77-.99Z"/>
    <path class="uuid-817cf4ed-3841-4614-a261-f9022c495484" d="M1876.1,248.39c-.48,1.24-1.18,2.21-2.12,2.91-.93.7-2.02,1.05-3.29,1.05-2,0-3.59-.71-4.77-2.13-1.18-1.42-1.77-3.29-1.77-5.61s.59-4.19,1.77-5.61c1.18-1.42,2.77-2.13,4.77-2.13,1.26,0,2.36.35,3.29,1.05.93.7,1.64,1.67,2.12,2.91.9-2.06,2.41-3.09,4.53-3.09,1.82,0,3.26.65,4.32,1.95,1.02,1.3,1.53,2.94,1.53,4.92s-.51,3.62-1.53,4.92c-1.06,1.3-2.5,1.95-4.32,1.95-2.12,0-3.63-1.03-4.53-3.09ZM1867.58,240.89c-.76.94-1.14,2.18-1.14,3.72s.38,2.78,1.14,3.72c.74.92,1.78,1.38,3.12,1.38s2.41-.46,3.15-1.38c.74-.92,1.11-2.16,1.11-3.72s-.37-2.8-1.11-3.72c-.74-.92-1.79-1.38-3.15-1.38s-2.38.46-3.12,1.38ZM1883.27,247.76c.62-.8.93-1.85.93-3.15s-.31-2.35-.93-3.15c-.64-.82-1.52-1.23-2.64-1.23s-2,.41-2.64,1.23c-.62.8-.93,1.85-.93,3.15s.31,2.35.93,3.15c.64.82,1.52,1.23,2.64,1.23s2-.41,2.64-1.23Z"/>
  </g>
</svg>