<?xml version="1.0" encoding="UTF-8"?>
<svg id="uuid-39218a1c-7dde-426d-a65d-d26b72ddc3d3" data-name="Layer 1" xmlns="http://www.w3.org/2000/svg" viewBox="0 0 1920 768">
  <defs>
    <style>
      .uuid-47958822-163e-416b-b4d5-c00efbcd4d75 {
        isolation: isolate;
      }

      .uuid-08bbfc98-923a-4c05-b0fe-2168cb349803 {
        fill: #fff;
        stroke-width: 0px;
      }
    </style>
  </defs>
  <g id="uuid-88a29108-f5b3-4f0e-8654-3455181a09fa" data-name="K Michelle" class="uuid-47958822-163e-416b-b4d5-c00efbcd4d75">
    <g class="uuid-47958822-163e-416b-b4d5-c00efbcd4d75">
      <path class="uuid-08bbfc98-923a-4c05-b0fe-2168cb349803" d="M528.06,517.2l-.43.03-.02-.22c-.2-.71-.66-.97-1.37-.77-.71.2-1.5.34-2.37.4-.79-.81-1.31-1.9-1.57-3.26-.25-1.37-.29-2.85-.13-4.47.4-4.26,1.08-8.57,2.04-12.94.97-4.37,1.94-8.63,2.93-12.79.97-4.3,2.02-8.53,3.16-12.7,1.13-4.17,2.2-8.18,3.21-12.04-1,.22-1.74.14-2.2-.26-.47-.4-1.15-.71-2.04-.93-.3-.12-.67-.17-1.1-.13-.43.03-.8-.01-1.1-.13-.59-.1-1.23-.38-1.92-.83-.69-.46-1.05-.83-1.07-1.12.1-.59.5-1.06,1.2-1.4.7-.35,1.55-.67,2.55-.96.99-.3,1.96-.52,2.9-.66.93-.15,1.61-.38,2.02-.71.42-.18,1.07-.67,1.96-1.46.88-.8,1.46-1.35,1.73-1.66.67-.78,1.12-1.94,1.36-3.49.24-1.55.61-2.92,1.1-4.13,1.01-3.86,2.13-7.7,3.36-11.51,1.23-3.81,2.28-7.57,3.16-11.28,1.48-5.21,3.01-10.32,4.59-15.32,1.57-5,3.12-9.89,4.64-14.67,1.65-4.93,3.27-9.87,4.85-14.79,1.58-4.93,3.2-9.78,4.86-14.58,1.31-3.74,2.62-7.41,3.94-11.01,1.32-3.6,2.64-7.12,3.98-10.58,1-2.12,1.83-4.58,2.48-7.4.43-1.92,1.12-3.87,2.05-5.84.94-1.96,1.76-4.07,2.46-6.31.56-2.08,1.2-4.21,1.9-6.37.7-2.16,1.11-4.35,1.23-6.54.11-.44.14-.99.09-1.65-.05-.65.04-1.28.29-1.88.22-.89,1.39-1.71,3.52-2.46,2.13-.75,3.85-1.1,5.16-1.06,2.04-.01,4.06.7,6.06,2.15,2,1.45,2.96,3.41,2.86,5.89-.21,1.04-.78,2.21-1.69,3.52-.92,1.31-1.62,2.57-2.11,3.77-1.73,3.92-3.24,7.9-4.53,11.93-1.29,4.03-2.57,8.06-3.86,12.09-1.76,5.38-3.72,10.63-5.86,15.75-2.15,5.12-4.11,10.3-5.88,15.53-3.78,11.21-7.4,22.17-10.86,32.84-3.46,10.68-6.95,21.4-10.48,32.16,2.35-1.64,4.54-3.38,6.58-5.21,2.04-1.83,4.23-3.64,6.56-5.43,6.7-5.47,13.34-10.87,19.92-16.19,6.57-5.32,13.36-10.66,20.37-16.01,7.02-5.21,13.85-10.44,20.5-15.69,6.65-5.25,13.47-10.63,20.47-16.13l6.57-5.32c1.09-.96,2.1-1.98,3.04-3.08.93-1.09,1.95-2.04,3.05-2.86,1.52-.99,3.12-1.52,4.79-1.58,1.67-.06,3,.6,3.98,1.98.96,1.09,1.37,2.15,1.23,3.18-.14,1.03-.5,2.04-1.07,3.03-.58.99-1.34,1.93-2.29,2.8-.95.88-1.76,1.7-2.43,2.48-2.73,2.4-5.42,4.65-8.1,6.75-2.67,2.1-5.38,4.35-8.1,6.75-5.3,4.78-10.78,9.25-16.42,13.41-5.65,4.15-11.27,8.49-16.89,13.01-1.36,1.27-2.73,2.33-4.12,3.16-1.39.84-2.84,1.83-4.35,2.96-4.68,3.42-9.22,6.84-13.61,10.24-4.4,3.4-8.77,6.95-13.14,10.64-4.54,3.41-8.93,6.89-13.16,10.42-4.24,3.54-8.54,7.15-12.91,10.84,35.32-4.51,68.48-5.36,99.5-2.55,31.01,2.81,58.97,8.92,83.88,18.33,3.6,1.32,6.99,2.8,10.18,4.45,1.66.74,3.18,1.61,4.57,2.59,1.39.98,2.92,1.99,4.6,3.02-.57.19-.81.39-.72.6.09.21.33.45.71.71.38.26.73.49,1.04.68.31.19.32.37.04.54-.56.33-1.22.2-2-.39-.78-.59-1.54-1.01-2.28-1.24-.44-.11-.85.29-1.22,1.19-.37.9-.92,1.31-1.65,1.22-2.41-.98-4.88-1.84-7.41-2.59-2.54-.75-5.08-1.61-7.63-2.57-4.04-1.43-8.28-2.59-12.72-3.48-4.44-.89-8.95-1.81-13.54-2.76-5.79-1.44-11.64-2.69-17.55-3.76-5.91-1.07-12.04-2.15-18.38-3.26-12.67-1.92-25.66-3.16-38.95-3.72-13.29-.56-27.06-.65-41.3-.26-7.43,0-15.16.24-23.2.73-8.04.48-15.78,1.6-23.21,3.35-2.35,7.17-4.55,13.97-6.59,20.39-2.05,6.42-3.85,13.62-5.41,21.61-.57,2.08-.95,4.12-1.16,6.1-.21,1.98-.53,4.01-.94,6.08-.11.44-.21,1.03-.3,1.77-.09.73.03,1.38.37,1.94-.61-.39-1.21-.6-1.8-.62-.59-.03-.99.33-1.23,1.08-.6-.25-1.09-.46-1.47-.65-.38-.19-.93-.25-1.65-.2-.15.01-.17.23-.06.66.1.43.1.79-.02,1.09Z"/>
      <path class="uuid-08bbfc98-923a-4c05-b0fe-2168cb349803" d="M776.88,381.53c.81,1.1,1.27,2.23,1.36,3.39.27,1.58-.1,2.96-1.1,4.13-1,1.17-2.08,1.8-3.24,1.89-1.16.09-2.06-.2-2.69-.88-1.12-1.22-1.74-2.74-1.88-4.55-.14-1.81.32-3.33,1.39-4.59.53-.62,1.09-.96,1.67-1,.29-.02.51.04.67.17.15.13.38.19.67.17.6.25,1.19.38,1.78.41.58.03,1.04.32,1.38.87Z"/>
      <path class="uuid-08bbfc98-923a-4c05-b0fe-2168cb349803" d="M985.62,428.51c-.06,4.81-.48,7.75-1.27,8.83-.79,1.08-1.99,1.54-3.61,1.37-3.52-.31-5.84-2.09-6.97-5.35-.5-.84-.73-1.95-.7-3.33.04-1.39.15-2.74.34-4.07.25-4.24.94-9.79,2.08-16.65,1.13-6.86,2.37-13.94,3.69-21.25,1.32-7.31,2.63-14.26,3.94-20.84,1.3-6.58,2.4-11.65,3.29-15.22,2.36-8.92,4.56-17.46,6.62-25.63,2.05-8.17,3.83-16.68,5.32-25.53-2.34,1.79-4.6,3.64-6.77,5.55-2.18,1.92-4.43,3.92-6.74,5.99-10.55,10.29-20.6,20.91-30.16,31.84-9.55,10.94-18.89,22.37-28,34.3-2.51,3.25-5.12,6.63-7.83,10.11-2.71,3.49-5.3,7.15-7.77,10.98-.91,1.38-1.78,2.8-2.62,4.25-.83,1.45-1.88,2.44-3.15,2.97-.7.35-1.63.53-2.8.55-1.17.02-2.33-.04-3.51-.16-1.18-.13-2.21-.37-3.12-.74-.9-.37-1.45-.83-1.64-1.4-.31-.27-.43-.87-.36-1.83.07-.95.08-1.79.02-2.51-.16-2.03-.14-4.14.05-6.34.19-2.2.43-4.33.7-6.39.28-2.06.55-4.08.83-6.07.28-1.99.64-3.87,1.09-5.65.85-4,1.67-7.92,2.46-11.77.79-3.85,1.55-7.62,2.28-11.32,1.7-7.99,3.35-15.73,4.95-23.21,1.6-7.47,2.88-15.26,3.85-23.34-6.5,8.08-12.88,16.33-19.14,24.76-6.26,8.43-12.3,17.23-18.13,26.43-3.77,5.83-7.52,11.76-11.27,17.81-3.75,6.05-7.27,12.25-10.55,18.62-3.28,6.52-6.56,12.93-9.85,19.23-3.29,6.3-6.42,12.84-9.38,19.63-1.6,3.76-2.77,7.35-3.52,10.76-.44,1.78-.73,3.73-.85,5.85-.13,2.12-.55,4.16-1.27,6.11-1.64,3.19-4.25,5.21-7.82,6.07-1.57.41-3.31.48-5.23.19-1.91-.29-3.7-.8-5.36-1.54-1.66-.74-3.05-1.73-4.16-2.95-1.11-1.22-1.73-2.63-1.86-4.22-.28-1.72.26-3.62,1.63-5.7,1.37-2.07,2.57-3.95,3.6-5.63,4.8-9.4,9.49-18.69,14.09-27.86,4.6-9.17,9.53-18.11,14.82-26.82,10.33-16.82,20.77-33.18,31.32-49.08,10.55-15.89,22.4-30.98,35.55-45.26.67-.78,1.33-1.52,2.01-2.23.67-.71,1.34-1.45,2.01-2.23.52-.77.97-1.57,1.34-2.4.37-.83.91-1.42,1.61-1.76.69-.49,1.52-.99,2.5-1.51.98-.51,2.06-.67,3.24-.47,1.02.07,2.02.28,3,.64.97.36,1.98.65,3.01.85,2.39.83,4.75,2.03,7.05,3.6,2.31,1.57,3.59,4.02,3.85,7.34-.02,1.61-.28,3.41-.78,5.41-.5,2-.9,3.82-1.21,5.44-1.16,5.63-2.5,10.86-4.01,15.71-1.51,4.85-3.01,9.88-4.5,15.09-1.91,7.28-3.57,14.4-4.99,21.36-1.42,6.96-3.02,13.92-4.81,20.9,2.05-1.76,3.9-3.69,5.55-5.79,1.65-2.1,3.35-4.09,5.1-5.97,8.5-10.42,17.27-20.68,26.31-30.78,9.04-10.1,18.42-19.9,28.16-29.39,1.89-1.9,3.82-3.76,5.79-5.59,1.97-1.83,4.05-3.63,6.24-5.4,1.9-1.75,3.95-3.44,6.16-5.07,2.2-1.63,4.24-3.46,6.12-5.5,1.15-.23,2.33-.51,3.54-.82,1.21-.31,2.41-.3,3.61.05.73.09,1.88.8,3.44,2.13,1.56,1.34,2.51,2.35,2.86,3.05.23,1.15.15,2.39-.25,3.73-.41,1.34-.71,2.6-.9,3.78-.75,3.41-1.62,6.79-2.59,10.14-.97,3.35-1.91,6.74-2.81,10.16-1.08,4.75-2.14,9.38-3.17,13.9-1.03,4.52-2.18,8.94-3.44,13.26-1.23,4.76-2.64,10.87-4.24,18.35-1.6,7.48-3.17,15.25-4.73,23.3-1.55,8.06-3.01,15.89-4.38,23.49-1.37,7.6-2.3,13.83-2.8,18.67Z"/>
      <path class="uuid-08bbfc98-923a-4c05-b0fe-2168cb349803" d="M1029.68,394.27c.47.4,1.68.12,3.65-.83,1.96-.95,4.38-2.23,7.23-3.84,2.86-1.61,6.03-3.42,9.51-5.44,3.48-2.02,6.98-3.82,10.5-5.41.99-.37,2.15-.9,3.48-1.58,1.33-.69,2.34-1.28,3.03-1.77,1.1-.81,2.2-1.63,3.3-2.44,1.1-.81,2.43-1.43,4.01-1.84.56-.19.84-.47.81-.83-.03-.36.05-.26.24.31.3.12.52.14.66.06.14-.08.29-.06.44.08.04.58-.26,1.41-.9,2.47l-1.42,1.42c-1.08,1.11-2.23,2.18-3.46,3.22-1.23,1.04-2.61,1.99-4.14,2.84-1.21,1.26-2.68,2.47-4.41,3.62-1.73,1.16-3.43,2.23-5.1,3.24-1.55.7-3.72,2.19-6.53,4.44-2.81,2.26-5.75,4.6-8.84,7.03-3.09,2.42-5.94,4.58-8.56,6.46-2.62,1.88-4.46,2.64-5.5,2.29-.4.47-.68.67-.83.61-.15-.06-.44-.07-.88-.04-2.32.18-4.33.08-6.03-.29-1.71-.37-3.2-1.31-4.48-2.82-.57-1.7-.71-3.44-.41-5.21.3-1.77.72-3.77,1.28-6,.34-1.19.73-2.31,1.16-3.37.43-1.05.74-2.17.94-3.35.49-1.2.97-2.48,1.45-3.83.47-1.35.89-2.62,1.23-3.81,1.33-3.45,2.73-6.95,4.2-10.49,1.47-3.53,3.1-6.83,4.9-9.88,1.1-.81,2.15-1.33,3.15-1.56.55-.33,1.17-.34,1.85-.04.68.31,1.22.31,1.64-.02.48.54.99,1.01,1.53,1.41.54.39.91.95,1.11,1.66.22,1,.39,1.79.51,2.36.12.58.06,1.23-.17,1.98.22,1,.02,2.11-.61,3.32-.26.46-.44.95-.54,1.46-.11.52-.28,1.08-.52,1.68-.13.16-.24.2-.32.13-.08-.06-.19-.02-.32.13-.28.17-.41.4-.38.69.02.29-.11.52-.38.68-.86,2.11-1.78,4.29-2.76,6.55-.99,2.26-1.91,4.41-2.77,6.44-.86,2.03-1.45,3.79-1.77,5.27-.32,1.48-.25,2.42.22,2.82ZM1034.43,340.61c-.18-.42.12-1.24.9-2.47.78-1.23,1.71-2.39,2.79-3.49,1.08-1.1,2.18-1.92,3.3-2.44,1.12-.53,2.08-.38,2.87.43.29-.02.55.03.78.16.23.13.41.19.56.17,1.1,1.08,1.54,2.47,1.31,4.16-.23,1.69-.9,2.88-2.02,3.54.16.28.18.46.04.54-.14.09-.2.27-.17.56-.46-.25-.63-.09-.51.48.12.57-.13.74-.73.49.18.42.03.87-.44,1.35-.47.47-.69.93-.66,1.36-.3-.12-.45-.15-.44-.08,0,.08-.14.12-.43.14-.23.75-.81,1.34-1.72,1.77-.91.44-1.56.96-1.95,1.57-.29.02-.54.12-.74.28-.21.16-.61.12-1.21-.12-.89-.22-1.51-.65-1.85-1.28-.34-.63-.51-1.38-.5-2.25,0-.87.12-1.76.34-2.65.22-.89.38-1.63.48-2.22Z"/>
      <path class="uuid-08bbfc98-923a-4c05-b0fe-2168cb349803" d="M1101.52,385.8c2.95-1.39,5.16-2.44,6.63-3.14,1.47-.7,2.6-1.22,3.37-1.57.77-.35,1.33-.65,1.68-.9.34-.24.8-.5,1.36-.76.56-.26,1.44-.62,2.64-1.08,1.2-.46,3.07-1.22,5.61-2.3,1.1-.81,2.31-1.6,3.64-2.36s2.69-1.41,4.11-1.96c.13-.15.49-.26,1.07-.3.58-.04,1.01-.08,1.3-.1,1.54-.7,2.47-.92,2.79-.66.6.25.76.45.49.62-.28.17-.41.39-.38.68.02.29.07.51.16.64.08.14-.29.46-1.12.96-.11.45-.34.76-.69.93-.35.18-.88.43-1.58.78-1.01.08-1.62.64-1.83,1.67-.56.34-1.25.83-2.07,1.47-.82.65-1.68,1.37-2.56,2.17-.88.8-1.74,1.52-2.56,2.17-.82.65-1.52,1.07-2.09,1.26-5.85,3.37-11.54,6.44-17.08,9.2-5.54,2.76-11.26,5.4-17.18,7.9-.85.36-1.62.67-2.33.95-.71.27-1.62.75-2.73,1.41-.43.03-.96.22-1.59.56-.63.34-1.09.45-1.39.33-.28.17-.46.22-.53.15-.08-.07-.26-.09-.55-.07-1.83.87-3.29,1.2-4.4,1-1.11-.21-2.74-.08-4.88.38-1.3.1-2.48-.02-3.52-.38-1.05-.35-1.96-.79-2.72-1.32-2.15-1.43-3.67-3.21-4.57-5.32-.89-2.11-.49-5.35,1.21-9.7.86-2.1,1.89-4.11,3.13-6.03,1.23-1.92,2.73-3.74,4.48-5.48,1.44-2,2.64-3.44,3.59-4.32.95-.87,2.3-2.25,4.04-4.14,1.49-1.43,3.07-3.04,4.75-4.85,1.68-1.8,3.32-3.64,4.92-5.52,1.1-.81,1.91-1.57,2.44-2.27.53-.7,1.48-1.54,2.86-2.52.7-.34,1.23-.6,1.58-.78.35-.17.87-.43,1.58-.78.7-.34,1.25-.82,1.63-1.44.39-.61,1.09-.96,2.1-1.04,1.14-.23,3.13.05,5.96.84.62.53,1.12,1.33,1.5,2.39.38,1.06.57,2.14.58,3.23,0,1.09-.09,2.12-.3,3.08-.22.96-.6,1.61-1.16,1.95-1.39.84-2.4,1.43-3.03,1.77-.63.34-1.41,1.06-2.34,2.15-.29.02-.72.17-1.28.43-.56.26-.97.62-1.23,1.08-.43.03-.98.04-1.64.02-.66-.02-1.12.12-1.38.44-.26.46-.7.78-1.34.98-.64.2-1.29.68-1.96,1.46l-3.25,3.09-4.49,4.06c-1.07,1.25-2.14,2.43-3.22,3.53-1.08,1.1-1.94,2.26-2.57,3.48-1.08,1.1-1.99,2.49-2.73,4.15-.74,1.66-1.35,3.24-1.81,4.73-.7,2.24.11,3.3,2.43,3.19,2.32-.11,5.21-.77,8.69-1.99,3.47-1.22,7.11-2.67,10.91-4.35,3.8-1.68,6.76-2.97,8.87-3.86Z"/>
      <path class="uuid-08bbfc98-923a-4c05-b0fe-2168cb349803" d="M1168.23,367.69c1.42-2.29,2.01-3.65,1.76-4.07-.25-.42-1-.21-2.24.61-1.25.83-2.89,2.08-4.95,3.77-2.05,1.69-4.17,3.49-6.35,5.41-2.18,1.92-4.26,3.76-6.23,5.51-1.97,1.76-3.58,3.12-4.81,4.09-2.7,2.69-5.27,5.25-7.7,7.7-2.43,2.45-5,5.01-7.7,7.7-.63,1.22-1.12,1.94-1.47,2.19-.35.25-1.09.49-2.24.72.04.58-.11,1.02-.44,1.34-.34.32-.72.6-1.13.85-.42.25-.76.5-1.03.74-.28.24-.39.58-.36,1.01-.12.3-.3.38-.53.26-.23-.13-.48-.11-.76.06.06.72-.24,1.14-.88,1.27-.64.12-1.28,0-1.89-.4-.61-.39-1.13-.97-1.55-1.73-.42-.77-.45-1.6-.09-2.5-.36-4.63-.06-8.66.91-12.08.97-3.42,1.88-7.06,2.75-10.92.4-.47.53-.7.38-.68.42-2.07.99-4.04,1.72-5.92.73-1.88,1.36-3.93,1.92-6.16.23-.74.49-1.57.79-2.46.29-.9.54-1.93.74-3.12.96-2.55,1.97-5.03,3.02-7.44,1.05-2.41,1.83-4.95,2.35-7.61.65-.92,1.18-2.09,1.58-3.51.4-1.41.92-2.58,1.58-3.51.05-1.17.27-2.17.64-3,.37-.83.82-1.63,1.34-2.4.23-.74.43-1.49.59-2.23.16-.74.35-1.56.57-2.45l2.25-4.76c1.43-5.93,3.34-11.29,5.73-16.06,2.39-4.77,4.53-10,6.41-15.68.57-.19.9-.58,1-1.17.1-.59.35-1.12.75-1.59.27-.31.87-1.01,1.8-2.11.93-1.09,1.61-1.8,2.02-2.12,1.25-.82,2.97-1.11,5.18-.84,1.03.21,1.71.88,2.01,2.03.31,1.14.85,2.05,1.63,2.71-.12.3-.28.64-.47,1.02-.19.38-.42.73-.68,1.04-.23.75-.39,1.49-.48,2.22-.09.74-.25,1.48-.48,2.22-.24.75-.54,1.5-.92,2.26-.38.76-.68,1.51-.92,2.26-.74,1.66-1.48,3.39-2.21,5.2-.73,1.8-1.47,3.54-2.21,5.2-.2,1.18-.6,2.56-1.21,4.13-.61,1.58-1,3.1-1.17,4.57-.29.02-.39.18-.29.46.09.29,0,.44-.29.46-.95,2.84-1.81,5.68-2.61,8.5-.8,2.83-1.89,5.61-3.28,8.34-.9,3.42-1.99,6.67-3.28,9.76-1.29,3.09-2.38,6.34-3.28,9.76-.15.01-.25.09-.31.24-.06.15-.17.23-.31.24.09,1.16-.07,1.94-.47,2.33-.4.4-.57,1.03-.51,1.9-.27.32-.48.8-.65,1.47-.17.67-.3,1.3-.4,1.89-.48,1.35-.84,2.8-1.08,4.34-.24,1.55-.66,3.22-1.25,5.01-.21,1.04-.42,2.04-.64,3-.22.97-.42,2.11-.6,3.43,1.77-1.59,3.72-3.6,5.86-6.03,2.14-2.42,4.42-4.86,6.85-7.31,2.43-2.45,4.83-4.82,7.2-7.12,2.37-2.29,4.66-4.19,6.87-5.67,1.52-.99,3.12-1.95,4.8-2.89,1.67-.93,3.44-1.61,5.3-2.05,1.16-.09,2.42-.19,3.8-.3,1.37-.11,2.45.17,3.23.84.3.12.53.32.7.6.17.28.4.48.7.6.62.53,1.13.97,1.52,1.3.39.33.61.86.67,1.59.07.87-.08,1.79-.44,2.76-.36.98-.72,1.99-1.07,3.03-1.49,3.32-2.83,6.7-4.01,10.14-.26.46-.58,1.39-.98,2.81-.4,1.42-.79,2.9-1.18,4.46-.39,1.56-.71,3.04-.96,4.44-.26,1.4-.35,2.47-.3,3.19,3.26-1.13,6.32-2.53,9.17-4.21,2.85-1.68,5.56-3.38,8.12-5.11,2.56-1.73,4.98-3.37,7.26-4.94,2.28-1.56,4.49-2.64,6.62-3.25l13.3-3.01c1.7-.57,2.93-.63,3.7-.18.76.45.54,1.3-.67,2.56.01.15-.49.29-1.49.45-1.01.15-1.51.3-1.49.44-1.84.73-3.3,1.57-4.39,2.53-1.09.96-2.64,1.59-4.66,1.89-5.6,2.92-10.34,5.98-14.24,9.2-3.9,3.22-8.26,6.54-13.09,9.98-.31-.26-.46-.25-.43.03.02.29-.11.45-.4.47-.43.03-.73-.01-.88-.15-1.54.85-3.41,1.51-5.63,1.97-2.22.47-4.16.33-5.82-.42-.6-.24-1.06-.5-1.37-.77-.31-.27-.77-.45-1.35-.55.14-.01.21-.09.2-.23-.16-.13-.6-.24-1.34-.33-.18-.42-.44-.91-.77-1.47-.34-.55-.61-1.19-.8-1.9-.01-.14,0-.33.06-.55.05-.22,0-.4-.15-.54-.19-.57-.41-1.06-.66-1.48-.25-.42-.39-.84-.43-1.28-.02-.29.06-.62.25-1,.19-.38.27-.78.23-1.22.17-1.47.46-2.88.87-4.22.4-1.34.9-2.83,1.51-4.49.36-1.04.71-2.02,1.08-2.92.37-.9.38-1.7.03-2.4Z"/>
      <path class="uuid-08bbfc98-923a-4c05-b0fe-2168cb349803" d="M1239.64,384.38c-1.1.82-2.33,1.46-3.67,1.92-1.35.47-2.65.97-3.92,1.51-1.7.57-3.62,1.16-5.76,1.76-2.14.6-4.29.96-6.47,1.05-2.18.1-4.27-.17-6.29-.82-2.02-.64-3.75-1.85-5.2-3.63-1.12-1.22-1.82-2.77-2.11-4.64-.29-1.87-.3-3.8-.02-5.79.28-1.99.74-3.99,1.38-6.01.64-2.02,1.34-3.85,2.08-5.51.68-.63,1.2-1.41,1.57-2.31.37-.9.6-1.65.7-2.24,2.75-3.85,5.63-7.57,8.62-11.16,3-3.58,6.16-6.45,9.48-8.6,1.51-1.13,3.11-2.13,4.79-2.99,1.68-.86,3.21-1.71,4.61-2.55.55-.33,1-.66,1.34-.98.34-.32.87-.5,1.59-.56,5.21-.41,8.68.23,10.41,1.91,1.73,1.69,2.67,3.39,2.8,5.13-.1.59-.55,1.28-1.37,2.07-.81.79-1.41,1.57-1.78,2.32-.67.78-1.27,1.52-1.79,2.22-.53.7-.91,1.35-1.16,1.95-5.39,5.52-10.83,10.46-16.31,14.82-1.36,1.27-3.21,2.22-5.56,2.84-2.35.62-4.77.89-7.25.79-.8.94-1.58,2.13-2.34,3.57-.76,1.45-1.34,2.94-1.72,4.5-.39,1.56-.49,3.1-.29,4.61.19,1.51.9,2.73,2.14,3.65,2.91.07,5.43-.43,7.53-1.46,2.1-1.04,4.14-1.92,6.12-2.66,1.56-.56,3.18-1.19,4.87-1.91,1.69-.71,3.17-1.41,4.42-2.09,2.93-1.68,5.33-3.04,7.22-4.06,1.89-1.02,3.67-1.96,5.35-2.82,1.68-.86,3.42-1.8,5.24-2.81,1.81-1.02,4.1-2.43,6.88-4.25,2.22-1.34,4.48-2.72,6.77-4.13,2.29-1.41,4.48-2.79,6.56-4.12.41-.32.58-.51.5-.58-.08-.07-.19-.06-.33.03-.14.09-.21.16-.2.23,0,.08.29.01.86-.18.14-.01.32-.1.53-.26.21-.16.38-.25.53-.26,1.3-.1,2.18-.06,2.63.12.45.18.66.53.63,1.04-.04.51-.28,1.11-.73,1.8-.46.69-.94,1.49-1.45,2.41.14-.01-.02.19-.5.59-.48.4-1.03.81-1.65,1.22-.62.42-1.41,1.02-2.37,1.82-1.5,1.28-3.36,2.67-5.57,4.15-2.21,1.48-4.43,2.93-6.65,4.34-2.22,1.41-4.3,2.71-6.25,3.88-1.95,1.17-3.41,2.01-4.39,2.53l-15.05,8.61ZM1222.26,363.24c1.3-.1,2.54-.56,3.71-1.38,1.17-.82,2.31-1.63,3.41-2.45,2.71-2.54,5.48-5.34,8.29-8.4s5.34-6.13,7.58-9.22c.29-.02.42-.25.38-.69-5.06,2.29-9.44,5.4-13.14,9.33-3.7,3.93-7.11,8.2-10.24,12.81Z"/>
      <path class="uuid-08bbfc98-923a-4c05-b0fe-2168cb349803" d="M1314.59,253.8c.78.67,1.33,1.21,1.66,1.62.32.41.38,1.21.19,2.39.08,1.01-.1,2.01-.53,2.99-.43.98-.84,1.85-1.21,2.61-.19,1.33-.5,2.48-.93,3.46-.44.98-.74,2.21-.91,3.67-1.15,3.88-2.27,7.79-3.34,11.73-1.08,3.94-2.28,7.64-3.61,11.09-1.44,2.15-2.46,4.34-3.09,6.57-.63,2.23-1.21,4.54-1.75,6.91-3.05,9.41-6.09,18.97-9.11,28.67-3.03,9.7-5.81,19.67-8.36,29.92-.23,2.64-.71,5.3-1.45,7.97-.74,2.68-1.29,5.42-1.65,8.21.08,1.01,0,1.89-.23,2.64-.54,2.37-.64,4.85-.29,7.45-.72.06-1.21.35-1.46.88-.25.53-.66.89-1.23,1.08-1.16.09-1.96-.32-2.39-1.23-.44-.92-1.08-1.26-1.94-1.05-.35-.7-.79-1.25-1.33-1.64-.54-.39-.92-1.02-1.13-1.88-.02-2.04.11-4.23.36-6.58.25-2.35.6-4.42,1.04-6.2.53-6.3,1.44-12.3,2.74-18.01,1.3-5.7,2.62-11.23,3.94-16.58-.15.01-.29.1-.42.25l.2-.23-.03-.43c.55-.33.88-.83.97-1.5.09-.66.26-1.29.51-1.9.42-2.07,1.09-4.71,2-7.91.91-3.2,1.89-6.48,2.94-9.84,1.05-3.36,2.07-6.6,3.06-9.74.99-3.14,1.78-5.6,2.37-7.39l-.02-.22c1.45-3.75,2.72-7.56,3.8-11.44,1.08-3.87,2.19-7.81,3.33-11.83.93-2.98,1.78-6.07,2.55-9.26.77-3.19,1.48-6.19,2.13-9.01.55-2.23.89-4.44,1.01-6.63.22-.89,1.21-1.7,2.98-2.42,1.76-.72,3.23-.98,4.42-.78,1.18.2,2.04.57,2.6,1.11.55.54,1.09,1.37,1.61,2.49Z"/>
      <path class="uuid-08bbfc98-923a-4c05-b0fe-2168cb349803" d="M1344.97,251.42c.78.67,1.33,1.21,1.66,1.62.32.41.38,1.21.19,2.39.08,1.01-.1,2.01-.53,2.99-.44.98-.84,1.85-1.21,2.61-.19,1.33-.5,2.48-.93,3.46-.43.98-.74,2.21-.91,3.67-1.15,3.88-2.27,7.79-3.34,11.73-1.08,3.94-2.28,7.64-3.61,11.09-1.44,2.15-2.46,4.34-3.09,6.57-.63,2.23-1.21,4.54-1.75,6.91-3.05,9.41-6.09,18.97-9.11,28.67-3.03,9.7-5.81,19.67-8.36,29.92-.23,2.64-.71,5.3-1.45,7.97-.74,2.68-1.29,5.42-1.65,8.21.08,1.01,0,1.89-.23,2.64-.54,2.37-.64,4.85-.29,7.45-.73.06-1.21.35-1.46.88-.25.53-.66.89-1.22,1.08-1.16.09-1.96-.32-2.39-1.23-.44-.92-1.08-1.26-1.94-1.05-.35-.7-.79-1.25-1.33-1.64-.54-.39-.92-1.02-1.13-1.88-.02-2.04.11-4.23.36-6.58.25-2.35.6-4.42,1.04-6.2.52-6.3,1.44-12.3,2.74-18.01,1.3-5.7,2.62-11.23,3.94-16.58-.15.01-.29.1-.42.25l.2-.23-.03-.43c.55-.33.88-.83.97-1.5.09-.66.26-1.29.51-1.9.42-2.07,1.09-4.71,2-7.91.91-3.2,1.89-6.48,2.94-9.84,1.05-3.36,2.07-6.6,3.06-9.74.99-3.14,1.78-5.6,2.37-7.39l-.02-.22c1.45-3.75,2.72-7.56,3.8-11.44,1.08-3.87,2.19-7.81,3.33-11.83.93-2.98,1.78-6.07,2.55-9.26.77-3.19,1.48-6.19,2.13-9.01.55-2.23.89-4.44,1.01-6.63.22-.89,1.21-1.7,2.98-2.42,1.76-.72,3.23-.98,4.42-.78,1.18.2,2.04.57,2.6,1.11.55.54,1.09,1.37,1.62,2.49Z"/>
      <path class="uuid-08bbfc98-923a-4c05-b0fe-2168cb349803" d="M1360.11,374.94c-1.1.82-2.32,1.46-3.67,1.92-1.35.47-2.65.97-3.92,1.51-1.7.57-3.62,1.16-5.76,1.76-2.13.6-4.29.96-6.47,1.05-2.18.1-4.27-.17-6.29-.82-2.02-.64-3.75-1.85-5.2-3.63-1.12-1.22-1.82-2.77-2.11-4.64-.29-1.87-.3-3.8-.02-5.79.28-1.99.74-3.99,1.39-6.01.64-2.02,1.34-3.85,2.08-5.51.68-.63,1.2-1.4,1.57-2.31.37-.9.6-1.65.7-2.24,2.76-3.85,5.63-7.57,8.63-11.16,2.99-3.58,6.15-6.45,9.48-8.6,1.51-1.13,3.11-2.13,4.79-2.99,1.68-.86,3.21-1.71,4.61-2.55.55-.33,1-.66,1.34-.98.34-.32.87-.5,1.59-.56,5.21-.41,8.68.23,10.41,1.91,1.73,1.69,2.67,3.39,2.8,5.13-.1.59-.55,1.28-1.37,2.07-.81.79-1.4,1.57-1.78,2.32-.67.78-1.27,1.52-1.79,2.22-.53.7-.91,1.35-1.16,1.95-5.39,5.52-10.83,10.46-16.31,14.82-1.36,1.27-3.21,2.22-5.57,2.84-2.35.62-4.77.89-7.25.79-.8.94-1.58,2.13-2.34,3.57-.76,1.45-1.33,2.94-1.72,4.5-.39,1.56-.49,3.1-.29,4.61.19,1.51.9,2.73,2.14,3.65,2.92.07,5.43-.43,7.53-1.46,2.1-1.04,4.14-1.92,6.12-2.66,1.56-.56,3.18-1.2,4.87-1.91,1.69-.71,3.17-1.41,4.42-2.09,2.93-1.68,5.33-3.04,7.22-4.06,1.89-1.02,3.67-1.96,5.35-2.82,1.68-.86,3.43-1.8,5.24-2.81,1.81-1.02,4.1-2.43,6.87-4.25,2.22-1.34,4.48-2.72,6.78-4.13,2.29-1.42,4.48-2.79,6.55-4.12.41-.32.58-.52.5-.58-.08-.07-.19-.06-.33.03-.14.09-.21.16-.2.23,0,.08.29.01.86-.18.14-.01.32-.1.53-.26.21-.16.38-.25.53-.26,1.3-.1,2.18-.06,2.63.12.45.18.66.53.63,1.04-.04.51-.28,1.11-.73,1.8-.46.69-.94,1.49-1.45,2.41.14-.01-.02.19-.5.59-.48.4-1.03.81-1.65,1.22-.62.41-1.41,1.02-2.37,1.82-1.5,1.29-3.36,2.67-5.57,4.15-2.21,1.48-4.43,2.93-6.65,4.34-2.22,1.41-4.3,2.71-6.25,3.88-1.95,1.17-3.41,2.01-4.39,2.53l-15.05,8.61ZM1342.73,353.81c1.3-.1,2.54-.56,3.71-1.38,1.17-.82,2.31-1.63,3.41-2.45,2.71-2.54,5.48-5.34,8.3-8.4s5.34-6.13,7.58-9.22c.29-.02.42-.25.38-.69-5.06,2.29-9.44,5.4-13.14,9.33-3.7,3.93-7.11,8.2-10.24,12.81Z"/>
    </g>
  </g>
</svg>