<?xml version="1.0" encoding="UTF-8"?>
<svg id="uuid-7073909d-94f2-4b99-af02-2b6ce4460688" data-name="uuid-3842cd3b-b91a-4c5f-95fc-ff8648bb1c30" xmlns="http://www.w3.org/2000/svg" viewBox="0 0 1920 576">
  <defs>
    <style>
      .uuid-9ffde75f-977f-44ed-9490-b28a45b1e02e {
        isolation: isolate;
      }

      .uuid-7693bf4d-f628-4e75-be6e-d14038c5d15b {
        fill: #fff;
        stroke-width: 0px;
      }
    </style>
  </defs>
  <g class="uuid-9ffde75f-977f-44ed-9490-b28a45b1e02e">
    <path class="uuid-7693bf4d-f628-4e75-be6e-d14038c5d15b" d="M161.87,355.33c-12.53,13.73-29.07,20.6-49.6,20.6s-37-6.87-49.4-20.6c-12.53-13.46-18.8-31.4-18.8-53.8s6.27-40.27,18.8-54c12.4-13.6,28.87-20.4,49.4-20.4s37.07,6.8,49.6,20.4c12.4,13.87,18.6,31.87,18.6,54s-6.2,40.2-18.6,53.8ZM75.47,344.53c9.2,10.67,21.47,16,36.8,16s27.6-5.33,36.8-16c9.2-10.53,13.8-24.87,13.8-43s-4.6-32.47-13.8-43c-9.2-10.67-21.47-16-36.8-16s-27.6,5.33-36.8,16c-9.2,10.53-13.8,24.87-13.8,43s4.6,32.47,13.8,43Z"/>
    <path class="uuid-7693bf4d-f628-4e75-be6e-d14038c5d15b" d="M206.67,372.73h-20.2v-20h20.2v20Z"/>
    <path class="uuid-7693bf4d-f628-4e75-be6e-d14038c5d15b" d="M280.87,375.93c-18.53,0-33-4.2-43.4-12.6-10.4-8.4-15.67-20.93-15.8-37.6h17.4c.4,23.33,14.33,35,41.8,35,11.6,0,20.5-2.27,26.7-6.8,6.2-4.53,9.3-11.13,9.3-19.8,0-6.8-2.57-12.1-7.7-15.9-5.13-3.8-14.1-7.1-26.9-9.9l-12.6-2.8c-14.4-3.33-25.2-8.17-32.4-14.5-7.2-6.33-10.8-15.23-10.8-26.7s4.4-20.37,13.2-27.1c8.8-6.73,20.6-10.1,35.4-10.1,10,0,18.7,1.2,26.1,3.6s13.17,5.77,17.3,10.1c4.13,4.33,7.17,9.04,9.1,14.1,1.93,5.07,2.97,10.67,3.1,16.8h-17.2c-.8-10.13-4.1-17.57-9.9-22.3-5.8-4.73-15.3-7.1-28.5-7.1-10,0-17.7,1.93-23.1,5.8-5.4,3.87-8.1,9.27-8.1,16.2s2.33,12.33,7,16.2c4.53,3.87,13.33,7.27,26.4,10.2l12.6,2.8c15.73,3.47,27.07,8.43,34,14.9,6.93,6.47,10.4,15.03,10.4,25.7,0,12.93-4.73,23.13-14.2,30.6-9.47,7.47-22.53,11.2-39.2,11.2Z"/>
    <path class="uuid-7693bf4d-f628-4e75-be6e-d14038c5d15b" d="M368.47,372.73h-20.2v-20h20.2v20Z"/>
    <path class="uuid-7693bf4d-f628-4e75-be6e-d14038c5d15b" d="M390.47,230.33h48c21.6,0,38.67,6.27,51.2,18.8,12.4,12.53,18.6,30,18.6,52.4s-6.2,39.53-18.6,52.2c-12.67,12.67-29.73,19-51.2,19h-48v-142.4ZM407.27,357.53h31.2c16.8,0,29.7-4.93,38.7-14.8,9-9.87,13.5-23.6,13.5-41.2s-4.5-31.33-13.5-41.2c-9-9.87-21.9-14.8-38.7-14.8h-31.2v112Z"/>
    <path class="uuid-7693bf4d-f628-4e75-be6e-d14038c5d15b" d="M534.47,372.73h-20.2v-20h20.2v20Z"/>
  </g>
  <g class="uuid-9ffde75f-977f-44ed-9490-b28a45b1e02e">
    <path class="uuid-7693bf4d-f628-4e75-be6e-d14038c5d15b" d="M65.27,517.53h75.2v15.2H46.47l.4-7.8c.8-11.73,3.47-21.8,8-30.2,4.53-8.4,12.2-15.73,23-22l18-10.4c9.07-5.33,15.5-10.53,19.3-15.6,3.8-5.07,5.7-11.2,5.7-18.4,0-7.87-2.5-14.17-7.5-18.9-5-4.73-11.9-7.1-20.7-7.1-19.87,0-29.8,10.2-29.8,30.6h-16.6c-.13-14.53,3.93-25.8,12.2-33.8,8.27-8,19.8-12,34.6-12,13.47,0,24.4,3.8,32.8,11.4,8.4,7.87,12.6,17.8,12.6,29.8,0,18.4-10.8,33.87-32.4,46.4l-15.2,8.8c-8.8,5.33-15.13,10.5-19,15.5-3.87,5-6.07,11.17-6.6,18.5Z"/>
    <path class="uuid-7693bf4d-f628-4e75-be6e-d14038c5d15b" d="M243.87,516.73c-8.67,12.8-21.53,19.2-38.6,19.2s-30.07-6.4-38.6-19.2c-8.67-12.93-13-31.33-13-55.2s4.33-42.27,13-55.2c8.53-12.8,21.4-19.2,38.6-19.2s29.93,6.4,38.6,19.2c8.67,12.93,13,31.33,13,55.2s-4.33,42.27-13,55.2ZM205.27,402.33c-22.67,0-34,19.73-34,59.2s11.33,59.2,34,59.2,34-19.73,34-59.2-11.33-59.2-34-59.2Z"/>
    <path class="uuid-7693bf4d-f628-4e75-be6e-d14038c5d15b" d="M305.67,390.33h13.6v142.4h-16.8v-106.2h-32.4v-13.2l3.2-.2c10.13-.67,17.67-2.67,22.6-6,4.93-3.33,8.2-8.93,9.8-16.8Z"/>
    <path class="uuid-7693bf4d-f628-4e75-be6e-d14038c5d15b" d="M421.66,398.73c7.73,6.27,13.2,14.57,16.4,24.9,3.2,10.33,4.8,23.3,4.8,38.9,0,23.47-4.5,41.83-13.5,55.1-9,13.27-21.83,19.9-38.5,19.9-12.8,0-23.4-3.4-31.8-10.2-8.4-6.8-13.67-16.2-15.8-28.2h16.4c1.6,7.47,5.1,13.2,10.5,17.2s12.3,6,20.7,6c23.07,0,34.8-19,35.2-57-3.87,5.73-9.17,10.4-15.9,14-6.73,3.6-13.5,5.4-20.3,5.4-14.93,0-26.73-4.53-35.4-13.6-8.8-9.07-13.2-20.53-13.2-34.4s4.47-25.47,13.4-34.4c8.8-9.07,20.67-13.6,35.6-13.6,12.4,0,22.87,3.33,31.4,10ZM367.66,460.33c5.73,6.13,13.27,9.2,22.6,9.2s16.8-3.07,22.8-9.2c6-6,9-13.87,9-23.6s-3-17.53-9-23.8c-6-6-13.6-9-22.8-9s-16.87,3.07-22.6,9.2c-5.87,6.27-8.8,14.13-8.8,23.6s2.93,17.33,8.8,23.6Z"/>
  </g>
</svg>