<?xml version="1.0" encoding="UTF-8"?>
<svg id="uuid-d4b37bde-a305-4dfc-8417-28fc4e08935b" data-name="uuid-3842cd3b-b91a-4c5f-95fc-ff8648bb1c30" xmlns="http://www.w3.org/2000/svg" viewBox="0 0 1920 576">
  <defs>
    <style>
      .uuid-fc00790b-b848-41c3-941a-8cfe28e1f5f0 {
        isolation: isolate;
      }

      .uuid-a3021c89-45b2-4a4d-bde4-264ed18e759d {
        fill: #fff;
        stroke-width: 0px;
      }
    </style>
  </defs>
  <g id="uuid-5b54bf14-c0b3-42c7-9971-4dfc5d48f7fc" data-name="STAGE CONCEPT" class="uuid-fc00790b-b848-41c3-941a-8cfe28e1f5f0">
    <g class="uuid-fc00790b-b848-41c3-941a-8cfe28e1f5f0">
      <path class="uuid-a3021c89-45b2-4a4d-bde4-264ed18e759d" d="M1031.1,381.27c-18.54,0-33-4.2-43.4-12.6-10.4-8.4-15.67-20.93-15.8-37.6h17.4c.4,23.33,14.33,35,41.8,35,11.6,0,20.5-2.27,26.7-6.8,6.2-4.53,9.3-11.13,9.3-19.8,0-6.8-2.57-12.1-7.7-15.9-5.13-3.8-14.1-7.1-26.9-9.9l-12.6-2.8c-14.4-3.33-25.2-8.17-32.4-14.5-7.2-6.33-10.8-15.23-10.8-26.7s4.4-20.37,13.2-27.1c8.8-6.73,20.6-10.1,35.4-10.1,10,0,18.7,1.2,26.1,3.6s13.17,5.77,17.3,10.1c4.13,4.33,7.17,9.04,9.1,14.1,1.93,5.07,2.97,10.67,3.1,16.8h-17.2c-.8-10.13-4.1-17.57-9.9-22.3-5.8-4.73-15.3-7.1-28.5-7.1-10,0-17.7,1.93-23.1,5.8-5.4,3.87-8.1,9.27-8.1,16.2s2.33,12.33,7,16.2c4.53,3.87,13.33,7.27,26.4,10.2l12.6,2.8c15.73,3.47,27.07,8.43,34,14.9,6.93,6.47,10.4,15.03,10.4,25.7,0,12.93-4.73,23.13-14.2,30.6-9.47,7.47-22.53,11.2-39.2,11.2Z"/>
      <path class="uuid-a3021c89-45b2-4a4d-bde4-264ed18e759d" d="M1083.5,235.67h114.2v15.2h-48.4v127.2h-17.4v-127.2h-48.4v-15.2Z"/>
      <path class="uuid-a3021c89-45b2-4a4d-bde4-264ed18e759d" d="M1308.91,378.07h-17.8l-16.6-41.4h-64.8l-16.4,41.4h-17.6l56.8-142.4h18.8l57.6,142.4ZM1216.31,319.87l-.6,1.6h52.8l-.8-1.8c-3.33-8.13-12-30.07-26-65.8-9.47,25.33-17.93,47.33-25.4,66Z"/>
      <path class="uuid-a3021c89-45b2-4a4d-bde4-264ed18e759d" d="M1377.71,320.07v-15.2h60.6v73.2h-13.8l-3.6-19.2c-10.53,14.93-26.07,22.4-46.6,22.4s-36.67-6.87-48.8-20.6c-12.4-13.6-18.6-31.53-18.6-53.8s6.13-40.13,18.4-54c12.13-13.6,28.53-20.4,49.2-20.4,16.93,0,30.93,4.53,42,13.6,11.07,9.07,17.8,21.13,20.2,36.2h-17.4c-1.73-10.53-6.8-18.93-15.2-25.2-8.13-6.13-18-9.2-29.6-9.2-15.2,0-27.33,5.33-36.4,16-9.07,10.67-13.6,25-13.6,43s4.53,32.33,13.6,43c9.07,10.67,21.2,16,36.4,16,13.47,0,24.93-4.33,34.4-13,9.47-8.67,14.2-19.6,14.2-32.8h-45.4Z"/>
      <path class="uuid-a3021c89-45b2-4a4d-bde4-264ed18e759d" d="M1561.3,235.67v15.2h-82.2v45.4h74.2v15.2h-74.2v51.4h81.4v15.2h-98.2v-142.4h99Z"/>
    </g>
    <g class="uuid-fc00790b-b848-41c3-941a-8cfe28e1f5f0">
      <path class="uuid-a3021c89-45b2-4a4d-bde4-264ed18e759d" d="M1038.7,541.27c-19.33,0-35.13-6.73-47.4-20.2-12.27-13.47-18.4-31.53-18.4-54.2s6.13-40.73,18.4-54.2c12.27-13.46,28.07-20.2,47.4-20.2,15.33,0,28.4,4.17,39.2,12.5,10.8,8.33,17.93,20.5,21.4,36.5h-17c-6-22.4-20.53-33.6-43.6-33.6-14.53,0-26.2,5.2-35,15.6-8.8,10.53-13.2,25-13.2,43.4s4.4,32.8,13.2,43.2c8.8,10.53,20.47,15.8,35,15.8,10.93,0,20.67-3.4,29.2-10.2,8.4-6.53,13.53-16.33,15.4-29.4h16.8c-1.87,17.73-8.6,31.27-20.2,40.6-11.73,9.6-25.47,14.4-41.2,14.4Z"/>
      <path class="uuid-a3021c89-45b2-4a4d-bde4-264ed18e759d" d="M1230.9,520.67c-12.53,13.73-29.07,20.6-49.6,20.6s-37-6.87-49.4-20.6c-12.53-13.46-18.8-31.4-18.8-53.8s6.27-40.27,18.8-54c12.4-13.6,28.87-20.4,49.4-20.4s37.07,6.8,49.6,20.4c12.4,13.87,18.6,31.87,18.6,54s-6.2,40.2-18.6,53.8ZM1144.5,509.87c9.2,10.67,21.47,16,36.8,16s27.6-5.33,36.8-16c9.2-10.53,13.8-24.87,13.8-43s-4.6-32.47-13.8-43c-9.2-10.67-21.47-16-36.8-16s-27.6,5.33-36.8,16c-9.2,10.53-13.8,24.87-13.8,43s4.6,32.47,13.8,43Z"/>
      <path class="uuid-a3021c89-45b2-4a4d-bde4-264ed18e759d" d="M1366.1,443.67v-48h16.6v142.4h-20.4l-47.2-73.4c-13.6-21.6-23.47-37.67-29.6-48.2.4,18.67.6,43.2.6,73.6v48h-16.6v-142.4h20.4l47.2,73.4c13.6,21.6,23.46,37.67,29.6,48.2-.4-18.67-.6-43.2-.6-73.6Z"/>
      <path class="uuid-a3021c89-45b2-4a4d-bde4-264ed18e759d" d="M1468.5,541.27c-19.33,0-35.13-6.73-47.4-20.2-12.27-13.47-18.4-31.53-18.4-54.2s6.13-40.73,18.4-54.2c12.27-13.46,28.07-20.2,47.4-20.2,15.33,0,28.4,4.17,39.2,12.5,10.8,8.33,17.93,20.5,21.4,36.5h-17c-6-22.4-20.53-33.6-43.6-33.6-14.53,0-26.2,5.2-35,15.6-8.8,10.53-13.2,25-13.2,43.4s4.4,32.8,13.2,43.2c8.8,10.53,20.47,15.8,35,15.8,10.93,0,20.67-3.4,29.2-10.2,8.4-6.53,13.53-16.33,15.4-29.4h16.8c-1.87,17.73-8.6,31.27-20.2,40.6-11.73,9.6-25.47,14.4-41.2,14.4Z"/>
      <path class="uuid-a3021c89-45b2-4a4d-bde4-264ed18e759d" d="M1647.9,395.67v15.2h-82.2v45.4h74.2v15.2h-74.2v51.4h81.4v15.2h-98.2v-142.4h99Z"/>
      <path class="uuid-a3021c89-45b2-4a4d-bde4-264ed18e759d" d="M1665.9,395.67h59.2c15.07,0,26.7,3.93,34.9,11.8,8.2,7.87,12.3,18.53,12.3,32s-4.1,24.13-12.3,32c-8.2,7.87-19.83,11.8-34.9,11.8h-42.4v54.8h-16.8v-142.4ZM1682.7,468.07h42.4c9.87,0,17.3-2.43,22.3-7.3,5-4.87,7.5-11.97,7.5-21.3s-2.5-16.43-7.5-21.3c-5-4.87-12.43-7.3-22.3-7.3h-42.4v57.2Z"/>
      <path class="uuid-a3021c89-45b2-4a4d-bde4-264ed18e759d" d="M1773.1,395.67h114.2v15.2h-48.4v127.2h-17.4v-127.2h-48.4v-15.2Z"/>
    </g>
  </g>
</svg>