<?xml version="1.0" encoding="UTF-8"?>
<svg id="uuid-6f4aacd7-4f9f-40d1-90c1-e39a6a7d86ad" data-name="uuid-3842cd3b-b91a-4c5f-95fc-ff8648bb1c30" xmlns="http://www.w3.org/2000/svg" viewBox="0 0 1920 1800">
  <defs>
    <style>
      .uuid-6619f1b1-9665-4631-9dc6-cbec630f2e67 {
        isolation: isolate;
      }

      .uuid-54f84528-71a5-43ae-854d-01dd20ea763f {
        fill: #fff;
        stroke-width: 0px;
      }
    </style>
  </defs>
  <g id="uuid-c8096713-42d1-43fb-b2eb-3320a438ac9a" data-name="LIGHTING DESIGN MIXED MEDIA CONTENT DESIGN ELECTRIC TIGERS PYROTECHNICS INTERACTIVE STAGE BLUE FIRE SMOKE DANCE CUBEXCUBE" class="uuid-6619f1b1-9665-4631-9dc6-cbec630f2e67">
    <g class="uuid-6619f1b1-9665-4631-9dc6-cbec630f2e67">
      <path class="uuid-54f84528-71a5-43ae-854d-01dd20ea763f" d="M244.57,268.8v101.76h57.28v12.16h-70.72v-113.92h13.44Z"/>
      <path class="uuid-54f84528-71a5-43ae-854d-01dd20ea763f" d="M328.89,382.72h-13.44v-113.92h13.44v113.92Z"/>
      <path class="uuid-54f84528-71a5-43ae-854d-01dd20ea763f" d="M401.53,336.32v-12.16h48.48v58.56h-11.04l-2.88-15.36c-8.43,11.95-20.85,17.92-37.28,17.92s-29.33-5.49-39.04-16.48c-9.92-10.88-14.88-25.22-14.88-43.04s4.9-32.11,14.72-43.2c9.71-10.88,22.83-16.32,39.36-16.32,13.54,0,24.74,3.63,33.6,10.88,8.85,7.25,14.24,16.91,16.16,28.96h-13.92c-1.39-8.43-5.44-15.15-12.16-20.16-6.51-4.91-14.4-7.36-23.68-7.36-12.16,0-21.87,4.27-29.12,12.8-7.25,8.54-10.88,20-10.88,34.4s3.62,25.87,10.88,34.4c7.25,8.53,16.96,12.8,29.12,12.8,10.77,0,19.94-3.46,27.52-10.4,7.57-6.93,11.36-15.68,11.36-26.24h-36.32Z"/>
      <path class="uuid-54f84528-71a5-43ae-854d-01dd20ea763f" d="M546.17,317.76v-48.96h13.44v113.92h-13.44v-52.48h-63.52v52.48h-13.44v-113.92h13.44v48.96h63.52Z"/>
      <path class="uuid-54f84528-71a5-43ae-854d-01dd20ea763f" d="M571.61,268.8h91.36v12.16h-38.72v101.76h-13.92v-101.76h-38.72v-12.16Z"/>
      <path class="uuid-54f84528-71a5-43ae-854d-01dd20ea763f" d="M688.41,382.72h-13.44v-113.92h13.44v113.92Z"/>
      <path class="uuid-54f84528-71a5-43ae-854d-01dd20ea763f" d="M786.49,307.2v-38.4h13.28v113.92h-16.32l-37.76-58.72c-10.88-17.28-18.77-30.13-23.68-38.56.32,14.94.48,34.56.48,58.88v38.4h-13.28v-113.92h16.32l37.76,58.72c10.88,17.28,18.77,30.13,23.68,38.56-.32-14.93-.48-34.56-.48-58.88Z"/>
      <path class="uuid-54f84528-71a5-43ae-854d-01dd20ea763f" d="M872.41,336.32v-12.16h48.48v58.56h-11.04l-2.88-15.36c-8.43,11.95-20.85,17.92-37.28,17.92s-29.33-5.49-39.04-16.48c-9.92-10.88-14.88-25.22-14.88-43.04s4.9-32.11,14.72-43.2c9.71-10.88,22.83-16.32,39.36-16.32,13.54,0,24.74,3.63,33.6,10.88,8.85,7.25,14.24,16.91,16.16,28.96h-13.92c-1.39-8.43-5.44-15.15-12.16-20.16-6.51-4.91-14.4-7.36-23.68-7.36-12.16,0-21.87,4.27-29.12,12.8-7.25,8.54-10.88,20-10.88,34.4s3.62,25.87,10.88,34.4c7.25,8.53,16.96,12.8,29.12,12.8,10.77,0,19.94-3.46,27.52-10.4,7.57-6.93,11.36-15.68,11.36-26.24h-36.32Z"/>
      <path class="uuid-54f84528-71a5-43ae-854d-01dd20ea763f" d="M970.48,268.8h38.4c17.28,0,30.93,5.01,40.96,15.04,9.92,10.03,14.88,24,14.88,41.92s-4.96,31.63-14.88,41.76c-10.13,10.13-23.79,15.2-40.96,15.2h-38.4v-113.92ZM983.92,370.56h24.96c13.44,0,23.76-3.95,30.96-11.84,7.2-7.89,10.8-18.88,10.8-32.96s-3.6-25.07-10.8-32.96c-7.2-7.89-17.52-11.84-30.96-11.84h-24.96v89.6Z"/>
      <path class="uuid-54f84528-71a5-43ae-854d-01dd20ea763f" d="M1159.92,268.8v12.16h-65.76v36.32h59.36v12.16h-59.36v41.12h65.12v12.16h-78.56v-113.92h79.2Z"/>
      <path class="uuid-54f84528-71a5-43ae-854d-01dd20ea763f" d="M1215.28,385.28c-14.83,0-26.4-3.36-34.72-10.08-8.32-6.72-12.54-16.75-12.64-30.08h13.92c.32,18.67,11.46,28,33.44,28,9.28,0,16.4-1.81,21.36-5.44,4.96-3.62,7.44-8.91,7.44-15.84,0-5.44-2.05-9.68-6.16-12.72-4.11-3.04-11.28-5.68-21.52-7.92l-10.08-2.24c-11.52-2.67-20.16-6.53-25.92-11.6-5.76-5.06-8.64-12.18-8.64-21.36s3.52-16.29,10.56-21.68c7.04-5.38,16.48-8.08,28.32-8.08,8,0,14.96.96,20.88,2.88s10.53,4.61,13.84,8.08c3.3,3.47,5.73,7.23,7.28,11.28,1.54,4.06,2.37,8.54,2.48,13.44h-13.76c-.64-8.11-3.28-14.05-7.92-17.84-4.64-3.79-12.24-5.68-22.8-5.68-8,0-14.16,1.55-18.48,4.64-4.32,3.09-6.48,7.42-6.48,12.96s1.87,9.87,5.6,12.96c3.62,3.09,10.66,5.81,21.12,8.16l10.08,2.24c12.59,2.78,21.65,6.75,27.2,11.92,5.55,5.18,8.32,12.03,8.32,20.56,0,10.35-3.79,18.51-11.36,24.48-7.57,5.98-18.03,8.96-31.36,8.96Z"/>
      <path class="uuid-54f84528-71a5-43ae-854d-01dd20ea763f" d="M1285.84,382.72h-13.44v-113.92h13.44v113.92Z"/>
      <path class="uuid-54f84528-71a5-43ae-854d-01dd20ea763f" d="M1358.48,336.32v-12.16h48.48v58.56h-11.04l-2.88-15.36c-8.43,11.95-20.85,17.92-37.28,17.92s-29.33-5.49-39.04-16.48c-9.92-10.88-14.88-25.22-14.88-43.04s4.91-32.11,14.72-43.2c9.71-10.88,22.82-16.32,39.36-16.32,13.54,0,24.75,3.63,33.6,10.88,8.85,7.25,14.24,16.91,16.16,28.96h-13.92c-1.39-8.43-5.44-15.15-12.16-20.16-6.51-4.91-14.4-7.36-23.68-7.36-12.16,0-21.87,4.27-29.12,12.8-7.25,8.54-10.88,20-10.88,34.4s3.62,25.87,10.88,34.4c7.25,8.53,16.96,12.8,29.12,12.8,10.77,0,19.95-3.46,27.52-10.4,7.57-6.93,11.36-15.68,11.36-26.24h-36.32Z"/>
      <path class="uuid-54f84528-71a5-43ae-854d-01dd20ea763f" d="M1503.44,307.2v-38.4h13.28v113.92h-16.32l-37.76-58.72c-10.88-17.28-18.77-30.13-23.68-38.56.32,14.94.48,34.56.48,58.88v38.4h-13.28v-113.92h16.32l37.76,58.72c10.88,17.28,18.77,30.13,23.68,38.56-.32-14.93-.48-34.56-.48-58.88Z"/>
    </g>
    <g class="uuid-6619f1b1-9665-4631-9dc6-cbec630f2e67">
      <path class="uuid-54f84528-71a5-43ae-854d-01dd20ea763f" d="M301.53,491.68l25.44-62.88h17.6v113.92h-13.12v-36.48c0-24,.16-43.36.48-58.08-2.56,7.04-5.92,15.68-10.08,25.92l-28.16,68.64h-11.52l-28.32-68.64c-4.16-10.24-7.52-18.88-10.08-25.92.32,14.72.48,34.08.48,58.08v36.48h-13.12v-113.92h17.6l26.4,64.8c3.95,9.71,8.27,20.64,12.96,32.8,6.51-17.28,10.99-28.85,13.44-34.72Z"/>
      <path class="uuid-54f84528-71a5-43ae-854d-01dd20ea763f" d="M378.81,542.72h-13.44v-113.92h13.44v113.92Z"/>
      <path class="uuid-54f84528-71a5-43ae-854d-01dd20ea763f" d="M486.81,428.8l-38.56,55.04,40.8,58.88h-15.68l-16.96-24.64c-2.56-3.62-7.95-11.52-16.16-23.68-3.1,4.59-8.54,12.48-16.32,23.68l-17.28,24.64h-15.04l41.12-58.4-38.88-55.52h15.68l15.52,22.56c6.72,9.6,11.84,17.18,15.36,22.72,3.3-5.01,8.53-12.64,15.68-22.88l15.68-22.4h15.04Z"/>
      <path class="uuid-54f84528-71a5-43ae-854d-01dd20ea763f" d="M581.05,428.8v12.16h-65.76v36.32h59.36v12.16h-59.36v41.12h65.12v12.16h-78.56v-113.92h79.2Z"/>
      <path class="uuid-54f84528-71a5-43ae-854d-01dd20ea763f" d="M595.45,428.8h38.4c17.28,0,30.93,5.01,40.96,15.04,9.92,10.03,14.88,24,14.88,41.92s-4.96,31.63-14.88,41.76c-10.13,10.13-23.79,15.2-40.96,15.2h-38.4v-113.92ZM608.89,530.56h24.96c13.44,0,23.76-3.95,30.96-11.84,7.2-7.89,10.8-18.88,10.8-32.96s-3.6-25.07-10.8-32.96c-7.2-7.89-17.52-11.84-30.96-11.84h-24.96v89.6Z"/>
      <path class="uuid-54f84528-71a5-43ae-854d-01dd20ea763f" d="M806.48,491.68l25.44-62.88h17.6v113.92h-13.12v-36.48c0-24,.16-43.36.48-58.08-2.56,7.04-5.92,15.68-10.08,25.92l-28.16,68.64h-11.52l-28.32-68.64c-4.16-10.24-7.52-18.88-10.08-25.92.32,14.72.48,34.08.48,58.08v36.48h-13.12v-113.92h17.6l26.4,64.8c3.95,9.71,8.27,20.64,12.96,32.8,6.51-17.28,10.99-28.85,13.44-34.72Z"/>
      <path class="uuid-54f84528-71a5-43ae-854d-01dd20ea763f" d="M949.52,428.8v12.16h-65.76v36.32h59.36v12.16h-59.36v41.12h65.12v12.16h-78.56v-113.92h79.2Z"/>
      <path class="uuid-54f84528-71a5-43ae-854d-01dd20ea763f" d="M963.92,428.8h38.4c17.28,0,30.93,5.01,40.96,15.04,9.92,10.03,14.88,24,14.88,41.92s-4.96,31.63-14.88,41.76c-10.13,10.13-23.79,15.2-40.96,15.2h-38.4v-113.92ZM977.36,530.56h24.96c13.44,0,23.76-3.95,30.96-11.84,7.2-7.89,10.8-18.88,10.8-32.96s-3.6-25.07-10.8-32.96c-7.2-7.89-17.52-11.84-30.96-11.84h-24.96v89.6Z"/>
      <path class="uuid-54f84528-71a5-43ae-854d-01dd20ea763f" d="M1087.6,542.72h-13.44v-113.92h13.44v113.92Z"/>
      <path class="uuid-54f84528-71a5-43ae-854d-01dd20ea763f" d="M1203.76,542.72h-14.24l-13.28-33.12h-51.84l-13.12,33.12h-14.08l45.44-113.92h15.04l46.08,113.92ZM1129.68,496.16l-.48,1.28h42.24l-.64-1.44c-2.67-6.5-9.6-24.05-20.8-52.64-7.58,20.27-14.35,37.87-20.32,52.8Z"/>
    </g>
    <g class="uuid-6619f1b1-9665-4631-9dc6-cbec630f2e67">
      <path class="uuid-54f84528-71a5-43ae-854d-01dd20ea763f" d="M278.97,705.28c-15.47,0-28.11-5.38-37.92-16.16-9.81-10.77-14.72-25.23-14.72-43.36s4.9-32.58,14.72-43.36c9.81-10.77,22.45-16.16,37.92-16.16,12.26,0,22.72,3.34,31.36,10,8.64,6.67,14.34,16.4,17.12,29.2h-13.6c-4.8-17.92-16.43-26.88-34.88-26.88-11.63,0-20.96,4.16-28,12.48-7.04,8.43-10.56,20-10.56,34.72s3.52,26.24,10.56,34.56c7.04,8.43,16.37,12.64,28,12.64,8.74,0,16.53-2.72,23.36-8.16,6.72-5.22,10.82-13.07,12.32-23.52h13.44c-1.49,14.19-6.88,25.02-16.16,32.48-9.39,7.68-20.38,11.52-32.96,11.52Z"/>
      <path class="uuid-54f84528-71a5-43ae-854d-01dd20ea763f" d="M432.73,688.8c-10.03,10.99-23.25,16.48-39.68,16.48s-29.6-5.49-39.52-16.48c-10.03-10.77-15.04-25.12-15.04-43.04s5.01-32.21,15.04-43.2c9.92-10.88,23.09-16.32,39.52-16.32s29.65,5.44,39.68,16.32c9.92,11.09,14.88,25.5,14.88,43.2s-4.96,32.16-14.88,43.04ZM363.61,680.16c7.36,8.53,17.17,12.8,29.44,12.8s22.08-4.27,29.44-12.8c7.36-8.43,11.04-19.89,11.04-34.4s-3.68-25.97-11.04-34.4c-7.36-8.53-17.18-12.8-29.44-12.8s-22.08,4.27-29.44,12.8c-7.36,8.43-11.04,19.9-11.04,34.4s3.68,25.97,11.04,34.4Z"/>
      <path class="uuid-54f84528-71a5-43ae-854d-01dd20ea763f" d="M540.89,627.2v-38.4h13.28v113.92h-16.32l-37.76-58.72c-10.88-17.28-18.77-30.13-23.68-38.56.32,14.94.48,34.56.48,58.88v38.4h-13.28v-113.92h16.32l37.76,58.72c10.88,17.28,18.77,30.13,23.68,38.56-.32-14.93-.48-34.56-.48-58.88Z"/>
      <path class="uuid-54f84528-71a5-43ae-854d-01dd20ea763f" d="M566.17,588.8h91.36v12.16h-38.72v101.76h-13.92v-101.76h-38.72v-12.16Z"/>
      <path class="uuid-54f84528-71a5-43ae-854d-01dd20ea763f" d="M748.73,588.8v12.16h-65.76v36.32h59.36v12.16h-59.36v41.12h65.12v12.16h-78.56v-113.92h79.2Z"/>
      <path class="uuid-54f84528-71a5-43ae-854d-01dd20ea763f" d="M840.41,627.2v-38.4h13.28v113.92h-16.32l-37.76-58.72c-10.88-17.28-18.77-30.13-23.68-38.56.32,14.94.48,34.56.48,58.88v38.4h-13.28v-113.92h16.32l37.76,58.72c10.88,17.28,18.77,30.13,23.68,38.56-.32-14.93-.48-34.56-.48-58.88Z"/>
      <path class="uuid-54f84528-71a5-43ae-854d-01dd20ea763f" d="M865.69,588.8h91.36v12.16h-38.72v101.76h-13.92v-101.76h-38.72v-12.16Z"/>
      <path class="uuid-54f84528-71a5-43ae-854d-01dd20ea763f" d="M1001.05,588.8h38.4c17.28,0,30.93,5.01,40.96,15.04,9.92,10.03,14.88,24,14.88,41.92s-4.96,31.63-14.88,41.76c-10.13,10.13-23.79,15.2-40.96,15.2h-38.4v-113.92ZM1014.49,690.56h24.96c13.44,0,23.76-3.95,30.96-11.84,7.2-7.89,10.8-18.88,10.8-32.96s-3.6-25.07-10.8-32.96c-7.2-7.89-17.52-11.84-30.96-11.84h-24.96v89.6Z"/>
      <path class="uuid-54f84528-71a5-43ae-854d-01dd20ea763f" d="M1190.49,588.8v12.16h-65.76v36.32h59.36v12.16h-59.36v41.12h65.12v12.16h-78.56v-113.92h79.2Z"/>
      <path class="uuid-54f84528-71a5-43ae-854d-01dd20ea763f" d="M1245.85,705.28c-14.83,0-26.4-3.36-34.72-10.08-8.32-6.72-12.54-16.75-12.64-30.08h13.92c.32,18.67,11.46,28,33.44,28,9.28,0,16.4-1.81,21.36-5.44,4.96-3.62,7.44-8.91,7.44-15.84,0-5.44-2.05-9.68-6.16-12.72-4.11-3.04-11.28-5.68-21.52-7.92l-10.08-2.24c-11.52-2.67-20.16-6.53-25.92-11.6-5.76-5.06-8.64-12.18-8.64-21.36s3.52-16.29,10.56-21.68c7.04-5.38,16.48-8.08,28.32-8.08,8,0,14.96.96,20.88,2.88s10.53,4.61,13.84,8.08c3.3,3.47,5.73,7.23,7.28,11.28,1.55,4.06,2.37,8.54,2.48,13.44h-13.76c-.64-8.11-3.28-14.05-7.92-17.84-4.64-3.79-12.24-5.68-22.8-5.68-8,0-14.16,1.55-18.48,4.64-4.32,3.09-6.48,7.42-6.48,12.96s1.87,9.87,5.6,12.96c3.62,3.09,10.67,5.81,21.12,8.16l10.08,2.24c12.58,2.78,21.65,6.75,27.2,11.92,5.55,5.18,8.32,12.03,8.32,20.56,0,10.35-3.79,18.51-11.36,24.48-7.57,5.98-18.03,8.96-31.36,8.96Z"/>
      <path class="uuid-54f84528-71a5-43ae-854d-01dd20ea763f" d="M1316.41,702.72h-13.44v-113.92h13.44v113.92Z"/>
      <path class="uuid-54f84528-71a5-43ae-854d-01dd20ea763f" d="M1389.04,656.32v-12.16h48.48v58.56h-11.04l-2.88-15.36c-8.43,11.95-20.85,17.92-37.28,17.92s-29.33-5.49-39.04-16.48c-9.92-10.88-14.88-25.22-14.88-43.04s4.91-32.11,14.72-43.2c9.71-10.88,22.82-16.32,39.36-16.32,13.54,0,24.75,3.63,33.6,10.88,8.85,7.25,14.24,16.91,16.16,28.96h-13.92c-1.39-8.43-5.44-15.15-12.16-20.16-6.51-4.91-14.4-7.36-23.68-7.36-12.16,0-21.87,4.27-29.12,12.8-7.25,8.54-10.88,20-10.88,34.4s3.62,25.87,10.88,34.4c7.25,8.53,16.96,12.8,29.12,12.8,10.77,0,19.95-3.46,27.52-10.4,7.57-6.93,11.36-15.68,11.36-26.24h-36.32Z"/>
      <path class="uuid-54f84528-71a5-43ae-854d-01dd20ea763f" d="M1534,627.2v-38.4h13.28v113.92h-16.32l-37.76-58.72c-10.88-17.28-18.77-30.13-23.68-38.56.32,14.94.48,34.56.48,58.88v38.4h-13.28v-113.92h16.32l37.76,58.72c10.88,17.28,18.77,30.13,23.68,38.56-.32-14.93-.48-34.56-.48-58.88Z"/>
    </g>
    <g class="uuid-6619f1b1-9665-4631-9dc6-cbec630f2e67">
      <path class="uuid-54f84528-71a5-43ae-854d-01dd20ea763f" d="M310.33,748.8v12.16h-65.76v36.32h59.36v12.16h-59.36v41.12h65.12v12.16h-78.56v-113.92h79.2Z"/>
      <path class="uuid-54f84528-71a5-43ae-854d-01dd20ea763f" d="M338.17,748.8v101.76h57.28v12.16h-70.72v-113.92h13.44Z"/>
      <path class="uuid-54f84528-71a5-43ae-854d-01dd20ea763f" d="M488.25,748.8v12.16h-65.76v36.32h59.36v12.16h-59.36v41.12h65.12v12.16h-78.56v-113.92h79.2Z"/>
      <path class="uuid-54f84528-71a5-43ae-854d-01dd20ea763f" d="M548.89,865.28c-15.47,0-28.11-5.38-37.92-16.16-9.81-10.77-14.72-25.23-14.72-43.36s4.9-32.58,14.72-43.36c9.81-10.77,22.45-16.16,37.92-16.16,12.26,0,22.72,3.34,31.36,10,8.64,6.67,14.34,16.4,17.12,29.2h-13.6c-4.8-17.92-16.43-26.88-34.88-26.88-11.63,0-20.96,4.16-28,12.48-7.04,8.43-10.56,20-10.56,34.72s3.52,26.24,10.56,34.56c7.04,8.43,16.37,12.64,28,12.64,8.74,0,16.53-2.72,23.36-8.16,6.72-5.22,10.82-13.07,12.32-23.52h13.44c-1.49,14.19-6.88,25.02-16.16,32.48-9.39,7.68-20.38,11.52-32.96,11.52Z"/>
      <path class="uuid-54f84528-71a5-43ae-854d-01dd20ea763f" d="M594.81,748.8h91.36v12.16h-38.72v101.76h-13.92v-101.76h-38.72v-12.16Z"/>
      <path class="uuid-54f84528-71a5-43ae-854d-01dd20ea763f" d="M781.85,829.76l1.12,18.4c.53,6.4,1.92,11.25,4.16,14.56h-13.92c-2.35-3.41-3.57-8.48-3.68-15.2l-.48-12.16c-.32-7.68-2.03-13.14-5.12-16.4-3.1-3.25-8.16-4.88-15.2-4.88h-37.12v48.64h-13.44v-113.92h48.16c11.73,0,21.09,2.72,28.08,8.16,6.98,5.44,10.48,13.07,10.48,22.88,0,6.93-1.68,12.77-5.04,17.52-3.36,4.75-7.92,8.08-13.68,10,9.6,2.99,14.83,10.46,15.68,22.4ZM711.61,801.92h36.32c7.15,0,12.77-1.84,16.88-5.52,4.1-3.68,6.16-8.93,6.16-15.76s-2.16-11.41-6.48-14.72c-4.32-3.31-10.38-4.96-18.16-4.96h-34.72v40.96Z"/>
      <path class="uuid-54f84528-71a5-43ae-854d-01dd20ea763f" d="M814.97,862.72h-13.44v-113.92h13.44v113.92Z"/>
      <path class="uuid-54f84528-71a5-43ae-854d-01dd20ea763f" d="M883.61,865.28c-15.47,0-28.11-5.38-37.92-16.16-9.81-10.77-14.72-25.23-14.72-43.36s4.9-32.58,14.72-43.36c9.81-10.77,22.45-16.16,37.92-16.16,12.26,0,22.72,3.34,31.36,10,8.64,6.67,14.34,16.4,17.12,29.2h-13.6c-4.8-17.92-16.43-26.88-34.88-26.88-11.63,0-20.96,4.16-28,12.48-7.04,8.43-10.56,20-10.56,34.72s3.52,26.24,10.56,34.56c7.04,8.43,16.37,12.64,28,12.64,8.74,0,16.53-2.72,23.36-8.16,6.72-5.22,10.82-13.07,12.32-23.52h13.44c-1.49,14.19-6.88,25.02-16.16,32.48-9.39,7.68-20.38,11.52-32.96,11.52Z"/>
      <path class="uuid-54f84528-71a5-43ae-854d-01dd20ea763f" d="M971.12,748.8h91.36v12.16h-38.72v101.76h-13.92v-101.76h-38.72v-12.16Z"/>
      <path class="uuid-54f84528-71a5-43ae-854d-01dd20ea763f" d="M1087.92,862.72h-13.44v-113.92h13.44v113.92Z"/>
      <path class="uuid-54f84528-71a5-43ae-854d-01dd20ea763f" d="M1160.56,816.32v-12.16h48.48v58.56h-11.04l-2.88-15.36c-8.43,11.95-20.86,17.92-37.28,17.92s-29.34-5.49-39.04-16.48c-9.92-10.88-14.88-25.22-14.88-43.04s4.9-32.11,14.72-43.2c9.71-10.88,22.83-16.32,39.36-16.32,13.54,0,24.74,3.63,33.6,10.88,8.85,7.25,14.24,16.91,16.16,28.96h-13.92c-1.39-8.43-5.44-15.15-12.16-20.16-6.51-4.91-14.4-7.36-23.68-7.36-12.16,0-21.87,4.27-29.12,12.8-7.25,8.54-10.88,20-10.88,34.4s3.62,25.87,10.88,34.4c7.25,8.53,16.96,12.8,29.12,12.8,10.77,0,19.94-3.46,27.52-10.4,7.57-6.93,11.36-15.68,11.36-26.24h-36.32Z"/>
      <path class="uuid-54f84528-71a5-43ae-854d-01dd20ea763f" d="M1307.44,748.8v12.16h-65.76v36.32h59.36v12.16h-59.36v41.12h65.12v12.16h-78.56v-113.92h79.2Z"/>
      <path class="uuid-54f84528-71a5-43ae-854d-01dd20ea763f" d="M1405.52,829.76l1.12,18.4c.53,6.4,1.92,11.25,4.16,14.56h-13.92c-2.35-3.41-3.58-8.48-3.68-15.2l-.48-12.16c-.32-7.68-2.03-13.14-5.12-16.4-3.09-3.25-8.16-4.88-15.2-4.88h-37.12v48.64h-13.44v-113.92h48.16c11.73,0,21.09,2.72,28.08,8.16,6.99,5.44,10.48,13.07,10.48,22.88,0,6.93-1.68,12.77-5.04,17.52-3.36,4.75-7.92,8.08-13.68,10,9.6,2.99,14.82,10.46,15.68,22.4ZM1335.28,801.92h36.32c7.14,0,12.77-1.84,16.88-5.52,4.1-3.68,6.16-8.93,6.16-15.76s-2.16-11.41-6.48-14.72c-4.32-3.31-10.38-4.96-18.16-4.96h-34.72v40.96Z"/>
      <path class="uuid-54f84528-71a5-43ae-854d-01dd20ea763f" d="M1466.96,865.28c-14.83,0-26.4-3.36-34.72-10.08-8.32-6.72-12.54-16.75-12.64-30.08h13.92c.32,18.67,11.46,28,33.44,28,9.28,0,16.4-1.81,21.36-5.44,4.96-3.62,7.44-8.91,7.44-15.84,0-5.44-2.05-9.68-6.16-12.72-4.11-3.04-11.28-5.68-21.52-7.92l-10.08-2.24c-11.52-2.67-20.16-6.53-25.92-11.6-5.76-5.06-8.64-12.18-8.64-21.36s3.52-16.29,10.56-21.68c7.04-5.38,16.48-8.08,28.32-8.08,8,0,14.96.96,20.88,2.88s10.53,4.61,13.84,8.08c3.3,3.47,5.73,7.23,7.28,11.28,1.55,4.06,2.37,8.54,2.48,13.44h-13.76c-.64-8.11-3.28-14.05-7.92-17.84-4.64-3.79-12.24-5.68-22.8-5.68-8,0-14.16,1.55-18.48,4.64-4.32,3.09-6.48,7.42-6.48,12.96s1.87,9.87,5.6,12.96c3.62,3.09,10.67,5.81,21.12,8.16l10.08,2.24c12.58,2.78,21.65,6.75,27.2,11.92,5.55,5.18,8.32,12.03,8.32,20.56,0,10.35-3.79,18.51-11.36,24.48-7.57,5.98-18.03,8.96-31.36,8.96Z"/>
    </g>
    <g class="uuid-6619f1b1-9665-4631-9dc6-cbec630f2e67">
      <path class="uuid-54f84528-71a5-43ae-854d-01dd20ea763f" d="M231.13,908.8h47.36c12.05,0,21.36,3.15,27.92,9.44,6.56,6.3,9.84,14.83,9.84,25.6s-3.28,19.31-9.84,25.6c-6.56,6.29-15.87,9.44-27.92,9.44h-33.92v43.84h-13.44v-113.92ZM244.57,966.72h33.92c7.89,0,13.84-1.95,17.84-5.84,4-3.89,6-9.57,6-17.04s-2-13.15-6-17.04c-4-3.89-9.95-5.84-17.84-5.84h-33.92v45.76Z"/>
      <path class="uuid-54f84528-71a5-43ae-854d-01dd20ea763f" d="M383.93,935.36l16.64-26.56h15.2l-43.52,68.16v45.76h-13.44v-45.76l-43.52-68.16h15.36l16.8,26.72c7.25,11.31,13.33,21.12,18.24,29.44,6.83-11.52,12.91-21.38,18.24-29.6Z"/>
      <path class="uuid-54f84528-71a5-43ae-854d-01dd20ea763f" d="M507.45,989.76l1.12,18.4c.53,6.4,1.92,11.25,4.16,14.56h-13.92c-2.35-3.41-3.57-8.48-3.68-15.2l-.48-12.16c-.32-7.68-2.03-13.14-5.12-16.4-3.1-3.25-8.16-4.88-15.2-4.88h-37.12v48.64h-13.44v-113.92h48.16c11.73,0,21.09,2.72,28.08,8.16,6.98,5.44,10.48,13.07,10.48,22.88,0,6.93-1.68,12.77-5.04,17.52-3.36,4.75-7.92,8.08-13.68,10,9.6,2.99,14.83,10.46,15.68,22.4ZM437.21,961.92h36.32c7.15,0,12.77-1.84,16.88-5.52,4.1-3.68,6.16-8.93,6.16-15.76s-2.16-11.41-6.48-14.72c-4.32-3.31-10.38-4.96-18.16-4.96h-34.72v40.96Z"/>
      <path class="uuid-54f84528-71a5-43ae-854d-01dd20ea763f" d="M616.57,1008.8c-10.03,10.99-23.25,16.48-39.68,16.48s-29.6-5.49-39.52-16.48c-10.03-10.77-15.04-25.12-15.04-43.04s5.01-32.21,15.04-43.2c9.92-10.88,23.09-16.32,39.52-16.32s29.65,5.44,39.68,16.32c9.92,11.09,14.88,25.5,14.88,43.2s-4.96,32.16-14.88,43.04ZM547.45,1000.16c7.36,8.53,17.17,12.8,29.44,12.8s22.08-4.27,29.44-12.8c7.36-8.43,11.04-19.89,11.04-34.4s-3.68-25.97-11.04-34.4c-7.36-8.53-17.18-12.8-29.44-12.8s-22.08,4.27-29.44,12.8c-7.36,8.43-11.04,19.9-11.04,34.4s3.68,25.97,11.04,34.4Z"/>
      <path class="uuid-54f84528-71a5-43ae-854d-01dd20ea763f" d="M629.05,908.8h91.36v12.16h-38.72v101.76h-13.92v-101.76h-38.72v-12.16Z"/>
      <path class="uuid-54f84528-71a5-43ae-854d-01dd20ea763f" d="M811.61,908.8v12.16h-65.76v36.32h59.36v12.16h-59.36v41.12h65.12v12.16h-78.56v-113.92h79.2Z"/>
      <path class="uuid-54f84528-71a5-43ae-854d-01dd20ea763f" d="M872.25,1025.28c-15.47,0-28.11-5.38-37.92-16.16-9.81-10.77-14.72-25.23-14.72-43.36s4.9-32.58,14.72-43.36c9.81-10.77,22.45-16.16,37.92-16.16,12.26,0,22.72,3.34,31.36,10,8.64,6.67,14.34,16.4,17.12,29.2h-13.6c-4.8-17.92-16.43-26.88-34.88-26.88-11.63,0-20.96,4.16-28,12.48-7.04,8.43-10.56,20-10.56,34.72s3.52,26.24,10.56,34.56c7.04,8.43,16.37,12.64,28,12.64,8.74,0,16.53-2.72,23.36-8.16,6.72-5.22,10.82-13.07,12.32-23.52h13.44c-1.49,14.19-6.88,25.02-16.16,32.48-9.39,7.68-20.38,11.52-32.96,11.52Z"/>
      <path class="uuid-54f84528-71a5-43ae-854d-01dd20ea763f" d="M1013.53,957.76v-48.96h13.44v113.92h-13.44v-52.48h-63.52v52.48h-13.44v-113.92h13.44v48.96h63.52Z"/>
      <path class="uuid-54f84528-71a5-43ae-854d-01dd20ea763f" d="M1125.05,947.2v-38.4h13.28v113.92h-16.32l-37.76-58.72c-10.88-17.28-18.77-30.13-23.68-38.56.32,14.94.48,34.56.48,58.88v38.4h-13.28v-113.92h16.32l37.76,58.72c10.88,17.28,18.77,30.13,23.68,38.56-.32-14.93-.48-34.56-.48-58.88Z"/>
      <path class="uuid-54f84528-71a5-43ae-854d-01dd20ea763f" d="M1172.57,1022.72h-13.44v-113.92h13.44v113.92Z"/>
      <path class="uuid-54f84528-71a5-43ae-854d-01dd20ea763f" d="M1241.21,1025.28c-15.47,0-28.11-5.38-37.92-16.16-9.82-10.77-14.72-25.23-14.72-43.36s4.91-32.58,14.72-43.36c9.81-10.77,22.45-16.16,37.92-16.16,12.26,0,22.72,3.34,31.36,10,8.64,6.67,14.35,16.4,17.12,29.2h-13.6c-4.8-17.92-16.43-26.88-34.88-26.88-11.63,0-20.96,4.16-28,12.48-7.04,8.43-10.56,20-10.56,34.72s3.52,26.24,10.56,34.56c7.04,8.43,16.37,12.64,28,12.64,8.75,0,16.53-2.72,23.36-8.16,6.72-5.22,10.83-13.07,12.32-23.52h13.44c-1.5,14.19-6.88,25.02-16.16,32.48-9.39,7.68-20.38,11.52-32.96,11.52Z"/>
      <path class="uuid-54f84528-71a5-43ae-854d-01dd20ea763f" d="M1347.28,1025.28c-14.83,0-26.4-3.36-34.72-10.08-8.32-6.72-12.54-16.75-12.64-30.08h13.92c.32,18.67,11.46,28,33.44,28,9.28,0,16.4-1.81,21.36-5.44,4.96-3.62,7.44-8.91,7.44-15.84,0-5.44-2.05-9.68-6.16-12.72-4.11-3.04-11.28-5.68-21.52-7.92l-10.08-2.24c-11.52-2.67-20.16-6.53-25.92-11.6-5.76-5.06-8.64-12.18-8.64-21.36s3.52-16.29,10.56-21.68c7.04-5.38,16.48-8.08,28.32-8.08,8,0,14.96.96,20.88,2.88s10.53,4.61,13.84,8.08c3.3,3.47,5.73,7.23,7.28,11.28,1.55,4.06,2.37,8.54,2.48,13.44h-13.76c-.64-8.11-3.28-14.05-7.92-17.84-4.64-3.79-12.24-5.68-22.8-5.68-8,0-14.16,1.55-18.48,4.64-4.32,3.09-6.48,7.42-6.48,12.96s1.87,9.87,5.6,12.96c3.62,3.09,10.67,5.81,21.12,8.16l10.08,2.24c12.58,2.78,21.65,6.75,27.2,11.92,5.55,5.18,8.32,12.03,8.32,20.56,0,10.35-3.79,18.51-11.36,24.48-7.57,5.98-18.03,8.96-31.36,8.96Z"/>
    </g>
    <g class="uuid-6619f1b1-9665-4631-9dc6-cbec630f2e67">
      <path class="uuid-54f84528-71a5-43ae-854d-01dd20ea763f" d="M244.57,1182.72h-13.44v-113.92h13.44v113.92Z"/>
      <path class="uuid-54f84528-71a5-43ae-854d-01dd20ea763f" d="M342.65,1107.2v-38.4h13.28v113.92h-16.32l-37.76-58.72c-10.88-17.28-18.77-30.13-23.68-38.56.32,14.94.48,34.56.48,58.88v38.4h-13.28v-113.92h16.32l37.76,58.72c10.88,17.28,18.77,30.13,23.68,38.56-.32-14.93-.48-34.56-.48-58.88Z"/>
      <path class="uuid-54f84528-71a5-43ae-854d-01dd20ea763f" d="M367.93,1068.8h91.36v12.16h-38.72v101.76h-13.92v-101.76h-38.72v-12.16Z"/>
      <path class="uuid-54f84528-71a5-43ae-854d-01dd20ea763f" d="M550.49,1068.8v12.16h-65.76v36.32h59.36v12.16h-59.36v41.12h65.12v12.16h-78.56v-113.92h79.2Z"/>
      <path class="uuid-54f84528-71a5-43ae-854d-01dd20ea763f" d="M648.57,1149.76l1.12,18.4c.53,6.4,1.92,11.25,4.16,14.56h-13.92c-2.35-3.41-3.57-8.48-3.68-15.2l-.48-12.16c-.32-7.68-2.03-13.14-5.12-16.4-3.1-3.25-8.16-4.88-15.2-4.88h-37.12v48.64h-13.44v-113.92h48.16c11.73,0,21.09,2.72,28.08,8.16,6.98,5.44,10.48,13.07,10.48,22.88,0,6.93-1.68,12.77-5.04,17.52-3.36,4.75-7.92,8.08-13.68,10,9.6,2.99,14.83,10.46,15.68,22.4ZM578.33,1121.92h36.32c7.15,0,12.77-1.84,16.88-5.52,4.1-3.68,6.16-8.93,6.16-15.76s-2.16-11.41-6.48-14.72c-4.32-3.31-10.38-4.96-18.16-4.96h-34.72v40.96Z"/>
      <path class="uuid-54f84528-71a5-43ae-854d-01dd20ea763f" d="M762.81,1182.72h-14.24l-13.28-33.12h-51.84l-13.12,33.12h-14.08l45.44-113.92h15.04l46.08,113.92ZM688.73,1136.16l-.48,1.28h42.24l-.64-1.44c-2.67-6.5-9.6-24.05-20.8-52.64-7.58,20.27-14.35,37.87-20.32,52.8Z"/>
      <path class="uuid-54f84528-71a5-43ae-854d-01dd20ea763f" d="M813.85,1185.28c-15.47,0-28.11-5.38-37.92-16.16-9.81-10.77-14.72-25.23-14.72-43.36s4.9-32.58,14.72-43.36c9.81-10.77,22.45-16.16,37.92-16.16,12.26,0,22.72,3.34,31.36,10,8.64,6.67,14.34,16.4,17.12,29.2h-13.6c-4.8-17.92-16.43-26.88-34.88-26.88-11.63,0-20.96,4.16-28,12.48-7.04,8.43-10.56,20-10.56,34.72s3.52,26.24,10.56,34.56c7.04,8.43,16.37,12.64,28,12.64,8.74,0,16.53-2.72,23.36-8.16,6.72-5.22,10.82-13.07,12.32-23.52h13.44c-1.49,14.19-6.88,25.02-16.16,32.48-9.39,7.68-20.38,11.52-32.96,11.52Z"/>
      <path class="uuid-54f84528-71a5-43ae-854d-01dd20ea763f" d="M859.77,1068.8h91.36v12.16h-38.72v101.76h-13.92v-101.76h-38.72v-12.16Z"/>
      <path class="uuid-54f84528-71a5-43ae-854d-01dd20ea763f" d="M976.57,1182.72h-13.44v-113.92h13.44v113.92Z"/>
      <path class="uuid-54f84528-71a5-43ae-854d-01dd20ea763f" d="M1047.93,1140.96l25.92-72.16h14.08l-42.24,113.92h-15.04l-42.88-113.92h14.24l26.4,72.16c4.8,13.55,8.05,22.99,9.76,28.32,1.6-5.33,4.85-14.77,9.76-28.32Z"/>
      <path class="uuid-54f84528-71a5-43ae-854d-01dd20ea763f" d="M1178.33,1068.8v12.16h-65.76v36.32h59.36v12.16h-59.36v41.12h65.12v12.16h-78.56v-113.92h79.2Z"/>
      <path class="uuid-54f84528-71a5-43ae-854d-01dd20ea763f" d="M1264.88,1185.28c-14.83,0-26.4-3.36-34.72-10.08-8.32-6.72-12.54-16.75-12.64-30.08h13.92c.32,18.67,11.46,28,33.44,28,9.28,0,16.4-1.81,21.36-5.44,4.96-3.62,7.44-8.91,7.44-15.84,0-5.44-2.05-9.68-6.16-12.72-4.11-3.04-11.28-5.68-21.52-7.92l-10.08-2.24c-11.52-2.67-20.16-6.53-25.92-11.6-5.76-5.06-8.64-12.18-8.64-21.36s3.52-16.29,10.56-21.68c7.04-5.38,16.48-8.08,28.32-8.08,8,0,14.96.96,20.88,2.88s10.53,4.61,13.84,8.08c3.3,3.47,5.73,7.23,7.28,11.28,1.55,4.06,2.37,8.54,2.48,13.44h-13.76c-.64-8.11-3.28-14.05-7.92-17.84-4.64-3.79-12.24-5.68-22.8-5.68-8,0-14.16,1.55-18.48,4.64-4.32,3.09-6.48,7.42-6.48,12.96s1.87,9.87,5.6,12.96c3.62,3.09,10.67,5.81,21.12,8.16l10.08,2.24c12.58,2.78,21.65,6.75,27.2,11.92,5.55,5.18,8.32,12.03,8.32,20.56,0,10.35-3.79,18.51-11.36,24.48-7.57,5.98-18.03,8.96-31.36,8.96Z"/>
      <path class="uuid-54f84528-71a5-43ae-854d-01dd20ea763f" d="M1306.8,1068.8h91.36v12.16h-38.72v101.76h-13.92v-101.76h-38.72v-12.16Z"/>
      <path class="uuid-54f84528-71a5-43ae-854d-01dd20ea763f" d="M1487.12,1182.72h-14.24l-13.28-33.12h-51.84l-13.12,33.12h-14.08l45.44-113.92h15.04l46.08,113.92ZM1413.04,1136.16l-.48,1.28h42.24l-.64-1.44c-2.67-6.5-9.6-24.05-20.8-52.64-7.58,20.27-14.35,37.87-20.32,52.8Z"/>
      <path class="uuid-54f84528-71a5-43ae-854d-01dd20ea763f" d="M1542.17,1136.32v-12.16h48.48v58.56h-11.04l-2.88-15.36c-8.43,11.95-20.85,17.92-37.28,17.92s-29.33-5.49-39.04-16.48c-9.92-10.88-14.88-25.22-14.88-43.04s4.91-32.11,14.72-43.2c9.71-10.88,22.82-16.32,39.36-16.32,13.54,0,24.75,3.63,33.6,10.88,8.85,7.25,14.24,16.91,16.16,28.96h-13.92c-1.39-8.43-5.44-15.15-12.16-20.16-6.51-4.91-14.4-7.36-23.68-7.36-12.16,0-21.87,4.27-29.12,12.8-7.25,8.54-10.88,20-10.88,34.4s3.62,25.87,10.88,34.4c7.25,8.53,16.96,12.8,29.12,12.8,10.77,0,19.95-3.46,27.52-10.4,7.57-6.93,11.36-15.68,11.36-26.24h-36.32Z"/>
      <path class="uuid-54f84528-71a5-43ae-854d-01dd20ea763f" d="M1689.04,1068.8v12.16h-65.76v36.32h59.36v12.16h-59.36v41.12h65.12v12.16h-78.56v-113.92h79.2Z"/>
    </g>
    <g class="uuid-6619f1b1-9665-4631-9dc6-cbec630f2e67">
      <path class="uuid-54f84528-71a5-43ae-854d-01dd20ea763f" d="M298.17,1283.52c13.12,5.02,19.68,14.08,19.68,27.2,0,9.92-3.23,17.74-9.68,23.44-6.46,5.71-15.55,8.56-27.28,8.56h-49.76v-113.92h47.36c10.99,0,19.52,2.75,25.6,8.24,6.08,5.5,9.12,12.67,9.12,21.52,0,11.42-5.02,19.74-15.04,24.96ZM277.53,1240.96h-32.96v37.6h32.96c7.36,0,12.96-1.71,16.8-5.12,3.84-3.41,5.76-8.21,5.76-14.4,0-5.65-1.95-10.08-5.84-13.28-3.9-3.2-9.47-4.8-16.72-4.8ZM244.57,1330.56h35.68c7.89,0,13.89-1.71,18-5.12,4.1-3.41,6.16-8.32,6.16-14.72,0-13.44-8.11-20.16-24.32-20.16h-35.52v40Z"/>
      <path class="uuid-54f84528-71a5-43ae-854d-01dd20ea763f" d="M345.69,1228.8v101.76h57.28v12.16h-70.72v-113.92h13.44Z"/>
      <path class="uuid-54f84528-71a5-43ae-854d-01dd20ea763f" d="M487.29,1333.44c-7.79,7.79-18.83,11.68-33.12,11.68s-25.33-3.89-33.12-11.68c-7.79-7.79-11.68-18.77-11.68-32.96v-71.68h13.44v71.68c0,21.66,10.45,32.48,31.36,32.48s31.36-10.83,31.36-32.48v-71.68h13.44v71.68c0,14.19-3.9,25.17-11.68,32.96Z"/>
      <path class="uuid-54f84528-71a5-43ae-854d-01dd20ea763f" d="M597.37,1228.8v12.16h-65.76v36.32h59.36v12.16h-59.36v41.12h65.12v12.16h-78.56v-113.92h79.2Z"/>
      <path class="uuid-54f84528-71a5-43ae-854d-01dd20ea763f" d="M717.53,1228.8v12.16h-61.92v36.32h55.52v12.16h-55.52v53.28h-13.44v-113.92h75.36Z"/>
      <path class="uuid-54f84528-71a5-43ae-854d-01dd20ea763f" d="M744.57,1342.72h-13.44v-113.92h13.44v113.92Z"/>
      <path class="uuid-54f84528-71a5-43ae-854d-01dd20ea763f" d="M849.04,1309.76l1.12,18.4c.53,6.4,1.92,11.25,4.16,14.56h-13.92c-2.35-3.41-3.57-8.48-3.68-15.2l-.48-12.16c-.32-7.68-2.03-13.14-5.12-16.4-3.1-3.25-8.16-4.88-15.2-4.88h-37.12v48.64h-13.44v-113.92h48.16c11.73,0,21.09,2.72,28.08,8.16,6.98,5.44,10.48,13.07,10.48,22.88,0,6.93-1.68,12.77-5.04,17.52-3.36,4.75-7.92,8.08-13.68,10,9.6,2.99,14.83,10.46,15.68,22.4ZM778.8,1281.92h36.32c7.15,0,12.77-1.84,16.88-5.52,4.1-3.68,6.16-8.93,6.16-15.76s-2.16-11.41-6.48-14.72c-4.32-3.31-10.38-4.96-18.16-4.96h-34.72v40.96Z"/>
      <path class="uuid-54f84528-71a5-43ae-854d-01dd20ea763f" d="M947.92,1228.8v12.16h-65.76v36.32h59.36v12.16h-59.36v41.12h65.12v12.16h-78.56v-113.92h79.2Z"/>
      <path class="uuid-54f84528-71a5-43ae-854d-01dd20ea763f" d="M1065.52,1318.08l22.08,24.64h-17.28l-12-13.44c-9.07,10.67-21.33,16-36.8,16-10.46,0-18.78-3.09-24.96-9.28-6.29-6.08-9.44-13.54-9.44-22.4,0-7.46,2.05-13.76,6.16-18.88,4.1-5.12,10.9-10.34,20.4-15.68-4.91-5.54-8.4-10.45-10.48-14.72-2.08-4.26-3.12-8.58-3.12-12.96,0-6.93,2.56-12.9,7.68-17.92,5.01-4.8,11.79-7.2,20.32-7.2,7.57,0,14.13,2.19,19.68,6.56,5.44,4.38,8.16,10.4,8.16,18.08,0,11.31-7.79,21.44-23.36,30.4l23.68,26.4c2.13-6.18,3.2-12.85,3.2-20h12.96c-.32,11.42-2.62,21.55-6.88,30.4ZM1022.32,1333.12c11.84,0,21.01-4.48,27.52-13.44l-28.64-32.16c-7.36,3.95-12.62,7.79-15.76,11.52-3.15,3.73-4.72,8.38-4.72,13.92s1.97,10.43,5.92,14.32c3.95,3.9,9.17,5.84,15.68,5.84ZM1027.92,1237.76c-4.27,0-7.74,1.25-10.4,3.76-2.67,2.51-4,5.79-4,9.84,0,5.66,3.84,12.8,11.52,21.44,6.08-3.3,10.5-6.67,13.28-10.08,2.77-3.41,4.16-7.2,4.16-11.36,0-3.94-1.39-7.2-4.16-9.76-2.77-2.56-6.24-3.84-10.4-3.84Z"/>
      <path class="uuid-54f84528-71a5-43ae-854d-01dd20ea763f" d="M1170.16,1345.28c-14.83,0-26.4-3.36-34.72-10.08-8.32-6.72-12.54-16.75-12.64-30.08h13.92c.32,18.67,11.46,28,33.44,28,9.28,0,16.4-1.81,21.36-5.44,4.96-3.62,7.44-8.91,7.44-15.84,0-5.44-2.05-9.68-6.16-12.72-4.11-3.04-11.28-5.68-21.52-7.92l-10.08-2.24c-11.52-2.67-20.16-6.53-25.92-11.6-5.76-5.06-8.64-12.18-8.64-21.36s3.52-16.29,10.56-21.68c7.04-5.38,16.48-8.08,28.32-8.08,8,0,14.96.96,20.88,2.88,5.92,1.92,10.53,4.61,13.84,8.08,3.3,3.47,5.73,7.23,7.28,11.28,1.55,4.06,2.37,8.54,2.48,13.44h-13.76c-.64-8.11-3.28-14.05-7.92-17.84-4.64-3.79-12.24-5.68-22.8-5.68-8,0-14.16,1.55-18.48,4.64-4.32,3.09-6.48,7.42-6.48,12.96s1.87,9.87,5.6,12.96c3.62,3.09,10.67,5.81,21.12,8.16l10.08,2.24c12.58,2.78,21.65,6.75,27.2,11.92,5.55,5.18,8.32,12.03,8.32,20.56,0,10.35-3.79,18.51-11.36,24.48-7.57,5.98-18.03,8.96-31.36,8.96Z"/>
      <path class="uuid-54f84528-71a5-43ae-854d-01dd20ea763f" d="M1297.68,1291.68l25.44-62.88h17.6v113.92h-13.12v-36.48c0-24,.16-43.36.48-58.08-2.56,7.04-5.92,15.68-10.08,25.92l-28.16,68.64h-11.52l-28.32-68.64c-4.16-10.24-7.52-18.88-10.08-25.92.32,14.72.48,34.08.48,58.08v36.48h-13.12v-113.92h17.6l26.4,64.8c3.94,9.71,8.26,20.64,12.96,32.8,6.5-17.28,10.98-28.85,13.44-34.72Z"/>
      <path class="uuid-54f84528-71a5-43ae-854d-01dd20ea763f" d="M1450.95,1328.8c-10.03,10.99-23.25,16.48-39.68,16.48s-29.6-5.49-39.52-16.48c-10.03-10.77-15.04-25.12-15.04-43.04s5.01-32.21,15.04-43.2c9.92-10.88,23.09-16.32,39.52-16.32s29.65,5.44,39.68,16.32c9.92,11.09,14.88,25.5,14.88,43.2s-4.96,32.16-14.88,43.04ZM1381.83,1320.16c7.36,8.53,17.17,12.8,29.44,12.8s22.08-4.27,29.44-12.8c7.36-8.43,11.04-19.89,11.04-34.4s-3.68-25.97-11.04-34.4c-7.36-8.53-17.17-12.8-29.44-12.8s-22.08,4.27-29.44,12.8c-7.36,8.43-11.04,19.9-11.04,34.4s3.68,25.97,11.04,34.4Z"/>
      <path class="uuid-54f84528-71a5-43ae-854d-01dd20ea763f" d="M1557.51,1228.8h17.76l-48.64,46.4,48.64,67.52h-16.48l-41.92-58.56-21.6,20.64v37.92h-13.44v-113.92h13.44v59.84l62.24-59.84Z"/>
      <path class="uuid-54f84528-71a5-43ae-854d-01dd20ea763f" d="M1664.87,1228.8v12.16h-65.76v36.32h59.36v12.16h-59.36v41.12h65.12v12.16h-78.56v-113.92h79.2Z"/>
    </g>
    <g class="uuid-6619f1b1-9665-4631-9dc6-cbec630f2e67">
      <path class="uuid-54f84528-71a5-43ae-854d-01dd20ea763f" d="M231.13,1388.8h38.4c17.28,0,30.93,5.01,40.96,15.04,9.92,10.03,14.88,24,14.88,41.92s-4.96,31.63-14.88,41.76c-10.13,10.13-23.79,15.2-40.96,15.2h-38.4v-113.92ZM244.57,1490.56h24.96c13.44,0,23.76-3.95,30.96-11.84,7.2-7.89,10.8-18.88,10.8-32.96s-3.6-25.07-10.8-32.96c-7.2-7.89-17.52-11.84-30.96-11.84h-24.96v89.6Z"/>
      <path class="uuid-54f84528-71a5-43ae-854d-01dd20ea763f" d="M430.33,1502.72h-14.24l-13.28-33.12h-51.84l-13.12,33.12h-14.08l45.44-113.92h15.04l46.08,113.92ZM356.25,1456.16l-.48,1.28h42.24l-.64-1.44c-2.67-6.5-9.6-24.05-20.8-52.64-7.58,20.27-14.35,37.87-20.32,52.8Z"/>
      <path class="uuid-54f84528-71a5-43ae-854d-01dd20ea763f" d="M517.21,1427.2v-38.4h13.28v113.92h-16.32l-37.76-58.72c-10.88-17.28-18.77-30.13-23.68-38.56.32,14.94.48,34.56.48,58.88v38.4h-13.28v-113.92h16.32l37.76,58.72c10.88,17.28,18.77,30.13,23.68,38.56-.32-14.93-.48-34.56-.48-58.88Z"/>
      <path class="uuid-54f84528-71a5-43ae-854d-01dd20ea763f" d="M599.13,1505.28c-15.47,0-28.11-5.38-37.92-16.16-9.81-10.77-14.72-25.23-14.72-43.36s4.9-32.58,14.72-43.36c9.81-10.77,22.45-16.16,37.92-16.16,12.26,0,22.72,3.34,31.36,10,8.64,6.67,14.34,16.4,17.12,29.2h-13.6c-4.8-17.92-16.43-26.88-34.88-26.88-11.63,0-20.96,4.16-28,12.48-7.04,8.43-10.56,20-10.56,34.72s3.52,26.24,10.56,34.56c7.04,8.43,16.37,12.64,28,12.64,8.74,0,16.53-2.72,23.36-8.16,6.72-5.22,10.82-13.07,12.32-23.52h13.44c-1.49,14.19-6.88,25.02-16.16,32.48-9.39,7.68-20.38,11.52-32.96,11.52Z"/>
      <path class="uuid-54f84528-71a5-43ae-854d-01dd20ea763f" d="M742.65,1388.8v12.16h-65.76v36.32h59.36v12.16h-59.36v41.12h65.12v12.16h-78.56v-113.92h79.2Z"/>
      <path class="uuid-54f84528-71a5-43ae-854d-01dd20ea763f" d="M835.29,1505.28c-15.47,0-28.11-5.38-37.92-16.16-9.81-10.77-14.72-25.23-14.72-43.36s4.9-32.58,14.72-43.36c9.81-10.77,22.45-16.16,37.92-16.16,12.26,0,22.72,3.34,31.36,10,8.64,6.67,14.34,16.4,17.12,29.2h-13.6c-4.8-17.92-16.43-26.88-34.88-26.88-11.63,0-20.96,4.16-28,12.48-7.04,8.43-10.56,20-10.56,34.72s3.52,26.24,10.56,34.56c7.04,8.43,16.37,12.64,28,12.64,8.74,0,16.53-2.72,23.36-8.16,6.72-5.22,10.82-13.07,12.32-23.52h13.44c-1.49,14.19-6.88,25.02-16.16,32.48-9.39,7.68-20.38,11.52-32.96,11.52Z"/>
      <path class="uuid-54f84528-71a5-43ae-854d-01dd20ea763f" d="M975.93,1493.44c-7.79,7.79-18.83,11.68-33.12,11.68s-25.33-3.89-33.12-11.68c-7.79-7.79-11.68-18.77-11.68-32.96v-71.68h13.44v71.68c0,21.66,10.45,32.48,31.36,32.48s31.36-10.83,31.36-32.48v-71.68h13.44v71.68c0,14.19-3.89,25.17-11.68,32.96Z"/>
      <path class="uuid-54f84528-71a5-43ae-854d-01dd20ea763f" d="M1073.85,1443.52c13.12,5.02,19.68,14.08,19.68,27.2,0,9.92-3.23,17.74-9.68,23.44-6.46,5.71-15.55,8.56-27.28,8.56h-49.76v-113.92h47.36c10.99,0,19.52,2.75,25.6,8.24,6.08,5.5,9.12,12.67,9.12,21.52,0,11.42-5.01,19.74-15.04,24.96ZM1053.21,1400.96h-32.96v37.6h32.96c7.36,0,12.96-1.71,16.8-5.12,3.84-3.41,5.76-8.21,5.76-14.4,0-5.65-1.95-10.08-5.84-13.28-3.9-3.2-9.47-4.8-16.72-4.8ZM1020.25,1490.56h35.68c7.89,0,13.89-1.71,18-5.12,4.1-3.41,6.16-8.32,6.16-14.72,0-13.44-8.11-20.16-24.32-20.16h-35.52v40Z"/>
      <path class="uuid-54f84528-71a5-43ae-854d-01dd20ea763f" d="M1187.12,1388.8v12.16h-65.76v36.32h59.36v12.16h-59.36v41.12h65.12v12.16h-78.56v-113.92h79.2Z"/>
      <path class="uuid-54f84528-71a5-43ae-854d-01dd20ea763f" d="M1287.12,1388.8l-38.56,55.04,40.8,58.88h-15.68l-16.96-24.64c-2.56-3.62-7.95-11.52-16.16-23.68-3.09,4.59-8.54,12.48-16.32,23.68l-17.28,24.64h-15.04l41.12-58.4-38.88-55.52h15.68l15.52,22.56c6.72,9.6,11.84,17.18,15.36,22.72,3.3-5.01,8.53-12.64,15.68-22.88l15.68-22.4h15.04Z"/>
      <path class="uuid-54f84528-71a5-43ae-854d-01dd20ea763f" d="M1340.4,1505.28c-15.47,0-28.11-5.38-37.92-16.16-9.82-10.77-14.72-25.23-14.72-43.36s4.91-32.58,14.72-43.36c9.81-10.77,22.45-16.16,37.92-16.16,12.26,0,22.72,3.34,31.36,10,8.64,6.67,14.35,16.4,17.12,29.2h-13.6c-4.8-17.92-16.43-26.88-34.88-26.88-11.63,0-20.96,4.16-28,12.48-7.04,8.43-10.56,20-10.56,34.72s3.52,26.24,10.56,34.56c7.04,8.43,16.37,12.64,28,12.64,8.75,0,16.53-2.72,23.36-8.16,6.72-5.22,10.83-13.07,12.32-23.52h13.44c-1.5,14.19-6.88,25.02-16.16,32.48-9.39,7.68-20.38,11.52-32.96,11.52Z"/>
      <path class="uuid-54f84528-71a5-43ae-854d-01dd20ea763f" d="M1481.04,1493.44c-7.79,7.79-18.83,11.68-33.12,11.68s-25.33-3.89-33.12-11.68c-7.79-7.79-11.68-18.77-11.68-32.96v-71.68h13.44v71.68c0,21.66,10.45,32.48,31.36,32.48s31.36-10.83,31.36-32.48v-71.68h13.44v71.68c0,14.19-3.9,25.17-11.68,32.96Z"/>
      <path class="uuid-54f84528-71a5-43ae-854d-01dd20ea763f" d="M1578.96,1443.52c13.12,5.02,19.68,14.08,19.68,27.2,0,9.92-3.23,17.74-9.68,23.44-6.46,5.71-15.55,8.56-27.28,8.56h-49.76v-113.92h47.36c10.99,0,19.52,2.75,25.6,8.24,6.08,5.5,9.12,12.67,9.12,21.52,0,11.42-5.02,19.74-15.04,24.96ZM1558.32,1400.96h-32.96v37.6h32.96c7.36,0,12.96-1.71,16.8-5.12,3.84-3.41,5.76-8.21,5.76-14.4,0-5.65-1.95-10.08-5.84-13.28-3.89-3.2-9.47-4.8-16.72-4.8ZM1525.36,1490.56h35.68c7.89,0,13.89-1.71,18-5.12,4.11-3.41,6.16-8.32,6.16-14.72,0-13.44-8.11-20.16-24.32-20.16h-35.52v40Z"/>
      <path class="uuid-54f84528-71a5-43ae-854d-01dd20ea763f" d="M1692.24,1388.8v12.16h-65.76v36.32h59.36v12.16h-59.36v41.12h65.12v12.16h-78.56v-113.92h79.2Z"/>
    </g>
  </g>
</svg>