<?xml version="1.0" encoding="UTF-8"?>
<svg id="uuid-fcb22758-27c4-47bf-84ed-339e5fa53ce1" data-name="Layer 1" xmlns="http://www.w3.org/2000/svg" xmlns:xlink="http://www.w3.org/1999/xlink" viewBox="0 0 1920 1920">
  <defs>
    <style>
      .uuid-5d689dec-ae2a-4913-bc4d-c16e1c30d7ae {
        isolation: isolate;
      }

      .uuid-f1b15cac-90a3-4784-a526-1020c62450c9 {
        fill: #f4eddf;
      }

      .uuid-f1b15cac-90a3-4784-a526-1020c62450c9, .uuid-9d7e93c9-4246-42d1-84f1-8fb2d45dbe1e {
        stroke-width: 0px;
      }

      .uuid-9d7e93c9-4246-42d1-84f1-8fb2d45dbe1e {
        fill: #1d1a1a;
      }
    </style>
  </defs>
  <image width="1920" height="1920" xlink:href="https://mylgcontent.s3.us-west-1.amazonaws.com/04-Bloom+%26+Bliss/18.png"/>
  <image width="450" height="450" transform="translate(221 1181)" xlink:href="https://mylgcontent.s3.us-west-1.amazonaws.com/04-Bloom+%26+Bliss/24.png"/>
  <image width="450" height="450" transform="translate(689 1179)" xlink:href="https://mylgcontent.s3.us-west-1.amazonaws.com/04-Bloom+%26+Bliss/25.png"/>
  <image width="450" height="450" transform="translate(220 710)" xlink:href="https://mylgcontent.s3.us-west-1.amazonaws.com/04-Bloom+%26+Bliss/22.png"/>
  <image width="450" height="450" transform="translate(1160 710)" xlink:href="https://mylgcontent.s3.us-west-1.amazonaws.com/04-Bloom+%26+Bliss/23.png"/>
  <image width="450" height="450" transform="translate(1160 238)" xlink:href="https://mylgcontent.s3.us-west-1.amazonaws.com/04-Bloom+%26+Bliss/21.png"/>
  <image width="450" height="450" transform="translate(689 239)" xlink:href="https://mylgcontent.s3.us-west-1.amazonaws.com/04-Bloom+%26+Bliss/20.png"/>
  <image width="450" height="450" transform="translate(1159 1181)" xlink:href="https://mylgcontent.s3.us-west-1.amazonaws.com/04-Bloom+%26+Bliss/26.png"/>
  <image width="450" height="450" transform="translate(221 239)" xlink:href="https://mylgcontent.s3.us-west-1.amazonaws.com/04-Bloom+%26+Bliss/19.png"/>
  <path id="uuid-18c9d737-447b-4776-9891-474a458c87ae" data-name="Screen Shot 2023-11-30 at 2.33.08 AM" class="uuid-f1b15cac-90a3-4784-a526-1020c62450c9" d="m767.58,709.23h294c43.08,0,78,34.92,78,78v294c0,43.08-34.92,78-78,78h-294c-43.08,0-78-34.92-78-78v-294c0-43.08,34.92-78,78-78Z"/>
  <g id="uuid-1669aadf-c88e-43bc-83cc-4f6c33259d40" data-name="VEGAN CRUELTY-FREE ORGANIC INGREDIENTS THC INFUSED " class="uuid-5d689dec-ae2a-4913-bc4d-c16e1c30d7ae">
    <g class="uuid-5d689dec-ae2a-4913-bc4d-c16e1c30d7ae">
      <path class="uuid-9d7e93c9-4246-42d1-84f1-8fb2d45dbe1e" d="m771.45,800.08c.9,0,1.65-.03,2.26-.09v.6c-1.01.22-1.8,1.09-2.37,2.61l-7.05,18.18h-.48l-7.32-18.87c-.49-1.24-1.18-1.88-2.07-1.92v-.6c.81.06,1.88.09,3.21.09,1.72,0,3-.03,3.84-.09v.6c-.76.03-1.31.12-1.63.28s-.49.43-.49.83c0,.33.12.8.35,1.41l5.43,14.41,4.89-12.67c.4-1.04.6-1.85.6-2.45,0-.63-.21-1.09-.64-1.37-.43-.28-1.09-.43-1.98-.45v-.6c1.14.06,2.29.09,3.46.09Z"/>
      <path class="uuid-9d7e93c9-4246-42d1-84f1-8fb2d45dbe1e" d="m789.19,817.39c0,1.13.07,2.41.21,3.84-1.36-.06-3.65-.09-6.87-.09-3.84,0-6.74.03-8.7.09v-.6c.72-.03,1.25-.11,1.57-.23s.55-.36.67-.7.18-.89.18-1.64v-14.88c0-.75-.06-1.3-.18-1.64s-.35-.58-.67-.7-.85-.21-1.57-.23v-.6c1.96.06,4.86.09,8.7.09,2.94,0,5.03-.03,6.27-.09-.14,1.31-.21,2.49-.21,3.54,0,.78.03,1.4.09,1.86h-.69c-.15-1.3-.33-2.27-.55-2.9s-.59-1.1-1.11-1.38-1.31-.43-2.37-.43h-2.49c-.72,0-1.25.06-1.57.18s-.55.34-.67.68c-.12.34-.18.88-.18,1.63v7.08h1.99c1.01,0,1.67-.3,2.01-.9.33-.6.54-1.21.62-1.84s.13-1.03.16-1.22h.69c-.07.99-.1,1.93-.1,2.83v1.44c.01,1.02.07,2.44.19,4.26h-.69c-.02-.14-.08-.62-.17-1.45s-.36-1.46-.81-1.88c-.45-.43-1.08-.64-1.89-.64h-1.99v7.21c0,.75.06,1.3.18,1.63.12.34.35.56.67.68s.85.18,1.57.18h2.2c1.25,0,2.2-.17,2.85-.5s1.12-.86,1.41-1.6.51-1.81.67-3.22h.69c-.06.54-.09,1.26-.09,2.17Z"/>
      <path class="uuid-9d7e93c9-4246-42d1-84f1-8fb2d45dbe1e" d="m807.63,820.07c-.15-.37-.34-.55-.57-.55-.13,0-.25.03-.37.09-.12.06-.32.2-.62.42-.7.54-1.43.94-2.18,1.22s-1.58.41-2.51.41c-2.05,0-3.81-.42-5.29-1.27s-2.6-2.08-3.38-3.68-1.16-3.51-1.16-5.73.41-4.3,1.24-6.03,1.97-3.05,3.44-3.98,3.12-1.4,4.98-1.4c.81,0,1.53.09,2.16.26s1.18.39,1.64.65,1,.61,1.6,1.04c.25.21.45.31.6.31.38,0,.63-.61.75-1.83h.69c-.08,1.3-.12,3.6-.12,6.9h-.69c-.18-1.07-.37-1.96-.57-2.64-.21-.69-.52-1.29-.94-1.79-.59-.72-1.34-1.29-2.27-1.71s-1.9-.63-2.92-.63c-1.32,0-2.48.43-3.47,1.29s-1.77,2.08-2.31,3.67-.82,3.44-.82,5.57c0,2.4.26,4.37.77,5.9s1.29,2.67,2.34,3.41,2.4,1.11,4.04,1.11c1.2,0,2.24-.31,3.12-.94.36-.24.6-.48.7-.7s.16-.54.16-.94v-2.89c0-.83-.08-1.44-.23-1.82s-.44-.65-.85-.79-1.06-.23-1.95-.27v-.6c.99.07,2.4.1,4.23.1,1.41,0,2.45-.03,3.12-.1v.6c-.47.04-.8.12-1,.24s-.34.35-.41.68-.11.88-.11,1.66v5.95h-.6c-.02-.41-.1-.8-.25-1.16Z"/>
      <path class="uuid-9d7e93c9-4246-42d1-84f1-8fb2d45dbe1e" d="m829.23,820.63v.6c-.82-.06-1.89-.09-3.22-.09-1.71,0-2.99.03-3.84.09v-.6c.76-.03,1.31-.12,1.63-.28s.49-.43.49-.83c0-.34-.12-.81-.35-1.41l-1.85-4.92h-7.24l-1.23,3.18c-.4,1.02-.6,1.84-.6,2.46s.21,1.09.64,1.36,1.08.42,1.97.44v.6c-1.14-.06-2.29-.09-3.46-.09-.9,0-1.65.03-2.24.09v-.6c1-.22,1.78-1.09,2.36-2.61l7.06-18.18h.48l7.31,18.87c.49,1.24,1.18,1.88,2.08,1.92Zm-10.71-16.99l-3.44,8.95h6.8l-3.35-8.95Z"/>
      <path class="uuid-9d7e93c9-4246-42d1-84f1-8fb2d45dbe1e" d="m846.08,800.89c-.34.17-.57.45-.7.84s-.19.97-.19,1.74v17.9h-.69l-12.6-19.47v15.83c0,.77.07,1.35.21,1.74s.39.67.77.84.96.27,1.75.3v.6c-.71-.06-1.73-.09-3.06-.09-1.19,0-2.12.03-2.78.09v-.6c.69-.03,1.21-.13,1.55-.3s.57-.45.7-.84.19-.97.19-1.74v-14.58c0-.75-.06-1.3-.18-1.64s-.35-.58-.67-.7-.85-.21-1.57-.23v-.6c.65.06,1.58.09,2.78.09.9,0,1.68-.03,2.34-.09l10.59,16.32v-12.83c0-.77-.07-1.35-.2-1.74s-.39-.67-.77-.84c-.38-.17-.97-.27-1.76-.3v-.6c.71.06,1.73.09,3.06.09,1.19,0,2.12-.03,2.78-.09v.6c-.69.03-1.21.13-1.55.3Z"/>
    </g>
    <g class="uuid-5d689dec-ae2a-4913-bc4d-c16e1c30d7ae">
      <path class="uuid-9d7e93c9-4246-42d1-84f1-8fb2d45dbe1e" d="m772.33,899.88c-.11-.28-.28-.42-.49-.42-.16,0-.36.08-.62.25-.6.42-1.15.76-1.65,1.03s-1.08.49-1.72.66c-.64.17-1.37.26-2.18.26-1.9,0-3.57-.43-5-1.29s-2.54-2.11-3.33-3.74c-.79-1.63-1.18-3.58-1.18-5.84s.41-4.16,1.22-5.86,1.94-3.02,3.38-3.96,3.09-1.41,4.94-1.41c1.19,0,2.21.17,3.05.51s1.67.82,2.47,1.44c.21.18.41.26.59.26.41,0,.66-.6.76-1.79h.69c-.08,1.3-.12,3.6-.12,6.9h-.69c-.15-.9-.28-1.6-.4-2.09s-.27-.92-.43-1.27c-.17-.35-.39-.71-.67-1.08-.61-.78-1.37-1.37-2.3-1.76s-1.93-.59-3-.59c-1.3,0-2.44.43-3.41,1.29s-1.73,2.08-2.27,3.68-.81,3.46-.81,5.6.29,4.05.88,5.61,1.39,2.75,2.42,3.56,2.19,1.22,3.49,1.22c1,0,1.97-.19,2.92-.57s1.68-.95,2.21-1.71c.41-.55.7-1.14.88-1.78s.35-1.63.51-2.97h.69c0,3.45.04,5.85.12,7.21h-.69c-.05-.62-.13-1.08-.24-1.36Z"/>
      <path class="uuid-9d7e93c9-4246-42d1-84f1-8fb2d45dbe1e" d="m792.72,901.2c-.46.3-1.06.45-1.82.45-.82,0-1.49-.24-2.02-.72s-.93-1.32-1.2-2.53l-.66-2.99c-.23-1.04-.46-1.85-.67-2.41s-.53-1.01-.95-1.35c-.42-.34-1.01-.51-1.77-.51h-2.86v6.9c0,.75.06,1.3.18,1.64s.35.58.67.7.85.21,1.57.23v.6c-.92-.06-2.19-.09-3.81-.09-1.72,0-3,.03-3.84.09v-.6c.72-.03,1.25-.11,1.57-.23s.55-.36.67-.7.18-.89.18-1.64v-14.88c0-.75-.06-1.3-.18-1.64s-.35-.58-.67-.7-.85-.21-1.57-.23v-.6c.84.06,2.06.09,3.66.09.78,0,1.64,0,2.59-.03s1.59-.03,1.94-.03c1.56,0,2.89.23,3.97.68,1.08.45,1.9,1.07,2.45,1.86.55.79.82,1.68.82,2.67,0,.78-.18,1.57-.55,2.37-.37.8-.99,1.51-1.86,2.14-.87.63-2.01,1.05-3.42,1.27l.37.06c.9.15,1.62.37,2.15.67.54.3.96.71,1.28,1.22s.57,1.21.77,2.07l.75,3.06c.13.62.26,1.1.39,1.44.13.35.29.6.47.77s.41.25.68.25c.33,0,.61-.08.82-.26.21-.17.49-.47.82-.89l.45.34c-.47.67-.93,1.16-1.39,1.46Zm-6.75-11.29c.76-.43,1.29-1.01,1.58-1.73s.44-1.59.44-2.61c0-1.64-.39-2.88-1.17-3.72s-2.05-1.26-3.81-1.26c-.62,0-1.09.07-1.41.21-.31.14-.53.39-.64.75s-.18.9-.18,1.61v7.38h2.02c1.35,0,2.4-.21,3.16-.64Z"/>
      <path class="uuid-9d7e93c9-4246-42d1-84f1-8fb2d45dbe1e" d="m810.74,880.89c-.34.17-.57.45-.69.84s-.18.97-.18,1.74v9.02c0,1.44-.1,2.67-.29,3.7s-.51,1.92-.94,2.66c-.51.86-1.25,1.54-2.22,2.04-.97.5-2.06.75-3.27.75-2.2,0-3.88-.54-5.04-1.63-.6-.56-1.05-1.14-1.37-1.77-.32-.62-.54-1.37-.67-2.25s-.19-2.02-.19-3.43v-9.42c0-.75-.06-1.3-.18-1.64s-.35-.58-.67-.7-.85-.21-1.57-.23v-.6c.85.06,2.13.09,3.84.09,1.61,0,2.89-.03,3.82-.09v.6c-.72.03-1.25.11-1.57.23s-.55.36-.67.7-.18.89-.18,1.64v9.93c0,1.6.11,2.93.32,3.98s.67,1.9,1.35,2.55,1.71.97,3.05.97c2.12,0,3.61-.68,4.47-2.04s1.29-3.27,1.29-5.73v-9.36c0-.74-.09-1.31-.26-1.71s-.45-.69-.83-.86-.93-.28-1.63-.31v-.6c.72.06,1.74.09,3.06.09,1.2,0,2.13-.03,2.78-.09v.6c-.69.03-1.21.13-1.55.3Z"/>
      <path class="uuid-9d7e93c9-4246-42d1-84f1-8fb2d45dbe1e" d="m828.83,897.39c0,1.13.07,2.41.21,3.84-1.36-.06-3.65-.09-6.87-.09-3.84,0-6.74.03-8.7.09v-.6c.72-.03,1.25-.11,1.57-.23s.55-.36.67-.7.18-.89.18-1.64v-14.88c0-.75-.06-1.3-.18-1.64s-.35-.58-.67-.7-.85-.21-1.57-.23v-.6c1.96.06,4.86.09,8.7.09,2.94,0,5.03-.03,6.27-.09-.14,1.31-.21,2.49-.21,3.54,0,.78.03,1.4.09,1.86h-.69c-.15-1.3-.33-2.27-.55-2.9s-.59-1.1-1.11-1.38-1.31-.43-2.37-.43h-2.49c-.72,0-1.25.06-1.57.18s-.55.34-.67.68c-.12.34-.18.88-.18,1.63v7.08h1.99c1.01,0,1.67-.3,2.01-.9.33-.6.54-1.21.62-1.84s.13-1.03.16-1.22h.69c-.07.99-.1,1.93-.1,2.83v1.44c.01,1.02.07,2.44.19,4.26h-.69c-.02-.14-.08-.62-.17-1.45s-.36-1.46-.81-1.88c-.45-.43-1.08-.64-1.89-.64h-1.99v7.21c0,.75.06,1.3.18,1.63.12.34.35.56.67.68s.85.18,1.57.18h2.2c1.25,0,2.2-.17,2.85-.5s1.12-.86,1.41-1.6.51-1.81.67-3.22h.69c-.06.54-.09,1.26-.09,2.17Z"/>
      <path class="uuid-9d7e93c9-4246-42d1-84f1-8fb2d45dbe1e" d="m836.91,880.83c-.33.13-.55.36-.67.7s-.18.89-.18,1.64v14.88c0,.75.06,1.3.18,1.63.12.34.35.56.67.68s.85.18,1.57.18h2.2c1.25,0,2.2-.18,2.85-.53s1.12-.91,1.41-1.68.51-1.9.67-3.4h.69c-.06.62-.09,1.45-.09,2.46,0,1.13.07,2.41.21,3.84-1.36-.06-3.65-.09-6.87-.09-3.84,0-6.74.03-8.7.09v-.6c.72-.03,1.25-.11,1.57-.23s.55-.36.67-.7.18-.89.18-1.64v-14.88c0-.75-.06-1.3-.18-1.64s-.35-.58-.67-.7-.85-.21-1.57-.23v-.6c.83.06,2.11.09,3.84.09,1.62,0,2.89-.03,3.81-.09v.6c-.72.03-1.25.11-1.57.23Z"/>
      <path class="uuid-9d7e93c9-4246-42d1-84f1-8fb2d45dbe1e" d="m845.3,883.83c0-1.17-.07-2.45-.22-3.84,1.66.06,4.48.09,8.47.09s6.76-.03,8.42-.09c-.14,1.43-.21,2.71-.21,3.84,0,1.01.03,1.83.09,2.46h-.69c-.16-1.55-.35-2.7-.59-3.45-.24-.75-.66-1.29-1.26-1.64s-1.52-.52-2.76-.52h-1.63v17.07c0,.83.08,1.44.23,1.82s.44.65.85.8,1.06.23,1.95.26v.6c-1.05-.06-2.52-.09-4.41-.09-2,0-3.48.03-4.44.09v-.6c.89-.03,1.54-.12,1.95-.26s.69-.41.85-.8.23-.99.23-1.82v-17.07h-1.63c-1.24,0-2.16.17-2.76.52s-1.02.89-1.26,1.64c-.24.75-.44,1.9-.59,3.45h-.69c.06-.63.09-1.46.09-2.46Z"/>
      <path class="uuid-9d7e93c9-4246-42d1-84f1-8fb2d45dbe1e" d="m877.36,880.08c.9,0,1.65-.03,2.24-.09v.6c-.4.09-.79.34-1.17.75s-.79,1.05-1.23,1.91l-4.7,9.33v5.46c0,.75.06,1.3.18,1.64s.35.58.67.7.85.21,1.57.23v.6c-.94-.06-2.21-.09-3.81-.09-1.72,0-3,.03-3.85.09v-.6c.72-.03,1.25-.11,1.57-.23s.55-.36.67-.7.18-.89.18-1.64v-4.53l-6.08-11.22c-.37-.67-.69-1.12-.96-1.35s-.53-.34-.78-.34v-.63c.78.06,1.66.09,2.64.09,1.94,0,3.34-.03,4.2-.09v.63c-1.41,0-2.11.39-2.11,1.16,0,.29.1.64.31,1.04l5,9.57,3.82-7.62c.55-1.1.82-1.96.82-2.58,0-.57-.22-.97-.66-1.21-.44-.24-1.1-.37-1.99-.39v-.6c1.14.06,2.29.09,3.46.09Z"/>
      <path class="uuid-9d7e93c9-4246-42d1-84f1-8fb2d45dbe1e" d="m879.07,894.03v-1.73h10.84v1.73h-10.84Z"/>
      <path class="uuid-9d7e93c9-4246-42d1-84f1-8fb2d45dbe1e" d="m901.03,880.08c2.94,0,5.03-.03,6.27-.09-.14,1.43-.21,2.71-.21,3.84,0,1.01.03,1.83.09,2.46h-.69c-.16-1.55-.36-2.7-.6-3.45-.24-.75-.67-1.29-1.27-1.64s-1.52-.52-2.76-.52h-1.89c-.72,0-1.25.06-1.57.18s-.55.34-.67.68c-.12.34-.18.88-.18,1.63v7.38h2.2c1.01,0,1.67-.3,2.01-.9.33-.6.54-1.21.62-1.84s.13-1.03.16-1.22h.69c-.07.98-.1,1.92-.1,2.83v1.42c.01,1.05.08,2.48.21,4.26h-.7c-.02-.14-.08-.62-.17-1.45s-.36-1.46-.81-1.88-1.08-.63-1.89-.63h-2.2v6.9c0,.75.08,1.3.23,1.64s.44.58.85.7,1.06.21,1.95.23v.6c-1.04-.06-2.5-.09-4.41-.09-1.72,0-3,.03-3.84.09v-.6c.72-.03,1.25-.11,1.57-.23s.55-.36.67-.7.18-.89.18-1.64v-14.88c0-.75-.06-1.3-.18-1.64s-.35-.58-.67-.7-.85-.21-1.57-.23v-.6c1.96.06,4.86.09,8.7.09Z"/>
      <path class="uuid-9d7e93c9-4246-42d1-84f1-8fb2d45dbe1e" d="m925.65,901.2c-.46.3-1.06.45-1.82.45-.82,0-1.49-.24-2.02-.72s-.93-1.32-1.2-2.53l-.66-2.99c-.23-1.04-.46-1.85-.67-2.41s-.53-1.01-.95-1.35c-.42-.34-1.01-.51-1.77-.51h-2.86v6.9c0,.75.06,1.3.18,1.64s.35.58.67.7.85.21,1.57.23v.6c-.92-.06-2.19-.09-3.81-.09-1.72,0-3,.03-3.84.09v-.6c.72-.03,1.25-.11,1.57-.23s.55-.36.67-.7.18-.89.18-1.64v-14.88c0-.75-.06-1.3-.18-1.64s-.35-.58-.67-.7-.85-.21-1.57-.23v-.6c.84.06,2.06.09,3.66.09.78,0,1.64,0,2.59-.03s1.59-.03,1.94-.03c1.56,0,2.89.23,3.97.68,1.08.45,1.9,1.07,2.45,1.86.55.79.82,1.68.82,2.67,0,.78-.18,1.57-.55,2.37-.37.8-.99,1.51-1.86,2.14-.87.63-2.01,1.05-3.42,1.27l.37.06c.9.15,1.62.37,2.15.67.54.3.96.71,1.28,1.22s.57,1.21.77,2.07l.75,3.06c.13.62.26,1.1.39,1.44.13.35.29.6.47.77s.41.25.68.25c.33,0,.61-.08.82-.26.21-.17.49-.47.82-.89l.45.34c-.47.67-.93,1.16-1.39,1.46Zm-6.75-11.29c.76-.43,1.29-1.01,1.58-1.73s.44-1.59.44-2.61c0-1.64-.39-2.88-1.17-3.72s-2.05-1.26-3.81-1.26c-.62,0-1.09.07-1.41.21-.31.14-.53.39-.64.75s-.18.9-.18,1.61v7.38h2.02c1.35,0,2.4-.21,3.16-.64Z"/>
      <path class="uuid-9d7e93c9-4246-42d1-84f1-8fb2d45dbe1e" d="m942.4,897.39c0,1.13.07,2.41.21,3.84-1.36-.06-3.65-.09-6.87-.09-3.84,0-6.74.03-8.7.09v-.6c.72-.03,1.25-.11,1.57-.23s.55-.36.67-.7.18-.89.18-1.64v-14.88c0-.75-.06-1.3-.18-1.64s-.35-.58-.67-.7-.85-.21-1.57-.23v-.6c1.96.06,4.86.09,8.7.09,2.94,0,5.03-.03,6.27-.09-.14,1.31-.21,2.49-.21,3.54,0,.78.03,1.4.09,1.86h-.69c-.15-1.3-.33-2.27-.55-2.9s-.59-1.1-1.11-1.38-1.31-.43-2.37-.43h-2.49c-.72,0-1.25.06-1.57.18s-.55.34-.67.68c-.12.34-.18.88-.18,1.63v7.08h1.99c1.01,0,1.67-.3,2.01-.9.33-.6.54-1.21.62-1.84s.13-1.03.16-1.22h.69c-.07.99-.1,1.93-.1,2.83v1.44c.01,1.02.07,2.44.19,4.26h-.69c-.02-.14-.08-.62-.17-1.45s-.36-1.46-.81-1.88c-.45-.43-1.08-.64-1.89-.64h-1.99v7.21c0,.75.06,1.3.18,1.63.12.34.35.56.67.68s.85.18,1.57.18h2.2c1.25,0,2.2-.17,2.85-.5s1.12-.86,1.41-1.6.51-1.81.67-3.22h.69c-.06.54-.09,1.26-.09,2.17Z"/>
      <path class="uuid-9d7e93c9-4246-42d1-84f1-8fb2d45dbe1e" d="m959.77,897.39c0,1.13.07,2.41.21,3.84-1.36-.06-3.65-.09-6.87-.09-3.84,0-6.74.03-8.7.09v-.6c.72-.03,1.25-.11,1.57-.23s.55-.36.67-.7.18-.89.18-1.64v-14.88c0-.75-.06-1.3-.18-1.64s-.35-.58-.67-.7-.85-.21-1.57-.23v-.6c1.96.06,4.86.09,8.7.09,2.94,0,5.03-.03,6.27-.09-.14,1.31-.21,2.49-.21,3.54,0,.78.03,1.4.09,1.86h-.69c-.15-1.3-.33-2.27-.55-2.9s-.59-1.1-1.11-1.38-1.31-.43-2.37-.43h-2.49c-.72,0-1.25.06-1.57.18s-.55.34-.67.68c-.12.34-.18.88-.18,1.63v7.08h1.99c1.01,0,1.67-.3,2.01-.9.33-.6.54-1.21.62-1.84s.13-1.03.16-1.22h.69c-.07.99-.1,1.93-.1,2.83v1.44c.01,1.02.07,2.44.19,4.26h-.69c-.02-.14-.08-.62-.17-1.45s-.36-1.46-.81-1.88c-.45-.43-1.08-.64-1.89-.64h-1.99v7.21c0,.75.06,1.3.18,1.63.12.34.35.56.67.68s.85.18,1.57.18h2.2c1.25,0,2.2-.17,2.85-.5s1.12-.86,1.41-1.6.51-1.81.67-3.22h.69c-.06.54-.09,1.26-.09,2.17Z"/>
    </g>
    <g class="uuid-5d689dec-ae2a-4913-bc4d-c16e1c30d7ae">
      <path class="uuid-9d7e93c9-4246-42d1-84f1-8fb2d45dbe1e" d="m770.71,960.86c1.43.86,2.54,2.11,3.33,3.74s1.18,3.58,1.18,5.84-.41,4.16-1.22,5.86-1.94,3.02-3.38,3.96-3.09,1.41-4.94,1.41-3.57-.43-5-1.29-2.54-2.11-3.33-3.74c-.79-1.63-1.18-3.58-1.18-5.84s.41-4.16,1.22-5.86,1.94-3.02,3.38-3.96,3.09-1.41,4.94-1.41,3.57.43,5,1.29Zm-8.5.59c-.98.89-1.73,2.14-2.26,3.74-.53,1.6-.79,3.42-.79,5.49s.29,3.91.88,5.49,1.38,2.8,2.4,3.66,2.13,1.29,3.36,1.29,2.4-.45,3.38-1.34c.97-.89,1.72-2.14,2.25-3.74.53-1.6.79-3.42.79-5.49s-.29-3.91-.88-5.49-1.38-2.8-2.39-3.66-2.12-1.29-3.35-1.29-2.41.45-3.38,1.34Z"/>
      <path class="uuid-9d7e93c9-4246-42d1-84f1-8fb2d45dbe1e" d="m794.09,981.2c-.46.3-1.06.45-1.82.45-.82,0-1.49-.24-2.02-.72s-.93-1.32-1.2-2.53l-.66-2.99c-.23-1.04-.46-1.85-.67-2.41s-.53-1.01-.95-1.35c-.42-.34-1.01-.51-1.77-.51h-2.86v6.9c0,.75.06,1.3.18,1.64s.35.58.67.7.85.21,1.57.23v.6c-.92-.06-2.19-.09-3.81-.09-1.72,0-3,.03-3.84.09v-.6c.72-.03,1.25-.11,1.57-.23s.55-.36.67-.7.18-.89.18-1.64v-14.88c0-.75-.06-1.3-.18-1.64s-.35-.58-.67-.7-.85-.21-1.57-.23v-.6c.84.06,2.06.09,3.66.09.78,0,1.64,0,2.59-.03s1.59-.03,1.94-.03c1.56,0,2.89.23,3.97.68,1.08.45,1.9,1.07,2.45,1.86.55.79.82,1.68.82,2.67,0,.78-.18,1.57-.55,2.37-.37.8-.99,1.51-1.86,2.14-.87.63-2.01,1.05-3.42,1.27l.37.06c.9.15,1.62.37,2.15.67.54.3.96.71,1.28,1.22s.57,1.21.77,2.07l.75,3.06c.13.62.26,1.1.39,1.44.13.35.29.6.47.77s.41.25.68.25c.33,0,.61-.08.82-.26.21-.17.49-.47.82-.89l.45.34c-.47.67-.93,1.16-1.39,1.46Zm-6.75-11.29c.76-.43,1.29-1.01,1.58-1.73s.44-1.59.44-2.61c0-1.64-.39-2.88-1.17-3.72s-2.05-1.26-3.81-1.26c-.62,0-1.09.07-1.41.21-.31.14-.53.39-.64.75s-.18.9-.18,1.61v7.38h2.02c1.35,0,2.4-.21,3.16-.64Z"/>
      <path class="uuid-9d7e93c9-4246-42d1-84f1-8fb2d45dbe1e" d="m811.91,980.07c-.15-.37-.34-.55-.57-.55-.13,0-.25.03-.37.09-.12.06-.32.2-.62.42-.7.54-1.43.94-2.18,1.22s-1.58.41-2.51.41c-2.05,0-3.81-.42-5.29-1.27s-2.6-2.08-3.38-3.68-1.16-3.51-1.16-5.73.41-4.3,1.24-6.03,1.97-3.05,3.44-3.98,3.12-1.4,4.98-1.4c.81,0,1.53.09,2.16.26s1.18.39,1.64.65,1,.61,1.6,1.04c.25.21.45.31.6.31.38,0,.63-.61.75-1.83h.69c-.08,1.3-.12,3.6-.12,6.9h-.69c-.18-1.07-.37-1.96-.57-2.64-.21-.69-.52-1.29-.94-1.79-.59-.72-1.34-1.29-2.27-1.71s-1.9-.63-2.92-.63c-1.32,0-2.48.43-3.47,1.29s-1.77,2.08-2.31,3.67-.82,3.44-.82,5.57c0,2.4.26,4.37.77,5.9s1.29,2.67,2.34,3.41,2.4,1.11,4.04,1.11c1.2,0,2.24-.31,3.12-.94.36-.24.6-.48.7-.7s.16-.54.16-.94v-2.89c0-.83-.08-1.44-.23-1.82s-.44-.65-.85-.79-1.06-.23-1.95-.27v-.6c.99.07,2.4.1,4.23.1,1.41,0,2.45-.03,3.12-.1v.6c-.47.04-.8.12-1,.24s-.34.35-.41.68-.11.88-.11,1.66v5.95h-.6c-.02-.41-.1-.8-.25-1.16Z"/>
      <path class="uuid-9d7e93c9-4246-42d1-84f1-8fb2d45dbe1e" d="m833.51,980.63v.6c-.82-.06-1.89-.09-3.22-.09-1.71,0-2.99.03-3.84.09v-.6c.76-.03,1.31-.12,1.63-.28s.49-.43.49-.83c0-.34-.12-.81-.35-1.41l-1.85-4.92h-7.24l-1.23,3.18c-.4,1.02-.6,1.84-.6,2.46s.21,1.09.64,1.36,1.08.42,1.97.44v.6c-1.14-.06-2.29-.09-3.46-.09-.9,0-1.65.03-2.24.09v-.6c1-.22,1.78-1.09,2.36-2.61l7.06-18.18h.48l7.31,18.87c.49,1.24,1.18,1.88,2.08,1.92Zm-10.71-16.99l-3.44,8.95h6.8l-3.35-8.95Z"/>
      <path class="uuid-9d7e93c9-4246-42d1-84f1-8fb2d45dbe1e" d="m850.35,960.89c-.34.17-.57.45-.7.84s-.19.97-.19,1.74v17.9h-.69l-12.6-19.47v15.83c0,.77.07,1.35.21,1.74s.39.67.77.84.96.27,1.75.3v.6c-.71-.06-1.73-.09-3.06-.09-1.19,0-2.12.03-2.78.09v-.6c.69-.03,1.21-.13,1.55-.3s.57-.45.7-.84.19-.97.19-1.74v-14.58c0-.75-.06-1.3-.18-1.64s-.35-.58-.67-.7-.85-.21-1.57-.23v-.6c.65.06,1.58.09,2.78.09.9,0,1.68-.03,2.34-.09l10.59,16.32v-12.83c0-.77-.07-1.35-.2-1.74s-.39-.67-.77-.84c-.38-.17-.97-.27-1.76-.3v-.6c.71.06,1.73.09,3.06.09,1.19,0,2.12-.03,2.78-.09v.6c-.69.03-1.21.13-1.55.3Z"/>
      <path class="uuid-9d7e93c9-4246-42d1-84f1-8fb2d45dbe1e" d="m859.41,960.83c-.33.13-.55.36-.67.7s-.18.89-.18,1.64v14.88c0,.75.06,1.3.18,1.64s.35.58.67.7.85.21,1.57.23v.6c-.92-.06-2.19-.09-3.81-.09-1.72,0-3,.03-3.84.09v-.6c.72-.03,1.25-.11,1.57-.23s.55-.36.67-.7.18-.89.18-1.64v-14.88c0-.75-.06-1.3-.18-1.64s-.35-.58-.67-.7-.85-.21-1.57-.23v-.6c.83.06,2.11.09,3.84.09,1.62,0,2.89-.03,3.81-.09v.6c-.72.03-1.25.11-1.57.23Z"/>
      <path class="uuid-9d7e93c9-4246-42d1-84f1-8fb2d45dbe1e" d="m878.88,979.88c-.11-.28-.28-.42-.49-.42-.16,0-.36.08-.62.25-.6.42-1.15.76-1.65,1.03s-1.08.49-1.72.66c-.64.17-1.37.26-2.18.26-1.9,0-3.57-.43-5-1.29s-2.54-2.11-3.33-3.74c-.79-1.63-1.18-3.58-1.18-5.84s.41-4.16,1.22-5.86,1.94-3.02,3.38-3.96,3.09-1.41,4.94-1.41c1.19,0,2.21.17,3.05.51s1.67.82,2.47,1.44c.21.18.41.26.59.26.41,0,.66-.6.76-1.79h.69c-.08,1.3-.12,3.6-.12,6.9h-.69c-.15-.9-.28-1.6-.4-2.09s-.27-.92-.43-1.27c-.17-.35-.39-.71-.67-1.08-.61-.78-1.37-1.37-2.3-1.76s-1.93-.59-3-.59c-1.3,0-2.44.43-3.41,1.29s-1.73,2.08-2.27,3.68-.81,3.46-.81,5.6.29,4.05.88,5.61,1.39,2.75,2.42,3.56,2.19,1.22,3.49,1.22c1,0,1.97-.19,2.92-.57s1.68-.95,2.21-1.71c.41-.55.7-1.14.88-1.78s.35-1.63.51-2.97h.69c0,3.45.04,5.85.12,7.21h-.69c-.05-.62-.13-1.08-.24-1.36Z"/>
      <path class="uuid-9d7e93c9-4246-42d1-84f1-8fb2d45dbe1e" d="m894.76,960.83c-.33.13-.55.36-.67.7s-.18.89-.18,1.64v14.88c0,.75.06,1.3.18,1.64s.35.58.67.7.85.21,1.57.23v.6c-.92-.06-2.19-.09-3.81-.09-1.72,0-3,.03-3.84.09v-.6c.72-.03,1.25-.11,1.57-.23s.55-.36.67-.7.18-.89.18-1.64v-14.88c0-.75-.06-1.3-.18-1.64s-.35-.58-.67-.7-.85-.21-1.57-.23v-.6c.83.06,2.11.09,3.84.09,1.62,0,2.89-.03,3.81-.09v.6c-.72.03-1.25.11-1.57.23Z"/>
      <path class="uuid-9d7e93c9-4246-42d1-84f1-8fb2d45dbe1e" d="m915.24,960.89c-.34.17-.57.45-.7.84s-.19.97-.19,1.74v17.9h-.69l-12.6-19.47v15.83c0,.77.07,1.35.21,1.74s.39.67.77.84.96.27,1.75.3v.6c-.71-.06-1.73-.09-3.06-.09-1.19,0-2.12.03-2.78.09v-.6c.69-.03,1.21-.13,1.55-.3s.57-.45.7-.84.19-.97.19-1.74v-14.58c0-.75-.06-1.3-.18-1.64s-.35-.58-.67-.7-.85-.21-1.57-.23v-.6c.65.06,1.58.09,2.78.09.9,0,1.68-.03,2.34-.09l10.59,16.32v-12.83c0-.77-.07-1.35-.2-1.74s-.39-.67-.77-.84c-.38-.17-.97-.27-1.76-.3v-.6c.71.06,1.73.09,3.06.09,1.19,0,2.12-.03,2.78-.09v.6c-.69.03-1.21.13-1.55.3Z"/>
      <path class="uuid-9d7e93c9-4246-42d1-84f1-8fb2d45dbe1e" d="m934.46,980.07c-.15-.37-.34-.55-.57-.55-.13,0-.25.03-.37.09-.12.06-.32.2-.62.42-.7.54-1.43.94-2.18,1.22s-1.58.41-2.51.41c-2.05,0-3.81-.42-5.29-1.27s-2.6-2.08-3.38-3.68-1.16-3.51-1.16-5.73.41-4.3,1.24-6.03,1.97-3.05,3.44-3.98,3.12-1.4,4.98-1.4c.81,0,1.53.09,2.16.26s1.18.39,1.64.65,1,.61,1.6,1.04c.25.21.45.31.6.31.38,0,.63-.61.75-1.83h.69c-.08,1.3-.12,3.6-.12,6.9h-.69c-.18-1.07-.37-1.96-.57-2.64-.21-.69-.52-1.29-.94-1.79-.59-.72-1.34-1.29-2.27-1.71s-1.9-.63-2.92-.63c-1.32,0-2.48.43-3.47,1.29s-1.77,2.08-2.31,3.67-.82,3.44-.82,5.57c0,2.4.26,4.37.77,5.9s1.29,2.67,2.34,3.41,2.4,1.11,4.04,1.11c1.2,0,2.24-.31,3.12-.94.36-.24.6-.48.7-.7s.16-.54.16-.94v-2.89c0-.83-.08-1.44-.23-1.82s-.44-.65-.85-.79-1.06-.23-1.95-.27v-.6c.99.07,2.4.1,4.23.1,1.41,0,2.45-.03,3.12-.1v.6c-.47.04-.8.12-1,.24s-.34.35-.41.68-.11.88-.11,1.66v5.95h-.6c-.02-.41-.1-.8-.25-1.16Z"/>
      <path class="uuid-9d7e93c9-4246-42d1-84f1-8fb2d45dbe1e" d="m955.37,981.2c-.46.3-1.06.45-1.82.45-.82,0-1.49-.24-2.02-.72s-.93-1.32-1.2-2.53l-.66-2.99c-.23-1.04-.46-1.85-.67-2.41s-.53-1.01-.95-1.35c-.42-.34-1.01-.51-1.77-.51h-2.86v6.9c0,.75.06,1.3.18,1.64s.35.58.67.7.85.21,1.57.23v.6c-.92-.06-2.19-.09-3.81-.09-1.72,0-3,.03-3.84.09v-.6c.72-.03,1.25-.11,1.57-.23s.55-.36.67-.7.18-.89.18-1.64v-14.88c0-.75-.06-1.3-.18-1.64s-.35-.58-.67-.7-.85-.21-1.57-.23v-.6c.84.06,2.06.09,3.66.09.78,0,1.64,0,2.59-.03s1.59-.03,1.94-.03c1.56,0,2.89.23,3.97.68,1.08.45,1.9,1.07,2.45,1.86.55.79.82,1.68.82,2.67,0,.78-.18,1.57-.55,2.37-.37.8-.99,1.51-1.86,2.14-.87.63-2.01,1.05-3.42,1.27l.37.06c.9.15,1.62.37,2.15.67.54.3.96.71,1.28,1.22s.57,1.21.77,2.07l.75,3.06c.13.62.26,1.1.39,1.44.13.35.29.6.47.77s.41.25.68.25c.33,0,.61-.08.82-.26.21-.17.49-.47.82-.89l.45.34c-.47.67-.93,1.16-1.39,1.46Zm-6.75-11.29c.76-.43,1.29-1.01,1.58-1.73s.44-1.59.44-2.61c0-1.64-.39-2.88-1.17-3.72s-2.05-1.26-3.81-1.26c-.62,0-1.09.07-1.41.21-.31.14-.53.39-.64.75s-.18.9-.18,1.61v7.38h2.02c1.35,0,2.4-.21,3.16-.64Z"/>
      <path class="uuid-9d7e93c9-4246-42d1-84f1-8fb2d45dbe1e" d="m972.12,977.39c0,1.13.07,2.41.21,3.84-1.36-.06-3.65-.09-6.87-.09-3.84,0-6.74.03-8.7.09v-.6c.72-.03,1.25-.11,1.57-.23s.55-.36.67-.7.18-.89.18-1.64v-14.88c0-.75-.06-1.3-.18-1.64s-.35-.58-.67-.7-.85-.21-1.57-.23v-.6c1.96.06,4.86.09,8.7.09,2.94,0,5.03-.03,6.27-.09-.14,1.31-.21,2.49-.21,3.54,0,.78.03,1.4.09,1.86h-.69c-.15-1.3-.33-2.27-.55-2.9s-.59-1.1-1.11-1.38-1.31-.43-2.37-.43h-2.49c-.72,0-1.25.06-1.58.18s-.55.34-.67.68c-.12.34-.18.88-.18,1.63v7.08h1.99c1.01,0,1.67-.3,2.01-.9.33-.6.54-1.21.62-1.84s.13-1.03.16-1.22h.69c-.07.99-.1,1.93-.1,2.83v1.44c.01,1.02.07,2.44.19,4.26h-.69c-.02-.14-.08-.62-.17-1.45s-.36-1.46-.81-1.88c-.45-.43-1.08-.64-1.89-.64h-1.99v7.21c0,.75.06,1.3.18,1.63.12.34.35.56.67.68s.85.18,1.58.18h2.2c1.25,0,2.2-.17,2.85-.5s1.12-.86,1.41-1.6.51-1.81.67-3.22h.69c-.06.54-.09,1.26-.09,2.17Z"/>
      <path class="uuid-9d7e93c9-4246-42d1-84f1-8fb2d45dbe1e" d="m977.05,960.09h.73c2.75-.07,4.26-.1,4.53-.1,3.54,0,6.18.88,7.95,2.65s2.64,4.35,2.64,7.73c0,2.18-.43,4.08-1.28,5.72-.85,1.64-2.1,2.9-3.73,3.79-1.63.89-3.58,1.34-5.84,1.34-.27,0-.93-.01-1.96-.04s-1.78-.04-2.25-.04c-1.64,0-2.88.03-3.72.09v-.6c.72-.03,1.25-.11,1.57-.23s.55-.36.67-.7.18-.89.18-1.64v-14.88c0-.75-.06-1.3-.18-1.64s-.35-.58-.67-.7-.85-.21-1.57-.23v-.6c1.07.07,2.05.1,2.93.1Zm2.46,19.64c.12.36.33.61.65.75s.79.21,1.43.21c2.13,0,3.8-.39,5.01-1.16s2.06-1.9,2.56-3.38c.49-1.48.74-3.37.74-5.66s-.27-4.18-.81-5.63c-.54-1.45-1.41-2.54-2.63-3.25-1.22-.72-2.85-1.08-4.9-1.08-.62,0-1.09.07-1.41.21-.31.14-.53.39-.64.75s-.18.9-.18,1.61v15c0,.72.06,1.26.18,1.62Z"/>
      <path class="uuid-9d7e93c9-4246-42d1-84f1-8fb2d45dbe1e" d="m1000.73,960.83c-.33.13-.55.36-.67.7s-.18.89-.18,1.64v14.88c0,.75.06,1.3.18,1.64s.35.58.67.7.85.21,1.57.23v.6c-.92-.06-2.19-.09-3.81-.09-1.72,0-3,.03-3.84.09v-.6c.72-.03,1.25-.11,1.58-.23s.55-.36.67-.7.18-.89.18-1.64v-14.88c0-.75-.06-1.3-.18-1.64s-.35-.58-.67-.7-.85-.21-1.58-.23v-.6c.83.06,2.11.09,3.84.09,1.62,0,2.89-.03,3.81-.09v.6c-.72.03-1.25.11-1.57.23Z"/>
      <path class="uuid-9d7e93c9-4246-42d1-84f1-8fb2d45dbe1e" d="m1019.29,977.39c0,1.13.07,2.41.21,3.84-1.36-.06-3.65-.09-6.87-.09-3.84,0-6.74.03-8.7.09v-.6c.72-.03,1.25-.11,1.57-.23s.55-.36.67-.7.18-.89.18-1.64v-14.88c0-.75-.06-1.3-.18-1.64s-.35-.58-.67-.7-.85-.21-1.57-.23v-.6c1.96.06,4.86.09,8.7.09,2.94,0,5.03-.03,6.27-.09-.14,1.31-.21,2.49-.21,3.54,0,.78.03,1.4.09,1.86h-.69c-.15-1.3-.33-2.27-.55-2.9s-.59-1.1-1.11-1.38-1.31-.43-2.37-.43h-2.49c-.72,0-1.25.06-1.58.18s-.55.34-.67.68c-.12.34-.18.88-.18,1.63v7.08h1.99c1.01,0,1.67-.3,2.01-.9.33-.6.54-1.21.62-1.84s.13-1.03.16-1.22h.69c-.07.99-.1,1.93-.1,2.83v1.44c.01,1.02.07,2.44.19,4.26h-.69c-.02-.14-.08-.62-.17-1.45s-.36-1.46-.81-1.88c-.45-.43-1.08-.64-1.89-.64h-1.99v7.21c0,.75.06,1.3.18,1.63.12.34.35.56.67.68s.85.18,1.58.18h2.2c1.25,0,2.2-.17,2.85-.5s1.12-.86,1.41-1.6.51-1.81.67-3.22h.69c-.06.54-.09,1.26-.09,2.17Z"/>
      <path class="uuid-9d7e93c9-4246-42d1-84f1-8fb2d45dbe1e" d="m1038.58,960.89c-.34.17-.57.45-.7.84s-.19.97-.19,1.74v17.9h-.69l-12.6-19.47v15.83c0,.77.07,1.35.21,1.74s.39.67.77.84.96.27,1.75.3v.6c-.71-.06-1.73-.09-3.06-.09-1.19,0-2.12.03-2.78.09v-.6c.69-.03,1.21-.13,1.55-.3s.57-.45.7-.84.19-.97.19-1.74v-14.58c0-.75-.06-1.3-.18-1.64s-.35-.58-.67-.7-.85-.21-1.58-.23v-.6c.65.06,1.58.09,2.78.09.9,0,1.68-.03,2.34-.09l10.59,16.32v-12.83c0-.77-.07-1.35-.2-1.74s-.39-.67-.77-.84c-.38-.17-.97-.27-1.76-.3v-.6c.71.06,1.73.09,3.06.09,1.19,0,2.12-.03,2.78-.09v.6c-.69.03-1.21.13-1.54.3Z"/>
      <path class="uuid-9d7e93c9-4246-42d1-84f1-8fb2d45dbe1e" d="m1041.39,963.83c0-1.17-.07-2.45-.22-3.84,1.66.06,4.48.09,8.47.09s6.76-.03,8.42-.09c-.14,1.43-.21,2.71-.21,3.84,0,1.01.03,1.83.09,2.46h-.69c-.16-1.55-.35-2.7-.59-3.45-.24-.75-.66-1.29-1.26-1.64s-1.52-.52-2.76-.52h-1.63v17.07c0,.83.08,1.44.23,1.82s.44.65.85.8,1.06.23,1.95.26v.6c-1.05-.06-2.52-.09-4.41-.09-2,0-3.48.03-4.44.09v-.6c.89-.03,1.54-.12,1.95-.26s.69-.41.85-.8.23-.99.23-1.82v-17.07h-1.63c-1.24,0-2.16.17-2.76.52s-1.02.89-1.26,1.64c-.24.75-.44,1.9-.59,3.45h-.69c.06-.63.09-1.46.09-2.46Z"/>
      <path class="uuid-9d7e93c9-4246-42d1-84f1-8fb2d45dbe1e" d="m1062.23,979.17c.86,1.26,2.18,1.88,3.97,1.88.68,0,1.32-.14,1.91-.42s1.07-.73,1.44-1.33c.37-.6.55-1.35.55-2.25,0-.77-.19-1.46-.56-2.07-.38-.61-.89-1.17-1.53-1.68s-1.5-1.08-2.58-1.73c-1.19-.71-2.15-1.35-2.87-1.92s-1.32-1.24-1.78-2.03c-.46-.79-.7-1.71-.7-2.78,0-1.13.26-2.09.77-2.87s1.2-1.36,2.05-1.75,1.79-.58,2.82-.58c.62,0,1.14.05,1.59.15.44.1.81.23,1.11.38.29.15.62.34.97.58.45.28.79.42,1.03.42.19,0,.33-.1.42-.31s.18-.54.23-1h.69c-.1,1.17-.15,3.21-.15,6.12h-.69c-.08-1.03-.3-1.97-.67-2.84s-.9-1.57-1.61-2.12c-.71-.54-1.59-.81-2.64-.81-.7,0-1.33.15-1.89.44s-.99.7-1.3,1.23-.47,1.13-.47,1.82c0,1.08.33,1.96.98,2.62s1.42,1.26,2.29,1.79c.87.53,1.46.89,1.77,1.08,1.26.79,2.26,1.48,2.99,2.06.73.58,1.32,1.26,1.76,2.02.44.77.66,1.66.66,2.67,0,1.23-.28,2.27-.85,3.13-.57.86-1.33,1.5-2.29,1.93s-2.04.64-3.23.64c-.96,0-1.74-.1-2.36-.3-.62-.2-1.2-.47-1.74-.81-.45-.28-.79-.42-1.03-.42-.19,0-.33.11-.42.31-.1.21-.18.54-.23,1h-.69c.08-1.09.12-3.49.12-7.19h.69c.14,2.03.63,3.67,1.49,4.93Z"/>
    </g>
    <g class="uuid-5d689dec-ae2a-4913-bc4d-c16e1c30d7ae">
      <path class="uuid-9d7e93c9-4246-42d1-84f1-8fb2d45dbe1e" d="m755.65,1043.83c0-1.17-.07-2.45-.22-3.84,1.66.06,4.48.09,8.47.09s6.76-.03,8.42-.09c-.14,1.43-.21,2.71-.21,3.84,0,1.01.03,1.83.09,2.46h-.69c-.16-1.55-.35-2.7-.59-3.45-.24-.75-.66-1.29-1.26-1.64s-1.52-.52-2.76-.52h-1.63v17.07c0,.83.08,1.44.23,1.82s.44.65.85.8,1.06.23,1.95.26v.6c-1.05-.06-2.52-.09-4.41-.09-2,0-3.48.03-4.44.09v-.6c.89-.03,1.54-.12,1.95-.26s.69-.41.85-.8.23-.99.23-1.82v-17.07h-1.63c-1.24,0-2.16.17-2.76.52s-1.02.89-1.26,1.64c-.24.75-.44,1.9-.59,3.45h-.69c.06-.63.09-1.46.09-2.46Z"/>
      <path class="uuid-9d7e93c9-4246-42d1-84f1-8fb2d45dbe1e" d="m792.17,1040.83c-.33.13-.55.36-.67.7s-.18.89-.18,1.64v14.88c0,.75.06,1.3.18,1.64s.35.58.67.7.85.21,1.57.23v.6c-.83-.06-2.11-.09-3.84-.09-1.6,0-2.87.03-3.81.09v-.6c.72-.03,1.25-.11,1.57-.23s.55-.36.67-.7.18-.89.18-1.64v-7.21h-9.76v7.21c0,.75.06,1.3.18,1.64s.35.58.67.7.85.21,1.57.23v.6c-.92-.06-2.19-.09-3.81-.09-1.72,0-3,.03-3.84.09v-.6c.72-.03,1.25-.11,1.57-.23s.55-.36.67-.7.18-.89.18-1.64v-14.88c0-.75-.06-1.3-.18-1.64s-.35-.58-.67-.7-.85-.21-1.57-.23v-.6c.83.06,2.11.09,3.84.09,1.62,0,2.89-.03,3.81-.09v.6c-.72.03-1.25.11-1.57.23s-.55.36-.67.7-.18.89-.18,1.64v7.08h9.76v-7.08c0-.75-.06-1.3-.18-1.64s-.35-.58-.67-.7-.85-.21-1.57-.23v-.6c.94.06,2.21.09,3.81.09,1.72,0,3-.03,3.84-.09v.6c-.72.03-1.25.11-1.57.23Z"/>
      <path class="uuid-9d7e93c9-4246-42d1-84f1-8fb2d45dbe1e" d="m811.64,1059.88c-.11-.28-.28-.42-.49-.42-.16,0-.36.08-.62.25-.6.42-1.15.76-1.65,1.03s-1.08.49-1.72.66c-.64.17-1.37.26-2.18.26-1.9,0-3.57-.43-5-1.29s-2.54-2.11-3.33-3.74c-.79-1.63-1.18-3.58-1.18-5.84s.41-4.16,1.22-5.86,1.94-3.02,3.38-3.96,3.09-1.41,4.94-1.41c1.19,0,2.21.17,3.05.51s1.67.82,2.47,1.44c.21.18.41.26.59.26.41,0,.66-.6.76-1.79h.69c-.08,1.3-.12,3.6-.12,6.9h-.69c-.15-.9-.28-1.6-.4-2.09s-.27-.92-.43-1.27c-.17-.35-.39-.71-.67-1.08-.61-.78-1.37-1.37-2.3-1.76s-1.93-.59-3-.59c-1.3,0-2.44.43-3.41,1.29s-1.73,2.08-2.27,3.68-.81,3.46-.81,5.6.29,4.05.88,5.61,1.39,2.75,2.42,3.56,2.19,1.22,3.49,1.22c1,0,1.97-.19,2.92-.57s1.68-.95,2.21-1.71c.41-.55.7-1.14.88-1.78s.35-1.63.51-2.97h.69c0,3.45.04,5.85.12,7.21h-.69c-.05-.62-.13-1.08-.24-1.36Z"/>
      <path class="uuid-9d7e93c9-4246-42d1-84f1-8fb2d45dbe1e" d="m827.52,1040.83c-.33.13-.55.36-.67.7s-.18.89-.18,1.64v14.88c0,.75.06,1.3.18,1.64s.35.58.67.7.85.21,1.57.23v.6c-.92-.06-2.19-.09-3.81-.09-1.72,0-3,.03-3.84.09v-.6c.72-.03,1.25-.11,1.57-.23s.55-.36.67-.7.18-.89.18-1.64v-14.88c0-.75-.06-1.3-.18-1.64s-.35-.58-.67-.7-.85-.21-1.57-.23v-.6c.83.06,2.11.09,3.84.09,1.62,0,2.89-.03,3.81-.09v.6c-.72.03-1.25.11-1.57.23Z"/>
      <path class="uuid-9d7e93c9-4246-42d1-84f1-8fb2d45dbe1e" d="m848,1040.89c-.34.17-.57.45-.7.84s-.19.97-.19,1.74v17.9h-.69l-12.6-19.47v15.83c0,.77.07,1.35.21,1.74s.39.67.77.84.96.27,1.75.3v.6c-.71-.06-1.73-.09-3.06-.09-1.19,0-2.12.03-2.78.09v-.6c.69-.03,1.21-.13,1.55-.3s.57-.45.7-.84.19-.97.19-1.74v-14.58c0-.75-.06-1.3-.18-1.64s-.35-.58-.67-.7-.85-.21-1.57-.23v-.6c.65.06,1.58.09,2.78.09.9,0,1.68-.03,2.34-.09l10.59,16.32v-12.83c0-.77-.07-1.35-.2-1.74s-.39-.67-.77-.84c-.38-.17-.97-.27-1.76-.3v-.6c.71.06,1.73.09,3.06.09,1.19,0,2.12-.03,2.78-.09v.6c-.69.03-1.21.13-1.55.3Z"/>
      <path class="uuid-9d7e93c9-4246-42d1-84f1-8fb2d45dbe1e" d="m859.69,1040.08c2.94,0,5.03-.03,6.27-.09-.14,1.43-.21,2.71-.21,3.84,0,1.01.03,1.83.09,2.46h-.69c-.16-1.55-.36-2.7-.6-3.45-.24-.75-.67-1.29-1.27-1.64s-1.52-.52-2.76-.52h-1.89c-.72,0-1.25.06-1.57.18s-.55.34-.67.68c-.12.34-.18.88-.18,1.63v7.38h2.2c1.01,0,1.67-.3,2.01-.9.33-.6.54-1.21.62-1.84s.13-1.03.16-1.22h.69c-.07.98-.1,1.92-.1,2.83v1.42c.01,1.05.08,2.48.21,4.26h-.7c-.02-.14-.08-.62-.17-1.45s-.36-1.46-.81-1.88-1.08-.63-1.89-.63h-2.2v6.9c0,.75.08,1.3.23,1.64s.44.58.85.7,1.06.21,1.95.23v.6c-1.04-.06-2.5-.09-4.41-.09-1.72,0-3,.03-3.84.09v-.6c.72-.03,1.25-.11,1.57-.23s.55-.36.67-.7.18-.89.18-1.64v-14.88c0-.75-.06-1.3-.18-1.64s-.35-.58-.67-.7-.85-.21-1.57-.23v-.6c1.96.06,4.86.09,8.7.09Z"/>
      <path class="uuid-9d7e93c9-4246-42d1-84f1-8fb2d45dbe1e" d="m884,1040.89c-.34.17-.57.45-.69.84s-.18.97-.18,1.74v9.02c0,1.44-.1,2.67-.29,3.7s-.51,1.92-.94,2.66c-.51.86-1.25,1.54-2.22,2.04-.97.5-2.06.75-3.27.75-2.2,0-3.88-.54-5.04-1.63-.6-.56-1.05-1.14-1.37-1.77-.32-.62-.54-1.37-.67-2.25s-.19-2.02-.19-3.43v-9.42c0-.75-.06-1.3-.18-1.64s-.35-.58-.67-.7-.85-.21-1.57-.23v-.6c.85.06,2.13.09,3.84.09,1.61,0,2.89-.03,3.82-.09v.6c-.72.03-1.25.11-1.57.23s-.55.36-.67.7-.18.89-.18,1.64v9.93c0,1.6.11,2.93.32,3.98s.67,1.9,1.35,2.55,1.71.97,3.05.97c2.12,0,3.61-.68,4.47-2.04s1.29-3.27,1.29-5.73v-9.36c0-.74-.09-1.31-.26-1.71s-.45-.69-.83-.86-.93-.28-1.63-.31v-.6c.72.06,1.74.09,3.06.09,1.2,0,2.13-.03,2.78-.09v.6c-.69.03-1.21.13-1.55.3Z"/>
      <path class="uuid-9d7e93c9-4246-42d1-84f1-8fb2d45dbe1e" d="m889.65,1059.17c.86,1.26,2.18,1.88,3.97,1.88.68,0,1.32-.14,1.91-.42s1.07-.73,1.44-1.33c.37-.6.55-1.35.55-2.25,0-.77-.19-1.46-.56-2.07-.38-.61-.89-1.17-1.53-1.68s-1.5-1.08-2.58-1.73c-1.19-.71-2.15-1.35-2.87-1.92s-1.32-1.24-1.78-2.03c-.46-.79-.7-1.71-.7-2.78,0-1.13.26-2.09.77-2.87s1.2-1.36,2.05-1.75,1.79-.58,2.82-.58c.62,0,1.15.05,1.59.15.44.1.81.23,1.11.38.29.15.62.34.97.58.45.28.79.42,1.03.42.19,0,.33-.1.42-.31s.18-.54.23-1h.69c-.1,1.17-.15,3.21-.15,6.12h-.69c-.08-1.03-.3-1.97-.67-2.84s-.9-1.57-1.61-2.12c-.71-.54-1.59-.81-2.64-.81-.7,0-1.33.15-1.89.44s-.99.7-1.3,1.23-.47,1.13-.47,1.82c0,1.08.33,1.96.98,2.62s1.42,1.26,2.29,1.79c.87.53,1.46.89,1.77,1.08,1.26.79,2.26,1.48,2.99,2.06.73.58,1.32,1.26,1.76,2.02.44.77.66,1.66.66,2.67,0,1.23-.28,2.27-.85,3.13-.57.86-1.33,1.5-2.29,1.93s-2.04.64-3.23.64c-.96,0-1.74-.1-2.36-.3-.62-.2-1.2-.47-1.74-.81-.45-.28-.79-.42-1.03-.42-.19,0-.33.11-.42.31-.1.21-.18.54-.23,1h-.69c.08-1.09.12-3.49.12-7.19h.69c.14,2.03.63,3.67,1.49,4.93Z"/>
      <path class="uuid-9d7e93c9-4246-42d1-84f1-8fb2d45dbe1e" d="m917.39,1057.39c0,1.13.07,2.41.21,3.84-1.36-.06-3.65-.09-6.87-.09-3.84,0-6.74.03-8.7.09v-.6c.72-.03,1.25-.11,1.57-.23s.55-.36.67-.7.18-.89.18-1.64v-14.88c0-.75-.06-1.3-.18-1.64s-.35-.58-.67-.7-.85-.21-1.57-.23v-.6c1.96.06,4.86.09,8.7.09,2.94,0,5.03-.03,6.27-.09-.14,1.31-.21,2.49-.21,3.54,0,.78.03,1.4.09,1.86h-.69c-.15-1.3-.33-2.27-.55-2.9s-.59-1.1-1.11-1.38-1.31-.43-2.37-.43h-2.49c-.72,0-1.25.06-1.57.18s-.55.34-.67.68c-.12.34-.18.88-.18,1.63v7.08h1.99c1.01,0,1.67-.3,2.01-.9.33-.6.54-1.21.62-1.84s.13-1.03.16-1.22h.69c-.07.99-.1,1.93-.1,2.83v1.44c.01,1.02.07,2.44.19,4.26h-.69c-.02-.14-.08-.62-.17-1.45s-.36-1.46-.81-1.88c-.45-.43-1.08-.64-1.89-.64h-1.99v7.21c0,.75.06,1.3.18,1.63.12.34.35.56.67.68s.85.18,1.57.18h2.2c1.25,0,2.2-.17,2.85-.5s1.12-.86,1.41-1.6.51-1.81.67-3.22h.69c-.06.54-.09,1.26-.09,2.17Z"/>
      <path class="uuid-9d7e93c9-4246-42d1-84f1-8fb2d45dbe1e" d="m922.32,1040.09h.73c2.75-.07,4.26-.1,4.53-.1,3.54,0,6.18.88,7.95,2.65s2.64,4.35,2.64,7.73c0,2.18-.43,4.08-1.28,5.72-.85,1.64-2.1,2.9-3.73,3.79-1.63.89-3.58,1.34-5.84,1.34-.27,0-.93-.01-1.96-.04s-1.78-.04-2.25-.04c-1.64,0-2.88.03-3.72.09v-.6c.72-.03,1.25-.11,1.57-.23s.55-.36.67-.7.18-.89.18-1.64v-14.88c0-.75-.06-1.3-.18-1.64s-.35-.58-.67-.7-.85-.21-1.57-.23v-.6c1.07.07,2.05.1,2.93.1Zm2.46,19.64c.12.36.33.61.65.75s.79.21,1.43.21c2.13,0,3.8-.39,5.01-1.16s2.06-1.9,2.56-3.38c.49-1.48.74-3.37.74-5.66s-.27-4.18-.81-5.63c-.54-1.45-1.41-2.54-2.63-3.25-1.22-.72-2.85-1.08-4.9-1.08-.62,0-1.09.07-1.41.21-.31.14-.53.39-.64.75s-.18.9-.18,1.61v15c0,.72.06,1.26.18,1.62Z"/>
    </g>
  </g>
</svg>