<?xml version="1.0" encoding="UTF-8"?>
<svg id="uuid-a2da455b-7732-4559-884c-1482ba7259b5" data-name="Layer 1" xmlns="http://www.w3.org/2000/svg" xmlns:xlink="http://www.w3.org/1999/xlink" viewBox="0 0 1920 679">
  <defs>
    <style>
      .uuid-239e3de5-a78f-4beb-b593-6d996cd27048 {
        fill: #fff5db;
      }

      .uuid-239e3de5-a78f-4beb-b593-6d996cd27048, .uuid-9348993d-a42b-4069-ba18-67c6509fcad6, .uuid-9e5f4130-9f4e-4701-a647-d24eb4021014, .uuid-c1049dd3-f6a1-4750-87b2-fea51b97fdd4 {
        stroke-width: 0px;
      }

      .uuid-82cd10f8-6f49-45b1-aeae-ed7486934a0d {
        clip-path: url(#uuid-5b556319-2cbe-48c3-9957-1a86d5a5f148);
      }

      .uuid-e885440f-083d-47f9-99b0-18800e0e6cd2 {
        isolation: isolate;
      }

      .uuid-04c773d6-2ffa-41c8-9579-c268db49c5a9 {
        clip-path: url(#uuid-6f8477ad-bf77-4189-a2a0-32fb5e44517d);
      }

      .uuid-9348993d-a42b-4069-ba18-67c6509fcad6 {
        fill: none;
      }

      .uuid-204cdd87-010d-4aa1-93b4-0a7c26c5fc26 {
        clip-path: url(#uuid-0f8f6221-6d0a-423d-bce1-b06bc0b6c29a);
      }

      .uuid-bf1b47f4-da87-4654-b5cb-523fdd67a3ed {
        clip-path: url(#uuid-1b5e010e-8d34-4c66-a947-0b12144fefad);
      }

      .uuid-098eab76-426a-455f-9dde-4aee7af7b868 {
        clip-path: url(#uuid-0a91363d-7681-4bd2-b779-e2929d29808b);
      }

      .uuid-9e5f4130-9f4e-4701-a647-d24eb4021014 {
        fill: #f4f4f4;
      }

      .uuid-c1049dd3-f6a1-4750-87b2-fea51b97fdd4 {
        fill: #ffb7f7;
      }

      .uuid-0e229d16-03ea-4d1b-94a9-ebc7358df529 {
        clip-path: url(#uuid-443f23ee-bbc2-42fb-862f-ce35f86c27d7);
      }

      .uuid-e9bdbf98-dd8d-4f22-9d47-f9baefa94232 {
        clip-path: url(#uuid-93cb9fff-b5a6-42da-9bf2-247d3d187b55);
      }

      .uuid-6c645464-3c92-49f4-9e5b-1328a8155cfe {
        clip-path: url(#uuid-4f4df825-8bf2-4044-9487-6dbcb09f3ca9);
      }
    </style>
    <clipPath id="uuid-443f23ee-bbc2-42fb-862f-ce35f86c27d7">
      <rect class="uuid-9348993d-a42b-4069-ba18-67c6509fcad6" x="96.49" y="112.9" width="378.48" height="455.2"/>
    </clipPath>
    <clipPath id="uuid-6f8477ad-bf77-4189-a2a0-32fb5e44517d">
      <rect class="uuid-9348993d-a42b-4069-ba18-67c6509fcad6" x="152.69" y="272.37" width="114.07" height="160.77"/>
    </clipPath>
    <clipPath id="uuid-1b5e010e-8d34-4c66-a947-0b12144fefad">
      <rect class="uuid-9348993d-a42b-4069-ba18-67c6509fcad6" x="96.49" y="390.87" width="158.08" height="64.89"/>
    </clipPath>
    <clipPath id="uuid-93cb9fff-b5a6-42da-9bf2-247d3d187b55">
      <rect class="uuid-9348993d-a42b-4069-ba18-67c6509fcad6" x="166.68" y="460.37" width="102.1" height="60.04"/>
    </clipPath>
    <clipPath id="uuid-0a91363d-7681-4bd2-b779-e2929d29808b">
      <rect class="uuid-9348993d-a42b-4069-ba18-67c6509fcad6" x="248.23" y="112.9" width="75.02" height="315.52"/>
    </clipPath>
    <clipPath id="uuid-5b556319-2cbe-48c3-9957-1a86d5a5f148">
      <rect class="uuid-9348993d-a42b-4069-ba18-67c6509fcad6" x="304.7" y="271.65" width="114.07" height="160.77"/>
    </clipPath>
    <clipPath id="uuid-0f8f6221-6d0a-423d-bce1-b06bc0b6c29a">
      <rect class="uuid-9348993d-a42b-4069-ba18-67c6509fcad6" x="316.9" y="390.14" width="158.08" height="64.9"/>
    </clipPath>
    <clipPath id="uuid-4f4df825-8bf2-4044-9487-6dbcb09f3ca9">
      <rect class="uuid-9348993d-a42b-4069-ba18-67c6509fcad6" x="302.68" y="459.64" width="102.1" height="60.04"/>
    </clipPath>
  </defs>
  <g id="uuid-10f421f0-db8b-470d-b438-eb3252bc4fbf" data-name="Indulge in the luxury of Bloom Bliss Provide your skin relief with health radiance. " class="uuid-e885440f-083d-47f9-99b0-18800e0e6cd2">
    <g class="uuid-e885440f-083d-47f9-99b0-18800e0e6cd2">
      <path class="uuid-9e5f4130-9f4e-4701-a647-d24eb4021014" d="m680.29,157.72c-1.22.47-2.06,1.35-2.52,2.62-.46,1.28-.68,3.32-.68,6.12v55.56c0,2.81.23,4.85.68,6.12.46,1.28,1.29,2.15,2.52,2.62,1.22.47,3.18.77,5.88.88v2.24c-3.43-.22-8.17-.33-14.22-.33-6.42,0-11.19.11-14.33.33v-2.24c2.7-.11,4.66-.4,5.88-.88,1.22-.47,2.06-1.35,2.52-2.62.46-1.28.68-3.32.68-6.12v-55.56c0-2.81-.23-4.85-.68-6.12-.46-1.28-1.29-2.15-2.52-2.62-1.22-.47-3.18-.77-5.88-.88v-2.24c3.1.22,7.88.33,14.33.33,6.05,0,10.79-.11,14.22-.33v2.24c-2.7.11-4.66.4-5.88.88Z"/>
      <path class="uuid-9e5f4130-9f4e-4701-a647-d24eb4021014" d="m717.12,177.87c3.34-2.13,7.1-3.2,11.29-3.2,5.21,0,9.17,1.4,11.87,4.21,1.39,1.53,2.38,3.42,2.98,5.66s.9,5.26.9,9.05v29.91c0,2.08.28,3.7.85,4.87.56,1.17,1.46,1.99,2.68,2.46,1.22.47,2.89.71,5,.71v2.35c-6.85-.29-11.34-.44-13.45-.44s-6.25.15-12.52.44v-2.35c1.86,0,3.31-.24,4.35-.71,1.04-.47,1.8-1.29,2.3-2.46.49-1.17.74-2.79.74-4.87v-32.38c0-2.7-.21-4.96-.63-6.78-.42-1.82-1.29-3.3-2.62-4.43-1.33-1.13-3.27-1.7-5.82-1.7-3.06,0-5.79.89-8.18,2.68-2.39,1.79-4.24,4.24-5.55,7.36s-1.97,6.57-1.97,10.36v24.88c0,2.08.25,3.7.74,4.87.49,1.17,1.27,1.99,2.32,2.46,1.06.47,2.52.71,4.38.71v2.35c-6.27-.29-10.46-.44-12.58-.44s-6.6.15-13.45.44v-2.35c2.11,0,3.78-.24,5-.71,1.22-.47,2.11-1.29,2.68-2.46.56-1.17.85-2.79.85-4.87v-35.05c0-3.46-.63-5.98-1.89-7.55-1.26-1.57-3.47-2.35-6.64-2.35v-2.35c2.33.22,4.65.33,6.95.33,4.74,0,8.62-.51,11.65-1.53v13.18c1.86-4.74,4.46-8.18,7.79-10.31Z"/>
      <path class="uuid-9e5f4130-9f4e-4701-a647-d24eb4021014" d="m807.17,229.22c1.26,1.55,3.47,2.32,6.64,2.32v2.35c-2.37-.22-4.69-.33-6.95-.33-4.81,0-8.7.53-11.65,1.59v-9.95c-1.39,3.35-3.42,5.91-6.1,7.66s-5.95,2.62-9.82,2.62c-4.74,0-8.82-1.13-12.25-3.39-3.43-2.26-6.06-5.65-7.9-10.17-1.84-4.52-2.74-10.12-2.71-16.79-.04-6.53,1.09-12.09,3.39-16.68s5.37-8.04,9.21-10.34c3.85-2.3,8.08-3.45,12.71-3.45,2.84,0,5.46.54,7.85,1.61,2.39,1.08,4.26,2.74,5.61,5v-21.77c0-3.46-.63-5.97-1.89-7.52-1.26-1.55-3.47-2.32-6.64-2.32v-2.35c2.37.22,4.68.33,6.95.33,4.81,0,8.7-.53,11.65-1.59v75.63c0,3.46.63,5.97,1.89,7.52Zm-24.47-51.98c-3.03,0-5.7,1.03-8.01,3.09-2.32,2.06-4.13,5.18-5.44,9.35-1.31,4.17-1.95,9.32-1.91,15.45-.04,8.97,1.23,15.71,3.8,20.21,2.57,4.5,6.37,6.75,11.4,6.75,1.93,0,3.75-.49,5.47-1.48,1.71-.98,3.21-2.45,4.48-4.4,1.28-1.95,2.19-4.29,2.73-7.03v-33.3c-2.08-5.76-6.25-8.64-12.52-8.64Z"/>
      <path class="uuid-9e5f4130-9f4e-4701-a647-d24eb4021014" d="m868.72,229.33c1.26,1.55,3.47,2.32,6.64,2.32v2.35c-2.33-.22-4.65-.33-6.95-.33-4.81,0-8.7.53-11.65,1.59v-13.23c-1.82,4.59-4.37,7.98-7.63,10.17-3.26,2.19-6.85,3.28-10.75,3.28-5.03,0-8.91-1.42-11.65-4.27-1.35-1.46-2.31-3.35-2.87-5.69-.57-2.33-.85-5.32-.85-8.97v-28.11c0-3.46-.62-5.98-1.86-7.55-1.24-1.57-3.45-2.35-6.62-2.35v-2.35c2.33.22,4.65.33,6.95.33,4.7,0,8.59-.51,11.65-1.53v44.02c0,2.84.16,5.14.49,6.89s1.11,3.18,2.35,4.29c1.24,1.11,3.12,1.67,5.63,1.67,2.88,0,5.47-.89,7.77-2.68,2.3-1.79,4.1-4.23,5.41-7.33,1.31-3.1,1.97-6.53,1.97-10.28v-23.13c0-3.46-.63-5.98-1.89-7.55-1.26-1.57-3.47-2.35-6.64-2.35v-2.35c2.33.22,4.65.33,6.95.33,4.74,0,8.62-.51,11.65-1.53v46.81c0,3.46.63,5.97,1.89,7.52Z"/>
      <path class="uuid-9e5f4130-9f4e-4701-a647-d24eb4021014" d="m896.37,228.37c.56,1.17,1.46,1.99,2.68,2.46,1.22.47,2.89.71,5,.71v2.35c-6.85-.29-11.38-.44-13.56-.44s-6.71.15-13.56.44v-2.35c2.11,0,3.78-.24,5-.71,1.22-.47,2.11-1.29,2.68-2.46.56-1.17.85-2.79.85-4.87v-63.98c0-3.46-.63-5.97-1.89-7.52-1.26-1.55-3.47-2.32-6.64-2.32v-2.35c2.33.22,4.65.33,6.95.33,4.81,0,8.7-.53,11.65-1.59v77.44c0,2.08.28,3.7.85,4.87Z"/>
      <path class="uuid-9e5f4130-9f4e-4701-a647-d24eb4021014" d="m955.52,224.05c2.42,1.64,3.64,4.28,3.64,7.93s-1.16,7.13-3.47,10.66c-2.32,3.54-5.83,6.47-10.55,8.8-4.72,2.33-10.49,3.5-17.31,3.5-3.9,0-7.57-.39-11.02-1.18-3.45-.78-6.23-1.95-8.34-3.5-2.11-1.55-3.17-3.42-3.17-5.61,0-2.55,1.34-5.02,4.02-7.41,2.68-2.39,6.02-4.47,10.04-6.26h-.38c-2.84,0-5.42-.6-7.74-1.8-2.32-1.2-3.47-3.45-3.47-6.73,0-2.55,1.06-4.98,3.17-7.27,2.11-2.3,5.72-4.59,10.83-6.89-3.28-1.28-5.83-3.24-7.66-5.91-1.82-2.66-2.73-6.02-2.73-10.06,0-5.91,1.89-10.33,5.66-13.26,3.77-2.93,8.78-4.4,15.01-4.4,2.92,0,5.56.33,7.93.98.73-4.16,2.04-7.47,3.94-9.95,2-2.48,4.56-3.72,7.66-3.72,1.86,0,3.31.55,4.35,1.64s1.56,2.5,1.56,4.21c0,1.53-.51,2.81-1.53,3.83-1.02,1.02-2.3,1.53-3.83,1.53-1.9,0-3.26-.57-4.1-1.72-.84-1.15-1.46-2.93-1.86-5.33-1.09.98-2.1,2.81-3.01,5.47-.55,1.64-.93,3.19-1.15,4.65,3.39,1.24,6.03,3.2,7.93,5.88,1.9,2.68,2.84,6.08,2.84,10.2s-.89,7.28-2.68,9.93c-1.79,2.64-4.23,4.6-7.33,5.88-3.1,1.28-6.67,1.91-10.72,1.91-3.03,0-5.78-.35-8.26-1.04-3.03,1.6-5.35,3.09-6.97,4.46-1.62,1.37-2.43,2.83-2.43,4.4,0,1.24.42,2.17,1.26,2.79.84.62,2.21.93,4.1.93h26.3c3.9,0,7.06.82,9.49,2.46Zm-39.05,11.92c-1.33,2.08-2,4.19-2,6.34,0,2.41.8,4.41,2.41,6.02,1.6,1.6,3.66,2.79,6.18,3.55s5.1,1.15,7.77,1.15c3.32,0,6.56-.59,9.73-1.78,3.17-1.19,5.78-2.97,7.82-5.36,2.04-2.39,3.06-5.28,3.06-8.67,0-1.46-.25-2.63-.74-3.53s-1.36-1.57-2.6-2.02c-1.24-.46-2.97-.68-5.2-.68h-20.84c-2.41,1.24-4.27,2.9-5.61,4.98Zm7.98-55.75c-1.73,2.39-2.6,6.43-2.6,12.11s.87,9.73,2.6,12.11c1.73,2.39,4.26,3.58,7.57,3.58s5.9-1.18,7.63-3.55c1.73-2.37,2.6-6.42,2.6-12.14s-.87-9.77-2.6-12.14c-1.73-2.37-4.27-3.55-7.63-3.55s-5.84,1.19-7.57,3.58Z"/>
      <path class="uuid-9e5f4130-9f4e-4701-a647-d24eb4021014" d="m1005.48,227.8c-1.91,2.28-4.3,4.13-7.16,5.55-2.86,1.42-6.06,2.13-9.6,2.13-5.32,0-9.93-1.21-13.81-3.64s-6.85-5.83-8.89-10.23c-2.04-4.39-3.06-9.45-3.06-15.18,0-6.49,1.04-12.12,3.12-16.9,2.08-4.78,5.02-8.45,8.83-11.02,3.81-2.57,8.27-3.86,13.37-3.86,6.71,0,11.88,2.03,15.5,6.1,3.63,4.07,5.44,10.24,5.44,18.51h-35c-.26,1.93-.38,4.32-.38,7.16,0,4.92.81,9.22,2.43,12.91,1.62,3.68,3.75,6.51,6.37,8.48s5.39,2.95,8.31,2.95c7.51,0,13-3.74,16.46-11.21l2.24.88c-.88,2.62-2.27,5.08-4.18,7.36Zm-7.96-40.88c-.77-3.1-1.97-5.56-3.61-7.38-1.64-1.82-3.66-2.73-6.07-2.73s-4.41.74-6.34,2.21c-1.93,1.48-3.56,3.74-4.89,6.78-1.33,3.04-2.18,6.83-2.54,11.35h24.39c.14-3.72-.16-7.13-.93-10.23Z"/>
      <path class="uuid-9e5f4130-9f4e-4701-a647-d24eb4021014" d="m1058.31,228.37c.57,1.17,1.46,1.99,2.68,2.46,1.22.47,2.89.71,5,.71v2.35c-6.85-.29-11.38-.44-13.56-.44s-6.71.15-13.56.44v-2.35c2.12,0,3.78-.24,5-.71,1.22-.47,2.12-1.29,2.68-2.46.57-1.17.85-2.79.85-4.87v-35.05c0-3.46-.63-5.98-1.89-7.55-1.26-1.57-3.47-2.35-6.64-2.35v-2.35c2.33.22,4.65.33,6.95.33,4.74,0,8.62-.51,11.65-1.53v48.51c0,2.08.28,3.7.85,4.87Zm-3.09-79.19c1.09.66,1.97,1.53,2.62,2.62s.98,2.28.98,3.55-.33,2.47-.98,3.58c-.66,1.11-1.53,1.99-2.62,2.62-1.09.64-2.28.96-3.55.96s-2.47-.32-3.58-.96c-1.11-.64-1.99-1.51-2.62-2.62-.64-1.11-.96-2.31-.96-3.58s.32-2.46.96-3.55c.64-1.09,1.51-1.97,2.62-2.62,1.11-.66,2.31-.98,3.58-.98s2.46.33,3.55.98Z"/>
      <path class="uuid-9e5f4130-9f4e-4701-a647-d24eb4021014" d="m1094.71,177.87c3.34-2.13,7.1-3.2,11.29-3.2,5.21,0,9.17,1.4,11.87,4.21,1.38,1.53,2.38,3.42,2.98,5.66s.9,5.26.9,9.05v29.91c0,2.08.28,3.7.85,4.87.56,1.17,1.46,1.99,2.68,2.46,1.22.47,2.89.71,5,.71v2.35c-6.86-.29-11.34-.44-13.45-.44s-6.25.15-12.52.44v-2.35c1.86,0,3.31-.24,4.35-.71,1.04-.47,1.8-1.29,2.3-2.46.49-1.17.74-2.79.74-4.87v-32.38c0-2.7-.21-4.96-.63-6.78-.42-1.82-1.29-3.3-2.62-4.43-1.33-1.13-3.27-1.7-5.82-1.7-3.06,0-5.79.89-8.18,2.68-2.39,1.79-4.24,4.24-5.55,7.36s-1.97,6.57-1.97,10.36v24.88c0,2.08.25,3.7.74,4.87.49,1.17,1.27,1.99,2.32,2.46,1.06.47,2.52.71,4.38.71v2.35c-6.27-.29-10.46-.44-12.58-.44s-6.6.15-13.45.44v-2.35c2.11,0,3.78-.24,5-.71,1.22-.47,2.11-1.29,2.68-2.46.56-1.17.85-2.79.85-4.87v-35.05c0-3.46-.63-5.98-1.89-7.55-1.26-1.57-3.47-2.35-6.64-2.35v-2.35c2.33.22,4.65.33,6.95.33,4.74,0,8.62-.51,11.65-1.53v13.18c1.86-4.74,4.46-8.18,7.79-10.31Z"/>
      <path class="uuid-9e5f4130-9f4e-4701-a647-d24eb4021014" d="m1189.57,176.31v2.24h-16.57v43.37c0,3.39.6,5.82,1.8,7.3s2.99,2.21,5.36,2.21,4.32-.93,5.96-2.79,3.03-4.92,4.16-9.19l2.19.55c-1.82,10.32-6.67,15.48-14.55,15.48-2.52,0-4.59-.3-6.23-.9s-3.1-1.54-4.38-2.82c-1.6-1.64-2.73-3.65-3.39-6.04-.66-2.39-.98-5.61-.98-9.65v-37.52h-10.77v-2.24h10.77v-17.12c4.19-.11,7.55-.64,10.06-1.59v18.7h16.57Z"/>
      <path class="uuid-9e5f4130-9f4e-4701-a647-d24eb4021014" d="m1216.59,177.82c3.34-2.1,7.08-3.14,11.24-3.14,5.21,0,9.17,1.4,11.87,4.21,1.42,1.53,2.43,3.42,3.04,5.66s.9,5.26.9,9.05v29.91c0,2.08.28,3.7.85,4.87.56,1.17,1.46,1.99,2.68,2.46,1.22.47,2.89.71,5,.71v2.35c-7-.29-11.48-.44-13.45-.44-2.12,0-6.31.15-12.58.44v-2.35c1.86,0,3.32-.24,4.38-.71,1.06-.47,1.83-1.29,2.32-2.46.49-1.17.74-2.79.74-4.87v-32.38c0-2.7-.22-4.96-.66-6.78-.44-1.82-1.32-3.3-2.65-4.43-1.33-1.13-3.25-1.7-5.77-1.7-3.03,0-5.73.87-8.12,2.6-2.39,1.73-4.25,4.14-5.58,7.22-1.33,3.08-2,6.57-2,10.47v24.99c0,2.08.25,3.7.74,4.87.49,1.17,1.26,1.99,2.3,2.46,1.04.47,2.49.71,4.35.71v2.35c-6.27-.29-10.45-.44-12.52-.44s-6.6.15-13.45.44v-2.35c2.11,0,3.78-.24,5-.71,1.22-.47,2.11-1.29,2.68-2.46.56-1.17.85-2.79.85-4.87v-63.88c0-3.46-.63-5.97-1.89-7.52-1.26-1.55-3.47-2.32-6.64-2.32v-2.35c2.37.22,4.68.33,6.95.33,4.81,0,8.7-.53,11.65-1.59v41.89c1.86-4.74,4.46-8.16,7.79-10.25Z"/>
      <path class="uuid-9e5f4130-9f4e-4701-a647-d24eb4021014" d="m1298.11,227.8c-1.91,2.28-4.3,4.13-7.16,5.55s-6.06,2.13-9.6,2.13c-5.32,0-9.93-1.21-13.81-3.64s-6.84-5.83-8.89-10.23c-2.04-4.39-3.06-9.45-3.06-15.18,0-6.49,1.04-12.12,3.12-16.9,2.08-4.78,5.02-8.45,8.83-11.02s8.27-3.86,13.37-3.86c6.71,0,11.88,2.03,15.5,6.1,3.63,4.07,5.44,10.24,5.44,18.51h-35c-.25,1.93-.38,4.32-.38,7.16,0,4.92.81,9.22,2.43,12.91,1.62,3.68,3.75,6.51,6.37,8.48s5.4,2.95,8.31,2.95c7.51,0,13-3.74,16.46-11.21l2.24.88c-.88,2.62-2.27,5.08-4.18,7.36Zm-7.96-40.88c-.77-3.1-1.97-5.56-3.61-7.38-1.64-1.82-3.66-2.73-6.07-2.73s-4.41.74-6.34,2.21-3.56,3.74-4.89,6.78c-1.33,3.04-2.18,6.83-2.54,11.35h24.39c.15-3.72-.16-7.13-.93-10.23Z"/>
      <path class="uuid-9e5f4130-9f4e-4701-a647-d24eb4021014" d="m1346.84,228.37c.56,1.17,1.46,1.99,2.68,2.46,1.22.47,2.89.71,5,.71v2.35c-6.85-.29-11.38-.44-13.56-.44s-6.71.15-13.56.44v-2.35c2.11,0,3.78-.24,5-.71,1.22-.47,2.11-1.29,2.68-2.46.56-1.17.85-2.79.85-4.87v-63.98c0-3.46-.63-5.97-1.89-7.52-1.26-1.55-3.47-2.32-6.64-2.32v-2.35c2.33.22,4.65.33,6.95.33,4.81,0,8.7-.53,11.65-1.59v77.44c0,2.08.28,3.7.85,4.87Z"/>
      <path class="uuid-9e5f4130-9f4e-4701-a647-d24eb4021014" d="m1409.6,229.33c1.26,1.55,3.47,2.32,6.64,2.32v2.35c-2.33-.22-4.65-.33-6.95-.33-4.81,0-8.7.53-11.65,1.59v-13.23c-1.82,4.59-4.37,7.98-7.63,10.17-3.26,2.19-6.85,3.28-10.75,3.28-5.03,0-8.91-1.42-11.65-4.27-1.35-1.46-2.31-3.35-2.87-5.69-.57-2.33-.85-5.32-.85-8.97v-28.11c0-3.46-.62-5.98-1.86-7.55-1.24-1.57-3.45-2.35-6.62-2.35v-2.35c2.33.22,4.65.33,6.95.33,4.7,0,8.59-.51,11.65-1.53v44.02c0,2.84.16,5.14.49,6.89s1.11,3.18,2.35,4.29c1.24,1.11,3.12,1.67,5.63,1.67,2.88,0,5.47-.89,7.77-2.68,2.3-1.79,4.1-4.23,5.41-7.33,1.31-3.1,1.97-6.53,1.97-10.28v-23.13c0-3.46-.63-5.98-1.89-7.55-1.26-1.57-3.47-2.35-6.64-2.35v-2.35c2.33.22,4.65.33,6.95.33,4.74,0,8.62-.51,11.65-1.53v46.81c0,3.46.63,5.97,1.89,7.52Z"/>
      <path class="uuid-9e5f4130-9f4e-4701-a647-d24eb4021014" d="m1468.45,229.99c.95.78,2.13,1.3,3.55,1.56v2.35c-3.79-.29-6.43-.44-7.93-.44-2.55,0-6.96.15-13.23.44v-2.35c1.2,0,2.24-.24,3.12-.71.88-.47,1.31-1.08,1.31-1.8,0-.36-.16-.8-.49-1.31l-12.74-18.59-8.2,10.66c-2.08,2.66-3.12,4.9-3.12,6.73,0,3.06,2.75,4.78,8.26,5.14v2.24c-3.94-.22-8.18-.33-12.74-.33-3.32,0-6.16.11-8.53.33v-2.24c1.46-.18,2.95-.86,4.48-2.02,1.53-1.17,3.32-3.1,5.36-5.8l12.91-17.01-15.59-22.64c-1.02-1.49-1.88-2.62-2.57-3.36-.69-.75-1.36-1.29-2-1.61-.64-.33-1.43-.55-2.38-.66v-2.35c3.94.29,6.6.44,7.98.44,2.52,0,6.91-.15,13.18-.44v2.35c-1.2,0-2.23.23-3.09.68-.86.46-1.29,1.07-1.29,1.83,0,.44.15.88.44,1.31l11.98,17.45,7.77-10.83c2.26-3.17,3.39-5.52,3.39-7.05,0-1.06-.51-1.87-1.53-2.43-1.02-.56-2.64-.92-4.87-1.07v-2.24c3.87.22,7,.33,9.41.33,3.28,0,6.11-.11,8.48-.33v2.24c-3.03.37-6.31,2.99-9.84,7.88l-11.32,15.64,16.46,24.01c1.31,1.9,2.44,3.24,3.39,4.02Z"/>
      <path class="uuid-9e5f4130-9f4e-4701-a647-d24eb4021014" d="m1526.09,229.33c1.26,1.55,3.47,2.32,6.64,2.32v2.35c-2.33-.22-4.65-.33-6.95-.33-4.81,0-8.7.53-11.65,1.59v-13.23c-1.82,4.59-4.37,7.98-7.63,10.17-3.26,2.19-6.85,3.28-10.75,3.28-5.03,0-8.91-1.42-11.65-4.27-1.35-1.46-2.31-3.35-2.87-5.69-.57-2.33-.85-5.32-.85-8.97v-28.11c0-3.46-.62-5.98-1.86-7.55-1.24-1.57-3.45-2.35-6.62-2.35v-2.35c2.33.22,4.65.33,6.95.33,4.7,0,8.59-.51,11.65-1.53v44.02c0,2.84.16,5.14.49,6.89s1.11,3.18,2.35,4.29c1.24,1.11,3.12,1.67,5.63,1.67,2.88,0,5.47-.89,7.77-2.68,2.3-1.79,4.1-4.23,5.41-7.33,1.31-3.1,1.97-6.53,1.97-10.28v-23.13c0-3.46-.63-5.98-1.89-7.55-1.26-1.57-3.47-2.35-6.64-2.35v-2.35c2.33.22,4.65.33,6.95.33,4.74,0,8.62-.51,11.65-1.53v46.81c0,3.46.63,5.97,1.89,7.52Z"/>
      <path class="uuid-9e5f4130-9f4e-4701-a647-d24eb4021014" d="m1557.29,182.22c1.59-2.19,3.47-3.99,5.66-5.41s4.5-2.13,6.95-2.13c1.97,0,3.73.39,5.28,1.18,1.55.78,2.76,1.85,3.64,3.2.88,1.35,1.31,2.83,1.31,4.43,0,1.97-.58,3.64-1.75,5-1.17,1.37-2.72,2.05-4.65,2.05-1.64,0-3.04-.52-4.21-1.56-1.17-1.04-1.75-2.45-1.75-4.24,0-2.44,1.28-4.47,3.83-6.07-.51-.73-1.29-1.09-2.35-1.09-2.95,0-5.62,1.13-7.98,3.39-2.37,2.26-4.23,5.05-5.58,8.37-1.35,3.32-2.02,6.42-2.02,9.3v23.73c0,3.46.98,5.86,2.95,7.19,1.97,1.33,4.94,2,8.91,2v2.35c-9.19-.29-14.93-.44-17.23-.44-1.97,0-6.38.15-13.23.44v-2.35c2.11,0,3.78-.24,5-.71,1.22-.47,2.11-1.29,2.68-2.46.56-1.17.85-2.79.85-4.87v-35.05c0-3.46-.63-5.98-1.89-7.55-1.26-1.57-3.47-2.35-6.64-2.35v-2.35c2.33.22,4.65.33,6.95.33,4.74,0,8.62-.51,11.65-1.53v14c.84-2.33,2.05-4.59,3.64-6.78Z"/>
      <path class="uuid-9e5f4130-9f4e-4701-a647-d24eb4021014" d="m1625.16,176.53c3.32,0,6.16-.11,8.53-.33v2.24c-1.49.18-2.83.86-3.99,2.02-1.17,1.17-2.26,3.12-3.28,5.85l-18.38,48.12-3.83,9.73c-1.42,3.68-3.03,6.31-4.81,7.88-2.11,1.93-5.03,2.9-8.75,2.9-2.22,0-4.05-.59-5.47-1.78-1.42-1.19-2.13-2.83-2.13-4.95,0-1.79.53-3.22,1.59-4.29,1.06-1.08,2.52-1.61,4.38-1.61,1.64,0,3,.46,4.07,1.37,1.08.91,1.61,2.21,1.61,3.88,0,2.22-1,3.9-3.01,5.03.15.07.37.11.66.11,4.12,0,7.29-2.92,9.52-8.75l3.99-10.23-20.34-48.89c-1.28-2.59-2.54-4.28-3.8-5.09-1.26-.8-2.52-1.2-3.8-1.2v-2.35c3.5.47,7.16.71,10.99.71,3.21,0,8.06-.24,14.55-.71v2.35c-1.82,0-3.24.06-4.27.19-1.02.13-1.87.47-2.54,1.04-.67.57-1.01,1.45-1.01,2.65,0,1.35.47,3.19,1.42,5.52l13.51,33.47,12.36-32.43c.8-2.19,1.2-3.9,1.2-5.14,0-1.75-.67-3.04-2-3.88-1.33-.84-3.46-1.35-6.37-1.53v-2.24c3.94.22,7.07.33,9.41.33Z"/>
      <path class="uuid-9e5f4130-9f4e-4701-a647-d24eb4021014" d="m1696.78,177.9c3.81,2.15,6.82,5.5,9.02,10.04,2.21,4.54,3.31,10.27,3.31,17.2s-1.1,12.65-3.31,17.17c-2.21,4.52-5.21,7.85-9.02,9.98-3.81,2.13-8.18,3.2-13.1,3.2s-9.29-1.07-13.1-3.2c-3.81-2.13-6.82-5.46-9.02-9.98-2.21-4.52-3.31-10.24-3.31-17.17s1.1-12.66,3.31-17.2c2.21-4.54,5.21-7.88,9.02-10.04,3.81-2.15,8.18-3.23,13.1-3.23s9.29,1.08,13.1,3.23Zm-23.73,5.91c-2.61,4.59-3.91,11.7-3.91,21.33s1.3,16.67,3.91,21.25c2.61,4.58,6.15,6.86,10.64,6.86s8.03-2.29,10.64-6.86c2.61-4.58,3.91-11.66,3.91-21.25s-1.3-16.73-3.91-21.33c-2.61-4.59-6.15-6.89-10.64-6.89s-8.03,2.3-10.64,6.89Z"/>
      <path class="uuid-9e5f4130-9f4e-4701-a647-d24eb4021014" d="m1723.42,165.18c.37-2.97.96-5.5,1.78-7.57s1.96-3.97,3.42-5.69c1.46-1.75,3.35-3.13,5.69-4.13,2.33-1,4.87-1.5,7.6-1.5,3.83,0,7.07,1.02,9.73,3.06,2.33,1.9,3.5,4.21,3.5,6.95,0,1.71-.56,3.13-1.67,4.24-1.11,1.11-2.54,1.67-4.29,1.67s-3.16-.55-4.35-1.64-1.78-2.55-1.78-4.38c0-1.53.43-2.8,1.29-3.8.86-1,2-1.65,3.42-1.94-.22-.69-.82-1.28-1.8-1.75-.98-.47-2.22-.71-3.72-.71-3.32,0-5.74,1.39-7.27,4.16-.84,1.5-1.38,3.73-1.64,6.7-.26,2.97-.38,7.83-.38,14.57v2.9h12.03v2.24h-12.03v43.8c0,3.46.98,5.86,2.95,7.19,1.97,1.33,4.94,2,8.91,2v2.35c-9.19-.29-14.93-.44-17.23-.44-1.82,0-6.23.15-13.23.44v-2.35c2.12,0,3.78-.24,5-.71,1.22-.47,2.12-1.29,2.68-2.46.56-1.17.85-2.79.85-4.87v-44.95h-8.97v-2.24h8.97c0-4.45.18-8.16.55-11.13Z"/>
    </g>
    <g class="uuid-e885440f-083d-47f9-99b0-18800e0e6cd2">
      <path class="uuid-c1049dd3-f6a1-4750-87b2-fea51b97fdd4" d="m712.42,299.09c3.5,3.63,5.25,7.99,5.25,13.1,0,4.23-1.08,7.98-3.25,11.27-2.17,3.28-5.28,5.84-9.32,7.68-4.05,1.84-8.82,2.76-14.33,2.76-1.5,0-4.12-.05-7.88-.16-3.76-.11-7.55-.16-11.38-.16-6.12,0-10.76.11-13.89.33v-2.24c2.7-.11,4.66-.4,5.88-.88,1.22-.47,2.06-1.35,2.52-2.62.46-1.28.68-3.32.68-6.12v-55.56c0-2.81-.23-4.85-.68-6.12-.46-1.28-1.29-2.15-2.52-2.62-1.22-.47-3.18-.77-5.88-.88v-2.24c3.1.22,7.66.33,13.67.33,2.92,0,6.13-.04,9.65-.11,3.52-.07,5.93-.11,7.25-.11,5.1,0,9.42.74,12.96,2.21,3.54,1.48,6.2,3.54,7.98,6.18,1.79,2.64,2.68,5.71,2.68,9.21,0,4.3-1.36,8.17-4.07,11.59-2.72,3.43-7.03,6.05-12.93,7.88v.22c8.24,1.09,14.11,3.46,17.61,7.08Zm-14.98-12.28c2.44-3.32,3.66-7.75,3.66-13.29s-1.24-9.8-3.72-12.55c-2.48-2.75-6.47-4.13-11.98-4.13-2.33,0-4.08.26-5.25.79-1.17.53-1.97,1.47-2.41,2.82-.44,1.35-.66,3.35-.66,6.02v25.32h7.55c6.09,0,10.35-1.66,12.8-4.98Zm-19.69,41.18c.44,1.28,1.24,2.15,2.41,2.62,1.17.47,2.95.71,5.36.71,13.96,0,20.95-6.54,20.95-19.63,0-5.87-1.6-10.34-4.79-13.4-3.19-3.06-8.25-4.59-15.18-4.59h-9.41v28.33c0,2.7.22,4.69.66,5.96Z"/>
      <path class="uuid-c1049dd3-f6a1-4750-87b2-fea51b97fdd4" d="m740.26,328.37c.56,1.17,1.46,1.99,2.68,2.46,1.22.47,2.89.71,5,.71v2.35c-6.85-.29-11.38-.44-13.56-.44s-6.71.15-13.56.44v-2.35c2.11,0,3.78-.24,5-.71,1.22-.47,2.11-1.29,2.68-2.46.56-1.17.85-2.79.85-4.87v-63.98c0-3.46-.63-5.97-1.89-7.52-1.26-1.55-3.47-2.32-6.64-2.32v-2.35c2.33.22,4.65.33,6.95.33,4.81,0,8.7-.53,11.65-1.59v77.44c0,2.08.28,3.7.85,4.87Z"/>
      <path class="uuid-c1049dd3-f6a1-4750-87b2-fea51b97fdd4" d="m789.72,277.9c3.81,2.15,6.82,5.5,9.02,10.04,2.21,4.54,3.31,10.27,3.31,17.2s-1.1,12.65-3.31,17.17c-2.21,4.52-5.21,7.85-9.02,9.98-3.81,2.13-8.18,3.2-13.1,3.2s-9.29-1.07-13.1-3.2c-3.81-2.13-6.82-5.46-9.02-9.98-2.21-4.52-3.31-10.24-3.31-17.17s1.1-12.66,3.31-17.2c2.21-4.54,5.21-7.88,9.02-10.04,3.81-2.15,8.18-3.23,13.1-3.23s9.29,1.08,13.1,3.23Zm-23.73,5.91c-2.61,4.59-3.91,11.7-3.91,21.33s1.3,16.67,3.91,21.25c2.61,4.58,6.15,6.86,10.64,6.86s8.03-2.29,10.64-6.86c2.61-4.58,3.91-11.66,3.91-21.25s-1.3-16.73-3.91-21.33c-2.61-4.59-6.15-6.89-10.64-6.89s-8.03,2.3-10.64,6.89Z"/>
      <path class="uuid-c1049dd3-f6a1-4750-87b2-fea51b97fdd4" d="m847.72,277.9c3.81,2.15,6.82,5.5,9.02,10.04,2.21,4.54,3.31,10.27,3.31,17.2s-1.1,12.65-3.31,17.17c-2.21,4.52-5.21,7.85-9.02,9.98-3.81,2.13-8.18,3.2-13.1,3.2s-9.29-1.07-13.1-3.2c-3.81-2.13-6.82-5.46-9.02-9.98-2.21-4.52-3.31-10.24-3.31-17.17s1.1-12.66,3.31-17.2c2.21-4.54,5.21-7.88,9.02-10.04,3.81-2.15,8.18-3.23,13.1-3.23s9.29,1.08,13.1,3.23Zm-23.73,5.91c-2.61,4.59-3.91,11.7-3.91,21.33s1.3,16.67,3.91,21.25c2.61,4.58,6.15,6.86,10.64,6.86s8.03-2.29,10.64-6.86c2.61-4.58,3.91-11.66,3.91-21.25s-1.3-16.73-3.91-21.33c-2.61-4.59-6.15-6.89-10.64-6.89s-8.03,2.3-10.64,6.89Z"/>
      <path class="uuid-c1049dd3-f6a1-4750-87b2-fea51b97fdd4" d="m952.04,328.37c.56,1.17,1.46,1.99,2.68,2.46,1.22.47,2.89.71,5,.71v2.35c-6.85-.29-11.34-.44-13.45-.44s-6.25.15-12.52.44v-2.35c1.86,0,3.31-.24,4.35-.71,1.04-.47,1.8-1.29,2.3-2.46.49-1.17.74-2.79.74-4.87v-32.38c0-2.84-.16-5.15-.49-6.92-.33-1.77-1.11-3.21-2.35-4.32-1.24-1.11-3.14-1.67-5.69-1.67-2.84,0-5.41.89-7.71,2.68-2.3,1.79-4.1,4.23-5.41,7.33-1.31,3.1-1.97,6.53-1.97,10.28v24.99c0,2.08.28,3.7.85,4.87.56,1.17,1.45,1.99,2.65,2.46,1.2.47,2.86.71,4.98.71v2.35c-6.85-.29-11.32-.44-13.4-.44s-6.31.15-12.58.44v-2.35c1.86,0,3.32-.24,4.38-.71,1.06-.47,1.82-1.29,2.3-2.46.47-1.17.71-2.79.71-4.87v-32.38c0-2.84-.16-5.15-.49-6.92-.33-1.77-1.11-3.21-2.35-4.32-1.24-1.11-3.12-1.67-5.63-1.67-2.88,0-5.47.9-7.77,2.71s-4.1,4.27-5.41,7.38-1.97,6.55-1.97,10.31v24.88c0,2.08.25,3.7.74,4.87.49,1.17,1.27,1.99,2.32,2.46,1.06.47,2.52.71,4.38.71v2.35c-6.27-.29-10.46-.44-12.58-.44s-6.6.15-13.45.44v-2.35c2.11,0,3.78-.24,5-.71,1.22-.47,2.11-1.29,2.68-2.46.56-1.17.85-2.79.85-4.87v-35.05c0-3.46-.63-5.98-1.89-7.55-1.26-1.57-3.47-2.35-6.64-2.35v-2.35c2.33.22,4.65.33,6.95.33,4.74,0,8.62-.51,11.65-1.53v13.18c1.82-4.59,4.38-7.99,7.66-10.2,3.28-2.21,6.85-3.31,10.72-3.31,5.07,0,8.95,1.4,11.65,4.21,1.86,2.04,3.01,5.05,3.45,9.02,1.86-4.7,4.43-8.08,7.71-10.14,3.28-2.06,6.93-3.09,10.94-3.09,5.07,0,8.95,1.4,11.65,4.21,1.35,1.5,2.3,3.4,2.84,5.71.55,2.32.82,5.31.82,9v29.91c0,2.08.28,3.7.85,4.87Z"/>
      <path class="uuid-c1049dd3-f6a1-4750-87b2-fea51b97fdd4" d="m1066.1,254.85c2.48,1.22,4.43,2.97,5.85,5.25,1.42,2.28,2.13,4.97,2.13,8.07,0,3.57-.97,6.68-2.9,9.32-1.93,2.64-4.5,4.77-7.71,6.37-2.62,1.24-8.17,3.19-16.62,5.85,4.19,1.75,7.28,4.28,9.27,7.57,1.99,3.3,2.98,7.1,2.98,11.4,0,4.63-1.38,9-4.13,13.1-2.75,4.1-6.72,7.41-11.89,9.93-5.18,2.52-11.23,3.77-18.16,3.77-6.53,0-12.55-1.14-18.07-3.42s-9.94-5.53-13.23-9.76c-3.3-4.23-4.95-9.13-4.95-14.71,0-4.92,1.22-9.08,3.66-12.47,2.44-3.39,5.22-5.97,8.34-7.74,3.12-1.77,6.01-3,8.67-3.69-3.65-1.57-6.44-3.65-8.37-6.23-1.93-2.59-2.9-5.32-2.9-8.2,0-2.48.73-4.79,2.19-6.92,1.46-2.13,3.61-3.85,6.45-5.14,2.84-1.29,6.27-1.94,10.28-1.94,4.99,0,8.88,1.13,11.65,3.39,1.38,1.13,2.42,2.38,3.12,3.75.69,1.37,1.04,2.69,1.04,3.96,0,1.79-.64,3.23-1.91,4.32-1.28,1.09-2.73,1.64-4.38,1.64s-2.98-.51-4.13-1.53c-1.15-1.02-1.72-2.39-1.72-4.1,0-1.6.55-2.99,1.67-4.16,1.11-1.17,2.54-1.82,4.29-1.97-.33-.98-1.28-1.83-2.84-2.54-1.57-.71-3.46-1.07-5.69-1.07-3.9,0-7.04,1.17-9.41,3.5-2.37,2.33-3.55,5.62-3.55,9.84,0,5,1.89,9.24,5.69,12.74,2.59-.44,4.9-.66,6.95-.66,1.38,0,2.48.22,3.28.66.8.44,1.2,1.08,1.2,1.91,0,.66-.28,1.18-.85,1.56-.57.38-1.32.57-2.27.57-1.09,0-2.26-.2-3.5-.6-1.24-.4-2.28-.79-3.12-1.18-.84-.38-1.37-.61-1.59-.68-9.7,2.88-14.55,9.01-14.55,18.38,0,5,1.31,9.32,3.94,12.96,2.62,3.65,6.21,6.43,10.77,8.34,4.56,1.91,9.66,2.87,15.31,2.87,5.32,0,10.23-.83,14.71-2.49,4.48-1.66,8.06-4.05,10.72-7.16,2.66-3.12,3.99-6.74,3.99-10.86,0-2.92-.79-5.92-2.38-9-1.59-3.08-4.55-5.5-8.89-7.25-6.64,2.08-10.94,3.5-12.91,4.27-3.14,1.2-5.56,2.57-7.27,4.1-1.71,1.53-2.57,3.41-2.57,5.63,0,1.82.54,3.42,1.61,4.79,1.07,1.37,2.41,2.41,4.02,3.12,1.6.71,3.15,1.07,4.65,1.07,1.28,0,2.67-.22,4.18-.66,1.51-.44,2.36-1.04,2.54-1.8-1.42-.25-2.65-.84-3.69-1.75-1.04-.91-1.56-2.22-1.56-3.94s.58-3.16,1.75-4.24c1.17-1.08,2.62-1.61,4.38-1.61s3.23.56,4.32,1.67c1.09,1.11,1.64,2.58,1.64,4.4,0,2.01-.68,3.74-2.02,5.2-1.35,1.46-3.05,2.56-5.11,3.31-2.06.75-4.13,1.12-6.21,1.12-2.26,0-4.46-.47-6.59-1.42-2.13-.95-3.88-2.41-5.25-4.38s-2.05-4.41-2.05-7.33c0-3.79,1.29-7.02,3.86-9.68,2.57-2.66,6.44-4.88,11.62-6.67,1.46-.47,4.27-1.3,8.45-2.49,4.17-1.18,7.76-2.25,10.75-3.2,2.99-.95,5.71-1.99,8.15-3.12,3.54-1.68,6.02-3.38,7.46-5.11,1.44-1.73,2.16-3.62,2.16-5.66s-.6-3.98-1.8-5.71c-1.2-1.73-2.8-3.1-4.79-4.1-1.99-1-4.13-1.5-6.43-1.5-1.9,0-3.01.33-3.34.98.98.51,1.75,1.25,2.3,2.21.55.97.82,1.96.82,2.98,0,1.53-.62,2.83-1.86,3.88-1.24,1.06-2.72,1.59-4.43,1.59-1.61,0-2.99-.48-4.16-1.45-1.17-.97-1.75-2.34-1.75-4.13s.62-3.32,1.86-4.48c1.24-1.17,2.8-2,4.68-2.52,1.88-.51,3.8-.77,5.77-.77,3.1,0,5.89.61,8.37,1.83Z"/>
      <path class="uuid-c1049dd3-f6a1-4750-87b2-fea51b97fdd4" d="m1157,299.09c3.5,3.63,5.25,7.99,5.25,13.1,0,4.23-1.08,7.98-3.25,11.27-2.17,3.28-5.28,5.84-9.32,7.68-4.05,1.84-8.82,2.76-14.33,2.76-1.49,0-4.12-.05-7.88-.16-3.75-.11-7.55-.16-11.38-.16-6.12,0-10.75.11-13.89.33v-2.24c2.7-.11,4.66-.4,5.88-.88,1.22-.47,2.06-1.35,2.52-2.62.46-1.28.68-3.32.68-6.12v-55.56c0-2.81-.23-4.85-.68-6.12-.46-1.28-1.29-2.15-2.52-2.62-1.22-.47-3.18-.77-5.88-.88v-2.24c3.1.22,7.66.33,13.67.33,2.92,0,6.13-.04,9.65-.11,3.52-.07,5.93-.11,7.25-.11,5.1,0,9.42.74,12.96,2.21,3.54,1.48,6.2,3.54,7.98,6.18,1.79,2.64,2.68,5.71,2.68,9.21,0,4.3-1.36,8.17-4.07,11.59-2.72,3.43-7.03,6.05-12.93,7.88v.22c8.24,1.09,14.11,3.46,17.61,7.08Zm-14.98-12.28c2.44-3.32,3.66-7.75,3.66-13.29s-1.24-9.8-3.72-12.55c-2.48-2.75-6.47-4.13-11.98-4.13-2.33,0-4.08.26-5.25.79-1.17.53-1.97,1.47-2.41,2.82-.44,1.35-.66,3.35-.66,6.02v25.32h7.55c6.09,0,10.35-1.66,12.8-4.98Zm-19.69,41.18c.44,1.28,1.24,2.15,2.41,2.62,1.17.47,2.95.71,5.36.71,13.96,0,20.95-6.54,20.95-19.63,0-5.87-1.59-10.34-4.79-13.4-3.19-3.06-8.25-4.59-15.18-4.59h-9.41v28.33c0,2.7.22,4.69.66,5.96Z"/>
      <path class="uuid-c1049dd3-f6a1-4750-87b2-fea51b97fdd4" d="m1184.84,328.37c.56,1.17,1.46,1.99,2.68,2.46,1.22.47,2.89.71,5,.71v2.35c-6.86-.29-11.38-.44-13.56-.44s-6.71.15-13.56.44v-2.35c2.11,0,3.78-.24,5-.71,1.22-.47,2.11-1.29,2.68-2.46.56-1.17.85-2.79.85-4.87v-63.98c0-3.46-.63-5.97-1.89-7.52-1.26-1.55-3.47-2.32-6.64-2.32v-2.35c2.33.22,4.65.33,6.95.33,4.81,0,8.7-.53,11.65-1.59v77.44c0,2.08.28,3.7.85,4.87Z"/>
      <path class="uuid-c1049dd3-f6a1-4750-87b2-fea51b97fdd4" d="m1214.29,328.37c.57,1.17,1.46,1.99,2.68,2.46,1.22.47,2.89.71,5,.71v2.35c-6.85-.29-11.38-.44-13.56-.44s-6.71.15-13.56.44v-2.35c2.11,0,3.78-.24,5-.71,1.22-.47,2.11-1.29,2.68-2.46.57-1.17.85-2.79.85-4.87v-35.05c0-3.46-.63-5.98-1.89-7.55-1.26-1.57-3.47-2.35-6.64-2.35v-2.35c2.33.22,4.65.33,6.95.33,4.74,0,8.62-.51,11.65-1.53v48.51c0,2.08.28,3.7.85,4.87Zm-3.09-79.19c1.09.66,1.97,1.53,2.62,2.62s.98,2.28.98,3.55-.33,2.47-.98,3.58c-.66,1.11-1.53,1.99-2.62,2.62-1.09.64-2.28.96-3.55.96s-2.47-.32-3.58-.96c-1.11-.64-1.99-1.51-2.62-2.62-.64-1.11-.96-2.31-.96-3.58s.32-2.46.96-3.55,1.51-1.97,2.62-2.62,2.31-.98,3.58-.98,2.46.33,3.55.98Z"/>
      <path class="uuid-c1049dd3-f6a1-4750-87b2-fea51b97fdd4" d="m1232.61,323.73c1.02,2.99,2.59,5.32,4.7,7,2.12,1.68,4.96,2.52,8.53,2.52,1.64,0,3.22-.36,4.73-1.07,1.51-.71,2.76-1.86,3.75-3.45s1.48-3.64,1.48-6.15c0-2.04-.52-3.87-1.56-5.5-1.04-1.62-2.4-3.08-4.07-4.38-1.68-1.29-4.03-2.89-7.05-4.79-3.68-2.33-6.5-4.25-8.45-5.74-1.95-1.49-3.6-3.32-4.95-5.47-1.35-2.15-2.02-4.68-2.02-7.6,0-3.17.75-5.84,2.24-8.01,1.5-2.17,3.49-3.78,5.99-4.84,2.5-1.06,5.28-1.59,8.34-1.59,2.62,0,4.99.42,7.08,1.26,2.1.84,3.8,1.79,5.11,2.84.8.62,1.46.93,1.97.93,1.31,0,2.15-1.64,2.52-4.92h2.57c-.29,3.65-.44,9.99-.44,19.03h-2.57c-.8-4.92-2.39-8.99-4.76-12.2-2.37-3.21-5.87-4.81-10.5-4.81-2.7,0-4.9.76-6.62,2.27-1.71,1.51-2.57,3.62-2.57,6.32s.88,4.75,2.65,6.48c1.77,1.73,3.9,3.38,6.4,4.95,2.5,1.57,4.28,2.7,5.33,3.39,3.43,2.22,6.19,4.2,8.29,5.93,2.1,1.73,3.79,3.72,5.09,5.96,1.29,2.24,1.94,4.8,1.94,7.68,0,3.32-.87,6.15-2.6,8.5-1.73,2.35-4.06,4.14-6.97,5.36-2.92,1.22-6.11,1.83-9.57,1.83s-6.27-.53-8.86-1.59c-1.46-.73-2.99-1.73-4.59-3.01-.29-.29-.64-.44-1.04-.44-1.09,0-1.86,1.4-2.3,4.21h-2.57c.29-4.27.44-11.72.44-22.37h2.57c.55,4.63,1.33,8.44,2.35,11.43Z"/>
      <path class="uuid-c1049dd3-f6a1-4750-87b2-fea51b97fdd4" d="m1279.18,323.73c1.02,2.99,2.59,5.32,4.7,7,2.11,1.68,4.96,2.52,8.53,2.52,1.64,0,3.22-.36,4.73-1.07,1.51-.71,2.76-1.86,3.75-3.45s1.48-3.64,1.48-6.15c0-2.04-.52-3.87-1.56-5.5-1.04-1.62-2.4-3.08-4.07-4.38-1.68-1.29-4.03-2.89-7.05-4.79-3.68-2.33-6.5-4.25-8.45-5.74-1.95-1.49-3.6-3.32-4.95-5.47-1.35-2.15-2.02-4.68-2.02-7.6,0-3.17.75-5.84,2.24-8.01,1.49-2.17,3.49-3.78,5.99-4.84,2.5-1.06,5.28-1.59,8.34-1.59,2.62,0,4.99.42,7.08,1.26,2.1.84,3.8,1.79,5.11,2.84.8.62,1.46.93,1.97.93,1.31,0,2.15-1.64,2.52-4.92h2.57c-.29,3.65-.44,9.99-.44,19.03h-2.57c-.8-4.92-2.39-8.99-4.76-12.2-2.37-3.21-5.87-4.81-10.5-4.81-2.7,0-4.9.76-6.62,2.27-1.71,1.51-2.57,3.62-2.57,6.32s.88,4.75,2.65,6.48c1.77,1.73,3.9,3.38,6.4,4.95,2.5,1.57,4.27,2.7,5.33,3.39,3.43,2.22,6.19,4.2,8.29,5.93,2.1,1.73,3.79,3.72,5.09,5.96,1.29,2.24,1.94,4.8,1.94,7.68,0,3.32-.87,6.15-2.6,8.5-1.73,2.35-4.06,4.14-6.97,5.36-2.92,1.22-6.11,1.83-9.57,1.83s-6.27-.53-8.86-1.59c-1.46-.73-2.99-1.73-4.59-3.01-.29-.29-.64-.44-1.04-.44-1.09,0-1.86,1.4-2.3,4.21h-2.57c.29-4.27.44-11.72.44-22.37h2.57c.55,4.63,1.33,8.44,2.35,11.43Z"/>
    </g>
    <g class="uuid-e885440f-083d-47f9-99b0-18800e0e6cd2">
      <path class="uuid-9e5f4130-9f4e-4701-a647-d24eb4021014" d="m677.09,422.03c0,2.81.29,4.85.88,6.12.58,1.28,1.64,2.15,3.17,2.62,1.53.47,3.96.77,7.27.88v2.24c-3.86-.22-9.35-.33-16.46-.33-6.42,0-11.19.11-14.33.33v-2.24c2.7-.11,4.66-.4,5.88-.88,1.22-.47,2.06-1.35,2.52-2.62.46-1.28.68-3.32.68-6.12v-55.56c0-2.81-.23-4.85-.68-6.12-.46-1.28-1.29-2.15-2.52-2.62-1.22-.47-3.18-.77-5.88-.88v-2.24c3.1.22,7.66.33,13.67.33,2.92,0,6.13-.04,9.65-.11,3.52-.07,5.93-.11,7.25-.11,5.87,0,10.83.92,14.88,2.76,4.05,1.84,7.08,4.42,9.11,7.74,2.02,3.32,3.04,7.18,3.04,11.59,0,4.08-.91,8.02-2.73,11.81-1.82,3.79-4.93,6.95-9.32,9.46-4.39,2.52-10.2,3.77-17.42,3.77h-8.64v20.18Zm22.7-28.27c2.81-3.9,4.21-9.15,4.21-15.75,0-4.81-.62-8.77-1.86-11.87-1.24-3.1-3.22-5.42-5.93-6.97-2.72-1.55-6.32-2.32-10.8-2.32-2.33,0-4.08.26-5.25.79-1.17.53-1.97,1.47-2.41,2.82-.44,1.35-.66,3.35-.66,6.02v33.14h7.55c7.29,0,12.34-1.95,15.15-5.85Z"/>
      <path class="uuid-9e5f4130-9f4e-4701-a647-d24eb4021014" d="m740.53,382.22c1.59-2.19,3.47-3.99,5.66-5.41s4.5-2.13,6.95-2.13c1.97,0,3.73.39,5.28,1.18,1.55.78,2.76,1.85,3.64,3.2.88,1.35,1.31,2.83,1.31,4.43,0,1.97-.58,3.64-1.75,5-1.17,1.37-2.72,2.05-4.65,2.05-1.64,0-3.04-.52-4.21-1.56-1.17-1.04-1.75-2.45-1.75-4.24,0-2.44,1.28-4.47,3.83-6.07-.51-.73-1.29-1.09-2.35-1.09-2.95,0-5.61,1.13-7.98,3.39-2.37,2.26-4.23,5.05-5.58,8.37-1.35,3.32-2.02,6.42-2.02,9.3v23.73c0,3.46.98,5.86,2.95,7.19,1.97,1.33,4.94,2,8.91,2v2.35c-9.19-.29-14.93-.44-17.23-.44-1.97,0-6.38.15-13.23.44v-2.35c2.11,0,3.78-.24,5-.71,1.22-.47,2.11-1.29,2.68-2.46.56-1.17.85-2.79.85-4.87v-35.05c0-3.46-.63-5.98-1.89-7.55-1.26-1.57-3.47-2.35-6.64-2.35v-2.35c2.33.22,4.65.33,6.95.33,4.74,0,8.62-.51,11.65-1.53v14c.84-2.33,2.05-4.59,3.64-6.78Z"/>
      <path class="uuid-9e5f4130-9f4e-4701-a647-d24eb4021014" d="m803.07,377.9c3.81,2.15,6.82,5.5,9.02,10.04,2.21,4.54,3.31,10.27,3.31,17.2s-1.1,12.65-3.31,17.17c-2.21,4.52-5.21,7.85-9.02,9.98-3.81,2.13-8.18,3.2-13.1,3.2s-9.29-1.07-13.1-3.2c-3.81-2.13-6.82-5.46-9.02-9.98-2.21-4.52-3.31-10.24-3.31-17.17s1.1-12.66,3.31-17.2c2.21-4.54,5.21-7.88,9.02-10.04,3.81-2.15,8.18-3.23,13.1-3.23s9.29,1.08,13.1,3.23Zm-23.73,5.91c-2.61,4.59-3.91,11.7-3.91,21.33s1.3,16.67,3.91,21.25c2.61,4.58,6.15,6.86,10.64,6.86s8.03-2.29,10.64-6.86c2.61-4.58,3.91-11.66,3.91-21.25s-1.3-16.73-3.91-21.33c-2.61-4.59-6.15-6.89-10.64-6.89s-8.03,2.3-10.64,6.89Z"/>
      <path class="uuid-9e5f4130-9f4e-4701-a647-d24eb4021014" d="m862.52,376.53c3.28,0,6.11-.11,8.48-.33v2.24c-1.5.18-2.83.86-3.99,2.02-1.17,1.17-2.26,3.12-3.28,5.85l-18.38,48.12h-1.86l-20.62-49.6c-1.09-2.59-2.18-4.28-3.25-5.09-1.08-.8-2.16-1.2-3.25-1.2v-2.35c3.86.29,7.15.44,9.84.44,5.72,0,10.57-.15,14.55-.44v2.35c-1.86,0-3.31.06-4.35.19-1.04.13-1.9.46-2.57,1.01-.67.55-1.01,1.42-1.01,2.62s.4,2.88,1.2,4.92l13.78,34.07,12.36-32.38c.8-2.04,1.2-3.77,1.2-5.2,0-1.71-.66-2.99-1.97-3.83-1.31-.84-3.41-1.35-6.29-1.53v-2.24c3.86.22,7,.33,9.41.33Z"/>
      <path class="uuid-9e5f4130-9f4e-4701-a647-d24eb4021014" d="m890.58,428.37c.56,1.17,1.46,1.99,2.68,2.46,1.22.47,2.89.71,5,.71v2.35c-6.85-.29-11.38-.44-13.56-.44s-6.71.15-13.56.44v-2.35c2.11,0,3.78-.24,5-.71,1.22-.47,2.11-1.29,2.68-2.46.56-1.17.85-2.79.85-4.87v-35.05c0-3.46-.63-5.98-1.89-7.55-1.26-1.57-3.47-2.35-6.64-2.35v-2.35c2.33.22,4.65.33,6.95.33,4.74,0,8.62-.51,11.65-1.53v48.51c0,2.08.28,3.7.85,4.87Zm-3.09-79.19c1.09.66,1.97,1.53,2.62,2.62s.98,2.28.98,3.55-.33,2.47-.98,3.58c-.66,1.11-1.53,1.99-2.62,2.62-1.09.64-2.28.96-3.55.96s-2.47-.32-3.58-.96c-1.11-.64-1.99-1.51-2.62-2.62-.64-1.11-.96-2.31-.96-3.58s.32-2.46.96-3.55c.64-1.09,1.51-1.97,2.62-2.62,1.11-.66,2.31-.98,3.58-.98s2.46.33,3.55.98Z"/>
      <path class="uuid-9e5f4130-9f4e-4701-a647-d24eb4021014" d="m953.5,429.22c1.26,1.55,3.47,2.32,6.64,2.32v2.35c-2.37-.22-4.69-.33-6.95-.33-4.81,0-8.7.53-11.65,1.59v-9.95c-1.39,3.35-3.42,5.91-6.1,7.66s-5.95,2.62-9.82,2.62c-4.74,0-8.82-1.13-12.25-3.39-3.43-2.26-6.06-5.65-7.9-10.17-1.84-4.52-2.74-10.12-2.71-16.79-.04-6.53,1.09-12.09,3.39-16.68s5.37-8.04,9.21-10.34c3.85-2.3,8.08-3.45,12.71-3.45,2.84,0,5.46.54,7.85,1.61,2.39,1.08,4.26,2.74,5.61,5v-21.77c0-3.46-.63-5.97-1.89-7.52-1.26-1.55-3.47-2.32-6.64-2.32v-2.35c2.37.22,4.68.33,6.95.33,4.81,0,8.7-.53,11.65-1.59v75.63c0,3.46.63,5.97,1.89,7.52Zm-24.47-51.98c-3.03,0-5.7,1.03-8.01,3.09-2.32,2.06-4.13,5.18-5.44,9.35-1.31,4.17-1.95,9.32-1.91,15.45-.04,8.97,1.23,15.71,3.8,20.21,2.57,4.5,6.37,6.75,11.4,6.75,1.93,0,3.75-.49,5.47-1.48,1.71-.98,3.21-2.45,4.48-4.4,1.28-1.95,2.19-4.29,2.73-7.03v-33.3c-2.08-5.76-6.25-8.64-12.52-8.64Z"/>
      <path class="uuid-9e5f4130-9f4e-4701-a647-d24eb4021014" d="m1006.74,427.8c-1.91,2.28-4.3,4.13-7.16,5.55-2.86,1.42-6.06,2.13-9.6,2.13-5.32,0-9.93-1.21-13.81-3.64s-6.85-5.83-8.89-10.23c-2.04-4.39-3.06-9.45-3.06-15.18,0-6.49,1.04-12.12,3.12-16.9,2.08-4.78,5.02-8.45,8.83-11.02,3.81-2.57,8.27-3.86,13.37-3.86,6.71,0,11.88,2.03,15.5,6.1,3.63,4.07,5.44,10.24,5.44,18.51h-35c-.26,1.93-.38,4.32-.38,7.16,0,4.92.81,9.22,2.43,12.91,1.62,3.68,3.75,6.51,6.37,8.48s5.39,2.95,8.31,2.95c7.51,0,13-3.74,16.46-11.21l2.24.88c-.88,2.62-2.27,5.08-4.18,7.36Zm-7.96-40.88c-.77-3.1-1.97-5.56-3.61-7.38-1.64-1.82-3.66-2.73-6.07-2.73s-4.41.74-6.34,2.21c-1.93,1.48-3.56,3.74-4.89,6.78-1.33,3.04-2.18,6.83-2.54,11.35h24.39c.14-3.72-.16-7.13-.93-10.23Z"/>
      <path class="uuid-9e5f4130-9f4e-4701-a647-d24eb4021014" d="m1080.87,376.53c3.32,0,6.16-.11,8.53-.33v2.24c-1.49.18-2.83.86-3.99,2.02-1.17,1.17-2.26,3.12-3.28,5.85l-18.38,48.12-3.83,9.73c-1.42,3.68-3.03,6.31-4.81,7.88-2.11,1.93-5.03,2.9-8.75,2.9-2.22,0-4.05-.59-5.47-1.78-1.42-1.19-2.13-2.83-2.13-4.95,0-1.79.53-3.22,1.59-4.29,1.06-1.08,2.52-1.61,4.38-1.61,1.64,0,3,.46,4.07,1.37,1.08.91,1.61,2.21,1.61,3.88,0,2.22-1,3.9-3.01,5.03.15.07.37.11.66.11,4.12,0,7.29-2.92,9.52-8.75l3.99-10.23-20.34-48.89c-1.28-2.59-2.54-4.28-3.8-5.09-1.26-.8-2.52-1.2-3.8-1.2v-2.35c3.5.47,7.16.71,10.99.71,3.21,0,8.06-.24,14.55-.71v2.35c-1.82,0-3.24.06-4.27.19-1.02.13-1.87.47-2.54,1.04-.67.57-1.01,1.45-1.01,2.65,0,1.35.47,3.19,1.42,5.52l13.51,33.47,12.36-32.43c.8-2.19,1.2-3.9,1.2-5.14,0-1.75-.67-3.04-2-3.88-1.33-.84-3.45-1.35-6.37-1.53v-2.24c3.94.22,7.07.33,9.41.33Z"/>
      <path class="uuid-9e5f4130-9f4e-4701-a647-d24eb4021014" d="m1129.88,377.9c3.81,2.15,6.82,5.5,9.02,10.04,2.21,4.54,3.31,10.27,3.31,17.2s-1.1,12.65-3.31,17.17c-2.21,4.52-5.21,7.85-9.02,9.98-3.81,2.13-8.18,3.2-13.1,3.2s-9.29-1.07-13.1-3.2c-3.81-2.13-6.82-5.46-9.02-9.98-2.21-4.52-3.31-10.24-3.31-17.17s1.1-12.66,3.31-17.2c2.21-4.54,5.21-7.88,9.02-10.04,3.81-2.15,8.18-3.23,13.1-3.23s9.29,1.08,13.1,3.23Zm-23.73,5.91c-2.61,4.59-3.91,11.7-3.91,21.33s1.3,16.67,3.91,21.25c2.61,4.58,6.15,6.86,10.64,6.86s8.03-2.29,10.64-6.86c2.61-4.58,3.91-11.66,3.91-21.25s-1.3-16.73-3.91-21.33c-2.61-4.59-6.15-6.89-10.64-6.89s-8.03,2.3-10.64,6.89Z"/>
      <path class="uuid-9e5f4130-9f4e-4701-a647-d24eb4021014" d="m1200.07,429.33c1.26,1.55,3.47,2.32,6.64,2.32v2.35c-2.33-.22-4.65-.33-6.95-.33-4.81,0-8.7.53-11.65,1.59v-13.23c-1.82,4.59-4.37,7.98-7.63,10.17s-6.84,3.28-10.75,3.28c-5.03,0-8.91-1.42-11.65-4.27-1.35-1.46-2.31-3.35-2.87-5.69-.57-2.33-.85-5.32-.85-8.97v-28.11c0-3.46-.62-5.98-1.86-7.55-1.24-1.57-3.45-2.35-6.62-2.35v-2.35c2.33.22,4.65.33,6.95.33,4.7,0,8.59-.51,11.65-1.53v44.02c0,2.84.16,5.14.49,6.89s1.11,3.18,2.35,4.29c1.24,1.11,3.12,1.67,5.63,1.67,2.88,0,5.47-.89,7.77-2.68,2.3-1.79,4.1-4.23,5.41-7.33,1.31-3.1,1.97-6.53,1.97-10.28v-23.13c0-3.46-.63-5.98-1.89-7.55-1.26-1.57-3.47-2.35-6.64-2.35v-2.35c2.33.22,4.65.33,6.95.33,4.74,0,8.62-.51,11.65-1.53v46.81c0,3.46.63,5.97,1.89,7.52Z"/>
      <path class="uuid-9e5f4130-9f4e-4701-a647-d24eb4021014" d="m1231.27,382.22c1.59-2.19,3.47-3.99,5.66-5.41s4.5-2.13,6.95-2.13c1.97,0,3.73.39,5.28,1.18,1.55.78,2.76,1.85,3.64,3.2.88,1.35,1.31,2.83,1.31,4.43,0,1.97-.58,3.64-1.75,5-1.17,1.37-2.72,2.05-4.65,2.05-1.64,0-3.04-.52-4.21-1.56-1.17-1.04-1.75-2.45-1.75-4.24,0-2.44,1.28-4.47,3.83-6.07-.51-.73-1.29-1.09-2.35-1.09-2.95,0-5.61,1.13-7.98,3.39-2.37,2.26-4.23,5.05-5.58,8.37-1.35,3.32-2.02,6.42-2.02,9.3v23.73c0,3.46.98,5.86,2.95,7.19,1.97,1.33,4.94,2,8.91,2v2.35c-9.19-.29-14.93-.44-17.23-.44-1.97,0-6.38.15-13.23.44v-2.35c2.12,0,3.78-.24,5-.71,1.22-.47,2.12-1.29,2.68-2.46.57-1.17.85-2.79.85-4.87v-35.05c0-3.46-.63-5.98-1.89-7.55-1.26-1.57-3.47-2.35-6.64-2.35v-2.35c2.33.22,4.65.33,6.95.33,4.74,0,8.62-.51,11.65-1.53v14c.84-2.33,2.05-4.59,3.64-6.78Z"/>
      <path class="uuid-9e5f4130-9f4e-4701-a647-d24eb4021014" d="m1286,423.73c1.02,2.99,2.59,5.32,4.7,7,2.11,1.68,4.96,2.52,8.53,2.52,1.64,0,3.22-.36,4.73-1.07s2.76-1.86,3.75-3.45,1.48-3.64,1.48-6.15c0-2.04-.52-3.87-1.56-5.5-1.04-1.62-2.4-3.08-4.07-4.38-1.68-1.29-4.03-2.89-7.05-4.79-3.68-2.33-6.5-4.25-8.45-5.74-1.95-1.49-3.6-3.32-4.95-5.47-1.35-2.15-2.02-4.68-2.02-7.6,0-3.17.75-5.84,2.24-8.01,1.5-2.17,3.49-3.78,5.99-4.84,2.5-1.06,5.28-1.59,8.34-1.59,2.62,0,4.99.42,7.08,1.26,2.1.84,3.8,1.79,5.11,2.84.8.62,1.46.93,1.97.93,1.31,0,2.15-1.64,2.52-4.92h2.57c-.29,3.65-.44,9.99-.44,19.03h-2.57c-.8-4.92-2.39-8.99-4.76-12.2-2.37-3.21-5.87-4.81-10.5-4.81-2.7,0-4.9.76-6.62,2.27-1.71,1.51-2.57,3.62-2.57,6.32s.88,4.75,2.65,6.48c1.77,1.73,3.9,3.38,6.4,4.95,2.5,1.57,4.27,2.7,5.33,3.39,3.43,2.22,6.19,4.2,8.29,5.93,2.1,1.73,3.79,3.72,5.09,5.96s1.94,4.8,1.94,7.68c0,3.32-.87,6.15-2.6,8.5s-4.06,4.14-6.97,5.36-6.11,1.83-9.57,1.83-6.27-.53-8.86-1.59c-1.46-.73-2.99-1.73-4.59-3.01-.29-.29-.64-.44-1.04-.44-1.09,0-1.86,1.4-2.3,4.21h-2.57c.29-4.27.44-11.72.44-22.37h2.57c.55,4.63,1.33,8.44,2.35,11.43Z"/>
      <path class="uuid-9e5f4130-9f4e-4701-a647-d24eb4021014" d="m1377.79,429.88c1.13.89,2.48,1.45,4.05,1.67v2.35c-4.52-.29-7.55-.44-9.08-.44-2,0-6.14.15-12.41.44v-2.35c1.06,0,1.9-.2,2.52-.6.62-.4.93-.91.93-1.53,0-.51-.22-1.08-.66-1.7l-12.85-18.81c-1.35-1.9-2.59-3.17-3.72-3.83-1.13-.66-2.7-1.02-4.7-1.09v19.52c0,2.08.25,3.7.74,4.87.49,1.17,1.26,1.99,2.3,2.46,1.04.47,2.49.71,4.35.71v2.35c-6.27-.29-10.41-.44-12.41-.44-2.19,0-6.71.15-13.56.44v-2.35c2.12,0,3.78-.24,5-.71,1.22-.47,2.12-1.29,2.68-2.46.57-1.17.85-2.79.85-4.87v-63.98c0-3.46-.63-5.97-1.89-7.52-1.26-1.55-3.47-2.32-6.64-2.32v-2.35c2.37.22,4.69.33,6.95.33,4.81,0,8.7-.53,11.65-1.59v55.62c2.19-.29,4.01-.79,5.47-1.5,1.46-.71,2.84-1.76,4.16-3.14l8.31-8.59c2.37-2.48,3.55-4.54,3.55-6.18,0-1.31-.75-2.28-2.24-2.9-1.49-.62-3.5-.93-6.02-.93v-2.24c5.18.29,9.39.44,12.63.44,3.5,0,6.75-.15,9.73-.44v2.24c-3.65.33-7,2.08-10.06,5.25l-13.62,14.33,20.23,27.67c1.39,1.9,2.64,3.29,3.77,4.18Z"/>
      <path class="uuid-9e5f4130-9f4e-4701-a647-d24eb4021014" d="m1401.91,428.37c.56,1.17,1.46,1.99,2.68,2.46,1.22.47,2.89.71,5,.71v2.35c-6.85-.29-11.38-.44-13.56-.44s-6.71.15-13.56.44v-2.35c2.11,0,3.78-.24,5-.71,1.22-.47,2.11-1.29,2.68-2.46.56-1.17.85-2.79.85-4.87v-35.05c0-3.46-.63-5.98-1.89-7.55-1.26-1.57-3.47-2.35-6.64-2.35v-2.35c2.33.22,4.65.33,6.95.33,4.74,0,8.62-.51,11.65-1.53v48.51c0,2.08.28,3.7.85,4.87Zm-3.09-79.19c1.09.66,1.97,1.53,2.62,2.62s.98,2.28.98,3.55-.33,2.47-.98,3.58c-.66,1.11-1.53,1.99-2.62,2.62-1.09.64-2.28.96-3.55.96s-2.47-.32-3.58-.96c-1.11-.64-1.99-1.51-2.62-2.62-.64-1.11-.96-2.31-.96-3.58s.32-2.46.96-3.55c.64-1.09,1.51-1.97,2.62-2.62,1.11-.66,2.31-.98,3.58-.98s2.46.33,3.55.98Z"/>
      <path class="uuid-9e5f4130-9f4e-4701-a647-d24eb4021014" d="m1438.31,377.87c3.34-2.13,7.1-3.2,11.29-3.2,5.21,0,9.17,1.4,11.87,4.21,1.38,1.53,2.38,3.42,2.98,5.66s.9,5.26.9,9.05v29.91c0,2.08.28,3.7.85,4.87.56,1.17,1.46,1.99,2.68,2.46,1.22.47,2.89.71,5,.71v2.35c-6.86-.29-11.34-.44-13.45-.44s-6.25.15-12.52.44v-2.35c1.86,0,3.31-.24,4.35-.71,1.04-.47,1.8-1.29,2.3-2.46.49-1.17.74-2.79.74-4.87v-32.38c0-2.7-.21-4.96-.63-6.78-.42-1.82-1.29-3.3-2.62-4.43-1.33-1.13-3.27-1.7-5.82-1.7-3.06,0-5.79.89-8.18,2.68-2.39,1.79-4.24,4.24-5.55,7.36s-1.97,6.57-1.97,10.36v24.88c0,2.08.25,3.7.74,4.87.49,1.17,1.27,1.99,2.32,2.46,1.06.47,2.52.71,4.38.71v2.35c-6.27-.29-10.46-.44-12.58-.44s-6.6.15-13.45.44v-2.35c2.11,0,3.78-.24,5-.71,1.22-.47,2.11-1.29,2.68-2.46.56-1.17.85-2.79.85-4.87v-35.05c0-3.46-.63-5.98-1.89-7.55-1.26-1.57-3.47-2.35-6.64-2.35v-2.35c2.33.22,4.65.33,6.95.33,4.74,0,8.62-.51,11.65-1.53v13.18c1.86-4.74,4.46-8.18,7.79-10.31Z"/>
      <path class="uuid-9e5f4130-9f4e-4701-a647-d24eb4021014" d="m1522.21,382.22c1.59-2.19,3.47-3.99,5.66-5.41s4.5-2.13,6.95-2.13c1.97,0,3.73.39,5.28,1.18,1.55.78,2.76,1.85,3.64,3.2.88,1.35,1.31,2.83,1.31,4.43,0,1.97-.58,3.64-1.75,5-1.17,1.37-2.72,2.05-4.65,2.05-1.64,0-3.04-.52-4.21-1.56-1.17-1.04-1.75-2.45-1.75-4.24,0-2.44,1.28-4.47,3.83-6.07-.51-.73-1.29-1.09-2.35-1.09-2.95,0-5.62,1.13-7.98,3.39-2.37,2.26-4.23,5.05-5.58,8.37-1.35,3.32-2.02,6.42-2.02,9.3v23.73c0,3.46.98,5.86,2.95,7.19,1.97,1.33,4.94,2,8.91,2v2.35c-9.19-.29-14.93-.44-17.23-.44-1.97,0-6.38.15-13.23.44v-2.35c2.11,0,3.78-.24,5-.71,1.22-.47,2.11-1.29,2.68-2.46.56-1.17.85-2.79.85-4.87v-35.05c0-3.46-.63-5.98-1.89-7.55-1.26-1.57-3.47-2.35-6.64-2.35v-2.35c2.33.22,4.65.33,6.95.33,4.74,0,8.62-.51,11.65-1.53v14c.84-2.33,2.05-4.59,3.64-6.78Z"/>
      <path class="uuid-9e5f4130-9f4e-4701-a647-d24eb4021014" d="m1588.63,427.8c-1.91,2.28-4.3,4.13-7.16,5.55-2.86,1.42-6.06,2.13-9.6,2.13-5.32,0-9.93-1.21-13.81-3.64s-6.85-5.83-8.89-10.23c-2.04-4.39-3.06-9.45-3.06-15.18,0-6.49,1.04-12.12,3.12-16.9,2.08-4.78,5.02-8.45,8.83-11.02,3.81-2.57,8.27-3.86,13.37-3.86,6.71,0,11.88,2.03,15.5,6.1,3.63,4.07,5.44,10.24,5.44,18.51h-35c-.26,1.93-.38,4.32-.38,7.16,0,4.92.81,9.22,2.43,12.91,1.62,3.68,3.75,6.51,6.37,8.48s5.39,2.95,8.31,2.95c7.51,0,13-3.74,16.46-11.21l2.24.88c-.88,2.62-2.27,5.08-4.18,7.36Zm-7.96-40.88c-.77-3.1-1.97-5.56-3.61-7.38-1.64-1.82-3.66-2.73-6.07-2.73s-4.41.74-6.34,2.21c-1.93,1.48-3.56,3.74-4.89,6.78-1.33,3.04-2.18,6.83-2.54,11.35h24.39c.14-3.72-.16-7.13-.93-10.23Z"/>
      <path class="uuid-9e5f4130-9f4e-4701-a647-d24eb4021014" d="m1616.17,428.37c.56,1.17,1.46,1.99,2.68,2.46,1.22.47,2.89.71,5,.71v2.35c-6.85-.29-11.38-.44-13.56-.44s-6.71.15-13.56.44v-2.35c2.12,0,3.78-.24,5-.71,1.22-.47,2.12-1.29,2.68-2.46.57-1.17.85-2.79.85-4.87v-63.98c0-3.46-.63-5.97-1.89-7.52-1.26-1.55-3.47-2.32-6.64-2.32v-2.35c2.33.22,4.65.33,6.95.33,4.81,0,8.7-.53,11.65-1.59v77.44c0,2.08.28,3.7.85,4.87Z"/>
      <path class="uuid-9e5f4130-9f4e-4701-a647-d24eb4021014" d="m1645.62,428.37c.56,1.17,1.46,1.99,2.68,2.46,1.22.47,2.89.71,5,.71v2.35c-6.85-.29-11.38-.44-13.56-.44s-6.71.15-13.56.44v-2.35c2.12,0,3.78-.24,5-.71,1.22-.47,2.12-1.29,2.68-2.46.56-1.17.85-2.79.85-4.87v-35.05c0-3.46-.63-5.98-1.89-7.55-1.26-1.57-3.47-2.35-6.64-2.35v-2.35c2.33.22,4.65.33,6.95.33,4.74,0,8.62-.51,11.65-1.53v48.51c0,2.08.28,3.7.85,4.87Zm-3.09-79.19c1.09.66,1.97,1.53,2.62,2.62s.98,2.28.98,3.55-.33,2.47-.98,3.58c-.66,1.11-1.53,1.99-2.62,2.62-1.09.64-2.28.96-3.55.96s-2.47-.32-3.58-.96c-1.11-.64-1.99-1.51-2.62-2.62-.64-1.11-.96-2.31-.96-3.58s.32-2.46.96-3.55,1.51-1.97,2.62-2.62,2.31-.98,3.58-.98,2.46.33,3.55.98Z"/>
      <path class="uuid-9e5f4130-9f4e-4701-a647-d24eb4021014" d="m1700.06,427.8c-1.91,2.28-4.3,4.13-7.16,5.55-2.86,1.42-6.06,2.13-9.6,2.13-5.32,0-9.93-1.21-13.81-3.64s-6.85-5.83-8.89-10.23c-2.04-4.39-3.06-9.45-3.06-15.18,0-6.49,1.04-12.12,3.12-16.9,2.08-4.78,5.02-8.45,8.83-11.02,3.81-2.57,8.27-3.86,13.37-3.86,6.71,0,11.88,2.03,15.5,6.1,3.63,4.07,5.44,10.24,5.44,18.51h-35c-.26,1.93-.38,4.32-.38,7.16,0,4.92.81,9.22,2.43,12.91,1.62,3.68,3.75,6.51,6.37,8.48s5.39,2.95,8.31,2.95c7.51,0,13-3.74,16.46-11.21l2.24.88c-.88,2.62-2.27,5.08-4.18,7.36Zm-7.96-40.88c-.77-3.1-1.97-5.56-3.61-7.38-1.64-1.82-3.66-2.73-6.07-2.73s-4.41.74-6.34,2.21c-1.93,1.48-3.56,3.74-4.89,6.78-1.33,3.04-2.18,6.83-2.54,11.35h24.39c.14-3.72-.16-7.13-.93-10.23Z"/>
      <path class="uuid-9e5f4130-9f4e-4701-a647-d24eb4021014" d="m1718.11,365.18c.37-2.97.96-5.5,1.78-7.57s1.96-3.97,3.42-5.69c1.46-1.75,3.35-3.13,5.69-4.13,2.33-1,4.87-1.5,7.6-1.5,3.83,0,7.07,1.02,9.73,3.06,2.33,1.9,3.5,4.21,3.5,6.95,0,1.71-.56,3.13-1.67,4.24-1.11,1.11-2.54,1.67-4.29,1.67s-3.16-.55-4.35-1.64-1.78-2.55-1.78-4.38c0-1.53.43-2.8,1.29-3.8.86-1,2-1.65,3.42-1.94-.22-.69-.82-1.28-1.8-1.75-.98-.47-2.22-.71-3.72-.71-3.32,0-5.74,1.39-7.27,4.16-.84,1.5-1.38,3.73-1.64,6.7-.26,2.97-.38,7.83-.38,14.57v2.9h12.03v2.24h-12.03v43.8c0,3.46.98,5.86,2.95,7.19,1.97,1.33,4.94,2,8.91,2v2.35c-9.19-.29-14.93-.44-17.23-.44-1.82,0-6.23.15-13.23.44v-2.35c2.12,0,3.78-.24,5-.71,1.22-.47,2.12-1.29,2.68-2.46.56-1.17.85-2.79.85-4.87v-44.95h-8.97v-2.24h8.97c0-4.45.18-8.16.55-11.13Z"/>
    </g>
    <g class="uuid-e885440f-083d-47f9-99b0-18800e0e6cd2">
      <path class="uuid-9e5f4130-9f4e-4701-a647-d24eb4021014" d="m730.35,476.53c3.32,0,6.16-.11,8.53-.33v2.24c-1.57.18-2.95.86-4.16,2.02-1.2,1.17-2.24,3.12-3.12,5.85l-16.24,48.12h-1.91l-17.77-45.06-15.97,45.06h-1.86l-18.38-49.6c-1.02-2.62-2.08-4.33-3.17-5.11-1.09-.78-2.21-1.18-3.34-1.18v-2.35c3.14.47,6.42.71,9.84.71s8.17-.24,14.55-.71v2.35c-2.44,0-4.26.15-5.44.44-1.19.29-1.95,1.11-2.3,2.46-.35,1.35,0,3.52,1.07,6.51l11.21,32.21,16.08-44.41h2.57l17.17,45.34,10.5-32.1c.69-2.19,1.04-3.88,1.04-5.09,0-1.79-.65-3.1-1.94-3.94-1.29-.84-3.42-1.35-6.37-1.53v-2.24c3.94.22,7.07.33,9.41.33Z"/>
      <path class="uuid-9e5f4130-9f4e-4701-a647-d24eb4021014" d="m758.47,528.37c.56,1.17,1.46,1.99,2.68,2.46,1.22.47,2.89.71,5,.71v2.35c-6.85-.29-11.38-.44-13.56-.44s-6.71.15-13.56.44v-2.35c2.11,0,3.78-.24,5-.71,1.22-.47,2.11-1.29,2.68-2.46.56-1.17.85-2.79.85-4.87v-35.05c0-3.46-.63-5.98-1.89-7.55-1.26-1.57-3.47-2.35-6.64-2.35v-2.35c2.33.22,4.65.33,6.95.33,4.74,0,8.62-.51,11.65-1.53v48.51c0,2.08.28,3.7.85,4.87Zm-3.09-79.19c1.09.66,1.97,1.53,2.62,2.62s.98,2.28.98,3.55-.33,2.47-.98,3.58c-.66,1.11-1.53,1.99-2.62,2.62-1.09.64-2.28.96-3.55.96s-2.47-.32-3.58-.96c-1.11-.64-1.99-1.51-2.62-2.62-.64-1.11-.96-2.31-.96-3.58s.32-2.46.96-3.55c.64-1.09,1.51-1.97,2.62-2.62,1.11-.66,2.31-.98,3.58-.98s2.46.33,3.55.98Z"/>
      <path class="uuid-9e5f4130-9f4e-4701-a647-d24eb4021014" d="m803.15,476.31v2.24h-16.57v43.37c0,3.39.6,5.82,1.8,7.3s2.99,2.21,5.36,2.21,4.32-.93,5.96-2.79,3.03-4.92,4.16-9.19l2.19.55c-1.82,10.32-6.67,15.48-14.55,15.48-2.52,0-4.59-.3-6.23-.9s-3.1-1.54-4.38-2.82c-1.6-1.64-2.73-3.65-3.39-6.04-.66-2.39-.98-5.61-.98-9.65v-37.52h-10.77v-2.24h10.77v-17.12c4.19-.11,7.55-.64,10.06-1.59v18.7h16.57Z"/>
      <path class="uuid-9e5f4130-9f4e-4701-a647-d24eb4021014" d="m830.17,477.82c3.34-2.1,7.08-3.14,11.24-3.14,5.21,0,9.17,1.4,11.87,4.21,1.42,1.53,2.43,3.42,3.04,5.66s.9,5.26.9,9.05v29.91c0,2.08.28,3.7.85,4.87.56,1.17,1.46,1.99,2.68,2.46,1.22.47,2.89.71,5,.71v2.35c-7-.29-11.48-.44-13.45-.44-2.11,0-6.31.15-12.58.44v-2.35c1.86,0,3.32-.24,4.38-.71,1.06-.47,1.83-1.29,2.32-2.46.49-1.17.74-2.79.74-4.87v-32.38c0-2.7-.22-4.96-.66-6.78-.44-1.82-1.32-3.3-2.65-4.43-1.33-1.13-3.25-1.7-5.77-1.7-3.03,0-5.73.87-8.12,2.6-2.39,1.73-4.25,4.14-5.58,7.22-1.33,3.08-2,6.57-2,10.47v24.99c0,2.08.25,3.7.74,4.87.49,1.17,1.26,1.99,2.3,2.46,1.04.47,2.49.71,4.35.71v2.35c-6.27-.29-10.45-.44-12.52-.44s-6.6.15-13.45.44v-2.35c2.11,0,3.78-.24,5-.71,1.22-.47,2.11-1.29,2.68-2.46.56-1.17.85-2.79.85-4.87v-63.88c0-3.46-.63-5.97-1.89-7.52-1.26-1.55-3.47-2.32-6.64-2.32v-2.35c2.37.22,4.68.33,6.95.33,4.81,0,8.7-.53,11.65-1.59v41.89c1.86-4.74,4.46-8.16,7.79-10.25Z"/>
      <path class="uuid-9e5f4130-9f4e-4701-a647-d24eb4021014" d="m913.85,477.82c3.34-2.1,7.08-3.14,11.24-3.14,5.21,0,9.17,1.4,11.87,4.21,1.42,1.53,2.43,3.42,3.04,5.66s.9,5.26.9,9.05v29.91c0,2.08.28,3.7.85,4.87.56,1.17,1.46,1.99,2.68,2.46,1.22.47,2.89.71,5,.71v2.35c-7-.29-11.48-.44-13.45-.44-2.11,0-6.31.15-12.58.44v-2.35c1.86,0,3.32-.24,4.38-.71,1.06-.47,1.83-1.29,2.32-2.46.49-1.17.74-2.79.74-4.87v-32.38c0-2.7-.22-4.96-.66-6.78-.44-1.82-1.32-3.3-2.65-4.43-1.33-1.13-3.25-1.7-5.77-1.7-3.03,0-5.73.87-8.12,2.6-2.39,1.73-4.25,4.14-5.58,7.22-1.33,3.08-2,6.57-2,10.47v24.99c0,2.08.25,3.7.74,4.87.49,1.17,1.26,1.99,2.3,2.46,1.04.47,2.49.71,4.35.71v2.35c-6.27-.29-10.45-.44-12.52-.44s-6.6.15-13.45.44v-2.35c2.11,0,3.78-.24,5-.71,1.22-.47,2.11-1.29,2.68-2.46.56-1.17.85-2.79.85-4.87v-63.88c0-3.46-.63-5.97-1.89-7.52-1.26-1.55-3.47-2.32-6.64-2.32v-2.35c2.37.22,4.68.33,6.95.33,4.81,0,8.7-.53,11.65-1.59v41.89c1.86-4.74,4.46-8.16,7.79-10.25Z"/>
      <path class="uuid-9e5f4130-9f4e-4701-a647-d24eb4021014" d="m995.36,527.8c-1.91,2.28-4.3,4.13-7.16,5.55-2.86,1.42-6.06,2.13-9.6,2.13-5.32,0-9.93-1.21-13.81-3.64-3.88-2.42-6.85-5.83-8.89-10.23-2.04-4.39-3.06-9.45-3.06-15.18,0-6.49,1.04-12.12,3.12-16.9,2.08-4.78,5.02-8.45,8.83-11.02,3.81-2.57,8.27-3.86,13.37-3.86,6.71,0,11.88,2.03,15.5,6.1,3.63,4.07,5.44,10.24,5.44,18.51h-35c-.26,1.93-.38,4.32-.38,7.16,0,4.92.81,9.22,2.43,12.91,1.62,3.68,3.75,6.51,6.37,8.48s5.39,2.95,8.31,2.95c7.51,0,13-3.74,16.46-11.21l2.24.88c-.88,2.62-2.27,5.08-4.18,7.36Zm-7.96-40.88c-.77-3.1-1.97-5.56-3.61-7.38-1.64-1.82-3.66-2.73-6.07-2.73s-4.41.74-6.34,2.21c-1.93,1.48-3.56,3.74-4.89,6.78-1.33,3.04-2.18,6.83-2.54,11.35h24.39c.14-3.72-.16-7.13-.93-10.23Z"/>
      <path class="uuid-9e5f4130-9f4e-4701-a647-d24eb4021014" d="m1034.11,479.29c-1.8-1.59-4.37-2.38-7.68-2.38-5.29,0-8.99,1.33-11.1,3.99,1.5.37,2.74,1.16,3.75,2.38,1,1.22,1.5,2.71,1.5,4.46,0,1.9-.59,3.38-1.78,4.46-1.18,1.08-2.78,1.61-4.79,1.61-1.9,0-3.38-.64-4.46-1.91-1.08-1.28-1.61-2.95-1.61-5.03,0-2.92,1.75-5.58,5.25-7.98,1.82-1.2,4.07-2.21,6.75-3.01,2.68-.8,5.66-1.2,8.94-1.2,3.06,0,5.76.37,8.09,1.12,2.33.75,4.16,1.78,5.47,3.09,1.71,1.75,2.89,3.78,3.53,6.1.64,2.32.96,5.51.96,9.6v31.12c0,1.86.26,3.21.79,4.05.53.84,1.41,1.26,2.65,1.26.91,0,1.75-.2,2.52-.6.77-.4,1.6-.98,2.52-1.75l1.26,1.91c-1.31.98-2.41,1.75-3.28,2.3s-1.88.98-3.01,1.31-2.44.49-3.94.49c-3.61,0-6.12-.9-7.52-2.71s-2.11-4.22-2.11-7.25c-2.19,3.61-4.81,6.17-7.88,7.68s-6.18,2.27-9.35,2.27c-2.59,0-4.96-.45-7.11-1.34s-3.87-2.28-5.17-4.16c-1.29-1.88-1.94-4.22-1.94-7.03s.69-5.27,2.08-7.27c1.39-2,3.34-3.76,5.85-5.28,2.52-1.51,5.89-3.16,10.12-4.95.73-.29,2.52-1.02,5.36-2.19,2.84-1.17,4.89-2.33,6.15-3.5,1.26-1.17,1.89-2.44,1.89-3.83v-6.95c0-4.34-.9-7.3-2.71-8.89Zm-.03,22.78c-1.28.73-3.94,2.08-7.98,4.05-2.15,1.02-3.97,2.07-5.47,3.14-1.5,1.08-2.77,2.53-3.83,4.35-1.06,1.82-1.59,4.07-1.59,6.73,0,3.25.82,5.7,2.46,7.36,1.64,1.66,3.81,2.49,6.51,2.49,4.96,0,9.17-2.83,12.63-8.48v-21.98c-.55.84-1.46,1.62-2.73,2.35Z"/>
      <path class="uuid-9e5f4130-9f4e-4701-a647-d24eb4021014" d="m1075.32,528.37c.57,1.17,1.46,1.99,2.68,2.46,1.22.47,2.89.71,5,.71v2.35c-6.85-.29-11.38-.44-13.56-.44s-6.71.15-13.56.44v-2.35c2.12,0,3.78-.24,5-.71,1.22-.47,2.12-1.29,2.68-2.46.57-1.17.85-2.79.85-4.87v-63.98c0-3.46-.63-5.97-1.89-7.52-1.26-1.55-3.47-2.32-6.64-2.32v-2.35c2.33.22,4.65.33,6.95.33,4.81,0,8.7-.53,11.65-1.59v77.44c0,2.08.28,3.7.85,4.87Z"/>
      <path class="uuid-9e5f4130-9f4e-4701-a647-d24eb4021014" d="m1120.01,476.31v2.24h-16.57v43.37c0,3.39.6,5.82,1.8,7.3s2.99,2.21,5.36,2.21,4.32-.93,5.96-2.79,3.03-4.92,4.16-9.19l2.19.55c-1.82,10.32-6.67,15.48-14.55,15.48-2.52,0-4.59-.3-6.23-.9s-3.1-1.54-4.38-2.82c-1.61-1.64-2.73-3.65-3.39-6.04-.66-2.39-.98-5.61-.98-9.65v-37.52h-10.77v-2.24h10.77v-17.12c4.19-.11,7.55-.64,10.06-1.59v18.7h16.57Z"/>
      <path class="uuid-9e5f4130-9f4e-4701-a647-d24eb4021014" d="m1147.02,477.82c3.34-2.1,7.08-3.14,11.24-3.14,5.21,0,9.17,1.4,11.87,4.21,1.42,1.53,2.43,3.42,3.04,5.66s.9,5.26.9,9.05v29.91c0,2.08.28,3.7.85,4.87.57,1.17,1.46,1.99,2.68,2.46,1.22.47,2.89.71,5,.71v2.35c-7-.29-11.48-.44-13.45-.44-2.11,0-6.31.15-12.58.44v-2.35c1.86,0,3.32-.24,4.38-.71,1.06-.47,1.83-1.29,2.32-2.46.49-1.17.74-2.79.74-4.87v-32.38c0-2.7-.22-4.96-.66-6.78-.44-1.82-1.32-3.3-2.65-4.43-1.33-1.13-3.25-1.7-5.77-1.7-3.03,0-5.73.87-8.12,2.6-2.39,1.73-4.25,4.14-5.58,7.22-1.33,3.08-2,6.57-2,10.47v24.99c0,2.08.25,3.7.74,4.87.49,1.17,1.26,1.99,2.3,2.46,1.04.47,2.49.71,4.35.71v2.35c-6.27-.29-10.45-.44-12.52-.44s-6.6.15-13.45.44v-2.35c2.11,0,3.78-.24,5-.71,1.22-.47,2.11-1.29,2.68-2.46.57-1.17.85-2.79.85-4.87v-63.88c0-3.46-.63-5.97-1.89-7.52-1.26-1.55-3.47-2.32-6.64-2.32v-2.35c2.37.22,4.68.33,6.95.33,4.81,0,8.7-.53,11.65-1.59v41.89c1.86-4.74,4.46-8.16,7.79-10.25Z"/>
      <path class="uuid-9e5f4130-9f4e-4701-a647-d24eb4021014" d="m1288.92,454.85c2.48,1.22,4.43,2.97,5.85,5.25,1.42,2.28,2.13,4.97,2.13,8.07,0,3.57-.97,6.68-2.9,9.32-1.93,2.64-4.5,4.77-7.71,6.37-2.62,1.24-8.17,3.19-16.62,5.85,4.19,1.75,7.28,4.28,9.27,7.57,1.99,3.3,2.98,7.1,2.98,11.4,0,4.63-1.38,9-4.13,13.1-2.75,4.1-6.72,7.41-11.89,9.93-5.18,2.52-11.23,3.77-18.16,3.77-6.53,0-12.55-1.14-18.07-3.42s-9.94-5.53-13.23-9.76c-3.3-4.23-4.95-9.13-4.95-14.71,0-4.92,1.22-9.08,3.66-12.47,2.44-3.39,5.22-5.97,8.34-7.74,3.12-1.77,6.01-3,8.67-3.69-3.65-1.57-6.44-3.65-8.37-6.23-1.93-2.59-2.9-5.32-2.9-8.2,0-2.48.73-4.79,2.19-6.92,1.46-2.13,3.61-3.85,6.45-5.14,2.84-1.29,6.27-1.94,10.28-1.94,4.99,0,8.88,1.13,11.65,3.39,1.38,1.13,2.42,2.38,3.12,3.75.69,1.37,1.04,2.69,1.04,3.96,0,1.79-.64,3.23-1.91,4.32-1.28,1.09-2.73,1.64-4.38,1.64s-2.98-.51-4.13-1.53c-1.15-1.02-1.72-2.39-1.72-4.1,0-1.6.56-2.99,1.67-4.16,1.11-1.17,2.54-1.82,4.29-1.97-.33-.98-1.28-1.83-2.84-2.54-1.57-.71-3.46-1.07-5.69-1.07-3.9,0-7.04,1.17-9.41,3.5-2.37,2.33-3.55,5.62-3.55,9.84,0,5,1.9,9.24,5.69,12.74,2.59-.44,4.9-.66,6.95-.66,1.38,0,2.48.22,3.28.66.8.44,1.2,1.08,1.2,1.91,0,.66-.28,1.18-.85,1.56-.57.38-1.32.57-2.27.57-1.09,0-2.26-.2-3.5-.6-1.24-.4-2.28-.79-3.12-1.18-.84-.38-1.37-.61-1.59-.68-9.7,2.88-14.55,9.01-14.55,18.38,0,5,1.31,9.32,3.94,12.96,2.62,3.65,6.22,6.43,10.77,8.34,4.56,1.91,9.66,2.87,15.31,2.87,5.32,0,10.23-.83,14.71-2.49,4.48-1.66,8.06-4.05,10.72-7.16,2.66-3.12,3.99-6.74,3.99-10.86,0-2.92-.79-5.92-2.38-9-1.59-3.08-4.55-5.5-8.89-7.25-6.64,2.08-10.94,3.5-12.91,4.27-3.14,1.2-5.56,2.57-7.27,4.1-1.71,1.53-2.57,3.41-2.57,5.63,0,1.82.54,3.42,1.61,4.79,1.08,1.37,2.42,2.41,4.02,3.12,1.6.71,3.15,1.07,4.65,1.07,1.28,0,2.67-.22,4.18-.66,1.51-.44,2.36-1.04,2.54-1.8-1.42-.25-2.65-.84-3.69-1.75-1.04-.91-1.56-2.22-1.56-3.94s.58-3.16,1.75-4.24c1.17-1.08,2.62-1.61,4.38-1.61s3.23.56,4.32,1.67c1.09,1.11,1.64,2.58,1.64,4.4,0,2.01-.67,3.74-2.02,5.2-1.35,1.46-3.05,2.56-5.11,3.31-2.06.75-4.13,1.12-6.21,1.12-2.26,0-4.46-.47-6.59-1.42-2.13-.95-3.88-2.41-5.25-4.38s-2.05-4.41-2.05-7.33c0-3.79,1.29-7.02,3.86-9.68,2.57-2.66,6.44-4.88,11.62-6.67,1.46-.47,4.27-1.3,8.45-2.49,4.17-1.18,7.76-2.25,10.75-3.2,2.99-.95,5.71-1.99,8.15-3.12,3.54-1.68,6.02-3.38,7.46-5.11,1.44-1.73,2.16-3.62,2.16-5.66s-.6-3.98-1.8-5.71c-1.2-1.73-2.8-3.1-4.79-4.1-1.99-1-4.13-1.5-6.43-1.5-1.9,0-3.01.33-3.34.98.98.51,1.75,1.25,2.3,2.21.55.97.82,1.96.82,2.98,0,1.53-.62,2.83-1.86,3.88-1.24,1.06-2.72,1.59-4.43,1.59-1.6,0-2.99-.48-4.16-1.45-1.17-.97-1.75-2.34-1.75-4.13s.62-3.32,1.86-4.48c1.24-1.17,2.8-2,4.68-2.52,1.88-.51,3.8-.77,5.77-.77,3.1,0,5.89.61,8.37,1.83Z"/>
    </g>
    <g class="uuid-e885440f-083d-47f9-99b0-18800e0e6cd2">
      <path class="uuid-c1049dd3-f6a1-4750-87b2-fea51b97fdd4" d="m1345.77,482.22c1.59-2.19,3.47-3.99,5.66-5.41s4.5-2.13,6.95-2.13c1.97,0,3.73.39,5.28,1.18,1.55.78,2.76,1.85,3.64,3.2.88,1.35,1.31,2.83,1.31,4.43,0,1.97-.58,3.64-1.75,5-1.17,1.37-2.72,2.05-4.65,2.05-1.64,0-3.04-.52-4.21-1.56-1.17-1.04-1.75-2.45-1.75-4.24,0-2.44,1.28-4.47,3.83-6.07-.51-.73-1.29-1.09-2.35-1.09-2.95,0-5.62,1.13-7.98,3.39-2.37,2.26-4.23,5.05-5.58,8.37-1.35,3.32-2.02,6.42-2.02,9.3v23.73c0,3.46.98,5.86,2.95,7.19,1.97,1.33,4.94,2,8.91,2v2.35c-9.19-.29-14.93-.44-17.23-.44-1.97,0-6.38.15-13.23.44v-2.35c2.11,0,3.78-.24,5-.71,1.22-.47,2.11-1.29,2.68-2.46.56-1.17.85-2.79.85-4.87v-35.05c0-3.46-.63-5.98-1.89-7.55-1.26-1.57-3.47-2.35-6.64-2.35v-2.35c2.33.22,4.65.33,6.95.33,4.74,0,8.62-.51,11.65-1.53v14c.84-2.33,2.05-4.59,3.64-6.78Z"/>
      <path class="uuid-c1049dd3-f6a1-4750-87b2-fea51b97fdd4" d="m1399.89,479.29c-1.8-1.59-4.37-2.38-7.68-2.38-5.29,0-8.99,1.33-11.1,3.99,1.5.37,2.74,1.16,3.75,2.38,1,1.22,1.5,2.71,1.5,4.46,0,1.9-.59,3.38-1.78,4.46-1.18,1.08-2.78,1.61-4.79,1.61-1.9,0-3.38-.64-4.46-1.91-1.08-1.28-1.61-2.95-1.61-5.03,0-2.92,1.75-5.58,5.25-7.98,1.82-1.2,4.07-2.21,6.75-3.01,2.68-.8,5.66-1.2,8.94-1.2,3.06,0,5.76.37,8.09,1.12,2.33.75,4.16,1.78,5.47,3.09,1.71,1.75,2.89,3.78,3.53,6.1.64,2.32.96,5.51.96,9.6v31.12c0,1.86.26,3.21.79,4.05.53.84,1.41,1.26,2.65,1.26.91,0,1.75-.2,2.52-.6.77-.4,1.6-.98,2.52-1.75l1.26,1.91c-1.31.98-2.41,1.75-3.28,2.3s-1.88.98-3.01,1.31-2.44.49-3.94.49c-3.61,0-6.12-.9-7.52-2.71s-2.11-4.22-2.11-7.25c-2.19,3.61-4.81,6.17-7.88,7.68s-6.18,2.27-9.35,2.27c-2.59,0-4.96-.45-7.11-1.34s-3.87-2.28-5.17-4.16c-1.29-1.88-1.94-4.22-1.94-7.03s.69-5.27,2.08-7.27c1.39-2,3.34-3.76,5.85-5.28,2.52-1.51,5.89-3.16,10.12-4.95.73-.29,2.52-1.02,5.36-2.19,2.84-1.17,4.89-2.33,6.15-3.5,1.26-1.17,1.89-2.44,1.89-3.83v-6.95c0-4.34-.9-7.3-2.71-8.89Zm-.03,22.78c-1.28.73-3.94,2.08-7.98,4.05-2.15,1.02-3.97,2.07-5.47,3.14-1.5,1.08-2.77,2.53-3.83,4.35-1.06,1.82-1.59,4.07-1.59,6.73,0,3.25.82,5.7,2.46,7.36,1.64,1.66,3.81,2.49,6.51,2.49,4.96,0,9.17-2.83,12.63-8.48v-21.98c-.55.84-1.46,1.62-2.73,2.35Z"/>
      <path class="uuid-c1049dd3-f6a1-4750-87b2-fea51b97fdd4" d="m1475.33,529.22c1.26,1.55,3.47,2.32,6.64,2.32v2.35c-2.37-.22-4.68-.33-6.95-.33-4.81,0-8.7.53-11.65,1.59v-9.95c-1.39,3.35-3.42,5.91-6.1,7.66s-5.95,2.62-9.82,2.62c-4.74,0-8.82-1.13-12.25-3.39s-6.06-5.65-7.9-10.17c-1.84-4.52-2.74-10.12-2.71-16.79-.04-6.53,1.09-12.09,3.39-16.68s5.37-8.04,9.21-10.34,8.08-3.45,12.71-3.45c2.84,0,5.46.54,7.85,1.61,2.39,1.08,4.26,2.74,5.61,5v-21.77c0-3.46-.63-5.97-1.89-7.52-1.26-1.55-3.47-2.32-6.64-2.32v-2.35c2.37.22,4.68.33,6.95.33,4.81,0,8.7-.53,11.65-1.59v75.63c0,3.46.63,5.97,1.89,7.52Zm-24.47-51.98c-3.03,0-5.7,1.03-8.01,3.09-2.32,2.06-4.13,5.18-5.44,9.35-1.31,4.17-1.95,9.32-1.91,15.45-.04,8.97,1.23,15.71,3.8,20.21,2.57,4.5,6.37,6.75,11.4,6.75,1.93,0,3.75-.49,5.47-1.48s3.21-2.45,4.48-4.4c1.28-1.95,2.19-4.29,2.73-7.03v-33.3c-2.08-5.76-6.25-8.64-12.52-8.64Z"/>
      <path class="uuid-c1049dd3-f6a1-4750-87b2-fea51b97fdd4" d="m1503.58,528.37c.56,1.17,1.46,1.99,2.68,2.46,1.22.47,2.89.71,5,.71v2.35c-6.85-.29-11.38-.44-13.56-.44s-6.71.15-13.56.44v-2.35c2.11,0,3.78-.24,5-.71,1.22-.47,2.11-1.29,2.68-2.46.56-1.17.85-2.79.85-4.87v-35.05c0-3.46-.63-5.98-1.89-7.55-1.26-1.57-3.47-2.35-6.64-2.35v-2.35c2.33.22,4.65.33,6.95.33,4.74,0,8.62-.51,11.65-1.53v48.51c0,2.08.28,3.7.85,4.87Zm-3.09-79.19c1.09.66,1.97,1.53,2.62,2.62s.98,2.28.98,3.55-.33,2.47-.98,3.58c-.66,1.11-1.53,1.99-2.62,2.62-1.09.64-2.28.96-3.55.96s-2.47-.32-3.58-.96c-1.11-.64-1.99-1.51-2.62-2.62-.64-1.11-.96-2.31-.96-3.58s.32-2.46.96-3.55c.64-1.09,1.51-1.97,2.62-2.62,1.11-.66,2.31-.98,3.58-.98s2.46.33,3.55.98Z"/>
      <path class="uuid-c1049dd3-f6a1-4750-87b2-fea51b97fdd4" d="m1543.48,479.29c-1.8-1.59-4.37-2.38-7.68-2.38-5.29,0-8.99,1.33-11.1,3.99,1.5.37,2.74,1.16,3.75,2.38,1,1.22,1.5,2.71,1.5,4.46,0,1.9-.59,3.38-1.78,4.46-1.18,1.08-2.78,1.61-4.79,1.61-1.9,0-3.38-.64-4.46-1.91-1.08-1.28-1.61-2.95-1.61-5.03,0-2.92,1.75-5.58,5.25-7.98,1.82-1.2,4.07-2.21,6.75-3.01,2.68-.8,5.66-1.2,8.94-1.2,3.06,0,5.76.37,8.09,1.12,2.33.75,4.16,1.78,5.47,3.09,1.71,1.75,2.89,3.78,3.53,6.1.64,2.32.96,5.51.96,9.6v31.12c0,1.86.26,3.21.79,4.05.53.84,1.41,1.26,2.65,1.26.91,0,1.75-.2,2.52-.6.77-.4,1.6-.98,2.52-1.75l1.26,1.91c-1.31.98-2.41,1.75-3.28,2.3s-1.88.98-3.01,1.31-2.44.49-3.94.49c-3.61,0-6.12-.9-7.52-2.71s-2.11-4.22-2.11-7.25c-2.19,3.61-4.81,6.17-7.88,7.68s-6.18,2.27-9.35,2.27c-2.59,0-4.96-.45-7.11-1.34s-3.87-2.28-5.17-4.16c-1.29-1.88-1.94-4.22-1.94-7.03s.69-5.27,2.08-7.27c1.39-2,3.34-3.76,5.85-5.28,2.52-1.51,5.89-3.16,10.12-4.95.73-.29,2.52-1.02,5.36-2.19,2.84-1.17,4.89-2.33,6.15-3.5,1.26-1.17,1.89-2.44,1.89-3.83v-6.95c0-4.34-.9-7.3-2.71-8.89Zm-.03,22.78c-1.28.73-3.94,2.08-7.98,4.05-2.15,1.02-3.97,2.07-5.47,3.14-1.5,1.08-2.77,2.53-3.83,4.35-1.06,1.82-1.59,4.07-1.59,6.73,0,3.25.82,5.7,2.46,7.36,1.64,1.66,3.81,2.49,6.51,2.49,4.96,0,9.17-2.83,12.63-8.48v-21.98c-.55.84-1.46,1.62-2.73,2.35Z"/>
      <path class="uuid-c1049dd3-f6a1-4750-87b2-fea51b97fdd4" d="m1592.4,477.87c3.34-2.13,7.1-3.2,11.29-3.2,5.21,0,9.17,1.4,11.87,4.21,1.38,1.53,2.38,3.42,2.98,5.66s.9,5.26.9,9.05v29.91c0,2.08.28,3.7.85,4.87.56,1.17,1.46,1.99,2.68,2.46,1.22.47,2.89.71,5,.71v2.35c-6.85-.29-11.34-.44-13.45-.44s-6.25.15-12.52.44v-2.35c1.86,0,3.31-.24,4.35-.71,1.04-.47,1.8-1.29,2.3-2.46.49-1.17.74-2.79.74-4.87v-32.38c0-2.7-.21-4.96-.63-6.78-.42-1.82-1.29-3.3-2.62-4.43-1.33-1.13-3.27-1.7-5.82-1.7-3.06,0-5.79.89-8.18,2.68-2.39,1.79-4.24,4.24-5.55,7.36s-1.97,6.57-1.97,10.36v24.88c0,2.08.25,3.7.74,4.87.49,1.17,1.27,1.99,2.32,2.46,1.06.47,2.52.71,4.38.71v2.35c-6.27-.29-10.46-.44-12.58-.44s-6.6.15-13.45.44v-2.35c2.11,0,3.78-.24,5-.71,1.22-.47,2.11-1.29,2.68-2.46.56-1.17.85-2.79.85-4.87v-35.05c0-3.46-.63-5.98-1.89-7.55-1.26-1.57-3.47-2.35-6.64-2.35v-2.35c2.33.22,4.65.33,6.95.33,4.74,0,8.62-.51,11.65-1.53v13.18c1.86-4.74,4.46-8.18,7.79-10.31Z"/>
      <path class="uuid-c1049dd3-f6a1-4750-87b2-fea51b97fdd4" d="m1672.96,527.42c-1.75,2.35-4.04,4.28-6.86,5.8-2.83,1.51-6.12,2.27-9.87,2.27-4.67,0-8.88-1.2-12.63-3.61-3.76-2.41-6.72-5.85-8.89-10.34-2.17-4.48-3.25-9.73-3.25-15.75s1.1-11.44,3.31-16.16c2.21-4.72,5.29-8.39,9.27-11.02,3.97-2.62,8.48-3.94,13.51-3.94s9.37,1.19,13.02,3.55c3.5,2.37,5.25,5.25,5.25,8.64,0,1.97-.56,3.51-1.67,4.62s-2.53,1.67-4.24,1.67-3.22-.5-4.4-1.5c-1.19-1-1.78-2.38-1.78-4.13,0-1.6.45-2.94,1.34-4.02.89-1.08,2.01-1.79,3.36-2.16-.73-1.35-2.06-2.47-3.99-3.36-1.93-.89-3.96-1.34-6.07-1.34-2.73,0-5.3.88-7.71,2.62s-4.39,4.67-5.96,8.75c-1.57,4.08-2.35,9.44-2.35,16.08,0,9.3,1.49,16.05,4.48,20.26,2.99,4.21,6.87,6.32,11.65,6.32,3.17,0,6.21-.93,9.11-2.79s5.28-4.78,7.14-8.75l2.13.77c-.84,2.66-2.13,5.17-3.88,7.52Z"/>
      <path class="uuid-c1049dd3-f6a1-4750-87b2-fea51b97fdd4" d="m1725.03,527.8c-1.91,2.28-4.3,4.13-7.16,5.55s-6.06,2.13-9.6,2.13c-5.32,0-9.93-1.21-13.81-3.64s-6.84-5.83-8.89-10.23c-2.04-4.39-3.06-9.45-3.06-15.18,0-6.49,1.04-12.12,3.12-16.9,2.08-4.78,5.02-8.45,8.83-11.02s8.27-3.86,13.37-3.86c6.71,0,11.88,2.03,15.5,6.1,3.63,4.07,5.44,10.24,5.44,18.51h-35c-.25,1.93-.38,4.32-.38,7.16,0,4.92.81,9.22,2.43,12.91,1.62,3.68,3.75,6.51,6.37,8.48s5.4,2.95,8.31,2.95c7.51,0,13-3.74,16.46-11.21l2.24.88c-.88,2.62-2.27,5.08-4.18,7.36Zm-7.96-40.88c-.77-3.1-1.97-5.56-3.61-7.38-1.64-1.82-3.66-2.73-6.07-2.73s-4.41.74-6.34,2.21-3.56,3.74-4.89,6.78c-1.33,3.04-2.18,6.83-2.54,11.35h24.39c.15-3.72-.16-7.13-.93-10.23Z"/>
      <path class="uuid-c1049dd3-f6a1-4750-87b2-fea51b97fdd4" d="m1748.35,522.11c1.11.64,1.99,1.51,2.62,2.62.64,1.11.96,2.31.96,3.58s-.32,2.46-.96,3.55c-.64,1.09-1.51,1.97-2.62,2.62-1.11.66-2.31.98-3.58.98s-2.47-.33-3.58-.98c-1.11-.66-1.99-1.53-2.62-2.62-.64-1.09-.96-2.28-.96-3.55s.32-2.47.96-3.58c.64-1.11,1.51-1.99,2.62-2.62,1.11-.64,2.31-.96,3.58-.96s2.47.32,3.58.96Z"/>
    </g>
  </g>
  <g id="uuid-4e073c9e-c3fd-4610-a8d1-cb4cc54edbe1" data-name="Group 767">
    <g class="uuid-0e229d16-03ea-4d1b-94a9-ebc7358df529">
      <g id="uuid-7b9eaa87-bec1-4a0e-8806-9b7fb395b37a" data-name="Group 737">
        <g id="uuid-26a73548-e8ab-4080-93b0-aeee89bfde94" data-name="Group 718">
          <g id="uuid-8fd1e78d-64f8-4ef0-8d28-ddf058fd2cb2" data-name="Group 717">
            <g class="uuid-04c773d6-2ffa-41c8-9579-c268db49c5a9">
              <g id="uuid-54132837-927d-40af-841a-844ee5887873" data-name="Group 716">
                <path id="uuid-b3660ba6-1e4a-45ea-bfe8-af59fcb281ac" data-name="Path 3367" class="uuid-239e3de5-a78f-4beb-b593-6d996cd27048" d="m266.77,433.15c-111.41-49-114.07-160.77-114.07-160.77,0,0,104.61,39.42,114.07,160.77"/>
              </g>
            </g>
          </g>
        </g>
        <g id="uuid-156a2ad7-2ff3-4c53-bc92-4d7216b5a0a4" data-name="Group 721">
          <g id="uuid-04359a89-187e-4c37-9e0f-fcb0425b2b44" data-name="Group 720">
            <g class="uuid-bf1b47f4-da87-4654-b5cb-523fdd67a3ed">
              <g id="uuid-1218249d-ef0d-4ada-88be-c000b540f3bd" data-name="Group 719">
                <path id="uuid-bb144a24-f783-4144-8819-e02e8f099ae8" data-name="Path 3368" class="uuid-239e3de5-a78f-4beb-b593-6d996cd27048" d="m254.57,447.68c-102.26,33.73-158.08-49.02-158.08-49.02,0,0,92.84-36.65,158.08,49.02"/>
              </g>
            </g>
          </g>
        </g>
        <g id="uuid-e539a8de-3543-453d-bdd8-f8d577d11a19" data-name="Group 724">
          <g id="uuid-f2f026c7-5ade-447f-adb2-404df110fe37" data-name="Group 723">
            <g class="uuid-e9bdbf98-dd8d-4f22-9d47-f9baefa94232">
              <g id="uuid-2de10a7a-8ccb-4d0b-9fe4-ba6815feb58f" data-name="Group 722">
                <path id="uuid-8f0b4f35-c7c0-4e58-99f8-880af02871ad" data-name="Path 3369" class="uuid-239e3de5-a78f-4beb-b593-6d996cd27048" d="m268.78,463.15c-29.17,75.53-102.1,54.6-102.1,54.6,0,0,23.09-72.28,102.1-54.6"/>
              </g>
            </g>
          </g>
        </g>
        <g id="uuid-7c0a705c-48a8-4491-a5f9-835aecccb8ef" data-name="Group 727">
          <g id="uuid-3e31169c-3173-4374-957b-38306a07ba9b" data-name="Group 726">
            <g class="uuid-098eab76-426a-455f-9dde-4aee7af7b868">
              <g id="uuid-e691ccc8-e25f-4af6-9176-753c4d1a368e" data-name="Group 725">
                <path id="uuid-c8ea3000-ab43-4d52-9363-f3b0e2434492" data-name="Path 3370" class="uuid-239e3de5-a78f-4beb-b593-6d996cd27048" d="m285.83,427.37v1.05c-82.24-162.12-4.58-306.53-.17-314.43v-1.09s84.47,147.81.18,314.47"/>
              </g>
            </g>
          </g>
        </g>
        <g id="uuid-8026384d-79f5-42e6-adae-7064f36cba68" data-name="Group 730">
          <g id="uuid-11424241-b853-4c5b-88f3-8c0b2ba57e41" data-name="Group 729">
            <g class="uuid-82cd10f8-6f49-45b1-aeae-ed7486934a0d">
              <g id="uuid-08d74663-a568-4c8d-a45f-eefda6be469f" data-name="Group 728">
                <path id="uuid-8b144830-0fd0-4ef9-ad3b-f0e3cad7b63e" data-name="Path 3371" class="uuid-239e3de5-a78f-4beb-b593-6d996cd27048" d="m304.7,432.42c111.41-49.01,114.07-160.77,114.07-160.77,0,0-104.61,39.42-114.07,160.77"/>
              </g>
            </g>
          </g>
        </g>
        <g id="uuid-e4581a20-041d-436f-b4d4-36ef30f207a7" data-name="Group 733">
          <g id="uuid-0bac11d4-596e-4fda-8373-5b5b426c0a08" data-name="Group 732">
            <g class="uuid-204cdd87-010d-4aa1-93b4-0a7c26c5fc26">
              <g id="uuid-9600088e-bd3b-4c57-8fcb-acf4b1cc1dbf" data-name="Group 731">
                <path id="uuid-67faadce-484f-4818-8d03-aa4a75f4269d" data-name="Path 3372" class="uuid-239e3de5-a78f-4beb-b593-6d996cd27048" d="m316.89,446.95c102.26,33.73,158.08-49.02,158.08-49.02,0,0-92.84-36.65-158.08,49.02"/>
              </g>
            </g>
          </g>
        </g>
        <g id="uuid-b908744a-d701-4dda-88f0-8ef90be168f3" data-name="Group 736">
          <g id="uuid-89fc22fa-dc93-41af-867c-61bf27536a34" data-name="Group 735">
            <g class="uuid-6c645464-3c92-49f4-9e5b-1328a8155cfe">
              <g id="uuid-0a010d14-4a9e-4b00-86ef-a6f8bb9f6aef" data-name="Group 734">
                <path id="uuid-91bcdd58-59b7-4b7a-a2f7-b524e9c38e4b" data-name="Path 3373" class="uuid-239e3de5-a78f-4beb-b593-6d996cd27048" d="m302.69,462.43c29.17,75.53,102.1,54.6,102.1,54.6,0,0-23.09-72.28-102.1-54.6"/>
              </g>
            </g>
          </g>
        </g>
        <path id="uuid-d8d570db-7611-409d-826b-881dd7bdcb0e" data-name="Path 3374" class="uuid-239e3de5-a78f-4beb-b593-6d996cd27048" d="m312.37,562.23l.18,5.87h-50.55l-.17-5.87.04-.03c11.96-8.13,19.12-21.66,19.12-36.13v-39.95h12.57v40.19c0,14.33,7.03,27.75,18.81,35.92Z"/>
      </g>
    </g>
  </g>
</svg>