<?xml version="1.0" encoding="UTF-8"?>
<svg id="uuid-8ccb4b77-bd0d-4e6c-9dff-56ad75926159" data-name="uuid-6439bce5-da6a-4be8-a8c1-9880adea5e9b" xmlns="http://www.w3.org/2000/svg" viewBox="0 0 1920 1196">
  <defs>
    <style>
      .uuid-74acd51d-1208-4257-b59e-0a2b45ab542b {
        fill: #f2d8ba;
      }

      .uuid-74acd51d-1208-4257-b59e-0a2b45ab542b, .uuid-9491949e-75b3-42d7-9c21-2eaeeaf15e8a {
        stroke-width: 0px;
      }

      .uuid-9491949e-75b3-42d7-9c21-2eaeeaf15e8a {
        fill: #fae3c7;
      }
    </style>
  </defs>
  <path class="uuid-74acd51d-1208-4257-b59e-0a2b45ab542b" d="m1149.69,651.45c-4.44-2.02-8.88-2.75-13.29-3.59-1.8-.35-3.81-.2-3.36-3.05.17-1.1-.72-.78-1.37-.65-3.21.65-6.42,1.27-9.71,1.93-.37-.33-.13-.84-.06-1.31.73-4.72,1.08-3.95-3.23-3.39-4.73.61-9.49,1.31-14.02,3.42-.27-2.2.76-3.98,1.57-5.74.73-1.6.24-1.89-1.24-1.8-5.59.32-10.57,2.37-15.51,5.42.76-2.43,1.46-4.63,2.26-7.17-6.07.36-11.54,1.96-17.03,4.45.12-1.32.2-2.31.29-3.3.35-3.75-.02-4.13-3.78-3.42-4.85.92-9.07,3.31-13.42,6.2.15-1.49.1-2.67.43-3.75.49-1.63-.28-1.63-1.46-1.42-5.1.93-9.87,2.63-13.96,6.07-.18-.24-.32-.35-.35-.48-.84-3.35-.85-3.39-4.27-2.6-4.8,1.1-9.2,3.09-13.01,6.19-.59-.35-.35-.81-.33-1.16.19-3.39.2-3.39-3.2-2.5-5.44,1.42-10.88,2.83-16.32,4.25,5.72-2.61,11.43-5.22,17.15-7.83-1.85-1.47-3.51-2.78-5.44-4.32,8.61-1.21,16.63-3.03,24.59-6.01-2.42-2.79-5.19-4.77-8.48-6.84,4.31-.52,8.22-.53,12.04-1.34,3.8-.81,7.46-1.89,10.97-4.1-2.29-2.26-5.01-3.74-7.98-5.83,9.14-.97,18.18-1.06,24.32-8.85-2.2-1.77-4.94-2.9-8.42-4.19,4.54-1.29,8.4-2.31,12.2-3.49,3.82-1.2,7.12-3.34,10.11-6.28-2.91-2.53-6.27-4.1-10.28-5.63,7.1-1.08,13.38-2.88,19-6.5,1.83-1.18,4.68-2.41,4.68-4.18,0-1.66-3.25-2.03-5.05-3.02-1.02-.56-2.13-.93-3.5-1.52,4.33-1.56,8.33-3.24,11.98-5.66,2.68-1.77,5.05-3.88,7.36-6.11,1.52-1.47,1-1.98-.66-2.54-2.38-.81-4.71-1.76-7.28-2.74,7.69-3.8,14.21-8.74,19.37-15.68-3.12-1.06-6.09-1.31-9.78-1.35,2.85-2.7,5.2-5.14,7.77-7.33,1.63-1.39,2.42-2.46.69-3.32,2.15-2.49,4.4-5.06,6.61-7.66.56-.66,1.81-1.16,1.39-2.13-.26-.62-1.43-.73-2.29-.75-.3-.01-.6-.07-1.34-.16,7.83-8.25,14.05-17.31,21.05-25.87-11.61,3.25-21.23,10.11-30.89,16.88-.14-.08-.35-.12-.38-.22-1.27-4.04-1.28-4.07-4.73-1.71-4.42,3.02-8.81,6.09-13.24,9.15-1.5-5.29-1.51-5.31-6.15-2.26-4.81,3.16-8.84,7.25-13.07,11.09-.87.79-1.72,1.58-2.79,2.56-.7-1.74-1.47-3.24-1.9-4.82-.48-1.81-1.21-1.52-2.43-.73-5.08,3.34-8.07,8.32-10.8,13.52-.34.65-.6,1.35-1,2.25-1.54-1.38-1.93-3.22-2.76-4.79-.9-1.71-1.78-2.15-3.4-.63-4.72,4.42-8.01,9.68-9.75,15.95-1.06-2.15-2.09-4.24-3.13-6.33-.62-1.25-1.26-1.31-2.14-.13-4.58,6.12-8.35,12.59-9.31,20.6-1.32-1.62-1.91-3.42-2.58-5.14-.85-2.18-1.67-1.95-2.99-.37-4.19,5.05-6.61,10.68-5.84,17.7-2.03-1.38-3.19-3.25-4.87-4.91-2.14,3.28-3.71,6.71-5.13,10.24-1.43,3.56-1.13,7.39-1.86,11.47-1.06-1.97-1.95-3.62-3.01-5.6-2.54,6.17-4.23,12.22-5.39,18.68-.85-1.14-.78-2.4-2.11-3.16-4.79,6.52-9.6,13.08-14.43,19.66,3.72-8.26,6.19-12.91,7.89-15.39.25-.36,1.41-2.08.9-2.94-.3-.52-1.31-.63-3.22-.64h-1.23c2.11-2.55,4.22-4.89,6.11-7.4,4.96-6.59,8.7-13.73,9.82-22.06.26-1.96-.19-2.23-1.9-1.61-2.5.9-5.05,1.67-7.82,2.58,5.85-7.61,8.8-15.94,8.39-25.65-2.3.65-4.43,1.26-6.83,1.94,2.99-5.76,5.45-11.45,6.09-17.7.69-6.72,1.34-7.02-5.92-4.96-.55.15-1.09.34-2.06.64,3.11-4.71,5.44-9.37,6.5-14.56.6-2.9.91-5.81.65-8.78-.13-1.37-.53-1.67-1.87-1.01-3.56,1.79-7.2,3.42-11.4,5.39,3.92-5.34,7.13-10.32,9.07-15.98.77-2.24,1.34-4.5,1.38-6.89.04-3.11-.03-3.22-2.99-1.98-2.53,1.06-5,2.28-7.52,3.44-.47-.76.22-1.13.48-1.55,4-6.42,5.44-13.47,5.37-20.94-.02-1.76-.51-2.04-1.99-1.18-2.09,1.2-4.23,2.3-6.78,3.68,1.54-3.88,2.87-7.36,3.42-11.08.38-2.52.37-5.02.48-7.54.11-2.44-.91-2.22-2.47-1.33-1.82,1.03-3.66,2.02-6.06,3.35,2.14-5.75,3.97-11.08,3.29-16.87-2.42.09-4.33,1.4-6.58,2.28.72-4.73,2.31-9.13,2.13-13.98-2.11.14-3.69,1.51-5.59,1.9-.33-2.73.67-5.39.45-8.12-.18-2.18-.35-4.36-.36-6.54,0-1.76-.44-2.54-2.28-1.6-.5.26-1.11.3-1.79.47-.22-5.2,0-10.33-.55-15.42-1.07-.02-1.35,1.02-2.42,1.43-.32-8.08-1.17-16.01-3.23-23.76.03-.41.14-.99-.29-1.12h-.09c-.43.13-.32.71-.29,1.12-2.06,7.75-2.91,15.68-3.23,23.76-1.07-.41-1.35-1.45-2.42-1.43-.56,5.09-.33,10.22-.55,15.42-.68-.17-1.29-.21-1.79-.47-1.84-.94-2.27-.16-2.28,1.6-.01,2.18-.18,4.36-.36,6.54-.22,2.73.78,5.39.45,8.12-1.9-.39-3.48-1.76-5.59-1.9-.18,4.85,1.41,9.25,2.13,13.98-2.25-.88-4.16-2.19-6.58-2.28-.68,5.79,1.15,11.12,3.29,16.87-2.4-1.33-4.24-2.32-6.06-3.35-1.56-.89-2.58-1.11-2.47,1.33.11,2.52.1,5.02.48,7.54.55,3.72,1.88,7.2,3.42,11.08-2.55-1.38-4.69-2.48-6.78-3.68-1.48-.86-1.97-.58-1.99,1.18-.07,7.47,1.37,14.52,5.37,20.94.26.42.95.79.48,1.55-2.52-1.16-4.99-2.38-7.52-3.44-2.96-1.24-3.03-1.13-2.99,1.98.04,2.39.61,4.65,1.38,6.89,1.94,5.66,5.15,10.64,9.07,15.98-4.2-1.97-7.84-3.6-11.4-5.39-1.34-.66-1.74-.36-1.87,1.01-.26,2.97.05,5.88.65,8.78,1.06,5.19,3.38,9.85,6.5,14.56-.97-.3-1.51-.49-2.06-.64-7.26-2.06-6.61-1.76-5.92,4.96.64,6.25,3.1,11.94,6.09,17.7-2.4-.68-4.53-1.29-6.83-1.94-.41,9.71,2.54,18.04,8.39,25.65-2.77-.91-5.32-1.68-7.82-2.58-1.71-.62-2.16-.35-1.9,1.61,1.12,8.33,4.86,15.47,9.82,22.06,1.89,2.51,4,4.85,6.11,7.4h-1.23c-1.91.01-2.92.12-3.22.64-.51.86.65,2.58.9,2.94,1.7,2.48,4.17,7.13,7.89,15.39-4.83-6.58-9.64-13.14-14.43-19.66-1.33.76-1.26,2.02-2.11,3.16-1.16-6.46-2.86-12.51-5.39-18.68-1.06,1.98-1.95,3.63-3.01,5.6-.73-4.08-.43-7.91-1.86-11.47-1.42-3.53-2.99-6.96-5.13-10.24-1.68,1.66-2.84,3.53-4.87,4.91.77-7.02-1.65-12.65-5.84-17.7-1.32-1.58-2.14-1.81-2.99.37-.67,1.72-1.26,3.52-2.58,5.14-.96-8.01-4.74-14.48-9.31-20.6-.88-1.18-1.52-1.12-2.14.13-1.04,2.09-2.07,4.18-3.13,6.33-1.74-6.27-5.03-11.53-9.75-15.95-1.62-1.52-2.5-1.08-3.4.63-.83,1.57-1.22,3.41-2.76,4.79-.4-.9-.66-1.6-1-2.25-2.73-5.2-5.72-10.18-10.81-13.52-1.21-.79-1.94-1.08-2.42.73-.43,1.58-1.2,3.08-1.9,4.82-1.07-.98-1.92-1.77-2.79-2.56-4.23-3.84-8.26-7.93-13.07-11.09-4.64-3.05-4.66-3.03-6.15,2.26-4.43-3.06-8.82-6.13-13.24-9.15-3.45-2.36-3.46-2.33-4.73,1.71-.03.1-.24.14-.38.22-9.66-6.77-19.28-13.63-30.89-16.88,7,8.56,13.22,17.62,21.05,25.87-.74.09-1.04.15-1.34.16-.86.02-2.03.13-2.29.75-.42.97.83,1.47,1.39,2.13,2.21,2.6,4.46,5.17,6.6,7.66-1.72.86-.93,1.93.7,3.32,2.56,2.19,4.92,4.63,7.77,7.33-3.69.04-6.66.29-9.79,1.35,5.17,6.94,11.69,11.88,19.38,15.68-2.57.98-4.9,1.93-7.28,2.74-1.66.56-2.18,1.07-.66,2.54,2.31,2.23,4.68,4.34,7.36,6.11,3.65,2.42,7.65,4.1,11.98,5.66-1.37.59-2.48.96-3.5,1.52-1.8.99-5.06,1.36-5.05,3.02,0,1.77,2.85,3,4.68,4.18,5.62,3.62,11.9,5.42,19,6.5-4.02,1.53-7.37,3.1-10.28,5.63,2.99,2.94,6.28,5.08,10.11,6.28,3.8,1.18,7.66,2.2,12.2,3.49-3.48,1.29-6.22,2.42-8.42,4.19,6.14,7.79,15.18,7.88,24.31,8.85-2.96,2.09-5.68,3.57-7.97,5.83,3.51,2.21,7.17,3.29,10.97,4.1,3.82.81,7.73.82,12.04,1.34-3.29,2.07-6.06,4.05-8.48,6.84,7.96,2.98,15.98,4.8,24.59,6.01-1.93,1.54-3.59,2.85-5.44,4.32,6.01,2.54,11.76,4.97,17.52,7.4-10-1.56-14.5-2.85-16.69-3.82-.29-.13-2.22-.95-2.96-.35-.39.32-.34,1.17-.24,2.85.02.35.26.81-.33,1.16-3.81-3.1-8.21-5.09-13.01-6.19-3.42-.79-3.43-.75-4.27,2.6-.03.13-.17.24-.35.48-4.09-3.44-8.86-5.14-13.96-6.07-1.18-.21-1.95-.21-1.46,1.42.33,1.08.28,2.26.43,3.75-4.35-2.89-8.57-5.28-13.42-6.2-3.76-.71-4.13-.33-3.78,3.42.09.99.17,1.98.29,3.3-5.49-2.49-10.96-4.09-17.03-4.45.8,2.54,1.5,4.74,2.26,7.17-4.94-3.05-9.92-5.1-15.51-5.42-1.48-.09-1.97.2-1.24,1.8.81,1.76,1.84,3.54,1.57,5.74-4.53-2.11-9.29-2.81-14.02-3.42-4.31-.56-3.96-1.33-3.23,3.39.07.47.31.98-.06,1.31-3.29-.66-6.5-1.28-9.71-1.93-.65-.13-1.54-.45-1.37.65.45,2.85-1.56,2.7-3.36,3.05-4.41.84-8.85,1.57-13.29,3.59,8.01,4.78,16.72,6.12,25.38,7.99-1.47,2.09-3.02,3.77-3.89,6.18,5.15,1,10.27.92,15.57.36-.71,1.96-2,3.18-2.3,5.08,3.59.45,7.07,0,10.7-.43-1.03,2.1-2.89,3.6-3.49,5.96,6.12,1.09,12.08.19,18.25-.64-1.22,1.84-2.22,3.47-3.35,5.02-1.2,1.66-.56,2.2,1.19,2.52,3.77.68,7.5.66,11.27-.09,4.26-.84,8.1-2.71,12.11-5.03-1.75,4.03-3.7,7.51-4.78,11.69,1.51-.26,2.66-.42,3.8-.67,5.24-1.15,9.8-3.86,14.43-6.38.08.06.15.11.22.17-.42,1.27-.9,2.51-1.23,3.79-.27,1.09-1.28,2.46-.43,3.22.75.68,2.2-.06,3.33-.36,4.98-1.33,9.31-4.08,13.94-6.19.12.12.25.21.39.29-.75,2.18-1.97,4.2-2.38,6.72,7.17-.66,12.95-4.07,18.77-8.17-.24,1.37-.36,2.36-.61,3.33-.47,1.88-.06,2.73,2.03,1.99,1.1-.4,2.26-.64,3.36-1.04,3.96-1.43,7.52-3.63,11.13-5.87.35,1.18-.92,2.15-.34,3.4,5.33-1.51,10.33-3.67,15.4-5.64.62-.24,1.79-.62,1.83-.52,1.03,2.1,2.45.3,3.63.36.86.04,1.73-.59,3.05-.13-3.66,1.65-7.07,3.2-10.72,4.84,1.29.72,2.18,1.22,3.28,1.83-6.65.84-10.95,4.99-15.64,9.05,1.73.42,3.12.76,4.85,1.19-5.09,3.05-9.66,6.11-14.14,9.36,1.59,1.56,3.73,1.04,5.52,1.88-6.47,5.52-11.44,11.96-15.89,18.82-.49.75-1.52,1.53-1.17,2.35.4.9,1.66.32,2.52.45.73.11,1.47.09,2.42.13-1.74,4.83-3.99,9.31-4.86,14.38,8.6-4.38,15.85-10.45,22.73-17.45.33,1.61.11,3.13,1.02,4.49,4.74-6.05,10.64-10.93,13.63-18.07.19,1.69.13,3.21.21,4.72.06,1.12-.63,2.94.29,3.22,1.41.44,2.46-1.08,3.3-2.25.59-.82,1.1-1.69,1.64-2.54,2.81-4.4,5.62-8.8,8.86-13.9l.15,7.83c1.6-.78,3.03-1.34,4.62-2.12-1.93,5.61-3.46,10.89-4.81,16.26,2.22.17,3.53-1.6,5.44-2.11-1.4,8.39-1.07,16.51-.07,24.63.11.89-.18,2.16.62,2.55.89.44,1.47-.82,2.22-1.27.63-.38,1.18-.88,1.94-1.46,1.77,4.81,2.93,9.7,5.53,14.14,2.59-4.44,3.75-9.33,5.52-14.14.76.58,1.31,1.08,1.94,1.46.75.45,1.33,1.71,2.22,1.27.8-.39.51-1.66.62-2.55,1-8.12,1.34-16.24-.07-24.63,1.91.51,3.22,2.28,5.44,2.11-1.35-5.37-2.88-10.65-4.81-16.26,1.59.78,3.01,1.34,4.6,2.12l.13-7.83c3.24,5.1,6.05,9.5,8.86,13.9.54.85,1.05,1.72,1.64,2.54.84,1.17,1.89,2.69,3.3,2.25.92-.28.23-2.1.29-3.22.08-1.51.02-3.03.21-4.72,2.99,7.14,8.89,12.02,13.63,18.07.91-1.36.69-2.88,1.02-4.49,6.88,7,14.13,13.07,22.73,17.45-.87-5.07-3.12-9.55-4.86-14.38.95-.04,1.69-.02,2.42-.13.86-.13,2.12.45,2.52-.45.35-.82-.68-1.6-1.17-2.35-4.45-6.86-9.42-13.3-15.89-18.82,1.79-.84,3.93-.32,5.52-1.88-4.48-3.25-9.05-6.31-14.14-9.36,1.73-.43,3.12-.77,4.84-1.19-4.68-4.06-8.98-8.21-15.64-9.05,1.11-.61,2-1.11,3.29-1.83-3.65-1.64-7.06-3.19-10.72-4.84,1.32-.46,2.19.17,3.05.13,1.18-.06,2.6,1.74,3.62-.36.05-.1,1.22.28,1.84.52,5.07,1.97,10.07,4.13,15.4,5.64.58-1.25-.69-2.22-.34-3.4,3.61,2.24,7.17,4.44,11.13,5.87,1.1.4,2.26.64,3.36,1.04,2.09.74,2.5-.11,2.03-1.99-.25-.97-.37-1.96-.61-3.33,5.82,4.1,11.6,7.51,18.77,8.17-.41-2.52-1.63-4.54-2.38-6.72.14-.08.27-.17.39-.29,4.63,2.11,8.96,4.86,13.94,6.19,1.13.3,2.58,1.04,3.33.36.85-.76-.16-2.13-.43-3.22-.33-1.28-.81-2.52-1.23-3.79.07-.06.14-.11.22-.17,4.63,2.52,9.19,5.23,14.43,6.38,1.13.25,2.29.41,3.8.67-1.08-4.18-3.03-7.66-4.78-11.69,4,2.32,7.85,4.19,12.11,5.03,3.77.75,7.5.77,11.27.09,1.75-.32,2.39-.86,1.19-2.52-1.13-1.55-2.13-3.18-3.35-5.02,6.17.83,12.13,1.73,18.25.64-.6-2.36-2.46-3.86-3.49-5.96,3.63.43,7.1.88,10.7.43-.3-1.9-1.59-3.12-2.3-5.08,5.3.56,10.42.64,15.57-.36-.87-2.41-2.42-4.09-3.89-6.18,8.66-1.87,17.36-3.21,25.38-7.99h0Zm-286.25-81.19c-11.24-10.74-20.46-20.1-27.18-27.09-8.78-8.97-17.29-17.88-25.54-26.7,12.04,10.32,24.25,21.09,36.58,32.33,2.78,2.54,5.34,4.89,7.68,7.05,6.42,5.94,11.07,10.33,11.76,10.97,15,14.15,87.07,76.55,86.12,77.71-.71.85-42.69-29.63-89.42-74.27h0Zm13.36,91.56c-40.31-.02-72.03-4.29-72.03-4.82.04-.5,28.85,2.52,72.15,2.49,45.08-.04,74.89-3.35,74.93-2.84.04.54-32.92,5.18-75.05,5.17h0Zm55.54,32.53c-10.78,13.02-21.35,25.19-31.58,36.53,9.35-12.07,19.47-24.63,30.38-37.53,8.11-9.59,16.1-18.71,23.89-27.34-7.12,9.2-14.68,18.66-22.69,28.34Zm27.08,51.08c-.57-10.02-.88-31.86-.88-31.86-.06-10.85.21-21.22.71-31.09.57,10.02.89,20.57.88,31.6,0,0-.21,21.49-.71,31.36h0Zm-.18-129.7c-1.98-35.81-3-73.64-2.69-113.32.23-29.49,1.18-57.91,2.69-85.2,1.52,27.29,2.47,55.71,2.7,85.2.31,39.68-.71,77.51-2.7,113.32Zm92.51-48.91c.69-.64,5.33-5.03,11.76-10.97,2.34-2.16,4.9-4.51,7.68-7.05,12.33-11.24,24.54-22.01,36.58-32.33-8.25,8.82-16.76,17.73-25.54,26.7-6.72,6.99-15.94,16.35-27.18,27.09-46.73,44.64-88.71,75.12-89.42,74.27-.95-1.16,71.12-63.56,86.12-77.71Zm-64.4,126.53c10.91,12.9,21.03,25.46,30.38,37.53-10.23-11.34-20.8-23.51-31.58-36.53-8.01-9.68-15.57-19.14-22.69-28.34,7.79,8.63,15.78,17.75,23.89,27.34Zm54.34-31.53c-42.13.01-75.09-4.63-75.05-5.17.04-.51,29.85,2.8,74.93,2.84,43.3.03,72.11-2.99,72.15-2.49,0,.53-31.72,4.8-72.03,4.82h0Z"/>
  <path class="uuid-9491949e-75b3-42d7-9c21-2eaeeaf15e8a" d="m932.63,800.89c-8.99,7.03-19.25,12.24-29.29,17.6-20.3,10.42-41.28,19.44-62.71,27.28-45.05,15.98-124.86,39.52-168.46,14.37-10.55-6.05-18.74-16.29-22.68-27.76-3.07-8.18-3.64-17.56-4.28-26.09-1.79-25.61-2.1-51.3-2.31-76.88-.49-68.35,1.24-138.39,3.03-206.79,3.33-68.3,28.81-135.33,72.28-188.21,58.18-71.83,148.89-115.76,241.48-115.33v9.14h-.34v-9.14c23.05.04,46.11,2.63,68.59,7.75,126.27,27.94,223.62,136.17,242.18,263.57.69,5.71,1.47,11.42,2.07,17.15.34,4.17.79,11.02,1.11,15.07,2.11,92.88,5.48,186.59,1.13,279.41-.24,3.54-.77,9.46-1.01,12.87-2.03,26.65-17.03,45.34-42.98,52.47-52.57,14.39-134.7-12.81-183.9-34.03-15.67-6.86-31.09-14.35-45.89-22.94-4.89-2.92-9.82-5.86-14.23-9.49,7.03,4.34,15.4,7.73,22.92,11.18,12.99,5.62,26.14,10.92,39.36,15.94,49.43,18.23,128.18,45.91,179.59,31.88,17.63-4.97,30.39-15.76,35.25-33.82.15-.76.94-4.17,1.08-4.88.06-.33.09-.66.14-1l.27-2c2.95-29.46,2.9-59.19,3.17-88.84.28-68.17-1.64-138.09-3.63-206.32-8.14-162.74-140.99-294.92-305.23-294.83v-9.14h.34v9.14c-147.66-.94-275.96,110.47-300.77,255.18-1.6,8.08-2.57,16.86-3.52,24.96-.3,2.94-.69,9.76-.96,12.58-1.51,45.59-2.85,94.87-3.43,140.34-.53,46.73-1.06,93.62,1.32,140.26.5,5.5.8,13.26,1.69,18.7,1.37,8.37,4.58,16.86,9.98,23.43,32.42,39.18,124.72,12.29,166.46-1.27,24.16-7.97,48.08-16.88,71.5-26.86,10.22-4.46,21.09-8.91,30.67-14.65h.01Z"/>
  <path class="uuid-9491949e-75b3-42d7-9c21-2eaeeaf15e8a" d="m931.31,775.74c-9.98,8.35-22.41,13.85-35.1,16.85-55.64,12.85-110.53-16.63-166.07-13.2-15.55.94-33.21,4.5-44.25,15.94-10.8,10.87-10.18,29.65,1.58,39.54,5.63,4.79,13.41,7.29,20.75,6.48,10.99-1.07,21.14-10.08,20.49-21.5-.21-7.63-5.02-13.05-12.09-15.88-3.56-1.46-7.45-2.36-11.93-1.89,7.38-6.51,20-3.98,26.32,3.36,3.35,4.04,5.02,9.06,5.3,14.05.74,10-4.96,19.97-13.43,25.1-12.46,8.1-29.68,6.28-40.93-3.11-8.72-7.05-11.88-21.61-12.59-29.62-.27-2.99.19-9.04.77-11.99,1.13-5.68,4.25-14.94,9.11-21.3,21.36-26.69,69.17-22.58,99.31-17.1,28.19,5.67,56.34,12,84.42,18.06-19.36,2.55-38.66-1.3-57.6-4.91-18.71-3.54-37.32-7.08-56.31-8.04-19.02-.68-40.05.05-56.3,10.69-2.63,1.75-4.9,3.85-6.83,6.24,5.24-3.8,11.24-6.65,17.26-8.49,42.86-12.36,87.03,3.02,129.1,10.37,33.12,5.91,68.46,6.71,99.02-9.65h0Z"/>
  <path class="uuid-9491949e-75b3-42d7-9c21-2eaeeaf15e8a" d="m988.62,777.74c9.98,8.35,22.41,13.85,35.1,16.85,55.64,12.85,110.53-16.63,166.07-13.2,15.55.94,33.21,4.5,44.25,15.94,10.8,10.87,10.18,29.65-1.58,39.54-5.63,4.79-13.41,7.29-20.75,6.48-10.99-1.07-21.14-10.08-20.49-21.5.21-7.63,5.02-13.05,12.09-15.88,3.56-1.46,7.45-2.36,11.93-1.89-7.38-6.51-20-3.98-26.32,3.36-3.35,4.04-5.02,9.06-5.3,14.05-.74,10,4.96,19.97,13.43,25.1,12.46,8.1,29.68,6.28,40.93-3.11,8.72-7.05,11.88-21.61,12.59-29.62.27-2.99-.19-9.04-.77-11.99-1.13-5.68-4.25-14.94-9.11-21.3-21.36-26.69-69.17-22.58-99.31-17.1-28.19,5.67-56.34,12-84.42,18.06,19.36,2.55,38.66-1.3,57.6-4.91,18.71-3.54,37.32-7.08,56.31-8.04,19.02-.68,40.05.05,56.3,10.69,2.63,1.75,4.9,3.85,6.83,6.24-5.24-3.8-11.24-6.65-17.26-8.49-42.86-12.36-87.03,3.02-129.1,10.37-33.12,5.91-68.46,6.71-99.02-9.65h0Z"/>
  <path class="uuid-9491949e-75b3-42d7-9c21-2eaeeaf15e8a" d="m1078.45,618.34c10.21-3.6,19.17-7.6,28.79-12.21,14.18-6.92,28.49-16.12,44.5-19.68,5.52-1.24,11.4-1.62,16.95-1.33,15.2.63,30.87,5.52,45.25-.36,4.24-1.77,7.83-4.49,10.1-8.03,5.65-8.79,1.5-22.93-8.48-26.72-4.62-1.81-10.44-1.6-14.23,1.77-3.39,2.98-5.19,8.53-2.48,12.45,1.47,2.2,4.35,3.78,7.04,3.74,1.48-.02,2.84.8,3.47,2.15.02.03.03.07.05.1,1.11,2.36-.48,5.14-3.08,5.33-1.92.14-3.83-.1-5.58-.67-6.81-1.95-11.93-8.78-11.49-15.94.3-10.62,9.59-18.86,19.99-18.9,13.5-.56,24.42,10.26,26.27,23.23,3.14,21.55-15.97,33.19-35.15,33.58-11.04.35-21.51-2.26-32.13-2.86-10.17-.75-19.75,1.57-29.16,5.41-18.88,7.02-39.21,23.93-60.63,18.95h0Z"/>
  <path class="uuid-9491949e-75b3-42d7-9c21-2eaeeaf15e8a" d="m842.53,619.67c-10.21-3.6-19.17-7.6-28.79-12.21-14.18-6.92-28.49-16.12-44.5-19.68-5.52-1.24-11.4-1.62-16.95-1.33-15.2.63-30.87,5.52-45.25-.36-4.24-1.77-7.83-4.49-10.1-8.03-5.65-8.79-1.5-22.93,8.48-26.72,4.62-1.81,10.44-1.6,14.23,1.77,3.39,2.98,5.19,8.53,2.48,12.45-1.47,2.2-4.35,3.78-7.04,3.74-1.48-.02-2.84.8-3.47,2.15-.02.03-.03.07-.05.1-1.11,2.36.48,5.14,3.08,5.33,1.92.14,3.83-.1,5.58-.67,6.81-1.95,11.93-8.78,11.49-15.94-.3-10.62-9.59-18.86-19.99-18.9-13.5-.56-24.42,10.26-26.27,23.23-3.14,21.55,15.97,33.19,35.15,33.58,11.04.35,21.51-2.26,32.13-2.86,10.17-.75,19.75,1.57,29.16,5.41,18.88,7.02,39.21,23.93,60.63,18.95h0Z"/>
  <path class="uuid-9491949e-75b3-42d7-9c21-2eaeeaf15e8a" d="m884.32,502.91c-14.79-8.64-22.82-25.13-29.62-40.2-4.08-9.71-7.31-19.71-6.4-30.73.84-11.46,7.86-23.05,19.24-26.68,17.77-6.44,36.6,13.53,22.91,29.28-1.76,1.93-4.04,3.47-6.55,4.34-2.51.88-5.14-1.04-5.09-3.7h0c.03-1.53.97-2.86,2.37-3.48,3.22-1.42,5.7-5.42,5.43-8.75-.09-2.07-1.13-4.27-2.79-5.97-5.57-5.91-14.49-4.37-19.95,1.06-3.93,3.8-5.94,9.3-6.53,14.79-1.21,12.05,4.02,24.44,8.82,35.54,5.35,11.93,13.07,22.34,18.13,34.49h.03Z"/>
  <path class="uuid-9491949e-75b3-42d7-9c21-2eaeeaf15e8a" d="m1032,501.91c14.79-8.64,22.82-25.13,29.62-40.2,4.08-9.71,7.31-19.71,6.4-30.73-.84-11.46-7.86-23.05-19.24-26.68-17.77-6.44-36.6,13.53-22.91,29.28,1.76,1.93,4.04,3.47,6.55,4.34s5.14-1.04,5.09-3.7h0c-.03-1.53-.97-2.86-2.37-3.48-3.22-1.42-5.7-5.42-5.43-8.75.09-2.07,1.13-4.27,2.79-5.97,5.57-5.91,14.49-4.37,19.95,1.06,3.93,3.8,5.94,9.3,6.53,14.79,1.21,12.05-4.02,24.44-8.82,35.54-5.35,11.93-13.07,22.34-18.13,34.49h-.03Z"/>
  <g>
    <path class="uuid-74acd51d-1208-4257-b59e-0a2b45ab542b" d="m686.81,710.56h10.85v2.71h-7.75v3.77h6.65v2.71h-6.65v3.94h7.78v2.71h-10.87v-15.84h-.01Z"/>
    <path class="uuid-74acd51d-1208-4257-b59e-0a2b45ab542b" d="m704.72,725.91c-.94-.5-1.64-1.21-2.1-2.11-.46-.9-.67-1.95-.62-3.13h3.14c0,1.12.26,1.95.77,2.48.51.54,1.28.8,2.3.8.78,0,1.38-.16,1.79-.49s.61-.8.61-1.4c0-.7-.24-1.24-.72-1.61s-1.33-.65-2.54-.84c-1.7-.22-3.01-.74-3.95-1.55s-1.4-1.88-1.4-3.2.46-2.46,1.39-3.29c.93-.83,2.18-1.25,3.74-1.25,1.06,0,2.02.18,2.88.55s1.56.92,2.08,1.66.78,1.62.78,2.66h-3.14c-.02-.64-.24-1.16-.68-1.56s-1.05-.6-1.84-.6c-.61,0-1.11.17-1.5.5-.39.34-.59.77-.59,1.3s.22.99.65,1.33c.43.34,1.14.59,2.11.73,2.06.29,3.56.82,4.48,1.61.92.78,1.38,1.92,1.38,3.41s-.48,2.69-1.44,3.52c-.96.82-2.34,1.24-4.15,1.24-1.34,0-2.48-.25-3.42-.76h-.01Z"/>
    <path class="uuid-74acd51d-1208-4257-b59e-0a2b45ab542b" d="m721.29,713.28h-4.75v-2.71h12.58v2.71h-4.73v13.13h-3.1v-13.13h0Z"/>
  </g>
  <g>
    <path class="uuid-74acd51d-1208-4257-b59e-0a2b45ab542b" d="m1176.35,718.31c1.04-.91,2.65-1.72,4.82-2.42,1.25-.39,2.13-.86,2.66-1.39.52-.53.79-1.15.79-1.87,0-.79-.25-1.4-.75-1.83s-1.18-.65-2.05-.65c-1.89,0-2.99.97-3.31,2.91h-3.47c.11-1.31.48-2.41,1.11-3.31s1.43-1.56,2.39-1.99,2.01-.65,3.15-.65c1.92,0,3.47.49,4.64,1.47s1.76,2.32,1.76,4.02c0,1.58-.51,2.88-1.53,3.91-1.02,1.03-2.6,1.83-4.74,2.41-1.26.32-2.13.7-2.62,1.13-.48.43-.72.97-.72,1.61v.43h9.15v3.04h-12.83v-3.23c0-1.49.52-2.69,1.56-3.6h-.01Z"/>
    <path class="uuid-74acd51d-1208-4257-b59e-0a2b45ab542b" d="m1196.97,724.22c-1.27-.8-2.26-1.89-2.97-3.27s-1.07-2.9-1.07-4.57.36-3.25,1.07-4.65,1.7-2.5,2.97-3.31,2.71-1.21,4.31-1.21,3.04.4,4.31,1.21,2.26,1.91,2.98,3.31c.71,1.4,1.07,2.95,1.07,4.65s-.36,3.19-1.07,4.57-1.7,2.47-2.98,3.27c-1.27.8-2.71,1.2-4.31,1.2s-3.04-.4-4.31-1.2Zm.01-4.83c.41.91.99,1.64,1.73,2.18.75.54,1.61.81,2.59.81s1.84-.27,2.58-.81,1.31-1.26,1.71-2.18c.4-.91.6-1.92.6-3.01s-.2-2.14-.6-3.08-.97-1.69-1.71-2.23c-.74-.55-1.6-.82-2.58-.82s-1.85.27-2.6.82-1.33,1.29-1.73,2.23-.6,1.97-.6,3.08.2,2.1.61,3.01Z"/>
    <path class="uuid-74acd51d-1208-4257-b59e-0a2b45ab542b" d="m1215.96,711.05l-2.38.62v-3.04l5.79-1.24v17.75h-3.47l.05-14.09h0Z"/>
    <path class="uuid-74acd51d-1208-4257-b59e-0a2b45ab542b" d="m1225.79,718.31c1.04-.91,2.65-1.72,4.82-2.42,1.25-.39,2.13-.86,2.66-1.39.52-.53.79-1.15.79-1.87,0-.79-.25-1.4-.75-1.83s-1.18-.65-2.05-.65c-1.89,0-2.99.97-3.31,2.91h-3.47c.11-1.31.48-2.41,1.11-3.31s1.43-1.56,2.39-1.99,2.01-.65,3.15-.65c1.92,0,3.47.49,4.64,1.47s1.76,2.32,1.76,4.02c0,1.58-.51,2.88-1.53,3.91-1.02,1.03-2.6,1.83-4.74,2.41-1.26.32-2.13.7-2.62,1.13-.48.43-.72.97-.72,1.61v.43h9.15v3.04h-12.83v-3.23c0-1.49.52-2.69,1.56-3.6h-.01Z"/>
  </g>
  <path class="uuid-9491949e-75b3-42d7-9c21-2eaeeaf15e8a" d="m757.07,688.93h31.91c2.42,0,4.38,1.96,4.38,4.38h0c0,2.42-1.96,4.38-4.38,4.38h-31.91c-2.42,0-4.38-1.96-4.38-4.38h0c0-2.42,1.96-4.38,4.38-4.38Z"/>
  <path class="uuid-9491949e-75b3-42d7-9c21-2eaeeaf15e8a" d="m1124.07,688.93h31.91c2.42,0,4.38,1.96,4.38,4.38h0c0,2.42-1.96,4.38-4.38,4.38h-31.91c-2.42,0-4.38-1.96-4.38-4.38h0c0-2.42,1.96-4.38,4.38-4.38Z"/>
  <path class="uuid-9491949e-75b3-42d7-9c21-2eaeeaf15e8a" d="m1012.83,829.83c21.58,16.18,28.82,47.75,18.99,72.52-9.9,25.2-34.5,39.68-54.12,56.38-6.9,5.86-13.06,12.45-18.68,19.4-5.8-6.85-12.04-13.38-19.01-19.19-23.14-19.11-51.9-35.49-58.02-67.64-4.56-22.54,3.45-48.48,23.07-61.46-15.3,19.93-20.51,46.31-11.27,69.36,2.64,6.28,6.6,12.06,11.09,17.2,17.28,19.31,40.99,30.48,57.79,51.04h-7.45c9.86-11.46,22.08-20.67,34.03-29.51,10.12-7.54,19.93-15.18,27.66-25.09,19.12-23.9,15.95-60.5-4.07-83h0Z"/>
  <path class="uuid-9491949e-75b3-42d7-9c21-2eaeeaf15e8a" d="m1023.8,819.73c25.78,20.37,34.25,58.6,22.47,88.86-11.96,30.89-41.96,48.65-65.89,69.2-8.17,7.02-15.52,14.8-22.18,23.11-6.83-8.21-14.26-15.94-22.49-22.9-28.17-23.56-63.05-43.55-70.44-82.89-5.41-27.45,3.97-58.78,27.2-75.38-19.48,24.09-25.95,57.2-14.73,85.76,4.92,11.92,13.24,22.15,22.62,30.94,19.92,18.51,43.81,32.02,61.51,53.74h-7.49c11.95-14.1,26.81-25.45,41.36-36.38,14.06-10.68,27.95-21.72,37.52-36.65,19.25-29.69,14.06-71.46-9.47-97.42h0Z"/>
  <g>
    <path class="uuid-9491949e-75b3-42d7-9c21-2eaeeaf15e8a" d="m862.81,844.78c-10.5,13.25-28.92,17.38-38.75,30.93-7.06,9.02-8.85,23.42,2.12,29.86,5.94,3.5,13.03.23,17.54-4.36,3.98-3.79,7.45-8.07,12.35-11.37.04,3.23-.54,6.17-1.53,9.06-2.06,6.03-6.58,11.14-12.2,14.4-9.91,6.01-21.95,3.27-28.81-5.97-8.74-11.14-5.25-27.38,3.4-37.31,12.03-13.59,29.2-19.75,45.89-25.23h0Z"/>
    <path class="uuid-9491949e-75b3-42d7-9c21-2eaeeaf15e8a" d="m817.25,859.19c-5.66,8.79-11.7,16.66-13.58,26.74-2.71,14.32,5.3,29.78,19.02,34.56,1.03.33,2.1.58,3.16.81.54.05,1.91.24,2.43.32.55.06,1.88,0,2.45.04.95.04,2.31-.25,3.28-.32,4.37-.75,8.67-2.71,12.51-5.58,1.9-1.46,4-2.75,6.1-4.24,2.44-1.46,4.53-2.99,7.29-4.1-.15,1.52-.52,2.93-.95,4.33-2.2,7.05-8.21,12.21-14.52,15.66-14.61,7.74-31.51,3.63-41.54-9.27-15.27-18.79-8.79-50.18,14.35-58.95h0Z"/>
    <path class="uuid-9491949e-75b3-42d7-9c21-2eaeeaf15e8a" d="m1052.65,843.9c16.7,5.49,33.84,11.63,45.89,25.23,8.65,9.92,12.14,26.17,3.4,37.31-6.86,9.24-18.9,11.98-28.81,5.97-5.62-3.26-10.14-8.38-12.2-14.4-.99-2.88-1.57-5.82-1.53-9.06,4.89,3.3,8.36,7.58,12.35,11.37,4.5,4.59,11.6,7.86,17.54,4.36,10.97-6.44,9.17-20.83,2.12-29.86-9.83-13.55-28.25-17.67-38.75-30.93h-.01Z"/>
    <path class="uuid-9491949e-75b3-42d7-9c21-2eaeeaf15e8a" d="m1098.21,858.3c16.65,6.11,25.51,25.66,21.9,42.69-2.46,11.85-10.54,22.76-22.11,27.23-2.12.84-4.53,1.49-6.77,1.87-.78.08-2.76.29-3.51.35-1.82-.02-4.05-.02-5.84-.37-3.79-.49-7.48-1.87-10.87-3.57-6.31-3.45-12.33-8.6-14.52-15.66-.43-1.4-.8-2.82-.95-4.33,2.76,1.11,4.85,2.64,7.29,4.1,2.1,1.49,4.2,2.78,6.1,4.24,3.84,2.87,8.15,4.83,12.51,5.58.98.06,2.32.36,3.28.32.58-.04,1.9.02,2.45-.04.51-.07,1.89-.27,2.43-.32,1.06-.23,2.13-.49,3.16-.81,13.72-4.78,21.72-20.24,19.02-34.56-1.88-10.08-7.91-17.94-13.58-26.74h0v.02Z"/>
  </g>
  <path class="uuid-74acd51d-1208-4257-b59e-0a2b45ab542b" d="m953.5,890.27c-25.52-11.23-26.13-36.83-26.13-36.83h0s23.97,9.03,26.13,36.83"/>
  <path class="uuid-74acd51d-1208-4257-b59e-0a2b45ab542b" d="m950.7,893.6c-23.43,7.73-36.21-11.23-36.21-11.23h0s21.27-8.4,36.21,11.23"/>
  <path class="uuid-74acd51d-1208-4257-b59e-0a2b45ab542b" d="m953.96,897.15c-6.68,17.3-23.39,12.51-23.39,12.51h0s5.29-16.56,23.39-12.51"/>
  <path class="uuid-74acd51d-1208-4257-b59e-0a2b45ab542b" d="m957.86,888.95v.24c-18.84-37.14-1.05-70.22-.04-72.03v-.25s19.35,33.86.04,72.04Z"/>
  <path class="uuid-74acd51d-1208-4257-b59e-0a2b45ab542b" d="m962.19,890.11c25.52-11.23,26.13-36.83,26.13-36.83h0s-23.97,9.03-26.13,36.83h0Z"/>
  <path class="uuid-74acd51d-1208-4257-b59e-0a2b45ab542b" d="m964.98,893.44c23.43,7.73,36.21-11.23,36.21-11.23h0s-21.27-8.4-36.21,11.23h0Z"/>
  <path class="uuid-74acd51d-1208-4257-b59e-0a2b45ab542b" d="m961.72,896.98c6.68,17.3,23.39,12.51,23.39,12.51h0s-5.29-16.56-23.39-12.51h0Z"/>
  <path class="uuid-74acd51d-1208-4257-b59e-0a2b45ab542b" d="m963.94,919.85l.04,1.34h-11.58l-.04-1.34h0c2.74-1.87,4.38-4.97,4.38-8.28v-9.15h2.88v9.21c0,3.28,1.61,6.36,4.31,8.23h.01Z"/>
  <g>
    <path class="uuid-9491949e-75b3-42d7-9c21-2eaeeaf15e8a" d="m775.42,803.3c6.11,3.77,3.1,9.79,3.1,9.79h0s-5.92-3.19-3.1-9.79"/>
    <path class="uuid-9491949e-75b3-42d7-9c21-2eaeeaf15e8a" d="m764.41,818.22c5.47-4.64,10.27.08,10.27.08h0s-4.86,4.65-10.27-.08"/>
    <path class="uuid-9491949e-75b3-42d7-9c21-2eaeeaf15e8a" d="m775.19,833.29c-2.73-6.64,3.24-9.74,3.24-9.74h0s2.92,6.06-3.24,9.74"/>
    <path class="uuid-9491949e-75b3-42d7-9c21-2eaeeaf15e8a" d="m792.86,827.7c-7.16.54-8.26-6.1-8.26-6.1h0s6.67-.9,8.26,6.1"/>
    <path class="uuid-9491949e-75b3-42d7-9c21-2eaeeaf15e8a" d="m793,809.16c-1.7,6.97-8.35,5.97-8.35,5.97h0s1.2-6.62,8.35-5.97"/>
  </g>
  <g>
    <path class="uuid-9491949e-75b3-42d7-9c21-2eaeeaf15e8a" d="m1147.82,803.58c-6.11,3.77-3.1,9.79-3.1,9.79h0s5.92-3.19,3.1-9.79"/>
    <path class="uuid-9491949e-75b3-42d7-9c21-2eaeeaf15e8a" d="m1158.83,818.49c-5.47-4.64-10.27.08-10.27.08h0s4.86,4.65,10.27-.08"/>
    <path class="uuid-9491949e-75b3-42d7-9c21-2eaeeaf15e8a" d="m1148.05,833.57c2.73-6.64-3.24-9.74-3.24-9.74h0s-2.92,6.06,3.24,9.74"/>
    <path class="uuid-9491949e-75b3-42d7-9c21-2eaeeaf15e8a" d="m1130.38,827.97c7.16.54,8.26-6.1,8.26-6.1h0s-6.67-.9-8.26,6.1"/>
    <path class="uuid-9491949e-75b3-42d7-9c21-2eaeeaf15e8a" d="m1130.24,809.44c1.7,6.97,8.35,5.97,8.35,5.97h0s-1.2-6.62-8.35-5.97"/>
  </g>
  <g>
    <path class="uuid-74acd51d-1208-4257-b59e-0a2b45ab542b" d="m741.46,437.27c3.59-1.55,7.25-1.63,10.96-.23,3.08,1.16,5.51,2.97,7.3,5.45,1.79,2.47,2.8,5.44,3.04,8.88.23,3.45-.41,7.17-1.91,11.17-.41,1.09-1.17,2.98-2.27,5.68-1.11,2.7-2.18,5.44-3.23,8.22-1.68,4.45-2.86,7.85-3.56,10.19l-1.63-.61c.66-1.99.98-3.5.97-4.51s-.42-1.87-1.22-2.55-2.22-1.4-4.27-2.17l-40.39-15.21c-2.04-.77-3.59-1.16-4.64-1.18s-1.92.35-2.6,1.11c-.68.76-1.43,2.1-2.24,4.03l-1.63-.61c1.01-2.19,2.33-5.48,3.98-9.85.8-2.12,1.65-4.47,2.56-7.05s1.54-4.34,1.9-5.3c1.4-3.71,3.12-6.65,5.16-8.82s4.27-3.54,6.68-4.11c2.41-.58,4.89-.38,7.43.57,3.13,1.18,5.57,3.22,7.31,6.13,1.75,2.91,2.48,6.77,2.19,11.56l.16.06c3.05-5.69,6.37-9.31,9.97-10.86h-.02Zm-13.03,7.53c-1.74-2.68-4.63-4.78-8.66-6.3-4.08-1.54-7.46-1.78-10.14-.73s-4.77,3.57-6.28,7.58c-.64,1.7-.92,3.04-.86,4.03.07.99.53,1.83,1.39,2.52s2.26,1.4,4.19,2.12l18.41,6.93,2.07-5.49c1.67-4.43,1.63-7.98-.12-10.67h0Zm24.55,25.58c1.05.03,1.9-.31,2.57-1.03.66-.72,1.32-1.95,1.98-3.7,3.82-10.15.97-17.02-8.54-20.6-4.27-1.61-7.95-1.67-11.05-.19s-5.6,4.74-7.49,9.78l-2.57,6.84,20.59,7.75c1.96.74,3.47,1.12,4.51,1.15h0Z"/>
    <path class="uuid-74acd51d-1208-4257-b59e-0a2b45ab542b" d="m729.84,393.3c-.21,1,0,1.91.63,2.75s1.86,1.86,3.68,3.06l36.06,23.72c1.82,1.2,3.24,1.92,4.25,2.16s1.92.06,2.72-.55,1.78-1.78,2.94-3.53l3.5-5.32c1.99-3.03,3.08-5.61,3.26-7.74s-.43-4.16-1.84-6.09c-1.41-1.93-3.8-4.27-7.17-7.03l1.1-1.67c1.42,1.14,3.36,2.52,5.82,4.13,2.75,1.81,5.95,3.68,9.62,5.62-2.31,3.2-6.03,8.7-11.16,16.5-6.12,9.3-10.67,16.37-13.66,21.22l-1.45-.96c1.08-1.8,1.73-3.19,1.94-4.19.21-.99,0-1.91-.63-2.75s-1.86-1.86-3.68-3.06l-36.06-23.72c-1.82-1.2-3.24-1.92-4.27-2.17-1.02-.25-1.95-.08-2.78.51s-1.86,1.74-3.08,3.44l-1.45-.96c1.46-1.92,3.57-4.97,6.33-9.16,2.58-3.93,4.54-7.05,5.86-9.37l1.46.96c-1.08,1.8-1.73,3.19-1.94,4.19h0Z"/>
    <path class="uuid-74acd51d-1208-4257-b59e-0a2b45ab542b" d="m781.29,333.2c4.72-1.08,9.54-.71,14.47,1.12s9.67,5.1,14.21,9.81c4.44,4.61,7.53,9.5,9.25,14.68,1.73,5.18,2.03,10.2.9,15.07-1.13,4.87-3.62,9.16-7.48,12.87-3.98,3.83-8.32,6.29-13.04,7.38s-9.54.71-14.48-1.12c-4.93-1.83-9.67-5.1-14.21-9.81-4.44-4.61-7.53-9.5-9.26-14.68s-2.03-10.2-.9-15.07c1.13-4.87,3.62-9.16,7.48-12.87,3.97-3.83,8.32-6.29,13.04-7.38h.02Zm-16.56,18.35c-.24,3.83.7,7.94,2.81,12.34,2.11,4.39,5.24,8.74,9.39,13.04,4.19,4.34,8.48,7.58,12.89,9.7,4.41,2.12,8.53,3.07,12.37,2.82,3.84-.24,7.04-1.6,9.61-4.08,2.67-2.58,4.12-5.77,4.35-9.59s-.71-7.93-2.82-12.32c-2.11-4.4-5.24-8.74-9.39-13.04-4.19-4.34-8.48-7.58-12.89-9.7s-8.53-3.07-12.36-2.84c-3.83.23-7.03,1.58-9.6,4.06-2.67,2.58-4.13,5.78-4.37,9.61h.01Z"/>
    <path class="uuid-74acd51d-1208-4257-b59e-0a2b45ab542b" d="m838.75,295.01c4.84.14,9.41,1.71,13.73,4.73,4.32,3.01,8.08,7.37,11.29,13.07,3.14,5.58,4.9,11.09,5.27,16.54.37,5.45-.6,10.38-2.92,14.81s-5.81,7.95-10.47,10.58c-4.81,2.71-9.64,4-14.47,3.86-4.84-.14-9.41-1.71-13.73-4.73-4.31-3.01-8.08-7.37-11.29-13.07-3.14-5.58-4.9-11.09-5.27-16.54-.37-5.45.6-10.38,2.92-14.81s5.81-7.95,10.47-10.58c4.81-2.71,9.64-4,14.48-3.86h-.01Zm-20.64,13.6c-1.2,3.65-1.32,7.86-.38,12.65s2.88,9.78,5.81,14.99c2.96,5.26,6.31,9.47,10.04,12.63s7.49,5.11,11.26,5.85c3.78.73,7.22.22,10.33-1.53,3.23-1.82,5.44-4.55,6.62-8.19s1.31-7.85.37-12.64-2.88-9.78-5.81-14.99c-2.96-5.26-6.31-9.47-10.04-12.63s-7.48-5.12-11.24-5.86-7.2-.23-10.31,1.52c-3.23,1.82-5.45,4.55-6.64,8.2h-.01Z"/>
    <path class="uuid-74acd51d-1208-4257-b59e-0a2b45ab542b" d="m924.53,267.49c-.83.58-1.31,1.4-1.42,2.45s.1,2.63.61,4.75l10.25,41.93c.52,2.12,1.07,3.62,1.65,4.5s1.37,1.39,2.38,1.52,2.54,0,4.6-.42l.41,1.69c-2.68.48-6.28,1.27-10.79,2.38-4.84,1.18-8.43,2.15-10.75,2.89l-.41-1.69c2.02-.58,3.43-1.16,4.25-1.74s1.29-1.39,1.39-2.44c.11-1.05-.1-2.63-.62-4.75l-11.05-45.23-7,59.57-1.36.33-34.7-49.64,10.91,44.61c.53,2.17,1.12,3.76,1.78,4.77.65,1.01,1.57,1.62,2.75,1.84s2.89.1,5.14-.36l.41,1.69c-2.05.33-4.94.95-8.68,1.86-3.36.82-5.95,1.54-7.78,2.16l-.41-1.69c1.93-.56,3.31-1.2,4.15-1.91.83-.71,1.29-1.66,1.38-2.85s-.13-2.87-.66-5.04l-10.04-41.06c-.52-2.12-1.07-3.62-1.65-4.5s-1.37-1.38-2.38-1.52c-1.01-.13-2.54,0-4.6.42l-.41-1.69c1.88-.29,4.52-.84,7.9-1.67,2.97-.73,5.36-1.4,7.16-2.01l30.55,44.48,6.23-53.21,4-.98c4.51-1.1,8.07-2.06,10.67-2.87l.41,1.69c-2.02.58-3.44,1.16-4.27,1.74h0Z"/>
    <path class="uuid-74acd51d-1208-4257-b59e-0a2b45ab542b" d="m1034.84,273.29c1.74,1.26,3,2.86,3.79,4.79s.98,4.08.57,6.46c-.47,2.74-1.62,4.99-3.45,6.76-1.83,1.77-4.08,3.06-6.74,3.86-2.17.6-6.67,1.37-13.5,2.29,2.98,1.89,5.01,4.23,6.1,7.02,1.09,2.79,1.35,5.83.78,9.12-.61,3.54-2.24,6.71-4.89,9.48-2.65,2.78-6.12,4.79-10.41,6.03s-9.09,1.41-14.4.5c-5-.86-9.46-2.52-13.39-5s-6.88-5.54-8.85-9.21-2.59-7.64-1.85-11.91c.65-3.77,2.13-6.79,4.45-9.06s4.78-3.88,7.4-4.83c2.62-.94,4.99-1.5,7.12-1.68-2.59-1.68-4.45-3.64-5.58-5.87-1.14-2.24-1.52-4.46-1.14-6.66.33-1.9,1.19-3.57,2.58-5.01,1.4-1.44,3.27-2.47,5.62-3.09s5.06-.66,8.13-.13c3.82.66,6.65,2.03,8.47,4.13.91,1.05,1.54,2.14,1.89,3.28.35,1.14.44,2.2.27,3.17-.24,1.37-.91,2.39-2.03,3.06-1.12.67-2.31.9-3.57.68-1.23-.21-2.21-.78-2.96-1.72-.74-.93-1-2.05-.78-3.37.21-1.23.82-2.22,1.83-2.96,1-.75,2.19-1.06,3.54-.94-.12-.8-.74-1.57-1.84-2.32-1.11-.75-2.51-1.27-4.21-1.56-2.99-.51-5.54-.03-7.66,1.44s-3.46,3.83-4.02,7.07c-.66,3.82.23,7.32,2.68,10.5,2.04,0,3.84.14,5.4.41,1.06.18,1.87.49,2.42.93.56.44.78.98.67,1.62-.09.5-.37.86-.85,1.08s-1.09.27-1.81.14c-.84-.14-1.7-.45-2.6-.92-.9-.47-1.64-.91-2.23-1.31s-.97-.65-1.12-.73c-7.8.93-12.32,4.98-13.55,12.15-.66,3.82-.22,7.3,1.31,10.44,1.53,3.14,3.91,5.74,7.15,7.8,3.24,2.06,7.02,3.47,11.34,4.21,4.08.7,7.94.71,11.59.03,3.65-.68,6.7-2.04,9.15-4.07,2.45-2.04,3.94-4.63,4.49-7.79.38-2.23.17-4.63-.64-7.2-.81-2.57-2.76-4.81-5.85-6.72-5.35.72-8.83,1.24-10.44,1.57-2.56.51-4.6,1.24-6.11,2.18-1.51.95-2.42,2.27-2.71,3.97-.24,1.4-.04,2.69.6,3.88.64,1.19,1.53,2.16,2.67,2.92,1.13.75,2.27,1.23,3.42,1.43.98.17,2.07.18,3.29.05,1.21-.14,1.94-.48,2.18-1.05-1.06-.38-1.92-.99-2.6-1.83-.68-.83-.9-1.91-.68-3.22.23-1.34.86-2.34,1.9-3.01,1.04-.67,2.22-.89,3.56-.66,1.37.24,2.4.85,3.09,1.85s.92,2.19.68,3.59c-.26,1.54-1.01,2.77-2.23,3.71s-2.67,1.56-4.35,1.86-3.31.31-4.9.04c-1.73-.3-3.35-.95-4.86-1.96-1.51-1.01-2.66-2.35-3.44-4.04-.79-1.69-.99-3.65-.61-5.88.5-2.9,1.91-5.2,4.23-6.9s5.58-2.89,9.78-3.58c1.18-.17,3.44-.44,6.8-.79,3.35-.36,6.23-.7,8.65-1.03,2.41-.33,4.63-.77,6.65-1.31,2.93-.82,5.06-1.8,6.39-2.93,1.33-1.14,2.13-2.49,2.4-4.05.27-1.59.06-3.13-.63-4.61-.69-1.48-1.73-2.74-3.12-3.77s-2.96-1.69-4.72-2c-1.45-.25-2.35-.15-2.68.31.69.52,1.18,1.19,1.47,2,.29.81.37,1.61.23,2.39-.2,1.17-.85,2.08-1.93,2.73-1.09.65-2.29.86-3.6.63-1.23-.21-2.23-.76-2.99-1.66-.77-.89-1.03-2.02-.8-3.39.24-1.4.91-2.46,2.01-3.19,1.1-.73,2.41-1.17,3.91-1.31s3.01-.09,4.52.17c2.37.41,4.43,1.24,6.17,2.5h-.02Z"/>
    <path class="uuid-74acd51d-1208-4257-b59e-0a2b45ab542b" d="m1097.99,341.15c.94,3.8.41,7.42-1.58,10.85-1.65,2.84-3.84,4.94-6.58,6.3s-5.82,1.87-9.26,1.53c-3.44-.34-7-1.59-10.7-3.73-1-.58-2.75-1.64-5.23-3.18s-5.01-3.05-7.58-4.55c-4.11-2.39-7.27-4.12-9.46-5.2l.87-1.51c1.86.98,3.28,1.55,4.29,1.71,1,.16,1.91-.1,2.71-.78.8-.68,1.75-1.96,2.85-3.85l21.67-37.33c1.09-1.89,1.74-3.35,1.93-4.38.19-1.04-.03-1.95-.67-2.74-.64-.79-1.84-1.76-3.61-2.88l.87-1.51c2,1.36,5.01,3.21,9.06,5.55,1.96,1.14,4.13,2.37,6.53,3.69,2.39,1.32,4.03,2.24,4.91,2.75,3.43,1.99,6.04,4.17,7.84,6.54,1.8,2.37,2.78,4.79,2.95,7.26.17,2.47-.43,4.88-1.79,7.24-1.68,2.89-4.1,4.96-7.26,6.2-3.16,1.24-7.08,1.32-11.76.25l-.08.15c5.11,3.95,8.13,7.82,9.07,11.62h0Zm-34.56,5.89c-.2,1.03,0,1.93.59,2.7.6.77,1.71,1.63,3.32,2.57,9.38,5.45,16.62,3.77,21.73-5.02,2.29-3.94,2.96-7.57,2.01-10.87-.95-3.3-3.75-6.3-8.4-9l-6.32-3.67-11.05,19.03c-1.05,1.81-1.68,3.23-1.88,4.26h0Zm29.29-19.99c2.93-1.28,5.48-3.77,7.64-7.5,2.19-3.77,2.99-7.06,2.4-9.88s-2.74-5.3-6.44-7.44c-1.57-.91-2.85-1.42-3.84-1.51-.99-.1-1.89.22-2.71.95-.82.74-1.75,2-2.79,3.79l-9.88,17.01,5.07,2.94c4.09,2.38,7.6,2.92,10.54,1.65h0Z"/>
    <path class="uuid-74acd51d-1208-4257-b59e-0a2b45ab542b" d="m1143.3,336.99c-.95-.38-1.89-.32-2.82.16-.93.48-2.14,1.53-3.63,3.12l-29.38,31.61c-1.48,1.6-2.43,2.87-2.83,3.83-.41.96-.38,1.88.09,2.78.46.89,1.46,2.06,3,3.48l4.67,4.34c2.66,2.47,5.02,3.97,7.09,4.5s4.18.27,6.31-.8c2.13-1.07,4.84-3.04,8.13-5.9l1.46,1.36c-1.36,1.21-3.04,2.9-5.04,5.05-2.24,2.41-4.62,5.26-7.14,8.56-2.77-2.8-7.57-7.39-14.42-13.75-8.15-7.58-14.37-13.24-18.66-16.99l1.18-1.27c1.59,1.36,2.86,2.23,3.81,2.61.95.38,1.88.32,2.82-.16.93-.48,2.14-1.53,3.63-3.12l29.39-31.61c1.48-1.6,2.43-2.88,2.85-3.85.42-.97.4-1.91-.04-2.82-.44-.92-1.41-2.12-2.88-3.61l1.19-1.28c1.65,1.76,4.31,4.35,7.98,7.76,3.44,3.2,6.2,5.64,8.26,7.33l-1.19,1.28c-1.59-1.37-2.86-2.24-3.81-2.61h-.02Z"/>
    <path class="uuid-74acd51d-1208-4257-b59e-0a2b45ab542b" d="m1181.29,379.09c-.87-.53-1.8-.63-2.81-.31-1,.32-2.37,1.14-4.1,2.47l-34.29,26.22c-1.73,1.32-2.89,2.43-3.46,3.31s-.72,1.81-.43,2.79c.28.98,1.03,2.32,2.23,4.04l-1.38,1.06c-1.48-2.22-3.65-5.19-6.51-8.93-3.03-3.96-5.35-6.86-6.96-8.69l1.38-1.06c1.34,1.61,2.44,2.68,3.31,3.21.87.53,1.8.63,2.81.31,1-.32,2.37-1.14,4.1-2.47l34.29-26.22c1.73-1.32,2.88-2.43,3.46-3.31.57-.88.72-1.81.43-2.79-.29-.98-1.03-2.32-2.23-4.04l1.38-1.06c1.33,2.01,3.51,5.01,6.56,9,2.86,3.73,5.16,6.61,6.91,8.62l-1.38,1.06c-1.34-1.61-2.45-2.68-3.31-3.21h0Z"/>
    <path class="uuid-74acd51d-1208-4257-b59e-0a2b45ab542b" d="m1148.57,425.48c-2.02,3.92-1.81,8.16.65,12.72.94,1.75,2.17,3.18,3.71,4.3,1.54,1.12,3.32,1.73,5.36,1.85,2.04.11,4.2-.45,6.5-1.69,1.97-1.06,3.48-2.49,4.52-4.29,1.04-1.8,1.77-3.87,2.18-6.21s.7-5.33.87-8.96c.18-4.02.5-7.35.96-9.97.45-2.62,1.37-5.07,2.74-7.33,1.37-2.27,3.41-4.13,6.13-5.59,2.89-1.56,5.69-2.22,8.39-1.98,2.7.24,5.13,1.18,7.29,2.83s3.94,3.79,5.35,6.41c.84,1.57,1.44,2.99,1.79,4.27.35,1.28.53,2.39.55,3.35s-.03,2.04-.15,3.26c-.11,1.54,0,2.6.32,3.2.25.47.72.69,1.39.65s1.63-.3,2.88-.78l.95,1.76c-3.13,1.36-8.41,4.04-15.84,8.04l-.95-1.76c2.51-1.61,4.62-3.48,6.34-5.61,1.72-2.13,2.78-4.47,3.19-7.02.41-2.55-.11-5.18-1.56-7.87-.97-1.8-2.21-3.2-3.72-4.22s-3.16-1.56-4.93-1.64c-1.78-.07-3.54.36-5.28,1.3-2.77,1.49-4.55,3.53-5.35,6.11-.8,2.58-1.27,5.36-1.43,8.32-.16,2.96-.27,4.96-.32,5.99-.29,4.3-.67,7.79-1.15,10.46-.48,2.67-1.39,5.09-2.75,7.27-1.35,2.18-3.33,3.96-5.92,5.36-3.14,1.69-6.19,2.4-9.15,2.13-2.96-.27-5.65-1.34-8.07-3.21s-4.45-4.32-6.08-7.36c-1.32-2.44-2.14-4.59-2.47-6.44s-.44-3.7-.32-5.57c.11-1.54,0-2.6-.32-3.2-.25-.47-.72-.69-1.39-.65s-1.63.3-2.88.78l-.95-1.76c2.9-1.3,9.08-4.5,18.53-9.58l.95,1.76c-5,3.14-8.51,6.67-10.54,10.59l-.02-.02Z"/>
    <path class="uuid-74acd51d-1208-4257-b59e-0a2b45ab542b" d="m1167.46,464.99c-2.75,3.45-3.37,7.65-1.85,12.6.58,1.9,1.51,3.54,2.8,4.94s2.92,2.35,4.89,2.86c1.98.51,4.21.38,6.7-.38,2.14-.65,3.9-1.76,5.27-3.32s2.49-3.45,3.35-5.67,1.73-5.09,2.61-8.62c.97-3.91,1.93-7.11,2.89-9.59s2.33-4.7,4.12-6.66c1.79-1.95,4.16-3.38,7.11-4.28,3.14-.96,6.01-1.06,8.61-.3s4.8,2.16,6.59,4.2,3.13,4.49,4,7.33c.52,1.71.83,3.22.92,4.54.09,1.32.05,2.45-.12,3.39s-.43,2-.79,3.17c-.4,1.49-.51,2.55-.31,3.2.16.51.57.82,1.23.91.67.09,1.66.03,2.98-.2l.58,1.91c-3.33.72-9.03,2.32-17.11,4.78l-.58-1.91c2.78-1.09,5.22-2.51,7.32-4.26s3.6-3.84,4.5-6.26.91-5.1.01-8.02c-.6-1.95-1.54-3.57-2.82-4.87-1.28-1.29-2.79-2.15-4.52-2.57s-3.54-.34-5.43.24c-3.01.92-5.15,2.57-6.44,4.94s-2.3,5-3.03,7.88c-.74,2.88-1.23,4.81-1.49,5.81-1.13,4.16-2.18,7.51-3.17,10.03s-2.36,4.72-4.12,6.59c-1.75,1.87-4.04,3.23-6.86,4.1-3.41,1.04-6.54,1.14-9.39.29s-5.28-2.42-7.29-4.72-3.52-5.11-4.52-8.41c-.81-2.65-1.2-4.92-1.17-6.79s.29-3.72.78-5.52c.4-1.49.51-2.55.31-3.2-.16-.52-.57-.82-1.23-.91-.67-.09-1.66-.03-2.98.2l-.58-1.91c3.1-.71,9.78-2.63,20.05-5.77l.58,1.91c-5.52,2.1-9.65,4.88-12.4,8.32h0Z"/>
  </g>
  <circle class="uuid-74acd51d-1208-4257-b59e-0a2b45ab542b" cx="719.91" cy="501.41" r="4.89"/>
  <circle class="uuid-74acd51d-1208-4257-b59e-0a2b45ab542b" cx="1203.91" cy="501.41" r="4.89"/>
  <path class="uuid-9491949e-75b3-42d7-9c21-2eaeeaf15e8a" d="m800.78,865.57c-44.9,16.45-135.31,38.21-163.12-14.26l-.51-.92-.42-.96-.83-1.92c-.45-1.1-1.21-2.73-1.51-3.89l-1.27-3.96c-.33-1.39-1.07-4.7-1.37-6.05-.73-4.53-1.19-9.44-1.5-13.99-.38-3.93-.85-11.8-1.01-15.74-3.17-73.2-1.51-146.44-.17-219.63l1.57-62.75c1.74-42.24,11.3-84.25,28.44-122.98,50.41-117.54,172.57-199.75,300.97-198.48v9.59h-.35v-9.6c84.99-.28,169.05,34.63,229.31,94.47,60.72,59.3,97.16,142.25,100.31,226.99l1.58,62.75c1.36,73.2,3.05,146.44-.11,219.65-.3,7.33-1.02,16.37-1.65,23.65l-.57,4.08-.29,2.04-.45,2.03-.92,4.05-1.28,3.98c-22.05,62.26-119.93,39.51-166.66,21.85,39.61,7.92,103.57,21.94,139.32.51,7.17-4.36,13.2-10.76,16.99-18.26l.44-.79.36-.84.71-1.67c.98-1.96,1.72-4.82,2.41-6.88l.8-3.6.4-1.8.25-1.84.5-3.68c1.59-18.01,2.17-36.37,2.59-54.45,1.05-62.55-.09-125.25-1.62-187.82l-1.77-62.56c-1.82-41.2-11.33-81.99-28.03-119.69-49.14-114.16-167.86-193.95-292.64-192.57v-9.6h.35v9.6c-147.57-1.64-280.51,107.8-312.42,251.05-9.42,34.69-9.16,87.61-10.24,123.77-.52,20.87-1.01,41.75-1.34,62.63-.78,54.76-1.6,109.54,1.07,164.21.52,5.94.79,13.3,1.68,19.16l.25,1.85.4,1.81.81,3.61,1.12,3.5c.55,1.94,1.63,4.06,2.38,5.94l.44.79,1.75,3.19c1.58,2.54,3.49,4.95,5.47,7.2,31.46,33.09,108.86,15.6,149.35,7.23h.03Z"/>
</svg>